<svg width="120" height="120" viewBox="0 0 120 120" fill="none" xmlns="http://www.w3.org/2000/svg">
<circle cx="60" cy="60" r="60" fill="#F7F6F7"/>
<path d="M60 31.6665C44.36 31.6665 31.6667 44.3598 31.6667 59.9998C31.6667 75.6398 44.36 88.3332 60 88.3332C75.64 88.3332 88.3334 75.6398 88.3334 59.9998C88.3334 44.3598 75.64 31.6665 60 31.6665ZM62.8334 41.0165L66.6584 38.3248C71.7837 39.9131 76.1805 43.2659 79.0684 47.7882L77.9634 51.5848L74.1384 52.8882L62.8334 44.9832V41.0165ZM53.3417 38.3248L57.1667 41.0165V44.9832L45.8617 52.8882L42.0367 51.5848L40.9317 47.7882C43.8364 43.2814 48.2269 39.9334 53.3417 38.3248ZM46.06 74.4782L42.83 74.7615C39.2783 70.6644 37.3263 65.4221 37.3334 59.9998C37.3334 59.6598 37.3617 59.3482 37.39 59.0082L40.2234 56.9398L44.1334 58.2998L48.27 70.5965L46.06 74.4782ZM67.0834 81.5048C64.845 82.2415 62.465 82.6665 60 82.6665C57.535 82.6665 55.155 82.2415 52.9167 81.5048L50.9617 77.2832L52.775 74.1665H67.2534L69.0667 77.3115L67.0834 81.5048ZM66.4317 68.4998H53.5684L49.7434 57.1098L60 49.9132L70.285 57.1098L66.4317 68.4998ZM77.17 74.7615L73.94 74.4782L71.7017 70.5965L75.8384 58.2998L79.7767 56.9682L82.61 59.0365C82.6384 59.3482 82.6667 59.6598 82.6667 59.9998C82.6667 65.6382 80.5984 70.7948 77.17 74.7615Z" fill="#0485CE"/>
</svg>
