<svg width="120" height="120" viewBox="0 0 120 120" fill="none" xmlns="http://www.w3.org/2000/svg">
<circle cx="60" cy="60" r="60" fill="#F7F6F7"/>
<path d="M82.6667 37.3332H73.685L68.5 31.6665H51.5L46.315 37.3332H37.3334C34.2167 37.3332 31.6667 39.8832 31.6667 42.9998V76.9998C31.6667 80.1165 34.2167 82.6665 37.3334 82.6665H82.6667C85.7834 82.6665 88.3334 80.1165 88.3334 76.9998V42.9998C88.3334 39.8832 85.7834 37.3332 82.6667 37.3332ZM82.6667 76.9998H37.3334V42.9998H48.8084L53.9934 37.3332H66.0067L71.1917 42.9998H82.6667V76.9998ZM60 45.8332C52.18 45.8332 45.8334 52.1798 45.8334 59.9998C45.8334 67.8198 52.18 74.1665 60 74.1665C67.82 74.1665 74.1667 67.8198 74.1667 59.9998C74.1667 52.1798 67.82 45.8332 60 45.8332ZM60 68.4998C55.325 68.4998 51.5 64.6748 51.5 59.9998C51.5 55.3248 55.325 51.4998 60 51.4998C64.675 51.4998 68.5 55.3248 68.5 59.9998C68.5 64.6748 64.675 68.4998 60 68.4998Z" fill="#0485CE"/>
</svg>
