<svg width="68" height="68" viewBox="0 0 68 68" fill="none" xmlns="http://www.w3.org/2000/svg">
<path d="M58.0833 53.8331H9.91662C8.35829 53.8331 7.08329 55.1081 7.08329 56.6664C7.08329 58.2248 8.35829 59.4998 9.91662 59.4998H58.0833C59.6416 59.4998 60.9166 58.2248 60.9166 56.6664C60.9166 55.1081 59.6416 53.8331 58.0833 53.8331ZM62.5316 27.3131C61.9083 25.0464 59.585 23.7148 57.3183 24.3098L42.2733 28.3331L23.97 11.2764C23.5913 10.9175 23.1256 10.6634 22.6188 10.5392C22.1121 10.415 21.5817 10.425 21.08 10.5681C19.1533 11.1064 18.2466 13.3164 19.2383 15.0448L28.985 31.9314L14.9033 35.6998L10.455 32.1864C9.74662 31.6481 8.83995 31.4498 7.96162 31.6764L7.02662 31.9314C6.11995 32.1581 5.69495 33.2064 6.17662 33.9998L11.5033 43.2081C12.155 44.3131 13.4583 44.8514 14.6766 44.5398L59.5 32.5264C61.7666 31.9031 63.1266 29.5798 62.5316 27.3131Z" fill="#0485CE"/>
</svg>
