<svg width="68" height="68" viewBox="0 0 68 68" fill="none" xmlns="http://www.w3.org/2000/svg">
<path d="M53.8333 8.5H14.1667C11.05 8.5 8.5 11.05 8.5 14.1667V53.8333C8.5 56.95 11.05 59.5 14.1667 59.5H53.8333C56.95 59.5 59.5 56.95 59.5 53.8333V14.1667C59.5 11.05 56.95 8.5 53.8333 8.5ZM53.8333 53.8333H14.1667V40.8567L16.9717 43.6617L28.305 32.3283L39.6383 43.6617L50.9717 32.3567L53.8333 35.2183V53.8333ZM53.8333 27.1717L50.9717 24.31L39.6383 35.6717L28.305 24.3383L16.9717 35.6717L14.1667 32.8383V14.1667H53.8333V27.1717Z" fill="#0485CE"/>
</svg>
