<svg width="16" height="26" viewBox="0 0 16 26" fill="none" xmlns="http://www.w3.org/2000/svg">
<g clip-path="url(#clip0_236:25)">
<path d="M5.13422 7.995C5.40088 8.255 5.40088 8.658 5.13422 8.918C4.86755 9.178 4.45422 9.178 4.18755 8.918L0.187549 5.018C-0.0791178 4.758 -0.0791178 4.355 0.187549 4.095L4.18755 0.195C4.45422 -0.065 4.86755 -0.065 5.13422 0.195C5.40088 0.455 5.40088 0.858 5.13422 1.118L2.28088 3.9H4.66755C10.9209 3.9 16.0009 8.853 16.0009 14.95C16.0009 21.047 10.9209 26 4.66755 26C4.29422 26 4.00088 25.714 4.00088 25.35C4.00088 24.986 4.29422 24.7 4.66755 24.7C10.1875 24.7 14.6675 20.332 14.6675 14.95C14.6675 9.568 10.1875 5.2 4.66755 5.2H2.28088L5.13422 7.995Z" fill="white"/>
</g>
<defs>
<clipPath id="clip0_236:25">
<rect width="16" height="26" fill="white"/>
</clipPath>
</defs>
</svg>
