<svg width="695" height="489" viewBox="0 0 695 489" fill="none" xmlns="http://www.w3.org/2000/svg">
<path fill-rule="evenodd" clip-rule="evenodd" d="M680.858 88.7645C717.358 145.952 671.436 207.062 654.729 272.815C639.819 331.493 638.4 364.182 590.52 401.235C544.521 436.833 478.044 410.451 422.228 426.816C354.437 446.692 278.537 506.915 212.129 482.816C147.381 459.319 178.675 430.319 141.97 372.035C100.243 305.775 -16.109 266.593 2.17206 190.453C21.1038 111.604 141.031 118.824 212.128 79.8267C256.817 55.3147 291.07 15.0964 340.953 4.62828C392.184 -6.12267 442.479 8.24586 493.292 20.8236C559.46 37.2022 644.184 31.3054 680.858 88.7645Z" fill="#FFC72C"/>
</svg>
