<svg width="154" height="81" viewBox="0 0 154 81" fill="none" xmlns="http://www.w3.org/2000/svg">
<g clip-path="url(#clip0_237:88)">
<path d="M106.371 66.9917V71.0429H105.631V67.7934H103.821V71.0429H103.081V66.9917H106.371Z" fill="white"/>
<path d="M110.092 71.0405L109.763 70.2118H108.066L107.737 71.0405H106.941L108.541 66.9893H109.27L110.87 71.0405H110.092ZM109.452 69.4281L108.915 68.0627L108.372 69.4281H109.452Z" fill="white"/>
<path d="M112.61 66.9962C112.797 66.9962 112.973 67.0254 113.13 67.086C113.288 67.1467 113.43 67.232 113.549 67.3465C113.668 67.4588 113.763 67.5891 113.832 67.7418C113.9 67.8945 113.934 68.0696 113.934 68.2605C113.934 68.4469 113.9 68.6153 113.837 68.768C113.774 68.9208 113.684 69.051 113.565 69.1633C113.445 69.2756 113.303 69.3609 113.141 69.4238C112.977 69.4867 112.802 69.5136 112.61 69.5136H112.18V71.0429H111.44V66.9917H112.606L112.61 66.9962ZM112.187 68.7276H112.725C112.856 68.7276 112.968 68.6827 113.058 68.5974C113.148 68.512 113.193 68.3998 113.193 68.2583C113.193 68.128 113.148 68.0157 113.063 67.9259C112.977 67.8361 112.865 67.7912 112.723 67.7912H112.185V68.7276H112.187Z" fill="white"/>
<path d="M115.345 66.9917V68.5367L116.724 66.9917H117.674L115.961 68.9163L117.895 71.0429H116.871L115.345 69.3677V71.0429H114.604V66.9917H115.345Z" fill="white"/>
<path d="M120.566 68.1008C120.566 68.3141 120.618 68.4668 120.719 68.5522C120.821 68.6375 120.974 68.6824 121.183 68.6824C121.291 68.6824 121.381 68.6757 121.455 68.6644C121.53 68.6532 121.602 68.6353 121.676 68.6195V66.9959H122.416V71.0471H121.676V69.4235C121.59 69.4415 121.5 69.4572 121.404 69.4684C121.307 69.4796 121.194 69.4864 121.064 69.4864C120.895 69.4864 120.735 69.4639 120.584 69.419C120.431 69.3741 120.301 69.3067 120.188 69.2169C120.076 69.1271 119.986 69.008 119.918 68.8621C119.851 68.7161 119.817 68.5409 119.817 68.3366V66.9937H120.557L120.566 68.1008Z" fill="white"/>
<path d="M123.857 66.9917L124.672 68.813L125.401 66.9917H126.209L124.586 71.0429H123.778L124.298 69.7404L123.06 66.9939H123.857V66.9917Z" fill="white"/>
<path d="M130.08 70.2345V71.9053H129.378V71.0362H126.794V71.9053H126.094V70.2345H126.434C126.677 69.8168 126.864 69.3721 126.994 68.8983C127.125 68.4244 127.192 67.899 127.192 67.3241V66.9917H129.556V70.2412L130.08 70.2345ZM128.82 67.7867H127.897C127.868 68.2313 127.8 68.6602 127.699 69.0735C127.597 69.4844 127.449 69.8752 127.258 70.2345H128.817V67.7867H128.82Z" fill="white"/>
<path d="M133.103 66.9917V67.7934H131.604V68.5614H132.932V69.3632H131.604V70.2435H133.103V71.0452H130.863V66.9939H133.103V66.9917Z" fill="white"/>
<path d="M137.268 70.4139C137.205 70.515 137.127 70.6116 137.03 70.7014C136.933 70.7912 136.821 70.8698 136.69 70.9372C136.559 71.0046 136.413 71.0562 136.256 71.0899C136.098 71.1236 135.927 71.1415 135.74 71.1415C135.468 71.1415 135.209 71.0899 134.959 70.9888C134.709 70.8878 134.491 70.7463 134.298 70.5599C134.106 70.3735 133.953 70.1534 133.841 69.8952C133.728 69.6347 133.672 69.3472 133.672 69.0373C133.672 68.7274 133.728 68.44 133.841 68.1795C133.953 67.919 134.106 67.7011 134.298 67.5147C134.491 67.3284 134.709 67.1869 134.959 67.0858C135.209 66.9848 135.468 66.9331 135.74 66.9331C135.92 66.9331 136.091 66.9511 136.249 66.9892C136.406 67.0274 136.555 67.0791 136.683 67.1464C136.814 67.2138 136.926 67.2879 137.023 67.3733C137.12 67.4586 137.199 67.5484 137.255 67.645L137.023 68.2985C136.967 68.2244 136.899 68.1525 136.821 68.0851C136.742 68.0178 136.652 67.9549 136.544 67.9055C136.436 67.8538 136.323 67.8089 136.199 67.7752C136.076 67.7416 135.945 67.7236 135.803 67.7236C135.605 67.7236 135.425 67.7528 135.254 67.8134C135.085 67.8763 134.944 67.9594 134.824 68.0739C134.705 68.1862 134.61 68.3232 134.541 68.4849C134.473 68.6488 134.439 68.8285 134.439 69.0261C134.439 69.2237 134.473 69.4034 134.541 69.5673C134.608 69.7312 134.705 69.866 134.824 69.9783C134.944 70.0906 135.09 70.1759 135.259 70.2388C135.427 70.3016 135.614 70.3286 135.812 70.3286C135.959 70.3286 136.096 70.3106 136.224 70.2769C136.355 70.2433 136.474 70.1983 136.58 70.1422C136.688 70.0861 136.782 70.0232 136.863 69.9513C136.942 69.8772 137.01 69.8054 137.066 69.7245L137.298 70.396L137.268 70.4139Z" fill="white"/>
<path d="M105.746 78.4423V75.7116L103.828 78.4423H103.081V74.3911H103.821V77.1376L105.743 74.3911H106.484V78.4423H105.746Z" fill="white"/>
<path d="M112.374 74.3911V78.4423H111.633V75.1928H109.824V78.4423H109.083V74.3911H112.374Z" fill="white"/>
<path d="M114.561 74.3976C114.748 74.3976 114.924 74.4268 115.081 74.4874C115.239 74.5503 115.381 74.6334 115.5 74.7479C115.619 74.8602 115.714 74.9904 115.784 75.1431C115.851 75.2958 115.885 75.471 115.885 75.6619C115.885 75.8483 115.851 76.0167 115.788 76.1694C115.725 76.3221 115.635 76.4524 115.516 76.5647C115.396 76.6769 115.255 76.7623 115.093 76.8252C114.928 76.888 114.753 76.915 114.561 76.915H114.132V78.4443H113.391V74.3931H114.557L114.561 74.3976ZM114.136 76.129H114.674C114.805 76.129 114.917 76.0841 115.007 75.9987C115.097 75.9134 115.142 75.8011 115.142 75.6596C115.142 75.5294 115.097 75.4171 115.012 75.3273C114.926 75.2374 114.814 75.1925 114.672 75.1925H114.134V76.129H114.136Z" fill="white"/>
<path d="M119.218 78.4423V75.7116L117.3 78.4423H116.553V74.3911H117.294V77.1376L119.216 74.3911H119.956V78.4423H119.218Z" fill="white"/>
<path d="M121.714 74.3911V75.9362L123.094 74.3911H124.044L122.331 76.3157L124.264 78.4423H123.24L121.714 76.7671V78.4423H120.974V74.3911H121.714Z" fill="white"/>
<path d="M127.973 78.4488H127.233V75.1993H126.137L126.125 75.5271C126.107 76.001 126.074 76.4187 126.017 76.7847C125.961 77.1508 125.882 77.4562 125.781 77.7055C125.68 77.9547 125.549 78.1389 125.396 78.2691C125.243 78.3994 125.063 78.46 124.854 78.46C124.791 78.46 124.735 78.4555 124.685 78.4421C124.633 78.4308 124.595 78.4129 124.566 78.3971L124.431 77.7436C124.543 77.7369 124.644 77.7145 124.741 77.6808C124.838 77.6471 124.921 77.5842 124.996 77.5011C125.07 77.4158 125.131 77.3035 125.182 77.162C125.234 77.0205 125.279 76.8409 125.317 76.6208C125.358 76.4007 125.385 76.1357 125.403 75.8258C125.421 75.5159 125.432 75.1499 125.437 74.7254L125.443 74.3931H127.993L127.973 78.4488Z" fill="white"/>
<path d="M132.398 74.3238C132.682 74.3238 132.947 74.3755 133.202 74.481C133.456 74.5888 133.677 74.7348 133.868 74.9212C134.059 75.1076 134.212 75.3276 134.327 75.5859C134.44 75.8464 134.496 76.1271 134.496 76.4325C134.496 76.7312 134.44 77.0074 134.327 77.2612C134.215 77.515 134.061 77.735 133.868 77.9214C133.677 78.1078 133.456 78.2538 133.202 78.3616C132.947 78.4694 132.682 78.5188 132.405 78.5188C132.151 78.5188 131.908 78.4739 131.676 78.3885C131.444 78.3032 131.235 78.1797 131.048 78.0225C130.861 77.8653 130.708 77.6789 130.584 77.4633C130.46 77.25 130.375 77.0119 130.337 76.7581H129.742V78.4402H129.002V74.3889H129.742V75.9564H130.352C130.404 75.7139 130.494 75.4938 130.625 75.2917C130.755 75.0896 130.908 74.9144 131.088 74.7662C131.268 74.6203 131.473 74.5057 131.698 74.4271C131.926 74.3485 132.162 74.3081 132.405 74.3081L132.398 74.3238ZM132.391 75.148C132.205 75.148 132.029 75.1772 131.865 75.2378C131.701 75.2985 131.559 75.3905 131.442 75.5028C131.322 75.6151 131.228 75.7521 131.158 75.9093C131.091 76.0665 131.057 76.2416 131.057 76.4393C131.057 76.6369 131.091 76.812 131.158 76.9692C131.226 77.1264 131.322 77.2634 131.442 77.3757C131.561 77.488 131.703 77.5778 131.865 77.6407C132.029 77.7036 132.205 77.7305 132.391 77.7305C132.578 77.7305 132.754 77.6969 132.918 77.634C133.082 77.5711 133.224 77.4813 133.341 77.369C133.461 77.2567 133.555 77.1197 133.625 76.9625C133.692 76.8053 133.726 76.6234 133.726 76.4258C133.726 76.2282 133.692 76.0485 133.625 75.8891C133.557 75.7319 133.467 75.5949 133.348 75.4826C133.229 75.3703 133.087 75.2805 132.925 75.2176C132.761 75.1547 132.585 75.121 132.398 75.121L132.391 75.148Z" fill="white"/>
<path d="M135.781 75.5026C135.781 75.716 135.833 75.8687 135.934 75.954C136.035 76.0394 136.188 76.0843 136.398 76.0843C136.506 76.0843 136.596 76.0775 136.67 76.0663C136.744 76.0551 136.816 76.0371 136.891 76.0214V74.3978H137.631V78.449H136.891V76.8253C136.805 76.8433 136.715 76.859 136.618 76.8703C136.521 76.8815 136.409 76.8882 136.278 76.8882C136.11 76.8882 135.95 76.8658 135.799 76.8208C135.646 76.7759 135.515 76.7086 135.403 76.6187C135.29 76.5289 135.2 76.4099 135.133 76.2639C135.065 76.118 135.031 75.9428 135.031 75.7384V74.3955H135.772L135.781 75.5026Z" fill="white"/>
<path d="M140.87 74.3911V75.1928H139.371V75.9609H140.698V76.7626H139.371V77.6429H140.87V78.4446H138.63V74.3934H140.87V74.3911Z" fill="white"/>
<path d="M142.483 74.3911V75.9586H144.372V74.3911H145.112V78.4423H144.372V76.7603H142.483V78.4423H141.743V74.3911H142.483Z" fill="white"/>
<path d="M148.792 78.4423V75.7116L146.874 78.4423H146.127V74.3911H146.868V77.1376L148.79 74.3911H149.53V78.4423H148.792Z" fill="white"/>
<path d="M153.212 78.4424V75.7117L151.295 78.4424H150.547V74.3912H151.288V77.1377L153.21 74.3912H153.95V78.4424H153.212ZM153.201 73.3425C153.201 73.466 153.178 73.5783 153.127 73.6861C153.075 73.7938 153.007 73.8837 152.917 73.9555C152.827 74.0296 152.726 74.0858 152.607 74.1307C152.487 74.1756 152.364 74.1981 152.233 74.1981C152.103 74.1981 151.979 74.1756 151.859 74.1307C151.74 74.0858 151.639 74.0229 151.553 73.951C151.468 73.8792 151.4 73.7871 151.351 73.6793C151.299 73.5715 151.277 73.4547 151.277 73.329L151.819 73.2437C151.823 73.3514 151.864 73.4413 151.938 73.5154C152.013 73.5895 152.114 73.6277 152.238 73.6277C152.368 73.6277 152.469 73.5872 152.544 73.5154C152.618 73.4413 152.656 73.3514 152.663 73.2437L153.201 73.329V73.3425Z" fill="white"/>
<path d="M35.0047 54.223L34.0324 31.1484H21.7032L16.2138 54.223H13.5715V63.1519H18.4082V59.3252H32.5177V63.1519H37.3544V54.223H35.0047ZM20.9965 54.223L25.4056 36.6931H29.6368L30.0667 54.223H20.9965Z" fill="white"/>
<path d="M44.6398 31.1569L40.0259 31.1479V59.3247H44.6353V50.9146C50.1562 50.9146 54.0836 46.8229 54.0836 41.0358C54.0836 35.2463 50.1584 31.1592 44.6398 31.1569ZM44.6353 45.2644V36.6926C47.2348 36.6926 49.2469 37.9996 49.2469 40.9796C49.2469 43.9574 47.2348 45.2644 44.6353 45.2644Z" fill="white"/>
<path d="M61.4545 49.0212V31.1455H56.9014V59.3223H61.7313L68.1052 42.6614L67.484 59.3223H72.1519L72.7754 31.1927H67.8937L61.4545 49.0212Z" fill="white"/>
<path d="M115.466 43.7373C116.542 42.5381 117.181 40.9594 117.181 39.0842C117.181 34.7747 113.97 31.1479 108.816 31.1479H104.377V59.3247H108.764C114.408 59.3247 118.89 56.7152 118.89 50.1173C118.89 47.144 117.501 44.9994 115.466 43.7373ZM108.984 36.3422C111.631 36.3422 112.572 37.7233 112.572 39.1965C112.572 40.6675 111.577 42.1047 108.991 42.1069C108.989 42.1069 108.987 42.1069 108.984 42.1069V36.3422ZM108.984 54.1169V46.3378C112.12 46.3378 114.165 47.4854 114.165 50.2274C114.165 52.9694 112.036 54.1169 108.984 54.1169Z" fill="white"/>
<path d="M130.841 31.166L127.116 41.6557L122.988 31.166H117.58L124.768 48.2692L120.83 59.3607H126.038L136.076 31.166H130.841Z" fill="white"/>
<path d="M151.308 54.2225L149.141 31.1479H138.61C138.61 31.1479 136.179 48.6778 133.874 54.2225H131.068V63.1783H135.905V59.3247H149.161V63.1783H153.998V54.2225H151.308ZM139.123 54.2225C140.784 48.9878 141.961 42.3135 142.542 36.6926H144.973L146.37 54.2225H139.123Z" fill="white"/>
<path d="M87.6546 48.9294L82.1877 31.1457H77.5963L76.6128 59.3135H81.1231L81.508 43.7216L85.0866 54.5706H89.7252L95.3834 42.2013V59.3135H99.9343V31.1367L95.3451 31.1457L87.6546 48.9294Z" fill="white"/>
<path d="M12.4912 33.7505L12.3922 33.8493L12.4912 33.7505ZM2.49825 33.7505L2.59728 33.8493L2.49825 33.7505ZM12.39 33.8493C9.68464 36.5487 9.68464 40.9233 12.39 43.6204L12.489 43.7192L12.39 43.6204C11.0373 42.2707 9.26602 41.597 7.49249 41.597C5.72121 41.597 3.94768 42.2707 2.59503 43.6204C5.30033 40.921 5.30033 36.5464 2.59503 33.8493C3.94768 35.199 5.71896 35.8727 7.49249 35.8727C9.26602 35.875 11.0395 35.199 12.39 33.8493ZM2.59728 43.6226L2.49825 43.7214L2.59728 43.6226ZM9.99299 31.2578L9.89396 31.3566L12.3922 33.8493L9.89396 31.3566C9.25251 31.9966 8.40176 32.3492 7.49474 32.3492C6.58772 32.3492 5.73696 31.9966 5.09552 31.3566L4.99649 31.2578L0 36.2433L0.0990296 36.3421C1.42243 37.6625 1.42243 39.8094 0.0990296 41.1299L0 41.2287L4.99424 46.2119L5.09327 46.1131C5.73471 45.4731 6.58547 45.1205 7.49249 45.1205C8.39951 45.1205 9.25026 45.4731 9.89171 46.1131L9.99074 46.2119L14.985 41.2265L14.8859 41.1276C13.5626 39.8072 13.5626 37.6603 14.8859 36.3398L14.985 36.241L9.99299 31.2578Z" fill="white"/>
<path d="M147.315 27.4132L147.066 27.1639C141.004 21.1163 131.147 21.1185 125.085 27.1639L124.836 27.4132L122.337 24.9205L122.587 24.6712C128.646 18.6258 128.646 8.78741 122.587 2.73975L122.337 2.49048L124.836 0L125.085 0.249272C128.02 3.17766 131.923 4.79231 136.076 4.79231C140.228 4.79231 144.131 3.17991 147.066 0.249272L147.315 0L149.814 2.49272L149.564 2.74199C143.505 8.78741 143.505 18.6258 149.564 24.6735L149.814 24.9227L147.315 27.4132ZM129.504 7.1503C131.05 11.37 131.05 16.0298 129.508 20.2517C131.583 19.4949 133.8 19.0996 136.076 19.0996C138.346 19.0996 140.557 19.4926 142.629 20.2472C141.873 18.1812 141.479 15.9736 141.479 13.7077C141.479 11.4373 141.875 9.22756 142.634 7.15479C138.403 8.69309 133.73 8.69084 129.504 7.1503Z" fill="white"/>
<path d="M95.6424 64.411L90.3445 69.6973L92.8415 72.1887L98.1394 66.9025L95.6424 64.411Z" fill="white"/>
<path d="M84.0102 64.4119L81.5132 66.9033L86.8111 72.1896L89.3081 69.6981L84.0102 64.4119Z" fill="white"/>
<path d="M86.8119 73.2236L81.5139 78.5098L84.0109 81.0012L89.3088 75.715L86.8119 73.2236Z" fill="white"/>
<path d="M92.8422 73.2234L90.3452 75.7148L95.6431 81.0011L98.1401 78.5096L92.8422 73.2234Z" fill="white"/>
</g>
<defs>
<clipPath id="clip0_237:88">
<rect width="154" height="81" fill="white"/>
</clipPath>
</defs>
</svg>
