<svg width="40" height="40" viewBox="0 0 40 40" fill="none" xmlns="http://www.w3.org/2000/svg">
<circle cx="20" cy="20" r="20" fill="#681A91"/>
<path d="M21.7211 29.9888C21.6219 29.9928 21.5584 30.0007 21.4949 30.0007C20.1371 30.0007 18.7834 29.9967 17.4256 30.0047C17.2351 30.0047 17.1835 29.9531 17.1835 29.7625C17.1874 26.6024 17.1874 23.4383 17.1874 20.2782C17.1874 20.1949 17.1874 20.1115 17.1874 20.0043C16.449 20.0043 15.7305 20.0043 15 20.0043C15 18.8769 15 17.7692 15 16.6299C15.0754 16.6299 15.1469 16.6299 15.2144 16.6299C15.8099 16.6299 16.4054 16.6259 17.0009 16.6338C17.1517 16.6338 17.1914 16.5902 17.1914 16.4433C17.1835 15.558 17.1835 14.6687 17.1914 13.7834C17.1954 13.1641 17.2946 12.5606 17.5805 12.0009C17.9894 11.2108 18.6365 10.6987 19.4543 10.3811C20.1213 10.1191 20.8239 10.0238 21.5306 10.0119C22.6819 9.99604 23.8332 10.004 24.9845 10C25.0916 10 25.179 9.99604 25.179 10.1469C25.175 11.2386 25.175 12.3304 25.175 13.4221C25.175 13.434 25.171 13.4459 25.1552 13.4975C25.0877 13.4975 25.0122 13.4975 24.9368 13.4975C24.2222 13.4975 23.5076 13.4936 22.793 13.4975C22.3802 13.4975 22.0467 13.6643 21.8363 14.0256C21.7728 14.1327 21.7331 14.2717 21.7331 14.3987C21.7211 15.0736 21.7331 15.7485 21.7251 16.4234C21.7251 16.5822 21.7728 16.6259 21.9276 16.6259C22.9201 16.6179 23.9126 16.6219 24.9051 16.6219C24.9845 16.6219 25.0599 16.6219 25.1949 16.6219C25.0559 17.7573 24.9209 18.8689 24.782 19.9924C23.7498 19.9924 22.7454 19.9924 21.7211 19.9924C21.7211 23.3312 21.7211 26.65 21.7211 29.9888Z" fill="white"/>
</svg>
