<svg width="2080" height="2038" viewBox="0 0 2080 2038" fill="none" xmlns="http://www.w3.org/2000/svg">
<path fill-rule="evenodd" clip-rule="evenodd" d="M920.819 1.63451C1123.42 18.7343 1254.68 207.453 1418.16 328.35C1579.81 447.898 1765.38 533.054 1870.88 704.223C1998.3 910.98 2114.93 1147.73 2070.29 1386.47C2023.4 1637.25 1859.9 1878.23 1630.49 1989.83C1412 2096.1 1157.29 2001.39 920.819 1945.61C735.534 1901.9 558.072 1833.79 418.793 1704C291.319 1585.21 245.96 1414.85 178.732 1254.09C104.138 1075.72 -28.322 905.854 5.39169 715.477C40.7335 515.906 198.691 363.538 358.508 238.914C522.966 110.671 713.016 -15.9043 920.819 1.63451Z" fill="#2F3EBB"/>
</svg>
