<svg width="949" height="1158" viewBox="0 0 949 1158" fill="none" xmlns="http://www.w3.org/2000/svg">
<g filter="url(#filter0_d_21:1040)">
<path fill-rule="evenodd" clip-rule="evenodd" d="M1264.09 939.062C1408.71 858.102 1317.61 710.634 1424.56 584.019C1531.9 456.93 1532.87 249.642 1462.97 98.6822C1395.01 -48.0992 1229.12 -124.259 1074.55 -171.907C950.936 -210.011 826.527 -127.056 697.577 -137.251C550.115 -148.911 412.753 -291.11 275.863 -235.056C138.013 -178.61 39.3299 -17.115 40.4236 131.84C41.4868 276.631 258.159 337.639 281.118 480.602C312.139 673.775 63.9162 893.446 187.136 1045.42C297.196 1181.16 536.332 1063.55 695.771 992.008C816.962 937.63 1148.19 1003.95 1264.09 939.062Z" fill="url(#paint0_linear_21:1040)"/>
</g>
<defs>
<filter id="filter0_d_21:1040" x="0.414551" y="-278.089" width="1550.64" height="1435.89" filterUnits="userSpaceOnUse" color-interpolation-filters="sRGB">
<feFlood flood-opacity="0" result="BackgroundImageFix"/>
<feColorMatrix in="SourceAlpha" type="matrix" values="0 0 0 0 0 0 0 0 0 0 0 0 0 0 0 0 0 0 127 0" result="hardAlpha"/>
<feOffset dy="10"/>
<feGaussianBlur stdDeviation="20"/>
<feComposite in2="hardAlpha" operator="out"/>
<feColorMatrix type="matrix" values="0 0 0 0 0 0 0 0 0 0 0 0 0 0 0 0 0 0 0.4 0"/>
<feBlend mode="normal" in2="BackgroundImageFix" result="effect1_dropShadow_21:1040"/>
<feBlend mode="normal" in="SourceGraphic" in2="effect1_dropShadow_21:1040" result="shape"/>
</filter>
<linearGradient id="paint0_linear_21:1040" x1="1288.3" y1="535.631" x2="-260.273" y2="535.631" gradientUnits="userSpaceOnUse">
<stop stop-color="#41264F"/>
<stop offset="1" stop-color="#681A91"/>
</linearGradient>
</defs>
</svg>
