<svg width="40" height="40" viewBox="0 0 40 40" fill="none" xmlns="http://www.w3.org/2000/svg">
<circle cx="20" cy="20" r="20" fill="#681A91"/>
<path d="M22.6112 10H16.8224C15.0136 10.0018 13.2793 10.7211 12.0002 12.0002C10.7211 13.2793 10.0018 15.0136 10 16.8224V22.6112C10.0018 24.42 10.7211 26.1543 12.0002 27.4334C13.2793 28.7124 15.0136 29.4318 16.8224 29.4336H22.6112C24.42 29.4318 26.1543 28.7124 27.4334 27.4334C28.7124 26.1543 29.4318 24.42 29.4336 22.6112V16.8224C29.4318 15.0136 28.7125 13.2793 27.4334 12.0002C26.1543 10.7211 24.42 10.0018 22.6112 10ZM19.7168 24.2403C18.8221 24.2403 17.9476 23.975 17.2037 23.4779C16.4598 22.9809 15.88 22.2744 15.5376 21.4479C15.1953 20.6213 15.1057 19.7118 15.2802 18.8343C15.4548 17.9568 15.8856 17.1508 16.5182 16.5182C17.1508 15.8856 17.9568 15.4548 18.8343 15.2802C19.7118 15.1057 20.6213 15.1953 21.4479 15.5376C22.2744 15.88 22.9809 16.4598 23.4779 17.2037C23.975 17.9476 24.2403 18.8221 24.2403 19.7168C24.2386 20.916 23.7615 22.0656 22.9135 22.9135C22.0656 23.7615 20.916 24.2386 19.7168 24.2403ZM25.5179 15.4042C25.4804 15.443 25.4388 15.4776 25.3939 15.5076C25.3478 15.5364 25.2994 15.5613 25.2492 15.582C25.2002 15.6034 25.1488 15.6186 25.0962 15.6275C25.0432 15.6391 24.9891 15.6447 24.9349 15.644C24.8259 15.6426 24.7181 15.6216 24.6165 15.582C24.5676 15.5613 24.5206 15.5364 24.476 15.5076C24.4305 15.4766 24.3876 15.4421 24.3478 15.4042C24.1938 15.2476 24.1077 15.0367 24.108 14.817C24.1073 14.7628 24.1129 14.7087 24.1245 14.6558C24.1333 14.6031 24.1486 14.5517 24.17 14.5028C24.1906 14.4525 24.2155 14.4041 24.2444 14.3581C24.2755 14.3141 24.3101 14.2726 24.3478 14.234C24.3876 14.1961 24.4305 14.1616 24.476 14.1307C24.5205 14.1018 24.5676 14.0769 24.6165 14.0562C24.6674 14.0354 24.72 14.0188 24.7737 14.0066C24.9069 13.9807 25.0444 13.9878 25.1742 14.0275C25.3039 14.0671 25.422 14.1381 25.5179 14.234C25.5568 14.2715 25.5914 14.3131 25.6213 14.3581C25.6515 14.404 25.6778 14.4524 25.6999 14.5028C25.7194 14.5524 25.7346 14.6036 25.7453 14.6558C25.7549 14.709 25.7605 14.763 25.7619 14.817C25.7622 14.9262 25.7408 15.0343 25.6989 15.1351C25.657 15.2359 25.5955 15.3274 25.5179 15.4042ZM19.7168 16.4338C19.0675 16.4338 18.4327 16.6263 17.8928 16.987C17.3529 17.3478 16.9321 17.8605 16.6837 18.4604C16.4352 19.0603 16.3702 19.7204 16.4968 20.3573C16.6235 20.9941 16.9362 21.5791 17.3953 22.0383C17.8545 22.4974 18.4395 22.8101 19.0763 22.9367C19.7132 23.0634 20.3733 22.9984 20.9732 22.7499C21.5731 22.5014 22.0858 22.0806 22.4465 21.5408C22.8073 21.0009 22.9998 20.3661 22.9998 19.7168C22.9991 18.8463 22.653 18.0117 22.0375 17.3961C21.4219 16.7806 20.5873 16.4345 19.7168 16.4338ZM19.3157 18.5715C19.0781 18.6545 18.8721 18.8093 18.7261 19.0145C18.5802 19.2196 18.5016 19.465 18.5012 19.7168C18.5012 19.8813 18.4358 20.039 18.3195 20.1554C18.2032 20.2717 18.0454 20.337 17.8809 20.337C17.7164 20.337 17.5587 20.2717 17.4424 20.1554C17.3261 20.039 17.2607 19.8813 17.2607 19.7168C17.2612 19.2079 17.4198 18.7117 17.7146 18.2969C18.0095 17.882 18.4259 17.5691 18.9064 17.4013C19.0613 17.3479 19.2311 17.3581 19.3786 17.4295C19.5261 17.501 19.6392 17.628 19.6933 17.7827C19.7475 17.9374 19.7381 18.1072 19.6673 18.255C19.5966 18.4028 19.4702 18.5166 19.3157 18.5715Z" fill="white"/>
</svg>
