<svg width="212" height="14" viewBox="0 0 212 14" fill="none" xmlns="http://www.w3.org/2000/svg">
<g clip-path="url(#clip0_244:148)">
<path d="M0 13.3783L0.770612 13.3243C1.27831 13.2702 1.52309 13.1891 1.57749 12.7027L2.27557 1.72068C2.32997 1.23419 1.99453 1.1441 1.48683 1.09906L0.698084 1.04501V0.621582H4.59648L8.513 8.85582L12.4295 0.621582H16.1557V1.036L15.3669 1.09005C14.823 1.1441 14.5056 1.22519 14.56 1.71167L15.2581 12.6937C15.3125 13.1801 15.521 13.2702 16.065 13.3153L16.8537 13.3693V13.7837H11.9218V13.3693L12.6924 13.3243C13.2364 13.2702 13.5446 13.1891 13.4993 12.7027L12.8012 1.35131L7.94184 11.5675H7.83305L2.95553 1.36933L2.25744 12.7027C2.20304 13.1891 2.52036 13.2792 3.02805 13.3243L3.83493 13.3783V13.7928H0V13.3783Z" fill="white"/>
<path d="M18.8481 13.3783L19.6369 13.3243C20.1446 13.2702 20.4256 13.1891 20.4256 12.7027V1.72068C20.4256 1.23419 20.1446 1.1441 19.6369 1.09906L18.8481 1.04501V0.621582H23.8707C27.0348 0.621582 29.3647 1.29726 29.3647 3.8378C29.3647 5.78374 27.896 6.81077 25.5026 7.10807L31.6222 13.8018H29.3647L23.4718 7.32428H22.1935V12.7117C22.1935 13.1982 22.4564 13.2882 23.0004 13.3333L23.7891 13.3873V13.8018H18.8572V13.3783H18.8481ZM23.7257 6.77473C25.965 6.77473 27.3793 6.02699 27.3793 3.96392C27.3793 1.90987 25.965 1.17113 23.7257 1.17113H22.1844V6.78374H23.7257V6.77473Z" fill="white"/>
<path d="M32.6284 13.3783L33.4172 13.3243C33.9249 13.2702 34.2059 13.1891 34.2059 12.7027V1.72068C34.2059 1.23419 33.9249 1.1441 33.4172 1.09906L32.6284 1.04501V0.621582H37.5603V1.036L36.7716 1.09005C36.2276 1.1441 35.9647 1.22519 35.9647 1.71167V12.7027C35.9647 13.1891 36.2276 13.2792 36.7716 13.3243L37.5603 13.3783V13.7928H32.6284V13.3783Z" fill="white"/>
<path d="M42.964 13.3603L44.0157 13.3063C44.5234 13.2882 44.8044 13.1801 44.8044 12.6937V7.85582L40.4709 1.68465C40.1898 1.27023 40.0901 1.1441 39.5824 1.09005L38.8027 1.04501V0.621582H43.8706V1.036L43.0003 1.09005C42.4563 1.1441 42.1481 1.27924 42.4201 1.68465L46.2822 7.18915L50.1625 1.68465C50.4616 1.27023 50.1262 1.1441 49.5822 1.09005L48.7119 1.036V0.621582H52.5559V1.036L51.7853 1.09005C51.2776 1.1441 51.1688 1.27924 50.8968 1.68465L46.5633 7.85582V12.7027C46.5633 13.1891 46.8262 13.2612 47.3701 13.3153L48.4218 13.3693V13.8018H42.964V13.3603Z" fill="white"/>
<path d="M63.3715 12.7387C63.5618 13.1712 63.7432 13.2793 64.2781 13.3333L65.0487 13.3874V13.8018H59.9989V13.3874L60.8692 13.3333C61.4313 13.2793 61.6398 13.1802 61.4495 12.7387L59.9445 8.95495H54.9945L53.4895 12.7387C53.2991 13.1712 53.5076 13.2793 54.0697 13.3333L54.9401 13.3874V13.8018H51.1323V13.3874L51.9029 13.3333C52.4106 13.2793 52.601 13.1802 52.7914 12.7387L57.95 0H58.231L63.3715 12.7387ZM59.6816 8.25225L57.4785 2.69369L55.2755 8.25225H59.6816Z" fill="white"/>
<path d="M70.0171 13.3783L70.8058 13.3243C71.3135 13.2702 71.5946 13.1891 71.5946 12.7027V1.72068C71.5946 1.23419 71.3135 1.1441 70.8058 1.09906L70.0171 1.04501V0.621582H75.0397C78.2037 0.621582 80.5337 1.29726 80.5337 3.8378C80.5337 5.78374 79.065 6.81077 76.6716 7.10807L82.7911 13.8018H80.5337L74.6408 7.32428H73.3625V12.7117C73.3625 13.1982 73.6254 13.2882 74.1693 13.3333L74.9581 13.3873V13.8018H70.0262V13.3783H70.0171ZM74.8946 6.77473C77.1339 6.77473 78.5482 6.02699 78.5482 3.96392C78.5482 1.90987 77.1339 1.17113 74.8946 1.17113H73.3534V6.78374H74.8946V6.77473Z" fill="white"/>
<path d="M83.7974 13.3783L84.5861 13.3243C85.0938 13.2702 85.3749 13.1891 85.3749 12.7027V1.72068C85.3749 1.23419 85.0938 1.1441 84.5861 1.09906L83.7974 1.04501V0.621582H93.5343L94.1145 4.47744H93.7972L92.0112 1.45041C91.8752 1.18915 91.8027 1.17113 91.5035 1.17113H87.1337V6.61257H89.7537C90.0529 6.61257 90.0892 6.57654 90.1345 6.38735L90.8326 4.33329H91.1499V9.49546H90.8326L90.1345 7.45942C90.062 7.27023 90.0439 7.23419 89.7537 7.23419H87.1337V13.2252H92.3648C92.6458 13.2252 92.7002 13.1891 92.8543 12.9819L95.2478 9.89185H95.5651L94.3774 13.7837H83.7974V13.3783Z" fill="white"/>
<path d="M98.0854 13.5494L97.6865 9.56741H98.0038L99.5088 12.6395C99.6629 12.9368 99.8896 13.144 100.189 13.2611C100.524 13.3872 100.869 13.4323 101.503 13.4323C103.326 13.4323 104.858 12.5314 104.858 10.9818C104.858 9.31516 103.616 8.53138 101.766 7.93678L100.841 7.63949C98.7926 6.99985 97.623 5.74759 97.623 3.80165C97.623 1.57642 99.8624 0.306152 102.201 0.306152C103.317 0.306152 104.314 0.441287 105.175 0.774621L105.801 4.31516H105.483L103.788 1.5494C103.525 1.11696 103.335 1.04489 102.981 0.954801C102.646 0.882729 102.356 0.864711 101.948 0.864711C100.533 0.864711 99.1461 1.72958 99.1461 3.20705C99.1461 4.38723 99.808 5.26111 101.331 5.74759L102.256 6.04489C104.704 6.84669 106.435 7.8557 106.435 10.2161C106.435 12.4953 104.196 13.9728 101.467 13.9728C100.134 13.9998 99.0645 13.8827 98.0854 13.5494Z" fill="white"/>
<path d="M108.666 7.18034C108.666 3.06323 111.793 0.333496 115.646 0.333496C119.49 0.333496 122.627 3.06323 122.627 7.18034C122.627 11.2794 119.499 14.0092 115.646 14.0092C111.793 14.0002 108.666 11.2794 108.666 7.18034ZM120.587 7.18034C120.587 3.16232 118.475 0.910073 115.637 0.910073C112.791 0.910073 110.669 3.17133 110.669 7.18034C110.669 11.1623 112.782 13.4326 115.637 13.4326C118.475 13.4326 120.587 11.1533 120.587 7.18034Z" fill="white"/>
<path d="M124.703 13.3783L125.492 13.3243C126 13.2702 126.281 13.1891 126.281 12.7027V1.72068C126.281 1.23419 126 1.1441 125.492 1.09906L124.703 1.04501V0.621582H129.726C132.89 0.621582 135.22 1.29726 135.22 3.8378C135.22 5.78374 133.751 6.81077 131.358 7.10807L137.477 13.8018H135.22L129.327 7.32428H128.048V12.7117C128.048 13.1982 128.311 13.2882 128.855 13.3333L129.644 13.3873V13.8018H124.712V13.3783H124.703ZM129.581 6.77473C131.82 6.77473 133.234 6.02699 133.234 3.96392C133.234 1.90987 131.82 1.17113 129.581 1.17113H128.039V6.78374H129.581V6.77473Z" fill="white"/>
<path d="M141.231 13.3601L142.282 13.306C142.79 13.288 143.071 13.1799 143.071 12.6934V1.12587H140.025C139.726 1.12587 139.644 1.14388 139.517 1.40515L137.976 4.69343H137.659L138.076 0.630371H149.807L150.242 4.69343H149.925L148.366 1.40515C148.239 1.14388 148.157 1.12587 147.876 1.12587H144.83V12.7024C144.83 13.1889 145.075 13.261 145.619 13.3151L146.67 13.3691V13.8015H141.213V13.3601H141.231Z" fill="white"/>
<path d="M156.035 10.2164C156.035 8.18034 157.785 6.96413 159.825 6.21638C158.637 5.17133 158.003 4.19836 158.003 3.16232C158.003 1.56773 159.598 0.333496 161.638 0.333496C163.524 0.333496 164.911 1.18935 164.911 2.65782C164.911 4.22539 163.306 5.10827 161.575 5.71187C162.835 6.75692 164.213 8.09025 165.618 9.53169L167.44 6.38755C167.776 5.81097 167.631 5.50467 167.023 5.48665L166.135 5.46863V5.07224H170.07V5.46863L169.299 5.48665C168.755 5.50467 168.492 5.74791 168.211 6.21638L165.99 9.9371C166.706 10.7029 167.404 11.4866 168.039 12.2524C168.583 12.9281 168.964 13.3155 169.435 13.3605L170.133 13.4146V13.793H167.087C166.507 13.0812 165.809 12.2614 165.038 11.3785C163.796 12.9912 162.327 14.0002 160.369 14.0002C157.558 14.0002 156.035 12.0722 156.035 10.2164ZM161.094 13.0993C162.635 13.0993 163.751 12.3155 164.712 11.0002C163.261 9.40557 161.638 7.72989 160.079 6.41458C158.474 7.10827 157.785 8.2344 157.785 9.55872C157.785 11.5227 159.172 13.0993 161.094 13.0993ZM161.339 5.50467C162.88 4.92809 163.651 4.02719 163.651 2.75692C163.651 1.4326 162.826 0.75692 161.638 0.75692C160.324 0.75692 159.544 1.46863 159.544 2.58575C159.535 3.70287 160.233 4.54971 161.339 5.50467Z" fill="white"/>
<path d="M176.652 13.5494L176.253 9.56741H176.57L178.075 12.6395C178.229 12.9368 178.456 13.144 178.755 13.2611C179.09 13.3872 179.435 13.4323 180.069 13.4323C181.892 13.4323 183.424 12.5314 183.424 10.9818C183.424 9.31516 182.182 8.53138 180.332 7.93678L179.408 7.63949C177.359 6.99985 176.189 5.74759 176.189 3.80165C176.189 1.57642 178.429 0.306152 180.768 0.306152C181.883 0.306152 182.88 0.441287 183.741 0.774621L184.367 4.31516H184.049L182.354 1.5494C182.091 1.11696 181.901 1.04489 181.547 0.954801C181.212 0.882729 180.922 0.864711 180.514 0.864711C179.099 0.864711 177.712 1.72958 177.712 3.20705C177.712 4.38723 178.374 5.26111 179.897 5.74759L180.822 6.04489C183.27 6.84669 185.001 7.8557 185.001 10.2161C185.001 12.4953 182.762 13.9728 180.033 13.9728C178.701 13.9998 177.631 13.8827 176.652 13.5494Z" fill="white"/>
<path d="M187.359 13.3783L188.147 13.3243C188.655 13.2702 188.936 13.1891 188.936 12.7027V1.72068C188.936 1.23419 188.655 1.1441 188.147 1.09906L187.359 1.04501V0.621582H192.88C195.953 0.621582 198.455 1.26122 198.455 4.11708C198.455 6.94591 195.953 7.71167 192.88 7.71167H191.13V7.16212H192.726C195.083 7.16212 196.488 6.45041 196.488 4.17113C196.488 1.92789 195.092 1.16212 192.726 1.16212H190.695V12.7027C190.695 13.1891 190.958 13.2973 191.502 13.3063L193.007 13.3423V13.7928H187.359V13.3783Z" fill="white"/>
<path d="M210.314 12.7387C210.504 13.1712 210.686 13.2793 211.22 13.3333L211.991 13.3874V13.8018H206.941V13.3874L207.812 13.3333C208.374 13.2793 208.582 13.1802 208.392 12.7387L206.887 8.95495H201.937L200.432 12.7387C200.241 13.1712 200.45 13.2793 201.012 13.3333L201.882 13.3874V13.8018H198.075V13.3874L198.845 13.3333C199.353 13.2793 199.543 13.1802 199.734 12.7387L204.901 0H205.182L210.314 12.7387ZM206.624 8.25225L204.421 2.69369L202.218 8.25225H206.624Z" fill="white"/>
</g>
<defs>
<clipPath id="clip0_244:148">
<rect width="212" height="14" fill="white"/>
</clipPath>
</defs>
</svg>
