<svg width="25" height="24" viewBox="0 0 25 24" fill="none" xmlns="http://www.w3.org/2000/svg">
<path d="M22 10.16C22.608 10.16 23.104 10.368 23.488 10.784C23.904 11.168 24.112 11.664 24.112 12.272C24.112 12.88 23.904 13.392 23.488 13.808C23.104 14.192 22.608 14.384 22 14.384H14.512V21.824C14.512 22.432 14.304 22.944 13.888 23.36C13.504 23.776 13.008 23.984 12.4 23.984C11.792 23.984 11.28 23.776 10.864 23.36C10.48 22.944 10.288 22.432 10.288 21.824V14.384H2.8C2.192 14.384 1.68 14.192 1.264 13.808C0.88 13.392 0.688 12.88 0.688 12.272C0.688 11.664 0.88 11.168 1.264 10.784C1.68 10.368 2.192 10.16 2.8 10.16H10.288V2.672C10.288 2.064 10.48 1.568 10.864 1.184C11.28 0.767999 11.792 0.559999 12.4 0.559999C13.008 0.559999 13.504 0.767999 13.888 1.184C14.304 1.568 14.512 2.064 14.512 2.672V10.16H22Z" fill="#FFC72C"/>
</svg>
