<svg width="935" height="1014" viewBox="0 0 935 1014" fill="none" xmlns="http://www.w3.org/2000/svg">
<path fill-rule="evenodd" clip-rule="evenodd" d="M500.751 0.342502C604.421 -6.04561 691.764 78.1164 763.471 153.272C825.917 218.721 847.433 307.148 875.526 393.141C903.675 479.304 954.912 567.211 926.864 653.407C898.82 739.592 801.71 775.398 732.215 833.565C655.944 897.403 598.841 993.646 500.751 1010.06C396.803 1027.46 289.341 985.262 205.215 921.766C122.028 858.978 74.6185 763.01 42.1888 663.952C9.69336 564.692 -22.2852 454.079 20.9845 359.022C62.9649 266.798 179.391 244.931 260.542 184.262C343.336 122.364 397.578 6.6999 500.751 0.342502Z" fill="#63BF51"/>
</svg>
