<svg width="32" height="30" viewBox="0 0 32 30" fill="none" xmlns="http://www.w3.org/2000/svg">
<path d="M19.9984 2.33659C17.045 5.14404 14.0921 7.9515 11.1391 10.7593L19.5176 10.7204L23.9567 6.50015C22.6373 5.11229 21.3178 3.72444 19.9984 2.33659ZM26.4024 17.8649V22.3422H30.038V17.8649H26.4024ZM24.843 22.3422V17.8649H22.94V22.3422H24.843ZM22.8618 16.3051H25.6227H26.9845V12.3192C20.1306 12.3192 13.2632 12.3192 6.42371 12.3192C5.39794 12.3192 5.39794 10.7593 6.42371 10.7593H8.8808L13.5414 6.32855H4.36461C3.04478 6.32855 1.96194 7.4114 1.96194 8.73122V25.579C1.96194 26.8988 3.04478 27.9813 4.36461 27.9813H24.5818C25.9017 27.9813 26.9845 26.8988 26.9845 25.579V23.902H22.8618C22.0465 23.902 21.3802 23.2341 21.3802 22.4204V17.7867C21.3802 16.9718 22.0476 16.3051 22.8618 16.3051ZM28.5439 16.3051H30.1159C30.9326 16.3051 31.5978 16.9703 31.5978 17.7867V22.4204C31.5978 23.2368 30.9326 23.902 30.1159 23.902H28.5439V25.579C28.5439 27.7598 26.7626 29.5411 24.5818 29.5411H4.36461C2.1838 29.5411 0.402496 27.7598 0.402496 25.579V8.73122C0.402496 6.55041 2.1838 4.76911 4.36461 4.76911H15.1817L19.49 0.673203C19.8011 0.376886 20.2935 0.389359 20.5899 0.700416L24.4579 4.76911H24.5818C26.7626 4.76911 28.5439 6.55041 28.5439 8.73122V11.5391V16.3051ZM21.7347 10.7593H26.9845V8.73122C26.9845 7.88724 26.537 7.11092 25.82 6.67552C25.7905 6.82935 25.7146 6.97524 25.5929 7.09127L21.7347 10.7593Z" fill="#333132"/>
</svg>
