<svg width="32" height="32" viewBox="0 0 32 32" fill="none" xmlns="http://www.w3.org/2000/svg">
<path fill-rule="evenodd" clip-rule="evenodd" d="M29.164 10.472C27.914 10.144 24.975 10.148 20.676 10.034C20.879 9.096 20.926 8.25 20.926 6.748C20.926 3.16 18.312 0 16 0C14.367 0 13.021 1.335 13 2.977C12.978 4.991 12.355 8.469 9 10.233C8.754 10.363 8.05 10.71 7.947 10.755L8 10.8C7.475 10.347 6.747 10 6 10H3C1.346 10 0 11.346 0 13V29C0 30.654 1.346 32 3 32H6C7.19 32 8.186 31.281 8.668 30.273C8.68 30.277 8.701 30.283 8.715 30.285C8.781 30.303 8.859 30.322 8.954 30.347C8.972 30.352 8.981 30.354 9 30.359C9.576 30.502 10.685 30.767 13.055 31.312C13.563 31.428 16.247 32 19.027 32H24.494C26.16 32 27.361 31.359 28.076 30.072C28.086 30.052 28.316 29.603 28.504 28.996C28.645 28.539 28.697 27.892 28.527 27.236C29.601 26.498 29.947 25.382 30.172 24.656C30.549 23.465 30.436 22.57 30.174 21.929C30.778 21.359 31.293 20.49 31.51 19.163C31.645 18.341 31.5 17.495 31.121 16.791C31.687 16.155 31.945 15.355 31.975 14.615L31.987 14.406C31.994 14.275 32 14.194 32 13.906C32 12.643 31.125 11.032 29.164 10.472ZM7 29C7 29.553 6.553 30 6 30H3C2.447 30 2 29.553 2 29V13C2 12.447 2.447 12 3 12H6C6.553 12 7 12.447 7 13V29ZM29.977 14.535C29.957 15.029 29.75 16 28 16C26.5 16 26 16 26 16C25.723 16 25.5 16.224 25.5 16.5C25.5 16.776 25.723 17 26 17C26 17 26.438 17 27.938 17C29.438 17 29.635 18.244 29.538 18.844C29.414 19.59 29.064 21 27.375 21C25.688 21 25 21 25 21C24.723 21 24.5 21.223 24.5 21.5C24.5 21.775 24.723 22 25 22C25 22 26.188 22 26.969 22C28.657 22 28.508 23.287 28.266 24.055C27.947 25.064 27.752 26 25.625 26C24.906 26 23.994 26 23.994 26C23.717 26 23.494 26.223 23.494 26.5C23.494 26.775 23.717 27 23.994 27C23.994 27 24.687 27 25.562 27C26.656 27 26.707 28.035 26.593 28.406C26.468 28.812 26.32 29.113 26.314 29.127C26.012 29.672 25.525 30 24.494 30H19.027C16.281 30 13.557 29.377 13.487 29.361C9.333 28.404 9.114 28.33 8.853 28.256C8.853 28.256 8.007 28.113 8.007 27.375L8 13.563C8 13.094 8.299 12.67 8.794 12.521C8.856 12.497 8.94 12.471 9 12.446C13.568 10.554 14.959 6.406 15 3C15.006 2.521 15.375 2 16 2C17.057 2 18.926 4.122 18.926 6.748C18.926 9.119 18.83 9.529 18 12C28 12 27.93 12.144 28.812 12.375C29.906 12.688 30 13.594 30 13.906C30 14.249 29.99 14.199 29.977 14.535Z" fill="#333132"/>
</svg>
