<svg width="29" height="27" viewBox="0 0 29 27" fill="none" xmlns="http://www.w3.org/2000/svg">
<path d="M27.6667 2.33334V10.3333M27.6667 10.3333H19.6667M27.6667 10.3333L21.4933 4.52001C19.6542 2.67966 17.2667 1.48692 14.6906 1.12153C12.1146 0.756142 9.48956 1.23789 7.21114 2.49419C4.93272 3.75049 3.12433 5.71328 2.05849 8.08677C0.992639 10.4603 0.727079 13.1159 1.30182 15.6534C1.87657 18.191 3.26048 20.473 5.24501 22.1556C7.22954 23.8382 9.70718 24.8302 12.3046 24.9821C14.9019 25.1341 17.4784 24.4377 19.6455 22.998C21.8127 21.5583 23.4533 19.4532 24.32 17" stroke="#333132" stroke-width="2" stroke-linecap="round" stroke-linejoin="round"/>
</svg>
