<svg width="40" height="48" viewBox="0 0 40 48" fill="none" xmlns="http://www.w3.org/2000/svg">
<path d="M38.75 19.8333H39.75H38.75ZM20 46.9166L19.4453 47.7486C19.7812 47.9726 20.2188 47.9726 20.5547 47.7486L20 46.9166ZM1.25 19.8333H0.25H1.25ZM20 1.08325V2.08325V1.08325ZM37.75 19.8333C37.75 26.723 33.2968 33.25 28.649 38.1559C26.3456 40.5873 24.0388 42.5741 22.3068 43.9533C21.4415 44.6423 20.7217 45.1781 20.2202 45.5403C19.9695 45.7214 19.7734 45.859 19.6412 45.9506C19.5751 45.9963 19.525 46.0306 19.4919 46.0531C19.4754 46.0643 19.4632 46.0725 19.4553 46.0778C19.4514 46.0804 19.4486 46.0823 19.447 46.0834C19.4461 46.084 19.4456 46.0844 19.4453 46.0845C19.4451 46.0846 19.4451 46.0846 19.4451 46.0847C19.4452 46.0846 19.4453 46.0845 20 46.9166C20.5547 47.7486 20.555 47.7484 20.5554 47.7482C20.5556 47.7481 20.556 47.7478 20.5564 47.7475C20.5573 47.7469 20.5584 47.7461 20.5599 47.7452C20.5627 47.7433 20.5667 47.7406 20.5718 47.7371C20.582 47.7303 20.5967 47.7204 20.6157 47.7075C20.6536 47.6818 20.7087 47.6441 20.7799 47.5947C20.9224 47.4961 21.1292 47.3509 21.3912 47.1617C21.915 46.7833 22.66 46.2286 23.5526 45.5179C25.3362 44.0976 27.7169 42.048 30.101 39.5314C34.8282 34.5415 39.75 27.5269 39.75 19.8333H37.75ZM20 46.9166C20.5547 46.0845 20.5548 46.0846 20.5549 46.0847C20.5549 46.0846 20.5549 46.0846 20.5547 46.0845C20.5544 46.0844 20.5539 46.084 20.553 46.0834C20.5514 46.0823 20.5486 46.0804 20.5447 46.0778C20.5368 46.0725 20.5246 46.0643 20.5081 46.0531C20.475 46.0306 20.4249 45.9963 20.3588 45.9506C20.2266 45.859 20.0305 45.7214 19.7798 45.5403C19.2783 45.1781 18.5585 44.6423 17.6932 43.9533C15.9612 42.5741 13.6544 40.5873 11.351 38.1559C6.70324 33.25 2.25 26.723 2.25 19.8333H0.25C0.25 27.5269 5.17176 34.5415 9.89905 39.5314C12.2831 42.048 14.6638 44.0976 16.4474 45.5179C17.34 46.2286 18.085 46.7833 18.6088 47.1617C18.8708 47.3509 19.0776 47.4961 19.2201 47.5947C19.2913 47.6441 19.3464 47.6818 19.3843 47.7075C19.4033 47.7204 19.418 47.7303 19.4282 47.7371C19.4333 47.7406 19.4373 47.7433 19.4401 47.7452C19.4416 47.7461 19.4427 47.7469 19.4436 47.7475C19.444 47.7478 19.4444 47.7481 19.4446 47.7482C19.445 47.7484 19.4453 47.7486 20 46.9166ZM2.25 19.8333C2.25 15.1257 4.12008 10.6109 7.44885 7.28211L6.03464 5.86789C2.3308 9.57174 0.25 14.5952 0.25 19.8333H2.25ZM7.44885 7.28211C10.7776 3.95334 15.2924 2.08325 20 2.08325V0.083252C14.762 0.083252 9.73848 2.16405 6.03464 5.86789L7.44885 7.28211ZM20 2.08325C24.7076 2.08325 29.2224 3.95334 32.5511 7.28211L33.9654 5.86789C30.2615 2.16405 25.238 0.083252 20 0.083252V2.08325ZM32.5511 7.28211C35.8799 10.6109 37.75 15.1257 37.75 19.8333H39.75C39.75 14.5952 37.6692 9.57174 33.9654 5.86789L32.5511 7.28211ZM25.25 19.8333C25.25 22.7327 22.8995 25.0833 20 25.0833V27.0833C24.0041 27.0833 27.25 23.8373 27.25 19.8333H25.25ZM20 25.0833C17.1005 25.0833 14.75 22.7327 14.75 19.8333H12.75C12.75 23.8373 15.9959 27.0833 20 27.0833V25.0833ZM14.75 19.8333C14.75 16.9338 17.1005 14.5833 20 14.5833V12.5833C15.9959 12.5833 12.75 15.8292 12.75 19.8333H14.75ZM20 14.5833C22.8995 14.5833 25.25 16.9338 25.25 19.8333H27.25C27.25 15.8292 24.0041 12.5833 20 12.5833V14.5833Z" fill="white"/>
</svg>
