<svg width="52" height="52" viewBox="0 0 52 52" fill="none" xmlns="http://www.w3.org/2000/svg">
<path d="M28.7778 51.0001V32.4815H21.3704V25.0741H28.7778V15.8149C28.7778 11.7241 32.0944 8.40747 36.1852 8.40747H43.5926V15.8149H38.037C37.0134 15.8149 36.1852 16.6431 36.1852 17.6667V25.0741H43.5926L42.6667 32.4815H36.1852V51.0001" stroke="white" stroke-width="2" stroke-miterlimit="10" stroke-linecap="round" stroke-linejoin="round"/>
<path d="M25.0736 51H4.7037C2.65833 51 1 49.3417 1 47.2963V4.7037C1 2.65833 2.65833 1 4.7037 1H47.2963C49.3417 1 51 2.65833 51 4.7037V47.2963C51 49.3417 49.3417 51 47.2963 51H36.1856" stroke="white" stroke-width="2" stroke-miterlimit="10" stroke-linecap="round" stroke-linejoin="round"/>
</svg>
