<svg width="44" height="44" viewBox="0 0 44 44" fill="none" xmlns="http://www.w3.org/2000/svg">
<path d="M42.8333 32.25V38.5C42.8356 39.0802 42.7168 39.6546 42.4844 40.1862C42.2519 40.7178 41.911 41.195 41.4835 41.5873C41.0559 41.9795 40.5512 42.2781 40.0015 42.464C39.4519 42.6499 38.8695 42.7189 38.2916 42.6667C31.8809 41.9701 25.7229 39.7795 20.3125 36.2709C15.2788 33.0723 11.0111 28.8046 7.81246 23.7709C4.29158 18.3359 2.10047 12.1479 1.41663 5.70837C1.36457 5.13226 1.43304 4.55162 1.61767 4.00342C1.80231 3.45522 2.09907 2.95148 2.48906 2.52425C2.87905 2.09702 3.35372 1.75568 3.88286 1.52196C4.412 1.28824 4.98401 1.16725 5.56246 1.16671H11.8125C12.8235 1.15675 13.8037 1.51479 14.5703 2.17407C15.3369 2.83334 15.8376 3.74889 15.9791 4.75004C16.2429 6.75018 16.7321 8.71405 17.4375 10.6042C17.7178 11.3499 17.7784 12.1603 17.6123 12.9394C17.4461 13.7185 17.0601 14.4336 16.5 15L13.8541 17.6459C16.8199 22.8616 21.1384 27.1801 26.3541 30.1459L29 27.5C29.5664 26.9399 30.2815 26.5539 31.0606 26.3877C31.8397 26.2216 32.6501 26.2822 33.3958 26.5625C35.2859 27.2679 37.2498 27.7571 39.25 28.0209C40.262 28.1636 41.1862 28.6734 41.8469 29.4532C42.5076 30.2329 42.8586 31.2283 42.8333 32.25Z" stroke="white" stroke-width="2" stroke-linecap="round" stroke-linejoin="round"/>
</svg>
