<svg width="44" height="44" viewBox="0 0 44 44" fill="none" xmlns="http://www.w3.org/2000/svg">
<path d="M23 9.50008C23 8.9478 22.5523 8.50008 22 8.50008C21.4477 8.50008 21 8.9478 21 9.50008H23ZM22 22.0001H21C21 22.3789 21.214 22.7251 21.5528 22.8945L22 22.0001ZM29.8861 27.0612C30.3801 27.3082 30.9808 27.1079 31.2278 26.614C31.4747 26.12 31.2745 25.5193 30.7805 25.2723L29.8861 27.0612ZM41.8333 22.0001C41.8333 32.9537 32.9536 41.8334 22 41.8334V43.8334C34.0582 43.8334 43.8333 34.0583 43.8333 22.0001H41.8333ZM22 41.8334C11.0463 41.8334 2.16666 32.9537 2.16666 22.0001H0.166656C0.166656 34.0583 9.94177 43.8334 22 43.8334V41.8334ZM2.16666 22.0001C2.16666 11.0464 11.0463 2.16675 22 2.16675V0.166748C9.94177 0.166748 0.166656 9.94186 0.166656 22.0001H2.16666ZM22 2.16675C32.9536 2.16675 41.8333 11.0464 41.8333 22.0001H43.8333C43.8333 9.94186 34.0582 0.166748 22 0.166748V2.16675ZM21 9.50008V22.0001H23V9.50008H21ZM21.5528 22.8945L29.8861 27.0612L30.7805 25.2723L22.4472 21.1057L21.5528 22.8945Z" fill="white"/>
</svg>
