<svg width="32" height="46" viewBox="0 0 32 46" fill="none" xmlns="http://www.w3.org/2000/svg">
<path d="M13.0223 42.9651C9.97892 42.7335 8.09208 41.1848 7.61708 40.7782C7.25392 40.4717 6.90524 40.1493 6.6026 39.8611L6.05523 39.3151C3.41313 36.5098 2.56971 33.5651 3.23418 29.4716C3.51708 27.7414 4.15129 26.148 4.82234 24.4598C5.00523 24.0006 5.18813 23.5374 5.36708 23.069C5.55787 24.3256 5.68155 25.5282 5.72629 26.4006L5.93418 30.4374L8.14208 27.0506C10.7881 22.9914 13.0552 14.5506 13.4052 8.38086C13.4868 6.90718 13.3092 5.5177 12.7263 3.73218C12.1434 1.94665 10.4026 2.24533 10.4026 2.24533L10.7315 5.00981C11.2237 9.14928 9.8276 16.5559 7.81708 21.7651C7.5105 20.0203 7.24339 18.898 6.92234 17.394C6.38681 14.8874 4.6605 13.3651 4.6605 13.3651C4.6605 13.3651 4.70129 14.9282 4.29076 17.4361C3.87629 19.9611 3.17629 21.4795 2.3776 23.4901C1.6855 25.2335 0.968391 27.0361 0.638128 29.0506C-0.163188 33.9782 0.917078 37.7006 4.16576 41.1493L4.76445 41.7467C5.12234 42.0901 5.51313 42.448 5.91313 42.7861C6.71445 43.4703 9.11313 45.3085 12.8223 45.5901C12.8566 45.5927 12.8908 45.594 12.9237 45.594C13.6052 45.594 14.1816 45.069 14.2342 44.3782C14.2894 43.6519 13.746 43.0203 13.0223 42.9651Z" fill="#FBD212"/>
<path d="M30.5789 23.0182C29.4105 17.734 26.4539 13.5682 25.5881 12.5774C23.9592 10.5801 22.5881 10.238 22.5881 10.238C22.5881 10.238 23.3552 12.0064 23.4776 14.0103C23.6 16.0143 23.2815 16.7064 22.596 18.4577C22.0473 16.5695 19.2171 10.5656 17.2434 7.56428C15.3789 4.73007 12.7421 1.69981 10.0184 0.00244141C10.0802 0.655073 10.4421 2.44323 10.5039 3.08665C14.9973 7.64191 19.9776 18.1735 20.8355 22.2827L21.3684 24.8327L23.1052 22.8906C23.9763 21.9169 25.1065 19.6209 25.7197 17.3735C26.5539 18.9485 27.4578 21.0866 28.0105 23.5866C28.9223 27.7103 29.0197 33.7406 24.3065 39.0485C23.4855 39.9748 21.7052 42.7538 18.0447 42.9617C17.3184 43.0038 16.7644 43.6248 16.8052 44.3498C16.8447 45.0498 17.425 45.5906 18.1184 45.5906C18.1434 45.5906 18.1697 45.5906 18.1947 45.5893C21.3486 45.409 23.5921 43.8209 26.275 40.7945C31.7236 34.6577 31.6236 27.7406 30.5789 23.0182Z" fill="#FBD212"/>
</svg>
