<svg width="40" height="36" viewBox="0 0 40 36" fill="none" xmlns="http://www.w3.org/2000/svg">
<path d="M39.8537 14.6862L39.8368 14.6475L39.8462 14.64L39.7224 14.4037L33.0849 1.76562C32.9037 1.43562 32.2731 0.466873 31.0599 0.466873H8.82432C7.47056 0.466873 6.79306 1.80062 6.77806 1.83187L0.259315 14.2437L0.256815 14.2494L0.210565 14.3369C0.10119 14.5531 -0.14131 15.1406 0.0993152 15.7206C1.75557 18.4094 4.70807 20.2131 8.09744 20.2131C11.4112 20.2131 14.3018 18.485 15.9768 15.8956C16.2331 15.3075 15.8762 14.5706 15.8762 14.5706L9.70869 2.82562L9.64869 2.71187C9.56556 2.52062 9.49181 2.15625 10.1531 2.15625H18.2393C18.4687 2.16375 19.1081 2.2775 19.1081 3.34812V31.1719C19.0931 31.4475 18.9887 32.0056 18.4156 32.3594L14.3674 34.8631C14.3674 34.8631 13.3056 35.5331 14.3674 35.5331H25.8543C26.6374 35.5331 25.8543 34.99 25.8543 34.99L21.6843 32.4375C21.6824 32.4363 21.6824 32.435 21.6806 32.4338C20.9949 32.0138 20.8668 31.485 20.8481 31.2181V3.22937C20.8481 2.26187 21.5418 2.16187 21.7856 2.15625H29.6924C29.8993 2.16 30.5299 2.22875 30.1331 2.98812L23.9412 14.7744C23.9412 14.7744 23.7474 15.2381 23.9656 15.7469C25.6237 18.4206 28.5649 20.2131 31.9437 20.2131C35.3281 20.2131 38.2799 18.4169 39.9362 15.7344C40.1018 15.3019 39.9156 14.8219 39.8537 14.6862ZM13.8737 14.315L13.8743 14.3156L13.9593 14.4787C14.0906 14.75 14.2887 15.2662 13.8743 15.2662L2.11932 15.265C1.72932 15.265 1.80682 14.9081 1.93119 14.62L2.11744 14.2662L2.11932 14.2631L7.72306 3.59312C7.72306 3.59312 8.00931 3.15062 8.24181 3.59312H8.24244L13.8737 14.315ZM25.9862 14.4444L26.0693 14.2862C26.0693 14.2856 26.0724 14.28 26.0724 14.28L31.5512 3.84812C31.5587 3.83687 31.9306 3.12937 32.3093 3.85L37.7718 14.2494C37.8849 14.4731 38.2306 15.2675 37.4199 15.2675L26.5106 15.2656C26.5087 15.2656 26.5087 15.2656 26.5087 15.2656C25.7137 15.265 25.8574 14.7238 25.9862 14.4444Z" fill="#241F20"/>
</svg>
