<svg width="36" height="53" viewBox="0 0 36 53" fill="none" xmlns="http://www.w3.org/2000/svg">
<path d="M9.67205 37.7024L9.67206 37.7025C9.67572 37.7558 9.68577 37.8065 9.69657 37.8543V46.7075C9.69657 47.2226 10.1122 47.6411 10.6261 47.6411H11.4593C11.8338 50.2053 13.7197 52.175 16.0013 52.175H19.9944C22.2759 52.175 24.1612 50.2053 24.5357 47.6411H25.3689C25.8823 47.6411 26.2985 47.2226 26.2985 46.7075V37.7102C26.2987 37.7082 26.299 37.7051 26.299 37.7015C26.299 35.0888 27.4798 32.5635 29.6286 30.5913C33.1935 27.3197 35.2375 22.6663 35.2375 17.8251C35.2381 12.6336 32.9482 7.7598 28.9553 4.45454C24.9633 1.14964 19.7084 -0.165227 14.541 0.845463C7.5827 2.20618 1.99539 8.10603 0.952151 15.1936L1.00162 15.2008L0.952151 15.1936C0.101299 20.9766 2.14639 26.7525 6.42345 30.6445L6.4571 30.6075L6.42345 30.6445C8.33446 32.3833 9.48869 34.8889 9.67205 37.7024ZM21.1632 23.0793H22.4606C24.2035 23.0793 25.6212 21.6548 25.6212 19.9044C25.6212 18.1541 24.2035 16.7295 22.4606 16.7295C20.7171 16.7295 19.2994 18.1541 19.2994 19.9056V19.9057L19.3011 21.2122H16.6968V19.9044C16.6968 18.1541 15.2791 16.7295 13.5362 16.7295C11.7933 16.7295 10.3756 18.1541 10.3756 19.9044C10.3756 21.6548 11.7933 23.0793 13.5362 23.0793H14.8378V36.7049H11.43C11.0484 33.7636 9.73966 31.1419 7.67108 29.2605C3.85582 25.7882 2.03093 20.6318 2.79081 15.4661C3.72067 9.14858 8.69897 3.89004 14.8956 2.67777C19.5181 1.77463 24.2113 2.94677 27.7716 5.89522L27.8035 5.85671L27.7716 5.89523C31.3345 8.84452 33.3778 13.1929 33.3778 17.8257C33.379 22.1436 31.5549 26.2948 28.3748 29.2135C26.1084 31.2933 24.7604 33.9237 24.4972 36.7049H21.1824L21.1632 23.0793ZM14.8378 21.2122H13.5362C12.8188 21.2122 12.2347 20.6257 12.2347 19.9044C12.2347 19.1831 12.8188 18.5967 13.5362 18.5967C14.2536 18.5967 14.8378 19.1831 14.8378 19.9044V21.2122ZM21.1584 19.9044C21.1584 19.9044 21.1584 19.9044 21.1584 19.9044C21.1585 19.1831 21.7426 18.5967 22.4606 18.5967C23.178 18.5967 23.7621 19.1831 23.7621 19.9044C23.7621 20.6257 23.178 21.2122 22.4606 21.2122H21.1601L21.1584 19.9044ZM20.579 38.572H24.44V45.7739H23.6878C23.6858 45.7736 23.6827 45.7733 23.679 45.7733C23.6755 45.7733 23.6724 45.7736 23.6704 45.7739H12.3254C12.3233 45.7736 12.3202 45.7733 12.3166 45.7733C12.313 45.7733 12.31 45.7736 12.3079 45.7739H11.5562V38.572H19.9299H20.579ZM16.6968 36.7049V23.0793H19.3041L19.3239 36.7049H16.6968ZM19.9944 50.3078H16.0013C14.7381 50.3078 13.6613 49.1834 13.3433 47.6411H22.6518C22.3344 49.1834 21.2575 50.3078 19.9944 50.3078Z" fill="#FBD212" stroke="#FBD212" stroke-width="0.1"/>
</svg>
