<svg width="29" height="29" viewBox="0 0 29 29" fill="none" xmlns="http://www.w3.org/2000/svg">
<path d="M27.3333 21.56V25.56C27.3348 25.9313 27.2588 26.2989 27.11 26.6391C26.9612 26.9793 26.743 27.2848 26.4694 27.5358C26.1958 27.7868 25.8727 27.9779 25.521 28.0969C25.1692 28.2159 24.7965 28.2601 24.4266 28.2266C20.3238 27.7808 16.3826 26.3788 12.92 24.1333C9.69842 22.0862 6.9671 19.3549 4.91998 16.1333C2.66662 12.6549 1.26431 8.69463 0.826649 4.5733C0.793329 4.20459 0.837149 3.83298 0.955316 3.48213C1.07348 3.13128 1.26341 2.80889 1.513 2.53546C1.7626 2.26204 2.06639 2.04358 2.40504 1.894C2.74368 1.74441 3.10977 1.66698 3.47998 1.66663H7.47998C8.12706 1.66026 8.75437 1.8894 9.245 2.31134C9.73562 2.73328 10.0561 3.31923 10.1466 3.95997C10.3155 5.24006 10.6286 6.49694 11.08 7.70663C11.2594 8.18387 11.2982 8.70252 11.1919 9.20114C11.0855 9.69976 10.8385 10.1574 10.48 10.52L8.78665 12.2133C10.6847 15.5514 13.4486 18.3152 16.7866 20.2133L18.48 18.52C18.8425 18.1615 19.3002 17.9144 19.7988 17.8081C20.2974 17.7018 20.8161 17.7406 21.2933 17.92C22.503 18.3714 23.7599 18.6845 25.04 18.8533C25.6877 18.9447 26.2792 19.2709 26.702 19.77C27.1249 20.269 27.3495 20.9061 27.3333 21.56Z" stroke="white" stroke-width="1.5" stroke-linecap="round" stroke-linejoin="round"/>
</svg>
