<svg width="40" height="40" viewBox="0 0 40 40" fill="none" xmlns="http://www.w3.org/2000/svg">
<path d="M34.5997 18.8743C35.2195 18.8743 35.7226 18.3697 35.7226 17.7476C35.7226 17.1264 35.2195 16.6216 34.5997 16.6216H24.492V14.3699H34.5997C35.2195 14.3699 35.7226 13.8654 35.7226 13.2437C35.7226 12.6221 35.2195 12.1176 34.5997 12.1176H24.492V4.23511C24.4919 3.89918 24.3442 3.58394 24.0859 3.37003C23.8295 3.15402 23.4858 3.0641 23.1625 3.12941L5.19395 6.50761C4.66364 6.60652 4.27747 7.07269 4.27747 7.61316V32.3868C4.27747 32.9272 4.66161 33.3937 5.19395 33.4926L23.1625 36.871C23.2323 36.8847 23.2995 36.8913 23.3692 36.8913C23.6296 36.8913 23.8834 36.8011 24.0857 36.6323C24.3443 36.4182 24.4919 36.1005 24.4919 35.7653V27.8825H34.5996C35.2194 27.8825 35.7225 27.3781 35.7225 26.7568C35.7225 26.1354 35.2194 25.6307 34.5996 25.6307H24.492V23.3783H34.5997C35.2195 23.3783 35.7226 22.8737 35.7226 22.2522C35.7226 21.6304 35.2195 21.1261 34.5997 21.1261H24.492V18.8743H34.5997V18.8743Z" fill="#2A5699"/>
<path d="M19.9935 15.6198L18.8704 25.7567C18.8119 26.2722 18.4075 26.6845 17.8933 26.7476C17.846 26.7542 17.801 26.7565 17.7541 26.7565C17.2913 26.7565 16.8688 26.4683 16.7029 26.0268L14.3846 19.8291L12.0667 26.0268C11.8871 26.509 11.4152 26.8037 10.8946 26.7501C10.3845 26.6957 9.9757 26.2992 9.90398 25.788L8.7807 17.9055C8.69304 17.2927 9.11999 16.7212 9.73304 16.6329C10.3484 16.5434 10.9167 16.9733 11.0042 17.5882L11.5052 21.1105L13.3315 16.2255C13.6591 15.3471 15.1058 15.3471 15.4359 16.2255L17.156 20.8241L17.7604 15.3695C17.8298 14.7524 18.4008 14.309 19.0006 14.3745C19.6179 14.446 20.0606 15.0025 19.9935 15.6198Z" fill="white"/>
</svg>
