<svg width="29" height="28" viewBox="0 0 29 28" fill="none" xmlns="http://www.w3.org/2000/svg">
<path d="M6.78838 1.54593C7.73663 0.533473 9.32788 0.486632 10.334 1.44156L11.9289 2.95521C13.0528 4.02184 12.9457 5.84345 11.7046 6.77105L9.67352 8.28906C9.02374 8.7747 8.87779 9.68895 9.34408 10.3528L12.7546 15.208C12.9674 15.5109 13.2268 15.7781 13.5233 15.9997L18.2057 19.4993C18.7338 19.894 19.4578 19.8976 19.9898 19.5081L22.4286 17.7225C23.3641 17.0377 24.6476 17.0858 25.5292 17.8388L27.2197 19.2828C27.6248 19.6287 27.9087 20.0951 28.0302 20.6137L28.1716 21.2175C28.3508 21.983 28.1595 22.7881 27.6552 23.3912L25.7122 25.7147C25.3699 26.124 24.9056 26.4131 24.3872 26.5396L21.3643 27.2774C20.8392 27.4055 20.2868 27.36 19.7897 27.1477L16.7357 25.8434C16.5855 25.7793 16.4419 25.7006 16.3071 25.6084L10.0805 21.3536C9.72045 21.1076 9.39806 20.8105 9.12346 20.4717L3.40851 13.4206L3.02008 13.7354L3.40851 13.4206C3.30278 13.2901 3.21045 13.1494 3.13294 13.0004L1.42425 9.71649C0.934595 8.77544 1.09216 7.62783 1.81732 6.85357L6.78838 1.54593Z" fill="#F1C95F" stroke="#F1C95F"/>
</svg>
