<svg width="52" height="57" viewBox="0 0 52 57" fill="none" xmlns="http://www.w3.org/2000/svg">
<path fill-rule="evenodd" clip-rule="evenodd" d="M32 12C35.3137 12 38 9.31371 38 6C38 2.68629 35.3137 0 32 0C28.6863 0 26 2.68629 26 6C26 9.31371 28.6863 12 32 12ZM32 10C34.2091 10 36 8.20914 36 6C36 3.79086 34.2091 2 32 2C29.7909 2 28 3.79086 28 6C28 8.20914 29.7909 10 32 10Z" fill="#F1C95F"/>
<path d="M39.5 39C40.3284 39 41 38.3284 41 37.5C41 36.6716 40.3284 36 39.5 36C38.6716 36 38 36.6716 38 37.5C38 38.3284 38.6716 39 39.5 39Z" fill="#F1C95F"/>
<path fill-rule="evenodd" clip-rule="evenodd" d="M11 18H5C2.23858 18 0 20.2386 0 23V52C0 54.7614 2.23858 57 5 57H42C44.7614 57 47 54.7614 47 52V45H52V30H47V23C47 20.2386 44.7614 18 42 18H23V16C23 13.2386 20.7614 11 18 11H16C13.2386 11 11 13.2386 11 16V18ZM5 20C3.34315 20 2 21.3431 2 23V52C2 53.6569 3.34315 55 5 55H42C43.6569 55 45 53.6569 45 52V45H37C34.2386 45 32 42.7614 32 40V35C32 32.2386 34.2386 30 37 30H45V23C45 21.3431 43.6569 20 42 20H5ZM13 18H21V16C21 14.3431 19.6569 13 18 13H16C14.3431 13 13 14.3431 13 16V18ZM51 31H47V44H51V31ZM37 44H45V31H37C34.7909 31 33 32.7909 33 35V40C33 42.2091 34.7909 44 37 44Z" fill="#F1C95F"/>
</svg>
