<svg width="60" height="51" viewBox="0 0 60 51" fill="none" xmlns="http://www.w3.org/2000/svg">
<path d="M41 7V0H43V7H41Z" fill="#F1C95F"/>
<path d="M3 4C2.44769 4 2 4.44772 2 5V48C2 48.5523 2.44769 49 3 49H43V51H3C1.34314 51 0 49.6569 0 48V5C0 3.34315 1.34314 2 3 2H14.5V4H3Z" fill="#F1C95F"/>
<path d="M37 4H24V2H37V4Z" fill="#F1C95F"/>
<path d="M57 4H46V2H57C58.6569 2 60 3.34315 60 5V48C60 49.6569 58.6569 51 57 51H51V49H57C57.5523 49 58 48.5523 58 48V5C58 4.44772 57.5523 4 57 4Z" fill="#F1C95F"/>
<path d="M46 49H48.5V51H46V49Z" fill="#F1C95F"/>
<path d="M18 0V7H20V0H18Z" fill="#F1C95F"/>
<path fill-rule="evenodd" clip-rule="evenodd" d="M36 31C38.7614 31 41 28.7614 41 26C41 23.2386 38.7614 21 36 21C33.2386 21 31 23.2386 31 26C31 28.7614 33.2386 31 36 31ZM36 29C37.6569 29 39 27.6569 39 26C39 24.3431 37.6569 23 36 23C34.3431 23 33 24.3431 33 26C33 27.6569 34.3431 29 36 29Z" fill="#F1C95F"/>
<path d="M36.5 18C37.8807 18 39 16.8807 39 15.5C39 14.1193 37.8807 13 36.5 13C35.1193 13 34 14.1193 34 15.5C34 16.8807 35.1193 18 36.5 18Z" fill="#F1C95F"/>
<path d="M50 26.5C50 27.8807 48.8807 29 47.5 29C46.1193 29 45 27.8807 45 26.5C45 25.1193 46.1193 24 47.5 24C48.8807 24 50 25.1193 50 26.5Z" fill="#F1C95F"/>
<path d="M47.5 18C48.8807 18 50 16.8807 50 15.5C50 14.1193 48.8807 13 47.5 13C46.1193 13 45 14.1193 45 15.5C45 16.8807 46.1193 18 47.5 18Z" fill="#F1C95F"/>
<path d="M27 36.5C27 37.8807 25.8807 39 24.5 39C23.1193 39 22 37.8807 22 36.5C22 35.1193 23.1193 34 24.5 34C25.8807 34 27 35.1193 27 36.5Z" fill="#F1C95F"/>
<path d="M24.5 29C25.8807 29 27 27.8807 27 26.5C27 25.1193 25.8807 24 24.5 24C23.1193 24 22 25.1193 22 26.5C22 27.8807 23.1193 29 24.5 29Z" fill="#F1C95F"/>
<path d="M16 36.5C16 37.8807 14.8807 39 13.5 39C12.1193 39 11 37.8807 11 36.5C11 35.1193 12.1193 34 13.5 34C14.8807 34 16 35.1193 16 36.5Z" fill="#F1C95F"/>
<path d="M13.5 29C14.8807 29 16 27.8807 16 26.5C16 25.1193 14.8807 24 13.5 24C12.1193 24 11 25.1193 11 26.5C11 27.8807 12.1193 29 13.5 29Z" fill="#F1C95F"/>
</svg>
