<svg width="54" height="68" viewBox="0 0 54 68" fill="none" xmlns="http://www.w3.org/2000/svg">
<path fill-rule="evenodd" clip-rule="evenodd" d="M19.8284 6.5H15.0276L13.6043 11.7187L9.17049 12.6055L9.60966 16.9972L5.63211 19.6489L8.27814 24.5L5.52336 29.5504L8.99997 32.5925V38.2099L12.9927 38.6535L14.4415 43H18.9075L22.0582 46.6008L27.4845 44.3398L31.9133 46.1113L34.5801 43H39.8232L42.097 38.9071L46.3602 37.2019L45.9156 32.756L48.9816 29.69L46.1173 24.9162L49.1882 20.5292L45.5 18.0704V12.1396L40.9296 11.2255L39.5538 6.63972L34.5924 7.09075L31.5626 3.19529L27.5 5.9037L23.2548 3.07359L19.8284 6.5ZM23 0.5L19 4.5H13.5L12 10L6.99997 11L7.49997 16L2.99997 19L5.99997 24.5L2.99997 30L6.99997 33.5V40L11.5 40.5L13 45H18L21.5 49L27.5 46.5L32.5 48.5L35.5 45H41L43.5 40.5L48.5 38.5L48 33.5L51.5 30L48.5 25L52 20L47.5 17V10.5L42.5 9.5L41 4.5L35.5 5L32 0.5L27.5 3.5L23 0.5ZM27 37C34.2143 37 40 31.3696 40 24.5C40 17.6304 34.2143 12 27 12C19.7857 12 14 17.6304 14 24.5C14 31.3696 19.7857 37 27 37ZM27 38C34.732 38 41 31.9558 41 24.5C41 17.0442 34.732 11 27 11C19.268 11 13 17.0442 13 24.5C13 31.9558 19.268 38 27 38ZM3.58184 56.6792L9.37926 45.9763L7.62067 45.0237L0.418091 58.3208L9.89523 59.4358L13.5529 65.5319L22.8831 47.9692L21.1168 47.0308L13.447 61.4681L11.1047 57.5642L3.58184 56.6792ZM50.447 57L43.5896 41.9138L45.4103 41.0862L53.553 59H45.0146L39.2685 67.0445L31.0769 47.3846L32.923 46.6154L39.7314 62.9555L43.9853 57H50.447Z" fill="#F1C95F"/>
</svg>
