<svg width="29" height="29" viewBox="0 0 29 29" fill="none" xmlns="http://www.w3.org/2000/svg">
<path fill-rule="evenodd" clip-rule="evenodd" d="M23.6612 16.6727C26.723 13.1427 29 10.5176 29 8.15625C29 3.65168 22.5081 0 14.5 0C6.49187 0 0 3.65168 0 8.15625C0 10.5176 2.27696 13.1427 5.33884 16.6727C8.11781 19.8766 11.5434 23.8259 14.5 29C17.4566 23.8259 20.8822 19.8766 23.6612 16.6727ZM14.5 12.6875C16.788 12.6875 18.6429 11.0645 18.6429 9.0625C18.6429 7.06047 16.788 5.4375 14.5 5.4375C12.212 5.4375 10.3571 7.06047 10.3571 9.0625C10.3571 11.0645 12.212 12.6875 14.5 12.6875Z" fill="#F1C95F"/>
</svg>
