<svg width="62" height="61" viewBox="0 0 62 61" fill="none" xmlns="http://www.w3.org/2000/svg">
<path fill-rule="evenodd" clip-rule="evenodd" d="M25.4593 5.61927C25.3661 3.78456 25.524 2.08497 25.8957 0.49995C28.3424 0.183705 30.7891 0.096423 33.2356 0.207817C33.9609 2.1035 34.4133 3.98483 34.4584 5.84445C35.6861 5.84724 36.9587 6.10231 38.2939 6.71089C39.0738 5.23148 40.0971 3.86686 41.2166 2.54768C43.4218 3.4745 45.578 4.55037 47.6757 5.79782C47.4238 7.50598 46.7639 9.40964 46.154 10.9747C47.1293 11.7587 48.0263 12.6982 48.8226 13.8381C50.2175 13.0031 51.9462 12.1339 53.6094 11.5305C54.96 13.3002 56.1881 15.2802 57.1804 17.5485C56.0235 19.2208 54.5884 20.4761 53.0017 21.364C53.5492 22.2783 53.8815 23.5301 53.9279 25.2281C55.7497 25.1875 57.9027 25.7644 59.6837 26.1298C59.9965 28.3928 59.7439 31.5024 59.6271 33.1239C57.8967 33.6876 56.0649 34.0752 54.0484 34.1396C53.8883 35.4946 53.5702 36.762 53.0881 37.9383L47.6701 32.9334C47.1943 32.4765 46.8672 31.7423 46.6779 30.7508C47.2675 23.0078 43.9432 17.5493 36.9901 14.0593C32.7068 12.2078 28.4237 12.2218 24.1403 13.4355C21.1814 14.5027 18.871 16.2126 17.112 18.4694C14.2223 22.5286 12.8683 26.125 13.0559 29.2572C13.3403 33.1078 14.1841 36.4569 15.9004 39.0246C17.666 41.5503 19.7904 43.5036 22.2713 44.8892C25.1682 46.3086 28.3058 46.9801 31.7754 46.6175C32.8472 46.5108 33.5316 46.7906 33.9593 47.3251L38.6166 52.7495C37.2368 53.1082 35.7956 53.6034 34.3711 53.5966C34.5072 55.411 34.2983 57.4077 34.0046 59.008C31.4802 59.3665 28.9557 59.6517 26.4312 59.4399C26.022 57.5691 25.4613 55.6338 25.5534 53.6922C23.957 53.6594 22.7423 53.1863 21.7186 52.8678C21.1268 54.3219 20.1757 56.0034 19.0825 57.3146C16.6804 56.5881 14.3999 55.6186 12.284 54.3219C12.6027 52.0849 13.1896 50.039 14.009 48.1582C12.9425 47.4524 12.0901 46.8074 11.4528 45.6737C9.8491 46.7286 8.16374 47.5002 6.41656 48.0562C4.91368 45.9573 3.65352 43.7376 2.58003 41.4244C3.79558 39.9765 5.23163 38.7173 6.9476 37.697C6.46918 36.8686 6.17725 35.7621 6.12803 34.292C4.31982 34.4359 2.5116 34.296 0.703189 33.8696C0.273796 31.5086 0.106121 29.0918 0.177353 26.6238C2.03659 25.8995 3.91303 25.4168 5.80789 25.1914C5.8325 23.845 6.19406 22.5561 6.86636 21.3202C5.05495 20.6512 3.6187 19.8157 2.45118 18.8611C3.36799 16.4878 4.5059 14.2334 5.88792 12.1098C7.76416 12.424 9.71964 13.0103 11.4528 13.7526C12.0863 12.8246 12.9381 12.0365 14.0726 11.4289C13.2264 9.92615 12.5187 8.30567 11.9228 6.58913C13.6942 5.09259 15.7696 3.71402 18.1851 2.46697C19.3866 3.67596 20.4861 5.05931 21.4371 6.69594C22.8153 6.03734 24.1523 5.70874 25.4587 5.62027L25.4593 5.61927Z" fill="black" stroke="#242424" stroke-width="0.199959" stroke-miterlimit="22.9256"/>
<path fill-rule="evenodd" clip-rule="evenodd" d="M32.6277 26.0906C31.0036 23.6293 28.4789 20.9188 25.566 18.1007C30.9758 17.0438 35.7015 17.4567 38.8201 21.3196C41.0875 24.275 42.4211 27.3583 42.0792 30.5897C41.9929 31.4044 41.7909 32.0859 41.7977 32.6694L60.6621 50.5089C62.2557 52.0158 62.079 53.8409 61.0313 55.3721C59.6367 57.4097 58.1198 59.1886 56.1213 60.3565C54.8225 61.1158 52.4056 61.0137 51.2413 59.7976L33.8491 41.6344C32.9935 40.7738 31.8704 40.8178 30.3761 41.049C26.6354 41.6277 23.2671 39.9438 20.358 36.604C18.1882 34.0097 17.8711 29.9901 18.8507 24.9722L26.3585 32.2136C28.6245 30.4534 30.7201 28.4217 32.6281 26.091L32.6277 26.0906Z" fill="#CC4E40" stroke="#CC4E40" stroke-width="0.199959" stroke-miterlimit="22.9256"/>
</svg>
