<svg width="127" height="80" viewBox="0 0 127 80" fill="none" xmlns="http://www.w3.org/2000/svg">
<path d="M104.926 14.4541H21.8449C21.3884 14.4541 20.9507 14.6022 20.6279 14.8657C20.3051 15.1292 20.1238 15.4867 20.1238 15.8594C20.1238 16.2321 20.3051 16.5895 20.6279 16.853C20.9507 17.1166 21.3884 17.2646 21.8449 17.2646H104.926C105.382 17.2646 105.82 17.1166 106.143 16.853C106.466 16.5895 106.647 16.2321 106.647 15.8594C106.647 15.4867 106.466 15.1292 106.143 14.8657C105.82 14.6022 105.382 14.4541 104.926 14.4541Z" fill="#FAA01E"/>
<path d="M104.926 21.8838H21.8449C21.3884 21.8838 20.9507 22.0318 20.6279 22.2954C20.3051 22.5589 20.1238 22.9164 20.1238 23.289C20.1238 23.6617 20.3051 24.0192 20.6279 24.2827C20.9507 24.5463 21.3884 24.6943 21.8449 24.6943H104.926C105.382 24.6943 105.82 24.5463 106.143 24.2827C106.466 24.0192 106.647 23.6617 106.647 23.289C106.647 22.9164 106.466 22.5589 106.143 22.2954C105.82 22.0318 105.382 21.8838 104.926 21.8838Z" fill="#FAA01E"/>
<path d="M94.3659 29.3096H32.4049C31.9484 29.3096 31.5106 29.4576 31.1879 29.7212C30.8651 29.9847 30.6837 30.3421 30.6837 30.7148C30.6837 31.0875 30.8651 31.445 31.1879 31.7085C31.5106 31.972 31.9484 32.1201 32.4049 32.1201H94.3659C94.8224 32.1201 95.2602 31.972 95.583 31.7085C95.9057 31.445 96.0871 31.0875 96.0871 30.7148C96.0871 30.3421 95.9057 29.9847 95.583 29.7212C95.2602 29.4576 94.8224 29.3096 94.3659 29.3096Z" fill="#FAA01E"/>
<path d="M53.383 46.5225L46.8495 46.6582C45.7383 45.9586 44.4139 45.5204 43.0196 45.3911C41.6254 45.2617 40.2144 45.4461 38.9392 45.9242C38.5645 45.626 38.1196 45.393 37.6314 45.2393C37.1431 45.0857 36.6217 45.0147 36.0988 45.0305C35.4174 45.0406 34.7507 45.1937 34.1627 45.4749C33.5746 45.7562 33.0851 46.1562 32.7411 46.6365C32.6823 46.7176 32.5941 46.7817 32.4888 46.8202C32.3834 46.8586 32.2661 46.8694 32.1529 46.851C32.0397 46.8327 31.9363 46.7862 31.8568 46.7178C31.7774 46.6495 31.7259 46.5627 31.7094 46.4695L30.7888 41.25C30.7379 40.9613 30.5783 40.6926 30.332 40.4814C30.0857 40.2701 29.765 40.1266 29.4144 40.0709C29.0638 40.0151 28.7005 40.0498 28.3751 40.1701C28.0497 40.2904 27.7783 40.4905 27.5983 40.7424L20.3577 50.8772C20.1277 51.1992 20.0637 51.5826 20.1799 51.9432C20.2961 52.3037 20.583 52.6117 20.9774 52.7996C21.3718 52.9874 21.8414 53.0396 22.2829 52.9448C22.7245 52.8499 23.1018 52.6157 23.3319 52.2937L28.0852 45.6408L28.3025 46.8686C28.4207 47.5378 28.7905 48.1606 29.3606 48.6509C29.9308 49.1413 30.6734 49.4751 31.4858 49.6062C32.2982 49.7373 33.1404 49.6593 33.8962 49.383C34.6521 49.1067 35.2842 48.6456 35.7054 48.0634C35.7525 47.9959 35.8206 47.9397 35.9028 47.9005C35.985 47.8613 36.0784 47.8405 36.1736 47.8402C36.269 47.8357 36.3641 47.8525 36.4487 47.8889C36.5333 47.9253 36.6041 47.9798 36.6535 48.0466L37.0469 48.5412C37.1724 48.699 37.3354 48.8346 37.5263 48.94C37.7172 49.0454 37.9321 49.1184 38.1582 49.1548C38.3843 49.1911 38.617 49.19 38.8425 49.1515C39.0681 49.113 39.2819 49.0379 39.4713 48.9307L39.7525 48.7701C40.5485 48.3217 41.5086 48.1096 42.4728 48.169C43.4371 48.2285 44.3473 48.556 45.0517 49.0969C45.2121 49.2274 45.4042 49.3289 45.6156 49.395C45.827 49.4612 46.053 49.4904 46.2791 49.4808L53.4715 49.3306C53.928 49.321 54.3611 49.1638 54.6756 48.8935C54.99 48.6231 55.1601 48.2619 55.1484 47.8892C55.1366 47.5165 54.9441 47.1629 54.613 46.9061C54.2819 46.6494 53.8395 46.5105 53.383 46.5201V46.5225Z" fill="#FAA01E"/>
<path d="M124.609 0H2.16218C1.70571 0 1.26793 0.148054 0.94515 0.411592C0.622374 0.675129 0.44104 1.03256 0.44104 1.40526L0.44104 68.4514C0.44104 68.8241 0.622374 69.1815 0.94515 69.4451C1.26793 69.7086 1.70571 69.8567 2.16218 69.8567H80.5232L79.9164 78.5139C79.8981 78.7746 79.9692 79.0344 80.1217 79.264C80.2742 79.4936 80.502 79.684 80.7796 79.8137C81.0572 79.9435 81.3737 80.0075 81.6934 79.9986C82.0131 79.9897 82.3234 79.9083 82.5896 79.7634L89.0109 76.2655L95.4313 79.7634C95.6974 79.9085 96.0079 79.9901 96.3277 79.9992C96.6476 80.0082 96.9642 79.9442 97.242 79.8144C97.5198 79.6846 97.7477 79.4941 97.9003 79.2644C98.0528 79.0347 98.1238 78.7748 98.1054 78.5139L97.4986 69.8567H124.609C125.065 69.8567 125.503 69.7086 125.826 69.4451C126.149 69.1815 126.33 68.8241 126.33 68.4514V1.40526C126.33 1.03256 126.149 0.675129 125.826 0.411592C125.503 0.148054 125.065 0 124.609 0ZM85.0228 52.5214C84.9023 52.446 84.77 52.3841 84.6294 52.3375L79.9882 50.7692L80.6452 46.7028C80.6649 46.5805 80.6649 46.4566 80.6452 46.3342L79.9882 42.2686L84.6294 40.7003C84.77 40.6534 84.9024 40.5913 85.0228 40.5157L89.008 38.0175L92.9921 40.5157C93.1126 40.5913 93.2449 40.6534 93.3856 40.7003L98.0277 42.2686L97.3697 46.3334C97.3501 46.4552 97.3501 46.5786 97.3697 46.7004L98.0277 50.7676L93.9668 52.1392L93.3865 52.3351C93.246 52.3819 93.1137 52.4437 92.9931 52.519L89.0089 55.0179L85.0228 52.5214ZM96.4118 54.3563L100.564 52.9534C100.915 52.8355 101.207 52.6262 101.397 52.3582C101.587 52.0903 101.662 51.7786 101.613 51.4719L100.812 46.5189L101.613 41.566C101.662 41.2591 101.587 40.9474 101.397 40.6793C101.207 40.4113 100.915 40.2018 100.564 40.0836L94.912 38.1741L90.0593 35.1315C89.7585 34.9432 89.39 34.8411 89.0109 34.8411C88.6318 34.8411 88.2633 34.9432 87.9625 35.1315L83.1099 38.1741L77.4566 40.0836C77.1062 40.202 76.8134 40.4116 76.6238 40.6798C76.4342 40.948 76.3584 41.2598 76.4082 41.5668L77.2088 46.5189L76.4082 51.4727C76.3583 51.7796 76.434 52.0913 76.6237 52.3594C76.8133 52.6275 77.1061 52.8369 77.4566 52.955L81.609 54.3579L81.1694 60.6213H17.8973C17.5651 59.3937 16.8101 58.2692 15.7212 57.3803C14.6324 56.4914 13.255 55.8752 11.7514 55.6041V14.2493C13.2546 13.9785 14.6317 13.3626 15.7205 12.4741C16.8094 11.5857 17.5646 10.4617 17.8973 9.23456H108.872C109.204 10.4623 109.959 11.587 111.048 12.476C112.137 13.3651 113.514 13.9815 115.018 14.2525V55.6073C113.514 55.8784 112.137 56.4948 111.048 57.3839C109.959 58.2729 109.204 59.3976 108.872 60.6253H96.8514L96.4118 54.3563ZM89.9659 73.4068C89.6831 73.2524 89.3506 73.17 89.0104 73.17C88.6702 73.17 88.3377 73.2524 88.0549 73.4068L83.5475 75.8615L84.9392 56.0112L87.9605 57.9055C88.261 58.0945 88.6296 58.197 89.0089 58.197C89.3882 58.197 89.7569 58.0945 90.0574 57.9055L93.0777 56.0121L93.955 68.5317L94.4684 75.8607L89.9659 73.4068ZM122.888 67.0462H97.3009L97.0481 63.4326H110.409C110.635 63.4327 110.859 63.3965 111.068 63.3259C111.277 63.2553 111.467 63.1518 111.626 63.0213C111.786 62.8908 111.913 62.7358 111.999 62.5653C112.086 62.3947 112.13 62.2119 112.13 62.0274C112.132 61.0294 112.618 60.0726 113.482 59.3669C114.347 58.6613 115.519 58.2645 116.741 58.2637C117.197 58.2635 117.635 58.1153 117.958 57.8519C118.28 57.5884 118.462 57.2311 118.462 56.8584V12.9991C118.462 12.6264 118.281 12.2689 117.958 12.0054C117.635 11.7418 117.197 11.5938 116.741 11.5938C115.519 11.5927 114.347 11.1958 113.482 10.49C112.618 9.78428 112.132 8.82738 112.13 7.82931C112.13 7.64473 112.086 7.46195 111.999 7.29141C111.913 7.12087 111.786 6.96591 111.626 6.8354C111.467 6.70489 111.277 6.60138 111.068 6.5308C110.859 6.46022 110.635 6.42394 110.409 6.42405H16.3611C15.9046 6.42405 15.4668 6.5721 15.1441 6.83564C14.8213 7.09917 14.64 7.45661 14.64 7.82931C14.6387 8.82724 14.1526 9.78402 13.2884 10.4897C12.4242 11.1955 11.2525 11.5925 10.0302 11.5938C9.57377 11.5938 9.13599 11.7418 8.81322 12.0054C8.49044 12.2689 8.30911 12.6264 8.30911 12.9991V56.8584C8.30937 57.2311 8.49079 57.5884 8.81351 57.8519C9.13623 58.1153 9.57385 58.2635 10.0302 58.2637C11.2524 58.2647 12.4242 58.6616 13.2884 59.3672C14.1526 60.0728 14.6387 61.0295 14.64 62.0274C14.64 62.4001 14.8213 62.7575 15.1441 63.021C15.4668 63.2846 15.9046 63.4326 16.3611 63.4326H80.9776L80.7239 67.0462H3.88332V2.81052H122.888V67.0462Z" fill="#FAA01E"/>
<path d="M89.0107 49.5294C91.0476 49.5294 92.6989 48.1812 92.6989 46.5181C92.6989 44.855 91.0476 43.5068 89.0107 43.5068C86.9738 43.5068 85.3226 44.855 85.3226 46.5181C85.3226 48.1812 86.9738 49.5294 89.0107 49.5294Z" fill="#FAA01E"/>
</svg>
