<svg width="99" height="80" viewBox="0 0 99 80" fill="none" xmlns="http://www.w3.org/2000/svg">
<path d="M98.0864 40C98.0864 37.9613 96.6072 36.1768 94.4579 35.3484C95.2607 33.5213 94.7613 31.4052 92.9961 29.9639C91.2276 28.5213 88.6374 28.1135 86.4012 28.769C85.385 27.0142 83.1994 25.8064 80.7024 25.8064C78.8233 25.8064 77.1213 26.4903 75.9613 27.5768V20.6452H85.4435V6.45161C85.4435 2.89419 81.8987 0 77.5417 0H8.00553C3.64846 0 0.103699 2.89419 0.103699 6.45161V80H75.9613V70.4748L80.7024 68.5394L91.765 73.0555V50.8039C92.2027 50.591 92.6215 50.3419 92.9961 50.0361C94.7613 48.5935 95.2607 46.4787 94.4579 44.6516C96.6072 43.8232 98.0864 42.0387 98.0864 40ZM86.4549 31.6864C87.7034 30.7923 89.5935 30.8374 90.7598 31.7884C91.9246 32.7406 91.9799 34.2852 90.8847 35.3045L90.439 35.7187C89.4118 34.1677 87.8457 32.889 85.9461 32.0503L86.4549 31.6864ZM90.8847 44.6968C91.9799 45.7161 91.9246 47.2594 90.7598 48.2129C89.5967 49.1626 87.7034 49.2103 86.4534 48.3148L85.9461 47.951C87.8457 47.1123 89.4118 45.8335 90.439 44.2826L90.8847 44.6968ZM74.9499 31.6864L75.4587 32.0503C73.5591 32.889 71.993 34.1677 70.9658 35.7187L70.5201 35.3045C69.4249 34.2852 69.4802 32.7406 70.645 31.7884C71.8113 30.8361 73.703 30.791 74.9499 31.6864ZM80.7024 33.5484C85.0595 33.5484 88.6042 36.4426 88.6042 40C88.6042 43.5574 85.0595 46.4516 80.7024 46.4516C76.3453 46.4516 72.8006 43.5574 72.8006 40C72.8006 36.4426 76.3453 33.5484 80.7024 33.5484ZM70.1092 37.4064C69.8074 38.2284 69.6398 39.0981 69.6398 40C69.6398 40.9019 69.8074 41.7716 70.1108 42.5935L69.436 42.5574C67.7766 42.4697 66.4791 41.3458 66.4791 40C66.4791 38.6542 67.7766 37.5303 69.4344 37.4426L70.1092 37.4064ZM70.645 48.2116C69.4786 47.2593 69.4249 45.7148 70.5185 44.6955L70.9642 44.2813C71.9914 45.8323 73.5576 47.111 75.4572 47.9497L74.9499 48.3135C73.7014 49.209 71.8113 49.1652 70.645 48.2116ZM80.7024 49.0323C81.8071 49.0323 82.8722 48.8955 83.8789 48.649L83.8347 49.2C83.7272 50.5535 82.3507 51.6129 80.7024 51.6129C79.0541 51.6129 77.6776 50.5535 77.5701 49.2L77.5259 48.649C78.5326 48.8955 79.5977 49.0323 80.7024 49.0323ZM80.7024 28.3871C82.3507 28.3871 83.7272 29.4465 83.8347 30.8L83.8789 31.351C82.8722 31.1045 81.8071 30.9677 80.7024 30.9677C79.5977 30.9677 78.5326 31.1045 77.5259 31.351L77.5701 30.8C77.6776 29.4465 79.0541 28.3871 80.7024 28.3871ZM77.5417 2.58065C80.1556 2.58065 82.2828 4.31742 82.2828 6.45161V18.0645H15.9074V6.45161C15.9074 5 15.3163 3.65935 14.3238 2.58065H77.5417ZM72.8006 77.4193H3.26443V6.45161C3.26443 4.31742 5.39161 2.58065 8.00553 2.58065C10.6195 2.58065 12.7466 4.31742 12.7466 6.45161V20.6452H72.8006V28.4774C71.2028 28.489 69.6145 28.9806 68.4103 29.9639C66.645 31.4065 66.1456 33.5213 66.9485 35.3484C64.7976 36.1768 63.3184 37.9613 63.3184 40C63.3184 42.0387 64.7976 43.8232 66.9469 44.6516C66.1456 46.4787 66.645 48.5935 68.4103 50.0361C68.7849 50.3419 69.2021 50.591 69.6398 50.8039V73.0555L72.8006 71.7652V77.4193ZM88.6042 68.88L82.2828 66.2994V56.7742H79.122V66.2994L72.8006 68.88V51.5226C73.5465 51.5277 74.2924 51.44 75.0052 51.231C76.0198 52.9858 78.2054 54.1935 80.7024 54.1935C83.1994 54.1935 85.385 52.9858 86.3996 51.231C87.1108 51.4387 87.8583 51.5277 88.6042 51.5226V68.88ZM91.9704 42.5574L91.2956 42.5935C91.5975 41.7716 91.765 40.9019 91.765 40C91.765 39.0981 91.5975 38.2284 91.2956 37.4064L91.9704 37.4426C93.6282 37.5303 94.9257 38.6542 94.9257 40C94.9257 41.3458 93.6282 42.4697 91.9704 42.5574Z" fill="#FAA01E"/>
<path d="M80.7023 43.8708C83.3162 43.8708 85.4434 42.1341 85.4434 39.9999C85.4434 37.8657 83.3162 36.1289 80.7023 36.1289C78.0884 36.1289 75.9612 37.8657 75.9612 39.9999C75.9612 42.1341 78.0884 43.8708 80.7023 43.8708ZM80.7023 38.7096C81.5731 38.7096 82.2826 39.2889 82.2826 39.9999C82.2826 40.7108 81.5731 41.2902 80.7023 41.2902C79.8315 41.2902 79.1219 40.7108 79.1219 39.9999C79.1219 39.2889 79.8315 38.7096 80.7023 38.7096Z" fill="#FAA01E"/>
<path d="M9.58584 23.2256H6.42511V25.8062H9.58584V23.2256Z" fill="#FAA01E"/>
<path d="M69.64 23.2256H12.7468V25.8062H69.64V23.2256Z" fill="#FAA01E"/>
<path d="M63.3183 28.3867H6.42511V30.9674H63.3183V28.3867Z" fill="#FAA01E"/>
<path d="M63.3183 33.5479H6.42511V36.1285H63.3183V33.5479Z" fill="#FAA01E"/>
<path d="M61.7379 56.7744H11.1662C8.55228 56.7744 6.42511 58.5112 6.42511 60.6454V70.968C6.42511 73.1022 8.55228 74.8389 11.1662 74.8389H61.7379C64.3519 74.8389 66.479 73.1022 66.479 70.968V60.6454C66.479 58.5112 64.3519 56.7744 61.7379 56.7744ZM63.3183 70.968C63.3183 71.6802 62.6087 72.2583 61.7379 72.2583H11.1662C10.2954 72.2583 9.58584 71.6802 9.58584 70.968V60.6454C9.58584 59.9331 10.2954 59.3551 11.1662 59.3551H61.7379C62.6087 59.3551 63.3183 59.9331 63.3183 60.6454V70.968Z" fill="#FAA01E"/>
<path d="M19.0681 61.9355H15.9073V64.5162H19.0681V61.9355Z" fill="#FAA01E"/>
<path d="M19.0681 67.0967H15.9073V69.6773H19.0681V67.0967Z" fill="#FAA01E"/>
<path d="M22.2289 64.5166H19.0682V67.0972H22.2289V64.5166Z" fill="#FAA01E"/>
<path d="M15.9075 64.5166H12.7468V67.0972H15.9075V64.5166Z" fill="#FAA01E"/>
<path d="M31.7111 61.9355H28.5504V64.5162H31.7111V61.9355Z" fill="#FAA01E"/>
<path d="M31.7111 67.0967H28.5504V69.6773H31.7111V67.0967Z" fill="#FAA01E"/>
<path d="M34.8718 64.5166H31.7111V67.0972H34.8718V64.5166Z" fill="#FAA01E"/>
<path d="M28.5503 64.5166H25.3896V67.0972H28.5503V64.5166Z" fill="#FAA01E"/>
<path d="M44.3539 61.9355H41.1931V64.5162H44.3539V61.9355Z" fill="#FAA01E"/>
<path d="M44.3539 67.0967H41.1931V69.6773H44.3539V67.0967Z" fill="#FAA01E"/>
<path d="M47.5149 64.5166H44.3541V67.0972H47.5149V64.5166Z" fill="#FAA01E"/>
<path d="M41.1933 64.5166H38.0326V67.0972H41.1933V64.5166Z" fill="#FAA01E"/>
<path d="M56.9969 61.9355H53.8362V64.5162H56.9969V61.9355Z" fill="#FAA01E"/>
<path d="M56.9969 67.0967H53.8362V69.6773H56.9969V67.0967Z" fill="#FAA01E"/>
<path d="M60.1577 64.5166H56.997V67.0972H60.1577V64.5166Z" fill="#FAA01E"/>
<path d="M53.8361 64.5166H50.6754V67.0972H53.8361V64.5166Z" fill="#FAA01E"/>
<path d="M60.1576 38.709H6.42511V41.2896H60.1576V38.709Z" fill="#FAA01E"/>
<path d="M60.1578 43.8711H12.7468V46.4517H60.1578V43.8711Z" fill="#FAA01E"/>
<path d="M9.58584 43.8711H6.42511V46.4517H9.58584V43.8711Z" fill="#FAA01E"/>
<path d="M53.8361 49.0322H6.42511V51.6129H53.8361V49.0322Z" fill="#FAA01E"/>
<path d="M60.1577 49.0322H56.997V51.6129H60.1577V49.0322Z" fill="#FAA01E"/>
</svg>
