<svg width="98" height="80" viewBox="0 0 98 80" fill="none" xmlns="http://www.w3.org/2000/svg">
<path d="M97.9914 19.3548C97.9914 8.68258 87.3571 0 74.2859 0C63.9882 0 55.2283 5.39871 51.9632 12.9032H6.33013C4.58698 12.9032 3.16939 14.0606 3.16939 15.4839V46.4516C1.42625 46.4516 0.00865936 47.609 0.00865936 49.0323V77.4193C0.00865936 78.8426 1.42625 80 3.16939 80H44.2589C46.0021 80 47.4197 78.8426 47.4197 77.4193V72.2581H91.6699C93.4131 72.2581 94.8307 71.1006 94.8307 69.6774V28.969C96.8298 26.1329 97.9914 22.8555 97.9914 19.3548ZM85.3485 54.9497L73.6316 64.5161H47.4197V49.0323C47.4197 47.609 46.0021 46.4516 44.2589 46.4516H12.6516V30.2116L24.3684 20.6452H50.661C50.7321 21.52 50.8491 22.3858 51.0592 23.2258H25.2945C23.5514 23.2258 22.1338 24.3832 22.1338 25.8064V30.9677C22.1338 32.391 23.5514 33.5484 25.2945 33.5484H58.2246C62.4537 36.7406 68.0861 38.7097 74.2859 38.7097C78.2811 38.7097 82.0423 37.8903 85.3485 36.4594V54.9497ZM85.3485 58.5987V64.5161H78.1009L85.3485 58.5987ZM18.9731 49.0323H28.4553V57.2671L23.7142 55.3316L18.9731 57.2671V49.0323ZM12.6516 26.5626V20.6452H19.8992L12.6516 26.5626ZM66.3841 19.3548C66.3841 17.1652 66.8123 14.9884 67.5994 12.9032H80.9708C81.7595 14.9884 82.1877 17.1652 82.1877 19.3548C82.1877 21.5445 81.7594 23.7213 80.9724 25.8064H67.6009C66.8123 23.7213 66.3841 21.5445 66.3841 19.3548ZM74.2859 3.44129L76.8145 6.19355C77.9919 7.47484 78.9733 8.86581 79.7777 10.3226H68.7957C69.6001 8.8671 70.5815 7.47484 71.7589 6.19355L74.2859 3.44129ZM79.7777 28.3871C78.9733 29.8426 77.9919 31.2348 76.8145 32.5161L74.2859 35.2684L71.7573 32.5161C70.5799 31.2348 69.5985 29.8439 68.7941 28.3871H79.7777ZM69.2287 34.0645L70.8976 35.8813C65.0708 35.0865 60.0752 32.2942 57.0014 28.3871H65.3679C66.3461 30.4039 67.6294 32.3239 69.2287 34.0645ZM55.3673 30.9677H25.2945V25.8064H51.9632C52.7771 27.6761 53.9292 29.4116 55.3673 30.9677ZM77.6742 35.8813L79.3431 34.0645C80.9424 32.3239 82.2257 30.4052 83.2039 28.3871H91.5704C88.4966 32.2942 83.4994 35.0865 77.6742 35.8813ZM93.2456 25.8064H84.258C84.9613 23.7084 85.3485 21.5381 85.3485 19.3548C85.3485 17.1716 84.9629 15.0013 84.258 12.9032H93.2456C94.2633 14.8903 94.8307 17.0697 94.8307 19.3548C94.8307 21.64 94.2633 23.8194 93.2456 25.8064ZM91.5704 10.3226H83.2039C82.2257 8.30581 80.9424 6.38581 79.3431 4.64516L77.6742 2.82839C83.4994 3.62323 88.4966 6.41548 91.5704 10.3226ZM70.8976 2.82839L69.2287 4.64516C67.6294 6.38581 66.3461 8.30452 65.3679 10.3226H57.0014C60.0752 6.41548 65.0724 3.62323 70.8976 2.82839ZM55.3262 12.9032H64.3138C63.6089 15.0013 63.2233 17.1716 63.2233 19.3548C63.2233 21.5381 63.6089 23.7084 64.3138 25.8064H55.3262C54.3085 23.8194 53.7411 21.64 53.7411 19.3548C53.7411 17.0697 54.3085 14.8903 55.3262 12.9032ZM6.33013 15.4839H51.0577C50.8475 16.3239 50.7305 17.1897 50.6594 18.0645H9.49086V46.4516H6.33013V15.4839ZM3.16939 77.4193V49.0323H15.8123V61.4426L23.7142 58.2168L31.616 61.4426V49.0323H44.2589L44.2605 77.4193H3.16939ZM91.6699 69.6774H47.4197V67.0968H88.5092V34.8013C89.6471 34.1006 90.7043 33.3213 91.6699 32.4684V69.6774Z" fill="#FAA01E"/>
<path d="M6.33016 72.2578H9.4909V74.8385H6.33016V72.2578Z" fill="#FAA01E"/>
<path d="M12.6517 72.2578H15.8124V74.8385H12.6517V72.2578Z" fill="#FAA01E"/>
<path d="M18.9731 72.2578H22.1338V74.8385H18.9731V72.2578Z" fill="#FAA01E"/>
<path d="M22.1339 36.1289H47.4198V38.7096H22.1339V36.1289Z" fill="#FAA01E"/>
<path d="M50.5804 36.1289H60.0626V38.7096H50.5804V36.1289Z" fill="#FAA01E"/>
<path d="M63.2234 43.8707V46.4513C63.2234 47.8746 64.641 49.032 66.3842 49.032H79.0271C80.7703 49.032 82.1879 47.8746 82.1879 46.4513V43.8707C82.1879 42.4475 80.7703 41.29 79.0271 41.29H66.3842C64.641 41.29 63.2234 42.4475 63.2234 43.8707ZM79.0287 46.4513H66.3842V43.8707H79.0271L79.0287 46.4513Z" fill="#FAA01E"/>
<path d="M22.1339 41.29H60.0627V43.8707H22.1339V41.29Z" fill="#FAA01E"/>
<path d="M50.5804 51.6133H63.2233V54.1939H50.5804V51.6133Z" fill="#FAA01E"/>
<path d="M66.3841 51.6133H69.5449V54.1939H66.3841V51.6133Z" fill="#FAA01E"/>
<path d="M72.7057 51.6133H75.8664V54.1939H72.7057V51.6133Z" fill="#FAA01E"/>
<path d="M79.0271 51.6133H82.1878V54.1939H79.0271V51.6133Z" fill="#FAA01E"/>
</svg>
