<svg width="25" height="20" viewBox="0 0 25 20" fill="none" xmlns="http://www.w3.org/2000/svg">
<path d="M22.7677 19.6429C23.3296 19.6429 23.8166 19.4573 24.2305 19.0909L17.1476 12.0078C16.9777 12.1295 16.813 12.2478 16.6574 12.3603C16.1273 12.7508 15.6971 13.0556 15.3668 13.2739C15.0365 13.4928 14.597 13.7159 14.0485 13.9436C13.4995 14.1717 12.9881 14.2853 12.5137 14.2853H12.4998H12.486C12.0115 14.2853 11.5001 14.1717 10.9512 13.9436C10.4023 13.7159 9.96288 13.4928 9.6329 13.2739C9.3026 13.0556 8.87263 12.7509 8.34231 12.3603C8.19452 12.252 8.03062 12.1331 7.85343 12.0059L0.769165 19.0909C1.18307 19.4573 1.67032 19.6429 2.23223 19.6429H22.7677Z" fill="#FAA01E"/>
<path d="M1.40919 7.54689C0.879184 7.19354 0.409181 6.78885 0 6.33301V17.1095L6.24284 10.8666C4.99392 9.99471 3.38474 8.8894 1.40919 7.54689Z" fill="#FAA01E"/>
<path d="M23.6049 7.54689C21.7047 8.83303 20.0897 9.94025 18.7596 10.8691L25 17.1097V6.33301C24.5999 6.77968 24.1349 7.1841 23.6049 7.54689Z" fill="#FAA01E"/>
<path d="M22.7677 0H2.23225C1.51583 0 0.965032 0.241923 0.57918 0.72527C0.193011 1.20884 0.000244141 1.81361 0.000244141 2.53888C0.000244141 3.12471 0.256056 3.75948 0.767453 4.44335C1.27885 5.12695 1.82302 5.6639 2.39969 6.05448C2.71582 6.27784 3.66917 6.9406 5.25973 8.04256C6.11836 8.63756 6.86505 9.15617 7.50671 9.60371C8.05365 9.9848 8.52533 10.3148 8.91477 10.5887C8.95948 10.6201 9.02978 10.6704 9.1231 10.7371C9.22364 10.8093 9.35087 10.9009 9.50782 11.0143C9.81007 11.2329 10.0612 11.4096 10.2611 11.5445C10.4609 11.6796 10.7028 11.8304 10.9867 11.9979C11.2703 12.1651 11.5378 12.2909 11.7889 12.3746C12.0401 12.4582 12.2726 12.5001 12.4864 12.5001H12.5003H12.5142C12.728 12.5001 12.9606 12.4582 13.2117 12.3746C13.4628 12.2909 13.7301 12.1654 14.0139 11.9979C14.2975 11.8304 14.5392 11.6793 14.7395 11.5445C14.9395 11.4096 15.1906 11.2329 15.4929 11.0143C15.6495 10.9009 15.7768 10.8092 15.8773 10.7373C15.9707 10.6703 16.0409 10.6203 16.0859 10.5887C16.3893 10.3776 16.8621 10.0489 17.4977 9.60757C18.6543 8.80396 20.3576 7.62117 22.6149 6.05448C23.2938 5.5803 23.861 5.00808 24.3168 4.33864C24.7719 3.6692 25 2.96698 25 2.23223C25 1.61834 24.7788 1.09306 24.3374 0.655553C23.8955 0.218593 23.3722 0 22.7677 0Z" fill="#FAA01E"/>
</svg>
