<svg width="19" height="26" viewBox="0 0 19 26" fill="none" xmlns="http://www.w3.org/2000/svg">
<path d="M9.09755 0.642578C4.0814 0.642578 0 4.72398 0 9.74063C0 11.0492 0.267828 12.2985 0.795644 13.4543C3.07028 18.4318 7.4314 23.6869 8.71415 25.1788C8.81025 25.2903 8.95036 25.3546 9.0978 25.3546C9.24525 25.3546 9.38536 25.2903 9.48146 25.1788C10.7637 23.6872 15.1248 18.4323 17.4002 13.4543C17.9283 12.2985 18.1959 11.0492 18.1959 9.74063C18.1954 4.72398 14.114 0.642578 9.09755 0.642578ZM9.09755 14.4662C6.49186 14.4662 4.37174 12.3461 4.37174 9.74038C4.37174 7.13443 6.49186 5.01432 9.09755 5.01432C11.7032 5.01432 13.8234 7.13443 13.8234 9.74038C13.8236 12.3461 11.7035 14.4662 9.09755 14.4662Z" fill="#FAA01E"/>
</svg>
