<svg width="25" height="25" viewBox="0 0 25 25" fill="none" xmlns="http://www.w3.org/2000/svg">
<path d="M12.5 0C5.60751 0 0 5.60734 0 12.5004C0 19.3927 5.60675 25 12.5 25C12.9263 25 13.2707 24.6549 13.2707 24.2301C13.2707 23.8046 12.9263 23.4595 12.5 23.4595C6.45702 23.4595 1.54212 18.5432 1.54212 12.5011C1.54212 6.45835 6.45702 1.54208 12.5 1.54208C18.543 1.54208 23.4571 6.45835 23.4571 12.5011C23.4571 15.0259 22.1132 17.5299 20.19 18.5891C19.4912 18.9733 18.7335 19.1638 17.9254 19.1715C18.4106 18.8822 18.8307 18.4927 19.143 17.9998C19.2042 17.9072 19.2853 17.8269 19.3251 17.7251C19.5762 17.1213 19.5984 16.4363 19.7499 15.7996C19.9359 14.9838 16.185 13.3943 15.859 14.4106C15.7411 14.7879 15.5605 15.9779 15.324 16.2917C15.1136 16.571 14.5947 16.4394 14.2702 16.1631C13.4153 15.4345 12.461 14.3631 11.6237 13.5175L11.6252 13.5167C11.6038 13.4945 11.5778 13.4692 11.5548 13.4471C11.5311 13.4241 11.5074 13.3996 11.4837 13.3766C10.6372 12.5402 9.56576 11.5874 8.83794 10.7302C8.56242 10.4058 8.42925 9.88842 8.70936 9.6772C9.02314 9.43995 10.214 9.26164 10.5905 9.14302C11.6053 8.81777 10.0165 5.06474 9.2007 5.25224C8.56395 5.40148 7.87899 5.42443 7.27515 5.67469C7.1726 5.71754 7.093 5.79713 7.0004 5.85836C4.85826 7.21676 4.58198 10.5137 6.67284 12.9695C7.46954 13.9093 8.30068 14.8185 9.15631 15.7062L9.15172 15.7093C9.17544 15.733 9.19993 15.7552 9.22442 15.7782C9.24738 15.8019 9.26958 15.8256 9.29177 15.8509L9.29636 15.8463C10.1841 16.7019 11.2365 17.9616 12.9462 19.1026C16.5455 21.5064 19.3075 20.8352 20.9346 19.9429C23.7433 18.3962 25 15.0924 25 12.505C25.0008 5.60734 19.3925 0 12.5 0Z" fill="#FAA01E"/>
</svg>
