<svg width="55" height="46" viewBox="0 0 55 46" fill="none" xmlns="http://www.w3.org/2000/svg">
<path d="M10.8795 15.2191C10.7132 15.5951 10.6141 16.002 10.6141 16.4116C10.6141 17.5386 11.2404 18.5524 12.2489 19.0557L12.8734 19.368C12.9406 19.4016 13.0123 19.4025 13.0831 19.4175C13.5616 20.5392 14.418 21.4672 15.5264 22.0218C15.6502 22.0846 15.7865 22.1156 15.9218 22.1156C16.0571 22.1156 16.1934 22.0846 16.3172 22.0227C17.4265 21.468 18.282 20.5401 18.7605 19.4184C18.8313 19.4034 18.903 19.4025 18.9702 19.3689L19.5956 19.0566C20.6032 18.5532 21.2295 17.5395 21.2295 16.4125C21.2295 16.0029 21.1304 15.596 20.9641 15.2191C21.6815 14.6848 22.1141 13.848 22.1141 12.9289C22.1141 11.693 21.3259 10.5988 20.1538 10.2095L20.1184 10.198C19.6655 8.77381 18.5597 7.61408 17.086 7.12312C17.0373 7.10631 16.9851 7.10543 16.9338 7.09835C17.0868 6.52512 17.3752 5.98993 17.7981 5.56708L18.3165 5.0487L17.0656 3.79785L16.5472 4.31624C15.798 5.06551 15.3026 6.04035 15.1195 7.07712H15.0372C14.9425 7.07712 14.847 7.09304 14.7576 7.12312C13.2839 7.61408 12.179 8.77381 11.7261 10.1972L11.6907 10.2087C10.5177 10.5988 9.72949 11.693 9.72949 12.9289C9.72949 13.848 10.163 14.6848 10.8795 15.2191ZM14.2835 14.8662C14.6258 15.2554 15.0416 15.5871 15.5264 15.8304C15.6502 15.8923 15.7865 15.9233 15.9218 15.9233C16.0571 15.9233 16.1934 15.8923 16.3172 15.8304C16.8011 15.588 17.2169 15.2563 17.5592 14.867C17.3115 15.695 16.7171 16.3868 15.9209 16.7451C15.1274 16.3868 14.5321 15.6942 14.2835 14.8662ZM15.9218 13.9975C15.4096 13.5967 15.1018 12.997 15.0558 12.3388C15.3592 12.1787 15.6493 11.9947 15.9218 11.7868C16.1943 11.9938 16.4853 12.1787 16.7878 12.3388C16.7418 12.9979 16.434 13.5976 15.9218 13.9975ZM12.3833 16.4125C12.3833 16.2382 12.4249 16.0648 12.4992 15.9065C12.5859 15.895 12.6682 15.8711 12.7487 15.8339C12.9026 16.2037 13.1078 16.5469 13.3467 16.8645L12.9663 17.4342C12.6045 17.2219 12.3833 16.8371 12.3833 16.4125ZM15.9218 20.2075C15.246 19.7475 14.7576 19.0566 14.5462 18.2551L14.6718 18.0667C14.9761 18.2534 15.2964 18.4161 15.6423 18.5311C15.7325 18.5612 15.828 18.5771 15.9218 18.5771C16.0156 18.5771 16.1111 18.5621 16.2013 18.532C16.5481 18.4161 16.8683 18.2534 17.1718 18.0667L17.2965 18.2542C17.0868 19.0557 16.5985 19.7475 15.9218 20.2075ZM18.8773 17.4351L18.4978 16.8654C18.7366 16.5478 18.9419 16.2046 19.0958 15.8339C19.1763 15.8702 19.2586 15.895 19.3444 15.9065C19.4187 16.0648 19.4603 16.2382 19.4603 16.4125C19.4603 16.8371 19.2391 17.2219 18.8773 17.4351ZM19.1807 13.2234C19.2718 13.2544 19.3665 13.2694 19.4603 13.2694C19.6434 13.2694 19.8247 13.2128 19.9778 13.1031C20.1352 12.9899 20.244 12.828 20.2998 12.6475C20.3245 12.7378 20.3449 12.8315 20.3449 12.9289C20.3449 13.3482 20.1122 13.7232 19.738 13.9099L19.524 14.0169L18.4226 13.2836C18.4491 13.188 18.4642 13.089 18.4845 12.9917L19.1807 13.2234ZM15.1902 8.84635H16.6534C17.6512 9.22939 18.3598 10.1078 18.5341 11.1437L18.2722 11.0561C17.6265 10.8412 17.0302 10.4723 16.5472 9.99016C16.3747 9.81766 16.1483 9.73097 15.9218 9.73097C15.6953 9.73097 15.4689 9.81766 15.2964 9.99016C14.8134 10.4723 14.2171 10.8412 13.5705 11.057L13.3095 11.1437C13.4838 10.1078 14.1924 9.22939 15.1902 8.84635ZM11.5438 12.6467C11.6005 12.8271 11.7093 12.989 11.8658 13.1022C12.0967 13.2685 12.3931 13.3145 12.6629 13.2234L13.3582 12.9917C13.3776 13.089 13.3936 13.188 13.4201 13.2836L12.3188 14.0169L12.1038 13.9099C11.7314 13.7241 11.4987 13.3482 11.4987 12.9289C11.4987 12.8315 11.5191 12.7378 11.5438 12.6467Z" fill="#FAA01E"/>
<path d="M7.07568 24.769H17.6911V26.5383H7.07568V24.769Z" fill="#FAA01E"/>
<path d="M7.07568 28.3076H23.8834V30.0768H7.07568V28.3076Z" fill="#FAA01E"/>
<path d="M7.07568 31.8462H22.1141V33.6154H7.07568V31.8462Z" fill="#FAA01E"/>
<path d="M53.9615 6.19231H51.3077V0.884615C51.3077 0.395423 50.9123 0 50.4231 0H32.7308C30.4812 0 28.5076 1.20573 27.4231 3.00504C26.3385 1.20573 24.365 0 22.1154 0H4.42308C3.93388 0 3.53846 0.395423 3.53846 0.884615V6.19231H0.884615C0.395423 6.19231 0 6.58773 0 7.07692V39.8077C0 40.2969 0.395423 40.6923 0.884615 40.6923H18.8352C21.0671 40.6923 23.0734 41.9317 24.0713 43.9282C24.71 45.2065 25.9944 46 27.4231 46C28.8517 46 30.1362 45.2065 30.7749 43.9282C31.7727 41.9317 33.779 40.6923 36.0109 40.6923H53.9615C54.4507 40.6923 54.8461 40.2969 54.8461 39.8077V7.07692C54.8461 6.58773 54.4507 6.19231 53.9615 6.19231ZM32.7308 1.76923H49.5385V35.3846H32.7299C30.9969 35.3846 29.4329 36.1047 28.3077 37.2565V6.19231C28.3077 3.75342 30.2919 1.76923 32.7308 1.76923ZM5.30769 1.76923H22.1154C24.5543 1.76923 26.5385 3.75342 26.5385 6.19231V37.2565C25.4132 36.1047 23.8492 35.3846 22.1163 35.3846H5.30769V1.76923ZM53.0769 38.9231H36.0109C33.1041 38.9231 30.4918 40.5375 29.1923 43.1374C28.8553 43.8115 28.1777 44.2308 27.4231 44.2308C26.6685 44.2308 25.9909 43.8115 25.6538 43.1374C24.3543 40.5375 21.7421 38.9231 18.8352 38.9231H1.76923V7.96154H3.53846V36.2692C3.53846 36.7584 3.93388 37.1538 4.42308 37.1538H22.1163C24.5552 37.1538 26.5385 39.1372 26.5385 41.576C26.5385 42.0652 26.9339 42.4607 27.4231 42.4607C27.9123 42.4607 28.3077 42.0652 28.3077 41.576C28.3077 39.1372 30.291 37.1538 32.7299 37.1538H50.4231C50.9123 37.1538 51.3077 36.7584 51.3077 36.2692V7.96154H53.0769V38.9231Z" fill="#FAA01E"/>
<path d="M37.1563 15.9232H38.0409V19.4617H39.8101V15.9232H40.6947C42.1579 15.9232 43.3486 14.7325 43.3486 13.2693V11.5001C43.3486 11.2524 43.246 11.0295 43.0823 10.8694C43.2478 10.5226 43.3486 10.1396 43.3486 9.73088V7.96165C43.3486 7.71396 43.246 7.49104 43.0823 7.33092C43.2478 6.98415 43.3486 6.60111 43.3486 6.19242V4.42319C43.3486 3.934 42.9532 3.53857 42.464 3.53857H40.6947C40.0233 3.53857 39.3952 3.78361 38.9246 4.21884C38.4425 3.77831 37.8206 3.53857 37.1563 3.53857H35.3871C34.8979 3.53857 34.5024 3.934 34.5024 4.42319V6.19242C34.5024 6.60111 34.6033 6.98415 34.7687 7.33092C34.6051 7.49104 34.5024 7.71396 34.5024 7.96165V9.73088C34.5024 10.1396 34.6033 10.5226 34.7687 10.8694C34.6051 11.0295 34.5024 11.2524 34.5024 11.5001V13.2693C34.5024 14.7325 35.6931 15.9232 37.1563 15.9232ZM37.1563 14.154C36.668 14.154 36.2717 13.7577 36.2717 13.2693V12.3847H37.1563C37.3925 12.3847 37.611 12.4758 37.787 12.6563C37.9498 12.8147 38.0409 13.0332 38.0409 13.2693V14.154H37.1563ZM36.2717 9.73088V8.84627H37.1563C37.3925 8.84627 37.611 8.93738 37.787 9.11784C37.9498 9.27619 38.0409 9.49469 38.0409 9.73088V10.6155H37.1563C36.668 10.6155 36.2717 10.2192 36.2717 9.73088ZM41.5794 8.84627V9.73088C41.5794 10.2192 41.1831 10.6155 40.6947 10.6155H39.8101V9.73088C39.8101 9.49469 39.9012 9.27619 40.0817 9.10015C40.2401 8.93738 40.4586 8.84627 40.6947 8.84627H41.5794ZM41.5794 13.2693C41.5794 13.7577 41.1831 14.154 40.6947 14.154H39.8101V13.2693C39.8101 13.0332 39.9012 12.8147 40.0817 12.6386C40.2401 12.4758 40.4586 12.3847 40.6947 12.3847H41.5794V13.2693ZM40.0817 5.56169C40.2401 5.39892 40.4586 5.3078 40.6947 5.3078H41.5794V6.19242C41.5794 6.68073 41.1831 7.07704 40.6947 7.07704H39.8101V6.19242C39.8101 5.95623 39.9012 5.73773 40.0817 5.56169ZM36.2717 5.3078H37.1563C37.3925 5.3078 37.611 5.39892 37.787 5.57938C37.9498 5.73773 38.0409 5.95623 38.0409 6.19242V7.07704H37.1563C36.668 7.07704 36.2717 6.68073 36.2717 6.19242V5.3078Z" fill="#FAA01E"/>
<path d="M30.0742 21.231H43.3443V23.0002H30.0742V21.231Z" fill="#FAA01E"/>
<path d="M30.0742 24.769H47.7665V26.5383H30.0742V24.769Z" fill="#FAA01E"/>
<path d="M30.0742 28.3076H38.9204V30.0768H30.0742V28.3076Z" fill="#FAA01E"/>
<path d="M30.0742 31.8462H46.8819V33.6154H30.0742V31.8462Z" fill="#FAA01E"/>
</svg>
