<svg width="46" height="50" viewBox="0 0 46 50" fill="none" xmlns="http://www.w3.org/2000/svg">
<path d="M18.0308 40H15.7729V31.2969L13.0776 32.1328V30.2969L17.7886 28.6094H18.0308V40ZM29.5308 40H21.7339V38.4531L25.4136 34.5312C25.9188 33.9792 26.2912 33.4974 26.5308 33.0859C26.7756 32.6745 26.8979 32.2839 26.8979 31.9141C26.8979 31.4089 26.7703 31.013 26.5151 30.7266C26.2599 30.4349 25.8953 30.2891 25.4214 30.2891C24.911 30.2891 24.5073 30.4661 24.2104 30.8203C23.9188 31.1693 23.7729 31.6302 23.7729 32.2031H21.5073C21.5073 31.5104 21.6714 30.8776 21.9995 30.3047C22.3328 29.7318 22.8016 29.2839 23.4058 28.9609C24.0099 28.6328 24.6948 28.4688 25.4604 28.4688C26.6323 28.4688 27.5412 28.75 28.187 29.3125C28.8381 29.875 29.1636 30.6693 29.1636 31.6953C29.1636 32.2578 29.0177 32.8307 28.7261 33.4141C28.4344 33.9974 27.9344 34.6771 27.2261 35.4531L24.6401 38.1797H29.5308V40Z" fill="#FAA01E"/>
<path d="M24.1936 17.7421V0.806641H20.9678V17.7421L0.805664 25.0002V45.1607C0.805664 47.3881 2.61131 49.1937 4.83873 49.1937H40.3218C42.5492 49.1937 44.3549 47.3881 44.3549 45.1599L44.354 25.0002L24.1936 17.7421ZM28.2823 34.6212L27.8226 35.0808L28.0323 35.7099C28.1613 36.097 28.2258 36.5002 28.2258 36.9034C28.2258 38.0083 27.6049 39.0244 26.6129 39.5163L25.5887 39.0083L25.5 39.4357C25.1936 40.9841 24.0807 42.2421 22.5807 42.7421C21.8307 42.4921 21.1774 42.0486 20.6774 41.4841C20.1694 40.9115 19.8145 40.2099 19.6613 39.4357L19.5726 39.0083L18.5484 39.5163C17.5565 39.0244 16.9355 38.0083 16.9355 36.9034C16.9355 36.5002 17 36.097 17.1291 35.7099L17.3387 35.0808L16.8791 34.6212C16.3952 34.1373 16.1291 33.4921 16.1291 32.8147C16.1291 31.9599 16.5565 31.1695 17.2661 30.6937L17.8871 30.2824C18.0242 29.7421 18.2581 29.2341 18.5645 28.7744C19.0807 28.0083 19.8307 27.3873 20.7339 27.0244L21.7742 26.6131C21.7742 25.4357 22.1855 24.347 22.8871 23.4921C23.5887 22.6373 24.5807 22.0163 25.7258 21.7905L25.8065 21.7744L22.0758 22.0264L16.3803 25.2522C17.8157 25.8329 14.6988 34.6796 15.0698 36.1393L19.5726 42.2381C20.2823 42.7139 27.6202 43.097 27.6202 43.9518C27.6202 44.6292 28.7661 34.1373 28.2823 34.6212Z" fill="#FAE9D0"/>
<path d="M17.0967 40.8335H13.7959V30.3257L10.5537 31.2729V28.7729L16.7939 26.6147H17.0967V40.8335ZM31.3057 40.8335H21.3838V38.6851L25.9541 33.8804C27.0804 32.5978 27.6436 31.5789 27.6436 30.8237C27.6436 30.2118 27.5101 29.7463 27.2432 29.4272C26.9762 29.1082 26.5889 28.9487 26.0811 28.9487C25.5798 28.9487 25.1729 29.1636 24.8604 29.5933C24.5479 30.0164 24.3916 30.547 24.3916 31.1851H21.0908C21.0908 30.3127 21.3089 29.5086 21.7451 28.7729C22.1813 28.0308 22.7868 27.4513 23.5615 27.0347C24.3363 26.618 25.2021 26.4097 26.1592 26.4097C27.6956 26.4097 28.8773 26.7645 29.7041 27.4741C30.5374 28.1838 30.9541 29.2026 30.9541 30.5308C30.9541 31.0907 30.8499 31.6375 30.6416 32.1714C30.4333 32.6987 30.1077 33.2554 29.665 33.8413C29.2288 34.4207 28.5225 35.1987 27.5459 36.1753L25.71 38.2944H31.3057V40.8335Z" fill="white"/>
<path d="M45.1621 45.1597L45.1613 25C45.1613 24.6597 44.9476 24.3565 44.6282 24.2411L42.6403 23.5258C42.7032 22.6024 42.7427 21.671 42.7427 20.7444C42.7427 19.5661 41.9911 18.5234 40.8734 18.15C40.4782 18.0185 40.1903 17.6815 40.1218 17.2702L38.0452 4.81048C38.421 4.74113 38.7105 4.42742 38.7105 4.03226V2.41935C38.7105 1.08548 37.625 0 36.2911 0H31.4524C30.1185 0 29.0331 1.08548 29.0331 2.41935V4.03226C29.0331 4.42742 29.3226 4.74113 29.6984 4.81048L27.6218 17.271C27.575 17.5524 27.4258 17.7992 27.2073 17.9694L25.0008 17.175V0.806452C25.0008 0.36129 24.6403 0 24.1944 0H20.9685C20.5226 0 20.1621 0.36129 20.1621 0.806452V17.175L17.9556 17.9694C17.7371 17.7992 17.5879 17.5516 17.5411 17.2702L15.4645 4.81048C15.8403 4.74113 16.1298 4.42742 16.1298 4.03226V2.41935C16.1298 1.08548 15.0444 0 13.7105 0H8.87177C7.5379 0 6.45242 1.08548 6.45242 2.41935V4.03226C6.45242 4.42742 6.74194 4.74113 7.11774 4.81048L5.04113 17.271C4.97258 17.6823 4.68548 18.0194 4.28952 18.1508C3.17177 18.5234 2.42016 19.5661 2.42016 20.7444C2.42016 21.671 2.45968 22.6016 2.52258 23.525L0.533064 24.2411C0.21371 24.3565 0 24.6597 0 25V45.1605C0 47.829 2.17097 50 4.83952 50H40.3218C42.9911 50 45.1621 47.829 45.1621 45.1597ZM30.646 2.41935C30.646 1.975 31.0073 1.6129 31.4524 1.6129H36.2911C36.7363 1.6129 37.0976 1.975 37.0976 2.41935V3.22581H30.646V2.41935ZM29.2129 17.5363L31.329 4.83871H36.4145L38.5306 17.5363C38.6976 18.5379 39.3992 19.3597 40.3621 19.6806C40.8218 19.8331 41.1298 20.2613 41.1298 20.7444C41.1298 21.4815 41.1016 22.2202 41.0605 22.9565L28.8065 18.5452C29.0008 18.2403 29.1508 17.9056 29.2129 17.5363ZM8.06532 2.41935C8.06532 1.975 8.42661 1.6129 8.87177 1.6129H13.7105C14.1556 1.6129 14.5169 1.975 14.5169 2.41935V3.22581H8.06532V2.41935ZM4.03306 20.7444C4.03306 20.2605 4.34113 19.8331 4.8 19.6806C5.7629 19.3597 6.46452 18.5379 6.63145 17.5363L8.74839 4.83871H13.8339L15.95 17.5355C16.0113 17.9048 16.1621 18.2403 16.3565 18.5452L4.10242 22.9565C4.06129 22.2202 4.03306 21.4806 4.03306 20.7444ZM1.6129 25.5669L21.2419 18.5008C21.5613 18.3855 21.775 18.0823 21.775 17.7419V1.6129H23.3879V17.7419C23.3879 18.0823 23.6016 18.3855 23.921 18.5008L43.5484 25.5669L43.5492 45.1597V45.1613H1.6129V45.1605V25.5669ZM2.0621 46.7742H43.1C42.5403 47.7339 41.5113 48.3871 40.3218 48.3871H4.83952C3.65081 48.3871 2.62177 47.7339 2.0621 46.7742Z" fill="#FAA01E"/>
</svg>
