<svg width="114" height="95" viewBox="0 0 114 95" fill="none" xmlns="http://www.w3.org/2000/svg">
<path d="M91.5684 0H22.8285C19.6328 0.00168368 16.4749 0.640186 13.5682 1.87232C10.6615 3.10445 8.07387 4.90147 5.98035 7.14182C3.88682 9.38218 2.33623 12.0136 1.43346 14.8581C0.530685 17.7026 0.296785 20.6939 0.747581 23.6296L6.30345 59.7143C6.81031 62.9099 8.53493 65.8309 11.1644 67.9475C13.7938 70.064 17.1538 71.2357 20.6346 71.25H50.3957L52.8528 78.0866C43.9038 78.2953 16.9783 79.5065 16.9783 86.5179C16.9783 94.7608 53.0814 95 57.1984 95C61.3155 95 97.4186 94.7608 97.4186 86.5179C97.4186 79.5065 70.4967 78.2953 61.544 78.0866L64.0011 71.25H93.7622C97.2431 71.2357 100.603 70.064 103.232 67.9475C105.862 65.8309 107.587 62.9099 108.093 59.7143L113.649 23.6262C114.1 20.6908 113.865 17.6999 112.962 14.8558C112.059 12.0117 110.508 9.38068 108.415 7.14071C106.321 4.90074 103.734 3.10404 100.828 1.87211C97.9213 0.640181 94.7637 0.00175266 91.5684 0ZM93.722 86.5179C92.3765 88.4009 79.4438 91.6071 57.2039 91.6071C34.964 91.6071 22.0314 88.4009 20.6858 86.5179C21.8888 84.857 32.8341 81.7577 54.0704 81.4591L55.4708 85.3609C55.591 85.7003 55.8236 85.9958 56.1355 86.2053C56.4474 86.4148 56.8226 86.5276 57.2076 86.5276C57.5926 86.5276 57.9678 86.4148 58.2796 86.2053C58.5915 85.9958 58.8241 85.7003 58.9444 85.3609L60.3447 81.4591C81.5664 81.7577 92.5117 84.8587 93.7165 86.5179H93.722ZM110.033 23.1495L104.472 59.2376C104.093 61.6255 102.804 63.8083 100.839 65.3898C98.8742 66.9714 96.3633 67.8467 93.7622 67.8571H62.683C62.2995 67.8574 61.9257 67.9696 61.6147 68.1778C61.3036 68.3861 61.0711 68.6798 60.9499 69.0175L57.1984 79.4556L53.447 69.0175C53.3258 68.6798 53.0932 68.3861 52.7822 68.1778C52.4711 67.9696 52.0974 67.8574 51.7139 67.8571H20.6346C18.0335 67.8467 15.5226 66.9714 13.5576 65.3898C11.5927 63.8083 10.3038 61.6255 9.9251 59.2376L4.36374 23.1495C4.23922 22.3369 4.17812 21.5171 4.18092 20.6964C4.18769 16.1092 6.15451 11.7116 9.65014 8.4679C13.1458 5.22421 17.8849 3.39914 22.8285 3.39286H91.5684C96.512 3.39914 101.251 5.22421 104.747 8.4679C108.242 11.7116 110.209 16.1092 110.216 20.6964C110.219 21.5171 110.158 22.3369 110.033 23.1495Z" fill="#E79D2F"/>
<rect x="27.3887" y="16" width="8.7767" height="8" rx="1" stroke="#E79D2F" stroke-width="2"/>
<rect x="27.3887" y="32" width="8.7767" height="8" rx="1" stroke="#E79D2F" stroke-width="2"/>
<rect x="27.3887" y="48" width="8.7767" height="8" rx="1" stroke="#E79D2F" stroke-width="2"/>
<line x1="50.0193" y1="20" x2="90.0484" y2="20" stroke="#E79D2F" stroke-width="2" stroke-linecap="round"/>
<line x1="50.0193" y1="36" x2="90.0484" y2="36" stroke="#E79D2F" stroke-width="2" stroke-linecap="round"/>
<line x1="50.0193" y1="52" x2="90.0484" y2="52" stroke="#E79D2F" stroke-width="2" stroke-linecap="round"/>
<path d="M42.7577 9.53358C41.9286 9.15699 41.0039 9.88326 40.4618 10.3136C39.2183 11.3358 38.166 12.5194 36.9862 13.5953C35.6788 14.7789 34.4671 15.9624 33.1278 17.1191C32.3625 17.7647 31.5335 18.4641 31.0233 19.271C29.8754 18.3295 28.8869 17.3074 27.6114 16.4735C26.6867 15.8818 25.1561 15.4514 25.188 16.877C25.2518 18.7331 27.1969 20.7236 28.6318 21.9878C29.2376 22.5258 30.0348 23.0907 30.9595 23.1176C32.0756 23.1714 33.2235 22.0416 33.8931 21.4229C35.073 20.347 36.0296 19.1365 37.1137 18.0337C38.5167 16.5811 39.9516 15.1554 41.3228 13.676C42.1837 12.7614 44.8941 10.5019 42.7577 9.53358ZM26.591 16.7694C26.5591 16.7694 26.5272 16.7694 26.4634 16.7963C26.3359 16.7694 26.2402 16.7425 26.1127 16.6887C26.2083 16.6349 26.3678 16.6618 26.591 16.7694Z" fill="#E79D2F"/>
</svg>
