<svg width="97" height="90" viewBox="0 0 97 90" fill="none" xmlns="http://www.w3.org/2000/svg">
<path d="M96.5921 49.897L92.1067 15.2134V4.17188C92.1067 1.87178 90.0895 0 87.6108 0H9.68175C7.20301 0 5.18585 1.87178 5.18585 4.17188V15.2134L0.700432 49.897C0.692939 49.9513 0.689941 50.0069 0.689941 50.0625V84.8281C0.689941 87.1282 2.7071 89 5.18585 89H92.1067C94.5854 89 96.6026 87.1282 96.6026 84.8281V50.0625C96.6026 50.0069 96.5996 49.9513 96.5921 49.897ZM9.68175 2.78125H87.6108C88.4365 2.78125 89.1094 3.40564 89.1094 4.17188V13.9062H77.1203C76.2931 13.9062 75.6217 14.5293 75.6217 15.2969C75.6217 16.0645 76.2931 16.6875 77.1203 16.6875H89.2787L93.415 48.6719H92.1067V45.8906C92.1067 43.7143 90.9857 41.6339 89.1094 40.3281L86.0207 38.1796L84.8068 29.167C85.5396 29.0752 86.1121 28.5162 86.1121 27.8125C86.1121 27.3216 85.8229 26.9114 85.4093 26.6638L85.9548 25.6529C86.1331 25.3233 86.1616 24.9409 86.0357 24.5904L84.8787 21.3697C84.4696 20.2322 83.3262 19.4688 82.0343 19.4688H75.2021C73.9102 19.4688 72.7668 20.2322 72.3592 21.3697L71.2022 24.5904C71.0763 24.9409 71.1063 25.3219 71.2831 25.6529L71.8286 26.6638C71.415 26.9114 71.1258 27.3216 71.1258 27.8125C71.1258 28.5162 71.6982 29.0752 72.4296 29.167L71.2157 38.1796L68.1285 40.3281C66.2522 41.6339 65.1312 43.7143 65.1312 45.8906V48.6719H62.134V45.8906C62.134 43.7143 61.013 41.6339 59.1367 40.3281L56.048 38.1796L54.8341 29.167C55.5669 29.0752 56.1394 28.5162 56.1394 27.8125C56.1394 27.3216 55.8502 26.9114 55.4366 26.6638L55.9821 25.6529C56.1604 25.3233 56.1889 24.9409 56.063 24.5904L54.906 21.3697C54.4969 20.2322 53.3535 19.4688 52.0616 19.4688H45.2294C43.9375 19.4688 42.7941 20.2322 42.3865 21.3697L41.2295 24.5904C41.1036 24.9409 41.1336 25.3219 41.3104 25.6529L41.8559 26.6638C41.4423 26.9114 41.1531 27.3216 41.1531 27.8125C41.1531 28.5162 41.7256 29.0752 42.4569 29.167L41.243 38.1796L38.1558 40.3281C36.2795 41.6339 35.1585 43.7143 35.1585 45.8906V48.6719H32.1613V45.8906C32.1613 43.7143 31.0403 41.6339 29.164 40.3281L26.0753 38.1796L24.8614 29.167C25.5943 29.0752 26.1667 28.5162 26.1667 27.8125C26.1667 27.3216 25.8775 26.9114 25.4639 26.6638L26.0094 25.6529C26.1877 25.3233 26.2162 24.9409 26.0903 24.5904L24.9334 21.3697C24.5242 20.2322 23.3808 19.4688 22.0889 19.4688H15.2582C13.9663 19.4688 12.8229 20.2322 12.4153 21.3697L11.2583 24.5904C11.1324 24.9409 11.1624 25.3219 11.3392 25.6529L11.8847 26.6638C11.4696 26.9114 11.1804 27.3216 11.1804 27.8125C11.1804 28.5162 11.7529 29.0752 12.4842 29.167L11.2703 38.1796L8.18312 40.3281C6.30682 41.6339 5.18585 43.7143 5.18585 45.8906V48.6719H3.87754L8.01377 16.6875H20.1722C20.9994 16.6875 21.6708 16.0645 21.6708 15.2969C21.6708 14.5293 20.9994 13.9062 20.1722 13.9062H8.18312V4.17188C8.18312 3.40564 8.856 2.78125 9.68175 2.78125ZM73.014 40.4046C73.6615 39.954 74.0901 39.2685 74.1905 38.5245L75.4463 29.2031H81.7931L82.917 37.5469H78.6189C77.7917 37.5469 77.1203 38.1699 77.1203 38.9375C77.1203 39.7051 77.7917 40.3281 78.6189 40.3281H84.1339C84.1654 40.3518 84.1909 40.381 84.2223 40.4046L87.311 42.5531C88.4365 43.336 89.1094 44.5848 89.1094 45.8906V48.6719H68.1285V45.8906C68.1285 44.5848 68.8014 43.336 69.9269 42.5531L73.014 40.4046ZM43.0414 40.4046C43.6888 39.954 44.1174 39.2685 44.2178 38.5245L45.4736 29.2031H51.8204L52.9443 37.5469H48.6463C47.819 37.5469 47.1476 38.1699 47.1476 38.9375C47.1476 39.7051 47.819 40.3281 48.6463 40.3281H54.1612C54.1927 40.3518 54.2182 40.381 54.2496 40.4046L57.3383 42.5531C58.4638 43.336 59.1367 44.5848 59.1367 45.8906V48.6719H38.1558V45.8906C38.1558 44.5848 38.8287 43.336 39.9542 42.5531L43.0414 40.4046ZM13.0687 40.4046C13.7161 39.954 14.1447 39.2685 14.2451 38.5245L15.5009 29.2031H21.8477L22.9716 37.5469H18.6736C17.8463 37.5469 17.1749 38.1699 17.1749 38.9375C17.1749 39.7051 17.8463 40.3281 18.6736 40.3281H24.1885C24.22 40.3518 24.2455 40.381 24.277 40.4046L27.3656 42.5531C28.4911 43.336 29.164 44.5848 29.164 45.8906V48.6719H8.18312V45.8906C8.18312 44.5848 8.856 43.336 9.98148 42.5531L13.0687 40.4046ZM92.1067 86.2188H5.18585C4.3601 86.2188 3.68721 85.5944 3.68721 84.8281V51.4531H93.6053V84.8281C93.6053 85.5944 92.9324 86.2188 92.1067 86.2188Z" fill="#E79D2F"/>
<path d="M29.1647 16.6875H68.1293C69.7822 16.6875 71.1265 15.4401 71.1265 13.9062V8.34375C71.1265 6.80989 69.7822 5.5625 68.1293 5.5625H29.1647C27.5118 5.5625 26.1675 6.80989 26.1675 8.34375V13.9062C26.1675 15.4401 27.5118 16.6875 29.1647 16.6875ZM29.1647 8.34375H68.1293L68.1307 13.9062H29.1647V8.34375Z" fill="#E79D2F"/>
<ellipse cx="48.1076" cy="69" rx="22.6311" ry="21" fill="#E79D2F"/>
<path d="M60.4622 67.6126L46.4987 58.6722C45.5215 58.0018 44.0553 57.8228 42.7288 58.1805C41.4023 58.5381 40.5645 59.3429 40.5645 60.2369V78.1178C40.5645 79.0119 41.4023 79.8165 42.7288 80.174C43.1477 80.3082 43.6364 80.3529 44.0553 80.3529C44.963 80.3529 45.8706 80.1294 46.4987 79.6823L51.0371 76.7768L60.4622 70.7418C61.8588 69.8925 61.8588 68.462 60.4622 67.6126Z" fill="#F8F8F8"/>
</svg>
