<svg width="92" height="94" viewBox="0 0 92 94" fill="none" xmlns="http://www.w3.org/2000/svg">
<path d="M38.0465 7.34375C38.9206 7.34375 39.6293 6.68617 39.6293 5.875C39.6293 5.06383 38.9206 4.40625 38.0465 4.40625C37.1723 4.40625 36.4636 5.06383 36.4636 5.875C36.4636 6.68617 37.1723 7.34375 38.0465 7.34375Z" fill="#E79D2F"/>
<path d="M53.8748 7.34375C54.749 7.34375 55.4576 6.68617 55.4576 5.875C55.4576 5.06383 54.749 4.40625 53.8748 4.40625C53.0006 4.40625 52.292 5.06383 52.292 5.875C52.292 6.68617 53.0006 7.34375 53.8748 7.34375Z" fill="#E79D2F"/>
<path d="M38.0465 79.5654C38.9206 79.5654 39.6293 78.9078 39.6293 78.0967C39.6293 77.2855 38.9206 76.6279 38.0465 76.6279C37.1723 76.6279 36.4636 77.2855 36.4636 78.0967C36.4636 78.9078 37.1723 79.5654 38.0465 79.5654Z" fill="#E79D2F"/>
<path d="M53.8748 79.5654C54.749 79.5654 55.4576 78.9078 55.4576 78.0967C55.4576 77.2855 54.749 76.6279 53.8748 76.6279C53.0006 76.6279 52.292 77.2855 52.292 78.0967C52.292 78.9078 53.0006 79.5654 53.8748 79.5654Z" fill="#E79D2F"/>
<path d="M67.2261 12.4753C67.845 13.0496 68.8469 13.0496 69.4642 12.4753C70.0815 11.901 70.0831 10.9713 69.4642 10.3985C68.8454 9.8242 67.8434 9.8242 67.2261 10.3985C66.6072 10.9713 66.6072 11.901 67.2261 12.4753Z" fill="#E79D2F"/>
<path d="M78.4171 22.861C79.036 23.4353 80.0379 23.4353 80.6552 22.861C81.2741 22.2868 81.2741 21.357 80.6552 20.7842C80.0363 20.2099 79.0344 20.2099 78.4171 20.7842C77.7998 21.357 77.7998 22.2868 78.4171 22.861Z" fill="#E79D2F"/>
<path d="M14.4296 61.4668C13.8107 60.8926 12.8088 60.8926 12.1915 61.4668C11.5726 62.0411 11.5726 62.9708 12.1915 63.5437C12.8103 64.1179 13.8123 64.1179 14.4296 63.5437C15.0485 62.9694 15.0485 62.0397 14.4296 61.4668Z" fill="#E79D2F"/>
<path d="M25.6217 71.8526C25.0028 71.2783 24.0009 71.2783 23.3836 71.8526C22.7647 72.4269 22.7647 73.3566 23.3836 73.9294C24.0025 74.5037 25.0044 74.5037 25.6217 73.9294C26.2406 73.3551 26.2406 72.4254 25.6217 71.8526Z" fill="#E79D2F"/>
<path d="M80.6554 62.3262C80.0365 61.7519 79.0346 61.7519 78.4173 62.3262C77.7984 62.9005 77.7984 63.8302 78.4173 64.403C79.0362 64.9773 80.0381 64.9773 80.6554 64.403C81.2743 63.8302 81.2743 62.9005 80.6554 62.3262Z" fill="#E79D2F"/>
<path d="M67.2261 74.7888C67.845 75.3631 68.8469 75.3631 69.4642 74.7888C70.0815 74.2145 70.0831 73.2848 69.4642 72.712C68.8454 72.1377 67.8434 72.1377 67.2261 72.712C66.6072 73.2862 66.6072 74.216 67.2261 74.7888Z" fill="#E79D2F"/>
<path d="M23.3834 13.3347C24.0023 13.909 25.0042 13.909 25.6215 13.3347C26.2404 12.7604 26.2404 11.8307 25.6215 11.2579C25.0026 10.6836 24.0007 10.6836 23.3834 11.2579C22.7661 11.8307 22.7661 12.7619 23.3834 13.3347Z" fill="#E79D2F"/>
<path d="M12.1915 23.7204C12.8103 24.2947 13.8123 24.2947 14.4296 23.7204C15.0485 23.1461 15.0485 22.2164 14.4296 21.6436C13.8107 21.0693 12.8088 21.0693 12.1915 21.6436C11.5726 22.2179 11.5726 23.1476 12.1915 23.7204Z" fill="#E79D2F"/>
<path d="M85.5313 36.7188C86.4055 36.7188 87.1141 36.0612 87.1141 35.25C87.1141 34.4388 86.4055 33.7812 85.5313 33.7812C84.6571 33.7812 83.9485 34.4388 83.9485 35.25C83.9485 36.0612 84.6571 36.7188 85.5313 36.7188Z" fill="#E79D2F"/>
<path d="M85.5313 51.4062C86.4055 51.4062 87.1141 50.7487 87.1141 49.9375C87.1141 49.1263 86.4055 48.4688 85.5313 48.4688C84.6571 48.4688 83.9485 49.1263 83.9485 49.9375C83.9485 50.7487 84.6571 51.4062 85.5313 51.4062Z" fill="#E79D2F"/>
<path d="M7.7005 36.7188C8.57468 36.7188 9.28333 36.0612 9.28333 35.25C9.28333 34.4388 8.57468 33.7812 7.7005 33.7812C6.82633 33.7812 6.11768 34.4388 6.11768 35.25C6.11768 36.0612 6.82633 36.7188 7.7005 36.7188Z" fill="#E79D2F"/>
<path d="M7.7005 51.4062C8.57468 51.4062 9.28333 50.7487 9.28333 49.9375C9.28333 49.1263 8.57468 48.4688 7.7005 48.4688C6.82633 48.4688 6.11768 49.1263 6.11768 49.9375C6.11768 50.7487 6.82633 51.4062 7.7005 51.4062Z" fill="#E79D2F"/>
<path d="M86.8733 78.5341L81.0991 69.9595C87.8087 62.5526 91.8624 53.0057 91.8624 42.5938C91.8624 19.107 71.2698 0 45.9604 0C20.6509 0 0.0583496 19.107 0.0583496 42.5938C0.0583496 53.0057 4.11197 62.5526 10.8216 69.9595L5.04742 78.5341C4.87964 78.7823 4.79734 79.0702 4.80842 79.3624L5.23103 90.6395C5.10282 91.4458 5.33866 92.2595 5.89424 92.8999C6.49729 93.599 7.39792 94 8.36345 94H19.7392C20.844 94 21.884 93.4536 22.4538 92.5738C22.5582 92.4123 22.6279 92.2331 22.6611 92.0466L23.6425 86.2406L31.9555 83.1533C36.3732 84.4693 41.0773 85.1875 45.9604 85.1875C50.8434 85.1875 55.5475 84.4693 59.9668 83.1533L68.2798 86.2406L69.2612 92.0466C69.2944 92.2331 69.3625 92.4123 69.4685 92.5738C70.0367 93.4536 71.0767 94 72.1815 94H83.5573C84.5228 94 85.4234 93.599 86.0281 92.8999C86.5836 92.2581 86.8195 91.4458 86.6913 90.6395L87.1139 79.3624C87.1234 79.0702 87.0411 78.7823 86.8733 78.5341ZM16.9012 71.6353L21.3759 67.4832C24.1854 69.8743 27.4017 71.8571 30.9124 73.342L28.5461 78.794C24.2424 77.0051 20.3138 74.5773 16.9012 71.6353ZM12.721 42.5938C12.721 34.9974 15.7094 28.0458 20.6351 22.6643V62.5218C15.7094 57.1417 12.721 50.1901 12.721 42.5938ZM79.1997 42.5938C79.1997 50.1901 76.2114 57.1417 71.2856 62.5232V22.6643C76.2114 28.0458 79.1997 34.9974 79.1997 42.5938ZM70.5448 67.4832L75.0195 71.6353C71.8127 74.401 68.15 76.7158 64.147 78.4694L61.6652 73.0644C64.9226 71.6148 67.911 69.726 70.5448 67.4832ZM72.783 65.4064C75.3598 62.7993 77.495 59.8148 79.0969 56.5572L84.9739 58.7529C83.0444 62.7465 80.4296 66.3934 77.2592 69.5585L72.783 65.4064ZM80.2856 53.8341C81.46 50.7556 82.1675 47.4744 82.3258 44.0625H88.6571C88.4925 48.2484 87.6315 52.2713 86.1674 56.0313L80.2856 53.8341ZM82.3258 41.125C82.1565 37.4796 81.3619 33.9825 80.0386 30.7218L85.8634 28.4188C87.5064 32.3889 88.4799 36.6629 88.6555 41.1235H82.3258V41.125ZM78.7993 28.0193C77.2355 24.9981 75.1999 22.2251 72.7845 19.7811L77.2592 15.629C80.2397 18.6047 82.7342 22.0033 84.6241 25.7178L78.7993 28.0193ZM70.5448 17.7043C67.7353 15.3132 64.519 13.3304 61.0083 11.8455L63.3746 6.39347C67.6783 8.18388 71.6069 10.6103 75.0195 13.5522L70.5448 17.7043ZM58.0737 10.7424C54.7561 9.65263 51.2201 8.99609 47.5432 8.84922V2.97422C52.0542 3.12697 56.3896 3.92597 60.4416 5.28456L58.0737 10.7424ZM44.3775 8.84922C40.4489 9.00638 36.6802 9.74369 33.1679 10.9716L30.6861 5.56656C34.9645 4.042 39.5705 3.13872 44.3775 2.97569V8.84922ZM30.254 12.1216C26.9965 13.5727 24.0097 15.4615 21.3743 17.7043L16.8996 13.5522C20.1064 10.7865 23.7691 8.47175 27.7721 6.71806L30.254 12.1216ZM19.1378 19.7811C16.5609 22.3882 14.4257 25.3727 12.8239 28.6303L6.94682 26.4346C8.87628 22.441 11.4911 18.7941 14.6615 15.629L19.1378 19.7811ZM11.6352 31.3534C10.4607 34.4319 9.75317 37.7131 9.59489 41.125H3.26358C3.42819 36.9391 4.28925 32.9162 5.75336 29.1562L11.6352 31.3534ZM9.59489 44.0625C9.76425 47.7079 10.5588 51.205 11.8821 54.4657L6.05727 56.7672C4.41271 52.7972 3.44085 48.5246 3.26358 44.0625H9.59489ZM13.1214 57.1682C14.6853 60.1894 16.7208 62.9624 19.1362 65.4064L14.6615 69.5585C11.6811 66.5828 9.18652 63.1842 7.29662 59.4697L13.1214 57.1682ZM33.847 74.4451C37.1646 75.5349 40.7006 76.1914 44.3775 76.3383V82.2133C39.8665 82.0605 35.5311 81.2615 31.4791 79.9029L33.847 74.4451ZM47.5432 76.3383C51.4718 76.1811 55.2405 75.4438 58.7528 74.2159L61.2346 79.6209C56.9563 81.1455 52.3502 82.0488 47.5432 82.2118V76.3383Z" fill="#E79D2F"/>
<path d="M51.9838 30.3741L48.7794 33.0631L49.6525 36.975C49.702 37.1953 49.6115 37.4155 49.4136 37.5523C49.2026 37.6871 48.9286 37.6894 48.7465 37.5827L44.9818 35.6077L41.2173 37.5827C41.0029 37.6966 40.7477 37.6814 40.55 37.5523C40.3521 37.4155 40.2534 37.1953 40.3028 36.975L41.1843 33.0631L37.9798 30.3741C37.7986 30.2222 37.7326 29.9867 37.8068 29.774C37.8808 29.5614 38.0868 29.4094 38.3257 29.3866L42.634 28.9461L44.4134 25.3076C44.6194 24.8975 45.3442 24.8975 45.5421 25.3076L47.3296 28.9461L51.6297 29.3866C51.8768 29.4094 52.0745 29.5614 52.1485 29.774C52.231 29.9867 52.1568 30.2222 51.9838 30.3741Z" fill="#F8F8F8"/>
<path d="M63.0059 21.9419C61.5629 22.1638 60.3601 22.7166 59.4969 24.0004C59.3814 23.1421 59.2414 22.2913 59.052 21.4557C58.9943 21.1899 58.7388 21 58.4506 21H32.337C32.0406 21 31.7934 21.1899 31.7277 21.4557C31.5463 22.2989 31.398 23.1496 31.2828 23.9928C30.4463 22.7431 29.2387 22.1442 27.7571 21.9419C24.4162 21.5941 21.8082 24.7785 22.9709 27.8059C23.9744 30.5939 25.7072 33.7936 29.3386 37.749C31.0356 39.5872 34.4377 42.9446 38.1529 44.7753C39.2948 45.6172 38.6636 47.4186 37.1314 47.4186C36.6453 47.4186 36.2007 47.2287 35.904 46.9021C35.6898 46.659 35.2944 46.6287 35.0392 46.8262C34.7756 47.0312 34.7343 47.3883 34.9568 47.6313C35.4921 48.2238 36.2829 48.558 37.1314 48.558C39.0757 48.558 40.5337 46.7436 39.7594 44.9575C40.4018 45.6108 41.0278 46.2109 41.5964 46.735V52.3104H40.2453C39.9076 52.3104 39.6275 52.5611 39.6275 52.8801V56.6781H35.4346C35.1462 56.6781 34.9073 56.8528 34.8333 57.111L31.6947 68.5277C31.6452 68.6948 31.6864 68.8771 31.8017 69.0138C31.9252 69.1506 32.0983 69.2342 32.296 69.2342H58.4917C58.6811 69.2342 58.8625 69.1506 58.9778 69.0138C59.093 68.8771 59.1344 68.6948 59.093 68.5277L55.9546 57.111C55.8804 56.8528 55.6334 56.6781 55.3533 56.6781H51.1602V52.8801C51.1602 52.5611 50.8803 52.3104 50.5424 52.3104H49.1833V46.735C49.7599 46.2109 50.3859 45.6108 51.0285 44.9575C50.8968 45.2614 50.8143 45.588 50.8143 45.9222C50.8143 47.3807 52.0829 48.558 53.6563 48.558C54.5048 48.558 55.2956 48.2238 55.8309 47.6313C56.0453 47.3883 56.0123 47.0312 55.7487 46.8262C55.485 46.6287 55.0979 46.659 54.8754 46.9021C54.5788 47.2287 54.1341 47.4186 53.6563 47.4186C52.7665 47.4186 52.05 46.7502 52.05 45.9222C52.05 45.4741 52.2641 45.0487 52.6348 44.7753C56.35 42.9446 59.7438 39.5872 61.4491 37.749C66.6184 32.1184 67.5298 28.3554 67.8168 27.8059C68.9545 24.8435 66.4547 21.5904 63.0059 21.9419ZM30.2776 37.0122C25.1794 31.4524 24.4085 27.9231 24.1323 27.4261C23.2876 25.241 25.1379 22.8186 27.6088 23.0737C30.6492 23.404 31.7789 26.7408 29.7093 28.6491C29.4703 28.877 29.4703 29.234 29.7093 29.4543C29.9482 29.6821 30.3436 29.6821 30.5825 29.4543C30.7637 29.2871 30.9204 29.1125 31.0686 28.9226C31.5382 34.6954 35.1215 39.9214 38.5238 43.6511C35.072 41.8888 31.8924 38.7517 30.2776 37.0122ZM51.669 65.2899H39.1154C38.7743 65.2899 38.4976 65.0347 38.4976 64.7202C38.4976 64.4057 38.7743 64.1505 39.1154 64.1505H51.669C52.0101 64.1505 52.2869 64.4057 52.2869 64.7202C52.2869 65.0347 52.0101 65.2899 51.669 65.2899ZM51.669 60.6248C52.0101 60.6248 52.2869 60.8799 52.2869 61.1944C52.2869 61.509 52.0101 61.7641 51.669 61.7641H39.1154C38.7743 61.7641 38.4976 61.509 38.4976 61.1944C38.4976 60.8799 38.7743 60.6248 39.1154 60.6248H51.669ZM49.9246 53.4498V56.6781H40.8631V53.4498H49.9246ZM46.6872 47.3503C45.9869 47.9351 44.8008 47.9351 44.1007 47.3578C38.002 42.1783 31.9868 34.8542 32.2465 27.183C32.296 25.512 32.502 23.8181 32.8479 22.1394H57.9398C58.2777 23.7649 58.4752 25.4664 58.5329 27.1907C58.7889 34.7433 52.7952 42.2702 46.6872 47.3503ZM66.6471 27.4261C66.3575 27.951 65.5778 31.5147 60.5018 37.0046C58.8955 38.7517 55.7157 41.8888 52.2641 43.6511C55.6497 39.9291 59.2332 34.7106 59.7108 28.9529C59.9582 29.3327 60.2299 29.6745 60.5183 29.9404C60.757 30.1607 61.1524 30.1607 61.3913 29.9404C61.6303 29.7201 61.6303 29.3555 61.3913 29.1352C60.5511 28.3605 59.8263 26.7653 60.1227 25.5424C60.4332 24.3101 61.5778 23.2566 63.1626 23.0737C65.6393 22.8218 67.5007 25.2192 66.6471 27.4261Z" fill="#F8F8F8"/>
</svg>
