<svg width="104" height="94" viewBox="0 0 104 94" fill="none" xmlns="http://www.w3.org/2000/svg">
<path d="M49.1715 20.2474C50.5495 16.2024 50.3276 13.3571 48.501 11.5815C46.1566 9.3076 42.1849 9.93277 40.5143 10.3282C37.7357 8.92116 35.2772 8.64065 33.2013 9.49112C29.9339 10.834 29.1155 14.4731 29.0849 14.6238C28.8486 15.6951 28.3276 16.5426 27.5268 17.2275L7.81978 14.4791C7.3985 14.4254 6.97078 14.5179 6.62668 14.7551C6.28258 14.9924 6.05586 15.343 5.98993 15.7339L2.04562 40.0933C1.59861 42.8566 2.33666 45.6155 4.1247 47.8625L4.77271 48.6772C6.05103 50.2826 6.58005 52.2552 6.26007 54.2306L2.67272 76.3908C2.61323 76.7533 2.5055 77.107 2.35596 77.4442L0.728711 81.0669C-0.229629 83.2006 -0.0736574 85.5789 1.1516 87.5947C2.37686 89.6119 4.49293 90.9652 6.95631 91.3084L25.6552 93.9165C26.0604 93.9718 26.464 94.0001 26.8644 94.0001C28.9065 94.0001 30.8649 93.2824 32.3796 91.95C34.1886 90.358 35.0906 88.1244 34.8511 85.8236L34.4426 81.9233C34.4073 81.5578 34.4153 81.1878 34.4748 80.8282L38.0637 58.6651C38.3821 56.6911 39.5109 54.9513 41.2427 53.7651L42.1222 53.1623C44.5422 51.5032 46.1212 49.0666 46.5714 46.3033L50.5157 21.9424C50.6444 21.1307 50.043 20.3742 49.1715 20.2474ZM32.2333 15.2206C32.2381 15.1968 32.7736 12.9214 34.5166 12.2156C36.0329 11.6024 38.0493 12.4215 39.4787 13.2153C39.8807 13.4376 40.3712 13.4854 40.8117 13.3526C41.8151 13.0467 44.949 12.4469 46.1791 13.645C46.7515 14.2046 47.3995 15.7608 45.9363 19.7938L31.1881 17.7378C31.6705 16.9828 32.0307 16.1502 32.2333 15.2206ZM35.483 34.3176C35.483 35.1382 34.7594 35.8096 33.875 35.8096C32.9907 35.8096 32.2671 35.1382 32.2671 34.3176C32.2671 33.4969 32.9907 32.8255 33.875 32.8255C34.7594 32.8255 35.483 33.4969 35.483 34.3176ZM30.6591 41.0319C30.6591 42.2703 29.5818 43.2699 28.2472 43.2699C26.9126 43.2699 25.8353 42.2703 25.8353 41.0319C25.8353 39.7934 26.9126 38.7938 28.2472 38.7938C29.5818 38.7938 30.6591 39.7934 30.6591 41.0319ZM25.8353 52.2223C25.8353 53.043 25.1117 53.7144 24.2273 53.7144C23.3429 53.7144 22.6194 53.043 22.6194 52.2223C22.6194 51.4017 23.3429 50.7303 24.2273 50.7303C25.1117 50.7303 25.8353 51.4017 25.8353 52.2223ZM20.2074 67.143C18.8728 67.143 17.7955 66.1433 17.7955 64.9049C17.7955 63.6665 18.8728 62.6668 20.2074 62.6668C21.542 62.6668 22.6194 63.6665 22.6194 64.9049C22.6194 66.1433 21.542 67.143 20.2074 67.143ZM21.0114 76.0953C21.0114 76.916 20.2878 77.5874 19.4035 77.5874C18.5191 77.5874 17.7955 76.916 17.7955 76.0953C17.7955 75.2747 18.5191 74.6033 19.4035 74.6033C20.2878 74.6033 21.0114 75.2747 21.0114 76.0953ZM16.1876 44.762C15.3032 44.762 14.5796 44.0906 14.5796 43.2699C14.5796 42.4493 15.3032 41.7779 16.1876 41.7779C17.0719 41.7779 17.7955 42.4493 17.7955 43.2699C17.7955 44.0906 17.0719 44.762 16.1876 44.762ZM40.421 24.0119C30.0497 24.8176 24.9798 29.5415 23.4137 31.3409C18.0705 31.4439 14.9559 32.5539 12.8414 33.67L14.3979 24.0537C15.5974 23.515 17.5109 23.2092 19.5257 22.8899C22.5036 22.4199 25.8385 21.8782 28.3791 20.3638L40.7313 22.0856L40.421 24.0119ZM43.3877 45.8572C43.0677 47.8327 41.9389 49.5739 40.2088 50.7601L39.3308 51.3614C36.9076 53.0221 35.3286 55.4571 34.88 58.2204L31.2911 80.385C31.1946 80.9848 31.1785 81.5966 31.2412 82.2068L31.6496 86.1086C31.7927 87.4887 31.2509 88.8271 30.1639 89.7835C29.0785 90.7414 27.6072 91.1726 26.1311 90.9638L7.43387 88.3571C5.95777 88.1512 4.68749 87.338 3.95265 86.1295C3.21621 84.9194 3.12295 83.4915 3.69699 82.2143L5.32424 78.5931C5.57669 78.032 5.75517 77.4412 5.85325 76.8354L9.4422 54.6723C9.8876 51.909 9.14956 49.1517 7.36151 46.9046L6.71351 46.0899C5.43519 44.483 4.90778 42.512 5.22776 40.535L8.93248 17.6512L12.1114 18.0944L8.40507 40.9841C8.21694 42.1539 8.54175 43.3699 9.29749 44.3159L9.9471 45.1335C12.2465 48.0207 13.1968 51.5658 12.6195 55.1169L9.03218 77.28C8.8955 78.1231 8.64627 78.9526 8.29091 79.7434L7.4596 81.5891C7.0753 82.4426 7.1364 83.396 7.62682 84.2032C8.11725 85.0104 8.96303 85.552 9.95031 85.6908L24.5714 87.729C24.7338 87.7513 24.8946 87.7618 25.057 87.7618C25.8739 87.7618 26.6569 87.4753 27.2615 86.9426C27.9851 86.304 28.3453 85.4118 28.2488 84.4867L28.0398 82.4873C27.9513 81.6428 27.9755 80.7849 28.1121 79.9419L31.7011 57.7758C32.2751 54.2262 34.3076 51.0943 37.4206 48.9607L38.2969 48.3609C39.3228 47.6566 40.0174 46.5823 40.2071 45.4126L43.9135 22.5273L47.0924 22.9704L43.3877 45.8572Z" fill="#E79D2F"/>
<path d="M102.396 81.0653L100.769 77.4441C100.617 77.1069 100.511 76.7533 100.453 76.3922L96.8645 54.2291C96.5445 52.2551 97.0735 50.2811 98.3518 48.6756L98.9998 47.8609C100.788 45.6139 101.526 42.8551 101.079 40.0918L97.1346 15.7323C97.0703 15.3399 96.842 14.9893 96.4979 14.7535C96.1554 14.5193 95.7276 14.4253 95.3048 14.4775L75.5977 17.2244C74.8002 16.547 74.2776 15.698 74.0412 14.6252C74.009 14.473 73.1906 10.8339 69.9216 9.49103C67.8458 8.64055 65.3872 8.91957 62.6087 10.3281C60.9396 9.93119 56.9664 9.30602 54.622 11.5814C52.7953 13.357 52.5734 16.2023 53.9515 20.2473C53.0799 20.3741 52.4786 21.1306 52.6104 21.9408L56.5547 46.3032C57.0033 49.065 58.584 51.5001 61.0055 53.1622L61.8835 53.7635C63.6136 54.9497 64.7424 56.6895 65.0624 58.6635L68.6513 80.8236C68.7092 81.1862 68.7189 81.5562 68.6835 81.9188L68.2751 85.8235C68.0371 88.1228 68.9376 90.3564 70.7465 91.9484C72.2596 93.2823 74.2197 94 76.2602 94C76.6606 94 77.0658 93.9717 77.4694 93.9165L96.1682 91.3083C98.6316 90.9652 100.749 89.6104 101.973 87.5946C103.198 85.5788 103.354 83.2005 102.396 81.0653ZM88.5449 43.2699C88.5449 44.0905 87.8214 44.7619 86.937 44.7619C86.0526 44.7619 85.329 44.0905 85.329 43.2699C85.329 42.4492 86.0526 41.7778 86.937 41.7778C87.8214 41.7778 88.5449 42.4492 88.5449 43.2699ZM82.9171 67.1429C81.5825 67.1429 80.5052 66.1432 80.5052 64.9048C80.5052 63.6664 81.5825 62.6667 82.9171 62.6667C84.2517 62.6667 85.329 63.6664 85.329 64.9048C85.329 66.1432 84.2517 67.1429 82.9171 67.1429ZM85.329 76.0953C85.329 76.9159 84.6054 77.5873 83.7211 77.5873C82.8367 77.5873 82.1131 76.9159 82.1131 76.0953C82.1131 75.2746 82.8367 74.6032 83.7211 74.6032C84.6054 74.6032 85.329 75.2746 85.329 76.0953ZM78.8972 50.7302C79.7816 50.7302 80.5052 51.4016 80.5052 52.2222C80.5052 53.0429 79.7816 53.7143 78.8972 53.7143C78.0128 53.7143 77.2893 53.0429 77.2893 52.2222C77.2893 51.4016 78.0128 50.7302 78.8972 50.7302ZM74.8773 43.2699C73.5427 43.2699 72.4654 42.2702 72.4654 41.0318C72.4654 39.7933 73.5427 38.7937 74.8773 38.7937C76.2119 38.7937 77.2893 39.7933 77.2893 41.0318C77.2893 42.2702 76.2119 43.2699 74.8773 43.2699ZM70.8575 34.3175C70.8575 35.1381 70.1339 35.8095 69.2495 35.8095C68.3651 35.8095 67.6416 35.1381 67.6416 34.3175C67.6416 33.4968 68.3651 32.8254 69.2495 32.8254C70.1339 32.8254 70.8575 33.4968 70.8575 34.3175ZM79.7108 31.3408C78.1431 29.5414 73.0732 24.8175 62.7035 24.0118L62.3916 22.0855L74.7455 20.3637C77.2973 21.8796 80.6242 22.4198 83.5973 22.8898C85.612 23.2091 87.5255 23.5149 88.725 24.0536L90.2815 33.6699C88.1671 32.5539 85.0541 31.4438 79.7108 31.3408ZM56.9455 13.6464C58.1771 12.4468 61.311 13.0511 62.3096 13.3525C62.7502 13.4927 63.2422 13.442 63.6458 13.2167C65.0737 12.4229 67.0916 11.6023 68.6079 12.217C70.351 12.9228 70.8864 15.1982 70.8912 15.2191C71.0954 16.1501 71.4556 16.9857 71.9364 17.7392L57.1883 19.7952C55.7234 15.7607 56.3714 14.206 56.9455 13.6464ZM99.1719 86.1294C98.4371 87.3394 97.1668 88.1511 95.6907 88.357L76.9918 90.9652C75.5189 91.174 74.046 90.7413 72.9591 89.7849C71.8721 88.8285 71.3302 87.4901 71.4733 86.1115L71.8817 82.2053C71.9444 81.5995 71.9267 80.9877 71.8319 80.3834L68.2429 58.2203C67.7959 55.457 66.2153 53.0235 63.7921 51.3613L62.9158 50.7615C61.1856 49.5738 60.0568 47.8326 59.7353 45.8586L56.0289 22.9718L59.2078 22.5287L62.9142 45.414C63.1039 46.5822 63.8002 47.658 64.826 48.3638L65.6991 48.9621C68.8138 51.0972 70.8446 54.2276 71.4202 57.7772L75.0092 79.9433C75.1459 80.7863 75.17 81.6442 75.0815 82.4887L74.8725 84.4896C74.776 85.4117 75.1362 86.3054 75.8598 86.944C76.4644 87.4752 77.2475 87.7632 78.0643 87.7632C78.2267 87.7632 78.3875 87.7513 78.5499 87.7304L93.171 85.6922C94.1583 85.5534 95.0057 85.0118 95.4945 84.2046C95.9833 83.3974 96.046 82.444 95.6617 81.5905L94.8304 79.7478C94.4751 78.954 94.2258 78.1245 94.0892 77.2814L90.505 55.1168C89.9294 51.5642 90.8781 48.0191 93.179 45.132L93.8254 44.3173C94.5828 43.3683 94.9076 42.1538 94.7195 40.984L91.0131 18.0958L94.1921 17.6526L97.8968 40.5364C98.2168 42.5119 97.6894 44.4844 96.411 46.0914L95.763 46.906C93.975 49.1531 93.2369 51.9104 93.6823 54.6737L97.2729 76.8368C97.371 77.4396 97.5479 78.032 97.8003 78.593L99.4276 82.2127C100.002 83.4914 99.9083 84.9193 99.1719 86.1294Z" fill="#E79D2F"/>
<path d="M53.171 4.47619V1.49206C53.171 0.666952 52.4522 0 51.563 0C50.6738 0 49.9551 0.666952 49.9551 1.49206V4.47619C49.9551 5.3013 50.6738 5.96825 51.563 5.96825C52.4522 5.96825 53.171 5.3013 53.171 4.47619Z" fill="#E79D2F"/>
<path d="M24.6982 8.51485C25.0117 8.8058 25.4234 8.95202 25.835 8.95202C26.2466 8.95202 26.6583 8.8058 26.9718 8.51485C27.6005 7.93145 27.6005 6.98847 26.9718 6.40507L23.7559 3.42095C23.1272 2.83755 22.111 2.83755 21.4823 3.42095C20.8536 4.00434 20.8536 4.94733 21.4823 5.53072L24.6982 8.51485Z" fill="#E79D2F"/>
<path d="M35.6517 5.14355C35.9347 5.66727 36.5023 5.96867 37.0924 5.96867C37.3336 5.96867 37.5796 5.91793 37.8096 5.812C38.6039 5.44346 38.9255 4.54673 38.5283 3.80965L36.9204 0.825522C36.5216 0.088443 35.5552 -0.206986 34.7625 0.15857C33.9682 0.52711 33.6466 1.42384 34.0437 2.16092L35.6517 5.14355Z" fill="#E79D2F"/>
<path d="M77.29 8.95202C77.7016 8.95202 78.1133 8.8058 78.4268 8.51485L81.6427 5.53072C82.2714 4.94733 82.2714 4.00434 81.6427 3.42095C81.014 2.83755 79.9978 2.83755 79.3691 3.42095L76.1532 6.40507C75.5245 6.98847 75.5245 7.93145 76.1532 8.51485C76.4667 8.8058 76.8784 8.95202 77.29 8.95202Z" fill="#E79D2F"/>
<path d="M65.3149 5.81154C65.5449 5.91747 65.7909 5.9682 66.0321 5.9682C66.6222 5.9682 67.1898 5.66681 67.4728 5.14309L69.0808 2.15897C69.4779 1.42189 69.1563 0.525156 68.362 0.156617C67.5677 -0.208939 66.6029 0.0864899 66.2041 0.823569L64.5962 3.8077C64.1974 4.54627 64.5206 5.44151 65.3149 5.81154Z" fill="#E79D2F"/>
<path d="M59.5829 63.5336C58.7538 63.157 57.8291 63.8833 57.287 64.3136C56.0435 65.3358 54.9912 66.5194 53.8113 67.5953C52.504 68.7789 51.2923 69.9624 49.953 71.1191C49.1877 71.7647 48.3587 72.4641 47.8485 73.271C46.7006 72.3295 45.7121 71.3074 44.4366 70.4735C43.5119 69.8818 41.9813 69.4514 42.0132 70.877C42.077 72.7331 44.0221 74.7236 45.457 75.9878C46.0628 76.5258 46.86 77.0907 47.7847 77.1176C48.9008 77.1714 50.0487 76.0416 50.7183 75.4229C51.8982 74.347 52.8548 73.1365 53.9389 72.0337C55.3419 70.5811 56.7768 69.1554 58.148 67.676C59.0089 66.7614 61.7193 64.5019 59.5829 63.5336ZM43.4162 70.7694C43.3843 70.7694 43.3524 70.7694 43.2886 70.7963C43.1611 70.7694 43.0654 70.7425 42.9379 70.6887C43.0335 70.6349 43.193 70.6618 43.4162 70.7694Z" fill="#E79D2F"/>
</svg>
