<svg width="100" height="100" viewBox="0 0 100 100" fill="none" xmlns="http://www.w3.org/2000/svg">
<circle cx="50" cy="50" r="50" fill="#828282"/>
<path d="M40.276 51.684C46.9 51.684 50.896 47.004 50.896 38.724C50.896 30.588 47.116 26.556 40.6 26.556C33.976 26.556 30.088 31.128 30.088 39.156C30.088 47.004 33.616 51.684 40.276 51.684ZM40.528 48.12C36.856 48.12 35.272 44.844 35.272 38.868C35.272 33.216 37.144 30.084 40.348 30.084C43.984 30.084 45.712 33.252 45.712 39.012C45.712 44.916 43.732 48.12 40.528 48.12ZM63.037 36.312L68.401 27.348V27.276H59.869C57.493 27.276 56.089 27.24 54.577 27.06L53.317 33L53.389 33.036C54.505 31.74 55.945 31.272 58.249 31.272H61.741L56.701 39.66V39.732C57.493 39.66 58.105 39.66 58.753 39.66C62.065 39.66 64.405 40.848 64.405 43.728C64.405 46.464 62.389 48.012 59.941 48.012C56.413 48.012 54.613 47.256 53.317 45.204L53.245 45.24L53.929 50.244C55.873 51.216 58.069 51.576 60.301 51.576C65.521 51.576 69.409 48.264 69.409 43.368C69.409 39.696 66.925 37.14 63.037 36.312Z" fill="white"/>
<path d="M27.0645 68.249C27.0645 69.2288 26.8913 70.0879 26.5449 70.8262C26.1986 71.5645 25.7018 72.1341 25.0547 72.5352C24.4121 72.9362 23.6738 73.1367 22.8398 73.1367C22.015 73.1367 21.279 72.9385 20.6318 72.542C19.9847 72.1455 19.4834 71.5804 19.1279 70.8467C18.7725 70.1084 18.5924 69.2607 18.5879 68.3037V67.8115C18.5879 66.8317 18.7633 65.9704 19.1143 65.2275C19.4697 64.4801 19.9688 63.9082 20.6113 63.5117C21.2585 63.1107 21.9967 62.9102 22.8262 62.9102C23.6556 62.9102 24.3916 63.1107 25.0342 63.5117C25.6813 63.9082 26.1803 64.4801 26.5312 65.2275C26.8867 65.9704 27.0645 66.8294 27.0645 67.8047V68.249ZM24.9863 67.7979C24.9863 66.7542 24.7995 65.9613 24.4258 65.4189C24.0521 64.8766 23.5189 64.6055 22.8262 64.6055C22.138 64.6055 21.6071 64.8743 21.2334 65.4121C20.8597 65.9453 20.6706 66.7292 20.666 67.7637V68.249C20.666 69.2653 20.8529 70.0537 21.2266 70.6143C21.6003 71.1748 22.138 71.4551 22.8398 71.4551C23.528 71.4551 24.0566 71.1862 24.4258 70.6484C24.7949 70.1061 24.9818 69.3177 24.9863 68.2832V67.7979ZM34.8574 73H32.875V67.2031H30.4004V73H28.4248V65.6035H34.8574V73ZM38.4805 67.7705H39.8955C40.5335 67.7705 41.0941 67.8776 41.5771 68.0918C42.0602 68.306 42.4294 68.6136 42.6846 69.0146C42.9443 69.4111 43.0742 69.8737 43.0742 70.4023C43.0742 71.1816 42.7848 71.8105 42.2061 72.2891C41.6318 72.763 40.848 73 39.8545 73H36.498V65.6035H38.4805V67.7705ZM46.2188 73H44.2432V65.6035H46.2188V73ZM38.4805 69.3564V71.4209H39.8818C40.2738 71.4209 40.5745 71.3298 40.7842 71.1475C40.9938 70.9652 41.0986 70.7168 41.0986 70.4023C41.0986 70.0833 40.9961 69.8304 40.791 69.6436C40.5859 69.4521 40.2829 69.3564 39.8818 69.3564H38.4805ZM54.1006 67.1895H51.7285V73H49.7461V67.1895H47.415V65.6035H54.1006V67.1895ZM61.5107 73H59.5283V70.1562H57.0742V73H55.0986V65.6035H57.0742V68.5703H59.5283V65.6035H61.5107V73ZM65.1543 67.7705H66.5693C67.2074 67.7705 67.7679 67.8776 68.251 68.0918C68.734 68.306 69.1032 68.6136 69.3584 69.0146C69.6182 69.4111 69.748 69.8737 69.748 70.4023C69.748 71.1816 69.4587 71.8105 68.8799 72.2891C68.3057 72.763 67.5218 73 66.5283 73H63.1719V65.6035H65.1543V67.7705ZM72.8926 73H70.917V65.6035H72.8926V73ZM65.1543 69.3564V71.4209H66.5557C66.9476 71.4209 67.2484 71.3298 67.458 71.1475C67.6676 70.9652 67.7725 70.7168 67.7725 70.4023C67.7725 70.0833 67.6699 69.8304 67.4648 69.6436C67.2598 69.4521 66.9567 69.3564 66.5557 69.3564H65.1543ZM79.0928 65.6035H81.0684V73H79.0928V68.4336L76.6182 73H74.6357V65.6035H76.6182V70.1631L79.0928 65.6035ZM80.2549 62.6025C80.2549 63.2087 80.0361 63.6986 79.5986 64.0723C79.1657 64.446 78.596 64.6328 77.8896 64.6328C77.1833 64.6328 76.6113 64.4482 76.1738 64.0791C75.7409 63.71 75.5244 63.2178 75.5244 62.6025H76.9258C76.9258 62.8896 77.0101 63.113 77.1787 63.2725C77.3519 63.4274 77.5889 63.5049 77.8896 63.5049C78.1859 63.5049 78.4183 63.4274 78.5869 63.2725C78.7555 63.113 78.8398 62.8896 78.8398 62.6025H80.2549Z" fill="white"/>
</svg>
