<svg width="100" height="100" viewBox="0 0 100 100" fill="none" xmlns="http://www.w3.org/2000/svg">
<circle cx="50" cy="50" r="50" fill="#828282"/>
<path d="M41.276 51.684C47.9 51.684 51.896 47.004 51.896 38.724C51.896 30.588 48.116 26.556 41.6 26.556C34.976 26.556 31.088 31.128 31.088 39.156C31.088 47.004 34.616 51.684 41.276 51.684ZM41.528 48.12C37.856 48.12 36.272 44.844 36.272 38.868C36.272 33.216 38.144 30.084 41.348 30.084C44.984 30.084 46.712 33.252 46.712 39.012C46.712 44.916 44.732 48.12 41.528 48.12ZM70.5119 44.628C68.8919 46.428 67.5239 47.004 65.4719 47.004H60.7919L64.1399 43.224C68.2799 38.58 69.1439 36.6 69.1439 33.828C69.1439 29.652 66.1199 26.7 61.5479 26.7C59.3879 26.7 57.5519 27.06 55.6079 27.852L54.5639 33.36L54.6359 33.396C56.3639 30.984 58.3079 30.48 60.1799 30.48C62.3399 30.48 64.1759 31.704 64.1399 34.512C64.1039 36.636 62.8799 38.508 59.8559 42.36L53.1599 50.892V51H64.0679C66.6239 51 67.9559 51.036 69.4319 51.216L70.5839 44.664L70.5119 44.628Z" fill="white"/>
<path d="M30.7021 69.6846C30.6247 70.7555 30.2282 71.5986 29.5127 72.2139C28.8018 72.8291 27.863 73.1367 26.6963 73.1367C25.4202 73.1367 24.4154 72.7083 23.6816 71.8516C22.9525 70.9902 22.5879 69.8099 22.5879 68.3105V67.7021C22.5879 66.7451 22.7565 65.902 23.0938 65.1729C23.431 64.4437 23.9118 63.8854 24.5361 63.498C25.165 63.1061 25.8942 62.9102 26.7236 62.9102C27.8721 62.9102 28.7972 63.2178 29.499 63.833C30.2008 64.4482 30.6064 65.3118 30.7158 66.4238H28.665C28.6149 65.7812 28.4349 65.3164 28.125 65.0293C27.8197 64.7376 27.3525 64.5918 26.7236 64.5918C26.04 64.5918 25.5273 64.8379 25.1855 65.3301C24.8483 65.8177 24.6751 66.5765 24.666 67.6064V68.3584C24.666 69.4339 24.8278 70.2201 25.1514 70.7168C25.4795 71.2135 25.9945 71.4619 26.6963 71.4619C27.3298 71.4619 27.8014 71.3184 28.1113 71.0312C28.4258 70.7396 28.6058 70.2907 28.6514 69.6846H30.7021ZM38.5771 69.3701C38.5771 70.5094 38.3174 71.4232 37.7979 72.1113C37.2829 72.7949 36.5856 73.1367 35.7061 73.1367C34.9587 73.1367 34.3548 72.877 33.8945 72.3574V75.8438H31.9189V65.6035H33.751L33.8193 66.3281C34.2979 65.7539 34.9222 65.4668 35.6924 65.4668C36.6038 65.4668 37.3125 65.804 37.8184 66.4785C38.3242 67.153 38.5771 68.0827 38.5771 69.2676V69.3701ZM36.6016 69.2266C36.6016 68.5384 36.4785 68.0075 36.2324 67.6338C35.9909 67.2601 35.6377 67.0732 35.1729 67.0732C34.5531 67.0732 34.127 67.3102 33.8945 67.7842V70.8125C34.1361 71.3001 34.5667 71.5439 35.1865 71.5439C36.1299 71.5439 36.6016 70.7715 36.6016 69.2266ZM43.2119 73.1367C42.1273 73.1367 41.2432 72.804 40.5596 72.1387C39.8805 71.4733 39.541 70.5869 39.541 69.4795V69.2881C39.541 68.5452 39.6846 67.8822 39.9717 67.2988C40.2588 66.7109 40.6644 66.2598 41.1885 65.9453C41.7171 65.6263 42.3187 65.4668 42.9932 65.4668C44.0049 65.4668 44.8001 65.7858 45.3789 66.4238C45.9622 67.0618 46.2539 67.9665 46.2539 69.1377V69.9443H41.5439C41.6077 70.4274 41.7992 70.8148 42.1182 71.1064C42.4417 71.3981 42.8496 71.5439 43.3418 71.5439C44.1029 71.5439 44.6976 71.2682 45.126 70.7168L46.0967 71.8037C45.8005 72.223 45.3994 72.5511 44.8936 72.7881C44.3877 73.0205 43.8271 73.1367 43.2119 73.1367ZM42.9863 67.0664C42.5944 67.0664 42.2754 67.1986 42.0293 67.4629C41.7878 67.7272 41.6328 68.1055 41.5645 68.5977H44.3125V68.4404C44.3034 68.0029 44.1849 67.6657 43.957 67.4287C43.7292 67.1872 43.4056 67.0664 42.9863 67.0664ZM47.4844 71.4072C47.931 70.9333 48.234 70.4639 48.3936 69.999C48.5531 69.5342 48.6419 68.8757 48.6602 68.0234L48.7148 65.6035H54.1562V71.4072H55.2227V75.2217H53.2471V73H48.8652V75.2217H46.8486V71.4072H47.4844ZM49.8154 71.4072H52.1875V67.2373H50.6494L50.6357 68.126C50.5947 69.484 50.3213 70.5778 49.8154 71.4072ZM62.5166 73H60.5342V70.1562H58.0801V73H56.1045V65.6035H58.0801V68.5703H60.5342V65.6035H62.5166V73ZM68.5049 65.6035H70.4805V73H68.5049V68.4336L66.0303 73H64.0479V65.6035H66.0303V70.1631L68.5049 65.6035ZM76.4482 65.6035H78.4238V73H76.4482V68.4336L73.9736 73H71.9912V65.6035H73.9736V70.1631L76.4482 65.6035ZM77.6104 62.6025C77.6104 63.2087 77.3916 63.6986 76.9541 64.0723C76.5212 64.446 75.9515 64.6328 75.2451 64.6328C74.5387 64.6328 73.9668 64.4482 73.5293 64.0791C73.0964 63.71 72.8799 63.2178 72.8799 62.6025H74.2812C74.2812 62.8896 74.3656 63.113 74.5342 63.2725C74.7074 63.4274 74.9443 63.5049 75.2451 63.5049C75.5413 63.5049 75.7738 63.4274 75.9424 63.2725C76.111 63.113 76.1953 62.8896 76.1953 62.6025H77.6104Z" fill="white"/>
</svg>
