<svg width="194" height="225" viewBox="0 0 194 225" fill="none" xmlns="http://www.w3.org/2000/svg">
<circle cx="97" cy="97" r="96.5" stroke="#828282" stroke-dasharray="4 4"/>
<path d="M112 51.833V71.4997C115.877 70.7024 118.662 67.2915 118.667 63.333V59.9997C118.662 56.0411 115.877 52.6303 112 51.833Z" fill="#828282"/>
<path d="M97 33.3335C80.4315 33.3335 67 46.765 67 63.3335C67 79.902 80.4315 93.3335 97 93.3335C113.569 93.3335 127 79.902 127 63.3335C126.981 46.7729 113.561 33.3529 97 33.3335ZM112 74.8668V76.9518C114.604 77.8708 115.97 80.7268 115.051 83.3308C114.345 85.3308 112.454 86.6679 110.333 86.6668H82C79.2385 86.6683 76.9988 84.431 76.9973 81.6695C76.9963 79.5485 78.3333 77.6577 80.3333 76.9518V46.6668C80.3388 42.0668 84.0667 38.3389 88.6667 38.3335C89.7458 38.3358 90.8138 38.5504 91.81 38.9652C95.5808 35.6204 101.349 35.966 104.694 39.7368C105.994 41.2027 106.788 43.0481 106.958 45.0002H110.333C111.254 45.0002 112 45.7464 112 46.6668V48.4668C117.735 49.2945 121.993 54.2058 122 60.0002V63.3335C121.993 69.1279 117.735 74.0391 112 74.8668Z" fill="#828282"/>
<path d="M126.167 79.5556L126.143 79.4673C124.802 81.8648 123.171 84.0881 121.287 86.0873H121.382C123.525 85.9823 125.955 85.864 126.66 84.894C127.365 83.924 126.727 81.6123 126.167 79.5556Z" fill="#828282"/>
<path d="M103.388 96.0363L103.507 96.1146C105.267 97.263 107.272 98.5613 108.333 98.2146C109.5 97.8346 110.372 95.538 111.138 93.513L111.157 93.4663C108.684 94.6424 106.074 95.5057 103.388 96.0363Z" fill="#828282"/>
<path d="M82.8501 93.4663L82.8668 93.5113C83.6268 95.538 84.5001 97.833 85.6668 98.2146C86.7451 98.5646 88.7351 97.2613 90.5001 96.1146L90.6184 96.0363C87.9322 95.5057 85.3228 94.6424 82.8501 93.4663Z" fill="#828282"/>
<path d="M97.0823 40.0576C95.6506 40.2501 94.3427 40.9718 93.4165 42.0803C92.8844 42.7066 91.9752 42.8516 91.2748 42.422C90.4936 41.9301 89.5896 41.6685 88.6665 41.667C86.5552 41.6758 84.6769 43.0097 83.9731 45.0003H90.3331C91.2536 45.0003 91.9998 45.7466 91.9998 46.667V56.667C91.9998 57.5874 92.7461 58.3337 93.6665 58.3337C94.5869 58.3337 95.3331 57.5874 95.3331 56.667C95.3331 55.7466 96.0794 55.0003 96.9998 55.0003C97.9202 55.0003 98.6665 55.7466 98.6665 56.667V61.667C98.6665 62.5874 99.4127 63.3337 100.333 63.3337C101.254 63.3337 102 62.5874 102 61.667V46.667C102.008 45.7845 102.702 45.0612 103.583 45.017C103.158 41.8524 100.247 39.632 97.0823 40.0576Z" fill="#828282"/>
<path d="M109.363 101.385C106.777 102.218 104.197 100.538 101.687 98.9084C100.323 97.8032 98.7168 97.0351 97.0002 96.6667C95.2835 97.0351 93.6777 97.8032 92.3135 98.9084C90.5179 100.367 88.3545 101.301 86.0618 101.608C85.5781 101.61 85.097 101.535 84.6368 101.385C82.4218 100.667 81.2752 98.5334 80.3335 96.2067V120.06L96.0202 108.652C96.6045 108.227 97.3958 108.227 97.9802 108.652L113.667 120.06V96.2051C112.725 98.5317 111.578 100.667 109.363 101.385Z" fill="#828282"/>
<path d="M67.85 79.4619L67.8333 79.5553C67.2783 81.6119 66.65 83.9402 67.3333 84.8886C68.0166 85.8369 70.47 85.9786 72.6133 86.0836H72.7066C70.822 84.0842 69.1908 81.8602 67.85 79.4619Z" fill="#828282"/>
<path d="M126.672 41.7784C125.989 40.8301 123.535 40.6884 121.392 40.5834L121.292 40.5801C123.177 42.5795 124.808 44.8034 126.149 47.2017L126.172 47.1117C126.727 45.0551 127.355 42.7267 126.672 41.7784Z" fill="#828282"/>
<path d="M111.14 33.155C110.373 31.1283 109.5 28.8333 108.333 28.4517C107.258 28.1083 105.265 29.405 103.5 30.5517L103.381 30.63C106.07 31.1602 108.682 32.0235 111.156 33.2L111.14 33.155Z" fill="#828282"/>
<path d="M90.5001 30.552C89.2038 29.508 87.6901 28.7676 86.0701 28.3853C85.9357 28.3843 85.8018 28.4038 85.6734 28.4436C84.5068 28.8236 83.6351 31.1203 82.8684 33.1453L82.8501 33.192C85.3228 32.0159 87.9322 31.1526 90.6184 30.622L90.5001 30.552Z" fill="#828282"/>
<path d="M63.9585 59.1484C62.2552 60.5151 60.3335 62.0601 60.3335 63.3334C60.3335 64.6068 62.2552 66.1518 63.9585 67.5168C63.7735 66.1299 63.676 64.7326 63.6668 63.3334C63.6762 61.9336 63.7735 60.5359 63.9585 59.1484Z" fill="#828282"/>
<path d="M72.6184 40.5801C70.4751 40.6851 68.0451 40.8034 67.3401 41.7734C66.6351 42.7434 67.2734 45.0551 67.8334 47.1117L67.8567 47.2001C69.198 44.8026 70.8292 42.5792 72.7134 40.5801H72.6184Z" fill="#828282"/>
<path d="M130.042 59.1504C130.227 60.5373 130.324 61.9346 130.333 63.3337C130.324 64.7335 130.227 66.1312 130.042 67.5187C131.745 66.1521 133.667 64.6071 133.667 63.3337C133.667 62.0604 131.745 60.5154 130.042 59.1504Z" fill="#828282"/>
<path d="M143.667 28.3333V25H140.333V28.3333H137V31.6667H140.333V35H143.667V31.6667H147V28.3333H143.667Z" fill="#828282"/>
<path d="M147 44.9995H143.667V48.3328H147V44.9995Z" fill="#828282"/>
<path d="M130.333 31.6665H127V34.9998H130.333V31.6665Z" fill="#828282"/>
<path d="M132 53.3328H135.333C135.333 50.5714 137.572 48.3328 140.333 48.3328V44.9995C135.733 45.0049 132.005 48.7328 132 53.3328Z" fill="#828282"/>
<path d="M53.6667 28.3333V25H50.3333V28.3333H47V31.6667H50.3333V35H53.6667V31.6667H57V28.3333H53.6667Z" fill="#828282"/>
<path d="M50.3333 94.9995H47V98.3328H50.3333V94.9995Z" fill="#828282"/>
<path d="M58.667 90C58.667 92.7615 56.4285 95 53.667 95V98.3333C58.267 98.3279 61.9949 94.6 62.0003 90H58.667Z" fill="#828282"/>
<path d="M135.334 118.333V115H132V118.333H128.667V121.667H132V125H135.334V121.667H138.667V118.333H135.334Z" fill="#828282"/>
<path d="M138.667 101.667H135.333V105H138.667V101.667Z" fill="#828282"/>
<path d="M127 96.6665H123.667C123.672 101.267 127.4 104.994 132 105V101.667C129.238 101.667 127 99.428 127 96.6665Z" fill="#828282"/>
<path d="M67.0002 106.667V103.333H63.6668V106.667H60.3335V110H63.6668V113.333H67.0002V110H70.3335V106.667H67.0002Z" fill="#828282"/>
<path d="M50.3333 44.9995H47V48.3328H50.3333V44.9995Z" fill="#828282"/>
<path d="M53.667 44.9995V48.3328C56.4285 48.3328 58.667 50.5714 58.667 53.3328H62.0003C61.9949 48.7328 58.267 45.0049 53.667 44.9995Z" fill="#828282"/>
<path d="M53.6668 61.667H50.3335V65.0003H53.6668V61.667Z" fill="#828282"/>
<path d="M137 85H133.667V88.3333H137V85Z" fill="#828282"/>
<path d="M110.333 79.9997C109.413 79.9997 108.667 79.2534 108.667 78.333V48.333H105.333V61.6663C105.333 64.4278 103.095 66.6663 100.333 66.6663C97.572 66.6663 95.3335 64.4278 95.3335 61.6663V61.3813C92.73 62.3018 89.8733 60.9374 88.9529 58.3341C88.7635 57.7984 88.6668 57.2345 88.6668 56.6663V48.333H83.6668V78.333C83.6668 79.2534 82.9206 79.9997 82.0002 79.9997C81.0797 79.9997 80.3335 80.7459 80.3335 81.6663C80.3335 82.5868 81.0797 83.333 82.0002 83.333H110.333C111.254 83.333 112 82.5868 112 81.6663C112 80.7459 111.254 79.9997 110.333 79.9997Z" fill="#828282"/>
<circle cx="99" cy="175" r="50" fill="#828282"/>
<path d="M89.276 176.684C95.9 176.684 99.896 172.004 99.896 163.724C99.896 155.588 96.116 151.556 89.6 151.556C82.976 151.556 79.088 156.128 79.088 164.156C79.088 172.004 82.616 176.684 89.276 176.684ZM89.528 173.12C85.856 173.12 84.272 169.844 84.272 163.868C84.272 158.216 86.144 155.084 89.348 155.084C92.984 155.084 94.712 158.252 94.712 164.012C94.712 169.916 92.732 173.12 89.528 173.12ZM112.037 161.312L117.401 152.348V152.276H108.869C106.493 152.276 105.089 152.24 103.577 152.06L102.317 158L102.389 158.036C103.505 156.74 104.945 156.272 107.249 156.272H110.741L105.701 164.66V164.732C106.493 164.66 107.105 164.66 107.753 164.66C111.065 164.66 113.405 165.848 113.405 168.728C113.405 171.464 111.389 173.012 108.941 173.012C105.413 173.012 103.613 172.256 102.317 170.204L102.245 170.24L102.929 175.244C104.873 176.216 107.069 176.576 109.301 176.576C114.521 176.576 118.409 173.264 118.409 168.368C118.409 164.696 115.925 162.14 112.037 161.312Z" fill="white"/>
<path d="M76.0645 193.249C76.0645 194.229 75.8913 195.088 75.5449 195.826C75.1986 196.564 74.7018 197.134 74.0547 197.535C73.4121 197.936 72.6738 198.137 71.8398 198.137C71.015 198.137 70.279 197.938 69.6318 197.542C68.9847 197.146 68.4834 196.58 68.1279 195.847C67.7725 195.108 67.5924 194.261 67.5879 193.304V192.812C67.5879 191.832 67.7633 190.97 68.1143 190.228C68.4697 189.48 68.9688 188.908 69.6113 188.512C70.2585 188.111 70.9967 187.91 71.8262 187.91C72.6556 187.91 73.3916 188.111 74.0342 188.512C74.6813 188.908 75.1803 189.48 75.5312 190.228C75.8867 190.97 76.0645 191.829 76.0645 192.805V193.249ZM73.9863 192.798C73.9863 191.754 73.7995 190.961 73.4258 190.419C73.0521 189.877 72.5189 189.605 71.8262 189.605C71.138 189.605 70.6071 189.874 70.2334 190.412C69.8597 190.945 69.6706 191.729 69.666 192.764V193.249C69.666 194.265 69.8529 195.054 70.2266 195.614C70.6003 196.175 71.138 196.455 71.8398 196.455C72.528 196.455 73.0566 196.186 73.4258 195.648C73.7949 195.106 73.9818 194.318 73.9863 193.283V192.798ZM83.8574 198H81.875V192.203H79.4004V198H77.4248V190.604H83.8574V198ZM87.4805 192.771H88.8955C89.5335 192.771 90.0941 192.878 90.5771 193.092C91.0602 193.306 91.4294 193.614 91.6846 194.015C91.9443 194.411 92.0742 194.874 92.0742 195.402C92.0742 196.182 91.7848 196.811 91.2061 197.289C90.6318 197.763 89.848 198 88.8545 198H85.498V190.604H87.4805V192.771ZM95.2188 198H93.2432V190.604H95.2188V198ZM87.4805 194.356V196.421H88.8818C89.2738 196.421 89.5745 196.33 89.7842 196.147C89.9938 195.965 90.0986 195.717 90.0986 195.402C90.0986 195.083 89.9961 194.83 89.791 194.644C89.5859 194.452 89.2829 194.356 88.8818 194.356H87.4805ZM103.101 192.189H100.729V198H98.7461V192.189H96.415V190.604H103.101V192.189ZM110.511 198H108.528V195.156H106.074V198H104.099V190.604H106.074V193.57H108.528V190.604H110.511V198ZM114.154 192.771H115.569C116.207 192.771 116.768 192.878 117.251 193.092C117.734 193.306 118.103 193.614 118.358 194.015C118.618 194.411 118.748 194.874 118.748 195.402C118.748 196.182 118.459 196.811 117.88 197.289C117.306 197.763 116.522 198 115.528 198H112.172V190.604H114.154V192.771ZM121.893 198H119.917V190.604H121.893V198ZM114.154 194.356V196.421H115.556C115.948 196.421 116.248 196.33 116.458 196.147C116.668 195.965 116.772 195.717 116.772 195.402C116.772 195.083 116.67 194.83 116.465 194.644C116.26 194.452 115.957 194.356 115.556 194.356H114.154ZM128.093 190.604H130.068V198H128.093V193.434L125.618 198H123.636V190.604H125.618V195.163L128.093 190.604ZM129.255 187.603C129.255 188.209 129.036 188.699 128.599 189.072C128.166 189.446 127.596 189.633 126.89 189.633C126.183 189.633 125.611 189.448 125.174 189.079C124.741 188.71 124.524 188.218 124.524 187.603H125.926C125.926 187.89 126.01 188.113 126.179 188.272C126.352 188.427 126.589 188.505 126.89 188.505C127.186 188.505 127.418 188.427 127.587 188.272C127.756 188.113 127.84 187.89 127.84 187.603H129.255Z" fill="white"/>
</svg>
