<svg width="194" height="225" viewBox="0 0 194 225" fill="none" xmlns="http://www.w3.org/2000/svg">
<circle cx="97" cy="97" r="96.5" stroke="#828282" stroke-dasharray="4 4"/>
<circle cx="96" cy="175" r="50" fill="#828282"/>
<path d="M87.276 176.684C93.9 176.684 97.896 172.004 97.896 163.724C97.896 155.588 94.116 151.556 87.6 151.556C80.976 151.556 77.088 156.128 77.088 164.156C77.088 172.004 80.616 176.684 87.276 176.684ZM87.528 173.12C83.856 173.12 82.272 169.844 82.272 163.868C82.272 158.216 84.144 155.084 87.348 155.084C90.984 155.084 92.712 158.252 92.712 164.012C92.712 169.916 90.732 173.12 87.528 173.12ZM110.292 170.636V157.676C110.292 154.76 111.3 152.96 112.128 152.348L112.092 152.276H107.268C104.712 152.276 103.38 152.24 102.408 152.06L101.076 158.036L101.148 158.072C102.48 156.812 103.704 156.344 105.54 156.272V170.6C105.54 173.516 104.532 175.316 103.704 175.928L103.74 176H112.092L112.128 175.928C111.3 175.316 110.292 173.552 110.292 170.636Z" fill="white"/>
<path d="M75.9893 198H73.9385V193.734H69.9395V198H67.8887V188.047H69.9395V192.08H73.9385V188.047H75.9893V198ZM77.3496 194.233C77.3496 193.5 77.4909 192.846 77.7734 192.271C78.056 191.697 78.4616 191.253 78.9902 190.938C79.5234 190.624 80.141 190.467 80.8428 190.467C81.8408 190.467 82.6543 190.772 83.2832 191.383C83.9167 191.993 84.2699 192.823 84.3428 193.871L84.3564 194.377C84.3564 195.512 84.0397 196.423 83.4062 197.111C82.7728 197.795 81.9229 198.137 80.8564 198.137C79.79 198.137 78.9378 197.795 78.2998 197.111C77.6663 196.428 77.3496 195.498 77.3496 194.322V194.233ZM79.3252 194.377C79.3252 195.079 79.4574 195.617 79.7217 195.99C79.986 196.359 80.3643 196.544 80.8564 196.544C81.335 196.544 81.7087 196.362 81.9775 195.997C82.2464 195.628 82.3809 195.04 82.3809 194.233C82.3809 193.545 82.2464 193.012 81.9775 192.634C81.7087 192.256 81.3304 192.066 80.8428 192.066C80.3597 192.066 79.986 192.256 79.7217 192.634C79.4574 193.007 79.3252 193.589 79.3252 194.377ZM85.7031 198V190.604H88.793C89.8001 190.604 90.5726 190.781 91.1104 191.137C91.6481 191.492 91.917 192.003 91.917 192.668C91.917 193.01 91.8031 193.317 91.5752 193.591C91.3519 193.86 91.0238 194.067 90.5908 194.213C91.1195 194.313 91.5342 194.511 91.835 194.808C92.1403 195.099 92.293 195.459 92.293 195.888C92.293 196.576 92.0332 197.1 91.5137 197.46C90.9987 197.82 90.249 198 89.2646 198H85.7031ZM87.6787 194.931V196.421H89.2715C89.9688 196.421 90.3174 196.177 90.3174 195.689C90.3174 195.193 89.9847 194.94 89.3193 194.931H87.6787ZM87.6787 193.604H88.9023C89.5951 193.595 89.9414 193.372 89.9414 192.935C89.9414 192.666 89.8457 192.474 89.6543 192.36C89.4674 192.246 89.1803 192.189 88.793 192.189H87.6787V193.604ZM97.96 190.604H99.9355V198H97.96V193.434L95.4854 198H93.5029V190.604H95.4854V195.163L97.96 190.604ZM107.681 198H105.705V195.676C105.336 195.744 104.992 195.778 104.673 195.778C103.556 195.778 102.715 195.541 102.15 195.067C101.585 194.593 101.298 193.901 101.289 192.989V190.604H103.265V192.989C103.269 193.418 103.374 193.725 103.579 193.912C103.784 194.094 104.149 194.186 104.673 194.186C105.001 194.186 105.345 194.147 105.705 194.069V190.604H107.681V198ZM108.891 194.233C108.891 193.5 109.032 192.846 109.314 192.271C109.597 191.697 110.003 191.253 110.531 190.938C111.064 190.624 111.682 190.467 112.384 190.467C113.382 190.467 114.195 190.772 114.824 191.383C115.458 191.993 115.811 192.823 115.884 193.871L115.897 194.377C115.897 195.512 115.581 196.423 114.947 197.111C114.314 197.795 113.464 198.137 112.397 198.137C111.331 198.137 110.479 197.795 109.841 197.111C109.207 196.428 108.891 195.498 108.891 194.322V194.233ZM110.866 194.377C110.866 195.079 110.998 195.617 111.263 195.99C111.527 196.359 111.905 196.544 112.397 196.544C112.876 196.544 113.25 196.362 113.519 195.997C113.787 195.628 113.922 195.04 113.922 194.233C113.922 193.545 113.787 193.012 113.519 192.634C113.25 192.256 112.871 192.066 112.384 192.066C111.901 192.066 111.527 192.256 111.263 192.634C110.998 193.007 110.866 193.589 110.866 194.377ZM120.013 195.272H119.22V198H117.244V190.604H119.22V193.386H119.924L121.537 190.604H124.032L121.612 194.124L124.258 198H121.626L120.013 195.272Z" fill="white"/>
<path d="M101.969 61.3715C101.657 60.4544 102.147 59.4577 103.064 59.1452L116.629 54.5295C114.462 50.7716 109.943 49.0677 105.834 50.4593C103.86 51.1231 102.178 52.453 101.076 54.2207C100.692 54.8343 99.9701 55.1485 99.2589 55.0119C96.6453 54.5062 93.9936 55.6843 92.6168 57.9628C92.289 58.511 91.6866 58.8351 91.0484 58.8066C90.268 58.7718 89.4879 58.8829 88.7484 59.1347C86.0678 60.0573 84.3208 62.6419 84.4643 65.4733L87.673 64.382C88.5895 64.0708 89.5851 64.5608 89.8976 65.4768L91.6519 70.6083C91.9892 71.839 93.2603 72.5633 94.491 72.2261C95.7216 71.8888 96.446 70.6177 96.1087 69.387C96.0841 69.2969 96.0539 69.2085 96.0186 69.1221C95.6955 68.2085 96.1745 67.2064 97.0879 66.8833C98.0015 66.5603 99.0036 67.0392 99.3267 67.9526C99.331 67.9651 99.3354 67.9778 99.3396 67.9906L100.217 70.5555C100.628 71.7638 101.94 72.41 103.148 71.9993C104.357 71.5886 105.003 70.2761 104.592 69.0677L101.969 61.3715Z" fill="#828282"/>
<path d="M80.9817 66.2067L67.6538 63.8242L67.3257 65.7014L81.3923 68.1575C81.189 67.5229 81.0515 66.8694 80.9817 66.2067Z" fill="#828282"/>
<path d="M83.7538 57.6894C82.3922 56.1127 80.5249 55.0583 78.4714 54.707C74.1949 53.9662 69.9912 56.351 68.4329 60.4017L81.2398 62.6946C81.7146 60.8817 82.692 59.2396 84.0591 57.9578C83.9472 57.8804 83.8448 57.7905 83.7538 57.6894Z" fill="#828282"/>
<path d="M94.894 118.101C94.4352 118.021 94.0269 117.763 93.7589 117.382C93.4914 117.001 93.3859 116.53 93.4659 116.071L94.8957 107.898L82.6713 71.9452L66.7258 69.1558L59.5539 110.14C59.3872 111.094 58.4785 111.732 57.5241 111.566C57.0074 111.457 56.5002 111.787 56.391 112.304C56.2818 112.821 56.6122 113.328 57.1289 113.437C57.1506 113.442 57.1723 113.445 57.1943 113.448L94.5624 119.985C95.0828 120.077 95.5789 119.729 95.6703 119.209C95.7617 118.689 95.4142 118.192 94.894 118.101ZM65.1995 112.505L71.2678 77.8013L74.7257 78.4066L68.6573 113.108L65.1995 112.505ZM74.5485 114.131L80.6187 79.4276L84.0748 80.0399L78.0064 114.736L74.5485 114.131ZM87.3519 116.359L83.8993 115.789L87.3028 95.1521L90.7537 95.724L87.3519 116.359Z" fill="#828282"/>
<path d="M117.932 57.7943L105.861 61.9014L106.476 63.7101L118.547 59.603L117.932 57.7943Z" fill="#828282"/>
<path d="M136.457 103.979C136.276 103.521 135.776 103.274 135.302 103.41C134.385 103.721 133.39 103.231 133.078 102.314L119.674 62.9263L107.601 67.035L107.91 67.9385C108.944 70.9813 107.316 74.2867 104.273 75.3214C102.813 75.8181 101.215 75.7143 99.8304 75.0332C99.1956 74.7214 98.6228 74.2968 98.1392 73.7806C96.0131 76.1518 92.3673 76.3507 89.9961 74.2247C89.6882 73.9488 89.411 73.6404 89.1691 73.3051L87.0779 74.0157L100.476 113.403C100.788 114.32 100.298 115.317 99.3804 115.629C99.3802 115.629 99.3798 115.629 99.3795 115.629C98.8795 115.8 98.6129 116.344 98.7839 116.844C98.955 117.344 99.4988 117.611 99.9988 117.44L135.917 105.219C136.408 105.026 136.65 104.471 136.457 103.979ZM106.573 112.763L95.2256 79.4104L98.5467 78.2788L109.894 111.631L106.573 112.763ZM115.552 109.707L104.205 76.356L107.526 75.2244L118.873 108.577L115.552 109.707ZM124.531 106.652L113.187 73.2999L116.506 72.1701L127.852 105.522L124.531 106.652Z" fill="#828282"/>
<path d="M87.1422 68.2669L85.3335 68.8823L85.9489 70.691L87.7576 70.0756L87.1422 68.2669Z" fill="#828282"/>
<path d="M112.496 30.5262C115.402 30.5262 117.759 28.1699 117.759 25.2631C117.759 22.3564 115.402 20 112.496 20C109.589 20 107.232 22.3564 107.232 25.2631C107.232 28.1699 109.589 30.5262 112.496 30.5262Z" fill="#828282"/>
<path d="M96.7062 46.3157C101.551 46.3157 105.478 42.3884 105.478 37.5438C105.478 32.6993 101.551 28.772 96.7062 28.772C91.8616 28.772 87.9343 32.6993 87.9343 37.5438C87.9343 42.3884 91.8616 46.3157 96.7062 46.3157Z" fill="#828282"/>
<path d="M72.1449 46.3158C76.0206 46.3158 79.1624 43.1739 79.1624 39.2983C79.1624 35.4226 76.0206 32.2808 72.1449 32.2808C68.2693 32.2808 65.1274 35.4226 65.1274 39.2983C65.1274 43.1739 68.2693 46.3158 72.1449 46.3158Z" fill="#828282"/>
<path d="M61.6188 30.5262C64.5256 30.5262 66.882 28.1699 66.882 25.2631C66.882 22.3564 64.5256 20 61.6188 20C58.7121 20 56.3557 22.3564 56.3557 25.2631C56.3557 28.1699 58.7121 30.5262 61.6188 30.5262Z" fill="#828282"/>
<path d="M58.9294 64.154C54.986 63.4628 51.2288 66.0992 50.5375 70.0426C50.5371 70.0445 50.5369 70.0467 50.5364 70.0487L46.1084 95.4082C45.4229 99.3531 48.0597 103.108 52.0031 103.803L57.8136 104.819L58.4434 101.208L53.9698 100.424C51.2818 99.9553 49.4829 97.3963 49.9516 94.7084C49.9518 94.7071 49.952 94.706 49.9522 94.7047L53.9189 72.0154C54.1432 70.723 54.8737 69.5739 55.9487 68.8224C57.0162 68.0641 58.3441 67.7674 59.6329 67.9996L64.1065 68.782L64.7363 65.1698L58.9294 64.154Z" fill="#828282"/>
<path d="M144.088 85.6852L135.797 61.3117C135.339 59.9615 134.491 58.7769 133.362 57.9065C131.438 56.4192 128.896 55.9969 126.594 56.7819L121.01 58.6819L122.192 62.1521L126.492 60.6889C129.075 59.8196 131.875 61.199 132.76 63.7766L140.18 85.5835C141.059 88.1675 139.677 90.9751 137.094 91.8554L132.792 93.3185L133.973 96.7869L139.557 94.8887C143.345 93.5937 145.372 89.4775 144.088 85.6852Z" fill="#828282"/>
</svg>
