<svg width="112" height="112" viewBox="0 0 112 112" fill="none" xmlns="http://www.w3.org/2000/svg">
<circle cx="55.9999" cy="55.9998" r="50" transform="rotate(173.641 55.9999 55.9998)" fill="#FAA01E"/>
<path d="M47.276 57.684C53.9 57.684 57.896 53.004 57.896 44.724C57.896 36.588 54.116 32.556 47.6 32.556C40.976 32.556 37.088 37.128 37.088 45.156C37.088 53.004 40.616 57.684 47.276 57.684ZM47.528 54.12C43.856 54.12 42.272 50.844 42.272 44.868C42.272 39.216 44.144 36.084 47.348 36.084C50.984 36.084 52.712 39.252 52.712 45.012C52.712 50.916 50.732 54.12 47.528 54.12ZM70.2921 51.636V38.676C70.2921 35.76 71.3001 33.96 72.1281 33.348L72.0921 33.276H67.2681C64.7121 33.276 63.3801 33.24 62.4081 33.06L61.0761 39.036L61.1481 39.072C62.4801 37.812 63.7041 37.344 65.5401 37.272V51.6C65.5401 54.516 64.5321 56.316 63.7041 56.928L63.7401 57H72.0921L72.1281 56.928C71.3001 56.316 70.2921 54.552 70.2921 51.636Z" fill="white"/>
<path d="M35.9893 79H33.9385V74.7344H29.9395V79H27.8887V69.0469H29.9395V73.0801H33.9385V69.0469H35.9893V79ZM37.3496 75.2334C37.3496 74.4997 37.4909 73.8457 37.7734 73.2715C38.056 72.6973 38.4616 72.2529 38.9902 71.9385C39.5234 71.624 40.141 71.4668 40.8428 71.4668C41.8408 71.4668 42.6543 71.7721 43.2832 72.3828C43.9167 72.9935 44.2699 73.8229 44.3428 74.8711L44.3564 75.377C44.3564 76.5117 44.0397 77.4232 43.4062 78.1113C42.7728 78.7949 41.9229 79.1367 40.8564 79.1367C39.79 79.1367 38.9378 78.7949 38.2998 78.1113C37.6663 77.4277 37.3496 76.498 37.3496 75.3223V75.2334ZM39.3252 75.377C39.3252 76.0788 39.4574 76.6165 39.7217 76.9902C39.986 77.3594 40.3643 77.5439 40.8564 77.5439C41.335 77.5439 41.7087 77.3617 41.9775 76.9971C42.2464 76.6279 42.3809 76.04 42.3809 75.2334C42.3809 74.5452 42.2464 74.012 41.9775 73.6338C41.7087 73.2555 41.3304 73.0664 40.8428 73.0664C40.3597 73.0664 39.986 73.2555 39.7217 73.6338C39.4574 74.0075 39.3252 74.5885 39.3252 75.377ZM45.7031 79V71.6035H48.793C49.8001 71.6035 50.5726 71.7812 51.1104 72.1367C51.6481 72.4922 51.917 73.0026 51.917 73.668C51.917 74.0098 51.8031 74.3174 51.5752 74.5908C51.3519 74.8597 51.0238 75.0671 50.5908 75.2129C51.1195 75.3132 51.5342 75.5114 51.835 75.8076C52.1403 76.0993 52.293 76.4593 52.293 76.8877C52.293 77.5758 52.0332 78.0999 51.5137 78.46C50.9987 78.82 50.249 79 49.2646 79H45.7031ZM47.6787 75.9307V77.4209H49.2715C49.9688 77.4209 50.3174 77.1771 50.3174 76.6895C50.3174 76.1927 49.9847 75.9398 49.3193 75.9307H47.6787ZM47.6787 74.6045H48.9023C49.5951 74.5954 49.9414 74.3721 49.9414 73.9346C49.9414 73.6657 49.8457 73.4743 49.6543 73.3604C49.4674 73.2464 49.1803 73.1895 48.793 73.1895H47.6787V74.6045ZM57.96 71.6035H59.9355V79H57.96V74.4336L55.4854 79H53.5029V71.6035H55.4854V76.1631L57.96 71.6035ZM67.6807 79H65.7051V76.6758C65.3359 76.7441 64.9919 76.7783 64.6729 76.7783C63.5563 76.7783 62.7155 76.5413 62.1504 76.0674C61.5853 75.5934 61.2982 74.9007 61.2891 73.9893V71.6035H63.2646V73.9893C63.2692 74.4176 63.374 74.7253 63.5791 74.9121C63.7842 75.0944 64.1488 75.1855 64.6729 75.1855C65.001 75.1855 65.3451 75.1468 65.7051 75.0693V71.6035H67.6807V79ZM68.8906 75.2334C68.8906 74.4997 69.0319 73.8457 69.3145 73.2715C69.597 72.6973 70.0026 72.2529 70.5312 71.9385C71.0645 71.624 71.682 71.4668 72.3838 71.4668C73.3818 71.4668 74.1953 71.7721 74.8242 72.3828C75.4577 72.9935 75.8109 73.8229 75.8838 74.8711L75.8975 75.377C75.8975 76.5117 75.5807 77.4232 74.9473 78.1113C74.3138 78.7949 73.4639 79.1367 72.3975 79.1367C71.3311 79.1367 70.4788 78.7949 69.8408 78.1113C69.2074 77.4277 68.8906 76.498 68.8906 75.3223V75.2334ZM70.8662 75.377C70.8662 76.0788 70.9984 76.6165 71.2627 76.9902C71.527 77.3594 71.9053 77.5439 72.3975 77.5439C72.876 77.5439 73.2497 77.3617 73.5186 76.9971C73.7874 76.6279 73.9219 76.04 73.9219 75.2334C73.9219 74.5452 73.7874 74.012 73.5186 73.6338C73.2497 73.2555 72.8714 73.0664 72.3838 73.0664C71.9007 73.0664 71.527 73.2555 71.2627 73.6338C70.9984 74.0075 70.8662 74.5885 70.8662 75.377ZM80.0127 76.2725H79.2197V79H77.2441V71.6035H79.2197V74.3857H79.9238L81.5371 71.6035H84.0322L81.6123 75.124L84.2578 79H81.626L80.0127 76.2725Z" fill="white"/>
</svg>
