<svg width="194" height="223" viewBox="0 0 194 223" fill="none" xmlns="http://www.w3.org/2000/svg">
<circle cx="97" cy="97" r="96.5" stroke="#828282" stroke-dasharray="4 4"/>
<path d="M130.138 71.4482V74.5517H136.345C137.202 74.5517 137.897 75.2465 137.897 76.1034V83.8621H141V71.4482H130.138Z" fill="#828282"/>
<path d="M141 60.5864H130.138V62.1382H141V60.5864Z" fill="#828282"/>
<path d="M136.345 65.2417H133.242V68.3452H136.345V65.2417Z" fill="#828282"/>
<path d="M94.197 58.7369L96.8722 44.0281C91.6056 44.0155 86.348 44.463 81.1594 45.3657L78.6285 59.2909C76.7866 69.3859 76.7866 79.7309 78.6285 89.8258L81.1547 103.715C82.7685 103.998 84.3932 104.251 86.0318 104.445C89.6291 104.868 93.2485 105.079 96.8706 105.076L94.197 90.3798C92.2868 79.9186 92.2868 69.1981 94.197 58.7369ZM82.0345 48.1728H92.8967V51.2762H82.0345V48.1728ZM78.9311 76.1039V73.0004H89.7932V76.1039H78.9311ZM91.3449 86.966H85.138V83.8625H91.3449V86.966Z" fill="#828282"/>
<path d="M100.399 58.7304L103.037 44.2372C102.029 44.1668 101.021 44.1152 100.013 44.082L97.2476 59.289C95.4057 69.384 95.4057 79.7289 97.2476 89.8239L100.014 105.023C101.023 104.987 102.032 104.928 103.037 104.859L100.399 90.3732C98.489 79.912 98.489 69.1915 100.399 58.7304Z" fill="#828282"/>
<path d="M69.3665 58.7273L71.3838 47.6743C71.1386 47.7472 70.8903 47.8109 70.6467 47.8854C65.1753 49.5923 61.0865 51.1719 58.2996 56.1095C55.3594 61.8017 53.9155 68.148 54.1037 74.5518C53.9629 80.443 55.1575 86.2897 57.5982 91.6534C58.5056 93.6521 59.7716 95.4676 61.3332 97.01C63.788 99.319 67.8179 100.449 71.3713 101.446H71.3838L69.3665 90.3702C67.4563 79.909 67.4563 69.1885 69.3665 58.7273ZM58.7589 60.5863H64.9658V63.6897H58.7589V60.5863ZM55.6554 80.7587V77.6553H63.4141V80.7587H55.6554ZM66.5175 88.5174H60.3106V85.4139H66.5175V88.5174Z" fill="#828282"/>
<path d="M75.5764 58.7369L77.8901 46.0127C76.8215 46.2433 75.758 46.4947 74.6997 46.7668L72.4218 59.2986C70.5808 69.3911 70.5638 79.7302 72.4218 89.8196L74.6982 102.339C75.7524 102.608 76.8153 102.856 77.887 103.084L75.5764 90.3798C73.6663 79.9186 73.6663 69.1981 75.5764 58.7369Z" fill="#828282"/>
<path d="M132.993 101.381C131.729 102.04 130.335 102.409 128.911 102.463L126.772 103.211C122.797 104.596 118.727 105.691 114.593 106.487C108.737 107.616 102.786 108.184 96.8225 108.183C93.0949 108.183 89.3705 107.964 85.6687 107.526C80.8888 106.967 76.1613 106.028 71.5309 104.716L70.5331 104.435C67.1661 103.658 63.9371 102.371 60.9574 100.621L54.7505 118H66.3062L68.1574 112.824C68.378 112.206 68.9641 111.793 69.6207 111.794H94.4484C95.3053 111.794 95.9995 112.49 95.9988 113.347C95.9986 113.524 95.9681 113.7 95.9086 113.867L94.4329 118H105.481C106.538 113.288 112.346 109.787 119.568 109.787C126.79 109.787 132.602 113.288 133.653 118H140.19L132.993 101.381Z" fill="#828282"/>
<path d="M113.069 74.5518C113.069 62.0821 117.392 51.7957 123.542 48.1025C117.88 46.3118 112.051 45.1052 106.144 44.501L103.456 59.2843C101.614 69.3793 101.614 79.7243 103.456 89.8192L106.141 104.589C108.779 104.315 111.401 103.942 114.005 103.439C117.23 102.813 120.417 102 123.548 101.004C117.395 97.3157 113.069 87.0215 113.069 74.5518ZM106.862 51.2758H116.173V54.3793H106.862V51.2758ZM105.31 62.1379V59.0345H109.966V62.1379H105.31ZM114.621 96.276H108.414V93.1725H114.621V96.276Z" fill="#828282"/>
<path d="M136.345 41.9653H133.242V45.0688H136.345V41.9653Z" fill="#828282"/>
<path d="M141 31.1035V28H137.897V31.1035H134.793V34.2069H137.897V37.3104H141V34.2069H144.104V31.1035H141Z" fill="#828282"/>
<path d="M71.1723 31.1035V28H68.0688V31.1035H64.9653V34.2069H68.0688V37.3104H71.1723V34.2069H74.2757V31.1035H71.1723Z" fill="#828282"/>
<path d="M61.8622 31.1035H58.7588V34.207H61.8622V31.1035Z" fill="#828282"/>
<path d="M54.1035 41.9653H51V45.0688H54.1035V41.9653Z" fill="#828282"/>
<path d="M136.345 86.9656C135.488 86.9656 134.794 86.2708 134.794 85.4139V77.6553H128.587C127.73 77.6553 127.035 76.9605 127.035 76.1035V69.8966C127.035 69.0397 127.73 68.3449 128.587 68.3449H130.138V65.2414H128.587C127.73 65.2414 127.035 64.5466 127.035 63.6897V59.0345C127.035 58.1776 127.73 57.4828 128.587 57.4828H137.498C135.146 52.5855 131.904 49.7241 128.587 49.7241C121.857 49.7241 116.173 61.0936 116.173 74.5518C116.173 88.0099 121.857 99.3795 128.587 99.3795C132.952 99.3795 137.036 94.5691 139.278 86.9656H136.345Z" fill="#828282"/>
<circle cx="97" cy="173" r="50" fill="#828282"/>
<path d="M88.276 174.684C94.9 174.684 98.896 170.004 98.896 161.724C98.896 153.588 95.116 149.556 88.6 149.556C81.976 149.556 78.088 154.128 78.088 162.156C78.088 170.004 81.616 174.684 88.276 174.684ZM88.528 171.12C84.856 171.12 83.272 167.844 83.272 161.868C83.272 156.216 85.144 153.084 88.348 153.084C91.984 153.084 93.712 156.252 93.712 162.012C93.712 167.916 91.732 171.12 88.528 171.12ZM117.512 167.628C115.892 169.428 114.524 170.004 112.472 170.004H107.792L111.14 166.224C115.28 161.58 116.144 159.6 116.144 156.828C116.144 152.652 113.12 149.7 108.548 149.7C106.388 149.7 104.552 150.06 102.608 150.852L101.564 156.36L101.636 156.396C103.364 153.984 105.308 153.48 107.18 153.48C109.34 153.48 111.176 154.704 111.14 157.512C111.104 159.636 109.88 161.508 106.856 165.36L100.16 173.892V174H111.068C113.624 174 114.956 174.036 116.432 174.216L117.584 167.664L117.512 167.628Z" fill="white"/>
<path d="M77.7021 192.685C77.6247 193.756 77.2282 194.599 76.5127 195.214C75.8018 195.829 74.863 196.137 73.6963 196.137C72.4202 196.137 71.4154 195.708 70.6816 194.852C69.9525 193.99 69.5879 192.81 69.5879 191.311V190.702C69.5879 189.745 69.7565 188.902 70.0938 188.173C70.431 187.444 70.9118 186.885 71.5361 186.498C72.165 186.106 72.8942 185.91 73.7236 185.91C74.8721 185.91 75.7972 186.218 76.499 186.833C77.2008 187.448 77.6064 188.312 77.7158 189.424H75.665C75.6149 188.781 75.4349 188.316 75.125 188.029C74.8197 187.738 74.3525 187.592 73.7236 187.592C73.04 187.592 72.5273 187.838 72.1855 188.33C71.8483 188.818 71.6751 189.576 71.666 190.606V191.358C71.666 192.434 71.8278 193.22 72.1514 193.717C72.4795 194.214 72.9945 194.462 73.6963 194.462C74.3298 194.462 74.8014 194.318 75.1113 194.031C75.4258 193.74 75.6058 193.291 75.6514 192.685H77.7021ZM85.5771 192.37C85.5771 193.509 85.3174 194.423 84.7979 195.111C84.2829 195.795 83.5856 196.137 82.7061 196.137C81.9587 196.137 81.3548 195.877 80.8945 195.357V198.844H78.9189V188.604H80.751L80.8193 189.328C81.2979 188.754 81.9222 188.467 82.6924 188.467C83.6038 188.467 84.3125 188.804 84.8184 189.479C85.3242 190.153 85.5771 191.083 85.5771 192.268V192.37ZM83.6016 192.227C83.6016 191.538 83.4785 191.007 83.2324 190.634C82.9909 190.26 82.6377 190.073 82.1729 190.073C81.5531 190.073 81.127 190.31 80.8945 190.784V193.812C81.1361 194.3 81.5667 194.544 82.1865 194.544C83.1299 194.544 83.6016 193.771 83.6016 192.227ZM90.2119 196.137C89.1273 196.137 88.2432 195.804 87.5596 195.139C86.8805 194.473 86.541 193.587 86.541 192.479V192.288C86.541 191.545 86.6846 190.882 86.9717 190.299C87.2588 189.711 87.6644 189.26 88.1885 188.945C88.7171 188.626 89.3187 188.467 89.9932 188.467C91.0049 188.467 91.8001 188.786 92.3789 189.424C92.9622 190.062 93.2539 190.966 93.2539 192.138V192.944H88.5439C88.6077 193.427 88.7992 193.815 89.1182 194.106C89.4417 194.398 89.8496 194.544 90.3418 194.544C91.1029 194.544 91.6976 194.268 92.126 193.717L93.0967 194.804C92.8005 195.223 92.3994 195.551 91.8936 195.788C91.3877 196.021 90.8271 196.137 90.2119 196.137ZM89.9863 190.066C89.5944 190.066 89.2754 190.199 89.0293 190.463C88.7878 190.727 88.6328 191.105 88.5645 191.598H91.3125V191.44C91.3034 191.003 91.1849 190.666 90.957 190.429C90.7292 190.187 90.4056 190.066 89.9863 190.066ZM94.4844 194.407C94.931 193.933 95.234 193.464 95.3936 192.999C95.5531 192.534 95.6419 191.876 95.6602 191.023L95.7148 188.604H101.156V194.407H102.223V198.222H100.247V196H95.8652V198.222H93.8486V194.407H94.4844ZM96.8154 194.407H99.1875V190.237H97.6494L97.6357 191.126C97.5947 192.484 97.3213 193.578 96.8154 194.407ZM109.517 196H107.534V193.156H105.08V196H103.104V188.604H105.08V191.57H107.534V188.604H109.517V196ZM115.505 188.604H117.48V196H115.505V191.434L113.03 196H111.048V188.604H113.03V193.163L115.505 188.604ZM123.448 188.604H125.424V196H123.448V191.434L120.974 196H118.991V188.604H120.974V193.163L123.448 188.604ZM124.61 185.603C124.61 186.209 124.392 186.699 123.954 187.072C123.521 187.446 122.951 187.633 122.245 187.633C121.539 187.633 120.967 187.448 120.529 187.079C120.096 186.71 119.88 186.218 119.88 185.603H121.281C121.281 185.89 121.366 186.113 121.534 186.272C121.707 186.427 121.944 186.505 122.245 186.505C122.541 186.505 122.774 186.427 122.942 186.272C123.111 186.113 123.195 185.89 123.195 185.603H124.61Z" fill="white"/>
</svg>
