<svg width="24" height="24" viewBox="0 0 24 24" fill="none" xmlns="http://www.w3.org/2000/svg">
<path d="M0 0V24H24V0H0ZM19.25 16.996H17.117C15.912 16.996 15.707 16.309 14.715 15.317C13.818 14.42 13.321 15.108 13.341 16.385C13.347 16.724 13.18 16.996 12.775 16.996C11.511 16.996 9.695 17.174 7.857 15.19C5.974 13.157 4 9.079 4 8.677C4 8.44 4.196 8.333 4.524 8.333H6.694C7.268 8.333 7.317 8.617 7.477 8.982C8.144 10.503 9.742 13.556 10.167 11.852C10.411 10.874 10.511 8.607 9.464 8.412C8.87 8.302 9.916 7.666 11.432 7.666C11.809 7.666 12.218 7.707 12.637 7.803C13.406 7.982 13.408 8.326 13.398 8.829C13.359 10.732 13.129 12.013 13.631 12.336C14.11 12.646 15.37 10.619 16.034 9.055C16.217 8.622 16.254 8.333 16.769 8.333H19.424C20.813 8.333 19.242 10.33 18.041 11.89C17.073 13.145 17.125 13.17 18.249 14.214C19.051 14.958 19.999 15.974 19.999 16.55C20 16.822 19.788 16.996 19.25 16.996Z" fill="#E79D2F"/>
</svg>
