<svg width="35" height="35" fill="none" xmlns="http://www.w3.org/2000/svg"><g opacity=".8" fill-rule="evenodd" clip-rule="evenodd" fill="#fff"><path d="M17.5 0C7.835 0 0 7.835 0 17.5S7.835 35 17.5 35 35 27.165 35 17.5 27.165 0 17.5 0zm-3.848 8.223c.996-.045 1.314-.056 3.849-.056h-.003c2.535 0 2.852.01 3.848.056.994.046 1.672.203 2.267.434a4.561 4.561 0 0 1 1.653 1.076 4.58 4.58 0 0 1 1.077 1.653c.23.594.387 1.272.434 2.266.045.995.056 1.313.056 3.848s-.011 2.852-.056 3.848c-.047.993-.204 1.672-.434 2.265a4.58 4.58 0 0 1-1.077 1.653 4.566 4.566 0 0 1-1.652 1.078c-.594.23-1.273.388-2.267.433-.995.046-1.312.057-3.847.057s-2.853-.011-3.848-.057c-.994-.045-1.672-.203-2.266-.433a4.57 4.57 0 0 1-1.653-1.078 4.574 4.574 0 0 1-1.076-1.653c-.23-.593-.388-1.272-.434-2.265-.045-.996-.056-1.313-.056-3.848s.011-2.853.056-3.848c.045-.994.202-1.672.433-2.266a4.582 4.582 0 0 1 1.078-1.653 4.57 4.57 0 0 1 1.653-1.076c.593-.231 1.272-.388 2.265-.434z"/><path d="M16.664 9.848h.836c2.493 0 2.788.009 3.772.054.91.041 1.404.193 1.733.321.436.17.746.371 1.073.698.326.327.529.638.698 1.074.128.328.28.822.322 1.732.044.984.054 1.28.054 3.77 0 2.491-.01 2.787-.054 3.77-.042.91-.194 1.405-.322 1.733a2.883 2.883 0 0 1-.698 1.072 2.885 2.885 0 0 1-1.073.698c-.328.129-.823.28-1.733.322-.983.045-1.28.055-3.771.055-2.492 0-2.788-.01-3.772-.055-.91-.042-1.403-.194-1.733-.322a2.89 2.89 0 0 1-1.073-.698A2.893 2.893 0 0 1 10.225 23c-.128-.328-.28-.822-.322-1.732-.045-.984-.054-1.28-.054-3.772s.01-2.786.054-3.77c.042-.91.194-1.404.322-1.733a2.89 2.89 0 0 1 .698-1.074 2.897 2.897 0 0 1 1.073-.698c.33-.128.823-.28 1.733-.322.861-.039 1.195-.05 2.935-.052v.002zm5.82 1.55a1.12 1.12 0 1 0-.001 2.24 1.12 1.12 0 0 0 0-2.24zM12.707 17.5a4.793 4.793 0 1 1 9.585 0 4.793 4.793 0 0 1-9.585 0z"/><path d="M17.5 14.39a3.111 3.111 0 1 1 .001 6.221 3.111 3.111 0 0 1 0-6.222z"/></g></svg>