<svg width="40" height="40" fill="none" xmlns="http://www.w3.org/2000/svg"><path fill-rule="evenodd" clip-rule="evenodd" d="M20 0C8.954 0 0 8.954 0 20s8.954 20 20 20 20-8.954 20-20S31.046 0 20 0zm1.628 26.314c-.197.207-.582.25-.582.25h-1.275s-2.813.165-5.291-2.366c-2.702-2.763-5.089-8.243-5.089-8.243s-.137-.36.012-.533c.168-.196.626-.208.626-.208l3.048-.02s.287.047.492.195c.17.123.265.352.265.352s.493 1.223 1.145 2.329c1.274 2.16 1.866 2.632 2.298 2.4.63-.337.442-3.053.442-3.053s.011-.985-.317-1.425c-.255-.34-.735-.439-.947-.467-.172-.022.11-.413.475-.588.549-.264 1.517-.279 2.662-.268.892.01 1.149.064 1.497.147.809.191.784.805.73 2.13-.017.397-.036.857-.036 1.388 0 .12-.004.247-.007.377-.02.68-.04 1.457.415 1.746.234.148.804.022 2.233-2.359.677-1.128 1.184-2.455 1.184-2.455s.112-.236.284-.338c.176-.103.414-.071.414-.071l3.207-.02s.965-.114 1.12.314c.164.448-.36 1.495-1.67 3.21-1.244 1.626-1.849 2.225-1.793 2.755.04.387.434.737 1.188 1.424 1.576 1.436 1.998 2.191 2.1 2.373a.893.893 0 0 0 .019.033c.706 1.15-.784 1.24-.784 1.24l-2.85.04s-.611.118-1.416-.425c-.422-.284-.835-.748-1.227-1.19-.6-.675-1.154-1.298-1.627-1.151-.794.248-.77 1.927-.77 1.927s.006.359-.175.55z" fill="#fff" opacity=".8"/></svg>