<svg width="394" height="292" viewBox="0 0 394 292" fill="none" xmlns="http://www.w3.org/2000/svg">
<path d="M389.147 93.9291C387.778 88.3887 385.334 83.4857 380.542 80.1027C361.182 55.5877 320.701 43.5263 287.505 54.2148C267.558 60.5887 249.909 59.0198 232.015 48.1842C220.722 41.369 211.237 33.0829 202.73 23.2279C192.121 10.8233 179.068 2.73338 162.201 2.53726C157.116 -0.159384 151.494 -0.0613233 146.018 0.0367366C95.3194 1.16443 33.9138 33.9655 16.6557 99.6656C15.0424 102.656 13.3801 105.647 11.7668 108.638C11.5223 110.305 11.2779 111.972 10.9845 113.639C10.1045 115.649 9.22449 117.66 8.34447 119.67C3.65105 128.299 2.03769 137.909 0.717667 147.421C-3.19352 175.123 9.07782 199.442 32.7405 211.895C33.8649 212.68 34.8916 213.709 36.1628 214.249C63.2477 226.8 63.4433 226.996 72.2923 255.679C77.768 273.33 99.8173 282.253 113.555 270.731C122.453 263.279 124.898 263.622 128.418 274.359C132.036 285.342 140.298 292.599 152.325 291.961C165.183 291.324 168.41 280.586 170.072 270.339C172.81 253.424 174.325 236.312 176.672 219.348C177.405 214.249 175.988 207.581 183.614 205.815C184.445 210.817 185.472 215.769 186.059 220.819C187.574 233.763 189.726 246.559 195.055 258.523C198.428 266.073 203.952 272.153 212.899 271.663C220.917 271.221 224.291 264.357 226.784 257.787C230.989 246.903 233.042 235.381 232.846 223.76C232.7 214.102 236.709 209.738 245.9 207.532C256.167 205.08 266.483 201.991 274.745 194.735C284.963 193.019 295.181 191.303 305.399 189.538C324.955 189.783 342.897 185.125 358.493 172.72C361.867 171.74 364.702 169.975 366.756 167.082C391.396 151.196 400.538 121.484 389.147 93.9291Z" fill="#EBECF8"/>
</svg>
