<svg width="40" height="41" viewBox="0 0 40 41" fill="none" xmlns="http://www.w3.org/2000/svg">
<circle cx="20.001" cy="20.417" r="20" fill="#266B0C"/>
<path d="M21.7221 30.4058C21.6229 30.4097 21.5594 30.4177 21.4958 30.4177C20.1381 30.4177 18.7844 30.4137 17.4266 30.4217C17.2361 30.4217 17.1845 30.37 17.1845 30.1795C17.1884 27.0194 17.1884 23.8553 17.1884 20.6952C17.1884 20.6119 17.1884 20.5285 17.1884 20.4213C16.45 20.4213 15.7314 20.4213 15.001 20.4213C15.001 19.2938 15.001 18.1862 15.001 17.0468C15.0764 17.0468 15.1479 17.0468 15.2154 17.0468C15.8108 17.0468 16.4063 17.0429 17.0018 17.0508C17.1527 17.0508 17.1924 17.0071 17.1924 16.8603C17.1845 15.975 17.1845 15.0857 17.1924 14.2004C17.1964 13.5811 17.2956 12.9776 17.5815 12.4179C17.9904 11.6278 18.6375 11.1157 19.4553 10.7981C20.1222 10.5361 20.8249 10.4408 21.5316 10.4289C22.6829 10.413 23.8341 10.421 24.9854 10.417C25.0926 10.417 25.18 10.413 25.18 10.5639C25.176 11.6556 25.176 12.7474 25.176 13.8391C25.176 13.851 25.172 13.8629 25.1561 13.9145C25.0887 13.9145 25.0132 13.9145 24.9378 13.9145C24.2232 13.9145 23.5086 13.9106 22.794 13.9145C22.3811 13.9145 22.0477 14.0813 21.8373 14.4425C21.7737 14.5497 21.734 14.6887 21.734 14.8157C21.7221 15.4906 21.734 16.1655 21.7261 16.8404C21.7261 16.9992 21.7737 17.0429 21.9286 17.0429C22.9211 17.0349 23.9135 17.0389 24.906 17.0389C24.9854 17.0389 25.0609 17.0389 25.1958 17.0389C25.0569 18.1743 24.9219 19.2859 24.783 20.4094C23.7508 20.4094 22.7464 20.4094 21.7221 20.4094C21.7221 23.7481 21.7221 27.067 21.7221 30.4058Z" fill="white"/>
</svg>
