<svg width="1587" height="494" viewBox="0 0 1587 494" fill="none" xmlns="http://www.w3.org/2000/svg">
<path d="M1584.72 176.983C1590.25 151.023 1583.25 127.714 1568.2 106.134C1568.16 106.134 1568.12 106.134 1568.08 106.094C1567.53 103.562 1566.06 101.593 1563.93 100.026C1562.63 97.4938 1561.33 94.962 1558.44 93.676C1552.36 87.7283 1548 80.2536 1540.5 75.5919C1535.13 70.6489 1528.93 66.9919 1521.85 64.7414C1515.89 61.1246 1509.27 59.4769 1502.4 59.2358C1478.34 58.4321 1454.7 61.5265 1432.02 69.1218C1389.56 83.348 1346.52 95.2433 1301.96 101.834C1290.86 102.316 1279.79 101.673 1268.77 100.387C1251.5 98.3779 1234.19 96.6096 1216.92 94.7209C1216.63 94.4797 1216.33 94.4797 1216.04 94.6405C1215.37 94.319 1214.7 94.0779 1213.98 93.9171C1209.67 92.4302 1205.18 91.9078 1200.61 91.5863L1200.66 91.6666C1200.2 91.3452 1199.73 91.1442 1199.23 90.9835C1196.34 89.6975 1193.2 89.3358 1190.05 89.1349C1189.8 88.8938 1189.51 88.8536 1189.17 89.0143C1186.24 87.2863 1182.93 86.7639 1179.57 86.5629C1179.36 86.3218 1179.11 86.3218 1178.86 86.4825C1176.43 84.7545 1173.66 84.2321 1170.73 84.1919C1170.77 84.2321 1170.77 84.2321 1170.81 84.2321C1165.62 81.7405 1160.13 80.2937 1154.38 79.6106C1155.1 79.9722 1155.81 80.3339 1156.48 80.7358C1155.72 80.5751 1155.05 80.2938 1154.47 79.6909H1154.51C1154.47 79.6508 1154.42 79.6507 1154.38 79.6106C1154.05 79.3694 1153.71 79.2087 1153.38 79.048C1150.95 77.762 1148.26 77.3199 1145.46 77.1993C1145.46 77.1993 1145.5 77.1994 1145.5 77.2395C1145.16 76.9984 1144.78 76.8377 1144.41 76.6769C1141.98 75.4713 1139.29 74.9891 1136.53 74.8685L1136.57 74.9087C1136.07 74.5872 1135.52 74.3863 1134.93 74.2255C1131.62 72.8592 1128.14 72.2966 1124.54 72.176C1124.58 72.2162 1124.62 72.2162 1124.67 72.2564C1124.33 72.0152 1123.95 71.8143 1123.53 71.6937C1121.06 70.448 1118.38 70.0461 1115.57 69.9657C1115.95 70.2872 1116.32 70.448 1116.74 70.6489C1116.32 70.4881 1115.95 70.247 1115.57 69.9657C1115.23 69.7246 1114.9 69.6442 1114.52 69.805C1114.02 69.4835 1113.47 69.2825 1112.93 69.162C1109.95 67.9564 1106.81 67.4339 1103.54 67.233C1103.33 66.9919 1103.08 66.9517 1102.83 67.1526C1100.36 65.505 1097.59 65.0629 1094.66 64.9423C1094.99 65.2237 1095.37 65.3844 1095.7 65.5853C1095.33 65.4246 1094.99 65.2237 1094.66 64.9423C1094.36 64.7012 1094.03 64.6208 1093.69 64.7816C1093.31 64.5405 1092.94 64.3395 1092.52 64.219C1089.92 62.9732 1087.15 62.4106 1084.26 62.29C1084.01 62.1293 1083.8 61.9685 1083.55 61.8881C1081.49 60.7227 1079.19 60.4414 1076.84 60.2807C1077.18 60.562 1077.51 60.7227 1077.85 60.9236C1077.51 60.7629 1077.13 60.562 1076.84 60.2807C1076.51 60.0395 1076.13 59.9592 1075.75 60.0395C1075.21 59.718 1074.66 59.5171 1074.12 59.3564C1070.72 57.99 1067.12 57.5078 1063.43 57.2265C1061.25 56.6236 1059.11 55.7395 1056.93 55.3779C990.833 44.6078 924.357 39.4638 857.295 41.7545C829.589 42.719 802.68 39.6648 777.49 27.6489C775.268 26.5638 772.754 25.961 770.406 25.1573C755.024 17.3208 738.719 11.5339 721.283 12.1769C700.619 12.9405 680.207 16.9993 660.046 21.5405C653.968 21.9021 648.101 23.2685 642.526 25.6395C626.054 28.8143 609.833 32.9535 594.031 38.4592C575.756 44.1255 557.398 49.6311 538.453 52.9265C537.95 52.9666 537.405 53.047 536.902 53.2479C524.663 53.7704 512.382 54.2928 500.143 54.7751C498.55 54.6545 496.958 54.6143 495.365 54.976C483 53.8909 470.677 52.4442 458.271 51.8816C447.876 51.3993 438.739 48.4255 429.643 43.4423C408.77 31.9891 387.436 21.018 364.215 14.5881C327.205 4.46102 289.272 -0.0399203 250.795 0.000266633C211.354 0.0404536 174.972 10.5292 143.327 32.9535C118.807 50.3143 97.4728 71.2115 79.9526 95.404C72.5757 105.571 64.8216 115.497 57.3609 125.625C41.1819 147.607 29.5298 171.799 19.5961 196.836C17.3327 199.89 15.9496 203.306 15.4047 207.003C12.7641 210.821 11.7581 215.161 10.9618 219.582C10.7103 219.943 10.5007 220.305 10.375 220.707C9.11753 223.078 8.65648 225.69 8.53073 228.342C8.90796 227.659 9.24328 226.936 9.62051 226.253C9.49476 227.056 9.32711 227.86 8.53073 228.342C8.32116 228.664 8.23733 229.026 8.32116 229.427C2.83039 247.512 0.357453 265.957 0.902338 284.765C0.0640526 290.11 -0.480833 295.495 0.608938 300.88C-0.0197758 305.3 -0.313176 309.761 0.860424 314.142C0.399367 316.633 0.315538 319.125 1.32148 321.576C1.02808 324.55 0.818509 327.524 2.03402 330.377C1.61488 335.4 2.15977 340.303 3.50102 345.166C3.96208 345.568 4.08782 346.09 4.12974 346.613C3.92017 346.13 3.71059 345.648 3.50102 345.166C4.25548 362.687 7.94394 379.646 13.267 396.364C15.5723 411.434 18.5482 426.343 22.1948 441.132C23.4941 450.496 24.6677 459.859 26.1347 469.223C27.1826 475.814 30.0747 481.681 34.7691 486.744C42.4813 495.023 50.7803 495.827 60.2529 489.598C76.3899 478.948 79.7012 462.713 81.6711 445.754C82.719 444.87 83.7249 443.945 84.7728 443.061C84.186 449.371 85.2758 455.64 86.8266 461.668C88.5032 468.057 92.9041 472.277 100.197 472.438C106.987 472.558 109.67 467.857 111.514 462.552C112.059 460.985 112.185 459.257 112.52 457.609C114.364 454.876 114.574 451.701 114.951 448.607C116.502 434.702 117.927 420.838 119.562 406.933C119.855 404.321 118.849 400.785 123.208 399.981C133.519 410.108 147.225 411.032 159.003 400.624C180.253 381.856 193.918 358.91 196.558 330.739C199.115 323.626 201.043 316.111 207.917 311.328C216.97 309.761 226.108 307.591 233.61 315.267C235.706 318.924 237.802 322.581 239.897 326.238C240.903 330.739 241.951 335.24 242.957 339.7C241.49 352.842 239.939 365.983 241.784 379.204C241.029 383.625 241.113 388.005 242.161 392.385C242.077 399.941 243.125 407.375 244.298 414.81C245.011 419.15 246.268 423.329 248.741 427.107C254.861 436.35 271.207 445.432 279.297 443.302C292.793 439.685 295.56 428.634 297.53 417.301C301.931 402.673 305.954 387.925 308.385 372.855C311.068 356.338 319.535 343.599 333.995 334.436C344.515 332.346 355.162 332.869 365.808 332.869C372.095 332.869 374.903 335.119 374.736 341.549C374.526 349.305 375.239 357.101 375.784 364.857C376.245 371.85 379.807 377.074 386.975 378.883C394.687 380.852 398.585 375.467 401.938 370.162C403.782 367.269 405.04 364.054 406.339 360.879C407.555 357.905 408.896 356.137 412.375 358.628C417.991 362.567 424.32 363.853 431.11 362.366C433.961 361.723 436.098 362.285 437.104 365.179C442.469 380.651 463.049 380.771 469.965 365.34C474.575 360.316 476.713 354.087 478.599 347.858C483.461 332.065 484.341 315.628 486.186 299.393C485.892 299.835 485.641 300.277 485.347 300.639C485.515 300.156 485.725 299.674 486.186 299.393C488.575 291.235 491.425 283.157 493.353 274.879C499.85 246.467 519.047 232.683 548.303 230.07C549.057 229.99 549.812 229.869 550.566 229.749C568.044 227.699 571.691 229.588 578.984 244.739C580.157 247.15 581.331 249.561 582.463 252.012C584.139 256.554 584.684 261.497 587.744 265.556C588.582 267.123 589.421 268.73 590.259 270.298C590.678 270.9 591.097 271.503 591.516 272.106C600.528 282.434 612.934 284.926 626.012 285.89C636.323 286.654 637.119 287.578 637.999 297.705C638.46 303.01 638.754 308.314 640.724 313.378C641.646 321.295 642.861 329.171 647.43 336.124C648.436 339.258 650.154 341.951 652.921 343.92C662.351 354.931 673.249 358.709 683.853 354.65C687.793 353.967 690.811 351.636 693.074 348.823C700.409 339.7 706.361 329.734 710.637 318.924C714.493 311.489 718.349 304.014 722.205 296.58L722.163 296.54C725.39 293.043 727.109 288.743 728.995 284.604C733.438 274.879 739.683 266.761 749.407 261.336C762.317 258.483 773.215 262.501 782.981 270.418C792.076 279.46 801.046 288.663 810.267 297.585C819.614 306.586 830.176 314.061 842.247 319.326C859.558 326.881 877.665 330.337 896.736 327.363C908.514 327.122 919.37 323.947 928.088 316.352C941.039 305.099 954.997 300.478 972.349 306.104C979.768 308.515 987.438 307.028 992.594 300.076C998.629 293.606 1005.96 291.155 1014.89 293.445C1016.82 293.927 1018.87 293.968 1020.89 294.169C1026.25 298.388 1032.62 301.362 1037.44 306.265C1052.74 327.926 1073.99 340.585 1100.82 344.764C1110.12 347.617 1119.43 348.542 1128.69 344.563C1140.68 341.549 1141.72 341.951 1149.23 351.676C1150.99 353.967 1152.92 356.177 1154.8 358.428C1157.02 361.642 1159.71 364.456 1163.14 366.545C1179.03 380.771 1198.23 382.861 1220.57 372.774C1237.71 370.242 1253.51 364.174 1268.43 355.896C1270.99 355.132 1273.34 354.047 1274.68 351.676C1275.89 350.712 1277.07 349.787 1278.28 348.823C1284.65 344.242 1291.28 340.745 1299.74 342.594C1302.89 343.277 1306.24 343.197 1309.47 343.438C1315.84 345.327 1322.33 346.492 1328.96 346.854C1332.81 348.341 1336.67 349.868 1340.52 351.355C1339.73 360.276 1338.89 369.238 1338.09 378.159C1337.51 384.75 1337.59 391.341 1340.4 397.489C1342.91 403.035 1346.64 407.737 1353.52 408.259C1360.14 408.741 1364.67 405.044 1367.39 399.86C1370.2 394.475 1372 396.685 1374.64 399.82C1380.01 406.21 1386.34 411.273 1395.31 412.198C1396.82 412.358 1398.32 412.519 1399.83 412.68C1400.21 412.399 1400.63 412.278 1401.05 412.198C1400.63 412.318 1400.25 412.439 1399.83 412.68C1402.39 413.162 1404.95 413.604 1407.25 411.916C1409.81 410.349 1412.37 408.822 1414.84 407.174C1423.39 401.628 1431.14 394.837 1441.12 391.461C1444.39 390.376 1447.66 388.166 1450.84 391.582C1450.84 392.466 1450.8 393.31 1450.8 394.194C1450.38 404.08 1449.75 413.926 1449.58 423.812C1449.5 430.322 1452.27 436.069 1456.67 440.971C1463.29 448.366 1472.26 446.799 1475.07 437.515C1476.87 431.528 1477.58 425.218 1478.8 419.07C1479.89 419.11 1480.98 419.15 1482.07 419.15C1491.08 425.339 1502.69 423.892 1508.31 415.252C1513.21 407.697 1517.23 399.659 1518.62 390.657C1518.83 390.296 1518.87 389.934 1518.83 389.532C1521.72 382.941 1521.38 375.869 1522.22 368.956C1523.52 363.772 1527.08 361.16 1532.24 359.151C1542.8 355.092 1552.69 349.827 1559.32 340.384C1571.43 329.613 1570.3 315.628 1569.46 301.724C1569.42 295.213 1570.3 288.703 1568.75 282.273C1568.83 281.871 1568.79 281.51 1568.62 281.148C1568.75 278.054 1568.33 275.08 1566.53 272.427C1564.35 268.971 1567.11 264.872 1564.89 261.416C1563.93 254.183 1564.51 247.029 1565.27 239.836C1565.02 240.8 1564.68 241.684 1564.3 242.528C1564.39 241.564 1564.56 240.64 1565.23 239.836C1567.11 232.602 1571.47 226.132 1572.6 218.657C1574.7 215.081 1575.91 211.183 1576.5 207.164C1581.07 197.479 1584.09 187.553 1584.72 176.983ZM202.72 287.337C202.72 287.337 202.72 287.377 202.761 287.377C202.761 287.417 202.761 287.417 202.761 287.417C202.761 287.417 202.72 287.377 202.72 287.337ZM1218.47 95.7255C1217.92 95.5648 1217.38 95.2835 1216.92 94.7209C1217.42 95.1629 1217.92 95.4844 1218.47 95.7255ZM1170.81 84.3124C1171.15 84.5938 1171.53 84.7947 1171.86 84.9956C1171.48 84.8349 1171.15 84.6339 1170.81 84.3124Z" fill="#EBECF8"/>
</svg>
