<svg width="40" height="41" viewBox="0 0 40 41" fill="none" xmlns="http://www.w3.org/2000/svg">
<circle cx="20.001" cy="20.417" r="20" fill="#266B0C"/>
<path d="M22.6121 10.417H16.8234C15.0145 10.4188 13.2802 11.1381 12.0012 12.4172C10.7221 13.6963 10.0027 15.4305 10.001 17.2394V23.0282C10.0028 24.837 10.7221 26.5713 12.0012 27.8504C13.2803 29.1294 15.0145 29.8488 16.8234 29.8506H22.6121C24.421 29.8488 26.1553 29.1294 27.4344 27.8504C28.7134 26.5713 29.4328 24.837 29.4346 23.0282V17.2394C29.4328 15.4305 28.7134 13.6963 27.4344 12.4172C26.1553 11.1381 24.421 10.4188 22.6121 10.417ZM19.7178 24.6573C18.8231 24.6573 17.9485 24.392 17.2047 23.8949C16.4608 23.3979 15.881 22.6914 15.5386 21.8648C15.1963 21.0383 15.1067 20.1288 15.2812 19.2513C15.4557 18.3738 15.8866 17.5678 16.5192 16.9352C17.1518 16.3026 17.9578 15.8718 18.8353 15.6972C19.7128 15.5227 20.6223 15.6123 21.4488 15.9546C22.2754 16.297 22.9819 16.8768 23.4789 17.6207C23.976 18.3646 24.2412 19.2391 24.2412 20.1338C24.2396 21.333 23.7625 22.4826 22.9145 23.3305C22.0666 24.1785 20.917 24.6556 19.7178 24.6573ZM25.5189 15.8212C25.4814 15.86 25.4398 15.8946 25.3949 15.9246C25.3488 15.9534 25.3004 15.9783 25.2501 15.999C25.2012 16.0203 25.1498 16.0356 25.0972 16.0445C25.0442 16.0561 24.9901 16.0616 24.9359 16.061C24.8269 16.0596 24.7191 16.0386 24.6175 15.999C24.5686 15.9783 24.5216 15.9534 24.4769 15.9246C24.4315 15.8936 24.3886 15.8591 24.3488 15.8212C24.1948 15.6646 24.1087 15.4537 24.1089 15.234C24.1083 15.1798 24.1138 15.1257 24.1255 15.0728C24.1343 15.0201 24.1496 14.9687 24.171 14.9198C24.1916 14.8695 24.2165 14.8211 24.2454 14.7751C24.2765 14.7311 24.3111 14.6896 24.3488 14.651C24.3886 14.6131 24.4314 14.5785 24.4769 14.5477C24.5215 14.5188 24.5686 14.4939 24.6175 14.4732C24.6684 14.4524 24.721 14.4358 24.7746 14.4236C24.9078 14.3977 25.0454 14.4048 25.1751 14.4445C25.3049 14.4841 25.423 14.5551 25.5189 14.651C25.5577 14.6885 25.5924 14.7301 25.6223 14.7751C25.6525 14.821 25.6788 14.8694 25.7008 14.9198C25.7203 14.9694 25.7355 15.0206 25.7463 15.0728C25.7559 15.126 25.7614 15.1799 25.7629 15.234C25.7632 15.3432 25.7418 15.4513 25.6999 15.5521C25.658 15.6529 25.5965 15.7444 25.5189 15.8212ZM19.7178 16.8508C19.0684 16.8508 18.4337 17.0433 17.8938 17.404C17.3539 17.7648 16.9331 18.2775 16.6846 18.8774C16.4362 19.4773 16.3711 20.1374 16.4978 20.7743C16.6245 21.4111 16.9372 21.9961 17.3963 22.4552C17.8555 22.9144 18.4404 23.2271 19.0773 23.3537C19.7141 23.4804 20.3742 23.4154 20.9741 23.1669C21.574 22.9184 22.0868 22.4976 22.4475 21.9577C22.8083 21.4179 23.0008 20.7831 23.0008 20.1338C23.0001 19.2633 22.654 18.4286 22.0384 17.8131C21.4229 17.1976 20.5883 16.8515 19.7178 16.8508ZM19.3167 18.9884C19.079 19.0715 18.873 19.2263 18.7271 19.4315C18.5812 19.6366 18.5026 19.882 18.5021 20.1338C18.5021 20.2983 18.4368 20.456 18.3205 20.5723C18.2042 20.6887 18.0464 20.754 17.8819 20.754C17.7174 20.754 17.5597 20.6887 17.4434 20.5723C17.327 20.456 17.2617 20.2983 17.2617 20.1338C17.2622 19.6249 17.4208 19.1287 17.7156 18.7139C18.0104 18.299 18.4269 17.9861 18.9073 17.8183C19.0623 17.7649 19.2321 17.7751 19.3796 17.8465C19.527 17.918 19.6402 18.045 19.6943 18.1997C19.7484 18.3544 19.7391 18.5242 19.6683 18.672C19.5976 18.8198 19.4711 18.9336 19.3167 18.9884Z" fill="white"/>
</svg>
