<svg width="752" height="422" viewBox="0 0 752 422" fill="none" xmlns="http://www.w3.org/2000/svg">
<path d="M742.738 135.747C740.125 127.74 735.459 120.654 726.314 115.765C689.363 80.3356 612.1 62.9045 548.741 78.3516C510.669 87.5632 476.984 85.2957 442.831 69.636C421.276 59.7867 403.173 47.8116 386.937 33.5691C366.688 15.6419 341.774 3.9503 309.581 3.66687C299.876 -0.230342 289.145 -0.0886247 278.694 0.053092C181.929 1.68283 64.7289 49.0871 31.7896 144.037C28.7103 148.36 25.5377 152.682 22.4584 157.004C21.9918 159.414 21.5253 161.823 20.9654 164.232C19.2858 167.137 17.6061 170.042 15.9265 172.948C6.96851 185.419 3.8892 199.307 1.36976 213.053C-6.09524 253.088 17.3262 288.234 62.4894 306.232C64.6356 307.366 66.5952 308.854 69.0213 309.633C120.716 327.773 121.09 328.056 137.979 369.509C148.43 395.018 190.514 407.914 216.735 391.262C233.718 380.492 238.383 380.988 245.102 396.506C252.007 412.378 267.777 422.865 290.732 421.944C315.273 421.023 321.432 405.505 324.604 390.695C329.83 366.249 332.722 341.52 337.201 317.003C338.601 309.633 335.895 299.997 350.452 297.446C352.038 304.673 353.998 311.83 355.117 319.128C358.01 337.835 362.116 356.329 372.287 373.618C378.725 384.531 389.27 393.317 406.346 392.608C421.649 391.971 428.088 382.051 432.847 372.556C440.872 356.825 444.791 340.173 444.417 323.38C444.138 309.421 451.789 303.114 469.332 299.926C488.928 296.383 508.616 291.919 524.386 281.432C543.889 278.952 563.391 276.472 582.893 273.921C620.218 274.275 654.464 267.543 684.231 249.616C690.669 248.199 696.081 245.648 700 241.468C747.03 218.509 764.479 175.569 742.738 135.747Z" fill="#EBECF8"/>
</svg>
