<svg width="470" height="348" viewBox="0 0 470 348" fill="none" xmlns="http://www.w3.org/2000/svg">
<path d="M464.211 111.943C464.211 111.943 464.211 111.884 464.211 111.943C462.578 105.34 459.662 99.4967 453.947 95.4648C430.852 66.2483 382.563 51.8738 342.963 64.6122C319.168 72.2085 298.115 70.3386 276.769 57.425C263.297 49.3028 251.983 39.4276 241.836 27.6826C229.18 12.899 213.609 3.25759 193.488 3.02386C187.423 -0.18995 180.716 -0.0730839 174.184 0.043782C113.706 1.38774 40.4556 40.4794 19.8685 118.78C17.944 122.344 15.9611 125.908 14.0365 129.473C13.7449 131.46 13.4533 133.446 13.1034 135.433C12.0536 137.829 11.0038 140.224 9.95407 142.62C4.35532 152.904 2.43075 164.357 0.8561 175.693C-3.80952 208.708 10.8289 237.691 39.0559 252.533C40.3973 253.468 41.622 254.695 43.1383 255.337C75.4478 270.296 75.6811 270.53 86.237 304.713C92.7689 325.749 119.071 336.384 135.459 322.652C146.074 313.77 148.99 314.179 153.189 326.976C157.504 340.065 167.361 348.713 181.707 347.954C197.046 347.194 200.895 334.397 202.878 322.185C206.144 302.025 207.952 281.632 210.751 261.414C211.626 255.337 209.934 247.391 219.032 245.287C220.024 251.247 221.249 257.149 221.948 263.167C223.756 278.594 226.322 293.845 232.679 308.102C236.703 317.101 243.294 324.347 253.966 323.762C263.531 323.236 267.555 315.056 270.529 307.226C275.545 294.254 277.994 280.522 277.761 266.673C277.586 255.162 282.368 249.962 293.332 247.332C305.58 244.41 317.885 240.729 327.741 232.081C339.93 230.036 352.119 227.991 364.308 225.887C387.636 226.179 409.04 220.628 427.644 205.845C431.668 204.676 435.051 202.572 437.5 199.125C466.894 180.193 477.8 144.782 464.211 111.943Z" fill="#EBECF8"/>
</svg>
