<svg width="27" height="27" viewBox="0 0 27 27" fill="none" xmlns="http://www.w3.org/2000/svg">
<path d="M16.0822 10.9172C16.801 11.6364 17.3345 12.49 17.5091 13.2009C17.6001 13.5718 17.9321 13.8197 18.2975 13.8197C18.3615 13.8197 18.4268 13.8121 18.4918 13.7963C18.9276 13.6892 19.1939 13.2493 19.087 12.8137C18.8411 11.8117 18.1646 10.7018 17.231 9.76841C16.2978 8.83503 15.1881 8.1587 14.1863 7.91236C13.7499 7.80526 13.3104 8.07143 13.2033 8.50737C13.0962 8.94332 13.3628 9.38324 13.7983 9.49034C14.5098 9.66528 15.3634 10.1984 16.0822 10.9172Z" fill="white"/>
<path d="M22.9756 4.02403C20.994 2.04222 18.5607 0.621722 16.124 0.0235354C15.6882 -0.0831727 15.2483 0.183001 15.1414 0.618948C15.0345 1.0545 15.301 1.49441 15.7368 1.60152C17.8892 2.12989 20.052 3.39807 21.8268 5.1728C23.6013 6.94754 24.8697 9.11062 25.3985 11.2634C25.4895 11.6339 25.8215 11.8818 26.1869 11.8818C26.2509 11.8818 26.3162 11.8743 26.3812 11.8584C26.817 11.7513 27.0834 11.3114 26.9765 10.8754C26.3779 8.43904 24.957 6.00543 22.9756 4.02403Z" fill="white"/>
<path d="M20.1034 6.89663C18.6389 5.4321 16.8814 4.39241 15.155 3.96836C14.7177 3.86165 14.2792 4.12782 14.1723 4.56377C14.0654 4.99933 14.3319 5.43924 14.7675 5.54634C16.2098 5.90058 17.6969 6.78794 18.9544 8.04541C20.2119 9.30327 21.0994 10.79 21.4537 12.2327C21.5447 12.6032 21.8767 12.8512 22.2421 12.8512C22.3061 12.8512 22.3714 12.8436 22.4365 12.8277C22.8722 12.7206 23.1386 12.2807 23.0317 11.8448C22.6076 10.1184 21.5677 8.36116 20.1034 6.89663Z" fill="white"/>
<path d="M10.1541 8.39246C10.8037 7.20878 10.5905 5.71489 9.63545 4.76009L7.37994 2.50458C6.80238 1.92702 6.03441 1.60889 5.21785 1.60889C4.40109 1.60889 3.63313 1.92702 3.05616 2.50419L2.63152 2.92863C2.38339 3.17695 2.18744 3.45066 2.0488 3.74301C-0.333053 8.76653 1.44128 15.7131 6.36385 20.6359C9.82308 24.0953 14.2813 25.9998 18.3703 25.9994C20.0996 25.9994 21.7635 25.6586 23.257 24.9506C23.5497 24.8117 23.824 24.6154 24.0713 24.3675L24.4954 23.9438C25.6872 22.7514 25.687 20.8116 24.4952 19.62L22.2395 17.3641C21.2851 16.4093 19.791 16.1963 18.6071 16.8453L15.2169 18.7053C14.7875 18.9409 14.2635 18.9445 13.8496 18.7124C12.7051 18.0734 11.6413 17.2657 10.6876 16.3121C9.73442 15.3589 8.92679 14.295 8.28715 13.1498C8.05588 12.7361 8.05866 12.2125 8.29429 11.7825L10.1541 8.39246Z" fill="white" stroke="#266B0C"/>
</svg>
