<svg width="16" height="26" viewBox="0 0 16 26" fill="none" xmlns="http://www.w3.org/2000/svg">
<g clip-path="url(#clip0_172:4801)">
<path d="M5.13415 7.995C5.40082 8.255 5.40082 8.658 5.13415 8.918C4.86749 9.178 4.45415 9.178 4.18749 8.918L0.187488 5.018C-0.0791789 4.758 -0.0791789 4.355 0.187488 4.095L4.18749 0.195C4.45415 -0.065 4.86749 -0.065 5.13415 0.195C5.40082 0.455 5.40082 0.858 5.13415 1.118L2.28082 3.9H4.66749C10.9208 3.9 16.0008 8.853 16.0008 14.95C16.0008 21.047 10.9208 26 4.66749 26C4.29415 26 4.00082 25.714 4.00082 25.35C4.00082 24.986 4.29415 24.7 4.66749 24.7C10.1875 24.7 14.6675 20.332 14.6675 14.95C14.6675 9.568 10.1875 5.2 4.66749 5.2H2.28082L5.13415 7.995Z" fill="white"/>
</g>
<defs>
<clipPath id="clip0_172:4801">
<rect width="16" height="26" fill="white"/>
</clipPath>
</defs>
</svg>
