<svg width="41" height="44" viewBox="0 0 41 44" fill="none" xmlns="http://www.w3.org/2000/svg">
<path d="M30.6663 31.8701C30.0425 32.494 30.0426 33.5092 30.6663 34.1329C31.2904 34.7569 32.3055 34.7571 32.9294 34.1332C33.5531 33.5095 33.5531 32.4942 32.9291 31.8701C32.3054 31.2464 31.2901 31.2464 30.6663 31.8701Z" fill="#266B0C"/>
<path d="M11.7685 3.08351L1.87964 12.9724C0.51717 14.3348 0.51717 16.5515 1.87964 17.914L24.29 40.3244C25.6523 41.6867 27.869 41.6867 29.2315 40.3242L39.1203 30.4354C40.483 29.0727 40.483 26.8561 39.1207 25.4937L16.7103 3.08336C15.3478 1.72089 13.1311 1.72089 11.7685 3.08351ZM7.12261 10.4115C6.99643 10.2853 6.99643 10.0799 7.12261 9.95371L8.75 8.32632C8.87627 8.20005 9.08158 8.20015 9.20776 8.32632L9.24578 8.36434C9.37195 8.49052 9.37205 8.69583 9.24578 8.82211L7.61839 10.4495C7.49221 10.5757 7.2868 10.5757 7.16063 10.4495L7.12261 10.4115ZM33.2398 34.4435C32.4448 35.2385 31.1513 35.2385 30.356 34.4432C29.5611 33.6483 29.5611 32.3547 30.356 31.5598C31.151 30.7648 32.4445 30.7648 33.2395 31.5598C34.0348 32.355 34.0348 33.6486 33.2398 34.4435ZM35.7459 23.1713C36.0448 23.4701 36.0448 23.9562 35.7459 24.2551L23.0513 36.9496C22.7525 37.2485 22.2664 37.2485 21.9676 36.9496L3.90281 18.8849C3.60398 18.5861 3.60398 18.0999 3.90281 17.8011L16.5974 5.10653C16.8962 4.8077 17.3823 4.8077 17.6812 5.10653L35.7459 23.1713Z" fill="#266B0C"/>
<path d="M14.3361 39.0749C7.26207 36.6931 2.38336 30.1326 2.19489 22.5956C2.1886 22.3444 1.98813 22.1426 1.7368 22.1426H0.46582C0.207175 22.1426 -0.00587289 22.3559 0.000123566 22.6145C0.20049 31.2546 5.8893 38.7617 14.0918 41.3064C14.1994 41.3398 14.2671 41.4452 14.2508 41.5567L14.0192 43.1429C13.9935 43.3188 14.1678 43.4565 14.3329 43.3908L19.6897 41.2596C19.8548 41.1939 19.8869 40.9742 19.7475 40.864L15.2239 37.2899C15.0845 37.1797 14.8781 37.2618 14.8524 37.4376L14.6408 38.8868C14.6199 39.0297 14.473 39.121 14.3361 39.0749Z" fill="#266B0C"/>
<path d="M26.7492 1.85079L26.9809 0.26451C27.0065 0.0886847 26.8322 -0.048999 26.6671 0.0166868L21.3103 2.14786C21.1453 2.21354 21.1132 2.43329 21.2526 2.54344L25.7761 6.11758C25.9155 6.22774 26.1219 6.14566 26.1476 5.96983L26.3592 4.52073C26.3801 4.37781 26.5271 4.2865 26.6639 4.33259C33.7378 6.71438 38.6167 13.2748 38.8051 20.8118C38.8114 21.0631 39.0119 21.2649 39.2632 21.2649H40.5342C40.7929 21.2649 41.0059 21.0515 40.9999 20.793C40.7995 12.1531 35.1107 4.64616 26.9082 2.1011C26.8006 2.0677 26.7329 1.96232 26.7492 1.85079Z" fill="#266B0C"/>
</svg>
