<svg width="1440" height="494" viewBox="0 0 1440 494" fill="none" xmlns="http://www.w3.org/2000/svg">
<path d="M1463.13 176.983C1468.67 151.023 1461.67 127.714 1446.62 106.134C1446.58 106.134 1446.54 106.134 1446.49 106.094C1445.95 103.562 1444.48 101.593 1442.35 100.026C1441.05 97.4938 1439.75 94.962 1436.85 93.676C1430.78 87.7283 1426.42 80.2536 1418.92 75.5919C1413.55 70.6489 1407.35 66.9919 1400.26 64.7414C1394.31 61.1246 1387.69 59.4769 1380.82 59.2358C1356.76 58.4321 1333.12 61.5265 1310.44 69.1218C1267.98 83.348 1224.94 95.2433 1180.38 101.834C1169.27 102.316 1158.21 101.673 1147.19 100.387C1129.92 98.3779 1112.61 96.6096 1095.34 94.7209C1095.04 94.4797 1094.75 94.4797 1094.46 94.6405C1093.79 94.319 1093.12 94.0779 1092.4 93.9171C1088.09 92.4302 1083.6 91.9078 1079.03 91.5863L1079.07 91.6666C1078.61 91.3452 1078.15 91.1442 1077.65 90.9835C1074.76 89.6975 1071.61 89.3358 1068.47 89.1349C1068.22 88.8938 1067.93 88.8536 1067.59 89.0143C1064.66 87.2863 1061.34 86.7639 1057.99 86.5629C1057.78 86.3218 1057.53 86.3218 1057.28 86.4825C1054.85 84.7545 1052.08 84.2321 1049.15 84.1919C1049.19 84.2321 1049.19 84.2321 1049.23 84.2321C1044.03 81.7405 1038.54 80.2937 1032.8 79.6106C1033.51 79.9722 1034.23 80.3339 1034.9 80.7358C1034.14 80.5751 1033.47 80.2938 1032.88 79.6909H1032.93C1032.88 79.6508 1032.84 79.6508 1032.8 79.6106C1032.47 79.3694 1032.13 79.2087 1031.8 79.048C1029.36 77.762 1026.68 77.3199 1023.87 77.1993C1023.87 77.1993 1023.92 77.1994 1023.92 77.2395C1023.58 76.9984 1023.2 76.8377 1022.83 76.6769C1020.39 75.4713 1017.71 74.9891 1014.95 74.8685L1014.99 74.9087C1014.48 74.5872 1013.94 74.3863 1013.35 74.2255C1010.04 72.8592 1006.56 72.2966 1002.96 72.176C1003 72.2162 1003.04 72.2162 1003.08 72.2564C1002.75 72.0152 1002.37 71.8143 1001.95 71.6937C999.479 70.448 996.797 70.0461 993.988 69.9657C994.366 70.2872 994.743 70.448 995.162 70.6489C994.743 70.4881 994.366 70.247 993.988 69.9657C993.653 69.7246 993.318 69.6442 992.94 69.805C992.437 69.4835 991.893 69.2825 991.348 69.162C988.372 67.9564 985.228 67.4339 981.959 67.233C981.749 66.9919 981.498 66.9517 981.246 67.1526C978.773 65.505 976.007 65.0629 973.073 64.9423C973.409 65.2237 973.786 65.3844 974.121 65.5853C973.744 65.4246 973.409 65.2237 973.073 64.9423C972.78 64.7012 972.444 64.6209 972.109 64.7816C971.732 64.5405 971.355 64.3395 970.936 64.219C968.337 62.9732 965.57 62.4106 962.678 62.29C962.427 62.1293 962.217 61.9685 961.966 61.8881C959.912 60.7227 957.607 60.4414 955.26 60.2807C955.595 60.562 955.93 60.7227 956.266 60.9236C955.93 60.7629 955.553 60.562 955.26 60.2807C954.924 60.0395 954.547 59.9592 954.17 60.0395C953.625 59.718 953.08 59.5171 952.535 59.3564C949.14 57.99 945.536 57.5078 941.847 57.2265C939.668 56.6236 937.53 55.7395 935.35 55.3779C869.252 44.6078 802.776 39.4638 735.713 41.7545C708.007 42.719 681.098 39.6648 655.908 27.6489C653.686 26.5638 651.172 25.961 648.824 25.1573C633.442 17.3208 617.137 11.5339 599.701 12.1769C579.037 12.9405 558.625 16.9993 538.464 21.5405C532.387 21.9021 526.519 23.2685 520.944 25.6395C504.472 28.8143 488.251 32.9535 472.449 38.4592C454.175 44.1255 435.816 49.6311 416.871 52.9265C416.368 52.9666 415.823 53.047 415.32 53.2479C403.081 53.7704 390.8 54.2928 378.561 54.7751C376.969 54.6545 375.376 54.6143 373.783 54.976C361.418 53.8909 349.095 52.4442 336.689 51.8816C326.294 51.3993 317.157 48.4255 308.061 43.4423C287.188 31.9891 265.854 21.018 242.633 14.5881C205.623 4.46102 167.691 -0.0399203 129.213 0.000266633C89.772 0.0404536 53.3904 10.5292 21.7451 32.9535C-2.77474 50.3143 -24.1091 71.2115 -41.6293 95.404C-49.0062 105.571 -56.7603 115.497 -64.2211 125.625C-80.4 147.607 -92.0521 171.799 -101.986 196.836C-104.249 199.89 -105.632 203.306 -106.177 207.003C-108.818 210.821 -109.824 215.161 -110.62 219.582C-110.872 219.943 -111.081 220.305 -111.207 220.707C-112.464 223.078 -112.925 225.69 -113.051 228.342C-112.674 227.659 -112.339 226.936 -111.961 226.253C-112.087 227.056 -112.255 227.86 -113.051 228.342C-113.261 228.664 -113.345 229.026 -113.261 229.427C-118.752 247.512 -121.224 265.957 -120.68 284.765C-121.518 290.11 -122.063 295.495 -120.973 300.88C-121.602 305.3 -121.895 309.761 -120.721 314.142C-121.183 316.633 -121.266 319.125 -120.26 321.576C-120.554 324.55 -120.763 327.524 -119.548 330.377C-119.967 335.4 -119.422 340.303 -118.081 345.166C-117.62 345.568 -117.494 346.09 -117.452 346.613C-117.662 346.13 -117.871 345.648 -118.081 345.166C-117.326 362.687 -113.638 379.646 -108.315 396.364C-106.01 411.434 -103.034 426.343 -99.3871 441.132C-98.0878 450.496 -96.9142 459.859 -95.4472 469.223C-94.3993 475.814 -91.5072 481.681 -86.8128 486.744C-79.1006 495.023 -70.8016 495.827 -61.329 489.598C-45.192 478.948 -41.8808 462.713 -39.9108 445.754C-38.8629 444.87 -37.857 443.945 -36.8091 443.061C-37.3959 449.371 -36.3062 455.64 -34.7553 461.668C-33.0788 468.057 -28.6778 472.277 -21.3847 472.438C-14.5946 472.558 -11.9121 467.856 -10.0678 462.552C-9.52295 460.985 -9.3972 459.257 -9.06188 457.609C-7.21765 454.876 -7.00808 451.701 -6.63085 448.607C-5.08002 434.702 -3.65494 420.838 -2.02028 406.933C-1.72688 404.321 -2.73283 400.785 1.62625 399.981C11.9372 410.108 25.6431 411.032 37.421 400.624C58.6716 381.856 72.3356 358.91 74.9762 330.739C77.533 323.626 79.4611 316.111 86.335 311.328C95.3885 309.761 104.526 307.591 112.028 315.267C114.124 318.924 116.22 322.581 118.316 326.238C119.322 330.739 120.369 335.24 121.375 339.7C119.908 352.842 118.357 365.983 120.202 379.204C119.447 383.625 119.531 388.005 120.579 392.385C120.495 399.941 121.543 407.375 122.717 414.81C123.429 419.15 124.687 423.329 127.159 427.107C133.279 436.35 149.625 445.432 157.715 443.302C171.211 439.685 173.978 428.634 175.948 417.301C180.349 402.673 184.372 387.925 186.803 372.855C189.486 356.338 197.953 343.599 212.413 334.436C222.934 332.346 233.58 332.869 244.226 332.869C250.513 332.869 253.321 335.119 253.154 341.549C252.944 349.305 253.657 357.101 254.202 364.857C254.663 371.85 258.225 377.074 265.393 378.883C273.105 380.852 277.003 375.467 280.356 370.162C282.2 367.269 283.458 364.054 284.757 360.879C285.973 357.905 287.314 356.137 290.793 358.628C296.409 362.567 302.738 363.853 309.528 362.366C312.379 361.723 314.516 362.285 315.522 365.179C320.887 380.651 341.467 380.771 348.383 365.34C352.994 360.316 355.131 354.087 357.017 347.858C361.879 332.065 362.76 315.628 364.604 299.393C364.31 299.835 364.059 300.277 363.765 300.639C363.933 300.156 364.143 299.674 364.604 299.393C366.993 291.235 369.843 283.157 371.771 274.879C378.268 246.467 397.465 232.683 426.721 230.07C427.475 229.99 428.23 229.869 428.984 229.749C446.462 227.699 450.109 229.588 457.402 244.739C458.576 247.15 459.749 249.561 460.881 252.012C462.557 256.554 463.102 261.497 466.162 265.556C467 267.123 467.839 268.73 468.677 270.298C469.096 270.9 469.515 271.503 469.934 272.106C478.946 282.434 491.352 284.926 504.43 285.89C514.741 286.654 515.537 287.578 516.417 297.705C516.878 303.01 517.172 308.314 519.142 313.378C520.064 321.295 521.279 329.171 525.848 336.124C526.854 339.258 528.572 341.951 531.339 343.92C540.77 354.931 551.667 358.709 562.271 354.65C566.211 353.967 569.229 351.636 571.493 348.823C578.828 339.7 584.779 329.734 589.055 318.924C592.911 311.489 596.767 304.014 600.623 296.58L600.581 296.54C603.808 293.043 605.527 288.743 607.413 284.604C611.856 274.879 618.101 266.761 627.825 261.336C640.735 258.483 651.633 262.501 661.399 270.418C670.494 279.46 679.464 288.663 688.685 297.585C698.032 306.586 708.594 314.061 720.665 319.326C737.976 326.881 756.083 330.337 775.154 327.363C786.932 327.122 797.788 323.947 806.506 316.352C819.457 305.099 833.415 300.478 850.767 306.104C858.186 308.515 865.856 307.028 871.012 300.076C877.048 293.606 884.383 291.155 893.31 293.445C895.238 293.927 897.292 293.968 899.304 294.169C904.669 298.388 911.04 301.362 915.86 306.265C931.159 327.926 952.409 340.585 979.235 344.764C988.54 347.617 997.844 348.541 1007.11 344.563C1019.1 341.549 1020.14 341.951 1027.65 351.676C1029.41 353.967 1031.33 356.177 1033.22 358.428C1035.44 361.642 1038.12 364.456 1041.56 366.545C1057.45 380.771 1076.64 382.861 1098.98 372.774C1116.13 370.242 1131.93 364.174 1146.85 355.896C1149.41 355.132 1151.75 354.047 1153.09 351.676C1154.31 350.712 1155.48 349.787 1156.7 348.823C1163.07 344.242 1169.69 340.745 1178.16 342.594C1181.3 343.277 1184.66 343.197 1187.88 343.438C1194.25 345.327 1200.75 346.492 1207.37 346.854C1211.23 348.341 1215.09 349.868 1218.94 351.355C1218.15 360.276 1217.31 369.238 1216.51 378.159C1215.92 384.75 1216.01 391.341 1218.82 397.489C1221.33 403.035 1225.06 407.737 1231.94 408.259C1238.56 408.741 1243.08 405.044 1245.81 399.86C1248.62 394.475 1250.42 396.685 1253.06 399.82C1258.43 406.21 1264.75 411.273 1273.72 412.198C1275.23 412.358 1276.74 412.519 1278.25 412.68C1278.63 412.399 1279.05 412.278 1279.47 412.198C1279.05 412.318 1278.67 412.439 1278.25 412.68C1280.81 413.162 1283.36 413.604 1285.67 411.916C1288.23 410.349 1290.78 408.822 1293.26 407.174C1301.81 401.628 1309.56 394.837 1319.54 391.461C1322.81 390.376 1326.08 388.166 1329.26 391.582C1329.26 392.466 1329.22 393.31 1329.22 394.194C1328.8 404.08 1328.17 413.926 1328 423.812C1327.92 430.322 1330.69 436.069 1335.09 440.971C1341.71 448.366 1350.68 446.799 1353.49 437.515C1355.29 431.528 1356 425.218 1357.22 419.07C1358.31 419.11 1359.4 419.15 1360.49 419.15C1369.5 425.339 1381.11 423.892 1386.73 415.252C1391.63 407.697 1395.65 399.659 1397.04 390.657C1397.25 390.296 1397.29 389.934 1397.25 389.532C1400.14 382.942 1399.8 375.869 1400.64 368.956C1401.94 363.772 1405.5 361.16 1410.66 359.151C1421.22 355.092 1431.11 349.827 1437.73 340.384C1449.85 329.613 1448.72 315.628 1447.88 301.724C1447.84 295.213 1448.72 288.703 1447.17 282.273C1447.25 281.871 1447.21 281.51 1447.04 281.148C1447.17 278.054 1446.75 275.08 1444.94 272.427C1442.76 268.971 1445.53 264.872 1443.31 261.416C1442.35 254.183 1442.93 247.029 1443.69 239.836C1443.43 240.8 1443.1 241.684 1442.72 242.528C1442.81 241.564 1442.97 240.64 1443.64 239.836C1445.53 232.602 1449.89 226.132 1451.02 218.657C1453.12 215.081 1454.33 211.183 1454.92 207.164C1459.49 197.479 1462.51 187.553 1463.13 176.983ZM81.1376 287.337C81.1376 287.337 81.1376 287.377 81.1795 287.377C81.1795 287.417 81.1795 287.417 81.1795 287.417C81.1795 287.417 81.1376 287.377 81.1376 287.337ZM1096.89 95.7255C1096.34 95.5648 1095.8 95.2835 1095.34 94.7209C1095.84 95.1629 1096.34 95.4844 1096.89 95.7255ZM1049.23 84.3124C1049.57 84.5937 1049.94 84.7947 1050.28 84.9956C1049.9 84.8349 1049.57 84.6339 1049.23 84.3124Z" fill="#EBECF8"/>
</svg>
