<svg width="40" height="41" viewBox="0 0 40 41" fill="none" xmlns="http://www.w3.org/2000/svg">
<circle cx="20.001" cy="20.417" r="20" fill="#266B0C"/>
<path d="M31.8684 26.2986C31.8381 26.2333 31.8099 26.1792 31.7837 26.1359C31.3499 25.3547 30.5211 24.3958 29.2975 23.259L29.2717 23.233L29.2587 23.2202L29.2457 23.2071H29.2325C28.6772 22.6778 28.3256 22.3219 28.1783 22.1396C27.9089 21.7925 27.8485 21.4411 27.9958 21.0851C28.0998 20.8161 28.4906 20.2481 29.1673 19.3802C29.5232 18.9202 29.8051 18.5516 30.0133 18.2738C31.5146 16.2779 32.1655 15.0024 31.9658 14.447L31.8883 14.3172C31.8362 14.2391 31.7017 14.1676 31.485 14.1024C31.2678 14.0373 30.9902 14.0266 30.6517 14.0699L26.903 14.0958C26.8423 14.0743 26.7556 14.0763 26.6426 14.1024C26.5298 14.1285 26.4733 14.1415 26.4733 14.1415L26.4081 14.1741L26.3563 14.2133C26.3129 14.2392 26.2652 14.2847 26.2131 14.3498C26.1612 14.4147 26.1179 14.4909 26.0832 14.5776C25.6751 15.6276 25.2111 16.6038 24.6903 17.5063C24.3692 18.0444 24.0743 18.5107 23.805 18.9056C23.5361 19.3003 23.3104 19.5911 23.1284 19.7775C22.946 19.9641 22.7814 20.1136 22.6336 20.2266C22.486 20.3395 22.3734 20.3873 22.2954 20.3698C22.2172 20.3523 22.1436 20.335 22.0739 20.3177C21.9524 20.2396 21.8548 20.1333 21.7812 19.9988C21.7072 19.8643 21.6574 19.695 21.6314 19.4911C21.6055 19.287 21.5902 19.1115 21.5858 18.9639C21.5817 18.8165 21.5836 18.6081 21.5924 18.3391C21.6014 18.0699 21.6055 17.8879 21.6055 17.7924C21.6055 17.4626 21.6119 17.1047 21.6248 16.7185C21.638 16.3324 21.6486 16.0264 21.6575 15.801C21.6663 15.5754 21.6704 15.3367 21.6704 15.085C21.6704 14.8333 21.6551 14.636 21.6248 14.4927C21.5949 14.3497 21.549 14.2108 21.4885 14.0762C21.4277 13.9417 21.3386 13.8376 21.2217 13.7638C21.1046 13.69 20.9589 13.6315 20.7856 13.588C20.3257 13.4839 19.74 13.4276 19.0283 13.4188C17.4143 13.4015 16.3773 13.5057 15.9173 13.7314C15.7351 13.8267 15.5702 13.9569 15.4228 14.1217C15.2665 14.3127 15.2448 14.4169 15.3575 14.4341C15.8783 14.5121 16.2469 14.6987 16.4639 14.9937L16.5421 15.15C16.6029 15.2628 16.6636 15.4625 16.7244 15.7488C16.7851 16.0351 16.8242 16.3518 16.8415 16.6988C16.8848 17.3323 16.8848 17.8747 16.8415 18.3258C16.798 18.7772 16.757 19.1286 16.7178 19.3802C16.6787 19.6319 16.6201 19.8358 16.5421 19.992C16.4639 20.1481 16.4119 20.2436 16.3858 20.2783C16.3598 20.3129 16.3381 20.3347 16.3208 20.3433C16.208 20.3865 16.0907 20.4086 15.9693 20.4086C15.8477 20.4086 15.7003 20.3477 15.5268 20.2262C15.3533 20.1047 15.1733 19.9377 14.9867 19.7251C14.8001 19.5124 14.5896 19.2152 14.3552 18.8334C14.121 18.4516 13.878 18.0004 13.6264 17.4798L13.4182 17.1022C13.288 16.8593 13.1102 16.5056 12.8846 16.0414C12.6588 15.5771 12.4593 15.1279 12.2858 14.6941C12.2164 14.5118 12.1123 14.3731 11.9734 14.2776L11.9083 14.2385C11.865 14.2038 11.7955 14.167 11.7001 14.1278C11.6046 14.0887 11.5049 14.0606 11.4007 14.0433L7.83419 14.0692C7.46974 14.0692 7.22246 14.1518 7.09225 14.3167L7.04014 14.3947C7.01411 14.4381 7.00098 14.5075 7.00098 14.603C7.00098 14.6985 7.02701 14.8156 7.07912 14.9544C7.59976 16.178 8.16595 17.3581 8.77769 18.4949C9.38942 19.6317 9.92101 20.5473 10.3721 21.2411C10.8233 21.9354 11.2833 22.5907 11.7519 23.2066C12.2205 23.8228 12.5307 24.2177 12.6825 24.3911C12.8344 24.5649 12.9538 24.6948 13.0405 24.7816L13.366 25.0939C13.5743 25.3022 13.8801 25.5517 14.2836 25.8424C14.6872 26.1332 15.1341 26.4195 15.6243 26.7017C16.1147 26.9835 16.6852 27.2135 17.3361 27.3913C17.9869 27.5694 18.6203 27.6408 19.2365 27.6064H20.7334C21.037 27.5801 21.267 27.4847 21.4233 27.3199L21.4751 27.2547C21.5099 27.2029 21.5425 27.1224 21.5726 27.0141C21.6031 26.9057 21.6182 26.7862 21.6182 26.6562C21.6093 26.2831 21.6377 25.9469 21.7027 25.6476C21.7675 25.3483 21.8415 25.1227 21.9242 24.9707C22.0068 24.8189 22.1001 24.6908 22.2039 24.5869C22.308 24.4829 22.3821 24.4198 22.4256 24.3981C22.4688 24.3763 22.5033 24.3614 22.5293 24.3526C22.7376 24.2832 22.9827 24.3504 23.265 24.5545C23.5471 24.7584 23.8116 25.0102 24.0591 25.3095C24.3064 25.609 24.6036 25.945 24.9506 26.3181C25.2979 26.6913 25.6015 26.9687 25.8617 27.1512L26.122 27.3074C26.2958 27.4116 26.5214 27.5071 26.7991 27.5939C27.0764 27.6806 27.3193 27.7023 27.5278 27.6589L30.8599 27.6069C31.1895 27.6069 31.4459 27.5524 31.6279 27.4441C31.8101 27.3356 31.9184 27.2161 31.9533 27.0862C31.9882 26.956 31.99 26.8084 31.9599 26.6434C31.9291 26.4788 31.8987 26.3636 31.8684 26.2986Z" fill="white"/>
</svg>
