<svg width="40" height="24" viewBox="0 0 40 24" fill="none" xmlns="http://www.w3.org/2000/svg">
<path d="M33.1917 13.7134C32.545 12.8967 32.73 12.5334 33.1917 11.8034C33.2 11.795 38.5383 4.41837 39.0883 1.91671L39.0917 1.91504C39.365 1.00337 39.0917 0.333374 37.77 0.333374H33.3967C32.2833 0.333374 31.77 0.908374 31.495 1.55171C31.495 1.55171 29.2683 6.88171 26.1183 10.3367C25.1017 11.335 24.6317 11.655 24.0767 11.655C23.8033 11.655 23.3783 11.335 23.3783 10.4234V1.91504C23.3783 0.821707 23.0667 0.333374 22.145 0.333374H15.2683C14.57 0.333374 14.155 0.843374 14.155 1.31837C14.155 2.35504 15.73 2.59337 15.8933 5.51004V11.8384C15.8933 13.225 15.6417 13.48 15.0833 13.48C13.5967 13.48 9.98833 8.12837 7.85 2.00337C7.41833 0.81504 6.99667 0.335041 5.875 0.335041H1.5C0.251667 0.335041 0 0.91004 0 1.55337C0 2.69004 1.48667 8.34171 6.91333 15.8084C10.53 20.905 15.6233 23.6667 20.2567 23.6667C23.0417 23.6667 23.3817 23.0534 23.3817 21.9984C23.3817 17.1284 23.13 16.6684 24.525 16.6684C25.1717 16.6684 26.285 16.9884 28.885 19.4467C31.8567 22.3617 32.345 23.6667 34.0083 23.6667H38.3817C39.6283 23.6667 40.26 23.0534 39.8967 21.8434C39.065 19.2984 33.445 14.0634 33.1917 13.7134Z" fill="#0456D0"/>
</svg>
