<svg width="30" height="30" viewBox="0 0 30 30" fill="none" xmlns="http://www.w3.org/2000/svg">
<path d="M30 15.0914C30 6.75575 23.2852 0 15 0C6.71484 0 0 6.75575 0 15.0914C0 22.6253 5.48438 28.8681 12.6562 30V19.4537H8.84766V15.0914H12.6562V11.7666C12.6562 7.98192 14.8945 5.89507 18.3223 5.89507C19.9629 5.89507 21.6797 6.18982 21.6797 6.18982V9.90371H19.7871C17.9238 9.90371 17.3438 11.065 17.3438 12.2617V15.0914H21.5039L20.8359 19.4537H17.3438V30C24.5156 28.8681 30 22.6253 30 15.0914Z" fill="#1877F2"/>
<path d="M20.8359 19.3359L21.5039 15H17.3437V12.1875C17.3437 10.998 17.9238 9.84375 19.7871 9.84375H21.6797V6.15234C21.6797 6.15234 19.9629 5.85938 18.3223 5.85938C14.8945 5.85938 12.6562 7.93359 12.6562 11.6953V15H8.84766V19.3359H12.6562V29.8184C14.209 30.0586 15.791 30.0586 17.3437 29.8184V19.3359H20.8359Z" fill="white"/>
</svg>
