<svg width="80" height="80" viewBox="0 0 80 80" fill="none" xmlns="http://www.w3.org/2000/svg">
<g clip-path="url(#clip0)">
<path d="M68.9062 22.5352V76.7806C68.9062 78.5594 67.4689 80 65.6944 80H14.3056C12.5311 80 11.0938 78.5594 11.0938 76.7806V3.21938C11.0938 1.44063 12.5311 0 14.3056 0H46.4238L68.9062 22.5352Z" fill="#BDE1FF"/>
<path d="M64.0886 17.7063V76.7807C64.0886 78.5593 62.6512 80 60.8767 80H65.6944C67.4689 80 68.9062 78.5594 68.9062 76.7807V22.5352L64.0886 17.7063Z" fill="#444B8C"/>
<path d="M68.9062 22.5352H49.6355C47.8616 22.5352 46.4236 21.0938 46.4236 19.3158V0L68.9062 22.5352Z" fill="#4770A3"/>
<path d="M24.3865 39.0343C25.72 39.0343 26.801 37.9532 26.801 36.6197C26.801 35.2862 25.72 34.2052 24.3865 34.2052C23.0529 34.2052 21.9719 35.2862 21.9719 36.6197C21.9719 37.9532 23.0529 39.0343 24.3865 39.0343Z" fill="#FFC444"/>
<path d="M55.614 39.0343H35.3323C33.9988 39.0343 32.9177 37.9533 32.9177 36.6197C32.9177 35.2863 33.9987 34.2052 35.3323 34.2052H55.614C56.9474 34.2052 58.0285 35.2861 58.0285 36.6197C58.0284 37.9532 56.9474 39.0343 55.614 39.0343Z" fill="#FAFAFA"/>
<path d="M24.3865 48.6922C25.72 48.6922 26.801 47.6112 26.801 46.2777C26.801 44.9442 25.72 43.8632 24.3865 43.8632C23.0529 43.8632 21.9719 44.9442 21.9719 46.2777C21.9719 47.6112 23.0529 48.6922 24.3865 48.6922Z" fill="#FFC444"/>
<path d="M55.614 48.6922H35.3323C33.9988 48.6922 32.9177 47.6113 32.9177 46.2777C32.9177 44.9443 33.9987 43.8632 35.3323 43.8632H55.614C56.9474 43.8632 58.0285 44.9441 58.0285 46.2777C58.0284 47.6111 56.9474 48.6922 55.614 48.6922Z" fill="#FAFAFA"/>
<path d="M24.3865 58.3503C25.72 58.3503 26.801 57.2693 26.801 55.9358C26.801 54.6023 25.72 53.5212 24.3865 53.5212C23.0529 53.5212 21.9719 54.6023 21.9719 55.9358C21.9719 57.2693 23.0529 58.3503 24.3865 58.3503Z" fill="#FFC444"/>
<path d="M55.614 58.3503H35.3323C33.9988 58.3503 32.9177 57.2694 32.9177 55.9358C32.9177 54.6023 33.9987 53.5212 35.3323 53.5212H55.614C56.9474 53.5212 58.0285 54.6022 58.0285 55.9358C58.0284 57.2692 56.9474 58.3503 55.614 58.3503Z" fill="#FAFAFA"/>
</g>
<defs>
<clipPath id="clip0">
<rect width="80" height="80" fill="white"/>
</clipPath>
</defs>
</svg>
