<svg width="160" height="44" viewBox="0 0 160 44" fill="none" xmlns="http://www.w3.org/2000/svg">
<path d="M10.322 17.5845L23.6046 17.4641C23.7922 17.4625 23.9765 17.514 24.136 17.6126C24.2955 17.7112 24.4236 17.8529 24.5055 18.0212C24.5874 18.1895 24.6196 18.3775 24.5986 18.5633C24.5775 18.7492 24.5039 18.9252 24.3864 19.0711L4.5799 43.6342C4.48689 43.7494 4.36913 43.8423 4.23532 43.9061C4.1015 43.9698 3.95503 44.0029 3.80669 44.0028H3.40236C3.24884 44.0034 3.09728 43.9684 2.95962 43.9007C2.82196 43.8329 2.70196 43.7343 2.60907 43.6125C2.51619 43.4907 2.45295 43.349 2.42435 43.1987C2.39574 43.0484 2.40255 42.8935 2.44423 42.7463L9.37247 18.3034C9.43135 18.0973 9.55574 17.9158 9.72695 17.7862C9.89816 17.6566 10.107 17.5858 10.322 17.5845Z" fill="url(#paint0_linear)"/>
<path d="M0.0378626 24.9308L6.78501 0.723738C6.84287 0.51558 6.96763 0.332073 7.14017 0.201348C7.31272 0.0706223 7.52352 -0.000107696 7.74027 1.23085e-07H23.3415C23.5225 6.418e-05 23.7 0.0495054 23.8549 0.142964C24.0097 0.236423 24.1359 0.370334 24.2198 0.530181C24.3037 0.690028 24.3421 0.869712 24.3308 1.04976C24.3196 1.2298 24.2591 1.40333 24.1559 1.55155L7.29282 25.7576C7.20174 25.8889 7.08004 25.9961 6.93818 26.0701C6.79632 26.1441 6.63854 26.1827 6.47841 26.1825H0.993118C0.84037 26.1824 0.689705 26.1472 0.552872 26.0795C0.41604 26.0119 0.29674 25.9136 0.204278 25.7925C0.111815 25.6713 0.0486884 25.5305 0.0198221 25.381C-0.00904429 25.2316 -0.00287028 25.0775 0.0378626 24.9308Z" fill="url(#paint1_linear)"/>
<path d="M46.5565 27.8945V33.3522H43.1723V30.8449H33.1934V17.4414H36.5948V27.8945H41.5062V17.4414H44.9075V27.8945H46.5565Z" fill="#084C94"/>
<path d="M55.9098 20.3917H51.8665V22.6288H55.6846V25.5801H51.8665V27.8917H55.9098V30.842H48.4651V17.4414H55.9098V20.3917Z" fill="#084C94"/>
<path d="M61.7581 22.6145H66.6694V17.4414H70.0708V30.8449H66.6694V25.3166H61.7581V30.8449H58.3567V17.4414H61.7581V22.6145Z" fill="#084C94"/>
<path d="M77.776 20.3917V30.8449H74.3746V20.3917H71.5798V17.4414H80.5699V20.3917H77.776Z" fill="#084C94"/>
<path d="M85.4805 30.8449H82.0791V17.4414H87.4945C88.9636 17.4414 90.0885 17.8322 90.869 18.6139C91.6496 19.3956 92.0402 20.498 92.0408 21.9213C92.0408 23.3427 91.6502 24.4449 90.869 25.2278C90.0878 26.0107 88.963 26.4019 87.4945 26.4012H85.4824L85.4805 30.8449ZM85.4805 23.5884H86.6092C87.8586 23.5884 88.4833 23.0314 88.4833 21.9175C88.4833 20.8036 87.8586 20.2463 86.6092 20.2457H85.4805V23.5884Z" fill="#084C94"/>
<path d="M101.134 28.5161H96.2748L95.4939 30.8449H91.8674L96.8497 17.4414H100.563L105.546 30.8449H101.918L101.134 28.5161ZM100.232 25.8675L98.7046 21.4057L97.1773 25.8675H100.232Z" fill="#084C94"/>
<path d="M106.323 28.1963C106.374 28.209 106.426 28.2151 106.479 28.2144C107.139 28.2144 107.469 27.6988 107.469 26.6676V17.4414H118.176V30.8449H114.774V20.3917H110.856V26.7211C110.863 27.3383 110.763 27.9521 110.561 28.5352C110.375 29.0611 110.086 29.5446 109.71 29.9569C109.337 30.3626 108.879 30.6814 108.368 30.8907C107.803 31.1168 107.198 31.2284 106.589 31.2192H106.328L106.323 28.1963Z" fill="#084C94"/>
<path d="M126.856 21.9032C128.303 21.9032 129.402 22.2826 130.154 23.0413C130.906 23.8001 131.282 24.92 131.282 26.4012C131.291 27.0238 131.191 27.6431 130.987 28.2316C130.806 28.7543 130.511 29.2308 130.125 29.6275C129.721 30.0262 129.235 30.3325 128.701 30.525C128.072 30.749 127.408 30.8574 126.74 30.8449H120.916V17.4414H124.317V21.9032H126.856ZM124.323 28.0368H125.868C127.105 28.0368 127.724 27.4795 127.724 26.365C127.724 25.7844 127.577 25.3608 127.282 25.0941C126.987 24.8274 126.51 24.6941 125.85 24.6941H124.323V28.0368Z" fill="#084C94"/>
<path d="M136.485 22.6145H141.395V17.4414H144.797V30.8449H141.395V25.3166H136.485V30.8449H133.084V17.4414H136.486L136.485 22.6145Z" fill="#084C94"/>
<path d="M155.556 28.5161H150.698L149.917 30.8449H146.289L151.271 17.4414H154.985L159.967 30.8449H156.34L155.556 28.5161ZM154.654 25.8675L153.126 21.4057L151.599 25.8675H154.654Z" fill="#084C94"/>
<path d="M33.1799 13.4044V6.77905H37.432V7.63837H34.2051V9.65682H37.2117V10.5161H34.2051V12.5441H37.4732V13.4034L33.1799 13.4044Z" fill="#084C94"/>
<path d="M39.176 13.4044V6.77905H40.1993V9.65777H43.5796V6.77905H44.6067V13.4034H43.5796V10.5161H40.1993V13.4044H39.176Z" fill="#084C94"/>
<path d="M46.4692 13.4044V6.77905H50.7214V7.63837H47.4925V9.65682H50.4991V10.5161H47.4925V12.5441H50.7607V13.4034L46.4692 13.4044Z" fill="#084C94"/>
<path d="M52.4653 13.4044V6.77905H54.8826C55.4058 6.77905 55.8424 6.87453 56.1924 7.06549C56.5237 7.23621 56.7958 7.50237 56.9733 7.82933C57.1497 8.16713 57.238 8.54375 57.2301 8.92449C57.2384 9.30629 57.1498 9.68401 56.9723 10.0225C56.7936 10.3509 56.5207 10.6189 56.1886 10.7921C55.8404 10.983 55.4039 11.0785 54.8788 11.0785H53.4886V13.4073L52.4653 13.4044ZM53.4886 10.2278H54.7868C55.2882 10.2278 55.6495 10.1049 55.8705 9.85924C56.0973 9.60173 56.2154 9.26679 56.2001 8.92449C56.2149 8.58555 56.0962 8.25426 55.8695 8.0012C55.6466 7.75931 55.2812 7.63837 54.7734 7.63837H53.4886V10.2278Z" fill="#084C94"/>
<path d="M63.0265 6.77905V7.63837H59.8216V13.4025H58.7983V6.77905H63.0265Z" fill="#084C94"/>
<path d="M64.5559 13.4044V6.77905H68.8071V7.63837H65.5782V9.65682H68.5858V10.5161H65.5782V12.5441H68.8474V13.4034L64.5559 13.4044Z" fill="#084C94"/>
<path d="M70.2166 7.63837V6.77905H75.4653V7.63837H73.3487V13.4025H72.3293V7.63837H70.2166Z" fill="#084C94"/>
<path d="M78.007 6.77905V11.6485H78.0692L81.5185 6.78383H82.4661V13.4082H81.4409V8.54639H81.3777L77.9284 13.4044H76.9875V6.77905H78.007Z" fill="#084C94"/>
<path d="M84.4658 6.77905H85.4757V8.96554C85.4757 9.4213 85.5967 9.73575 85.8388 9.90888C86.0809 10.082 86.4223 10.1686 86.8631 10.1686C87.1556 10.1678 87.4477 10.149 87.7378 10.1123C88.017 10.0783 88.2935 10.026 88.5657 9.95567V6.77905H89.5784V13.4034H88.5657V10.8102C88.3066 10.8801 88.0432 10.933 87.7771 10.9687C87.4741 11.009 87.1687 11.0285 86.8631 11.027C86.1215 11.027 85.5361 10.8678 85.1068 10.5496C84.6776 10.2313 84.4639 9.70297 84.4658 8.96459V6.77905Z" fill="#084C94"/>
<path d="M91.5205 13.4044V6.77905H92.5438V9.65777H95.9251V6.77905H96.9512V13.4034H95.9251V10.5161H92.5438V13.4044H91.5205Z" fill="#084C94"/>
<path d="M99.3877 13.4044H98.304L100.742 6.77905H101.924L104.364 13.4034H103.279L102.659 11.6485H100.01L99.3877 13.4044ZM100.309 10.8102H102.361L101.361 7.98305H101.308L100.309 10.8102Z" fill="#084C94"/>
<path d="M112.574 13.4044L110.281 10.435H109.578V13.4044H108.556V6.77905H109.579V9.57661H109.931L112.571 6.77905H113.839L111.024 9.77426L113.822 13.4025L112.574 13.4044Z" fill="#084C94"/>
<path d="M120.752 10.0922C120.752 10.7968 120.62 11.4038 120.355 11.913C120.111 12.3986 119.734 12.8053 119.267 13.0855C118.788 13.3541 118.247 13.4952 117.697 13.4952C117.147 13.4952 116.607 13.3541 116.127 13.0855C115.66 12.8058 115.283 12.399 115.04 11.913C114.775 11.4038 114.642 10.7968 114.642 10.0922C114.642 9.38754 114.775 8.77997 115.04 8.26947C115.283 7.78446 115.659 7.37842 116.125 7.09889C116.605 6.8303 117.145 6.68921 117.695 6.68921C118.245 6.68921 118.786 6.8303 119.265 7.09889C119.732 7.3786 120.109 7.78453 120.353 8.26947C120.618 8.77743 120.751 9.385 120.752 10.0922ZM119.738 10.0922C119.753 9.62361 119.662 9.15781 119.472 8.72873C119.316 8.38417 119.063 8.09202 118.744 7.88755C118.427 7.70011 118.066 7.60117 117.698 7.60117C117.33 7.60117 116.969 7.70011 116.652 7.88755C116.334 8.09237 116.081 8.38444 115.925 8.72873C115.736 9.15781 115.645 9.62361 115.659 10.0922C115.645 10.5601 115.736 11.0252 115.925 11.4537C116.081 11.7989 116.333 12.0917 116.652 12.2968C116.969 12.4843 117.33 12.5832 117.698 12.5832C118.066 12.5832 118.427 12.4843 118.744 12.2968C119.064 12.0921 119.317 11.7992 119.472 11.4537C119.661 11.0252 119.752 10.5601 119.738 10.0922Z" fill="#084C94"/>
<path d="M122.396 6.77905H123.642L125.801 11.9283H125.88L128.035 6.77905H129.28V13.4034H128.303V8.61036H128.241L126.24 13.3949H125.433L123.433 8.60749H123.37V13.4044H122.396V6.77905Z" fill="#084C94"/>
<path d="M136.438 6.77905V13.4034H135.422V7.63837H132.23V13.4092H131.209V6.77905H136.438Z" fill="#084C94"/>
<path d="M138.95 13.4044H137.864L140.305 6.77905H141.487L143.927 13.4034H142.841L142.222 11.6485H139.573L138.95 13.4044ZM139.871 10.8102H141.924L140.924 7.98305H140.871L139.871 10.8102Z" fill="#084C94"/>
<path d="M145.276 13.4044V6.77905H146.3V9.65777H149.681V6.77905H150.707V13.4034H149.681V10.5161H146.3V13.4044H145.276Z" fill="#084C94"/>
<path d="M153.594 6.77905V13.4034H152.571V6.77905H153.594Z" fill="#084C94"/>
<path d="M158.977 13.4044V10.8656H157.507L156.122 13.4044H154.96L156.463 10.687C156.081 10.552 155.753 10.2966 155.53 9.95949C155.318 9.62168 155.209 9.22947 155.217 8.83092C155.217 8.21603 155.415 7.72048 155.81 7.34429C156.205 6.9681 156.76 6.77969 157.473 6.77905H160V13.4034L158.977 13.4044ZM158.977 7.63742H157.54C157.124 7.63742 156.807 7.7434 156.581 7.95727C156.356 8.17115 156.251 8.46714 156.251 8.84715C156.243 9.00677 156.268 9.16637 156.325 9.31568C156.382 9.46498 156.47 9.6007 156.583 9.71411C156.806 9.92734 157.148 10.034 157.611 10.034H158.976L158.977 7.63742Z" fill="#084C94"/>
<defs>
<linearGradient id="paint0_linear" x1="2.4107" y1="30.732" x2="24.6077" y2="30.732" gradientUnits="userSpaceOnUse">
<stop stop-color="#3ECFCD"/>
<stop offset="1" stop-color="#0BA19F"/>
</linearGradient>
<linearGradient id="paint1_linear" x1="12.1677" y1="1.23085e-07" x2="12.1677" y2="26.1825" gradientUnits="userSpaceOnUse">
<stop stop-color="#59DEDC"/>
<stop offset="1" stop-color="#0BA19F"/>
</linearGradient>
</defs>
</svg>
