<svg width="30" height="30" viewBox="0 0 30 30" fill="none" xmlns="http://www.w3.org/2000/svg">
<path d="M15 30C23.2843 30 30 23.2843 30 15C30 6.71573 23.2843 0 15 0C6.71573 0 0 6.71573 0 15C0 23.2843 6.71573 30 15 30Z" fill="#18D491"/>
<path d="M23.0357 19.9878V10.0122L17.4944 15L23.0357 19.9878Z" fill="white"/>
<path d="M15.0002 17.2453L13.4181 15.8213L7.87671 20.809H22.1237L16.5822 15.8213L15.0002 17.2453Z" fill="white"/>
<path d="M22.1237 9.19116H7.87671L15.0002 15.6031L22.1237 9.19116Z" fill="white"/>
<path d="M6.96436 10.0122V19.9878L12.5057 15L6.96436 10.0122Z" fill="white"/>
</svg>
