<svg width="25" height="25" viewBox="0 0 25 25" fill="none" xmlns="http://www.w3.org/2000/svg">
<path d="M12.5 25C19.4036 25 25 19.4036 25 12.5C25 5.59644 19.4036 0 12.5 0C5.59644 0 0 5.59644 0 12.5C0 19.4036 5.59644 25 12.5 25Z" fill="#00337A"/>
<path d="M25 12.5C25 11.7309 24.9301 10.9781 24.7971 10.2474H24.7885L24.7948 10.2352C24.7778 10.1422 24.76 10.0496 24.7409 9.95733H24.4984L24.647 9.66725L18.8455 3.86572L4.93188 13.7855L11.2352 20.0393L9.49839 22.2777L12.2172 24.9965C12.3112 24.9985 12.4054 25 12.5 25C19.4036 25 25 19.4035 25 12.5Z" fill="#002659"/>
<path d="M18.8455 3.86572H10.0545L4.93188 13.7855H11.3274L9.49834 22.2776L18.8455 10.9548H15.2144L18.8455 3.86572Z" fill="#FFE05F"/>
<path d="M15.2142 10.9552H18.8455L12.7712 18.3132V3.86597H18.8455L15.2142 10.9552Z" fill="#F9CB0D"/>
</svg>
