<svg width="28" height="28" viewBox="0 0 28 28" fill="none" xmlns="http://www.w3.org/2000/svg">
<path d="M14 28C21.732 28 28 21.732 28 14C28 6.26801 21.732 0 14 0C6.26801 0 0 6.26801 0 14C0 21.732 6.26801 28 14 28Z" fill="#3ECFCD"/>
<path d="M18 8.19995H10V18.7H18V8.19995Z" fill="white" fill-opacity="0.6"/>
<path d="M17.4026 7H11.0908C10.4875 7 10 7.4897 10 8.09246V20.9081C10 21.5103 10.4875 22 11.0908 22H17.4021C18.0054 22 18.494 21.5103 18.494 20.9081V8.09246C18.4945 7.4897 18.0065 7 17.4026 7ZM12.6892 7.66376H15.8054C15.8843 7.66376 15.9475 7.78128 15.9475 7.92736C15.9475 8.07287 15.8843 8.19096 15.8054 8.19096H12.6892C12.6103 8.19096 12.5476 8.07287 12.5476 7.92736C12.5476 7.78128 12.6103 7.66376 12.6892 7.66376ZM14.2473 20.9215C13.8628 20.9215 13.5499 20.6092 13.5499 20.2242C13.5499 19.8392 13.8633 19.528 14.2473 19.528C14.6312 19.528 14.944 19.8397 14.944 20.2242C14.944 20.6092 14.6306 20.9215 14.2473 20.9215ZM17.6763 18.5329H10.8182V8.84352H17.6763V18.5329Z" fill="white"/>
</svg>
