<svg width="28" height="28" viewBox="0 0 28 28" fill="none" xmlns="http://www.w3.org/2000/svg">
<path d="M14 28C21.732 28 28 21.732 28 14C28 6.26801 21.732 0 14 0C6.26801 0 0 6.26801 0 14C0 21.732 6.26801 28 14 28Z" fill="#3ECFCD"/>
<path d="M14 13.6207C15.8283 13.6207 17.3104 12.1386 17.3104 10.3103C17.3104 8.48207 15.8283 6.99998 14 6.99998C12.1718 6.99998 10.6897 8.48207 10.6897 10.3103C10.6897 12.1386 12.1718 13.6207 14 13.6207Z" fill="white"/>
<path d="M14 15.2759C10.6863 15.2759 8 17.9622 8 21.2759H20C20 17.9622 17.3137 15.2759 14 15.2759Z" fill="white"/>
</svg>
