<?xml version="1.0" standalone="no"?>
<!DOCTYPE svg PUBLIC "-//W3C//DTD SVG 20010904//EN"
 "http://www.w3.org/TR/2001/REC-SVG-20010904/DTD/svg10.dtd">
<svg version="1.0" xmlns="http://www.w3.org/2000/svg"
 width="59.000000pt" height="59.000000pt" viewBox="0 0 59.000000 59.000000"
 preserveAspectRatio="xMidYMid meet">

<g transform="translate(0.000000,59.000000) scale(0.100000,-0.100000)"
fill="#000000" stroke="none">
<path d="M222 457 c-40 -21 -41 -23 -25 -40 13 -13 14 -20 5 -29 -9 -9 -16 -8
-30 5 -18 16 -20 15 -40 -27 -28 -55 -28 -84 0 -141 21 -42 23 -44 40 -28 14
12 21 14 30 5 9 -9 7 -16 -6 -31 -18 -19 -17 -20 20 -36 86 -37 83 -37 142
-10 54 25 55 26 37 45 -14 16 -16 23 -7 32 9 9 16 7 31 -6 19 -18 20 -17 36
20 37 86 37 83 10 142 -25 54 -26 55 -45 37 -16 -14 -23 -16 -32 -7 -9 9 -7
16 6 31 16 18 15 19 -24 40 -51 27 -94 26 -148 -2z m36 -120 c3 -14 -3 -17
-30 -15 -27 2 -33 -1 -36 -17 -3 -30 13 -49 34 -40 18 8 18 8 1 12 -29 7 -13
28 21 28 28 0 32 3 32 27 0 26 3 28 40 28 29 0 40 -4 40 -15 0 -8 -9 -15 -20
-15 -11 0 -20 -4 -20 -10 0 -5 9 -10 20 -10 11 0 20 -7 20 -15 0 -8 -9 -15
-20 -15 -15 0 -20 -7 -20 -25 0 -18 -5 -25 -20 -25 -14 0 -20 7 -20 22 l0 22
-16 -22 c-20 -29 -67 -29 -94 0 -24 26 -26 56 -4 86 12 18 24 22 52 20 26 -2
38 -8 40 -21z m195 8 c-1 -5 -12 -12 -24 -15 -22 -5 -22 -6 4 -23 45 -29 30
-77 -24 -77 -30 0 -57 24 -39 35 5 3 19 3 30 0 27 -9 25 3 -5 27 -28 22 -31
38 -13 56 15 15 74 12 71 -3z m-127 -136 c3 -5 -9 -9 -25 -9 -17 0 -31 4 -31
9 0 5 11 9 25 9 14 0 28 -4 31 -9z"/>
</g>
</svg>
