<svg width="42" height="42" viewBox="0 0 42 42" fill="none" xmlns="http://www.w3.org/2000/svg">
<path d="M10.5 0C9.05625 0 7.875 1.18125 7.875 2.625V39.375C7.875 40.8187 9.05625 42 10.5 42H36.75C38.1938 42 39.375 40.8187 39.375 39.375V10.5L28.875 0H10.5Z" fill="#E2E5E7"/>
<path d="M31.5 10.5H39.375L28.875 0V7.875C28.875 9.31875 30.0562 10.5 31.5 10.5Z" fill="#B0B7BD"/>
<path d="M39.375 18.375L31.5 10.5H39.375V18.375Z" fill="#CAD1D8"/>
<path d="M34.125 34.125C34.125 34.8469 33.5344 35.4375 32.8125 35.4375H3.9375C3.21562 35.4375 2.625 34.8469 2.625 34.125V21C2.625 20.2781 3.21562 19.6875 3.9375 19.6875H32.8125C33.5344 19.6875 34.125 20.2781 34.125 21V34.125Z" fill="#50BEE8"/>
<path d="M7.59407 31.4999C7.24757 31.4999 6.86957 31.3095 6.86957 30.8489V24.8888C6.86957 24.5108 7.24757 24.2378 7.59407 24.2378H9.99725C14.7931 24.2378 14.6868 31.4999 10.0904 31.4999H7.59407ZM8.25557 25.5175V30.2189H9.99725C12.8309 30.2189 12.9556 25.5175 9.99725 25.5175H8.25557Z" fill="white"/>
<path d="M18.703 31.6049C16.7618 31.6889 14.7458 30.3974 14.7458 27.8262C14.7458 25.2445 16.7605 23.9753 18.703 23.9753C20.5392 24.0685 22.4594 25.339 22.4594 27.8262C22.4594 30.3147 20.5392 31.6049 18.703 31.6049ZM18.5875 25.3403C17.4115 25.3403 16.1318 26.1698 16.1318 27.8275C16.1318 29.476 17.4128 30.316 18.5875 30.316C19.795 30.316 21.0852 29.476 21.0852 27.8275C21.0852 26.1685 19.795 25.3403 18.5875 25.3403Z" fill="white"/>
<path d="M23.6946 27.8158C23.6946 25.7906 24.9651 24.049 27.3788 24.049C28.2923 24.049 29.0168 24.322 29.782 24.9835C30.0655 25.2446 30.097 25.7066 29.8135 26.0006C29.53 26.2513 29.0995 26.2211 28.8475 25.9691C28.4183 25.5176 27.9773 25.393 27.3788 25.393C25.7631 25.393 24.9874 26.5375 24.9874 27.8171C24.9874 29.1191 25.7526 30.3148 27.3788 30.3148C27.9773 30.3148 28.5338 30.072 29.0168 29.6428C29.341 29.3908 29.7925 29.5155 29.9815 29.7688C30.1495 29.9998 30.2322 30.3883 29.866 30.7545C29.131 31.4383 28.2503 31.5748 27.3775 31.5748C24.8391 31.5748 23.6946 29.841 23.6946 27.8158Z" fill="white"/>
<path d="M32.8125 35.4375H7.875V36.75H32.8125C33.5344 36.75 34.125 36.1594 34.125 35.4375V34.125C34.125 34.8469 33.5344 35.4375 32.8125 35.4375Z" fill="#CAD1D8"/>
</svg>
