<svg width="42" height="42" viewBox="0 0 42 42" fill="none" xmlns="http://www.w3.org/2000/svg">
<path d="M10.5 0C9.05625 0 7.875 1.18125 7.875 2.625V39.375C7.875 40.8187 9.05625 42 10.5 42H36.75C38.1938 42 39.375 40.8187 39.375 39.375V10.5L28.875 0H10.5Z" fill="#E2E5E7"/>
<path d="M31.5 10.5H39.375L28.875 0V7.875C28.875 9.31875 30.0562 10.5 31.5 10.5Z" fill="#B0B7BD"/>
<path d="M39.375 18.375L31.5 10.5H39.375V18.375Z" fill="#CAD1D8"/>
<path d="M34.125 34.125C34.125 34.8469 33.5344 35.4375 32.8125 35.4375H3.9375C3.21562 35.4375 2.625 34.8469 2.625 34.125V21C2.625 20.2781 3.21562 19.6875 3.9375 19.6875H32.8125C33.5344 19.6875 34.125 20.2781 34.125 21V34.125Z" fill="#F15642"/>
<path d="M8.34641 24.8678C8.34641 24.5213 8.6194 24.1433 9.05909 24.1433H11.4833C12.8483 24.1433 14.0768 25.0568 14.0768 26.8077C14.0768 28.4667 12.8483 29.3907 11.4833 29.3907H9.73109V30.7767C9.73109 31.2387 9.43709 31.4999 9.05909 31.4999C8.71259 31.4999 8.34641 31.2387 8.34641 30.7767V24.8678ZM9.73109 25.465V28.0795H11.4833C12.1868 28.0795 12.7433 27.4587 12.7433 26.8077C12.7433 26.074 12.1868 25.465 11.4833 25.465H9.73109Z" fill="white"/>
<path d="M16.1319 31.4999C15.7854 31.4999 15.4074 31.3109 15.4074 30.8502V24.8888C15.4074 24.5121 15.7854 24.2378 16.1319 24.2378H18.5351C23.331 24.2378 23.226 31.4999 18.6296 31.4999H16.1319ZM16.7934 25.5188V30.2202H18.5351C21.3688 30.2202 21.4948 25.5188 18.5351 25.5188H16.7934Z" fill="white"/>
<path d="M24.9271 25.6029V27.2711H27.6033C27.9813 27.2711 28.3593 27.6491 28.3593 28.0153C28.3593 28.3618 27.9813 28.6453 27.6033 28.6453H24.9271V30.8489C24.9271 31.2164 24.6659 31.4986 24.2984 31.4986C23.8364 31.4986 23.5542 31.2164 23.5542 30.8489V24.8876C23.5542 24.5109 23.8377 24.2366 24.2984 24.2366H27.9826C28.4446 24.2366 28.7176 24.5109 28.7176 24.8876C28.7176 25.2236 28.4446 25.6016 27.9826 25.6016H24.9271V25.6029Z" fill="white"/>
<path d="M32.8125 35.4375H7.875V36.75H32.8125C33.5344 36.75 34.125 36.1594 34.125 35.4375V34.125C34.125 34.8469 33.5344 35.4375 32.8125 35.4375Z" fill="#CAD1D8"/>
</svg>
