<?xml version="1.0" standalone="no"?>
<!DOCTYPE svg PUBLIC "-//W3C//DTD SVG 20010904//EN"
 "http://www.w3.org/TR/2001/REC-SVG-20010904/DTD/svg10.dtd">
<svg version="1.0" xmlns="http://www.w3.org/2000/svg"
 width="1408.000000pt" height="1408.000000pt" viewBox="0 0 1408.000000 1408.000000"
 preserveAspectRatio="xMidYMid meet">
<metadata>
Created by potrace 1.11, written by Peter Selinger 2001-2013
</metadata>
<g transform="translate(0.000000,1408.000000) scale(0.100000,-0.100000)"
fill="#000000" stroke="none">
<path d="M5418 14065 c-104 -38 -187 -132 -214 -240 -4 -16 -8 -32 -9 -35 -9
-31 -28 -98 -30 -110 -2 -8 -8 -26 -13 -40 -5 -14 -10 -28 -11 -32 0 -5 -1 -9
-2 -10 0 -2 -2 -11 -4 -20 -3 -19 -40 -149 -61 -218 -7 -25 -15 -54 -17 -65
-2 -11 -7 -27 -10 -35 -4 -8 -9 -26 -11 -40 -3 -14 -5 -26 -7 -27 -1 -2 -3 -7
-4 -13 -1 -5 -4 -13 -5 -17 -1 -5 -3 -12 -4 -18 -1 -5 -5 -17 -8 -25 -6 -14
-84 -294 -92 -330 -4 -14 -17 -63 -52 -187 -9 -32 -17 -62 -18 -68 -1 -5 -4
-14 -8 -20 -3 -5 -9 -26 -14 -45 -4 -19 -9 -39 -10 -45 -2 -5 -5 -19 -8 -30
-3 -11 -28 -103 -56 -205 -29 -102 -54 -193 -55 -203 -2 -9 -7 -22 -10 -27 -3
-5 -8 -19 -11 -30 -10 -47 -13 -58 -29 -114 -9 -32 -19 -66 -20 -75 -2 -9 -4
-16 -5 -16 -2 0 -5 -14 -14 -53 -3 -12 -8 -27 -11 -32 -3 -5 -8 -18 -10 -27
-1 -10 -15 -61 -29 -113 -15 -52 -29 -102 -31 -110 -2 -8 -17 -64 -35 -125
-17 -60 -33 -117 -35 -125 -2 -8 -4 -15 -5 -15 -1 0 -3 -9 -5 -20 -2 -11 -8
-36 -14 -55 -6 -19 -27 -93 -46 -165 -20 -71 -38 -137 -40 -145 -3 -8 -15 -55
-29 -105 -13 -49 -29 -102 -35 -117 -6 -16 -9 -28 -7 -28 2 0 -5 -28 -16 -62
-11 -35 -22 -74 -24 -88 -3 -13 -14 -52 -24 -85 -10 -33 -30 -105 -45 -160
-14 -55 -30 -111 -35 -125 -5 -14 -16 -54 -25 -90 -9 -36 -23 -85 -31 -109 -8
-24 -12 -46 -9 -49 2 -3 1 -10 -4 -16 -5 -6 -30 -87 -56 -181 -58 -214 -51
-191 -70 -255 -14 -50 -51 -182 -61 -220 -11 -42 -48 -173 -65 -230 -11 -36
-21 -74 -24 -85 -6 -30 -76 -280 -115 -415 -12 -41 -23 -82 -25 -91 -2 -9 -13
-49 -25 -89 -12 -40 -23 -80 -25 -89 -2 -9 -11 -41 -20 -71 -9 -30 -17 -62
-19 -70 -11 -43 -108 -393 -123 -440 -9 -30 -18 -60 -19 -66 -1 -6 -10 -38
-19 -70 -15 -52 -39 -139 -50 -184 -2 -8 -11 -40 -20 -70 -18 -63 -45 -158
-50 -180 -2 -8 -11 -40 -20 -70 -9 -30 -18 -62 -20 -70 -2 -8 -11 -40 -20 -70
-9 -30 -18 -64 -20 -75 -3 -11 -19 -69 -36 -130 -17 -60 -32 -114 -33 -120 -1
-5 -10 -37 -20 -70 -10 -33 -20 -71 -23 -84 -2 -13 -9 -33 -14 -43 -6 -11 -8
-22 -5 -25 3 -4 1 -12 -6 -20 -6 -7 -12 -46 -13 -85 -5 -143 57 -247 185 -307
51 -24 66 -26 192 -26 76 0 138 -4 138 -8 0 -5 5 -5 11 -1 7 4 374 7 818 8
l806 1 54 28 c30 15 65 39 78 53 29 31 29 18 -1 -79 -14 -42 -24 -78 -24 -80
0 -1 -6 -22 -13 -47 -7 -25 -13 -49 -15 -55 -1 -5 -23 -84 -49 -175 -26 -91
-51 -178 -55 -195 -4 -16 -31 -110 -59 -208 -29 -98 -54 -186 -56 -195 -2 -9
-33 -120 -69 -247 -36 -126 -80 -279 -97 -340 -17 -60 -33 -117 -36 -125 -3
-8 -7 -19 -8 -25 -1 -5 -3 -12 -4 -15 -2 -3 -4 -12 -6 -20 -2 -12 -16 -63 -31
-115 -4 -12 -23 -85 -29 -105 -2 -8 -4 -15 -5 -15 -1 0 -3 -7 -5 -15 -2 -8
-11 -40 -20 -70 -9 -30 -18 -64 -20 -75 -3 -11 -13 -49 -24 -85 -17 -55 -52
-179 -66 -230 -2 -8 -11 -40 -20 -70 -9 -30 -18 -62 -20 -71 -2 -9 -13 -49
-25 -89 -12 -40 -23 -80 -25 -89 -2 -9 -11 -41 -20 -71 -9 -30 -18 -62 -20
-70 -2 -8 -4 -15 -5 -15 -1 0 -3 -7 -5 -16 -1 -9 -11 -43 -20 -75 -10 -33 -18
-63 -20 -69 -1 -5 -4 -17 -7 -25 -6 -16 -37 -125 -43 -151 -5 -22 -52 -186
-76 -266 -11 -34 -21 -72 -23 -85 -3 -13 -5 -23 -6 -23 -1 0 -3 -7 -5 -15 -1
-8 -13 -49 -25 -90 -12 -41 -24 -82 -25 -90 -2 -8 -4 -15 -5 -15 -1 0 -3 -7
-5 -15 -4 -23 -36 -133 -42 -150 -3 -8 -7 -20 -8 -25 -2 -6 -17 -62 -35 -125
-18 -63 -34 -121 -35 -130 -2 -8 -4 -16 -5 -17 -2 -2 -3 -6 -4 -10 -2 -5 -8
-28 -15 -53 -7 -25 -15 -56 -18 -69 -2 -14 -6 -28 -9 -33 -3 -5 -23 -72 -46
-151 -22 -78 -49 -173 -59 -212 -32 -112 -39 -139 -45 -164 -3 -13 -9 -31 -13
-40 -5 -9 -11 -29 -14 -46 -3 -16 -13 -55 -22 -85 -9 -30 -17 -59 -18 -65 -2
-5 -6 -16 -10 -22 -5 -7 -6 -13 -4 -13 3 0 -1 -20 -8 -44 -19 -61 -13 -161 12
-216 29 -65 89 -125 158 -159 59 -29 63 -29 205 -28 137 2 148 3 198 30 59 31
88 59 174 167 32 41 67 84 77 95 14 16 277 344 479 595 24 30 51 61 60 68 9 6
12 12 7 12 -5 0 5 15 21 33 17 17 68 79 114 137 46 58 92 114 102 125 14 16
99 122 181 225 57 72 92 116 97 120 3 3 32 39 64 80 33 41 66 82 73 90 7 8 32
40 55 70 24 30 45 57 48 60 3 3 25 30 50 60 25 30 49 58 55 62 5 4 7 8 3 8 -5
0 0 8 10 18 17 18 73 86 102 124 8 11 22 28 30 37 8 9 40 48 70 86 30 39 57
72 60 75 3 3 21 25 40 50 19 25 37 47 40 50 4 4 147 181 220 273 8 11 20 24
25 31 6 6 67 81 135 166 69 85 130 162 137 170 7 8 36 44 64 80 28 36 68 85
89 110 21 25 61 74 89 110 28 36 62 79 76 95 14 17 29 35 33 40 4 6 46 57 92
115 47 58 92 114 100 124 8 10 23 27 33 38 9 10 17 21 17 24 0 3 6 11 13 18 6
7 26 30 42 50 17 21 37 46 45 56 8 10 27 33 42 51 27 35 254 317 286 355 9 12
28 36 42 54 14 18 34 42 45 54 11 12 33 39 50 61 16 22 37 49 46 60 10 11 33
40 53 65 20 25 45 54 56 65 11 12 20 26 20 33 0 7 4 12 8 12 4 0 35 34 67 77
33 42 70 88 82 102 13 14 26 31 30 36 5 6 24 30 43 55 19 25 37 47 40 50 5 4
63 77 95 118 6 7 22 26 38 42 15 15 27 31 27 35 0 6 13 23 41 53 13 14 104
128 144 180 6 7 17 21 25 30 9 9 33 40 55 67 22 28 45 57 52 65 15 19 80 99
101 125 10 11 62 77 117 145 55 69 105 130 110 136 6 6 21 26 35 44 14 19 35
45 47 59 13 14 26 31 30 36 5 6 26 32 48 60 22 27 45 56 50 63 6 8 21 26 35
42 14 16 34 40 44 55 11 14 28 36 39 48 11 12 31 38 46 57 14 19 38 49 54 65
15 17 30 38 33 48 3 9 9 17 13 17 4 0 25 24 46 52 22 29 47 60 55 69 16 17 25
29 80 99 19 25 40 50 46 55 6 6 26 30 45 55 42 55 68 88 92 112 9 10 15 18 12
18 -5 0 20 32 46 59 9 9 100 122 203 251 104 129 198 246 210 260 111 130 235
298 249 338 33 91 22 193 -30 275 -29 46 -81 97 -99 97 -8 0 -14 3 -14 8 0 4
-23 15 -51 25 -41 15 -79 18 -212 17 -89 -1 -297 -2 -462 -3 -189 -1 -303 -5
-307 -12 -5 -6 -8 -7 -8 0 0 12 -199 13 -218 1 -7 -4 -12 -3 -12 2 0 6 -14 7
-35 2 -19 -4 -35 -5 -35 -1 0 8 -58 6 -66 -2 -3 -3 -16 -2 -29 3 -13 5 -25 7
-27 5 -8 -8 -98 -11 -110 -4 -7 4 -16 5 -21 2 -5 -3 -203 -7 -441 -9 -237 -2
-673 -5 -968 -8 -296 -3 -538 -2 -537 2 0 4 11 23 25 42 13 19 36 53 51 75 14
22 29 42 32 45 4 3 15 18 25 35 11 16 23 34 28 40 24 30 248 358 248 364 0 3
9 13 20 21 11 8 20 18 20 23 0 4 45 72 100 150 54 78 104 149 110 157 5 8 46
67 90 130 43 63 89 130 102 148 13 18 33 46 46 62 12 15 22 32 22 38 0 6 4 12
8 14 5 2 38 47 75 101 87 127 98 143 125 178 13 16 21 29 17 29 -3 0 3 9 13
20 10 11 40 53 67 92 27 40 52 75 55 78 3 3 19 25 35 50 17 25 33 46 38 48 4
2 7 8 7 13 0 6 5 15 11 22 6 7 46 64 89 127 44 63 83 120 87 125 5 6 44 62 87
125 44 63 83 117 87 118 5 2 9 10 9 18 0 8 3 14 8 14 4 0 16 16 26 35 11 19
23 35 28 35 4 0 8 5 8 11 0 6 8 21 18 34 9 12 24 33 32 45 8 12 21 28 28 36 6
7 12 16 12 21 0 4 14 24 30 43 16 19 30 38 30 42 0 4 6 13 13 20 6 8 17 21 22
30 6 9 33 48 60 87 28 40 55 80 60 89 6 10 16 24 23 32 7 8 52 71 99 140 47
69 89 127 92 130 3 3 11 13 16 22 32 55 120 178 127 178 4 0 8 5 8 11 0 6 27
48 60 95 33 46 60 87 60 90 0 2 11 17 25 32 14 15 25 32 25 39 0 7 4 13 8 13
4 0 16 15 27 33 10 17 23 37 28 42 16 19 187 266 187 270 0 3 7 13 16 23 9 9
46 62 84 117 38 55 78 114 90 130 12 17 76 109 143 205 67 96 130 186 140 200
9 14 32 48 51 75 19 28 57 82 85 120 28 39 65 99 83 135 78 155 17 333 -143
417 l-54 28 -2570 2 c-2133 1 -2576 -1 -2607 -12z"/>
</g>
</svg>
