<svg width="180" height="45" viewBox="0 0 180 45" fill="none" xmlns="http://www.w3.org/2000/svg">
<path fill-rule="evenodd" clip-rule="evenodd" d="M0.540771 12.6516C2.83705 7.9661 6.59807 4.363 11.0389 2.22155C16.1907 -0.262492 22.2572 -0.779417 28.0166 1.2626C33.7747 3.30409 38.1366 7.51743 40.5316 12.6783C42.9253 17.8339 43.3564 23.9346 41.2584 29.7526C39.1602 35.5712 34.9261 40.017 29.7782 42.4992C25.4065 44.6073 20.3759 45.2978 15.4349 44.2118C26.0233 46.4294 36.9003 40.6059 40.6458 30.2184C44.7324 18.8849 38.78 6.41225 27.3504 2.35968C16.9365 -1.33255 5.57088 3.23859 0.541051 12.651L0.540771 12.6516Z" fill="#02757A"/>
<path fill-rule="evenodd" clip-rule="evenodd" d="M21.2035 1.04663C26.8271 1.04663 32.2203 3.21501 36.1967 7.07474C40.1731 10.9345 42.4071 16.1694 42.4071 21.6279C42.4071 25.6985 41.1635 29.6777 38.8336 33.0622C36.5037 36.4468 33.1922 39.0848 29.3178 40.6425C25.4433 42.2003 21.18 42.6078 17.0669 41.8137C12.9539 41.0196 9.17575 39.0594 6.21038 36.1811C3.24501 33.3027 1.22557 29.6355 0.407428 25.6431C-0.410714 21.6507 0.00918992 17.5125 1.61403 13.7518C3.21888 9.99105 5.93659 6.7767 9.42349 4.5152C12.9104 2.2537 17.0099 1.04663 21.2035 1.04663Z" fill="#02757A"/>
<path fill-rule="evenodd" clip-rule="evenodd" d="M19.365 3.3414C24.5122 5.78996 30.4441 13.2402 31.6643 21.6044C33.1804 31.9967 27.1607 40.537 20.567 40.537C26.8287 40.537 32.1349 31.693 30.6844 21.5809C29.5224 13.4786 24.0093 5.93406 19.2124 3.39872C19.02 3.28534 19.2232 3.25751 19.3651 3.34164L19.365 3.3414Z" fill="white"/>
<path fill-rule="evenodd" clip-rule="evenodd" d="M24.2638 3.79583C18.0669 9.62566 15.5368 15.4957 14.9454 23.8584C14.2103 34.2494 20.2473 40.9124 23.4496 40.9124C20.4086 40.9124 15.0208 34.336 15.785 23.8347C16.4963 14.0575 21.5057 6.38815 24.3382 3.8528C24.4315 3.73945 24.3327 3.71163 24.2638 3.79569V3.79583Z" fill="white"/>
<path fill-rule="evenodd" clip-rule="evenodd" d="M5.47672 10.3655C3.04626 13.5219 1.60724 17.4606 1.60724 21.826C1.60724 32.7527 10.9436 40.8425 21.3582 40.7422C31.7732 40.6422 40.939 32.053 40.939 21.826C40.939 14.0563 37.5998 7.64561 31.3773 4.58984C30.9748 4.46063 31.1557 4.82786 31.5372 5.05074C36.892 8.55878 39.5651 13.7885 39.5651 20.4191C39.5651 30.2354 31.54 38.1931 21.6403 38.1931C11.7411 38.1931 3.71624 30.2354 3.71624 20.4191C3.71624 16.9065 4.46775 13.5078 6.04536 10.6628C6.32262 10.1787 5.9552 9.7894 5.47661 10.3658L5.47672 10.3655Z" fill="white"/>
<path fill-rule="evenodd" clip-rule="evenodd" d="M22.2044 1.98413C28.4185 1.98413 33.4561 4.79237 33.4561 8.25644C33.4561 11.7206 28.4185 14.5287 22.2044 14.5287C15.9902 14.5287 10.9526 11.7205 10.9526 8.25644C10.9526 4.79227 15.9902 1.98413 22.2044 1.98413ZM21.9285 2.24284C27.48 2.24284 31.9801 4.75152 31.9801 7.84618C31.9801 10.9409 27.4796 13.4495 21.9285 13.4495C16.3773 13.4495 11.8769 10.9409 11.8769 7.84618C11.8769 4.75148 16.3773 2.24284 21.9285 2.24284Z" fill="white"/>
<path fill-rule="evenodd" clip-rule="evenodd" d="M39.5098 16.0942C39.9815 22.2774 33.0465 28.3512 23.0295 29.2145C13.0125 30.0775 4.48326 25.1542 4.01129 18.9711C4.4632 24.8939 13.2648 29.2418 22.8596 28.4152C32.4547 27.5885 39.9614 22.017 39.5095 16.0942H39.5098Z" fill="white"/>
<path fill-rule="evenodd" clip-rule="evenodd" d="M31.9203 7.70714C28.9478 6.30148 25.4334 5.69151 21.7239 6.16545C15.0829 7.01427 9.29387 11.3592 6.28373 16.865C4.75384 19.6633 3.9417 22.7616 4.1006 25.8534C3.94142 22.7558 4.69025 19.5856 6.13763 16.6955C8.9771 11.0261 14.5054 6.43457 21.1397 5.58666C25.0296 5.08944 28.6911 5.75026 31.7425 7.28196C32.6638 7.74737 32.9829 8.18953 31.9198 7.70735L31.9203 7.70714Z" fill="white"/>
<path fill-rule="evenodd" clip-rule="evenodd" d="M132.464 25.3252C133.105 25.3252 134.12 25.0425 134.557 24.4786C136.105 22.4773 136.337 17.4541 131.506 17.7606C131.044 17.7899 130.58 17.8163 130.277 17.9275V27.3482C130.277 28.3813 130.482 29.1094 130.892 29.5306C131.302 29.9516 132.544 30.1943 133.667 30.258C133.827 30.6554 133.907 31.2755 133.907 32.1182C132.891 32.0705 131.198 32.0467 128.827 32.0467C126.456 32.0467 124.656 32.0705 123.426 32.1182C123.426 31.3073 123.489 30.6872 123.613 30.258C124.13 30.2261 125.065 30.1382 125.305 29.9956C125.545 29.853 125.715 29.6016 125.813 29.2443C125.91 28.8871 125.96 28.3341 125.96 27.5868V20.3365C125.96 19.5893 125.919 19.0483 125.839 18.7148C125.76 18.3815 125.603 18.1458 125.372 18.0112C125.14 17.8765 124.202 17.7767 123.667 17.7131C123.506 17.1407 123.426 16.5206 123.426 15.8528C125.12 15.9005 126.661 15.9243 128.052 15.9243C129.015 15.9243 129.763 15.9164 130.298 15.9005L133.854 15.8767C135.922 15.8767 137.432 16.3577 138.386 17.3195C139.34 18.2815 139.817 19.5336 139.817 21.0761C139.817 22.1732 139.554 23.163 139.028 24.0454C138.502 24.9279 137.762 25.6274 136.809 26.1442C135.855 26.6609 134.745 26.9193 133.48 26.9193C132.713 26.9193 132.098 26.8398 131.635 26.6808C131.599 26.4264 131.581 26.2356 131.581 26.1084C131.581 25.6632 131.679 25.5958 131.875 25.2778C132.018 25.3096 132.214 25.3255 132.464 25.3255L132.464 25.3252Z" fill="#02757A"/>
<path fill-rule="evenodd" clip-rule="evenodd" d="M120.696 29.7082C120.696 30.4237 120.447 31.0239 119.947 31.5089C119.448 31.9938 118.771 32.2362 117.915 32.2362C117.06 32.2362 116.387 32.0216 115.897 31.5923C115.406 31.163 115.161 30.5747 115.161 29.8274C115.161 29.096 115.433 28.5196 115.977 28.0983C116.52 27.677 117.22 27.4663 118.076 27.4663C118.842 27.4663 119.471 27.6889 119.961 28.1341C120.451 28.5793 120.696 29.104 120.696 29.7082Z" fill="#02757A"/>
<path fill-rule="evenodd" clip-rule="evenodd" d="M106.742 15.7095C107.686 15.7095 108.627 15.7929 109.563 15.9599C110.498 16.1268 111.198 16.3375 111.662 16.5919C111.662 18.3409 111.724 19.5969 111.849 20.3603C111.51 20.5352 111.06 20.6626 110.498 20.7419C109.937 20.8211 109.864 20.8611 109.329 20.8611C109.133 19.6527 108.813 18.4173 108.367 17.9403C107.921 17.4633 106.858 17.2248 106.127 17.2248C103.89 17.2248 102.956 18.829 104.193 20.1337C105.93 21.9791 110.26 22.479 112.196 25.01C112.713 25.6856 112.971 26.1318 112.971 27.1335C112.971 28.7076 112.321 29.9557 111.02 30.8778C109.718 31.8 107.891 32.2612 105.538 32.2612C104.433 32.2612 103.444 32.1538 102.57 31.9392C101.697 31.7245 100.823 31.3946 99.95 30.9494C100.182 29.916 100.298 28.5644 100.298 26.8951C101.118 26.7043 101.712 26.6089 103.031 26.6089C103.102 27.5947 103.223 28.346 103.392 28.8627C103.562 29.3795 103.811 30.1419 104.141 30.3645C104.471 30.587 105.422 30.6983 106.046 30.6983C108.762 30.6983 109.98 28.6562 108.207 27.4556C105.827 25.8441 102.662 25.1457 101.087 22.877C100.579 22.1458 100.324 21.6321 100.324 20.5509C100.324 18.9132 100.913 17.6969 102.089 16.902C103.266 16.107 104.816 15.7095 106.741 15.7095L106.742 15.7095Z" fill="#02757A"/>
<path fill-rule="evenodd" clip-rule="evenodd" d="M91.2297 20.3378C91.2297 19.5905 91.1892 19.0496 91.1093 18.716C91.0295 18.3825 90.8728 18.1473 90.6415 18.0124C90.4101 17.8776 89.5509 17.7779 89.0161 17.7143C88.8557 17.1419 88.7755 16.5218 88.7755 15.854C89.6668 15.9017 91.2621 15.9255 93.5614 15.9255C95.5044 15.9255 97.0106 15.9017 98.0801 15.854C98.0801 16.6808 97.9999 17.3009 97.8395 17.7143C97.3225 17.762 96.4732 17.8534 96.2415 17.9886C96.0098 18.1237 95.8493 18.3623 95.7602 18.7041C95.6711 19.0459 95.6265 19.591 95.6265 20.3378V27.588C95.6265 28.3348 95.6758 28.888 95.7736 29.2456C95.8714 29.6031 96.041 29.8537 96.2816 29.9968C96.5223 30.14 97.3671 30.2274 97.8662 30.2592C98.0088 30.7202 98.0801 31.3403 98.0801 32.1194C97.278 32.0718 95.8609 32.0479 93.8289 32.0479C91.7255 32.0479 90.0412 32.0718 88.7755 32.1194C88.7755 31.4835 88.8646 30.8634 89.0429 30.2592C89.542 30.2274 90.3834 30.1396 90.6147 29.9968C90.8461 29.8541 91.0073 29.607 91.096 29.2575C91.1848 28.908 91.2297 28.3512 91.2297 27.588V20.3378Z" fill="#02757A"/>
<path fill-rule="evenodd" clip-rule="evenodd" d="M82.1123 27.7297C82.1123 27.2527 82.063 26.8908 81.9653 26.6446C81.8675 26.3984 81.6887 26.2269 81.4306 26.1318C81.1723 26.0367 80.2207 25.9727 79.6859 25.9409C79.579 25.4322 79.5255 24.82 79.5255 24.1045C80.2207 24.1522 81.4418 24.1761 83.1888 24.1761C84.9714 24.1761 86.2369 24.1601 86.9857 24.1284C86.9857 24.8757 86.9323 25.4799 86.8253 25.9409C86.3796 25.9727 86.1034 26.0761 85.9964 26.251C85.8895 26.4259 85.8359 26.7916 85.8359 27.3481V27.9205C85.8359 28.5247 85.8672 28.9858 85.9295 29.3038C85.992 29.6218 86.1123 29.9874 86.2905 30.4009C85.4349 30.9574 84.4144 31.4065 83.229 31.7484C82.0436 32.0903 80.8003 32.2612 79.4991 32.2612C77.6095 32.2612 75.9609 31.9074 74.5524 31.1999C73.1442 30.4924 72.0613 29.5065 71.3037 28.2425C70.5462 26.9784 70.1674 25.5196 70.1674 23.8659C70.1674 22.1169 70.5952 20.6303 71.4507 19.4062C72.3064 18.1819 73.4472 17.2597 74.8733 16.6396C76.2993 16.0195 77.8768 15.7095 79.606 15.7095C80.6755 15.7095 81.7584 15.8287 82.8547 16.0672C83.9509 16.3057 84.9269 16.5999 85.7825 16.9496C85.5864 17.9513 85.4884 19.1836 85.4884 20.6464C85.1497 20.7895 84.7707 20.881 84.352 20.9207C83.9333 20.9603 83.7466 20.9803 83.1583 20.9803C83.0871 19.7719 82.7702 18.5869 82.2091 18.0545C81.648 17.5222 80.5151 17.2556 79.4456 17.2556C76.1209 17.2556 74.7246 20.8377 74.7246 23.2937C74.7246 24.6611 74.8984 25.8814 75.246 26.9545C75.9237 29.0473 77.2096 30.6673 79.8468 30.6673C80.239 30.6673 81.089 30.6361 81.2839 30.5719C81.5691 30.4782 81.7791 30.3091 81.9123 30.0711C82.0454 29.8331 82.1128 29.113 82.1128 28.5405L82.1123 27.7297Z" fill="#02757A"/>
<path fill-rule="evenodd" clip-rule="evenodd" d="M65.2742 15.9246C66.522 15.9246 67.4667 15.9008 68.1084 15.853C68.1084 16.6799 68.046 17.2999 67.9212 17.7134C67.44 17.7769 67.0834 17.8962 66.8517 18.0711C66.62 18.246 66.4595 18.56 66.3704 19.0132C66.2813 19.4663 66.2367 20.1699 66.2367 21.1239V32.0472C65.702 32.1903 64.891 32.2618 63.8035 32.2618L54.2902 20.3005V26.8479C54.2902 27.7846 54.3489 28.4823 54.464 28.9348C54.5791 29.3873 54.7804 29.7059 55.0656 29.8887C55.3508 30.0716 56.1922 30.1948 56.7983 30.2584C56.9231 30.6718 56.9855 31.2919 56.9855 32.1187C56.2368 32.071 55.1583 32.0472 53.7502 32.0472L51.2902 32.0233C50.7733 32.0233 50.4436 32.0313 50.301 32.0472C50.301 31.2522 50.3723 30.6559 50.5149 30.2584C51.1031 30.1948 51.5443 30.0677 51.8384 29.8768C52.1325 29.686 52.3464 29.3601 52.4802 28.899C52.6138 28.4379 52.6807 27.7542 52.6807 26.8479V18.8343L52.3064 18.3812C52.1637 18.1586 51.9721 18.0036 51.7315 17.9162C51.4908 17.8286 51.0853 17.7611 50.5149 17.7134C50.3723 17.2523 50.301 16.6322 50.301 15.8531C50.9961 15.9008 52.1816 15.9246 53.8572 15.9246C55.3902 15.9246 56.3973 15.9008 56.8786 15.8531L64.5488 25.8347V21.124C64.5488 20.1859 64.4909 19.4943 64.375 19.0491C64.2591 18.6039 64.0494 18.2856 63.7466 18.0951C63.4439 17.9045 62.6363 17.777 61.9589 17.7135C61.8342 17.2842 61.7717 16.664 61.7717 15.8531C62.5204 15.9009 63.6881 15.9247 65.2745 15.9247L65.2742 15.9246Z" fill="#02757A"/>
<path fill-rule="evenodd" clip-rule="evenodd" d="M150.001 23.7631C150.839 23.7631 152.116 23.5083 152.722 22.9998C154.544 21.4697 153.933 17.6576 150.322 17.6576C149.93 17.6576 149.16 17.7132 148.803 17.8246V23.6677C149.16 23.7313 149.823 23.7631 150.001 23.7631V23.7631ZM157.889 28.5807C158.246 29.2007 158.558 29.6142 158.825 29.8208C159.092 30.0276 159.485 30.1468 160.001 30.1786C160.001 30.8305 159.903 31.4585 159.707 32.0628C156.588 32.0628 155.101 32.1263 154.139 32.2536L153.952 31.7766C153.425 30.4335 153.008 29.3735 152.668 28.6045C152.313 27.7997 152.027 27.1933 151.759 26.8038C151.163 25.9356 150.14 25.6405 148.803 25.838V27.3405C148.803 28.1987 148.843 28.8311 148.924 29.2366C149.004 29.642 149.133 29.9085 149.311 30.0355C149.489 30.1625 150.153 30.2342 150.509 30.2502C150.634 30.5681 150.696 31.1883 150.696 32.1105C149.68 32.0628 148.121 32.0389 146.017 32.0389C144.484 32.0389 143.103 32.0628 141.873 32.1105C141.873 31.3472 141.944 30.7272 142.087 30.2502C142.586 30.2184 143.432 30.1307 143.672 29.9878C143.912 29.845 144.082 29.5941 144.18 29.2366C144.278 28.879 144.327 28.3263 144.327 27.579V20.2809C144.327 19.5495 144.282 19.0129 144.193 18.671C144.104 18.3292 143.939 18.0904 143.699 17.9556C143.458 17.8206 142.595 17.721 142.06 17.6574C141.935 17.2122 141.873 16.6001 141.873 15.821C143.299 15.8845 144.832 15.9163 146.472 15.9163L148.183 15.8687C150.376 15.821 151.65 15.7971 152.007 15.7971C153.486 15.7971 154.725 15.9958 155.723 16.3933C156.722 16.7908 157.461 17.3275 157.943 18.0032C158.424 18.6789 158.665 19.4382 158.665 20.2809C158.665 21.6165 158.326 22.7056 157.648 23.5483C156.971 24.391 156.062 24.9475 154.921 25.2178C155.349 25.3609 155.701 25.5438 155.977 25.7664C156.254 25.9889 156.521 26.299 156.779 26.6965C157.038 27.094 157.408 27.7221 157.889 28.5807V28.5807Z" fill="#02757A"/>
<path fill-rule="evenodd" clip-rule="evenodd" d="M170.748 15.6996C172.602 15.6996 174.224 16.0255 175.614 16.6774C177.004 17.3293 178.083 18.2515 178.849 19.444C179.616 20.6365 179.999 22.0198 179.999 23.5938C179.999 25.2951 179.62 26.8016 178.863 28.1133C178.105 29.425 177.027 30.4426 175.627 31.1661C174.228 31.8895 172.602 32.2512 170.748 32.2512C168.858 32.2512 166.664 31.9051 165.274 31.2137C163.884 30.5224 163.372 29.5439 162.633 28.2802C161.893 27.0164 161.523 25.5574 161.523 23.9037C161.523 22.2342 161.915 20.7833 162.7 19.5512C163.484 18.3191 164.571 17.369 165.962 16.7012C167.352 16.0334 168.947 15.6995 170.747 15.6995L170.748 15.6996ZM171.069 30.3913C177.014 30.3911 176.77 17.4884 170.4 17.4884C164.502 17.4885 164.752 30.3913 171.069 30.3913Z" fill="#02757A"/>
</svg>
