<svg width="16" height="17" viewBox="0 0 16 17" fill="none" xmlns="http://www.w3.org/2000/svg">
<path d="M16 13.1364C16 13.3409 15.9621 13.608 15.8864 13.9375C15.8106 14.267 15.7311 14.5265 15.6477 14.7159C15.4886 15.0947 15.0265 15.4962 14.2614 15.9205C13.5492 16.3068 12.8447 16.5 12.1477 16.5C11.9432 16.5 11.7424 16.4867 11.5455 16.4602C11.3485 16.4337 11.1307 16.3864 10.892 16.3182C10.6534 16.25 10.4754 16.1951 10.358 16.1534C10.2405 16.1117 10.0303 16.0341 9.72727 15.9205C9.42424 15.8068 9.23864 15.7386 9.17045 15.7159C8.42803 15.4508 7.76515 15.1364 7.18182 14.7727C6.2197 14.1742 5.2197 13.3561 4.18182 12.3182C3.14394 11.2803 2.32576 10.2803 1.72727 9.31818C1.36364 8.73485 1.04924 8.07197 0.784091 7.32955C0.761364 7.26136 0.693182 7.07576 0.579545 6.77273C0.465909 6.4697 0.388258 6.25947 0.346591 6.14205C0.304924 6.02462 0.25 5.84659 0.181818 5.60795C0.113636 5.36932 0.0662879 5.15152 0.0397727 4.95455C0.0132576 4.75758 0 4.55682 0 4.35227C0 3.6553 0.193182 2.95076 0.579545 2.23864C1.00379 1.47348 1.4053 1.01136 1.78409 0.852273C1.97348 0.768939 2.23295 0.689394 2.5625 0.613636C2.89205 0.537879 3.15909 0.5 3.36364 0.5C3.4697 0.5 3.54924 0.511364 3.60227 0.534091C3.73864 0.579545 3.93939 0.867424 4.20455 1.39773C4.28788 1.54167 4.40152 1.74621 4.54545 2.01136C4.68939 2.27652 4.82197 2.51705 4.94318 2.73295C5.06439 2.94886 5.18182 3.15152 5.29545 3.34091C5.31818 3.37121 5.38447 3.46591 5.49432 3.625C5.60417 3.78409 5.68561 3.91856 5.73864 4.02841C5.79167 4.13826 5.81818 4.24621 5.81818 4.35227C5.81818 4.50379 5.71023 4.69318 5.49432 4.92045C5.27841 5.14773 5.04356 5.35606 4.78977 5.54545C4.53598 5.73485 4.30114 5.93561 4.08523 6.14773C3.86932 6.35985 3.76136 6.53409 3.76136 6.67045C3.76136 6.73864 3.7803 6.82386 3.81818 6.92614C3.85606 7.02841 3.88826 7.10606 3.91477 7.15909C3.94129 7.21212 3.99432 7.30303 4.07386 7.43182C4.15341 7.56061 4.19697 7.63258 4.20455 7.64773C4.7803 8.68561 5.43939 9.57576 6.18182 10.3182C6.92424 11.0606 7.81439 11.7197 8.85227 12.2955C8.86742 12.303 8.93939 12.3466 9.06818 12.4261C9.19697 12.5057 9.28788 12.5587 9.34091 12.5852C9.39394 12.6117 9.47159 12.6439 9.57386 12.6818C9.67614 12.7197 9.76136 12.7386 9.82955 12.7386C9.96591 12.7386 10.1402 12.6307 10.3523 12.4148C10.5644 12.1989 10.7652 11.964 10.9545 11.7102C11.1439 11.4564 11.3523 11.2216 11.5795 11.0057C11.8068 10.7898 11.9962 10.6818 12.1477 10.6818C12.2538 10.6818 12.3617 10.7083 12.4716 10.7614C12.5814 10.8144 12.7159 10.8958 12.875 11.0057C13.0341 11.1155 13.1288 11.1818 13.1591 11.2045C13.3485 11.3182 13.5511 11.4356 13.767 11.5568C13.983 11.678 14.2235 11.8106 14.4886 11.9545C14.7538 12.0985 14.9583 12.2121 15.1023 12.2955C15.6326 12.5606 15.9205 12.7614 15.9659 12.8977C15.9886 12.9508 16 13.0303 16 13.1364Z" fill="#359195"/>
</svg>
