<svg width="19" height="19" viewBox="0 0 19 19" fill="none" xmlns="http://www.w3.org/2000/svg">
<path d="M12.6066 13.8577L14.1652 6.51004C14.2288 6.19903 14.1917 5.97638 14.0539 5.84208C13.916 5.70778 13.734 5.68304 13.5078 5.76786L4.3471 9.29855C4.14211 9.3763 4.00251 9.46466 3.92829 9.56362C3.85407 9.66257 3.84524 9.75623 3.90179 9.84459C3.95833 9.93294 4.07143 10.0019 4.24107 10.0513L6.58426 10.7829L12.0234 7.35826C12.1719 7.2593 12.285 7.23809 12.3627 7.29464C12.4122 7.32998 12.3981 7.383 12.3203 7.45368L7.9202 11.4297L7.75056 13.8471C7.91313 13.8471 8.07217 13.7693 8.22768 13.6138L9.37277 12.5112L11.7478 14.2606C12.2001 14.5151 12.4864 14.3808 12.6066 13.8577ZM19 9.5C19 10.7865 18.7491 12.0164 18.2472 13.1897C17.7453 14.3631 17.0703 15.3739 16.2221 16.2221C15.3739 17.0703 14.3631 17.7453 13.1897 18.2472C12.0164 18.7491 10.7865 19 9.5 19C8.21354 19 6.98363 18.7491 5.81027 18.2472C4.6369 17.7453 3.62612 17.0703 2.7779 16.2221C1.92969 15.3739 1.25465 14.3631 0.75279 13.1897C0.25093 12.0164 0 10.7865 0 9.5C0 8.21354 0.25093 6.98363 0.75279 5.81027C1.25465 4.6369 1.92969 3.62612 2.7779 2.7779C3.62612 1.92969 4.6369 1.25465 5.81027 0.75279C6.98363 0.25093 8.21354 0 9.5 0C10.7865 0 12.0164 0.25093 13.1897 0.75279C14.3631 1.25465 15.3739 1.92969 16.2221 2.7779C17.0703 3.62612 17.7453 4.6369 18.2472 5.81027C18.7491 6.98363 19 8.21354 19 9.5Z" fill="white"/>
</svg>
