<svg width="15" height="13" viewBox="0 0 15 13" fill="none" xmlns="http://www.w3.org/2000/svg">
<path fill-rule="evenodd" clip-rule="evenodd" d="M14.8337 3.07271L6.00414 11.9433C5.78256 12.166 5.42312 12.166 5.20141 11.9433L5.02331 11.7644L5.02264 11.7651L4.82996 11.5702L3.99739 10.7336C3.99199 10.7282 3.99037 10.7208 3.9851 10.7152L0.166182 6.85041C-0.0553942 6.62776 -0.0553942 6.26677 0.166182 6.04399L1.3702 4.83443C1.59192 4.61178 1.95122 4.61178 2.17293 4.83443L5.6073 8.30991L12.827 1.05673C13.0487 0.833953 13.408 0.833953 13.6297 1.05673L14.8337 2.26629C15.0554 2.48894 15.0554 2.85007 14.8337 3.07271Z" fill="#68C6CA"/>
</svg>
