<svg width="11" height="9" viewBox="0 0 11 9" fill="none" xmlns="http://www.w3.org/2000/svg">
<path fill-rule="evenodd" clip-rule="evenodd" d="M10.8669 1.59926L4.3985 8.09767C4.23618 8.26078 3.97286 8.26078 3.81044 8.09767L3.67997 7.96663L3.67947 7.96713L3.53832 7.82431L2.9284 7.21147C2.92444 7.20752 2.92326 7.20207 2.9194 7.19801L0.121742 4.36672C-0.0405805 4.20362 -0.0405805 3.93916 0.121742 3.77596L1.00378 2.88986C1.1662 2.72675 1.42942 2.72675 1.59184 2.88986L4.10778 5.43592L9.39675 0.122404C9.55917 -0.0408012 9.82239 -0.0408012 9.98481 0.122404L10.8669 1.0085C11.0293 1.17161 11.0293 1.43616 10.8669 1.59926Z" fill="#667474"/>
</svg>
