<svg width="17" height="18" viewBox="0 0 17 18" fill="none" xmlns="http://www.w3.org/2000/svg">
<path d="M10.9017 10.0832C10.9976 10.0832 11.3573 10.2477 11.9808 10.5767C12.6043 10.9057 12.9345 11.1038 12.9714 11.1711C12.9861 11.2085 12.9935 11.2646 12.9935 11.3394C12.9935 11.5861 12.9308 11.8702 12.8053 12.1917C12.6873 12.4833 12.4253 12.7282 12.0195 12.9263C11.6137 13.1245 11.2374 13.2235 10.8906 13.2235C10.4701 13.2235 9.7691 12.9917 8.78776 12.5282C8.06467 12.1917 7.4375 11.7506 6.90625 11.2048C6.375 10.659 5.82899 9.96736 5.26823 9.12995C4.73698 8.32993 4.47504 7.60467 4.48242 6.95419V6.86446C4.50456 6.18407 4.77756 5.5934 5.30143 5.09245C5.47852 4.92796 5.67036 4.84571 5.87695 4.84571C5.92122 4.84571 5.98763 4.85132 6.07617 4.86254C6.16471 4.87375 6.23481 4.87936 6.28646 4.87936C6.42665 4.87936 6.52441 4.90366 6.57975 4.95226C6.63509 5.00086 6.69227 5.10367 6.7513 5.26068C6.81033 5.41022 6.93207 5.7392 7.11654 6.24762C7.301 6.75605 7.39323 7.03643 7.39323 7.08877C7.39323 7.24578 7.26595 7.46074 7.01139 7.73365C6.75684 8.00655 6.62956 8.18039 6.62956 8.25516C6.62956 8.3075 6.648 8.36357 6.6849 8.42339C6.93576 8.9692 7.31207 9.48136 7.8138 9.95988C8.227 10.3562 8.78407 10.7337 9.48503 11.0926C9.57357 11.145 9.65473 11.1711 9.72852 11.1711C9.83919 11.1711 10.0384 10.9898 10.3262 10.6272C10.6139 10.2646 10.8058 10.0832 10.9017 10.0832ZM8.65495 16.0273C9.59201 16.0273 10.4903 15.8404 11.3499 15.4666C12.2095 15.0927 12.9492 14.5918 13.569 13.9637C14.1888 13.3357 14.6832 12.5861 15.0521 11.7151C15.421 10.844 15.6055 9.93371 15.6055 8.98415C15.6055 8.03459 15.421 7.12428 15.0521 6.25323C14.6832 5.38218 14.1888 4.63262 13.569 4.00457C12.9492 3.37651 12.2095 2.87556 11.3499 2.50172C10.4903 2.12788 9.59201 1.94096 8.65495 1.94096C7.71788 1.94096 6.81955 2.12788 5.95996 2.50172C5.10037 2.87556 4.36068 3.37651 3.74089 4.00457C3.12109 4.63262 2.62674 5.38218 2.25781 6.25323C1.88889 7.12428 1.70443 8.03459 1.70443 8.98415C1.70443 10.502 2.14714 11.8777 3.03255 13.1114L2.1582 15.7245L4.83659 14.861C6.00239 15.6385 7.27517 16.0273 8.65495 16.0273ZM8.65495 0.527832C9.78385 0.527832 10.863 0.752138 11.8923 1.20075C12.9215 1.64936 13.8088 2.25125 14.554 3.00641C15.2993 3.76157 15.8932 4.66066 16.3359 5.70368C16.7786 6.7467 17 7.84019 17 8.98415C17 10.1281 16.7786 11.2216 16.3359 12.2646C15.8932 13.3076 15.2993 14.2067 14.554 14.9619C13.8088 15.7171 12.9215 16.3189 11.8923 16.7676C10.863 17.2162 9.78385 17.4405 8.65495 17.4405C7.21615 17.4405 5.86957 17.0891 4.61523 16.3862L0 17.8891L1.50521 13.3469C0.708333 12.016 0.309896 10.5618 0.309896 8.98415C0.309896 7.84019 0.53125 6.7467 0.973958 5.70368C1.41667 4.66066 2.01063 3.76157 2.75586 3.00641C3.50109 2.25125 4.38835 1.64936 5.41764 1.20075C6.44694 0.752138 7.52604 0.527832 8.65495 0.527832Z" fill="#359195"/>
</svg>
