<svg width="19" height="20" viewBox="0 0 19 20" fill="none" xmlns="http://www.w3.org/2000/svg">
<path d="M12.1842 10.6796C12.2914 10.6796 12.6935 10.8634 13.3903 11.2311C14.0871 11.5988 14.4562 11.8202 14.4974 11.8955C14.5139 11.9372 14.5221 11.9999 14.5221 12.0835C14.5221 12.3592 14.452 12.6768 14.3118 13.0361C14.1799 13.362 13.8872 13.6357 13.4336 13.8571C12.98 14.0786 12.5595 14.1893 12.1719 14.1893C11.7018 14.1893 10.9184 13.9303 9.82162 13.4122C9.01346 13.0361 8.3125 12.5431 7.71875 11.9331C7.125 11.323 6.51476 10.5501 5.88802 9.61413C5.29427 8.71999 5.00152 7.90941 5.00977 7.1824V7.08212C5.03451 6.32168 5.33963 5.66152 5.92513 5.10163C6.12305 4.91779 6.33746 4.82587 6.56836 4.82587C6.61784 4.82587 6.69206 4.83214 6.79102 4.84467C6.88997 4.8572 6.96832 4.86347 7.02604 4.86347C7.18273 4.86347 7.29199 4.89063 7.35384 4.94495C7.41569 4.99926 7.4796 5.11417 7.54557 5.28965C7.61155 5.45678 7.74761 5.82447 7.95378 6.39271C8.15994 6.96095 8.26302 7.27432 8.26302 7.33281C8.26302 7.5083 8.12077 7.74855 7.83626 8.05356C7.55176 8.35857 7.40951 8.55286 7.40951 8.63642C7.40951 8.69492 7.43012 8.75759 7.47135 8.82444C7.75174 9.43447 8.17231 10.0069 8.73307 10.5417C9.19488 10.9846 9.81749 11.4066 10.6009 11.8077C10.6999 11.8662 10.7906 11.8955 10.873 11.8955C10.9967 11.8955 11.2194 11.6928 11.541 11.2875C11.8626 10.8822 12.077 10.6796 12.1842 10.6796ZM9.67318 17.323C10.7205 17.323 11.7245 17.1141 12.6852 16.6962C13.6459 16.2784 14.4727 15.7185 15.1654 15.0166C15.8581 14.3147 16.4106 13.4769 16.8229 12.5034C17.2352 11.5299 17.4414 10.5125 17.4414 9.45118C17.4414 8.38991 17.2352 7.37251 16.8229 6.39898C16.4106 5.42545 15.8581 4.58771 15.1654 3.88576C14.4727 3.18382 13.6459 2.62393 12.6852 2.20611C11.7245 1.78829 10.7205 1.57937 9.67318 1.57937C8.62587 1.57937 7.62185 1.78829 6.66113 2.20611C5.70041 2.62393 4.8737 3.18382 4.18099 3.88576C3.48828 4.58771 2.93576 5.42545 2.52344 6.39898C2.11111 7.37251 1.90495 8.38991 1.90495 9.45118C1.90495 11.1475 2.39974 12.6851 3.38932 14.064L2.41211 16.9845L5.4056 16.0194C6.70855 16.8884 8.13108 17.323 9.67318 17.323ZM9.67318 0C10.9349 0 12.141 0.250694 13.2913 0.752083C14.4417 1.25347 15.4334 1.92617 16.2663 2.77017C17.0992 3.61418 17.763 4.61904 18.2578 5.78477C18.7526 6.9505 19 8.17264 19 9.45118C19 10.7297 18.7526 11.9519 18.2578 13.1176C17.763 14.2833 17.0992 15.2882 16.2663 16.1322C15.4334 16.9762 14.4417 17.6489 13.2913 18.1503C12.141 18.6517 10.9349 18.9024 9.67318 18.9024C8.0651 18.9024 6.56011 18.5096 5.1582 17.7241L0 19.4037L1.68229 14.3272C0.791667 12.8397 0.346354 11.2144 0.346354 9.45118C0.346354 8.17264 0.59375 6.9505 1.08854 5.78477C1.58333 4.61904 2.24718 3.61418 3.08008 2.77017C3.91298 1.92617 4.90462 1.25347 6.05501 0.752083C7.2054 0.250694 8.41146 0 9.67318 0Z" fill="white"/>
</svg>
