<svg width="178" height="145" viewBox="0 0 178 145" fill="none" xmlns="http://www.w3.org/2000/svg">
<path d="M177.757 102.554C176.964 126.795 156.744 145.807 132.556 144.964C108.393 144.12 93.8229 126.337 90.2405 99.5662C87.0908 76.0963 115.943 56.4577 140.13 57.3011C164.293 58.1445 178.551 78.3131 177.757 102.554Z" fill="#BDE2F1"/>
<path d="M22.6897 23.6663C16.9624 28.5974 8.24602 27.981 3.27038 22.3279C-1.72317 16.6748 -0.77458 9.63038 4.59482 3.21997C9.302 -2.43316 19.9871 -0.0204607 24.9986 5.65028C29.9921 11.3034 28.435 18.7705 22.6897 23.6663Z" fill="#BDE2F1"/>
<path d="M70.2817 38.6378C64.5604 43.604 55.9161 42.9988 50.9434 37.2851C45.9707 31.5713 47.6461 21.9417 53.3673 16.9577C59.0886 12.0094 66.6457 13.5936 71.6185 19.3073C76.609 25.0032 76.003 33.6539 70.2817 38.6378Z" fill="#F46161" fill-opacity="0.58"/>
</svg>
