<svg width="143" height="167" viewBox="0 0 143 167" fill="none" xmlns="http://www.w3.org/2000/svg">
<g clip-path="url(#clip0_122_16117)">
<path d="M72.7578 45.0907C63.5625 39.3316 60.763 27.2286 66.5346 18.0556C72.3007 8.89189 82.4577 7.25149 93.6165 11.8858C103.401 15.9451 104.5 31.5302 98.7282 40.7032C92.9621 49.8669 81.953 50.8498 72.7578 45.0907Z" fill="#693E61"/>
<path d="M73.3703 117.986C64.175 112.226 61.3848 100.129 67.1471 90.9504C72.9241 81.7681 86.8276 80.1396 96.0282 85.8893C105.218 91.6577 106.224 102.643 100.467 111.812C94.6953 120.985 82.5748 123.75 73.3703 117.986Z" fill="#693E61"/>
<path d="M25.6189 103.627C24.7421 99.1313 27.7043 94.7886 32.2002 93.9409C36.7015 93.0839 40.1418 95.745 41.9096 100.51C43.4771 104.697 38.969 109.511 34.4529 110.372C29.9516 111.229 26.4718 108.121 25.6189 103.627Z" fill="#693E61"/>
<path d="M3.1956 124.75C2.33346 120.25 5.27558 115.921 9.77687 115.064C14.2782 114.207 18.8104 118.013 19.6818 122.518C20.5346 127.012 17.4102 130.476 12.9089 131.333C8.41155 132.205 4.06706 129.255 3.1956 124.75Z" fill="#693E61"/>
</g>
<defs>
<clipPath id="clip0_122_16117">
<rect width="145.983" height="79.6272" fill="white" transform="translate(142.227 40.0334) rotate(120.183)"/>
</clipPath>
</defs>
</svg>
