<svg width="276" height="211" viewBox="0 0 276 211" fill="none" xmlns="http://www.w3.org/2000/svg">
<g clip-path="url(#clip0_122_26750)">
<path d="M274.832 115.009C283.155 62.6745 246.413 12.8887 192.056 1.31627C137.143 -7.19196 85.1118 26.2724 74.3058 78.1431C69.6341 100.593 72.3277 119.726 82.4813 138.964L96.486 136.69L85.701 145.988C88.7103 151.126 95.0024 159.108 99.6531 164.773L122.096 155.286L106.145 171.049C120.023 184.064 136.017 191.962 156.271 196.258C176.737 199.449 194.487 197.753 212.08 190.53L202.768 170.123L220.381 186.981C226.737 183.338 235.459 178.115 240.099 174.387L233.323 161.857L245.602 168.964C261.911 154.58 271.223 137.659 274.832 115.009Z" fill="#EB6654"/>
<path d="M64.9097 177.462C73.6323 173.345 84.028 177.062 88.1315 185.791C92.2351 194.521 88.5945 202.923 79.7771 209.052C72.0435 214.433 59.8487 207.767 55.7451 199.027C51.6521 190.309 56.187 181.59 64.9097 177.462Z" fill="#D03717"/>
<path d="M10.0274 142.871C18.7501 138.754 29.1457 142.481 33.2492 151.2C37.3633 159.94 31.913 171.154 23.2008 175.282C14.4782 179.399 5.76603 174.872 1.66249 166.142C-2.43053 157.413 1.29422 147.009 10.0274 142.871Z" fill="#D03717"/>
<path d="M43.6765 113.998C47.4643 115.503 49.2952 119.8 47.78 123.58C46.2648 127.371 42.6243 128.655 38.2051 127.697C34.312 126.855 32.881 121.158 34.3961 117.367C35.9008 113.587 39.8991 112.471 43.6765 113.998Z" fill="#D03717"/>
<path d="M38.5943 87.0304C42.3717 88.5467 44.2025 92.8324 42.6978 96.6127C41.1827 100.403 36.1532 101.962 32.3758 100.446C28.5985 98.9188 27.5042 94.9174 29.0194 91.1371C30.524 87.3568 34.8169 85.5141 38.5943 87.0304Z" fill="#D03717"/>
</g>
<defs>
<clipPath id="clip0_122_26750">
<rect width="276" height="211" fill="white"/>
</clipPath>
</defs>
</svg>
