<svg width="184" height="129" viewBox="0 0 184 129" fill="none" xmlns="http://www.w3.org/2000/svg">
<g clip-path="url(#clip0_122_14523)">
<path d="M2.39418 46.0696C-7.14582 79.2296 12.6642 114.32 46.9042 126.12C81.7442 135.99 118.054 118.5 129.164 85.8296C133.974 71.6896 133.744 59.1196 128.704 45.8696L119.464 46.2296L127.174 41.0796C125.634 37.5196 122.204 31.8596 119.644 27.8296L104.374 32.1796L115.944 23.2596C108.004 13.7496 98.2942 7.37956 85.5242 2.98956C72.5442 -0.700441 60.9242 -1.01044 48.9742 2.25956L53.3742 16.1896L43.3342 3.89956C38.9342 5.74956 32.8842 8.42956 29.5842 10.4796L32.9742 19.1096L25.5942 13.5396C13.8942 21.5296 6.52418 31.7196 2.39418 46.0696Z" fill="#E5E5E5"/>
<path d="M143.12 22.4C137.15 24.37 130.72 21.14 128.76 15.17C126.8 9.2 129.82 4.06 136.01 0.799997C141.44 -2.07 148.8 3.22 150.75 9.18C152.71 15.16 149.09 20.43 143.12 22.4Z" fill="#EC6953"/>
<path d="M175.87 49.12C169.9 51.09 163.48 47.85 161.51 41.89C159.55 35.92 163.96 29.1 169.92 27.13C175.89 25.16 181.16 28.78 183.12 34.75C185.08 40.71 181.84 47.14 175.87 49.12Z" fill="#EC6953"/>
<path d="M151.81 65.11C149.48 63.84 148.64 60.91 149.92 58.59C151.2 56.26 153.66 55.72 156.44 56.69C158.89 57.54 159.37 61.34 158.08 63.67C156.81 65.99 154.13 66.39 151.81 65.11Z" fill="#EC6953"/>
<path d="M152.95 82.94C150.62 81.66 149.78 78.75 151.06 76.42C152.34 74.09 155.72 73.48 158.04 74.76C160.36 76.04 160.75 78.72 159.47 81.04C158.2 83.37 155.28 84.22 152.95 82.94Z" fill="#EC6953"/>
</g>
<defs>
<clipPath id="clip0_122_14523">
<rect width="183.69" height="128.88" fill="white"/>
</clipPath>
</defs>
</svg>
