<svg width="261" height="277" viewBox="0 0 261 277" fill="none" xmlns="http://www.w3.org/2000/svg">
<g clip-path="url(#clip0_149_9)">
<path d="M149.728 162.181C150.078 161.701 150.507 161.112 150.836 160.615C166.42 137.528 160.319 106.063 137.251 90.4779C114.662 75.2221 84.0551 80.7254 68.1438 102.586L68.0329 102.738C52.1021 124.584 56.2438 155.407 77.6872 172.235C99.5966 189.435 131.412 185.6 148.608 163.673C148.978 163.19 149.379 162.664 149.728 162.181Z" fill="#15466B"/>
<path d="M225.058 217.055L225.124 216.965C227.42 213.724 228.117 209.3 226.159 205.562C224.097 201.668 221.146 198.784 216.926 197.028C198.087 189.153 181.134 178.505 167.399 163.099C163.971 159.264 162.9 155.874 164.329 150.562C168.365 135.613 168.321 120.551 161.565 106.23C159.297 101.401 155.682 97.2288 152.783 92.6923C152.061 91.5483 151.542 90.1963 151.254 88.8701C150.834 86.9428 150.887 84.9241 150.433 83.0229C149.104 77.5075 145.057 74.6574 139.852 76.7527C134.993 78.6936 131.118 77.6612 126.526 76.1368C109.242 70.3976 93.0067 73.565 77.6843 82.9176C76.483 83.6485 74.8693 83.8431 73.4074 84.0139C69.0819 84.5584 64.6155 84.4478 60.4559 85.5431C56.7395 86.5135 53.9323 88.3464 52.0683 90.8844L52.0058 90.9702C51.9916 90.9897 51.9714 90.9929 51.9745 91.0131C50.13 93.5654 49.2458 96.7994 49.461 100.635C49.6899 104.93 51.1644 109.152 51.9747 113.432C52.2399 114.88 52.5694 116.472 52.2418 117.84C48.0333 135.299 49.9965 151.742 60.7536 166.42C63.6117 170.323 65.7854 173.696 65.4238 178.917C65.0415 184.49 68.9736 187.489 74.6343 187.067C76.5831 186.917 78.4918 186.247 80.4515 186.057C81.8049 185.92 83.2481 186.005 84.5583 186.341C89.7646 187.711 94.8598 189.868 100.135 190.552C115.834 192.596 130.183 188.001 143.178 179.597C147.797 176.609 151.352 176.593 156.052 178.678C174.932 187.051 190.262 199.923 203.525 215.427C206.503 218.887 210.132 220.815 214.471 221.584C218.628 222.324 222.623 220.287 225.007 217.104C225.024 217.078 225.041 217.075 225.058 217.055ZM56.7198 94.3961C59.5048 90.5735 64.2324 89.2682 67.2701 91.4995C62.9745 95.4246 59.615 100.032 57.1818 105.347C54.1418 103.123 53.9349 98.2187 56.7198 94.3961ZM115.218 185.089C108.383 185.91 101.573 185.411 94.9476 183.629C88.0988 181.765 81.7746 178.578 76.1487 174.162C70.5228 169.746 65.9215 164.354 62.4898 158.14C59.1683 152.143 57.0666 145.643 56.2422 138.809C55.4212 131.973 55.92 125.162 57.7019 118.537C59.392 112.295 62.1944 106.494 66.0138 101.252C66.028 101.232 66.045 101.209 66.045 101.209C66.0592 101.189 66.0561 101.169 66.0763 101.166C66.0905 101.146 66.1076 101.123 66.1076 101.123C69.9269 95.8806 74.5865 91.4355 80.0127 87.9132C85.7495 84.1695 92.1029 81.6244 98.8604 80.3112C105.618 78.9981 112.449 79.0103 119.175 80.3343C126.138 81.6971 132.68 84.4249 138.611 88.4266C144.538 92.4289 149.51 97.4725 153.383 103.421C157.127 109.158 159.672 115.512 160.985 122.27C162.298 129.028 162.286 135.859 160.962 142.585C159.6 149.549 156.872 156.092 152.871 162.023C152.507 162.543 152.084 163.172 151.718 163.675C151.351 164.178 150.936 164.727 150.533 165.236C146.117 170.862 140.725 175.46 134.512 178.896C128.549 182.167 122.05 184.269 115.218 185.089ZM208.062 209.454C203.606 205.956 200.841 201.899 201.421 199.915C201.432 199.876 201.449 199.852 201.443 199.815C201.457 199.796 201.495 199.769 201.532 199.763C203.247 198.606 207.954 200.012 212.646 203.165C217.795 206.633 220.964 210.934 219.737 212.73C219.688 212.796 219.64 212.862 219.592 212.908C219.578 212.927 219.558 212.93 219.541 212.954L219.509 212.997C219.495 213.016 219.498 213.036 219.481 213.06C219.453 213.123 219.405 213.189 219.356 213.252C218.002 214.992 212.955 213.269 208.062 209.454Z" fill="#15466B"/>
</g>
<path d="M106.824 67.1716C111.555 89.8952 134.299 104.608 158.302 100.935C182.055 95.9169 198.107 74.1447 194.448 51.2109C192.879 41.2918 188.805 33.8721 181.651 27.555L176.289 30.6578L179.248 25.1726C177.218 23.5432 173.41 21.2358 170.629 19.6298L162.931 26.9995L166.993 18.0639C159.308 14.8713 151.552 14.1267 142.599 15.4942C133.751 17.3673 126.756 20.8057 120.698 26.4846L127.672 33.4153L117.855 29.2424C115.818 31.7168 113.076 35.1997 111.763 37.4648L116.482 41.5427L110.361 40.5269C105.949 48.9408 104.783 57.3229 106.824 67.1716Z" fill="#FCC302"/>
<defs>
<clipPath id="clip0_149_9">
<rect width="164" height="164" fill="white" transform="translate(66.9193 245.29) rotate(-98.9231)"/>
</clipPath>
</defs>
</svg>
