<svg width="333" height="316" viewBox="0 0 333 316" fill="none" xmlns="http://www.w3.org/2000/svg">
<path d="M53.8551 145.425C59.8005 147.468 62.9665 153.93 60.9156 159.869C58.8647 165.808 53.3505 168.074 46.4495 166.925C40.3896 165.926 37.7293 157.261 39.7821 151.336C41.8391 145.388 47.9097 143.382 53.8551 145.425Z" fill="#FFE499"/>
<path d="M43.9419 104.337C49.8874 106.38 53.0393 112.843 51.0024 118.781C48.9515 124.72 41.3142 127.483 35.3768 125.446C29.4313 123.403 27.425 117.332 29.4759 111.393C31.5207 105.462 37.9905 102.302 43.9419 104.337Z" fill="#FFE499"/>
<path d="M72.7732 106.16C73.8602 108.58 72.7565 111.422 70.3338 112.495C67.9051 113.575 65.6196 112.517 63.9928 110.063C62.5562 107.904 64.4728 104.588 66.9095 103.513C69.3242 102.434 71.7002 103.737 72.7732 106.16Z" fill="#FFE499"/>
<path d="M82.6517 91.2724C83.7327 93.7012 82.6411 96.5265 80.2124 97.6074C77.7836 98.6884 74.7232 97.1294 73.6503 94.7067C72.5773 92.2839 73.888 89.914 76.3107 88.841C78.7315 87.7541 81.5708 88.8437 82.6517 91.2724Z" fill="#FFE499"/>
<g clip-path="url(#clip0_149_8)">
<path d="M233.843 252.288C269.274 235.253 284.683 192.379 269.476 155.058C252.161 118.696 210.335 101.712 174.149 117.1C158.493 123.732 147.892 133.388 140.277 147.571L147.415 154.966L137.292 152.442C135.399 156.399 133.075 163.513 131.507 168.677L146.531 178.09L130.332 175.206C128.041 188.959 129.789 201.815 135.457 215.737C141.913 229.281 150.225 239.179 161.851 246.637L170.541 232.492L167.459 250.098C172.294 252.373 179.051 255.371 183.266 256.561L188.143 247.243L188.821 257.566C204.299 261.231 218.483 259.657 233.843 252.288Z" fill="#FCC302"/>
<path d="M188.981 148.14C191.236 151.42 195.792 152.204 199.159 149.89C202.525 147.577 203.427 143.042 201.172 139.761C198.918 136.481 194.361 135.697 190.995 138.011C187.628 140.324 186.727 144.859 188.981 148.14Z" fill="#FCD977"/>
<path d="M171.408 170.229C173.167 172.789 176.723 173.401 179.351 171.595C181.978 169.79 182.681 166.251 180.922 163.691C179.163 161.131 175.607 160.519 172.979 162.325C170.352 164.13 169.649 167.669 171.408 170.229Z" fill="#FCD977"/>
<path d="M202.079 245.307C203.838 247.867 207.394 248.479 210.021 246.674C212.649 244.868 213.352 241.329 211.593 238.769C209.833 236.209 206.277 235.597 203.65 237.403C201.023 239.209 200.32 242.747 202.079 245.307Z" fill="#FCD977"/>
<path d="M251.535 183.08C252.842 184.981 255.482 185.435 257.433 184.095C259.383 182.754 259.906 180.126 258.599 178.225C257.293 176.325 254.653 175.87 252.702 177.211C250.751 178.552 250.229 181.179 251.535 183.08Z" fill="#FCD977"/>
<path d="M215.133 231.228C216.439 233.129 219.08 233.583 221.031 232.242C222.981 230.901 223.504 228.274 222.197 226.373C220.891 224.472 218.251 224.018 216.3 225.359C214.349 226.699 213.827 229.327 215.133 231.228Z" fill="#FCD977"/>
<path d="M190.586 178.667C191.471 179.955 193.259 180.262 194.581 179.354C195.902 178.446 196.256 176.666 195.371 175.378C194.486 174.091 192.697 173.783 191.376 174.691C190.055 175.599 189.701 177.38 190.586 178.667Z" fill="#FCD977"/>
</g>
<defs>
<clipPath id="clip0_149_8">
<rect width="147.682" height="146.892" fill="white" transform="translate(221.059 82.8992) rotate(55.5011)"/>
</clipPath>
</defs>
</svg>
