<svg width="269" height="327" viewBox="0 0 269 327" fill="none" xmlns="http://www.w3.org/2000/svg">
<path d="M53.1662 196.974C51.4129 198.063 49.863 199.419 48.3405 200.917C47.4599 201.839 47.4218 203.205 48.0821 204.29L53.9708 212.972C54.6302 214.052 56.0796 214.532 57.1853 214.015C59.1364 213.188 60.8897 212.099 62.6421 211.005C70.2353 205.773 74.2722 198.511 71.7165 194.619C69.1627 190.737 60.7593 191.742 53.1662 196.974ZM39.8842 208.726C36.1416 212.009 35.1147 216.887 37.6217 219.73C40.1287 222.572 45.0401 222.231 48.7826 218.949C49.4246 218.373 49.9243 217.824 50.424 217.276C51.1575 216.382 51.0251 214.896 50.2459 213.987L45.0341 208.039C44.2549 207.13 42.8347 206.802 41.7563 207.462C41.0823 207.896 40.7014 208.269 39.8842 208.726ZM36.7746 283.754C32.0962 283.745 28.2345 291.127 28.1921 300.346C28.2933 302.439 28.3906 304.537 28.7811 306.574C29.0041 307.737 30.2197 308.563 31.4373 308.63L42.0118 308.715C43.2294 308.781 44.4275 307.951 44.64 306.699C45.0025 304.666 45.2236 302.664 45.2686 300.538C45.6022 291.273 41.7705 283.855 36.7746 283.754ZM42.7692 315.821C42.6932 314.63 41.7388 313.601 40.4929 313.387L32.7471 312.307C31.5013 312.093 30.3041 312.928 29.9154 314.056C29.591 314.724 29.4409 315.506 29.2861 316.289C28.5533 321.111 31.0448 325.463 34.7589 325.957C38.473 326.451 42.0178 322.907 42.7506 318.084C42.9007 317.302 42.8811 316.405 42.7692 315.821ZM5.60907 253.342C4.78194 255.312 4.0971 257.255 3.58753 259.317C3.22711 260.593 3.91474 261.819 5.07474 262.355L14.6573 266.707C15.8164 267.238 17.2679 266.959 17.9732 265.918C19.2922 264.154 20.2946 262.303 21.1547 260.479C24.9677 252.048 24.5669 243.672 20.284 241.776C15.9954 239.875 9.45027 245.059 5.60907 253.342ZM0.911238 270.548C-0.608506 275.216 1.18547 279.854 4.7222 280.988C8.25893 282.121 12.3746 279.221 13.7464 274.576C13.8965 273.794 14.0504 273.006 14.2004 272.224C14.2668 271.006 13.5791 269.779 12.3051 269.417L4.77173 267.085C3.63994 266.697 2.2167 267.122 1.68194 268.283C1.21612 268.983 0.771966 269.821 0.911238 270.548ZM67.4742 235.442C63.5439 233.025 56.3337 237.125 51.3382 244.876C50.3085 246.585 49.3061 248.436 48.4789 250.407C48.0912 251.539 48.4895 252.822 49.5298 253.528L58.3165 259.243C59.5038 259.922 60.8412 259.818 61.7161 258.892C63.2659 257.536 64.4436 255.804 65.6156 254.068C70.7629 246.288 71.5797 237.978 67.4742 235.442ZM55.2751 265.414C55.8051 264.254 55.5539 262.943 54.6334 262.066L48.5419 257.046C47.6204 256.164 46.1087 256.153 45.2008 256.933C44.7012 257.482 44.0592 258.058 43.5595 258.606C40.3653 262.389 40.0914 267.271 42.9793 269.74C45.8662 272.205 50.7815 271.115 53.9805 267.331C54.4783 266.773 55.0921 266.05 55.2751 265.414ZM99.2819 206.251C97.3307 207.078 95.3749 207.906 93.6545 209.141C92.7467 209.921 92.2439 211.223 92.7563 212.331L96.6891 221.842C97.2015 222.95 98.3888 223.628 99.6979 223.377C101.88 222.959 103.859 222.279 105.815 221.451C114.469 217.828 119.896 211.505 118.186 207.304C116.471 203.104 107.908 202.48 99.2819 206.251ZM83.8152 215.251C79.4687 217.744 77.4853 222.353 79.2892 225.478C81.1212 228.75 86.0587 229.315 90.4042 226.818C91.0744 226.389 91.7484 225.955 92.3904 225.379C93.2983 224.599 93.6257 223.178 92.9663 222.098L89.1269 215.434C88.6145 214.326 87.1652 213.846 86.0265 214.217C85.1556 214.394 84.4854 214.823 83.8152 215.251ZM104.282 164.815C102.605 166.018 101.147 167.469 99.7212 169.061C98.9055 170.04 98.9508 171.405 99.6806 172.442L106.118 180.729C106.848 181.765 108.323 182.147 109.396 181.563C111.293 180.608 112.966 179.411 114.644 178.208C121.885 172.498 125.441 164.988 122.644 161.27C119.841 157.554 111.523 159.104 104.282 164.815ZM91.7902 177.405C88.2655 180.926 87.5584 185.857 90.2401 188.533C92.9217 191.209 97.8023 190.554 101.327 187.033C101.931 186.415 102.396 185.838 102.855 185.258C103.531 184.316 103.298 182.845 102.465 181.99L96.8829 176.394C96.0503 175.54 94.6076 175.3 93.5723 176.03C92.9331 176.492 92.5776 176.895 91.7902 177.405ZM150.899 171.086C149.001 172.041 147.108 172.989 145.468 174.338C144.615 175.171 144.197 176.506 144.782 177.58L149.321 186.817C149.906 187.892 151.132 188.494 152.425 188.157C154.575 187.597 156.505 186.789 158.403 185.839C166.809 181.663 171.812 175.003 169.834 170.922C167.852 166.837 159.267 166.769 150.899 171.086ZM136.049 181.076C131.874 183.846 130.194 188.574 132.196 191.577C134.235 194.726 139.194 194.967 143.374 192.196C144.016 191.724 144.658 191.251 145.263 190.633C146.116 189.8 146.356 188.356 145.626 187.319L141.365 180.919C140.78 179.844 139.305 179.462 138.195 179.902C137.333 180.126 136.691 180.599 136.049 181.076ZM149.16 128.411C147.836 129.994 146.783 131.762 145.799 133.659C145.253 134.812 145.637 136.122 146.601 136.941L154.889 143.367C155.854 144.192 157.379 144.195 158.271 143.359C159.872 141.964 161.197 140.386 162.522 138.803C168.114 131.469 169.697 123.308 166.062 120.406C162.428 117.509 154.752 121.077 149.16 128.411ZM140.184 143.72C137.647 148.007 138.184 152.96 141.449 154.884C144.713 156.803 149.277 154.959 151.814 150.672C152.247 149.924 152.549 149.246 152.853 148.572C153.27 147.493 152.683 146.124 151.664 145.502L144.867 141.468C143.848 140.846 142.392 140.973 141.574 141.937C141.067 142.551 140.819 143.027 140.184 143.72ZM195.867 122.889C194.265 124.284 192.669 125.678 191.413 127.386C190.792 128.406 190.72 129.803 191.551 130.698L198.243 138.518C199.078 139.411 200.414 139.687 201.58 139.045C203.522 137.968 205.193 136.703 206.794 135.308C213.894 129.171 217.09 121.474 214.16 118.014C211.23 114.554 202.898 116.623 195.867 122.889ZM183.962 136.258C180.604 139.984 180.15 144.979 182.835 147.389C185.594 149.927 190.458 148.931 193.816 145.21C194.322 144.591 194.823 143.973 195.26 143.225C195.881 142.205 195.754 140.747 194.791 139.928L189.075 134.791C188.24 133.897 186.715 133.894 185.753 134.596C184.969 135.022 184.468 135.639 183.962 136.258ZM188.657 85.3546C187.611 87.1354 186.862 89.0512 186.205 91.0874C185.855 92.3115 186.449 93.5415 187.534 94.1952L196.769 99.1695C197.853 99.8232 199.359 99.5738 200.102 98.6042C201.451 96.9673 202.496 95.1866 203.547 93.4097C207.86 85.2525 208.077 76.9451 204.018 74.6758C199.951 72.4179 192.971 77.2022 188.657 85.3546ZM182.318 101.93C180.519 106.577 181.862 111.376 185.398 112.736C188.934 114.097 193.131 111.52 194.931 106.872C195.232 106.061 195.425 105.345 195.612 104.629C195.847 103.496 195.041 102.243 193.933 101.796L186.564 98.9349C185.456 98.4925 184.04 98.8526 183.393 99.9415C182.995 100.638 182.832 101.147 182.318 101.93ZM233.815 72.2181C232.467 73.855 231.118 75.4919 230.164 77.3881C229.722 78.4968 229.876 79.89 230.845 80.6347L238.732 87.246C239.701 87.9907 241.063 88.0446 242.109 87.214C243.85 85.8316 245.29 84.3101 246.638 82.6732C252.635 75.4534 254.521 67.3331 251.062 64.3975C247.599 61.4675 239.721 64.8828 233.815 72.2181ZM224.273 87.3691C221.572 91.594 221.946 96.598 224.992 98.5346C228.129 100.587 232.764 98.8023 235.465 94.5774C235.864 93.8856 236.257 93.19 236.564 92.3827C237.006 91.2741 236.645 89.8564 235.557 89.2084L229.076 85.0797C228.107 84.335 226.601 84.5843 225.766 85.4337C225.064 85.9817 224.666 86.6735 224.273 87.3691ZM209.956 37.2841C209.393 39.2726 209.151 41.3179 209.034 43.4523C209.003 44.7283 209.89 45.7644 211.104 46.1224L221.292 48.6003C222.506 48.9583 223.897 48.3372 224.374 47.2118C225.264 45.2838 225.828 43.3 226.396 41.3153C228.51 32.3341 226.618 24.234 222.117 23.0734C217.61 21.9042 212.065 28.3038 209.956 37.2841ZM208.012 54.9268C207.442 59.8804 209.959 64.1832 213.717 64.6C217.481 65.0207 220.891 61.4672 221.456 56.5146C221.547 55.6553 221.547 54.9119 221.549 54.1732C221.489 53.0178 220.396 52.0066 219.211 51.8546L211.361 50.9519C210.177 50.8047 208.902 51.512 208.545 52.7275C208.34 53.5053 208.309 54.0379 208.012 54.9268ZM250.325 13.1468C249.436 15.0748 248.546 16.9981 248.098 19.0729C247.951 20.2579 248.452 21.5649 249.576 22.0387L258.873 26.4399C259.997 26.9137 261.333 26.6232 262.131 25.5545C263.467 23.7771 264.472 21.9401 265.366 20.0112C269.342 11.5051 269.117 3.17409 265.032 1.20998C260.944 -0.748482 254.185 4.54965 250.325 13.1468ZM244.918 30.2177C243.374 34.9888 244.997 39.7385 248.434 40.8373C251.986 42.0271 256.019 39.1273 257.563 34.3563C257.769 33.5832 257.98 32.8141 258.071 31.9548C258.218 30.7698 257.511 29.4924 256.296 29.1344L248.98 26.7806C247.857 26.3068 246.46 26.924 245.868 27.9631C245.331 28.6765 245.125 29.4495 244.918 30.2177Z" fill="#F46161"/>
</svg>
