<svg width="458" height="347" viewBox="0 0 458 347" fill="none" xmlns="http://www.w3.org/2000/svg">
<g clip-path="url(#clip0_122_34911)">
<path d="M0 347L3.03357e-05 -3.05176e-05C58.3443 32.172 82.8634 74.2479 175.84 80.0071C302.704 87.8541 370.262 164.586 375.446 237.646C379.32 292.11 400.687 330.134 455.446 347L0 347Z" fill="#9D5592"/>
</g>
<g clip-path="url(#clip1_122_34911)">
<path d="M0 347L1.62206e-05 161.458C38.327 135.324 99.3879 144.825 135.317 169.258C157.895 184.611 171.401 207.647 190.005 227.013C212.871 250.802 245.237 262.367 277.89 258.96C306.112 256.018 336.522 255.661 361.561 270.959C385.7 285.706 396.426 312.422 418.469 329.187C420.262 330.553 422.102 331.826 423.972 333.014C434.373 339.626 445.883 343.701 457.836 347L0 347Z" fill="#693E61"/>
<g clip-path="url(#clip2_122_34911)">
<path d="M82.5429 193.288C81.5294 197.633 84.2117 201.973 88.5434 202.973C92.8709 203.972 96.3028 201.505 98.2132 196.917C99.8896 192.896 95.7056 188.035 91.3739 187.035C87.0465 186.036 83.5564 188.942 82.5429 193.288Z" fill="#CF9EC8"/>
<path d="M61.6555 171.861C60.642 176.207 63.3255 180.542 67.656 181.547C71.992 182.548 76.5116 178.99 77.5294 174.646C78.5386 170.299 75.657 166.805 71.3307 165.802C66.999 164.802 62.6701 167.511 61.6555 171.861Z" fill="#CF9EC8"/>
<path d="M51.8989 189.895C52.9427 191.46 55.0604 191.867 56.6147 190.81C58.1732 189.754 58.4061 187.981 57.5439 186.079C56.7903 184.404 54.0863 184.308 52.5224 185.367C50.9639 186.423 50.8485 188.338 51.8989 189.895Z" fill="#CF9EC8"/>
<path d="M39.2646 190.241C40.3138 191.803 42.4218 192.212 43.9803 191.156C45.5388 190.101 45.7586 187.676 44.7105 186.11C43.6601 184.553 41.7492 184.45 40.1907 185.505C38.6291 186.555 38.2165 188.675 39.2646 190.241Z" fill="#CF9EC8"/>
</g>
</g>
<defs>
<clipPath id="clip0_122_34911">
<rect width="455.446" height="347" fill="white" transform="matrix(1 8.74228e-08 8.74228e-08 -1 0 347)"/>
</clipPath>
<clipPath id="clip1_122_34911">
<rect width="457.836" height="201.151" fill="white" transform="matrix(1 8.74228e-08 8.74228e-08 -1 0 347)"/>
</clipPath>
<clipPath id="clip2_122_34911">
<rect width="59.8824" height="32.7481" fill="white" transform="matrix(-0.965926 -0.258819 -0.258819 0.965926 104.235 174.614)"/>
</clipPath>
</defs>
</svg>
