<svg width="797" height="604" viewBox="0 0 797 604" fill="none" xmlns="http://www.w3.org/2000/svg">
<path d="M0 0V604C101.556 548 144.235 474.761 306.073 464.737C526.897 451.078 644.49 317.516 653.515 190.345C660.256 95.5441 697.45 29.3576 792.764 0H0Z" fill="#CF9EC8"/>
<path d="M0 0V322.961C66.7133 368.45 172.998 351.913 235.537 309.383C274.838 282.66 298.345 242.562 330.729 208.854C370.53 167.445 426.868 147.315 483.705 153.246C532.828 158.366 585.761 158.988 629.345 132.359C671.362 106.69 690.033 60.1879 728.402 31.0059C731.523 28.6281 734.725 26.4124 737.98 24.3454C756.084 12.8347 776.12 5.74183 796.925 0H0Z" fill="#9D5592"/>
<g clip-path="url(#clip0_149_6)">
<path d="M143.677 267.557C141.913 259.993 146.582 252.439 154.122 250.698C161.654 248.959 167.628 253.254 170.953 261.239C173.871 268.238 166.588 276.701 159.049 278.441C151.516 280.18 145.441 275.121 143.677 267.557Z" fill="white"/>
<path d="M107.32 304.852C105.555 297.288 110.226 289.742 117.764 287.993C125.312 286.251 133.179 292.443 134.95 300.005C136.707 307.571 131.691 313.653 124.161 315.399C116.621 317.14 109.086 312.424 107.32 304.852Z" fill="white"/>
<path d="M90.3369 273.461C92.1539 270.738 95.84 270.029 98.5453 271.869C101.258 273.706 101.663 276.793 100.163 280.103C98.851 283.019 94.1444 283.186 91.4222 281.343C88.7094 279.505 88.5086 276.172 90.3369 273.461Z" fill="white"/>
<path d="M68.3452 272.859C70.1716 270.141 73.8408 269.429 76.5537 271.267C79.2665 273.104 79.649 277.324 77.8246 280.049C75.9963 282.76 72.6701 282.94 69.9573 281.103C67.2391 279.275 66.5209 275.585 68.3452 272.859Z" fill="white"/>
</g>
<defs>
<clipPath id="clip0_149_6">
<rect width="104.233" height="57.0026" fill="white" transform="translate(181.435 300.06) rotate(165)"/>
</clipPath>
</defs>
</svg>
