<svg width="151" height="192" viewBox="0 0 151 192" fill="none" xmlns="http://www.w3.org/2000/svg">
<g clip-path="url(#clip0_122_12926)">
<path d="M121.383 26.9914C115.995 25.6266 108.982 25.8627 103.461 28.1767C111.541 20.2809 122.832 2.70579 113.855 2.25774C104.562 1.8001 98.9377 21.961 98.1529 30.1118C98.1214 30.1676 98.0801 30.225 98.0502 30.2906C97.881 25.6883 94.8349 20.2763 92.3567 16.6159C90.7166 14.1872 81.8331 1.83037 79.2957 9.23225C77.694 13.9091 92.3085 31.6172 95.1471 35.1887C92.0485 40.4428 88.9745 45.7232 85.9464 51.0367C84.6947 45.0702 81.1017 38.4096 77.3087 33.5139C74.992 30.5364 66.5532 22.1699 61.7084 26.7144C57.3473 30.8056 74.2928 56.1996 81.884 58.2808C78.6863 64.0473 75.5672 69.8619 72.5794 75.7362C71.3276 69.02 55.3744 41.1248 48.9496 50.292C43.1434 58.5889 65.5352 79.4624 69.2576 82.4245C66.4378 88.2107 63.7494 94.0567 61.2431 99.9644C58.1366 91.8066 37.7632 63.7674 32.2545 71.7121C26.2594 80.3436 53.6099 104.931 58.6029 106.42C56.5072 111.674 54.5822 116.981 52.8197 122.352C49.2317 111.477 30.255 87.0503 22.4665 94.1188C16.1716 99.8408 45.1585 126.209 50.7676 128.936C48.9325 135.109 47.3422 141.355 46.0423 147.705C41.9456 140.062 22.4545 115.963 18.3614 124.64C15.4976 130.717 38.8953 149.361 44.7356 154.137C42.8784 163.546 40.2286 176.812 40.019 185.011L43.897 188.87C43.8679 177.325 44.9078 166.064 46.7766 155.103C54.0163 158.639 87.6173 154.251 88.8109 147.371C90.0315 140.345 61.2792 140.4 48.0961 148C49.3909 141.681 50.9465 135.472 52.7303 129.357C57.3327 130.687 75.624 129.533 81.2761 129.153C85.3347 128.879 89.9115 127.367 90.7495 124.415C92.6541 117.733 79.5643 117.79 75.4838 117.804C68.8388 117.808 60.7014 119.979 54.5979 123.259C56.4111 117.575 58.4014 111.985 60.5475 106.48C66.9931 106.994 101.336 109.365 102.446 101.222C103.817 91.1223 84.529 94.5655 79.7761 95.367C72.8843 96.5358 68.7292 98.2129 62.7943 100.908C65.3528 94.6982 68.0917 88.6009 70.9533 82.6357C77.0613 85.1905 99.8581 85.7063 105.922 82.9294C108.798 81.6118 110.349 79.8709 109.315 76.4321C107.641 70.8583 82.0565 73.5806 73.8261 76.7395C76.8841 70.6107 80.045 64.6171 83.258 58.7569C86.8086 61.1593 114.255 63.109 117.823 59.1262C123.341 52.9833 111.629 48.42 107.245 47.9359C99.5823 47.1022 92.5953 48.6208 86.3464 53.1905C88.1142 50.0367 89.8982 46.9207 91.6788 43.8459C93.2142 41.1958 94.7709 38.5524 96.3194 35.9204C101.146 37.508 119.341 38.0105 124.474 35.3036C130.958 31.8709 126.549 28.3009 121.383 26.9914Z" fill="#8FC048"/>
</g>
<defs>
<clipPath id="clip0_122_12926">
<rect width="123.34" height="173.57" fill="white" transform="translate(0.897705 19.9963) rotate(-9.21537)"/>
</clipPath>
</defs>
</svg>
