<svg width="131" height="129" viewBox="0 0 131 129" fill="none" xmlns="http://www.w3.org/2000/svg">
<path d="M45.3564 44.1112C46.2752 44.2457 47.2097 43.9693 47.9089 43.356C48.608 42.7428 49.0017 41.8541 48.9882 40.9256L48.9838 40.1876C48.9853 38.4403 47.5722 37.0308 45.826 37.0376C44.8438 37.0411 43.9717 37.4914 43.3842 38.1977C42.6058 38.682 42.0451 39.496 41.9137 40.4693C41.6833 42.2 42.8966 43.7847 44.6252 44.0107L45.3564 44.1112ZM72.5555 122.424C72.038 122.447 71.5165 122.469 70.9975 122.486C69.2554 122.549 67.8873 124.012 67.9381 125.754C67.9908 127.499 69.4508 128.864 71.1969 128.801C71.7401 128.782 72.2833 128.762 72.8292 128.733C73.5756 128.696 74.2491 128.405 74.7697 127.949C75.4668 127.337 75.8921 126.425 75.8472 125.426C75.7762 123.686 74.2989 122.341 72.5555 122.424ZM11.0799 59.8832C11.3281 59.4631 11.5819 59.0494 11.8452 58.6424C12.7921 57.1712 12.3715 55.2171 10.903 54.2759C9.43441 53.3347 7.48402 53.7604 6.5311 55.2332C6.22045 55.7192 5.9175 56.2098 5.62597 56.709C4.74472 58.2164 5.24866 60.1498 6.75547 61.0274C7.9581 61.7298 9.43841 61.5441 10.4351 60.6699C10.6858 60.4499 10.9037 60.1839 11.0799 59.8832ZM17.3731 44.0894C16.8932 44.4168 16.4164 44.7563 15.9529 45.1067C14.5454 46.1727 14.2692 48.1384 15.3175 49.5306C16.3636 50.9248 18.3444 51.2068 19.7432 50.1522C20.1307 49.861 20.5254 49.5822 20.9278 49.308C21.0349 49.2328 21.14 49.1555 21.2378 49.0698C22.4236 48.0296 22.6752 46.2503 21.769 44.9171C20.7821 43.4747 18.8172 43.1037 17.3731 44.0894ZM100.626 118.922L99.0688 119.205C97.3484 119.511 96.196 121.155 96.5025 122.872C96.8051 124.589 98.444 125.733 100.16 125.426L101.742 125.137C102.325 125.03 102.844 124.769 103.261 124.404C104.07 123.694 104.498 122.592 104.293 121.461C103.986 119.744 102.343 118.608 100.626 118.922ZM86.6019 121.144L85.0368 121.341C83.3046 121.556 82.0627 123.133 82.2744 124.862C82.4819 126.594 84.053 127.824 85.7872 127.61L87.3886 127.408C88.0383 127.322 88.6146 127.049 89.0715 126.648C89.8366 125.977 90.2654 124.952 90.1322 123.87C89.9141 122.147 88.3344 120.925 86.6019 121.144ZM21.3995 112.162C22.5708 110.861 22.4692 108.863 21.1696 107.699C20.7962 107.363 20.4292 107.022 20.072 106.683C18.8131 105.48 16.8316 105.535 15.6032 106.793C14.3963 108.057 14.4379 110.055 15.6987 111.261C16.1008 111.647 16.515 112.029 16.9354 112.41C18.1386 113.49 19.9414 113.475 21.1314 112.431C21.2231 112.347 21.3131 112.256 21.3995 112.162ZM11.4743 101.846C11.6204 101.755 11.7553 101.652 11.8807 101.542C13.0283 100.535 13.3136 98.8198 12.4774 97.485C12.214 97.0604 11.9546 96.636 11.7052 96.2103C10.8285 94.705 8.89059 94.2018 7.38334 95.0855C5.87424 95.9671 5.3642 97.9019 6.24274 99.4093C6.52631 99.8912 6.81784 100.374 7.11946 100.855C8.0458 102.335 9.99599 102.775 11.4743 101.846ZM7.01989 70.7769C7.34316 69.062 6.21618 67.4129 4.49984 67.0937C2.78323 66.7785 1.13115 67.9129 0.806028 69.6256C0.700046 70.1907 0.606012 70.7565 0.521265 71.3329C0.269149 73.0602 1.46545 74.6598 3.19271 74.9057C4.14343 75.0422 5.05774 74.7385 5.72927 74.1495C6.27754 73.6686 6.6605 72.9992 6.77456 72.2247C6.84944 71.7357 6.92962 71.2569 7.01989 70.7769ZM4.98191 89.1027C5.50423 88.978 5.96476 88.7314 6.3409 88.4014C7.19518 87.6521 7.61639 86.4733 7.34144 85.2982C7.23151 84.8214 7.13141 84.3472 7.0414 83.8716C6.72266 82.1579 5.07049 81.0331 3.35247 81.3636C1.63897 81.6864 0.505665 83.3437 0.83024 85.0597C0.936401 85.6223 1.05637 86.1877 1.1843 86.7537C1.58189 88.4544 3.2811 89.5042 4.98191 89.1027ZM43.4976 119.766C41.8153 119.297 40.069 120.286 39.5982 121.965C39.1231 123.648 40.104 125.388 41.7844 125.855C42.3222 126.005 42.8627 126.146 43.4056 126.28C44.454 126.541 45.5095 126.248 46.266 125.585C46.7314 125.176 47.0843 124.627 47.2456 123.984C47.6756 122.288 46.653 120.573 44.9617 120.149C44.4721 120.024 43.9826 119.899 43.4976 119.766ZM32.2429 115.393C31.8023 115.165 31.3604 114.927 30.9245 114.688C29.3997 113.841 27.4704 114.398 26.6224 115.917C25.7698 117.444 26.3144 119.368 27.8374 120.213C28.3329 120.487 28.829 120.752 29.3315 121.012C30.5201 121.625 31.9205 121.409 32.8704 120.575C33.1594 120.322 33.4063 120.012 33.5907 119.648C34.395 118.095 33.7931 116.192 32.2429 115.393ZM57.0473 122.156C55.3102 121.998 53.7682 123.279 53.6031 125.02C53.4424 126.757 54.7149 128.294 56.4563 128.448C56.9987 128.501 57.5459 128.542 58.097 128.583C58.9785 128.649 59.8068 128.346 60.4231 127.805C61.0245 127.278 61.4311 126.524 61.4948 125.666C61.6298 123.925 60.3257 122.413 58.5866 122.282C58.071 122.247 57.5578 122.207 57.0473 122.156ZM31.7388 38.1203C31.1695 38.23 30.6031 38.3559 30.042 38.4921C28.3404 38.9056 27.2939 40.6104 27.7 42.3036C28.1058 44.0009 29.8096 45.043 31.5069 44.6332C31.9785 44.5193 32.4514 44.4154 32.9297 44.3219C33.5011 44.2103 34.0065 43.9506 34.4124 43.5946C35.2306 42.8769 35.6597 41.7586 35.4405 40.6171C35.1117 38.9047 33.455 37.7876 31.7388 38.1203ZM112.204 116.78C111.047 117.454 110.402 118.811 110.694 120.181C111.055 121.887 112.738 122.97 114.445 122.601L115.218 122.436C115.758 122.319 116.242 122.069 116.642 121.719C117.075 121.339 117.407 120.834 117.584 120.26L117.815 119.503C118.327 117.832 117.39 116.069 115.718 115.564C114.373 115.159 112.963 115.691 112.204 116.78ZM81.7982 0.0290803C81.2257 0.0366281 80.6525 0.0561232 80.0824 0.0878139C78.3465 0.179247 76.9945 1.66864 77.0851 3.4138C77.1739 5.15684 78.6579 6.49286 80.4021 6.39796C80.8899 6.37102 81.3789 6.35417 81.8693 6.34739C82.6521 6.33524 83.3659 6.0388 83.9121 5.55974C84.5836 4.97071 85.0059 4.10191 84.9945 3.14152C84.9777 1.39905 83.5436 0.00422973 81.7982 0.0290803ZM104.978 14.328C105.37 14.6289 105.755 14.9393 106.141 15.2558C107.352 16.2545 109.092 16.2013 110.239 15.1947C110.367 15.0829 110.485 14.9644 110.594 14.8314C111.71 13.485 111.526 11.4919 110.183 10.3808C109.745 10.0191 109.305 9.66716 108.862 9.32508C107.484 8.25969 105.503 8.51746 104.428 9.89456C103.353 11.2756 103.6 13.2626 104.978 14.328ZM126.633 45.326C124.905 45.5459 123.666 47.1265 123.88 48.8535C123.939 49.353 123.995 49.8505 124.043 50.3554C124.211 52.0894 125.755 53.3573 127.493 53.186C128.177 53.1176 128.79 52.8347 129.268 52.4153C130.01 51.7648 130.438 50.7824 130.337 49.7283C130.284 49.1712 130.223 48.6175 130.157 48.0654C129.945 46.3326 128.366 45.1064 126.633 45.326ZM122.546 31.6386C120.916 32.2666 120.093 34.0896 120.716 35.7206C120.893 36.1837 121.061 36.6503 121.226 37.1206C121.797 38.7664 123.598 39.6368 125.247 39.0599C125.644 38.9213 125.996 38.7098 126.294 38.4488C127.233 37.6249 127.635 36.283 127.199 35.0317C127.019 34.5004 126.824 33.9742 126.626 33.4517C126.003 31.8246 124.178 31.0127 122.546 31.6386ZM94.7482 8.60265C95.8777 9.02442 97.0976 8.75619 97.9476 8.01058C98.3259 7.67878 98.6328 7.24847 98.8226 6.74474C99.4384 5.11052 98.6108 3.29246 96.978 2.68271C96.4415 2.48262 95.8984 2.2921 95.3584 2.11378C93.699 1.57231 91.9063 2.47785 91.3651 4.13281C90.8154 5.79522 91.7134 7.57778 93.371 8.11713C93.8326 8.27047 94.2897 8.43152 94.7482 8.60265ZM114.955 19.5374C113.544 20.5873 113.238 22.5491 114.264 23.9539C114.558 24.3585 114.851 24.769 115.141 25.1853C116.134 26.6181 118.103 26.9673 119.54 25.9691C119.64 25.8996 119.733 25.8255 119.825 25.7454C121.019 24.6978 121.266 22.9001 120.339 21.5696C120.018 21.1093 119.695 20.6589 119.371 20.2124C118.341 18.8073 116.362 18.5054 114.955 19.5374ZM122.594 76.4639C122.506 76.9721 122.413 77.4841 122.321 77.996C122.008 79.7134 123.139 81.3589 124.858 81.6643C125.846 81.8431 126.812 81.5427 127.513 80.9276C128.032 80.4728 128.404 79.8467 128.539 79.1175C128.639 78.5801 128.735 78.0464 128.827 77.5084C129.121 75.7897 127.966 74.1608 126.246 73.8714C124.523 73.5838 122.886 74.7431 122.594 76.4639ZM115.887 103.977L115.44 105.504C114.947 107.18 115.906 108.933 117.579 109.421C118.655 109.735 119.767 109.446 120.553 108.757C120.988 108.375 121.325 107.866 121.503 107.268L121.952 105.735C122.443 104.057 121.482 102.306 119.805 101.821C118.136 101.337 116.381 102.303 115.887 103.977ZM50.8288 28.5991C50.9859 28.1353 51.1508 27.676 51.3252 27.2232C51.9567 25.594 51.1476 23.7671 49.5178 23.1436C47.8897 22.5221 46.0594 23.3333 45.4298 24.9646C45.2261 25.4955 45.0296 26.0388 44.8429 26.5847C44.2797 28.2402 45.1652 30.03 46.8174 30.589C47.9263 30.9615 49.0968 30.6841 49.9192 29.9627C50.3251 29.6067 50.6439 29.1472 50.8288 28.5991ZM119.635 90.2587L119.25 91.7876C118.818 93.4776 119.841 95.196 121.53 95.6214C122.578 95.8821 123.638 95.5897 124.394 94.9261C124.86 94.5179 125.208 93.9723 125.372 93.3269L125.77 91.7528C126.187 90.06 125.155 88.3468 123.461 87.9331C121.768 87.5255 120.057 88.5661 119.635 90.2587ZM53.822 11.8896C53.4163 12.3016 53.0178 12.7261 52.6305 13.1633C51.4668 14.4687 51.5767 16.463 52.8765 17.6234C54.0803 18.6956 55.8773 18.6781 57.0631 17.6379C57.1608 17.5522 57.253 17.4601 57.3396 17.3616C57.664 16.9984 57.9916 16.6474 58.3308 16.3011C59.5547 15.0515 59.5372 13.0511 58.2913 11.8322C57.0412 10.617 55.0429 10.6537 53.822 11.8896ZM66.6558 3.1838C66.1247 3.4099 65.5991 3.64236 65.0807 3.88726C63.4928 4.63189 62.8182 6.51628 63.556 8.0947C64.2978 9.67338 66.1804 10.345 67.7621 9.602C68.2019 9.39607 68.6473 9.1965 69.1001 9.0054C69.4233 8.86802 69.7136 8.68457 69.9601 8.46834C70.9568 7.59411 71.3359 6.14876 70.7963 4.86486C70.1207 3.2544 68.2673 2.50465 66.6558 3.1838ZM124.243 62.5898C124.212 63.1036 124.181 63.6215 124.143 64.1349C124.018 65.8743 125.33 67.3833 127.07 67.5021C127.946 67.5618 128.764 67.26 129.376 66.7232C129.984 66.1901 130.389 65.4301 130.449 64.5643C130.488 64.0169 130.523 63.4733 130.555 62.9276C130.652 61.1864 129.323 59.6962 127.579 59.6032C125.84 59.5105 124.342 60.8467 124.243 62.5898Z" fill="#F46161"/>
</svg>
