<svg width="151" height="139" viewBox="0 0 151 139" fill="none" xmlns="http://www.w3.org/2000/svg">
<path fill-rule="evenodd" clip-rule="evenodd" d="M76.5486 19.5514C75.1039 17.5275 74.2511 15.0475 74.2511 12.3745C74.2511 5.54337 79.7944 0 86.6255 0C93.4566 0 99 5.54337 99 12.3745C99 19.2056 93.4566 24.7489 86.6255 24.7489C84.2749 24.7489 82.0729 24.0913 80.1954 22.9478L77.8872 24.908C84.8626 32.7744 89.1013 43.1187 89.1013 54.4494C89.1013 79.0371 69.1383 99 44.5506 99C19.9629 99 0 79.0371 0 54.4494C0 29.8617 19.9629 9.89873 44.5506 9.89873C56.0256 9.89873 66.495 14.2456 74.3953 21.3822L76.5486 19.5514ZM72.1572 26.0664C65.0248 19.1271 55.2831 14.8502 44.5506 14.8502C22.6954 14.8502 4.94936 32.5941 4.94936 54.4515C4.94936 76.3068 22.6954 94.0528 44.5506 94.0528C66.4059 94.0528 84.1519 76.3068 84.1519 54.4515C84.1519 43.719 79.875 33.9773 72.9336 26.8449L72.3651 26.3549L72.1572 26.0664ZM44.4467 19.8356H44.5506C63.6586 19.8356 79.175 35.3393 79.2004 54.4409V54.4854C79.2004 73.6083 63.6713 89.1352 44.5506 89.1352C25.4278 89.1352 9.90085 73.6061 9.90085 54.4854V54.4451C9.91994 35.3732 25.3854 19.8887 44.4467 19.8356ZM46.9606 24.8847L47.0243 29.7004C47.0433 31.0666 45.9508 32.191 44.5846 32.2101C43.2184 32.2292 42.094 31.1367 42.0749 29.7704L42.0112 24.8953C27.632 26.1109 16.1613 37.5965 14.9542 51.9757H19.7996C21.1658 51.9757 22.2753 53.0853 22.2753 54.4515C22.2753 55.8177 21.1658 56.9272 19.7996 56.9272H14.9499C16.1231 71.3574 27.6362 82.8854 42.0622 84.084L42.0282 79.2535C42.0176 77.8872 43.1229 76.7735 44.4891 76.7629C45.8553 76.7523 46.9691 77.8575 46.9797 79.2238L47.0136 84.0904C61.4523 82.9024 72.9761 71.3744 74.1556 56.9293H69.3038C67.9376 56.9293 66.8281 55.8198 66.8281 54.4536C66.8281 53.0874 67.9376 51.9779 69.3038 51.9779H74.1492C72.9379 37.5519 61.4035 26.043 46.9606 24.8847ZM30.2605 65.1691L37.0025 48.3183C37.2549 47.6904 37.745 47.194 38.3687 46.9415L55.8029 39.8728C56.7193 39.5016 57.7673 39.7095 58.4759 40.4074C59.1781 41.1054 59.3966 42.1491 59.036 43.0762L52.1051 60.644C51.8527 61.2826 51.3478 61.7875 50.7092 62.0399L33.7906 68.7119L32.7999 69.1617C31.9831 69.3293 31.1367 69.0726 30.5533 68.4828L30.479 68.4128C29.8892 67.823 29.6389 66.9766 29.8065 66.1598L30.2605 65.1691ZM41.2093 51.1356L36.7734 62.2139L47.8919 57.8288L52.3131 46.6318L41.2093 51.1356ZM81.7547 17.9794C83.0572 19.1122 84.7586 19.8017 86.6255 19.8017C90.7242 19.8017 94.0506 16.4752 94.0506 12.3766C94.0506 8.27793 90.7242 4.95148 86.6255 4.95148C82.5269 4.95148 79.2004 8.27793 79.2004 12.3766C79.2004 14.5744 80.1551 16.5495 81.6762 17.9115L81.7547 17.9794Z" fill="#5C6E89"/>
<g clip-path="url(#clip0_149_7)">
<path d="M123.325 78.3159C121.946 77.9838 120.541 78.827 120.206 80.2079C119.719 82.068 119.075 84.7011 118.578 86.4787C118.578 86.4787 118.532 86.4426 118.496 86.4889C115.846 85.6858 111.843 84.4218 108.404 86.4371C106.917 87.2904 104.873 88.38 104.635 88.4931C99.653 91.2431 95.1861 98.9527 94.732 100.39C94.4086 101.183 94.0279 102.528 97.7594 110.9C98.3774 112.205 99.869 112.775 101.185 112.236C101.623 112.056 101.923 111.768 102.177 111.443C102.757 110.702 102.885 109.681 102.528 108.805C101.374 106.184 100.059 102.914 99.8267 101.687C100.268 100.837 101.352 99.0706 102.693 97.3562C103.729 101.08 106.352 105.821 108.439 108.2C110.513 111.168 112.318 114.67 112.688 116.006C110.473 118.456 105.905 123.248 105.869 123.295C104.633 124.493 104.651 126.374 105.837 127.526C107.022 128.677 108.985 128.644 110.092 127.419C110.356 127.177 117.067 120.028 117.91 119.044C118.754 118.061 119.831 115.542 115.737 108.68C118.033 107.936 122.696 106.356 124.52 106.214C125.921 107.758 129.26 112.536 131.968 116.597C132.89 117.99 134.774 118.344 136.169 117.418C136.442 117.259 136.706 117.017 136.887 116.785C137.685 115.766 137.763 114.333 137.046 113.249C134.384 109.225 129.657 102.315 127.818 100.951C126.026 99.6252 123.187 100.017 117.899 101.633C116.135 98.4603 113.779 93.8534 113.004 90.5584C114.271 90.6531 115.706 91.1038 116.838 91.4664C118.356 91.9069 121.016 92.7926 122.357 91.0781C122.574 90.8001 122.746 90.4859 122.861 90.0531C123.351 88.5693 124.969 82.2161 125.127 81.4431C125.544 80.0513 124.704 78.6479 123.325 78.3159Z" fill="#5C6E89"/>
<path d="M98.9849 75.6204C101.915 74.0073 105.592 75.0738 107.197 78.0018C108.801 80.9298 107.726 84.6117 104.796 86.2248C101.866 87.8379 98.1898 86.772 96.5843 83.8434C94.9796 80.9154 96.0547 77.2335 98.9849 75.6204Z" fill="#5C6E89"/>
</g>
<defs>
<clipPath id="clip0_149_7">
<rect width="49.7791" height="55.7052" fill="white" transform="translate(76 104.207) rotate(-51.9633)"/>
</clipPath>
</defs>
</svg>
