<svg width="199" height="106" viewBox="0 0 199 106" fill="none" xmlns="http://www.w3.org/2000/svg">
<path d="M27.0661 71.2625L32.747 48.2248H38.1991L38.754 71.2625H27.0661V71.2625ZM45.1217 71.2625L43.8662 40.9351H27.9748L20.8996 71.2625H17.4938V82.997H23.7296V77.968H41.917V82.997H48.1529V71.2625H45.1217Z" fill="white"/>
<path d="M57.5379 59.4863V48.2179C60.8883 48.2179 63.4825 49.9359 63.4825 53.8521C63.4825 57.7752 60.8883 59.4863 57.5379 59.4863ZM57.5449 40.949L51.6003 40.9351V77.968H57.5449V66.9151C64.6617 66.9151 69.7253 61.5383 69.7253 53.9286C69.7114 46.3259 64.6548 40.949 57.5449 40.949Z" fill="white"/>
<path d="M79.2143 64.4319V40.9351H73.3461V77.968H79.575L87.7878 56.071L86.9901 77.968H93.004L93.8086 40.9977H87.5173L79.2143 64.4319Z" fill="white"/>
<path d="M140.484 71.1234V60.8983C144.528 60.8983 147.164 62.4078 147.164 66.0109C147.164 69.614 144.417 71.1234 140.484 71.1234ZM140.484 47.7657C143.897 47.7657 145.111 49.5812 145.111 51.5149C145.111 53.4486 143.827 55.3406 140.498 55.3406H140.491V47.7657H140.484ZM148.836 57.483C150.223 55.9041 151.048 53.8312 151.048 51.3688C151.048 45.7068 146.907 40.9351 140.262 40.9351H134.54V77.968H140.193C147.469 77.968 153.247 74.5387 153.247 65.8648C153.247 61.9556 151.458 59.1385 148.836 57.483Z" fill="white"/>
<path d="M168.653 40.9629L163.853 54.7494L158.533 40.9629H151.562L160.829 63.4372L155.751 78.0167H162.466L175.402 40.9629H168.653Z" fill="white"/>
<path d="M179.328 71.2625C181.472 64.3832 182.991 55.6119 183.733 48.2248H186.868L188.672 71.2625H179.328V71.2625ZM195.039 71.2625L192.244 40.9351H178.669C178.669 40.9351 175.534 63.9728 172.565 71.2625H168.944V83.0318H175.18V77.968H192.272V83.0318H198.508V71.2625H195.039Z" fill="white"/>
<path d="M112.988 64.3067L105.94 40.9351H100.024L98.7543 77.9541H104.567L105.066 57.4622L109.679 71.7216H115.658L122.949 55.4659V77.9541H128.817V40.9212L122.9 40.9351L112.988 64.3067Z" fill="white"/>
<path d="M12.881 41.0812L12.7492 41.2133L15.9677 44.4895L12.7492 41.2133C11.9238 42.055 10.8278 42.5141 9.65555 42.5141C8.49022 42.5141 7.38733 42.048 6.56189 41.2133L6.4301 41.0812L0 47.6336L0.131793 47.7657C1.83816 49.4977 1.83816 52.3218 0.131793 54.0608L0 54.186L6.43703 60.7384L6.56882 60.6062C7.39426 59.7646 8.49022 59.3055 9.66248 59.3055C10.8278 59.3055 11.9307 59.7715 12.7561 60.6062L12.8879 60.7384L19.325 54.186L19.1932 54.0538C17.4868 52.3218 17.4868 49.4977 19.1932 47.7588L19.318 47.6266L12.881 41.0812ZM3.35031 57.33L3.21852 57.4622L3.35031 57.33ZM15.9747 44.4895C12.4856 48.037 12.4856 53.7825 15.9747 57.33L16.1065 57.4622L15.9747 57.33C14.2336 55.5563 11.9446 54.6729 9.66248 54.6729C7.38039 54.6729 5.09136 55.5563 3.35031 57.33C6.83935 53.7825 6.83935 48.037 3.35031 44.4895C5.09136 46.2633 7.38039 47.1467 9.66248 47.1467C11.9446 47.1467 14.2267 46.2633 15.9747 44.4895ZM3.21852 44.3574L3.35031 44.4895L3.21852 44.3574ZM16.0995 44.3574L15.9677 44.4895L16.0995 44.3574Z" fill="white"/>
<path d="M166.933 9.39734C168.924 14.9411 168.93 21.0692 166.94 26.62C169.617 25.6253 172.468 25.1036 175.402 25.1036C178.329 25.1036 181.18 25.6183 183.851 26.613C182.873 23.9003 182.366 20.9997 182.366 18.0156C182.366 15.0316 182.873 12.124 183.858 9.40429C178.406 11.4215 172.385 11.4215 166.933 9.39734ZM189.892 36.0312L189.573 35.7043C181.763 27.7538 169.055 27.7607 161.245 35.7043L160.926 36.0312L157.707 32.755L158.026 32.4281C165.837 24.4845 165.837 11.5536 158.026 3.60312L157.707 3.2762L160.912 0L161.231 0.326924C165.018 4.1735 170.047 6.29503 175.395 6.29503C180.743 6.29503 185.779 4.1735 189.559 0.326924L189.892 0L193.111 3.2762L192.792 3.60312C184.981 11.5467 184.981 24.4776 192.792 32.4281L193.111 32.755L189.892 36.0312Z" fill="white"/>
<path d="M126.542 94.4255L123.323 91.1493L130.149 84.2004L133.374 87.4766L126.542 94.4255Z" fill="white"/>
<path d="M118.766 94.4255L111.941 87.4766L115.159 84.2004L121.985 91.1493L118.766 94.4255Z" fill="white"/>
<path d="M115.159 106L111.941 102.731L118.766 95.7819L121.985 99.0511L115.159 106Z" fill="white"/>
<path d="M130.149 106L123.323 99.0511L126.542 95.7819L133.374 102.731L130.149 106Z" fill="white"/>
<path d="M142.711 88.3878V93.1595H141.851V89.3338H139.763V93.1595H138.903V88.3878H142.711Z" fill="white"/>
<path d="M146.331 91.2606L145.714 89.6538L145.09 91.2606H146.331ZM147.074 93.1665L146.692 92.1927H144.729L144.348 93.1665H143.425L145.277 88.3948H146.116L147.968 93.1665H147.074Z" fill="white"/>
<path d="M149.55 90.4259H150.167C150.32 90.4259 150.452 90.3772 150.556 90.2729C150.66 90.1755 150.715 90.0433 150.715 89.8764C150.715 89.7234 150.667 89.5912 150.563 89.4869C150.466 89.3825 150.334 89.3269 150.167 89.3269H149.55V90.4259ZM150.646 88.4991C150.833 88.5687 150.993 88.673 151.131 88.8052C151.27 88.9373 151.374 89.0904 151.457 89.2712C151.534 89.4521 151.575 89.6538 151.575 89.8833C151.575 90.099 151.541 90.3007 151.464 90.4815C151.388 90.6624 151.284 90.8224 151.152 90.9476C151.014 91.0797 150.854 91.1771 150.667 91.2536C150.479 91.3232 150.271 91.3649 150.049 91.3649H149.55V93.1665H148.69V88.3948H150.036C150.257 88.3878 150.459 88.4226 150.646 88.4991Z" fill="white"/>
<path d="M153.275 88.3878V90.2102L154.87 88.3878H155.966L153.989 90.6554L156.223 93.1595H155.037L153.275 91.191V93.1595H152.422V88.3878H153.275Z" fill="white"/>
<path d="M150.285 97.02V101.792H149.432V97.966H147.337V101.792H146.484V97.02H150.285Z" fill="white"/>
<path d="M152.38 99.0511H152.997C153.15 99.0511 153.275 99.0024 153.386 98.8981C153.49 98.8007 153.545 98.6686 153.545 98.5016C153.545 98.3486 153.497 98.2164 153.393 98.1121C153.296 98.0078 153.164 97.9521 152.997 97.9521H152.38V99.0511ZM153.476 97.1244C153.663 97.1939 153.823 97.2983 153.962 97.4304C154.1 97.5626 154.204 97.7156 154.288 97.8965C154.364 98.0773 154.405 98.279 154.405 98.5086C154.405 98.7242 154.371 98.9259 154.294 99.1068C154.218 99.2876 154.114 99.4476 153.982 99.5728C153.844 99.705 153.684 99.8024 153.497 99.8789C153.31 99.9484 153.101 99.9902 152.879 99.9902H152.38V101.792H151.527V97.02H152.873C153.088 97.02 153.289 97.0548 153.476 97.1244Z" fill="white"/>
<path d="M158.325 101.792V98.5712L156.112 101.792H155.252V97.02H156.105V100.254L158.325 97.02H159.185V101.792H158.325Z" fill="white"/>
<path d="M161.28 97.02V98.8425L162.875 97.02H163.971L161.994 99.2876L164.228 101.792H163.041L161.28 99.8163V101.792H160.419V97.02H161.28Z" fill="white"/>
<path d="M168.597 101.792H167.744V97.966H166.475L166.461 98.3486C166.447 98.905 166.406 99.3989 166.343 99.8371C166.281 100.275 166.19 100.63 166.066 100.922C165.948 101.214 165.795 101.437 165.615 101.59C165.434 101.743 165.226 101.82 164.984 101.82C164.914 101.82 164.845 101.813 164.789 101.799C164.727 101.785 164.678 101.764 164.644 101.75L164.484 100.978C164.616 100.971 164.734 100.943 164.845 100.901C164.956 100.86 165.046 100.79 165.129 100.693C165.212 100.595 165.282 100.463 165.344 100.296C165.407 100.129 165.455 99.9206 165.504 99.6563C165.545 99.3989 165.58 99.0859 165.601 98.7172C165.622 98.3486 165.636 97.9173 165.643 97.4165L165.649 97.027H168.597V101.792V101.792Z" fill="white"/>
<path d="M173.155 97.9799C172.967 98.0495 172.801 98.1608 172.662 98.2929C172.524 98.4251 172.413 98.592 172.336 98.7798C172.26 98.9677 172.218 99.1763 172.218 99.4059C172.218 99.6354 172.26 99.8441 172.336 100.032C172.413 100.22 172.524 100.38 172.662 100.519C172.801 100.658 172.967 100.755 173.155 100.832C173.342 100.901 173.543 100.943 173.765 100.943C173.98 100.943 174.181 100.908 174.376 100.832C174.563 100.755 174.722 100.651 174.861 100.519C175 100.387 175.104 100.22 175.187 100.032C175.263 99.8441 175.305 99.6354 175.305 99.4059C175.305 99.1763 175.263 98.9677 175.187 98.7798C175.111 98.592 175 98.4321 174.861 98.2929C174.722 98.1608 174.563 98.0564 174.376 97.9799C174.188 97.9104 173.987 97.8686 173.765 97.8686C173.543 97.8686 173.342 97.9034 173.155 97.9799ZM174.688 97.1104C174.979 97.2357 175.236 97.4096 175.458 97.6252C175.68 97.8478 175.853 98.1051 175.985 98.4112C176.11 98.7172 176.179 99.0442 176.179 99.4059C176.179 99.7606 176.117 100.088 175.985 100.387C175.853 100.686 175.68 100.95 175.465 101.173C175.243 101.395 174.986 101.569 174.695 101.694C174.403 101.82 174.098 101.882 173.772 101.882C173.474 101.882 173.189 101.833 172.926 101.729C172.655 101.625 172.413 101.486 172.197 101.298C171.982 101.117 171.802 100.894 171.663 100.637C171.518 100.38 171.428 100.101 171.379 99.8024H170.692V101.785H169.839V97.0131H170.692V98.8633H171.4C171.462 98.5781 171.566 98.3208 171.712 98.0843C171.858 97.8478 172.038 97.6391 172.246 97.4722C172.454 97.2983 172.69 97.1661 172.947 97.0687C173.203 96.9713 173.481 96.9226 173.758 96.9226C174.091 96.9226 174.396 96.9852 174.688 97.1104Z" fill="white"/>
<path d="M177.719 98.3208C177.719 98.5712 177.774 98.752 177.892 98.8494C178.01 98.9537 178.184 99.0024 178.426 99.0024C178.551 99.0024 178.655 98.9955 178.739 98.9816C178.822 98.9677 178.905 98.9537 178.995 98.9259V97.0131H179.848V101.785H178.995V99.8719C178.898 99.8928 178.794 99.9136 178.69 99.9276C178.586 99.9415 178.447 99.9484 178.295 99.9484C178.1 99.9484 177.913 99.9206 177.74 99.8719C177.566 99.8232 177.414 99.7398 177.289 99.6354C177.157 99.5241 177.06 99.385 176.984 99.2181C176.907 99.0442 176.873 98.8424 176.873 98.599V97.02H177.726V98.3208H177.719Z" fill="white"/>
<path d="M183.677 97.02V97.966H181.943V98.8703H183.483V99.8093H181.943V100.846H183.677V101.792H181.09V97.02H183.677Z" fill="white"/>
<path d="M185.613 97.02V98.8703H187.791V97.02H188.651V101.792H187.791V99.8093H185.613V101.792H184.752V97.02H185.613Z" fill="white"/>
<path d="M192.965 101.792V98.5712L190.753 101.792H189.892V97.02H190.746V100.254L192.965 97.02H193.825V101.792H192.965Z" fill="white"/>
<path d="M198.043 96.1784C197.987 96.3036 197.904 96.4149 197.8 96.4983C197.696 96.5888 197.578 96.6583 197.446 96.707C197.314 96.7557 197.169 96.7835 197.016 96.7835C196.864 96.7835 196.718 96.7557 196.579 96.707C196.44 96.6583 196.323 96.5888 196.225 96.4983C196.128 96.4079 196.045 96.3036 195.99 96.1784C195.934 96.0532 195.899 95.914 195.899 95.768L196.524 95.6706C196.531 95.7958 196.579 95.9001 196.669 95.9906C196.753 96.081 196.87 96.1227 197.016 96.1227C197.169 96.1227 197.287 96.081 197.37 95.9906C197.453 95.9001 197.502 95.7958 197.509 95.6706L198.126 95.768C198.126 95.914 198.098 96.0532 198.043 96.1784ZM198.14 101.792V98.5712L195.927 101.792H195.067V97.02H195.92V100.254L198.14 97.02H198.993V101.792H198.14Z" fill="white"/>
<path d="M141.982 101.882V98.6686L139.77 101.882H138.903V97.1104H139.763V100.352L141.982 97.1104H142.836V101.882H141.982Z" fill="white"/>
<path d="M159.948 89.7094C159.948 89.9598 160.003 90.1407 160.121 90.2381C160.239 90.3424 160.413 90.3911 160.655 90.3911C160.78 90.3911 160.884 90.3841 160.967 90.3702C161.051 90.3563 161.134 90.3424 161.224 90.3146V88.4017H162.077V93.1734H161.224V91.2606C161.127 91.2814 161.023 91.3023 160.919 91.3162C160.815 91.3301 160.676 91.3371 160.524 91.3371C160.329 91.3371 160.142 91.3093 159.969 91.2606C159.795 91.2119 159.643 91.1284 159.518 91.0241C159.393 90.9128 159.289 90.7737 159.213 90.6067C159.136 90.4328 159.102 90.2311 159.102 89.9877V88.4087H159.955V89.7094H159.948Z" fill="white"/>
<path d="M163.825 88.4087L164.769 90.558L165.615 88.4087H166.544L164.672 93.1804H163.735L164.339 91.6501L162.91 88.4087H163.825Z" fill="white"/>
<path d="M169.624 89.3547H168.556C168.521 89.8764 168.445 90.3842 168.327 90.8711C168.209 91.358 168.043 91.8171 167.821 92.2414H169.624V89.3547ZM171.081 92.2414V94.2099H170.269V93.1874H167.28V94.2099H166.475V92.2414H166.87C167.155 91.7475 167.37 91.2258 167.522 90.6624C167.675 90.099 167.751 89.4799 167.751 88.8052V88.4156H170.484V92.2414H171.081Z" fill="white"/>
<path d="M174.646 88.4087V89.3547H172.912V90.2589H174.452V91.2049H172.912V92.2414H174.646V93.1804H172.059V88.4087H174.646Z" fill="white"/>
<path d="M179.287 92.763C179.176 92.8674 179.044 92.9578 178.891 93.0343C178.739 93.1108 178.572 93.1734 178.385 93.2152C178.198 93.2569 178.003 93.2778 177.788 93.2778C177.476 93.2778 177.171 93.2152 176.887 93.0969C176.595 92.9787 176.339 92.8117 176.124 92.5892C175.902 92.3735 175.728 92.1092 175.596 91.8031C175.465 91.4971 175.402 91.1632 175.402 90.7945C175.402 90.4259 175.471 90.092 175.596 89.786C175.728 89.4799 175.902 89.2156 176.124 88.9999C176.345 88.7843 176.595 88.6174 176.887 88.4922C177.178 88.3739 177.476 88.3113 177.788 88.3113C177.996 88.3113 178.191 88.3322 178.378 88.3809C178.558 88.4226 178.732 88.4852 178.877 88.5617C179.03 88.6382 179.155 88.7287 179.273 88.833C179.384 88.9373 179.474 89.0417 179.536 89.1599L179.266 89.932C179.203 89.8416 179.12 89.7581 179.03 89.6816C178.94 89.6051 178.829 89.5286 178.704 89.466C178.579 89.4034 178.454 89.3547 178.309 89.3199C178.17 89.2851 178.017 89.2643 177.858 89.2643C177.629 89.2643 177.414 89.299 177.219 89.3686C177.025 89.4382 176.859 89.5425 176.72 89.6747C176.581 89.8068 176.47 89.9668 176.394 90.1616C176.318 90.3494 176.276 90.565 176.276 90.8015C176.276 91.038 176.318 91.2467 176.394 91.4414C176.47 91.6293 176.581 91.7962 176.72 91.9284C176.859 92.0605 177.025 92.1649 177.219 92.2344C177.414 92.304 177.629 92.3387 177.858 92.3387C178.024 92.3387 178.184 92.3179 178.336 92.2831C178.482 92.2414 178.621 92.1927 178.739 92.1301C178.863 92.0675 178.967 91.991 179.065 91.9075C179.162 91.824 179.238 91.7336 179.3 91.6432L179.571 92.4361C179.495 92.5474 179.404 92.6587 179.287 92.763Z" fill="white"/>
</svg>
