<svg width="93" height="90" viewBox="0 0 93 90" fill="none" xmlns="http://www.w3.org/2000/svg">
<path fill-rule="evenodd" clip-rule="evenodd" d="M41.6604 11.7522C39.0576 11.5094 35.8472 11.5164 33.7102 13.1781C25.2887 5.79354 20.7363 14.4133 27.2124 16.4319C27.4574 16.8964 27.727 17.2315 27.8166 17.3429L40.0932 36.0752C40.4863 36.678 41.1635 36.3546 40.797 35.6938L30.8699 16.0663C31.9135 15.5589 32.8648 14.8679 33.7016 14.1953C36.0253 16.3531 41.6146 23.0721 45.0229 20.8668C45.4293 20.5956 45.0339 19.921 44.5849 20.2083C41.7799 22.0212 36.3142 15.5698 34.3157 13.7024C36.0752 12.3257 39.3995 12.3007 41.5864 12.5285C42.0902 12.5832 42.1642 11.8069 41.6604 11.7522ZM30.2559 18.2502C29.6794 17.7391 29.0743 17.2149 28.5378 16.6168C28.9537 16.6317 29.3678 16.575 29.7657 16.4757C29.9572 17.0568 30.1064 17.6531 30.2559 18.2502ZM29.5104 15.7246C28.9558 15.8576 28.4125 15.8902 27.8348 15.7665C26.3459 13.7098 28.1769 12.3307 29.5104 15.7246ZM33.096 13.671C32.3145 14.2986 31.4613 14.9291 30.5298 15.3467C28.3395 11.2077 25.6628 12.5862 26.7037 15.3883C22.3998 13.1679 26.3321 7.82175 33.096 13.671Z" fill="#5C6E89"/>
<path d="M62.1703 75.8802L62.1702 73.3859C78.4409 72.1422 79.0677 66.0338 79.0475 64.9343C79.0454 64.8401 78.9625 64.7786 78.8699 64.7965L62.1531 67.9548L62.7044 50.9512C62.7074 50.8574 62.6335 50.7846 62.5409 50.7969C61.4514 50.946 55.5114 52.5038 56.7839 68.7727L54.3196 69.1556C53.9838 68.487 53.5122 67.8728 52.9073 67.3547C50.4698 65.2678 46.8079 65.551 44.7205 67.9882C42.6327 70.4259 42.9157 74.0878 45.3528 76.1751C47.79 78.2625 51.4527 77.9792 53.5401 75.542C54.2641 74.6966 54.7024 73.7029 54.8654 72.6799L58.605 72.0975L58.6052 75.8821C57.6189 76.2 56.7049 76.7862 55.9809 77.6316C53.8926 80.0689 54.1756 83.7316 56.6128 85.819C59.0499 87.9063 62.7122 87.6227 64.7996 85.1854C66.887 82.7481 66.604 79.0863 64.1669 76.999C63.5623 76.4804 62.8825 76.1093 62.1703 75.8802ZM47.3615 73.8298C46.2211 72.8531 46.0885 71.1378 47.0653 69.9973C48.0421 68.8568 49.7574 68.7242 50.8978 69.7009C52.0387 70.678 52.1712 72.3925 51.194 73.5334C50.2172 74.6739 48.5024 74.807 47.3615 73.8298ZM59.5408 71.0048C58.9709 70.5167 58.9045 69.6582 59.3927 69.0882C59.8809 68.5181 60.7394 68.4518 61.3094 68.9399C61.8794 69.4281 61.9457 70.2866 61.4575 70.8566C60.9693 71.4266 60.1108 71.493 59.5408 71.0048ZM58.6215 83.4736C57.4806 82.4965 57.3485 80.7816 58.3253 79.6411C59.3021 78.5006 61.0169 78.3676 62.1578 79.3447C63.2982 80.3215 63.4312 82.0363 62.454 83.1773C61.4768 84.3182 59.7619 84.4504 58.6215 83.4736Z" fill="#F46161"/>
</svg>
