<svg width="455" height="575" viewBox="0 0 455 575" fill="none" xmlns="http://www.w3.org/2000/svg">
<g clip-path="url(#clip0_66_16866)">
<path d="M0.434758 0.000126311L0.434724 389.541C103.613 386.479 187.433 303.308 189.796 199.194C190.817 154.13 179.474 118.121 154.464 84.5317L129.644 93.9073L146.222 72.1128C139.001 63.2476 124.823 50.0537 114.426 40.7537L76.5989 67.0847L100.456 30.9434C70.7576 10.6989 38.9044 1.11537 0.434758 0.000126311Z" fill="#8FC048"/>
<path d="M0.434826 277.374C69.6423 345.366 145.466 411.883 289.949 450.728C250.875 299.149 104.312 216.092 0.434836 168.704L0.434826 277.374Z" fill="#FCC200"/>
<path d="M0.869606 131.447C4.08328 133.338 36.7305 142.581 78.0357 154.282C170.608 180.499 325.564 224.372 366.492 246.847L365.66 248.359C324.903 225.978 170.06 182.125 77.5631 155.945C32.893 143.299 3.38383 134.944 -0.0188836 132.941L0.869606 131.447Z" fill="white"/>
<path d="M291.613 218.285C309.799 225.033 342.03 210.819 352.692 195.035C329.818 197.417 291.859 186.321 279.458 213.919C279.628 215.488 280.554 216.244 282.237 216.206" fill="#15466B"/>
<path d="M128.793 169.441C142.631 179.422 156.998 201.103 160.098 220.705C141.307 220.894 91.0417 180.839 106.808 164.205" fill="white"/>
<path d="M386.208 268.074C378.515 274.085 367.418 272.762 361.369 265.087C355.338 257.413 357.059 248.34 364.393 240.306C370.802 233.275 384.356 237.112 390.386 244.786C396.417 252.442 393.902 262.044 386.208 268.074Z" fill="white"/>
<path d="M448.213 289.793C440.52 295.823 429.423 294.462 423.393 286.806C417.362 279.132 420.198 266.883 427.892 260.853C435.586 254.842 445.189 257.337 451.219 265.012C457.25 272.667 455.907 283.763 448.213 289.793Z" fill="white"/>
<path d="M349.478 301.909C350.782 305.368 349.024 309.243 345.565 310.548C342.086 311.852 338.986 310.226 336.907 306.654C335.092 303.535 338.022 299.055 341.5 297.751C344.96 296.446 348.155 298.45 349.478 301.909Z" fill="white"/>
<path d="M364.412 281.929C365.717 285.389 363.977 289.264 360.499 290.568C357.021 291.872 352.9 289.472 351.595 285.993C350.272 282.534 352.295 279.321 355.754 278.017C359.232 276.731 363.108 278.47 364.412 281.929Z" fill="white"/>
<path d="M0.434796 204.127C38.1671 229.267 188.151 362.321 224.145 397.064C158.775 357.671 64.7273 270.267 0.567136 227.85L0.434796 204.127Z" fill="#B87E15"/>
</g>
<defs>
<clipPath id="clip0_66_16866">
<rect width="455" height="574.406" fill="white" transform="translate(455 574.406) rotate(-180)"/>
</clipPath>
</defs>
</svg>
