<svg width="362" height="457" viewBox="0 0 362 457" fill="none" xmlns="http://www.w3.org/2000/svg">
<g clip-path="url(#clip0_122_14509)">
<path d="M361.654 457V147.08C279.565 149.516 212.877 215.687 210.997 298.521C210.185 334.373 219.209 363.022 239.107 389.746L258.855 382.287L245.665 399.627C251.41 406.68 262.69 417.177 270.962 424.576L301.058 403.627L282.077 432.381C305.705 448.488 331.048 456.113 361.654 457Z" fill="#2B8093"/>
<path d="M361.654 236.32C306.592 182.226 246.266 129.304 131.315 98.3991C162.403 218.995 279.009 285.076 361.654 322.778V236.32Z" fill="#FCC200"/>
<path d="M361.308 352.42C358.751 350.916 332.777 343.562 299.914 334.253C226.263 313.394 102.979 278.489 70.4175 260.608L71.0792 259.405C103.506 277.211 226.699 312.101 300.29 332.93C335.83 342.991 359.308 349.638 362.015 351.232L361.308 352.42Z" fill="#15466B"/>
<path d="M129.992 283.332C115.523 277.963 89.8796 289.272 81.397 301.829C99.5955 299.934 129.796 308.762 139.662 286.806C139.527 285.557 138.79 284.956 137.451 284.986" fill="#15466B"/>
<path d="M259.532 322.192C248.522 314.251 237.092 297.002 234.625 281.407C249.575 281.256 289.567 313.123 277.023 326.358" fill="#15466B"/>
<path d="M54.7307 243.719C60.852 238.937 69.6805 239.99 74.4934 246.095C79.2912 252.201 77.9225 259.42 72.0869 265.811C66.9884 271.406 56.2046 268.353 51.4068 262.247C46.609 256.156 48.6094 248.517 54.7307 243.719Z" fill="#EC6953"/>
<path d="M5.39929 226.44C11.5206 221.642 20.3491 222.725 25.1469 228.816C29.9447 234.922 27.6887 244.667 21.5674 249.464C15.4461 254.247 7.8057 252.261 3.00791 246.156C-1.78988 240.065 -0.722033 231.237 5.39929 226.44Z" fill="#EC6953"/>
<path d="M83.9536 216.8C82.9159 214.048 84.3146 210.965 87.0669 209.927C89.8343 208.889 92.3009 210.183 93.9553 213.025C95.3992 215.506 93.0679 219.071 90.3006 220.108C87.5482 221.146 85.0064 219.552 83.9536 216.8Z" fill="#EC6953"/>
<path d="M72.0721 232.696C71.0343 229.944 72.418 226.861 75.1854 225.823C77.9528 224.785 81.2315 226.695 82.2693 229.462C83.3221 232.215 81.7128 234.771 78.9605 235.809C76.1931 236.832 73.1099 235.448 72.0721 232.696Z" fill="#EC6953"/>
<path d="M361.654 294.596C331.634 274.594 212.306 168.736 183.67 141.094C235.678 172.435 310.503 241.975 361.549 275.722L361.654 294.596Z" fill="#B87E15"/>
</g>
<defs>
<clipPath id="clip0_122_14509">
<rect width="362" height="457" fill="white"/>
</clipPath>
</defs>
</svg>
