<svg width="360" height="331" viewBox="0 0 360 331" fill="none" xmlns="http://www.w3.org/2000/svg">
<g clip-path="url(#clip0_122_34974)">
<path d="M94.1662 196.974C92.4129 198.063 90.863 199.418 89.3405 200.916C88.4599 201.838 88.4218 203.205 89.0821 204.289L94.9708 212.972C95.6302 214.052 97.0796 214.532 98.1853 214.015C100.136 213.188 101.89 212.099 103.642 211.004C111.235 205.773 115.272 198.51 112.717 194.619C110.163 190.737 101.759 191.742 94.1662 196.974ZM80.8842 208.726C77.1416 212.008 76.1147 216.887 78.6217 219.729C81.1287 222.572 86.0401 222.231 89.7826 218.949C90.4246 218.373 90.9243 217.824 91.424 217.275C92.1575 216.381 92.0251 214.895 91.2459 213.986L86.0341 208.039C85.2549 207.13 83.8347 206.801 82.7563 207.461C82.0823 207.895 81.7014 208.269 80.8842 208.726ZM77.7746 283.754C73.0962 283.745 69.2345 291.126 69.1921 300.345C69.2933 302.438 69.3906 304.536 69.7811 306.573C70.0041 307.737 71.2197 308.562 72.4373 308.629L83.0118 308.714C84.2294 308.781 85.4275 307.951 85.64 306.699C86.0025 304.665 86.2236 302.663 86.2686 300.538C86.6022 291.273 82.7705 283.855 77.7746 283.754ZM83.7692 315.821C83.6932 314.629 82.7388 313.601 81.4929 313.387L73.7471 312.307C72.5013 312.093 71.3041 312.928 70.9154 314.056C70.591 314.723 70.4409 315.505 70.2861 316.288C69.5533 321.111 72.0448 325.463 75.7589 325.957C79.473 326.451 83.0178 322.906 83.7506 318.084C83.9007 317.302 83.8811 316.405 83.7692 315.821ZM46.6091 253.342C45.7819 255.312 45.0971 257.255 44.5875 259.317C44.2271 260.592 44.9147 261.819 46.0747 262.355L55.6573 266.706C56.8164 267.237 58.2679 266.959 58.9732 265.918C60.2922 264.154 61.2946 262.302 62.1547 260.479C65.9677 252.048 65.5669 243.672 61.284 241.775C56.9954 239.875 50.4503 245.058 46.6091 253.342ZM41.9112 270.547C40.3915 275.215 42.1855 279.854 45.7222 280.987C49.2589 282.121 53.3746 279.22 54.7464 274.576C54.8965 273.794 55.0504 273.006 55.2004 272.224C55.2668 271.005 54.5791 269.778 53.3051 269.417L45.7717 267.085C44.6399 266.696 43.2167 267.122 42.6819 268.283C42.2161 268.982 41.772 269.821 41.9112 270.547ZM108.474 235.442C104.544 233.025 97.3337 237.124 92.3382 244.876C91.3085 246.585 90.3061 248.436 89.4789 250.406C89.0912 251.539 89.4895 252.821 90.5298 253.528L99.3165 259.243C100.504 259.921 101.841 259.817 102.716 258.891C104.266 257.536 105.444 255.804 106.616 254.068C111.763 246.287 112.58 237.978 108.474 235.442ZM96.2751 265.414C96.8051 264.253 96.5539 262.943 95.6334 262.066L89.5419 257.045C88.6204 256.163 87.1087 256.153 86.2008 256.932C85.7012 257.481 85.0592 258.057 84.5595 258.606C81.3653 262.389 81.0914 267.271 83.9793 269.74C86.8662 272.204 91.7815 271.114 94.9805 267.331C95.4783 266.772 96.0921 266.049 96.2751 265.414ZM140.282 206.25C138.331 207.077 136.375 207.905 134.655 209.141C133.747 209.92 133.244 211.223 133.756 212.331L137.689 221.841C138.201 222.949 139.389 223.628 140.698 223.377C142.88 222.958 144.859 222.279 146.815 221.451C155.469 217.828 160.896 211.505 159.186 207.304C157.471 203.103 148.908 202.48 140.282 206.25ZM124.815 215.251C120.469 217.743 118.485 222.352 120.289 225.477C122.121 228.749 127.059 229.314 131.404 226.817C132.074 226.389 132.748 225.954 133.39 225.378C134.298 224.599 134.626 223.177 133.966 222.097L130.127 215.434C129.615 214.326 128.165 213.846 127.027 214.217C126.156 214.393 125.485 214.822 124.815 215.251ZM145.282 164.814C143.605 166.017 142.147 167.468 140.721 169.061C139.906 170.039 139.951 171.404 140.681 172.441L147.118 180.728C147.848 181.765 149.323 182.147 150.396 181.562C152.293 180.608 153.966 179.411 155.644 178.208C162.885 172.497 166.441 164.987 163.644 161.27C160.841 157.554 152.523 159.104 145.282 164.814ZM132.79 177.405C129.266 180.926 128.558 185.856 131.24 188.533C133.922 191.209 138.802 190.554 142.327 187.032C142.931 186.414 143.396 185.838 143.855 185.258C144.531 184.316 144.298 182.844 143.465 181.99L137.883 176.394C137.05 175.539 135.608 175.299 134.572 176.029C133.933 176.491 133.578 176.894 132.79 177.405ZM191.899 171.086C190.001 172.04 188.108 172.989 186.468 174.337C185.615 175.17 185.197 176.506 185.782 177.58L190.321 186.817C190.906 187.891 192.132 188.493 193.425 188.157C195.575 187.597 197.505 186.789 199.403 185.839C207.809 181.663 212.812 175.003 210.835 170.922C208.852 166.836 200.267 166.769 191.899 171.086ZM177.049 181.075C172.874 183.845 171.194 188.573 173.196 191.577C175.235 194.725 180.194 194.966 184.374 192.196C185.016 191.723 185.658 191.25 186.263 190.632C187.116 189.799 187.356 188.355 186.626 187.319L182.365 180.918C181.78 179.844 180.305 179.462 179.195 179.901C178.333 180.125 177.691 180.598 177.049 181.075ZM190.16 128.411C188.836 129.994 187.783 131.761 186.799 133.658C186.253 134.812 186.637 136.121 187.601 136.941L195.889 143.367C196.854 144.191 198.379 144.194 199.271 143.359C200.872 141.964 202.198 140.385 203.522 138.802C209.114 131.468 210.697 123.307 207.062 120.405C203.428 117.508 195.752 121.077 190.16 128.411ZM181.184 143.719C178.647 148.006 179.184 152.959 182.449 154.884C185.713 156.803 190.277 154.958 192.814 150.671C193.247 149.924 193.549 149.246 193.853 148.572C194.271 147.492 193.683 146.123 192.664 145.501L185.867 141.468C184.848 140.846 183.392 140.972 182.574 141.937C182.067 142.551 181.819 143.027 181.184 143.719ZM236.867 122.889C235.265 124.284 233.669 125.678 232.413 127.386C231.792 128.406 231.72 129.803 232.551 130.697L239.243 138.517C240.078 139.411 241.414 139.686 242.58 139.044C244.522 137.968 246.193 136.702 247.794 135.307C254.894 129.171 258.09 121.474 255.16 118.014C252.23 114.553 243.898 116.623 236.867 122.889ZM224.962 136.258C221.604 139.983 221.15 144.979 223.835 147.388C226.594 149.927 231.458 148.93 234.816 145.209C235.322 144.59 235.823 143.973 236.26 143.224C236.881 142.204 236.754 140.747 235.791 139.927L230.075 134.79C229.24 133.897 227.715 133.894 226.753 134.595C225.969 135.021 225.468 135.639 224.962 136.258ZM229.657 85.3542C228.611 87.1349 227.862 89.0508 227.205 91.0869C226.855 92.311 227.449 93.541 228.534 94.1947L237.769 99.169C238.853 99.8227 240.359 99.5734 241.102 98.6037C242.451 96.9668 243.496 95.1861 244.547 93.4092C248.86 85.252 249.077 76.9446 245.018 74.6753C240.951 72.4174 233.971 77.2017 229.657 85.3542ZM223.318 101.929C221.519 106.577 222.862 111.375 226.398 112.736C229.934 114.096 234.131 111.519 235.931 106.871C236.232 106.06 236.425 105.344 236.612 104.629C236.847 103.496 236.041 102.242 234.933 101.795L227.564 98.9344C226.456 98.492 225.04 98.8521 224.393 99.941C223.995 100.638 223.832 101.146 223.318 101.929ZM274.815 72.2176C273.467 73.8545 272.118 75.4914 271.164 77.3876C270.722 78.4963 270.876 79.8895 271.845 80.6342L279.732 87.2455C280.701 87.9902 282.063 88.0441 283.109 87.2135C284.85 85.8311 286.29 84.3096 287.638 82.6727C293.635 75.4529 295.521 67.3326 292.062 64.397C288.599 61.467 280.721 64.8823 274.815 72.2176ZM265.273 87.3686C262.572 91.5935 262.946 96.5975 265.992 98.5341C269.129 100.586 273.764 98.8018 276.465 94.5769C276.864 93.8851 277.257 93.1895 277.564 92.3822C278.006 91.2736 277.645 89.8559 276.557 89.2079L270.076 85.0792C269.107 84.3345 267.601 84.5838 266.766 85.4332C266.064 85.9812 265.666 86.673 265.273 87.3686ZM250.956 37.2836C250.393 39.2722 250.151 41.3174 250.034 43.4518C250.003 44.7279 250.89 45.7639 252.104 46.1219L262.292 48.5998C263.506 48.9578 264.897 48.3367 265.374 47.2114C266.264 45.2833 266.828 43.2995 267.396 41.3148C269.51 32.3336 267.618 24.2335 263.117 23.0729C258.61 21.9037 253.065 28.3033 250.956 37.2836ZM249.012 54.9263C248.442 59.8799 250.959 64.1828 254.717 64.5995C258.481 65.0202 261.891 61.4667 262.456 56.5141C262.547 55.6548 262.547 54.9114 262.548 54.1727C262.489 53.0173 261.396 52.0061 260.211 51.8541L252.361 50.9514C251.177 50.8042 249.902 51.5115 249.545 52.7271C249.34 53.5048 249.309 54.0374 249.012 54.9263ZM291.325 13.1463C290.436 15.0743 289.546 16.9976 289.098 19.0724C288.951 20.2574 289.452 21.5644 290.576 22.0382L299.873 26.4394C300.997 26.9133 302.333 26.6227 303.131 25.554C304.467 23.7766 305.472 21.9396 306.366 20.0107C310.342 11.5046 310.117 3.17362 306.032 1.20949C301.944 -0.748971 295.185 4.54917 291.325 13.1463ZM285.918 30.2173C284.374 34.9883 285.997 39.738 289.434 40.8368C292.986 42.0266 297.019 39.1269 298.563 34.3558C298.769 33.5828 298.98 32.8136 299.071 31.9543C299.218 30.7693 298.511 29.4919 297.296 29.134L289.98 26.7801C288.857 26.3063 287.46 26.9235 286.868 27.9626C286.331 28.676 286.125 29.449 285.918 30.2173Z" fill="#CF9EC8"/>
</g>
<defs>
<clipPath id="clip0_122_34974">
<rect width="313.481" height="276.704" fill="white" transform="matrix(0.982118 -0.188266 -0.188266 -0.982118 52.0941 330.774)"/>
</clipPath>
</defs>
</svg>
