<svg width="360" height="331" viewBox="0 0 360 331" fill="none" xmlns="http://www.w3.org/2000/svg">
<g clip-path="url(#clip0_122_27880)">
<path d="M94.1662 196.974C92.4129 198.063 90.863 199.419 89.3405 200.917C88.4599 201.839 88.4218 203.205 89.0821 204.29L94.9708 212.972C95.6302 214.052 97.0796 214.532 98.1853 214.015C100.136 213.188 101.89 212.099 103.642 211.005C111.235 205.773 115.272 198.511 112.717 194.619C110.163 190.737 101.759 191.742 94.1662 196.974ZM80.8842 208.726C77.1416 212.009 76.1147 216.887 78.6217 219.73C81.1287 222.572 86.0401 222.231 89.7826 218.949C90.4246 218.373 90.9243 217.824 91.424 217.276C92.1575 216.382 92.0251 214.896 91.2459 213.987L86.0341 208.039C85.2549 207.13 83.8347 206.802 82.7563 207.462C82.0823 207.896 81.7014 208.269 80.8842 208.726ZM77.7746 283.754C73.0962 283.745 69.2345 291.127 69.1921 300.346C69.2933 302.439 69.3906 304.537 69.7811 306.574C70.0041 307.737 71.2197 308.563 72.4373 308.63L83.0118 308.715C84.2294 308.781 85.4275 307.951 85.64 306.699C86.0025 304.666 86.2236 302.664 86.2686 300.538C86.6022 291.273 82.7705 283.855 77.7746 283.754ZM83.7692 315.821C83.6932 314.63 82.7388 313.601 81.4929 313.387L73.7471 312.307C72.5013 312.093 71.3041 312.928 70.9154 314.056C70.591 314.724 70.4409 315.506 70.2861 316.289C69.5533 321.111 72.0448 325.463 75.7589 325.957C79.473 326.451 83.0178 322.907 83.7506 318.084C83.9007 317.302 83.8811 316.405 83.7692 315.821ZM46.6091 253.342C45.7819 255.312 45.0971 257.255 44.5875 259.317C44.2271 260.593 44.9147 261.819 46.0747 262.355L55.6573 266.707C56.8164 267.238 58.2679 266.959 58.9732 265.918C60.2922 264.154 61.2946 262.303 62.1547 260.479C65.9677 252.048 65.5669 243.672 61.284 241.776C56.9954 239.875 50.4503 245.059 46.6091 253.342ZM41.9112 270.548C40.3915 275.216 42.1855 279.854 45.7222 280.988C49.2589 282.121 53.3746 279.221 54.7464 274.576C54.8965 273.794 55.0504 273.006 55.2004 272.224C55.2668 271.006 54.5791 269.779 53.3051 269.417L45.7717 267.085C44.6399 266.697 43.2167 267.122 42.6819 268.283C42.2161 268.983 41.772 269.821 41.9112 270.548ZM108.474 235.442C104.544 233.025 97.3337 237.125 92.3382 244.876C91.3085 246.585 90.3061 248.436 89.4789 250.407C89.0912 251.539 89.4895 252.822 90.5298 253.528L99.3165 259.243C100.504 259.922 101.841 259.818 102.716 258.892C104.266 257.536 105.444 255.804 106.616 254.068C111.763 246.288 112.58 237.978 108.474 235.442ZM96.2751 265.414C96.8051 264.254 96.5539 262.943 95.6334 262.066L89.5419 257.046C88.6204 256.164 87.1087 256.153 86.2008 256.933C85.7012 257.482 85.0592 258.058 84.5595 258.606C81.3653 262.389 81.0914 267.271 83.9793 269.74C86.8662 272.205 91.7815 271.115 94.9805 267.331C95.4783 266.773 96.0921 266.05 96.2751 265.414ZM140.282 206.251C138.331 207.078 136.375 207.906 134.655 209.141C133.747 209.921 133.244 211.223 133.756 212.331L137.689 221.842C138.201 222.95 139.389 223.628 140.698 223.377C142.88 222.959 144.859 222.279 146.815 221.451C155.469 217.828 160.896 211.505 159.186 207.304C157.471 203.104 148.908 202.48 140.282 206.251ZM124.815 215.251C120.469 217.744 118.485 222.353 120.289 225.478C122.121 228.75 127.059 229.315 131.404 226.818C132.074 226.389 132.748 225.955 133.39 225.379C134.298 224.599 134.626 223.178 133.966 222.098L130.127 215.434C129.615 214.326 128.165 213.846 127.027 214.217C126.156 214.394 125.485 214.823 124.815 215.251ZM145.282 164.815C143.605 166.018 142.147 167.469 140.721 169.061C139.906 170.04 139.951 171.405 140.681 172.442L147.118 180.729C147.848 181.765 149.323 182.147 150.396 181.563C152.293 180.608 153.966 179.411 155.644 178.208C162.885 172.498 166.441 164.988 163.644 161.27C160.841 157.554 152.523 159.104 145.282 164.815ZM132.79 177.405C129.266 180.926 128.558 185.857 131.24 188.533C133.922 191.209 138.802 190.554 142.327 187.033C142.931 186.415 143.396 185.838 143.855 185.258C144.531 184.316 144.298 182.845 143.465 181.99L137.883 176.394C137.05 175.54 135.608 175.3 134.572 176.03C133.933 176.492 133.578 176.895 132.79 177.405ZM191.899 171.086C190.001 172.041 188.108 172.989 186.468 174.338C185.615 175.171 185.197 176.506 185.782 177.58L190.321 186.817C190.906 187.892 192.132 188.494 193.425 188.157C195.575 187.597 197.505 186.789 199.403 185.839C207.809 181.663 212.812 175.003 210.834 170.922C208.852 166.837 200.267 166.769 191.899 171.086ZM177.049 181.076C172.874 183.846 171.194 188.574 173.196 191.577C175.235 194.726 180.194 194.967 184.374 192.196C185.016 191.724 185.658 191.251 186.263 190.633C187.116 189.8 187.356 188.356 186.626 187.319L182.365 180.919C181.78 179.844 180.305 179.462 179.195 179.902C178.333 180.126 177.691 180.599 177.049 181.076ZM190.16 128.411C188.836 129.994 187.783 131.762 186.799 133.659C186.253 134.812 186.637 136.122 187.601 136.941L195.889 143.367C196.854 144.192 198.379 144.195 199.271 143.359C200.872 141.964 202.197 140.386 203.522 138.803C209.114 131.469 210.697 123.308 207.062 120.406C203.428 117.509 195.752 121.077 190.16 128.411ZM181.184 143.72C178.647 148.007 179.184 152.96 182.449 154.884C185.713 156.803 190.277 154.959 192.814 150.672C193.247 149.924 193.549 149.246 193.853 148.572C194.27 147.493 193.683 146.124 192.664 145.502L185.867 141.468C184.848 140.846 183.392 140.973 182.574 141.937C182.067 142.551 181.819 143.027 181.184 143.72ZM236.867 122.889C235.265 124.284 233.669 125.678 232.413 127.386C231.792 128.406 231.72 129.803 232.551 130.698L239.243 138.518C240.078 139.411 241.414 139.687 242.58 139.045C244.522 137.968 246.193 136.703 247.794 135.308C254.894 129.171 258.09 121.474 255.16 118.014C252.23 114.554 243.898 116.623 236.867 122.889ZM224.962 136.258C221.604 139.984 221.15 144.979 223.835 147.389C226.594 149.927 231.458 148.931 234.816 145.21C235.322 144.591 235.823 143.973 236.26 143.225C236.881 142.205 236.754 140.747 235.791 139.928L230.075 134.791C229.24 133.897 227.715 133.894 226.753 134.596C225.969 135.022 225.468 135.639 224.962 136.258ZM229.657 85.3546C228.611 87.1354 227.862 89.0512 227.205 91.0874C226.855 92.3115 227.449 93.5415 228.534 94.1952L237.769 99.1695C238.853 99.8232 240.359 99.5738 241.102 98.6042C242.451 96.9673 243.496 95.1866 244.547 93.4097C248.86 85.2525 249.077 76.9451 245.018 74.6758C240.951 72.4179 233.971 77.2022 229.657 85.3546ZM223.318 101.93C221.519 106.577 222.862 111.376 226.398 112.736C229.934 114.097 234.131 111.52 235.931 106.872C236.232 106.061 236.425 105.345 236.612 104.629C236.847 103.496 236.041 102.243 234.933 101.796L227.564 98.9349C226.456 98.4925 225.04 98.8526 224.393 99.9415C223.995 100.638 223.832 101.147 223.318 101.93ZM274.815 72.2181C273.467 73.855 272.118 75.4919 271.164 77.3881C270.722 78.4968 270.876 79.89 271.845 80.6347L279.732 87.246C280.701 87.9907 282.063 88.0446 283.109 87.214C284.85 85.8316 286.29 84.3101 287.638 82.6732C293.635 75.4534 295.521 67.3331 292.062 64.3975C288.599 61.4675 280.721 64.8828 274.815 72.2181ZM265.273 87.3691C262.572 91.594 262.946 96.598 265.992 98.5346C269.129 100.587 273.764 98.8023 276.465 94.5774C276.864 93.8856 277.257 93.19 277.564 92.3827C278.006 91.2741 277.645 89.8564 276.557 89.2084L270.076 85.0797C269.107 84.335 267.601 84.5843 266.766 85.4337C266.064 85.9817 265.666 86.6735 265.273 87.3691ZM250.956 37.2841C250.393 39.2726 250.151 41.3179 250.034 43.4523C250.003 44.7283 250.89 45.7644 252.104 46.1224L262.292 48.6003C263.506 48.9583 264.897 48.3372 265.374 47.2118C266.264 45.2838 266.828 43.3 267.396 41.3153C269.51 32.3341 267.618 24.234 263.117 23.0734C258.61 21.9042 253.065 28.3038 250.956 37.2841ZM249.012 54.9268C248.442 59.8804 250.959 64.1832 254.717 64.6C258.481 65.0207 261.891 61.4672 262.456 56.5146C262.547 55.6553 262.547 54.9119 262.549 54.1732C262.489 53.0178 261.396 52.0066 260.211 51.8546L252.361 50.9519C251.177 50.8047 249.902 51.512 249.545 52.7275C249.34 53.5053 249.309 54.0379 249.012 54.9268ZM291.325 13.1468C290.436 15.0748 289.546 16.9981 289.098 19.0729C288.951 20.2579 289.452 21.5649 290.576 22.0387L299.873 26.4399C300.997 26.9137 302.333 26.6232 303.131 25.5545C304.467 23.7771 305.472 21.9401 306.366 20.0112C310.342 11.5051 310.117 3.17409 306.032 1.20998C301.944 -0.748482 295.185 4.54965 291.325 13.1468ZM285.918 30.2177C284.374 34.9888 285.997 39.7385 289.434 40.8373C292.986 42.0271 297.019 39.1273 298.563 34.3563C298.769 33.5832 298.98 32.8141 299.071 31.9548C299.218 30.7698 298.511 29.4924 297.296 29.1344L289.98 26.7806C288.857 26.3068 287.46 26.924 286.868 27.9631C286.331 28.6765 286.125 29.4495 285.918 30.2177Z" fill="#7693B2"/>
</g>
<defs>
<clipPath id="clip0_122_27880">
<rect width="313.481" height="276.704" fill="white" transform="matrix(0.982118 -0.188266 -0.188266 -0.982118 52.094 330.774)"/>
</clipPath>
</defs>
</svg>
