<svg width="250" height="208" viewBox="0 0 250 208" fill="none" xmlns="http://www.w3.org/2000/svg">
<g clip-path="url(#clip0_149_11)">
<path d="M68.8427 85.7982L68.8425 78.439C116.848 74.7695 118.697 56.747 118.637 53.5032C118.631 53.2251 118.387 53.0439 118.113 53.0967L68.7919 62.415L70.4183 12.2474C70.4273 11.9706 70.2094 11.7557 69.9361 11.792C66.7217 12.2319 49.1963 16.828 52.9505 64.828L45.6799 65.9576C44.689 63.9852 43.2977 62.1729 41.513 60.6443C34.3212 54.4871 23.5173 55.3226 17.3585 62.5135C11.1985 69.7058 12.0336 80.5098 19.2242 86.6683C26.4148 92.8268 37.2212 91.9911 43.38 84.8002C45.5162 82.306 46.8093 79.3743 47.2903 76.3559L58.3236 74.6376L58.3241 85.8037C55.4142 86.7418 52.7174 88.4713 50.5812 90.9655C44.4199 98.1566 45.2551 108.963 52.4457 115.122C59.6363 121.28 70.4414 120.443 76.6002 113.252C82.759 106.061 81.924 95.2574 74.7334 89.0989C72.9498 87.569 70.944 86.4741 68.8427 85.7982ZM25.1506 79.7486C21.7859 76.8668 21.3948 71.806 24.2767 68.4411C27.1586 65.0762 32.2194 64.6848 35.5842 67.5666C38.9503 70.4496 39.3412 75.5079 36.4581 78.8742C33.5762 82.239 28.5167 82.6316 25.1506 79.7486ZM61.0847 71.4138C59.403 69.9735 59.2072 67.4406 60.6476 65.7588C62.088 64.077 64.6209 63.8811 66.3026 65.3214C67.9843 66.7618 68.1801 69.2947 66.7397 70.9765C65.2993 72.6582 62.7664 72.8541 61.0847 71.4138ZM58.3722 108.202C55.0061 105.319 54.6163 100.259 57.4983 96.8944C60.3802 93.5295 65.4396 93.137 68.8057 96.0199C72.1705 98.9017 72.5628 103.961 69.6797 107.327C66.7966 110.694 61.737 111.084 58.3722 108.202Z" fill="#F46161"/>
</g>
<path fill-rule="evenodd" clip-rule="evenodd" d="M222.318 164.925C224 157.399 225.179 148 221.114 141.125C245.872 119.237 222.346 102.693 214.019 120.893C212.568 121.436 211.486 122.1 211.127 122.321L151.717 151.253C149.807 152.178 150.5 154.281 152.571 153.455L213.722 131.734C214.818 134.977 216.484 138.02 218.14 140.72C210.957 146.715 189.205 160.563 194.386 171.362C195.028 172.652 197.15 171.747 196.477 170.326C192.219 161.439 213.142 147.853 219.353 142.701C222.725 148.365 221.557 158.104 220.073 164.419C219.725 165.873 221.969 166.379 222.318 164.925ZM207.56 129.121C209.271 127.625 211.031 126.049 212.983 124.703C212.783 125.914 212.795 127.147 212.937 128.349C211.165 128.692 209.363 128.906 207.56 129.121ZM215.23 127.882C215.048 126.21 215.156 124.607 215.734 122.963C222.309 119.374 225.661 125.247 215.23 127.882ZM219.901 139.143C218.356 136.622 216.83 133.889 215.955 131.007C228.887 126.143 225.853 117.794 217.263 119.794C225.369 108.027 239.547 121.533 219.901 139.143Z" fill="#5C6E89"/>
<defs>
<clipPath id="clip0_149_11">
<rect width="78" height="90" fill="white" transform="translate(64.7588 7.16992) rotate(40.5791)"/>
</clipPath>
</defs>
</svg>
