<svg width="166" height="49" viewBox="0 0 166 49" fill="none" xmlns="http://www.w3.org/2000/svg">
<path d="M7.06696 34.9098C6.05477 36.0863 5.42905 37.5019 5.2082 39.1564C7.23259 36.9871 9.69867 35.9209 12.5696 35.9209C15.2197 35.9209 18.0171 37.0974 20.9432 39.4322C24.1823 42.0059 26.6851 43.2744 28.4519 43.2744C29.7217 43.2744 30.7339 42.8515 31.5253 42.0243C32.3166 41.197 32.7031 40.1307 32.7031 38.8255C32.7031 38.3843 32.6111 37.8879 32.4271 37.3364C31.7093 38.0534 30.8996 38.4211 29.9978 38.4211C28.0654 38.4211 27.09 37.4835 27.09 35.59C27.09 34.5605 27.4765 33.6964 28.231 33.0162C29.004 32.336 30.0162 32.0051 31.2676 32.0051C32.9424 32.0051 34.2674 32.5934 35.298 33.7884C36.3102 34.9833 36.8255 36.5643 36.8255 38.5497C36.8255 41.3441 35.9421 43.734 34.1938 45.701C32.4455 47.6865 30.2922 48.6792 27.771 48.6792C25.3785 48.6792 22.5075 47.3923 19.1581 44.837C15.8086 42.2816 12.8641 40.9948 10.3428 40.9948C7.82151 40.9948 6.2388 41.8956 5.61308 43.6972C6.05477 43.6972 6.33082 43.6972 6.42284 43.6972C7.72949 43.6972 8.39202 44.3406 8.39202 45.6459C8.39202 47.6681 7.2694 48.6792 5.00577 48.6792C3.51508 48.6792 2.31885 48.0358 1.39867 46.7489C0.460089 45.4804 0 43.7523 0 41.5831C0 33.7148 5.42905 28.0342 16.2871 24.5781L21.1457 23.0339C26.5931 21.2874 29.3169 18.3276 29.3169 14.1913C29.3169 11.3969 28.3415 9.19088 26.3723 7.57311C24.4031 5.95534 21.7162 5.14645 18.2931 5.14645C15.2749 5.14645 12.7721 5.75312 10.7845 6.96645C8.8337 8.17977 7.65588 9.83431 7.30621 11.9484C9.73548 12.1323 10.9501 13.1802 10.9501 15.1288C10.9501 16.3054 10.5268 17.2981 9.66186 18.1254C8.7969 18.9527 7.74789 19.3755 6.47805 19.3755C4.95055 19.3755 3.71752 18.8424 2.79734 17.7945C1.87716 16.7466 1.41707 15.3494 1.41707 13.6398C1.41707 9.94461 3.0918 6.87453 6.42284 4.39272C9.75388 1.91091 13.8763 0.679199 18.79 0.679199C23.5565 0.679199 27.4765 1.92929 30.5131 4.42949C33.5497 6.92968 35.0772 10.1652 35.0772 14.1177C35.0772 16.8201 34.341 19.21 32.8871 21.269C31.4149 23.3464 29.3905 24.8906 26.7772 25.9201C25.9674 26.2326 23.2621 27.1886 18.6612 28.7512C15.367 29.8726 12.7353 30.9573 10.7477 31.9867C9.3122 32.7772 8.07916 33.7332 7.06696 34.9098Z" fill="#C4C4C4"/>
<path d="M61.1734 48.6792C55.4499 48.6792 50.9594 46.5834 47.6836 42.3736C44.4078 38.1637 42.7883 32.3728 42.7883 24.9825C42.7883 17.4636 44.4814 11.544 47.8861 7.18705C51.2907 2.84848 55.9468 0.679199 61.8359 0.679199C67.4674 0.679199 71.9211 2.75656 75.1785 6.92968C78.4359 11.1028 80.0738 16.7282 80.0738 23.8427C80.0738 31.5455 78.3807 37.6122 75.0129 42.0427C71.645 46.4731 67.0257 48.6792 61.1734 48.6792ZM61.7071 5.67958C53.4255 5.67958 49.1191 11.8749 48.8062 24.2472V25.2583C48.8062 31.1595 49.892 35.7186 52.0453 38.9358C54.2169 42.153 57.2719 43.7707 61.247 43.7707C65.2958 43.7707 68.4796 42.0243 70.7801 38.513C73.0805 35.0017 74.2215 30.1668 74.2215 23.9898C74.2215 18.0886 73.1357 13.5662 70.9825 10.4226C68.8109 7.2422 65.7191 5.67958 61.7071 5.67958Z" fill="#C4C4C4"/>
<path d="M93.1588 34.9098C92.1466 36.0863 91.5209 37.5019 91.3 39.1564C93.3244 36.9871 95.7905 35.9209 98.6615 35.9209C101.312 35.9209 104.109 37.0974 107.035 39.4322C110.274 42.0059 112.777 43.2744 114.544 43.2744C115.814 43.2744 116.826 42.8515 117.617 42.0243C118.408 41.197 118.795 40.1307 118.795 38.8255C118.795 38.3843 118.703 37.8879 118.519 37.3364C117.801 38.0534 116.991 38.4211 116.09 38.4211C114.157 38.4211 113.182 37.4835 113.182 35.59C113.182 34.5605 113.568 33.6964 114.323 33.0162C115.096 32.336 116.108 32.0051 117.359 32.0051C119.034 32.0051 120.359 32.5934 121.39 33.7884C122.402 34.9833 122.917 36.5643 122.917 38.5497C122.917 41.3441 122.034 43.734 120.286 45.701C118.537 47.6865 116.384 48.6792 113.863 48.6792C111.47 48.6792 108.599 47.3923 105.25 44.837C101.9 42.2816 98.9559 40.9948 96.4346 40.9948C93.9133 40.9948 92.3306 41.8956 91.7049 43.6972C92.1466 43.6972 92.4226 43.6972 92.5147 43.6972C93.8213 43.6972 94.4838 44.3406 94.4838 45.6459C94.4838 47.6681 93.3612 48.6792 91.0976 48.6792C89.6069 48.6792 88.4107 48.0358 87.4905 46.7489C86.5703 45.462 86.1102 43.7523 86.1102 41.5831C86.1102 33.7148 91.5393 28.0342 102.397 24.5781L107.256 23.0339C112.703 21.2874 115.427 18.3276 115.427 14.1913C115.427 11.3969 114.452 9.19088 112.483 7.57311C110.513 5.95534 107.826 5.14645 104.403 5.14645C101.385 5.14645 98.8823 5.75312 96.8947 6.96645C94.9071 8.17977 93.7477 9.8527 93.3796 11.9668C95.8089 12.1507 97.0235 13.1985 97.0235 15.1472C97.0235 16.3238 96.6003 17.3165 95.7353 18.1438C94.8703 18.971 93.8213 19.3939 92.5515 19.3939C91.024 19.3939 89.7909 18.8607 88.8708 17.8129C87.9506 16.765 87.4905 15.3678 87.4905 13.6581C87.4905 9.963 89.1652 6.89291 92.4963 4.4111C95.8641 1.91091 99.9865 0.679199 104.9 0.679199C109.667 0.679199 113.587 1.92929 116.623 4.42949C119.66 6.92968 121.187 10.1652 121.187 14.1177C121.187 16.8201 120.451 19.21 118.997 21.269C117.525 23.3464 115.501 24.8906 112.887 25.9201C112.078 26.2326 109.372 27.1886 104.771 28.7512C101.477 29.8726 98.8455 30.9573 96.8579 31.9867C95.404 32.7772 94.1894 33.7332 93.1588 34.9098Z" fill="#C4C4C4"/>
<path d="M136.223 34.9098C135.211 36.0863 134.585 37.5019 134.364 39.1564C136.389 36.9871 138.855 35.9209 141.726 35.9209C144.376 35.9209 147.173 37.0974 150.099 39.4322C153.338 42.0059 155.841 43.2744 157.608 43.2744C158.878 43.2744 159.89 42.8515 160.681 42.0243C161.473 41.197 161.859 40.1307 161.859 38.8255C161.859 38.3843 161.767 37.8879 161.583 37.3364C160.865 38.0534 160.056 38.4211 159.154 38.4211C157.222 38.4211 156.246 37.4835 156.246 35.59C156.246 34.5605 156.633 33.6964 157.387 33.0162C158.16 32.336 159.172 32.0051 160.424 32.0051C162.098 32.0051 163.424 32.5934 164.454 33.7884C165.466 34.9833 165.982 36.5643 165.982 38.5497C165.982 41.3441 165.098 43.734 163.35 45.701C161.602 47.6865 159.448 48.6792 156.927 48.6792C154.535 48.6792 151.664 47.3923 148.314 44.837C144.965 42.2816 142.02 40.9948 139.499 40.9948C136.978 40.9948 135.395 41.8956 134.769 43.6972C135.211 43.6972 135.487 43.6972 135.579 43.6972C136.886 43.6972 137.548 44.3406 137.548 45.6459C137.548 47.6681 136.425 48.6792 134.162 48.6792C132.671 48.6792 131.475 48.0358 130.555 46.7489C129.635 45.462 129.174 43.7523 129.174 41.5831C129.174 33.7148 134.604 28.0342 145.462 24.5781L150.32 23.0339C155.768 21.2874 158.491 18.3276 158.491 14.1913C158.491 11.3969 157.516 9.19088 155.547 7.57311C153.578 5.95534 150.891 5.14645 147.468 5.14645C144.449 5.14645 141.947 5.75312 139.959 6.96645C137.971 8.17977 136.812 9.8527 136.444 11.9668C138.873 12.1507 140.088 13.1985 140.088 15.1472C140.088 16.3238 139.665 17.3165 138.8 18.1438C137.935 18.971 136.886 19.3939 135.616 19.3939C134.088 19.3939 132.855 18.8607 131.935 17.8129C131.015 16.765 130.555 15.3678 130.555 13.6581C130.555 9.963 132.229 6.89291 135.561 4.4111C138.91 1.91091 143.032 0.679199 147.946 0.679199C152.713 0.679199 156.633 1.92929 159.669 4.42949C162.706 6.92968 164.233 10.1652 164.233 14.1177C164.233 16.8201 163.497 19.21 162.043 21.269C160.571 23.3464 158.547 24.8906 155.933 25.9201C155.124 26.2326 152.418 27.1886 147.817 28.7512C144.523 29.8726 141.891 30.9573 139.904 31.9867C138.468 32.7772 137.235 33.7332 136.223 34.9098Z" fill="#C4C4C4"/>
</svg>
