<svg width="436" height="146" viewBox="0 0 436 146" fill="none" xmlns="http://www.w3.org/2000/svg">
<path d="M39.5802 20.2431C42.1654 20.2431 44.3502 19.3152 46.1486 17.4594C47.947 15.6036 48.8462 13.3894 48.8462 10.8025C48.8462 8.21568 47.947 6.0014 46.1486 4.14562C44.3502 2.28984 42.1584 1.36196 39.5802 1.36196C36.9949 1.36196 34.782 2.28984 32.9274 4.14562C31.0728 6.0014 30.1455 8.2227 30.1455 10.8025C30.1455 13.3894 31.0728 15.6036 32.9274 17.4594C34.775 19.3152 36.9949 20.2431 39.5802 20.2431Z" fill="black"/>
<path d="M100.733 103.69C100.733 98.5231 98.5979 95.9362 94.3336 95.9362C90.2872 95.9362 88.271 98.4669 88.271 103.521C88.271 105.208 88.3553 107.711 88.5239 111.021C88.6925 114.339 88.7768 116.835 88.7768 118.522C88.7768 123.913 87.5404 127.597 85.0676 129.565C82.5947 131.533 78.0495 132.518 71.4248 132.518H48.509C43.9006 132.518 40.9852 132.124 39.7488 131.337C38.0627 130.212 37.1635 127.407 37.0511 122.908C37.0511 121.671 36.9949 119.197 36.8825 115.492C36.7701 112.455 36.7139 110.044 36.7139 108.245V97.792C36.7139 94.0804 37.0792 91.6693 37.8098 90.5446C38.5404 89.4199 40.5356 88.8576 43.7882 88.8576H51.3682C57.7681 88.8576 60.9715 91.2757 60.9715 96.1049C60.9715 97.3421 60.831 99.1417 60.55 101.497C60.269 103.858 60.1285 105.658 60.1285 106.888C60.1285 111.612 62.0955 113.967 66.0226 113.967C70.069 113.967 72.0852 111.942 72.0852 107.9C72.0852 106.438 71.9166 104.47 71.5794 102.003C71.1298 98.9659 70.8488 97.0047 70.7364 96.1049C70.2868 90.3759 70.062 86.3832 70.062 84.1338C70.062 80.2043 70.3992 75.6492 71.0736 70.4756C71.8604 64.4091 72.2538 60.9225 72.2538 60.0228C72.2538 55.1935 70.2306 52.7754 66.1912 52.7754C62.1517 52.7754 60.1285 55.0248 60.1285 59.5166C60.1285 61.2037 60.2971 63.1157 60.6343 65.2456C60.9715 67.3826 61.1401 69.1259 61.1401 70.4685C61.1401 75.3048 57.5995 77.7159 50.5252 77.7159H43.6196C41.7088 77.7159 40.3599 77.6034 39.5731 77.3785C37.5499 76.7037 36.5383 74.1168 36.5383 69.625V67.4318C36.5383 66.757 36.5945 65.6323 36.7069 64.0577C36.7069 62.4831 36.7069 61.2529 36.7069 60.3461V52.7754C36.7069 47.2713 39.1235 43.8972 43.9498 42.66C45.411 42.3226 50.1248 42.1539 58.0983 42.1539C70.2306 42.1539 77.7544 42.7725 80.6769 44.0097C84.6039 45.6967 86.5709 51.257 86.5709 60.6976V69.4633C86.5709 75.4243 88.5941 78.3978 92.6336 78.3978C96.673 78.3978 98.6962 76.2608 98.6962 71.9939C98.6962 70.4193 98.4714 68.0082 98.0218 64.7465C97.797 63.1719 97.6846 60.4234 97.6846 56.4869C97.6846 53.4502 97.8532 50.1393 98.1904 46.5403C98.64 41.711 98.8648 38.843 98.8648 37.9432C98.8648 32.7766 95.9424 30.1897 90.1045 30.1897C88.6433 30.1897 87.0135 30.246 85.2151 30.3585C80.164 30.6959 77.2416 30.8646 76.4548 30.8646L35.8498 32.0455H34.1638C35.2878 32.0455 27.4268 31.4832 10.5806 30.3585C9.007 30.246 8.164 30.1897 8.05159 30.1897C3.35884 30.1897 0.998413 32.151 0.998413 36.0875C0.998413 37.6621 1.50422 38.9836 2.51583 40.0521C3.52744 41.1206 4.76386 41.6548 6.22507 41.6548C7.46149 41.6548 8.9789 41.4861 10.7703 41.1487C11.5571 40.9237 12.7373 40.8113 14.3109 40.8113C20.0364 40.8113 22.9026 44.9727 22.9026 53.2885V120.891C22.9026 129.319 20.0364 133.537 14.3109 133.537C13.1869 133.537 12.0067 133.368 10.7703 133.031C8.29747 132.806 6.78005 132.693 6.22507 132.693C2.74063 132.693 1.00544 134.493 1.00544 138.085C1.00544 142.134 3.36586 144.151 8.07969 144.151C8.1921 144.151 8.5293 144.151 9.09131 144.151C9.65331 144.039 10.1591 143.983 10.6087 143.983C20.7178 143.308 31.0517 142.97 41.6104 142.97C48.5723 142.97 56.8267 143.083 66.3738 143.308C75.9209 143.533 80.2975 143.645 79.5177 143.645C83.1146 143.645 85.5804 143.701 86.9292 143.814C89.6268 144.039 91.5868 144.151 92.8232 144.151C97.9867 144.151 100.572 141.515 100.572 136.229C100.572 134.654 100.488 132.328 100.319 129.235C100.15 126.142 100.066 123.815 100.066 122.24C100.066 120.216 100.178 117.13 100.403 112.969C100.621 108.8 100.733 105.707 100.733 103.69Z" fill="black"/>
<path d="M200.918 71.7408C201.93 69.9975 203.279 69.1259 204.965 69.1259C206.426 69.1259 207.915 69.2946 209.433 69.632C210.95 69.9694 211.983 70.1381 212.552 70.1381C216.149 70.1381 217.94 68.3386 217.94 64.7465C217.94 60.9296 215.579 59.0175 210.866 59.0175C210.528 59.0175 209.601 59.1019 208.084 59.2706C206.566 59.4393 204.88 59.608 203.033 59.7767C201.178 59.9454 199.323 60.1141 197.476 60.2828C195.621 60.4515 194.132 60.5359 193.008 60.5359H155.101C153.977 60.5359 152.487 60.4515 150.64 60.2828C148.785 60.1141 146.93 59.9454 145.083 59.7767C143.228 59.608 141.542 59.4393 140.025 59.2706C138.507 59.1019 137.58 59.0175 137.243 59.0175C132.529 59.0175 130.169 60.9296 130.169 64.7465C130.169 68.3456 131.981 70.1381 135.606 70.1381C136.175 70.1381 137.222 69.9694 138.753 69.632C140.285 69.2946 141.781 69.1259 143.256 69.1259C145.75 69.1259 147.366 69.379 148.104 69.8851C148.841 70.3912 149.207 71.3191 149.207 72.6687C149.207 79.7474 149.038 85.9895 148.701 91.3811C148.364 96.7727 147.879 101.553 147.261 105.707C146.642 109.869 145.877 113.545 144.97 116.75C144.064 119.956 142.996 122.901 141.753 125.601C138.472 132.574 133.393 136.053 126.501 136.053C125.37 136.053 124.211 135.857 123.031 135.463C121.844 135.069 120.629 134.31 119.385 133.185C121.408 132.061 122.42 130.261 122.42 127.794C122.42 125.544 121.661 123.724 120.144 122.318C118.626 120.912 116.8 120.209 114.671 120.209C112.198 120.209 110.147 120.968 108.524 122.486C106.894 124.005 106.08 126.057 106.08 128.637C106.08 131.224 106.642 133.586 107.766 135.716C108.89 137.853 110.4 139.681 112.311 141.192C114.222 142.71 116.463 143.891 119.048 144.735C121.633 145.578 124.436 146 127.471 146C133.534 146 138.676 144.538 142.884 141.614C147.099 138.689 150.324 134.872 152.572 130.149C154.033 126.887 155.325 123.464 156.449 119.864C157.573 116.272 158.501 112.308 159.231 107.978C159.962 103.655 160.552 98.9027 161.002 93.736C161.451 88.5694 161.732 82.7771 161.845 76.3733C161.845 74.7987 162.098 73.674 162.603 72.9991C163.109 72.3243 164.093 71.9869 165.554 71.9869H182.231C184.142 71.9869 185.372 72.7742 185.941 74.3488C186.503 75.9234 186.784 78.3977 186.784 81.7649V121.214C186.784 126.163 186.278 129.502 185.266 131.245C184.255 132.988 182.906 133.86 181.22 133.86C179.759 133.86 178.269 133.691 176.752 133.354C175.234 133.017 174.195 132.848 173.633 132.848C170.036 132.848 168.245 134.647 168.245 138.239C168.245 142.064 170.605 143.968 175.319 143.968C175.656 143.968 176.583 143.884 178.101 143.715C179.618 143.547 181.304 143.378 183.152 143.209C184.999 143.041 186.861 142.872 188.709 142.703C190.556 142.534 192.045 142.45 193.177 142.45C197.56 142.45 201.347 142.703 204.55 143.209C207.754 143.715 209.629 143.968 210.191 143.968C214.68 143.968 216.928 142.113 216.928 138.408C216.928 134.591 215.186 132.679 211.709 132.679C210.697 132.679 209.404 132.904 207.831 133.354C206.257 133.804 205.021 134.029 204.122 134.029C202.323 134.029 201.087 133.157 200.412 131.414C199.738 129.671 199.401 126.275 199.401 121.214V81.7649C199.401 76.8302 199.907 73.4841 200.918 71.7408Z" fill="black"/>
<path d="M430.772 132.686C429.76 132.686 428.468 132.911 426.894 133.361C425.32 133.811 424.084 134.036 423.185 134.036C421.386 134.036 420.15 133.164 419.475 131.421C418.801 129.678 418.464 126.282 418.464 121.221V81.7719C418.464 76.7177 418.801 73.3154 419.475 71.5721C420.15 69.8288 421.386 68.9572 423.185 68.9572C424.084 68.9572 425.32 69.1821 426.894 69.632C428.468 70.0819 429.76 70.3068 430.772 70.3068C434.249 70.3068 435.991 68.3948 435.991 64.5778C435.991 60.8663 433.743 59.0175 429.254 59.0175C428.692 59.0175 426.81 59.2425 423.613 59.6924C420.41 60.1423 416.623 60.3672 412.24 60.3672C411.116 60.3672 409.626 60.2969 407.772 60.1423C405.917 59.9876 404.062 59.84 402.215 59.6924C400.36 59.5447 398.674 59.3971 397.164 59.2425C395.646 59.0949 394.719 59.0175 394.382 59.0175C389.661 59.0175 387.308 60.9296 387.308 64.7465C387.308 68.3456 389.106 70.1381 392.696 70.1381C393.258 70.1381 394.298 69.9694 395.815 69.632C397.332 69.2946 398.822 69.1259 400.283 69.1259C401.294 69.1259 402.334 69.379 403.402 69.8851C404.47 70.3912 405.004 71.4315 405.004 73.0061C405.004 74.3558 404.779 75.5086 404.329 76.4646C403.88 77.4207 403.037 78.461 401.8 79.5857L363.668 113.32C363.233 113.707 362.551 113.397 362.551 112.814V81.7719C362.551 76.7177 362.888 73.3154 363.563 71.5721C364.237 69.8288 365.474 68.9572 367.272 68.9572C368.171 68.9572 369.408 69.1821 370.981 69.632C372.555 70.0819 373.848 70.3068 374.859 70.3068C378.337 70.3068 380.079 68.3948 380.079 64.5778C380.079 60.8663 377.831 59.0175 373.342 59.0175C372.78 59.0175 370.897 59.2425 367.701 59.6924C364.497 60.1423 360.711 60.3672 356.327 60.3672C355.203 60.3672 353.714 60.2969 351.866 60.1423C350.011 59.9946 348.157 59.84 346.309 59.6924C344.455 59.5447 342.769 59.3971 341.251 59.2425C339.734 59.0949 338.806 59.0175 338.469 59.0175C333.755 59.0175 331.395 60.9296 331.395 64.7465C331.395 68.3456 333.193 70.1381 336.783 70.1381C337.345 70.1381 338.385 69.9694 339.902 69.632C341.42 69.2946 342.909 69.1259 344.37 69.1259C346.056 69.1259 347.405 69.9975 348.41 71.7408C349.421 73.4841 349.927 76.8302 349.927 81.7719V121.221C349.927 126.17 349.421 129.509 348.41 131.252C347.398 132.996 346.049 133.867 344.37 133.867C342.909 133.867 341.42 133.698 339.902 133.361C338.385 133.024 337.345 132.855 336.783 132.855C333.186 132.855 331.395 134.654 331.395 138.247C331.395 142.071 333.755 143.976 338.469 143.976C338.806 143.976 339.734 143.891 341.251 143.722C342.769 143.554 344.455 143.385 346.309 143.216C348.164 143.048 350.018 142.879 351.866 142.71C353.721 142.542 355.203 142.457 356.327 142.457C360.711 142.457 364.497 142.71 367.701 143.216C370.904 143.722 372.78 143.976 373.342 143.976C377.831 143.976 380.079 142.12 380.079 138.415C380.079 134.598 378.337 132.686 374.859 132.686C373.848 132.686 372.555 132.911 370.981 133.361C369.408 133.811 368.171 134.036 367.272 134.036C364.912 134.036 363.731 132.967 363.731 130.83C363.731 129.593 364.069 128.469 364.743 127.456C365.417 126.444 366.541 125.263 368.115 123.913L404.737 91.5217C405.172 91.1351 405.854 91.4444 405.854 92.0279V121.214C405.854 126.163 405.348 129.502 404.336 131.245C403.325 132.988 401.976 133.86 400.29 133.86C398.829 133.86 397.339 133.691 395.822 133.354C394.305 133.017 393.265 132.848 392.703 132.848C389.106 132.848 387.315 134.647 387.315 138.239C387.315 142.064 389.675 143.968 394.389 143.968C394.726 143.968 395.653 143.884 397.171 143.715C398.688 143.547 400.374 143.378 402.222 143.209C404.069 143.041 405.931 142.872 407.779 142.703C409.626 142.534 411.116 142.45 412.247 142.45C416.63 142.45 420.417 142.703 423.62 143.209C426.824 143.715 428.699 143.968 429.261 143.968C433.75 143.968 435.998 142.113 435.998 138.408C435.991 134.598 434.249 132.686 430.772 132.686Z" fill="black"/>
<path d="M317.844 110.768C314.359 110.768 312.624 112.568 312.624 116.16V124.42C312.624 131.611 310.685 135.21 306.814 135.21C304.376 135.21 302.768 134.423 301.995 132.848C301.222 131.273 300.836 129.2 300.836 126.613C300.836 125.713 300.864 124.532 300.92 123.07C300.976 121.608 301.004 120.434 301.004 119.527C301.004 113.911 299.824 109.58 297.464 106.544C295.103 103.507 291.626 100.983 287.018 98.9589C289.49 97.0469 291.366 95.0576 292.659 92.9768C293.951 90.8961 294.963 88.7381 295.694 86.4886C296.424 84.2392 297.014 81.9687 297.464 79.663C297.913 77.3574 298.532 74.9744 299.318 72.5C300.33 69.3579 302.241 67.7762 305.044 67.7762C306.28 67.7762 307.208 68.0855 307.826 68.7041C308.444 69.3227 308.753 69.9132 308.753 70.4755C308.303 71.0379 307.91 71.6565 307.573 72.3313C307.236 73.0061 307.067 74.0746 307.067 75.5368C307.067 77.7862 307.798 79.642 309.259 81.0971C310.72 82.5592 312.736 83.2902 315.322 83.2902C318.462 83.2902 320.907 82.3061 322.649 80.3379C324.391 78.3696 325.262 75.9866 325.262 73.1749C325.262 70.588 324.728 68.3175 323.66 66.3493C322.593 64.381 321.216 62.7572 319.53 61.4638C317.844 60.1704 315.961 59.1862 313.888 58.5114C311.809 57.8366 309.758 57.4992 307.742 57.4992C302.241 57.4992 298.251 58.5114 295.778 60.5359C293.305 62.5604 291.535 65.091 290.474 68.1207C289.406 71.1574 288.563 74.4683 287.945 78.0674C287.327 81.6664 286.118 85.0406 284.32 88.1827C283.308 89.9823 281.58 91.7186 280.035 92.8433C278.735 93.7852 275.208 94.5444 272.918 94.5444H255.707C254.948 94.5444 254.337 93.9328 254.337 93.1737V81.7789C254.337 76.7247 254.674 73.3225 255.348 71.5792C256.023 69.8359 257.259 68.9642 259.058 68.9642C259.957 68.9642 261.193 69.1892 262.767 69.639C264.341 70.0889 265.633 70.3139 266.645 70.3139C270.122 70.3139 271.864 68.3737 271.864 64.4935C271.864 60.7327 269.616 58.8488 265.127 58.8488C264.565 58.8488 262.683 59.1019 259.486 59.608C256.283 60.1141 252.496 60.3672 248.113 60.3672C246.989 60.3672 245.499 60.2828 243.652 60.1141C241.797 59.9454 239.942 59.7767 238.095 59.608C236.24 59.4393 234.554 59.2706 233.037 59.1019C231.519 58.9332 230.592 58.8488 230.255 58.8488C225.541 58.8488 223.181 60.7819 223.181 64.6552C223.181 68.3175 224.979 70.1452 228.569 70.1452C229.131 70.1452 230.171 69.9765 231.688 69.639C233.205 69.3016 234.695 69.1329 236.156 69.1329C237.842 69.1329 239.191 70.0046 240.195 71.7479C241.207 73.4912 241.713 76.8372 241.713 81.7789V121.228C241.713 126.177 241.207 129.516 240.195 131.259C239.184 133.003 237.835 133.874 236.156 133.874C234.695 133.874 233.205 133.705 231.688 133.368C230.171 133.031 229.131 132.862 228.569 132.862C224.972 132.862 223.181 134.661 223.181 138.254C223.181 142.078 225.541 143.983 230.255 143.983C230.592 143.983 231.519 143.898 233.037 143.729C234.554 143.561 236.24 143.392 238.095 143.223C239.949 143.055 241.804 142.886 243.652 142.717C245.506 142.549 246.989 142.464 248.113 142.464C252.496 142.464 256.283 142.717 259.486 143.223C262.69 143.729 264.565 143.983 265.127 143.983C269.616 143.983 271.864 142.127 271.864 138.422C271.864 134.605 270.122 132.693 266.645 132.693C265.633 132.693 264.341 132.918 262.767 133.368C261.193 133.818 259.957 134.043 259.058 134.043C257.259 134.043 256.023 133.171 255.348 131.428C254.674 129.685 254.337 126.289 254.337 121.228V106.881C254.337 106.122 254.948 105.51 255.707 105.51H275.131C277.267 105.51 280.744 106.009 282.093 106.537C283.624 107.134 284.959 107.907 286.09 108.842C288.725 111.035 290.052 114.438 290.052 119.042C290.052 120.842 290.024 122.613 289.968 124.349C289.912 126.093 289.884 127.695 289.884 129.15C289.884 134.879 291.247 139.041 293.979 141.628C296.712 144.215 300.752 145.508 306.105 145.508C317.64 145.508 323.407 140.116 323.407 129.326V116.511C323.4 112.68 321.546 110.768 317.844 110.768Z" fill="black"/>
<path d="M70.1041 0.384863L72.1273 4.49006C72.6753 5.60072 73.7361 6.37396 74.9655 6.54969L79.4896 7.21046C80.0587 7.29482 80.2835 7.99073 79.876 8.39844L76.6023 11.5898C75.7172 12.4544 75.3097 13.7057 75.5205 14.9218L76.2932 19.4277C76.3916 19.997 75.7944 20.4258 75.2886 20.1587L71.2422 18.0288C70.1463 17.4524 68.8326 17.4524 67.7367 18.0288L63.6902 20.1587C63.1844 20.4258 62.5873 19.997 62.6856 19.4277L63.4584 14.9218C63.6692 13.6986 63.2617 12.4544 62.3765 11.5898L59.1029 8.39844C58.6884 7.99776 58.9202 7.29482 59.4892 7.21046L64.0134 6.54969C65.2428 6.37396 66.2965 5.60072 66.8515 4.49006L68.8747 0.384863C69.1136 -0.128288 69.8512 -0.128288 70.1041 0.384863Z" fill="black"/>
</svg>
