<svg width="238" height="81" viewBox="0 0 238 81" fill="none" xmlns="http://www.w3.org/2000/svg">
<path d="M21.1091 11.7713C22.5235 11.7713 23.7189 11.2629 24.7029 10.246C25.6868 9.22913 26.1788 8.01583 26.1788 6.59838C26.1788 5.18094 25.6868 3.96764 24.7029 2.95077C23.7189 1.93391 22.5197 1.42548 21.1091 1.42548C19.6946 1.42548 18.4839 1.93391 17.4692 2.95077C16.4545 3.96764 15.9471 5.18479 15.9471 6.59838C15.9471 8.01583 16.4545 9.22913 17.4692 10.246C18.4801 11.2629 19.6946 11.7713 21.1091 11.7713Z" fill="#FDC504"/>
<path d="M54.5677 57.4955C54.5677 54.6644 53.3992 53.247 51.0662 53.247C48.8522 53.247 47.7491 54.6336 47.7491 57.403C47.7491 58.3275 47.7952 59.6987 47.8875 61.5129C47.9797 63.3309 48.0259 64.6983 48.0259 65.6227C48.0259 68.577 47.3494 70.5953 45.9964 71.6738C44.6435 72.7523 42.1567 73.2915 38.5322 73.2915H25.9943C23.4729 73.2915 21.8778 73.0758 21.2013 72.6444C20.2789 72.0282 19.7869 70.4913 19.7254 68.0262C19.7254 67.3483 19.6946 65.9925 19.6331 63.9626C19.5716 62.2986 19.5409 60.9775 19.5409 59.9914V54.2639C19.5409 52.2301 19.7408 50.909 20.1405 50.2927C20.5402 49.6764 21.6318 49.3683 23.4114 49.3683H27.5587C31.0602 49.3683 32.8129 50.6933 32.8129 53.3394C32.8129 54.0173 32.736 55.0034 32.5823 56.2937C32.4285 57.5879 32.3516 58.574 32.3516 59.248C32.3516 61.8364 33.4278 63.1268 35.5764 63.1268C37.7903 63.1268 38.8935 62.0174 38.8935 59.8027C38.8935 59.0015 38.8012 57.923 38.6167 56.5711C38.3707 54.9071 38.217 53.8325 38.1555 53.3394C37.9095 50.2003 37.7865 48.0125 37.7865 46.7799C37.7865 44.6268 37.971 42.1308 38.34 39.2959C38.7705 35.9719 38.9857 34.0614 38.9857 33.5684C38.9857 30.9222 37.8787 29.5972 35.6687 29.5972C33.4586 29.5972 32.3516 30.8298 32.3516 33.291C32.3516 34.2155 32.4439 35.2631 32.6284 36.4302C32.8129 37.6012 32.9051 38.5564 32.9051 39.2921C32.9051 41.9421 30.9679 43.2632 27.0974 43.2632H23.3192C22.2737 43.2632 21.5357 43.2016 21.1052 43.0784C19.9983 42.7086 19.4448 41.2911 19.4448 38.8299V37.6281C19.4448 37.2584 19.4756 36.6421 19.5371 35.7793C19.5371 34.9165 19.5371 34.2424 19.5371 33.7456V29.5972C19.5371 26.5813 20.8593 24.7325 23.4998 24.0545C24.2993 23.8697 26.8783 23.7772 31.2408 23.7772C37.8787 23.7772 41.9953 24.1162 43.5942 24.7941C45.7428 25.7185 46.819 28.7652 46.819 33.9381V38.7413C46.819 42.0076 47.9259 43.6369 50.136 43.6369C52.3461 43.6369 53.453 42.4659 53.453 40.1279C53.453 39.2651 53.33 37.944 53.0841 36.1568C52.9611 35.294 52.8996 33.7879 52.8996 31.6309C52.8996 29.967 52.9918 28.1528 53.1763 26.1807C53.4223 23.5346 53.5453 21.963 53.5453 21.47C53.5453 18.639 51.9463 17.2215 48.7523 17.2215C47.9528 17.2215 47.0611 17.2523 46.0772 17.314C43.3136 17.4989 41.7147 17.5913 41.2842 17.5913L19.0681 18.2384H18.1457C18.7606 18.2384 14.4596 17.9303 5.24268 17.314C4.38171 17.2523 3.92048 17.2215 3.85898 17.2215C1.29145 17.2215 0 18.2962 0 20.4531C0 21.3159 0.27674 22.0401 0.830219 22.6255C1.3837 23.211 2.06017 23.5037 2.85964 23.5037C3.53612 23.5037 4.36634 23.4113 5.34646 23.2264C5.77694 23.1032 6.42267 23.0415 7.28364 23.0415C10.4162 23.0415 11.9844 25.3218 11.9844 29.8784V66.9207C11.9844 71.539 10.4162 73.85 7.28364 73.85C6.66866 73.85 6.02293 73.7576 5.34646 73.5727C3.99351 73.4495 3.16329 73.3878 2.85964 73.3878C0.953215 73.3878 0.00384361 74.3739 0.00384361 76.3421C0.00384361 78.5607 1.2953 79.6662 3.87436 79.6662C3.93585 79.6662 4.12035 79.6662 4.42784 79.6662C4.73532 79.6046 5.01206 79.5737 5.25805 79.5737C10.789 79.204 16.443 79.0191 22.2199 79.0191C26.0289 79.0191 30.5451 79.0807 35.7686 79.204C40.9921 79.3272 43.3866 79.3889 42.96 79.3889C44.9279 79.3889 46.277 79.4197 47.015 79.4813C48.4909 79.6046 49.5633 79.6662 50.2398 79.6662C53.0648 79.6662 54.4793 78.2218 54.4793 75.3253C54.4793 74.4625 54.4332 73.1875 54.3409 71.4928C54.2487 69.798 54.2025 68.5231 54.2025 67.6603C54.2025 66.551 54.264 64.86 54.387 62.5798C54.5062 60.2957 54.5677 58.6009 54.5677 57.4955Z" fill="#FDC504"/>
<path d="M109.381 39.9893C109.935 39.034 110.673 38.5564 111.595 38.5564C112.395 38.5564 113.21 38.6488 114.04 38.8337C114.87 39.0186 115.435 39.1111 115.746 39.1111C117.714 39.1111 118.694 38.125 118.694 36.1568C118.694 34.0653 117.403 33.0176 114.824 33.0176C114.639 33.0176 114.132 33.0638 113.302 33.1562C112.472 33.2487 111.549 33.3411 110.538 33.4336C109.524 33.526 108.509 33.6185 107.498 33.7109C106.483 33.8033 105.668 33.8496 105.053 33.8496H84.3134C83.6984 33.8496 82.8835 33.8033 81.8727 33.7109C80.858 33.6185 79.8433 33.526 78.8324 33.4336C77.8177 33.3411 76.8952 33.2487 76.065 33.1562C75.2348 33.0638 74.7274 33.0176 74.5429 33.0176C71.9639 33.0176 70.6724 34.0653 70.6724 36.1568C70.6724 38.1289 71.6641 39.1111 73.6474 39.1111C73.9587 39.1111 74.5314 39.0186 75.3693 38.8337C76.2072 38.6488 77.0259 38.5564 77.833 38.5564C79.1975 38.5564 80.0816 38.6951 80.4851 38.9724C80.8887 39.2497 81.0886 39.7581 81.0886 40.4977C81.0886 44.3764 80.9963 47.7968 80.8118 50.7511C80.6273 53.7054 80.3621 56.3246 80.0239 58.6009C79.6857 60.8812 79.2667 62.8956 78.7709 64.652C78.2751 66.4084 77.6908 68.0223 77.0105 69.5014C75.2155 73.3223 72.4366 75.229 68.666 75.229C68.0472 75.229 67.413 75.1211 66.7673 74.9054C66.1177 74.6897 65.4528 74.2737 64.7725 73.6574C65.8794 73.0412 66.4329 72.0551 66.4329 70.7032C66.4329 69.4706 66.0178 68.473 65.1876 67.7026C64.3574 66.9323 63.358 66.5471 62.1934 66.5471C60.8405 66.5471 59.7181 66.9631 58.8302 67.7951C57.9385 68.6271 57.4927 69.7518 57.4927 71.1654C57.4927 72.5828 57.8002 73.877 58.4151 75.0441C59.0301 76.215 59.8565 77.2165 60.902 78.0446C61.9474 78.8766 63.1735 79.5237 64.588 79.9859C66.0024 80.4481 67.536 80.6792 69.1965 80.6792C72.5135 80.6792 75.327 79.878 77.6293 78.2757C79.9355 76.6734 81.6997 74.5819 82.9297 71.9935C83.7291 70.2063 84.4364 68.3305 85.0513 66.3584C85.6663 64.3901 86.1737 62.2177 86.5734 59.8451C86.9731 57.4762 87.296 54.8724 87.542 52.0414C87.788 49.2104 87.9417 46.0365 88.0032 42.5276C88.0032 41.6648 88.1416 41.0485 88.4183 40.6787C88.6951 40.3089 89.2332 40.1241 90.0327 40.1241H99.1574C100.203 40.1241 100.875 40.5555 101.187 41.4183C101.494 42.281 101.648 43.6369 101.648 45.4819V67.0979C101.648 69.8095 101.371 71.6391 100.818 72.5944C100.264 73.5496 99.5264 74.0272 98.6039 74.0272C97.8044 74.0272 96.9896 73.9348 96.1594 73.7499C95.3291 73.565 94.7603 73.4726 94.4528 73.4726C92.4849 73.4726 91.5048 74.4586 91.5048 76.4269C91.5048 78.5222 92.7962 79.566 95.3753 79.566C95.5598 79.566 96.0671 79.5198 96.8973 79.4274C97.7276 79.3349 98.65 79.2425 99.6609 79.15C100.672 79.0576 101.69 78.9652 102.701 78.8727C103.712 78.7803 104.527 78.7341 105.146 78.7341C107.544 78.7341 109.616 78.8727 111.369 79.15C113.121 79.4274 114.147 79.566 114.455 79.566C116.911 79.566 118.141 78.5492 118.141 76.5193C118.141 74.4278 117.188 73.3801 115.285 73.3801C114.732 73.3801 114.024 73.5034 113.163 73.7499C112.303 73.9964 111.626 74.1197 111.134 74.1197C110.15 74.1197 109.474 73.642 109.105 72.6868C108.736 71.7316 108.551 69.8712 108.551 67.0979V45.4819C108.551 42.7779 108.828 40.9445 109.381 39.9893Z" fill="#FDC504"/>
<path d="M235.14 73.384C234.587 73.384 233.88 73.5072 233.019 73.7537C232.158 74.0003 231.481 74.1235 230.989 74.1235C230.005 74.1235 229.329 73.6459 228.96 72.6907C228.591 71.7354 228.406 69.875 228.406 67.1018V45.4857C228.406 42.7163 228.591 40.852 228.96 39.8968C229.329 38.9416 230.005 38.464 230.989 38.464C231.481 38.464 232.158 38.5872 233.019 38.8337C233.88 39.0802 234.587 39.2035 235.14 39.2035C237.043 39.2035 237.996 38.1558 237.996 36.0643C237.996 34.0306 236.766 33.0176 234.31 33.0176C234.003 33.0176 232.973 33.1408 231.224 33.3873C229.471 33.6339 227.399 33.7571 225.001 33.7571C224.386 33.7571 223.571 33.7186 222.556 33.6339C221.542 33.5491 220.527 33.4682 219.516 33.3873C218.501 33.3065 217.579 33.2256 216.753 33.1408C215.922 33.0599 215.415 33.0176 215.23 33.0176C212.648 33.0176 211.36 34.0653 211.36 36.1568C211.36 38.1289 212.344 39.1111 214.308 39.1111C214.615 39.1111 215.184 39.0186 216.015 38.8337C216.845 38.6488 217.66 38.5564 218.459 38.5564C219.013 38.5564 219.581 38.6951 220.166 38.9724C220.75 39.2497 221.042 39.8198 221.042 40.6826C221.042 41.4221 220.919 42.0538 220.673 42.5776C220.427 43.1015 219.966 43.6715 219.289 44.2878L198.426 62.7724C198.188 62.9842 197.815 62.8148 197.815 62.4951V45.4857C197.815 42.7163 198 40.852 198.369 39.8968C198.738 38.9416 199.414 38.464 200.398 38.464C200.89 38.464 201.566 38.5872 202.427 38.8337C203.288 39.0802 203.996 39.2035 204.549 39.2035C206.452 39.2035 207.405 38.1558 207.405 36.0643C207.405 34.0306 206.175 33.0176 203.719 33.0176C203.411 33.0176 202.381 33.1408 200.632 33.3873C198.88 33.6339 196.808 33.7571 194.41 33.7571C193.795 33.7571 192.98 33.7186 191.969 33.6339C190.954 33.553 189.94 33.4682 188.929 33.3873C187.914 33.3065 186.991 33.2256 186.161 33.1408C185.331 33.0599 184.824 33.0176 184.639 33.0176C182.06 33.0176 180.769 34.0653 180.769 36.1568C180.769 38.1289 181.753 39.1111 183.717 39.1111C184.024 39.1111 184.593 39.0186 185.423 38.8337C186.254 38.6488 187.068 38.5564 187.868 38.5564C188.79 38.5564 189.528 39.034 190.078 39.9893C190.631 40.9445 190.908 42.7779 190.908 45.4857V67.1018C190.908 69.8134 190.631 71.643 190.078 72.5982C189.524 73.5535 188.786 74.0311 187.868 74.0311C187.068 74.0311 186.254 73.9386 185.423 73.7537C184.593 73.5689 184.024 73.4764 183.717 73.4764C181.749 73.4764 180.769 74.4625 180.769 76.4307C180.769 78.5261 182.06 79.5699 184.639 79.5699C184.824 79.5699 185.331 79.5237 186.161 79.4312C186.991 79.3388 187.914 79.2463 188.929 79.1539C189.943 79.0615 190.958 78.969 191.969 78.8766C192.984 78.7841 193.795 78.7379 194.41 78.7379C196.808 78.7379 198.88 78.8766 200.632 79.1539C202.385 79.4312 203.411 79.5699 203.719 79.5699C206.175 79.5699 207.405 78.553 207.405 76.5232C207.405 74.4317 206.452 73.384 204.549 73.384C203.996 73.384 203.288 73.5072 202.427 73.7537C201.566 74.0003 200.89 74.1235 200.398 74.1235C199.107 74.1235 198.461 73.538 198.461 72.3671C198.461 71.6892 198.645 71.0729 199.014 70.5183C199.383 69.9636 199.998 69.3165 200.859 68.577L220.896 50.8281C221.134 50.6162 221.507 50.7857 221.507 51.1054V67.0979C221.507 69.8095 221.23 71.6391 220.677 72.5944C220.123 73.5496 219.385 74.0272 218.463 74.0272C217.663 74.0272 216.849 73.9348 216.018 73.7499C215.188 73.565 214.619 73.4726 214.312 73.4726C212.344 73.4726 211.364 74.4586 211.364 76.4269C211.364 78.5222 212.655 79.566 215.234 79.566C215.419 79.566 215.926 79.5198 216.756 79.4274C217.587 79.3349 218.509 79.2425 219.52 79.15C220.531 79.0576 221.549 78.9652 222.56 78.8727C223.571 78.7803 224.386 78.7341 225.005 78.7341C227.403 78.7341 229.475 78.8727 231.228 79.15C232.98 79.4274 234.006 79.566 234.314 79.566C236.77 79.566 238 78.5492 238 76.5193C237.996 74.4316 237.043 73.384 235.14 73.384Z" fill="#FDC504"/>
<path d="M173.354 61.3742C171.448 61.3742 170.499 62.3602 170.499 64.3285V68.8543C170.499 72.7947 169.438 74.7668 167.32 74.7668C165.986 74.7668 165.106 74.3354 164.683 73.4726C164.26 72.6098 164.049 71.4735 164.049 70.0561C164.049 69.563 164.064 68.9159 164.095 68.1148C164.126 67.3136 164.141 66.6704 164.141 66.1735C164.141 63.0959 163.496 60.7233 162.204 59.0593C160.913 57.3953 159.01 56.0126 156.489 54.9032C157.842 53.8556 158.868 52.7655 159.575 51.6254C160.282 50.4853 160.836 49.3028 161.235 48.0702C161.635 46.8377 161.958 45.5936 162.204 44.3302C162.45 43.0668 162.788 41.7611 163.219 40.4052C163.772 38.6835 164.818 37.8169 166.351 37.8169C167.028 37.8169 167.535 37.9863 167.873 38.3253C168.212 38.6642 168.381 38.9878 168.381 39.2959C168.135 39.6041 167.919 39.943 167.735 40.3128C167.551 40.6826 167.458 41.268 167.458 42.0692C167.458 43.3018 167.858 44.3186 168.657 45.1159C169.457 45.9171 170.56 46.3177 171.975 46.3177C173.693 46.3177 175.03 45.7784 175.983 44.7C176.937 43.6215 177.413 42.3157 177.413 40.775C177.413 39.3576 177.121 38.1134 176.537 37.035C175.953 35.9565 175.199 35.0667 174.277 34.358C173.354 33.6493 172.324 33.11 171.19 32.7402C170.053 32.3705 168.93 32.1856 167.827 32.1856C164.818 32.1856 162.635 32.7402 161.282 33.8496C159.929 34.9589 158.96 36.3455 158.38 38.0056C157.795 39.6696 157.334 41.4837 156.996 43.4558C156.658 45.4279 155.997 47.2768 155.013 48.9985C154.459 49.9846 153.514 50.9359 152.668 51.5522C151.957 52.0684 150.028 52.4843 148.775 52.4843H139.358C138.943 52.4843 138.608 52.1492 138.608 51.7333V45.4896C138.608 42.7201 138.793 40.8559 139.162 39.9007C139.531 38.9454 140.207 38.4678 141.191 38.4678C141.683 38.4678 142.36 38.5911 143.22 38.8376C144.081 39.0841 144.789 39.2073 145.342 39.2073C147.245 39.2073 148.198 38.1443 148.198 36.0181C148.198 33.9574 146.968 32.9251 144.512 32.9251C144.204 32.9251 143.174 33.0638 141.426 33.3411C139.673 33.6185 137.601 33.7571 135.203 33.7571C134.588 33.7571 133.773 33.7109 132.762 33.6184C131.747 33.526 130.733 33.4336 129.722 33.3411C128.707 33.2487 127.785 33.1562 126.954 33.0638C126.124 32.9714 125.617 32.9251 125.432 32.9251C122.853 32.9251 121.562 33.9844 121.562 36.1067C121.562 38.1134 122.546 39.1149 124.51 39.1149C124.817 39.1149 125.386 39.0225 126.216 38.8376C127.047 38.6527 127.861 38.5602 128.661 38.5602C129.583 38.5602 130.321 39.0379 130.871 39.9931C131.424 40.9483 131.701 42.7818 131.701 45.4896V67.1056C131.701 69.8173 131.424 71.6468 130.871 72.6021C130.317 73.5573 129.58 74.0349 128.661 74.0349C127.861 74.0349 127.047 73.9425 126.216 73.7576C125.386 73.5727 124.817 73.4803 124.51 73.4803C122.542 73.4803 121.562 74.4663 121.562 76.4346C121.562 78.5299 122.853 79.5737 125.432 79.5737C125.617 79.5737 126.124 79.5275 126.954 79.4351C127.785 79.3426 128.707 79.2502 129.722 79.1578C130.736 79.0653 131.751 78.9729 132.762 78.8804C133.777 78.788 134.588 78.7418 135.203 78.7418C137.601 78.7418 139.673 78.8804 141.426 79.1578C143.178 79.4351 144.204 79.5737 144.512 79.5737C146.968 79.5737 148.198 78.5569 148.198 76.527C148.198 74.4355 147.245 73.3878 145.342 73.3878C144.789 73.3878 144.081 73.5111 143.22 73.7576C142.36 74.0041 141.683 74.1274 141.191 74.1274C140.207 74.1274 139.531 73.6497 139.162 72.6945C138.793 71.7393 138.608 69.8789 138.608 67.1056V59.2442C138.608 58.8282 138.943 58.4931 139.358 58.4931H149.985C151.154 58.4931 153.056 58.7666 153.794 59.0554C154.632 59.3828 155.362 59.8065 155.981 60.3188C157.423 61.5206 158.149 63.3848 158.149 65.9077C158.149 66.8938 158.134 67.8644 158.103 68.8158C158.072 69.771 158.057 70.6492 158.057 71.4465C158.057 74.5857 158.802 76.866 160.298 78.2834C161.793 79.7009 164.003 80.4096 166.932 80.4096C173.243 80.4096 176.398 77.4553 176.398 71.5428V64.5211C176.395 62.4219 175.38 61.3742 173.354 61.3742Z" fill="#FDC504"/>
<path d="M37.8096 0.890083L38.9165 3.13951C39.2163 3.74809 39.7967 4.17178 40.4693 4.26807L42.9446 4.63014C43.256 4.67636 43.3789 5.05768 43.156 5.28108L41.3649 7.02978C40.8806 7.50355 40.6577 8.18916 40.773 8.85551L41.1958 11.3245C41.2496 11.6365 40.9229 11.8714 40.6461 11.7251L38.4322 10.558C37.8326 10.2421 37.1139 10.2421 36.5143 10.558L34.3003 11.7251C34.0236 11.8714 33.6969 11.6365 33.7507 11.3245L34.1735 8.85551C34.2888 8.18531 34.0659 7.50355 33.5816 7.02978L31.7905 5.28108C31.5637 5.06153 31.6905 4.67636 32.0019 4.63014L34.4772 4.26807C35.1498 4.17178 35.7263 3.74809 36.03 3.13951L37.1369 0.890083C37.2676 0.608905 37.6712 0.608905 37.8096 0.890083Z" fill="#FDC504"/>
</svg>
