<svg width="692" height="326" viewBox="0 0 692 326" fill="none" xmlns="http://www.w3.org/2000/svg">
<path d="M96.903 282.256L94.2332 279.997C92.1628 290.971 90.1151 301.826 88.0527 312.753C98.4825 308.909 108.848 305.088 119.324 301.227L116.655 298.97C116.034 298.444 116.208 297.446 116.971 297.165C121.98 295.32 126.996 293.471 132.034 291.614L122.426 283.488L122.429 283.484L114.962 277.167C114.154 276.484 113.35 275.802 112.544 275.121L101.606 265.869C100.61 271.146 99.6192 276.4 98.6289 281.647C98.4784 282.444 97.5241 282.781 96.903 282.256Z" fill="#91C149"/>
<path d="M391.015 322C225.034 322 90 186.972 90 21.0037C90 -144.972 225.034 -280 391.015 -280C556.981 -280 692 -144.972 692 21.0037C692 186.972 556.981 322 391.015 322ZM391.015 -200.389C268.932 -200.389 169.603 -101.074 169.603 20.9963C169.603 143.066 268.932 242.381 391.015 242.381C513.091 242.381 612.397 143.066 612.397 20.9963C612.397 -101.074 513.083 -200.389 391.015 -200.389Z" fill="#FDC504"/>
<path d="M107.688 218.219C106.609 218.932 105.254 219.233 103.621 219.112C101.988 218.991 100.271 218.748 98.4808 218.393C96.6908 218.038 94.9737 217.796 93.3404 217.675C91.7072 217.554 90.3521 217.855 89.274 218.568C88.1959 219.28 87.3684 220.439 86.7902 222.032C86.2121 223.625 85.7454 225.317 85.3803 227.108C85.0152 228.899 84.5872 230.576 84.0654 232.133C83.5424 233.68 82.7535 234.824 81.6755 235.537C80.5974 236.25 79.2699 236.528 77.7029 236.369C76.126 236.212 74.4465 235.945 72.6565 235.59C70.8665 235.235 69.1494 234.992 67.5162 234.871C65.8829 234.75 64.5278 235.051 63.4498 235.764C62.3717 236.477 61.5717 237.612 61.0598 239.168C60.538 240.725 60.099 242.393 59.7449 244.193C59.3898 245.983 58.9518 247.661 58.43 249.218C57.9071 250.765 57.1182 251.909 56.0401 252.622C54.962 253.335 53.6069 253.636 51.9736 253.515C50.3404 253.394 48.6233 253.151 46.8333 252.796C45.0434 252.441 43.3263 252.199 41.693 252.078C40.0598 251.957 38.7047 252.258 37.6266 252.971C36.5485 253.684 35.7872 254.804 35.3206 256.315C34.864 257.824 34.4536 259.479 34.0996 261.279C33.7455 263.079 33.3065 264.748 32.7847 266.305C32.2617 267.851 31.4728 268.995 30.3947 269.708C29.6734 270.191 28.9114 270.396 28.0898 270.336C27.2682 270.276 26.3494 270.247 25.3125 270.241C24.2755 270.235 23.1126 270.364 21.8139 270.628C20.5239 270.882 19.0969 271.533 17.5416 272.57C16.4636 273.283 15.2476 273.659 13.8948 273.708C12.542 273.758 11.5096 273.248 10.7867 272.171C9.98984 270.972 9.88869 269.786 10.4932 268.612C11.0977 267.438 11.9285 266.491 13.0066 265.778C14.3277 264.897 15.5956 264.354 16.8292 264.137C18.0628 263.92 19.2357 263.79 20.3278 263.75C21.42 263.71 22.4426 263.677 23.3769 263.664C24.31 263.641 25.1384 263.398 25.8597 262.916C26.9378 262.203 27.7267 261.059 28.2496 259.512C28.7714 257.956 29.2105 256.287 29.5645 254.487C29.9197 252.697 30.33 251.042 30.7966 249.531C31.2521 248.012 32.0245 246.9 33.1026 246.187C34.1806 245.474 35.5357 245.173 37.169 245.294C38.8022 245.415 40.5182 245.648 42.3093 246.013C44.0993 246.368 45.8164 246.611 47.4496 246.732C49.0829 246.853 50.438 246.552 51.516 245.839C52.5941 245.126 53.383 243.982 53.906 242.435C54.4278 240.878 54.8668 239.21 55.2209 237.41C55.576 235.62 56.014 233.941 56.5369 232.394C57.0587 230.838 57.8487 229.704 58.9268 228.991C60.0049 228.278 61.36 227.977 62.9932 228.098C64.6265 228.219 66.3425 228.451 68.1336 228.816C69.9235 229.172 71.613 229.437 73.18 229.596C74.7469 229.754 76.0744 229.476 77.1525 228.763C78.2306 228.051 79.0195 226.907 79.5424 225.36C80.0643 223.803 80.5033 222.134 80.8574 220.335C81.2125 218.545 81.6792 216.853 82.2673 215.259C82.8454 213.665 83.673 212.507 84.7511 211.794C85.8292 211.081 87.1843 210.78 88.8175 210.901C90.4507 211.022 92.1668 211.255 93.9578 211.62C95.7478 211.975 97.4649 212.217 99.0981 212.338C100.731 212.459 102.086 212.158 103.165 211.445C104.243 210.733 105.032 209.589 105.554 208.042C106.076 206.485 106.515 204.816 106.869 203.017C107.225 201.227 107.663 199.548 108.185 198.001C108.707 196.444 109.497 195.311 110.575 194.598C111.653 193.885 113.009 193.584 114.642 193.705C116.275 193.826 117.991 194.058 119.782 194.423C121.573 194.788 123.289 195.021 124.922 195.142C126.556 195.263 127.911 194.962 128.989 194.249C130.067 193.536 130.856 192.392 131.379 190.845C131.901 189.288 132.34 187.62 132.694 185.82C133.048 184.02 133.459 182.375 133.926 180.864C134.382 179.355 135.154 178.233 136.232 177.52C137.31 176.807 138.665 176.506 140.298 176.627C141.931 176.748 143.647 176.981 145.438 177.346C147.228 177.701 148.973 177.92 150.673 178.004C152.361 178.078 153.755 177.763 154.823 177.051C155.657 176.496 156.262 175.785 156.65 174.927C157.028 174.07 157.383 173.186 157.725 172.273C158.066 171.36 158.515 170.415 159.071 169.437C159.627 168.46 160.561 167.542 161.882 166.661C163.194 165.781 164.503 165.345 165.801 165.342C167.099 165.339 168.141 165.938 168.938 167.138C169.651 168.216 169.715 169.345 169.121 170.518C168.516 171.692 167.619 172.676 166.43 173.472C165.109 174.353 164.146 175.294 163.534 176.308C162.912 177.323 162.407 178.304 162.01 179.264C161.612 180.213 161.249 181.109 160.936 181.918C160.614 182.738 160.102 183.379 159.38 183.861C158.302 184.574 156.919 184.898 155.23 184.814C153.53 184.73 151.796 184.51 149.996 184.156C148.206 183.8 146.489 183.558 144.855 183.437C143.222 183.316 141.867 183.617 140.789 184.33C139.711 185.043 138.94 186.165 138.483 187.674C138.026 189.183 137.616 190.839 137.262 192.639C136.908 194.438 136.469 196.107 135.947 197.664C135.424 199.211 134.635 200.355 133.557 201.068C132.479 201.781 131.124 202.081 129.491 201.96C127.857 201.84 126.14 201.597 124.35 201.242C122.56 200.887 120.843 200.644 119.21 200.523C117.577 200.402 116.222 200.703 115.144 201.416C114.065 202.129 113.266 203.264 112.754 204.82C112.232 206.377 111.793 208.045 111.439 209.845C111.085 211.645 110.646 213.313 110.124 214.87C109.554 216.362 108.755 217.497 107.688 218.219Z" fill="#27316A"/>
<path d="M221.504 322C195.86 322 175 301.14 175 275.504C175 249.86 195.86 229 221.504 229C247.147 229 268 249.86 268 275.504C268 301.14 247.14 322 221.504 322ZM221.504 241.3C202.641 241.3 187.3 256.641 187.3 275.504C187.3 294.367 202.648 309.708 221.504 309.708C240.359 309.708 255.708 294.367 255.708 275.504C255.708 256.641 240.359 241.3 221.504 241.3Z" fill="#2780BF"/>
</svg>
