<svg width="535" height="617" viewBox="0 0 535 617" fill="none" xmlns="http://www.w3.org/2000/svg">
<path d="M133.505 211.958L123.513 225.628C101.267 176.343 79.2642 127.591 57.1087 78.5159C110.573 84.7229 163.707 90.8947 217.408 97.1297L207.42 110.795C205.096 113.976 207.055 118.474 210.965 118.927C236.639 121.905 262.351 124.894 288.178 127.892L252.219 177.082L252.239 177.097L224.292 215.334C221.269 219.467 218.259 223.593 215.243 227.715L174.307 283.72C163.607 260.02 152.96 236.425 142.322 212.859C140.705 209.278 135.829 208.777 133.505 211.958Z" fill="#91C149"/>
<path d="M493.756 415.899C497.331 418.444 501.895 419.623 507.452 419.404C513.009 419.185 518.864 418.563 524.98 417.568C531.097 416.573 536.952 415.952 542.509 415.733C548.066 415.513 552.63 416.693 556.205 419.238C559.781 421.782 562.454 425.807 564.231 431.279C566.007 436.751 567.393 442.544 568.424 448.662C569.454 454.78 570.711 460.519 572.3 465.861C573.894 471.169 576.438 475.141 580.014 477.686C583.589 480.23 588.062 481.328 593.398 480.974C598.768 480.624 604.499 479.916 610.616 478.921C616.732 477.926 622.587 477.305 628.144 477.085C633.701 476.866 638.265 478.046 641.84 480.59C645.416 483.135 647.998 487.078 649.554 492.415C651.143 497.757 652.439 503.468 653.431 509.614C654.427 515.727 655.718 521.472 657.307 526.813C658.901 532.122 661.445 536.094 665.021 538.638C668.596 541.183 673.16 542.362 678.717 542.143C684.274 541.924 690.13 541.303 696.246 540.308C702.362 539.313 708.217 538.691 713.774 538.472C719.331 538.253 723.895 539.432 727.47 541.977C731.046 544.521 733.499 548.412 734.906 553.59C736.28 558.763 737.479 564.425 738.471 570.572C739.463 576.719 740.758 582.429 742.348 587.771C743.942 593.079 746.486 597.051 750.061 599.596C752.453 601.316 755.015 602.101 757.811 601.994C760.606 601.887 763.727 601.896 767.247 601.997C770.767 602.099 774.698 602.672 779.075 603.721C783.423 604.732 788.19 607.107 793.348 610.808C796.923 613.353 801.006 614.771 805.591 615.096C810.177 615.422 813.74 613.814 816.318 610.246C819.163 606.27 819.644 602.259 817.73 598.207C815.815 594.156 813.106 590.846 809.53 588.301C805.15 585.159 800.91 583.169 796.749 582.288C792.587 581.408 788.622 580.83 784.921 580.565C781.219 580.3 777.752 580.069 774.583 579.916C771.419 579.729 768.636 578.809 766.244 577.089C762.669 574.544 760.125 570.572 758.53 565.264C756.941 559.922 755.646 554.211 754.654 548.065C753.657 541.952 752.458 536.289 751.051 531.111C749.682 525.904 747.19 522.043 743.615 519.498C740.039 516.954 735.475 515.774 729.919 515.993C724.362 516.212 718.511 516.8 712.39 517.829C706.274 518.824 700.418 519.446 694.861 519.665C689.304 519.884 684.741 518.704 681.165 516.16C677.59 513.615 675.046 509.643 673.451 504.335C671.862 498.993 670.567 493.282 669.575 487.136C668.578 481.023 667.288 475.279 665.694 469.97C664.104 464.628 661.555 460.69 657.98 458.145C654.404 455.601 649.84 454.421 644.284 454.64C638.727 454.86 632.876 455.447 626.755 456.476C620.639 457.471 614.874 458.175 609.538 458.529C604.202 458.883 599.729 457.785 596.153 455.241C592.578 452.696 590.034 448.724 588.439 443.416C586.85 438.074 585.555 432.363 584.563 426.217C583.566 420.104 582.18 414.311 580.37 408.834C578.594 403.362 575.92 399.337 572.345 396.793C568.769 394.248 564.205 393.068 558.649 393.288C553.092 393.507 547.241 394.095 541.12 395.123C535.004 396.118 529.148 396.74 523.591 396.959C518.034 397.178 513.471 395.999 509.895 393.454C506.32 390.909 503.776 386.937 502.181 381.629C500.592 376.287 499.297 370.577 498.305 364.43C497.308 358.317 496.018 352.573 494.423 347.264C492.834 341.923 490.285 337.984 486.71 335.44C483.134 332.895 478.57 331.715 473.014 331.935C467.457 332.154 461.606 332.742 455.485 333.77C449.364 334.799 443.513 335.387 437.956 335.606C432.399 335.825 427.836 334.646 424.26 332.101C420.685 329.556 418.141 325.584 416.546 320.276C414.957 314.934 413.662 309.224 412.67 303.077C411.678 296.931 410.474 291.302 409.066 286.124C407.693 280.95 405.206 277.055 401.631 274.511C398.055 271.966 393.491 270.787 387.934 271.006C382.378 271.225 376.527 271.813 370.406 272.841C364.29 273.836 358.343 274.376 352.566 274.46C346.827 274.516 342.133 273.283 338.591 270.743C335.826 268.763 333.854 266.28 332.638 263.325C331.455 260.374 330.354 257.333 329.301 254.196C328.248 251.058 326.836 247.8 325.063 244.421C323.291 241.041 320.226 237.817 315.846 234.675C311.498 231.537 307.104 229.902 302.701 229.741C298.297 229.579 294.69 231.489 291.846 235.464C289.301 239.038 288.949 242.862 290.831 246.909C292.745 250.961 295.675 254.406 299.619 257.244C304 260.386 307.156 263.693 309.115 267.202C311.108 270.717 312.707 274.105 313.942 277.406C315.182 280.673 316.312 283.753 317.279 286.535C318.275 289.356 319.94 291.587 322.332 293.308C325.907 295.852 330.562 297.114 336.306 297.025C342.083 296.941 347.996 296.396 354.146 295.406C360.262 294.411 366.118 293.79 371.675 293.57C377.231 293.351 381.795 294.531 385.371 297.075C388.946 299.62 391.433 303.515 392.807 308.688C394.18 313.861 395.38 319.524 396.372 325.67C397.363 331.817 398.659 337.528 400.248 342.87C401.842 348.178 404.386 352.15 407.962 354.694C411.537 357.239 416.101 358.418 421.658 358.199C427.215 357.98 433.071 357.359 439.187 356.364C445.303 355.369 451.158 354.747 456.715 354.528C462.272 354.309 466.836 355.488 470.411 358.033C473.987 360.578 476.569 364.521 478.125 369.858C479.715 375.2 481.01 380.91 482.002 387.057C482.993 393.203 484.289 398.914 485.878 404.256C487.636 409.382 490.219 413.326 493.756 415.899Z" fill="#2780BF" fill-opacity="0.32"/>
<path d="M109.503 55C94.3389 55 82 42.6611 82 27.4965C82 12.3389 94.3389 0 109.503 0C124.668 0 137 12.3389 137 27.4965C137 42.6611 124.661 55 109.503 55ZM109.503 7.27484C98.3528 7.27484 89.2748 16.3459 89.2748 27.5035C89.2748 38.661 98.3459 47.7321 109.503 47.7321C120.654 47.7321 129.732 38.661 129.732 27.5035C129.732 16.3459 120.654 7.27484 109.503 7.27484Z" fill="#2780BF"/>
</svg>
