<svg width="692" height="326" viewBox="0 0 692 326" fill="none" xmlns="http://www.w3.org/2000/svg">
<path d="M96.9013 282.256L94.2315 279.997C92.1611 290.971 90.1134 301.826 88.051 312.753C98.4808 308.909 108.846 305.088 119.322 301.227L116.653 298.97C116.032 298.444 116.207 297.446 116.969 297.165C121.978 295.32 126.994 293.471 132.032 291.614L122.424 283.488L122.428 283.484L114.96 277.167C114.153 276.484 113.348 275.802 112.542 275.121L101.604 265.869C100.608 271.146 99.6175 276.399 98.6272 281.646C98.4767 282.444 97.5224 282.781 96.9013 282.256Z" fill="#91C149"/>
<path d="M391.013 322C225.032 322 89.9983 186.972 89.9983 21.0037C89.9983 -144.972 225.032 -280 391.013 -280C556.979 -280 691.998 -144.972 691.998 21.0037C691.998 186.972 556.979 322 391.013 322ZM391.013 -200.389C268.93 -200.389 169.601 -101.074 169.601 20.9963C169.601 143.066 268.93 242.381 391.013 242.381C513.089 242.381 612.396 143.066 612.396 20.9963C612.396 -101.074 513.081 -200.389 391.013 -200.389Z" fill="#2780BF"/>
<path d="M107.686 218.219C106.608 218.932 105.253 219.233 103.619 219.112C101.986 218.991 100.269 218.748 98.4791 218.393C96.6891 218.038 94.972 217.795 93.3387 217.674C91.7055 217.553 90.3504 217.854 89.2723 218.567C88.1942 219.28 87.3667 220.439 86.7885 222.032C86.2103 223.625 85.7437 225.317 85.3786 227.108C85.0135 228.899 84.5855 230.576 84.0637 232.133C83.5407 233.68 82.7518 234.824 81.6737 235.537C80.5957 236.25 79.2682 236.528 77.7012 236.369C76.1243 236.212 74.4447 235.945 72.6548 235.59C70.8648 235.235 69.1477 234.992 67.5145 234.871C65.8812 234.75 64.5261 235.051 63.448 235.764C62.37 236.477 61.57 237.612 61.0581 239.168C60.5363 240.725 60.0973 242.393 59.7432 244.193C59.388 245.983 58.9501 247.661 58.4283 249.218C57.9054 250.765 57.1164 251.909 56.0384 252.622C54.9603 253.335 53.6052 253.636 51.9719 253.515C50.3387 253.394 48.6216 253.151 46.8316 252.796C45.0417 252.441 43.3245 252.199 41.6913 252.078C40.0581 251.957 38.703 252.258 37.6249 252.971C36.5468 253.684 35.7855 254.804 35.3189 256.315C34.8623 257.824 34.4519 259.479 34.0979 261.279C33.7438 263.079 33.3048 264.748 32.783 266.304C32.26 267.851 31.4711 268.995 30.393 269.708C29.6717 270.191 28.9097 270.396 28.0881 270.336C27.2665 270.276 26.3477 270.247 25.3108 270.241C24.2738 270.235 23.1109 270.364 21.8122 270.628C20.5222 270.882 19.0952 271.533 17.5399 272.57C16.4619 273.283 15.2459 273.659 13.8931 273.708C12.5403 273.758 11.5079 273.248 10.785 272.171C9.98813 270.972 9.88698 269.786 10.4915 268.612C11.096 267.438 11.9268 266.491 13.0049 265.778C14.326 264.897 15.5939 264.354 16.8275 264.137C18.0611 263.92 19.234 263.79 20.3261 263.75C21.4183 263.709 22.4409 263.677 23.3752 263.664C24.3083 263.641 25.1367 263.398 25.858 262.916C26.936 262.203 27.725 261.059 28.2479 259.512C28.7697 257.955 29.2087 256.287 29.5628 254.487C29.918 252.697 30.3283 251.042 30.7949 249.531C31.2504 248.012 32.0228 246.9 33.1008 246.187C34.1789 245.474 35.534 245.173 37.1673 245.294C38.8005 245.415 40.5165 245.648 42.3076 246.013C44.0976 246.368 45.8147 246.611 47.4479 246.732C49.0811 246.853 50.4362 246.552 51.5143 245.839C52.5924 245.126 53.3813 243.982 53.9042 242.435C54.4261 240.878 54.8651 239.21 55.2192 237.41C55.5743 235.62 56.0123 233.941 56.5352 232.394C57.057 230.838 57.847 229.704 58.9251 228.991C60.0032 228.278 61.3583 227.977 62.9915 228.098C64.6248 228.219 66.3408 228.451 68.1319 228.816C69.9218 229.172 71.6113 229.437 73.1783 229.596C74.7452 229.754 76.0727 229.476 77.1508 228.763C78.2289 228.05 79.0178 226.907 79.5407 225.36C80.0626 223.803 80.5016 222.134 80.8557 220.334C81.2108 218.545 81.6775 216.853 82.2656 215.258C82.8437 213.665 83.6713 212.507 84.7494 211.794C85.8275 211.081 87.1826 210.78 88.8158 210.901C90.449 211.022 92.1651 211.255 93.9561 211.62C95.7461 211.975 97.4632 212.217 99.0964 212.338C100.73 212.459 102.085 212.158 103.163 211.445C104.241 210.732 105.03 209.589 105.553 208.042C106.075 206.485 106.514 204.816 106.868 203.016C107.223 201.227 107.661 199.548 108.184 198.001C108.706 196.444 109.496 195.31 110.574 194.597C111.652 193.884 113.007 193.584 114.64 193.704C116.273 193.825 117.989 194.058 119.78 194.423C121.571 194.788 123.287 195.021 124.921 195.142C126.554 195.263 127.909 194.962 128.987 194.249C130.065 193.536 130.854 192.392 131.377 190.845C131.899 189.288 132.338 187.62 132.692 185.82C133.046 184.02 133.457 182.375 133.924 180.864C134.381 179.355 135.152 178.233 136.23 177.52C137.308 176.807 138.663 176.506 140.296 176.627C141.93 176.748 143.646 176.981 145.437 177.346C147.227 177.701 148.971 177.92 150.671 178.004C152.359 178.078 153.753 177.763 154.821 177.051C155.655 176.496 156.261 175.785 156.649 174.927C157.027 174.07 157.381 173.186 157.723 172.273C158.065 171.36 158.513 170.414 159.069 169.437C159.625 168.46 160.56 167.542 161.881 166.661C163.192 165.781 164.502 165.345 165.799 165.342C167.097 165.339 168.139 165.938 168.936 167.137C169.649 168.216 169.714 169.345 169.119 170.518C168.515 171.691 167.618 172.676 166.428 173.472C165.107 174.353 164.145 175.294 163.532 176.308C162.91 177.322 162.405 178.304 162.008 179.264C161.611 180.213 161.247 181.109 160.934 181.918C160.612 182.738 160.1 183.379 159.378 183.861C158.3 184.574 156.918 184.898 155.228 184.813C153.529 184.73 151.794 184.51 149.994 184.156C148.204 183.8 146.487 183.558 144.854 183.437C143.22 183.316 141.865 183.617 140.787 184.33C139.709 185.043 138.938 186.165 138.481 187.674C138.025 189.183 137.614 190.839 137.26 192.639C136.906 194.438 136.467 196.107 135.945 197.664C135.422 199.211 134.633 200.354 133.555 201.067C132.477 201.78 131.122 202.081 129.489 201.96C127.856 201.839 126.139 201.597 124.349 201.242C122.559 200.887 120.841 200.644 119.208 200.523C117.575 200.402 116.22 200.703 115.142 201.416C114.064 202.129 113.264 203.264 112.752 204.82C112.23 206.377 111.791 208.045 111.437 209.845C111.083 211.645 110.644 213.313 110.122 214.87C109.553 216.362 108.753 217.497 107.686 218.219Z" fill="#27316A"/>
<path d="M221.502 322C195.859 322 174.998 301.14 174.998 275.504C174.998 249.86 195.859 229 221.502 229C247.146 229 267.998 249.86 267.998 275.504C267.998 301.14 247.138 322 221.502 322ZM221.502 241.3C202.639 241.3 187.298 256.641 187.298 275.504C187.298 294.367 202.647 309.708 221.502 309.708C240.357 309.708 255.706 294.367 255.706 275.504C255.706 256.641 240.357 241.3 221.502 241.3Z" fill="#FDC504"/>
</svg>
