<svg width="508" height="617" viewBox="0 0 508 617" fill="none" xmlns="http://www.w3.org/2000/svg">
<path d="M373.673 211.958L383.665 225.628C405.911 176.343 427.914 127.591 450.07 78.5159C396.605 84.7229 343.472 90.8947 289.77 97.1297L299.758 110.795C302.083 113.976 300.123 118.474 296.214 118.927C270.539 121.905 244.827 124.894 219 127.892L254.959 177.082L254.939 177.097L282.887 215.334C285.909 219.467 288.92 223.593 291.935 227.715L332.872 283.72C343.571 260.02 354.218 236.425 364.857 212.859C366.473 209.278 371.349 208.777 373.673 211.958Z" fill="#91C149"/>
<path d="M36.7829 415.899C33.2073 418.443 28.6435 419.623 23.0867 419.404C17.5298 419.185 11.6741 418.563 5.5581 417.568C-0.557949 416.573 -6.41366 415.952 -11.9705 415.732C-17.5274 415.513 -22.0911 416.693 -25.6667 419.237C-29.2423 421.782 -31.9157 425.807 -33.6921 431.279C-35.4684 436.751 -36.8548 442.544 -37.885 448.662C-38.9152 454.779 -40.1721 460.519 -41.7615 465.861C-43.3557 471.169 -45.8997 475.141 -49.4753 477.685C-53.0508 480.23 -57.5236 481.328 -62.8599 480.974C-68.2298 480.624 -73.9609 479.916 -80.0769 478.921C-86.193 477.926 -92.0487 477.304 -97.6055 477.085C-103.162 476.866 -107.726 478.046 -111.302 480.59C-114.877 483.135 -117.46 487.078 -119.016 492.415C-120.605 497.757 -121.9 503.468 -122.892 509.614C-123.889 515.727 -125.179 521.471 -126.768 526.813C-128.363 532.122 -130.907 536.094 -134.482 538.638C-138.058 541.183 -142.622 542.362 -148.178 542.143C-153.735 541.924 -159.591 541.303 -165.707 540.307C-171.823 539.312 -177.679 538.691 -183.236 538.472C-188.793 538.253 -193.356 539.432 -196.932 541.977C-200.507 544.521 -202.96 548.411 -204.368 553.59C-205.741 558.763 -206.941 564.425 -207.933 570.572C-208.924 576.718 -210.22 582.429 -211.809 587.771C-213.403 593.079 -215.947 597.051 -219.523 599.596C-221.915 601.316 -224.477 602.101 -227.272 601.994C-230.067 601.887 -233.189 601.896 -236.709 601.997C-240.228 602.099 -244.16 602.672 -248.537 603.721C-252.885 604.732 -257.652 607.107 -262.809 610.808C-266.385 613.353 -270.467 614.771 -275.053 615.096C-279.638 615.421 -283.201 613.814 -285.78 610.246C-288.624 606.27 -289.106 602.259 -287.191 598.207C-285.276 594.156 -282.567 590.846 -278.992 588.301C-274.611 585.159 -270.371 583.169 -266.21 582.288C-262.049 581.408 -258.084 580.83 -254.382 580.565C-250.68 580.3 -247.213 580.069 -244.044 579.916C-240.88 579.729 -238.097 578.809 -235.706 577.089C-232.13 574.544 -229.586 570.572 -227.992 565.264C-226.403 559.922 -225.107 554.211 -224.115 548.065C-223.119 541.952 -221.919 536.289 -220.512 531.111C-219.143 525.904 -216.652 522.043 -213.076 519.498C-209.501 516.954 -204.937 515.774 -199.38 515.993C-193.823 516.212 -187.972 516.8 -181.851 517.829C-175.735 518.824 -169.88 519.445 -164.323 519.665C-158.766 519.884 -154.202 518.704 -150.627 516.16C-147.051 513.615 -144.507 509.643 -142.913 504.335C-141.323 498.993 -140.028 493.282 -139.036 487.136C-138.04 481.023 -136.749 475.278 -135.155 469.97C-133.566 464.628 -131.017 460.69 -127.441 458.145C-123.866 455.601 -119.302 454.421 -113.745 454.64C-108.188 454.859 -102.337 455.447 -96.2164 456.476C-90.1003 457.471 -84.3357 458.174 -78.9993 458.529C-73.663 458.883 -69.1903 457.785 -65.6147 455.24C-62.0391 452.696 -59.4952 448.724 -57.9009 443.416C-56.3115 438.074 -55.0161 432.363 -54.0244 426.217C-53.0278 420.104 -51.6414 414.311 -49.8315 408.834C-48.0552 403.362 -45.3817 399.337 -41.8062 396.792C-38.2306 394.248 -33.6668 393.068 -28.11 393.287C-22.5531 393.507 -16.7023 394.094 -10.5814 395.123C-4.46531 396.118 1.39041 396.74 6.94725 396.959C12.5041 397.178 17.0679 395.998 20.6434 393.454C24.219 390.909 26.763 386.937 28.3572 381.629C29.9466 376.287 31.242 370.576 32.2337 364.43C33.2303 358.317 34.5208 352.573 36.1151 347.264C37.7045 341.922 40.2533 337.984 43.8289 335.439C47.4044 332.895 51.9682 331.715 57.5251 331.935C63.0819 332.154 68.9327 332.742 75.0537 333.77C81.1746 334.799 87.0254 335.387 92.5823 335.606C98.1391 335.825 102.703 334.645 106.278 332.101C109.854 329.556 112.398 325.584 113.992 320.276C115.582 314.934 116.877 309.223 117.869 303.077C118.86 296.93 120.065 291.302 121.472 286.123C122.846 280.95 125.332 277.055 128.908 274.511C132.484 271.966 137.047 270.786 142.604 271.006C148.161 271.225 154.012 271.813 160.133 272.841C166.249 273.836 172.196 274.376 177.973 274.46C183.712 274.515 188.405 273.283 191.947 270.743C194.713 268.762 196.684 266.28 197.901 263.325C199.084 260.374 200.185 257.333 201.238 254.196C202.29 251.058 203.703 247.8 205.475 244.421C207.248 241.041 210.312 237.817 214.693 234.675C219.04 231.537 223.435 229.902 227.838 229.741C232.241 229.579 235.848 231.489 238.692 235.464C241.238 239.038 241.589 242.862 239.708 246.909C237.793 250.961 234.864 254.406 230.919 257.244C226.539 260.386 223.383 263.693 221.424 267.202C219.431 270.717 217.831 274.105 216.596 277.406C215.357 280.673 214.227 283.753 213.26 286.535C212.264 289.355 210.599 291.587 208.207 293.308C204.631 295.852 199.977 297.114 194.233 297.025C188.455 296.941 182.542 296.396 176.393 295.406C170.277 294.411 164.421 293.789 158.864 293.57C153.307 293.351 148.743 294.531 145.168 297.075C141.592 299.62 139.106 303.515 137.732 308.688C136.358 313.861 135.159 319.524 134.167 325.67C133.175 331.817 131.88 337.527 130.291 342.869C128.696 348.178 126.152 352.15 122.577 354.694C119.001 357.239 114.437 358.418 108.881 358.199C103.324 357.98 97.468 357.359 91.352 356.364C85.2359 355.368 79.3803 354.747 73.8234 354.528C68.2665 354.309 63.7028 355.488 60.1272 358.033C56.5516 360.577 53.9692 364.521 52.4134 369.858C50.824 375.2 49.5286 380.91 48.5369 387.057C47.5452 393.203 46.2498 398.914 44.6604 404.256C42.9024 409.382 40.3199 413.326 36.7829 415.899Z" fill="#FDC504"/>
<path d="M404.503 55C389.339 55 377 42.6611 377 27.4965C377 12.3389 389.339 0 404.503 0C419.668 0 432 12.3389 432 27.4965C432 42.6611 419.661 55 404.503 55ZM404.503 7.27484C393.353 7.27484 384.275 16.3459 384.275 27.5035C384.275 38.661 393.346 47.7321 404.503 47.7321C415.654 47.7321 424.732 38.661 424.732 27.5035C424.732 16.3459 415.654 7.27484 404.503 7.27484Z" fill="#2780BF"/>
</svg>
