<svg width="38" height="38" viewBox="0 0 38 38" fill="none" xmlns="http://www.w3.org/2000/svg">
<path d="M19 0C13.9609 0 9.12795 2.00176 5.56499 5.56499C2.00204 9.12823 0 13.9608 0 19C0 24.0392 2.00176 28.8721 5.56499 32.435C9.12823 35.998 13.9608 38 19 38C24.0392 38 28.872 35.9982 32.435 32.435C35.998 28.8718 38 24.0392 38 19C37.9957 13.9623 35.9924 9.13165 32.4304 5.56961C28.8683 2.00749 24.0378 0.00434281 19 0ZM19 26.8183C16.9264 26.8183 14.938 25.9946 13.4719 24.5281C12.0054 23.062 11.1817 21.0736 11.1817 19C11.1817 16.9264 12.0054 14.938 13.4719 13.4719C14.938 12.0054 16.9264 11.1817 19 11.1817C21.0736 11.1817 23.062 12.0054 24.5281 13.4719C25.9946 14.938 26.8183 16.9264 26.8183 19C26.8161 21.0729 25.9917 23.0602 24.5259 24.526C23.0602 25.9917 21.0729 26.816 19 26.8183ZM29.5992 11.2627C29.2192 11.6409 28.7045 11.8532 28.1685 11.8532C27.6322 11.8532 27.1175 11.6409 26.7374 11.2627C26.6472 11.1659 26.5634 11.0634 26.4866 10.9555C26.4122 10.844 26.3498 10.7249 26.3007 10.5996C26.2509 10.4798 26.213 10.3553 26.1877 10.2279C26.1758 10.0961 26.1758 9.96366 26.1877 9.83155C26.191 9.29628 26.4025 8.78299 26.7778 8.40082C26.8728 8.30842 26.9756 8.22469 27.085 8.14998C27.3048 8.00235 27.5524 7.90057 27.8127 7.85076C28.4753 7.71865 29.1604 7.92475 29.6397 8.40082C30.018 8.78089 30.2302 9.29559 30.2302 9.83155C30.2302 10.3679 30.0179 10.8826 29.6397 11.2626L29.5992 11.2627ZM24.3927 19.0001C24.3927 20.4304 23.8246 21.802 22.8132 22.8135C21.8019 23.8248 20.4303 24.3929 18.9998 24.3929C17.5694 24.3929 16.1979 23.8248 15.1865 22.8135C14.1751 21.8021 13.607 20.4305 13.607 19.0001C13.607 17.5696 14.1751 16.1981 15.1865 15.1867C16.1978 14.1754 17.5694 13.6072 18.9998 13.6072C20.4303 13.6072 21.8018 14.1754 22.8132 15.1867C23.8245 16.1981 24.3927 17.5696 24.3927 19.0001Z" fill="#2780BF"/>
</svg>
