<svg width="207" height="33" viewBox="0 0 207 33" fill="none" xmlns="http://www.w3.org/2000/svg">
<path d="M37.9152 11.7775C37.9152 5.19081 33.5144 0.537814 27.3257 0.537814L22.1536 0.525728V32.5891H27.3257V23.0172C27.9954 23.0172 28.6472 22.9568 29.275 22.8541L33.6459 32.4743H39.4101L33.7356 20.9566C36.3307 18.9806 37.9152 15.7235 37.9152 11.7775ZM27.3198 17.3611V6.58066C30.2377 6.58066 32.4919 8.58085 32.4919 11.9709C32.4919 15.3609 30.2377 17.3611 27.3198 17.3611Z" fill="black"/>
<path d="M175.889 0C168.696 0 164.528 6.97949 164.528 16.5514C164.528 26.1232 168.702 32.9758 175.889 32.9758C183.082 32.9758 187.25 26.1232 187.25 16.5514C187.25 6.97949 183.077 0 175.889 0ZM175.889 26.9088C171.692 26.9088 169.952 22.0685 169.952 16.5514C169.952 11.0282 171.692 6.06098 175.889 6.06098C180.087 6.06098 181.827 11.0282 181.827 16.5514C181.827 22.0745 180.081 26.9088 175.889 26.9088Z" fill="black"/>
<path d="M94.6176 20.7632L88.4888 0.525728H83.3345L82.2343 32.577H87.2929L87.7234 14.8352L91.7356 27.1807H96.9376L103.288 13.1069V32.577H108.394V0.513642L103.246 0.525728L94.6176 20.7632Z" fill="black"/>
<path d="M153.73 0C148.384 0 144.45 6.72569 143.941 16.5514C143.433 26.371 146.686 32.9758 152.026 32.9758C157.371 32.9758 161.306 26.377 161.814 16.5514C162.322 6.72569 159.069 0 153.73 0ZM156.391 16.5514C156.104 22.0745 154.932 26.7819 152.354 26.7819C149.777 26.7819 149.078 22.0745 149.365 16.5514C149.652 11.0282 150.824 6.18788 153.401 6.18788C155.978 6.19392 156.678 11.0282 156.391 16.5514Z" fill="black"/>
<path d="M195.89 0.537814L190.975 0.525728V32.5891H195.89C201.23 32.5891 207 27.495 207 16.5514C207 5.61381 201.23 0.537814 195.89 0.537814ZM196.147 26.2683V6.85863C198.725 6.85863 201.577 9.65043 201.577 16.5634C201.571 23.4765 198.719 26.2683 196.147 26.2683Z" fill="black"/>
<path d="M65.7612 0.513642L58.3348 32.5891H63.6086L64.7865 27.0841L72.6434 26.6671L73.9111 32.5891H79.1849L71.7585 0.513642H65.7612ZM65.9465 21.6576L68.7628 8.4902L71.5133 21.3675L65.9465 21.6576Z" fill="black"/>
<path d="M42.7765 32.5891H55.955V26.9753H47.9426V21.5488L55.955 21.1258V15.7658L47.9426 16.1888V6.12745H55.955V0.513642H42.7765V32.5891Z" fill="black"/>
<path d="M4.65195 0.688885V0.700971L0 0.91247L0.131546 33L6.06309 32.7341C13.2503 32.4078 18.835 26.7336 18.3627 16.1284C17.8903 5.52317 11.8392 0.368614 4.65195 0.688885ZM5.78804 26.4193L5.35752 26.4375L5.12432 7.00366C9.23215 6.91906 12.6763 10.1278 12.9513 16.3701C13.2264 22.709 9.97958 26.226 5.78804 26.4193Z" fill="black"/>
<path d="M132.503 22.0685L129.37 6.03681L123.851 6.32686L120.179 21.6817L117.656 0.513642H112.442L116.49 32.5891H122.111L126.553 15.1917L129.519 32.5891H135.325L142.447 0.513642H137.149L132.503 22.0685Z" fill="black"/>
</svg>
