<svg width="150" height="24" viewBox="0 0 150 24" fill="none" xmlns="http://www.w3.org/2000/svg">
<path d="M27.4748 8.56546C27.4748 3.77513 24.2858 0.391137 19.8013 0.391137L16.0533 0.382348V23.7012H19.8013V16.7398C20.2865 16.7398 20.7588 16.6958 21.2138 16.6211L24.3811 23.6177H28.558L24.4461 15.2412C26.3266 13.8041 27.4748 11.4353 27.4748 8.56546ZM19.7969 12.6263V4.78594C21.9114 4.78594 23.5449 6.24061 23.5449 8.7061C23.5449 11.1716 21.9114 12.6263 19.7969 12.6263Z" fill="#2780BF"/>
<path d="M127.456 0C122.244 0 119.224 5.07599 119.224 12.0374C119.224 18.9987 122.248 23.9824 127.456 23.9824C132.668 23.9824 135.688 18.9987 135.688 12.0374C135.688 5.07599 132.664 0 127.456 0ZM127.456 19.57C124.414 19.57 123.153 16.0498 123.153 12.0374C123.153 8.02051 124.414 4.40798 127.456 4.40798C130.498 4.40798 131.759 8.02051 131.759 12.0374C131.759 16.0542 130.493 19.57 127.456 19.57Z" fill="#2780BF"/>
<path d="M68.5635 15.1005L64.1223 0.382348H60.3874L59.5901 23.6924H63.2557L63.5677 10.7892L66.4751 19.7678H70.2447L74.8462 9.53232V23.6924H78.5465V0.373558L74.8158 0.382348L68.5635 15.1005Z" fill="#2780BF"/>
<path d="M111.398 0C107.525 0 104.674 4.89141 104.305 12.0374C103.937 19.1789 106.294 23.9824 110.163 23.9824C114.037 23.9824 116.888 19.1833 117.256 12.0374C117.625 4.89141 115.268 0 111.398 0ZM113.326 12.0374C113.119 16.0542 112.269 19.4778 110.402 19.4778C108.534 19.4778 108.027 16.0542 108.235 12.0374C108.443 8.02051 109.293 4.50027 111.16 4.50027C113.028 4.50467 113.534 8.02051 113.326 12.0374Z" fill="#2780BF"/>
<path d="M141.949 0.391137L138.388 0.382348V23.7012H141.949C145.819 23.7012 150 19.9963 150 12.0374C150 4.08277 145.819 0.391137 141.949 0.391137ZM142.136 19.1042V4.9881C144.003 4.9881 146.07 7.0185 146.07 12.0461C146.066 17.0738 143.999 19.1042 142.136 19.1042Z" fill="#2780BF"/>
<path d="M47.653 0.373558L42.2716 23.7012H46.0932L46.9468 19.6975L52.6402 19.3943L53.5587 23.7012H57.3803L51.9989 0.373558H47.653ZM47.7873 15.751L49.8281 6.17469L51.8213 15.54L47.7873 15.751Z" fill="#2780BF"/>
<path d="M30.9974 23.7012H40.5471V19.6184H34.741V15.6719L40.5471 15.3642V11.466L34.741 11.7737V4.45633H40.5471V0.373558H30.9974V23.7012Z" fill="#2780BF"/>
<path d="M3.37098 0.501007V0.509797L0 0.663615L0.0953234 24L4.39354 23.8066C9.60166 23.5693 13.6486 19.4426 13.3063 11.7297C12.964 4.01685 8.5791 0.268083 3.37098 0.501007ZM4.19423 19.2141L3.88226 19.2272L3.71328 5.09357C6.68997 5.03205 9.18571 7.36568 9.38502 11.9055C9.58433 16.5157 7.23158 19.0734 4.19423 19.2141Z" fill="#2780BF"/>
<path d="M96.0166 16.0498L93.7462 4.3904L89.747 4.60136L87.0866 15.7685L85.2581 0.373558H81.4798L84.4132 23.7012H88.4861L91.7054 11.0485L93.8545 23.7012H98.0618L103.222 0.373558H99.3833L96.0166 16.0498Z" fill="#2780BF"/>
</svg>
