<svg width="76" height="76" viewBox="0 0 76 76" fill="none" xmlns="http://www.w3.org/2000/svg">
<circle cx="37.592" cy="37.9958" r="37.592" fill="#91C149"/>
<path d="M49.7985 27.6493L50.0918 26.8214C50.3014 26.2334 50.4061 25.619 50.4031 24.9958C50.4151 23.6238 49.8853 22.3336 48.9095 21.3565C47.9367 20.3793 46.6316 19.8293 45.2338 19.8059C41.6628 19.8059 39.4179 22.2722 38.1637 24.3434L37.6249 25.2328L37.0742 24.3522C35.1854 21.336 32.7998 19.8059 29.9891 19.8059C28.6032 19.8293 27.2982 20.3793 26.3224 21.3565C25.3466 22.3336 24.8168 23.6238 24.8287 24.99C24.8258 25.6219 24.9305 26.2363 25.14 26.8243L25.4334 27.6523H18.1897V38.0292H20.716V56.1852H54.468V38.0263H56.9943V27.6493H49.7985ZM27.5197 24.9549C27.5047 24.2996 27.7472 23.6735 28.2021 23.1908C28.6601 22.7081 29.2827 22.4214 29.9562 22.3892H29.9891C32.9285 22.3892 34.6257 25.1363 35.374 26.7746L35.7751 27.6493L29.9412 27.6464C29.2528 27.5967 28.6242 27.2895 28.1692 26.7863C27.7172 26.286 27.4868 25.6453 27.5197 24.9783V24.9549ZM36.272 53.5551H23.4578L23.404 38.0263H36.272V53.5551ZM36.272 35.3962H20.8806V30.2794H36.272V35.3962ZM39.8729 26.7014C41.3366 23.8403 43.1445 22.3863 45.2458 22.3863H45.3266C46.0001 22.4184 46.6227 22.7051 47.0806 23.1879C47.5326 23.6647 47.7751 24.2849 47.7631 24.9344C47.793 25.5985 47.5625 26.2363 47.1136 26.7366C46.6586 27.2427 46.03 27.5469 45.3415 27.5967L45.3176 27.5996H39.4119L39.8729 26.7014ZM51.777 53.5551H38.9629V38.0263H51.777V53.5551ZM54.3542 35.3962H38.9629V30.2794H54.3542V35.3962Z" fill="white"/>
</svg>
