<svg width="76" height="76" viewBox="0 0 76 76" fill="none" xmlns="http://www.w3.org/2000/svg">
<circle cx="37.592" cy="37.9958" r="37.592" fill="#91C149"/>
<path d="M38.4671 34.0648L39.3369 35.7991C39.5725 36.2684 40.0285 36.595 40.5571 36.6693L42.5021 36.9484C42.7467 36.9841 42.8433 37.2781 42.6682 37.4503L41.2608 38.7986C40.8802 39.1639 40.7051 39.6925 40.7957 40.2062L41.1279 42.1098C41.1702 42.3504 40.9134 42.5315 40.696 42.4187L38.9564 41.5189C38.4852 41.2753 37.9205 41.2753 37.4493 41.5189L35.7067 42.4187C35.4892 42.5315 35.2325 42.3504 35.2748 42.1098L35.607 40.2062C35.6976 39.6895 35.5224 39.1639 35.1419 38.7986L33.7345 37.4503C33.5563 37.281 33.656 36.9841 33.9006 36.9484L35.8456 36.6693C36.3741 36.595 36.8272 36.2684 37.0658 35.7991L37.9356 34.0648C38.0413 33.848 38.3554 33.848 38.4671 34.0648Z" fill="white"/>
<path d="M18.1897 53.7602H58.2069V26.3168H48.6541L45.8786 21.0188H29.4006L27.6247 26.3168H18.1897V53.7602ZM55.7304 51.325H20.6662V28.749H29.3915L31.1704 23.454H44.3444L47.1199 28.752H55.7274L55.7304 51.325Z" fill="white"/>
<path d="M45.3772 31.4662C43.4564 29.5864 40.9074 28.5529 38.1983 28.5529C35.4771 28.5529 32.9191 29.5953 30.9952 31.49C29.0714 33.3847 28.0173 35.903 28.0203 38.5788C28.0264 41.2545 29.0895 43.7699 31.0194 45.6557C32.9402 47.5355 35.4892 48.569 38.1983 48.569C38.2104 48.569 38.2225 48.569 38.2346 48.569C40.9557 48.5601 43.5108 47.5058 45.4286 45.6052C47.3464 43.7045 48.3914 41.1832 48.3793 38.5075C48.3642 35.8466 47.2981 33.3461 45.3772 31.4662ZM43.6437 43.8649C42.2906 45.1953 40.5238 45.9704 38.6272 46.0714V46.1368H38.1983C36.1446 46.1368 34.2117 45.3498 32.759 43.9243C31.3063 42.4988 30.4999 40.6012 30.4969 38.5817C30.4908 36.5623 31.2851 34.6587 32.7318 33.2273C34.1785 31.7929 36.1053 31 38.159 30.9881C38.1711 30.9881 38.1862 30.9881 38.1983 30.9881C40.2369 30.9881 42.1577 31.7632 43.6104 33.1738C45.0722 34.5934 45.8846 36.4851 45.8997 38.5075C45.8997 40.5329 45.0994 42.4335 43.6437 43.8649Z" fill="white"/>
</svg>
