<svg width="76" height="76" viewBox="0 0 76 76" fill="none" xmlns="http://www.w3.org/2000/svg">
<circle cx="37.592" cy="37.996" r="37.592" fill="#FDC504"/>
<path d="M49.7985 27.6496L50.0918 26.8216C50.3013 26.2336 50.4061 25.6192 50.4031 24.9961C50.4151 23.624 49.8853 22.3338 48.9095 21.3567C47.9367 20.3796 46.6316 19.8296 45.2338 19.8062C41.6628 19.8062 39.4179 22.2724 38.1637 24.3437L37.6249 25.2331L37.0741 24.3525C35.1854 21.3362 32.7998 19.8062 29.9891 19.8062C28.6032 19.8296 27.2982 20.3796 26.3223 21.3567C25.3465 22.3338 24.8167 23.624 24.8287 24.9902C24.8257 25.6222 24.9305 26.2365 25.14 26.8246L25.4334 27.6525H18.1897V38.0295H20.716V56.1855H54.468V38.0265H56.9943V27.6496H49.7985ZM27.5197 24.9551C27.5047 24.2998 27.7471 23.6737 28.2021 23.191C28.6601 22.7083 29.2827 22.4216 29.9562 22.3894H29.9891C32.9285 22.3894 34.6256 25.1365 35.374 26.7748L35.7751 27.6496L29.9412 27.6466C29.2527 27.5969 28.6242 27.2897 28.1692 26.7865C27.7172 26.2863 27.4867 25.6456 27.5197 24.9785V24.9551ZM36.2719 53.5554H23.4578L23.4039 38.0265H36.2719V53.5554ZM36.2719 35.3965H20.8806V30.2796H36.2719V35.3965ZM39.8728 26.7017C41.3365 23.8405 43.1445 22.3865 45.2457 22.3865H45.3265C46 22.4187 46.6226 22.7054 47.0806 23.1881C47.5326 23.665 47.775 24.2852 47.7631 24.9347C47.793 25.5988 47.5625 26.2365 47.1135 26.7368C46.6585 27.2429 46.03 27.5472 45.3415 27.5969L45.3176 27.5998H39.4119L39.8728 26.7017ZM51.777 53.5554H38.9629V38.0265H51.777V53.5554ZM54.3542 35.3965H38.9629V30.2796H54.3542V35.3965Z" fill="white"/>
</svg>
