<svg width="76" height="76" viewBox="0 0 76 76" fill="none" xmlns="http://www.w3.org/2000/svg">
<circle cx="37.592" cy="38.2721" r="37.592" fill="#91C149"/>
<path d="M51.6156 21.2952L51.3004 21.4628C42.7159 26.0397 32.4648 26.0397 23.8803 21.4628L23.5684 21.2952H18.1897V37.9061C18.1897 42.6204 20.1682 51.6267 33.4205 59.01C34.7249 59.7376 36.1568 60.0998 37.592 60.0998C39.0272 60.0998 40.4591 59.7376 41.7669 59.01C55.0158 51.6233 56.9943 42.6171 56.9943 37.9061V21.2952H51.6156ZM54.1406 37.9061C54.1406 47.4253 45.5159 53.6519 40.3786 56.5187C38.6315 57.4878 36.5491 57.4911 34.8087 56.5187C29.6681 53.6552 21.04 47.4287 21.04 37.9061V24.1452H22.8575C32.1093 28.9468 43.0713 28.9468 52.3231 24.1452H54.1406V37.9061Z" fill="white"/>
<path d="M30.4025 38.3788C32.3878 38.3788 33.9972 36.7695 33.9972 34.7844C33.9972 32.7992 32.3878 31.1899 30.4025 31.1899C28.4171 31.1899 26.8077 32.7992 26.8077 34.7844C26.8077 36.7695 28.4171 38.3788 30.4025 38.3788Z" fill="white"/>
<path d="M37.592 47.3282C34.7618 47.3282 32.0993 45.997 30.4025 43.7337C30.4025 47.7071 33.6217 50.9226 37.592 50.9226C41.5623 50.9226 44.7815 47.7037 44.7815 43.7337C43.0847 46.0004 40.4222 47.3282 37.592 47.3282Z" fill="white"/>
<path d="M44.7815 31.1899C42.7963 31.1899 41.1867 32.7994 41.1867 34.7844C41.1867 36.7694 42.7963 38.3788 44.7815 38.3788C46.7667 38.3788 48.3763 36.7694 48.3763 34.7844C48.3763 32.7994 46.7667 31.1899 44.7815 31.1899Z" fill="white"/>
</svg>
