<svg width="76" height="76" viewBox="0 0 76 76" fill="none" xmlns="http://www.w3.org/2000/svg">
<circle cx="37.592" cy="38.2724" r="37.592" fill="#FDC504"/>
<path d="M51.6155 21.2954L51.3003 21.4631C42.7158 26.0399 32.4647 26.0399 23.8802 21.4631L23.5684 21.2954H18.1897V37.9063C18.1897 42.6207 20.1681 51.6269 33.4204 59.0103C34.7249 59.7379 36.1567 60.1 37.592 60.1C39.0272 60.1 40.4591 59.7379 41.7668 59.0103C55.0158 51.6236 56.9943 42.6173 56.9943 37.9063V21.2954H51.6155ZM54.1406 37.9063C54.1406 47.4256 45.5159 53.6521 40.3786 56.519C38.6315 57.488 36.5491 57.4914 34.8087 56.519C29.6681 53.6555 21.04 47.4289 21.04 37.9063V24.1455H22.8575C32.1093 28.947 43.0713 28.947 52.3231 24.1455H54.1406V37.9063Z" fill="white"/>
<path d="M30.4024 38.3791C32.3878 38.3791 33.9972 36.7698 33.9972 34.7846C33.9972 32.7995 32.3878 31.1902 30.4024 31.1902C28.4171 31.1902 26.8077 32.7995 26.8077 34.7846C26.8077 36.7698 28.4171 38.3791 30.4024 38.3791Z" fill="white"/>
<path d="M37.592 47.3284C34.7618 47.3284 32.0992 45.9973 30.4025 43.734C30.4025 47.7073 33.6217 50.9229 37.592 50.9229C41.5623 50.9229 44.7815 47.7039 44.7815 43.734C43.0847 46.0006 40.4222 47.3284 37.592 47.3284Z" fill="white"/>
<path d="M44.7815 31.1902C42.7963 31.1902 41.1867 32.7996 41.1867 34.7846C41.1867 36.7696 42.7963 38.3791 44.7815 38.3791C46.7666 38.3791 48.3762 36.7696 48.3762 34.7846C48.3762 32.7996 46.7666 31.1902 44.7815 31.1902Z" fill="white"/>
</svg>
