<svg width="76" height="76" viewBox="0 0 76 76" fill="none" xmlns="http://www.w3.org/2000/svg">
<circle cx="37.592" cy="38.2721" r="37.592" fill="#91C149"/>
<path d="M28.6483 43.9826L30.3896 41.9077C30.861 41.3468 31.0262 40.5864 30.83 39.881L30.1074 37.2693C30.0179 36.9424 30.3414 36.6499 30.658 36.7772L33.17 37.7923C33.8514 38.0676 34.6222 37.9919 35.2348 37.5858L37.4956 36.0925C37.7812 35.9032 38.1563 36.1234 38.1322 36.4641L37.943 39.1653C37.8914 39.8982 38.2045 40.607 38.7792 41.0647L40.899 42.7542C41.1639 42.9675 41.071 43.3942 40.7407 43.4734L38.1116 44.1271C37.3993 44.3061 36.8212 44.8222 36.5631 45.507L35.6133 48.043C35.4929 48.363 35.0593 48.4043 34.8803 48.1152L33.4453 45.827C33.0565 45.2042 32.3855 44.8119 31.6525 44.7809L28.9477 44.6605C28.6036 44.6433 28.4281 44.2441 28.6483 43.9826Z" fill="#F9F9F9"/>
<path d="M9.70117 45.8787L16.0398 52.2169L16.8864 51.3705C18.9958 49.2611 22.3819 49.2611 24.4948 51.3705C26.6043 53.4798 26.6043 56.8657 24.4948 58.9785L23.6483 59.8249L29.987 66.1632L65.4828 30.6661L59.1441 24.3279L58.2976 25.1743C56.1881 27.2837 52.802 27.2837 50.6891 25.1743C48.5797 23.065 48.5797 19.6791 50.6891 17.5663L51.5357 16.7199L46.0435 11.2281L45.2004 10.3816L9.70117 45.8787ZM13.0839 45.8787L34.636 24.3279L37.1722 26.8639L38.8618 25.1743L36.3256 22.6383L45.2004 13.7641L48.239 16.8024C46.0229 19.8374 46.2672 24.1283 49.0064 26.8639C51.7421 29.5994 56.023 29.83 59.0547 27.6174L62.107 30.6696L53.2322 39.5438L50.696 37.0078L49.0064 38.6974L51.5425 41.2334L29.9904 62.7842L26.9381 59.732C29.1542 56.6971 28.9202 52.42 26.1845 49.6844C23.4487 46.9488 19.1575 46.7045 16.1224 48.917L13.0839 45.8787ZM38.8618 28.5534L42.2445 31.9358L43.9341 30.2463L40.5514 26.8639L38.8618 28.5534ZM43.9306 33.6219L47.3133 37.0044L49.0029 35.3149L45.6203 31.9324L43.9306 33.6219Z" fill="#F9F9F9"/>
</svg>
