<svg width="76" height="76" viewBox="0 0 76 76" fill="none" xmlns="http://www.w3.org/2000/svg">
<circle cx="37.592" cy="38.2724" r="37.592" fill="#FDC504"/>
<path d="M28.6483 43.9829L30.3896 41.908C30.861 41.3471 31.0262 40.5866 30.83 39.8812L30.1074 37.2695C30.0179 36.9426 30.3414 36.6501 30.658 36.7775L33.17 37.7926C33.8514 38.0678 34.6222 37.9921 35.2348 37.5861L37.4956 36.0927C37.7812 35.9035 38.1563 36.1237 38.1322 36.4643L37.943 39.1655C37.8914 39.8984 38.2045 40.6073 38.7792 41.0649L40.899 42.7544C41.1639 42.9678 41.071 43.3945 40.7407 43.4736L38.1116 44.1274C37.3993 44.3063 36.8212 44.8225 36.5631 45.5072L35.6133 48.0432C35.4929 48.3632 35.0593 48.4045 34.8803 48.1155L33.4453 45.8272C33.0565 45.2044 32.3855 44.8121 31.6525 44.7812L28.9477 44.6607C28.6036 44.6435 28.4281 44.2444 28.6483 43.9829Z" fill="#F9F9F9"/>
<path d="M9.70117 45.8789L16.0398 52.2172L16.8864 51.3707C18.9958 49.2614 22.3819 49.2614 24.4948 51.3707C26.6043 53.48 26.6043 56.8659 24.4948 58.9787L23.6483 59.8252L29.987 66.1634L65.4828 30.6664L59.1441 24.3281L58.2976 25.1746C56.1881 27.2839 52.802 27.2839 50.6891 25.1746C48.5797 23.0653 48.5797 19.6793 50.6891 17.5666L51.5357 16.7201L46.0435 11.2283L45.2004 10.3818L9.70117 45.8789ZM13.0839 45.8789L34.636 24.3281L37.1722 26.8641L38.8618 25.1746L36.3256 22.6386L45.2004 13.7643L48.239 16.8027C46.0229 19.8376 46.2672 24.1285 49.0064 26.8641C51.7421 29.5997 56.023 29.8302 59.0547 27.6177L62.107 30.6698L53.2322 39.5441L50.696 37.0081L49.0064 38.6976L51.5425 41.2336L29.9904 62.7844L26.9381 59.7323C29.1542 56.6973 28.9202 52.4202 26.1845 49.6846C23.4487 46.9491 19.1575 46.7047 16.1224 48.9173L13.0839 45.8789ZM38.8618 28.5536L42.2445 31.9361L43.9341 30.2466L40.5514 26.8641L38.8618 28.5536ZM43.9306 33.6222L47.3133 37.0046L49.0029 35.3151L45.6203 31.9326L43.9306 33.6222Z" fill="#F9F9F9"/>
</svg>
