<svg width="76" height="76" viewBox="0 0 76 76" fill="none" xmlns="http://www.w3.org/2000/svg">
<circle cx="37.592" cy="37.996" r="37.592" fill="#FDC504"/>
<path d="M38.4671 34.065L39.3369 35.7994C39.5725 36.2686 40.0285 36.5953 40.5571 36.6695L42.5021 36.9487C42.7467 36.9843 42.8433 37.2783 42.6682 37.4506L41.2608 38.7988C40.8802 39.1641 40.7051 39.6927 40.7957 40.2065L41.1279 42.1101C41.1702 42.3506 40.9134 42.5318 40.696 42.4189L38.9564 41.5191C38.4852 41.2756 37.9205 41.2756 37.4493 41.5191L35.7067 42.4189C35.4892 42.5318 35.2325 42.3506 35.2748 42.1101L35.607 40.2065C35.6976 39.6897 35.5224 39.1641 35.1419 38.7988L33.7345 37.4506C33.5563 37.2813 33.656 36.9843 33.9006 36.9487L35.8456 36.6695C36.3741 36.5953 36.8272 36.2686 37.0658 35.7994L37.9356 34.065C38.0413 33.8483 38.3554 33.8483 38.4671 34.065Z" fill="white"/>
<path d="M18.1897 53.7604H58.2069V26.3171H48.6541L45.8786 21.019H29.4006L27.6247 26.3171H18.1897V53.7604ZM55.7304 51.3252H20.6662V28.7493H29.3915L31.1704 23.4542H44.3444L47.1199 28.7522H55.7274L55.7304 51.3252Z" fill="white"/>
<path d="M45.3772 31.4665C43.4564 29.5866 40.9074 28.5532 38.1983 28.5532C35.4771 28.5532 32.9191 29.5955 30.9952 31.4902C29.0714 33.3849 28.0173 35.9033 28.0203 38.579C28.0264 41.2547 29.0895 43.7701 31.0194 45.6559C32.9402 47.5357 35.4892 48.5692 38.1983 48.5692C38.2104 48.5692 38.2225 48.5692 38.2346 48.5692C40.9557 48.5603 43.5108 47.506 45.4286 45.6054C47.3464 43.7048 48.3914 41.1835 48.3793 38.5077C48.3642 35.8468 47.2981 33.3463 45.3772 31.4665ZM43.6437 43.8651C42.2906 45.1956 40.5238 45.9707 38.6272 46.0717V46.137H38.1983C36.1446 46.137 34.2117 45.35 32.759 43.9245C31.3063 42.4991 30.4999 40.6014 30.4969 38.582C30.4908 36.5626 31.2851 34.659 32.7318 33.2275C34.1785 31.7932 36.1053 31.0002 38.159 30.9884C38.1711 30.9884 38.1862 30.9884 38.1983 30.9884C40.2369 30.9884 42.1577 31.7635 43.6104 33.1741C45.0722 34.5936 45.8846 36.4853 45.8997 38.5077C45.8997 40.5331 45.0994 42.4337 43.6437 43.8651Z" fill="white"/>
</svg>
