<svg width="193" height="196" viewBox="0 0 193 196" fill="none" xmlns="http://www.w3.org/2000/svg">
<path d="M103.041 122.531C101.757 121.223 100.971 119.419 100.695 117.113C100.419 114.808 100.29 112.352 100.296 109.765C100.303 107.178 100.173 104.723 99.8976 102.417C99.6217 100.111 98.8353 98.3069 97.5519 96.9996C96.2684 95.6923 94.4347 94.8541 92.0642 94.4808C89.6937 94.1075 87.2169 93.9159 84.6297 93.8927C82.0424 93.8694 79.596 93.7278 77.2914 93.423C75.0004 93.114 73.1971 92.3257 71.9136 91.0184C70.6302 89.7111 69.8835 87.9388 69.6778 85.7152C69.4678 83.4781 69.3819 81.0685 69.3888 78.4813C69.3956 75.8941 69.2658 73.4388 68.9899 71.1331C68.7141 68.8275 67.9277 67.0231 66.6442 65.7157C65.3608 64.4084 63.5668 63.6024 61.2664 63.3111C58.9618 63.0064 56.5248 62.847 53.9282 62.8415C51.3451 62.8317 48.8945 62.6766 46.59 62.3718C44.2989 62.0628 42.4956 61.2745 41.2121 59.9672C39.9287 58.6599 39.1423 56.8555 38.8664 54.5498C38.5906 52.2441 38.4607 49.7888 38.4676 47.2016C38.4745 44.6145 38.3446 42.1592 38.0688 39.8535C37.7929 37.5478 37.0065 35.7434 35.7231 34.4361C34.4396 33.1287 32.676 32.3726 30.4509 32.1321C28.2299 31.9052 25.8191 31.7823 23.2225 31.7767C20.6259 31.7712 18.1888 31.6119 15.8843 31.3071C13.5932 30.9981 11.7899 30.2098 10.5064 28.9025C9.64038 28.0292 9.14832 27.0242 9.00829 25.8646C8.86825 24.705 8.65889 23.4185 8.38526 21.9738C8.11163 20.5291 7.61668 18.9456 6.89619 17.2097C6.19343 15.4832 4.90122 13.6735 3.0373 11.7899C1.75385 10.4826 0.900862 8.89211 0.464849 7.02277C0.0288367 5.15342 0.455988 3.57883 1.75559 2.28123C3.20541 0.847542 4.82555 0.385713 6.62024 0.909281C8.41494 1.43285 9.95653 2.33266 11.24 3.63999C12.8226 5.2401 13.9213 6.85774 14.5581 8.51574C15.195 10.1738 15.6942 11.7708 16.0472 13.2798C16.4002 14.7888 16.7237 16.2031 16.9955 17.4998C17.2809 18.7922 17.8431 19.8793 18.7091 20.7526C19.9926 22.0599 21.7959 22.8482 24.087 23.1572C26.3915 23.4619 28.8286 23.6213 31.4252 23.6268C34.0082 23.6366 36.4191 23.7595 38.6443 24C40.8787 24.2227 42.633 24.9966 43.9165 26.3039C45.2 27.6113 45.9864 29.4156 46.2622 31.7213C46.538 34.027 46.6814 36.4781 46.661 39.0695C46.6542 41.6567 46.784 44.112 47.0599 46.4176C47.3357 48.7233 48.1221 50.5277 49.4056 51.8351C50.689 53.1424 52.4923 53.9307 54.7834 54.2397C57.088 54.5444 59.525 54.7038 62.1216 54.7093C64.7047 54.7191 67.1552 54.8742 69.4463 55.1832C71.7509 55.488 73.5407 56.2805 74.8241 57.5878C76.1076 58.8951 76.894 60.6995 77.1698 63.0052C77.4457 65.3109 77.5891 67.762 77.5687 70.3534C77.5618 72.9406 77.652 75.3637 77.8577 77.5873C78.0634 79.8109 78.8101 81.5831 80.0935 82.8905C81.377 84.1978 83.1803 84.9861 85.4714 85.2951C87.7759 85.5999 90.213 85.7592 92.8096 85.7647C95.3926 85.7745 97.8694 85.966 100.244 86.3528C102.615 86.7261 104.448 87.5644 105.732 88.8717C107.015 90.179 107.802 91.9834 108.078 94.2891C108.353 96.5948 108.497 99.0459 108.476 101.637C108.469 104.224 108.599 106.68 108.875 108.985C109.151 111.291 109.937 113.095 111.221 114.403C112.504 115.71 114.308 116.498 116.599 116.807C118.903 117.112 121.34 117.272 123.937 117.277C126.52 117.287 128.971 117.442 131.262 117.751C133.566 118.056 135.356 118.848 136.639 120.156C137.923 121.463 138.709 123.267 138.985 125.573C139.261 127.879 139.404 130.33 139.384 132.921C139.364 135.513 139.507 137.964 139.783 140.269C140.059 142.575 140.845 144.379 142.129 145.687C143.412 146.994 145.215 147.782 147.506 148.091C149.811 148.396 152.248 148.555 154.845 148.561C157.441 148.566 159.838 148.694 162.064 148.934C164.285 149.161 166.052 149.931 167.336 151.238C168.619 152.545 169.406 154.35 169.682 156.655C169.957 158.961 170.101 161.412 170.08 164.004C170.074 166.591 170.243 169.078 170.589 171.466C170.944 173.836 171.761 175.69 173.04 176.984C174.038 177.994 175.19 178.645 176.488 178.952C177.781 179.246 179.106 179.501 180.467 179.729C181.828 179.957 183.263 180.326 184.772 180.835C186.28 181.344 187.81 182.396 189.392 183.996C190.971 185.583 191.934 187.287 192.29 189.092C192.647 190.897 192.098 192.51 190.648 193.944C189.344 195.228 187.793 195.624 186.002 195.113C184.208 194.59 182.596 193.608 181.167 192.168C179.584 190.568 178.015 189.484 176.441 188.906C174.862 188.315 173.361 187.878 171.92 187.585C170.493 187.288 169.15 187.025 167.941 186.809C166.714 186.583 165.685 186.043 164.819 185.17C163.536 183.862 162.71 182.026 162.368 179.651C162.022 177.264 161.857 174.79 161.859 172.189C161.866 169.602 161.736 167.147 161.46 164.841C161.184 162.535 160.398 160.731 159.115 159.424C157.831 158.116 156.063 157.346 153.842 157.12C151.621 156.893 149.211 156.77 146.614 156.764C144.017 156.759 141.58 156.599 139.276 156.295C136.985 155.986 135.181 155.197 133.898 153.89C132.615 152.583 131.828 150.778 131.552 148.472C131.276 146.167 131.147 143.711 131.153 141.124C131.16 138.537 131.03 136.082 130.755 133.776C130.479 131.47 129.692 129.666 128.409 128.359C127.125 127.051 125.331 126.245 123.031 125.954C120.727 125.649 118.289 125.49 115.693 125.484C113.096 125.479 110.659 125.32 108.355 125.015C106.128 124.626 104.334 123.82 103.041 122.531Z" fill="#D03717"/>
</svg>
