<svg width="28" height="23" viewBox="0 0 28 23" fill="none" xmlns="http://www.w3.org/2000/svg">
<path d="M24.2054 14.739C24.0703 13.78 23.3459 13.033 22.4135 12.8102C18.7885 11.942 17.8802 9.80888 17.7265 7.44266C17.0835 7.32047 15.9401 7.18801 13.999 7.18801C12.0579 7.18801 10.9145 7.31996 10.2715 7.44266C10.1183 9.80888 9.20948 11.942 5.58446 12.8102C4.65208 13.0345 3.92768 13.7805 3.79254 14.739L3.09376 19.6866C2.84811 21.429 4.09949 23 5.84117 23H22.1578C23.898 23 25.1514 21.4285 24.9047 19.6866L24.2054 14.739ZM13.999 19.395C12.0368 19.395 10.4458 17.785 10.4458 15.8012C10.4458 13.8175 12.0368 12.2075 13.999 12.2075C15.9612 12.2075 17.5522 13.8175 17.5522 15.8012C17.5522 17.785 15.9602 19.395 13.999 19.395ZM27.9947 5.75C27.9611 3.59375 22.5908 0.00154018 13.999 0C5.40612 0.00154018 0.035399 3.59375 0.00324804 5.75C-0.028903 7.90625 0.0328872 10.7125 3.56899 10.2448C7.70592 9.69696 7.45123 8.22045 7.45123 6.1104C7.45123 4.6385 10.816 4.28324 13.999 4.28324C17.1819 4.28324 20.5457 4.6385 20.5472 6.11092C20.5472 8.22096 20.2925 9.69748 24.4295 10.2453C27.9641 10.7125 28.0274 7.90625 27.9947 5.75Z" fill="black"/>
</svg>
