<svg width="843" height="820" viewBox="0 0 843 820" fill="none" xmlns="http://www.w3.org/2000/svg">
<path d="M304.047 774.21L305.119 767.787C305.408 766.049 304.825 764.275 303.55 763.05L298.871 758.526C298.283 757.956 298.602 756.965 299.411 756.833L305.845 755.868C307.586 755.606 309.096 754.499 309.863 752.92L312.713 747.074C313.072 746.334 314.119 746.336 314.481 747.064L317.388 752.888C318.176 754.464 319.694 755.556 321.439 755.801L327.884 756.705C328.691 756.817 329.024 757.808 328.438 758.384L323.802 762.946C322.542 764.183 321.98 765.959 322.284 767.693L323.419 774.113C323.565 774.921 322.713 775.54 321.985 775.164L316.208 772.167C314.642 771.348 312.782 771.365 311.218 772.187L305.47 775.246C304.765 775.626 303.913 775.013 304.047 774.21Z" fill="#2780BF"/>
<path d="M633.858 88.5174L637.242 89.8242C638.158 90.1775 639.199 90.0566 640.021 89.4955L643.055 87.4389C643.437 87.181 643.941 87.4663 643.916 87.9246L643.674 91.5574C643.609 92.5406 644.034 93.4919 644.806 94.0889L647.662 96.3051C648.024 96.5847 647.898 97.1578 647.456 97.2748L643.923 98.2148C642.966 98.4697 642.188 99.179 641.845 100.108L640.579 103.537C640.421 103.967 639.839 104.038 639.594 103.652L637.654 100.602C637.128 99.7731 636.224 99.2659 635.239 99.2386L631.592 99.1407C631.133 99.1303 630.896 98.5943 631.189 98.2377L633.519 95.4088C634.155 94.6422 634.368 93.6214 634.106 92.6726L633.121 89.1809C632.997 88.7523 633.434 88.354 633.858 88.5174Z" fill="#FDC504"/>
<path d="M149.857 528.293L153.242 529.6C154.158 529.953 155.198 529.832 156.021 529.271L159.055 527.215C159.437 526.957 159.941 527.242 159.916 527.7L159.674 531.333C159.609 532.316 160.034 533.268 160.806 533.865L163.662 536.081C164.024 536.36 163.898 536.934 163.456 537.051L159.923 537.991C158.966 538.245 158.187 538.955 157.844 539.883L156.579 543.313C156.421 543.742 155.839 543.814 155.594 543.428L153.654 540.378C153.128 539.549 152.224 539.042 151.239 539.014L147.592 538.916C147.133 538.906 146.896 538.37 147.189 538.013L149.519 535.185C150.155 534.418 150.368 533.397 150.106 532.448L149.12 528.957C148.997 528.528 149.434 528.13 149.857 528.293Z" fill="#27316A"/>
<path d="M179.549 396.754C179.193 397.287 178.633 397.684 177.864 397.943C177.096 398.202 176.265 398.421 175.38 398.603C174.495 398.786 173.665 399.005 172.897 399.264C172.128 399.523 171.567 399.92 171.212 400.452C170.857 400.984 170.701 401.671 170.742 402.508C170.784 403.345 170.895 404.205 171.071 405.092C171.248 405.978 171.374 406.824 171.434 407.634C171.492 408.439 171.351 409.112 170.996 409.644C170.64 410.176 170.088 410.558 169.342 410.787C168.592 411.018 167.775 411.219 166.89 411.401C166.005 411.583 165.175 411.803 164.406 412.062C163.638 412.321 163.077 412.718 162.721 413.25C162.366 413.782 162.218 414.453 162.283 415.26C162.343 416.07 162.462 416.914 162.646 417.802C162.827 418.686 162.948 419.535 163.009 420.345C163.066 421.15 162.926 421.823 162.57 422.355C162.215 422.887 161.654 423.284 160.885 423.543C160.117 423.802 159.287 424.021 158.402 424.204C157.517 424.386 156.687 424.605 155.918 424.864C155.149 425.123 154.589 425.52 154.233 426.052C153.878 426.584 153.745 427.241 153.822 428.019C153.902 428.795 154.032 429.628 154.216 430.516C154.399 431.404 154.518 432.248 154.579 433.058C154.636 433.863 154.495 434.536 154.14 435.068C153.903 435.426 153.595 435.666 153.208 435.797C152.822 435.927 152.397 436.091 151.923 436.287C151.448 436.484 150.942 436.766 150.4 437.136C149.86 437.5 149.333 438.071 148.822 438.842C148.467 439.374 147.984 439.779 147.376 440.062C146.768 440.344 146.199 440.31 145.663 439.959C145.07 439.565 144.796 439.044 144.847 438.393C144.898 437.742 145.096 437.151 145.451 436.619C145.885 435.964 146.36 435.473 146.881 435.137C147.403 434.801 147.913 434.516 148.404 434.288C148.895 434.06 149.355 433.848 149.779 433.663C150.2 433.473 150.532 433.203 150.769 432.845C151.124 432.313 151.265 431.64 151.207 430.835C151.147 430.025 151.028 429.181 150.844 428.293C150.663 427.409 150.534 426.576 150.457 425.798C150.374 425.018 150.513 424.363 150.869 423.831C151.224 423.299 151.785 422.902 152.553 422.643C153.322 422.384 154.15 422.16 155.037 421.982C155.922 421.8 156.752 421.581 157.521 421.322C158.289 421.063 158.85 420.666 159.206 420.134C159.561 419.602 159.702 418.929 159.644 418.124C159.584 417.314 159.464 416.469 159.281 415.581C159.1 414.698 158.978 413.849 158.921 413.043C158.861 412.234 159.004 411.565 159.359 411.033C159.715 410.501 160.275 410.104 161.044 409.845C161.813 409.586 162.64 409.362 163.528 409.185C164.413 409.002 165.235 408.799 165.98 408.57C166.726 408.341 167.278 407.959 167.634 407.427C167.989 406.895 168.13 406.222 168.072 405.417C168.012 404.607 167.893 403.763 167.709 402.875C167.528 401.991 167.417 401.131 167.38 400.291C167.339 399.454 167.494 398.767 167.85 398.235C168.205 397.703 168.766 397.306 169.535 397.047C170.303 396.788 171.131 396.564 172.018 396.387C172.903 396.204 173.733 395.985 174.502 395.726C175.27 395.467 175.831 395.07 176.187 394.538C176.542 394.006 176.683 393.333 176.625 392.528C176.565 391.718 176.446 390.874 176.262 389.985C176.081 389.102 175.96 388.253 175.902 387.448C175.842 386.638 175.985 385.969 176.34 385.437C176.696 384.905 177.256 384.508 178.025 384.249C178.794 383.99 179.621 383.766 180.509 383.589C181.396 383.411 182.224 383.187 182.992 382.928C183.761 382.669 184.322 382.272 184.677 381.74C185.033 381.208 185.173 380.535 185.116 379.73C185.056 378.92 184.936 378.076 184.753 377.187C184.57 376.299 184.442 375.471 184.366 374.693C184.285 373.917 184.422 373.258 184.777 372.726C185.133 372.194 185.693 371.796 186.462 371.538C187.23 371.279 188.058 371.055 188.946 370.877C189.831 370.695 190.669 370.46 191.46 370.171C192.245 369.881 192.821 369.469 193.172 368.939C193.446 368.526 193.586 368.086 193.599 367.621C193.607 367.158 193.6 366.686 193.581 366.205C193.562 365.723 193.585 365.206 193.652 364.654C193.718 364.102 193.969 363.504 194.403 362.849C194.833 362.196 195.347 361.745 195.939 361.495C196.53 361.244 197.121 361.317 197.714 361.71C198.246 362.064 198.492 362.566 198.446 363.215C198.395 363.866 198.174 364.487 197.783 365.078C197.349 365.733 197.091 366.347 197.005 366.927C196.916 367.508 196.873 368.053 196.876 368.566C196.877 369.075 196.882 369.553 196.895 369.982C196.905 370.418 196.794 370.808 196.557 371.166C196.202 371.698 195.633 372.112 194.845 372.398C194.054 372.686 193.22 372.919 192.33 373.104C191.445 373.286 190.615 373.506 189.847 373.765C189.078 374.023 188.517 374.421 188.162 374.953C187.806 375.485 187.669 376.144 187.75 376.92C187.831 377.695 187.961 378.528 188.144 379.416C188.328 380.304 188.447 381.149 188.507 381.958C188.565 382.764 188.424 383.436 188.069 383.968C187.713 384.501 187.153 384.898 186.384 385.157C185.615 385.416 184.785 385.635 183.9 385.817C183.015 386 182.185 386.219 181.417 386.478C180.648 386.737 180.087 387.134 179.732 387.666C179.376 388.198 179.229 388.869 179.293 389.676C179.354 390.486 179.473 391.33 179.656 392.218C179.84 393.107 179.959 393.951 180.019 394.761C180.045 395.55 179.898 396.221 179.549 396.754Z" fill="#D03717"/>
<path d="M59.9891 539.091L70.4864 543.247C73.3274 544.37 76.5374 544.031 79.0593 542.321L88.3633 536.056C89.5356 535.27 91.1008 536.17 91.04 537.587L90.4108 548.823C90.2436 551.864 91.5857 554.822 93.9906 556.695L102.886 563.648C104.012 564.526 103.642 566.295 102.28 566.643L91.3992 569.436C88.4529 570.193 86.0704 572.363 85.0416 575.226L81.2455 585.799C80.7724 587.122 78.9762 587.325 78.2076 586.123L72.1147 576.617C70.4626 574.035 67.6542 572.436 64.6108 572.318L53.3411 571.895C51.923 571.848 51.1743 570.181 52.066 569.087L59.172 560.408C61.1093 558.057 61.7344 554.904 60.8936 551.959L57.735 541.12C57.3391 539.79 58.6769 538.571 59.9891 539.091Z" fill="#2780BF"/>
<path d="M168.284 765.533L168.091 740.945L156.758 741.038C152.902 741.065 150.984 742.385 151.005 744.983C151.007 745.288 151.087 745.838 151.25 746.624C151.412 747.41 151.495 748.088 151.494 748.647C151.506 750.277 150.667 751.102 148.968 751.116C147.119 751.134 146.186 750.031 146.168 747.822C146.162 747.106 146.302 745.792 146.598 743.884C146.889 741.985 147.031 740.235 147.017 738.636C146.999 736.068 146.799 733.501 146.415 730.935C146.198 729.444 146.086 728.47 146.084 728.005C146.062 725.745 146.957 724.608 148.755 724.594C150.399 724.578 151.228 725.369 151.24 726.962C151.244 727.373 151.183 727.992 151.06 728.811C150.939 729.636 150.878 730.255 150.879 730.66C150.901 733.28 152.839 734.572 156.694 734.545L187.45 734.297C191.305 734.27 193.222 732.965 193.198 730.4C193.193 729.989 193.128 729.357 192.99 728.515C192.857 727.665 192.787 727.042 192.783 726.631C192.771 725.039 193.586 724.231 195.233 724.222C197.082 724.203 198.016 725.329 198.038 727.59C198.04 728.055 197.896 729.057 197.598 730.6C197.255 732.404 197.09 734.354 197.108 736.463C197.132 739.288 197.303 741.676 197.628 743.63C198.01 745.891 198.196 747.119 198.198 747.324C198.213 749.587 197.302 750.722 195.452 750.74C193.754 750.755 192.904 749.948 192.89 748.311C192.888 747.907 192.943 747.29 193.066 746.471C193.189 745.652 193.247 745.042 193.243 744.631C193.228 742.49 191.804 741.223 188.971 740.845C188.61 740.799 186.298 740.788 182.034 740.826L173.321 740.897L173.517 765.492L182.307 765.422C186.573 765.391 188.885 765.341 189.246 765.287C192.074 764.85 193.471 763.545 193.456 761.365C193.452 760.954 193.384 760.316 193.251 759.465C193.117 758.615 193.042 757.979 193.045 757.565C193.028 755.959 193.85 755.149 195.496 755.14C197.346 755.121 198.282 756.254 198.3 758.523C198.3 758.883 198.16 759.998 197.863 761.861C197.472 764.34 197.285 766.513 197.299 768.372C197.318 770.542 197.544 772.855 197.972 775.319L198.296 777.167C198.401 777.784 198.458 778.114 198.456 778.168C198.471 780.53 197.558 781.719 195.708 781.738C195.037 781.742 194.449 781.5 193.929 781.019C193.415 780.535 193.149 779.957 193.147 779.292C193.146 778.827 193.218 778.135 193.361 777.209C193.51 776.64 193.58 776.102 193.583 775.589C193.561 772.969 191.623 771.676 187.768 771.704L156.858 771.949C153.003 771.977 151.088 773.303 151.11 775.923C151.109 776.283 151.194 776.846 151.352 777.619C151.516 778.389 151.594 779.054 151.596 779.619C151.599 780.29 151.346 780.868 150.839 781.359C150.331 781.851 149.739 782.1 149.068 782.104C147.27 782.118 146.363 780.943 146.339 778.577C146.337 778.111 146.457 777.164 146.7 775.719C147.045 773.761 147.209 771.369 147.18 768.53C147.172 767.448 147.006 765.831 146.679 763.694C146.352 761.557 146.189 759.969 146.177 758.935C146.158 756.665 147.074 755.521 148.924 755.503C149.646 755.495 150.246 755.724 150.742 756.184C151.232 756.646 151.487 757.214 151.491 757.885C151.495 758.456 151.425 759.155 151.276 759.984C151.126 760.813 151.053 761.383 151.057 761.694C151.078 764.231 153.017 765.508 156.87 765.534L168.284 765.533Z" fill="#FDC504"/>
<path d="M201.704 703.805C201.101 709.17 198.761 713.248 194.694 716.046C190.628 718.843 185.481 719.891 179.251 719.182C173.022 718.473 168.24 716.294 164.902 712.633C161.564 708.971 160.205 704.41 160.832 698.945C161.458 693.38 163.771 689.19 167.758 686.384C171.745 683.579 176.86 682.528 183.087 683.231C189.317 683.94 194.132 686.166 197.539 689.908C200.942 693.66 202.333 698.286 201.704 703.805ZM165.903 699.362C165.496 702.94 166.432 705.891 168.7 708.211C170.971 710.538 174.396 712.065 178.966 712.789L179.965 712.904C184.764 713.449 188.646 712.869 191.607 711.158C194.567 709.447 196.256 706.786 196.661 703.163C197.086 699.433 196.051 696.359 193.556 693.927C191.064 691.501 187.392 690.007 182.539 689.46C172.331 688.298 166.777 691.602 165.903 699.362Z" fill="#FDC504"/>
<path d="M182.704 638.209C186.514 639.062 188.636 642.179 189.062 647.54C189.518 646.694 189.967 645.927 190.407 645.239C190.854 644.549 191.288 643.963 191.714 643.48C194.299 640.423 197.343 639.291 200.854 640.083C204.315 640.863 206.762 642.81 208.194 645.922C209.627 649.035 209.684 653.529 208.37 659.394C207.818 661.851 207.213 664.129 206.559 666.22C205.905 668.31 205.34 670.413 204.868 672.519C204.567 673.871 204.371 675.161 204.276 676.374C204.191 677.59 204.017 678.757 203.77 679.852C203.355 681.707 202.316 682.447 200.662 682.077C198.958 681.696 198.255 680.834 198.558 679.488C198.627 679.187 198.829 678.636 199.169 677.826C199.277 677.586 199.392 677.328 199.504 677.041C199.623 676.752 199.735 676.365 199.849 675.863C200.084 674.818 199.46 673.964 197.974 673.293C196.495 672.62 193.825 671.851 189.963 670.98L181.237 669.016C179.082 668.532 177.353 668.206 176.047 668.048C174.738 667.882 173.722 667.842 173 667.912C172.271 667.983 171.774 668.143 171.505 668.398C171.236 668.654 171.065 668.948 170.986 669.299C170.807 670.093 170.731 670.734 170.758 671.205C170.778 671.678 170.703 672.341 170.513 673.185C170.357 673.879 169.988 674.333 169.419 674.542C168.843 674.755 168.284 674.792 167.728 674.676C166.774 674.459 166.161 674.074 165.893 673.512C165.625 672.95 165.603 672.171 165.828 671.161C166.148 669.755 166.53 668.456 166.983 667.259C167.438 666.069 167.803 664.845 168.088 663.59C168.282 662.737 168.485 661.727 168.688 660.557C168.9 659.391 169.121 658.069 169.343 656.587C169.648 654.545 170.06 652.34 170.586 649.977C171.569 645.606 173.124 642.392 175.243 640.338C177.36 638.277 179.846 637.565 182.704 638.209ZM179.621 662.718C181.391 663.112 182.57 663.159 183.169 662.846C183.768 662.534 184.251 661.578 184.609 659.974L185.372 656.589C186.96 649.519 185.736 645.532 181.698 644.621C177.964 643.784 175.443 646.267 174.133 652.084C173.684 654.089 173.389 655.699 173.253 656.905C173.118 658.11 173.138 659.065 173.329 659.764C173.512 660.466 173.864 660.966 174.382 661.264C174.895 661.565 175.585 661.814 176.445 662.005L179.621 662.718ZM191.305 665.349L197.098 666.652C198.101 666.881 198.948 666.978 199.638 666.943C200.331 666.916 200.929 666.642 201.44 666.118C201.953 665.602 202.399 664.79 202.779 663.682C203.158 662.574 203.556 661.093 203.975 659.23C205.66 651.733 204.098 647.44 199.284 646.359C194.722 645.334 191.63 648.424 190.014 655.619L188.897 660.599C188.569 662.061 188.577 663.143 188.917 663.854C189.257 664.564 190.051 665.064 191.305 665.349Z" fill="#FDC504"/>
<path d="M219.924 622.827C218.14 627.923 214.958 631.377 210.369 633.204C205.787 635.03 200.528 634.905 194.613 632.838C188.695 630.765 184.515 627.578 182.082 623.266C179.642 618.956 179.335 614.206 181.15 609.013C183 603.731 186.181 600.156 190.695 598.311C195.207 596.459 200.428 596.568 206.346 598.641C212.263 600.714 216.464 603.955 218.949 608.362C221.433 612.77 221.76 617.588 219.924 622.827ZM186.005 610.545C184.818 613.939 185.072 617.028 186.77 619.795C188.47 622.569 191.468 624.817 195.762 626.54L196.707 626.875C201.267 628.473 205.184 628.766 208.443 627.759C211.71 626.749 213.949 624.527 215.154 621.079C216.392 617.536 216.068 614.305 214.174 611.384C212.279 608.463 209.037 606.193 204.427 604.584C194.724 601.181 188.586 603.173 186.005 610.545Z" fill="#FDC504"/>
<path d="M202.862 581.986C201.57 581.363 200.457 581.169 199.541 581.412C198.625 581.655 197.947 582.242 197.497 583.162C197.298 583.582 197.171 583.99 197.118 584.392C197.065 584.794 196.92 585.254 196.671 585.762C196.38 586.362 195.916 586.768 195.277 586.974C194.637 587.18 194.062 587.155 193.55 586.915C192.904 586.604 192.428 586.136 192.134 585.507C191.834 584.881 191.911 584.102 192.36 583.175C193.051 581.742 193.91 580.23 194.931 578.641C195.951 577.052 197.134 574.866 198.475 572.093C199.275 570.428 200.035 568.793 200.748 567.199C201.461 565.605 202.094 564.141 202.65 562.814C203.205 561.486 203.665 560.348 204.033 559.413C204.402 558.478 204.658 557.845 204.818 557.525C205.728 555.626 206.978 555.057 208.551 555.817C209.246 556.155 210.01 556.635 210.846 557.264C211.684 557.899 212.775 558.537 214.113 559.18C214.621 559.429 215.299 559.705 216.142 560.033C216.983 560.353 217.664 560.636 218.172 560.885C219.051 561.306 219.573 561.856 219.734 562.535C219.891 563.209 219.816 563.872 219.505 564.518C219.125 565.304 218.625 565.816 217.991 566.058C217.364 566.297 216.631 566.218 215.796 565.811C215.609 565.722 215.313 565.567 214.906 565.341C214.499 565.114 214.085 564.89 213.656 564.649C213.231 564.414 212.823 564.187 212.437 563.976C212.057 563.762 211.752 563.603 211.517 563.486C210.638 563.066 209.923 562.773 209.367 562.618C208.811 562.464 208.295 562.531 207.821 562.811C207.341 563.094 206.871 563.625 206.412 564.403C205.953 565.182 205.387 566.262 204.719 567.655C203.939 569.274 203.351 570.576 202.961 571.557C202.572 572.539 202.403 573.337 202.443 573.963C202.488 574.58 202.726 575.085 203.172 575.473C203.615 575.854 204.274 576.259 205.156 576.687L223.694 585.625C225.314 586.405 226.53 586.85 227.332 586.949C228.136 587.054 228.8 586.572 229.31 585.506C229.601 584.906 229.801 584.249 229.917 583.532C230.033 582.816 230.159 582.325 230.289 582.046C231.09 580.38 232.238 579.904 233.716 580.616C234.362 580.927 234.859 581.348 235.203 581.889C235.545 582.424 235.551 583.04 235.212 583.735C235.034 584.108 234.723 584.655 234.285 585.388C233.846 586.12 233.368 586.929 232.853 587.821C232.337 588.713 231.806 589.642 231.255 590.601C230.707 591.566 230.23 592.459 229.829 593.292C229.21 594.59 228.749 595.805 228.452 596.95C228.156 598.094 227.751 599.196 227.241 600.262C226.909 600.954 226.414 601.418 225.759 601.645C225.105 601.872 224.436 601.821 223.742 601.483C222.263 600.771 221.839 599.741 222.489 598.401C222.711 597.941 223.033 597.483 223.453 597.024C223.87 596.575 224.183 596.134 224.382 595.714C224.762 594.928 224.752 594.122 224.346 593.299C223.941 592.476 223.025 591.717 221.592 591.026L202.862 581.986Z" fill="#FDC504"/>
<path d="M252.976 554.21C250.086 558.767 246.2 561.419 241.316 562.152C236.434 562.893 231.348 561.579 226.055 558.22C220.762 554.862 217.412 550.808 216.018 546.053C214.616 541.301 215.391 536.605 218.339 531.957C221.34 527.229 225.245 524.47 230.067 523.692C234.882 522.916 239.935 524.204 245.235 527.56C250.527 530.919 253.891 535.029 255.308 539.882C256.723 544.751 255.947 549.524 252.976 554.21ZM222.719 534.564C220.79 537.6 220.341 540.667 221.366 543.752C222.391 546.837 224.8 549.707 228.598 552.352L229.444 552.886C233.526 555.476 237.266 556.646 240.681 556.405C244.089 556.166 246.769 554.501 248.724 551.417C250.733 548.252 251.153 545.028 249.971 541.751C248.791 538.48 246.139 535.535 242.017 532.921C233.331 527.42 226.9 527.964 222.719 534.564Z" fill="#FDC504"/>
<path d="M268.745 528.106C267.952 529.051 267.375 529.821 267.008 530.42C266.64 531.018 266.463 531.575 266.473 532.083C266.477 532.593 266.712 533.108 267.158 533.617C267.605 534.127 268.247 534.729 269.079 535.428C269.236 535.559 269.474 535.721 269.785 535.915C270.096 536.11 270.417 536.331 270.755 536.576C271.087 536.824 271.429 537.06 271.782 537.284C272.128 537.511 272.387 537.688 272.546 537.825C273.938 538.99 274.049 540.262 272.893 541.636C272.43 542.186 271.884 542.517 271.254 542.628C270.624 542.738 270.015 542.543 269.422 542.051C268.829 541.559 268.257 541.021 267.695 540.449C267.133 539.876 266.62 539.392 266.149 538.999C265.954 538.829 265.602 538.589 265.098 538.269C264.594 537.95 264.076 537.613 263.534 537.254C262.995 536.902 262.481 536.556 261.992 536.215C261.503 535.875 261.162 535.623 260.97 535.459C260.298 534.898 259.931 534.198 259.857 533.363C259.783 532.528 260.114 531.676 260.843 530.802C261.043 530.565 261.358 530.292 261.788 529.975C262.22 529.665 262.649 529.249 263.079 528.733C264.076 527.543 264.675 526.451 264.878 525.441C265.084 524.438 264.847 523.177 264.17 521.663C263.586 520.434 262.879 519.183 262.041 517.906C261.202 516.63 260.141 515.27 258.866 513.831C257.591 512.393 256.049 510.834 254.243 509.147C252.432 507.463 250.293 505.582 247.811 503.504C247.34 503.11 246.902 502.964 246.51 503.076C246.117 503.188 245.555 503.677 244.82 504.554C244.383 505.072 244.006 505.644 243.676 506.281C243.346 506.919 243.093 507.337 242.93 507.529C241.864 508.799 240.698 508.908 239.44 507.852C238.101 506.728 238.123 505.345 239.507 503.686C239.606 503.564 239.905 503.267 240.415 502.782C240.925 502.297 241.476 501.758 242.081 501.16C242.685 500.563 243.288 499.959 243.892 499.361C244.497 498.764 244.964 498.265 245.295 497.871L256.441 484.578C256.772 484.185 257.183 483.638 257.666 482.942C258.149 482.246 258.636 481.54 259.125 480.842C259.615 480.143 260.051 479.503 260.433 478.922C260.821 478.338 261.064 477.993 261.162 477.872C262.549 476.219 263.913 475.951 265.251 477.075C266.51 478.13 266.616 479.289 265.554 480.55C265.393 480.749 265.022 481.059 264.463 481.494C263.9 481.922 263.404 482.402 262.971 482.911C262.479 483.504 262.382 484.229 262.697 485.094C263.012 485.96 264.035 487.12 265.767 488.575L279.589 500.169C281.085 501.424 282.298 502.222 283.221 502.557C284.143 502.893 285 502.596 285.791 501.645C286.221 501.129 286.552 500.636 286.782 500.159C287.013 499.681 287.228 499.324 287.428 499.087C288.152 498.223 288.934 497.749 289.762 497.677C290.597 497.603 291.349 497.851 292.012 498.407C292.213 498.575 292.511 498.874 292.916 499.315C293.321 499.756 293.738 500.208 294.186 500.68C294.626 501.153 295.057 501.6 295.483 502.018C295.904 502.438 296.212 502.725 296.407 502.896C296.878 503.289 297.445 503.714 298.108 504.171C298.769 504.622 299.393 505.095 299.988 505.593C300.581 506.085 300.874 506.653 300.874 507.295C300.875 507.936 300.643 508.529 300.18 509.08C299.026 510.46 297.752 510.564 296.369 509.404C296.212 509.273 295.991 509.052 295.706 508.748C295.422 508.444 295.125 508.145 294.826 507.861C294.524 507.572 294.25 507.294 294.01 507.027C293.762 506.755 293.563 506.555 293.404 506.418C292.572 505.719 291.867 505.194 291.283 504.844C290.705 504.491 290.154 504.35 289.652 504.435C289.147 504.513 288.632 504.785 288.108 505.253C287.583 505.721 286.927 506.422 286.133 507.366L268.745 528.106ZM252.826 500.169C256.882 503.709 260.093 506.877 262.443 509.693C264.8 512.506 266.729 515.216 268.222 517.809C268.305 517.945 268.447 518.097 268.642 518.267C269.228 518.762 269.852 518.615 270.514 517.828L277.897 509.028C278.458 508.355 278.55 507.694 278.162 507.04C277.782 506.383 276.994 505.56 275.822 504.571L262.038 493.016C260.859 492.03 259.917 491.404 259.199 491.143C258.481 490.882 257.845 491.079 257.284 491.752L252.379 497.596C251.949 498.112 251.781 498.551 251.862 498.924C251.957 499.293 252.278 499.713 252.826 500.169Z" fill="#FDC504"/>
<path d="M288.775 474.01L303.483 460.742L299.403 456.217C297.854 454.501 296.697 453.453 295.937 453.063C295.18 452.68 294.485 452.761 293.879 453.314C293.572 453.591 293.225 454.044 292.826 454.678C292.426 455.312 292.058 455.789 291.716 456.095C290.535 457.165 289.36 457.048 288.184 455.747C287.045 454.486 287.246 453.171 288.769 451.795C288.962 451.622 289.666 451.124 290.894 450.297C292.121 449.469 293.48 448.385 294.968 447.038C295.348 446.694 295.829 446.213 296.417 445.591C296.998 444.972 297.586 444.35 298.167 443.731C298.748 443.112 299.28 442.543 299.748 442.028C300.216 441.513 300.51 441.202 300.623 441.098C302.226 439.653 303.613 439.583 304.786 440.877C305.887 442.099 305.826 443.261 304.604 444.361C304.41 444.535 304.006 444.796 303.39 445.145C302.768 445.497 302.216 445.892 301.715 446.342C301.141 446.859 300.952 447.566 301.142 448.463C301.332 449.361 302.182 450.649 303.694 452.326L315.746 465.688C317.292 467.397 318.442 468.448 319.206 468.829C319.97 469.21 320.649 469.126 321.265 468.578C321.571 468.301 321.918 467.847 322.318 467.213C322.711 466.582 323.086 466.103 323.427 465.797C324.608 464.727 325.795 464.855 326.977 466.169C328.13 467.448 327.943 468.78 326.42 470.155C326.227 470.329 325.511 470.816 324.269 471.626C323.027 472.436 321.659 473.516 320.176 474.853C319.795 475.197 319.314 475.679 318.736 476.305C318.157 476.93 317.578 477.556 317 478.182C316.421 478.808 315.899 479.381 315.433 479.903C314.968 480.424 314.683 480.739 314.567 480.837C312.964 482.282 311.569 482.348 310.378 481.03C309.263 479.79 309.312 478.618 310.535 477.517C310.728 477.344 311.133 477.082 311.748 476.733C312.364 476.384 312.923 475.987 313.423 475.536C313.997 475.019 314.186 474.313 314.003 473.412C313.813 472.515 312.972 471.231 311.463 469.561L306.999 464.61L292.291 477.879L296.755 482.83C298.264 484.5 299.451 485.468 300.321 485.747C301.191 486.026 301.918 485.909 302.493 485.392C302.986 484.944 303.441 484.434 303.855 483.856C304.268 483.278 304.568 482.904 304.762 482.73C305.985 481.63 307.149 481.697 308.27 482.935C309.461 484.253 309.254 485.631 307.65 487.075C307.537 487.18 307.191 487.434 306.628 487.84C306.058 488.248 305.439 488.706 304.756 489.219C304.073 489.732 303.397 490.242 302.711 490.748C302.028 491.261 301.495 491.686 301.114 492.03C299.624 493.37 298.413 494.62 297.486 495.776C296.551 496.927 295.994 497.59 295.8 497.764C294.271 499.142 292.936 499.186 291.776 497.909C290.595 496.595 290.591 495.405 291.772 494.335C292.113 494.029 292.624 493.704 293.294 493.38C293.965 493.055 294.451 492.747 294.758 492.47C295.364 491.917 295.521 491.246 295.218 490.453C294.915 489.659 293.991 488.4 292.445 486.69L280.393 473.328C278.882 471.651 277.692 470.677 276.813 470.393C275.935 470.117 275.215 470.231 274.641 470.749C274.147 471.197 273.692 471.707 273.281 472.291C272.868 472.869 272.568 473.244 272.374 473.417C271.151 474.518 269.99 474.457 268.889 473.234C267.722 471.938 267.932 470.566 269.542 469.119C269.655 469.015 269.992 468.756 270.552 468.344C271.113 467.931 271.73 467.466 272.411 466.947C273.084 466.43 273.765 465.911 274.438 465.394C275.112 464.877 275.643 464.445 276.023 464.101C277.513 462.761 278.73 461.525 279.68 460.391C280.63 459.257 281.198 458.604 281.392 458.431C282.915 457.055 284.252 456.996 285.388 458.251C286.555 459.547 286.549 460.733 285.366 461.796C285.024 462.102 284.514 462.427 283.843 462.752C283.175 463.083 282.687 463.384 282.377 463.655C281.771 464.207 281.614 464.878 281.92 465.679C282.225 466.479 283.149 467.738 284.698 469.454L288.775 474.01Z" fill="#FDC504"/>
<path d="M333.095 451.151C331.859 449.575 331.095 448.094 330.826 446.707C330.55 445.323 330.668 443.872 331.181 442.354C328.921 443.018 326.862 443.109 324.987 442.618C323.113 442.133 321.419 440.916 319.892 438.977C318.08 436.674 317.57 434.034 318.366 431.056C319.162 428.078 321.312 425.203 324.826 422.44C327.088 420.66 329.244 419.081 331.297 417.694C333.343 416.31 334.917 415.189 336.01 414.329C337.019 413.531 337.961 412.675 338.841 411.759C339.721 410.842 340.726 409.931 341.854 409.043C342.658 408.407 343.379 408.094 344.007 408.099C344.635 408.103 345.251 408.495 345.863 409.277C346.219 409.73 346.422 410.263 346.49 410.879C346.55 411.498 346.302 412.028 345.731 412.475C345.042 413.013 344.48 413.381 344.038 413.565C343.596 413.748 343.049 414.095 342.404 414.608C342.122 414.831 341.927 415.119 341.809 415.47C341.69 415.821 341.76 416.344 342.006 417.029C342.253 417.715 342.725 418.612 343.437 419.715C344.141 420.821 345.181 422.243 346.542 423.97L355.101 434.845C356.497 436.619 357.617 437.674 358.479 438.01C359.334 438.348 360.063 438.276 360.668 437.801C361.191 437.387 361.678 436.903 362.134 436.355C362.58 435.803 362.91 435.448 363.112 435.294C364.403 434.274 365.557 434.415 366.577 435.706C367.659 437.081 367.351 438.436 365.653 439.772C365.528 439.865 365.175 440.099 364.583 440.47C363.991 440.841 363.338 441.251 362.624 441.723C361.907 442.187 361.197 442.649 360.48 443.113C359.764 443.578 359.209 443.965 358.805 444.288C357.231 445.53 355.939 446.688 354.933 447.775C353.926 448.862 353.316 449.484 353.117 449.644C351.502 450.918 350.168 450.885 349.117 449.552C348.034 448.177 348.115 447.008 349.354 446.03C349.713 445.749 350.238 445.464 350.927 445.186C351.615 444.908 352.117 444.64 352.44 444.387C353.08 443.883 353.274 443.228 353.022 442.408C352.772 441.594 351.925 440.274 350.498 438.458L347.445 434.581C346.9 433.895 346.243 433.634 345.461 433.787C344.682 433.947 343.809 434.403 342.845 435.16L338.22 438.797C336.78 439.927 335.898 441.341 335.582 443.035C335.264 444.723 335.706 446.342 336.91 447.877C337.417 448.524 337.932 449.152 338.439 449.761C338.956 450.374 339.416 450.939 339.829 451.461C341.45 453.524 342.129 455.404 341.866 457.117C341.603 458.829 340.495 460.452 338.55 461.981C334.367 465.274 330.755 464.979 327.702 461.102L324.079 456.495C322.997 455.12 323.123 453.91 324.456 452.859C325.709 451.877 326.843 452.025 327.856 453.319L330.195 456.284C332.228 458.87 333.965 459.597 335.399 458.47C336.297 457.76 336.67 457.014 336.511 456.219C336.355 455.431 335.912 454.568 335.176 453.642C334.923 453.319 334.58 452.899 334.142 452.394C333.692 451.894 333.348 451.475 333.095 451.151ZM338.102 422.614C337.555 421.922 337.039 421.408 336.552 421.075C336.063 420.734 335.46 420.636 334.754 420.768C334.048 420.899 333.186 421.282 332.16 421.918C331.137 422.561 329.824 423.505 328.227 424.764C326.904 425.803 325.888 426.803 325.181 427.752C324.474 428.702 324.02 429.616 323.834 430.49C323.648 431.363 323.693 432.201 323.966 432.999C324.243 433.802 324.666 434.573 325.242 435.3C326.521 436.929 328.165 437.653 330.173 437.49C332.181 437.328 334.684 436.059 337.694 433.696L340.398 431.571C341.678 430.563 342.329 429.726 342.352 429.045C342.371 428.373 341.824 427.321 340.701 425.901L338.102 422.614Z" fill="#FDC504"/>
<path d="M372.766 420.195C371.542 418.607 370.798 417.119 370.542 415.727C370.279 414.337 370.413 412.888 370.938 411.381C368.677 412.023 366.608 412.086 364.743 411.583C362.875 411.074 361.191 409.845 359.682 407.892C357.895 405.571 357.413 402.928 358.235 399.956C359.056 396.984 361.238 394.134 364.782 391.407C367.06 389.651 369.23 388.089 371.3 386.726C373.363 385.366 374.942 384.259 376.047 383.409C377.061 382.625 378.015 381.78 378.904 380.867C379.794 379.955 380.806 379.064 381.945 378.186C382.761 377.561 383.475 377.251 384.106 377.262C384.737 377.273 385.349 377.674 385.954 378.459C386.303 378.914 386.507 379.448 386.56 380.069C386.614 380.69 386.357 381.216 385.79 381.654C385.099 382.185 384.534 382.546 384.083 382.726C383.639 382.903 383.091 383.25 382.441 383.75C382.16 383.972 381.955 384.256 381.837 384.607C381.718 384.958 381.779 385.477 382.019 386.165C382.258 386.853 382.726 387.759 383.418 388.87C384.119 389.986 385.138 391.415 386.482 393.156L394.93 404.119C396.308 405.908 397.418 406.974 398.275 407.319C399.126 407.667 399.857 407.602 400.465 407.133C400.99 406.726 401.487 406.246 401.945 405.705C402.4 405.157 402.727 404.811 402.932 404.648C404.238 403.646 405.387 403.795 406.394 405.092C407.459 406.481 407.139 407.825 405.427 409.143C405.302 409.237 404.946 409.464 404.352 409.829C403.757 410.193 403.095 410.599 402.375 411.057C401.656 411.515 400.937 411.972 400.218 412.43C399.499 412.888 398.935 413.271 398.528 413.587C396.94 414.812 395.636 415.959 394.618 417.035C393.6 418.111 392.987 418.727 392.782 418.89C391.152 420.146 389.822 420.103 388.788 418.756C387.726 417.374 387.814 416.202 389.065 415.235C389.432 414.958 389.954 414.682 390.645 414.411C391.336 414.139 391.839 413.878 392.166 413.632C392.808 413.134 393.008 412.477 392.766 411.661C392.523 410.844 391.695 409.517 390.286 407.687L387.274 403.779C386.743 403.087 386.081 402.813 385.299 402.966C384.517 403.12 383.639 403.562 382.672 404.313L378.014 407.901C376.562 409.021 375.669 410.424 375.328 412.112C374.987 413.801 375.413 415.419 376.607 416.965C377.107 417.614 377.611 418.255 378.118 418.863C378.628 419.478 379.084 420.053 379.491 420.578C381.093 422.655 381.746 424.546 381.467 426.257C381.188 427.967 380.059 429.575 378.1 431.087C373.886 434.338 370.275 434.004 367.263 430.096L363.688 425.455C362.626 424.073 362.759 422.861 364.107 421.827C365.371 420.856 366.503 421.019 367.506 422.325L369.81 425.319C371.819 427.922 373.541 428.67 374.989 427.56C375.899 426.861 376.278 426.113 376.129 425.322C375.98 424.531 375.543 423.666 374.818 422.728C374.565 422.404 374.228 421.983 373.801 421.466C373.356 420.94 373.02 420.519 372.766 420.195ZM378.07 391.713C377.536 391.016 377.02 390.502 376.535 390.153C376.046 389.812 375.447 389.704 374.736 389.823C374.027 389.948 373.16 390.318 372.132 390.947C371.103 391.576 369.779 392.51 368.17 393.758C366.836 394.787 365.814 395.772 365.097 396.718C364.381 397.664 363.919 398.574 363.723 399.443C363.528 400.312 363.557 401.149 363.826 401.955C364.096 402.762 364.513 403.535 365.078 404.274C366.336 405.91 367.975 406.66 369.988 406.51C372.002 406.361 374.517 405.125 377.547 402.793L380.274 400.69C381.566 399.692 382.226 398.86 382.252 398.185C382.284 397.509 381.744 396.454 380.641 395.026L378.07 391.713Z" fill="#FDC504"/>
<path d="M428.664 347.558C428.142 347.971 427.654 348.456 427.208 349.008C426.762 349.56 426.438 349.913 426.233 350.075C424.941 351.095 423.79 350.962 422.77 349.67C421.69 348.302 421.989 346.943 423.687 345.607C423.812 345.514 424.163 345.273 424.746 344.898C425.335 344.52 425.976 344.099 426.688 343.621C427.395 343.153 428.1 342.678 428.814 342.206C429.522 341.738 430.078 341.334 430.478 341.021C432.052 339.779 433.344 338.621 434.365 337.552C435.385 336.482 435.998 335.866 436.197 335.706C437.812 334.433 439.144 334.459 440.192 335.786C441.275 337.16 441.196 338.336 439.946 339.325C439.581 339.61 439.058 339.901 438.363 340.182C437.671 340.469 437.163 340.739 436.839 340.993C436.195 341.506 435.997 342.17 436.253 342.981C436.503 343.795 437.35 345.114 438.783 346.928L449.975 361.077C451.408 362.89 452.493 364.012 453.233 364.448C453.972 364.884 454.659 364.843 455.304 364.33C455.627 364.076 456.004 363.642 456.446 363.038C456.885 362.427 457.282 361.986 457.644 361.695C458.894 360.706 460.062 360.902 461.141 362.27C462.193 363.603 461.909 364.903 460.304 366.18C460.105 366.34 459.356 366.779 458.061 367.51C456.773 368.239 455.337 369.222 453.764 370.464C453.36 370.786 452.85 371.233 452.234 371.82C451.617 372.407 451.001 372.993 450.384 373.58C449.768 374.167 449.21 374.708 448.709 375.197C448.215 375.684 447.9 375.98 447.785 376.077C446.096 377.417 444.705 377.398 443.619 376.032C442.599 374.741 442.733 373.589 444.024 372.569C444.223 372.41 444.647 372.179 445.284 371.867C445.924 371.562 446.502 371.196 447.031 370.78C447.637 370.304 447.876 369.61 447.742 368.698C447.608 367.787 446.843 366.443 445.441 364.671L436.741 353.667L432.662 376.348C432.482 377.28 432.412 378.017 432.457 378.573C432.501 379.13 432.698 379.627 433.049 380.066C433.656 380.836 434.383 380.879 435.229 380.212C435.552 379.959 435.929 379.525 436.371 378.921C436.81 378.31 437.207 377.868 437.569 377.577C438.819 376.588 439.987 376.784 441.067 378.152C442.118 379.485 441.835 380.785 440.229 382.063C440.023 382.225 439.281 382.662 437.986 383.393C436.691 384.124 435.262 385.104 433.689 386.347C433.285 386.669 432.775 387.116 432.159 387.702C431.542 388.289 430.926 388.876 430.309 389.462C429.693 390.049 429.135 390.59 428.641 391.077C428.14 391.566 427.832 391.86 427.717 391.957C426.021 393.3 424.637 393.278 423.551 391.912C422.531 390.621 422.664 389.469 423.956 388.449C424.155 388.289 424.578 388.059 425.216 387.747C425.853 387.435 426.434 387.076 426.963 386.66C427.568 386.184 427.808 385.49 427.674 384.578C427.54 383.666 426.775 382.323 425.373 380.551L414.181 366.402C412.779 364.63 411.649 363.572 410.794 363.233C409.94 362.895 409.211 362.967 408.605 363.442C408.083 363.856 407.595 364.34 407.149 364.892C406.703 365.444 406.372 365.8 406.174 365.959C404.882 366.98 403.731 366.846 402.711 365.554C401.631 364.186 401.93 362.827 403.628 361.491C403.753 361.398 404.104 361.157 404.687 360.782C405.276 360.404 405.924 359.981 406.629 359.506C407.336 359.037 408.041 358.562 408.755 358.09C409.463 357.622 410.022 357.225 410.419 356.905C411.993 355.663 413.292 354.503 414.312 353.433C415.333 352.364 415.946 351.748 416.144 351.588C417.759 350.314 419.091 350.341 420.14 351.667C421.222 353.042 421.144 354.218 419.894 355.207C419.529 355.491 419.006 355.783 418.311 356.063C417.618 356.35 417.11 356.621 416.787 356.874C416.142 357.387 415.945 358.051 416.194 358.865C416.446 359.686 417.291 360.998 418.724 362.812L427.952 374.478L432.187 350.882C432.312 350.131 432.322 349.516 432.212 349.046C432.101 348.577 431.857 348.097 431.475 347.616C431.031 347.052 430.542 346.834 430.014 346.951C429.47 347.067 429.029 347.274 428.664 347.558Z" fill="#FDC504"/>
<path d="M466.63 327.606C465.321 326.019 465.557 324.294 467.338 322.415C465.993 321.194 464.427 320.653 462.648 320.797C460.863 320.944 459.083 321.746 457.301 323.22C454.564 325.48 453.275 328.386 453.409 331.941C453.55 335.493 455.109 339.077 458.094 342.675C461.173 346.397 464.37 348.668 467.695 349.493C471.013 350.32 474.054 349.579 476.822 347.285C478.563 345.841 479.67 344.097 480.138 342.039C480.605 339.981 480.357 337.891 479.389 335.754C478.636 334.04 478.22 333.053 478.135 332.788C477.916 331.634 478.222 330.714 479.051 330.024C479.725 329.468 480.458 329.227 481.256 329.297C482.05 329.375 482.726 329.744 483.288 330.416C484.107 331.402 484.778 332.858 485.291 334.763C485.806 336.674 486 338.442 485.882 340.076C485.609 344.505 483.619 348.259 479.897 351.337C475.856 354.683 471.421 355.955 466.59 355.148C461.755 354.35 457.423 351.625 453.587 347C449.522 342.096 447.548 337.104 447.657 332.043C447.772 326.979 449.942 322.698 454.179 319.186C457.35 316.563 460.691 315.249 464.215 315.234C467.739 315.218 470.597 316.541 472.791 319.188C473.999 320.652 474.597 322.197 474.573 323.817C474.55 325.438 473.901 326.779 472.635 327.827C471.642 328.649 470.581 329.031 469.431 328.981C468.284 328.938 467.351 328.476 466.63 327.606Z" fill="#FDC504"/>
<path d="M502.782 330.708C502.205 331.218 501.609 331.377 501.005 331.195C500.4 331.013 499.856 330.648 499.383 330.11C498.293 328.876 498.451 327.647 499.833 326.424C500.062 326.222 500.507 325.968 501.163 325.664C501.818 325.36 502.394 324.988 502.897 324.544C503.783 323.763 504.065 322.998 503.754 322.246C503.438 321.496 502.685 320.446 501.491 319.098L487.888 303.654C486.634 302.231 485.571 301.567 484.713 301.68C483.852 301.787 482.92 302.288 481.912 303.169C480.758 304.19 479.863 305.029 479.241 305.679C478.618 306.329 478.234 306.926 478.088 307.463C477.942 308.001 478.022 308.512 478.319 309.01C478.614 309.501 479.092 310.113 479.731 310.847C479.904 311.041 480.139 311.295 480.448 311.605C480.757 311.915 481.083 312.249 481.421 312.594C481.762 312.945 482.097 313.283 482.42 313.61C482.744 313.938 482.976 314.185 483.112 314.34C483.72 315.032 483.995 315.714 483.938 316.385C483.881 317.056 483.521 317.675 482.864 318.254C482.326 318.727 481.704 318.98 481.014 319.014C480.322 319.041 479.654 318.693 479.005 317.954C478.63 317.532 478.174 316.958 477.637 316.231C477.1 315.504 476.644 314.929 476.269 314.507C475.283 313.385 474.375 312.509 473.537 311.874C472.706 311.237 472.031 310.631 471.521 310.054C470.364 308.746 470.573 307.39 472.158 305.998C472.696 305.526 473.718 304.761 475.225 303.705C476.728 302.658 478.869 300.901 481.649 298.457L487.84 292.999C490.618 290.549 492.622 288.653 493.851 287.29C495.083 285.934 495.97 285.015 496.512 284.533C498.09 283.143 499.464 283.1 500.614 284.411C501.125 284.988 501.638 285.732 502.167 286.638C502.689 287.546 503.449 288.555 504.434 289.676C504.809 290.099 505.325 290.628 505.975 291.25C506.625 291.873 507.14 292.402 507.515 292.825C508.161 293.556 508.424 294.265 508.311 294.95C508.198 295.635 507.868 296.212 507.327 296.694C506.669 297.273 506.01 297.548 505.336 297.522C504.661 297.497 504.02 297.138 503.412 296.446C503.276 296.291 503.064 296.036 502.78 295.671C502.495 295.306 502.199 294.93 501.894 294.55C501.588 294.17 501.304 293.805 501.034 293.457C500.766 293.116 500.546 292.841 500.376 292.654C499.73 291.923 499.184 291.374 498.729 291.021C498.28 290.665 497.774 290.522 497.224 290.602C496.671 290.676 496.032 290.981 495.311 291.516C494.584 292.053 493.644 292.832 492.488 293.846C491.482 294.734 490.877 295.592 490.656 296.433C490.437 297.28 490.959 298.41 492.213 299.834L505.817 315.278C507.004 316.628 507.95 317.504 508.657 317.914C509.363 318.325 510.155 318.137 511.041 317.356C511.544 316.912 511.984 316.385 512.369 315.772C512.754 315.159 513.064 314.75 513.293 314.548C514.682 313.323 515.922 313.331 517.006 314.568C517.481 315.112 517.77 315.689 517.878 316.313C517.986 316.936 517.753 317.506 517.169 318.019C516.902 318.259 516.48 318.596 515.905 319.029C515.332 319.47 514.688 319.945 513.985 320.465C513.282 320.985 512.531 321.539 511.754 322.126C510.97 322.716 510.213 323.295 509.486 323.87C508.825 324.52 508.151 325.197 507.472 325.9C506.792 326.602 506.145 327.269 505.54 327.905C504.935 328.541 504.388 329.109 503.905 329.607C503.429 330.101 503.05 330.468 502.782 330.708Z" fill="#FDC504"/>
<path d="M542.77 295.597C538.882 299.342 534.484 300.99 529.565 300.553C524.646 300.115 520.016 297.634 515.666 293.121C511.315 288.609 509.027 283.874 508.797 278.927C508.567 273.98 510.426 269.603 514.392 265.782C518.426 261.898 522.876 260.146 527.736 260.529C532.596 260.913 537.206 263.363 541.55 267.878C545.903 272.398 548.187 277.18 548.422 282.239C548.654 287.292 546.771 291.747 542.77 295.597ZM518.033 269.336C515.44 271.831 514.28 274.696 514.547 277.94C514.813 281.177 516.477 284.537 519.536 288.008L520.231 288.728C523.584 292.208 526.94 294.235 530.313 294.805C533.679 295.376 536.682 294.398 539.307 291.868C542.011 289.263 543.178 286.235 542.806 282.778C542.434 279.322 540.558 275.828 537.17 272.316C530.034 264.908 523.659 263.919 518.033 269.336Z" fill="#FDC504"/>
<path d="M541.959 243.106L543.772 244.775C542.77 239.947 543.959 235.696 547.333 232.024C550.811 228.245 554.881 226.439 559.545 226.607C564.208 226.775 568.769 228.916 573.231 233.02C578.033 237.436 580.777 242.142 581.452 247.133C582.133 252.122 580.642 256.603 576.995 260.577C573.964 263.865 570.359 265.47 566.174 265.395L570.882 269.725C572.319 271.048 573.278 271.859 573.764 272.17C575.142 273.019 576.233 273.015 577.039 272.143C577.283 271.881 577.591 271.428 577.961 270.797C578.339 270.164 578.64 269.713 578.891 269.449C580.002 268.238 581.183 268.208 582.432 269.358C583.681 270.509 583.574 271.871 582.111 273.461C581.586 274.028 580.729 274.806 579.536 275.804C578.652 276.531 577.452 277.73 575.917 279.393C575.079 280.301 574.426 281.093 573.943 281.766C572.738 283.456 571.909 284.544 571.462 285.036C570.868 285.683 570.165 286.043 569.351 286.132C568.537 286.221 567.864 286.019 567.335 285.534C566.124 284.422 566.109 283.221 567.292 281.936C567.504 281.71 567.89 281.402 568.452 281.012C569.192 280.508 569.703 280.107 569.984 279.801C570.642 279.084 570.685 278.296 570.102 277.449C569.519 276.602 567.565 274.605 564.238 271.474L542.393 251.268C540.62 249.706 539.294 249.395 538.426 250.345C538.185 250.613 537.872 251.076 537.501 251.744C537.13 252.413 536.805 252.904 536.522 253.203C535.238 254.602 533.965 254.729 532.716 253.578C531.505 252.467 531.669 251.075 533.197 249.414C533.581 249 534.017 248.559 534.508 248.104C535.451 247.232 536.136 246.566 536.55 246.11C536.863 245.769 537.286 245.256 537.821 244.555C538.358 243.861 538.764 243.363 539.038 243.059C539.931 242.115 540.898 242.128 541.959 243.106ZM549.658 248.625C550.817 250.322 552.444 252.161 554.524 254.148C554.677 254.288 554.944 254.568 555.326 254.988C555.667 255.301 555.928 255.545 556.116 255.718C558.649 258.052 560.683 259.537 562.22 260.18C563.757 260.824 565.54 260.953 567.582 260.556C569.616 260.161 571.471 259.056 573.146 257.24C575.653 254.519 576.601 251.498 575.988 248.172C575.378 244.852 573.238 241.505 569.573 238.129C562.011 231.167 555.757 230.375 550.816 235.745C549.147 237.558 548.208 239.682 547.996 242.108C547.789 244.548 548.34 246.714 549.658 248.625Z" fill="#FDC504"/>
<path d="M585.155 195.761C584.746 196.292 584.39 196.879 584.092 197.52C583.787 198.163 583.559 198.586 583.401 198.792C582.392 200.093 581.242 200.242 579.943 199.241C578.557 198.173 578.525 196.787 579.843 195.076C579.936 194.957 580.227 194.64 580.704 194.129C581.182 193.618 581.706 193.051 582.276 192.421C582.845 191.792 583.421 191.159 583.993 190.536C584.565 189.913 585.006 189.385 585.325 188.981C586.552 187.39 587.525 185.956 588.258 184.676C588.989 183.388 589.432 182.646 589.59 182.441C590.849 180.814 592.142 180.519 593.483 181.551C594.869 182.619 595.07 183.787 594.099 185.044C593.818 185.411 593.377 185.816 592.775 186.26C592.173 186.704 591.746 187.088 591.496 187.413C590.995 188.062 590.961 188.755 591.408 189.486C591.849 190.219 592.99 191.289 594.82 192.699L609.103 203.72C610.933 205.13 612.258 205.961 613.075 206.2C613.894 206.445 614.557 206.238 615.057 205.588C615.308 205.263 615.57 204.751 615.848 204.056C616.125 203.362 616.403 202.828 616.683 202.462C617.655 201.205 618.839 201.104 620.218 202.175C621.562 203.213 621.603 204.542 620.351 206.166C620.192 206.371 619.577 206.98 618.498 207.996C617.418 209.011 616.265 210.315 615.046 211.903C614.729 212.315 614.346 212.873 613.887 213.591C613.427 214.309 612.975 215.024 612.518 215.749C612.058 216.466 611.653 217.125 611.292 217.722C610.931 218.318 610.703 218.68 610.604 218.802C609.285 220.512 607.932 220.83 606.549 219.768C605.25 218.767 605.099 217.61 606.101 216.311C606.259 216.105 606.609 215.781 607.152 215.321C607.697 214.869 608.173 214.374 608.582 213.843C609.053 213.236 609.116 212.501 608.768 211.648C608.419 210.796 607.35 209.676 605.556 208.298L594.446 199.726L595.987 222.722C596.035 223.667 596.148 224.403 596.326 224.931C596.505 225.459 596.817 225.897 597.268 226.237C598.039 226.836 598.761 226.706 599.42 225.851C599.67 225.526 599.933 225.013 600.211 224.319C600.488 223.625 600.766 223.091 601.046 222.725C602.018 221.467 603.202 221.367 604.578 222.431C605.922 223.469 605.963 224.798 604.711 226.422C604.552 226.627 603.937 227.237 602.858 228.252C601.778 229.268 600.628 230.578 599.406 232.159C599.089 232.571 598.706 233.129 598.247 233.847C597.787 234.565 597.328 235.283 596.878 236.005C596.418 236.722 596.013 237.381 595.652 237.978C595.291 238.574 595.063 238.936 594.964 239.058C593.645 240.768 592.292 241.086 590.909 240.024C589.61 239.023 589.459 237.866 590.461 236.567C590.619 236.361 590.969 236.037 591.512 235.577C592.057 235.125 592.533 234.63 592.942 234.099C593.413 233.492 593.476 232.757 593.128 231.904C592.779 231.052 591.71 229.932 589.916 228.554L575.633 217.533C573.845 216.153 572.489 215.402 571.58 215.283C570.671 215.164 569.977 215.406 569.508 216.02C569.1 216.55 568.743 217.137 568.445 217.778C568.141 218.422 567.912 218.845 567.754 219.05C566.746 220.352 565.595 220.501 564.296 219.499C562.911 218.431 562.878 217.045 564.197 215.335C564.289 215.216 564.58 214.898 565.058 214.388C565.535 213.877 566.06 213.31 566.629 212.68C567.199 212.05 567.775 211.418 568.347 210.795C568.916 210.165 569.359 209.644 569.679 209.24C570.898 207.651 571.878 206.215 572.612 204.934C573.343 203.647 573.785 202.905 573.944 202.699C575.202 201.073 576.502 200.775 577.843 201.807C579.229 202.875 579.43 204.043 578.459 205.3C578.178 205.667 577.737 206.072 577.135 206.516C576.533 206.96 576.106 207.344 575.856 207.669C575.355 208.318 575.321 209.011 575.768 209.742C576.209 210.476 577.35 211.545 579.18 212.955L590.961 222.043L589.357 198.123C589.295 197.36 589.152 196.765 588.935 196.336C588.717 195.907 588.357 195.502 587.871 195.13C587.298 194.691 586.772 194.594 586.293 194.838C585.824 195.093 585.438 195.401 585.155 195.761Z" fill="#FDC504"/>
<path d="M622.478 182.533C620.755 181.502 619.521 180.391 618.774 179.194C618.027 177.997 617.617 176.603 617.551 175.008C615.68 176.433 613.784 177.248 611.857 177.464C609.936 177.678 607.917 177.15 605.797 175.881C603.284 174.38 601.869 172.093 601.545 169.023C601.224 165.96 602.212 162.504 604.508 158.671C605.988 156.203 607.437 153.954 608.857 151.93C610.278 149.906 611.345 148.299 612.06 147.109C612.724 146.008 613.299 144.871 613.791 143.698C614.283 142.525 614.9 141.319 615.638 140.09C616.165 139.209 616.72 138.661 617.309 138.444C617.899 138.226 618.619 138.372 619.463 138.882C619.957 139.175 620.341 139.601 620.614 140.155C620.888 140.714 620.843 141.297 620.474 141.911C620.028 142.663 619.631 143.204 619.281 143.528C618.933 143.859 618.551 144.38 618.125 145.085C617.937 145.393 617.862 145.735 617.873 146.105C617.891 146.473 618.137 146.937 618.608 147.491C619.079 148.044 619.846 148.714 620.901 149.496C621.956 150.277 623.429 151.235 625.319 152.363L637.193 159.474C639.125 160.632 640.555 161.217 641.478 161.231C642.398 161.239 643.055 160.92 643.451 160.257C643.79 159.684 644.08 159.062 644.304 158.388C644.528 157.714 644.701 157.266 644.839 157.045C645.684 155.638 646.813 155.352 648.221 156.198C649.716 157.094 649.913 158.47 648.808 160.321C648.728 160.451 648.479 160.798 648.055 161.349C647.634 161.907 647.168 162.528 646.667 163.216C646.165 163.904 645.664 164.592 645.162 165.28C644.661 165.968 644.281 166.533 644.013 166.972C642.982 168.695 642.189 170.242 641.636 171.615C641.083 172.987 640.74 173.791 640.609 174.009C639.555 175.771 638.298 176.22 636.841 175.347C635.346 174.451 634.999 173.323 635.804 171.969C636.036 171.575 636.43 171.126 636.971 170.622C637.512 170.118 637.891 169.69 638.1 169.336C638.522 168.64 638.465 167.951 637.935 167.282C637.411 166.611 636.154 165.678 634.167 164.495L629.93 161.964C629.179 161.517 628.472 161.504 627.794 161.931C627.116 162.358 626.466 163.095 625.842 164.143L622.847 169.167C621.905 170.742 621.588 172.375 621.891 174.07C622.195 175.765 623.183 177.114 624.857 178.118C625.562 178.544 626.267 178.948 626.963 179.331C627.662 179.722 628.297 180.083 628.872 180.429C631.121 181.778 632.427 183.297 632.791 184.992C633.155 186.686 632.699 188.595 631.426 190.723C628.691 195.289 625.212 196.303 620.976 193.772L615.947 190.763C614.451 189.867 614.132 188.69 615.005 187.234C615.821 185.868 616.934 185.604 618.351 186.453L621.591 188.395C624.413 190.084 626.293 190.146 627.231 188.58C627.819 187.6 627.899 186.767 627.469 186.083C627.04 185.399 626.321 184.756 625.304 184.151C624.949 183.943 624.481 183.678 623.891 183.353C623.303 183.013 622.835 182.748 622.478 182.533ZM616.986 154.092C616.233 153.638 615.563 153.344 614.983 153.206C614.403 153.068 613.807 153.189 613.193 153.561C612.578 153.933 611.909 154.601 611.182 155.558C610.457 156.522 609.569 157.878 608.523 159.621C607.661 161.066 607.068 162.354 606.742 163.502C606.423 164.648 606.326 165.655 606.459 166.544C606.596 167.424 606.936 168.195 607.475 168.846C608.022 169.5 608.688 170.063 609.488 170.537C611.262 171.602 613.062 171.695 614.875 170.819C616.69 169.951 618.578 167.87 620.543 164.591L622.312 161.64C623.147 160.244 623.46 159.223 623.231 158.584C623.012 157.95 622.125 157.165 620.569 156.231L616.986 154.092Z" fill="#FDC504"/>
<g clip-path="url(#clip0_12_24)">
<path d="M242.79 760.131L227.002 754.735C225.803 754.305 225.199 753.672 225.204 752.842C225.206 752.095 225.276 751.388 225.42 750.716C225.563 750.044 225.637 749.348 225.635 748.631C225.635 747.855 225.564 747.162 225.424 746.544C225.279 745.927 225.211 745.32 225.21 744.72C225.214 743.43 225.708 742.785 226.694 742.79C227.598 742.793 228.043 743.24 228.048 744.126C228.047 744.353 228.009 744.684 227.938 745.116C227.868 745.548 227.828 745.873 227.829 746.106C227.826 747.513 228.902 748.214 231.052 748.215L240.948 748.227C243.098 748.228 244.177 747.545 244.176 746.168C244.178 745.765 244.141 745.343 244.069 744.901C243.997 744.458 243.962 744.205 243.964 744.146C243.965 743.258 244.424 742.815 245.338 742.816C246.37 742.816 246.885 743.42 246.882 744.622C246.88 744.593 246.872 744.63 246.862 744.726C246.847 744.829 246.825 744.992 246.796 745.221C246.695 746.198 246.62 747.092 246.57 747.904C246.522 748.722 246.493 749.458 246.492 750.117C246.491 751.004 246.554 751.893 246.681 752.782C246.809 753.671 246.873 754.472 246.875 755.189C246.873 756.28 246.399 756.821 245.455 756.822C244.481 756.819 243.995 756.26 243.997 755.146C243.999 754.603 244.02 754.206 244.063 753.962C244.106 753.718 244.128 753.555 244.129 753.467C244.129 753.123 244.067 752.835 243.933 752.607C243.805 752.377 243.566 752.193 243.225 752.046C242.88 751.901 242.423 751.801 241.849 751.743C241.275 751.685 240.558 751.64 239.7 751.608L228.256 751.33C228.086 751.326 228 751.401 227.997 751.548C227.996 751.635 228.081 751.719 228.254 751.803L245.453 757.843C246.543 758.19 247.084 758.963 247.087 760.164C247.086 760.94 246.978 761.475 246.763 761.775C246.548 762.074 246.108 762.338 245.45 762.57L228.241 768.433C228.07 768.517 227.985 768.62 227.979 768.733C227.98 768.849 228.063 768.904 228.239 768.906L240.89 768.666C242.987 768.64 244.034 768.081 244.031 766.997C244.031 766.653 243.972 766.236 243.86 765.751L243.863 765.237C243.861 764.176 244.368 763.65 245.365 763.653C246.367 763.655 246.867 764.198 246.865 765.29C246.866 765.406 246.857 765.531 246.841 765.675C246.825 765.819 246.804 765.988 246.773 766.188L246.503 768.124C246.428 768.697 246.388 769.413 246.385 770.271C246.382 771.789 246.423 772.776 246.499 773.235L246.809 775C246.808 775.087 246.823 775.171 246.851 775.257L246.853 775.473C246.855 776.761 246.349 777.404 245.352 777.401C244.949 777.398 244.614 777.274 244.343 777.01C244.074 776.752 243.932 776.449 243.938 776.104C243.939 775.789 243.98 775.422 244.067 775.009C244.154 774.596 244.198 774.288 244.193 774.085C244.197 772.683 243.12 771.978 240.97 771.977L231.033 771.963C228.883 771.962 227.808 772.661 227.804 774.063C227.803 774.29 227.838 774.632 227.91 775.074C227.982 775.517 228.016 775.858 228.016 776.086C228.013 776.944 227.563 777.373 226.66 777.376C225.676 777.375 225.182 776.743 225.182 775.483C225.18 774.766 225.239 774.08 225.356 773.42C225.474 772.76 225.528 772.104 225.529 771.445C225.529 771.217 225.518 770.899 225.486 770.499C225.46 770.097 225.421 769.693 225.378 769.272C225.336 768.857 225.291 768.472 225.252 768.114C225.208 767.758 225.186 767.489 225.19 767.319C225.19 766.747 225.36 766.296 225.708 765.968C226.05 765.642 226.579 765.361 227.295 765.132L242.79 760.131Z" fill="#27316A"/>
<path d="M251.501 723.494C251.05 725.797 249.778 727.025 247.681 727.162C249.508 729.007 250.122 731.465 249.521 734.529C249.075 736.806 248.159 738.516 246.771 739.656C245.384 740.797 243.746 741.185 241.864 740.818C239.534 740.361 238.017 739.026 237.309 736.815C237.036 735.974 236.891 735.265 236.867 734.693C236.844 734.121 236.905 732.986 237.031 731.285C237.239 728.875 237.191 727.266 236.882 726.464C236.572 725.662 235.815 725.137 234.608 724.902C233.455 724.676 232.474 724.897 231.655 725.572C230.841 726.24 230.288 727.296 230.012 728.726C229.763 729.991 229.888 731.237 230.371 732.473C230.568 732.948 230.824 733.221 231.13 733.278C231.241 733.302 231.407 733.201 231.625 732.982C231.983 732.646 232.497 732.539 233.173 732.676C233.736 732.783 234.157 733.085 234.441 733.561C234.727 734.042 234.807 734.588 234.685 735.208C234.545 735.938 234.17 736.5 233.57 736.892C232.971 737.284 232.303 737.407 231.574 737.266C230.003 736.954 228.805 735.911 227.985 734.131C227.165 732.35 226.976 730.351 227.407 728.129C228.406 723.015 231.362 720.939 236.274 721.905L244.781 723.578C246.13 723.841 246.933 723.975 247.199 723.966C248.214 723.993 248.798 723.611 248.953 722.825C249.146 721.842 248.346 721.171 246.549 720.817L244.487 720.409C243.592 720.234 243.225 719.709 243.394 718.838C243.572 717.912 244.339 717.582 245.687 717.846L245.896 717.886L248.287 718.397C250.983 718.988 252.05 720.683 251.501 723.494ZM242.205 726.526L239.225 725.896C239.667 726.624 239.929 727.357 240.023 728.091C240.111 728.827 240.071 730.091 239.889 731.894C239.573 735.159 240.436 736.993 242.489 737.392C243.556 737.599 244.474 737.383 245.246 736.731C246.013 736.081 246.53 735.092 246.788 733.772C247.153 731.888 246.931 730.305 246.121 729.024C245.299 727.739 243.998 726.91 242.205 726.526Z" fill="#27316A"/>
<path d="M250.543 709.591C250.02 709.048 249.413 708.52 248.741 708.008C248.064 707.498 247.262 706.979 246.333 706.445C245.405 705.912 244.315 705.361 243.066 704.78C241.817 704.2 240.356 703.586 238.674 702.929C238.351 702.807 238.101 702.807 237.912 702.936C237.724 703.066 237.517 703.422 237.285 704.018C237.147 704.368 237.05 704.743 236.987 705.138C236.925 705.533 236.87 705.798 236.817 705.934C236.483 706.795 235.892 707.062 235.032 706.726C234.126 706.374 233.892 705.634 234.323 704.515C234.356 704.437 234.459 704.224 234.64 703.88C234.82 703.537 235.013 703.149 235.226 702.728C235.437 702.3 235.645 701.88 235.857 701.453C236.068 701.025 236.226 700.682 236.327 700.417L239.824 691.406C239.926 691.141 240.043 690.779 240.177 690.319C240.306 689.866 240.44 689.406 240.569 688.953C240.704 688.499 240.813 688.08 240.915 687.704C241.018 687.328 241.082 687.101 241.113 687.018C241.551 685.897 242.221 685.51 243.127 685.863C243.98 686.194 244.242 686.787 243.911 687.641C243.859 687.777 243.724 688.004 243.505 688.334C243.286 688.664 243.11 689 242.972 689.351C242.817 689.752 242.896 690.152 243.22 690.553C243.543 690.955 244.288 691.384 245.458 691.839L254.816 695.482C256.014 695.953 256.853 696.183 257.331 696.184C257.809 696.185 258.127 695.97 258.292 695.543C258.377 695.328 258.438 695.016 258.471 694.599C258.512 694.186 258.573 693.855 258.67 693.615C258.989 692.787 259.604 692.548 260.51 692.901C261.389 693.243 261.621 693.948 261.211 695.015C261.158 695.151 260.927 695.572 260.509 696.285C260.09 696.998 259.685 697.877 259.28 698.92C259.179 699.185 259.061 699.547 258.928 700.007C258.798 700.46 258.665 700.92 258.535 701.373C258.406 701.826 258.292 702.246 258.189 702.622C258.092 702.997 258.022 703.224 257.991 703.308C257.554 704.429 256.889 704.814 255.978 704.462C255.124 704.131 254.863 703.539 255.193 702.685C255.246 702.549 255.38 702.322 255.599 701.992C255.818 701.662 255.995 701.325 256.133 700.975C256.287 700.574 256.209 700.174 255.885 699.772C255.561 699.371 254.817 698.942 253.647 698.487L244.288 694.843C243.487 694.534 242.874 694.369 242.452 694.36C242.029 694.345 241.725 694.568 241.549 695.021L240.011 698.983C239.879 699.332 239.865 699.598 239.981 699.779C240.097 699.959 240.337 700.125 240.712 700.269C242.221 700.888 243.569 701.49 244.755 702.075C245.941 702.66 247.014 703.238 247.97 703.812C248.931 704.384 249.786 704.971 250.532 705.569C251.286 706.17 251.975 706.794 252.617 707.442C253.528 708.411 254.14 709.533 254.446 710.803C254.752 712.073 254.625 713.429 254.066 714.872C253.789 715.591 253.425 716.22 252.99 716.756C252.55 717.294 252.063 717.716 251.527 718.033C250.988 718.345 250.42 718.537 249.808 718.605C249.196 718.673 248.586 718.589 247.971 718.349C247.357 718.109 246.945 717.729 246.735 717.2C246.526 716.675 246.534 716.113 246.764 715.53C246.962 715.024 247.293 714.654 247.77 714.422C248.241 714.191 248.745 714.179 249.282 714.387C249.87 714.616 250.201 715.022 250.28 715.609C250.663 715.418 250.956 715.197 251.156 714.954C251.362 714.709 251.511 714.449 251.618 714.183C252.25 712.546 251.89 711.016 250.543 709.591Z" fill="#27316A"/>
<path d="M261.832 669.008C262.767 669.569 263.3 669.97 263.433 670.216C263.565 670.462 263.456 670.881 263.106 671.472L256.104 683.195C255.911 683.513 255.832 683.749 255.858 683.9C255.885 684.05 256.001 684.184 256.193 684.299C258.036 685.405 259.9 685.77 261.787 685.401C263.674 685.031 265.113 684.023 266.098 682.378C266.743 681.298 267.041 680.131 266.984 678.879C266.928 677.628 266.531 676.597 265.783 675.784L264.911 674.81C264.423 674.287 264.373 673.705 264.753 673.065C265.296 672.157 266.032 671.981 266.967 672.542C268.563 673.501 269.498 675.159 269.768 677.523C270.037 679.887 269.559 682.103 268.325 684.168C266.785 686.747 264.694 688.283 262.05 688.77C259.407 689.256 256.629 688.621 253.703 686.875C250.706 685.083 248.759 682.813 247.863 680.072C246.967 677.331 247.294 674.657 248.852 672.056C250.233 669.744 252.145 668.306 254.585 667.732C257.037 667.154 259.446 667.579 261.832 669.008ZM252.908 681.833C253.253 682.043 253.589 681.875 253.911 681.333L259.173 672.526C259.479 672.01 259.462 671.647 259.119 671.443C257.806 670.657 256.377 670.467 254.826 670.873C253.275 671.28 252.102 672.144 251.31 673.472C250.489 674.847 250.237 676.399 250.567 678.129C250.892 679.861 251.676 681.091 252.908 681.833Z" fill="#27316A"/>
<path d="M268.578 660.628L275.591 652.11L272.974 649.953C271.979 649.133 271.26 648.645 270.809 648.498C270.358 648.35 269.987 648.45 269.693 648.805C269.546 648.983 269.389 649.261 269.224 649.642C269.059 650.022 268.894 650.315 268.73 650.515C268.164 651.201 267.509 651.234 266.757 650.614C266.027 650.013 266.025 649.272 266.755 648.386C266.843 648.276 267.195 647.942 267.799 647.385C268.409 646.828 269.061 646.119 269.774 645.255C269.956 645.034 270.182 644.731 270.455 644.341C270.723 643.951 270.997 643.561 271.265 643.172C271.533 642.783 271.781 642.428 271.995 642.105C272.21 641.782 272.348 641.589 272.401 641.523C273.166 640.594 273.92 640.442 274.672 641.062C275.38 641.646 275.439 642.29 274.856 642.998C274.762 643.11 274.562 643.283 274.252 643.531C273.941 643.774 273.666 644.042 273.43 644.33C273.159 644.662 273.11 645.065 273.286 645.551C273.467 646.03 274.038 646.672 275.004 647.47L282.735 653.85C283.723 654.666 284.447 655.153 284.898 655.301C285.349 655.448 285.72 655.348 286.009 654.995C286.156 654.817 286.312 654.538 286.477 654.158C286.643 653.777 286.807 653.484 286.972 653.285C287.537 652.599 288.2 652.57 288.96 653.199C289.698 653.81 289.709 654.56 288.977 655.441C288.883 655.552 288.53 655.881 287.912 656.429C287.294 656.977 286.629 657.683 285.921 658.54C285.739 658.762 285.514 659.07 285.246 659.459C284.979 659.854 284.711 660.243 284.445 660.637C284.177 661.026 283.938 661.391 283.723 661.714C283.509 662.042 283.377 662.233 283.324 662.299C282.559 663.229 281.798 663.376 281.038 662.747C280.321 662.154 280.25 661.507 280.833 660.798C280.921 660.688 281.126 660.508 281.437 660.265C281.748 660.023 282.024 659.754 282.259 659.467C282.53 659.135 282.579 658.732 282.404 658.252C282.229 657.771 281.66 657.134 280.693 656.336L277.831 653.973L270.817 662.491L273.679 664.854C274.646 665.652 275.381 666.089 275.885 666.171C276.389 666.253 276.778 666.13 277.049 665.799C277.284 665.511 277.494 665.19 277.673 664.841C277.851 664.486 277.985 664.259 278.079 664.148C278.662 663.44 279.312 663.385 280.029 663.978C280.789 664.607 280.79 665.389 280.023 666.313C279.97 666.379 279.804 666.55 279.523 666.82C279.242 667.09 278.941 667.394 278.607 667.73C278.273 668.066 277.94 668.407 277.606 668.743C277.272 669.079 277.012 669.361 276.835 669.581C276.128 670.444 275.559 671.23 275.141 671.943C274.722 672.657 274.465 673.066 274.377 673.176C273.647 674.062 272.917 674.195 272.174 673.585C271.413 672.956 271.316 672.299 271.877 671.619C272.042 671.42 272.295 671.203 272.637 670.965C272.978 670.726 273.224 670.524 273.371 670.346C273.659 669.993 273.69 669.611 273.461 669.191C273.228 668.778 272.617 668.164 271.627 667.342L263.897 660.962C262.93 660.164 262.189 659.723 261.684 659.641C261.18 659.56 260.792 659.682 260.515 660.015C260.28 660.302 260.07 660.624 259.891 660.973C259.712 661.322 259.58 661.56 259.485 661.665C258.902 662.374 258.259 662.433 257.551 661.849C256.799 661.229 256.806 660.457 257.571 659.527C257.624 659.461 257.791 659.291 258.065 659.017C258.339 658.743 258.645 658.437 258.973 658.097C259.3 657.757 259.632 657.416 259.959 657.076C260.287 656.736 260.547 656.454 260.724 656.234C261.431 655.371 262.006 654.589 262.433 653.885C262.86 653.181 263.124 652.776 263.212 652.666C263.937 651.781 264.67 651.641 265.395 652.244C266.147 652.864 266.237 653.518 265.678 654.203C265.513 654.402 265.259 654.618 264.918 654.857C264.576 655.095 264.331 655.298 264.184 655.475C263.89 655.83 263.865 656.216 264.099 656.629C264.332 657.042 264.944 657.662 265.94 658.482L268.578 660.628Z" fill="#27316A"/>
<path d="M286.994 637.948C287.365 638.35 287.717 638.499 288.054 638.402C288.39 638.304 288.832 638.005 289.375 637.505L291.73 635.336C292.674 634.466 293.65 633.745 294.661 633.161C295.671 632.577 296.686 632.191 297.701 631.99C298.718 631.796 299.685 631.818 300.607 632.056C301.526 632.3 302.343 632.81 303.06 633.59C304.398 635.046 304.903 636.708 304.578 638.588C304.252 640.468 302.857 642.538 300.398 644.803C299.37 645.753 298.374 646.602 297.416 647.348C296.454 648.1 295.533 648.877 294.651 649.691C294.085 650.214 293.589 650.737 293.158 651.267C292.733 651.795 292.291 652.275 291.827 652.697C291.048 653.414 290.34 653.425 289.703 652.73C289.042 652.011 288.996 651.393 289.567 650.868C289.695 650.754 289.895 650.622 290.173 650.481C290.452 650.34 290.833 650.05 291.318 649.6C291.761 649.19 291.75 648.597 291.284 647.818C290.817 647.038 289.842 645.84 288.35 644.213L283.405 638.839C282.551 637.912 281.878 637.372 281.391 637.222C280.904 637.072 280.496 637.141 280.18 637.431C279.906 637.682 279.659 637.972 279.433 638.298C279.208 638.624 279.04 638.836 278.937 638.932C278.261 639.553 277.614 639.525 276.994 638.855C276.335 638.142 276.448 637.372 277.33 636.558C277.391 636.502 277.581 636.354 277.888 636.119C278.195 635.883 278.536 635.621 278.91 635.328C279.284 635.034 279.658 634.74 280.028 634.454C280.402 634.16 280.69 633.918 280.902 633.724C281.723 632.966 282.397 632.27 282.917 631.636C283.437 631.001 283.75 630.63 283.859 630.532C284.7 629.758 285.44 629.716 286.083 630.41C286.744 631.128 286.747 631.781 286.1 632.377C285.911 632.548 285.636 632.728 285.265 632.916C284.898 633.103 284.627 633.271 284.462 633.424C284.126 633.731 284.047 634.107 284.223 634.547C284.399 634.986 284.925 635.68 285.797 636.631L286.994 637.948ZM292.979 644.522C293.366 644.942 293.726 645.259 294.046 645.464C294.373 645.672 294.734 645.738 295.128 645.661C295.523 645.589 295.984 645.361 296.504 644.978C297.024 644.595 297.67 644.045 298.445 643.334C301.569 640.456 302.197 638.004 300.337 635.981C298.572 634.061 296.192 634.486 293.196 637.25L291.119 639.161C290.511 639.725 290.177 640.218 290.106 640.65C290.041 641.081 290.244 641.56 290.734 642.089L292.979 644.522Z" fill="#27316A"/>
<path d="M313.309 609.903C312.729 610.325 312.569 610.932 312.831 611.734C313.038 612.364 313.268 612.947 313.517 613.49C313.772 614.032 313.989 614.589 314.171 615.167C314.357 615.738 314.47 616.34 314.516 616.958C314.559 617.583 314.473 618.276 314.248 619.039C315.501 618.767 316.597 618.768 317.535 619.042C318.473 619.317 319.366 620.034 320.203 621.192C320.338 621.38 320.506 621.628 320.713 621.938C320.92 622.247 321.088 622.495 321.223 622.683C321.609 623.214 322.001 623.587 322.393 623.797C322.789 624.005 323.235 623.926 323.738 623.565C324.535 622.989 324.4 621.956 323.328 620.467L322.095 618.762C321.556 618.018 321.647 617.389 322.365 616.868C323.126 616.312 323.798 616.433 324.366 617.221L326.28 619.867C327.89 622.094 327.508 624.07 325.127 625.796C324.02 626.597 322.999 626.933 322.046 626.808C321.099 626.681 320.192 626.025 319.338 624.843C319.121 624.542 318.884 624.206 318.639 623.837C318.388 623.469 318.13 623.097 317.861 622.728C317.176 621.776 316.395 621.269 315.523 621.211C314.652 621.153 313.691 621.45 312.645 622.101C311.818 623.158 310.568 624.404 308.882 625.836L310.823 628.516C311.578 629.56 312.158 630.212 312.556 630.472C312.954 630.732 313.343 630.727 313.712 630.458C313.899 630.323 314.12 630.092 314.374 629.764C314.629 629.437 314.865 629.196 315.071 629.044C315.789 628.523 316.434 628.656 317.002 629.445C317.558 630.208 317.368 630.927 316.444 631.6C316.325 631.683 315.9 631.914 315.168 632.287C314.43 632.661 313.611 633.173 312.711 633.828C312.481 633.998 312.186 634.236 311.828 634.549C311.471 634.861 311.114 635.174 310.756 635.487C310.399 635.799 310.076 636.086 309.787 636.346C309.497 636.606 309.321 636.762 309.253 636.814C308.279 637.517 307.506 637.481 306.937 636.686C306.398 635.943 306.503 635.303 307.246 634.764C307.364 634.682 307.602 634.563 307.963 634.401C308.325 634.245 308.656 634.055 308.961 633.838C309.311 633.585 309.458 633.203 309.404 632.692C309.355 632.18 308.957 631.418 308.218 630.392L302.329 622.248C301.591 621.229 300.986 620.613 300.519 620.405C300.053 620.197 299.645 620.219 299.295 620.471C298.995 620.688 298.711 620.947 298.448 621.241C298.186 621.536 297.996 621.73 297.883 621.811C297.14 622.35 296.495 622.24 295.953 621.486C295.377 620.687 295.576 619.936 296.544 619.229C296.612 619.177 296.816 619.061 297.156 618.863C297.497 618.671 297.867 618.455 298.272 618.212C298.676 617.969 299.087 617.73 299.497 617.486C299.906 617.241 300.222 617.039 300.452 616.869C301.357 616.213 302.098 615.598 302.683 615.012C303.269 614.431 303.616 614.098 303.733 614.009C304.657 613.337 305.405 613.391 305.965 614.171C306.542 614.974 306.477 615.633 305.759 616.154C305.553 616.306 305.252 616.452 304.857 616.594C304.467 616.734 304.176 616.872 303.989 617.007C303.621 617.276 303.492 617.641 303.615 618.1C303.737 618.559 304.174 619.311 304.929 620.355L307.52 623.943C308.467 623.153 309.244 622.454 309.85 621.856C310.461 621.257 310.936 620.699 311.287 620.178C311.638 619.657 311.868 619.166 311.987 618.693C312.105 618.219 312.13 617.723 312.073 617.201C311.973 616.281 311.721 615.406 311.31 614.571C310.9 613.737 310.577 612.926 310.347 612.139C310.112 611.353 310.104 610.567 310.306 609.781C310.514 608.993 311.184 608.192 312.319 607.366C312.737 607.062 313.208 606.831 313.74 606.655C314.268 606.485 314.807 606.406 315.347 606.421C315.887 606.435 316.416 606.569 316.926 606.812C317.438 607.061 317.892 607.447 318.274 607.986C318.696 608.567 318.871 609.187 318.809 609.856C318.744 610.52 318.383 611.091 317.739 611.558C317.208 611.944 316.681 612.096 316.159 612.013C315.642 611.928 315.212 611.659 314.877 611.19C314.661 610.889 314.534 610.641 314.503 610.451C314.472 610.26 314.46 610.077 314.471 609.893C314.39 609.779 314.236 609.702 314.017 609.664C313.797 609.645 313.559 609.717 313.309 609.903Z" fill="#27316A"/>
<path d="M339.845 616.874C337.254 618.391 334.655 618.709 332.053 617.825C329.451 616.942 327.266 614.995 325.506 611.972C323.741 608.956 323.123 606.092 323.645 603.381C324.166 600.669 325.745 598.54 328.388 596.998C331.081 595.426 333.714 595.059 336.296 595.907C338.877 596.755 341.053 598.686 342.811 601.704C344.575 604.72 345.185 607.616 344.648 610.383C344.117 613.15 342.513 615.314 339.845 616.874ZM329.892 599.404C328.163 600.416 327.156 601.816 326.878 603.608C326.6 605.399 327.06 607.435 328.259 609.72L328.539 610.203C329.9 612.528 331.451 614.064 333.199 614.821C334.946 615.572 336.7 615.435 338.449 614.412C340.249 613.358 341.281 611.871 341.531 609.946C341.782 608.027 341.22 605.889 339.852 603.536C336.966 598.583 333.645 597.212 329.892 599.404Z" fill="#27316A"/>
<path d="M346.894 593.343C346.541 592.622 346.12 592.157 345.637 591.954C345.152 591.745 344.651 591.767 344.139 592.02C343.905 592.132 343.713 592.269 343.55 592.432C343.387 592.591 343.168 592.74 342.884 592.882C342.554 593.048 342.209 593.066 341.855 592.934C341.501 592.803 341.256 592.596 341.12 592.316C340.942 591.959 340.894 591.586 340.984 591.207C341.068 590.83 341.367 590.515 341.879 590.262C342.677 589.872 343.567 589.5 344.562 589.153C345.558 588.806 346.822 588.257 348.365 587.496C349.286 587.04 350.178 586.586 351.04 586.127C351.897 585.67 352.681 585.248 353.379 584.855C354.077 584.461 354.667 584.124 355.148 583.839C355.628 583.553 355.959 583.364 356.141 583.277C357.191 582.758 357.936 582.936 358.362 583.808C358.552 584.191 358.72 584.668 358.871 585.236C359.02 585.799 359.28 586.456 359.645 587.203C359.788 587.488 359.983 587.841 360.245 588.276C360.506 588.705 360.702 589.063 360.844 589.348C361.085 589.835 361.122 590.257 360.961 590.608C360.8 590.958 360.541 591.222 360.178 591.402C359.744 591.617 359.343 591.667 358.989 591.559C358.628 591.446 358.339 591.158 358.111 590.697C358.062 590.593 357.984 590.426 357.883 590.189C357.782 589.953 357.679 589.71 357.569 589.459C357.458 589.207 357.357 588.97 357.266 588.748C357.173 588.521 357.094 588.348 357.026 588.22C356.786 587.733 356.569 587.362 356.38 587.101C356.193 586.845 355.939 586.694 355.637 586.654C355.33 586.616 354.94 586.686 354.474 586.869C354.008 587.051 353.386 587.332 352.615 587.715C351.72 588.159 351.017 588.531 350.509 588.823C350.002 589.121 349.651 589.415 349.457 589.704C349.262 589.992 349.199 590.294 349.258 590.617C349.323 590.939 349.473 591.345 349.713 591.832L354.78 602.122C355.225 603.024 355.602 603.634 355.922 603.955C356.243 604.276 356.696 604.294 357.285 603.998C357.616 603.833 357.934 603.617 358.231 603.343C358.529 603.069 358.752 602.896 358.908 602.821C359.829 602.365 360.494 602.552 360.901 603.37C361.079 603.727 361.148 604.089 361.114 604.436C361.081 604.788 360.87 605.058 360.487 605.248C360.28 605.348 359.96 605.488 359.513 605.654C359.073 605.824 358.586 606.018 358.052 606.23C357.518 606.448 356.969 606.669 356.399 606.902C355.829 607.134 355.311 607.366 354.85 607.594C354.13 607.946 353.51 608.326 352.995 608.725C352.473 609.126 351.92 609.471 351.33 609.762C350.947 609.952 350.571 609.984 350.207 609.861C349.844 609.737 349.569 609.481 349.378 609.098C348.976 608.273 349.14 607.682 349.885 607.312C350.144 607.187 350.441 607.094 350.776 607.038C351.117 606.981 351.399 606.897 351.632 606.785C352.067 606.57 352.338 606.215 352.444 605.715C352.55 605.216 352.408 604.569 352.013 603.771L346.894 593.343Z" fill="#27316A"/>
<path d="M378.579 597.679C375.812 598.844 373.196 598.822 370.726 597.613C368.261 596.397 366.346 594.184 364.99 590.964C363.635 587.745 363.387 584.827 364.251 582.203C365.117 579.585 366.963 577.68 369.782 576.49C372.656 575.28 375.318 575.256 377.766 576.429C380.215 577.603 382.121 579.801 383.476 583.02C384.832 586.24 385.07 589.189 384.179 591.866C383.291 594.537 381.425 596.476 378.579 597.679ZM370.968 579.064C369.121 579.843 367.944 581.1 367.437 582.839C366.93 584.578 367.122 586.659 368.016 589.074L368.235 589.59C369.281 592.071 370.624 593.8 372.258 594.773C373.892 595.745 375.646 595.836 377.52 595.049C379.445 594.238 380.653 592.892 381.155 591.02C381.652 589.149 381.373 586.957 380.315 584.449C378.091 579.17 374.972 577.374 370.968 579.064Z" fill="#27316A"/>
<path d="M405.137 579.308C405.683 580.447 406.167 581.158 406.596 581.446C407.019 581.734 407.427 581.782 407.811 581.597C408.143 581.437 408.47 581.231 408.781 580.988C409.092 580.746 409.309 580.591 409.439 580.529C410.264 580.132 410.872 580.345 411.274 581.17C411.696 582.049 411.366 582.745 410.283 583.272C410.205 583.309 409.982 583.395 409.618 583.523C409.249 583.652 408.845 583.802 408.403 583.967C407.961 584.131 407.514 584.298 407.073 584.463C406.631 584.628 406.278 584.776 406.019 584.9C405.012 585.384 404.172 585.86 403.493 586.331C402.815 586.801 402.411 587.067 402.281 587.129C401.248 587.626 400.527 587.448 400.117 586.595C399.695 585.717 399.884 585.085 400.684 584.701C400.917 584.589 401.237 584.496 401.645 584.427C402.053 584.358 402.363 584.273 402.571 584.174C402.981 583.976 403.169 583.637 403.135 583.161C403.096 582.687 402.8 581.869 402.242 580.705L397.879 571.647C397.334 570.514 396.849 569.798 396.42 569.51C395.997 569.221 395.589 569.173 395.205 569.359C394.867 569.52 394.546 569.725 394.235 569.967C393.924 570.21 393.707 570.364 393.577 570.426C392.752 570.823 392.144 570.61 391.742 569.785C391.32 568.907 391.65 568.21 392.733 567.683C392.811 567.646 393.028 567.562 393.398 567.433C393.767 567.304 394.171 567.154 394.613 566.989C395.055 566.824 395.502 566.658 395.943 566.493C396.385 566.328 396.738 566.18 396.997 566.055L409.794 559.886C410.054 559.762 410.386 559.578 410.79 559.335C411.194 559.092 411.604 558.848 412.008 558.605C412.413 558.362 412.78 558.134 413.112 557.927C413.444 557.72 413.646 557.599 413.724 557.562C414.803 557.042 415.558 557.217 415.98 558.096C416.377 558.922 416.165 559.53 415.341 559.933C415.211 559.995 414.957 560.071 414.572 560.163C414.188 560.255 413.83 560.382 413.492 560.543C413.108 560.729 412.895 561.08 412.856 561.592C412.817 562.104 413.073 562.925 413.619 564.064L417.982 573.121C418.539 574.28 418.997 575.027 419.343 575.354C419.688 575.68 420.07 575.74 420.48 575.542C420.688 575.443 420.943 575.255 421.257 574.977C421.565 574.7 421.842 574.507 422.07 574.397C422.87 574.012 423.48 574.259 423.902 575.138C424.311 575.99 424 576.665 422.972 577.16C422.842 577.222 422.385 577.373 421.595 577.609C420.804 577.846 419.906 578.209 418.899 578.692C418.64 578.817 418.308 579.001 417.903 579.244C417.499 579.486 417.089 579.731 416.685 579.974C416.281 580.217 415.908 580.446 415.582 580.651C415.25 580.858 415.048 580.98 414.97 581.017C413.89 581.537 413.135 581.362 412.713 580.483C412.316 579.657 412.529 579.048 413.352 578.646C413.482 578.584 413.737 578.507 414.121 578.415C414.505 578.323 414.864 578.197 415.201 578.035C415.591 577.849 415.799 577.498 415.837 576.987C415.876 576.475 415.626 575.652 415.074 574.515L410.711 565.457C410.339 564.683 409.999 564.145 409.696 563.849C409.393 563.553 409.026 563.506 408.585 563.718L400.93 567.405C400.416 567.653 400.166 567.996 400.19 568.434C400.208 568.872 400.403 569.476 400.774 570.251L405.137 579.308Z" fill="#27316A"/>
<path d="M423.528 553.689L424.189 554.891C424.514 552.16 425.889 550.124 428.315 548.783C430.817 547.399 433.287 547.167 435.721 548.076C438.15 548.992 440.188 550.929 441.814 553.887C443.57 557.075 444.192 560.043 443.67 562.801C443.149 565.559 441.575 567.663 438.944 569.115C436.763 570.318 434.579 570.529 432.382 569.747L434.103 572.868C434.63 573.818 434.993 574.42 435.196 574.666C435.774 575.359 436.353 575.55 436.929 575.228C437.103 575.131 437.347 574.947 437.658 574.681C437.968 574.41 438.208 574.232 438.387 574.134C439.189 573.69 439.816 573.887 440.275 574.709C440.731 575.538 440.433 576.244 439.38 576.821C439.001 577.028 438.415 577.288 437.604 577.606C437.01 577.833 436.167 578.252 435.064 578.865C434.462 579.199 433.973 579.499 433.605 579.767C432.671 580.448 432.04 580.877 431.718 581.053C431.294 581.289 430.858 581.359 430.412 581.257C429.968 581.16 429.648 580.932 429.455 580.585C429.011 579.782 429.217 579.146 430.069 578.672C430.216 578.588 430.479 578.498 430.848 578.392C431.327 578.259 431.669 578.137 431.872 578.021C432.348 577.76 432.506 577.352 432.349 576.803C432.191 576.254 431.508 574.852 430.303 572.61L422.329 558.066C421.667 556.928 421.024 556.532 420.401 556.877C420.227 556.973 419.979 557.165 419.668 557.454C419.352 557.745 419.094 557.945 418.894 558.054C417.97 558.563 417.277 558.407 416.821 557.578C416.378 556.775 416.706 556.073 417.809 555.46C418.085 555.308 418.389 555.155 418.728 554.998C419.382 554.704 419.858 554.471 420.16 554.307C420.384 554.18 420.701 553.983 421.104 553.711C421.507 553.439 421.813 553.245 422.012 553.136C422.634 552.808 423.14 552.988 423.528 553.689ZM426.621 557.965C426.937 559.069 427.467 560.328 428.219 561.747C428.274 561.85 428.364 562.043 428.49 562.331C428.611 562.557 428.708 562.731 428.781 562.858C429.709 564.535 430.52 565.682 431.218 566.298C431.917 566.914 432.835 567.292 433.98 567.444C435.126 567.596 436.301 567.337 437.502 566.676C439.305 565.68 440.339 564.25 440.599 562.387C440.859 560.524 440.323 558.374 438.982 555.944C436.213 550.926 433.052 549.403 429.498 551.37C428.297 552.031 427.428 552.988 426.888 554.233C426.356 555.483 426.264 556.726 426.621 557.965Z" fill="#27316A"/>
<path d="M454.952 536.722C454.636 536.92 454.341 537.158 454.056 537.435C453.771 537.711 453.572 537.89 453.452 537.968C452.679 538.456 452.047 538.308 451.558 537.534C451.04 536.709 451.29 535.975 452.31 535.336C452.379 535.289 452.591 535.182 452.942 535.005C453.289 534.835 453.676 534.638 454.091 534.415C454.513 534.197 454.93 533.98 455.352 533.762C455.774 533.543 456.101 533.361 456.347 533.205C457.29 532.609 458.081 532.052 458.708 531.519C459.337 530.991 459.714 530.685 459.834 530.608C460.803 530 461.539 530.098 462.04 530.898C462.559 531.723 462.439 532.372 461.69 532.842C461.474 532.979 461.163 533.105 460.762 533.225C460.361 533.344 460.065 533.46 459.874 533.579C459.487 533.823 459.338 534.176 459.428 534.644C459.518 535.111 459.909 535.892 460.589 536.985L465.927 545.502C466.613 546.594 467.143 547.281 467.525 547.569C467.907 547.857 468.291 547.876 468.677 547.632C468.874 547.512 469.104 547.295 469.386 546.984C469.663 546.675 469.914 546.448 470.131 546.316C470.879 545.846 471.518 546.022 472.032 546.848C472.533 547.648 472.299 548.355 471.329 548.963C471.209 549.041 470.77 549.24 470.008 549.562C469.251 549.883 468.395 550.346 467.452 550.942C467.211 551.097 466.9 551.316 466.524 551.599C466.148 551.887 465.768 552.176 465.392 552.464C465.017 552.752 464.676 553.014 464.372 553.261C464.066 553.502 463.882 553.648 463.805 553.691C462.785 554.33 462.022 554.238 461.503 553.413C461.015 552.639 461.162 552.007 461.935 551.518C462.055 551.441 462.303 551.337 462.678 551.207C463.052 551.076 463.394 550.908 463.711 550.71C464.072 550.484 464.246 550.113 464.231 549.598C464.211 549.084 463.871 548.295 463.203 547.229L459.046 540.604L455.424 552.925C455.268 553.432 455.185 553.838 455.175 554.143C455.167 554.455 455.246 554.744 455.413 555.01C455.7 555.474 456.102 555.541 456.61 555.225C456.807 555.105 457.043 554.887 457.319 554.578C457.596 554.268 457.847 554.041 458.064 553.91C458.818 553.438 459.451 553.615 459.97 554.44C460.471 555.24 460.237 555.947 459.267 556.555C459.147 556.633 458.709 556.832 457.946 557.154C457.189 557.475 456.334 557.938 455.389 558.529C455.148 558.683 454.837 558.902 454.462 559.191C454.086 559.479 453.711 559.767 453.329 560.051C452.954 560.339 452.613 560.601 452.308 560.847C452.004 561.094 451.818 561.234 451.742 561.277C450.722 561.916 449.959 561.825 449.44 561C448.952 560.226 449.099 559.593 449.872 559.105C449.992 559.027 450.24 558.924 450.614 558.793C450.989 558.663 451.331 558.494 451.647 558.297C452.009 558.071 452.183 557.7 452.168 557.184C452.148 556.67 451.807 555.882 451.14 554.815L445.796 546.299C445.128 545.232 444.565 544.576 444.114 544.335C443.662 544.094 443.247 544.089 442.886 544.321C442.57 544.518 442.275 544.757 441.99 545.033C441.705 545.31 441.506 545.489 441.386 545.566C440.613 546.055 439.981 545.907 439.492 545.133C438.974 544.308 439.224 543.573 440.244 542.934C440.313 542.888 440.525 542.781 440.876 542.604C441.223 542.434 441.61 542.237 442.025 542.014C442.448 541.796 442.864 541.579 443.286 541.361C443.709 541.142 444.039 540.953 444.281 540.804C445.226 540.214 446.015 539.651 446.642 539.118C447.271 538.59 447.648 538.284 447.768 538.207C448.737 537.599 449.472 537.692 449.974 538.497C450.493 539.322 450.373 539.971 449.624 540.441C449.409 540.578 449.097 540.704 448.696 540.823C448.296 540.943 447.999 541.059 447.808 541.178C447.421 541.422 447.272 541.775 447.362 542.242C447.452 542.71 447.838 543.492 448.523 544.584L452.927 551.606L456.693 538.776C456.81 538.367 456.846 538.025 456.818 537.758C456.786 537.492 456.679 537.21 456.494 536.919C456.28 536.582 456.025 536.426 455.725 536.461C455.427 536.502 455.168 536.586 454.952 536.722Z" fill="#27316A"/>
<path d="M473.879 532.044L482.85 525.629L480.876 522.865C480.126 521.819 479.556 521.159 479.158 520.899C478.76 520.639 478.375 520.637 478.001 520.908C477.814 521.043 477.592 521.269 477.332 521.597C477.072 521.926 476.84 522.16 476.628 522.313C475.909 522.829 475.262 522.69 474.699 521.9C474.148 521.13 474.339 520.416 475.27 519.748C475.389 519.665 475.808 519.436 476.538 519.052C477.269 518.673 478.087 518.156 478.993 517.505C479.225 517.341 479.525 517.101 479.886 516.799C480.244 516.492 480.61 516.189 480.969 515.882C481.329 515.58 481.659 515.298 481.949 515.043C482.24 514.788 482.421 514.631 482.491 514.584C483.467 513.886 484.242 513.934 484.805 514.724C485.338 515.469 485.233 516.109 484.489 516.642C484.37 516.725 484.133 516.844 483.77 517C483.408 517.157 483.071 517.342 482.771 517.558C482.421 517.811 482.272 518.187 482.321 518.699C482.37 519.212 482.757 519.977 483.489 520.998L489.313 529.159C490.063 530.205 490.631 530.859 491.03 531.119C491.428 531.38 491.811 531.375 492.181 531.112C492.368 530.977 492.591 530.751 492.851 530.422C493.111 530.094 493.342 529.86 493.554 529.707C494.273 529.191 494.922 529.335 495.494 530.14C496.053 530.92 495.865 531.644 494.934 532.313C494.815 532.396 494.389 532.621 493.65 532.99C492.911 533.359 492.09 533.865 491.178 534.518C490.946 534.682 490.651 534.92 490.289 535.234C489.93 535.541 489.572 535.854 489.214 536.161C488.855 536.468 488.532 536.755 488.242 537.015C487.953 537.275 487.777 537.431 487.702 537.479C486.726 538.177 485.95 538.124 485.372 537.32C484.83 536.565 484.934 535.921 485.678 535.387C485.797 535.304 486.035 535.185 486.397 535.029C486.759 534.873 487.096 534.687 487.397 534.471C487.746 534.219 487.895 533.842 487.853 533.334C487.805 532.827 487.418 532.062 486.692 531.039L484.536 528.018L475.565 534.432L477.721 537.453C478.446 538.471 479.046 539.088 479.513 539.296C479.979 539.504 480.389 539.487 480.733 539.236C481.033 539.02 481.318 538.766 481.581 538.472C481.844 538.177 482.035 537.989 482.154 537.906C482.898 537.372 483.545 537.488 484.081 538.244C484.653 539.049 484.454 539.8 483.478 540.498C483.409 540.55 483.2 540.667 482.864 540.858C482.523 541.05 482.151 541.261 481.74 541.5C481.329 541.739 480.923 541.976 480.514 542.22C480.103 542.459 479.782 542.664 479.55 542.828C478.643 543.478 477.896 544.089 477.304 544.671C476.718 545.252 476.365 545.581 476.246 545.664C475.315 546.333 474.571 546.271 474.01 545.486C473.438 544.681 473.51 544.027 474.235 543.51C474.447 543.357 474.743 543.217 475.138 543.076C475.528 542.936 475.819 542.797 476.007 542.668C476.377 542.404 476.506 542.039 476.389 541.579C476.271 541.119 475.841 540.365 475.091 539.319L469.267 531.158C468.535 530.137 467.941 529.519 467.473 529.305C467.005 529.092 466.597 529.114 466.247 529.366C465.947 529.583 465.662 529.836 465.399 530.131C465.136 530.425 464.945 530.614 464.826 530.696C464.082 531.23 463.444 531.124 462.91 530.379C462.346 529.583 462.554 528.842 463.528 528.139C463.597 528.087 463.8 527.971 464.14 527.773C464.475 527.577 464.845 527.361 465.255 527.116C465.659 526.873 466.069 526.629 466.473 526.386C466.877 526.143 467.198 525.939 467.429 525.769C468.335 525.119 469.09 524.512 469.686 523.946C470.281 523.38 470.641 523.055 470.753 522.969C471.686 522.305 472.427 522.356 472.973 523.127C473.542 523.921 473.463 524.572 472.738 525.089C472.532 525.24 472.224 525.383 471.835 525.523C471.445 525.663 471.154 525.801 470.966 525.931C470.59 526.195 470.467 526.559 470.584 527.019C470.702 527.48 471.139 528.237 471.884 529.285L473.879 532.044Z" fill="#27316A"/>
<path d="M511.895 511.305C512.582 512.151 513.157 512.716 513.625 512.999C514.093 513.282 514.593 513.208 515.129 512.774C515.418 512.537 515.65 512.303 515.829 512.065C516.007 511.827 516.161 511.654 516.297 511.549C516.784 511.151 517.259 510.977 517.726 511.028C518.188 511.079 518.574 511.29 518.879 511.667C518.972 511.778 519.104 511.978 519.275 512.261C519.452 512.543 519.631 512.835 519.826 513.142C520.02 513.448 520.205 513.739 520.391 514.013C520.577 514.286 520.714 514.479 520.806 514.59C521.02 514.856 521.287 515.15 521.6 515.467C521.914 515.784 522.207 516.111 522.479 516.445C522.75 516.778 522.849 517.121 522.786 517.469C522.718 517.819 522.531 518.117 522.218 518.372C521.44 519.002 520.734 518.931 520.105 518.152C520.036 518.064 519.935 517.921 519.815 517.724C519.695 517.527 519.566 517.338 519.431 517.151C519.295 516.964 519.18 516.783 519.072 516.612C518.97 516.44 518.877 516.306 518.809 516.218C518.427 515.75 518.102 515.389 517.823 515.139C517.542 514.884 517.265 514.756 516.978 514.748C516.695 514.738 516.382 514.835 516.048 515.031C515.714 515.233 515.276 515.548 514.745 515.981L503.023 525.499C502.8 525.678 502.522 525.936 502.181 526.268C501.84 526.599 501.505 526.93 501.164 527.262C500.823 527.593 500.517 527.899 500.248 528.172C499.975 528.451 499.808 528.616 499.739 528.669C498.808 529.425 498.034 529.43 497.421 528.67C496.844 527.959 496.907 527.313 497.621 526.734C497.732 526.642 497.967 526.512 498.318 526.335C498.675 526.157 498.996 525.953 499.279 525.717C499.612 525.446 499.741 525.057 499.659 524.553C499.583 524.047 499.142 523.302 498.346 522.326L492.013 514.523C491.199 513.522 490.587 512.902 490.178 512.668C489.762 512.43 489.378 512.457 489.026 512.745C488.847 512.89 488.642 513.135 488.402 513.476C488.163 513.817 487.948 514.07 487.744 514.233C487.054 514.793 486.406 514.696 485.793 513.936C485.198 513.201 485.345 512.475 486.233 511.753C486.344 511.661 486.751 511.405 487.458 510.98C488.166 510.555 488.948 509.988 489.811 509.284C490.034 509.105 490.319 508.852 490.66 508.52C491.002 508.194 491.344 507.867 491.685 507.536C492.027 507.209 492.335 506.909 492.615 506.634C492.894 506.359 493.063 506.199 493.13 506.141C494.062 505.384 494.836 505.38 495.449 506.14C496.026 506.851 495.958 507.498 495.248 508.075C495.138 508.168 494.903 508.297 494.552 508.474C494.2 508.651 493.874 508.857 493.59 509.092C493.257 509.364 493.129 509.752 493.211 510.257C493.294 510.766 493.727 511.508 494.524 512.483L500.857 520.287C501.399 520.954 501.851 521.399 502.216 521.621C502.581 521.843 502.949 521.802 503.325 521.49L510.082 515.995C510.459 515.69 510.578 515.333 510.435 514.931C510.292 514.53 509.951 513.993 509.409 513.326L503.076 505.522C502.279 504.547 501.647 503.961 501.164 503.781C500.686 503.599 500.279 503.644 499.946 503.916C499.656 504.153 499.388 504.425 499.146 504.732C498.898 505.04 498.722 505.242 498.611 505.335C497.902 505.912 497.257 505.849 496.678 505.133C496.067 504.378 496.223 503.621 497.155 502.864C497.223 502.812 497.416 502.676 497.741 502.464C498.064 502.248 498.424 502.011 498.81 501.743C499.202 501.474 499.594 501.205 499.98 500.938C500.372 500.669 500.676 500.445 500.898 500.266C501.762 499.562 502.475 498.908 503.038 498.304C503.601 497.7 503.932 497.353 504.044 497.266C504.932 496.544 505.673 496.548 506.268 497.283C506.88 498.038 506.844 498.7 506.153 499.255C505.955 499.417 505.664 499.578 505.281 499.746C504.897 499.908 504.617 500.066 504.438 500.211C504.081 500.5 503.977 500.871 504.127 501.323C504.272 501.776 504.754 502.505 505.563 503.507L511.895 511.305Z" fill="#27316A"/>
<path d="M535.609 498.313C533.881 499.902 532.134 500.131 530.353 498.998C530.728 501.569 529.768 503.907 527.474 506.02C525.77 507.585 524.018 508.416 522.219 508.513C520.425 508.608 518.876 507.946 517.578 506.532C515.973 504.782 515.539 502.804 516.28 500.609C516.555 499.769 516.86 499.114 517.183 498.641C517.505 498.168 518.224 497.285 519.33 496C520.924 494.182 521.834 492.859 522.066 492.03C522.291 491.197 521.994 490.328 521.157 489.421C520.365 488.555 519.44 488.148 518.383 488.208C517.326 488.267 516.263 488.782 515.187 489.774C514.238 490.645 513.598 491.724 513.26 493.006C513.138 493.51 513.185 493.877 513.396 494.109C513.475 494.194 513.666 494.21 513.97 494.167C514.461 494.107 514.932 494.331 515.398 494.836C515.785 495.257 515.95 495.746 515.9 496.301C515.849 496.857 515.589 497.349 515.126 497.77C514.577 498.271 513.943 498.503 513.228 498.463C512.513 498.424 511.902 498.13 511.4 497.575C510.318 496.392 509.97 494.842 510.368 492.926C510.764 491.005 511.794 489.284 513.455 487.753C517.289 484.228 520.9 484.317 524.286 488.006L530.15 494.4C531.078 495.412 531.652 495.996 531.865 496.145C532.67 496.769 533.367 496.807 533.958 496.266C534.694 495.588 534.447 494.572 533.207 493.225L531.786 491.673C531.166 490.997 531.185 490.362 531.835 489.759C532.529 489.122 533.345 489.305 534.274 490.322L534.419 490.478L536.044 492.31C537.864 494.379 537.716 496.383 535.609 498.313ZM526.326 495.239L524.296 492.962C524.22 493.81 524.002 494.554 523.636 495.201C523.276 495.847 522.492 496.84 521.279 498.187C519.093 500.628 518.702 502.618 520.114 504.16C520.849 504.964 521.723 505.331 522.725 505.263C523.728 505.194 524.728 504.706 525.719 503.795C527.131 502.496 527.891 501.089 527.995 499.575C528.098 498.055 527.543 496.61 526.326 495.239Z" fill="#27316A"/>
</g>
<defs>
<clipPath id="clip0_12_24">
<rect width="371.856" height="215.945" fill="white" transform="translate(173.493 572.932) rotate(-14.2833)"/>
</clipPath>
</defs>
</svg>
