<svg width="555" height="588" viewBox="0 0 555 588" fill="none" xmlns="http://www.w3.org/2000/svg">
<path d="M6.8572 343.614L10.2417 344.921C11.1578 345.274 12.1983 345.153 13.0207 344.592L16.0548 342.536C16.4371 342.278 16.9408 342.563 16.9162 343.021L16.6737 346.654C16.6091 347.637 17.0335 348.589 17.8057 349.186L20.6621 351.402C21.0234 351.682 20.8976 352.255 20.4555 352.372L16.9227 353.312C15.9662 353.566 15.1873 354.276 14.8443 355.204L13.5787 358.634C13.421 359.063 12.8387 359.135 12.594 358.749L10.654 355.699C10.1279 354.87 9.22412 354.363 8.23912 354.335L4.59164 354.237C4.13263 354.227 3.89595 353.691 4.18844 353.335L6.51917 350.506C7.15456 349.739 7.3678 348.718 7.10572 347.769L6.12037 344.278C5.99678 343.849 6.43413 343.451 6.8572 343.614Z" fill="#27316A"/>
<path d="M241.046 577.21L242.119 570.787C242.408 569.049 241.824 567.275 240.55 566.05L235.871 561.526C235.283 560.956 235.601 559.965 236.411 559.833L242.845 558.869C244.586 558.606 246.096 557.499 246.863 555.92L249.713 550.074C250.072 549.335 251.118 549.336 251.481 550.065L254.388 555.888C255.175 557.464 256.693 558.556 258.439 558.801L264.884 559.705C265.69 559.817 266.024 560.808 265.438 561.384L260.802 565.946C259.542 567.183 258.979 568.959 259.284 570.693L260.418 577.114C260.565 577.921 259.713 578.54 258.985 578.164L253.208 575.167C251.641 574.348 249.781 574.365 248.218 575.187L242.469 578.246C241.765 578.626 240.912 578.013 241.046 577.21Z" fill="#2780BF" fill-opacity="0.32"/>
<path d="M276.989 487.187L287.486 491.343C290.327 492.467 293.537 492.127 296.059 490.417L305.363 484.152C306.535 483.366 308.101 484.266 308.04 485.684L307.411 496.919C307.243 499.96 308.586 502.918 310.99 504.791L319.886 511.745C321.012 512.622 320.642 514.392 319.28 514.739L308.399 517.532C305.453 518.289 303.07 520.459 302.041 523.322L298.245 533.895C297.772 535.218 295.976 535.421 295.207 534.219L289.115 524.713C287.462 522.131 284.654 520.532 281.611 520.415L270.341 519.991C268.923 519.944 268.174 518.277 269.066 517.184L276.172 508.505C278.109 506.153 278.734 503.001 277.893 500.056L274.735 489.216C274.339 487.886 275.677 486.667 276.989 487.187Z" fill="#2780BF"/>
<path d="M131.819 570.611C131.805 568.119 130.138 566.781 126.835 566.581C126.693 569.723 126.267 572.6 125.555 575.205C124.843 577.81 123.804 580.051 122.437 581.929C121.071 583.806 119.326 585.273 117.195 586.314C115.064 587.362 112.513 587.893 109.534 587.915C106.615 587.938 104.088 587.439 101.968 586.425C99.8478 585.412 98.0938 583.988 96.6985 582.154C95.3031 580.32 94.2352 578.112 93.4876 575.515C92.74 572.918 92.2421 570.027 92.0019 566.828C88.7586 567.12 87.1446 568.486 87.1599 570.925C87.1642 572.009 87.245 572.809 87.3798 573.317C87.5219 573.834 87.5893 574.332 87.5968 574.822C87.6052 575.53 87.3462 576.124 86.8348 576.612C86.3233 577.101 85.6913 577.352 84.9314 577.359C83.0354 577.376 82.079 576.188 82.0621 573.801C82.0519 572.175 82.2004 570.524 82.5154 568.84C82.8304 567.156 82.9771 565.317 82.9635 563.314C82.949 561.583 82.7762 559.861 82.4374 558.157C82.0986 556.454 81.9256 554.74 81.9114 553C81.8944 550.614 82.8338 549.416 84.7296 549.407C85.4895 549.4 86.1291 549.638 86.6405 550.128C87.1597 550.61 87.4198 551.205 87.4281 551.913C87.4356 552.403 87.3673 552.912 87.2377 553.458C87.1081 554.003 87.0465 554.784 87.0525 555.815C87.0721 558.36 88.7072 559.735 91.9582 559.925C92.0999 556.783 92.5117 553.906 93.1935 551.3C93.8753 548.694 94.8621 546.444 96.1468 544.534C97.4313 542.631 99.0567 541.138 101.03 540.07C102.996 539.001 105.337 538.456 108.038 538.434C110.747 538.412 113.183 538.908 115.356 539.923C117.529 540.938 119.41 542.388 120.992 544.266C122.574 546.151 123.851 548.403 124.816 551.022C125.781 553.641 126.415 556.52 126.702 559.66C130.058 559.364 131.725 557.971 131.704 555.479C131.703 555.26 131.675 554.966 131.619 554.588C131.563 554.21 131.515 553.817 131.489 553.41C131.464 553.003 131.416 552.625 131.359 552.277C131.302 551.929 131.271 551.695 131.275 551.589C131.259 549.91 132.127 549.064 133.857 549.049C135.806 549.034 136.792 550.223 136.802 552.602C136.814 554.175 136.652 555.774 136.309 557.396C135.965 559.027 135.801 560.708 135.815 562.439C135.825 564.336 135.979 566.177 136.262 567.962C136.546 569.747 136.775 571.591 136.95 573.485C136.969 575.812 136 576.986 134.052 577.002C132.321 577.016 131.444 576.184 131.436 574.505C131.439 574.4 131.499 573.92 131.63 573.081C131.761 572.25 131.824 571.424 131.819 570.611ZM108.901 545.588C105.17 545.616 102.444 546.925 100.725 549.507C99.0137 552.088 98.0348 555.551 97.7963 559.886L120.938 559.717C120.763 557.604 120.385 555.688 119.799 553.954C119.22 552.227 118.438 550.743 117.454 549.501C116.469 548.259 115.272 547.297 113.865 546.599C112.449 545.915 110.797 545.579 108.901 545.588ZM109.4 580.768C113.244 580.743 116.061 579.422 117.856 576.805C119.651 574.196 120.696 570.773 120.992 566.545L97.9327 566.71C98.2375 570.987 99.2758 574.405 101.047 576.966C102.827 579.527 105.608 580.794 109.4 580.768Z" fill="#FDC504"/>
<path d="M141.537 498.857C141.07 503.276 138.872 505.79 134.934 506.406C138.68 509.585 140.241 514.111 139.617 519.978C139.152 524.344 137.709 527.717 135.275 530.096C132.847 532.482 129.823 533.481 126.216 533.099C121.748 532.623 118.666 530.361 116.978 526.312C116.325 524.772 115.937 523.465 115.805 522.385C115.672 521.312 115.588 519.164 115.551 515.942C115.549 511.366 115.19 508.344 114.476 506.877C113.761 505.41 112.245 504.558 109.929 504.314C107.724 504.08 105.901 504.664 104.474 506.065C103.047 507.466 102.186 509.54 101.899 512.286C101.644 514.709 102.076 517.041 103.196 519.288C103.65 520.152 104.17 520.62 104.762 520.683C104.98 520.705 105.272 520.496 105.647 520.041C106.263 519.344 107.219 519.065 108.516 519.203C109.596 519.319 110.438 519.804 111.059 520.658C111.679 521.513 111.919 522.536 111.792 523.722C111.644 525.125 111.038 526.243 109.966 527.083C108.895 527.923 107.666 528.269 106.264 528.121C103.25 527.802 100.822 526.027 98.988 522.809C97.1538 519.591 96.4639 515.852 96.9105 511.598C97.9488 501.793 103.184 497.392 112.6 498.397L128.907 500.132C131.493 500.407 133.032 500.515 133.53 500.462C135.444 500.341 136.485 499.522 136.644 498.014C136.845 496.131 135.224 495.005 131.776 494.636L127.817 494.213C126.093 494.032 125.324 493.105 125.503 491.432C125.693 489.654 127.078 488.906 129.664 489.182L130.069 489.224L134.662 489.794C139.817 490.449 142.109 493.47 141.537 498.857ZM124.518 506.117L118.793 505.429C119.746 506.73 120.367 508.059 120.655 509.43C120.945 510.794 121.074 513.191 121.036 516.622C120.974 522.822 122.91 526.133 126.839 526.555C128.885 526.776 130.58 526.203 131.916 524.844C133.259 523.486 134.063 521.546 134.329 519.018C134.71 515.409 134.034 512.46 132.291 510.179C130.549 507.89 127.958 506.538 124.518 506.117Z" fill="#FDC504"/>
<path d="M121.758 485.047C115.937 483.792 111.244 482.564 107.685 481.356C104.127 480.148 101.377 478.821 99.4436 477.377C97.5097 475.933 96.2282 474.313 95.5913 472.517C94.9545 470.721 94.6296 468.566 94.6084 466.074C94.583 465.185 94.5621 464.153 94.5678 462.987C94.5736 461.82 94.5716 460.661 94.5698 459.495C94.568 458.328 94.5715 457.237 94.5728 456.213C94.5742 455.19 94.5461 454.391 94.5031 453.833C94.2973 451.96 94.0103 450.777 93.6493 450.284C93.2884 449.791 92.6821 449.449 91.8301 449.272C91.2995 449.158 90.8425 449.099 90.4588 449.102C90.0751 449.105 89.6705 449.055 89.2444 448.967C87.8696 448.669 87.3762 447.592 87.7789 445.746C88.042 444.527 88.5401 443.737 89.2886 443.368C90.0295 443 90.9864 442.946 92.1522 443.193C93.7363 443.535 95.0489 443.899 96.0676 444.284C97.0937 444.669 97.8919 445.131 98.4694 445.675C99.0471 446.212 99.4706 446.872 99.7474 447.656C100.024 448.44 100.206 449.386 100.291 450.518C100.42 451.485 100.487 452.722 100.494 454.22C100.508 455.718 100.52 457.261 100.54 458.843C100.559 460.424 100.58 461.937 100.603 463.383C100.626 464.829 100.69 465.952 100.793 466.746C100.991 468.4 101.391 469.812 101.994 470.998C102.597 472.183 103.319 473.153 104.146 473.916C104.98 474.68 105.871 475.287 106.828 475.737C107.784 476.196 108.737 476.519 109.686 476.728C108.956 475.743 108.31 474.744 107.754 473.734C107.191 472.73 106.75 471.648 106.417 470.494C106.084 469.339 105.896 468.107 105.839 466.795C105.789 465.484 105.948 463.976 106.308 462.286C106.967 459.213 108.069 456.628 109.601 454.515C111.132 452.409 112.98 450.78 115.136 449.642C117.292 448.496 119.698 447.795 122.354 447.538C125.009 447.281 127.824 447.473 130.783 448.105C133.69 448.729 136.284 449.75 138.557 451.152C140.831 452.554 142.697 454.244 144.156 456.224C145.614 458.203 146.598 460.446 147.108 462.968C147.617 465.49 147.564 468.175 146.95 471.039C146.354 473.791 145.369 476.214 143.974 478.294C142.586 480.381 140.827 482.051 138.705 483.31C136.575 484.569 134.099 485.366 131.261 485.693C128.415 486.012 125.248 485.802 121.758 485.047ZM111.564 463.328C110.74 467.142 111.421 470.422 113.601 473.161C115.781 475.9 119.281 477.791 124.093 478.827C128.86 479.854 132.794 479.621 135.916 478.129C139.031 476.636 141 473.987 141.817 470.174C142.65 466.308 141.962 462.99 139.768 460.213C137.567 457.444 134.06 455.537 129.248 454.501C119.19 452.333 113.293 455.275 111.564 463.328Z" fill="#FDC504"/>
<path d="M118.686 423.453L121.142 424.296C118.128 420.056 117.472 415.46 119.167 410.484C120.919 405.36 124.072 401.889 128.641 400.072C133.21 398.256 138.516 398.381 144.56 400.449C151.066 402.673 155.701 406.044 158.481 410.571C161.252 415.096 161.725 420.048 159.882 425.434C158.361 429.895 155.566 432.971 151.489 434.674L157.869 436.857C159.811 437.519 161.086 437.905 161.685 437.991C163.378 438.223 164.423 437.751 164.827 436.574C164.951 436.217 165.059 435.656 165.15 434.883C165.241 434.111 165.349 433.55 165.473 433.192C166.035 431.554 167.157 431.024 168.846 431.602C170.536 432.181 171.013 433.543 170.277 435.696C170.013 436.463 169.52 437.584 168.79 439.052C168.253 440.127 167.6 441.793 166.824 444.049C166.403 445.278 166.107 446.323 165.931 447.176C165.489 449.315 165.152 450.719 164.921 451.382C164.624 452.254 164.1 452.907 163.357 453.336C162.607 453.765 161.874 453.863 161.16 453.615C159.522 453.053 159.001 451.9 159.596 450.157C159.703 449.852 159.943 449.393 160.323 448.772C160.821 447.975 161.149 447.367 161.289 446.958C161.62 445.982 161.328 445.213 160.405 444.643C159.482 444.072 156.755 442.98 152.209 441.373L122.579 431.159C120.21 430.402 118.803 430.667 118.365 431.948C118.241 432.306 118.14 432.89 118.071 433.693C118.001 434.496 117.892 435.102 117.751 435.512C117.106 437.411 115.935 438.068 114.246 437.489C112.608 436.927 112.17 435.521 112.939 433.264C113.129 432.698 113.366 432.096 113.649 431.442C114.192 430.194 114.566 429.265 114.773 428.654C114.93 428.192 115.116 427.513 115.339 426.617C115.563 425.72 115.741 425.063 115.881 424.654C116.312 423.357 117.249 422.965 118.686 423.453ZM128.454 425.507C130.292 426.647 132.642 427.743 135.492 428.771C135.7 428.838 136.071 429 136.62 429.242C137.082 429.4 137.439 429.523 137.7 429.607C141.131 430.781 143.724 431.35 145.477 431.321C147.231 431.292 149.01 430.654 150.809 429.407C152.607 428.161 153.928 426.312 154.771 423.846C156.035 420.152 155.663 416.836 153.662 413.892C151.662 410.948 148.183 408.628 143.211 406.925C132.968 403.427 126.6 405.308 124.119 412.593C123.277 415.051 123.277 417.497 124.105 419.931C124.917 422.365 126.372 424.223 128.454 425.507Z" fill="#FDC504"/>
<path d="M148.322 359.047C148.009 359.677 147.755 360.354 147.575 361.079C147.395 361.804 147.237 362.288 147.117 362.533C146.34 364.082 145.177 364.468 143.629 363.69C141.984 362.864 141.675 361.432 142.692 359.401C142.765 359.253 142.994 358.876 143.39 358.256C143.785 357.636 144.212 356.941 144.672 356.173C145.139 355.404 145.607 354.643 146.067 353.875C146.534 353.106 146.884 352.485 147.132 352.003C148.078 350.113 148.806 348.434 149.303 346.959C149.799 345.484 150.112 344.621 150.232 344.384C151.201 342.449 152.49 341.879 154.083 342.681C155.727 343.506 156.173 344.672 155.42 346.169C155.203 346.606 154.826 347.114 154.29 347.692C153.753 348.27 153.392 348.756 153.2 349.141C152.815 349.912 152.92 350.638 153.524 351.304C154.128 351.97 155.515 352.848 157.693 353.946L174.671 362.476C176.848 363.566 178.387 364.163 179.28 364.243C180.172 364.331 180.814 363.989 181.207 363.211C181.399 362.826 181.575 362.244 181.719 361.466C181.863 360.695 182.048 360.083 182.264 359.646C183.017 358.149 184.216 357.809 185.861 358.635C187.461 359.437 187.772 360.809 186.795 362.743C186.675 362.988 186.155 363.74 185.251 365.014C184.339 366.288 183.411 367.863 182.465 369.753C182.225 370.235 181.934 370.896 181.607 371.729C181.281 372.562 180.954 373.402 180.62 374.235C180.294 375.068 179.999 375.834 179.745 376.526C179.49 377.218 179.327 377.635 179.255 377.775C178.238 379.806 176.903 380.413 175.258 379.587C173.71 378.809 173.325 377.646 174.102 376.097C174.222 375.852 174.521 375.44 174.99 374.86C175.466 374.28 175.861 373.675 176.174 373.044C176.535 372.318 176.453 371.548 175.921 370.733C175.39 369.919 174.065 368.983 171.931 367.909L158.724 361.271L164.93 384.757C165.171 385.727 165.434 386.466 165.727 386.979C166.02 387.485 166.429 387.874 166.962 388.146C167.88 388.611 168.596 388.331 169.109 387.316C169.301 386.931 169.477 386.349 169.621 385.571C169.765 384.8 169.949 384.188 170.166 383.751C170.919 382.254 172.118 381.914 173.762 382.74C175.362 383.542 175.674 384.914 174.697 386.848C174.576 387.093 174.057 387.844 173.153 389.119C172.241 390.385 171.312 391.968 170.367 393.858C170.126 394.34 169.835 395.001 169.509 395.834C169.182 396.666 168.856 397.507 168.522 398.34C168.195 399.173 167.901 399.939 167.647 400.623C167.392 401.316 167.229 401.732 167.15 401.873C166.132 403.904 164.797 404.51 163.153 403.684C161.604 402.907 161.219 401.743 161.996 400.194C162.116 399.949 162.415 399.544 162.891 398.965C163.36 398.384 163.755 397.779 164.075 397.149C164.436 396.423 164.355 395.653 163.823 394.838C163.291 394.024 161.966 393.088 159.833 392.014L142.855 383.484C140.729 382.417 139.18 381.911 138.208 381.971C137.236 382.032 136.569 382.425 136.209 383.152C135.896 383.782 135.642 384.459 135.462 385.184C135.282 385.908 135.124 386.392 135.003 386.637C134.226 388.186 133.064 388.572 131.515 387.794C129.871 386.969 129.561 385.537 130.579 383.506C130.651 383.357 130.881 382.98 131.276 382.353C131.672 381.725 132.099 381.038 132.559 380.27C133.026 379.501 133.486 378.74 133.953 377.972C134.421 377.203 134.771 376.582 135.019 376.093C135.965 374.203 136.693 372.524 137.19 371.049C137.686 369.574 137.999 368.71 138.119 368.473C139.088 366.539 140.377 365.968 141.97 366.77C143.614 367.596 144.06 368.761 143.307 370.258C143.09 370.696 142.713 371.204 142.177 371.782C141.647 372.36 141.279 372.845 141.087 373.231C140.702 374.002 140.808 374.728 141.411 375.394C142.015 376.059 143.402 376.945 145.58 378.035L159.587 385.074L153.132 360.648C152.915 359.873 152.647 359.285 152.336 358.885C152.025 358.484 151.577 358.139 150.991 357.85C150.317 357.513 149.753 357.518 149.299 357.865C148.874 358.214 148.539 358.61 148.322 359.047Z" fill="#FDC504"/>
<path d="M181.262 305.852C180.483 306.957 180.574 308.149 181.536 309.421C182.287 310.415 183.064 311.327 183.844 312.141C184.624 312.955 185.365 313.821 186.044 314.73C186.73 315.639 187.301 316.643 187.757 317.726C188.22 318.809 188.481 320.111 188.548 321.611C190.624 320.358 192.586 319.68 194.431 319.594C196.284 319.508 198.315 320.24 200.524 321.798C200.877 322.05 201.333 322.388 201.892 322.811C202.45 323.243 202.906 323.58 203.267 323.825C204.283 324.541 205.21 324.968 206.049 325.099C206.887 325.23 207.637 324.817 208.313 323.852C209.391 322.327 208.505 320.561 205.678 318.57L202.423 316.28C201.01 315.28 200.783 314.099 201.751 312.721C202.781 311.263 204.043 311.061 205.553 312.116L210.603 315.665C214.852 318.656 215.375 322.428 212.181 326.981C210.695 329.096 209.07 330.325 207.291 330.685C205.513 331.044 203.501 330.433 201.24 328.843C200.666 328.441 200.04 327.986 199.372 327.476C198.703 326.974 198.011 326.471 197.304 325.967C195.493 324.692 193.784 324.271 192.191 324.704C190.598 325.136 189.059 326.263 187.589 328.07C186.764 330.468 185.287 333.471 183.154 337.063L188.271 340.66C190.266 342.061 191.693 342.873 192.566 343.088C193.44 343.303 194.124 343.06 194.627 342.353C194.879 342 195.129 341.45 195.392 340.706C195.656 339.961 195.922 339.39 196.205 338.992C197.172 337.622 198.41 337.464 199.912 338.519C201.37 339.55 201.478 340.945 200.235 342.721C200.077 342.942 199.455 343.615 198.368 344.734C197.28 345.859 196.13 347.284 194.912 349.008C194.605 349.45 194.225 350.063 193.772 350.84C193.327 351.616 192.875 352.393 192.429 353.177C191.984 353.953 191.579 354.663 191.228 355.307C190.87 355.951 190.655 356.344 190.56 356.476C189.254 358.34 187.843 358.733 186.341 357.679C184.928 356.679 184.717 355.476 185.708 354.054C185.865 353.833 186.215 353.467 186.772 352.965C187.321 352.463 187.804 351.921 188.206 351.346C188.67 350.683 188.701 349.909 188.3 349.023C187.89 348.145 186.714 347.017 184.771 345.641L169.228 334.701C167.285 333.332 165.825 332.602 164.857 332.52C163.89 332.437 163.174 332.724 162.71 333.387C162.301 333.961 161.958 334.598 161.673 335.289C161.389 335.981 161.164 336.44 161.007 336.661C160.008 338.076 158.791 338.279 157.348 337.264C155.824 336.194 155.719 334.723 157.024 332.866C157.119 332.733 157.407 332.389 157.898 331.839C158.389 331.29 158.919 330.674 159.497 329.984C160.075 329.302 160.66 328.612 161.238 327.93C161.815 327.248 162.261 326.682 162.576 326.24C163.787 324.516 164.745 322.95 165.435 321.548C166.125 320.147 166.541 319.332 166.699 319.111C167.941 317.343 169.306 316.978 170.794 318.017C172.325 319.096 172.604 320.316 171.636 321.694C171.353 322.092 170.911 322.537 170.301 323.038C169.692 323.531 169.257 323.961 169.006 324.315C168.51 325.022 168.51 325.752 169.006 326.498C169.502 327.251 170.748 328.32 172.743 329.729L179.583 334.545C180.788 332.55 181.751 330.826 182.472 329.373C183.194 327.927 183.707 326.633 184.013 325.491C184.319 324.349 184.433 323.321 184.349 322.4C184.264 321.48 184.014 320.576 183.583 319.675C182.841 318.094 181.847 316.686 180.599 315.444C179.351 314.201 178.283 312.949 177.382 311.687C176.48 310.425 175.974 309.024 175.863 307.493C175.753 305.962 176.457 304.102 177.982 301.936C178.541 301.14 179.247 300.424 180.087 299.787C180.926 299.158 181.836 298.682 182.815 298.381C183.795 298.072 184.813 297.983 185.885 298.106C186.957 298.23 187.997 298.653 189.02 299.369C190.125 300.149 190.823 301.156 191.116 302.384C191.409 303.62 191.116 304.853 190.25 306.091C189.535 307.108 188.681 307.706 187.706 307.872C186.723 308.045 185.79 307.82 184.906 307.191C184.332 306.79 183.96 306.424 183.781 306.103C183.611 305.782 183.47 305.461 183.375 305.127C183.154 304.97 182.832 304.93 182.416 305C181.985 305.084 181.608 305.366 181.262 305.852Z" fill="#FDC504"/>
<path d="M244.124 290.796C241.099 294.045 237.828 294.742 234.32 292.873C235.406 297.663 233.943 302.217 229.929 306.542C226.942 309.755 223.756 311.584 220.388 312.03C217.012 312.475 213.997 311.464 211.342 308.989C208.052 305.93 206.946 302.268 208.017 298.011C208.42 296.39 208.888 295.103 209.429 294.163C209.969 293.224 211.189 291.455 213.089 288.857C215.827 285.192 217.352 282.56 217.664 280.959C217.969 279.357 217.274 277.763 215.57 276.175C213.946 274.665 212.145 274.038 210.159 274.3C208.18 274.563 206.25 275.708 204.368 277.728C202.711 279.513 201.652 281.641 201.208 284.104C201.051 285.07 201.188 285.751 201.626 286.156C201.787 286.304 202.148 286.308 202.716 286.175C203.632 285.992 204.562 286.337 205.512 287.224C206.302 287.963 206.688 288.856 206.671 289.916C206.653 290.97 206.233 291.935 205.424 292.806C204.467 293.838 203.307 294.367 201.945 294.4C200.583 294.426 199.393 293.968 198.362 293.003C196.139 290.94 195.264 288.068 195.724 284.387C196.182 280.713 197.874 277.302 200.791 274.171C207.504 266.956 214.33 266.578 221.263 273.031L233.27 284.215C235.171 285.99 236.336 286.997 236.772 287.251C238.379 288.309 239.704 288.274 240.731 287.169C242.022 285.779 241.403 283.908 238.865 281.542L235.955 278.826C234.69 277.643 234.622 276.437 235.765 275.215C236.979 273.905 238.544 274.141 240.445 275.908L240.745 276.181L244.076 279.399C247.793 283.036 247.819 286.83 244.124 290.796ZM226.163 286.383L221.998 282.394C221.979 284.004 221.679 285.44 221.091 286.709C220.503 287.978 219.17 289.969 217.078 292.69C213.309 297.617 212.876 301.427 215.764 304.12C217.271 305.521 218.968 306.085 220.85 305.804C222.739 305.523 224.547 304.458 226.282 302.592C228.755 299.935 229.976 297.173 229.951 294.297C229.919 291.421 228.661 288.786 226.163 286.383Z" fill="#FDC504"/>
<path d="M268.332 254.23C269.809 256.104 270.993 257.217 271.892 257.576C272.791 257.935 273.561 257.861 274.201 257.361C274.755 256.926 275.268 256.415 275.744 255.835C276.221 255.255 276.556 254.882 276.771 254.715C278.136 253.643 279.35 253.793 280.421 255.151C281.558 256.601 281.235 258.029 279.447 259.434C279.316 259.535 278.94 259.78 278.319 260.167C277.69 260.554 277.007 260.992 276.255 261.481C275.503 261.97 274.751 262.458 273.999 262.947C273.247 263.436 272.655 263.847 272.231 264.18C270.574 265.484 269.212 266.714 268.147 267.855C267.081 269.004 266.444 269.654 266.236 269.821C264.532 271.161 263.127 271.126 262.027 269.722C260.89 268.272 260.981 267.033 262.299 265.997C262.685 265.693 263.235 265.401 263.966 265.1C264.698 264.806 265.233 264.522 265.572 264.254C266.25 263.718 266.46 263.024 266.2 262.158C265.941 261.3 265.051 259.91 263.546 257.989L251.805 243.042C250.335 241.168 249.143 240.055 248.244 239.696C247.345 239.337 246.576 239.412 245.936 239.911C245.381 240.346 244.869 240.857 244.392 241.437C243.916 242.017 243.573 242.39 243.365 242.557C242.001 243.629 240.787 243.486 239.715 242.121C238.579 240.671 238.901 239.244 240.689 237.838C240.813 237.737 241.189 237.493 241.818 237.105C242.446 236.718 243.129 236.28 243.881 235.791C244.633 235.303 245.386 234.814 246.138 234.325C246.89 233.837 247.474 233.425 247.906 233.093L269.033 216.468C269.457 216.135 269.999 215.655 270.649 215.042C271.3 214.43 271.951 213.81 272.609 213.191C273.26 212.571 273.849 212.01 274.376 211.491C274.904 210.973 275.229 210.667 275.352 210.566C277.141 209.16 278.599 209.183 279.736 210.625C280.807 211.99 280.664 213.205 279.3 214.277C279.084 214.444 278.64 214.693 277.969 215.019C277.297 215.345 276.683 215.725 276.128 216.159C275.489 216.659 275.24 217.396 275.376 218.356C275.512 219.316 276.319 220.734 277.788 222.608L289.529 237.555C291.035 239.468 292.171 240.662 292.947 241.115C293.723 241.575 294.446 241.537 295.132 241.001C295.471 240.733 295.876 240.279 296.332 239.638C296.796 238.998 297.216 238.529 297.602 238.225C298.92 237.189 300.147 237.392 301.284 238.842C302.391 240.246 302.086 241.621 300.39 242.962C300.174 243.128 299.385 243.593 298.023 244.357C296.66 245.12 295.147 246.15 293.489 247.461C293.066 247.795 292.524 248.275 291.874 248.887C291.223 249.507 290.572 250.119 289.914 250.738C289.263 251.351 288.674 251.92 288.147 252.438C287.619 252.956 287.294 253.262 287.17 253.364C285.382 254.769 283.924 254.747 282.787 253.304C281.716 251.939 281.858 250.724 283.223 249.652C283.438 249.486 283.882 249.236 284.554 248.918C285.226 248.592 285.847 248.213 286.394 247.778C287.034 247.278 287.282 246.541 287.146 245.581C287.01 244.62 286.204 243.203 284.735 241.329L272.994 226.382C271.987 225.102 271.148 224.255 270.47 223.82C269.791 223.393 269.089 223.462 268.365 224.034L255.723 233.98C254.875 234.654 254.552 235.382 254.768 236.179C254.985 236.975 255.592 238.01 256.591 239.29L268.332 254.23Z" fill="#FDC504"/>
<path d="M322.196 227.75C317.668 231.187 312.863 232.379 307.773 231.312C302.683 230.244 298.147 227.087 294.15 221.816C290.159 216.553 288.342 211.318 288.705 206.114C289.068 200.909 291.556 196.552 296.169 193.043C300.867 189.477 305.736 188.189 310.775 189.187C315.814 190.185 320.336 193.319 324.326 198.582C328.324 203.846 330.124 209.14 329.743 214.457C329.368 219.789 326.856 224.213 322.196 227.75ZM299.538 197.226C296.519 199.519 294.95 202.377 294.83 205.797C294.71 209.218 296.032 212.94 298.812 216.954L299.448 217.794C302.528 221.847 305.789 224.386 309.241 225.396C312.692 226.412 315.954 225.752 319.012 223.43C322.162 221.036 323.751 218.014 323.789 214.342C323.826 210.677 322.291 206.792 319.183 202.692C312.648 194.069 306.092 192.242 299.538 197.226Z" fill="#FDC504"/>
<path d="M348.044 205.859C347.005 206.64 346.232 207.301 345.712 207.827C345.192 208.353 344.882 208.886 344.768 209.409C344.662 209.933 344.772 210.516 345.114 211.143C345.455 211.771 345.973 212.547 346.66 213.456C346.79 213.633 346.994 213.85 347.264 214.122C347.534 214.394 347.818 214.696 348.101 215.028C348.384 215.361 348.683 215.679 348.989 215.997C349.295 216.315 349.513 216.555 349.643 216.732C350.792 218.25 350.616 219.584 349.107 220.727C348.498 221.182 347.868 221.396 347.192 221.36C346.523 221.325 345.94 220.983 345.448 220.336C344.956 219.689 344.489 219.004 344.052 218.283C343.608 217.562 343.19 216.947 342.8 216.431C342.634 216.215 342.335 215.882 341.898 215.432C341.46 214.982 341.001 214.517 340.527 214.028C340.053 213.539 339.609 213.059 339.187 212.594C338.765 212.13 338.475 211.79 338.316 211.574C337.759 210.842 337.543 210.038 337.668 209.161C337.793 208.284 338.329 207.488 339.283 206.764C339.545 206.569 339.935 206.363 340.446 206.138C340.964 205.92 341.501 205.598 342.063 205.164C343.364 204.18 344.237 203.191 344.689 202.211C345.14 201.224 345.196 199.878 344.85 198.167C344.547 196.765 344.111 195.314 343.548 193.806C342.985 192.299 342.223 190.65 341.247 188.874C340.279 187.098 339.061 185.126 337.607 182.974C336.147 180.821 334.386 178.381 332.334 175.661C331.943 175.145 331.53 174.892 331.1 174.916C330.671 174.933 329.975 175.31 329.02 176.034C328.458 176.461 327.924 176.964 327.439 177.543C326.948 178.115 326.59 178.488 326.375 178.655C324.981 179.711 323.76 179.545 322.719 178.166C321.606 176.694 321.958 175.275 323.775 173.901C323.906 173.799 324.282 173.563 324.918 173.191C325.546 172.811 326.244 172.388 327.011 171.915C327.77 171.442 328.529 170.968 329.296 170.488C330.055 170.014 330.654 169.611 331.085 169.286L345.655 158.255C346.087 157.93 346.635 157.465 347.293 156.86C347.958 156.256 348.616 155.652 349.282 155.047C349.947 154.443 350.543 153.889 351.078 153.379C351.612 152.876 351.945 152.57 352.076 152.476C353.893 151.102 355.351 151.154 356.464 152.619C357.513 153.998 357.34 155.212 355.961 156.261C355.745 156.428 355.295 156.662 354.616 156.972C353.937 157.283 353.316 157.655 352.754 158.074C352.107 158.566 351.844 159.288 351.957 160.255C352.078 161.222 352.854 162.654 354.292 164.549L365.756 179.706C367 181.348 368.049 182.449 368.919 183.017C369.789 183.586 370.74 183.472 371.772 182.691C372.334 182.264 372.791 181.834 373.136 181.401C373.487 180.968 373.79 180.653 374.052 180.458C374.999 179.742 375.911 179.439 376.788 179.564C377.656 179.688 378.373 180.117 378.929 180.849C379.096 181.065 379.332 181.448 379.639 181.992C379.953 182.536 380.274 183.103 380.625 183.693C380.967 184.283 381.304 184.843 381.641 185.373C381.971 185.902 382.223 186.271 382.389 186.487C382.779 187.003 383.266 187.575 383.833 188.195C384.401 188.814 384.938 189.448 385.422 190.095C385.906 190.742 386.082 191.395 385.934 192.053C385.786 192.711 385.408 193.263 384.807 193.727C383.297 194.87 381.964 194.686 380.815 193.16C380.685 192.983 380.506 192.706 380.292 192.331C380.07 191.948 379.841 191.58 379.604 191.211C379.359 190.85 379.144 190.497 378.959 190.16C378.774 189.823 378.616 189.57 378.479 189.393C377.785 188.476 377.182 187.772 376.671 187.275C376.152 186.777 375.634 186.505 375.094 186.466C374.553 186.427 373.962 186.589 373.312 186.938C372.661 187.295 371.824 187.864 370.784 188.644L348.044 205.859ZM338.27 173.405C341.604 177.993 344.151 182.008 345.903 185.456C347.662 188.905 349 192.137 349.93 195.154C349.985 195.314 350.092 195.505 350.258 195.721C350.75 196.368 351.42 196.366 352.29 195.708L361.939 188.403C362.671 187.846 362.916 187.191 362.677 186.423C362.437 185.656 361.829 184.629 360.853 183.334L349.419 168.216C348.443 166.921 347.619 166.06 346.949 165.618C346.278 165.176 345.569 165.237 344.837 165.794L338.43 170.648C337.868 171.075 337.592 171.488 337.594 171.894C337.589 172.3 337.815 172.804 338.27 173.405Z" fill="#FDC504"/>
<path d="M410.899 159.703C407.393 162.425 404.057 162.578 400.889 160.17C401.189 165.072 399.013 169.333 394.343 172.945C390.876 175.631 387.444 176.926 384.04 176.821C380.636 176.716 377.831 175.23 375.61 172.362C372.861 168.808 372.36 165.022 374.101 160.996C374.758 159.458 375.433 158.267 376.121 157.43C376.809 156.593 378.293 155.043 380.589 152.788C383.883 149.615 385.813 147.266 386.372 145.732C386.93 144.199 386.5 142.515 385.075 140.672C383.715 138.914 382.036 138.005 380.037 137.943C378.038 137.882 375.952 138.698 373.764 140.392C371.837 141.884 370.454 143.813 369.615 146.173C369.3 147.097 369.332 147.798 369.693 148.268C369.823 148.438 370.182 148.501 370.77 148.459C371.697 148.428 372.561 148.921 373.357 149.946C374.023 150.802 374.257 151.75 374.067 152.791C373.877 153.831 373.309 154.709 372.369 155.44C371.252 156.302 370.023 156.64 368.682 156.449C367.334 156.257 366.233 155.606 365.372 154.495C363.513 152.098 363.116 149.12 364.165 145.569C365.214 142.019 367.43 138.926 370.813 136.305C378.603 130.267 385.395 130.995 391.197 138.489L401.239 151.465C402.83 153.524 403.817 154.706 404.198 155.026C405.618 156.326 406.921 156.51 408.123 155.583C409.625 154.425 409.309 152.473 407.189 149.729L404.751 146.583C403.695 145.211 403.822 144.01 405.147 142.982C406.558 141.889 408.062 142.372 409.654 144.423L409.9 144.747L412.666 148.459C415.772 152.634 415.184 156.38 410.899 159.703ZM393.883 152.436L390.414 147.828C390.14 149.416 389.601 150.784 388.821 151.942C388.041 153.099 386.4 154.848 383.898 157.195C379.383 161.444 378.336 165.138 380.76 168.26C382.019 169.887 383.603 170.718 385.513 170.747C387.422 170.776 389.379 170.015 391.39 168.451C394.256 166.229 395.906 163.698 396.347 160.859C396.78 158.019 395.964 155.217 393.883 152.436Z" fill="#FDC504"/>
<path d="M404.146 114.855L405.784 116.877C405.477 111.682 407.368 107.435 411.448 104.128C415.652 100.719 420.174 99.4584 425.006 100.344C429.838 101.238 434.268 104.167 438.29 109.13C442.617 114.471 444.755 119.798 444.704 125.11C444.646 130.422 442.411 134.862 437.999 138.445C434.342 141.411 430.336 142.537 425.989 141.809L430.235 147.05C431.533 148.648 432.405 149.645 432.866 150.043C434.179 151.145 435.31 151.3 436.282 150.517C436.575 150.278 436.964 149.861 437.456 149.251C437.941 148.649 438.33 148.224 438.631 147.985C439.973 146.897 441.21 147.041 442.341 148.43C443.464 149.82 443.142 151.232 441.376 152.661C440.743 153.176 439.729 153.852 438.334 154.712C437.307 155.336 435.868 156.398 434.016 157.899C433.006 158.718 432.201 159.439 431.595 160.075C430.08 161.647 429.056 162.661 428.509 163.104C427.791 163.684 427.008 163.961 426.144 163.927C425.28 163.893 424.613 163.586 424.134 162.992C423.04 161.641 423.214 160.39 424.641 159.237C424.895 159.034 425.347 158.769 425.996 158.45C426.851 158.04 427.441 157.697 427.781 157.421C428.583 156.776 428.743 155.961 428.261 154.99C427.787 154.02 426.055 151.641 423.057 147.86L403.386 123.449C401.774 121.548 400.444 121.026 399.395 121.874C399.102 122.113 398.705 122.553 398.219 123.193C397.733 123.833 397.312 124.294 396.981 124.562C395.423 125.824 394.086 125.76 392.962 124.371C391.875 123.028 392.25 121.602 394.102 120.101C394.564 119.724 395.088 119.341 395.664 118.937C396.786 118.174 397.594 117.581 398.103 117.168C398.481 116.863 399 116.383 399.666 115.741C400.333 115.099 400.828 114.64 401.168 114.364C402.187 113.515 403.189 113.681 404.146 114.855ZM411.327 121.789C412.275 123.737 413.683 125.911 415.55 128.294C415.688 128.464 415.918 128.794 416.256 129.294C416.561 129.672 416.8 129.966 416.974 130.182C419.257 132.999 421.147 134.863 422.654 135.775C424.16 136.687 425.998 137.09 428.183 136.991C430.367 136.893 432.47 136.024 434.491 134.385C437.515 131.927 438.968 128.923 438.837 125.366C438.713 121.81 436.995 117.994 433.683 113.911C426.863 105.497 420.472 103.713 414.502 108.549C412.481 110.188 411.176 112.256 410.588 114.752C410 117.247 410.244 119.596 411.327 121.789Z" fill="#FDC504"/>
<path d="M461.141 69.233C460.121 70.1275 459.926 71.3032 460.558 72.7677C461.057 73.912 461.589 74.9746 462.16 75.9555C462.724 76.9363 463.235 77.9455 463.684 78.998C464.133 80.0504 464.453 81.1516 464.643 82.3166C464.833 83.4815 464.784 84.8047 464.491 86.2784C466.8 85.5515 468.866 85.3666 470.683 85.716C472.501 86.0654 474.299 87.2647 476.079 89.2989C476.363 89.6237 476.725 90.0638 477.167 90.6118C477.609 91.1598 477.972 91.5924 478.263 91.925C479.084 92.861 479.884 93.4952 480.664 93.8202C481.444 94.1452 482.278 93.9225 483.159 93.1442C484.566 91.9154 484.129 89.9978 481.847 87.3837L479.232 84.383C478.091 83.0759 478.15 81.8735 479.418 80.7684C480.763 79.5904 482.046 79.6975 483.252 81.0819L487.314 85.7302C490.736 89.6438 490.349 93.4328 486.167 97.0978C484.227 98.7994 482.352 99.6074 480.541 99.5367C478.731 99.466 476.913 98.3866 475.097 96.3136C474.631 95.7875 474.138 95.1928 473.601 94.5441C473.072 93.8956 472.521 93.2464 471.947 92.589C470.486 90.9184 468.924 90.1027 467.276 90.1423C465.62 90.1818 463.867 90.9107 462.011 92.3214C460.644 94.4546 458.49 97.0152 455.569 100.011L459.682 104.721C461.288 106.555 462.487 107.683 463.279 108.099C464.079 108.514 464.803 108.439 465.452 107.872C465.777 107.588 466.152 107.11 466.586 106.454C467.013 105.79 467.412 105.298 467.775 104.978C469.035 103.872 470.279 104.016 471.485 105.4C472.662 106.746 472.432 108.131 470.801 109.556C470.592 109.738 469.832 110.242 468.513 111.074C467.194 111.907 465.738 113.021 464.146 114.41C463.736 114.766 463.224 115.27 462.602 115.92C461.988 116.571 461.366 117.222 460.745 117.873C460.123 118.524 459.571 119.116 459.073 119.658C458.575 120.2 458.264 120.521 458.148 120.631C456.439 122.129 454.979 122.182 453.765 120.797C452.624 119.49 452.707 118.273 454.013 117.132C454.214 116.95 454.643 116.685 455.301 116.328C455.959 115.972 456.551 115.561 457.084 115.096C457.695 114.558 457.906 113.819 457.724 112.865C457.536 111.911 456.66 110.537 455.098 108.743L442.593 94.4269C441.023 92.6325 439.785 91.5783 438.861 91.2715C437.946 90.9573 437.175 91.0691 436.564 91.6074C436.031 92.0727 435.548 92.6073 435.101 93.2107C434.661 93.8144 434.334 94.2032 434.132 94.3852C432.826 95.5268 431.595 95.4363 430.433 94.106C429.205 92.6984 429.445 91.2531 431.161 89.7554C431.284 89.6463 431.646 89.3864 432.253 88.9685C432.86 88.5506 433.521 88.0742 434.245 87.547C434.968 87.0197 435.699 86.4927 436.422 85.9655C437.145 85.4383 437.715 84.9967 438.125 84.6405C439.717 83.2518 441.013 81.9519 442.013 80.7557C443.012 79.5596 443.613 78.8705 443.821 78.6888C445.452 77.2637 446.867 77.2319 448.059 78.6007C449.287 80.0083 449.271 81.2647 448.011 82.3701C447.647 82.6901 447.103 83.0196 446.393 83.3591C445.683 83.6985 445.162 84.0062 444.83 84.2895C444.181 84.8566 444.009 85.5664 444.314 86.4112C444.626 87.2562 445.578 88.5951 447.176 90.4356L452.684 96.739C454.329 95.081 455.675 93.6396 456.713 92.407C457.751 91.1744 458.561 90.0327 459.127 88.9963C459.693 87.96 460.046 86.9849 460.187 86.0709C460.328 85.157 460.289 84.215 460.094 83.2456C459.748 81.5339 459.12 79.9265 458.203 78.4231C457.287 76.9198 456.542 75.4518 455.97 74.0116C455.397 72.5715 455.232 71.0912 455.489 69.5712C455.747 68.0512 456.872 66.4224 458.866 64.6773C459.601 64.0375 460.452 63.5067 461.42 63.0924C462.388 62.678 463.38 62.4376 464.405 62.3712C465.43 62.3048 466.441 62.4639 467.453 62.8336C468.464 63.2109 469.377 63.8637 470.198 64.7996C471.092 65.8206 471.53 66.9631 471.522 68.2273C471.513 69.4915 470.937 70.6254 469.8 71.6216C468.865 72.4434 467.898 72.8201 466.907 72.752C465.916 72.684 465.065 72.2438 464.345 71.4239C463.88 70.8978 463.608 70.4529 463.514 70.1038C463.419 69.7546 463.369 69.4069 463.35 69.0526C463.176 68.8515 462.871 68.7368 462.451 68.7013C462.024 68.658 461.589 68.8404 461.141 69.233Z" fill="#FDC504"/>
<path d="M512.508 72.8659C508.422 76.8199 503.795 78.5744 498.612 78.1291C493.435 77.6841 488.543 75.0876 483.95 70.3402C479.358 65.5928 476.93 60.6184 476.669 55.402C476.409 50.1855 478.356 45.5638 482.519 41.5295C486.752 37.422 491.442 35.564 496.56 35.9546C501.685 36.3454 506.541 38.9106 511.134 43.658C515.727 48.4054 518.152 53.44 518.417 58.7694C518.682 64.0989 516.71 68.7952 512.508 72.8659ZM486.368 45.268C483.647 47.9091 482.433 50.9351 482.719 54.346C483.013 57.757 484.77 61.2958 488.005 64.9478L488.741 65.708C492.284 69.3619 495.822 71.4953 499.376 72.0862C502.924 72.6768 506.085 71.6374 508.845 68.96C511.682 66.2096 512.901 63.0106 512.502 59.3629C512.102 55.7153 510.109 52.0488 506.537 48.3489C498.998 40.5681 492.275 39.5411 486.368 45.268Z" fill="#FDC504"/>
<path d="M534.905 2.69824C537.948 5.47124 538.263 9.42487 535.864 14.5596C536.723 14.0215 537.535 13.5497 538.299 13.1517C539.064 12.7537 539.772 12.4443 540.411 12.2155C544.367 10.764 547.742 11.3193 550.545 13.8666C553.311 16.3827 554.533 19.4384 554.22 23.0415C553.906 26.6447 551.62 30.7818 547.354 35.4678C545.571 37.4302 543.832 39.1982 542.144 40.7721C540.456 42.346 538.849 43.9751 537.315 45.6591C536.334 46.7429 535.482 47.8156 534.764 48.8849C534.047 49.9542 533.287 50.9319 532.486 51.8105C531.139 53.2895 529.803 53.4291 528.479 52.2293C527.118 50.9908 526.928 49.8333 527.901 48.7644C528.119 48.5227 528.59 48.1232 529.329 47.5588C529.552 47.4001 529.791 47.2193 530.045 47.0163C530.3 46.8134 530.61 46.5143 530.976 46.1191C531.731 45.2843 531.607 44.1741 530.604 42.7885C529.601 41.4029 527.56 39.3004 524.472 36.496L517.506 30.1478C515.786 28.5821 514.372 27.3795 513.261 26.5476C512.151 25.7156 511.244 25.1458 510.539 24.8306C509.834 24.5155 509.296 24.4086 508.917 24.4948C508.538 24.5885 508.224 24.7746 507.975 25.0454C507.399 25.6825 506.998 26.2272 506.766 26.6717C506.542 27.1164 506.126 27.6832 505.511 28.3567C505.005 28.9132 504.434 29.1365 503.798 29.0266C503.162 28.9243 502.628 28.6671 502.182 28.262C501.421 27.5687 501.066 26.8955 501.108 26.2419C501.158 25.5887 501.542 24.8628 502.274 24.0574C503.293 22.9371 504.324 21.9452 505.358 21.0888C506.393 20.2324 507.369 19.3066 508.28 18.3034C508.902 17.6225 509.612 16.8014 510.409 15.8399C511.213 14.8786 512.097 13.7842 513.075 12.5423C514.414 10.8297 515.944 9.02517 517.664 7.14367C520.84 3.65104 523.936 1.5183 526.947 0.737685C529.957 -0.0429282 532.622 0.618496 534.905 2.69824ZM519.303 23.5419C520.716 24.8272 521.779 25.4846 522.485 25.5063C523.199 25.5357 524.136 24.9022 525.303 23.6209L527.763 20.9191C532.901 15.2739 533.86 10.9831 530.633 8.04641C527.656 5.32813 524.046 6.29354 519.818 10.9431C518.363 12.5467 517.254 13.8674 516.5 14.898C515.746 15.9286 515.268 16.8171 515.072 17.5562C514.876 18.2953 514.939 18.937 515.254 19.4811C515.568 20.0251 516.069 20.6125 516.757 21.2358L519.303 23.5419ZM528.633 32.0401L533.257 36.2541C534.062 36.9863 534.783 37.5127 535.427 37.8486C536.078 38.1848 536.769 38.2436 537.512 38.0331C538.248 37.8224 539.084 37.3137 540.004 36.499C540.931 35.6845 542.065 34.5376 543.42 33.0438C548.869 27.0544 549.676 22.3074 545.835 18.8099C542.191 15.4916 537.754 16.71 532.522 22.4577L528.902 26.441C527.844 27.6052 527.279 28.604 527.223 29.4302C527.16 30.2562 527.63 31.1287 528.633 32.0401Z" fill="#FDC504"/>
<path d="M190.939 574.681C190.959 575.376 191.002 575.911 191.073 576.299C191.143 576.687 191.274 576.989 191.469 577.197C191.664 577.406 191.951 577.538 192.332 577.581C192.71 577.631 193.207 577.644 193.814 577.623C193.93 577.617 194.09 577.599 194.293 577.564C194.496 577.53 194.712 577.503 194.947 577.478C195.178 577.46 195.411 577.429 195.643 577.393C195.875 577.357 196.046 577.337 196.163 577.336C197.179 577.304 197.706 577.797 197.731 578.809C197.741 579.212 197.635 579.557 197.413 579.837C197.192 580.118 196.865 580.267 196.433 580.278C196 580.289 195.557 580.28 195.109 580.254C194.66 580.223 194.263 580.213 193.919 580.225C193.773 580.228 193.534 580.26 193.205 580.309C192.878 580.364 192.526 580.413 192.17 580.47C191.813 580.521 191.466 580.569 191.135 580.607C190.804 580.645 190.567 580.665 190.422 580.673C189.932 580.687 189.516 580.535 189.174 580.212C188.832 579.888 188.649 579.406 188.632 578.769C188.628 578.593 188.657 578.362 188.717 578.071C188.783 577.777 188.809 577.447 188.794 577.068C188.77 576.198 188.612 575.515 188.324 575.013C188.036 574.511 187.47 574.074 186.619 573.693C185.918 573.391 185.152 573.135 184.324 572.913C183.497 572.691 182.546 572.518 181.472 572.389C180.397 572.26 179.171 572.181 177.781 572.151C176.396 572.119 174.794 572.132 172.972 572.183C172.628 572.195 172.389 572.298 172.268 572.488C172.141 572.68 172.09 573.099 172.108 573.741C172.118 574.121 172.175 574.506 172.269 574.894C172.37 575.285 172.416 575.556 172.423 575.695C172.452 576.629 172.003 577.103 171.076 577.136C170.095 577.165 169.584 576.573 169.555 575.363C169.55 575.276 169.565 575.037 169.6 574.646C169.634 574.254 169.663 573.818 169.694 573.345C169.724 572.867 169.754 572.388 169.784 571.91C169.813 571.432 169.82 571.048 169.817 570.76L169.533 561.021C169.524 560.735 169.49 560.35 169.432 559.877C169.375 559.403 169.318 558.93 169.259 558.451C169.202 557.977 169.149 557.544 169.091 557.159C169.039 556.772 169.007 556.533 169.008 556.445C168.971 555.231 169.448 554.614 170.429 554.585C171.351 554.559 171.826 555.007 171.852 555.93C171.854 556.077 171.823 556.344 171.747 556.734C171.671 557.124 171.64 557.508 171.648 557.883C171.66 558.315 171.894 558.655 172.352 558.901C172.81 559.148 173.671 559.25 174.939 559.218L185.063 558.923C186.162 558.893 186.966 558.774 187.479 558.571C187.992 558.369 188.241 557.922 188.221 557.227C188.207 556.854 188.164 556.524 188.083 556.233C188.004 555.948 187.962 555.718 187.952 555.543C187.935 554.907 188.087 554.421 188.405 554.08C188.729 553.738 189.136 553.562 189.627 553.548C189.773 553.545 190.012 553.56 190.344 553.592C190.676 553.625 191.026 553.658 191.387 553.689C191.747 553.719 192.096 553.747 192.43 553.767C192.765 553.787 193.003 553.796 193.148 553.788C193.491 553.776 193.889 553.744 194.334 553.689C194.778 553.633 195.216 553.597 195.654 553.584C196.092 553.571 196.424 553.697 196.658 553.967C196.898 554.234 197.024 554.566 197.036 554.975C197.066 555.985 196.571 556.507 195.554 556.533C195.438 556.54 195.264 556.526 195.029 556.504C194.794 556.482 194.56 556.466 194.33 556.46C194.097 556.45 193.876 556.436 193.67 556.412C193.464 556.389 193.309 556.382 193.192 556.383C192.584 556.398 192.09 556.443 191.713 556.51C191.336 556.578 191.057 556.727 190.879 556.949C190.695 557.173 190.58 557.479 190.533 557.867C190.486 558.256 190.473 558.8 190.493 559.495L190.939 574.681ZM173.826 568.899C176.847 568.868 179.382 569.003 181.418 569.303C183.456 569.607 185.274 570.022 186.875 570.551C186.964 570.575 187.078 570.586 187.219 570.585C187.652 570.574 187.858 570.28 187.845 569.701L187.656 563.255C187.641 562.765 187.432 562.454 187.02 562.319C186.616 562.188 185.979 562.134 185.114 562.157L175.013 562.452C174.15 562.48 173.519 562.566 173.123 562.72C172.722 562.877 172.535 563.201 172.55 563.692L172.677 567.977C172.69 568.35 172.785 568.602 172.958 568.728C173.139 568.858 173.424 568.914 173.826 568.899Z" fill="#27316A"/>
<path d="M180.803 531.613C181.892 531.756 182.55 531.91 182.772 532.089C183 532.265 183.064 532.696 182.976 533.383L181.209 547.038C181.164 547.409 181.182 547.663 181.267 547.788C181.352 547.913 181.509 547.996 181.74 548.025C183.888 548.302 185.758 547.891 187.356 546.785C188.954 545.68 189.877 544.171 190.125 542.254C190.289 540.995 190.093 539.798 189.542 538.663C188.991 537.529 188.204 536.737 187.188 536.287L185.995 535.741C185.333 535.453 185.053 534.937 185.148 534.189C185.287 533.129 185.899 532.672 186.987 532.809C188.849 533.048 190.377 534.207 191.582 536.285C192.781 538.359 193.229 540.602 192.918 543.006C192.528 546.012 191.209 548.27 188.963 549.783C186.718 551.297 183.89 551.83 180.483 551.39C176.99 550.937 174.282 549.628 172.346 547.456C170.416 545.282 169.646 542.68 170.036 539.65C170.385 536.96 171.574 534.86 173.601 533.344C175.624 531.835 178.028 531.257 180.803 531.613ZM177.71 547.063C178.112 547.118 178.355 546.826 178.44 546.198L179.769 535.938C179.849 535.335 179.684 535.013 179.281 534.958C177.755 534.763 176.352 535.165 175.08 536.163C173.807 537.161 173.07 538.434 172.874 539.978C172.67 541.584 173.059 543.119 174.06 544.585C175.048 546.048 176.267 546.875 177.71 547.063Z" fill="#27316A"/>
<path d="M194.691 526.908C194.492 527.571 194.363 528.098 194.31 528.488C194.258 528.878 194.283 529.207 194.403 529.465C194.523 529.728 194.754 529.939 195.097 530.104C195.439 530.268 195.906 530.436 196.491 530.609C196.599 530.64 196.761 530.675 196.963 530.705C197.165 530.736 197.382 530.78 197.608 530.833C197.834 530.887 198.063 530.934 198.296 530.968C198.524 531.009 198.697 531.041 198.806 531.078C199.781 531.368 200.125 531.997 199.834 532.966C199.716 533.355 199.508 533.644 199.213 533.844C198.91 534.039 198.555 534.078 198.141 533.955C197.727 533.832 197.313 533.686 196.892 533.512C196.478 533.342 196.102 533.209 195.77 533.107C195.63 533.066 195.395 533.021 195.068 532.964C194.736 532.908 194.392 532.85 194.035 532.789C193.678 532.728 193.332 532.664 193.008 532.594C192.685 532.525 192.453 532.472 192.314 532.432C191.843 532.294 191.5 532.012 191.276 531.599C191.052 531.186 191.032 530.674 191.215 530.062C191.266 529.896 191.364 529.682 191.516 529.425C191.668 529.169 191.799 528.858 191.906 528.496C192.156 527.661 192.223 526.961 192.107 526.397C191.991 525.832 191.59 525.236 190.905 524.606C190.333 524.1 189.69 523.613 188.968 523.14C188.252 522.666 187.403 522.202 186.426 521.742C185.448 521.282 184.305 520.817 183.003 520.352C181.694 519.883 180.174 519.393 178.433 518.87C178.102 518.773 177.848 518.791 177.668 518.938C177.488 519.084 177.309 519.46 177.125 520.072C177.018 520.434 176.947 520.818 176.92 521.219C176.889 521.621 176.852 521.889 176.811 522.029C176.541 522.922 175.969 523.234 175.083 522.968C174.145 522.686 173.847 521.963 174.195 520.802C174.221 520.719 174.311 520.496 174.466 520.139C174.619 519.776 174.786 519.374 174.962 518.935C175.141 518.488 175.322 518.048 175.495 517.603C175.675 517.157 175.806 516.799 175.887 516.52L178.684 507.188C178.767 506.913 178.858 506.537 178.95 506.072C179.042 505.607 179.138 505.135 179.234 504.664C179.331 504.192 179.41 503.771 179.481 503.382C179.553 502.999 179.598 502.764 179.624 502.681C179.972 501.521 180.617 501.078 181.555 501.36C182.441 501.626 182.747 502.2 182.487 503.085C182.446 503.225 182.326 503.467 182.134 503.817C181.942 504.166 181.791 504.517 181.679 504.881C181.556 505.295 181.669 505.69 182.026 506.068C182.382 506.447 183.165 506.816 184.382 507.179L194.09 510.086C195.142 510.403 195.943 510.544 196.494 510.514C197.045 510.484 197.42 510.134 197.62 509.471C197.728 509.114 197.789 508.781 197.802 508.489C197.814 508.192 197.848 507.959 197.894 507.795C198.079 507.188 198.372 506.772 198.785 506.548C199.197 506.324 199.641 506.286 200.111 506.424C200.251 506.464 200.474 506.554 200.781 506.692C201.087 506.831 201.404 506.967 201.737 507.117C202.068 507.261 202.391 507.396 202.699 507.516C203.006 507.637 203.234 507.72 203.368 507.762C203.699 507.859 204.088 507.953 204.528 508.04C204.968 508.126 205.395 508.234 205.809 508.357C206.223 508.479 206.5 508.708 206.643 509.036C206.786 509.364 206.797 509.726 206.684 510.108C206.392 511.077 205.762 511.416 204.786 511.12C204.676 511.084 204.514 511.025 204.301 510.927C204.083 510.836 203.871 510.744 203.651 510.665C203.431 510.587 203.227 510.504 203.045 510.415C202.858 510.328 202.708 510.273 202.599 510.236C202.013 510.063 201.53 509.947 201.158 509.895C200.779 509.84 200.469 509.891 200.227 510.047C199.983 510.198 199.779 510.456 199.612 510.811C199.444 511.166 199.259 511.679 199.059 512.342L194.691 526.908ZM180.275 516.037C183.154 516.961 185.514 517.882 187.354 518.814C189.193 519.741 190.79 520.712 192.143 521.717C192.215 521.769 192.322 521.818 192.462 521.858C192.876 521.981 193.162 521.766 193.332 521.217L195.181 515.034C195.325 514.562 195.22 514.201 194.878 513.948C194.531 513.696 193.947 513.44 193.119 513.195L183.444 510.298C182.616 510.052 181.992 509.936 181.562 509.958C181.133 509.981 180.85 510.23 180.711 510.695L179.48 514.801C179.372 515.158 179.382 515.426 179.509 515.599C179.632 515.779 179.885 515.92 180.275 516.037Z" fill="#27316A"/>
<path d="M188.842 492.242L204.156 494.329L193.621 483.159C193.323 482.847 193.071 482.642 192.868 482.541C192.43 482.324 192.06 482.508 191.765 483.101C191.61 483.412 191.512 483.672 191.476 483.876C191.325 484.315 191.215 484.596 191.148 484.725C190.72 485.576 190.094 485.796 189.271 485.385C188.393 484.946 188.229 484.171 188.785 483.063C188.862 482.908 189.017 482.662 189.248 482.326L190.137 481.027C190.368 480.691 190.589 480.316 190.795 479.904C191.012 479.466 191.286 478.795 191.606 477.889C191.927 476.989 192.2 476.313 192.416 475.875C192.972 474.767 193.672 474.422 194.529 474.849C195.352 475.26 195.557 475.896 195.129 476.747C195.001 477.003 194.878 477.188 194.763 477.288C194.516 477.587 194.364 477.797 194.298 477.926C194.054 478.418 194.462 479.248 195.517 480.424L206.056 492.269C208.395 494.891 209.962 497.046 210.761 498.734C212.131 501.611 212.159 504.369 210.843 507.002C210.054 508.575 208.997 509.701 207.658 510.375C206.326 511.047 205.085 511.096 203.951 510.529C203.148 510.13 202.617 509.573 202.343 508.855C202.07 508.137 202.123 507.406 202.495 506.657C202.789 506.063 203.209 505.661 203.754 505.445C204.299 505.234 204.822 505.252 205.342 505.512C206.165 505.924 206.512 506.564 206.371 507.43C207.133 507.328 207.785 506.73 208.324 505.65C209.007 504.28 209.113 502.794 208.64 501.187C208.167 499.579 207.302 498.46 206.034 497.828C205.386 497.506 204.015 497.254 201.91 497.072L189.015 495.951L187.54 495.796C186.157 495.657 185.328 495.865 185.045 496.432C184.967 496.587 184.867 496.884 184.744 497.321C184.621 497.759 184.529 498.041 184.464 498.176C184.014 499.08 183.372 499.327 182.547 498.91C181.67 498.472 181.526 497.662 182.12 496.473C182.315 496.088 182.474 495.794 182.601 495.602L183.568 494.148C183.579 494.121 183.635 494.019 183.723 493.837C183.84 493.672 183.93 493.519 183.997 493.39C184.463 492.458 184.906 491.438 185.332 490.329C185.658 489.492 185.88 488.94 186.008 488.684C186.552 487.597 187.245 487.271 188.102 487.698C188.953 488.126 189.133 488.826 188.644 489.805C188.567 489.96 188.413 490.188 188.181 490.495C187.948 490.802 187.795 491.03 187.717 491.185C187.535 491.55 187.628 491.82 187.991 491.997C188.198 492.114 188.477 492.195 188.842 492.242Z" fill="#27316A"/>
<path d="M209.541 461.46C208.535 460.683 207.805 460.224 207.346 460.089C206.888 459.954 206.535 460.045 206.287 460.362C206.093 460.612 205.926 460.902 205.781 461.228C205.635 461.553 205.522 461.777 205.433 461.888C205.187 462.21 204.92 462.361 204.645 462.344C204.364 462.328 204.044 462.181 203.676 461.893C203.287 461.593 203.065 461.28 203 460.961C202.941 460.641 203.08 460.264 203.415 459.831C203.469 459.764 203.593 459.632 203.798 459.444C204.002 459.256 204.226 459.028 204.484 458.773C204.741 458.513 205.001 458.246 205.276 457.964C205.55 457.681 205.782 457.416 205.976 457.166L206.373 456.652C206.55 456.424 206.747 456.138 206.957 455.789C207.169 455.447 207.374 455.1 207.567 454.756C207.761 454.412 207.937 454.114 208.1 453.854C208.262 453.594 208.368 453.432 208.421 453.365C208.757 452.932 209.087 452.706 209.417 452.686C209.741 452.667 210.1 452.804 210.489 453.104C210.856 453.386 211.08 453.663 211.166 453.929C211.253 454.195 211.169 454.487 210.922 454.81C210.835 454.926 210.648 455.092 210.369 455.311C210.09 455.53 209.851 455.768 209.657 456.018C209.411 456.34 209.41 456.705 209.656 457.112C209.904 457.525 210.527 458.117 211.533 458.894L219.542 465.096C220.225 465.626 220.784 465.947 221.207 466.056C221.63 466.171 222.02 465.994 222.373 465.538L226.484 460.233C226.784 459.844 226.817 459.47 226.588 459.106C226.353 458.743 225.898 458.301 225.213 457.766L217.204 451.563C216.198 450.786 215.473 450.32 215.022 450.172C214.572 450.023 214.223 450.107 213.977 450.429C213.783 450.679 213.611 450.97 213.47 451.295C213.325 451.62 213.212 451.844 213.123 451.955C212.876 452.277 212.615 452.427 212.334 452.411C212.054 452.395 211.733 452.248 211.365 451.96C210.976 451.66 210.75 451.354 210.676 451.044C210.608 450.732 210.736 450.363 211.077 449.928C211.131 449.862 211.278 449.7 211.526 449.454C211.774 449.208 212.039 448.934 212.331 448.629C212.623 448.325 212.914 448.014 213.216 447.701C213.516 447.383 213.744 447.124 213.903 446.919C214.52 446.118 215.048 445.335 215.483 444.559C215.919 443.782 216.181 443.338 216.27 443.227C216.976 442.315 217.71 442.15 218.46 442.733C219.238 443.333 219.348 443.987 218.802 444.698C218.643 444.904 218.396 445.132 218.053 445.379C217.718 445.63 217.474 445.846 217.331 446.024C217.049 446.391 217.031 446.778 217.279 447.191C217.526 447.603 218.163 448.204 219.191 448.998L227.2 455.201C228.206 455.977 228.962 456.4 229.474 456.469C229.985 456.537 230.374 456.401 230.638 456.057C230.868 455.762 231.065 455.429 231.238 455.073C231.409 454.711 231.536 454.473 231.625 454.362C232.191 453.634 232.839 453.549 233.567 454.114C234.345 454.714 234.358 455.493 233.617 456.455C233.564 456.521 233.403 456.698 233.129 456.98C232.855 457.263 232.558 457.574 232.232 457.929C231.904 458.278 231.576 458.627 231.256 458.98C230.928 459.329 230.678 459.617 230.502 459.845L215.197 479.592C215.021 479.82 214.802 480.135 214.546 480.536C214.291 480.937 214.03 481.34 213.776 481.746C213.521 482.153 213.286 482.519 213.084 482.854C212.882 483.188 212.751 483.386 212.699 483.459C211.957 484.415 211.198 484.598 210.419 483.993C209.691 483.427 209.606 482.779 210.172 482.051C210.259 481.934 210.46 481.753 210.765 481.498C211.069 481.243 211.34 480.967 211.57 480.673C211.834 480.328 211.87 479.919 211.676 479.44C211.482 478.96 210.885 478.332 209.879 477.555L201.87 471.353C200.842 470.558 200.098 470.091 199.64 469.956C199.181 469.821 198.811 469.934 198.527 470.296C198.386 470.479 198.236 470.765 198.084 471.157C197.927 471.55 197.772 471.843 197.608 472.05C197.06 472.756 196.398 472.809 195.62 472.209C194.869 471.626 194.842 470.88 195.554 469.967C195.643 469.856 196.007 469.486 196.649 468.873C197.29 468.255 197.921 467.552 198.538 466.751C198.697 466.546 198.894 466.26 199.122 465.889C199.35 465.519 199.581 465.159 199.801 464.803C200.021 464.446 200.225 464.117 200.401 463.819C200.577 463.521 200.693 463.332 200.746 463.265C201.082 462.832 201.408 462.612 201.728 462.601C202.043 462.59 202.399 462.74 202.788 463.039C203.155 463.321 203.379 463.599 203.466 463.865C203.552 464.131 203.468 464.423 203.222 464.745C203.134 464.862 202.947 465.028 202.668 465.247C202.389 465.466 202.151 465.704 201.956 465.954C201.71 466.276 201.714 466.634 201.969 467.033C202.225 467.432 202.859 468.021 203.86 468.799L211.868 475.002C212.552 475.532 213.097 475.868 213.507 475.997C213.913 476.134 214.267 476.002 214.568 475.618L218.679 470.313C219.032 469.857 219.101 469.439 218.89 469.053C218.678 468.666 218.226 468.212 217.543 467.682L209.541 461.46Z" fill="#27316A"/>
<path d="M237.579 426.811C237.045 427.295 236.954 427.924 237.3 428.7C237.58 429.304 237.872 429.87 238.181 430.385C238.49 430.899 238.771 431.439 239.019 431.993C239.267 432.546 239.448 433.135 239.561 433.753C239.673 434.372 239.66 435.075 239.516 435.865C240.74 435.456 241.839 435.337 242.813 435.51C243.787 435.683 244.758 436.303 245.722 437.373C245.878 437.545 246.073 437.777 246.317 438.061C246.556 438.352 246.756 438.577 246.912 438.749C247.356 439.241 247.788 439.57 248.208 439.739C248.627 439.907 249.07 439.776 249.533 439.356C250.273 438.689 250.022 437.672 248.78 436.297L247.357 434.722C246.739 434.035 246.757 433.395 247.425 432.793C248.131 432.153 248.814 432.2 249.471 432.925L251.681 435.362C253.54 437.419 253.372 439.439 251.172 441.429C250.151 442.35 249.16 442.799 248.192 442.784C247.227 442.762 246.249 442.208 245.262 441.115C245.009 440.839 244.74 440.526 244.451 440.182C244.163 439.839 243.863 439.499 243.551 439.155C242.755 438.278 241.917 437.858 241.039 437.896C240.161 437.934 239.229 438.339 238.251 439.108C237.541 440.256 236.422 441.644 234.885 443.263L237.122 445.734C237.993 446.698 238.646 447.289 239.071 447.503C239.497 447.717 239.885 447.67 240.23 447.364C240.401 447.208 240.594 446.952 240.82 446.594C241.04 446.237 241.248 445.972 241.444 445.798C242.107 445.198 242.771 445.262 243.428 445.987C244.069 446.693 243.959 447.433 243.1 448.207C242.995 448.305 242.59 448.58 241.895 449.035C241.201 449.49 240.432 450.094 239.598 450.85C239.384 451.046 239.112 451.316 238.791 451.669C238.47 452.023 238.142 452.372 237.822 452.725C237.501 453.078 237.207 453.401 236.947 453.691C236.688 453.988 236.526 454.159 236.459 454.217C235.562 455.03 234.779 455.073 234.122 454.348C233.504 453.66 233.536 453.011 234.219 452.394C234.323 452.296 234.55 452.15 234.899 451.954C235.249 451.758 235.561 451.531 235.838 451.283C236.158 450.994 236.267 450.596 236.16 450.088C236.053 449.58 235.573 448.857 234.719 447.918L227.921 440.409C227.067 439.47 226.396 438.919 225.902 438.758C225.409 438.603 225.002 438.667 224.683 438.96C224.407 439.214 224.152 439.503 223.918 439.828C223.69 440.151 223.521 440.365 223.412 440.464C222.724 441.083 222.067 441.046 221.441 440.348C220.775 439.614 220.887 438.838 221.789 438.023C221.851 437.966 222.043 437.823 222.361 437.594C222.678 437.365 223.029 437.104 223.408 436.818C223.793 436.531 224.172 436.245 224.557 435.958C224.936 435.672 225.239 435.429 225.453 435.233C226.288 434.477 226.967 433.778 227.487 433.127C228.009 432.48 228.324 432.105 228.428 432.008C229.282 431.235 230.039 431.205 230.683 431.921C231.35 432.661 231.352 433.332 230.689 433.932C230.498 434.104 230.209 434.285 229.833 434.47C229.457 434.655 229.183 434.825 229.012 434.981C228.668 435.293 228.583 435.668 228.757 436.117C228.932 436.567 229.448 437.269 230.32 438.233L233.312 441.539C234.175 440.64 234.879 439.859 235.419 439.19C235.964 438.521 236.384 437.912 236.676 437.355C236.968 436.797 237.151 436.274 237.214 435.787C237.276 435.3 237.254 434.8 237.138 434.283C236.94 433.375 236.585 432.525 236.087 431.73C235.584 430.942 235.172 430.166 234.852 429.401C234.533 428.642 234.43 427.856 234.556 427.042C234.676 426.229 235.261 425.348 236.311 424.401C236.699 424.055 237.147 423.763 237.658 423.531C238.169 423.3 238.699 423.163 239.24 423.118C239.787 423.071 240.325 423.15 240.868 423.34C241.411 423.53 241.905 423.873 242.349 424.365C242.834 424.899 243.078 425.506 243.087 426.18C243.096 426.855 242.801 427.466 242.198 428.004C241.706 428.448 241.197 428.661 240.666 428.633C240.135 428.605 239.678 428.382 239.29 427.952C239.037 427.676 238.889 427.444 238.835 427.258C238.781 427.071 238.751 426.885 238.739 426.7C238.641 426.596 238.479 426.538 238.258 426.524C238.046 426.502 237.814 426.603 237.579 426.811Z" fill="#27316A"/>
<path d="M259.093 411.077C258.783 411.292 258.497 411.548 258.231 411.84C257.959 412.133 257.767 412.324 257.647 412.408C256.89 412.938 256.249 412.827 255.719 412.069C255.154 411.267 255.372 410.517 256.364 409.821C256.434 409.773 256.637 409.65 256.981 409.456C257.32 409.263 257.7 409.047 258.114 408.805C258.528 408.563 258.937 408.323 259.351 408.081C259.765 407.839 260.088 407.632 260.323 407.472C261.245 406.823 262.007 406.22 262.614 405.652C263.221 405.084 263.585 404.761 263.704 404.678C264.651 404.016 265.395 404.072 265.944 404.854C266.509 405.655 266.421 406.319 265.694 406.83C265.479 406.979 265.175 407.122 264.781 407.259C264.381 407.397 264.092 407.531 263.902 407.662C263.524 407.93 263.394 408.293 263.508 408.758C263.621 409.222 264.054 409.988 264.798 411.049L270.615 419.34C271.359 420.401 271.937 421.07 272.334 421.332C272.732 421.6 273.12 421.601 273.498 421.333C273.688 421.201 273.912 420.973 274.18 420.645C274.443 420.319 274.682 420.081 274.897 419.931C275.629 419.419 276.278 419.564 276.844 420.365C277.391 421.142 277.189 421.865 276.248 422.531C276.129 422.614 275.698 422.837 274.951 423.206C274.205 423.574 273.37 424.078 272.449 424.726C272.215 424.893 271.911 425.13 271.55 425.44C271.183 425.752 270.821 426.057 270.454 426.369C270.093 426.68 269.759 426.96 269.468 427.223C269.176 427.481 268.993 427.64 268.923 427.687C267.931 428.384 267.153 428.331 266.588 427.53C266.058 426.772 266.169 426.132 266.927 425.601C267.046 425.517 267.287 425.402 267.659 425.248C268.026 425.095 268.367 424.913 268.67 424.694C269.023 424.444 269.178 424.063 269.133 423.545C269.088 423.027 268.699 422.251 267.974 421.214L263.448 414.761L260.435 427.349C260.304 427.865 260.24 428.282 260.249 428.591C260.258 428.901 260.35 429.189 260.535 429.447C260.85 429.895 261.256 429.944 261.75 429.599C261.94 429.468 262.169 429.238 262.432 428.911C262.695 428.585 262.934 428.347 263.148 428.198C263.881 427.685 264.53 427.83 265.095 428.632C265.642 429.408 265.44 430.131 264.5 430.797C264.38 430.881 263.949 431.103 263.203 431.472C262.457 431.84 261.622 432.344 260.7 432.993C260.461 433.16 260.163 433.396 259.796 433.708C259.43 434.02 259.067 434.325 258.7 434.637C258.333 434.949 258.005 435.228 257.714 435.491C257.422 435.749 257.238 435.902 257.169 435.955C256.178 436.651 255.399 436.599 254.834 435.797C254.304 435.04 254.415 434.399 255.173 433.869C255.292 433.785 255.533 433.67 255.905 433.516C256.272 433.362 256.613 433.18 256.921 432.96C257.275 432.71 257.429 432.329 257.384 431.811C257.339 431.293 256.951 430.517 256.225 429.48L250.362 421.172C249.635 420.13 249.033 419.502 248.565 419.287C248.098 419.072 247.684 419.085 247.331 419.335C247.021 419.55 246.734 419.806 246.468 420.098C246.197 420.391 246.005 420.582 245.885 420.666C245.127 421.196 244.487 421.085 243.957 420.327C243.391 419.525 243.61 418.775 244.601 418.079C244.671 418.031 244.875 417.908 245.219 417.714C245.558 417.521 245.937 417.305 246.352 417.063C246.766 416.821 247.174 416.581 247.589 416.339C248.003 416.097 248.326 415.89 248.56 415.724C249.481 415.075 250.244 414.473 250.85 413.905C251.457 413.337 251.821 413.014 251.94 412.93C252.882 412.27 253.632 412.324 254.18 413.106C254.745 413.908 254.657 414.572 253.93 415.083C253.716 415.232 253.411 415.375 253.017 415.512C252.617 415.65 252.328 415.783 252.138 415.914C251.76 416.182 251.63 416.545 251.744 417.01C251.858 417.475 252.29 418.24 253.034 419.302L257.836 426.142L260.954 413.051C261.046 412.633 261.07 412.291 261.024 412.021C260.979 411.756 260.855 411.476 260.658 411.191C260.426 410.863 260.16 410.72 259.862 410.773C259.558 410.828 259.307 410.927 259.093 411.077Z" fill="#27316A"/>
<path d="M287.379 386.505L303.015 403.232L299.286 379.063C299.087 377.808 299.403 376.98 300.233 376.572L300.426 376.475C300.688 376.349 301.038 376.223 301.493 376.095C302.072 375.969 302.44 375.868 302.597 375.792C303.036 375.644 303.617 375.389 304.342 375.031C305.12 374.649 305.711 374.314 306.111 374.017L307.355 373.115C307.421 373.051 307.568 372.96 307.803 372.846C308.994 372.263 309.811 372.417 310.247 373.311C310.645 374.126 310.438 374.738 309.613 375.145C309.409 375.244 309.087 375.363 308.661 375.49C308.229 375.619 307.912 375.736 307.708 375.835C306.398 376.479 306.22 377.777 307.173 379.72L308.511 382.447L310.157 385.893L311.78 389.205L314.841 395.335C315.795 397.283 316.918 397.941 318.202 397.31C318.459 397.186 318.724 397.005 318.995 396.777C319.534 396.45 319.854 396.256 319.959 396.205C320.778 395.8 321.397 396.011 321.805 396.841C322.264 397.776 321.936 398.514 320.829 399.058C320.881 399.032 320.676 399.103 320.211 399.264C318.337 399.958 316.782 400.611 315.544 401.218C314.327 401.814 313.205 402.462 312.174 403.163C311.746 403.467 311.35 403.71 310.991 403.891C309.983 404.386 309.271 404.204 308.851 403.348C308.418 402.465 308.717 401.776 309.745 401.27C310.002 401.145 310.204 401.064 310.341 401.023C310.93 400.8 311.276 400.658 311.381 400.608C312.305 400.152 312.405 398.897 311.68 396.837C311.525 396.394 310.905 395.06 309.806 392.825C309.386 391.968 308.797 390.708 308.046 389.049L306.362 385.523L302.975 378.631C302.899 378.474 302.794 378.43 302.669 378.492C302.59 378.53 302.55 378.646 302.552 378.839L306.33 404.567C306.505 405.705 306.023 406.552 304.886 407.116C304.212 407.448 303.668 407.594 303.246 407.556C302.826 407.523 302.384 407.248 301.907 406.741L283.972 387.965C283.818 387.846 283.692 387.813 283.587 387.864C283.483 387.914 283.468 388.018 283.549 388.174L292.675 406.16C293.63 408.043 294.615 408.737 295.623 408.242C295.91 408.103 296.271 407.857 296.712 407.514L297.176 407.283C298.184 406.788 298.913 406.995 299.358 407.898C299.803 408.807 299.508 409.512 298.469 410.021C298.286 410.109 298.002 410.218 297.617 410.346C297.012 410.555 296.363 410.775 295.674 410.999C295.121 411.183 294.443 411.475 293.639 411.87C292.214 412.573 291.31 413.058 290.933 413.332L289.441 414.416C289.389 414.441 289.32 414.494 289.228 414.571C289.124 414.621 289.045 414.659 288.993 414.684C287.802 415.267 286.984 415.107 286.54 414.204C286.365 413.843 286.33 413.482 286.442 413.117C286.556 412.759 286.776 412.496 287.115 412.326C287.403 412.188 287.759 412.061 288.182 411.946C288.605 411.831 288.91 411.735 289.092 411.641C290.414 410.995 290.596 409.695 289.642 407.746L281.953 392.096C280.999 390.148 279.861 389.5 278.535 390.153C278.326 390.254 278.033 390.441 277.649 390.71C277.266 390.98 276.971 391.161 276.764 391.268C275.959 391.663 275.358 391.453 274.959 390.632C274.523 389.739 274.881 389.005 276.046 388.435C276.151 388.384 276.321 388.317 276.568 388.224L278.001 387.714C278.713 387.46 279.366 387.186 279.962 386.897C280.452 386.653 281.096 386.276 281.887 385.76C282.678 385.245 283.268 384.887 283.655 384.699C284.663 384.204 285.647 384.51 286.607 385.61L287.379 386.505Z" fill="#27316A"/>
<path d="M334.027 394.618C331.236 395.796 328.596 395.775 326.106 394.558C323.616 393.34 321.688 391.107 320.316 387.86C318.946 384.618 318.701 381.676 319.573 379.033C320.446 376.391 322.304 374.471 325.153 373.267C328.05 372.045 330.739 372.023 333.207 373.2C335.681 374.38 337.598 376.592 338.968 379.834C340.338 383.075 340.574 386.05 339.674 388.746C338.781 391.447 336.897 393.403 334.027 394.618ZM326.34 375.867C324.478 376.653 323.293 377.923 322.779 379.673C322.265 381.423 322.463 383.519 323.368 385.957L323.59 386.476C324.645 388.975 325.999 390.715 327.651 391.695C329.303 392.675 331.074 392.767 332.957 391.97C334.9 391.152 336.121 389.797 336.623 387.908C337.125 386.02 336.845 383.81 335.777 381.285C333.525 375.965 330.384 374.162 326.34 375.867Z" fill="#27316A"/>
<path d="M344.212 366.96L344.815 368.205C345.289 365.477 346.787 363.503 349.308 362.283C351.908 361.025 354.405 360.924 356.806 361.976C359.206 363.029 361.148 365.088 362.631 368.153C364.228 371.454 364.683 374.478 364.013 377.221C363.339 379.971 361.639 382.003 358.907 383.318C356.647 384.412 354.43 384.506 352.261 383.6L353.823 386.833C354.301 387.822 354.632 388.442 354.823 388.705C355.37 389.435 355.939 389.659 356.541 389.368C356.724 389.28 356.974 389.11 357.303 388.855C357.631 388.6 357.881 388.429 358.064 388.341C358.896 387.938 359.52 388.166 359.935 389.024C360.35 389.882 360.01 390.575 358.917 391.104C358.53 391.292 357.918 391.52 357.09 391.798C356.482 391.995 355.603 392.375 354.463 392.927C353.84 393.229 353.33 393.507 352.942 393.76C351.964 394.394 351.308 394.792 350.973 394.955C350.528 395.17 350.087 395.213 349.644 395.091C349.201 394.97 348.891 394.726 348.714 394.36C348.312 393.529 348.551 392.902 349.435 392.475C349.592 392.399 349.853 392.32 350.231 392.234C350.721 392.126 351.07 392.018 351.279 391.917C351.771 391.679 351.956 391.278 351.828 390.711C351.701 390.15 351.087 388.702 349.994 386.378L342.756 371.311C342.152 370.132 341.522 369.694 340.873 370.008C340.69 370.096 340.436 370.274 340.101 370.548C339.765 370.823 339.496 371.01 339.292 371.109C338.33 371.575 337.643 371.375 337.229 370.523C336.827 369.691 337.197 369.002 338.342 368.448C338.63 368.309 338.948 368.174 339.294 368.032C339.968 367.77 340.461 367.561 340.775 367.41C341.01 367.296 341.334 367.113 341.763 366.861C342.187 366.611 342.499 366.43 342.709 366.329C343.359 366.021 343.86 366.233 344.212 366.96ZM347.098 371.429C347.353 372.557 347.823 373.854 348.5 375.321C348.551 375.425 348.632 375.628 348.743 375.923C348.857 376.158 348.945 376.341 349.007 376.467C349.85 378.209 350.606 379.408 351.273 380.06C351.943 380.717 352.848 381.149 353.998 381.364C355.142 381.581 356.338 381.385 357.589 380.781C359.461 379.875 360.576 378.494 360.945 376.634C361.313 374.775 360.884 372.585 359.665 370.064C357.151 364.87 354.052 363.162 350.359 364.948C349.114 365.551 348.185 366.466 347.571 367.689C346.963 368.916 346.802 370.164 347.098 371.429Z" fill="#27316A"/>
<path d="M380.39 372.216C377.729 373.672 375.104 373.918 372.504 372.958C369.904 371.998 367.759 369.974 366.068 366.88C364.379 363.791 363.832 360.891 364.432 358.171C365.033 355.458 366.692 353.354 369.399 351.875C372.157 350.364 374.829 350.071 377.408 350.995C379.987 351.919 382.122 353.928 383.817 357.015C385.507 360.104 386.044 363.036 385.422 365.808C384.802 368.586 383.123 370.724 380.39 372.216ZM370.847 354.343C369.072 355.312 368.024 356.7 367.691 358.491C367.36 360.288 367.761 362.35 368.909 364.684L369.178 365.179C370.479 367.562 372.001 369.152 373.743 369.957C375.486 370.761 377.252 370.677 379.051 369.69C380.897 368.679 381.977 367.207 382.285 365.275C382.595 363.348 382.089 361.178 380.775 358.769C378.008 353.711 374.698 352.234 370.847 354.343Z" fill="#27316A"/>
<path d="M400.684 360.496C399.647 361.128 398.577 361.586 397.468 361.872C396.359 362.157 395.3 362.247 394.284 362.138C393.267 362.03 392.338 361.733 391.492 361.257C390.644 360.775 389.946 360.096 389.405 359.206C389.151 358.789 389.076 358.362 389.18 357.923C389.287 357.49 389.549 357.14 389.966 356.885C390.362 356.642 390.734 356.576 391.085 356.685C391.437 356.795 391.772 357.02 392.085 357.369C392.67 357.995 393.253 358.457 393.843 358.758C394.432 359.059 395.024 359.212 395.621 359.223C396.218 359.234 396.799 359.138 397.378 358.942C397.952 358.747 398.522 358.471 399.087 358.131C400.79 357.092 401.854 356.013 402.282 354.891C402.711 353.768 402.588 352.653 401.913 351.538C401.252 350.456 400.377 349.958 399.283 350.051C398.19 350.144 396.905 350.64 395.425 351.538L394.829 351.898C394.509 352.092 394.194 352.126 393.878 351.996C393.562 351.865 393.292 351.617 393.067 351.246C392.842 350.874 392.746 350.522 392.77 350.181C392.8 349.844 392.973 349.576 393.293 349.381L393.883 349.024C395.302 348.158 396.19 347.312 396.543 346.492C396.895 345.666 396.784 344.777 396.196 343.816C395.88 343.298 395.476 342.919 394.995 342.672C394.508 342.427 393.983 342.304 393.405 342.3C392.833 342.294 392.238 342.382 391.627 342.569C391.017 342.756 390.431 343.018 389.867 343.363C388.764 344.036 387.937 344.708 387.387 345.384C386.838 346.061 386.762 346.863 387.163 347.801C388.483 347.196 389.445 347.39 390.046 348.376C390.375 348.921 390.452 349.495 390.271 350.118C390.089 350.736 389.693 351.232 389.073 351.609C388.284 352.089 387.457 352.19 386.59 351.907C385.723 351.625 385.016 351.024 384.458 350.115C383.888 349.179 383.633 348.257 383.68 347.345C383.733 346.431 383.98 345.585 384.413 344.797C384.845 344.009 385.419 343.291 386.137 342.63C386.851 341.975 387.579 341.423 388.321 340.967C389.358 340.336 390.394 339.881 391.439 339.6C392.485 339.319 393.481 339.215 394.427 339.301C395.371 339.381 396.241 339.675 397.034 340.171C397.826 340.667 398.493 341.36 399.034 342.25C399.665 343.288 399.863 344.307 399.627 345.309C399.391 346.311 398.864 347.188 398.032 347.932C399.557 347.275 400.977 347.103 402.282 347.42C403.593 347.735 404.622 348.512 405.376 349.747C405.946 350.683 406.239 351.637 406.254 352.609C406.269 353.582 406.059 354.524 405.626 355.447C405.193 356.371 404.552 357.265 403.712 358.134C402.876 358.979 401.863 359.775 400.684 360.496Z" fill="#27316A"/>
<path d="M427.205 343.027C425.246 344.354 423.461 344.32 421.862 342.931C421.854 345.551 420.548 347.741 417.943 349.505C416.01 350.815 414.133 351.386 412.33 351.215C410.522 351.046 409.081 350.158 407.992 348.556C406.652 346.571 406.511 344.537 407.581 342.456C407.981 341.658 408.383 341.049 408.775 340.63C409.166 340.206 410.015 339.435 411.314 338.312C413.174 336.739 414.28 335.554 414.634 334.757C414.988 333.96 414.813 333.052 414.119 332.025C413.454 331.043 412.592 330.506 411.531 330.403C410.469 330.3 409.327 330.664 408.11 331.49C407.033 332.22 406.232 333.197 405.707 334.426C405.508 334.907 405.503 335.279 405.678 335.545C405.744 335.64 405.932 335.686 406.244 335.688C406.741 335.701 407.182 335.993 407.571 336.57C407.894 337.045 407.991 337.562 407.854 338.103C407.718 338.649 407.387 339.099 406.86 339.453C406.239 339.872 405.574 340.008 404.865 339.861C404.157 339.714 403.593 339.329 403.169 338.709C402.266 337.371 402.148 335.772 402.83 333.92C403.512 332.068 404.791 330.503 406.679 329.223C411.033 326.278 414.623 326.901 417.453 331.084L422.354 338.328C423.131 339.475 423.614 340.139 423.809 340.324C424.517 341.065 425.206 341.206 425.879 340.756C426.715 340.188 426.616 339.143 425.58 337.609L424.392 335.85C423.877 335.083 423.986 334.455 424.727 333.952C425.514 333.421 426.298 333.724 427.075 334.871L427.198 335.051L428.549 337.121C430.034 339.439 429.593 341.406 427.205 343.027ZM418.395 338.583L416.71 336.011C416.507 336.845 416.178 337.554 415.723 338.141C415.268 338.729 414.335 339.605 412.928 340.767C410.383 342.875 409.696 344.799 410.88 346.542C411.495 347.448 412.306 347.945 413.321 348.025C414.335 348.105 415.401 347.766 416.523 347.006C418.126 345.923 419.089 344.634 419.421 343.136C419.745 341.653 419.405 340.129 418.395 338.583Z" fill="#27316A"/>
</svg>
