<svg width="188" height="22" viewBox="0 0 188 22" fill="none" xmlns="http://www.w3.org/2000/svg">
<path d="M14.813 4.16859C14.813 5.92578 13.8392 7.16933 11.8915 7.89383C12.5969 8.12092 13.1759 8.36963 13.6286 8.64537C14.9867 9.45638 15.6711 10.6729 15.6711 12.2949C15.6711 13.8845 15.0762 15.1443 13.8813 16.085C12.6863 17.0258 11.0913 17.4962 9.09626 17.4962C8.37509 17.4962 7.45915 17.4529 6.34843 17.3664C5.23772 17.2799 4.42706 17.2367 3.90592 17.2367C3.45321 17.2367 3.02156 17.2637 2.62149 17.3124L1.43708 17.4692C1.4055 17.4692 1.34233 17.48 1.26337 17.4962C1.17915 17.4962 1.12124 17.4962 1.08966 17.4962C0.363219 17.4746 0 17.1664 0 16.5608C0 16.0093 0.257938 15.7336 0.779078 15.7336C0.915943 15.7336 1.1423 15.7606 1.45814 15.8093C1.67396 15.8417 1.85294 15.8634 1.98454 15.8634C2.84258 15.8634 3.26897 15.2254 3.26897 13.9494V3.54682C3.26897 2.25461 2.84258 1.6058 1.98454 1.6058C1.83189 1.6058 1.65817 1.62202 1.45814 1.65987C1.15809 1.71394 0.931735 1.73556 0.779078 1.73556C0.257938 1.73556 0 1.45982 0 0.908332C0 0.302777 0.384275 0 1.15809 0H1.48446L2.71624 0.178422C3.06894 0.23249 3.54796 0.254117 4.15333 0.254117C4.79028 0.254117 5.69569 0.200049 6.87484 0.0973212C7.66971 0.0324404 8.51722 0 9.42263 0C11.1177 0 12.4389 0.367658 13.3917 1.09757C14.3392 1.83288 14.813 2.85476 14.813 4.16859ZM5.16402 5.27697C5.16402 6.19071 5.24298 6.75842 5.40617 6.96928C5.56409 7.18555 6.00627 7.29369 6.72744 7.29369H8.13821C11.1124 7.29369 12.5969 6.30425 12.5969 4.31998C12.5969 2.50873 11.3703 1.60039 8.91728 1.60039C7.20647 1.60039 6.1484 1.71394 5.7536 1.93561C5.36406 2.16269 5.16402 2.74121 5.16402 3.67658V5.27697ZM5.16402 10.5323V13.4033C5.16402 14.5225 5.34827 15.2146 5.71675 15.4741C6.08523 15.7336 7.09593 15.8634 8.73831 15.8634C11.8809 15.8634 13.4496 14.6577 13.4496 12.2408C13.4496 10.0133 11.9388 8.90489 8.91202 8.90489H6.8222C5.91678 8.90489 5.39564 9.11035 5.25878 9.52667C5.20087 9.73212 5.16402 10.0673 5.16402 10.5323Z" fill="black"/>
<path d="M23.7303 17.8044C21.9669 17.8044 20.5561 17.1772 19.498 15.9282C18.4399 14.6793 17.9083 12.9978 17.9083 10.8946C17.9083 8.79135 18.4399 7.10985 19.5085 5.8609C20.5771 4.61194 22.009 3.98476 23.804 3.98476C25.6359 3.98476 27.0782 4.59572 28.1363 5.82305C29.1944 7.05038 29.726 8.71025 29.726 10.8189C29.726 12.9221 29.1786 14.6144 28.0889 15.8904C26.9993 17.1664 25.5464 17.8044 23.7303 17.8044ZM23.8566 5.69329C22.6828 5.69329 21.7563 6.11502 21.0878 6.95847C20.414 7.80192 20.0455 9.00221 19.977 10.5539V10.8892C19.977 12.5112 20.3087 13.7818 20.9719 14.7063C21.6352 15.6309 22.5617 16.0904 23.7566 16.0904C24.9831 16.0904 25.9465 15.6309 26.6413 14.7063C27.3362 13.7818 27.6889 12.5004 27.6889 10.8621C27.6889 7.41804 26.4097 5.69329 23.8566 5.69329Z" fill="black"/>
<path d="M36.8588 17.8044C36.1534 17.8044 35.4796 17.7071 34.8427 17.507C34.2057 17.307 33.6478 17.0258 33.1793 16.6527C32.7108 16.2797 32.337 15.8417 32.058 15.3335C31.779 14.8253 31.6422 14.2576 31.6422 13.6412C31.6422 13.3492 31.7369 13.1059 31.9212 12.9167C32.1054 12.7275 32.3423 12.6301 32.6265 12.6301C32.895 12.6301 33.1003 12.7112 33.2424 12.8734C33.3846 13.0356 33.4846 13.2573 33.532 13.5331C33.632 14.0359 33.7846 14.4522 33.9847 14.7874C34.1847 15.1226 34.4321 15.3876 34.7269 15.5768C35.0217 15.766 35.3375 15.9012 35.6849 15.9769C36.0324 16.0526 36.3956 16.0959 36.7799 16.0959C37.938 16.0959 38.796 15.8742 39.3487 15.4362C39.9014 14.9983 40.1804 14.3873 40.1804 13.6142C40.1804 12.8572 39.8962 12.3274 39.3224 12.0354C38.7539 11.7434 37.9643 11.5974 36.9536 11.5974H36.5482C36.3272 11.5974 36.164 11.5163 36.0429 11.3541C35.9271 11.1919 35.8692 10.9811 35.8692 10.7216C35.8692 10.462 35.9271 10.2512 36.0429 10.089C36.1587 9.92677 36.3272 9.84566 36.543 9.84566H36.9431C37.9116 9.84566 38.6065 9.68887 39.0329 9.38069C39.4593 9.0725 39.6698 8.58049 39.6698 7.90465C39.6698 7.5424 39.5856 7.2234 39.4171 6.94766C39.2487 6.67191 39.0223 6.44483 38.7434 6.261C38.4591 6.08258 38.138 5.942 37.78 5.84468C37.4221 5.74736 37.0483 5.70411 36.6641 5.70411C35.9113 5.70411 35.2954 5.79061 34.8216 5.96363C34.3426 6.13664 34.0636 6.52593 33.9794 7.12608C34.8216 7.22881 35.2375 7.6289 35.2375 8.31556C35.2375 8.69403 35.1006 9.01303 34.8216 9.27255C34.5426 9.53207 34.1952 9.66184 33.7741 9.66184C33.2372 9.66184 32.795 9.45638 32.4528 9.04006C32.1107 8.62374 31.9369 8.09929 31.9369 7.46129C31.9369 6.80708 32.0896 6.25559 32.3897 5.80683C32.6897 5.35807 33.0687 5.00123 33.5214 4.73089C33.9741 4.46596 34.4795 4.27673 35.0322 4.16319C35.5849 4.04964 36.1166 3.99558 36.6167 3.99558C37.3221 3.99558 37.9748 4.08749 38.5802 4.26591C39.1855 4.44434 39.7119 4.70386 40.1541 5.04448C40.5963 5.3797 40.9437 5.80143 41.1859 6.29885C41.428 6.80167 41.5491 7.35857 41.5491 7.98034C41.5491 8.70484 41.3385 9.28877 40.9174 9.72672C40.4963 10.1647 39.9699 10.4458 39.3277 10.5702C40.2857 10.7107 41.0385 11.0622 41.5965 11.6299C42.1544 12.1976 42.4282 12.9167 42.4282 13.7764C42.4282 14.4306 42.286 15.0091 42.0018 15.5119C41.7175 16.0147 41.3227 16.4311 40.8279 16.7663C40.3331 17.1015 39.7435 17.361 39.0645 17.5449C38.4065 17.7125 37.6642 17.8044 36.8588 17.8044Z" fill="black"/>
<path d="M56.1042 7.53158C56.1042 8.84542 55.2619 9.76456 53.5827 10.2998C53.8827 10.3863 54.1617 10.4783 54.4144 10.5702C54.6671 10.6675 54.8829 10.7648 55.0671 10.8675C56.2252 11.4893 56.8043 12.4031 56.8043 13.6088C56.8043 14.7982 56.3568 15.7444 55.4672 16.4419C54.5776 17.1393 53.151 17.4908 51.1823 17.4908C50.3611 17.4908 49.5925 17.4583 48.8766 17.3989C48.1607 17.3394 47.4553 17.307 46.7499 17.307C46.2972 17.307 45.8709 17.3394 45.4761 17.3989C45.0812 17.4583 44.697 17.4908 44.3285 17.4908C43.7073 17.4908 43.3968 17.2042 43.3968 16.6365C43.3968 16.0526 43.6231 15.7552 44.0706 15.7552C44.1706 15.7552 44.3601 15.7823 44.6443 15.8309C44.7286 15.8471 44.818 15.8634 44.9181 15.885C45.0181 15.9012 45.1497 15.912 45.3181 15.912C45.6656 15.912 45.8972 15.6471 46.0025 15.1118C46.113 14.5766 46.1656 13.6466 46.1656 12.3165V9.3158C46.1656 8.57508 46.1446 7.98575 46.1025 7.5424C46.0604 7.10445 46.0025 6.76383 45.9288 6.53134C45.8551 6.29885 45.7656 6.14746 45.6656 6.07717C45.5655 6.00688 45.4603 5.97444 45.3392 5.97444C45.0707 5.97444 44.8654 5.99607 44.7128 6.03932C44.5654 6.08258 44.3443 6.1042 44.0653 6.1042C43.8337 6.1042 43.66 6.0177 43.5547 5.84468C43.4441 5.67167 43.3915 5.49324 43.3915 5.2986C43.3915 4.96879 43.4705 4.74171 43.6336 4.61195C43.7916 4.48218 44.0442 4.4173 44.3811 4.4173C44.8549 4.4173 45.2918 4.44974 45.7077 4.50922C46.1183 4.56869 46.5341 4.60113 46.9552 4.60113C47.2395 4.60113 47.5764 4.59032 47.9659 4.5741C48.3555 4.55788 48.7924 4.53085 49.2767 4.4984C49.9505 4.44434 50.6822 4.42271 51.4718 4.42271C52.9352 4.42271 54.0722 4.69305 54.8776 5.23913C55.7041 5.78521 56.1042 6.54756 56.1042 7.53158ZM48.0712 8.32097C48.0712 8.92652 48.1397 9.32121 48.2871 9.49423C48.4292 9.66724 48.7713 9.75375 49.3083 9.75375H50.44C52.8089 9.75375 53.9933 9.06169 53.9933 7.67216C53.9933 6.38535 53.0194 5.74736 51.0717 5.74736C50.3979 5.74736 49.8663 5.76899 49.4715 5.81224C49.0767 5.85549 48.7766 5.9366 48.566 6.04473C48.3555 6.15827 48.2186 6.30966 48.1607 6.4989C48.1028 6.68813 48.0712 6.93144 48.0712 7.22881V8.32097ZM48.0712 12.3436V14.3387C48.0712 14.6847 48.1028 14.9712 48.1607 15.1929C48.2186 15.42 48.3502 15.593 48.5555 15.7228C48.7556 15.8525 49.0503 15.9391 49.4293 15.9823C49.8084 16.0256 50.3084 16.0472 50.9349 16.0472C53.4458 16.0472 54.7039 15.22 54.7039 13.5655C54.7039 11.9975 53.4985 11.2082 51.0875 11.2082H49.4188C48.9293 11.2082 48.5871 11.2893 48.3818 11.4515C48.1712 11.6137 48.0712 11.911 48.0712 12.3436Z" fill="black"/>
<path d="M62.2789 5.17424V6.00147C63.2211 4.6552 64.5056 3.98476 66.1321 3.98476C67.8114 3.98476 69.1484 4.5795 70.1381 5.76898C71.1277 6.95847 71.6225 8.57508 71.6225 10.608C71.6225 12.7977 71.0961 14.5441 70.0486 15.8471C69.001 17.1502 67.5903 17.799 65.8268 17.799C64.3634 17.799 63.179 17.2745 62.2736 16.2202V18.3667C62.2736 19.0209 62.2894 19.4426 62.3262 19.6373C62.4263 20.1725 62.6684 20.4375 63.0579 20.4375C63.1738 20.4375 63.3527 20.4104 63.5843 20.3618C63.8212 20.3077 63.9949 20.2861 64.1108 20.2861C64.6477 20.2861 64.9161 20.5726 64.9161 21.1403C64.9161 21.708 64.5635 21.9946 63.8581 21.9946C63.6054 21.9946 63.2264 21.9622 62.7263 21.8919C62.3578 21.8378 61.8051 21.8162 61.0629 21.8162C60.6575 21.8162 60.3259 21.8324 60.0574 21.8702C59.3836 21.9567 58.9415 22 58.7204 22C58.4361 22 58.194 21.9081 57.9887 21.7297C57.7834 21.5512 57.6886 21.335 57.6886 21.0971C57.6886 20.5456 57.9729 20.2698 58.5467 20.2698C58.6467 20.2698 58.8099 20.2969 59.0257 20.3455C59.3099 20.4158 59.5205 20.4483 59.6574 20.4483C59.9785 20.4483 60.1732 20.2807 60.2469 19.9454C60.3206 19.6102 60.368 18.6749 60.3838 17.1393L60.4101 7.15311C60.3943 6.35832 60.1732 5.96363 59.7574 5.96363C59.6416 5.96363 59.4573 5.99607 59.2152 6.05554C58.973 6.11502 58.7835 6.14746 58.6467 6.14746C58.0255 6.14746 57.7149 5.8609 57.7149 5.29319C57.7149 4.7417 58.0834 4.46596 58.8257 4.46596C59.0099 4.46596 59.2099 4.47677 59.431 4.49299C59.8521 4.52544 60.1627 4.54706 60.3628 4.54706C60.5154 4.54706 60.7312 4.53625 61.0155 4.50922C61.2998 4.48218 61.5103 4.47137 61.6472 4.47137C62.0683 4.44974 62.2789 4.69304 62.2789 5.17424ZM62.6579 8.33178C62.5052 9.00221 62.421 9.82403 62.4052 10.7918C62.4052 10.8621 62.3947 10.9919 62.3789 11.1811C62.3789 11.3379 62.3789 11.4569 62.3789 11.5434C62.3789 12.7004 62.4684 13.5385 62.6579 14.0683C62.8421 14.5928 63.2053 15.0632 63.7528 15.4795C64.3003 15.8958 64.9741 16.1013 65.7795 16.1013C66.9902 16.1013 67.9272 15.6471 68.5904 14.7442C69.2537 13.8358 69.5854 12.549 69.5854 10.8729C69.5854 7.42345 68.3904 5.6987 66.0058 5.6987C65.2004 5.6987 64.4792 5.94741 63.8528 6.45023C63.2211 6.94225 62.8263 7.57483 62.6579 8.33178Z" fill="black"/>
<path d="M84.3984 17.7017C83.0192 17.7017 82.1717 17.0907 81.8558 15.8634C80.9978 17.1556 79.6555 17.8044 77.8236 17.8044C76.4655 17.8044 75.3758 17.4583 74.5599 16.7717C73.7439 16.0796 73.3386 15.1605 73.3386 14.0034C73.3386 12.5707 73.9334 11.5218 75.1284 10.8459C75.5811 10.5864 75.9706 10.4188 76.3023 10.3431C76.6339 10.2674 77.2867 10.1647 78.2816 10.0457C79.6923 9.88892 80.6135 9.67265 81.0399 9.3969C81.4663 9.12116 81.6821 8.61293 81.6821 7.87221C81.6821 7.16392 81.4452 6.60703 80.9662 6.20152C80.4872 5.79602 79.8186 5.59597 78.9606 5.59597C78.2026 5.59597 77.4972 5.81224 76.8445 6.24478C76.5918 6.41779 76.4655 6.59622 76.4655 6.79086C76.4655 6.86115 76.5392 6.94765 76.6918 7.05038C76.9287 7.2234 77.0445 7.51536 77.0445 7.93168C77.0445 8.27771 76.9234 8.56427 76.6813 8.78594C76.4391 9.01303 76.1286 9.12116 75.7601 9.12116C75.3232 9.12116 74.9599 8.96437 74.6652 8.65618C74.3704 8.348 74.223 7.96412 74.223 7.51536C74.223 6.54756 74.6862 5.72033 75.6232 5.03367C76.5549 4.34161 77.6867 4.00098 79.0133 4.00098C82.0717 4.00098 83.5982 5.50946 83.5982 8.53183V13.7601C83.5982 14.5874 83.614 15.0794 83.6509 15.2362C83.7509 15.8417 84.0351 16.1445 84.5089 16.1445C85.0985 16.1445 85.3933 15.593 85.3933 14.49V13.2195C85.3933 12.668 85.6512 12.3922 86.1723 12.3922C86.7251 12.3922 87.0041 12.8086 87.0041 13.6358V13.7655L86.9777 15.2416C86.9356 16.869 86.0776 17.7017 84.3984 17.7017ZM81.6032 12.549L81.6295 10.7107C81.261 11.0568 80.8715 11.2947 80.4556 11.4352C80.045 11.5758 79.308 11.6948 78.25 11.7975C76.3339 11.9867 75.3758 12.7112 75.3758 13.971C75.3758 14.6252 75.6074 15.1443 76.0706 15.5227C76.5339 15.9012 77.1603 16.0904 77.9499 16.0904C79.0764 16.0904 79.9608 15.7769 80.6083 15.1443C81.2557 14.5225 81.5874 13.652 81.6032 12.549Z" fill="black"/>
<path d="M97.1216 7.92087C97.1216 7.16392 97.0689 6.65028 96.9689 6.37995C96.8689 6.11502 96.7004 5.97985 96.4635 5.97985C96.2793 5.97985 96.0845 6.00688 95.8845 6.05554C95.6845 6.1042 95.5423 6.13124 95.4581 6.13124C95.2212 6.13124 95.0581 6.06095 94.9686 5.92578C94.8738 5.78521 94.8317 5.57975 94.8317 5.30401C94.8317 5.01204 94.8949 4.79037 95.0212 4.64438C95.1475 4.4984 95.3686 4.42271 95.6897 4.42271C95.7424 4.42271 95.8424 4.43352 96.0056 4.46056C96.1635 4.48759 96.3477 4.51462 96.5583 4.53625C96.7689 4.56328 96.9847 4.59032 97.211 4.61194C97.4374 4.63357 97.6427 4.64979 97.8269 4.64979H98.2059C98.3744 4.64979 98.5744 4.63898 98.8113 4.61194C99.0482 4.58491 99.2798 4.55788 99.5062 4.52003C99.7325 4.48759 99.9325 4.46056 100.112 4.44434C100.285 4.42812 100.401 4.4173 100.454 4.4173C100.775 4.4173 100.996 4.493 101.122 4.63898C101.249 4.78496 101.312 5.00664 101.312 5.2986C101.312 5.57434 101.264 5.7798 101.175 5.92037C101.08 6.06095 100.917 6.12583 100.685 6.12583C100.601 6.12583 100.459 6.0988 100.259 6.05014C100.059 6.00148 99.8641 5.97444 99.6799 5.97444C99.443 5.97444 99.2745 6.10961 99.1745 6.37454C99.0745 6.63947 99.0219 7.15311 99.0219 7.91546V13.971C99.0219 14.4901 99.0745 14.8685 99.1745 15.1118C99.2745 15.3551 99.4956 15.4741 99.8325 15.4741H103.738C104.023 15.4741 104.207 15.3551 104.291 15.1118C104.375 14.8685 104.418 14.4901 104.418 13.971V7.91546C104.418 7.15852 104.37 6.64488 104.281 6.37454C104.186 6.10961 104.023 5.97444 103.791 5.97444C103.607 5.97444 103.412 6.00148 103.212 6.05014C103.012 6.0988 102.87 6.12583 102.786 6.12583C102.549 6.12583 102.386 6.05554 102.296 5.92037C102.201 5.7798 102.159 5.57434 102.159 5.2986C102.159 5.00664 102.217 4.78496 102.333 4.63898C102.449 4.493 102.67 4.4173 102.986 4.4173C103.038 4.4173 103.159 4.42812 103.365 4.45515C103.57 4.48218 103.791 4.50922 104.033 4.53084C104.275 4.55788 104.523 4.58491 104.775 4.60654C105.028 4.63357 105.228 4.64438 105.381 4.64438C105.97 4.64438 106.518 4.60654 107.028 4.52544C107.539 4.44974 107.839 4.40649 107.923 4.40649C108.597 4.40649 108.929 4.69305 108.929 5.26075C108.929 5.85009 108.666 6.14205 108.15 6.14205C107.997 6.14205 107.808 6.10961 107.571 6.03932C107.334 5.96904 107.15 5.93659 107.018 5.93659C106.749 5.93659 106.565 6.07176 106.465 6.33669C106.365 6.60162 106.313 7.12608 106.313 7.90465V13.9602C106.313 14.6144 106.365 15.101 106.476 15.4092C106.586 15.7174 106.839 15.8742 107.244 15.8742C107.465 15.8742 107.655 15.8525 107.823 15.8093C107.992 15.766 108.123 15.7444 108.229 15.7444C108.597 15.7444 108.881 15.8417 109.071 16.0418C109.266 16.2418 109.36 16.4851 109.36 16.7771C109.36 16.8636 109.35 17.0042 109.324 17.2042C109.297 17.4043 109.271 17.6097 109.25 17.826C109.224 18.0423 109.203 18.2477 109.187 18.4478C109.171 18.6478 109.16 18.7884 109.16 18.8749C109.16 19.0804 109.171 19.3183 109.197 19.5886C109.224 19.8535 109.234 20.1185 109.234 20.378C109.234 20.6375 109.155 20.8376 108.992 20.9727C108.834 21.1133 108.634 21.1782 108.402 21.1782C107.813 21.1782 107.518 20.8754 107.518 20.2699C107.518 20.1996 107.529 20.0968 107.544 19.9617C107.56 19.8211 107.576 19.6859 107.581 19.5454C107.592 19.4048 107.602 19.275 107.618 19.1561C107.634 19.0371 107.644 18.9398 107.644 18.8695C107.644 18.5073 107.629 18.2153 107.592 17.9882C107.56 17.7611 107.481 17.5935 107.355 17.4854C107.229 17.3718 107.055 17.3016 106.828 17.2637C106.602 17.2313 106.286 17.2096 105.886 17.2096H90.8205C90.652 17.2096 90.431 17.2205 90.152 17.2475C89.873 17.2745 89.5992 17.3016 89.3202 17.3232C89.0412 17.3502 88.7938 17.3772 88.5622 17.3989C88.3306 17.4205 88.199 17.4367 88.1464 17.4367C87.441 17.4367 87.0883 17.1448 87.0883 16.5554C87.0883 16.0039 87.3568 15.7282 87.8937 15.7282C87.9779 15.7282 88.1358 15.7552 88.3622 15.8039C88.5885 15.8525 88.8096 15.8796 89.0307 15.8796C89.2834 15.8796 89.4834 15.7444 89.6361 15.4795C89.7887 15.2146 89.8624 14.7009 89.8624 13.9386V7.88302C89.8624 7.10445 89.8098 6.5854 89.7098 6.31507C89.6098 6.05014 89.4255 5.91497 89.1571 5.91497C89.0202 5.91497 88.836 5.94741 88.6043 6.0177C88.3675 6.08798 88.1779 6.12042 88.0253 6.12042C87.5042 6.12042 87.2462 5.82846 87.2462 5.23913C87.2462 4.67142 87.5831 4.38486 88.2569 4.38486C88.3411 4.38486 88.6359 4.42271 89.1518 4.50381C89.6677 4.58491 90.2151 4.62276 90.7994 4.62276C90.9521 4.62276 91.1521 4.61194 91.4048 4.58491C91.6575 4.55788 91.9049 4.53084 92.147 4.50922C92.3892 4.48759 92.6155 4.45515 92.8156 4.43352C93.0156 4.41189 93.1419 4.39568 93.1946 4.39568C93.5157 4.39568 93.7315 4.47137 93.8526 4.61735C93.9684 4.76333 94.0263 4.98501 94.0263 5.27697C94.0263 5.55272 93.9789 5.75817 93.8894 5.89875C93.7947 6.03932 93.6315 6.1042 93.3999 6.1042C93.3157 6.1042 93.1735 6.07717 92.9735 6.02851C92.7735 5.97985 92.5787 5.95282 92.3944 5.95282C92.1576 5.95282 91.9944 6.08798 91.9049 6.35291C91.8101 6.61784 91.768 7.13148 91.768 7.89383V13.9494C91.768 14.4684 91.8101 14.8469 91.8944 15.0902C91.9786 15.3335 92.1628 15.4525 92.4471 15.4525H96.353C96.6899 15.4525 96.9057 15.3335 97.011 15.0902C97.111 14.8469 97.1637 14.4684 97.1637 13.9494V7.92087H97.1216Z" fill="black"/>
<path d="M121.157 17.7017C119.778 17.7017 118.93 17.0907 118.615 15.8634C117.757 17.1556 116.414 17.8044 114.582 17.8044C113.224 17.8044 112.135 17.4583 111.319 16.7717C110.503 16.0796 110.097 15.1605 110.097 14.0034C110.097 12.5707 110.692 11.5218 111.887 10.8459C112.34 10.5864 112.729 10.4188 113.061 10.3431C113.393 10.2674 114.045 10.1647 115.04 10.0457C116.451 9.88892 117.372 9.67265 117.799 9.3969C118.225 9.12116 118.441 8.61293 118.441 7.87221C118.441 7.16392 118.204 6.60703 117.725 6.20152C117.246 5.79602 116.577 5.59597 115.719 5.59597C114.961 5.59597 114.256 5.81224 113.603 6.24478C113.351 6.41779 113.224 6.59622 113.224 6.79086C113.224 6.86115 113.298 6.94765 113.451 7.05038C113.687 7.2234 113.803 7.51536 113.803 7.93168C113.803 8.27771 113.682 8.56427 113.44 8.78594C113.198 9.01303 112.887 9.12116 112.519 9.12116C112.082 9.12116 111.719 8.96437 111.424 8.65618C111.129 8.348 110.982 7.96412 110.982 7.51536C110.982 6.54756 111.445 5.72033 112.382 5.03367C113.314 4.34161 114.446 4.00098 115.772 4.00098C118.83 4.00098 120.357 5.50946 120.357 8.53183V13.7601C120.357 14.5874 120.373 15.0794 120.41 15.2362C120.51 15.8417 120.794 16.1445 121.268 16.1445C121.857 16.1445 122.152 15.593 122.152 14.49V13.2195C122.152 12.668 122.41 12.3922 122.931 12.3922C123.484 12.3922 123.763 12.8086 123.763 13.6358V13.7655L123.737 15.2416C123.694 16.869 122.836 17.7017 121.157 17.7017ZM118.362 12.549L118.388 10.7107C118.02 11.0568 117.63 11.2947 117.214 11.4352C116.804 11.5758 116.067 11.6948 115.009 11.7975C113.093 11.9867 112.135 12.7112 112.135 13.971C112.135 14.6252 112.366 15.1443 112.829 15.5227C113.293 15.9012 113.919 16.0904 114.709 16.0904C115.835 16.0904 116.72 15.7769 117.367 15.1443C118.009 14.5225 118.341 13.652 118.362 12.549Z" fill="black"/>
<path d="M138.139 17.8044C137.318 17.8044 136.565 17.6638 135.886 17.3772C135.207 17.0907 134.612 16.6852 134.112 16.1607C133.607 15.6363 133.207 14.9983 132.901 14.2467C132.596 13.4952 132.412 12.6572 132.349 11.7218H128.495V13.971C128.495 14.7279 128.569 15.2416 128.722 15.5119C128.874 15.7823 129.074 15.912 129.327 15.912C129.543 15.912 129.769 15.885 129.995 15.8363C130.222 15.7877 130.38 15.7606 130.459 15.7606C130.996 15.7606 131.264 16.0364 131.264 16.5879C131.264 17.1718 130.911 17.4692 130.206 17.4692C130.153 17.4692 130.017 17.4583 129.79 17.4313C129.564 17.4043 129.311 17.3772 129.032 17.3556C128.753 17.3286 128.479 17.3015 128.2 17.2799C127.921 17.2583 127.7 17.2421 127.532 17.2421C126.879 17.2421 126.311 17.2799 125.832 17.361C125.353 17.4421 125.074 17.48 124.989 17.48C124.316 17.48 123.979 17.1934 123.979 16.6257C123.979 16.0418 124.237 15.7444 124.758 15.7444C124.91 15.7444 125.1 15.7768 125.337 15.8471C125.574 15.9174 125.758 15.9499 125.89 15.9499C126.158 15.9499 126.342 15.8147 126.442 15.5498C126.542 15.2848 126.595 14.7604 126.595 13.9818V7.92627C126.595 7.16933 126.521 6.65569 126.369 6.38535C126.216 6.12042 126.016 5.98525 125.763 5.98525C125.542 5.98525 125.321 6.01229 125.095 6.06095C124.868 6.10961 124.71 6.13664 124.626 6.13664C124.089 6.13664 123.821 5.8609 123.821 5.30941C123.821 4.72548 124.173 4.42811 124.879 4.42811C124.931 4.42811 125.068 4.43893 125.295 4.46596C125.521 4.493 125.774 4.52003 126.053 4.54166C126.332 4.56869 126.605 4.59572 126.884 4.61735C127.163 4.63898 127.385 4.6552 127.553 4.6552C128.211 4.6552 128.774 4.61735 129.253 4.53625C129.732 4.46056 130.011 4.4173 130.096 4.4173C130.769 4.4173 131.106 4.70386 131.106 5.27156C131.106 5.8609 130.843 6.15286 130.327 6.15286C130.174 6.15286 129.985 6.12042 129.748 6.05013C129.511 5.97985 129.327 5.94741 129.195 5.94741C128.927 5.94741 128.743 6.08258 128.643 6.34751C128.543 6.61244 128.49 7.13689 128.49 7.91546V9.9592H132.343C132.427 9.04547 132.622 8.21824 132.933 7.47751C133.243 6.73679 133.654 6.1042 134.165 5.59056C134.675 5.07152 135.275 4.67682 135.954 4.40108C136.633 4.12534 137.386 3.98476 138.207 3.98476C139.129 3.98476 139.96 4.14696 140.687 4.46596C141.418 4.78496 142.04 5.24453 142.55 5.83927C143.061 6.43401 143.45 7.15311 143.724 8.00197C143.993 8.84542 144.129 9.78619 144.129 10.8243C144.129 11.857 143.987 12.8086 143.703 13.6682C143.419 14.5333 143.013 15.2686 142.492 15.8796C141.971 16.4905 141.34 16.9663 140.603 17.3015C139.866 17.6368 139.044 17.8044 138.139 17.8044ZM138.265 5.69329C137.091 5.69329 136.165 6.10961 135.496 6.94765C134.823 7.7857 134.454 8.98599 134.386 10.5594V10.8946C134.386 12.5166 134.712 13.7872 135.37 14.7117C136.023 15.6363 136.96 16.0958 138.165 16.0958C139.392 16.0958 140.355 15.6417 141.05 14.7225C141.745 13.8088 142.098 12.522 142.098 10.8675C142.092 7.41804 140.813 5.69329 138.265 5.69329Z" fill="black"/>
<path d="M148.972 17.4692C148.72 17.4692 148.541 17.3772 148.43 17.1988C148.32 17.0204 148.267 16.8041 148.267 16.5662C148.267 16.0147 148.567 15.739 149.172 15.739C149.272 15.739 149.436 15.7714 149.662 15.8417C149.888 15.912 150.109 15.9445 150.33 15.9445C150.715 15.9445 150.952 15.8147 151.036 15.5552C151.12 15.2957 151.162 14.8631 151.162 14.263V7.34775C151.162 6.70976 151.046 6.30966 150.809 6.14205C150.573 5.97985 150.241 5.89875 149.804 5.89875C149.299 5.89875 148.899 5.90956 148.609 5.93659C148.314 5.96363 148.093 6.02851 147.941 6.13124C147.788 6.23397 147.698 6.37995 147.662 6.56918C147.63 6.75842 147.609 7.01794 147.609 7.34775C147.609 7.43426 147.614 7.55321 147.619 7.69919C147.63 7.84517 147.635 8.00197 147.646 8.16417C147.656 8.32637 147.662 8.48857 147.672 8.64537C147.683 8.80216 147.683 8.91571 147.683 8.98059C147.683 9.28877 147.604 9.52667 147.441 9.67806C147.283 9.83485 147.056 9.91055 146.772 9.91055C146.535 9.91055 146.33 9.83485 146.156 9.68887C145.982 9.54289 145.893 9.30499 145.893 8.97518C145.893 8.78594 145.903 8.53723 145.93 8.23986C145.956 7.93709 145.967 7.69378 145.967 7.50455C145.967 7.00172 145.935 6.58 145.867 6.23396C145.798 5.88793 145.767 5.58516 145.767 5.32563C145.767 4.74171 146.109 4.44434 146.798 4.44434C147.035 4.44434 147.451 4.47678 148.046 4.54706C148.641 4.61735 149.546 4.64979 150.752 4.64979H153.447C154.658 4.64979 155.558 4.61735 156.153 4.54706C156.747 4.47678 157.163 4.44434 157.4 4.44434C158.09 4.44434 158.432 4.7363 158.432 5.32563C158.432 5.58516 158.4 5.88793 158.332 6.23396C158.263 6.58 158.232 7.00172 158.232 7.50455C158.232 7.69378 158.242 7.94249 158.269 8.23986C158.295 8.54264 158.305 8.78594 158.305 8.97518C158.305 9.30499 158.216 9.54289 158.042 9.68887C157.869 9.83485 157.658 9.91055 157.426 9.91055C157.142 9.91055 156.921 9.83485 156.758 9.67806C156.6 9.52126 156.516 9.28877 156.516 8.98059C156.516 8.9103 156.521 8.80216 156.526 8.64537C156.537 8.48857 156.542 8.33178 156.553 8.16417C156.563 8.00197 156.568 7.84517 156.579 7.69919C156.589 7.55321 156.589 7.43426 156.589 7.34775C156.589 7.01794 156.574 6.76383 156.537 6.56918C156.505 6.37995 156.41 6.23397 156.258 6.13124C156.105 6.02851 155.884 5.96363 155.589 5.93659C155.294 5.90956 154.894 5.89875 154.394 5.89875C153.957 5.89875 153.62 5.97985 153.389 6.14205C153.152 6.30425 153.036 6.70976 153.036 7.34775V14.2576C153.036 14.8631 153.078 15.2902 153.163 15.5498C153.247 15.8093 153.484 15.9391 153.868 15.9391C154.084 15.9391 154.31 15.9066 154.536 15.8363C154.763 15.766 154.926 15.7336 155.026 15.7336C155.631 15.7336 155.931 16.0093 155.931 16.5608C155.931 16.8041 155.879 17.015 155.768 17.1934C155.658 17.3718 155.479 17.4638 155.226 17.4638C155.11 17.4638 154.931 17.4529 154.694 17.4367C154.457 17.4205 154.2 17.3989 153.915 17.3718C153.631 17.3448 153.326 17.3178 153.01 17.2961C152.689 17.2691 152.378 17.2475 152.078 17.2313C151.773 17.2475 151.462 17.2691 151.146 17.2961C150.825 17.3232 150.525 17.3502 150.241 17.3718C149.957 17.3989 149.699 17.4205 149.472 17.4367C149.262 17.4583 149.088 17.4692 148.972 17.4692Z" fill="black"/>
<path d="M167.412 8.82379C167.412 8.13173 167.833 7.73704 168.67 7.63431C168.586 7.02875 168.307 6.55837 167.828 6.21234C167.349 5.86631 166.733 5.69329 165.975 5.69329C164.817 5.69329 163.885 6.16908 163.18 7.11526C162.475 8.06685 162.122 9.32121 162.122 10.8946C162.122 12.5166 162.454 13.7872 163.117 14.7117C163.78 15.6363 164.701 16.0959 165.875 16.0959C166.612 16.0959 167.254 15.8796 167.802 15.447C168.349 15.0145 168.723 14.4198 168.923 13.6628C169.092 13.0573 169.192 12.7166 169.223 12.6301C169.407 12.2841 169.676 12.1111 170.029 12.1111C170.313 12.1111 170.55 12.2084 170.734 12.3976C170.918 12.5869 171.013 12.8302 171.013 13.1221C171.013 13.5547 170.876 14.0737 170.608 14.6739C170.339 15.2794 170.018 15.7769 169.65 16.177C168.66 17.2637 167.375 17.8098 165.796 17.8098C164.085 17.8098 162.701 17.188 161.653 15.9445C160.606 14.7009 160.08 13.0735 160.08 11.0514C160.08 8.9103 160.622 7.20177 161.706 5.91497C162.79 4.62816 164.228 3.98476 166.028 3.98476C167.37 3.98476 168.486 4.35783 169.381 5.10936C170.271 5.8609 170.718 6.81248 170.718 7.96953C170.718 8.60752 170.544 9.13197 170.202 9.54829C169.86 9.96461 169.418 10.1701 168.881 10.1701C168.46 10.1701 168.112 10.0403 167.833 9.78078C167.549 9.52126 167.412 9.20226 167.412 8.82379Z" fill="black"/>
<path d="M176.256 13.7169C176.256 13.0465 176.361 12.495 176.572 12.0732C176.782 11.6515 177.103 11.2947 177.54 10.9973C176.824 10.7053 176.277 10.2998 175.898 9.78078C175.514 9.26174 175.324 8.5913 175.324 7.76407C175.324 6.78004 175.729 5.97985 176.535 5.35807C177.34 4.7363 178.472 4.42811 179.935 4.42811C180.878 4.42811 181.752 4.46055 182.557 4.52003C183.362 4.5795 183.994 4.61194 184.447 4.61194C184.868 4.61194 185.284 4.5795 185.694 4.52003C186.105 4.46055 186.547 4.42811 187.016 4.42811C187.353 4.42811 187.6 4.493 187.758 4.62276C187.916 4.75252 188 4.98501 188 5.32023C188 5.51487 187.947 5.6987 187.837 5.87171C187.726 6.04473 187.558 6.13664 187.321 6.13664C187.037 6.13664 186.816 6.11502 186.663 6.07176C186.51 6.02851 186.3 6.00688 186.031 6.00688C185.915 6.00688 185.805 6.03932 185.705 6.10961C185.605 6.1799 185.515 6.33129 185.442 6.56378C185.368 6.79626 185.305 7.13148 185.268 7.56943C185.226 8.00737 185.205 8.59671 185.205 9.33743V13.9818C185.205 14.7388 185.279 15.2524 185.431 15.5173C185.584 15.7823 185.784 15.9174 186.037 15.9174C186.252 15.9174 186.479 15.8904 186.705 15.8417C186.931 15.7931 187.089 15.766 187.168 15.766C187.705 15.766 187.974 16.0418 187.974 16.5933C187.974 17.1772 187.621 17.4746 186.916 17.4746C186.863 17.4746 186.726 17.4638 186.5 17.4367C186.273 17.4097 186.021 17.3827 185.742 17.361C185.463 17.334 185.189 17.307 184.91 17.2853C184.631 17.2637 184.41 17.2475 184.241 17.2475C183.589 17.2475 183.02 17.2853 182.541 17.3664C182.062 17.4475 181.783 17.4854 181.699 17.4854C181.025 17.4854 180.688 17.1988 180.688 16.6311C180.688 16.0472 180.946 15.7498 181.462 15.7498C181.609 15.7498 181.804 15.7823 182.036 15.8525C182.267 15.9228 182.452 15.9553 182.583 15.9553C182.852 15.9553 183.031 15.8201 183.131 15.5552C183.231 15.2902 183.283 14.7658 183.283 13.9872V12.3328C183.283 12.0408 183.168 11.8299 182.936 11.711C182.704 11.592 182.389 11.5326 181.988 11.5326H180.067C179.467 11.5326 178.956 11.7218 178.53 12.1003C178.104 12.4787 177.893 12.9978 177.893 13.652C177.893 13.9277 177.898 14.1981 177.904 14.4684C177.914 14.7388 177.914 14.9821 177.914 15.2037C177.914 16.085 177.709 16.723 177.293 17.1177C176.877 17.5124 176.266 17.7125 175.456 17.7125C173.719 17.7125 172.845 16.8852 172.845 15.2308V13.2465C172.845 12.6626 173.124 12.3652 173.677 12.3652C174.198 12.3652 174.456 12.6409 174.456 13.1924V14.463C174.456 15.566 174.756 16.1175 175.35 16.1175C175.724 16.1175 175.972 15.9985 176.093 15.7552C176.214 15.5119 176.272 15.1929 176.272 14.7982C176.272 14.6631 176.266 14.4792 176.261 14.2576C176.256 14.0359 176.256 13.8521 176.256 13.7169ZM183.31 7.2288C183.31 6.93143 183.278 6.68813 183.22 6.49889C183.162 6.30966 183.031 6.15827 182.82 6.04473C182.61 5.93119 182.315 5.85549 181.92 5.81224C181.53 5.76898 180.999 5.74736 180.336 5.74736C179.788 5.74736 179.325 5.80142 178.951 5.90415C178.577 6.00688 178.277 6.15827 178.051 6.34751C177.825 6.53674 177.667 6.76923 177.577 7.03957C177.488 7.3099 177.44 7.60187 177.44 7.91005C177.44 8.60211 177.714 9.13738 178.267 9.51045C178.814 9.88351 179.714 10.0727 180.962 10.0727H182.088C182.62 10.0727 182.957 9.98624 183.099 9.81322C183.241 9.64021 183.31 9.25092 183.31 8.63996V7.2288Z" fill="black"/>
</svg>
