<svg width="215" height="215" viewBox="0 0 215 215" fill="none" xmlns="http://www.w3.org/2000/svg">
<path d="M31.6752 33.9842L40.8558 39.0949L35.8301 29.047C35.5653 28.5268 35.5908 28.1187 35.8912 27.8229L35.9625 27.7515C36.0592 27.6597 36.1967 27.5526 36.3749 27.4353C36.6092 27.2975 36.7568 27.2006 36.8179 27.1496C36.986 27.0221 37.2049 26.8283 37.4748 26.5682C37.7599 26.2927 37.9687 26.0632 38.1062 25.8745L38.5237 25.3033C38.5441 25.2676 38.595 25.2064 38.6815 25.1247C39.1194 24.7014 39.5013 24.6555 39.8221 24.987C40.1174 25.2931 40.1123 25.594 39.8068 25.8847C39.7305 25.9612 39.6083 26.053 39.4351 26.1754C39.2671 26.2928 39.1398 26.3897 39.0634 26.4662C38.5797 26.9354 38.6815 27.5271 39.3689 28.2462L40.3364 29.2459L41.5482 30.5057L44.8987 33.9791C45.5861 34.6932 46.1716 34.8207 46.6452 34.3617C46.7419 34.2699 46.8336 34.1526 46.9201 34.0148C47.1136 33.7955 47.2257 33.6629 47.2664 33.6272C47.5719 33.3314 47.8723 33.3365 48.1626 33.6425C48.4935 33.9842 48.4528 34.3566 48.0454 34.7544C48.0658 34.734 47.9843 34.7952 47.8061 34.9329C47.078 35.494 46.4822 35.9938 46.024 36.4376C45.5759 36.8711 45.1787 37.3199 44.8376 37.7841C44.695 37.9779 44.5575 38.1411 44.42 38.2686C44.0483 38.6257 43.7072 38.6461 43.4017 38.3298C43.086 37.9983 43.1165 37.6515 43.5035 37.2791C43.6003 37.1873 43.6766 37.121 43.7377 37.0904C43.972 36.9119 44.1094 36.8048 44.1502 36.764C44.4964 36.4274 44.3691 35.8612 43.7632 35.0655C43.6359 34.8972 43.1776 34.4025 42.3884 33.5813C42.088 33.2651 41.6552 32.8009 41.0951 32.1838L37.4188 28.3686C37.3627 28.3125 37.3118 28.3074 37.266 28.3533C37.2355 28.3788 37.2355 28.4349 37.2609 28.5217L42.5004 39.2173C42.7346 39.6917 42.643 40.1303 42.2255 40.5332C41.976 40.773 41.7621 40.9158 41.5737 40.9566C41.3853 41.0025 41.1511 40.9464 40.8761 40.7883L30.4175 35.1471C30.336 35.1165 30.2749 35.1216 30.2342 35.1573C30.1934 35.1931 30.2036 35.239 30.2596 35.3002L36.7263 41.8339C37.4035 42.5173 37.9279 42.6805 38.2997 42.3184C38.4066 42.2164 38.5491 42.0787 38.7274 41.9053L38.9005 41.7369C39.2722 41.3799 39.6133 41.3595 39.929 41.6859C40.2396 42.0124 40.2091 42.3592 39.8272 42.7264C39.761 42.7927 39.649 42.8794 39.5013 42.9866C39.262 43.16 39.0074 43.3436 38.7325 43.5374C38.5135 43.6955 38.2589 43.9148 37.9636 44.2005C37.4391 44.7054 37.1133 45.0471 36.991 45.2257L36.5022 45.9193C36.4819 45.9397 36.4615 45.9703 36.4309 46.0162C36.3902 46.0519 36.3647 46.0825 36.3444 46.0978C35.9065 46.5212 35.5246 46.5671 35.2038 46.2304C35.0765 46.0978 35.0103 45.9448 35.0103 45.7714C35.0103 45.598 35.0714 45.4501 35.1936 45.3328C35.3006 45.2308 35.438 45.1236 35.6061 45.0165C35.7741 44.9043 35.8963 44.8176 35.9625 44.7564C36.4462 44.2872 36.3444 43.6955 35.657 42.9764L30.1018 37.223C29.4093 36.509 28.8237 36.3866 28.34 36.8558C28.2636 36.9323 28.1618 37.0547 28.0294 37.223C27.9021 37.3965 27.7952 37.5189 27.7188 37.5903C27.4235 37.8759 27.1281 37.8657 26.8328 37.5597C26.512 37.2281 26.5629 36.8507 26.9907 36.4376C27.0263 36.4019 27.0976 36.3458 27.1892 36.2743L27.7443 35.8459C28.0192 35.6368 28.2687 35.4226 28.4877 35.2135C28.6659 35.04 28.895 34.7799 29.17 34.4433C29.4449 34.1067 29.6486 33.8669 29.7912 33.7292C30.1629 33.3722 30.6364 33.362 31.2118 33.7088L31.6752 33.9842Z" fill="#FDC504"/>
<path d="M55.2046 21.0291C54.9805 21.3912 54.6597 21.7942 54.2269 22.2277C54.9551 21.9268 55.561 21.8809 56.0447 22.0849C56.5285 22.2889 57.0427 22.8142 57.5876 23.6558L58.0815 24.4209C58.112 24.4668 58.1527 24.5331 58.2088 24.6198C58.723 25.4206 59.2373 25.6552 59.7414 25.3237C60.2557 24.987 60.2099 24.3444 59.5937 23.4008L59.273 22.9061L59.0082 22.4929L58.8605 22.2634C58.6517 21.9421 58.5346 21.7074 58.499 21.5595C58.4684 21.3147 58.5805 21.1107 58.8351 20.9424C59.2373 20.6823 59.5886 20.7843 59.8891 21.2535C59.8942 21.2637 59.9705 21.3912 60.108 21.6309L60.3372 21.9829C60.4899 22.2175 60.5866 22.3654 60.6274 22.4317L60.8973 22.85C60.9278 22.9265 60.9889 23.0285 61.0755 23.1611C61.493 23.8088 61.6407 24.426 61.5134 25.0227C61.3861 25.6195 60.9991 26.1244 60.3575 26.5427C59.0438 27.3945 57.9644 27.1598 57.1038 25.8337L56.778 25.3339L56.4113 24.7677L56.172 24.4005C55.6883 23.6558 55.23 23.2529 54.7921 23.1968C54.3542 23.1407 53.6923 23.4008 52.8063 23.9721L51.2635 24.9717C50.9071 25.2013 50.8714 25.5328 51.1515 25.9663L51.9814 27.2516C52.5161 28.0728 52.8267 28.537 52.9234 28.6339C53.3817 29.1235 53.84 29.2255 54.2982 28.9297C54.4561 28.8277 54.5681 28.7461 54.6343 28.6849C54.8125 28.5421 54.95 28.4401 55.0467 28.3738C55.4032 28.1442 55.6985 28.2105 55.9378 28.5778C56.1924 28.9654 56.0753 29.3173 55.5966 29.6285L55.3268 29.756L54.3491 30.2252C53.9774 30.4037 53.6567 30.5823 53.3868 30.7557C53.0558 30.9699 52.6841 31.2504 52.2768 31.5972L51.5435 32.2144C51.3806 32.3521 51.3042 32.4184 51.3144 32.4082C50.8358 32.7193 50.4692 32.6734 50.2095 32.2705C49.9803 31.9135 50.0364 31.6227 50.3826 31.3983C50.4386 31.3626 50.5965 31.2759 50.8561 31.1382C50.9987 31.0923 51.126 31.0311 51.238 30.9597C51.8032 30.5925 51.8185 29.9906 51.2788 29.1541L46.9507 22.4623C46.411 21.6258 45.8559 21.3963 45.2908 21.7636C45.2042 21.8197 45.0769 21.9217 44.9191 22.0645C44.7612 22.2073 44.6339 22.3093 44.5473 22.3654C44.4048 22.4572 44.2469 22.4878 44.0789 22.447C43.9109 22.4062 43.7785 22.3144 43.6868 22.1665C43.4322 21.7789 43.5544 21.4218 44.0433 21.1056C44.0891 21.075 44.1705 21.0342 44.2877 20.973L45.194 20.5037C45.4282 20.3813 45.7134 20.213 46.0494 19.9988C46.3957 19.7744 46.7725 19.5143 47.1798 19.2184L48.4019 18.3309C48.8092 18.0351 49.1911 17.7699 49.5475 17.5404C51.9916 15.9541 53.8145 16.0918 55.0213 17.9535C55.729 19.0603 55.7901 20.0855 55.2046 21.0291ZM50.5048 23.8955L52.0731 22.8806C53.0049 22.2736 53.621 21.687 53.9163 21.1158C54.2728 20.4272 54.2066 19.703 53.7178 18.943C52.898 17.673 51.6199 17.6067 49.8785 18.7339C48.9518 19.3357 48.3713 19.8101 48.132 20.162C47.8927 20.5139 47.9029 20.9016 48.1575 21.3198L49.7461 23.7731C49.8683 23.9619 49.9803 24.0588 50.0771 24.069C50.1687 24.0741 50.3164 24.018 50.5048 23.8955Z" fill="#FDC504"/>
<path d="M62.1753 13.613C61.7578 12.7255 61.2435 12.4246 60.6325 12.7102C60.4645 12.7867 60.3422 12.8581 60.271 12.9244C60.0978 13.052 59.9451 13.1438 59.8127 13.205C59.6548 13.2764 59.497 13.2815 59.3392 13.2203C59.1762 13.1591 59.0591 13.0418 58.9776 12.8734C58.7791 12.4552 58.9471 12.1186 59.4715 11.8737C59.5428 11.838 59.6294 11.8074 59.7312 11.7717L60.7445 11.4504C61.1264 11.328 61.5083 11.1801 61.8953 10.9965C62.267 10.8231 62.659 10.5986 63.0766 10.3334L63.8352 9.84376C63.9269 9.78766 64.0084 9.74176 64.0797 9.70605C64.6092 9.45613 64.9707 9.54284 65.1642 9.96618C65.2457 10.1345 65.2559 10.3028 65.1999 10.466C65.1439 10.6292 65.042 10.7516 64.8842 10.8231C64.762 10.8792 64.5939 10.9353 64.375 10.9965C64.2782 11.0118 64.1459 11.0577 63.9829 11.1393C63.3719 11.4249 63.2751 12.0166 63.6927 12.904L67.0737 20.1263C67.4963 21.0291 68.0106 21.3351 68.6216 21.0444C68.7183 20.9985 68.8354 20.9271 68.9831 20.8302C69.1919 20.6873 69.3446 20.5955 69.4414 20.5496C69.8131 20.3762 70.088 20.4782 70.2662 20.8659C70.4699 21.2994 70.307 21.636 69.7774 21.886C69.752 21.8962 69.7112 21.9166 69.6501 21.9472C69.5941 21.9574 69.5534 21.9727 69.5177 21.988L68.5146 22.2838C68.1786 22.3807 67.8374 22.5133 67.4912 22.6765C66.9871 22.9111 66.5543 23.156 66.1826 23.4008L65.4137 23.9159C65.3883 23.9261 65.3526 23.9516 65.2966 23.9924C65.2355 24.023 65.1897 24.0434 65.154 24.0587C64.6398 24.3036 64.2782 24.2067 64.0797 23.7731C63.9014 23.3906 63.9931 23.1101 64.3648 22.9366C64.4259 22.906 64.5939 22.8448 64.8689 22.7428C65.0166 22.7173 65.154 22.6765 65.2711 22.6204C65.8822 22.3348 65.9789 21.738 65.5563 20.8404L62.1753 13.613Z" fill="#FDC504"/>
<path d="M77.405 14.6943C77.3897 14.6433 77.3541 14.5209 77.293 14.3322C77.2166 14.1333 77.1555 13.9649 77.1148 13.8221L71.6207 9.11441C71.2592 8.80838 71.0402 8.63497 70.9587 8.58906C70.7092 8.45645 70.4445 8.43605 70.1695 8.52276C70.0167 8.56866 69.9098 8.62987 69.8538 8.70638C69.8182 8.71658 69.7571 8.73698 69.6858 8.75738C69.5992 8.78288 69.533 8.80328 69.4974 8.81859C68.9169 9.0022 68.5554 8.86959 68.4179 8.42585C68.2753 7.97191 68.4586 7.66078 68.9627 7.50777C69.1664 7.44656 69.4261 7.39046 69.7469 7.34965C70.3834 7.26294 70.9689 7.13543 71.4985 6.97222C71.8905 6.84981 72.4608 6.61009 73.2093 6.25305C73.4639 6.13064 73.6829 6.04393 73.8764 5.98273C74.3957 5.81951 74.7216 5.95723 74.854 6.38566C74.9813 6.8039 74.7369 7.10993 74.1208 7.30375L73.9324 7.36495L73.082 7.63018C72.9242 7.66588 72.8682 7.73729 72.9038 7.8546C72.9191 7.9056 72.9344 7.93621 72.9547 7.95151C72.9751 7.96681 73.0209 8.01271 73.1024 8.08412L77.5374 12.1186L78.9427 6.26325C78.9733 6.14084 78.9733 6.02863 78.9427 5.93172C78.9071 5.81951 78.8053 5.78381 78.6423 5.83992L78.6016 5.85012L78.2757 6.01333L77.7971 6.21225C77.5883 6.29896 77.4254 6.36016 77.3134 6.39587C76.794 6.55908 76.4681 6.41117 76.3255 5.96233C76.188 5.51349 76.3714 5.20746 76.8755 5.04934C77.0639 4.98814 77.2981 4.93713 77.5781 4.89123C78.3165 4.77392 78.9478 4.63111 79.4672 4.46789C80.012 4.29958 80.5976 4.05986 81.2239 3.75383C81.4632 3.63652 81.672 3.54981 81.8502 3.4937C82.3288 3.34579 82.6394 3.4886 82.7769 3.93234C82.9042 4.33528 82.7311 4.61071 82.2626 4.75862C82.0742 4.81982 81.9215 4.85043 81.8145 4.85553C81.6058 4.89123 81.4632 4.92183 81.3868 4.94734C81.0559 5.04935 80.842 5.28397 80.73 5.6512L80.5823 6.17655L78.6678 13.2101L78.9173 14.0058C79.3195 15.2962 79.62 16.0867 79.8287 16.3673C80.0324 16.6529 80.3532 16.7243 80.7809 16.5917C80.8827 16.5611 81.0304 16.4948 81.229 16.3979C81.4276 16.301 81.5752 16.2398 81.6771 16.2041C82.0691 16.0816 82.3288 16.2245 82.451 16.6274C82.5936 17.0813 82.3797 17.3976 81.8094 17.5761C81.7993 17.5812 81.7585 17.5914 81.6974 17.6118C81.6414 17.6169 81.5956 17.622 81.5599 17.6322L80.4754 17.826C80.068 17.8974 79.676 17.9943 79.2941 18.1116C78.8918 18.2391 78.5099 18.3819 78.1586 18.5503L77.2319 18.9838C77.2064 18.994 77.1708 19.0093 77.125 19.0399C77.0639 19.0603 77.018 19.0756 76.9926 19.0807C76.4223 19.2592 76.0709 19.1266 75.9335 18.6829C75.8062 18.2646 75.9386 17.9943 76.3459 17.8668C76.4477 17.8362 76.6005 17.8056 76.8042 17.775C77.0078 17.7444 77.1657 17.7138 77.2624 17.6832C77.792 17.52 78.0109 17.0813 77.9142 16.3724C77.8836 16.2602 77.7156 15.6991 77.405 14.6943Z" fill="#FDC504"/>
<path d="M96.7846 12.2971L95.8069 10.466C95.7 10.2671 95.5982 10.1447 95.5065 10.1039C95.4149 10.0631 95.2366 10.0631 94.9719 10.0988L91.4687 10.5884C91.209 10.6241 91.0308 10.6956 90.9493 10.8027C90.8678 10.9098 90.7711 11.175 90.6693 11.6034L90.3077 13.1999C90.2772 13.3529 90.267 13.4957 90.2874 13.6232C90.3485 14.0415 90.6285 14.22 91.1428 14.1486C91.2752 14.1282 91.4585 14.0925 91.6978 14.0313C91.9371 13.97 92.1153 13.9343 92.2325 13.9139C92.7722 13.8374 93.0726 14.0313 93.1337 14.4903C93.1948 14.9238 92.93 15.184 92.3394 15.2656C92.2325 15.2809 92.0899 15.286 91.9015 15.286L90.9035 15.3013C90.7151 15.3013 90.4147 15.3319 89.9921 15.3931C89.5338 15.4594 89.213 15.5104 89.0348 15.5614L88.2252 15.7756C87.8637 15.8725 87.5989 15.9286 87.4258 15.9541C86.9166 16.0255 86.6263 15.8419 86.5703 15.4135C86.5092 14.9544 86.7231 14.6892 87.2221 14.6178C87.329 14.6025 87.4105 14.6178 87.4716 14.6637L87.7262 14.628C88.0826 14.577 88.3321 14.4036 88.4747 14.1027C88.5409 13.9853 88.6274 13.6589 88.7394 13.1183L91.0155 2.66743C91.1479 2.08598 91.5247 1.74934 92.1408 1.66264C92.7416 1.58103 93.1795 1.80035 93.4545 2.3206L98.3325 11.6034C98.6431 12.19 98.9028 12.5674 99.1115 12.7408C99.3203 12.9143 99.6003 12.9755 99.9415 12.9245C100.048 12.9092 100.125 12.8888 100.176 12.8632L100.721 12.7357C101.22 12.6643 101.5 12.8479 101.561 13.2815C101.622 13.7405 101.408 14.0058 100.909 14.0772C100.766 14.0976 100.573 14.1078 100.334 14.1129C99.4934 14.1282 98.8671 14.1588 98.4649 14.2149C97.9811 14.2812 97.2021 14.4444 96.1277 14.6994C95.8578 14.7657 95.6491 14.8065 95.5014 14.8269C94.977 14.8983 94.6816 14.7147 94.6205 14.2659C94.5594 13.817 94.814 13.5569 95.3945 13.4753C95.5116 13.46 95.6898 13.4498 95.919 13.4396C96.1532 13.4345 96.3263 13.4243 96.4434 13.409C96.8762 13.3478 97.0697 13.1438 97.0188 12.7867C97.0035 12.7357 96.9322 12.5725 96.7846 12.2971ZM94.8089 8.47685L92.2834 3.28458L91.2294 8.9767C91.2141 9.0583 91.209 9.10931 91.209 9.11951C91.2243 9.23682 91.3312 9.28272 91.5298 9.25722L94.6562 8.82368C94.814 8.80328 94.8853 8.73698 94.87 8.63497C94.87 8.60436 94.8497 8.55336 94.8089 8.47685Z" fill="#FDC504"/>
<path d="M114.087 3.5753C114.183 2.60112 113.898 2.07577 113.226 2.00946C113.043 1.98906 112.9 1.98906 112.809 2.00946C112.595 2.02986 112.411 2.02986 112.269 2.01456C112.096 1.99926 111.958 1.91765 111.851 1.77994C111.744 1.64223 111.704 1.48411 111.719 1.2954C111.765 0.831256 112.065 0.632338 112.615 0.688443C112.63 0.688443 112.727 0.708845 112.91 0.739448C114.866 1.07098 115.777 1.22909 115.65 1.21889L115.848 1.23929L120.609 1.58102C120.701 1.59122 121.042 1.60653 121.638 1.62693C121.852 1.63713 122.04 1.64733 122.208 1.66263C122.89 1.73404 123.201 2.07067 123.14 2.67762C123.13 2.78473 123.079 3.11626 122.982 3.68241C122.911 4.10065 122.86 4.48829 122.819 4.84532C122.773 5.30946 122.753 5.63079 122.753 5.81951C122.758 6.20714 122.753 6.49277 122.733 6.67638C122.682 7.17623 122.422 7.40575 121.954 7.35474C121.485 7.30374 121.287 6.93651 121.358 6.23264L121.46 5.20235C121.572 4.09555 121.409 3.41719 120.966 3.17237C120.64 2.99385 119.764 2.83064 118.338 2.68782C117.401 2.59091 116.846 2.55521 116.673 2.58071C116.093 2.66742 115.767 3.03465 115.706 3.68241L115.614 4.57499C115.604 4.6821 115.589 4.82492 115.568 5.00853C115.548 5.19215 115.538 5.32476 115.528 5.40637L115.502 5.66139C115.446 6.19184 115.533 6.50297 115.762 6.60498C115.848 6.64068 116.006 6.67128 116.225 6.69168L117.025 6.77329C117.844 6.8549 118.282 6.61518 118.338 6.04903C118.354 5.89091 118.359 5.68689 118.349 5.43187C118.343 5.17685 118.349 4.95243 118.369 4.75351C118.42 4.22816 118.685 3.98334 119.148 4.03434C119.616 4.08025 119.82 4.39138 119.764 4.95753C119.754 5.06464 119.667 5.46757 119.509 6.17144C119.377 6.77329 119.285 7.30374 119.24 7.76278C119.214 8.02801 119.194 8.49725 119.178 9.17561C119.178 9.28272 119.189 9.51734 119.209 9.87947C119.219 10.1753 119.214 10.4048 119.199 10.5782C119.153 11.0526 118.888 11.2668 118.415 11.2209C117.951 11.175 117.753 10.8741 117.809 10.3181C117.824 10.1753 117.86 9.96108 117.921 9.69075C117.982 9.41533 118.018 9.20621 118.033 9.0634C118.089 8.49725 117.743 8.17592 116.994 8.09941L116.103 8.0076C115.721 7.9668 115.482 8.0127 115.38 8.13511C115.283 8.25753 115.212 8.53805 115.166 8.97159L115.044 10.2008C115.024 10.4099 115.003 10.6955 114.978 11.0526C114.947 11.4912 114.922 11.7819 114.912 11.9248C114.871 12.4552 114.942 12.7969 115.125 12.9448C115.263 13.052 115.599 13.1336 116.139 13.1897L118.827 13.46C119.606 13.5365 120.151 13.4753 120.462 13.2764C120.772 13.0724 120.966 12.6592 121.027 12.0217C121.047 11.8227 121.068 11.5269 121.088 11.1393C121.108 10.7466 121.129 10.4558 121.149 10.2569C121.21 9.66525 121.475 9.38983 121.938 9.43573C122.432 9.48674 122.646 9.81317 122.585 10.4201C122.559 10.6598 122.514 11.022 122.447 11.5065C122.381 11.9911 122.33 12.3532 122.31 12.5929C122.29 12.7765 122.274 13.052 122.259 13.4192C122.244 13.7864 122.223 14.0567 122.208 14.2455C122.147 14.8677 121.811 15.1431 121.205 15.0819C121.057 15.0666 120.833 15.0309 120.518 14.9748C120.36 14.9442 120.07 14.9085 119.652 14.8677C119.744 14.8779 119.229 14.8116 118.114 14.6739C116.999 14.5362 116.032 14.424 115.212 14.3424C113.975 14.2149 112.758 14.1333 111.566 14.0925C111.515 14.0874 111.454 14.0874 111.388 14.0925C111.322 14.0874 111.281 14.0823 111.271 14.0823C110.716 14.0261 110.466 13.7609 110.512 13.2866C110.553 12.8632 110.782 12.6745 111.189 12.7153C111.256 12.7204 111.434 12.751 111.719 12.8071C111.862 12.8632 111.994 12.8938 112.126 12.9091C112.798 12.9755 113.185 12.5164 113.282 11.5269L114.087 3.5753Z" fill="#FDC504"/>
<path d="M132.315 6.9722L132.784 15.8725L137.545 8.55844C137.906 7.99739 138.12 7.58936 138.186 7.33433C138.319 6.84979 138.13 6.53356 137.621 6.39585C137.53 6.37035 137.387 6.34994 137.188 6.32954C136.99 6.30914 136.842 6.28874 136.756 6.26324C136.257 6.12552 136.068 5.8348 136.19 5.38596C136.307 4.95242 136.613 4.7994 137.097 4.93202C137.367 5.00342 137.759 5.15644 138.283 5.38086C138.808 5.60528 139.205 5.75829 139.485 5.8348C139.943 5.96231 140.529 6.05922 141.236 6.13062C141.466 6.15103 141.674 6.18673 141.868 6.24283C142.341 6.37035 142.514 6.66107 142.392 7.10991C142.275 7.54345 141.98 7.69647 141.506 7.56895C141.496 7.56385 141.471 7.55365 141.435 7.52815L141.007 7.37004L140.911 7.34453C140.692 7.28333 140.488 7.34453 140.294 7.51795C140.101 7.69136 139.79 8.0994 139.352 8.73696L133.685 17.1017C133.298 17.6679 132.809 17.8719 132.224 17.7087C131.613 17.5404 131.282 17.1119 131.236 16.4285L130.442 5.8552C130.406 5.33495 130.355 4.99832 130.284 4.84531C130.167 4.58008 129.912 4.39137 129.53 4.28936C129.454 4.26896 129.332 4.23325 129.169 4.18735C129.001 4.14144 128.884 4.11084 128.807 4.08534C128.308 3.94763 128.12 3.662 128.237 3.22846C128.359 2.77962 128.675 2.62661 129.184 2.76942C129.337 2.81022 129.505 2.87653 129.688 2.96324C130.365 3.28967 130.981 3.52939 131.531 3.6773C131.852 3.76401 132.336 3.85072 132.982 3.94253C133.629 4.03433 134.108 4.11594 134.413 4.20265C134.887 4.33016 135.065 4.61069 134.948 5.02892C134.821 5.48797 134.515 5.65118 134.031 5.51857C134.006 5.51347 133.95 5.49817 133.858 5.47266C133.782 5.45226 133.716 5.43186 133.665 5.42166C133.588 5.40126 133.482 5.37066 133.339 5.32985C132.779 5.17684 132.448 5.27885 132.351 5.63588C132.3 5.81439 132.28 6.01331 132.29 6.23773L132.315 6.9722Z" fill="#FDC504"/>
<path d="M147.632 11.5014C148.044 10.6088 147.942 10.0223 147.331 9.73667C147.163 9.66016 147.031 9.61426 146.934 9.59896C146.725 9.54795 146.552 9.48675 146.425 9.42554C146.267 9.35414 146.165 9.23682 146.109 9.06851C146.053 8.9053 146.063 8.73698 146.145 8.56867C146.338 8.14533 146.69 8.05352 147.194 8.28814C147.204 8.29324 147.291 8.33914 147.454 8.43095C149.195 9.38474 150.005 9.83358 149.882 9.77747L150.061 9.85908L154.445 11.7412C154.531 11.782 154.847 11.9044 155.402 12.1186C155.6 12.1951 155.774 12.2716 155.931 12.343C156.553 12.6337 156.736 13.052 156.481 13.6079C156.436 13.7048 156.278 14.0007 156.003 14.5056C155.799 14.8779 155.621 15.2299 155.473 15.5512C155.28 15.9745 155.152 16.2704 155.091 16.4489C154.969 16.8161 154.872 17.0864 154.791 17.2547C154.577 17.7138 154.261 17.8413 153.834 17.6424C153.406 17.4435 153.34 17.0252 153.635 16.3877L154.068 15.4492C154.536 14.4393 154.602 13.7456 154.266 13.3682C154.017 13.0928 153.243 12.649 151.945 12.0472C151.094 11.6493 150.58 11.4351 150.407 11.3994C149.831 11.2923 149.404 11.532 149.129 12.1237L148.752 12.9347C148.706 13.0316 148.645 13.1642 148.569 13.3325C148.492 13.5008 148.436 13.6232 148.401 13.6946L148.294 13.9394C148.07 14.4189 148.049 14.7453 148.227 14.9187C148.299 14.9799 148.436 15.0615 148.635 15.1534L149.363 15.49C150.111 15.8368 150.6 15.7501 150.84 15.235C150.906 15.0922 150.977 14.8983 151.053 14.6535C151.13 14.4087 151.211 14.1996 151.293 14.0211C151.517 13.5416 151.843 13.3988 152.265 13.5977C152.693 13.7966 152.785 14.1537 152.545 14.6688C152.5 14.7657 152.291 15.1177 151.909 15.7348C151.588 16.2551 151.328 16.7294 151.135 17.1476C151.023 17.3874 150.85 17.826 150.616 18.4636C150.585 18.5656 150.514 18.79 150.412 19.1368C150.325 19.4173 150.244 19.6367 150.173 19.7948C149.974 20.2283 149.653 20.3456 149.225 20.1416C148.803 19.9478 148.711 19.5959 148.945 19.0909C149.007 18.9583 149.108 18.7747 149.256 18.535C149.404 18.2952 149.506 18.1116 149.567 17.979C149.806 17.4639 149.582 17.0456 148.9 16.7243L148.09 16.3469C147.744 16.1837 147.499 16.1479 147.367 16.2296C147.235 16.3112 147.072 16.556 146.888 16.9487L146.369 18.0657C146.282 18.2595 146.165 18.5197 146.028 18.8512C145.855 19.2541 145.738 19.5194 145.676 19.652C145.463 20.1365 145.422 20.4833 145.549 20.6874C145.641 20.8353 145.936 21.0189 146.425 21.2484L148.874 22.3858C149.582 22.7173 150.117 22.8347 150.478 22.7479C150.84 22.6612 151.155 22.3297 151.42 21.7483C151.502 21.5697 151.619 21.2943 151.766 20.9322C151.914 20.57 152.026 20.2946 152.113 20.1161C152.362 19.5755 152.703 19.402 153.131 19.601C153.579 19.8101 153.676 20.1926 153.421 20.7435C153.319 20.9577 153.156 21.2892 152.932 21.7227C152.708 22.1614 152.545 22.4878 152.444 22.702C152.367 22.8704 152.26 23.1254 152.123 23.462C151.985 23.7986 151.883 24.0537 151.802 24.222C151.542 24.7881 151.135 24.9411 150.58 24.6861C150.448 24.6249 150.244 24.5127 149.964 24.3546C149.826 24.273 149.562 24.1455 149.18 23.967C149.266 24.0078 148.803 23.7782 147.79 23.2784C146.781 22.7785 145.9 22.3552 145.157 22.0135C144.027 21.4881 142.906 21.0138 141.791 20.5802C141.746 20.5598 141.684 20.5394 141.623 20.5241C141.562 20.4986 141.527 20.4782 141.516 20.4731C141.012 20.2385 140.86 19.907 141.063 19.4734C141.241 19.0909 141.516 18.9838 141.888 19.1572C141.949 19.1827 142.107 19.2745 142.357 19.4173C142.474 19.5143 142.591 19.5908 142.708 19.6469C143.319 19.9325 143.833 19.6214 144.256 18.7186L147.632 11.5014Z" fill="#FDC504"/>
<path d="M165.973 19.3816L164.053 31.5666L168.6 24.9717C169.185 24.12 169.506 23.6456 169.552 23.5538C169.847 22.9163 169.766 22.447 169.323 22.1359C169.236 22.0747 169.094 21.9982 168.9 21.9064C168.707 21.8146 168.569 21.7381 168.478 21.6768C168.335 21.5799 168.249 21.4422 168.218 21.2688C168.188 21.0954 168.218 20.9373 168.315 20.7945C168.585 20.4017 168.967 20.3762 169.455 20.7129C169.552 20.7792 169.618 20.8353 169.659 20.8761L170.326 21.483C170.621 21.7534 170.912 21.9829 171.197 22.1818C171.482 22.3756 171.874 22.6051 172.388 22.8704C172.566 22.9622 172.775 23.0693 173.009 23.1917C173.03 23.207 173.071 23.2274 173.137 23.258C173.183 23.2886 173.218 23.3141 173.249 23.3396C173.717 23.6609 173.824 24.0129 173.564 24.3903C173.31 24.7575 172.964 24.783 172.521 24.477C172.444 24.4209 172.383 24.3801 172.337 24.3495L172.169 24.2322C171.838 24.0027 171.574 23.9211 171.375 23.9976C171.176 24.069 170.901 24.3393 170.55 24.8034L169.909 25.7368L165.749 31.7707C165.229 32.5204 164.781 32.9948 164.399 33.1784C164.017 33.362 163.62 33.3161 163.208 33.0305C162.673 32.6581 162.48 31.9645 162.632 30.9444L164.481 19.0501L159.236 26.66C158.671 27.4761 158.666 28.0779 159.221 28.4656C159.307 28.5268 159.445 28.6084 159.628 28.7104C159.811 28.8124 159.949 28.8991 160.035 28.9552C160.382 29.1949 160.438 29.4908 160.198 29.8427C159.944 30.215 159.572 30.2303 159.078 29.8886C159.058 29.8733 159.022 29.8529 158.981 29.8223C158.936 29.7713 158.9 29.7407 158.88 29.7254L158.279 29.1643C157.948 28.8532 157.617 28.5829 157.291 28.3585C157.006 28.1646 156.624 27.9351 156.14 27.6852L155.269 27.2313C155.249 27.216 155.208 27.1955 155.142 27.17C155.086 27.1343 155.045 27.1037 155.01 27.0782C154.541 26.7518 154.44 26.3999 154.704 26.0173C154.939 25.6807 155.229 25.6297 155.575 25.8694C155.631 25.9051 155.768 26.0173 155.993 26.2061C156.089 26.3234 156.191 26.4152 156.303 26.4917C156.858 26.8742 157.418 26.66 157.983 25.8388L158.773 24.6912L160.738 21.8452L162.52 19.2592C163.085 18.4432 163.085 17.8362 162.52 17.4486C162.444 17.3976 162.327 17.3313 162.174 17.2548C161.945 17.1476 161.782 17.0558 161.685 16.9895C161.339 16.7498 161.288 16.4489 161.538 16.0918C161.802 15.7093 162.164 15.6787 162.632 16.0051C162.698 16.051 162.78 16.1173 162.882 16.2041C163.386 16.6325 163.788 16.9538 164.083 17.1527C164.246 17.265 164.501 17.418 164.852 17.6118C165.199 17.8056 165.458 17.9586 165.621 18.0708C165.957 18.3054 166.1 18.5707 166.054 18.8767L165.973 19.3816Z" fill="#FDC504"/>
<path d="M174.674 39.0949C173.982 39.809 173.88 40.4006 174.364 40.8699C174.44 40.9413 174.568 41.0433 174.741 41.1657C174.914 41.2881 175.041 41.3901 175.117 41.4615C175.24 41.5788 175.306 41.7318 175.306 41.9104C175.306 42.0889 175.25 42.2419 175.133 42.3643C174.812 42.6958 174.435 42.655 174.007 42.2419C173.987 42.2215 173.962 42.196 173.921 42.1603C173.88 42.1042 173.855 42.0685 173.834 42.0481L173.234 41.2677C173.004 40.9719 172.724 40.6608 172.388 40.3394C172.027 39.9875 171.691 39.6968 171.375 39.4672L170.565 38.8756C170.535 38.8501 170.499 38.8195 170.453 38.794C170.408 38.7481 170.372 38.7175 170.352 38.6971C169.934 38.289 169.883 37.9218 170.209 37.5903C170.504 37.2842 170.805 37.2791 171.105 37.575C171.181 37.6464 171.283 37.7739 171.411 37.9422C171.538 38.1156 171.645 38.238 171.716 38.3094C172.19 38.7685 172.775 38.6461 173.468 37.932L175.652 35.6725L176.828 34.4586L179.079 32.1277C179.731 31.4493 179.71 30.7761 179.018 30.1028L178.575 29.6744C177.893 29.0113 177.226 29.0113 176.579 29.6795C176.35 29.9192 176.197 30.0824 176.126 30.1793L175.683 30.7659C175.611 30.8628 175.499 30.9852 175.352 31.1382C174.771 31.74 174.298 31.8574 173.926 31.5003C173.575 31.1586 173.61 30.771 174.033 30.3323C174.155 30.2099 174.369 30.0059 174.685 29.7152C175.153 29.2867 175.448 29.0113 175.571 28.8838C175.8 28.6441 176.034 28.389 176.263 28.1187C176.721 27.5832 176.91 27.3536 176.839 27.4302C177.225 27.0323 177.597 27.0068 177.959 27.3536C178.091 27.4812 178.386 27.7974 178.845 28.2921C178.891 28.338 179.262 28.7359 179.955 29.4805L181.579 31.0566C181.767 31.2402 182.287 31.7247 183.127 32.5102C183.305 32.6836 183.626 32.9744 184.089 33.3722C184.502 33.7241 184.817 34.0047 185.036 34.2189C185.51 34.6779 185.561 35.1063 185.184 35.494L185.159 35.5246C185.067 35.6215 184.884 35.7847 184.614 36.0193C184.339 36.254 184.049 36.5039 183.733 36.7742L183.58 36.9323C183.443 37.0751 183.239 37.3148 182.974 37.6464C182.623 38.085 182.404 38.3502 182.312 38.4471C181.935 38.8399 181.559 38.8552 181.187 38.493C180.825 38.1411 180.876 37.728 181.34 37.2485C181.508 37.0751 181.767 36.8354 182.124 36.5243C182.48 36.2131 182.74 35.9683 182.908 35.8C183.544 35.142 183.488 34.4433 182.74 33.719L182.343 33.3314C181.991 32.9897 181.666 32.8213 181.37 32.8213C181.075 32.8213 180.754 32.9846 180.403 33.3059L179.379 34.2495L174.674 39.0949Z" fill="#FDC504"/>
<path d="M192.328 42.4051C193.117 43.4354 193.433 44.532 193.27 45.6949L193.489 45.5266C193.896 45.2104 194.227 45.2155 194.477 45.5419C194.752 45.8989 194.66 46.2508 194.212 46.5977L194.115 46.6691C194.095 46.6844 193.922 46.7915 193.606 46.9853C193.29 47.1791 192.924 47.4342 192.516 47.7504C192.465 47.7912 192.302 47.9289 192.038 48.1686L191.442 48.6991C191.396 48.7501 191.33 48.8113 191.233 48.8827C190.729 49.2703 190.327 49.2703 190.031 48.8776C189.716 48.4695 189.772 48.1023 190.189 47.7759L190.266 47.7147L190.714 47.4188C190.867 47.3168 190.989 47.2352 191.075 47.1689C191.707 46.6844 192.038 46.0927 192.068 45.394C192.099 44.6952 191.829 43.9709 191.254 43.2212C190.729 42.5377 190.144 42.1195 189.497 41.9767C188.85 41.8287 188.244 41.9767 187.674 42.4102C187.012 42.9202 186.752 43.5935 186.9 44.4351C186.992 44.8992 187.287 45.6082 187.796 46.5518C188.555 47.9595 188.942 49.0255 188.947 49.7549C188.962 50.8464 188.499 51.7542 187.557 52.4785C186.569 53.2385 185.495 53.4986 184.334 53.2691C183.173 53.0345 182.16 52.3612 181.299 51.234C180.382 50.0354 180.001 48.7552 180.153 47.3882C180.113 47.4188 180.067 47.4546 180.011 47.4954C179.96 47.5362 179.929 47.5566 179.919 47.5668C179.787 47.7351 179.695 47.8422 179.639 47.883C179.257 48.1788 178.916 48.1329 178.616 47.7402C178.295 47.3168 178.351 46.9394 178.794 46.5977C178.845 46.5569 178.901 46.5416 178.957 46.5467L179.833 45.9907C180.27 45.7102 180.545 45.5266 180.662 45.4399C180.871 45.2767 181.167 45.0063 181.543 44.6289C181.92 44.2464 182.21 43.976 182.424 43.8179C182.898 43.4558 183.285 43.4711 183.59 43.874C183.906 44.2821 183.825 44.6697 183.351 45.0369L183.066 45.2563C182.979 45.3226 182.862 45.4144 182.704 45.5368C181.915 46.1437 181.477 46.8782 181.401 47.7402C181.324 48.6022 181.615 49.459 182.272 50.321C182.883 51.1167 183.56 51.6063 184.298 51.7899C185.036 51.9736 185.734 51.8103 186.386 51.3105C187.384 50.5454 187.511 49.4437 186.763 48.0105L186.233 46.9904C185.703 45.9754 185.357 45.1389 185.189 44.481C185.041 43.874 185.077 43.2722 185.296 42.6805C185.515 42.0838 185.892 41.5839 186.432 41.1708C187.353 40.4618 188.366 40.2221 189.456 40.4516C190.546 40.6811 191.508 41.334 192.328 42.4051Z" fill="#FDC504"/>
<path d="M208.637 78.7408L199.655 84.1932L210.857 84.8103C211.438 84.8409 211.784 85.0602 211.886 85.4734L211.911 85.5703C211.942 85.6978 211.967 85.8712 211.982 86.0854C211.982 86.3609 211.993 86.5343 212.013 86.6108C212.038 86.825 212.1 87.1106 212.191 87.4677C212.288 87.8553 212.385 88.1511 212.481 88.3602L212.767 89.008C212.787 89.0437 212.818 89.1202 212.843 89.2324C212.991 89.8241 212.843 90.176 212.395 90.2933C211.982 90.4004 211.728 90.2423 211.621 89.8343C211.595 89.7323 211.575 89.5741 211.555 89.3701C211.534 89.161 211.514 89.008 211.489 88.906C211.321 88.248 210.755 88.044 209.793 88.2888L208.444 88.6306L202.074 90.2576C201.111 90.5024 200.714 90.9462 200.877 91.5888C200.908 91.7163 200.964 91.854 201.04 91.9969C201.137 92.2723 201.193 92.4355 201.208 92.4865C201.315 92.8996 201.157 93.1547 200.75 93.2618C200.286 93.3791 199.986 93.1598 199.849 92.6089C199.854 92.6344 199.844 92.5324 199.813 92.308C199.691 91.395 199.553 90.6299 199.395 90.0128C199.243 89.4109 199.049 88.8397 198.82 88.3143C198.723 88.095 198.652 87.891 198.606 87.7125C198.479 87.2126 198.632 86.9066 199.059 86.7944C199.502 86.6822 199.787 86.8862 199.92 87.4014C199.95 87.5289 199.971 87.6309 199.966 87.6972C200.006 87.993 200.027 88.1613 200.042 88.2174C200.159 88.6816 200.714 88.855 201.707 88.7224C201.921 88.6969 202.573 88.5439 203.678 88.2633C204.1 88.1562 204.716 88.0134 205.531 87.8298L207.262 87.3911L210.664 86.5241C210.74 86.5037 210.771 86.4629 210.755 86.3966C210.745 86.3558 210.699 86.3303 210.613 86.3099L198.739 85.5601C198.214 85.5295 197.878 85.2337 197.735 84.6675C197.649 84.3309 197.634 84.0759 197.69 83.8871C197.746 83.7035 197.909 83.525 198.178 83.3618L208.265 77.078C208.332 77.0219 208.357 76.9658 208.347 76.9148C208.332 76.8638 208.291 76.8485 208.214 76.8689L199.344 79.2508C198.418 79.5007 198.016 79.8782 198.143 80.378C198.178 80.5208 198.229 80.7146 198.29 80.9544L198.352 81.1839C198.479 81.6837 198.326 81.9898 197.888 82.102C197.45 82.2142 197.17 82.0102 197.038 81.495C197.018 81.4032 196.992 81.2655 196.972 81.0819C196.936 80.7912 196.906 80.4749 196.875 80.1434C196.849 79.8782 196.783 79.5415 196.681 79.1437C196.503 78.4347 196.366 77.9859 196.274 77.7921L195.913 77.0219C195.908 76.9964 195.892 76.9607 195.867 76.9097C195.852 76.8587 195.846 76.8179 195.836 76.7924C195.689 76.2007 195.836 75.8488 196.284 75.7315C196.462 75.6856 196.631 75.706 196.778 75.7876C196.926 75.8692 197.028 75.9967 197.068 76.165C197.104 76.3079 197.13 76.4762 197.14 76.6802C197.15 76.8842 197.165 77.027 197.191 77.1188C197.359 77.7768 197.924 77.9808 198.886 77.736L206.621 75.7672C207.583 75.5224 207.98 75.0735 207.812 74.4156C207.787 74.3136 207.731 74.1606 207.644 73.9667C207.558 73.7678 207.507 73.6199 207.476 73.5179C207.374 73.1201 207.527 72.8701 207.94 72.763C208.388 72.6508 208.688 72.8803 208.836 73.4567C208.851 73.5077 208.861 73.5944 208.882 73.7117L208.978 74.4054C209.024 74.7471 209.085 75.0684 209.162 75.3643C209.223 75.6091 209.335 75.9304 209.493 76.3385C209.65 76.7414 209.752 77.0423 209.803 77.2361C209.93 77.736 209.701 78.1491 209.116 78.4806L208.637 78.7408Z" fill="#FDC504"/>
<path d="M208.169 105.63C207.965 105.258 207.777 104.774 207.614 104.187C207.512 104.967 207.252 105.518 206.83 105.84C206.412 106.156 205.699 106.344 204.701 106.401L203.79 106.452C203.739 106.457 203.657 106.457 203.55 106.467C202.603 106.518 202.145 106.844 202.176 107.451C202.211 108.068 202.792 108.344 203.917 108.283L204.996 108.227L205.271 108.211C205.653 108.191 205.913 108.201 206.061 108.247C206.29 108.339 206.412 108.538 206.427 108.844C206.453 109.318 206.188 109.573 205.633 109.604C205.618 109.604 205.475 109.604 205.195 109.609L204.777 109.629C204.497 109.644 204.319 109.655 204.243 109.66L203.749 109.685C203.667 109.675 203.55 109.675 203.393 109.685C202.624 109.726 202.018 109.548 201.565 109.14C201.111 108.731 200.862 108.145 200.821 107.38C200.735 105.819 201.478 104.993 203.051 104.906L203.647 104.876L204.319 104.84L204.757 104.814C205.643 104.763 206.218 104.564 206.483 104.212C206.748 103.861 206.855 103.157 206.794 102.101L206.692 100.26C206.667 99.8363 206.397 99.6425 205.882 99.668L204.355 99.7547C203.377 99.8108 202.822 99.8516 202.69 99.8873C202.033 100.045 201.722 100.392 201.753 100.933C201.763 101.117 201.778 101.259 201.799 101.351C201.834 101.576 201.855 101.744 201.865 101.866C201.885 102.29 201.682 102.514 201.244 102.54C200.78 102.565 200.536 102.295 200.505 101.723L200.531 101.423L200.612 100.341C200.643 99.9281 200.648 99.5609 200.633 99.2446C200.612 98.8468 200.551 98.3877 200.46 97.8624L200.286 96.9137C200.251 96.7046 200.23 96.6026 200.23 96.6179C200.2 96.0466 200.424 95.7508 200.897 95.7253C201.32 95.6998 201.544 95.8936 201.565 96.3068C201.57 96.3731 201.565 96.5516 201.554 96.8474C201.524 96.9953 201.509 97.133 201.519 97.2656C201.554 97.9389 202.069 98.25 203.062 98.199L211.015 97.7604C212.008 97.7043 212.481 97.3422 212.446 96.6638C212.441 96.5567 212.415 96.3986 212.369 96.1895C212.324 95.9803 212.298 95.8222 212.293 95.7151C212.283 95.5417 212.339 95.3938 212.456 95.2663C212.573 95.1388 212.721 95.0725 212.894 95.0623C213.357 95.0368 213.602 95.3173 213.637 95.8987C213.642 95.9497 213.637 96.0466 213.632 96.1793L213.586 97.1993C213.576 97.4646 213.581 97.7961 213.602 98.1939C213.622 98.602 213.663 99.061 213.719 99.5609L213.882 101.065C213.938 101.565 213.973 102.029 213.999 102.453C214.157 105.365 213.133 106.885 210.918 107.008C209.615 107.064 208.698 106.61 208.169 105.63ZM208.026 100.117L208.128 101.984C208.189 103.095 208.393 103.922 208.744 104.457C209.167 105.11 209.824 105.416 210.725 105.365C212.232 105.284 212.93 104.202 212.812 102.131C212.751 101.03 212.629 100.285 212.441 99.9026C212.252 99.5201 211.916 99.3364 211.427 99.3517L208.51 99.515C208.286 99.5252 208.143 99.5762 208.092 99.6578C208.041 99.7394 208.011 99.8924 208.026 100.117Z" fill="#FDC504"/>
<path d="M211.147 115.357C212.125 115.433 212.639 115.138 212.69 114.464C212.705 114.281 212.7 114.138 212.685 114.046C212.665 113.832 212.655 113.653 212.67 113.506C212.685 113.332 212.756 113.194 212.894 113.082C213.026 112.975 213.189 112.924 213.373 112.939C213.836 112.975 214.045 113.286 213.994 113.868C213.989 113.949 213.973 114.041 213.953 114.143L213.729 115.184C213.642 115.576 213.586 115.984 213.551 116.408C213.52 116.816 213.515 117.27 213.541 117.764L213.586 118.667C213.591 118.774 213.591 118.866 213.586 118.948C213.541 119.529 213.286 119.799 212.823 119.764C212.639 119.748 212.487 119.677 212.369 119.55C212.252 119.422 212.201 119.269 212.217 119.101C212.227 118.968 212.262 118.79 212.319 118.57C212.354 118.478 212.375 118.341 212.39 118.157C212.441 117.484 211.982 117.106 211.005 117.03L203.067 116.397C202.079 116.321 201.554 116.617 201.503 117.29C201.493 117.397 201.498 117.535 201.509 117.708C201.529 117.963 201.534 118.142 201.524 118.249C201.493 118.657 201.264 118.846 200.841 118.815C200.368 118.779 200.154 118.468 200.2 117.887C200.2 117.861 200.205 117.815 200.21 117.749C200.225 117.698 200.236 117.652 200.241 117.611L200.48 116.591C200.561 116.25 200.617 115.893 200.648 115.505C200.694 114.949 200.699 114.449 200.668 114.01L200.602 113.087C200.602 113.062 200.602 113.016 200.592 112.944C200.597 112.878 200.602 112.827 200.602 112.786C200.648 112.22 200.908 111.955 201.381 111.991C201.804 112.026 201.997 112.246 201.967 112.654C201.962 112.72 201.936 112.899 201.885 113.184C201.834 113.327 201.804 113.465 201.794 113.597C201.738 114.271 202.206 114.648 203.199 114.725L211.147 115.357Z" fill="#FDC504"/>
<path d="M202.675 128.078C202.725 128.088 202.848 128.118 203.046 128.159C203.255 128.19 203.433 128.225 203.576 128.256L210.379 125.798C210.822 125.634 211.081 125.532 211.163 125.481C211.402 125.328 211.55 125.109 211.611 124.829C211.646 124.676 211.646 124.553 211.611 124.461C211.621 124.421 211.631 124.364 211.646 124.288C211.667 124.196 211.682 124.135 211.687 124.094C211.819 123.497 212.11 123.247 212.563 123.349C213.026 123.451 213.204 123.763 213.092 124.278C213.047 124.487 212.965 124.737 212.843 125.038C212.604 125.634 212.425 126.211 212.308 126.751C212.222 127.154 212.145 127.766 212.089 128.598C212.069 128.878 212.038 129.118 211.993 129.312C211.876 129.842 211.601 130.062 211.158 129.965C210.73 129.873 210.587 129.506 210.725 128.873L210.765 128.679L210.872 128.195L210.959 127.807C211.005 127.654 210.969 127.567 210.857 127.542C210.806 127.532 210.771 127.532 210.745 127.537C210.725 127.547 210.659 127.567 210.557 127.598L204.864 129.465L209.248 133.581C209.335 133.668 209.431 133.724 209.538 133.744C209.655 133.77 209.732 133.698 209.767 133.53L209.778 133.489L209.798 133.127L209.859 132.612C209.885 132.387 209.915 132.214 209.941 132.102C210.058 131.571 210.343 131.357 210.801 131.454C211.259 131.551 211.433 131.862 211.32 132.382C211.28 132.576 211.208 132.806 211.112 133.071C210.852 133.775 210.659 134.392 210.547 134.922C210.424 135.478 210.343 136.106 210.297 136.804C210.277 137.07 210.251 137.294 210.21 137.478C210.104 137.967 209.823 138.166 209.37 138.069C208.958 137.978 208.8 137.692 208.907 137.212C208.948 137.019 208.994 136.871 209.044 136.774C209.116 136.57 209.162 136.432 209.177 136.356C209.248 136.019 209.156 135.713 208.892 135.438L208.51 135.05L203.352 129.909L202.537 129.73C201.218 129.439 200.383 129.317 200.037 129.353C199.691 129.393 199.467 129.633 199.37 130.072C199.35 130.174 199.329 130.337 199.314 130.556C199.299 130.776 199.283 130.939 199.258 131.041C199.171 131.444 198.917 131.597 198.504 131.505C198.041 131.403 197.868 131.061 197.995 130.48C198 130.465 198.005 130.429 198.021 130.363C198.046 130.312 198.061 130.271 198.072 130.23L198.443 129.189C198.581 128.797 198.693 128.409 198.779 128.021C198.871 127.608 198.932 127.205 198.963 126.818L199.044 125.798C199.049 125.772 199.049 125.731 199.049 125.675C199.064 125.609 199.075 125.563 199.08 125.538C199.207 124.956 199.497 124.711 199.95 124.813C200.378 124.905 200.546 125.16 200.454 125.573C200.434 125.675 200.383 125.823 200.307 126.017C200.23 126.211 200.18 126.359 200.159 126.461C200.042 127.006 200.312 127.409 200.974 127.68C201.081 127.721 201.651 127.853 202.675 128.078Z" fill="#FDC504"/>
<path d="M195.174 146.133L197.247 146.189C197.471 146.194 197.629 146.164 197.71 146.108C197.791 146.052 197.878 145.893 197.98 145.649L199.288 142.359C199.385 142.114 199.411 141.925 199.36 141.798C199.309 141.67 199.126 141.456 198.805 141.16L197.598 140.059C197.481 139.957 197.364 139.88 197.242 139.829C196.849 139.671 196.554 139.834 196.366 140.314C196.315 140.436 196.259 140.614 196.193 140.854C196.126 141.094 196.07 141.267 196.03 141.374C195.831 141.879 195.515 142.048 195.083 141.874C194.675 141.711 194.584 141.354 194.803 140.798C194.843 140.701 194.909 140.569 195.001 140.405L195.485 139.528C195.577 139.365 195.699 139.084 195.857 138.692C196.03 138.258 196.137 137.952 196.188 137.774L196.401 136.963C196.498 136.6 196.58 136.34 196.641 136.182C196.834 135.703 197.13 135.545 197.537 135.703C197.97 135.876 198.092 136.192 197.904 136.662C197.863 136.759 197.812 136.825 197.741 136.855L197.644 137.095C197.511 137.427 197.542 137.733 197.73 138.008C197.802 138.12 198.041 138.36 198.453 138.727L206.397 145.878C206.835 146.281 206.942 146.771 206.712 147.352C206.488 147.918 206.081 148.194 205.49 148.168L195.027 147.827C194.365 147.806 193.906 147.842 193.657 147.944C193.407 148.046 193.214 148.25 193.087 148.571C193.046 148.668 193.026 148.745 193.026 148.801L192.868 149.336C192.679 149.805 192.384 149.958 191.982 149.795C191.549 149.622 191.427 149.306 191.615 148.836C191.671 148.699 191.753 148.525 191.87 148.316C192.272 147.577 192.552 147.021 192.705 146.638C192.888 146.184 193.132 145.424 193.438 144.363C193.514 144.093 193.581 143.894 193.637 143.756C193.83 143.262 194.141 143.098 194.558 143.267C194.976 143.435 195.078 143.787 194.864 144.328C194.818 144.44 194.741 144.598 194.629 144.802C194.517 145.006 194.441 145.164 194.4 145.276C194.237 145.684 194.324 145.955 194.655 146.087C194.685 146.108 194.864 146.123 195.174 146.133ZM199.467 146.301L205.22 146.669L200.806 142.935C200.74 142.879 200.704 142.854 200.694 142.848C200.582 142.803 200.49 142.874 200.419 143.058L199.253 145.995C199.192 146.143 199.212 146.235 199.314 146.276C199.329 146.291 199.385 146.296 199.467 146.301Z" fill="#FDC504"/>
<path d="M194.146 165.53C194.94 166.101 195.536 166.112 195.928 165.561C196.035 165.408 196.106 165.291 196.137 165.199C196.228 165.005 196.315 164.847 196.401 164.729C196.503 164.592 196.636 164.505 196.809 164.485C196.982 164.459 197.14 164.505 197.292 164.612C197.669 164.882 197.695 165.245 197.374 165.693C197.369 165.704 197.303 165.78 197.186 165.923C195.928 167.458 195.337 168.172 195.414 168.065L195.296 168.228L192.633 172.197C192.577 172.273 192.394 172.564 192.083 173.069C191.971 173.247 191.865 173.405 191.768 173.548C191.371 174.109 190.923 174.211 190.429 173.854C190.342 173.793 190.077 173.579 189.639 173.217C189.314 172.946 189.003 172.707 188.713 172.497C188.336 172.227 188.066 172.049 187.903 171.957C187.567 171.768 187.323 171.62 187.17 171.513C186.763 171.217 186.691 170.881 186.966 170.498C187.241 170.116 187.664 170.126 188.234 170.539L189.074 171.141C189.981 171.788 190.648 171.982 191.075 171.722C191.396 171.528 191.971 170.845 192.801 169.682C193.346 168.917 193.657 168.453 193.723 168.29C193.937 167.739 193.779 167.28 193.25 166.897L192.521 166.377C192.435 166.316 192.318 166.229 192.165 166.122C192.012 166.015 191.905 165.938 191.844 165.892L191.635 165.739C191.203 165.428 190.887 165.347 190.688 165.495C190.612 165.556 190.51 165.673 190.383 165.857L189.914 166.51C189.436 167.178 189.426 167.683 189.889 168.014C190.016 168.106 190.194 168.213 190.418 168.33C190.643 168.448 190.836 168.57 190.994 168.682C191.427 168.988 191.503 169.335 191.228 169.718C190.953 170.1 190.586 170.126 190.123 169.794C190.037 169.733 189.726 169.458 189.196 168.973C188.743 168.56 188.331 168.218 187.954 167.948C187.74 167.795 187.343 167.54 186.763 167.193C186.671 167.142 186.462 167.035 186.141 166.867C185.882 166.729 185.683 166.612 185.54 166.51C185.153 166.234 185.098 165.897 185.378 165.51C185.647 165.132 186.009 165.107 186.462 165.428C186.579 165.515 186.742 165.648 186.951 165.841C187.16 166.03 187.323 166.168 187.44 166.255C187.903 166.586 188.356 166.443 188.794 165.831L189.314 165.102C189.538 164.791 189.619 164.561 189.563 164.413C189.507 164.265 189.298 164.066 188.942 163.811L187.939 163.092C187.766 162.97 187.531 162.807 187.231 162.613C186.869 162.368 186.625 162.205 186.508 162.118C186.07 161.822 185.739 161.715 185.515 161.797C185.357 161.863 185.118 162.113 184.802 162.557L183.229 164.755C182.776 165.393 182.557 165.897 182.577 166.27C182.597 166.642 182.862 167.014 183.382 167.382C183.544 167.499 183.789 167.662 184.12 167.871C184.451 168.08 184.695 168.249 184.858 168.361C185.342 168.708 185.449 169.075 185.174 169.458C184.884 169.861 184.492 169.886 183.998 169.534C183.804 169.396 183.514 169.177 183.127 168.871C182.74 168.57 182.45 168.351 182.256 168.208C182.103 168.101 181.874 167.948 181.569 167.754C181.263 167.56 181.034 167.407 180.881 167.3C180.377 166.938 180.301 166.51 180.652 166.01C180.739 165.892 180.881 165.709 181.09 165.469C181.192 165.347 181.37 165.112 181.615 164.77C181.559 164.847 181.869 164.434 182.546 163.531C183.224 162.628 183.799 161.843 184.278 161.174C185.001 160.159 185.678 159.144 186.309 158.129C186.34 158.089 186.37 158.033 186.396 157.971C186.437 157.915 186.457 157.885 186.467 157.874C186.788 157.421 187.144 157.334 187.531 157.609C187.878 157.854 187.929 158.145 187.689 158.481C187.648 158.538 187.536 158.675 187.343 158.895C187.226 158.991 187.129 159.093 187.053 159.201C186.661 159.751 186.864 160.318 187.674 160.894L194.146 165.53Z" fill="#FDC504"/>
<path d="M182.165 179.669L174.216 175.665L178.198 183.433C178.509 184.024 178.753 184.412 178.941 184.601C179.298 184.958 179.664 184.948 180.036 184.575C180.102 184.509 180.194 184.397 180.311 184.228C180.428 184.065 180.52 183.948 180.586 183.882C180.953 183.514 181.299 183.499 181.625 183.826C181.941 184.147 181.925 184.484 181.569 184.841C181.37 185.039 181.044 185.305 180.591 185.646C180.138 185.988 179.807 186.264 179.598 186.468C179.262 186.804 178.885 187.263 178.473 187.845C178.341 188.033 178.208 188.197 178.066 188.334C177.719 188.681 177.383 188.691 177.052 188.36C176.737 188.038 176.747 187.707 177.093 187.36C177.103 187.35 177.124 187.335 177.164 187.319L177.516 187.024L177.587 186.952C177.745 186.794 177.796 186.585 177.74 186.335C177.684 186.08 177.485 185.606 177.149 184.912L172.704 175.838C172.404 175.221 172.47 174.696 172.903 174.262C173.351 173.813 173.885 173.737 174.501 174.038L184.064 178.592C184.532 178.817 184.848 178.939 185.016 178.96C185.306 178.985 185.591 178.863 185.871 178.582C185.927 178.526 186.019 178.439 186.136 178.317C186.258 178.195 186.345 178.108 186.401 178.052C186.768 177.685 187.109 177.664 187.424 177.98C187.75 178.307 187.73 178.659 187.353 179.036C187.241 179.148 187.099 179.261 186.936 179.378C186.314 179.806 185.805 180.225 185.403 180.628C185.169 180.862 184.853 181.24 184.456 181.76C184.059 182.28 183.748 182.652 183.519 182.877C183.173 183.224 182.847 183.244 182.536 182.933C182.2 182.596 182.21 182.249 182.567 181.892C182.587 181.872 182.628 181.831 182.694 181.765C182.75 181.709 182.796 181.663 182.837 181.622C182.893 181.566 182.974 181.484 183.076 181.382C183.488 180.969 183.565 180.633 183.305 180.373C183.173 180.24 183.01 180.123 182.816 180.021L182.165 179.669Z" fill="#FDC504"/>
<path d="M170.647 190.752C171.217 191.553 171.772 191.752 172.322 191.364C172.475 191.257 172.577 191.165 172.638 191.089C172.785 190.931 172.923 190.813 173.04 190.726C173.183 190.624 173.335 190.594 173.503 190.624C173.671 190.655 173.814 190.752 173.921 190.9C174.191 191.277 174.099 191.629 173.646 191.951C173.636 191.961 173.549 192.012 173.391 192.109C171.701 193.149 170.912 193.634 171.019 193.557L170.856 193.675L167.052 196.561C166.976 196.618 166.711 196.832 166.247 197.209C166.085 197.342 165.932 197.459 165.794 197.561C165.234 197.959 164.781 197.913 164.425 197.413C164.364 197.326 164.18 197.041 163.885 196.556C163.661 196.194 163.447 195.868 163.238 195.577C162.968 195.2 162.77 194.939 162.648 194.802C162.388 194.516 162.205 194.297 162.098 194.144C161.807 193.736 161.853 193.394 162.235 193.119C162.617 192.843 163.014 192.996 163.422 193.567L164.022 194.409C164.669 195.317 165.239 195.715 165.728 195.608C166.095 195.526 166.859 195.072 168.019 194.241C168.783 193.695 169.226 193.353 169.343 193.221C169.72 192.772 169.725 192.282 169.348 191.752L168.829 191.022C168.768 190.936 168.681 190.818 168.574 190.665C168.468 190.512 168.391 190.405 168.345 190.344L168.198 190.135C167.892 189.701 167.617 189.523 167.383 189.594C167.291 189.625 167.159 189.706 166.976 189.834L166.324 190.303C165.652 190.783 165.484 191.252 165.815 191.716C165.906 191.843 166.039 192.002 166.212 192.19C166.385 192.374 166.528 192.552 166.645 192.711C166.95 193.144 166.915 193.496 166.533 193.766C166.151 194.042 165.794 193.945 165.463 193.481C165.402 193.394 165.199 193.037 164.852 192.405C164.557 191.864 164.277 191.405 164.007 191.027C163.854 190.813 163.559 190.441 163.126 189.926C163.055 189.849 162.892 189.676 162.642 189.416C162.439 189.201 162.291 189.023 162.189 188.885C161.914 188.498 161.97 188.161 162.357 187.886C162.734 187.615 163.085 187.707 163.406 188.161C163.493 188.278 163.6 188.462 163.737 188.707C163.87 188.952 163.982 189.135 164.068 189.252C164.399 189.717 164.873 189.732 165.484 189.288L166.212 188.768C166.522 188.543 166.675 188.355 166.67 188.197C166.665 188.039 166.533 187.784 166.278 187.427L165.565 186.422C165.443 186.248 165.27 186.019 165.056 185.738C164.791 185.391 164.618 185.157 164.532 185.039C164.216 184.616 163.936 184.407 163.696 184.412C163.523 184.422 163.218 184.586 162.775 184.902L160.575 186.473C159.939 186.927 159.572 187.335 159.465 187.692C159.363 188.049 159.496 188.487 159.867 189.008C159.985 189.171 160.163 189.405 160.402 189.712C160.646 190.018 160.825 190.252 160.942 190.415C161.288 190.9 161.268 191.282 160.886 191.553C160.484 191.844 160.102 191.736 159.75 191.242C159.613 191.048 159.409 190.742 159.139 190.334C158.869 189.921 158.666 189.62 158.528 189.426C158.421 189.273 158.253 189.059 158.024 188.773C157.795 188.487 157.627 188.268 157.52 188.12C157.159 187.61 157.225 187.182 157.724 186.83C157.841 186.743 158.039 186.621 158.314 186.457C158.452 186.376 158.691 186.213 159.037 185.968C158.961 186.024 159.389 185.733 160.321 185.101C161.252 184.468 162.052 183.912 162.719 183.433C163.732 182.709 164.7 181.969 165.626 181.209C165.667 181.178 165.713 181.138 165.759 181.087C165.815 181.046 165.845 181.025 165.855 181.015C166.309 180.694 166.675 180.725 166.95 181.112C167.195 181.459 167.154 181.75 166.818 181.989C166.762 182.03 166.609 182.122 166.36 182.27C166.217 182.321 166.095 182.387 165.988 182.464C165.438 182.856 165.453 183.458 166.029 184.269L170.647 190.752Z" fill="#FDC504"/>
<path d="M154.76 202.83L145.132 195.138L148.609 202.356C149.057 203.289 149.312 203.799 149.368 203.886C149.775 204.457 150.223 204.62 150.712 204.386C150.809 204.34 150.941 204.253 151.12 204.136C151.298 204.013 151.43 203.932 151.527 203.886C151.68 203.809 151.843 203.804 152.011 203.86C152.179 203.916 152.301 204.023 152.372 204.182C152.581 204.61 152.413 204.957 151.878 205.217C151.771 205.268 151.69 205.299 151.639 205.314L150.784 205.594C150.402 205.722 150.055 205.86 149.75 206.007C149.444 206.155 149.042 206.39 148.564 206.701C148.395 206.808 148.202 206.936 147.978 207.084C147.953 207.094 147.917 207.119 147.861 207.16C147.815 207.181 147.769 207.201 147.734 207.221C147.219 207.471 146.863 207.39 146.664 206.977C146.471 206.579 146.618 206.257 147.102 206.023C147.189 205.982 147.255 205.951 147.301 205.926L147.484 205.839C147.851 205.661 148.049 205.472 148.08 205.263C148.115 205.054 148.019 204.681 147.79 204.146L147.301 203.126L144.118 196.526C143.721 195.705 143.538 195.077 143.558 194.654C143.584 194.231 143.823 193.909 144.276 193.69C144.862 193.404 145.564 193.583 146.374 194.22L155.789 201.708L151.776 193.379C151.344 192.481 150.824 192.18 150.218 192.476C150.122 192.522 149.984 192.598 149.801 192.711C149.618 192.823 149.48 192.899 149.383 192.945C149.001 193.129 148.716 193.032 148.533 192.649C148.339 192.241 148.508 191.91 149.042 191.65C149.068 191.639 149.103 191.619 149.149 191.599C149.215 191.583 149.261 191.568 149.281 191.558L150.066 191.313C150.498 191.175 150.896 191.022 151.252 190.849C151.563 190.701 151.95 190.477 152.408 190.181L153.233 189.65C153.258 189.64 153.294 189.615 153.35 189.574C153.411 189.543 153.457 189.523 153.492 189.502C154.007 189.252 154.363 189.339 154.562 189.757C154.74 190.13 154.638 190.405 154.256 190.589C154.195 190.619 154.032 190.686 153.757 190.788C153.61 190.813 153.477 190.859 153.355 190.915C152.749 191.211 152.657 191.803 153.09 192.7L153.696 193.955L154.455 195.531L156.563 199.902C156.996 200.8 157.52 201.096 158.131 200.8C158.213 200.759 158.325 200.693 158.467 200.591C158.676 200.448 158.834 200.346 158.941 200.295C159.318 200.111 159.603 200.218 159.791 200.611C159.995 201.029 159.837 201.361 159.328 201.611C159.256 201.647 159.16 201.687 159.032 201.733C158.406 201.963 157.938 202.152 157.617 202.31C157.439 202.396 157.179 202.544 156.838 202.753C156.497 202.963 156.237 203.11 156.059 203.197C155.692 203.376 155.387 203.365 155.147 203.177L154.76 202.83Z" fill="#FDC504"/>
<path d="M133.334 200.657C133.059 199.703 132.596 199.321 131.944 199.509C131.842 199.54 131.694 199.601 131.501 199.688C131.307 199.78 131.16 199.841 131.058 199.867C130.895 199.912 130.732 199.897 130.574 199.81C130.416 199.724 130.314 199.596 130.269 199.433C130.141 198.989 130.36 198.683 130.93 198.515C130.956 198.51 130.992 198.494 131.042 198.479C131.109 198.474 131.155 198.469 131.18 198.459L132.153 198.321C132.524 198.27 132.932 198.178 133.375 198.046C133.858 197.903 134.276 197.755 134.632 197.597L135.549 197.184C135.59 197.173 135.63 197.153 135.676 197.128C135.742 197.107 135.783 197.097 135.808 197.087C136.369 196.924 136.71 197.066 136.842 197.51C136.959 197.918 136.817 198.178 136.409 198.301C136.307 198.331 136.15 198.357 135.936 198.387C135.722 198.413 135.564 198.443 135.462 198.474C134.826 198.658 134.648 199.229 134.922 200.183L135.798 203.202L136.272 204.824L137.173 207.935C137.433 208.838 138.029 209.154 138.96 208.884L139.551 208.711C140.468 208.445 140.793 207.864 140.534 206.971C140.442 206.655 140.371 206.441 140.325 206.329L140.045 205.645C139.999 205.533 139.948 205.375 139.887 205.171C139.653 204.37 139.785 203.896 140.279 203.753C140.748 203.615 141.068 203.84 141.241 204.426C141.287 204.59 141.359 204.88 141.455 205.299C141.593 205.921 141.69 206.314 141.735 206.482C141.827 206.798 141.934 207.13 142.056 207.466C142.295 208.129 142.397 208.41 142.367 208.308C142.52 208.843 142.357 209.18 141.878 209.323C141.7 209.374 141.282 209.476 140.625 209.624C140.564 209.644 140.035 209.767 139.042 210.001L136.873 210.634C136.618 210.71 135.941 210.914 134.846 211.261C134.607 211.332 134.199 211.47 133.624 211.669C133.115 211.853 132.713 211.99 132.422 212.072C131.786 212.256 131.394 212.087 131.241 211.567L131.231 211.526C131.195 211.399 131.144 211.159 131.073 210.807C131.007 210.455 130.93 210.073 130.854 209.67L130.793 209.46C130.737 209.272 130.63 208.976 130.477 208.578C130.274 208.058 130.151 207.737 130.111 207.609C129.958 207.089 130.131 206.752 130.625 206.609C131.109 206.467 131.445 206.716 131.628 207.359C131.694 207.589 131.776 207.935 131.867 208.4C131.959 208.864 132.04 209.211 132.107 209.44C132.361 210.322 132.993 210.618 133.996 210.328L134.53 210.175C134.999 210.037 135.309 209.843 135.457 209.583C135.605 209.328 135.625 208.966 135.513 208.502L135.203 207.14L133.334 200.657Z" fill="#FDC504"/>
<path d="M121.704 214.362C120.416 214.535 119.311 214.265 118.389 213.546L118.425 213.821C118.496 214.331 118.323 214.617 117.921 214.673C117.473 214.734 117.213 214.479 117.137 213.918L117.121 213.801C117.116 213.775 117.111 213.577 117.101 213.204C117.091 212.832 117.05 212.388 116.984 211.873C116.974 211.807 116.933 211.598 116.862 211.246L116.694 210.465C116.673 210.399 116.653 210.312 116.638 210.19C116.551 209.557 116.755 209.211 117.239 209.144C117.748 209.073 118.043 209.302 118.114 209.828L118.13 209.925L118.16 210.46C118.17 210.644 118.186 210.792 118.201 210.899C118.308 211.689 118.654 212.271 119.25 212.643C119.84 213.015 120.604 213.143 121.536 213.015C122.386 212.898 123.038 212.597 123.486 212.108C123.934 211.618 124.112 211.021 124.016 210.312C123.904 209.486 123.445 208.925 122.646 208.629C122.198 208.476 121.439 208.384 120.365 208.354C118.771 208.313 117.656 208.119 117.02 207.762C116.067 207.237 115.512 206.38 115.349 205.196C115.181 203.962 115.487 202.896 116.266 201.998C117.045 201.101 118.135 200.56 119.535 200.371C121.027 200.167 122.33 200.473 123.435 201.29C123.43 201.239 123.42 201.177 123.41 201.116C123.4 201.05 123.395 201.014 123.395 200.999C123.313 200.8 123.267 200.667 123.262 200.601C123.196 200.122 123.41 199.846 123.894 199.785C124.418 199.713 124.718 199.953 124.795 200.504C124.805 200.57 124.79 200.626 124.759 200.667L124.805 201.703C124.83 202.223 124.851 202.554 124.871 202.697C124.907 202.962 124.998 203.35 125.141 203.865C125.284 204.38 125.375 204.768 125.411 205.033C125.492 205.625 125.284 205.956 124.785 206.023C124.275 206.094 123.975 205.829 123.899 205.237L123.853 204.88C123.838 204.773 123.817 204.625 123.792 204.426C123.659 203.437 123.237 202.692 122.534 202.197C121.831 201.703 120.94 201.529 119.866 201.672C118.873 201.805 118.114 202.152 117.59 202.702C117.065 203.253 116.857 203.937 116.969 204.753C117.137 206.002 118.028 206.655 119.637 206.722L120.782 206.767C121.923 206.813 122.819 206.926 123.476 207.104C124.072 207.277 124.576 207.609 124.983 208.094C125.391 208.578 125.64 209.16 125.727 209.828C125.884 210.985 125.589 211.98 124.846 212.817C124.082 213.668 123.043 214.178 121.704 214.362Z" fill="#FDC504"/>
<path d="M82.1353 210.542L81.8451 200.025L75.7756 209.476C75.465 209.965 75.1035 210.159 74.6911 210.042L74.5943 210.016C74.467 209.981 74.3041 209.914 74.1106 209.823C73.8713 209.69 73.7134 209.608 73.637 209.588C73.4385 209.506 73.1635 209.415 72.8071 209.318C72.4252 209.211 72.1197 209.149 71.8905 209.129L71.1879 209.058C71.1471 209.058 71.0657 209.047 70.9536 209.012C70.3681 208.848 70.1338 208.547 70.2561 208.099C70.3681 207.691 70.6278 207.543 71.0351 207.655C71.1369 207.686 71.2846 207.742 71.473 207.828C71.6614 207.915 71.8091 207.971 71.9109 208.002C72.5627 208.18 73.0209 207.793 73.2806 206.834L73.6472 205.492L75.3886 199.142C75.6534 198.183 75.465 197.617 74.8234 197.439C74.6961 197.403 74.5485 197.383 74.3855 197.383C74.0953 197.332 73.9273 197.296 73.8764 197.286C73.469 197.173 73.3213 196.913 73.4334 196.505C73.5607 196.046 73.8967 195.888 74.4466 196.041C74.4212 196.036 74.5128 196.072 74.7216 196.158C75.577 196.505 76.3052 196.76 76.9213 196.929C77.5221 197.092 78.1077 197.209 78.6831 197.27C78.9224 197.296 79.1311 197.332 79.3094 197.383C79.8084 197.52 79.9968 197.801 79.8796 198.229C79.7574 198.673 79.4417 198.821 78.9275 198.678C78.8002 198.642 78.7034 198.607 78.6474 198.571C78.3725 198.459 78.2095 198.398 78.1586 198.382C77.6952 198.255 77.2726 198.653 76.8958 199.581C76.8144 199.78 76.6209 200.428 76.3204 201.524C76.2033 201.947 76.0251 202.554 75.7756 203.35L74.3703 208.466C74.3499 208.542 74.3703 208.588 74.4365 208.609C74.4772 208.619 74.523 208.593 74.5841 208.527L81.1068 198.561C81.3919 198.117 81.8145 197.974 82.3797 198.127C82.7107 198.219 82.9449 198.336 83.0773 198.474C83.2097 198.612 83.281 198.841 83.2912 199.163L83.7596 211.052C83.7749 211.138 83.8105 211.19 83.8615 211.205C83.9124 211.22 83.948 211.189 83.9684 211.113L86.2852 202.213C86.5245 201.279 86.3972 200.744 85.9033 200.611C85.7607 200.57 85.5723 200.519 85.3279 200.453L85.0988 200.392C84.5998 200.254 84.4114 199.969 84.5285 199.535C84.6456 199.101 84.9613 198.954 85.4756 199.091C85.5672 199.117 85.6945 199.168 85.8677 199.239C86.1375 199.356 86.4278 199.484 86.7333 199.622C86.9777 199.729 87.2985 199.841 87.6956 199.948C88.3983 200.142 88.8566 200.249 89.0704 200.264L89.9157 200.331C89.9411 200.336 89.9819 200.341 90.0379 200.341C90.0888 200.356 90.1295 200.366 90.155 200.371C90.7406 200.535 90.9748 200.836 90.8526 201.284C90.8017 201.463 90.7049 201.596 90.5573 201.687C90.4096 201.779 90.2517 201.8 90.0837 201.754C89.9411 201.713 89.7833 201.652 89.6 201.56C89.4167 201.468 89.2843 201.412 89.1926 201.386C88.5409 201.208 88.0826 201.596 87.8229 202.554L85.7098 210.266C85.445 211.225 85.6436 211.796 86.2903 211.975C86.3921 212.006 86.55 212.031 86.7638 212.051C86.9777 212.077 87.1355 212.102 87.2374 212.128C87.6345 212.235 87.7771 212.495 87.66 212.903C87.5378 213.352 87.1864 213.495 86.6162 213.337C86.5652 213.322 86.4838 213.291 86.3717 213.25L85.72 212.99C85.3992 212.862 85.0937 212.755 84.7984 212.674C84.554 212.607 84.2179 212.541 83.7902 212.48C83.3625 212.419 83.0519 212.358 82.8584 212.307C82.3594 212.169 82.115 211.766 82.1201 211.093L82.1353 210.542Z" fill="#FDC504"/>
<path d="M59.0438 196.837C59.4715 196.842 59.9807 196.918 60.5714 197.066C59.9451 196.592 59.5937 196.092 59.5275 195.567C59.4563 195.047 59.6498 194.333 60.0978 193.435L60.5052 192.619C60.5306 192.573 60.5663 192.501 60.6121 192.405C61.0347 191.553 60.9787 190.992 60.439 190.721C59.8891 190.446 59.3595 190.813 58.8554 191.823L58.2495 193.037C58.0815 193.379 57.9389 193.603 57.8269 193.705C57.6334 193.858 57.3992 193.863 57.1242 193.731C56.6965 193.516 56.6099 193.159 56.8594 192.665C56.8645 192.654 56.9358 192.527 57.0733 192.282L57.2617 191.91C57.3839 191.66 57.4654 191.502 57.501 191.43L57.725 190.987C57.7709 190.92 57.832 190.818 57.9033 190.676C58.2444 189.987 58.7078 189.548 59.2831 189.354C59.8585 189.161 60.495 189.237 61.1773 189.579C62.5725 190.278 62.9238 191.333 62.216 192.746L61.6508 193.889L61.4574 194.282C61.0602 195.077 60.9482 195.674 61.1213 196.082C61.2944 196.485 61.8545 196.929 62.7965 197.398L64.4412 198.219C64.818 198.408 65.1235 198.27 65.3526 197.806L66.0349 196.434C66.4728 195.557 66.7121 195.052 66.7427 194.919C66.9311 194.271 66.7834 193.828 66.2997 193.583C66.1317 193.501 66.0044 193.445 65.9178 193.42C65.7039 193.338 65.5461 193.272 65.4392 193.221C65.0624 193.032 64.9707 192.741 65.1642 192.348C65.373 191.935 65.7294 191.854 66.2386 192.109L66.4881 192.277L67.3843 192.884C67.7254 193.114 68.0411 193.302 68.3263 193.445C68.6827 193.624 69.1104 193.802 69.6145 193.976L70.5208 194.297C70.7245 194.368 70.8162 194.399 70.806 194.394C71.3152 194.649 71.4628 194.99 71.249 195.419C71.0606 195.796 70.7805 195.898 70.4139 195.715C70.3528 195.684 70.2001 195.592 69.9506 195.439C69.8385 195.337 69.7214 195.261 69.6043 195.2C68.9984 194.899 68.479 195.189 68.0309 196.082L64.4717 203.218C64.0287 204.105 64.1102 204.702 64.711 205.008C64.8078 205.054 64.9555 205.11 65.1591 205.176C65.3628 205.242 65.5156 205.299 65.6072 205.344C65.76 205.421 65.8618 205.543 65.9127 205.707C65.9636 205.875 65.9484 206.033 65.872 206.186C65.6632 206.599 65.3017 206.681 64.7772 206.415C64.7314 206.39 64.6499 206.344 64.5379 206.273L63.6774 205.732C63.4534 205.589 63.1631 205.431 62.8067 205.253C62.4401 205.069 62.0226 204.875 61.5643 204.676L60.1793 204.074C59.716 203.87 59.2984 203.677 58.9165 203.488C56.3095 202.182 55.505 200.54 56.4928 198.551C57.0835 197.383 57.9287 196.811 59.0438 196.837ZM63.8913 199.438L62.2211 198.602C61.2282 198.102 60.4084 197.872 59.772 197.908C58.998 197.949 58.4073 198.372 58.0051 199.183C57.333 200.535 57.9185 201.677 59.7771 202.6C60.7649 203.095 61.4675 203.355 61.8953 203.381C62.3179 203.406 62.6488 203.202 62.878 202.774L64.1815 200.157C64.2833 199.953 64.3088 199.81 64.2681 199.724C64.2273 199.637 64.0949 199.54 63.8913 199.438Z" fill="#FDC504"/>
<path d="M49.1096 194.577C48.5597 195.388 48.5597 195.985 49.1147 196.368C49.2675 196.475 49.3897 196.541 49.4813 196.572C49.6799 196.658 49.8378 196.745 49.96 196.827C50.1025 196.924 50.1891 197.056 50.2146 197.23C50.24 197.403 50.2044 197.561 50.0975 197.714C49.8378 198.097 49.4661 198.122 48.9823 197.796C48.9161 197.75 48.8449 197.694 48.7634 197.622L47.9742 196.913C47.6788 196.643 47.3529 196.393 47.0016 196.153C46.6605 195.924 46.2735 195.694 45.8305 195.475L45.026 195.067C44.9292 195.016 44.8529 194.97 44.7867 194.924C44.308 194.593 44.196 194.241 44.4557 193.853C44.5626 193.7 44.695 193.603 44.8681 193.567C45.0362 193.532 45.194 193.562 45.3366 193.659C45.4435 193.736 45.581 193.853 45.7439 194.011C45.805 194.088 45.912 194.174 46.0647 194.282C46.6197 194.664 47.1798 194.45 47.7297 193.639L52.2208 187.054C52.7809 186.233 52.7809 185.631 52.2258 185.249C52.1393 185.187 52.0171 185.121 51.8592 185.045C51.6301 184.937 51.4722 184.851 51.3806 184.79C51.0394 184.56 50.9936 184.264 51.2329 183.917C51.5028 183.525 51.8745 183.489 52.3582 183.82C52.3786 183.836 52.4193 183.861 52.4753 183.897C52.511 183.938 52.5466 183.968 52.5772 183.994L53.341 184.708C53.5956 184.948 53.8807 185.172 54.1964 185.391C54.6547 185.708 55.0824 185.958 55.4846 186.151L56.3146 186.554C56.335 186.57 56.3808 186.59 56.4419 186.616C56.4979 186.651 56.5386 186.682 56.5743 186.707C57.0427 187.029 57.1446 187.386 56.8747 187.778C56.6354 188.13 56.3451 188.186 56.0091 187.957C55.9531 187.921 55.8156 187.809 55.5865 187.62C55.4897 187.503 55.3828 187.411 55.2759 187.335C54.7208 186.952 54.1607 187.171 53.6006 187.993L49.1096 194.577Z" fill="#FDC504"/>
<path d="M42.3171 180.908C42.2815 180.949 42.1949 181.041 42.0625 181.189C41.9301 181.357 41.813 181.495 41.7163 181.602L40.4739 188.737C40.3924 189.201 40.3568 189.482 40.3618 189.574C40.3771 189.854 40.4891 190.094 40.7081 190.288C40.8252 190.395 40.9321 190.456 41.0238 190.466C41.0543 190.492 41.0951 190.533 41.1562 190.589C41.2224 190.65 41.2733 190.696 41.3038 190.721C41.757 191.129 41.8283 191.507 41.5177 191.854C41.1969 192.206 40.8405 192.206 40.4484 191.854C40.2906 191.711 40.1123 191.512 39.9138 191.262C39.5115 190.757 39.1092 190.318 38.6917 189.946C38.3862 189.671 37.8923 189.303 37.1998 188.839C36.9656 188.681 36.7772 188.538 36.6295 188.406C36.2273 188.044 36.1763 187.692 36.4768 187.355C36.7721 187.029 37.1591 187.085 37.6377 187.523L37.7854 187.656L38.152 187.988L38.4473 188.253C38.5542 188.37 38.651 188.385 38.7325 188.294C38.7681 188.253 38.7885 188.222 38.7936 188.197C38.7987 188.171 38.8088 188.11 38.8343 188.003L40.0411 182.127L34.2975 183.897C34.1753 183.933 34.0836 183.989 34.0123 184.065C33.9308 184.152 33.9563 184.254 34.0836 184.371L34.1142 184.397L34.4197 184.591L34.8321 184.902C35.0154 185.039 35.1478 185.147 35.2344 185.223C35.6366 185.585 35.6824 185.942 35.3667 186.294C35.0511 186.641 34.6997 186.641 34.3076 186.284C34.16 186.151 33.997 185.978 33.8188 185.759C33.3402 185.182 32.8972 184.713 32.4949 184.346C32.0723 183.963 31.5682 183.581 30.9878 183.198C30.7637 183.05 30.5855 182.913 30.448 182.79C30.0763 182.454 30.0458 182.112 30.3564 181.765C30.6415 181.449 30.9623 181.459 31.3289 181.785C31.4766 181.918 31.5784 182.03 31.6395 182.122C31.777 182.285 31.8788 182.392 31.9348 182.443C32.1894 182.673 32.5051 182.744 32.8717 182.647L33.4013 182.51L40.4179 180.577L40.978 179.959C41.8843 178.955 42.4037 178.292 42.5462 177.97C42.6837 177.649 42.587 177.338 42.2509 177.037C42.1745 176.965 42.0422 176.869 41.8588 176.746C41.6755 176.624 41.5432 176.527 41.4668 176.455C41.1613 176.18 41.1511 175.884 41.4362 175.568C41.757 175.216 42.1389 175.236 42.5768 175.639C42.587 175.65 42.6175 175.675 42.6634 175.721C42.6939 175.767 42.7245 175.803 42.755 175.828L43.473 176.665C43.7428 176.981 44.0229 177.271 44.3182 177.537C44.6339 177.822 44.9496 178.072 45.2704 178.292L46.1156 178.868C46.136 178.888 46.1716 178.909 46.2175 178.934C46.2684 178.98 46.2989 179.011 46.3193 179.026C46.7623 179.424 46.8285 179.796 46.5179 180.143C46.2226 180.469 45.9221 180.49 45.6064 180.204C45.5301 180.133 45.4231 180.016 45.2958 179.852C45.1685 179.689 45.0616 179.572 44.9801 179.5C44.5677 179.128 44.084 179.164 43.5188 179.607C43.417 179.699 43.0198 180.128 42.3171 180.908Z" fill="#FDC504"/>
<path d="M30.3666 165.423L29.2922 167.198C29.1751 167.392 29.1241 167.54 29.1394 167.642C29.1496 167.744 29.2413 167.897 29.4042 168.101L31.609 170.865C31.777 171.074 31.9247 171.187 32.057 171.207C32.1894 171.227 32.4695 171.171 32.887 171.039L34.44 170.534C34.5877 170.483 34.7099 170.416 34.8168 170.335C35.1478 170.07 35.1529 169.733 34.827 169.33C34.7455 169.228 34.6182 169.085 34.4451 168.912C34.272 168.738 34.1498 168.601 34.0734 168.509C33.7323 168.086 33.7475 167.729 34.1091 167.438C34.4502 167.162 34.8066 167.259 35.1783 167.729C35.2445 167.81 35.326 167.933 35.4228 168.096L35.9472 168.948C36.044 169.106 36.2273 169.356 36.492 169.682C36.7823 170.044 36.991 170.289 37.1234 170.422L37.7192 171.013C37.984 171.278 38.1723 171.472 38.2793 171.61C38.6001 172.013 38.5899 172.355 38.2487 172.625C37.8872 172.916 37.5461 172.865 37.2355 172.467C37.1693 172.385 37.1387 172.304 37.1489 172.232L36.986 172.028C36.7619 171.748 36.4869 171.625 36.1509 171.651C36.0185 171.656 35.6926 171.748 35.1733 171.926L25.0405 175.303C24.4702 175.486 23.9967 175.333 23.6046 174.849C23.2227 174.374 23.1871 173.885 23.4977 173.38L28.9714 164.439C29.3176 163.873 29.5111 163.454 29.5468 163.189C29.5875 162.919 29.5009 162.648 29.282 162.383C29.2158 162.302 29.1598 162.246 29.114 162.215L28.727 161.812C28.4113 161.419 28.4266 161.083 28.7677 160.812C29.1292 160.522 29.4704 160.573 29.781 160.965C29.8726 161.078 29.9796 161.241 30.1069 161.445C30.5499 162.164 30.8961 162.679 31.1507 163C31.4562 163.383 31.9959 163.969 32.7648 164.765C32.9583 164.964 33.1009 165.122 33.1925 165.24C33.5235 165.653 33.5133 165.999 33.162 166.285C32.8106 166.566 32.4542 166.479 32.0876 166.025C32.0112 165.933 31.9145 165.785 31.7923 165.586C31.6701 165.387 31.5682 165.245 31.4969 165.148C31.222 164.806 30.947 164.745 30.667 164.969C30.6262 165.01 30.5244 165.158 30.3666 165.423ZM28.0905 169.08L24.9234 173.905L30.3462 171.906C30.4226 171.875 30.4684 171.86 30.4786 171.85C30.5702 171.773 30.555 171.661 30.4328 171.503L28.4622 169.034C28.3655 168.912 28.2738 168.881 28.1872 168.948C28.172 168.963 28.1363 169.009 28.0905 169.08Z" fill="#FDC504"/>
<path d="M14.0421 154.957C13.151 155.37 12.8506 155.88 13.1307 156.497C13.207 156.666 13.2783 156.788 13.3394 156.859C13.4667 157.038 13.5584 157.191 13.6195 157.324C13.6908 157.482 13.6959 157.64 13.6297 157.798C13.5635 157.961 13.4515 158.078 13.2834 158.155C12.8608 158.349 12.5349 158.196 12.3058 157.691C12.3007 157.681 12.2651 157.584 12.1989 157.415C11.4911 155.559 11.1601 154.692 11.2161 154.814L11.1347 154.636L9.00628 150.356C8.96554 150.27 8.80769 149.969 8.52255 149.443C8.42071 149.255 8.33416 149.086 8.26287 148.928C7.97263 148.306 8.11011 147.862 8.66003 147.607C8.75678 147.561 9.07247 147.439 9.60202 147.235C9.99919 147.082 10.3607 146.929 10.6815 146.781C11.1041 146.587 11.3944 146.439 11.5522 146.342C11.8832 146.138 12.1327 146.001 12.3007 145.924C12.759 145.715 13.0848 145.822 13.2834 146.25C13.482 146.679 13.2631 147.041 12.6266 147.332L11.6897 147.765C10.6815 148.235 10.1825 148.719 10.1978 149.224C10.208 149.596 10.5135 150.438 11.1143 151.733C11.5064 152.59 11.761 153.085 11.8679 153.223C12.2396 153.682 12.7182 153.774 13.3089 153.498L14.1185 153.121C14.2152 153.075 14.3476 153.014 14.5157 152.937C14.6837 152.861 14.8059 152.805 14.8772 152.769L15.1114 152.662C15.59 152.437 15.8192 152.203 15.7937 151.958C15.7784 151.861 15.7275 151.713 15.6308 151.514L15.2896 150.79C14.9434 150.04 14.5157 149.785 13.9963 150.025C13.8537 150.091 13.6755 150.193 13.4565 150.331C13.2427 150.469 13.0441 150.576 12.8659 150.657C12.3873 150.882 12.0461 150.78 11.8475 150.351C11.6489 149.923 11.8119 149.591 12.3262 149.352C12.4229 149.306 12.815 149.173 13.4973 148.949C14.0828 148.76 14.5818 148.566 15.0045 148.372C15.2438 148.26 15.6613 148.041 16.252 147.709C16.3436 147.653 16.5371 147.526 16.8426 147.327C17.0921 147.169 17.2907 147.051 17.4486 146.98C17.8814 146.781 18.1971 146.898 18.3956 147.332C18.5891 147.755 18.4364 148.082 17.9323 148.316C17.7999 148.377 17.6013 148.454 17.3365 148.541C17.0718 148.627 16.8732 148.699 16.7408 148.765C16.2265 149.005 16.1247 149.469 16.4404 150.152L16.8172 150.963C16.9801 151.315 17.138 151.499 17.2907 151.519C17.4486 151.54 17.7235 151.463 18.1207 151.28L19.2409 150.764C19.4344 150.678 19.689 150.55 20.0098 150.387C20.4018 150.193 20.6615 150.061 20.7939 149.999C21.2674 149.765 21.5271 149.53 21.5628 149.295C21.5882 149.122 21.4813 148.791 21.2573 148.296L20.1269 145.842C19.801 145.133 19.47 144.695 19.139 144.527C18.8081 144.358 18.3498 144.409 17.7744 144.674C17.5962 144.756 17.3314 144.889 16.9852 145.072C16.639 145.256 16.3742 145.389 16.196 145.47C15.6562 145.72 15.2845 145.633 15.091 145.205C14.8823 144.756 15.0554 144.399 15.6104 144.144C15.8243 144.042 16.1603 143.899 16.6135 143.71C17.0667 143.522 17.4027 143.379 17.6166 143.277C17.7846 143.2 18.029 143.073 18.3498 142.905C18.6706 142.731 18.9201 142.609 19.0881 142.532C19.6533 142.272 20.0658 142.415 20.3204 142.971C20.3815 143.104 20.468 143.318 20.5749 143.619C20.631 143.767 20.743 144.037 20.9212 144.419C20.8805 144.333 21.0892 144.812 21.5373 145.842C21.9854 146.878 22.3825 147.765 22.7237 148.515C23.2431 149.647 23.793 150.739 24.3633 151.79C24.3836 151.835 24.4142 151.892 24.4549 151.943C24.4804 152.004 24.5008 152.04 24.5058 152.05C24.7401 152.555 24.6382 152.907 24.2054 153.111C23.8235 153.289 23.5435 153.192 23.3704 152.82C23.3449 152.759 23.2787 152.59 23.182 152.315C23.1565 152.167 23.1158 152.029 23.0598 151.912C22.7746 151.3 22.184 151.198 21.2827 151.616L14.0421 154.957Z" fill="#FDC504"/>
<path d="M7.69767 137.519L15.1114 132.591L6.40434 132.204C5.73731 132.178 5.27905 132.204 5.02445 132.27C4.54073 132.403 4.3676 132.724 4.50508 133.234C4.53054 133.326 4.58146 133.459 4.66802 133.642C4.75459 133.826 4.8055 133.963 4.83096 134.05C4.96844 134.55 4.8106 134.861 4.36251 134.984C3.92971 135.101 3.64456 134.917 3.51218 134.433C3.44089 134.162 3.36451 133.749 3.29832 133.183C3.22703 132.617 3.15065 132.194 3.07428 131.913C2.94698 131.454 2.73822 130.898 2.4378 130.25C2.34105 130.041 2.26467 129.842 2.21376 129.654C2.08646 129.179 2.24431 128.883 2.69239 128.761C3.1252 128.644 3.41034 128.822 3.53763 129.291C3.54273 129.302 3.54273 129.332 3.53763 129.373L3.6191 129.827L3.64456 129.924C3.70567 130.143 3.85842 130.286 4.10283 130.368C4.35233 130.444 4.85642 130.51 5.62529 130.561L15.697 131.194C16.3844 131.24 16.807 131.556 16.9648 132.148C17.1329 132.76 16.9343 133.265 16.364 133.652L7.6773 139.712C7.24959 140.008 6.98481 140.222 6.88807 140.359C6.72004 140.599 6.68949 140.91 6.79132 141.293C6.81169 141.369 6.84733 141.492 6.88807 141.655C6.93389 141.823 6.96445 141.941 6.98481 142.022C7.12229 142.522 6.96954 142.828 6.53673 142.95C6.08865 143.073 5.79841 142.879 5.65584 142.364C5.61511 142.211 5.58456 142.032 5.56928 141.833C5.50309 141.084 5.39616 140.431 5.24849 139.88C5.16193 139.559 4.9939 139.1 4.73931 138.493C4.48472 137.891 4.31669 137.432 4.23522 137.126C4.10792 136.651 4.25049 136.361 4.67312 136.243C5.13138 136.116 5.42671 136.299 5.5591 136.784C5.56419 136.81 5.57946 136.866 5.60492 136.957C5.62529 137.034 5.64566 137.1 5.65584 137.151C5.67621 137.228 5.70676 137.335 5.7424 137.478C5.89516 138.039 6.14975 138.273 6.50618 138.176C6.68439 138.125 6.8677 138.044 7.05101 137.927L7.69767 137.519Z" fill="#FDC504"/>
<path d="M3.8075 121.988C2.82987 122.084 2.37669 122.472 2.44798 123.145C2.46835 123.329 2.49381 123.467 2.52945 123.559C2.59055 123.768 2.62619 123.941 2.64147 124.089C2.65674 124.262 2.61092 124.41 2.4989 124.543C2.38688 124.676 2.23921 124.747 2.05081 124.767C1.58746 124.813 1.33286 124.558 1.27685 124.007C1.27685 123.992 1.27176 123.895 1.26667 123.712C1.20048 121.727 1.17502 120.799 1.19029 120.932L1.16993 120.733L0.558905 115.995C0.548721 115.903 0.497803 115.561 0.395966 114.974C0.360323 114.765 0.334864 114.577 0.319588 114.403C0.253394 113.72 0.51817 113.347 1.1241 113.286C1.23103 113.276 1.56709 113.261 2.13738 113.24C2.56 113.225 2.95207 113.199 3.3085 113.164C3.77186 113.118 4.09264 113.077 4.27086 113.036C4.64765 112.955 4.92771 112.904 5.11611 112.888C5.61511 112.837 5.89006 113.046 5.93589 113.516C5.98172 113.985 5.65584 114.255 4.95826 114.322L3.9297 114.418C2.82477 114.531 2.19339 114.827 2.04063 115.306C1.92861 115.663 1.94389 116.556 2.08646 117.979C2.17811 118.917 2.25449 119.468 2.3105 119.636C2.51417 120.187 2.9368 120.432 3.58346 120.371L4.47453 120.284C4.58146 120.274 4.72403 120.259 4.90734 120.243C5.09065 120.223 5.22303 120.213 5.3045 120.202L5.5591 120.177C6.08865 120.126 6.37888 119.978 6.43489 119.733C6.45017 119.641 6.45017 119.483 6.4298 119.259L6.34833 118.458C6.26686 117.637 5.94098 117.254 5.37579 117.31C5.21794 117.326 5.01427 117.361 4.76986 117.423C4.52036 117.479 4.30141 117.52 4.10283 117.54C3.57328 117.591 3.28813 117.387 3.24231 116.918C3.19648 116.448 3.45616 116.188 4.02136 116.132C4.12829 116.122 4.54073 116.122 5.25868 116.137C5.87479 116.148 6.40943 116.132 6.87279 116.086C7.13757 116.061 7.60092 115.989 8.26795 115.867C8.36979 115.842 8.59892 115.785 8.95026 115.699C9.2354 115.632 9.46454 115.587 9.63766 115.571C10.1112 115.525 10.3709 115.74 10.4218 116.214C10.4676 116.678 10.213 116.933 9.65803 116.989C9.51546 117.004 9.3016 117.01 9.02155 117.004C8.7415 116.999 8.52764 117.004 8.38507 117.02C7.81987 117.076 7.57546 117.479 7.64675 118.234L7.73331 119.126C7.77405 119.509 7.86061 119.738 8.00318 119.81C8.14575 119.881 8.43089 119.896 8.8637 119.856L10.0908 119.733C10.2996 119.713 10.5847 119.677 10.9412 119.626C11.374 119.57 11.6642 119.534 11.8068 119.519C12.3312 119.453 12.652 119.315 12.7641 119.106C12.8404 118.953 12.8557 118.606 12.7997 118.065L12.5298 115.372C12.4535 114.592 12.2854 114.072 12.0257 113.801C11.7661 113.536 11.318 113.434 10.6866 113.495C10.488 113.516 10.1978 113.557 9.81078 113.613C9.4238 113.669 9.13357 113.71 8.93499 113.73C8.34433 113.791 8.02355 113.582 7.97772 113.118C7.9268 112.623 8.20685 112.348 8.81278 112.287C9.0521 112.261 9.41362 112.235 9.90244 112.21C10.3913 112.179 10.7528 112.154 10.9921 112.133C11.1754 112.113 11.4504 112.077 11.8068 112.021C12.1683 111.965 12.4382 111.929 12.6215 111.909C13.2427 111.848 13.5787 112.118 13.6398 112.725C13.6551 112.868 13.6653 113.103 13.6704 113.424C13.6704 113.582 13.6959 113.873 13.7366 114.296C13.7264 114.204 13.7671 114.719 13.8486 115.847C13.9352 116.969 14.0166 117.943 14.0981 118.759C14.2203 119.998 14.3833 121.207 14.5767 122.391C14.5818 122.442 14.5971 122.503 14.6124 122.569C14.6175 122.635 14.6226 122.676 14.6226 122.686C14.6786 123.242 14.4698 123.543 13.9963 123.589C13.5737 123.63 13.3445 123.446 13.3038 123.038C13.2987 122.972 13.2936 122.793 13.2885 122.498C13.314 122.35 13.3191 122.207 13.3089 122.074C13.2427 121.401 12.7131 121.115 11.7253 121.212L3.8075 121.988Z" fill="#FDC504"/>
<path d="M1.22594 102.193L12.6622 97.6227L4.6833 97.0769C3.65475 97.0055 3.08446 96.9749 2.97753 96.98C2.28504 97.0514 1.91843 97.3575 1.87769 97.9032C1.8726 98.0103 1.87769 98.1684 1.89297 98.3826C1.91334 98.5969 1.91843 98.755 1.90824 98.8621C1.89806 99.0355 1.82168 99.1783 1.68929 99.2956C1.55691 99.4129 1.40415 99.4639 1.23103 99.4537C0.757487 99.4231 0.538538 99.1069 0.579273 98.5102C0.589457 98.3928 0.59964 98.3061 0.614916 98.2551L0.79313 97.3677C0.8746 96.9749 0.925518 96.6077 0.945886 96.2608C0.971345 95.9191 0.966253 95.4601 0.93061 94.8837C0.920426 94.6848 0.905151 94.4502 0.889875 94.185C0.889875 94.1595 0.889875 94.1136 0.879692 94.0472C0.884784 93.9962 0.884784 93.9503 0.889875 93.9095C0.93061 93.3383 1.17502 93.0731 1.63328 93.1037C2.07627 93.1343 2.27995 93.4199 2.24431 93.9554C2.23921 94.0524 2.23412 94.1238 2.22903 94.1799L2.21375 94.3839C2.1883 94.7868 2.25449 95.0571 2.41743 95.1898C2.58037 95.3224 2.95207 95.4244 3.52745 95.4907L6.66912 95.7049L11.9595 96.0568C12.871 96.118 13.5024 96.266 13.8588 96.4955C14.2152 96.725 14.3731 97.0973 14.3374 97.6023C14.2916 98.2551 13.7926 98.7754 12.8353 99.163L1.67911 103.646L10.8903 104.279C11.8832 104.345 12.3974 104.044 12.4433 103.371C12.4484 103.264 12.4535 103.106 12.4433 102.891C12.4382 102.677 12.4382 102.519 12.4484 102.412C12.4789 101.989 12.703 101.79 13.1256 101.82C13.5737 101.851 13.7773 102.162 13.7366 102.759C13.7366 102.784 13.7315 102.825 13.7264 102.876C13.706 102.942 13.701 102.988 13.6959 103.014L13.5227 103.82C13.426 104.263 13.3649 104.687 13.3394 105.085C13.314 105.431 13.3191 105.875 13.3496 106.421L13.4005 107.4C13.4005 107.426 13.4005 107.472 13.4107 107.538C13.4056 107.604 13.4005 107.655 13.4005 107.696C13.3598 108.267 13.1103 108.533 12.6469 108.502C12.2396 108.471 12.0461 108.247 12.0767 107.824C12.0817 107.757 12.1072 107.579 12.153 107.288C12.204 107.145 12.2294 107.008 12.2396 106.875C12.2854 106.202 11.8119 105.829 10.8241 105.763L9.43908 105.666L7.69767 105.549L2.86042 105.217C1.86751 105.151 1.35323 105.457 1.30231 106.14C1.29722 106.232 1.30231 106.365 1.31759 106.538C1.33796 106.788 1.34814 106.977 1.33796 107.094C1.30741 107.512 1.07827 107.711 0.640375 107.681C0.177017 107.65 -0.0317484 107.349 0.0038945 106.783C0.00898635 106.707 0.0242619 106.599 0.0446292 106.467C0.15665 105.809 0.222844 105.304 0.248303 104.947C0.263579 104.748 0.263579 104.452 0.248303 104.049C0.233027 103.651 0.238119 103.351 0.248303 103.152C0.278854 102.744 0.431609 102.483 0.721844 102.366L1.22594 102.193Z" fill="#FDC504"/>
<path d="M13.706 84.6267C14.6735 84.8562 15.2336 84.642 15.3914 83.984C15.4169 83.882 15.4373 83.7239 15.4525 83.5097C15.4678 83.2955 15.4882 83.1374 15.5136 83.0354C15.5544 82.867 15.6511 82.7395 15.7988 82.6426C15.9515 82.5508 16.1094 82.5253 16.2774 82.561C16.7306 82.6681 16.8834 83.0149 16.7459 83.5913C16.7408 83.6168 16.7306 83.6576 16.7204 83.7086C16.6899 83.7698 16.6746 83.8157 16.6695 83.8412L16.308 84.7593C16.1705 85.1061 16.0483 85.5091 15.9414 85.9579C15.8243 86.4476 15.7479 86.8862 15.7122 87.2738L15.6155 88.2735C15.6053 88.3143 15.6002 88.3602 15.6002 88.4112C15.5849 88.4775 15.5747 88.5234 15.5697 88.549C15.4322 89.1151 15.1419 89.3446 14.6888 89.2375C14.2763 89.1406 14.1185 88.8856 14.2203 88.4725C14.2458 88.3704 14.2967 88.2174 14.3782 88.0185C14.4596 87.8196 14.5106 87.6666 14.536 87.5646C14.6888 86.9219 14.2814 86.4833 13.3191 86.2486L11.9646 85.9273L5.47762 84.3717C4.56618 84.1524 3.9959 84.5145 3.77186 85.4581L3.62929 86.0599C3.41034 86.9882 3.7464 87.5595 4.64766 87.7788C4.96844 87.8553 5.19248 87.9012 5.30959 87.9165L6.04282 88.0083C6.15993 88.0236 6.32287 88.0542 6.53164 88.1052C7.34124 88.299 7.68749 88.6459 7.57037 89.1508C7.45835 89.6302 7.10192 89.7935 6.51127 89.6558C6.34324 89.615 6.0581 89.5333 5.65075 89.4109C5.03973 89.2222 4.65275 89.11 4.48472 89.0692C4.16393 88.9927 3.82787 88.9213 3.47144 88.8601C2.77895 88.7377 2.48362 88.6918 2.58546 88.7173C2.04572 88.5898 1.83187 88.2786 1.94898 87.789C1.98971 87.6105 2.11192 87.1973 2.30541 86.5496C2.32068 86.4833 2.47344 85.963 2.75858 84.9837L3.28304 82.7803C3.34414 82.5253 3.4969 81.8316 3.74131 80.7044C3.79732 80.4596 3.88388 80.0363 3.99081 79.4395C4.08246 78.904 4.16393 78.4857 4.23522 78.1899C4.38797 77.5473 4.72912 77.2871 5.25868 77.4146L5.29941 77.4249C5.42671 77.4555 5.66093 77.5269 6.00209 77.6442C6.34324 77.7615 6.70476 77.8839 7.09683 78.0165L7.31069 78.0675C7.50418 78.1134 7.80969 78.1644 8.23231 78.2256C8.78732 78.3021 9.12848 78.3582 9.25577 78.3888C9.78532 78.5163 9.989 78.8275 9.86679 79.3324C9.74968 79.8221 9.36779 79.9904 8.72113 79.8374C8.4869 79.7813 8.14575 79.6793 7.69767 79.5313C7.24959 79.3834 6.90843 79.2814 6.67421 79.2253C5.78314 79.0111 5.21285 79.414 4.97353 80.4341L4.84624 80.9748C4.73422 81.4542 4.74949 81.8163 4.90225 82.0714C5.055 82.3264 5.35542 82.5202 5.81369 82.6579L7.14775 83.0609L13.706 84.6267Z" fill="#FDC504"/>
<path d="M7.57547 67.6983C8.05919 66.4946 8.84334 65.6632 9.92281 65.2143L9.66312 65.1123C9.18449 64.9185 9.02155 64.6329 9.17431 64.2504C9.34234 63.8321 9.68858 63.7301 10.2181 63.9443L10.3302 63.9902C10.3556 64.0004 10.5338 64.0922 10.8597 64.2708C11.1907 64.4442 11.5929 64.6329 12.0716 64.8267C12.1327 64.8522 12.3363 64.9185 12.6775 65.0256L13.4362 65.2704C13.5024 65.2806 13.5889 65.3112 13.701 65.3572C14.2916 65.5969 14.4953 65.9437 14.312 66.3977C14.1185 66.8771 13.7773 67.0199 13.2834 66.821L13.1918 66.7853L12.708 66.5456C12.54 66.464 12.4076 66.4027 12.3109 66.3619C11.5726 66.0661 10.8953 66.0814 10.2792 66.4078C9.66312 66.7343 9.17431 67.3412 8.82297 68.2134C8.50218 69.0142 8.44108 69.7282 8.64476 70.3607C8.84843 70.9932 9.28124 71.442 9.94318 71.7123C10.7171 72.0235 11.43 71.9061 12.0817 71.3502C12.4382 71.034 12.8914 70.4168 13.4464 69.4987C14.2712 68.1318 14.9892 67.2545 15.6155 66.8771C16.5422 66.3058 17.5606 66.2446 18.6655 66.6935C19.8214 67.1576 20.5902 67.9533 20.9823 69.0754C21.3744 70.1975 21.3031 71.4114 20.7735 72.7273C20.2083 74.1248 19.302 75.1092 18.0494 75.6703C18.1003 75.6907 18.1512 75.7111 18.2123 75.7366C18.2734 75.7621 18.3091 75.7774 18.3193 75.7825C18.5331 75.8131 18.6706 75.8386 18.7317 75.8641C19.1798 76.0426 19.3122 76.3639 19.1289 76.8179C18.9303 77.3126 18.5738 77.4554 18.0596 77.2463C17.9985 77.2208 17.9577 77.1851 17.9323 77.129L17.0107 76.6598C16.5473 76.4252 16.252 76.2772 16.1145 76.2262C15.8701 76.1293 15.4882 76.012 14.9688 75.8794C14.4495 75.7468 14.0676 75.6346 13.8232 75.5326C13.2732 75.3082 13.0899 74.9664 13.2783 74.4972C13.4718 74.0177 13.8435 73.8902 14.3985 74.1146L14.7295 74.2473C14.8263 74.2881 14.9688 74.3442 15.1572 74.4207C16.0839 74.793 16.9343 74.7981 17.7133 74.4258C18.4924 74.0585 19.083 73.37 19.4904 72.3652C19.8672 71.4318 19.9436 70.6004 19.7246 69.8711C19.5057 69.1417 19.0168 68.6215 18.2531 68.3154C17.087 67.8462 16.0788 68.295 15.2234 69.667L14.6175 70.6463C14.0116 71.6154 13.4718 72.3448 12.9932 72.8191C12.5451 73.2527 12.0105 73.5281 11.3893 73.6403C10.7681 73.7525 10.1418 73.6811 9.51546 73.4312C8.43599 72.9925 7.71295 72.2479 7.35652 71.187C7.00009 70.1108 7.07138 68.953 7.57547 67.6983Z" fill="#FDC504"/>
<path d="M124.472 107.627L129.209 107.612C121.707 94.5686 114.285 81.6669 106.815 68.6783C99.4322 81.7095 92.0962 94.6606 84.6812 107.75L89.417 107.735C90.5193 107.731 91.2158 108.906 90.6758 109.858C87.1299 116.116 83.5806 122.383 80.0141 128.678L97.0625 128.622V128.629L110.314 128.586C111.747 128.581 113.176 128.578 114.605 128.573L134.014 128.51C130.406 122.237 126.814 115.993 123.227 109.756C122.682 108.808 123.37 107.631 124.472 107.627Z" fill="#FDC504"/>
<path d="M57.9283 64.7024L60.3861 65.6755C61.0513 65.9385 61.8029 65.859 62.3934 65.4587L64.5718 63.9918C64.8463 63.8078 65.2127 64.0185 65.1985 64.3504L65.0512 66.981C65.012 67.693 65.3262 68.3857 65.8893 68.8242L67.9722 70.4522C68.2356 70.6576 68.1491 71.0719 67.8303 71.1533L65.2826 71.8072C64.5928 71.9845 64.0349 72.4925 63.794 73.1628L62.9052 75.6384C62.7945 75.9482 62.3739 75.9958 62.1939 75.7142L60.7674 73.4886C60.3806 72.8841 59.723 72.5096 59.0104 72.4821L56.3718 72.3831C56.0398 72.372 55.8645 71.9818 56.0733 71.7256L57.737 69.6936C58.1906 69.143 58.337 68.4049 58.1401 67.7153L57.4006 65.1775C57.3079 64.866 57.6211 64.5807 57.9283 64.7024Z" fill="#FDC504"/>
<path d="M153.645 65.7024L151.187 66.6755C150.522 66.9385 149.77 66.859 149.18 66.4587L147.001 64.9918C146.727 64.8078 146.361 65.0185 146.375 65.3504L146.522 67.981C146.561 68.693 146.247 69.3857 145.684 69.8242L143.601 71.4522C143.338 71.6576 143.424 72.0719 143.743 72.1533L146.291 72.8072C146.981 72.9845 147.538 73.4925 147.779 74.1628L148.668 76.6384C148.779 76.9482 149.199 76.9958 149.379 76.7142L150.806 74.4886C151.193 73.8841 151.85 73.5096 152.563 73.4821L155.201 73.3831C155.533 73.372 155.709 72.9818 155.5 72.7256L153.836 70.6936C153.383 70.143 153.236 69.4049 153.433 68.7153L154.173 66.1775C154.265 65.866 153.952 65.5807 153.645 65.7024Z" fill="#FDC504"/>
<path d="M83.7681 54.0047L81.165 54.4644C80.4606 54.5891 79.8623 55.0508 79.5693 55.7012L78.4831 58.0923C78.3458 58.3929 77.9233 58.4056 77.7614 58.1155L76.5079 55.798C76.168 55.1711 75.5373 54.746 74.8279 54.6677L72.2008 54.3732C71.8687 54.3363 71.7253 53.9382 71.9541 53.7017L73.7809 51.8093C74.2754 51.2967 74.4842 50.5717 74.338 49.8746L73.7971 47.3005C73.7291 46.9786 74.0623 46.7177 74.3631 46.8631L76.7446 48.0106C77.391 48.3227 78.1472 48.2969 78.7684 47.9467L81.0674 46.6479C81.356 46.4833 81.7098 46.7237 81.6663 47.0513L81.3146 49.6539C81.2169 50.3605 81.4793 51.0658 82.0084 51.5499L83.9685 53.3234C84.2107 53.5401 84.0935 53.9472 83.7681 54.0047Z" fill="#FDC504"/>
<path d="M127.7 54.0047L130.304 54.4644C131.008 54.5891 131.606 55.0508 131.899 55.7012L132.985 58.0923C133.123 58.3929 133.545 58.4056 133.707 58.1155L134.961 55.798C135.3 55.1711 135.931 54.746 136.641 54.6677L139.268 54.3732C139.6 54.3363 139.743 53.9382 139.514 53.7017L137.688 51.8093C137.193 51.2967 136.984 50.5717 137.131 49.8746L137.671 47.3005C137.739 46.9786 137.406 46.7177 137.105 46.8631L134.724 48.0106C134.078 48.3227 133.321 48.2969 132.7 47.9467L130.401 46.6479C130.113 46.4833 129.759 46.7237 129.802 47.0513L130.154 49.6539C130.252 50.3605 129.989 51.0658 129.46 51.5499L127.5 53.3234C127.258 53.5401 127.375 53.9472 127.7 54.0047Z" fill="#FDC504"/>
<path d="M100.265 42.1858L102.885 41.835C103.594 41.7398 104.211 41.3034 104.531 40.6658L105.716 38.322C105.865 38.0274 106.288 38.0324 106.438 38.329L107.594 40.6966C107.907 41.3372 108.52 41.7882 109.225 41.896L111.838 42.2997C112.168 42.3504 112.295 42.7542 112.056 42.9809L110.152 44.7955C109.637 45.287 109.398 46.0027 109.515 46.7053L109.948 49.2997C110.003 49.6242 109.659 49.871 109.364 49.7132L107.033 48.4674C106.4 48.1287 105.643 48.1229 105.008 48.4469L102.657 49.6488C102.362 49.8012 102.018 49.5463 102.075 49.2208L102.535 46.6351C102.662 45.9332 102.429 45.2175 101.921 44.7119L100.036 42.8582C99.8034 42.6316 99.9375 42.2297 100.265 42.1858Z" fill="#FDC504"/>
</svg>
