<svg width="215" height="215" viewBox="0 0 215 215" fill="none" xmlns="http://www.w3.org/2000/svg">
<path d="M32.6611 33.9844L41.8417 39.095L36.816 29.0471C36.5512 28.5269 36.5767 28.1188 36.8771 27.823L36.9484 27.7516C37.0452 27.6598 37.1826 27.5527 37.3609 27.4354C37.5951 27.2977 37.7427 27.2008 37.8038 27.1498C37.9719 27.0222 38.1908 26.8284 38.4607 26.5683C38.7458 26.2929 38.9546 26.0634 39.0921 25.8746L39.5096 25.3034C39.53 25.2677 39.5809 25.2065 39.6675 25.1249C40.1054 24.7015 40.4872 24.6556 40.808 24.9872C41.1034 25.2932 41.0983 25.5941 40.7928 25.8848C40.7164 25.9613 40.5942 26.0532 40.421 26.1756C40.253 26.2929 40.1257 26.3898 40.0493 26.4663C39.5656 26.9355 39.6675 27.5272 40.3549 28.2463L41.3223 29.246L42.5342 30.5059L45.8846 33.9793C46.572 34.6933 47.1576 34.8208 47.6311 34.3618C47.7278 34.27 47.8195 34.1527 47.9061 34.015C48.0995 33.7957 48.2116 33.663 48.2523 33.6273C48.5578 33.3315 48.8582 33.3366 49.1485 33.6426C49.4794 33.9844 49.4387 34.3567 49.0314 34.7545C49.0517 34.7341 48.9703 34.7953 48.792 34.9331C48.0639 35.4941 47.4682 35.9939 47.0099 36.4377C46.5618 36.8712 46.1646 37.3201 45.8235 37.7842C45.6809 37.978 45.5434 38.1412 45.406 38.2687C45.0343 38.6258 44.6931 38.6462 44.3876 38.33C44.0719 37.9984 44.1025 37.6516 44.4894 37.2793C44.5862 37.1875 44.6626 37.1211 44.7237 37.0905C44.9579 36.912 45.0954 36.8049 45.1361 36.7641C45.4823 36.4275 45.355 35.8613 44.7491 35.0657C44.6218 34.8973 44.1636 34.4026 43.3743 33.5814C43.0739 33.2652 42.6411 32.8011 42.081 32.1839L38.4047 28.3688C38.3487 28.3127 38.2977 28.3076 38.2519 28.3535C38.2214 28.379 38.2214 28.4351 38.2468 28.5218L43.4863 39.2174C43.7206 39.6918 43.6289 40.1304 43.2114 40.5334C42.9619 40.7731 42.748 40.9159 42.5596 40.9567C42.3712 41.0026 42.137 40.9465 41.862 40.7884L31.4034 35.1473C31.3219 35.1167 31.2608 35.1218 31.2201 35.1575C31.1793 35.1932 31.1895 35.2391 31.2455 35.3003L37.7122 41.834C38.3894 42.5174 38.9139 42.6806 39.2856 42.3185C39.3925 42.2165 39.5351 42.0788 39.7133 41.9054L39.8864 41.7371C40.2581 41.38 40.5993 41.3596 40.915 41.6861C41.2256 42.0125 41.195 42.3593 40.8131 42.7266C40.7469 42.7929 40.6349 42.8796 40.4872 42.9867C40.2479 43.1601 39.9933 43.3437 39.7184 43.5375C39.4994 43.6956 39.2448 43.915 38.9495 44.2006C38.425 44.7055 38.0992 45.0473 37.977 45.2258L37.4881 45.9194C37.4678 45.9398 37.4474 45.9704 37.4169 46.0163C37.3761 46.052 37.3507 46.0827 37.3303 46.098C36.8924 46.5213 36.5105 46.5672 36.1897 46.2306C36.0624 46.098 35.9962 45.9449 35.9962 45.7715C35.9962 45.5981 36.0573 45.4502 36.1795 45.3329C36.2865 45.2309 36.424 45.1238 36.592 45.0167C36.76 44.9044 36.8822 44.8177 36.9484 44.7565C37.4321 44.2873 37.3303 43.6956 36.6429 42.9765L31.0877 37.2232C30.3952 36.5091 29.8096 36.3867 29.3259 36.8559C29.2495 36.9324 29.1477 37.0548 29.0153 37.2232C28.888 37.3966 28.7811 37.519 28.7047 37.5904C28.4094 37.876 28.1141 37.8658 27.8187 37.5598C27.4979 37.2283 27.5489 36.8508 27.9766 36.4377C28.0122 36.402 28.0835 36.3459 28.1752 36.2745L28.7302 35.846C29.0051 35.6369 29.2546 35.4227 29.4736 35.2136C29.6518 35.0402 29.8809 34.78 30.1559 34.4434C30.4308 34.1068 30.6345 33.8671 30.7771 33.7293C31.1488 33.3723 31.6223 33.3621 32.1977 33.7089L32.6611 33.9844Z" fill="#C4C4C4"/>
<path d="M56.1905 21.0292C55.9664 21.3913 55.6457 21.7943 55.2129 22.2278C55.941 21.9269 56.5469 21.881 57.0306 22.085C57.5144 22.289 58.0286 22.8144 58.5735 23.6559L59.0674 24.421C59.0979 24.4669 59.1387 24.5332 59.1947 24.6199C59.709 25.4207 60.2232 25.6553 60.7273 25.3238C61.2416 24.9872 61.1958 24.3445 60.5797 23.4009L60.2589 22.9062L59.9941 22.493L59.8464 22.2635C59.6377 21.9422 59.5206 21.7076 59.4849 21.5597C59.4544 21.3148 59.5664 21.1108 59.821 20.9425C60.2232 20.6824 60.5746 20.7844 60.875 21.2536C60.8801 21.2638 60.9565 21.3913 61.0939 21.6311L61.3231 21.983C61.4758 22.2176 61.5726 22.3655 61.6133 22.4318L61.8832 22.8501C61.9137 22.9266 61.9748 23.0286 62.0614 23.1612C62.4789 23.809 62.6266 24.4261 62.4993 25.0229C62.372 25.6196 61.985 26.1246 61.3434 26.5428C60.0297 27.3946 58.9503 27.16 58.0897 25.8338L57.7639 25.334L57.3973 24.7678L57.1579 24.4006C56.6742 23.6559 56.2159 23.253 55.778 23.1969C55.3401 23.1408 54.6782 23.4009 53.7922 23.9722L52.2494 24.9719C51.893 25.2014 51.8573 25.5329 52.1374 25.9665L52.9674 27.2518C53.502 28.0729 53.8126 28.5371 53.9093 28.634C54.3676 29.1236 54.8259 29.2257 55.2841 28.9298C55.442 28.8278 55.554 28.7462 55.6202 28.685C55.7984 28.5422 55.9359 28.4402 56.0326 28.3739C56.3891 28.1444 56.6844 28.2107 56.9237 28.5779C57.1783 28.9655 57.0612 29.3175 56.5826 29.6286L56.3127 29.7561L55.3351 30.2253C54.9634 30.4039 54.6426 30.5824 54.3727 30.7558C54.0417 30.97 53.67 31.2505 53.2627 31.5974L52.5295 32.2145C52.3665 32.3522 52.2901 32.4185 52.3003 32.4083C51.8217 32.7195 51.4551 32.6736 51.1954 32.2706C50.9663 31.9136 51.0223 31.6229 51.3685 31.3984C51.4245 31.3627 51.5824 31.276 51.8421 31.1383C51.9846 31.0924 52.1119 31.0312 52.2239 30.9598C52.7891 30.5926 52.8044 29.9907 52.2647 29.1542L47.9366 22.4624C47.3969 21.626 46.8419 21.3964 46.2767 21.7637C46.1901 21.8198 46.0628 21.9218 45.905 22.0646C45.7471 22.2074 45.6198 22.3094 45.5333 22.3655C45.3907 22.4573 45.2328 22.4879 45.0648 22.4471C44.8968 22.4063 44.7644 22.3145 44.6727 22.1666C44.4181 21.779 44.5404 21.4219 45.0292 21.1057C45.075 21.0751 45.1565 21.0343 45.2736 20.9731L46.1799 20.5039C46.4142 20.3815 46.6993 20.2131 47.0354 19.9989C47.3816 19.7745 47.7584 19.5144 48.1657 19.2185L49.3878 18.3311C49.7951 18.0352 50.177 17.77 50.5335 17.5405C52.9775 15.9543 54.8004 16.092 56.0072 17.9536C56.715 19.0604 56.776 20.0856 56.1905 21.0292ZM51.4907 23.8957L53.059 22.8807C53.9908 22.2737 54.6069 21.6872 54.9023 21.1159C55.2587 20.4274 55.1925 19.7031 54.7037 18.9431C53.8839 17.6731 52.6058 17.6068 50.8644 18.734C49.9377 19.3359 49.3572 19.8102 49.1179 20.1621C48.8786 20.5141 48.8888 20.9017 49.1434 21.3199L50.732 23.7733C50.8542 23.962 50.9663 24.0589 51.063 24.0691C51.1547 24.0742 51.3023 24.0181 51.4907 23.8957Z" fill="#C4C4C4"/>
<path d="M63.1612 13.6131C62.7437 12.7256 62.2294 12.4247 61.6184 12.7103C61.4504 12.7869 61.3282 12.8583 61.2569 12.9246C61.0838 13.0521 60.931 13.1439 60.7986 13.2051C60.6408 13.2765 60.4829 13.2816 60.3251 13.2204C60.1621 13.1592 60.045 13.0419 59.9636 12.8736C59.765 12.4553 59.933 12.1187 60.4575 11.8739C60.5287 11.8382 60.6153 11.8076 60.7171 11.7719L61.7304 11.4505C62.1123 11.3281 62.4942 11.1802 62.8812 10.9966C63.2529 10.8232 63.6449 10.5988 64.0625 10.3335L64.8212 9.84389C64.9128 9.78778 64.9943 9.74188 65.0656 9.70617C65.5951 9.45625 65.9566 9.54296 66.1501 9.9663C66.2316 10.1346 66.2418 10.3029 66.1858 10.4661C66.1298 10.6294 66.0279 10.7518 65.8701 10.8232C65.7479 10.8793 65.5798 10.9354 65.3609 10.9966C65.2642 11.0119 65.1318 11.0578 64.9688 11.1394C64.3578 11.425 64.2611 12.0167 64.6786 12.9042L68.0596 20.1264C68.4822 21.0292 68.9965 21.3352 69.6075 21.0445C69.7042 20.9986 69.8214 20.9272 69.969 20.8303C70.1778 20.6875 70.3305 20.5957 70.4273 20.5498C70.799 20.3763 71.0739 20.4783 71.2522 20.866C71.4558 21.2995 71.2929 21.6362 70.7633 21.8861C70.7379 21.8963 70.6972 21.9167 70.636 21.9473C70.58 21.9575 70.5393 21.9728 70.5037 21.9881L69.5006 22.2839C69.1645 22.3808 68.8233 22.5134 68.4771 22.6766C67.973 22.9113 67.5402 23.1561 67.1685 23.4009L66.3996 23.9161C66.3742 23.9263 66.3385 23.9518 66.2825 23.9926C66.2214 24.0232 66.1756 24.0436 66.14 24.0589C65.6257 24.3037 65.2642 24.2068 65.0656 23.7732C64.8874 23.3907 64.979 23.1102 65.3507 22.9368C65.4118 22.9062 65.5799 22.845 65.8548 22.743C66.0025 22.7174 66.14 22.6766 66.2571 22.6205C66.8681 22.3349 66.9648 21.7382 66.5422 20.8405L63.1612 13.6131Z" fill="#C4C4C4"/>
<path d="M78.3909 14.6944C78.3756 14.6434 78.34 14.521 78.2789 14.3323C78.2025 14.1334 78.1414 13.9651 78.1007 13.8223L72.6066 9.11453C72.2451 8.80851 72.0261 8.63509 71.9447 8.58919C71.6952 8.45657 71.4304 8.43617 71.1554 8.52288C71.0027 8.56878 70.8957 8.62999 70.8397 8.7065C70.8041 8.7167 70.743 8.7371 70.6717 8.7575C70.5851 8.783 70.5189 8.80341 70.4833 8.81871C69.9028 9.00232 69.5413 8.86971 69.4038 8.42597C69.2613 7.97203 69.4446 7.6609 69.9487 7.50789C70.1523 7.44668 70.412 7.39058 70.7328 7.34977C71.3693 7.26307 71.9548 7.13556 72.4844 6.97234C72.8765 6.84993 73.4467 6.61021 74.1952 6.25318C74.4498 6.13076 74.6688 6.04406 74.8623 5.98285C75.3816 5.81964 75.7075 5.95735 75.8399 6.38579C75.9672 6.80402 75.7228 7.11005 75.1067 7.30387L74.9183 7.36508L74.0679 7.6303C73.9101 7.666 73.8541 7.73741 73.8897 7.85472C73.905 7.90572 73.9203 7.93633 73.9407 7.95163C73.961 7.96693 74.0068 8.01283 74.0883 8.08424L78.5233 12.1187L79.9287 6.26338C79.9592 6.14097 79.9592 6.02876 79.9287 5.93185C79.893 5.81964 79.7912 5.78393 79.6282 5.84004L79.5875 5.85024L79.2616 6.01345L78.783 6.21237C78.5742 6.29908 78.4113 6.36029 78.2993 6.39599C77.7799 6.5592 77.454 6.41129 77.3114 5.96245C77.174 5.51361 77.3573 5.20758 77.8614 5.04947C78.0498 4.98826 78.284 4.93726 78.564 4.89135C79.3024 4.77404 79.9337 4.63123 80.4531 4.46801C80.9979 4.2997 81.5835 4.05998 82.2098 3.75395C82.4491 3.63664 82.6579 3.54993 82.8361 3.49383C83.3147 3.34591 83.6253 3.48873 83.7628 3.93247C83.8901 4.3354 83.717 4.61083 83.2485 4.75874C83.0601 4.81995 82.9074 4.85055 82.8005 4.85565C82.5917 4.89135 82.4491 4.92196 82.3727 4.94746C82.0418 5.04947 81.8279 5.28409 81.7159 5.65132L81.5682 6.17667L79.6537 13.2102L79.9032 14.0059C80.3055 15.2963 80.6059 16.0869 80.8146 16.3674C81.0183 16.653 81.3391 16.7244 81.7668 16.5918C81.8686 16.5612 82.0163 16.4949 82.2149 16.398C82.4135 16.3011 82.5611 16.2399 82.663 16.2042C83.0551 16.0818 83.3147 16.2246 83.4369 16.6275C83.5795 17.0815 83.3657 17.3977 82.7954 17.5762C82.7852 17.5813 82.7444 17.5915 82.6833 17.6119C82.6273 17.617 82.5815 17.6221 82.5459 17.6323L81.4613 17.8261C81.054 17.8975 80.6619 17.9944 80.28 18.1117C79.8777 18.2393 79.4958 18.3821 79.1445 18.5504L78.2178 18.9839C78.1923 18.9941 78.1567 19.0094 78.1109 19.04C78.0498 19.0604 78.0039 19.0757 77.9785 19.0808C77.4082 19.2594 77.0569 19.1267 76.9194 18.683C76.7921 18.2648 76.9245 17.9944 77.3318 17.8669C77.4337 17.8363 77.5864 17.8057 77.7901 17.7751C77.9938 17.7445 78.1516 17.7139 78.2484 17.6833C78.7779 17.5201 78.9969 17.0815 78.9001 16.3725C78.8696 16.2603 78.7015 15.6992 78.3909 14.6944Z" fill="#C4C4C4"/>
<path d="M97.7705 12.2972L96.7928 10.4662C96.6859 10.2672 96.5841 10.1448 96.4924 10.104C96.4008 10.0632 96.2226 10.0632 95.9578 10.0989L92.4546 10.5886C92.1949 10.6243 92.0167 10.6957 91.9352 10.8028C91.8538 10.9099 91.757 11.1751 91.6552 11.6036L91.2937 13.2C91.2631 13.353 91.2529 13.4958 91.2733 13.6233C91.3344 14.0416 91.6144 14.2201 92.1287 14.1487C92.2611 14.1283 92.4444 14.0926 92.6837 14.0314C92.923 13.9702 93.1013 13.9345 93.2184 13.9141C93.7581 13.8376 94.0585 14.0314 94.1196 14.4904C94.1807 14.924 93.916 15.1841 93.3253 15.2657C93.2184 15.281 93.0758 15.2861 92.8874 15.2861L91.8894 15.3014C91.701 15.3014 91.4006 15.332 90.978 15.3932C90.5197 15.4595 90.1989 15.5105 90.0207 15.5615L89.2111 15.7757C88.8496 15.8726 88.5848 15.9287 88.4117 15.9542C87.9025 16.0257 87.6123 15.842 87.5562 15.4136C87.4951 14.9546 87.709 14.6893 88.208 14.6179C88.3149 14.6026 88.3964 14.6179 88.4575 14.6638L88.7121 14.6281C89.0685 14.5771 89.318 14.4037 89.4606 14.1028C89.5268 13.9855 89.6133 13.659 89.7254 13.1184L92.0014 2.66755C92.1338 2.0861 92.5106 1.74947 93.1267 1.66276C93.7276 1.58115 94.1655 1.80047 94.4404 2.32072L99.3184 11.6036C99.629 12.1901 99.8887 12.5675 100.097 12.741C100.306 12.9144 100.586 12.9756 100.927 12.9246C101.034 12.9093 101.111 12.8889 101.162 12.8634L101.706 12.7359C102.205 12.6645 102.486 12.8481 102.547 13.2816C102.608 13.7406 102.394 14.0059 101.895 14.0773C101.752 14.0977 101.559 14.1079 101.319 14.113C100.479 14.1283 99.853 14.1589 99.4508 14.215C98.9671 14.2813 98.188 14.4445 97.1136 14.6995C96.8438 14.7658 96.635 14.8066 96.4873 14.827C95.9629 14.8985 95.6675 14.7148 95.6064 14.266C95.5453 13.8172 95.7999 13.557 96.3804 13.4754C96.4975 13.4601 96.6757 13.4499 96.9049 13.4397C97.1391 13.4346 97.3122 13.4244 97.4293 13.4091C97.8621 13.3479 98.0556 13.1439 98.0047 12.7869C97.9894 12.7359 97.9181 12.5726 97.7705 12.2972ZM95.7948 8.47697L93.2693 3.28471L92.2153 8.97682C92.2 9.05843 92.1949 9.10943 92.1949 9.11963C92.2102 9.23694 92.3171 9.28285 92.5157 9.25734L95.6421 8.8238C95.7999 8.8034 95.8712 8.7371 95.8559 8.63509C95.8559 8.60449 95.8356 8.55348 95.7948 8.47697Z" fill="#C4C4C4"/>
<path d="M115.073 3.57543C115.169 2.60124 114.884 2.07589 114.212 2.00958C114.029 1.98918 113.886 1.98918 113.795 2.00958C113.581 2.02999 113.397 2.02999 113.255 2.01468C113.082 1.99938 112.944 1.91778 112.837 1.78006C112.73 1.64235 112.69 1.48424 112.705 1.29552C112.751 0.831378 113.051 0.63246 113.601 0.688565C113.616 0.688565 113.713 0.708967 113.896 0.73957C115.852 1.0711 116.763 1.22921 116.636 1.21901L116.834 1.23941L121.595 1.58115C121.687 1.59135 122.028 1.60665 122.624 1.62705C122.838 1.63725 123.026 1.64745 123.194 1.66275C123.876 1.73416 124.187 2.07079 124.126 2.67774C124.116 2.78485 124.065 3.11638 123.968 3.68254C123.897 4.10077 123.846 4.48841 123.805 4.84544C123.759 5.30958 123.739 5.63091 123.739 5.81963C123.744 6.20726 123.739 6.49289 123.719 6.67651C123.668 7.17635 123.408 7.40587 122.939 7.35487C122.471 7.30386 122.272 6.93663 122.344 6.23277L122.446 5.20247C122.558 4.09567 122.395 3.41731 121.952 3.17249C121.626 2.99397 120.75 2.83076 119.324 2.68795C118.387 2.59104 117.832 2.55533 117.659 2.58084C117.079 2.66754 116.753 3.03478 116.692 3.68254L116.6 4.57512C116.59 4.68223 116.575 4.82504 116.554 5.00865C116.534 5.19227 116.524 5.32488 116.514 5.40649L116.488 5.66151C116.432 6.19196 116.519 6.50309 116.748 6.6051C116.834 6.6408 116.992 6.6714 117.211 6.69181L118.011 6.77341C118.83 6.85502 119.268 6.6153 119.324 6.04915C119.34 5.89103 119.345 5.68702 119.334 5.43199C119.329 5.17697 119.334 4.95255 119.355 4.75363C119.406 4.22828 119.671 3.98346 120.134 4.03447C120.602 4.08037 120.806 4.3915 120.75 4.95765C120.74 5.06476 120.653 5.4677 120.495 6.17156C120.363 6.77341 120.271 7.30386 120.226 7.7629C120.2 8.02813 120.18 8.49737 120.164 9.17573C120.164 9.28284 120.175 9.51746 120.195 9.87959C120.205 10.1754 120.2 10.4049 120.185 10.5784C120.139 11.0527 119.874 11.2669 119.401 11.221C118.937 11.1751 118.739 10.8742 118.795 10.3182C118.81 10.1754 118.846 9.9612 118.907 9.69088C118.968 9.41545 119.003 9.20633 119.019 9.06352C119.075 8.49737 118.729 8.17604 117.98 8.09953L117.089 8.00773C116.707 7.96692 116.468 8.01283 116.366 8.13524C116.269 8.25765 116.198 8.53817 116.152 8.97171L116.03 10.2009C116.009 10.41 115.989 10.6957 115.964 11.0527C115.933 11.4913 115.908 11.7821 115.897 11.9249C115.857 12.4553 115.928 12.7971 116.111 12.945C116.249 13.0521 116.585 13.1337 117.125 13.1898L119.813 13.4601C120.592 13.5366 121.137 13.4754 121.448 13.2765C121.758 13.0725 121.952 12.6593 122.013 12.0218C122.033 11.8229 122.053 11.527 122.074 11.1394C122.094 10.7467 122.115 10.4559 122.135 10.257C122.196 9.66537 122.461 9.38995 122.924 9.43585C123.418 9.48686 123.632 9.81329 123.571 10.4202C123.545 10.66 123.5 11.0221 123.433 11.5066C123.367 11.9912 123.316 12.3533 123.296 12.593C123.276 12.7767 123.26 13.0521 123.245 13.4193C123.23 13.7865 123.209 14.0569 123.194 14.2456C123.133 14.8678 122.797 15.1433 122.191 15.0821C122.043 15.0668 121.819 15.0311 121.504 14.975C121.346 14.9444 121.055 14.9086 120.638 14.8678C120.73 14.878 120.215 14.8117 119.1 14.674C117.985 14.5363 117.018 14.4241 116.198 14.3425C114.961 14.215 113.744 14.1334 112.552 14.0926C112.501 14.0875 112.44 14.0875 112.374 14.0926C112.308 14.0875 112.267 14.0824 112.257 14.0824C111.702 14.0263 111.452 13.761 111.498 13.2867C111.539 12.8634 111.768 12.6746 112.175 12.7155C112.242 12.7206 112.42 12.7512 112.705 12.8073C112.847 12.8634 112.98 12.894 113.112 12.9093C113.784 12.9756 114.171 12.5165 114.268 11.527L115.073 3.57543Z" fill="#C4C4C4"/>
<path d="M133.301 6.97232L133.77 15.8726L138.531 8.55856C138.892 7.99751 139.106 7.58948 139.172 7.33445C139.305 6.84991 139.116 6.53368 138.607 6.39597C138.515 6.37047 138.373 6.35007 138.174 6.32966C137.976 6.30926 137.828 6.28886 137.741 6.26336C137.242 6.12565 137.054 5.83492 137.176 5.38608C137.293 4.95254 137.599 4.79953 138.083 4.93214C138.352 5.00354 138.745 5.15656 139.269 5.38098C139.793 5.6054 140.191 5.75841 140.471 5.83492C140.929 5.96243 141.515 6.05934 142.222 6.13075C142.451 6.15115 142.66 6.18685 142.854 6.24296C143.327 6.37047 143.5 6.66119 143.378 7.11003C143.261 7.54357 142.966 7.69659 142.492 7.56908C142.482 7.56397 142.457 7.55377 142.421 7.52827L141.993 7.37016L141.896 7.34466C141.677 7.28345 141.474 7.34466 141.28 7.51807C141.087 7.69149 140.776 8.09952 140.338 8.73708L134.671 17.1018C134.284 17.668 133.795 17.872 133.21 17.7088C132.599 17.5405 132.268 17.112 132.222 16.4286L131.428 5.85532C131.392 5.33507 131.341 4.99844 131.27 4.84543C131.153 4.58021 130.898 4.39149 130.516 4.28948C130.44 4.26908 130.318 4.23337 130.155 4.18747C129.987 4.14157 129.869 4.11096 129.793 4.08546C129.294 3.94775 129.106 3.66212 129.223 3.22858C129.345 2.77974 129.661 2.62673 130.17 2.76954C130.323 2.81035 130.491 2.87665 130.674 2.96336C131.351 3.28979 131.967 3.52951 132.517 3.67742C132.838 3.76413 133.322 3.85084 133.968 3.94265C134.615 4.03446 135.094 4.11606 135.399 4.20277C135.873 4.33028 136.051 4.61081 135.934 5.02905C135.807 5.48809 135.501 5.6513 135.017 5.51869C134.992 5.51359 134.936 5.49829 134.844 5.47279C134.768 5.45238 134.702 5.43198 134.651 5.42178C134.574 5.40138 134.467 5.37078 134.325 5.32997C133.765 5.17696 133.434 5.27897 133.337 5.636C133.286 5.81452 133.266 6.01344 133.276 6.23786L133.301 6.97232Z" fill="#C4C4C4"/>
<path d="M148.618 11.5016C149.03 10.609 148.928 10.0224 148.317 9.73679C148.149 9.66029 148.017 9.61438 147.92 9.59908C147.711 9.54808 147.538 9.48687 147.411 9.42566C147.253 9.35426 147.151 9.23695 147.095 9.06863C147.039 8.90542 147.049 8.7371 147.131 8.56879C147.324 8.14545 147.676 8.05364 148.18 8.28826C148.19 8.29336 148.276 8.33927 148.439 8.43107C150.181 9.38486 150.99 9.8337 150.868 9.7776L151.046 9.8592L155.431 11.7413C155.517 11.7821 155.833 11.9045 156.388 12.1187C156.586 12.1952 156.759 12.2717 156.917 12.3431C157.539 12.6339 157.722 13.0521 157.467 13.608C157.421 13.705 157.264 14.0008 156.989 14.5057C156.785 14.8781 156.607 15.23 156.459 15.5513C156.266 15.9747 156.138 16.2705 156.077 16.449C155.955 16.8162 155.858 17.0866 155.777 17.2549C155.563 17.7139 155.247 17.8414 154.82 17.6425C154.392 17.4436 154.326 17.0253 154.621 16.3878L155.054 15.4493C155.522 14.4394 155.588 13.7458 155.252 13.3683C155.003 13.0929 154.229 12.6492 152.93 12.0473C152.08 11.6495 151.566 11.4352 151.393 11.3995C150.817 11.2924 150.39 11.5322 150.115 12.1238L149.738 12.9348C149.692 13.0317 149.631 13.1643 149.555 13.3326C149.478 13.5009 149.422 13.6233 149.387 13.6947L149.28 13.9396C149.056 14.419 149.035 14.7454 149.213 14.9189C149.285 14.9801 149.422 15.0617 149.621 15.1535L150.349 15.4901C151.097 15.8369 151.586 15.7502 151.826 15.2351C151.892 15.0923 151.963 14.8985 152.039 14.6536C152.116 14.4088 152.197 14.1997 152.279 14.0212C152.503 13.5417 152.829 13.3989 153.251 13.5978C153.679 13.7968 153.771 14.1538 153.531 14.6689C153.485 14.7658 153.277 15.1178 152.895 15.7349C152.574 16.2552 152.314 16.7295 152.121 17.1478C152.009 17.3875 151.836 17.8261 151.601 18.4637C151.571 18.5657 151.5 18.7901 151.398 19.1369C151.311 19.4175 151.23 19.6368 151.158 19.7949C150.96 20.2284 150.639 20.3457 150.211 20.1417C149.789 19.9479 149.697 19.596 149.931 19.091C149.992 18.9584 150.094 18.7748 150.242 18.5351C150.39 18.2954 150.491 18.1117 150.553 17.9791C150.792 17.464 150.568 17.0457 149.886 16.7244L149.076 16.347C148.73 16.1838 148.485 16.1481 148.353 16.2297C148.22 16.3113 148.058 16.5561 147.874 16.9488L147.355 18.0658C147.268 18.2597 147.151 18.5198 147.014 18.8513C146.841 19.2542 146.723 19.5195 146.662 19.6521C146.449 20.1366 146.408 20.4835 146.535 20.6875C146.627 20.8354 146.922 21.019 147.411 21.2485L149.86 22.3859C150.568 22.7175 151.102 22.8348 151.464 22.7481C151.826 22.6614 152.141 22.3298 152.406 21.7484C152.487 21.5699 152.605 21.2944 152.752 20.9323C152.9 20.5702 153.012 20.2947 153.098 20.1162C153.348 19.5756 153.689 19.4022 154.117 19.6011C154.565 19.8102 154.662 20.1927 154.407 20.7436C154.305 20.9578 154.142 21.2893 153.918 21.7229C153.694 22.1615 153.531 22.4879 153.429 22.7022C153.353 22.8705 153.246 23.1255 153.109 23.4621C152.971 23.7988 152.869 24.0538 152.788 24.2221C152.528 24.7882 152.121 24.9413 151.566 24.6862C151.433 24.625 151.23 24.5128 150.95 24.3547C150.812 24.2731 150.547 24.1456 150.166 23.9671C150.252 24.0079 149.789 23.7784 148.775 23.2785C147.767 22.7787 146.886 22.3553 146.143 22.0136C145.013 21.4883 143.892 21.0139 142.777 20.5804C142.731 20.56 142.67 20.5396 142.609 20.5243C142.548 20.4988 142.513 20.4784 142.502 20.4733C141.998 20.2386 141.845 19.9071 142.049 19.4736C142.227 19.091 142.502 18.9839 142.874 19.1573C142.935 19.1828 143.093 19.2747 143.342 19.4175C143.46 19.5144 143.577 19.5909 143.694 19.647C144.305 19.9326 144.819 19.6215 145.242 18.7187L148.618 11.5016Z" fill="#C4C4C4"/>
<path d="M166.958 19.3818L165.039 31.5668L169.586 24.9719C170.171 24.1201 170.492 23.6457 170.538 23.5539C170.833 22.9164 170.752 22.4471 170.309 22.136C170.222 22.0748 170.08 21.9983 169.886 21.9065C169.693 21.8147 169.555 21.7382 169.464 21.677C169.321 21.5801 169.235 21.4424 169.204 21.2689C169.173 21.0955 169.204 20.9374 169.301 20.7946C169.571 20.4019 169.952 20.3764 170.441 20.713C170.538 20.7793 170.604 20.8354 170.645 20.8762L171.312 21.4832C171.607 21.7535 171.898 21.983 172.183 22.1819C172.468 22.3757 172.86 22.6053 173.374 22.8705C173.552 22.9623 173.761 23.0694 173.995 23.1918C174.016 23.2071 174.056 23.2275 174.123 23.2581C174.169 23.2887 174.204 23.3142 174.235 23.3397C174.703 23.6611 174.81 24.013 174.55 24.3904C174.296 24.7577 173.95 24.7831 173.507 24.4771C173.43 24.421 173.369 24.3802 173.323 24.3496L173.155 24.2323C172.824 24.0028 172.559 23.9212 172.361 23.9977C172.162 24.0691 171.887 24.3394 171.536 24.8036L170.894 25.7369L166.734 31.7708C166.215 32.5205 165.767 32.9949 165.385 33.1785C165.003 33.3621 164.606 33.3162 164.194 33.0306C163.659 32.6583 163.465 31.9646 163.618 30.9445L165.467 19.0502L160.222 26.6601C159.657 27.4762 159.652 28.078 160.207 28.4657C160.293 28.5269 160.431 28.6085 160.614 28.7105C160.797 28.8125 160.935 28.8992 161.021 28.9553C161.368 29.195 161.424 29.4909 161.184 29.8428C160.93 30.2151 160.558 30.2304 160.064 29.8887C160.044 29.8734 160.008 29.853 159.967 29.8224C159.922 29.7714 159.886 29.7408 159.866 29.7255L159.265 29.1644C158.934 28.8533 158.603 28.583 158.277 28.3586C157.992 28.1648 157.61 27.9352 157.126 27.6853L156.255 27.2314C156.235 27.2161 156.194 27.1957 156.128 27.1702C156.072 27.1345 156.031 27.1039 155.996 27.0784C155.527 26.7519 155.425 26.4 155.69 26.0175C155.924 25.6808 156.215 25.6298 156.561 25.8695C156.617 25.9053 156.754 26.0175 156.978 26.2062C157.075 26.3235 157.177 26.4153 157.289 26.4918C157.844 26.8743 158.404 26.6601 158.969 25.8389L159.759 24.6913L161.724 21.8453L163.506 19.2594C164.071 18.4433 164.071 17.8363 163.506 17.4487C163.43 17.3977 163.313 17.3314 163.16 17.2549C162.931 17.1478 162.768 17.056 162.671 16.9896C162.325 16.7499 162.274 16.449 162.523 16.092C162.788 15.7094 163.15 15.6788 163.618 16.0053C163.684 16.0512 163.766 16.1175 163.868 16.2042C164.372 16.6326 164.774 16.9539 165.069 17.1529C165.232 17.2651 165.487 17.4181 165.838 17.6119C166.185 17.8057 166.444 17.9587 166.607 18.0709C166.943 18.3056 167.086 18.5708 167.04 18.8768L166.958 19.3818Z" fill="#C4C4C4"/>
<path d="M175.66 39.095C174.968 39.8091 174.866 40.4007 175.35 40.87C175.426 40.9414 175.553 41.0434 175.727 41.1658C175.9 41.2882 176.027 41.3902 176.103 41.4616C176.226 41.5789 176.292 41.732 176.292 41.9105C176.292 42.089 176.236 42.242 176.119 42.3644C175.798 42.696 175.421 42.6551 174.993 42.242C174.973 42.2216 174.948 42.1961 174.907 42.1604C174.866 42.1043 174.841 42.0686 174.82 42.0482L174.219 41.2678C173.99 40.972 173.71 40.6609 173.374 40.3395C173.013 39.9876 172.677 39.6969 172.361 39.4674L171.551 38.8757C171.521 38.8502 171.485 38.8196 171.439 38.7941C171.393 38.7482 171.358 38.7176 171.337 38.6972C170.92 38.2892 170.869 37.9219 171.195 37.5904C171.49 37.2844 171.791 37.2793 172.091 37.5751C172.167 37.6465 172.269 37.774 172.397 37.9423C172.524 38.1157 172.631 38.2381 172.702 38.3096C173.176 38.7686 173.761 38.6462 174.454 37.9321L176.638 35.6726L177.814 34.4587L180.065 32.1278C180.717 31.4494 180.696 30.7762 180.004 30.1029L179.561 29.6745C178.878 29.0114 178.211 29.0114 177.565 29.6796C177.336 29.9193 177.183 30.0825 177.112 30.1794L176.669 30.766C176.597 30.8629 176.485 30.9853 176.338 31.1383C175.757 31.7402 175.284 31.8575 174.912 31.5004C174.561 31.1587 174.596 30.7711 175.019 30.3324C175.141 30.21 175.355 30.006 175.671 29.7153C176.139 29.2868 176.434 29.0114 176.557 28.8839C176.786 28.6442 177.02 28.3892 177.249 28.1188C177.707 27.5833 177.896 27.3538 177.824 27.4303C178.211 27.0324 178.583 27.0069 178.945 27.3538C179.077 27.4813 179.372 27.7975 179.831 28.2923C179.876 28.3382 180.248 28.736 180.941 29.4807L182.565 31.0567C182.753 31.2403 183.273 31.7249 184.113 32.5103C184.291 32.6837 184.612 32.9745 185.075 33.3723C185.488 33.7242 185.803 34.0048 186.022 34.219C186.496 34.678 186.547 35.1065 186.17 35.4941L186.145 35.5247C186.053 35.6216 185.87 35.7848 185.6 36.0195C185.325 36.2541 185.034 36.504 184.719 36.7743L184.566 36.9324C184.429 37.0752 184.225 37.315 183.96 37.6465C183.609 38.0851 183.39 38.3504 183.298 38.4473C182.921 38.84 182.545 38.8553 182.173 38.4932C181.811 38.1412 181.862 37.7281 182.326 37.2487C182.494 37.0752 182.753 36.8355 183.11 36.5244C183.466 36.2133 183.726 35.9684 183.894 35.8001C184.53 35.1422 184.474 34.4434 183.726 33.7191L183.329 33.3315C182.977 32.9898 182.652 32.8215 182.356 32.8215C182.061 32.8215 181.74 32.9847 181.389 33.306L180.365 34.2496L175.66 39.095Z" fill="#C4C4C4"/>
<path d="M193.314 42.4052C194.103 43.4355 194.419 44.5321 194.256 45.695L194.475 45.5267C194.882 45.2105 195.213 45.2156 195.463 45.542C195.738 45.899 195.646 46.251 195.198 46.5978L195.101 46.6692C195.081 46.6845 194.908 46.7916 194.592 46.9854C194.276 47.1793 193.91 47.4343 193.502 47.7505C193.451 47.7913 193.288 47.929 193.024 48.1687L192.428 48.6992C192.382 48.7502 192.316 48.8114 192.219 48.8828C191.715 49.2704 191.313 49.2704 191.017 48.8777C190.702 48.4697 190.758 48.1024 191.175 47.776L191.252 47.7148L191.7 47.419C191.852 47.317 191.975 47.2354 192.061 47.1691C192.693 46.6845 193.024 46.0928 193.054 45.3941C193.085 44.6953 192.815 43.9711 192.239 43.2213C191.715 42.5378 191.129 42.1196 190.483 41.9768C189.836 41.8289 189.23 41.9768 188.66 42.4103C187.998 42.9204 187.738 43.5936 187.886 44.4352C187.978 44.8993 188.273 45.6083 188.782 46.5519C189.541 47.9596 189.928 49.0256 189.933 49.755C189.948 50.8465 189.485 51.7544 188.543 52.4786C187.555 53.2386 186.481 53.4987 185.32 53.2692C184.159 53.0346 183.145 52.3613 182.285 51.2341C181.368 50.0355 180.986 48.7553 181.139 47.3884C181.098 47.419 181.053 47.4547 180.997 47.4955C180.946 47.5363 180.915 47.5567 180.905 47.5669C180.773 47.7352 180.681 47.8423 180.625 47.8831C180.243 48.1789 179.902 48.133 179.602 47.7403C179.281 47.317 179.337 46.9395 179.78 46.5978C179.831 46.557 179.887 46.5417 179.943 46.5468L180.818 45.9908C181.256 45.7103 181.531 45.5267 181.648 45.44C181.857 45.2768 182.153 45.0065 182.529 44.629C182.906 44.2465 183.196 43.9762 183.41 43.8181C183.884 43.4559 184.271 43.4712 184.576 43.8742C184.892 44.2822 184.81 44.6698 184.337 45.0371L184.052 45.2564C183.965 45.3227 183.848 45.4145 183.69 45.5369C182.901 46.1439 182.463 46.8783 182.387 47.7403C182.31 48.6023 182.601 49.4592 183.257 50.3211C183.868 51.1168 184.546 51.6064 185.284 51.7901C186.022 51.9737 186.72 51.8105 187.372 51.3106C188.37 50.5456 188.497 49.4439 187.748 48.0106L187.219 46.9905C186.689 45.9755 186.343 45.1391 186.175 44.4811C186.027 43.8741 186.063 43.2723 186.282 42.6806C186.501 42.0839 186.878 41.584 187.417 41.1709C188.339 40.4619 189.352 40.2222 190.442 40.4517C191.532 40.6813 192.494 41.3341 193.314 42.4052Z" fill="#C4C4C4"/>
<path d="M209.623 78.7409L200.641 84.1933L211.843 84.8104C212.424 84.841 212.77 85.0604 212.872 85.4735L212.897 85.5704C212.928 85.6979 212.953 85.8713 212.968 86.0855C212.968 86.361 212.979 86.5344 212.999 86.6109C213.024 86.8251 213.085 87.1107 213.177 87.4678C213.274 87.8554 213.371 88.1512 213.467 88.3604L213.753 89.0081C213.773 89.0438 213.803 89.1203 213.829 89.2325C213.977 89.8242 213.829 90.1761 213.381 90.2934C212.968 90.4005 212.714 90.2424 212.607 89.8344C212.581 89.7324 212.561 89.5743 212.541 89.3702C212.52 89.1611 212.5 89.0081 212.474 88.9061C212.306 88.2481 211.741 88.0441 210.779 88.289L209.43 88.6307L203.06 90.2577C202.097 90.5025 201.7 90.9463 201.863 91.589C201.894 91.7165 201.95 91.8542 202.026 91.997C202.123 92.2724 202.179 92.4356 202.194 92.4866C202.301 92.8998 202.143 93.1548 201.736 93.2619C201.272 93.3792 200.972 93.1599 200.835 92.609C200.84 92.6345 200.829 92.5325 200.799 92.3081C200.677 91.3951 200.539 90.6301 200.381 90.0129C200.229 89.411 200.035 88.8398 199.806 88.3145C199.709 88.0951 199.638 87.8911 199.592 87.7126C199.465 87.2128 199.618 86.9067 200.045 86.7945C200.488 86.6823 200.773 86.8863 200.906 87.4015C200.936 87.529 200.957 87.631 200.952 87.6973C200.992 87.9931 201.013 88.1614 201.028 88.2175C201.145 88.6817 201.7 88.8551 202.693 88.7225C202.907 88.697 203.559 88.544 204.664 88.2635C205.086 88.1563 205.702 88.0135 206.517 87.8299L208.248 87.3913L211.65 86.5242C211.726 86.5038 211.757 86.463 211.741 86.3967C211.731 86.3559 211.685 86.3304 211.599 86.31L199.724 85.5602C199.2 85.5296 198.864 85.2338 198.721 84.6676C198.635 84.331 198.62 84.076 198.676 83.8873C198.732 83.7036 198.895 83.5251 199.164 83.3619L209.251 77.0781C209.318 77.022 209.343 76.9659 209.333 76.9149C209.318 76.8639 209.277 76.8486 209.2 76.869L200.33 79.2509C199.404 79.5009 199.001 79.8783 199.129 80.3781C199.164 80.521 199.215 80.7148 199.276 80.9545L199.337 81.184C199.465 81.6839 199.312 81.9899 198.874 82.1021C198.436 82.2143 198.156 82.0103 198.024 81.4951C198.003 81.4033 197.978 81.2656 197.958 81.082C197.922 80.7913 197.891 80.4751 197.861 80.1435C197.835 79.8783 197.769 79.5417 197.667 79.1438C197.489 78.4349 197.352 77.986 197.26 77.7922L196.899 77.022C196.893 76.9965 196.878 76.9608 196.853 76.9098C196.837 76.8588 196.832 76.818 196.822 76.7925C196.674 76.2009 196.822 75.8489 197.27 75.7316C197.448 75.6857 197.616 75.7061 197.764 75.7877C197.912 75.8693 198.014 75.9969 198.054 76.1652C198.09 76.308 198.115 76.4763 198.126 76.6803C198.136 76.8843 198.151 77.0271 198.177 77.1189C198.345 77.7769 198.91 77.9809 199.872 77.7361L207.607 75.7673C208.569 75.5225 208.966 75.0737 208.798 74.4157C208.773 74.3137 208.717 74.1607 208.63 73.9669C208.544 73.7679 208.493 73.62 208.462 73.518C208.36 73.1202 208.513 72.8703 208.925 72.7632C209.374 72.6509 209.674 72.8805 209.822 73.4568C209.837 73.5078 209.847 73.5945 209.867 73.7118L209.964 74.4055C210.01 74.7472 210.071 75.0686 210.147 75.3644C210.209 75.6092 210.321 75.9305 210.478 76.3386C210.636 76.7415 210.738 77.0424 210.789 77.2363C210.916 77.7361 210.687 78.1492 210.102 78.4808L209.623 78.7409Z" fill="#C4C4C4"/>
<path d="M209.155 105.631C208.951 105.258 208.762 104.774 208.6 104.187C208.498 104.967 208.238 105.518 207.815 105.84C207.398 106.156 206.685 106.345 205.687 106.401L204.776 106.452C204.725 106.457 204.643 106.457 204.536 106.467C203.589 106.518 203.131 106.844 203.161 107.451C203.197 108.069 203.778 108.344 204.903 108.283L205.982 108.227L206.257 108.211C206.639 108.191 206.899 108.201 207.047 108.247C207.276 108.339 207.398 108.538 207.413 108.844C207.439 109.318 207.174 109.573 206.619 109.604C206.604 109.604 206.461 109.604 206.181 109.609L205.763 109.629C205.483 109.645 205.305 109.655 205.229 109.66L204.735 109.685C204.653 109.675 204.536 109.675 204.378 109.685C203.61 109.726 203.004 109.548 202.55 109.14C202.097 108.732 201.848 108.145 201.807 107.38C201.72 105.819 202.464 104.993 204.037 104.906L204.633 104.876L205.305 104.84L205.743 104.814C206.629 104.763 207.204 104.565 207.469 104.213C207.734 103.861 207.841 103.157 207.78 102.101L207.678 100.26C207.652 99.8364 207.383 99.6426 206.868 99.6681L205.341 99.7548C204.363 99.8109 203.808 99.8517 203.676 99.8874C203.019 100.046 202.708 100.392 202.739 100.933C202.749 101.117 202.764 101.259 202.785 101.351C202.82 101.576 202.841 101.744 202.851 101.866C202.871 102.29 202.668 102.514 202.23 102.54C201.766 102.565 201.522 102.295 201.491 101.724L201.517 101.423L201.598 100.341C201.629 99.9282 201.634 99.561 201.619 99.2448C201.598 98.8469 201.537 98.3879 201.446 97.8625L201.272 96.9138C201.237 96.7047 201.216 96.6027 201.216 96.618C201.186 96.0468 201.41 95.7509 201.883 95.7254C202.306 95.6999 202.53 95.8938 202.55 96.3069C202.556 96.3732 202.55 96.5517 202.54 96.8475C202.51 96.9955 202.494 97.1332 202.505 97.2658C202.54 97.939 203.055 98.2502 204.047 98.1992L212.001 97.7605C212.994 97.7044 213.467 97.3423 213.432 96.6639C213.427 96.5568 213.401 96.3987 213.355 96.1896C213.31 95.9805 213.284 95.8223 213.279 95.7152C213.269 95.5418 213.325 95.3939 213.442 95.2664C213.559 95.1389 213.707 95.0726 213.88 95.0624C214.343 95.0369 214.588 95.3174 214.623 95.8988C214.628 95.9499 214.623 96.0468 214.618 96.1794L214.572 97.1995C214.562 97.4647 214.567 97.7962 214.588 98.1941C214.608 98.6021 214.649 99.0611 214.705 99.561L214.868 101.066C214.924 101.565 214.959 102.03 214.985 102.453C215.143 105.365 214.119 106.885 211.904 107.008C210.601 107.064 209.684 106.61 209.155 105.631ZM209.012 100.117L209.114 101.984C209.175 103.096 209.379 103.922 209.73 104.457C210.153 105.11 210.809 105.416 211.711 105.365C213.218 105.284 213.915 104.202 213.798 102.132C213.737 101.03 213.615 100.285 213.427 99.9027C213.238 99.5202 212.902 99.3366 212.413 99.3519L209.496 99.5151C209.272 99.5253 209.129 99.5763 209.078 99.6579C209.027 99.7395 208.997 99.8925 209.012 100.117Z" fill="#C4C4C4"/>
<path d="M212.133 115.357C213.111 115.434 213.625 115.138 213.676 114.465C213.691 114.281 213.686 114.138 213.671 114.046C213.651 113.832 213.64 113.654 213.656 113.506C213.671 113.332 213.742 113.195 213.88 113.082C214.012 112.975 214.175 112.924 214.358 112.939C214.822 112.975 215.031 113.286 214.98 113.868C214.975 113.949 214.959 114.041 214.939 114.143L214.715 115.184C214.628 115.576 214.572 115.984 214.537 116.408C214.506 116.816 214.501 117.27 214.526 117.765L214.572 118.667C214.577 118.774 214.577 118.866 214.572 118.948C214.526 119.529 214.272 119.8 213.809 119.764C213.625 119.749 213.472 119.677 213.355 119.55C213.238 119.422 213.187 119.269 213.203 119.101C213.213 118.968 213.248 118.79 213.304 118.57C213.34 118.479 213.36 118.341 213.376 118.157C213.427 117.484 212.968 117.107 211.991 117.03L204.053 116.398C203.065 116.321 202.54 116.617 202.489 117.29C202.479 117.397 202.484 117.535 202.494 117.708C202.515 117.963 202.52 118.142 202.51 118.249C202.479 118.657 202.25 118.846 201.827 118.815C201.354 118.78 201.14 118.468 201.186 117.887C201.186 117.861 201.191 117.816 201.196 117.749C201.211 117.698 201.221 117.652 201.227 117.612L201.466 116.591C201.547 116.25 201.603 115.893 201.634 115.505C201.68 114.949 201.685 114.449 201.654 114.011L201.588 113.087C201.588 113.062 201.588 113.016 201.578 112.945C201.583 112.878 201.588 112.827 201.588 112.786C201.634 112.22 201.894 111.955 202.367 111.991C202.79 112.027 202.983 112.246 202.953 112.654C202.948 112.72 202.922 112.899 202.871 113.184C202.82 113.327 202.79 113.465 202.78 113.597C202.724 114.271 203.192 114.648 204.185 114.725L212.133 115.357Z" fill="#C4C4C4"/>
<path d="M203.66 128.078C203.711 128.088 203.834 128.118 204.032 128.159C204.241 128.19 204.419 128.226 204.562 128.256L211.364 125.798C211.807 125.635 212.067 125.533 212.149 125.482C212.388 125.329 212.536 125.109 212.597 124.829C212.632 124.676 212.632 124.553 212.597 124.461C212.607 124.421 212.617 124.365 212.632 124.288C212.653 124.196 212.668 124.135 212.673 124.094C212.805 123.497 213.096 123.248 213.549 123.35C214.012 123.452 214.19 123.763 214.078 124.278C214.033 124.487 213.951 124.737 213.829 125.038C213.59 125.635 213.411 126.211 213.294 126.752C213.208 127.154 213.131 127.767 213.075 128.598C213.055 128.878 213.024 129.118 212.979 129.312C212.861 129.842 212.586 130.062 212.143 129.965C211.716 129.873 211.573 129.506 211.711 128.873L211.751 128.68L211.858 128.195L211.945 127.807C211.991 127.654 211.955 127.568 211.843 127.542C211.792 127.532 211.756 127.532 211.731 127.537C211.711 127.547 211.644 127.568 211.543 127.598L205.85 129.465L210.234 133.581C210.321 133.668 210.417 133.724 210.524 133.744C210.641 133.77 210.718 133.698 210.753 133.53L210.764 133.489L210.784 133.127L210.845 132.612C210.87 132.388 210.901 132.214 210.927 132.102C211.044 131.571 211.329 131.357 211.787 131.454C212.245 131.551 212.418 131.862 212.306 132.382C212.266 132.576 212.194 132.806 212.098 133.071C211.838 133.775 211.644 134.392 211.532 134.922C211.41 135.478 211.329 136.106 211.283 136.805C211.263 137.07 211.237 137.294 211.196 137.478C211.089 137.967 210.809 138.166 210.356 138.069C209.944 137.978 209.786 137.692 209.893 137.213C209.934 137.019 209.979 136.871 210.03 136.774C210.102 136.57 210.147 136.432 210.163 136.356C210.234 136.019 210.142 135.713 209.878 135.438L209.496 135.05L204.338 129.909L203.523 129.73C202.204 129.439 201.369 129.317 201.023 129.353C200.677 129.394 200.453 129.633 200.356 130.072C200.335 130.174 200.315 130.337 200.3 130.556C200.285 130.776 200.269 130.939 200.244 131.041C200.157 131.444 199.903 131.597 199.49 131.505C199.027 131.403 198.854 131.061 198.981 130.48C198.986 130.465 198.991 130.429 199.007 130.363C199.032 130.312 199.047 130.271 199.057 130.23L199.429 129.19C199.567 128.797 199.679 128.409 199.765 128.022C199.857 127.608 199.918 127.205 199.949 126.818L200.03 125.798C200.035 125.772 200.035 125.731 200.035 125.675C200.05 125.609 200.061 125.563 200.066 125.538C200.193 124.956 200.483 124.711 200.936 124.813C201.364 124.905 201.532 125.16 201.44 125.573C201.42 125.675 201.369 125.823 201.293 126.017C201.216 126.211 201.165 126.359 201.145 126.461C201.028 127.007 201.298 127.41 201.96 127.68C202.067 127.721 202.637 127.853 203.66 128.078Z" fill="#C4C4C4"/>
<path d="M196.16 146.133L198.233 146.189C198.457 146.195 198.614 146.164 198.696 146.108C198.777 146.052 198.864 145.894 198.966 145.649L200.274 142.359C200.371 142.114 200.397 141.925 200.346 141.798C200.295 141.67 200.111 141.456 199.791 141.16L198.584 140.059C198.467 139.957 198.35 139.88 198.227 139.829C197.835 139.671 197.54 139.834 197.352 140.314C197.301 140.436 197.245 140.615 197.179 140.854C197.112 141.094 197.056 141.267 197.016 141.375C196.817 141.88 196.501 142.048 196.069 141.874C195.661 141.711 195.57 141.354 195.788 140.798C195.829 140.701 195.895 140.569 195.987 140.405L196.471 139.528C196.562 139.365 196.685 139.084 196.842 138.692C197.016 138.258 197.123 137.952 197.173 137.774L197.387 136.963C197.484 136.601 197.566 136.34 197.627 136.182C197.82 135.703 198.115 135.545 198.523 135.703C198.956 135.876 199.078 136.192 198.889 136.662C198.849 136.759 198.798 136.825 198.726 136.856L198.63 137.095C198.497 137.427 198.528 137.733 198.716 138.008C198.788 138.12 199.027 138.36 199.439 138.727L207.383 145.878C207.821 146.281 207.927 146.771 207.698 147.352C207.474 147.918 207.067 148.194 206.476 148.168L196.013 147.827C195.351 147.806 194.892 147.842 194.643 147.944C194.393 148.046 194.2 148.25 194.073 148.571C194.032 148.668 194.011 148.745 194.011 148.801L193.854 149.336C193.665 149.806 193.37 149.959 192.968 149.795C192.535 149.622 192.413 149.306 192.601 148.837C192.657 148.699 192.738 148.525 192.856 148.316C193.258 147.577 193.538 147.021 193.691 146.638C193.874 146.184 194.118 145.424 194.424 144.363C194.5 144.093 194.566 143.894 194.622 143.756C194.816 143.262 195.127 143.099 195.544 143.267C195.962 143.435 196.063 143.787 195.85 144.328C195.804 144.44 195.727 144.598 195.615 144.802C195.503 145.006 195.427 145.164 195.386 145.276C195.223 145.684 195.31 145.955 195.641 146.087C195.671 146.108 195.85 146.123 196.16 146.133ZM200.453 146.302L206.206 146.669L201.792 142.935C201.726 142.879 201.69 142.854 201.68 142.849C201.568 142.803 201.476 142.874 201.405 143.058L200.239 145.996C200.178 146.144 200.198 146.235 200.3 146.276C200.315 146.291 200.371 146.297 200.453 146.302Z" fill="#C4C4C4"/>
<path d="M195.132 165.53C195.926 166.102 196.522 166.112 196.914 165.561C197.021 165.408 197.092 165.291 197.123 165.199C197.214 165.005 197.301 164.847 197.387 164.73C197.489 164.592 197.622 164.505 197.795 164.485C197.968 164.459 198.126 164.505 198.278 164.612C198.655 164.883 198.681 165.245 198.36 165.694C198.355 165.704 198.289 165.78 198.171 165.923C196.914 167.458 196.323 168.172 196.399 168.065L196.282 168.229L193.619 172.197C193.563 172.273 193.38 172.564 193.069 173.069C192.957 173.247 192.85 173.405 192.754 173.548C192.357 174.109 191.908 174.211 191.415 173.854C191.328 173.793 191.063 173.579 190.625 173.217C190.299 172.946 189.989 172.707 189.699 172.498C189.322 172.227 189.052 172.049 188.889 171.957C188.553 171.768 188.309 171.62 188.156 171.513C187.748 171.217 187.677 170.881 187.952 170.498C188.227 170.116 188.65 170.126 189.22 170.539L190.06 171.141C190.966 171.789 191.634 171.982 192.061 171.722C192.382 171.529 192.957 170.845 193.787 169.682C194.332 168.917 194.643 168.453 194.709 168.29C194.923 167.739 194.765 167.28 194.235 166.897L193.507 166.377C193.421 166.316 193.304 166.229 193.151 166.122C192.998 166.015 192.891 165.938 192.83 165.892L192.621 165.739C192.189 165.428 191.873 165.347 191.674 165.495C191.598 165.556 191.496 165.673 191.369 165.857L190.9 166.51C190.422 167.178 190.411 167.683 190.875 168.014C191.002 168.106 191.18 168.213 191.404 168.331C191.628 168.448 191.822 168.57 191.98 168.682C192.413 168.988 192.489 169.335 192.214 169.718C191.939 170.1 191.572 170.126 191.109 169.794C191.022 169.733 190.712 169.458 190.182 168.973C189.729 168.56 189.317 168.218 188.94 167.948C188.726 167.795 188.329 167.54 187.748 167.193C187.657 167.142 187.448 167.035 187.127 166.867C186.868 166.729 186.669 166.612 186.526 166.51C186.139 166.234 186.083 165.898 186.363 165.51C186.633 165.133 186.995 165.107 187.448 165.428C187.565 165.515 187.728 165.648 187.937 165.841C188.146 166.03 188.309 166.168 188.426 166.255C188.889 166.586 189.342 166.443 189.78 165.831L190.299 165.102C190.523 164.791 190.605 164.561 190.549 164.413C190.493 164.265 190.284 164.067 189.928 163.811L188.925 163.092C188.752 162.97 188.517 162.807 188.217 162.613C187.855 162.368 187.611 162.205 187.494 162.118C187.056 161.822 186.725 161.715 186.501 161.797C186.343 161.863 186.104 162.113 185.788 162.557L184.215 164.755C183.762 165.393 183.543 165.898 183.563 166.27C183.583 166.642 183.848 167.015 184.367 167.382C184.53 167.499 184.775 167.662 185.106 167.871C185.437 168.081 185.681 168.249 185.844 168.361C186.328 168.708 186.435 169.075 186.16 169.458C185.87 169.861 185.477 169.886 184.984 169.534C184.79 169.396 184.5 169.177 184.113 168.871C183.726 168.57 183.436 168.351 183.242 168.208C183.089 168.101 182.86 167.948 182.555 167.754C182.249 167.56 182.02 167.407 181.867 167.3C181.363 166.938 181.287 166.51 181.638 166.01C181.725 165.892 181.867 165.709 182.076 165.469C182.178 165.347 182.356 165.112 182.601 164.77C182.545 164.847 182.855 164.434 183.532 163.531C184.21 162.628 184.785 161.843 185.264 161.175C185.987 160.16 186.664 159.145 187.295 158.13C187.326 158.089 187.356 158.033 187.382 157.971C187.423 157.915 187.443 157.885 187.453 157.875C187.774 157.421 188.13 157.334 188.517 157.609C188.864 157.854 188.914 158.145 188.675 158.482C188.634 158.538 188.522 158.675 188.329 158.895C188.212 158.992 188.115 159.094 188.039 159.201C187.647 159.752 187.85 160.318 188.66 160.894L195.132 165.53Z" fill="#C4C4C4"/>
<path d="M183.151 179.669L175.202 175.665L179.184 183.433C179.495 184.025 179.739 184.412 179.927 184.601C180.284 184.958 180.65 184.948 181.022 184.575C181.088 184.509 181.18 184.397 181.297 184.229C181.414 184.065 181.506 183.948 181.572 183.882C181.939 183.515 182.285 183.499 182.611 183.826C182.926 184.147 182.911 184.484 182.555 184.841C182.356 185.04 182.03 185.305 181.577 185.647C181.124 185.988 180.793 186.264 180.584 186.468C180.248 186.804 179.871 187.263 179.459 187.845C179.327 188.034 179.194 188.197 179.052 188.334C178.705 188.681 178.369 188.691 178.038 188.36C177.723 188.039 177.733 187.707 178.079 187.36C178.089 187.35 178.11 187.335 178.15 187.319L178.502 187.024L178.573 186.952C178.731 186.794 178.782 186.585 178.726 186.335C178.67 186.08 178.471 185.606 178.135 184.912L173.69 175.838C173.389 175.221 173.456 174.696 173.888 174.262C174.337 173.813 174.871 173.737 175.487 174.038L185.05 178.593C185.518 178.817 185.834 178.939 186.002 178.96C186.292 178.985 186.577 178.863 186.857 178.582C186.913 178.526 187.005 178.44 187.122 178.317C187.244 178.195 187.331 178.108 187.387 178.052C187.754 177.685 188.095 177.664 188.41 177.981C188.736 178.307 188.716 178.659 188.339 179.036C188.227 179.149 188.084 179.261 187.922 179.378C187.3 179.806 186.791 180.225 186.389 180.628C186.155 180.862 185.839 181.24 185.442 181.76C185.045 182.28 184.734 182.653 184.505 182.877C184.159 183.224 183.833 183.244 183.522 182.933C183.186 182.596 183.196 182.25 183.553 181.893C183.573 181.872 183.614 181.831 183.68 181.765C183.736 181.709 183.782 181.663 183.823 181.622C183.879 181.566 183.96 181.485 184.062 181.383C184.474 180.969 184.551 180.633 184.291 180.373C184.159 180.24 183.996 180.123 183.802 180.021L183.151 179.669Z" fill="#C4C4C4"/>
<path d="M171.633 190.752C172.203 191.553 172.758 191.752 173.308 191.364C173.461 191.257 173.563 191.165 173.624 191.089C173.771 190.931 173.909 190.813 174.026 190.727C174.168 190.625 174.321 190.594 174.489 190.625C174.657 190.655 174.8 190.752 174.907 190.9C175.177 191.277 175.085 191.629 174.632 191.951C174.622 191.961 174.535 192.012 174.377 192.109C172.687 193.149 171.898 193.634 172.004 193.557L171.842 193.675L168.038 196.562C167.962 196.618 167.697 196.832 167.233 197.209C167.07 197.342 166.918 197.459 166.78 197.561C166.22 197.959 165.767 197.913 165.411 197.413C165.349 197.327 165.166 197.041 164.871 196.556C164.647 196.194 164.433 195.868 164.224 195.577C163.954 195.2 163.756 194.94 163.633 194.802C163.374 194.516 163.19 194.297 163.084 194.144C162.793 193.736 162.839 193.394 163.221 193.119C163.603 192.843 164 192.996 164.407 193.568L165.008 194.409C165.655 195.317 166.225 195.715 166.714 195.608C167.081 195.526 167.844 195.072 169.005 194.241C169.769 193.695 170.212 193.353 170.329 193.221C170.706 192.772 170.711 192.282 170.334 191.752L169.815 191.022C169.754 190.936 169.667 190.818 169.56 190.665C169.453 190.512 169.377 190.405 169.331 190.344L169.184 190.135C168.878 189.701 168.603 189.523 168.369 189.594C168.277 189.625 168.145 189.707 167.962 189.834L167.31 190.303C166.638 190.783 166.47 191.252 166.801 191.716C166.892 191.844 167.025 192.002 167.198 192.19C167.371 192.374 167.513 192.553 167.631 192.711C167.936 193.144 167.9 193.496 167.519 193.766C167.137 194.042 166.78 193.945 166.449 193.481C166.388 193.394 166.184 193.037 165.838 192.405C165.543 191.864 165.263 191.405 164.993 191.028C164.84 190.813 164.545 190.441 164.112 189.926C164.041 189.849 163.878 189.676 163.628 189.416C163.425 189.202 163.277 189.023 163.175 188.885C162.9 188.498 162.956 188.161 163.343 187.886C163.72 187.615 164.071 187.707 164.392 188.161C164.479 188.278 164.586 188.462 164.723 188.707C164.856 188.952 164.968 189.135 165.054 189.253C165.385 189.717 165.859 189.732 166.47 189.288L167.198 188.768C167.508 188.544 167.661 188.355 167.656 188.197C167.651 188.039 167.519 187.784 167.264 187.427L166.551 186.422C166.429 186.248 166.256 186.019 166.042 185.738C165.777 185.392 165.604 185.157 165.517 185.04C165.202 184.616 164.922 184.407 164.682 184.412C164.509 184.422 164.204 184.586 163.761 184.902L161.561 186.473C160.925 186.927 160.558 187.335 160.451 187.692C160.349 188.049 160.482 188.488 160.853 189.008C160.97 189.171 161.149 189.406 161.388 189.712C161.632 190.018 161.811 190.252 161.928 190.415C162.274 190.9 162.254 191.283 161.872 191.553C161.469 191.844 161.088 191.737 160.736 191.242C160.599 191.048 160.395 190.742 160.125 190.334C159.855 189.921 159.652 189.62 159.514 189.426C159.407 189.273 159.239 189.059 159.01 188.773C158.781 188.488 158.613 188.268 158.506 188.12C158.144 187.61 158.211 187.182 158.71 186.83C158.827 186.743 159.025 186.621 159.3 186.458C159.438 186.376 159.677 186.213 160.023 185.968C159.947 186.024 160.375 185.733 161.306 185.101C162.238 184.468 163.038 183.912 163.705 183.433C164.718 182.709 165.685 181.969 166.612 181.209C166.653 181.179 166.699 181.138 166.745 181.087C166.801 181.046 166.831 181.026 166.841 181.015C167.295 180.694 167.661 180.725 167.936 181.112C168.18 181.459 168.14 181.75 167.804 181.99C167.748 182.03 167.595 182.122 167.345 182.27C167.203 182.321 167.081 182.387 166.974 182.464C166.424 182.857 166.439 183.458 167.014 184.269L171.633 190.752Z" fill="#C4C4C4"/>
<path d="M155.746 202.83L146.118 195.139L149.595 202.356C150.043 203.289 150.298 203.799 150.354 203.886C150.761 204.457 151.209 204.62 151.698 204.386C151.795 204.34 151.927 204.253 152.106 204.136C152.284 204.013 152.416 203.932 152.513 203.886C152.666 203.809 152.829 203.804 152.997 203.86C153.165 203.916 153.287 204.024 153.358 204.182C153.567 204.61 153.399 204.957 152.864 205.217C152.757 205.268 152.676 205.299 152.625 205.314L151.769 205.594C151.388 205.722 151.041 205.86 150.736 206.008C150.43 206.156 150.028 206.39 149.549 206.701C149.381 206.808 149.188 206.936 148.964 207.084C148.938 207.094 148.903 207.12 148.847 207.16C148.801 207.181 148.755 207.201 148.719 207.222C148.205 207.471 147.849 207.39 147.65 206.977C147.457 206.579 147.604 206.258 148.088 206.023C148.175 205.982 148.241 205.951 148.287 205.926L148.47 205.839C148.837 205.661 149.035 205.472 149.066 205.263C149.101 205.054 149.005 204.682 148.775 204.146L148.287 203.126L145.104 196.526C144.707 195.705 144.524 195.077 144.544 194.654C144.57 194.231 144.809 193.909 145.262 193.69C145.848 193.404 146.55 193.583 147.36 194.22L156.775 201.708L152.762 193.379C152.33 192.481 151.81 192.18 151.204 192.476C151.108 192.522 150.97 192.598 150.787 192.711C150.603 192.823 150.466 192.899 150.369 192.945C149.987 193.129 149.702 193.032 149.519 192.65C149.325 192.241 149.493 191.91 150.028 191.65C150.054 191.64 150.089 191.619 150.135 191.599C150.201 191.584 150.247 191.568 150.267 191.558L151.052 191.313C151.484 191.175 151.882 191.022 152.238 190.849C152.549 190.701 152.936 190.477 153.394 190.181L154.219 189.65C154.244 189.64 154.28 189.615 154.336 189.574C154.397 189.543 154.443 189.523 154.478 189.503C154.993 189.253 155.349 189.339 155.548 189.758C155.726 190.13 155.624 190.405 155.242 190.589C155.181 190.62 155.018 190.686 154.743 190.788C154.595 190.813 154.463 190.859 154.341 190.915C153.735 191.211 153.643 191.803 154.076 192.701L154.682 193.955L155.441 195.531L157.549 199.902C157.982 200.8 158.506 201.096 159.117 200.8C159.198 200.759 159.311 200.693 159.453 200.591C159.662 200.448 159.82 200.346 159.927 200.295C160.303 200.111 160.589 200.219 160.777 200.611C160.981 201.03 160.823 201.361 160.314 201.611C160.242 201.647 160.146 201.688 160.018 201.733C159.392 201.963 158.924 202.152 158.603 202.31C158.425 202.396 158.165 202.544 157.824 202.754C157.483 202.963 157.223 203.111 157.045 203.197C156.678 203.376 156.373 203.366 156.133 203.177L155.746 202.83Z" fill="#C4C4C4"/>
<path d="M134.32 200.657C134.045 199.703 133.581 199.321 132.93 199.51C132.828 199.54 132.68 199.601 132.487 199.688C132.293 199.78 132.146 199.841 132.044 199.867C131.881 199.913 131.718 199.897 131.56 199.811C131.402 199.724 131.3 199.596 131.254 199.433C131.127 198.989 131.346 198.683 131.916 198.515C131.942 198.51 131.977 198.495 132.028 198.479C132.095 198.474 132.14 198.469 132.166 198.459L133.138 198.321C133.51 198.27 133.917 198.178 134.36 198.046C134.844 197.903 135.262 197.755 135.618 197.597L136.535 197.184C136.575 197.174 136.616 197.153 136.662 197.128C136.728 197.107 136.769 197.097 136.794 197.087C137.354 196.924 137.696 197.066 137.828 197.51C137.945 197.918 137.803 198.178 137.395 198.301C137.293 198.331 137.136 198.357 136.922 198.388C136.708 198.413 136.55 198.444 136.448 198.474C135.812 198.658 135.633 199.229 135.908 200.183L136.784 203.202L137.258 204.824L138.159 207.936C138.419 208.838 139.014 209.155 139.946 208.884L140.537 208.711C141.453 208.446 141.779 207.864 141.52 206.972C141.428 206.655 141.357 206.441 141.311 206.329L141.031 205.645C140.985 205.533 140.934 205.375 140.873 205.171C140.639 204.37 140.771 203.896 141.265 203.753C141.733 203.615 142.054 203.84 142.227 204.426C142.273 204.59 142.344 204.88 142.441 205.299C142.579 205.921 142.675 206.314 142.721 206.482C142.813 206.798 142.92 207.13 143.042 207.466C143.281 208.129 143.383 208.41 143.353 208.308C143.505 208.843 143.342 209.18 142.864 209.323C142.686 209.374 142.268 209.476 141.611 209.624C141.55 209.644 141.021 209.767 140.028 210.001L137.859 210.634C137.604 210.71 136.927 210.914 135.832 211.261C135.593 211.332 135.185 211.47 134.61 211.669C134.101 211.853 133.699 211.99 133.408 212.072C132.772 212.256 132.38 212.087 132.227 211.567L132.217 211.526C132.181 211.399 132.13 211.159 132.059 210.807C131.993 210.455 131.916 210.073 131.84 209.67L131.779 209.461C131.723 209.272 131.616 208.976 131.463 208.578C131.26 208.058 131.137 207.737 131.097 207.609C130.944 207.089 131.117 206.752 131.611 206.609C132.095 206.467 132.431 206.717 132.614 207.359C132.68 207.589 132.762 207.936 132.853 208.4C132.945 208.864 133.026 209.211 133.093 209.44C133.347 210.323 133.979 210.618 134.982 210.328L135.516 210.175C135.985 210.037 136.295 209.843 136.443 209.583C136.591 209.328 136.611 208.966 136.499 208.502L136.188 207.14L134.32 200.657Z" fill="#C4C4C4"/>
<path d="M122.69 214.362C121.402 214.536 120.297 214.265 119.375 213.546L119.411 213.821C119.482 214.332 119.309 214.617 118.907 214.673C118.459 214.734 118.199 214.479 118.123 213.918L118.107 213.801C118.102 213.776 118.097 213.577 118.087 213.204C118.077 212.832 118.036 212.388 117.97 211.873C117.96 211.807 117.919 211.598 117.848 211.246L117.68 210.465C117.659 210.399 117.639 210.312 117.624 210.19C117.537 209.557 117.741 209.211 118.224 209.144C118.734 209.073 119.029 209.302 119.1 209.828L119.115 209.925L119.146 210.46C119.156 210.644 119.172 210.792 119.187 210.899C119.294 211.689 119.64 212.271 120.236 212.643C120.826 213.016 121.59 213.143 122.522 213.016C123.372 212.898 124.024 212.597 124.472 212.108C124.92 211.618 125.098 211.021 125.002 210.312C124.89 209.486 124.431 208.925 123.632 208.629C123.184 208.476 122.425 208.384 121.351 208.354C119.757 208.313 118.642 208.119 118.005 207.762C117.053 207.237 116.498 206.38 116.335 205.197C116.167 203.962 116.473 202.896 117.252 201.999C118.031 201.101 119.121 200.56 120.521 200.372C122.013 200.168 123.316 200.474 124.421 201.29C124.416 201.239 124.406 201.177 124.396 201.116C124.386 201.05 124.38 201.014 124.38 200.999C124.299 200.8 124.253 200.667 124.248 200.601C124.182 200.122 124.396 199.846 124.879 199.785C125.404 199.714 125.704 199.953 125.781 200.504C125.791 200.57 125.776 200.627 125.745 200.667L125.791 201.703C125.816 202.223 125.837 202.555 125.857 202.697C125.893 202.963 125.984 203.35 126.127 203.865C126.27 204.381 126.361 204.768 126.397 205.033C126.478 205.625 126.27 205.957 125.771 206.023C125.261 206.094 124.961 205.829 124.885 205.237L124.839 204.88C124.823 204.773 124.803 204.625 124.778 204.426C124.645 203.437 124.223 202.692 123.52 202.198C122.817 201.703 121.926 201.529 120.852 201.672C119.859 201.805 119.1 202.152 118.576 202.702C118.051 203.253 117.843 203.937 117.955 204.753C118.123 206.002 119.014 206.655 120.623 206.722L121.768 206.768C122.909 206.813 123.805 206.926 124.462 207.104C125.058 207.278 125.562 207.609 125.969 208.094C126.376 208.578 126.626 209.16 126.713 209.828C126.87 210.986 126.575 211.98 125.832 212.817C125.068 213.668 124.029 214.178 122.69 214.362Z" fill="#C4C4C4"/>
<path d="M83.1212 210.542L82.831 200.025L76.7615 209.476C76.4509 209.966 76.0894 210.159 75.677 210.042L75.5802 210.017C75.4529 209.981 75.29 209.915 75.0965 209.823C74.8572 209.69 74.6993 209.608 74.623 209.588C74.4244 209.506 74.1494 209.415 73.793 209.318C73.4111 209.211 73.1056 209.149 72.8764 209.129L72.1738 209.058C72.133 209.058 72.0516 209.047 71.9396 209.012C71.354 208.849 71.1198 208.548 71.242 208.099C71.354 207.691 71.6137 207.543 72.021 207.655C72.1229 207.686 72.2705 207.742 72.4589 207.828C72.6473 207.915 72.795 207.971 72.8968 208.002C73.5486 208.18 74.0068 207.793 74.2665 206.834L74.6331 205.492L76.3745 199.142C76.6393 198.183 76.4509 197.617 75.8094 197.439C75.6821 197.403 75.5344 197.383 75.3715 197.383C75.0812 197.332 74.9132 197.296 74.8623 197.286C74.4549 197.174 74.3073 196.913 74.4193 196.505C74.5466 196.046 74.8826 195.888 75.4326 196.041C75.4071 196.036 75.4988 196.072 75.7075 196.159C76.563 196.505 77.2911 196.76 77.9072 196.929C78.508 197.092 79.0936 197.209 79.669 197.27C79.9083 197.296 80.1171 197.332 80.2953 197.383C80.7943 197.52 80.9827 197.801 80.8656 198.229C80.7434 198.673 80.4277 198.821 79.9134 198.678C79.7861 198.643 79.6893 198.607 79.6333 198.571C79.3584 198.459 79.1954 198.398 79.1445 198.382C78.6812 198.255 78.2585 198.653 77.8817 199.581C77.8003 199.78 77.6068 200.428 77.3064 201.524C77.1892 201.948 77.011 202.555 76.7615 203.35L75.3562 208.466C75.3358 208.543 75.3562 208.588 75.4224 208.609C75.4631 208.619 75.5089 208.594 75.57 208.527L82.0927 198.561C82.3778 198.117 82.8005 197.974 83.3657 198.127C83.6966 198.219 83.9309 198.336 84.0632 198.474C84.1956 198.612 84.2669 198.841 84.2771 199.163L84.7455 211.052C84.7608 211.139 84.7965 211.19 84.8474 211.205C84.8983 211.22 84.9339 211.19 84.9543 211.113L87.2711 202.213C87.5104 201.279 87.3831 200.744 86.8892 200.611C86.7466 200.57 86.5582 200.519 86.3138 200.453L86.0847 200.392C85.5857 200.254 85.3973 199.969 85.5144 199.535C85.6315 199.102 85.9472 198.954 86.4615 199.091C86.5531 199.117 86.6804 199.168 86.8536 199.239C87.1234 199.357 87.4137 199.484 87.7192 199.622C87.9636 199.729 88.2844 199.841 88.6815 199.948C89.3842 200.142 89.8425 200.249 90.0563 200.264L90.9016 200.331C90.927 200.336 90.9678 200.341 91.0238 200.341C91.0747 200.356 91.1154 200.366 91.1409 200.372C91.7265 200.535 91.9607 200.836 91.8385 201.285C91.7876 201.463 91.6908 201.596 91.5432 201.687C91.3955 201.779 91.2376 201.8 91.0696 201.754C90.927 201.713 90.7692 201.652 90.5859 201.56C90.4026 201.468 90.2702 201.412 90.1785 201.387C89.5268 201.208 89.0685 201.596 88.8088 202.555L86.6957 210.266C86.4309 211.225 86.6295 211.797 87.2762 211.975C87.378 212.006 87.5359 212.031 87.7497 212.052C87.9636 212.077 88.1214 212.103 88.2233 212.128C88.6204 212.235 88.763 212.495 88.6459 212.903C88.5237 213.352 88.1724 213.495 87.6021 213.337C87.5512 213.322 87.4697 213.291 87.3577 213.25L86.7059 212.99C86.3851 212.863 86.0796 212.755 85.7843 212.674C85.5399 212.608 85.2038 212.541 84.7761 212.48C84.3484 212.419 84.0378 212.358 83.8443 212.307C83.3453 212.169 83.1009 211.766 83.106 211.093L83.1212 210.542Z" fill="#C4C4C4"/>
<path d="M60.0297 196.837C60.4575 196.842 60.9666 196.919 61.5573 197.066C60.931 196.592 60.5797 196.092 60.5135 195.567C60.4422 195.047 60.6357 194.333 61.0838 193.435L61.4911 192.619C61.5166 192.573 61.5522 192.502 61.598 192.405C62.0207 191.553 61.9646 190.992 61.4249 190.722C60.875 190.446 60.3454 190.813 59.8413 191.823L59.2354 193.037C59.0674 193.379 58.9248 193.603 58.8128 193.705C58.6193 193.858 58.3851 193.863 58.1101 193.731C57.6824 193.517 57.5958 193.16 57.8453 192.665C57.8504 192.655 57.9217 192.527 58.0592 192.282L58.2476 191.91C58.3698 191.66 58.4513 191.502 58.4869 191.43L58.7109 190.987C58.7568 190.92 58.8179 190.818 58.8892 190.676C59.2303 189.987 59.6937 189.548 60.2691 189.355C60.8444 189.161 61.4809 189.237 62.1632 189.579C63.5584 190.278 63.9097 191.334 63.202 192.746L62.6368 193.889L62.4433 194.282C62.0461 195.077 61.9341 195.674 62.1072 196.082C62.2803 196.485 62.8404 196.929 63.7824 197.398L65.4271 198.219C65.8039 198.408 66.1094 198.27 66.3385 197.806L67.0208 196.434C67.4587 195.557 67.6981 195.052 67.7286 194.919C67.917 194.271 67.7693 193.828 67.2856 193.583C67.1176 193.501 66.9903 193.445 66.9037 193.42C66.6899 193.338 66.532 193.272 66.4251 193.221C66.0483 193.032 65.9566 192.741 66.1501 192.349C66.3589 191.935 66.7153 191.854 67.2245 192.109L67.474 192.277L68.3702 192.884C68.7113 193.114 69.027 193.302 69.3122 193.445C69.6686 193.624 70.0963 193.802 70.6004 193.976L71.5068 194.297C71.7104 194.368 71.8021 194.399 71.7919 194.394C72.3011 194.649 72.4487 194.991 72.2349 195.419C72.0465 195.796 71.7664 195.898 71.3998 195.715C71.3387 195.684 71.186 195.592 70.9365 195.439C70.8245 195.337 70.7073 195.261 70.5902 195.2C69.9843 194.899 69.4649 195.19 69.0168 196.082L65.4576 203.218C65.0146 204.105 65.0961 204.702 65.697 205.008C65.7937 205.054 65.9414 205.11 66.1451 205.176C66.3487 205.243 66.5015 205.299 66.5931 205.345C66.7459 205.421 66.8477 205.543 66.8986 205.707C66.9496 205.875 66.9343 206.033 66.8579 206.186C66.6491 206.599 66.2876 206.681 65.7632 206.416C65.7173 206.39 65.6359 206.344 65.5238 206.273L64.6633 205.732C64.4393 205.589 64.149 205.431 63.7926 205.253C63.426 205.069 63.0085 204.875 62.5502 204.676L61.1652 204.075C60.7019 203.87 60.2843 203.677 59.9024 203.488C57.2954 202.182 56.4909 200.54 57.4787 198.551C58.0694 197.383 58.9146 196.811 60.0297 196.837ZM64.8772 199.438L63.2071 198.602C62.2141 198.102 61.3944 197.872 60.7579 197.908C59.9839 197.949 59.3933 198.372 58.991 199.183C58.3189 200.535 58.9044 201.677 60.763 202.6C61.7508 203.095 62.4535 203.355 62.8812 203.381C63.3038 203.406 63.6348 203.202 63.8639 202.774L65.1674 200.157C65.2692 199.953 65.2947 199.811 65.254 199.724C65.2132 199.637 65.0808 199.54 64.8772 199.438Z" fill="#C4C4C4"/>
<path d="M50.0956 194.577C49.5456 195.388 49.5456 195.985 50.1006 196.368C50.2534 196.475 50.3756 196.541 50.4673 196.572C50.6658 196.658 50.8237 196.745 50.9459 196.827C51.0885 196.924 51.175 197.056 51.2005 197.23C51.2259 197.403 51.1903 197.561 51.0834 197.714C50.8237 198.097 50.452 198.122 49.9683 197.796C49.9021 197.75 49.8308 197.694 49.7493 197.622L48.9601 196.913C48.6647 196.643 48.3389 196.393 47.9875 196.154C47.6464 195.924 47.2594 195.694 46.8164 195.475L46.0119 195.067C45.9151 195.016 45.8388 194.97 45.7726 194.924C45.2939 194.593 45.1819 194.241 45.4416 193.853C45.5485 193.7 45.6809 193.603 45.854 193.568C46.0221 193.532 46.1799 193.562 46.3225 193.659C46.4294 193.736 46.5669 193.853 46.7298 194.011C46.7909 194.088 46.8979 194.175 47.0506 194.282C47.6056 194.664 48.1657 194.45 48.7157 193.639L53.2067 187.054C53.7668 186.233 53.7668 185.631 53.2118 185.249C53.1252 185.188 53.003 185.121 52.8451 185.045C52.616 184.938 52.4582 184.851 52.3665 184.79C52.0254 184.56 51.9795 184.264 52.2188 183.918C52.4887 183.525 52.8604 183.489 53.3442 183.821C53.3645 183.836 53.4052 183.861 53.4613 183.897C53.4969 183.938 53.5325 183.969 53.5631 183.994L54.3269 184.708C54.5815 184.948 54.8666 185.172 55.1823 185.392C55.6406 185.708 56.0683 185.958 56.4705 186.152L57.3005 186.554C57.3209 186.57 57.3667 186.59 57.4278 186.616C57.4838 186.651 57.5246 186.682 57.5602 186.707C58.0286 187.029 58.1305 187.386 57.8606 187.779C57.6213 188.13 57.3311 188.187 56.995 187.957C56.939 187.921 56.8015 187.809 56.5724 187.62C56.4756 187.503 56.3687 187.411 56.2618 187.335C55.7068 186.952 55.1467 187.172 54.5866 187.993L50.0956 194.577Z" fill="#C4C4C4"/>
<path d="M43.303 180.908C43.2674 180.949 43.1808 181.041 43.0484 181.189C42.916 181.357 42.7989 181.495 42.7022 181.602L41.4598 188.737C41.3783 189.202 41.3427 189.482 41.3478 189.574C41.363 189.854 41.4751 190.094 41.694 190.288C41.8111 190.395 41.918 190.456 42.0097 190.466C42.0403 190.492 42.081 190.533 42.1421 190.589C42.2083 190.65 42.2592 190.696 42.2897 190.722C42.7429 191.13 42.8142 191.507 42.5036 191.854C42.1828 192.206 41.8264 192.206 41.4343 191.854C41.2765 191.711 41.0983 191.512 40.8997 191.262C40.4974 190.757 40.0952 190.319 39.6776 189.946C39.3721 189.671 38.8782 189.304 38.1857 188.839C37.9515 188.681 37.7631 188.539 37.6154 188.406C37.2132 188.044 37.1623 187.692 37.4627 187.355C37.758 187.029 38.145 187.085 38.6236 187.524L38.7713 187.656L39.1379 187.988L39.4332 188.253C39.5402 188.37 39.6369 188.386 39.7184 188.294C39.754 188.253 39.7744 188.222 39.7795 188.197C39.7846 188.171 39.7947 188.11 39.8202 188.003L41.027 182.127L35.2834 183.897C35.1612 183.933 35.0695 183.989 34.9982 184.065C34.9168 184.152 34.9422 184.254 35.0695 184.371L35.1001 184.397L35.4056 184.591L35.818 184.902C36.0013 185.04 36.1337 185.147 36.2203 185.223C36.6225 185.585 36.6684 185.942 36.3527 186.294C36.037 186.641 35.6856 186.641 35.2936 186.284C35.1459 186.152 34.983 185.978 34.8047 185.759C34.3261 185.182 33.8831 184.713 33.4809 184.346C33.0582 183.963 32.5541 183.581 31.9737 183.198C31.7496 183.05 31.5714 182.913 31.4339 182.79C31.0622 182.454 31.0317 182.112 31.3423 181.765C31.6274 181.449 31.9482 181.459 32.3148 181.786C32.4625 181.918 32.5643 182.03 32.6254 182.122C32.7629 182.285 32.8647 182.392 32.9208 182.443C33.1754 182.673 33.491 182.744 33.8577 182.647L34.3872 182.51L41.4038 180.577L41.9639 179.96C42.8702 178.955 43.3896 178.292 43.5322 177.97C43.6696 177.649 43.5729 177.338 43.2368 177.037C43.1605 176.966 43.0281 176.869 42.8448 176.746C42.6615 176.624 42.5291 176.527 42.4527 176.456C42.1472 176.18 42.137 175.884 42.4221 175.568C42.7429 175.216 43.1248 175.237 43.5627 175.639C43.5729 175.65 43.6035 175.675 43.6493 175.721C43.6798 175.767 43.7104 175.803 43.7409 175.828L44.4589 176.665C44.7287 176.981 45.0088 177.272 45.3041 177.537C45.6198 177.822 45.9355 178.072 46.2563 178.292L47.1015 178.868C47.1219 178.888 47.1576 178.909 47.2034 178.934C47.2543 178.98 47.2849 179.011 47.3052 179.026C47.7482 179.424 47.8144 179.796 47.5038 180.143C47.2085 180.47 46.9081 180.49 46.5924 180.204C46.516 180.133 46.4091 180.016 46.2818 179.852C46.1545 179.689 46.0475 179.572 45.9661 179.501C45.5536 179.128 45.0699 179.164 44.5047 179.608C44.4029 179.699 44.0057 180.128 43.303 180.908Z" fill="#C4C4C4"/>
<path d="M31.3525 165.423L30.2781 167.198C30.161 167.392 30.1101 167.54 30.1253 167.642C30.1355 167.744 30.2272 167.897 30.3901 168.101L32.5949 170.865C32.7629 171.075 32.9106 171.187 33.043 171.207C33.1754 171.228 33.4554 171.171 33.8729 171.039L35.4259 170.534C35.5736 170.483 35.6958 170.417 35.8027 170.335C36.1337 170.07 36.1388 169.733 35.8129 169.33C35.7315 169.228 35.6042 169.085 35.431 168.912C35.2579 168.739 35.1357 168.601 35.0593 168.509C34.7182 168.086 34.7335 167.729 35.095 167.438C35.4361 167.163 35.7926 167.259 36.1643 167.729C36.2305 167.81 36.3119 167.933 36.4087 168.096L36.9331 168.948C37.0299 169.106 37.2132 169.356 37.478 169.682C37.7682 170.044 37.977 170.289 38.1093 170.422L38.7051 171.013C38.9699 171.279 39.1583 171.472 39.2652 171.61C39.586 172.013 39.5758 172.355 39.2346 172.625C38.8731 172.916 38.532 172.865 38.2214 172.467C38.1552 172.385 38.1246 172.304 38.1348 172.232L37.9719 172.028C37.7478 171.748 37.4729 171.625 37.1368 171.651C37.0044 171.656 36.6785 171.748 36.1592 171.926L26.0264 175.303C25.4561 175.486 24.9826 175.333 24.5905 174.849C24.2086 174.375 24.173 173.885 24.4836 173.38L29.9573 164.439C30.3036 163.873 30.497 163.454 30.5327 163.189C30.5734 162.919 30.4869 162.649 30.2679 162.383C30.2017 162.302 30.1457 162.246 30.0999 162.215L29.7129 161.812C29.3972 161.419 29.4125 161.083 29.7536 160.812C30.1152 160.522 30.4563 160.573 30.7669 160.965C30.8586 161.078 30.9655 161.241 31.0928 161.445C31.5358 162.164 31.882 162.679 32.1366 163.001C32.4421 163.383 32.9819 163.97 33.7507 164.765C33.9442 164.964 34.0868 165.122 34.1784 165.24C34.5094 165.653 34.4992 166 34.1479 166.285C33.7966 166.566 33.4401 166.479 33.0735 166.025C32.9971 165.933 32.9004 165.785 32.7782 165.586C32.656 165.388 32.5541 165.245 32.4829 165.148C32.2079 164.806 31.9329 164.745 31.6529 164.969C31.6122 165.01 31.5103 165.158 31.3525 165.423ZM29.0764 169.08L25.9093 173.905L31.3321 171.906C31.4085 171.875 31.4543 171.86 31.4645 171.85C31.5561 171.773 31.5409 171.661 31.4187 171.503L29.4481 169.034C29.3514 168.912 29.2597 168.881 29.1732 168.948C29.1579 168.963 29.1222 169.009 29.0764 169.08Z" fill="#C4C4C4"/>
<path d="M15.028 154.957C14.137 155.37 13.8365 155.88 14.1166 156.497C14.193 156.666 14.2642 156.788 14.3254 156.86C14.4526 157.038 14.5443 157.191 14.6054 157.324C14.6767 157.482 14.6818 157.64 14.6156 157.798C14.5494 157.961 14.4374 158.079 14.2693 158.155C13.8467 158.349 13.5208 158.196 13.2917 157.691C13.2866 157.681 13.251 157.584 13.1848 157.416C12.477 155.559 12.146 154.692 12.2021 154.814L12.1206 154.636L9.99219 150.356C9.95146 150.27 9.79361 149.969 9.50847 149.444C9.40663 149.255 9.32007 149.086 9.24879 148.928C8.95855 148.306 9.09603 147.862 9.64595 147.607C9.74269 147.561 10.0584 147.439 10.5879 147.235C10.9851 147.082 11.3466 146.929 11.6674 146.781C12.09 146.587 12.3803 146.439 12.5381 146.342C12.8691 146.138 13.1186 146.001 13.2866 145.924C13.7449 145.715 14.0708 145.822 14.2693 146.251C14.4679 146.679 14.249 147.041 13.6125 147.332L12.6756 147.765C11.6674 148.235 11.1684 148.719 11.1837 149.224C11.1939 149.596 11.4994 150.438 12.1002 151.734C12.4923 152.59 12.7469 153.085 12.8538 153.223C13.2255 153.682 13.7041 153.774 14.2948 153.498L15.1044 153.121C15.2012 153.075 15.3335 153.014 15.5016 152.937C15.6696 152.861 15.7918 152.805 15.8631 152.769L16.0973 152.662C16.5759 152.437 16.8051 152.203 16.7796 151.958C16.7643 151.861 16.7134 151.713 16.6167 151.514L16.2755 150.79C15.9293 150.04 15.5016 149.785 14.9822 150.025C14.8396 150.091 14.6614 150.193 14.4425 150.331C14.2286 150.469 14.03 150.576 13.8518 150.657C13.3732 150.882 13.032 150.78 12.8334 150.351C12.6349 149.923 12.7978 149.591 13.3121 149.352C13.4088 149.306 13.8009 149.173 14.4832 148.949C15.0688 148.76 15.5678 148.566 15.9904 148.372C16.2297 148.26 16.6472 148.041 17.2379 147.709C17.3295 147.653 17.523 147.526 17.8285 147.327C18.078 147.169 18.2766 147.051 18.4345 146.98C18.8673 146.781 19.183 146.898 19.3816 147.332C19.575 147.755 19.4223 148.082 18.9182 148.316C18.7858 148.378 18.5872 148.454 18.3225 148.541C18.0577 148.627 17.8591 148.699 17.7267 148.765C17.2124 149.005 17.1106 149.469 17.4263 150.152L17.8031 150.963C17.966 151.315 18.1239 151.499 18.2766 151.519C18.4345 151.54 18.7094 151.463 19.1066 151.28L20.2268 150.765C20.4203 150.678 20.6749 150.55 20.9957 150.387C21.3877 150.193 21.6474 150.061 21.7798 149.999C22.2534 149.765 22.513 149.53 22.5487 149.296C22.5741 149.122 22.4672 148.791 22.2432 148.296L21.1128 145.843C20.7869 145.134 20.4559 144.695 20.125 144.527C19.794 144.358 19.3357 144.409 18.7603 144.675C18.5821 144.756 18.3174 144.889 17.9711 145.072C17.6249 145.256 17.3601 145.389 17.1819 145.47C16.6421 145.72 16.2704 145.633 16.0769 145.205C15.8682 144.756 16.0413 144.399 16.5963 144.144C16.8102 144.042 17.1462 143.899 17.5994 143.711C18.0526 143.522 18.3886 143.379 18.6025 143.277C18.7705 143.201 19.0149 143.073 19.3357 142.905C19.6565 142.731 19.906 142.609 20.074 142.532C20.6392 142.272 21.0517 142.415 21.3063 142.971C21.3674 143.104 21.4539 143.318 21.5609 143.619C21.6169 143.767 21.7289 144.037 21.9071 144.42C21.8664 144.333 22.0751 144.812 22.5232 145.843C22.9713 146.878 23.3685 147.765 23.7096 148.515C24.229 149.648 24.7789 150.739 25.3492 151.79C25.3696 151.836 25.4001 151.892 25.4408 151.943C25.4663 152.004 25.4867 152.04 25.4918 152.05C25.726 152.555 25.6242 152.907 25.1913 153.111C24.8095 153.289 24.5294 153.192 24.3563 152.82C24.3308 152.759 24.2646 152.59 24.1679 152.315C24.1424 152.167 24.1017 152.029 24.0457 151.912C23.7605 151.3 23.1699 151.198 22.2686 151.616L15.028 154.957Z" fill="#C4C4C4"/>
<path d="M8.68359 137.519L16.0973 132.592L7.39026 132.204C6.72323 132.178 6.26496 132.204 6.01037 132.27C5.52664 132.403 5.35352 132.724 5.491 133.234C5.51646 133.326 5.56738 133.459 5.65394 133.642C5.7405 133.826 5.79142 133.964 5.81688 134.05C5.95436 134.55 5.79651 134.861 5.34843 134.984C4.91562 135.101 4.63048 134.917 4.49809 134.433C4.42681 134.163 4.35043 133.749 4.28423 133.183C4.21295 132.617 4.13657 132.194 4.06019 131.913C3.9329 131.454 3.72413 130.898 3.42371 130.25C3.32697 130.041 3.25059 129.842 3.19967 129.654C3.07238 129.179 3.23022 128.884 3.6783 128.761C4.11111 128.644 4.39626 128.822 4.52355 129.292C4.52864 129.302 4.52864 129.332 4.52355 129.373L4.60502 129.827L4.63048 129.924C4.69158 130.143 4.84434 130.286 5.08875 130.368C5.33825 130.444 5.84234 130.511 6.61121 130.562L16.6829 131.194C17.3703 131.24 17.7929 131.556 17.9507 132.148C18.1188 132.76 17.9202 133.265 17.3499 133.652L8.66322 139.712C8.23551 140.008 7.97073 140.222 7.87398 140.36C7.70595 140.599 7.6754 140.91 7.77724 141.293C7.79761 141.369 7.83325 141.492 7.87398 141.655C7.91981 141.823 7.95036 141.941 7.97073 142.022C8.10821 142.522 7.95545 142.828 7.52265 142.951C7.07456 143.073 6.78433 142.879 6.64176 142.364C6.60102 142.211 6.57047 142.033 6.5552 141.834C6.489 141.084 6.38207 140.431 6.23441 139.88C6.14785 139.559 5.97982 139.1 5.72523 138.493C5.47063 137.891 5.3026 137.432 5.22113 137.126C5.09384 136.652 5.23641 136.361 5.65903 136.244C6.1173 136.116 6.41263 136.3 6.54501 136.784C6.55011 136.81 6.56538 136.866 6.59084 136.958C6.61121 137.034 6.63157 137.1 6.64176 137.151C6.66212 137.228 6.69268 137.335 6.72832 137.478C6.88107 138.039 7.13567 138.273 7.4921 138.177C7.67031 138.126 7.85362 138.044 8.03692 137.927L8.68359 137.519Z" fill="#C4C4C4"/>
<path d="M4.79342 121.988C3.81578 122.085 3.36261 122.472 3.43389 123.146C3.45426 123.329 3.47972 123.467 3.51536 123.559C3.57647 123.768 3.61211 123.941 3.62738 124.089C3.64266 124.263 3.59683 124.41 3.48481 124.543C3.37279 124.676 3.22513 124.747 3.03673 124.767C2.57337 124.813 2.31878 124.558 2.26277 124.007C2.26277 123.992 2.25768 123.895 2.25259 123.712C2.18639 121.728 2.16093 120.799 2.17621 120.932L2.15584 120.733L1.54482 115.995C1.53464 115.903 1.48372 115.561 1.38188 114.975C1.34624 114.765 1.32078 114.577 1.3055 114.403C1.23931 113.72 1.50409 113.348 2.11002 113.286C2.21694 113.276 2.55301 113.261 3.12329 113.24C3.54592 113.225 3.93799 113.2 4.29442 113.164C4.75777 113.118 5.07856 113.077 5.25677 113.036C5.63357 112.955 5.91362 112.904 6.10202 112.888C6.60102 112.837 6.87598 113.047 6.92181 113.516C6.96763 113.985 6.64176 114.255 5.94417 114.322L4.91562 114.419C3.81069 114.531 3.1793 114.827 3.02655 115.306C2.91453 115.663 2.9298 116.556 3.07237 117.979C3.16403 118.917 3.2404 119.468 3.29642 119.636C3.50009 120.187 3.92271 120.432 4.56938 120.371L5.46045 120.284C5.56738 120.274 5.70995 120.259 5.89326 120.243C6.07656 120.223 6.20895 120.213 6.29042 120.203L6.54501 120.177C7.07456 120.126 7.3648 119.978 7.42081 119.733C7.43608 119.641 7.43608 119.483 7.41572 119.259L7.33425 118.458C7.25278 117.637 6.9269 117.254 6.3617 117.311C6.20386 117.326 6.00018 117.362 5.75578 117.423C5.50628 117.479 5.28733 117.52 5.08874 117.54C4.55919 117.591 4.27405 117.387 4.22822 116.918C4.1824 116.449 4.44208 116.188 5.00727 116.132C5.1142 116.122 5.52664 116.122 6.24459 116.137C6.86071 116.148 7.39535 116.132 7.85871 116.086C8.12348 116.061 8.58684 115.99 9.25387 115.867C9.35571 115.842 9.58484 115.786 9.93618 115.699C10.2213 115.633 10.4505 115.587 10.6236 115.571C11.0971 115.525 11.3568 115.74 11.4077 116.214C11.4535 116.678 11.199 116.933 10.6439 116.989C10.5014 117.005 10.2875 117.01 10.0075 117.005C9.72741 116.999 9.51356 117.005 9.37098 117.02C8.80579 117.076 8.56138 117.479 8.63267 118.234L8.71923 119.126C8.75996 119.509 8.84652 119.738 8.9891 119.81C9.13167 119.881 9.41681 119.897 9.84962 119.856L11.0768 119.733C11.2855 119.713 11.5707 119.677 11.9271 119.626C12.3599 119.57 12.6501 119.534 12.7927 119.519C13.3172 119.453 13.6379 119.315 13.75 119.106C13.8263 118.953 13.8416 118.606 13.7856 118.065L13.5157 115.372C13.4394 114.592 13.2713 114.072 13.0117 113.801C12.752 113.536 12.3039 113.434 11.6725 113.495C11.4739 113.516 11.1837 113.557 10.7967 113.613C10.4097 113.669 10.1195 113.71 9.9209 113.73C9.33025 113.791 9.00946 113.582 8.96364 113.118C8.91272 112.623 9.19277 112.348 9.7987 112.287C10.038 112.261 10.3995 112.236 10.8884 112.21C11.3772 112.18 11.7387 112.154 11.978 112.134C12.1613 112.113 12.4363 112.078 12.7927 112.021C13.1542 111.965 13.4241 111.93 13.6074 111.909C14.2286 111.848 14.5647 112.118 14.6258 112.725C14.641 112.868 14.6512 113.103 14.6563 113.424C14.6563 113.582 14.6818 113.873 14.7225 114.296C14.7123 114.204 14.7531 114.72 14.8345 115.847C14.9211 116.969 15.0026 117.943 15.084 118.759C15.2062 119.999 15.3692 121.207 15.5627 122.391C15.5678 122.442 15.583 122.503 15.5983 122.569C15.6034 122.635 15.6085 122.676 15.6085 122.686C15.6645 123.242 15.4557 123.543 14.9822 123.589C14.5596 123.63 14.3304 123.446 14.2897 123.038C14.2846 122.972 14.2795 122.794 14.2744 122.498C14.2999 122.35 14.305 122.207 14.2948 122.074C14.2286 121.401 13.699 121.116 12.7112 121.212L4.79342 121.988Z" fill="#C4C4C4"/>
<path d="M2.21185 102.193L13.6481 97.6228L5.66922 97.077C4.64066 97.0056 4.07038 96.975 3.96345 96.9801C3.27096 97.0515 2.90434 97.3576 2.86361 97.9033C2.85852 98.0104 2.86361 98.1685 2.87888 98.3828C2.89925 98.597 2.90434 98.7551 2.89416 98.8622C2.88398 99.0356 2.8076 99.1784 2.67521 99.2958C2.54282 99.4131 2.39007 99.4641 2.21694 99.4539C1.7434 99.4233 1.52445 99.107 1.56519 98.5103C1.57537 98.393 1.58556 98.3063 1.60083 98.2553L1.77905 97.3678C1.86052 96.975 1.91143 96.6078 1.9318 96.261C1.95726 95.9192 1.95217 95.4602 1.91653 94.8839C1.90634 94.6849 1.89107 94.4503 1.87579 94.1851C1.87579 94.1596 1.87579 94.1137 1.86561 94.0474C1.8707 93.9964 1.8707 93.9505 1.87579 93.9097C1.91653 93.3384 2.16093 93.0732 2.6192 93.1038C3.06219 93.1344 3.26586 93.42 3.23022 93.9556C3.22513 94.0525 3.22004 94.1239 3.21495 94.18L3.19967 94.384C3.17421 94.7869 3.24041 95.0573 3.40334 95.1899C3.56628 95.3225 3.93799 95.4245 4.51337 95.4908L7.65503 95.705L12.9455 96.057C13.8569 96.1182 14.4883 96.2661 14.8447 96.4956C15.2011 96.7251 15.359 97.0975 15.3233 97.6024C15.2775 98.2553 14.7785 98.7755 13.8213 99.1631L2.66503 103.646L11.8762 104.279C12.8691 104.345 13.3834 104.044 13.4292 103.371C13.4343 103.264 13.4394 103.106 13.4292 102.892C13.4241 102.677 13.4241 102.519 13.4343 102.412C13.4648 101.989 13.6889 101.79 14.1115 101.82C14.5596 101.851 14.7632 102.162 14.7225 102.759C14.7225 102.784 14.7174 102.825 14.7123 102.876C14.692 102.943 14.6869 102.988 14.6818 103.014L14.5087 103.82C14.4119 104.264 14.3508 104.687 14.3253 105.085C14.2999 105.432 14.305 105.875 14.3355 106.421L14.3865 107.4C14.3865 107.426 14.3865 107.472 14.3966 107.538C14.3915 107.604 14.3865 107.655 14.3865 107.696C14.3457 108.267 14.0962 108.533 13.6329 108.502C13.2255 108.471 13.032 108.247 13.0626 107.824C13.0677 107.757 13.0931 107.579 13.1389 107.288C13.1899 107.145 13.2153 107.008 13.2255 106.875C13.2713 106.202 12.7978 105.829 11.81 105.763L10.425 105.666L8.68359 105.549L3.84633 105.217C2.85343 105.151 2.33915 105.457 2.28823 106.141C2.28314 106.232 2.28823 106.365 2.30351 106.538C2.32387 106.788 2.33406 106.977 2.32387 107.094C2.29332 107.513 2.06419 107.712 1.62629 107.681C1.16293 107.65 0.954168 107.349 0.989811 106.783C0.994902 106.707 1.01018 106.6 1.03055 106.467C1.14257 105.809 1.20876 105.304 1.23422 104.947C1.24949 104.748 1.24949 104.452 1.23422 104.049C1.21894 103.652 1.22404 103.351 1.23422 103.152C1.26477 102.744 1.41753 102.484 1.70776 102.366L2.21185 102.193Z" fill="#C4C4C4"/>
<path d="M14.692 84.6268C15.6594 84.8563 16.2195 84.6421 16.3774 83.9842C16.4028 83.8821 16.4232 83.724 16.4385 83.5098C16.4537 83.2956 16.4741 83.1375 16.4996 83.0355C16.5403 82.8672 16.637 82.7396 16.7847 82.6427C16.9375 82.5509 17.0953 82.5254 17.2633 82.5611C17.7165 82.6682 17.8693 83.0151 17.7318 83.5914C17.7267 83.6169 17.7165 83.6577 17.7063 83.7087C17.6758 83.7699 17.6605 83.8158 17.6554 83.8413L17.2939 84.7594C17.1564 85.1063 17.0342 85.5092 16.9273 85.958C16.8102 86.4477 16.7338 86.8863 16.6981 87.274L16.6014 88.2737C16.5912 88.3145 16.5861 88.3604 16.5861 88.4114C16.5709 88.4777 16.5607 88.5236 16.5556 88.5491C16.4181 89.1152 16.1279 89.3447 15.6747 89.2376C15.2622 89.1407 15.1044 88.8857 15.2062 88.4726C15.2317 88.3706 15.2826 88.2175 15.3641 88.0186C15.4456 87.8197 15.4965 87.6667 15.5219 87.5647C15.6747 86.922 15.2673 86.4834 14.305 86.2488L12.9505 85.9274L6.46354 84.3718C5.5521 84.1525 4.98182 84.5146 4.75777 85.4582L4.6152 86.06C4.39625 86.9883 4.73231 87.5596 5.63357 87.7789C5.95436 87.8554 6.1784 87.9013 6.29551 87.9166L7.02874 88.0084C7.14585 88.0237 7.30879 88.0543 7.51755 88.1053C8.32716 88.2992 8.6734 88.646 8.55629 89.1509C8.44427 89.6304 8.08784 89.7936 7.49719 89.6559C7.32915 89.6151 7.04401 89.5335 6.63666 89.4111C6.02564 89.2223 5.63866 89.1101 5.47063 89.0693C5.14985 88.9928 4.81378 88.9214 4.45736 88.8602C3.76486 88.7378 3.46954 88.6919 3.57137 88.7174C3.03164 88.5899 2.81778 88.2787 2.93489 87.7891C2.97563 87.6106 3.09783 87.1974 3.29132 86.5497C3.3066 86.4834 3.45935 85.9631 3.7445 84.9838L4.26896 82.7805C4.33006 82.5254 4.48281 81.8318 4.72722 80.7046C4.78323 80.4597 4.86979 80.0364 4.97672 79.4397C5.06838 78.9041 5.14985 78.4859 5.22113 78.19C5.37389 77.5474 5.71504 77.2873 6.24459 77.4148L6.28533 77.425C6.41262 77.4556 6.64685 77.527 6.988 77.6443C7.32915 77.7616 7.69068 77.884 8.08275 78.0166L8.29661 78.0676C8.4901 78.1135 8.79561 78.1645 9.21823 78.2257C9.77324 78.3022 10.1144 78.3584 10.2417 78.389C10.7712 78.5165 10.9749 78.8276 10.8527 79.3325C10.7356 79.8222 10.3537 79.9905 9.70705 79.8375C9.47282 79.7814 9.13167 79.6794 8.68359 79.5315C8.2355 79.3836 7.89435 79.2815 7.66012 79.2254C6.76905 79.0112 6.19877 79.4141 5.95945 80.4342L5.83215 80.9749C5.72013 81.4543 5.73541 81.8165 5.88816 82.0715C6.04092 82.3265 6.34134 82.5203 6.7996 82.658L8.13367 83.061L14.692 84.6268Z" fill="#C4C4C4"/>
<path d="M8.56139 67.6984C9.04511 66.4947 9.82925 65.6633 10.9087 65.2145L10.649 65.1125C10.1704 64.9186 10.0075 64.633 10.1602 64.2505C10.3283 63.8322 10.6745 63.7302 11.2041 63.9445L11.3161 63.9904C11.3415 64.0006 11.5197 64.0924 11.8456 64.2709C12.1766 64.4443 12.5788 64.633 13.0575 64.8268C13.1186 64.8523 13.3223 64.9186 13.6634 65.0257L14.4221 65.2706C14.4883 65.2808 14.5749 65.3114 14.6869 65.3573C15.2775 65.597 15.4812 65.9438 15.2979 66.3978C15.1044 66.8772 14.7632 67.02 14.2693 66.8211L14.1777 66.7854L13.694 66.5457C13.5259 66.4641 13.3935 66.4029 13.2968 66.3621C12.5585 66.0662 11.8813 66.0815 11.2652 66.408C10.649 66.7344 10.1602 67.3414 9.80889 68.2135C9.4881 69.0143 9.427 69.7284 9.63067 70.3608C9.83435 70.9933 10.2672 71.4421 10.9291 71.7125C11.7031 72.0236 12.4159 71.9063 13.0677 71.3503C13.4241 71.0341 13.8773 70.4169 14.4323 69.4988C15.2572 68.1319 15.9751 67.2546 16.6014 66.8772C17.5281 66.306 18.5465 66.2448 19.6514 66.6936C20.8073 67.1577 21.5761 67.9534 21.9682 69.0755C22.3603 70.1976 22.289 71.4115 21.7594 72.7274C21.1942 74.125 20.2879 75.1094 19.0353 75.6704C19.0862 75.6908 19.1371 75.7112 19.1982 75.7367C19.2593 75.7622 19.295 75.7775 19.3052 75.7826C19.519 75.8132 19.6565 75.8387 19.7176 75.8642C20.1657 76.0427 20.2981 76.3641 20.1148 76.818C19.9162 77.3128 19.5598 77.4556 19.0455 77.2464C18.9844 77.2209 18.9437 77.1852 18.9182 77.1291L17.9966 76.6599C17.5332 76.4253 17.2379 76.2774 17.1004 76.2264C16.856 76.1294 16.4741 76.0121 15.9547 75.8795C15.4354 75.7469 15.0535 75.6347 14.8091 75.5327C14.2592 75.3083 14.0758 74.9665 14.2642 74.4973C14.4577 74.0179 14.8294 73.8904 15.3845 74.1148L15.7154 74.2474C15.8122 74.2882 15.9547 74.3443 16.1431 74.4208C17.0699 74.7931 17.9202 74.7982 18.6992 74.4259C19.4783 74.0587 20.0689 73.3701 20.4763 72.3653C20.8531 71.4319 20.9295 70.6005 20.7105 69.8712C20.4916 69.1418 20.0028 68.6216 19.239 68.3155C18.0729 67.8463 17.0648 68.2951 16.2093 69.6672L15.6034 70.6465C14.9975 71.6155 14.4577 72.3449 13.9791 72.8193C13.531 73.2528 12.9964 73.5282 12.3752 73.6404C11.754 73.7526 11.1277 73.6812 10.5014 73.4313C9.42191 72.9927 8.69886 72.248 8.34244 71.1871C7.98601 70.1109 8.05729 68.9531 8.56139 67.6984Z" fill="#C4C4C4"/>
<path d="M125.458 107.627L130.195 107.612C122.693 94.5687 115.271 81.667 107.801 68.6784C100.418 81.7096 93.0822 94.6608 85.6671 107.75L90.403 107.735C91.5052 107.731 92.2017 108.906 91.6617 109.858C88.1158 116.116 84.5665 122.383 81 128.678L98.0485 128.622V128.629L111.3 128.586C112.732 128.581 114.161 128.578 115.59 128.573L135 128.51C131.392 122.237 127.8 115.993 124.213 109.756C123.668 108.808 124.355 107.631 125.458 107.627Z" fill="#C4C4C4"/>
<path d="M58.9143 64.7025L61.372 65.6756C62.0372 65.9386 62.7888 65.8591 63.3793 65.4588L65.5577 63.9919C65.8322 63.8079 66.1986 64.0186 66.1844 64.3505L66.0371 66.9811C65.9979 67.6932 66.3122 68.3858 66.8752 68.8243L68.9581 70.4523C69.2216 70.6578 69.135 71.072 68.8162 71.1534L66.2685 71.8074C65.5787 71.9847 65.0208 72.4927 64.7799 73.1629L63.8911 75.6385C63.7804 75.9483 63.3598 75.9959 63.1799 75.7144L61.7533 73.4887C61.3665 72.8842 60.7089 72.5097 59.9964 72.4822L57.3577 72.3832C57.0257 72.3721 56.8504 71.9819 57.0592 71.7258L58.7229 69.6937C59.1766 69.1432 59.3229 68.405 59.126 67.7155L58.3865 65.1776C58.2938 64.8661 58.607 64.5808 58.9143 64.7025Z" fill="#C4C4C4"/>
<path d="M152.97 65.7025L150.512 66.6756C149.847 66.9386 149.095 66.8591 148.505 66.4588L146.326 64.9919C146.052 64.8079 145.685 65.0186 145.7 65.3505L145.847 67.9811C145.886 68.6932 145.572 69.3858 145.009 69.8243L142.926 71.4523C142.662 71.6578 142.749 72.072 143.068 72.1534L145.616 72.8074C146.305 72.9847 146.863 73.4927 147.104 74.1629L147.993 76.6385C148.104 76.9483 148.524 76.9959 148.704 76.7144L150.131 74.4887C150.518 73.8842 151.175 73.5097 151.888 73.4822L154.526 73.3832C154.858 73.3721 155.034 72.9819 154.825 72.7258L153.161 70.6937C152.708 70.1432 152.561 69.405 152.758 68.7155L153.498 66.1776C153.59 65.8661 153.277 65.5808 152.97 65.7025Z" fill="#C4C4C4"/>
<path d="M84.754 54.0048L82.1509 54.4645C81.4465 54.5892 80.8482 55.0509 80.5552 55.7013L79.469 58.0924C79.3317 58.393 78.9092 58.4057 78.7474 58.1156L77.4938 55.7981C77.1539 55.1712 76.5232 54.7461 75.8139 54.6679L73.1867 54.3733C72.8546 54.3365 72.7112 53.9383 72.94 53.7019L74.7668 51.8095C75.2613 51.2969 75.4701 50.5718 75.3239 49.8748L74.7831 47.3007C74.715 46.9788 75.0482 46.7178 75.349 46.8632L77.7306 48.0108C78.3769 48.3228 79.1331 48.297 79.7544 47.9469L82.0533 46.648C82.3419 46.4834 82.6957 46.7239 82.6522 47.0514L82.3005 49.654C82.2029 50.3607 82.4652 51.066 82.9943 51.55L84.9544 53.3236C85.1966 53.5402 85.0794 53.9473 84.754 54.0048Z" fill="#C4C4C4"/>
<path d="M125.997 54.0048L128.6 54.4645C129.305 54.5892 129.903 55.0509 130.196 55.7013L131.282 58.0924C131.419 58.393 131.842 58.4057 132.004 58.1156L133.257 55.7981C133.597 55.1712 134.228 54.7461 134.937 54.6679L137.564 54.3733C137.897 54.3365 138.04 53.9383 137.811 53.7019L135.984 51.8095C135.49 51.2969 135.281 50.5718 135.427 49.8748L135.968 47.3007C136.036 46.9788 135.703 46.7178 135.402 46.8632L133.021 48.0108C132.374 48.3228 131.618 48.297 130.997 47.9469L128.698 46.648C128.409 46.4834 128.055 46.7239 128.099 47.0514L128.451 49.654C128.548 50.3607 128.286 51.066 127.757 51.55L125.797 53.3236C125.555 53.5402 125.672 53.9473 125.997 54.0048Z" fill="#C4C4C4"/>
<path d="M101.251 42.186L103.871 41.8352C104.58 41.7399 105.197 41.3036 105.517 40.6659L106.702 38.3221C106.851 38.0276 107.274 38.0325 107.424 38.3291L108.58 40.6968C108.893 41.3373 109.505 41.7883 110.211 41.8961L112.824 42.2999C113.154 42.3505 113.281 42.7543 113.042 42.981L111.138 44.7956C110.623 45.2872 110.384 46.0029 110.501 46.7054L110.934 49.2998C110.988 49.6243 110.645 49.8711 110.35 49.7133L108.018 48.4675C107.386 48.1288 106.629 48.123 105.994 48.447L103.643 49.6489C103.348 49.8014 103.004 49.5464 103.061 49.2209L103.521 46.6352C103.648 45.9333 103.415 45.2176 102.907 44.712L101.022 42.8583C100.789 42.6317 100.923 42.2298 101.251 42.186Z" fill="#C4C4C4"/>
</svg>
