<svg width="28" height="28" viewBox="0 0 28 28" fill="none" xmlns="http://www.w3.org/2000/svg">
<path d="M14 28C21.732 28 28 21.732 28 14C28 6.26801 21.732 0 14 0C6.26801 0 0 6.26801 0 14C0 21.732 6.26801 28 14 28Z" fill="#084C94"/>
<path d="M18.9805 9.15234H9.01953C8.74444 9.15234 8.52148 9.3753 8.52148 9.65039V11.1445H19.4785V9.65039C19.4785 9.3753 19.2556 9.15234 18.9805 9.15234Z" fill="white"/>
<path d="M8.52148 12.6387C8.52148 13.618 8.78322 14.5794 9.27841 15.4188C9.75869 16.2329 10.4453 16.9132 11.2639 17.3859C12.03 17.8283 12.5059 18.6648 12.5059 19.5692V22.002C12.5059 22.277 12.7288 22.5 13.0039 22.5H14.9961C15.2712 22.5 15.4941 22.277 15.4941 22.002V19.5692C15.4941 18.6648 15.97 17.8282 16.7361 17.3858C17.5547 16.9132 18.2413 16.2329 18.7216 15.4188C19.2168 14.5794 19.4785 13.618 19.4785 12.6387V12.1406H8.52148V12.6387Z" fill="white"/>
<path d="M17.1543 5.99805C17.1543 5.72295 16.9313 5.5 16.6562 5.5C16.3812 5.5 16.1582 5.72295 16.1582 5.99805V8.15625H17.1543V5.99805Z" fill="white"/>
<path d="M11.8418 5.99805C11.8418 5.72295 11.6188 5.5 11.3438 5.5C11.0687 5.5 10.8457 5.72295 10.8457 5.99805V8.15625H11.8418V5.99805Z" fill="white"/>
</svg>
