<svg width="28" height="28" viewBox="0 0 28 28" fill="none" xmlns="http://www.w3.org/2000/svg">
<path d="M14 28C21.732 28 28 21.732 28 14C28 6.26801 21.732 0 14 0C6.26801 0 0 6.26801 0 14C0 21.732 6.26801 28 14 28Z" fill="#3ECFCD"/>
<path d="M21.4936 11.5096C21.033 11.049 20.2836 11.049 19.8229 11.5097C19.6812 11.6515 18.7765 12.557 18.6383 12.6953V9.57494C18.6383 9.2594 18.5154 8.96277 18.2923 8.73969L17.1786 7.62597C16.9555 7.40286 16.6589 7.28 16.3433 7.28H9.58202C8.93068 7.28 8.40078 7.8099 8.40078 8.46126V19.5387C8.40078 20.1901 8.93068 20.72 9.58202 20.72H17.457C18.1084 20.72 18.6383 20.1901 18.6383 19.5387V16.0378L21.4936 13.1801C21.9552 12.7185 21.9553 11.9713 21.4936 11.5096ZM16.2758 8.0675C16.3502 8.0675 16.4935 8.05462 16.6218 8.1828L17.7355 9.29653C17.8604 9.4215 17.8508 9.55844 17.8508 9.6425H16.2758V8.0675ZM17.8508 19.5387C17.8508 19.7559 17.6742 19.9325 17.457 19.9325H9.58202C9.36491 19.9325 9.18828 19.7559 9.18828 19.5387V8.46126C9.18828 8.24412 9.36491 8.0675 9.58202 8.0675H15.4883V10.0363C15.4883 10.2537 15.6646 10.43 15.882 10.43H17.8508V13.4835C17.8508 13.4835 16.6891 14.6462 16.6891 14.6462L16.1325 15.2028C16.0893 15.246 16.0567 15.2987 16.0373 15.3567L15.4805 17.0272C15.4333 17.1687 15.4701 17.3247 15.5756 17.4302C15.6812 17.5358 15.8373 17.5724 15.9785 17.5253L17.6491 16.9684C17.7071 16.9491 17.7598 16.9166 17.803 16.8733L17.8508 16.8256V19.5387ZM16.9677 15.4812L17.5246 16.0381L17.3119 16.2508L16.4766 16.5292L16.755 15.6939L16.9677 15.4812ZM18.0813 15.4811L17.5245 14.9242C17.821 14.6275 19.1379 13.3094 19.4172 13.0299L19.9741 13.5867L18.0813 15.4811ZM20.9366 12.6234L20.5307 13.0296L19.9739 12.4728L20.3799 12.0664C20.5335 11.9129 20.7833 11.9129 20.9367 12.0664C21.0902 12.22 21.0911 12.4689 20.9366 12.6234Z" fill="white"/>
<path d="M15.8817 11.2175H10.3692C10.1518 11.2175 9.97548 11.3938 9.97548 11.6113C9.97548 11.8287 10.1518 12.005 10.3692 12.005H15.8817C16.0992 12.005 16.2755 11.8287 16.2755 11.6113C16.2755 11.3938 16.0992 11.2175 15.8817 11.2175Z" fill="white"/>
<path d="M14.3067 12.7925H10.3692C10.1518 12.7925 9.97548 12.9688 9.97548 13.1863C9.97548 13.4037 10.1518 13.58 10.3692 13.58H14.3067C14.5242 13.58 14.7005 13.4037 14.7005 13.1863C14.7005 12.9688 14.5242 12.7925 14.3067 12.7925Z" fill="white"/>
<path d="M14.3067 14.3675H10.3692C10.1518 14.3675 9.97548 14.5438 9.97548 14.7613C9.97548 14.9787 10.1518 15.155 10.3692 15.155H14.3067C14.5242 15.155 14.7005 14.9787 14.7005 14.7613C14.7005 14.5438 14.5242 14.3675 14.3067 14.3675Z" fill="white"/>
<path d="M14.3067 15.9425H10.3692C10.1518 15.9425 9.97548 16.1188 9.97548 16.3363C9.97548 16.5537 10.1518 16.73 10.3692 16.73H14.3067C14.5242 16.73 14.7005 16.5537 14.7005 16.3363C14.7005 16.1188 14.5242 15.9425 14.3067 15.9425Z" fill="white"/>
<path d="M15.8817 18.3575H13.5192C13.3018 18.3575 13.1255 18.5338 13.1255 18.7513C13.1255 18.9687 13.3018 19.145 13.5192 19.145H15.8817C16.0992 19.145 16.2755 18.9687 16.2755 18.7513C16.2755 18.5338 16.0992 18.3575 15.8817 18.3575Z" fill="white"/>
</svg>
