<svg width="80" height="80" viewBox="0 0 80 80" fill="none" xmlns="http://www.w3.org/2000/svg">
<g clip-path="url(#clip0)">
<path d="M75.9759 12.8773V25.2717H4.02417V12.8773C4.02417 11.0246 5.06723 9.41494 6.59962 8.60689C7.27246 8.24955 8.03866 8.04834 8.85314 8.04834H71.1469C72.9996 8.04834 74.6093 9.0914 75.4173 10.6238C75.7747 11.2966 75.9759 12.0628 75.9759 12.8773Z" fill="#FFC444"/>
<path d="M23.3401 8.04834V17.0624C23.3401 17.951 22.6189 18.6721 21.7304 18.6721H14.326C13.4374 18.6721 12.7163 17.951 12.7163 17.0624V8.04834H23.3401Z" fill="#F99C4D"/>
<path d="M64.7083 8.04834V17.0624C64.7083 17.951 63.9872 18.6721 63.0987 18.6721H55.6943C54.8057 18.6721 54.0846 17.951 54.0846 17.0624V8.04834H64.7083Z" fill="#F99C4D"/>
<path d="M6.59962 8.60681V25.2716H4.02417V12.8772C4.02417 11.0245 5.06723 9.41486 6.59962 8.60681Z" fill="#F99C4D"/>
<path d="M17.2233 34.9006H25.505C25.9494 34.9006 26.3098 35.261 26.3098 35.7055V43.9872C26.3098 44.4316 25.9494 44.792 25.505 44.792H17.2233C16.7789 44.792 16.4185 44.4316 16.4185 43.9872V35.7055C16.4185 35.261 16.7789 34.9006 17.2233 34.9006Z" fill="#BDE1FF"/>
<path d="M17.2233 47.2064H25.505C25.9494 47.2064 26.3098 47.5668 26.3098 48.0113V56.2946C26.3098 56.739 25.9494 57.0994 25.505 57.0994H17.2233C16.7789 57.0994 16.4185 56.739 16.4185 56.2946V48.0113C16.4185 47.5668 16.7789 47.2064 17.2233 47.2064Z" fill="#BDE1FF"/>
<path d="M17.2233 59.5139H25.505C25.9494 59.5139 26.3098 59.8743 26.3098 60.3187V68.6004C26.3098 69.0449 25.9494 69.4053 25.505 69.4053H17.2233C16.7789 69.4053 16.4185 69.0449 16.4185 68.6004V60.3187C16.4185 59.8743 16.7789 59.5139 17.2233 59.5139Z" fill="#BDE1FF"/>
<path d="M29.5292 34.9006H37.9879C38.4324 34.9006 38.7928 35.261 38.7928 35.7055V43.9872C38.7928 44.4316 38.4324 44.792 37.9879 44.792H29.5292C29.0848 44.792 28.7244 44.4316 28.7244 43.9872V35.7055C28.7244 35.261 29.0848 34.9006 29.5292 34.9006Z" fill="#BDE1FF"/>
<path d="M29.5292 47.2064H37.9879C38.4324 47.2064 38.7928 47.5668 38.7928 48.0113V56.2946C38.7928 56.739 38.4324 57.0994 37.9879 57.0994H29.5292C29.0848 57.0994 28.7244 56.739 28.7244 56.2946V48.0113C28.7244 47.5668 29.0848 47.2064 29.5292 47.2064Z" fill="#BDE1FF"/>
<path d="M29.5292 59.5139H37.9879C38.4324 59.5139 38.7928 59.8743 38.7928 60.3187V68.6004C38.7928 69.0449 38.4324 69.4053 37.9879 69.4053H29.5292C29.0848 69.4053 28.7244 69.0449 28.7244 68.6004V60.3187C28.7244 59.8743 29.0848 59.5139 29.5292 59.5139Z" fill="#BDE1FF"/>
<path d="M42.0119 34.9006H50.4706C50.915 34.9006 51.2754 35.261 51.2754 35.7055V43.9872C51.2754 44.4316 50.915 44.792 50.4706 44.792H42.0119C41.5674 44.792 41.207 44.4316 41.207 43.9872V35.7055C41.207 35.261 41.5674 34.9006 42.0119 34.9006Z" fill="#BDE1FF"/>
<path d="M42.0119 47.2064H50.4706C50.915 47.2064 51.2754 47.5668 51.2754 48.0113V56.2946C51.2754 56.739 50.915 57.0994 50.4706 57.0994H42.0119C41.5674 57.0994 41.207 56.739 41.207 56.2946V48.0113C41.207 47.5668 41.5674 47.2064 42.0119 47.2064Z" fill="#BDE1FF"/>
<path d="M42.0119 59.5139H50.4706C50.915 59.5139 51.2754 59.8743 51.2754 60.3187V68.6004C51.2754 69.0449 50.915 69.4053 50.4706 69.4053H42.0119C41.5674 69.4053 41.207 69.0449 41.207 68.6004V60.3187C41.207 59.8743 41.5674 59.5139 42.0119 59.5139Z" fill="#BDE1FF"/>
<path d="M63.5814 35.7055V43.9872C63.5814 44.4316 63.221 44.792 62.7766 44.792H54.4949C54.0505 44.792 53.6901 44.4316 53.6901 43.9872V35.7055C53.6901 35.261 54.0505 34.9006 54.4949 34.9006H62.7766C63.221 34.9006 63.5814 35.261 63.5814 35.7055Z" fill="#BDE1FF"/>
<path d="M54.4949 47.2064H62.7766C63.221 47.2064 63.5814 47.5668 63.5814 48.0113V56.2946C63.5814 56.739 63.221 57.0994 62.7766 57.0994H54.4949C54.0505 57.0994 53.6901 56.739 53.6901 56.2946V48.0113C53.6901 47.5668 54.0505 47.2064 54.4949 47.2064Z" fill="#BDE1FF"/>
<path d="M54.4949 59.5139H62.7766C63.221 59.5139 63.5814 59.8743 63.5814 60.3187V68.6004C63.5814 69.0449 63.221 69.4053 62.7766 69.4053H54.4949C54.0505 69.4053 53.6901 69.0449 53.6901 68.6004V60.3187C53.6901 59.8743 54.0505 59.5139 54.4949 59.5139Z" fill="#BDE1FF"/>
<path d="M4.02417 24.1449V75.1711C4.02417 77.8383 6.18594 80 8.85314 80H71.1469C73.8141 80 75.9759 77.8383 75.9759 75.1711V24.1449H4.02417Z" fill="#E8F3FD"/>
<path d="M23.3403 1.60966V14.4869C23.3403 15.3755 22.6192 16.0966 21.7306 16.0966H16.9017C16.0131 16.0966 15.292 15.3755 15.292 14.4869V1.60966C15.292 0.721127 16.0131 0 16.9017 0H21.7306C22.6192 0 23.3403 0.721127 23.3403 1.60966Z" fill="#50758D"/>
<path d="M16.4185 34.9006H26.3098V44.792H16.4185V34.9006Z" fill="#4770A3"/>
<path d="M53.6902 34.9006H63.5815V44.792H53.6902V34.9006Z" fill="#4770A3"/>
<path d="M28.7244 34.9006H38.7928V44.792H28.7244V34.9006Z" fill="#4770A3"/>
<path d="M16.4185 47.2064H26.3098V57.0994H16.4185V47.2064Z" fill="#4770A3"/>
<path d="M53.6902 47.2064H63.5815V57.0994H53.6902V47.2064Z" fill="#BDE1FF"/>
<path d="M28.7244 47.2064H38.7928V57.0994H28.7244V47.2064Z" fill="#4770A3"/>
<path d="M16.4185 59.5138H26.3098V69.4052H16.4185V59.5138Z" fill="#BDE1FF"/>
<path d="M53.6902 59.5138H63.5815V69.4052H53.6902V59.5138Z" fill="#BDE1FF"/>
<path d="M28.7244 59.5138H38.7928V69.4052H28.7244V59.5138Z" fill="#BDE1FF"/>
<path d="M41.2073 34.9006H51.2757V44.792H41.2073V34.9006Z" fill="#4770A3"/>
<path d="M41.2073 47.2064H51.2757V57.0994H41.2073V47.2064Z" fill="#4770A3"/>
<path d="M41.2073 59.5138H51.2757V69.4052H41.2073V59.5138Z" fill="#BDE1FF"/>
<path d="M64.7083 1.60966V14.4869C64.7083 15.3755 63.9872 16.0966 63.0987 16.0966H58.2697C57.3812 16.0966 56.66 15.3755 56.66 14.4869V1.60966C56.66 0.721127 57.3812 0 58.2697 0H63.0987C63.9872 0 64.7083 0.721127 64.7083 1.60966Z" fill="#50758D"/>
<path d="M4.02417 24.1449V75.1711C4.02417 77.8383 6.18594 80 8.85314 80H10.6366C8.38473 79.5912 6.68011 77.621 6.68011 75.2515V27.5606C6.862 27.0696 7.33363 26.7204 7.88735 26.7204H75.9759V24.2254V24.1449H4.02417Z" fill="#BDE1FF"/>
<path d="M19.4771 16.0966H16.9017C16.0131 16.0966 15.292 15.3755 15.292 14.4869V1.60966C15.292 0.721127 16.0131 0 16.9017 0H17.8674V14.4869C17.8674 15.3755 18.5886 16.0966 19.4771 16.0966Z" fill="#2B597F"/>
<path d="M60.8451 16.0966H58.2697C57.3812 16.0966 56.66 15.3755 56.66 14.4869V1.60966C56.66 0.721127 57.3812 0 58.2697 0H59.2355V14.4869C59.2355 15.3755 59.9566 16.0966 60.8451 16.0966Z" fill="#2B597F"/>
</g>
<defs>
<clipPath id="clip0">
<rect width="80" height="80" fill="white"/>
</clipPath>
</defs>
</svg>
