<svg width="80" height="80" viewBox="0 0 80 80" fill="none" xmlns="http://www.w3.org/2000/svg">
<path d="M59.845 7.03125V72.9688C59.845 76.8453 56.6903 80 52.8137 80H7.03247C3.15591 80 0.0012207 76.8453 0.0012207 72.9688V7.03125C0.0012207 3.15469 3.15591 0 7.03247 0H52.8137C56.6903 0 59.845 3.15469 59.845 7.03125Z" fill="#E8F3FD"/>
<path d="M59.845 7.03125V72.9688C59.845 76.8453 56.6903 80 52.8137 80H30.0012V0H52.8137C56.6903 0 59.845 3.15469 59.845 7.03125Z" fill="#BDE1FF"/>
<path d="M49.845 17.5C49.845 18.7938 48.795 19.8438 47.5012 19.8438H12.5012C11.2075 19.8438 10.1575 18.7938 10.1575 17.5C10.1575 16.2063 11.2075 15.1562 12.5012 15.1562H47.5012C48.795 15.1562 49.845 16.2063 49.845 17.5Z" fill="#4770A3"/>
<path d="M49.845 17.5C49.845 18.7938 48.795 19.8438 47.5012 19.8438H29.845V15.1562H47.5012C48.795 15.1562 49.845 16.2063 49.845 17.5Z" fill="#283758"/>
<path d="M42.345 30C42.345 31.2938 41.295 32.3438 40.0012 32.3438H12.5012C11.2075 32.3438 10.1575 31.2938 10.1575 30C10.1575 28.7063 11.2075 27.6562 12.5012 27.6562H40.0012C41.295 27.6562 42.345 28.7063 42.345 30Z" fill="#4770A3"/>
<path d="M42.345 30C42.345 31.2938 41.295 32.3438 40.0012 32.3438H29.845V27.6562H40.0012C41.295 27.6562 42.345 28.7063 42.345 30Z" fill="#283758"/>
<path d="M34.845 42.5C34.845 43.7938 33.795 44.8438 32.5012 44.8438H12.5012C11.2075 44.8438 10.1575 43.7938 10.1575 42.5C10.1575 41.2063 11.2075 40.1562 12.5012 40.1562H32.5012C33.795 40.1562 34.845 41.2063 34.845 42.5Z" fill="#4770A3"/>
<path d="M34.845 42.5C34.845 43.7938 33.795 44.8438 32.5012 44.8438H29.845V40.1562H32.5012C33.795 40.1562 34.845 41.2063 34.845 42.5Z" fill="#283758"/>
<path d="M79.3511 34.889C79.059 35.3828 78.0824 36.3859 71.5386 42.8437C67.7465 46.5859 62.084 52.1625 53.6027 60.5343C53.1949 60.939 54.1168 60.4453 39.6886 67.1781C37.6965 68.1109 35.6558 66.0281 36.573 64.0625C43.3168 49.614 42.8105 50.5515 43.2277 50.139C51.6808 41.6859 57.2965 36.0671 61.0293 32.3343C68.284 25.0765 68.4261 24.939 68.4433 24.9578C70.323 23.439 73.0246 23.589 74.7152 25.2796C78.9496 29.514 78.7449 29.2937 78.9496 29.5484C80.1496 31.0109 80.3699 33.15 79.3511 34.889Z" fill="#FFE278"/>
<path d="M79.3512 34.8891C78.8903 35.6688 76.7184 37.7188 53.6028 60.5344C53.195 60.9391 54.1168 60.4453 39.6887 67.1782C39.3715 67.3266 39.0325 67.3985 38.6981 67.3985C38.0497 67.3985 37.484 67.1438 37.0715 66.7422L76.6262 27.1891C78.8856 29.4469 78.7809 29.3391 78.9497 29.5485C80.1497 31.011 80.37 33.15 79.3512 34.8891Z" fill="#FFB454"/>
<path d="M79.3512 34.889C79.059 35.3828 78.0824 36.3859 71.5387 42.8437L71.5262 42.8328L66.2543 37.5609L61.0293 32.3375V32.3343C68.284 25.0765 68.4262 24.939 68.4434 24.9578C70.3231 23.439 73.0246 23.589 74.7152 25.2796C75.4918 26.0562 76.1184 26.6828 76.6262 27.189C78.8887 29.45 78.7824 29.3406 78.9496 29.5484C80.1496 31.0109 80.3699 33.15 79.3512 34.889Z" fill="#9ED3FF"/>
<path d="M79.3513 34.8891C79.0591 35.3828 78.0825 36.386 71.5388 42.8438L71.5263 42.8328L66.2544 37.561L76.6263 27.1891C78.8888 29.45 78.7825 29.3407 78.9497 29.5485C80.1497 31.011 80.37 33.15 79.3513 34.8891Z" fill="#4770A3"/>
</svg>
