<svg width="30" height="30" viewBox="0 0 30 30" fill="none" xmlns="http://www.w3.org/2000/svg">
<path d="M15 0C6.71484 0 0 6.71484 0 15C0 23.2852 6.71484 30 15 30C23.2852 30 30 23.2852 30 15C30 6.71484 23.2852 0 15 0ZM10.998 22.2539H7.70508V11.6133H10.998V22.2539ZM9.33398 10.2188C8.26172 10.2188 7.38867 9.33984 7.38867 8.25586C7.38867 7.17187 8.26172 6.29297 9.33398 6.29297C10.4121 6.29297 11.2852 7.17187 11.2852 8.25586C11.2852 9.33984 10.4121 10.2188 9.33398 10.2188ZM23.3379 22.2539H20.0625V16.6641C20.0625 15.1348 19.4824 14.2793 18.2695 14.2793C16.9512 14.2793 16.2598 15.1699 16.2598 16.6641V22.2539H13.1016V11.6133H16.2598V13.043C16.2598 13.043 17.2148 11.2852 19.4707 11.2852C21.7266 11.2852 23.3379 12.6621 23.3379 15.5156V22.2539Z" fill="url(#paint0_linear)"/>
<defs>
<linearGradient id="paint0_linear" x1="4.39338" y1="4.39343" x2="25.6066" y2="25.6066" gradientUnits="userSpaceOnUse">
<stop stop-color="#2489BE"/>
<stop offset="1" stop-color="#0575B3"/>
</linearGradient>
</defs>
</svg>
