<svg width="28" height="28" viewBox="0 0 28 28" fill="none" xmlns="http://www.w3.org/2000/svg">
<path d="M14 28C21.732 28 28 21.732 28 14C28 6.26801 21.732 0 14 0C6.26801 0 0 6.26801 0 14C0 21.732 6.26801 28 14 28Z" fill="#3ECFCD"/>
<path d="M21.5 18.6553V9.34473L16.3281 14L21.5 18.6553Z" fill="white"/>
<path d="M14 16.0955L12.5234 14.7664L7.35144 19.4216H20.6486L15.4766 14.7664L14 16.0955Z" fill="white"/>
<path d="M20.6486 8.57837H7.35144L14 14.5628L20.6486 8.57837Z" fill="white"/>
<path d="M6.5 9.34473V18.6553L11.6719 14L6.5 9.34473Z" fill="white"/>
</svg>
