<svg width="50" height="50" viewBox="0 0 50 50" fill="none" xmlns="http://www.w3.org/2000/svg">
<g clip-path="url(#clip0)">
<path d="M25 50.0002C38.8071 50.0002 50 38.8074 50 25.0002C50 11.1931 38.8071 0.000244141 25 0.000244141C11.1929 0.000244141 0 11.1931 0 25.0002C0 38.8074 11.1929 50.0002 25 50.0002Z" fill="#2196F3"/>
<path d="M15.249 29.1971C14.7409 28.6891 14.7409 27.8651 15.249 27.3567L22.0821 20.5237L27.939 26.3805L32.9315 21.388C33.4399 20.8798 34.2636 20.8798 34.772 21.388C35.2801 21.8961 35.2801 22.72 34.772 23.2284L27.939 30.0614L22.0821 24.2046L17.0894 29.1971C16.581 29.7052 15.7571 29.7052 15.249 29.1971Z" fill="white"/>
</g>
<defs>
<clipPath id="clip0">
<rect width="50" height="50" fill="white" transform="translate(0 0.000244141)"/>
</clipPath>
</defs>
</svg>
