<svg width="25" height="25" viewBox="0 0 25 25" fill="none" xmlns="http://www.w3.org/2000/svg">
<path d="M25 12.5C25 19.4036 19.4036 25 12.5 25C5.59635 25 0 19.4036 0 12.5C0 5.59635 5.59635 0 12.5 0C19.4036 0 25 5.59635 25 12.5Z" fill="#00617F"/>
<path d="M25 12.5C25 11.7821 24.9386 11.0785 24.8224 10.3937L19.2627 4.83398L6.67782 5.41992L5.7373 19.5835L11.0722 24.9184C11.5408 24.9716 12.0171 25 12.5 25C19.4036 25 25 19.4036 25 12.5Z" fill="#054B56"/>
<path d="M5.7373 4.83398V9.96094H19.2627V4.83398H5.7373ZM7.94277 7.60098C7.44839 7.60098 7.04765 7.20024 7.04765 6.70586C7.04765 6.21147 7.4482 5.81055 7.94277 5.81055C8.43716 5.81055 8.83789 6.21128 8.83789 6.70567C8.83789 7.20005 8.43716 7.60098 7.94277 7.60098ZM17.0572 7.60098C16.5628 7.60098 16.1621 7.20024 16.1621 6.70586C16.1621 6.21147 16.5628 5.81055 17.0572 5.81055C17.5516 5.81055 17.9523 6.21128 17.9523 6.70567C17.9523 7.20005 17.5516 7.60098 17.0572 7.60098Z" fill="#F24500"/>
<path d="M19.2627 4.83398H12.4827V9.96094H19.2627V4.83398ZM17.0573 7.60098C16.5629 7.60098 16.1621 7.20024 16.1621 6.70586C16.1621 6.21147 16.5629 5.81055 17.0573 5.81055C17.5516 5.81055 17.9524 6.21128 17.9524 6.70567C17.9524 7.20005 17.5516 7.60098 17.0573 7.60098Z" fill="#D13400"/>
<path d="M5.7373 8.41431H19.2627V19.5834H5.7373V8.41431Z" fill="white"/>
<path d="M12.4827 8.41431H19.2627V19.5834H12.4827V8.41431Z" fill="#E9EDF5"/>
<path d="M8.88037 17.5592V15.0991C8.88037 12.2614 11.1808 9.96094 14.0186 9.96094H16.4787V12.421C16.4787 15.2588 14.1782 17.5592 11.3405 17.5592H8.88037Z" fill="#FFB000"/>
<path d="M8.88037 17.5234V17.5592H11.3405C14.1782 17.5592 16.4787 15.2588 16.4787 12.421V9.96094H16.4428L8.88037 17.5234Z" fill="#FF9500"/>
<path d="M13.5916 15.201H11.7789L12.9698 14.01H15.4486V13.3438H13.6361L15.1717 11.8082L14.6313 11.268L13.0957 12.8036V10.9911H12.4297V13.4697L11.2385 14.6608V12.8481H10.5727V15.3269L8.07251 17.8268L8.61267 18.3672L11.1128 15.867H13.5916V15.201Z" fill="#FFDA00"/>
<path d="M15.1717 11.8082L14.8837 11.5201L8.32471 18.0791L8.61272 18.3671L11.1129 15.867H13.5917V15.2009H11.7789L12.9699 14.01H15.4487V13.3438H13.6361L15.1717 11.8082Z" fill="#FFB000"/>
</svg>
