<svg width="30" height="30" viewBox="0 0 30 30" fill="none" xmlns="http://www.w3.org/2000/svg">
<path d="M29.6484 15C29.6484 23.0898 23.0898 29.6484 15 29.6484C6.91016 29.6484 0.351562 23.0898 0.351562 15C0.351562 6.91016 6.91016 0.351562 15 0.351562C23.0898 0.351562 29.6484 6.91016 29.6484 15Z" fill="#35495E"/>
<path d="M27.0078 23.3905C26.9765 23.3593 26.9531 23.3358 26.9296 23.3124C24.5859 20.9687 22.2343 18.621 19.8906 16.2773C16.664 13.0468 13.4375 9.82413 10.2109 6.58976C9.76949 6.14444 9.07027 6.10929 8.60933 6.58585C8.32027 6.87882 8.03121 7.16007 7.74605 7.45304C7.47261 7.73429 7.35933 8.06632 7.43746 8.45304C7.44918 8.51163 7.44136 8.5546 7.39449 8.59366C7.37105 8.6171 7.34761 8.64054 7.32418 8.66397C6.70308 9.24991 6.39449 9.98819 6.29293 10.828C6.21871 11.4608 6.26558 12.0858 6.38668 12.7148C6.57418 13.6523 6.90621 14.5351 7.34371 15.3905C8.13277 16.9491 9.17183 18.3202 10.3984 19.5507C13.4765 22.6405 16.5625 25.7148 19.6484 28.7968C19.664 28.8163 19.6875 28.8398 19.7031 28.8554C19.7109 28.8671 19.7226 28.8749 19.7265 28.8788C22.6992 27.8554 25.2421 25.914 27.0078 23.3905Z" fill="#2C3E50"/>
<path d="M23.4727 19.8828L19.9571 16.3672C19.5352 15.9453 18.8555 15.9453 18.4336 16.3672L17.5196 17.2812C17.2344 17.5664 17.1446 17.9766 17.25 18.3398L16.9063 18.6875C16.6563 18.9297 15.1328 18.5547 13.2891 16.7109C11.4453 14.8672 11.0703 13.3438 11.3164 13.0938L11.6602 12.75C11.7617 12.7812 11.8594 12.7891 11.961 12.7891C12.2344 12.7891 12.5117 12.6836 12.7227 12.4727L13.6367 11.5586C14.0547 11.1406 14.0547 10.457 13.6367 10.0352L10.1211 6.51953C9.91409 6.31641 9.64456 6.20312 9.3594 6.20312C9.07034 6.20312 8.80081 6.31641 8.59768 6.51953L7.67971 7.44141C7.39456 7.72656 7.30471 8.14062 7.41409 8.5C7.41409 8.5 7.11721 8.79687 7.1094 8.82031C6.13284 9.90234 5.95315 11.6016 6.59768 13.6328C7.23049 15.625 8.58987 17.7344 10.4297 19.5781C12.2696 21.4141 14.3789 22.7773 16.3711 23.4062C17.1719 23.6602 17.918 23.7891 18.5977 23.7891C19.711 23.7891 20.6406 23.4492 21.3125 22.7891L21.5039 22.5938C21.5977 22.6211 21.7031 22.6328 21.8047 22.6328C22.0899 22.6328 22.3594 22.5234 22.5625 22.3203L23.4805 21.4023C23.8946 20.9883 23.8946 20.3047 23.4727 19.8828ZM9.3594 6.91406L13.25 10.8047L11.961 12.0938L8.07034 8.20312L9.3594 6.91406ZM20.7305 22.2109C20.2188 22.7227 19.4883 22.9805 18.5938 22.9805C18 22.9805 17.3321 22.8711 16.6094 22.6406C14.7422 22.0469 12.7422 20.7578 11 19.0078C9.24612 17.2578 7.95706 15.2656 7.36331 13.3945C6.78909 11.5859 6.94143 10.1211 7.79299 9.27344L8.07424 8.99219L11.1758 12.0938L10.7305 12.5391C9.83206 13.4453 11.0821 15.668 12.711 17.2969C14.0938 18.6797 15.6446 19.5703 16.6602 19.5703C17 19.5703 17.2696 19.4688 17.4688 19.2773L17.9063 18.8359L21.0078 21.9375L20.7305 22.2109ZM22.1328 21.6016C21.9453 21.7891 21.9063 21.8281 21.8203 21.8281C21.8086 21.8281 21.8008 21.8281 21.7891 21.8281L21.6914 21.8203L17.918 18.0469L19.2071 16.7578L23.0977 20.6484L22.1328 21.6016Z" fill="white"/>
</svg>
