<svg width="50" height="50" viewBox="0 0 50 50" fill="none" xmlns="http://www.w3.org/2000/svg">
<path d="M25 50C38.8071 50 50 38.8071 50 25C50 11.1929 38.8071 0 25 0C11.1929 0 0 11.1929 0 25C0 38.8071 11.1929 50 25 50Z" fill="#249AD7"/>
<path d="M31.9779 16.8993L12.6604 24.4271C12.0347 24.671 12.0725 25.5689 12.7166 25.7591L17.6254 27.2086L19.4574 33.0216C19.6488 33.6288 20.4182 33.8129 20.8636 33.3581L23.4016 30.7667L28.3814 34.4219C28.9907 34.8692 29.8587 34.5369 30.0134 33.797L33.3115 18.0287C33.4731 17.2563 32.7131 16.6128 31.9779 16.8993ZM29.556 20.3987L20.5831 28.3334C20.4936 28.4125 20.4367 28.522 20.4234 28.6407L20.0779 31.7116C20.0666 31.8118 19.9265 31.8251 19.8966 31.7288L18.4752 27.1489C18.4102 26.9392 18.495 26.712 18.6816 26.5963L29.2777 20.0246C29.5213 19.8733 29.7708 20.2087 29.556 20.3987Z" fill="white"/>
</svg>
