<svg width="50" height="50" viewBox="0 0 50 50" fill="none" xmlns="http://www.w3.org/2000/svg">
<g clip-path="url(#clip0)">
<path d="M25 50.0002C38.8071 50.0002 50 38.8074 50 25.0002C50 11.1931 38.8071 0.000244141 25 0.000244141C11.1929 0.000244141 0 11.1931 0 25.0002C0 38.8074 11.1929 50.0002 25 50.0002Z" fill="#663A91"/>
<path d="M24.8284 14.8892C25.0101 14.7439 25.1191 14.7439 25.7003 14.7439C25.9909 14.7439 26.4268 14.7802 26.6811 14.8166C27.8799 14.9618 28.6427 15.1435 29.6962 15.652C30.7497 16.1606 31.4035 16.6329 32.3117 17.4684C33.1472 18.2676 33.5831 18.8851 34.0917 19.8659C34.7818 21.21 35.1451 22.772 35.2178 24.5157C35.2542 25.0969 35.2178 25.2422 35.0725 25.4238C34.8183 25.7508 34.237 25.7145 34.019 25.3149C33.9464 25.2059 33.9464 25.0969 33.91 24.6247C33.8738 23.8982 33.8374 23.4259 33.7284 22.8447C33.3288 20.6288 32.2391 18.8488 30.4954 17.5774C29.0424 16.5239 27.7709 16.1243 25.8093 15.979C25.1192 15.979 25.0101 15.979 24.8648 15.8338C24.5742 15.652 24.5742 15.1434 24.8284 14.8892Z" fill="white"/>
<path d="M28.4249 19.4301C27.7347 19.0305 26.6813 18.7036 25.7368 18.6309C25.4098 18.5946 25.1919 18.522 25.0829 18.3767C24.8649 18.195 24.8649 17.8681 25.0102 17.6501C25.1918 17.3596 25.4824 17.3232 26.3179 17.4685C28.4248 17.7591 30.0595 18.7399 31.1493 20.3019C31.7669 21.1738 32.1301 22.2273 32.2391 23.3171C32.2755 23.7166 32.2755 24.4432 32.2391 24.5885C32.2028 24.6974 32.0575 24.8791 31.9121 24.9154C31.7669 24.9881 31.4763 24.9881 31.3309 24.8791C31.0767 24.7338 30.9677 24.5521 30.9677 23.9709C30.9677 23.0991 30.7497 22.1546 30.3138 21.4281C29.8779 20.5926 29.2241 19.9024 28.4249 19.4301Z" fill="white"/>
<path d="M29.333 24.2251C29.115 24.4067 28.7518 24.4067 28.5337 24.2251C28.3521 24.1161 28.3158 23.9708 28.2795 23.6075C28.2432 23.1353 28.1342 22.8083 28.0252 22.5177C27.7346 21.8638 27.1898 21.5369 26.2816 21.4279C25.8457 21.3915 25.7367 21.3189 25.5914 21.1737C25.3371 20.883 25.4461 20.4108 25.773 20.2292C25.9184 20.1565 25.9547 20.1565 26.2453 20.1928C26.4269 20.1928 26.6812 20.2292 26.8265 20.2654C27.5167 20.4108 28.0253 20.6651 28.4975 21.0647C29.0787 21.6095 29.4057 22.2271 29.5146 23.1716C29.5872 23.7892 29.5509 24.0434 29.333 24.2251Z" fill="white"/>
<path d="M35.1815 31.9625C35.1815 31.6356 35.0726 31.3813 34.8546 31.127C34.6366 30.8728 33.1472 29.674 32.4207 29.2017C31.8758 28.8385 31.0403 28.3299 30.677 28.1483C30.1685 27.894 29.6599 27.8576 29.1877 28.003C29.0787 28.0393 29.0061 28.0757 28.9334 28.1119C28.7154 28.2209 28.5338 28.4389 28.0979 28.9474C27.8073 29.3107 27.5531 29.6376 27.5167 29.6376C27.5167 29.6376 27.4804 29.6376 27.4804 29.6739C27.444 29.7103 27.3351 29.7466 27.2624 29.7829C26.7902 30.0009 26.1726 29.8556 25.1555 29.3834C24.3563 28.9837 23.6661 28.5115 22.8669 27.785C22.1767 27.1675 21.4865 26.4046 21.1233 25.787C20.6147 24.9878 20.2515 23.9707 20.2515 23.3895C20.2515 23.1352 20.3604 22.8083 20.4694 22.6266L20.5058 22.5903C20.5058 22.5903 20.5058 22.5903 20.5421 22.5539C20.5785 22.5176 20.6147 22.4813 20.6511 22.4813C20.7963 22.3723 20.978 22.1907 21.1597 22.0454C21.9951 21.3915 22.1768 21.1735 22.2858 20.8103C22.3947 20.447 22.2858 19.9748 21.9225 19.3209C21.2685 18.1221 19.4522 15.8336 18.7984 15.3977C18.6894 15.325 18.5078 15.2524 18.3988 15.1797C18.1082 15.107 17.7086 15.0707 17.4906 15.107C17.1637 15.1797 16.7641 15.434 15.856 16.0878C15.3111 16.4874 14.5845 17.1776 14.4029 17.4682C14.0033 18.1584 14.0396 18.7033 14.5119 20.0474C14.9478 21.2462 15.529 22.445 16.1829 23.6074L16.2192 23.6437C16.3645 23.8617 16.5099 24.116 16.6551 24.3339C16.6551 24.3702 16.6915 24.3702 16.6915 24.4066C16.8368 24.6246 16.9821 24.8788 17.1274 25.0967C17.2001 25.1694 17.2363 25.2784 17.309 25.351C17.418 25.5326 17.527 25.678 17.6723 25.8596C17.854 26.1139 18.0356 26.3682 18.2535 26.6225C20.3241 29.3106 22.7217 31.4902 25.5551 33.2702C25.5914 33.3066 25.6278 33.3066 25.664 33.3429C26.1 33.5971 26.5359 33.8515 26.9718 34.1057C27.0445 34.1421 27.0808 34.1784 27.1535 34.2147C27.5894 34.469 28.0616 34.6869 28.5338 34.9049C28.5702 34.9412 28.6428 34.9412 28.6792 34.9776C29.1514 35.1955 29.6599 35.4135 30.1685 35.6314C30.7861 35.8857 31.004 35.9221 31.4763 35.8857C31.6942 35.8857 31.9122 35.8494 32.0938 35.7767C32.3844 35.7041 32.6387 35.5588 32.9656 35.3409C33.0383 35.3045 33.0746 35.2682 33.1473 35.2319C33.2199 35.1955 33.2926 35.1229 33.3653 35.0502C33.7648 34.7233 34.2008 34.2148 34.564 33.7425C34.8183 33.4155 34.9999 33.0886 35.1089 32.8343C35.1452 32.471 35.1815 32.2167 35.1815 31.9625Z" fill="white"/>
</g>
<defs>
<clipPath id="clip0">
<rect width="50" height="50" fill="white" transform="translate(0 0.000244141)"/>
</clipPath>
</defs>
</svg>
