<svg width="42" height="28" viewBox="0 0 42 28" fill="none" xmlns="http://www.w3.org/2000/svg">
<path d="M0 3.5C0 1.567 1.567 0 3.5 0H38.5C40.433 0 42 1.567 42 3.5V24.5C42 26.433 40.433 28 38.5 28H3.5C1.567 28 0 26.433 0 24.5V3.5Z" fill="#E6E6E6"/>
<path d="M32.5591 21.9876C34.1722 21.9876 34.9315 21.3721 35.5947 19.5063L38.5 11.3575H36.8179L34.8696 17.662H34.8354L32.8872 11.366H31.1573L33.9602 19.1221L33.8101 19.5939C33.704 20.2691 33.0978 20.7509 32.4154 20.7011C32.2852 20.7011 32.0326 20.6875 31.9301 20.674V21.9548C32.1386 21.9833 32.3492 21.9968 32.5591 21.9961V21.9876ZM26.9534 17.9067C26.071 17.9067 25.511 17.4798 25.511 16.8337C25.511 16.1641 26.0511 15.7742 27.0836 15.7123L28.9223 15.5963V16.1983C28.8817 17.1902 28.0442 17.9622 27.0523 17.9217C27.0188 17.9202 26.9861 17.9174 26.9534 17.9146V17.9067ZM26.5094 19.1712C27.5105 19.1982 28.447 18.6766 28.95 17.8107H28.9842V19.0915H30.5155V13.7868C30.5155 12.2483 29.2852 11.2571 27.391 11.2571C25.6341 11.2571 24.3348 12.2619 24.2871 13.643H25.7779C25.9558 12.9407 26.6232 12.4775 27.3433 12.5557C28.3552 12.5557 28.9223 13.0275 28.9223 13.8956V14.4834L26.8587 14.6065C24.9375 14.7225 23.8986 15.5087 23.8986 16.8764C23.8972 18.2632 24.9702 19.179 26.5087 19.179L26.5094 19.1712ZM17.6354 9.82617H19.5424C20.9783 9.82617 21.7988 10.5918 21.7988 11.9388C21.7988 13.2858 20.9783 14.0579 19.536 14.0579H17.6354V9.82617ZM15.981 8.43149V19.0894H17.6354V15.4561H19.9259C21.7917 15.5564 23.3849 14.1255 23.4852 12.2597C23.4909 12.1537 23.4916 12.0484 23.4873 11.9424C23.5756 10.0973 22.1517 8.5304 20.3066 8.44145C20.1978 8.43647 20.0896 8.43718 19.9807 8.44217L15.981 8.43149ZM10.4898 10.4203C9.53918 10.3655 8.72585 10.9604 8.27472 10.9604C7.82359 10.9604 7.12625 10.4481 6.37412 10.4623C5.37792 10.4879 4.46996 11.0394 3.98823 11.9118C2.96286 13.6757 3.72139 16.2872 4.71261 17.7224C5.1979 18.434 5.77996 19.2132 6.5449 19.1854C7.26927 19.1584 7.55674 18.7136 8.43197 18.7136C9.3072 18.7136 9.56693 19.1854 10.3326 19.1712C11.1253 19.1577 11.6248 18.4596 12.1115 17.7481C12.4545 17.2443 12.7213 16.6928 12.9042 16.1114C11.9699 15.703 11.3643 14.7829 11.3594 13.7633C11.3736 12.8638 11.8447 12.0342 12.6103 11.5624C12.1222 10.8693 11.3387 10.4438 10.4913 10.4139L10.4898 10.4203ZM9.89638 9.47892C9.48011 10.0033 8.84326 10.3043 8.17367 10.2922C8.13098 9.63902 8.35299 8.99648 8.78918 8.50834C9.22324 8.00455 9.83519 7.68862 10.4969 7.62671C10.5439 8.29843 10.3283 8.96161 9.89496 9.47679" fill="black"/>
</svg>
