<svg width="20" height="20" viewBox="0 0 20 20" fill="none" xmlns="http://www.w3.org/2000/svg">
<path d="M10.0002 0.750092C3.06324 0.750092 0.750244 3.06309 0.750244 10.0001C0.750244 16.9371 3.06324 19.2501 10.0002 19.2501C16.9372 19.2501 19.2502 16.9371 19.2502 10.0001" stroke="#2F4065" stroke-width="1.5" stroke-linecap="round" stroke-linejoin="round"/>
<path fill-rule="evenodd" clip-rule="evenodd" d="M17.5285 2.30379V2.30379C16.5355 1.42479 15.0185 1.51679 14.1395 2.50979C14.1395 2.50979 9.77053 7.44479 8.25553 9.15779C6.73853 10.8698 7.85053 13.2348 7.85053 13.2348C7.85053 13.2348 10.3545 14.0278 11.8485 12.3398C13.3435 10.6518 17.7345 5.69279 17.7345 5.69279C18.6135 4.69979 18.5205 3.18279 17.5285 2.30379Z" stroke="#2F4065" stroke-width="1.5" stroke-linecap="round" stroke-linejoin="round"/>
<path d="M13.009 3.80078L16.604 6.98378" stroke="#2F4065" stroke-width="1.5" stroke-linecap="round" stroke-linejoin="round"/>
</svg>
