<svg width="152" height="37" viewBox="0 0 152 37" fill="none" xmlns="http://www.w3.org/2000/svg">
<path d="M60.2617 24.7539H57.4609V31H53.9453V13.9375H60.2852C62.3008 13.9375 63.8555 14.3867 64.9492 15.2852C66.043 16.1836 66.5898 17.4531 66.5898 19.0938C66.5898 20.2578 66.3359 21.2305 65.8281 22.0117C65.3281 22.7852 64.5664 23.4023 63.543 23.8633L67.2344 30.8359V31H63.4609L60.2617 24.7539ZM57.4609 21.9062H60.2969C61.1797 21.9062 61.8633 21.6836 62.3477 21.2383C62.832 20.7852 63.0742 20.1641 63.0742 19.375C63.0742 18.5703 62.8438 17.9375 62.3828 17.4766C61.9297 17.0156 61.2305 16.7852 60.2852 16.7852H57.4609V21.9062ZM76.0286 31.2344C74.1692 31.2344 72.6536 30.6641 71.4817 29.5234C70.3177 28.3828 69.7356 26.8633 69.7356 24.9648V24.6367C69.7356 23.3633 69.9817 22.2266 70.4739 21.2266C70.9661 20.2188 71.6614 19.4453 72.5598 18.9062C73.4661 18.3594 74.4973 18.0859 75.6536 18.0859C77.388 18.0859 78.7512 18.6328 79.7434 19.7266C80.7434 20.8203 81.2434 22.3711 81.2434 24.3789V25.7617H73.1692C73.2786 26.5898 73.6067 27.2539 74.1536 27.7539C74.7083 28.2539 75.4075 28.5039 76.2512 28.5039C77.5559 28.5039 78.5755 28.0312 79.3098 27.0859L80.9739 28.9492C80.4661 29.668 79.7786 30.2305 78.9114 30.6367C78.0442 31.0352 77.0833 31.2344 76.0286 31.2344ZM75.6419 20.8281C74.97 20.8281 74.4231 21.0547 74.0012 21.5078C73.5872 21.9609 73.3216 22.6094 73.2044 23.4531H77.9153V23.1836C77.8997 22.4336 77.6966 21.8555 77.3059 21.4492C76.9153 21.0352 76.3606 20.8281 75.6419 20.8281ZM91.2447 31C91.0884 30.6953 90.9752 30.3164 90.9048 29.8633C90.0845 30.7773 89.0181 31.2344 87.7056 31.2344C86.4634 31.2344 85.4322 30.875 84.6119 30.1562C83.7994 29.4375 83.3931 28.5312 83.3931 27.4375C83.3931 26.0938 83.8892 25.0625 84.8814 24.3438C85.8814 23.625 87.3228 23.2617 89.2056 23.2539H90.7642V22.5273C90.7642 21.9414 90.6119 21.4727 90.3072 21.1211C90.0103 20.7695 89.5377 20.5938 88.8892 20.5938C88.3189 20.5938 87.8697 20.7305 87.5416 21.0039C87.2213 21.2773 87.0611 21.6523 87.0611 22.1289H83.6744C83.6744 21.3945 83.9009 20.7148 84.3541 20.0898C84.8072 19.4648 85.4478 18.9766 86.2759 18.625C87.1041 18.2656 88.0338 18.0859 89.065 18.0859C90.6275 18.0859 91.8658 18.4805 92.7798 19.2695C93.7017 20.0508 94.1627 21.1523 94.1627 22.5742V28.0703C94.1705 29.2734 94.3384 30.1836 94.6666 30.8008V31H91.2447ZM88.4439 28.6445C88.9439 28.6445 89.4048 28.5352 89.8267 28.3164C90.2486 28.0898 90.5611 27.7891 90.7642 27.4141V25.2344H89.4986C87.8033 25.2344 86.9009 25.8203 86.7916 26.9922L86.7798 27.1914C86.7798 27.6133 86.9283 27.9609 87.2252 28.2344C87.522 28.5078 87.9283 28.6445 88.4439 28.6445ZM101.058 31H97.66V13H101.058V31ZM108.634 15.2031V18.3203H110.802V20.8047H108.634V27.1328C108.634 27.6016 108.724 27.9375 108.903 28.1406C109.083 28.3438 109.427 28.4453 109.935 28.4453C110.31 28.4453 110.642 28.418 110.931 28.3633V30.9297C110.267 31.1328 109.583 31.2344 108.88 31.2344C106.505 31.2344 105.294 30.0352 105.247 27.6367V20.8047H103.396V18.3203H105.247V15.2031H108.634ZM118.143 26.207L120.487 18.3203H124.12L119.022 32.9688L118.741 33.6367C117.983 35.293 116.733 36.1211 114.991 36.1211C114.498 36.1211 113.998 36.0469 113.491 35.8984V33.332L114.006 33.3438C114.647 33.3438 115.123 33.2461 115.436 33.0508C115.756 32.8555 116.006 32.5312 116.186 32.0781L116.584 31.0352L112.143 18.3203H115.787L118.143 26.207ZM130.781 25.9141L129.562 27.1328V31H126.175V13H129.562V22.9727L130.218 22.1289L133.465 18.3203H137.531L132.949 23.6055L137.929 31H134.039L130.781 25.9141ZM147.063 31C146.907 30.6953 146.794 30.3164 146.724 29.8633C145.903 30.7773 144.837 31.2344 143.524 31.2344C142.282 31.2344 141.251 30.875 140.431 30.1562C139.618 29.4375 139.212 28.5312 139.212 27.4375C139.212 26.0938 139.708 25.0625 140.7 24.3438C141.7 23.625 143.142 23.2617 145.024 23.2539H146.583V22.5273C146.583 21.9414 146.431 21.4727 146.126 21.1211C145.829 20.7695 145.356 20.5938 144.708 20.5938C144.138 20.5938 143.688 20.7305 143.36 21.0039C143.04 21.2773 142.88 21.6523 142.88 22.1289H139.493C139.493 21.3945 139.72 20.7148 140.173 20.0898C140.626 19.4648 141.267 18.9766 142.095 18.625C142.923 18.2656 143.853 18.0859 144.884 18.0859C146.446 18.0859 147.685 18.4805 148.599 19.2695C149.52 20.0508 149.981 21.1523 149.981 22.5742V28.0703C149.989 29.2734 150.157 30.1836 150.485 30.8008V31H147.063ZM144.263 28.6445C144.763 28.6445 145.224 28.5352 145.645 28.3164C146.067 28.0898 146.38 27.7891 146.583 27.4141V25.2344H145.317C143.622 25.2344 142.72 25.8203 142.61 26.9922L142.599 27.1914C142.599 27.6133 142.747 27.9609 143.044 28.2344C143.341 28.5078 143.747 28.6445 144.263 28.6445Z" fill="#333333"/>
<path d="M3 16.9429L10.4843 24.381L20.0769 14.8476M20.0769 14.8476L29.9858 5L40 14.9524V27H20.0769V14.8476Z" stroke="url(#paint0_linear_1394:463)" stroke-width="7"/>
<defs>
<linearGradient id="paint0_linear_1394:463" x1="39.8946" y1="18.619" x2="4.26572" y2="20.104" gradientUnits="userSpaceOnUse">
<stop stop-color="#01E284"/>
<stop offset="1" stop-color="#3B9AE3"/>
</linearGradient>
</defs>
</svg>
