<svg width="42" height="28" viewBox="0 0 42 28" fill="none" xmlns="http://www.w3.org/2000/svg">
<path d="M0 3.5C0 1.567 1.567 0 3.5 0H38.5C40.433 0 42 1.567 42 3.5V24.5C42 26.433 40.433 28 38.5 28H3.5C1.567 28 0 26.433 0 24.5V3.5Z" fill="#CCEFFF"/>
<path d="M25.5929 22.2563H16.4062V5.74634H25.5929V22.2563Z" fill="#6C6BBD"/>
<path d="M16.9946 14C16.9946 10.6509 18.5627 7.66755 21.0047 5.74499C19.2189 4.33912 16.9653 3.5 14.516 3.5C8.7176 3.5 4.01733 8.20093 4.01733 14C4.01733 19.7991 8.7176 24.5 14.516 24.5C16.9653 24.5 19.2189 23.6609 21.0047 22.255C18.5627 20.3324 16.9946 17.3491 16.9946 14Z" fill="#EB001B"/>
<path d="M37.9826 14C37.9826 19.7991 33.2824 24.5 27.484 24.5C25.0347 24.5 22.781 23.6609 20.9946 22.255C23.4372 20.3324 25.0053 17.3491 25.0053 14C25.0053 10.6509 23.4372 7.66755 20.9946 5.74499C22.781 4.33912 25.0347 3.5 27.484 3.5C33.2824 3.5 37.9826 8.20093 37.9826 14Z" fill="#0099DF"/>
</svg>
