<svg width="42" height="28" viewBox="0 0 42 28" fill="none" xmlns="http://www.w3.org/2000/svg">
<path d="M0 3.5C0 1.567 1.567 0 3.5 0H38.5C40.433 0 42 1.567 42 3.5V24.5C42 26.433 40.433 28 38.5 28H3.5C1.567 28 0 26.433 0 24.5V3.5Z" fill="#FDEACE"/>
<path d="M25.3821 5.7116L16.3442 5.74268L16.6181 22.2888L25.656 22.2577L25.3821 5.7116Z" fill="#FF5F00"/>
<path d="M16.9389 14.0491C16.883 10.6838 18.3906 7.69356 20.7519 5.75395C18.9695 4.35531 16.735 3.51426 14.3128 3.52255C8.5743 3.5422 4.00994 8.26959 4.10671 14.0931C4.20349 19.9166 8.92445 24.6122 14.6629 24.5925C17.0852 24.5842 19.2915 23.728 21.0271 22.3173C18.6021 20.4233 16.9948 17.4145 16.9389 14.0491Z" fill="#EB001B"/>
<path d="M37.8932 13.9074C37.99 19.731 33.4256 24.4583 27.6871 24.478C25.2649 24.4863 23.0304 23.6452 21.248 22.2466C23.6382 20.3069 25.1169 17.3167 25.061 13.9514C25.005 10.586 23.3983 7.60647 20.9727 5.68325C22.7084 4.27256 24.9147 3.4163 27.337 3.40801C33.0754 3.38835 37.7969 8.1132 37.8932 13.9074Z" fill="#F79E1B"/>
</svg>
