<svg width="42" height="28" viewBox="0 0 42 28" fill="none" xmlns="http://www.w3.org/2000/svg">
<path d="M0 3.5C0 1.567 1.567 0 3.5 0H38.5C40.433 0 42 1.567 42 3.5V24.5C42 26.433 40.433 28 38.5 28H3.5C1.567 28 0 26.433 0 24.5V3.5Z" fill="#DCEFDC"/>
<path d="M34.9019 8.92993H28.1636C28.5561 11.1542 30.715 13.2477 33.0701 13.2477H38.4346C38.5 13.0514 38.5 12.7243 38.5 12.5281C38.5 10.5654 36.8645 8.92993 34.9019 8.92993Z" fill="url(#paint0_linear_5:1127)"/>
<path d="M28.7524 13.6401V19.07H32.0235V16.1915H34.902C36.4721 16.1915 37.8459 15.0794 38.3039 13.6401H28.7524Z" fill="#4FAD50"/>
<path d="M17.2383 8.92993V19.0047H20.1168C20.1168 19.0047 20.8364 19.0047 21.2289 18.2851C23.1916 14.4253 23.7803 13.2477 23.7803 13.2477H24.1729V19.0047H27.4439V8.92993H24.5654C24.5654 8.92993 23.8458 8.99536 23.4532 9.64956C21.8177 12.986 20.9018 14.6869 20.9018 14.6869H20.5093V8.92993H17.2383Z" fill="#4FAD50"/>
<path d="M3.5 19.0701V8.99536H6.77103C6.77103 8.99536 7.68692 8.99536 8.21029 10.4346C9.5187 14.229 9.64955 14.7524 9.64955 14.7524C9.64955 14.7524 9.91122 13.8365 11.0888 10.4346C11.6122 8.99536 12.528 8.99536 12.528 8.99536H15.7991V19.0701H12.528V13.6402H12.1355L10.3038 19.0701H8.86449L7.03273 13.6402H6.6402V19.0701H3.5Z" fill="#4FAD50"/>
<defs>
<linearGradient id="paint0_linear_5:1127" x1="28.1519" y1="11.1198" x2="38.4769" y2="11.1198" gradientUnits="userSpaceOnUse">
<stop stop-color="#27B1E6"/>
<stop offset="1" stop-color="#148ACA"/>
</linearGradient>
</defs>
</svg>
