<svg width="42" height="28" viewBox="0 0 42 28" fill="none" xmlns="http://www.w3.org/2000/svg">
<path d="M0 3.5C0 1.567 1.567 0 3.5 0H38.5C40.433 0 42 1.567 42 3.5V24.5C42 26.433 40.433 28 38.5 28H3.5C1.567 28 0 26.433 0 24.5V3.5Z" fill="#D7E4F4"/>
<path d="M4.1827 5.83248C3.90962 5.96902 3.68206 6.19659 3.59103 6.42416C3.54552 6.5607 3.5 7.78957 3.5 10.0197V13.3877H5.09298V11.2486H7.18661L7.73278 12.2954L8.27893 13.3422H9.18921C9.68986 13.3422 10.0995 13.3422 10.0995 13.2967C10.0995 13.2512 9.8264 12.705 9.46229 12.0679L8.8251 10.8845L9.00715 10.7935C9.91743 10.2018 10.327 8.97292 10.0995 7.60751C9.96294 6.78827 9.55331 6.19659 8.91612 5.92351C8.55201 5.78697 8.5065 5.74146 6.45839 5.74146C4.86541 5.74146 4.36476 5.74145 4.1827 5.83248ZM8.1424 7.37995C8.23342 7.42546 8.36997 7.562 8.41548 7.69854C8.55202 8.01714 8.55201 8.79087 8.46098 9.01844C8.1879 9.5646 7.8238 9.70114 6.27634 9.70114H5.13849V7.28892H6.54942C7.32315 7.28892 8.05137 7.33443 8.1424 7.37995ZM12.4207 5.78697C11.738 6.01454 11.2373 6.46967 11.0553 7.15238C10.8732 7.69854 10.6912 8.92741 10.6912 9.5646C10.6912 10.1563 10.8732 11.3396 11.0098 11.8403C11.2828 12.6595 11.6925 13.1147 12.4662 13.2967C12.8303 13.3877 13.1489 13.3877 14.3323 13.3877C15.6522 13.3877 15.7887 13.3422 16.1528 13.2057C17.1086 12.7961 17.5182 11.6582 17.5182 9.5646C17.5182 7.33443 17.0631 6.2421 16.0618 5.878C15.6977 5.74145 15.5611 5.74146 14.1047 5.74146C13.331 5.74146 12.5572 5.78697 12.4207 5.78697ZM15.6066 7.47097C16.0618 8.10816 16.0618 11.2031 15.6066 11.6582C15.4701 11.7948 12.8303 11.7948 12.7393 11.6582C12.4207 11.2486 12.2841 9.01844 12.5572 7.97162C12.6482 7.562 12.6938 7.42546 12.8303 7.37995C12.9213 7.33443 13.5585 7.33443 14.2867 7.33443C15.3791 7.33443 15.5611 7.33443 15.6066 7.47097ZM19.0657 5.878C18.9291 5.96902 18.7471 6.15108 18.6561 6.28762C18.5195 6.51519 18.5195 6.65173 18.474 9.38255C18.474 11.2941 18.474 12.3409 18.5195 12.523C18.656 12.9326 18.9291 13.2512 19.3388 13.3422C19.7484 13.4333 22.7978 13.4333 23.344 13.3422C24.3908 13.1602 24.9369 12.5685 25.028 11.4307C25.0735 10.7935 24.9824 10.3383 24.7094 9.8832L24.5273 9.5646L24.8004 9.06395C25.028 8.60881 25.0735 8.5633 25.0735 7.88059C25.0735 7.33443 25.028 7.10686 24.9369 6.83378C24.7549 6.42416 24.4818 6.15108 24.0722 5.92351L23.7081 5.74146H21.5689C19.3388 5.74146 19.3388 5.74145 19.0657 5.878ZM23.2984 7.37995C23.3895 7.47097 23.435 7.92611 23.3895 8.15368C23.344 8.29022 23.2529 8.42676 23.1619 8.5633C22.9798 8.74535 22.9798 8.74535 21.5689 8.74535H20.158V7.28892H21.7055C22.5247 7.33443 23.2529 7.37995 23.2984 7.37995ZM22.9798 10.4294C23.2529 10.5204 23.3895 10.839 23.3895 11.2031C23.3895 11.4307 23.3439 11.5672 23.2529 11.6127C23.1619 11.7037 22.7523 11.7037 21.6144 11.7037H20.067V10.2473L21.4324 10.2928C22.2061 10.3383 22.8888 10.3838 22.9798 10.4294ZM27.3036 5.878C26.6209 6.15108 26.3023 6.60621 26.0293 7.60751C25.8927 8.10816 25.8927 8.38125 25.8927 9.5646C25.8927 10.7935 25.8927 10.93 26.0748 11.5672C26.3023 12.3409 26.4844 12.6595 26.894 12.9781C27.3947 13.3422 27.5312 13.3422 29.2607 13.3422C30.9902 13.3422 31.1723 13.2967 31.6274 12.9781C32.0371 12.705 32.2191 12.3409 32.4467 11.5672C32.6287 10.93 32.6287 10.7935 32.6287 9.5646C32.6287 8.42676 32.6287 8.15368 32.4922 7.60751C32.2191 6.5607 31.9005 6.10556 31.2178 5.878C30.8537 5.74145 30.7172 5.74146 29.2607 5.74146C27.8043 5.74146 27.6222 5.74145 27.3036 5.878ZM30.5806 7.37995C30.7627 7.47097 30.8537 7.65303 30.9902 8.42676C31.1723 9.38255 30.9902 11.1576 30.7172 11.5672C30.6261 11.7493 30.6261 11.7493 29.2607 11.7493C27.6677 11.7493 27.7588 11.7948 27.5767 10.8845C27.3036 9.61011 27.5312 7.51649 27.8953 7.37995C28.1229 7.28892 30.3986 7.28892 30.5806 7.37995Z" fill="#2F69B1"/>
<path d="M3.72757 14.8398L3.5 15.0674V21.8489L3.68207 22.031C3.86412 22.213 3.95514 22.213 4.27374 22.213C4.59233 22.213 4.68337 22.1675 4.81991 22.0765C5.04747 21.8034 5.09298 21.5303 5.09298 20.347V19.2091H6.09428L6.59494 19.6643C7.59624 20.529 7.96034 20.9842 7.96034 21.4848C7.96034 21.7579 8.00586 21.8489 8.18791 22.031C8.41548 22.2586 8.46099 22.2586 8.77958 22.2586C9.05267 22.2586 9.1437 22.213 9.32575 22.0765C9.55332 21.8944 9.55332 21.8489 9.55332 21.3483C9.55332 20.9387 9.50781 20.7566 9.32575 20.3925C9.09819 19.8918 8.36997 19.0726 7.96034 18.7085L7.68726 18.4809L8.1424 18.0713C8.68856 17.5707 9.1892 16.9335 9.41677 16.4328C9.55331 16.1597 9.59884 15.9322 9.59884 15.5681C9.59884 15.0674 9.59884 15.0674 9.37127 14.8398C9.18922 14.6578 9.09818 14.6578 8.73407 14.6578C8.32445 14.6578 8.27894 14.6578 8.1424 14.8398C8.05137 14.9764 8.00586 15.1129 8.00586 15.3405C8.00586 15.5225 7.96034 15.7501 7.91483 15.8411C7.77829 16.1142 7.27764 16.7059 6.64045 17.2521L6.1398 17.6617H5.13849V16.5238C5.13849 15.9322 5.09299 15.295 5.04747 15.1584C4.95645 14.7943 4.68336 14.6123 4.27374 14.6123C3.95514 14.6578 3.90962 14.6578 3.72757 14.8398ZM12.4207 14.7488C11.5104 15.0219 11.0098 15.7046 10.6456 17.0245C10.4636 17.6162 10.4636 17.8437 10.4181 19.5733C10.3726 21.6214 10.4181 21.8489 10.7367 22.0765C10.9642 22.2586 11.5559 22.2586 11.738 22.0765C11.9655 21.8944 12.0566 21.6669 12.0566 20.9842V20.3015H15.6066V21.0752C15.6066 21.8034 15.6066 21.8489 15.7887 22.031C15.9707 22.213 16.0618 22.213 16.3804 22.213C16.7445 22.213 16.79 22.213 16.972 21.9855L17.1541 21.7579V19.5733C17.1086 17.5251 17.1086 17.3431 16.972 16.888C16.6534 15.7956 16.1528 15.1129 15.5156 14.8398C15.1515 14.6578 15.0605 14.6578 13.9226 14.6578C13.0579 14.6578 12.6027 14.6578 12.4207 14.7488ZM14.7874 16.2963C15.1515 16.4328 15.4701 17.2521 15.5611 18.2989L15.6066 18.754H12.0566L12.1021 18.2078C12.1931 17.2521 12.5572 16.3418 12.9213 16.2508C13.2399 16.2052 14.5598 16.2508 14.7874 16.2963ZM19.3388 14.7488C18.656 14.9764 18.2919 15.295 18.0644 15.8866C17.9278 16.2052 17.9278 16.3873 17.9278 16.9335C17.9278 18.0258 18.2464 18.663 19.0202 19.0271C19.3387 19.1636 19.4298 19.2091 20.7952 19.2091C22.2061 19.2547 22.2516 19.2547 22.3882 19.3912C22.5702 19.5733 22.6157 20.1649 22.4337 20.438L22.2971 20.6201H20.4766C18.7471 20.6201 18.6105 20.6201 18.474 20.7566C18.1099 21.0752 18.0644 21.7124 18.4285 22.031L18.656 22.213H20.6586C21.751 22.213 22.7523 22.1675 22.8888 22.122C23.2529 22.031 23.6626 21.6214 23.9356 21.1207C24.1632 20.7111 24.1632 20.6201 24.1632 19.8919C24.1632 19.2091 24.1632 19.1181 23.9811 18.754C23.7536 18.2534 23.435 17.9348 23.1164 17.7527C22.8888 17.6617 22.6612 17.6162 21.2958 17.5707C19.4753 17.5251 19.5208 17.5707 19.5208 16.8424C19.5208 16.1142 19.4298 16.1597 21.6144 16.1142L23.4805 16.0687L23.6625 15.8866C23.8446 15.7046 23.8446 15.6591 23.8901 15.1129L23.9356 14.5212H21.7965C20.249 14.6578 19.5208 14.7033 19.3388 14.7488ZM26.1203 14.7488C25.9837 14.7943 25.7562 14.8854 25.6196 14.9309C24.7549 15.386 24.3452 16.979 24.8914 18.0713C25.119 18.5264 25.3466 18.7995 25.7562 19.0271C26.0748 19.2091 26.1203 19.2091 27.4857 19.2547C28.2594 19.2547 28.9421 19.3002 29.0332 19.3457C29.2607 19.4367 29.3973 19.8008 29.3062 20.2104C29.2152 20.7111 29.3062 20.7111 27.2126 20.7111H25.3465L25.1645 20.8931C24.9824 21.0752 24.9824 21.1662 24.9824 21.4848C24.9824 21.8034 25.028 21.8944 25.1645 22.0765L25.3465 22.2586H27.3947C29.7159 22.2586 29.7614 22.2586 30.2165 21.8034C30.6261 21.3938 30.8082 20.9387 30.8537 20.1194C30.8992 19.2091 30.7172 18.663 30.2165 18.1623C29.9889 17.9348 29.7614 17.7982 29.5793 17.7527C29.4428 17.7072 28.7601 17.6617 28.0319 17.6617C27.3036 17.6617 26.6664 17.6617 26.5299 17.6162C26.3023 17.5707 26.1658 17.3431 26.1658 16.9335C26.1658 16.5238 26.2568 16.2963 26.5299 16.2508C26.6664 16.2508 27.4857 16.2052 28.396 16.2052C30.5351 16.2052 30.5806 16.1597 30.5806 15.1584V14.6578H28.4415C27.0306 14.6578 26.3023 14.7033 26.1203 14.7488ZM33.63 14.7943C33.448 14.8854 33.1749 15.0219 33.0384 15.1129C32.4922 15.5225 31.9915 16.6149 31.855 17.7527C31.764 18.5264 31.764 21.5759 31.855 21.8489C31.946 22.122 32.2191 22.2586 32.6287 22.2586C32.8563 22.2586 32.9928 22.213 33.1749 22.0765L33.4025 21.8945V21.1207L33.448 20.347H36.907L36.9525 21.1207V21.8945L37.1801 22.0765C37.3621 22.2586 37.4532 22.2586 37.7263 22.2586C37.9993 22.2586 38.0904 22.213 38.2724 22.0765L38.5 21.8945V19.7553C38.5 17.7982 38.5 17.5707 38.3634 17.07C38.0449 15.9322 37.5897 15.2495 36.9525 14.9309C36.5429 14.7488 36.5429 14.7488 35.2685 14.7033C34.1307 14.6578 33.9486 14.6578 33.63 14.7943ZM36.3609 16.4783C36.6339 16.7969 36.8615 17.4796 36.8615 18.1623L36.907 18.7085H33.4025V18.2989C33.4025 17.4341 33.7666 16.4328 34.1762 16.2508C34.2672 16.2052 34.7224 16.2052 35.2685 16.2052H36.1788L36.3609 16.4783Z" fill="#D31223"/>
</svg>
