<svg width="19" height="18" viewBox="0 0 19 18" fill="none" xmlns="http://www.w3.org/2000/svg">
<path d="M14.5702 10.7858C14.339 11.0099 14.2327 11.334 14.2854 11.6519L15.0791 16.0447C15.1461 16.4171 14.989 16.7938 14.6774 17.009C14.372 17.2322 13.9658 17.259 13.6327 17.0805L9.67825 15.018C9.54075 14.9447 9.38807 14.9055 9.23182 14.901H8.98986C8.90593 14.9135 8.82379 14.9403 8.74879 14.9813L4.79343 17.0537C4.59789 17.1519 4.37647 17.1867 4.1595 17.1519C3.63093 17.0519 3.27825 16.5483 3.36486 16.0171L4.1595 11.6242C4.21218 11.3037 4.10593 10.9778 3.87468 10.7501L0.650573 7.6251C0.38093 7.36349 0.28718 6.97063 0.410394 6.61617C0.530037 6.2626 0.835394 6.00456 1.20414 5.94652L5.64164 5.30277C5.97914 5.26795 6.27557 5.0626 6.42736 4.75902L8.38272 0.750096C8.42914 0.66081 8.48897 0.578667 8.56129 0.509024L8.64164 0.446524C8.68361 0.400096 8.73182 0.361703 8.78539 0.330453L8.88272 0.294739L9.0345 0.232239H9.41039C9.74611 0.26706 10.0416 0.467953 10.1961 0.767953L12.1774 4.75902C12.3202 5.05099 12.5979 5.25367 12.9184 5.30277L17.3559 5.94652C17.7309 6.0001 18.0443 6.25902 18.1684 6.61617C18.2854 6.9742 18.1845 7.36706 17.9095 7.6251L14.5702 10.7858Z" fill="#FFBC03"/>
</svg>
