<svg width="16" height="16" viewBox="0 0 16 16" fill="none" xmlns="http://www.w3.org/2000/svg">
<path fill-rule="evenodd" clip-rule="evenodd" d="M5.48402 5.80742H10.8208C12.3924 5.80742 13.6666 7.05381 13.6666 8.5911V11.883C13.6666 13.4203 12.3924 14.6667 10.8208 14.6667H5.1785C3.60755 14.6667 2.33331 13.4203 2.33331 11.883V8.5911C2.33331 7.32681 3.20042 6.27125 4.38049 5.93199L4.30665 5.9406V4.9248C4.3202 2.94421 5.96703 1.33337 7.98575 1.33337C9.56416 1.33337 10.959 2.30809 11.4738 3.75195C11.528 3.89773 11.5145 4.05676 11.4467 4.19591C11.379 4.33506 11.2577 4.44108 11.108 4.48813C10.8032 4.59349 10.4645 4.43512 10.3493 4.13031C10.0038 3.14897 9.05609 2.49297 7.9993 2.49297C6.61668 2.49297 5.4996 3.58033 5.49215 4.91155V5.80609L5.48402 5.80742ZM7.9966 11.5524C8.32854 11.5524 8.59274 11.2939 8.59274 10.9693V9.49823C8.59274 9.18017 8.32854 8.92175 7.9966 8.92175C7.67144 8.92175 7.40724 9.18017 7.40724 9.49823V10.9693C7.40724 11.2939 7.67144 11.5524 7.9966 11.5524Z" fill="#41B448"/>
</svg>
