<svg width="42" height="28" viewBox="0 0 42 28" fill="none" xmlns="http://www.w3.org/2000/svg">
<path d="M0 3.5C0 1.567 1.567 0 3.5 0H38.5C40.433 0 42 1.567 42 3.5V24.5C42 26.433 40.433 28 38.5 28H3.5C1.567 28 0 26.433 0 24.5V3.5Z" fill="#D8E3F3"/>
<path d="M36.1462 8.78076H33.9459C33.2807 8.78076 32.769 8.98544 32.462 9.65064L28.2661 19.2194H31.2339C31.2339 19.2194 31.7456 17.9401 31.848 17.6331C32.155 17.6331 35.0717 17.6331 35.481 17.6331C35.5834 17.9913 35.8392 19.1682 35.8392 19.1682H38.5L36.1462 8.78076ZM32.6667 15.484C32.9225 14.8699 33.7924 12.5673 33.7924 12.5673C33.7924 12.6185 34.0483 11.9533 34.1506 11.5951L34.3553 12.5161C34.3553 12.5161 34.9182 15.0235 35.0205 15.5351H32.6667V15.484Z" fill="#3362AB"/>
<path d="M28.4707 15.7909C28.4707 17.9401 26.5262 19.3728 23.5072 19.3728C22.228 19.3728 20.9999 19.117 20.3347 18.8099L20.7441 16.4561L21.1023 16.6097C22.0233 17.019 22.6373 17.1725 23.7631 17.1725C24.5818 17.1725 25.4517 16.8655 25.4517 16.1491C25.4517 15.6886 25.0935 15.3816 23.9678 14.8699C22.8932 14.3582 21.4604 13.5395 21.4604 12.0556C21.4604 10.0088 23.4561 8.6272 26.2704 8.6272C27.3449 8.6272 28.266 8.83188 28.8289 9.08772L28.4195 11.3392L28.2148 11.1345C27.7031 10.9298 27.0379 10.7252 26.0657 10.7252C24.9911 10.7763 24.4795 11.2368 24.4795 11.6462C24.4795 12.1067 25.0935 12.4649 26.0657 12.9254C27.7031 13.693 28.4707 14.5629 28.4707 15.7909Z" fill="#3362AB"/>
<path d="M3.5 8.88315L3.55117 8.67847H7.95175C8.56579 8.67847 9.02632 8.88315 9.17982 9.54835L10.152 14.1536C9.17982 11.6975 6.92836 9.70186 3.5 8.88315Z" fill="#F9B50B"/>
<path d="M16.3435 8.78091L11.8917 19.1683H8.87269L6.31421 10.4695C8.15631 11.6464 9.6914 13.4885 10.2543 14.7677L10.5613 15.8423L13.3244 8.72974H16.3435V8.78091Z" fill="#3362AB"/>
<path d="M17.5204 8.72974H20.3348L18.5438 19.1683H15.7295L17.5204 8.72974Z" fill="#3362AB"/>
</svg>
