<svg width="42" height="28" viewBox="0 0 42 28" fill="none" xmlns="http://www.w3.org/2000/svg">
<path d="M0 3.5C0 1.567 1.567 0 3.5 0H38.5C40.433 0 42 1.567 42 3.5V24.5C42 26.433 40.433 28 38.5 28H3.5C1.567 28 0 26.433 0 24.5V3.5Z" fill="#FAE3D1"/>
<path d="M30.2869 10.6256C30.1895 10.0411 29.6537 9.65147 28.9231 9.65147C28.6796 9.65147 28.4848 9.65147 28.2412 9.65147C27.8029 9.60277 27.7055 9.74889 27.7055 10.0898C27.7055 11.7945 27.7055 13.4506 27.7055 15.1553C27.7055 16.032 26.8288 16.9574 25.8059 17.1522C22.5913 17.8828 19.3767 18.5647 16.1621 19.2953C15.8212 19.3927 15.4315 19.3927 15.0419 19.3927C14.8958 19.3927 14.6522 19.2953 14.6035 19.1492C14.5548 19.0518 14.7009 18.8569 14.7983 18.7595C14.9445 18.6621 15.1393 18.5647 15.3341 18.4673C15.9186 18.2725 16.5518 18.0776 17.1362 17.8828C19.5228 17.1035 21.9094 16.3242 24.296 15.4962C25.3676 15.1553 25.952 14.4247 25.952 13.4993C26.0007 10.5769 25.952 7.60582 25.952 4.68345C25.952 4.19639 25.7085 3.80674 25.1727 3.61192C24.5396 3.36838 23.9551 3.56321 23.4193 3.80674C20.0099 5.41404 16.6492 7.02135 13.2397 8.62865C12.2656 9.11571 11.6812 9.79759 11.6812 10.7717C11.6812 13.548 11.6812 16.3242 11.6812 19.1005C11.6812 19.2466 11.6811 19.3927 11.7298 19.4901C12.0708 20.4155 12.9475 21 14.1165 21C16.5031 21 18.8896 21 21.2762 21C23.6628 21 26.0007 21 28.3873 21C28.9231 21 29.3615 20.9026 29.7511 20.5616C30.2382 20.172 30.2382 19.6362 30.2382 19.1492C30.2382 16.7529 30.2869 10.6256 30.2869 10.6256ZM20.3508 9.74889C20.5944 9.11571 21.1301 8.72606 21.9094 8.62865C22.4452 8.57994 22.8836 8.87218 22.981 9.35924C23.0784 10.0898 22.2017 10.9665 21.2762 10.9665C20.5457 10.9665 20.1073 10.4308 20.3508 9.74889Z" fill="#E47418"/>
</svg>
