<svg width="23" height="23" viewBox="0 0 23 23" fill="none" xmlns="http://www.w3.org/2000/svg">
<g clip-path="url(#clip0_19_410)">
<path fill-rule="evenodd" clip-rule="evenodd" d="M11.0898 0C17.2135 0 22.1796 4.96611 22.1796 11.0898C22.1796 17.2135 17.2134 22.1796 11.0898 22.1796C4.96606 22.1796 0 17.2134 0 11.0898C0 4.96606 4.96611 0 11.0898 0ZM16.6192 8.8836C16.6192 9.6393 16.5021 10.3098 16.2644 10.8917C16.0302 11.4735 15.6861 11.9632 15.2355 12.3605C14.7849 12.7614 14.2315 13.063 13.5786 13.2723C12.9223 13.4781 12.1524 13.5845 11.2654 13.5845H10.1443V17.8775C10.1443 17.9449 10.1195 18.0087 10.0769 18.062C10.0308 18.1187 9.95626 18.1649 9.85336 18.1968C9.74686 18.2323 9.60856 18.2606 9.43466 18.2819C9.26436 18.3032 9.04086 18.3139 8.77126 18.3139C8.50866 18.3139 8.28876 18.3032 8.11136 18.2819C7.93396 18.2606 7.79196 18.2323 7.68916 18.1968C7.58626 18.1649 7.51176 18.1187 7.47266 18.062C7.43016 18.0087 7.40886 17.9449 7.40886 17.8775V13.5613H6.74826C6.60666 13.5613 6.49086 13.4421 6.49086 13.2963V11.7885C6.49086 11.6427 6.60666 11.5235 6.74826 11.5235H7.40886V5.7756C7.40886 5.4528 7.49396 5.208 7.66426 5.0448C7.83456 4.8816 8.05806 4.8 8.33486 4.8H11.5031C11.8224 4.8 12.1276 4.8106 12.4149 4.8355C12.7023 4.8603 13.0465 4.9135 13.4474 4.9916C13.8518 5.0732 14.2563 5.2186 14.6678 5.435C15.0829 5.6479 15.4342 5.9211 15.7251 6.2511C16.016 6.5775 16.236 6.9642 16.3886 7.4041C16.5411 7.8441 16.6192 8.3372 16.6192 8.8836H16.6192ZM13.7596 9.0823C13.7596 8.6104 13.678 8.2237 13.5112 7.9186C13.3445 7.6134 13.1387 7.3864 12.8975 7.2409C12.6562 7.0955 12.4007 7.0068 12.1347 6.9677C11.865 6.9287 11.5918 6.911 11.308 6.911H10.1443V11.4735H11.3683C11.8047 11.4735 12.1701 11.4132 12.4646 11.2961C12.7591 11.1791 13.0003 11.0123 13.1884 10.803C13.3764 10.5901 13.5183 10.3382 13.6141 10.0437C13.7099 9.74928 13.7596 9.42998 13.7596 9.08228L13.7596 9.0823Z" fill="#EBA627"/>
</g>
<defs>
<clipPath id="clip0_19_410">
<rect width="22.1796" height="22.1796" fill="white"/>
</clipPath>
</defs>
</svg>
