<svg width="44" height="44" viewBox="0 0 44 44" fill="none" xmlns="http://www.w3.org/2000/svg">
<path fill-rule="evenodd" clip-rule="evenodd" d="M22 0C34.1482 0 44 9.85178 44 22C44 34.1482 34.1482 44 22 44C9.85178 44 0 34.1482 0 22C0 9.85178 9.85178 0 22 0ZM24.7854 7.64341C26.7444 7.64341 28.3338 9.23274 28.3338 11.1917C28.3338 13.1511 26.7444 14.7403 24.7854 14.7403C22.8258 14.7403 21.237 13.1511 21.237 11.1917C21.237 9.23274 22.8258 7.64341 24.7854 7.64341ZM17.2181 17.0901L19.1158 16.4417L20.2539 16.1956L21.3487 16.1059L22.4646 16.1956L23.6702 16.4645L25.0313 17.1789L25.7234 18.0063L26.1032 19.034L26.3266 20.1516L26.0811 22.2756L25.4111 24.667L24.8984 26.3433L24.2508 28.6008L23.916 29.4954L23.6476 30.9697L23.6031 31.9307L23.7819 32.5348L24.1835 33.2279L24.7633 33.5628L25.7685 33.6743L26.6619 33.5628L27.4207 33.6521L27.7775 34.0095L27.6214 34.5018L26.7289 35.1947L25.5228 35.6413L23.9602 36.2005L22.3307 36.3566L20.7682 36.2005L19.6067 35.8644L18.6242 35.1498L17.7317 34.1659L17.3297 32.9149L17.2853 31.7746L17.5083 29.9639L18.3792 26.7903L19.295 23.7504L19.7859 21.6717L19.8745 20.4429L19.6294 19.5486L19.1825 19.0791L18.6028 18.7657H18.0221L17.3075 18.8554H16.7158L16.1346 18.8222L15.8223 18.7106L15.6662 18.3308L15.7786 17.906L16.2247 17.5482L16.7825 17.2799L17.2181 17.0901Z" fill="#56BBED"/>
</svg>
