<svg width="21" height="24" viewBox="0 0 21 24" fill="none" xmlns="http://www.w3.org/2000/svg">
<g clip-path="url(#clip0_19_772)">
<path fill-rule="evenodd" clip-rule="evenodd" d="M14.3096 0.0797529L14.185 0.0701052V0.13062H14C13.9762 0.21779 13.5323 0.37002 13.414 0.372618L13.4313 0.398716L13.1365 0.584343L12.9964 0.604473L12.3964 1.03807H12.2422C12.1892 1.18179 11.5687 1.65373 11.4026 1.87816C11.3076 2.00655 11.1233 2.16862 11.0516 2.35059C10.9678 2.56337 10.7373 2.61665 10.7312 2.88326C10.6578 2.92139 10.5154 3.12071 10.5154 3.21599V3.36726L10.4792 3.35223L10.207 3.91174V4.15371C10.207 4.27016 10.1899 4.27817 10.1206 4.30532L10.0836 5.00067L10.0728 5.27464L10.1453 5.7569H10.8854C11.0465 5.7569 11.4528 5.54515 11.533 5.54515H11.7797C11.8266 5.41787 12.2795 5.26916 12.4396 5.164C12.5853 5.06826 12.9993 4.86204 13.0207 4.71197L13.3215 4.57718C13.3281 4.50009 13.6282 4.17411 13.678 4.14038C13.9874 3.93094 13.8793 3.91557 14.0587 3.72732C14.09 3.69444 14.226 3.54552 14.2428 3.51475C14.2986 3.41262 14.2922 3.33482 14.3715 3.24768C14.4867 3.12105 14.5848 2.79485 14.7092 2.76226L14.7339 2.59287L14.8634 2.39926V2.27826C14.8634 2.27548 15.0289 1.77417 15.0561 1.62039C15.0841 1.46222 15.1409 0.998419 15.1409 0.826336V0.312099C15.1409 0.193481 15.1345 0.00961685 15.0176 0.00961685L14.9237 0L14.3096 0.0797486L14.3096 0.0797529ZM7.74536 5.75613L6.66578 5.5774L5.76646 5.60567C5.46133 5.60567 5.12412 5.75691 4.77967 5.75691L4.14553 6.03187L3.25239 6.48219L3.26866 6.51314H3.11448L3.13511 6.54199L2.9178 6.69123L2.89862 6.66435C2.84722 6.85323 2.57775 6.81117 2.55943 7.02735C2.29113 7.03323 2.32481 7.30537 2.09687 7.32983C2.0829 7.45494 1.97095 7.47127 1.883 7.57378C1.78635 7.68637 1.78199 7.67088 1.68991 7.80786C1.6381 7.88495 1.55746 7.98959 1.49474 8.07014C1.36885 8.23181 1.37428 8.17973 1.2762 8.27927C1.14347 8.41403 0.684033 9.19702 0.678357 9.44727H0.585864L0.397536 10.0721L0.431657 10.0825C0.394383 10.1371 0.369974 10.1357 0.369974 10.2035V10.4152C0.276157 10.4485 0.154116 11.0405 0.154116 11.1412V11.3227C-0.00204652 11.3845 -5.9812e-05 12.5454 -5.9812e-05 12.8351V13.0771C-5.9812e-05 13.6442 0.0935367 14.5971 0.209334 15.0496C0.289023 15.3611 0.277986 15.6646 0.411033 15.9407C0.472905 16.0692 0.585864 16.679 0.585864 16.8582H0.647515V17.191L0.74067 17.2195L0.943882 17.7706L1.35457 18.7826L1.49048 18.9609L1.51095 19.0664C1.51095 19.0989 2.09845 20.0891 2.16874 20.2058C2.30756 20.4364 2.36975 20.5539 2.52606 20.7628C2.60001 20.8615 2.86526 21.1939 2.86778 21.3048C2.95907 21.3287 3.16345 21.7078 3.25472 21.8024C3.37247 21.9245 3.6 22.1401 3.63869 22.303C3.75367 22.3153 4.11427 22.7528 4.21635 22.8556C4.25454 22.8941 4.49449 23.1055 4.52748 23.1251C4.71316 23.2353 4.70524 23.2504 4.84696 23.3562C4.93488 23.4218 5.11129 23.5442 5.21368 23.5712C5.44023 23.631 5.41548 23.6815 5.57539 23.7609C5.65811 23.8019 5.88409 23.895 5.99428 23.9247C6.05788 23.9419 6.45841 23.9969 6.47569 23.9969H6.78411C7.03746 23.9969 7.15909 23.9453 7.43304 23.9378C7.66577 23.9314 7.7721 23.7852 7.98673 23.7852L8.02331 23.6966L9.24757 23.2618C9.34091 23.1044 9.64555 23.0895 9.89861 23.0895V23.029L10.7611 22.958L11.533 22.9685V23.029L12.6427 23.2126C12.6701 23.276 13.0831 23.4158 13.1749 23.4753C13.3131 23.565 13.5233 23.6142 13.6916 23.7247L13.7039 23.6955L14.1004 23.8571L14.2466 23.8759L14.3355 23.9408L14.9868 23.9964C15.1448 24.0156 15.646 23.9542 15.7691 23.9174C15.9709 23.857 16.2317 23.7247 16.4052 23.7247C16.4824 23.5371 16.9902 23.4406 17.0528 23.2105H17.207C17.2157 23.1076 17.6628 22.7069 17.7621 22.6962C17.7788 22.5465 17.9204 22.5453 17.9779 22.303C18.0951 22.2934 18.2764 22.087 18.2863 21.9702C18.419 21.9399 18.552 21.7467 18.5638 21.6073C18.7797 21.5841 18.9418 21.0487 19.1189 21.0023L19.1869 20.793C19.3361 20.7779 19.3347 20.7077 19.3347 20.5486C19.4667 20.5184 19.7323 20.1502 19.7356 20.0041C19.998 19.8679 20.2227 19.0408 20.4141 18.9151C20.4141 18.6447 20.9999 17.7816 20.9999 17.6144C20.9999 17.4833 20.4545 17.3337 20.3256 17.2475C20.1435 17.1257 19.8409 16.9749 19.6868 16.8457C19.4767 16.6695 18.6934 16.0737 18.6872 15.7995C18.2484 15.6992 18.0144 14.5962 17.7621 14.2266V13.8938L17.5752 13.2971L17.6123 13.2852L17.5417 13.2018L17.5075 12.7754L17.5154 12.3814L17.673 11.3232L17.8797 10.7364L18.0522 10.2985C18.1083 10.2762 18.1321 10.2872 18.1321 10.2035V10.0825C18.3129 10.0631 18.3196 9.87372 18.3923 9.73274C18.3949 9.72783 18.6501 9.40639 18.6628 9.39312C18.7486 9.30379 18.8881 9.11133 18.944 9.06392C19.0634 8.96272 19.1951 8.9441 19.2114 8.75152C19.3864 8.71153 19.6187 8.48534 19.7904 8.38181C19.909 8.31029 19.9085 8.24869 20.037 8.16993C20.1891 8.07664 20.2554 8.1319 20.2599 7.9348C20.2258 7.92135 19.6709 7.30599 19.5744 7.21573C19.4261 7.07679 18.8475 6.70965 18.8105 6.5736H18.6563L18.1772 6.23503L17.5847 5.98196L17.577 5.90815L16.9854 5.77852L16.9932 5.74392L15.9166 5.5761L15.3876 5.60567L14.246 5.68909L14.1579 5.7613C13.8823 5.75691 13.4246 5.89191 13.2563 5.99544C13.1011 6.09093 12.6848 6.30139 12.4581 6.30139L12.3693 6.36626L12.1806 6.36187L12.0918 6.42675C11.9177 6.42239 11.8262 6.38713 11.7797 6.51314H11.533C11.4258 6.51314 11.4859 6.5736 11.3788 6.5736H10.4845C10.1263 6.5736 9.83479 6.36187 9.40522 6.36187L9.36864 6.27328L9.28188 6.27111C9.18617 6.27111 8.54812 6.00308 8.35677 5.9989L8.32763 5.9075L7.75933 5.8493L7.74536 5.75613L7.74536 5.75613Z" fill="#DEDEDD"/>
</g>
<defs>
<clipPath id="clip0_19_772">
<rect width="21" height="24" fill="white"/>
</clipPath>
</defs>
</svg>
