<svg width="35" height="31" viewBox="0 0 35 31" fill="none" xmlns="http://www.w3.org/2000/svg">
<path fill-rule="evenodd" clip-rule="evenodd" d="M8.8862e-06 21.4614V3.45759C8.8862e-06 1.32774 1.19623 0 3.29954 0H31.9359C33.5332 0 35 1.1946 35 2.74229V22.1767C35 25.602 30.1872 24.9192 26.7508 24.9192C23.0583 24.9192 19.3658 24.9192 15.6735 24.9192C14.3293 25.8298 10.3694 31 9.07407 31H8.83828C8.14968 31 7.54202 30.385 7.54202 29.6883V24.9192H3.41742C1.27662 24.9192 0 23.6371 0 21.4614L8.8862e-06 21.4614ZM6.74651 5.50083H29.0592C29.321 5.50083 29.5351 5.7175 29.5351 5.98231V9.03046C29.5351 9.29528 29.321 9.51195 29.0592 9.51195H6.74651C6.48477 9.51195 6.27062 9.29528 6.27062 9.03046V5.98231C6.27062 5.7175 6.48477 5.50083 6.74651 5.50083ZM6.74651 13.9241H29.0592C29.321 13.9241 29.5351 14.1408 29.5351 14.4056V17.4538C29.5351 17.7186 29.321 17.9353 29.0592 17.9353H6.74651C6.48477 17.9353 6.27062 17.7186 6.27062 17.4538V14.4056C6.27062 14.1408 6.48477 13.9241 6.74651 13.9241Z" fill="#63CC48"/>
</svg>
