<svg width="50" height="50" viewBox="0 0 50 50" fill="none" xmlns="http://www.w3.org/2000/svg">
<path d="M25 50C38.8071 50 50 38.8071 50 25C50 11.1929 38.8071 0 25 0C11.1929 0 0 11.1929 0 25C0 38.8071 11.1929 50 25 50Z" fill="#A4D9E7"/>
<path fill-rule="evenodd" clip-rule="evenodd" d="M49.8012 28.1673C49.0854 33.829 46.3235 39.0495 42.4752 42.8764L33.9556 40.3006L29.2784 6.31934L49.8012 28.1673L49.8012 28.1673Z" fill="#71A3B0"/>
<path fill-rule="evenodd" clip-rule="evenodd" d="M25.3338 5.73239C27.9927 5.33739 30.904 6.76625 32.5324 8.65167C37.3413 14.2476 36.1704 30.4174 35.3572 35.5927C32.7323 44.8139 22.9422 48.6535 23.2855 48.3187C25.0394 46.6079 26.3123 43.2777 26.7922 42.293C29.3209 37.1039 29.3234 31.4748 29.5415 29.8646C29.8807 28.7489 30.0555 22.9063 31.403 19.0684C29.4226 16.5149 29.587 12.2908 27.2179 10.2619C26.7493 9.86049 25.2682 10.1828 24.9015 9.70999C24.7808 8.65227 25.4545 6.79013 25.3338 5.73242L25.3338 5.73239Z" fill="#75503D"/>
<path fill-rule="evenodd" clip-rule="evenodd" d="M20.0861 28.7764C21.1443 31.3698 20.8106 35.0757 20.8879 37.1343C24.0371 37.391 27.1864 37.6478 30.3357 37.9046C30.2663 34.5744 28.0127 30.8147 30.9787 26.3075C27.2039 27.0872 23.8608 27.9967 20.0861 28.7764V28.7764Z" fill="#DEC39A"/>
<path fill-rule="evenodd" clip-rule="evenodd" d="M7.9562 43.2882C12.1348 46.9901 16.526 49.3471 23.2947 49.9384C23.8533 49.9872 24.4489 49.9863 25.0394 50V35.5278L18.2298 34.811C11.0432 36.0528 9.07853 38.049 7.95618 43.2882L7.9562 43.2882Z" fill="#B0997D"/>
<path fill-rule="evenodd" clip-rule="evenodd" d="M42.3683 42.9799C39.2433 46.1138 34.7482 48.4743 30.39 49.388C28.6632 49.7946 26.8756 49.9715 25.0396 49.9999V35.5277L31.7492 34.7402C38.6887 35.9394 41.236 38.1202 42.3683 42.9799L42.3683 42.9799Z" fill="#85745F"/>
<path fill-rule="evenodd" clip-rule="evenodd" d="M25.0394 35.528L29.2104 33.1626L31.9448 34.6436L27.9664 40.3067L25.0394 35.528Z" fill="#C2C1C1"/>
<path fill-rule="evenodd" clip-rule="evenodd" d="M25.099 35.5279L21.0371 33.1385L18.2296 34.8111L22.1124 40.3066L25.099 35.5279Z" fill="white"/>
<path fill-rule="evenodd" clip-rule="evenodd" d="M20.0862 28.7765C21.3225 29.8933 22.4733 30.8389 24.5004 32.084C27.8208 30.9202 29.5912 28.6853 30.7545 26.7407C27.1093 26.9649 23.7313 28.5524 20.0862 28.7765H20.0862Z" fill="#BFA784"/>
<path fill-rule="evenodd" clip-rule="evenodd" d="M27.9111 5.88631C25.347 5.07959 22.8041 5.50017 20.1328 7.10481C17.7859 8.68659 15.8464 11.3239 14.3469 15.7173C12.5371 21.0198 13.656 27.6571 12.9096 30.5033C11.5273 37.7008 12.1976 41.4307 12.6535 46.3598C18.4401 45.9485 20.3203 40.1178 20.8783 36.7541C21.1438 35.1537 21.0781 33.8477 20.8844 31.9975C20.8143 31.3284 20.57 29.4027 20.4836 29.1318C19.754 25.1302 19.0245 21.1285 18.2949 17.1269C21.0872 14.5055 24.6216 12.3933 27.4137 9.77209C27.6987 8.74638 27.6262 6.91203 27.9111 5.88631H27.9111Z" fill="#966344"/>
<path fill-rule="evenodd" clip-rule="evenodd" d="M26.7303 30.2543C28.7728 29.4272 30.9213 27.3714 31.3822 25.1106C31.9152 22.4965 32.0916 19.542 31.7675 17.4478C31.5419 15.9894 30.5697 14.2632 30.2083 13.1752C29.7986 11.9419 29.1274 11.1169 28.5977 10.7056C27.0019 8.86972 22.9339 9.07628 20.9349 10.4702C19.4548 11.5022 18.6584 13.3606 17.9433 16.9058C17.655 18.4327 17.6356 19.8209 17.7224 21.4733C17.7844 22.6548 17.7937 24.1333 18.3925 25.8206C19.2596 28.2633 20.7554 29.4003 21.9947 29.9619C23.1457 30.4528 25.1455 30.6291 26.7303 30.2543L26.7303 30.2543Z" fill="#F7DFBE"/>
<path fill-rule="evenodd" clip-rule="evenodd" d="M26.7304 30.254C28.7729 29.4269 30.9214 27.371 31.3823 25.1103C31.9153 22.4962 32.0917 19.5417 31.7676 17.4474C31.5419 15.9891 30.5698 14.2629 30.2084 13.1749C29.7987 11.9416 29.1275 11.1166 28.5978 10.7053C27.7789 9.76321 26.3092 9.35928 24.8019 9.37728V30.4552C25.4585 30.4598 26.1246 30.3972 26.7304 30.254V30.254Z" fill="#EDD0A5"/>
<path fill-rule="evenodd" clip-rule="evenodd" d="M24.263 26.8538H24.8838C25.7645 26.8538 26.796 26.002 27.116 25.3972C26.0644 25.8292 25.5126 25.3917 24.948 25.3395C24.8435 25.33 24.5771 25.7528 24.4922 25.7219L24.2413 25.3367C23.8903 25.3902 23.3463 25.6967 23.0039 25.7491L21.793 25.4527C21.9754 26.1096 23.474 26.8538 24.263 26.8538V26.8538Z" fill="#CC8D95"/>
<path fill-rule="evenodd" clip-rule="evenodd" d="M27.1158 25.3972C26.6118 25.6111 25.6041 25.2442 25.0396 25.183C24.9358 25.1717 24.6226 25.2995 24.534 25.2741C24.4244 25.2427 24.1941 25.1859 24.1128 25.1828C23.3978 25.2759 22.6336 25.5666 21.7928 25.4527C21.826 25.5114 22.002 25.6095 22.0379 25.6652C22.3563 25.8302 23.7382 25.9634 24.503 25.9723C24.8786 25.9767 27.0694 25.6045 27.1158 25.3972H27.1158Z" fill="#C07781"/>
<path fill-rule="evenodd" clip-rule="evenodd" d="M26.6809 16.9506L26.6642 17.1606C27.419 17.0463 27.7283 16.5931 28.6508 16.4297C29.852 16.3679 30.4413 16.8743 30.9773 17.0791C30.2558 16.4238 29.5448 15.8276 28.4046 16.0997C27.4452 16.3288 26.6942 16.7846 26.6809 16.9506L26.6809 16.9506Z" fill="#694C3D"/>
<path fill-rule="evenodd" clip-rule="evenodd" d="M26.8722 18.6743C27.4316 18.2333 27.6603 17.7891 28.3153 17.6533C28.8043 17.5519 29.5107 17.6237 29.904 17.9156C29.9536 17.9524 30.3433 18.3217 30.4145 18.4064C29.4148 19.3479 28.5516 19.8739 26.8722 18.6743L26.8722 18.6743Z" fill="white"/>
<path fill-rule="evenodd" clip-rule="evenodd" d="M27.5936 17.9193C27.7101 20.1479 30.0105 19.6183 29.6297 17.7018C28.7378 17.2649 28.3451 17.4066 27.5936 17.9193Z" fill="#5B483F"/>
<path fill-rule="evenodd" clip-rule="evenodd" d="M30.0867 17.8674C30.3531 18.1577 30.3607 18.2761 30.4952 18.6264C29.2757 17.3315 28.3321 17.2224 26.8722 18.6757C27.4133 16.9822 29.1592 16.8569 30.0867 17.8674V17.8674Z" fill="#605D5C"/>
<path fill-rule="evenodd" clip-rule="evenodd" d="M22.9265 16.9506L22.9432 17.1606C22.1884 17.0463 21.8791 16.5931 20.9566 16.4297C19.7553 16.3679 19.1661 16.8743 18.6301 17.0791C19.3516 16.4238 20.0626 15.8276 21.2028 16.0997C22.1622 16.3288 22.9132 16.7846 22.9265 16.9506L22.9265 16.9506Z" fill="#694C3D"/>
<path fill-rule="evenodd" clip-rule="evenodd" d="M22.7349 18.6743C22.1756 18.2333 21.9468 17.7891 21.2918 17.6533C20.8028 17.5519 20.0964 17.6237 19.7031 17.9156C19.6536 17.9524 19.2638 18.3217 19.1926 18.4064C20.1923 19.3479 21.0556 19.8739 22.7349 18.6743V18.6743Z" fill="white"/>
<path fill-rule="evenodd" clip-rule="evenodd" d="M22.0137 17.9193C21.8973 20.1479 19.5969 19.6183 19.9777 17.7018C20.8696 17.2649 21.2622 17.4066 22.0137 17.9193Z" fill="#5B483F"/>
<path fill-rule="evenodd" clip-rule="evenodd" d="M19.5206 17.8674C19.2541 18.1577 19.2466 18.2761 19.1121 18.6264C20.3316 17.3315 21.2752 17.2224 22.7351 18.6757C22.1939 16.9822 20.4481 16.8569 19.5206 17.8674V17.8674Z" fill="#605D5C"/>
</svg>
