<svg width="26" height="35" viewBox="0 0 26 35" fill="none" xmlns="http://www.w3.org/2000/svg">
<g clip-path="url(#clip0_19_742)">
<path fill-rule="evenodd" clip-rule="evenodd" d="M15.8312 9.71697C15.8887 9.72199 17.8667 10.6033 18.1103 10.7196C18.6634 10.9837 19.8857 11.527 19.8857 12.2262C19.8857 12.8274 19.7333 13.1262 19.6284 13.5769C19.565 14.3345 18.662 16.8812 18.3622 17.5868C17.7681 18.9867 17.2279 19.8534 16.5184 21.0832C15.959 22.052 12.342 26.5081 11.3263 26.5081C10.0624 26.5081 7.69841 23.8064 6.37108 23.8064H6.24241C5.6027 23.8064 4.85804 24.7716 4.54366 25.1958C4.22654 25.6236 3.37421 26.3863 2.96446 26.7695C2.39274 27.3036 0 29.3179 0 30.1107C0 30.4501 0.622372 31.6434 0.793477 31.9549C1.17676 32.6519 1.48566 32.9521 1.8662 33.5204C2.11396 33.5866 2.47169 33.9255 2.92067 34.0746C3.3149 34.2055 3.71552 34.4108 4.13028 34.5381C4.8252 34.7515 6.08774 35.0001 6.95012 35.0001C8.79989 35.0001 10.2002 34.4573 11.3405 33.7275C12.5026 32.9835 13.642 32.2072 14.7266 31.387C17.013 29.6578 18.625 27.9222 20.2334 25.5046C23.223 21.0111 25.9995 15.931 25.9995 8.49453V7.33683C25.9995 6.34974 25.6135 5.74763 25.5665 5.04562L24.7767 3.5408C24.7557 3.52529 23.9293 2.48118 23.8372 2.35711C23.484 1.88317 23.1299 1.67472 22.7334 1.27285C22.0221 0.551688 21.1081 0.00249038 19.6927 0.00249038C18.7761 0.00249038 17.3803 -0.0641066 16.9642 0.491476C16.5987 0.979551 16.3172 2.29325 16.167 2.97565C15.9754 3.84597 15.76 4.75826 15.5214 5.54693C15.4055 5.92918 14.8018 7.91249 14.8018 8.10863V8.55885C14.8018 9.16369 15.6113 9.38812 15.8312 9.717L15.8312 9.71697Z" fill="#0093DD"/>
</g>
<defs>
<clipPath id="clip0_19_742">
<rect width="26" height="35" fill="white"/>
</clipPath>
</defs>
</svg>
