<svg width="33" height="46" viewBox="0 0 33 46" fill="none" xmlns="http://www.w3.org/2000/svg">
<g clip-path="url(#clip0_19_712)">
<path fill-rule="evenodd" clip-rule="evenodd" d="M3.46001 33.8237L3.593 36.7755C3.593 39.6065 5.15633 42.0491 6.89491 43.3174C8.32353 44.3588 11.9376 46.0001 14.3714 46.0001C14.0558 45.7463 12.4057 45.1565 11.7356 44.7461C11.0512 44.3272 10.2704 43.6144 9.76701 42.9987C8.66486 41.6518 7.85094 39.9335 7.85094 37.636V36.1603C7.85094 35.1548 9.30069 32.2758 9.97991 31.8554C9.97991 34.0654 9.80354 34.8736 10.6431 36.4083C11.0986 37.2419 12.505 38.6363 13.5729 38.8663C13.3149 37.8417 11.8429 36.5086 11.8429 34.6842V33.2086C11.8429 31.3758 13.4582 28.8957 14.6374 28.1655C14.6374 29.495 14.5563 30.1682 15.1391 31.0229C15.5192 31.5816 16.1967 32.5433 16.8993 32.7164C16.8993 30.8356 18.6499 28.3766 18.4963 27.3045L18.0711 23.602C18.8827 23.9223 20.413 26.5939 20.7343 27.5731C21.0665 28.5876 21.8547 31.9889 21.1578 33.3315L20.3701 36.4236L21.5568 35.7911C22.6076 34.3403 23.9517 32.8921 23.9517 30.3798C24.4169 30.6947 24.7502 32.6114 24.7502 33.4545V33.7003C24.7502 34.7792 24.3941 35.5284 24.1041 36.3007C23.7742 37.1786 23.0904 37.7325 22.8872 38.2512C24.8541 38.2512 25.1172 37.3316 26.2142 36.6526C26.2142 39.1517 25.5487 41.1169 24.4329 42.6316C23.8821 43.3797 23.1441 44.0133 22.3781 44.5451C21.6818 45.0294 20.2029 45.5749 19.8268 45.8772C23.2485 45.6139 27.0515 43.3084 28.9762 41.5427C30.757 39.9088 33.0001 35.7773 33.0001 32.5934V28.5348H32.7341C32.6154 29.8548 31.5315 31.7741 30.6051 32.3476C31.0258 30.6794 32.0686 29.1236 32.0686 26.8128V24.7215C32.0686 22.5469 30.3563 19.1604 29.0081 18.3263C29.0247 18.999 29.2747 19.1936 29.2747 19.9248V22.262C29.2747 22.3148 28.4905 24.2267 28.3906 24.3971C28.0584 24.9658 27.5407 25.6247 27.0122 25.9518L27.1777 22.6323L27.1457 20.9093C27.1457 16.0989 25.039 11.2315 21.6898 9.59339C21.7223 9.95214 22.4375 11.6013 22.5973 12.0756C22.8176 12.7303 23.0202 14.1775 23.0202 15.0052V16.235C23.0202 17.3155 22.2371 18.8507 21.6898 19.4331C21.6898 14.8448 21.3051 13.1872 19.3747 10.2576C18.042 8.23541 15.1699 6.04599 15.1699 2.95177V2.58247C15.1699 1.43658 15.9005 0.694285 16.1014 0C14.5768 0.74546 13.0403 2.57877 13.0403 4.67377V5.53477C13.0403 7.16022 13.8388 8.65218 13.8388 10.4544V11.5612C13.8388 12.4918 13.7081 13.3317 12.9073 13.5296C12.7732 12.0355 9.91481 9.59863 8.25044 9.47044C9.22474 10.8152 10.2464 12.1215 10.2464 14.39V15.4969C10.2464 16.6364 9.96103 17.4278 9.5809 18.2033C9.33262 18.7098 8.47076 20.1142 8.38343 20.417H8.11745C7.63801 18.5162 6.33324 16.7272 3.85896 16.7272C4.36123 17.4204 6.12148 18.3943 6.12148 19.9248V21.7697C6.12148 22.4445 5.3692 24.1591 5.13519 24.9172C4.74821 26.1718 4.65746 26.9658 4.65746 28.5348C4.31044 28.2995 3.67917 26.9246 2.81959 26.2979C2.15579 25.8141 1.03309 25.1704 0 25.0908C1.19576 26.0515 2.24197 27.0059 2.63238 28.6846C3.0302 30.3939 3.45999 31.697 3.45999 33.8237L3.46001 33.8237Z" fill="#DC2323"/>
</g>
<defs>
<clipPath id="clip0_19_712">
<rect width="33" height="46" fill="white"/>
</clipPath>
</defs>
</svg>
