<svg width="20" height="22" viewBox="0 0 20 22" fill="none" xmlns="http://www.w3.org/2000/svg">
<g clip-path="url(#clip0_19_792)">
<path fill-rule="evenodd" clip-rule="evenodd" d="M13.5705 1.34672C13.0634 2.09699 12.7941 2.65052 12.7941 3.65455C12.7941 3.94612 12.8963 4.52703 12.9937 4.70947C12.0941 5.22783 6.70789 8.25012 6.23009 8.58081C5.87029 8.33665 5.42013 7.75193 4.34288 7.52283C2.58818 7.14976 0.845022 8.13948 0.172487 9.98414C-0.819676 12.7057 2.60955 16.367 6.10501 13.579C8.34151 14.8687 10.6651 16.1867 12.9153 17.4556L12.7713 18.4651L12.7941 18.4684C12.7941 22.8519 19.3993 23.3981 19.9804 18.7336C20.1552 17.3304 19.1188 15.6486 17.5409 15.1055C15.9869 14.5707 14.6882 15.1417 13.6033 16.2155C11.3884 14.9946 9.13817 13.6353 6.91656 12.4011C7.50875 10.7842 7.02411 10.2616 6.98252 9.76465C7.81478 9.29734 13.3219 6.20381 13.7026 5.93864C14.1977 6.27116 14.7098 7.01921 16.1848 7.12321C19.3923 7.3495 21.2519 3.36439 18.955 1.08839C17.4094 -0.4431 15.0681 -0.360692 13.5704 1.3467L13.5705 1.34672Z" fill="white"/>
</g>
<defs>
<clipPath id="clip0_19_792">
<rect width="20" height="22" fill="white"/>
</clipPath>
</defs>
</svg>
