<svg width="18" height="23" viewBox="0 0 18 23" fill="none" xmlns="http://www.w3.org/2000/svg">
<g clip-path="url(#clip0_19_798)">
<path fill-rule="evenodd" clip-rule="evenodd" d="M0.630107 0H17.3701C17.7166 0 18 0.287167 18 0.63814V22.3269C18 22.678 17.6762 23.1293 17.3701 22.9655L9.01063 18.4901L0.630085 22.9655C0.323555 23.1285 0 22.678 0 22.3269V0.63814C0 0.287167 0.283521 0 0.630085 0L0.630107 0ZM9.00005 4.52078L10.621 7.76037L14.3369 8.31469L11.6414 10.8381L12.2971 14.5075L8.94523 12.7713L5.66693 14.4712L6.28586 10.8561L3.66314 8.29672L7.32442 7.77817L9.00006 4.52078L9.00005 4.52078Z" fill="white"/>
</g>
<defs>
<clipPath id="clip0_19_798">
<rect width="18" height="23" fill="white"/>
</clipPath>
</defs>
</svg>
