<svg width="20" height="20" viewBox="0 0 20 20" fill="none" xmlns="http://www.w3.org/2000/svg">
<g clip-path="url(#clip0_19_769)">
<path fill-rule="evenodd" clip-rule="evenodd" d="M2.63437 0.27417C4.89911 1.48584 10.2009 4.28215 14.3147 6.50375L11.7368 8.98841L2.63439 0.274195L2.63437 0.27417ZM15.7711 7.29344C18.008 8.5127 19.6397 9.43393 19.7721 9.60065C20.5651 10.5986 19.0867 11.1713 18.5497 11.4514C18.1704 11.6494 17.1649 12.1836 15.8208 12.8983L12.8848 10.0875L15.7711 7.29344ZM14.2267 13.7462C10.4913 15.7335 5.40221 18.439 2.94784 19.7072L11.7013 11.2333L14.2267 13.7462L14.2267 13.7462ZM0.311812 20C0.145285 19.7564 0.045155 19.4267 0.031708 19.0338C-0.0159764 17.6404 -0.0219789 0.964412 0.0997807 0.547545C0.166881 0.317733 0.273719 0.135069 0.411943 0L10.5727 10.1104L0.311854 20L0.311812 20Z" fill="#DEDEDD"/>
</g>
<defs>
<clipPath id="clip0_19_769">
<rect width="20" height="20" fill="white"/>
</clipPath>
</defs>
</svg>
