<svg width="191" height="49" viewBox="0 0 191 49" fill="none" xmlns="http://www.w3.org/2000/svg">
<path fill-rule="evenodd" clip-rule="evenodd" d="M18.3454 0H21.6546C31.7446 0 40 7.63486 40 16.9672V32.0327C40 41.365 31.7445 48.9999 21.6546 48.9999H18.3454C8.25491 48.9999 0 41.365 0 32.0327V16.9672C0 7.63486 8.25491 0 18.3454 0V0ZM18.5979 3.50601H21.4021C30.0816 3.50601 37.1823 10.0813 37.1823 18.1178V30.8822C37.1823 38.9192 30.0816 45.4945 21.4021 45.4945H18.5979C9.91885 45.4945 2.81767 38.9192 2.81767 30.8822V18.1178C2.81767 10.0813 9.91885 3.50601 18.5979 3.50601V3.50601ZM4.37324 26.1537C7.6052 24.6051 22.6725 19.7527 25.3397 19.4203C27.0493 19.2074 29.4542 19.8405 30.9637 20.8769C30.5634 21.8481 30.3222 21.6496 28.2585 22.6177L21.1682 26.3124C22.5143 26.9906 25.8941 28.3799 26.0517 30.22L25.8738 31.0729C23.6592 31.3608 18.6804 30.1606 16.4937 29.652L13.9981 31.6838L19.3596 35.1935L19.9647 36.1885C18.8426 37.98 18.9313 37.9329 14.7323 37.3608L9.30075 36.4852L7.54762 39.0804C10.161 42.0416 14.1484 43.9443 18.5989 43.9443H21.401C29.2266 43.9443 35.6267 38.0663 35.6267 30.8816V18.1188C35.6267 17.0638 35.4862 16.0357 35.2259 15.0511H4.77403C4.51373 16.0357 4.37321 17.0638 4.37321 18.1188V26.1537H4.37324ZM20.0021 26.9802L17.733 28.6627L23.8448 29.7936C23.4705 28.4875 21.1501 27.5736 20.0021 26.9802V26.9802ZM12.96 32.5388L10.3622 35.1795C12.7987 35.6887 15.5096 36.3306 17.9715 36.3306C17.8455 34.7045 14.275 33.1745 12.96 32.5388L12.96 32.5388ZM6.36749 27.0939C9.25619 25.8823 24.2358 19.7356 27.2619 20.9482L27.6892 21.2676C24.6574 23.5827 17.3374 25.9222 10.105 33.1332C8.48205 34.751 7.71204 36.0298 6.04084 36.9959L6.00143 36.9271L5.7095 36.3875C4.8529 34.7123 4.37327 32.8463 4.37327 30.8816V29.0705V28.5148L6.36751 27.0939L6.36749 27.0939ZM16.3335 11.2142V13.1319H23.3818V11.0721L16.3335 11.2142V11.2142ZM18.3454 1.55059H21.6546C30.8895 1.55059 38.4444 8.48768 38.4444 16.9676V32.0327C38.4444 40.5127 30.8895 47.4497 21.6546 47.4497H18.3454C9.11047 47.4497 1.55558 40.5126 1.55558 32.0327V16.9676C1.55558 8.48765 9.11047 1.55059 18.3454 1.55059V1.55059Z" fill="white"/>
<g clip-path="url(#clip0_20_2)">
<path d="M56.4058 22.9182L58.7917 9.25727L63.6506 9.27008C65.3598 9.27876 66.6742 9.59342 67.5939 10.2095C68.5136 10.8302 68.9302 11.7264 68.8477 12.903C68.7609 14.2088 67.8629 15.2216 66.1537 15.9455C66.8304 16.148 67.3597 16.523 67.7414 17.0659C68.1232 17.6089 68.2967 18.2339 68.262 18.9407C68.21 20.1687 67.6981 21.1342 66.7262 21.8366C65.7502 22.5432 64.4445 22.9011 62.8089 22.9182H56.4058L56.4058 22.9182ZM59.7462 16.9194L59.0218 21.035L62.6571 21.0478C63.6071 21.0478 64.375 20.8584 64.965 20.4747C65.5551 20.0913 65.8935 19.5568 65.9887 18.876C66.0713 18.2684 65.9107 17.8029 65.4985 17.4667C65.0865 17.1349 64.4705 16.9583 63.6506 16.9325L59.7462 16.9194L59.7462 16.9194ZM60.0629 15.049L62.8871 15.062C63.9975 15.062 64.8608 14.8897 65.4769 14.5449C66.0973 14.2001 66.4529 13.7003 66.5484 13.0408C66.7262 11.8473 65.8153 11.2223 63.8153 11.162L60.7526 11.1489L60.0629 15.049L60.0629 15.049ZM76.548 21.2806C77.3678 21.2978 78.1097 21.0608 78.769 20.5652C79.4329 20.0739 79.8624 19.4276 80.0662 18.626L82.2396 18.613C82.1138 19.4706 81.7667 20.2549 81.2028 20.9617C80.6388 21.6684 79.9316 22.2201 79.077 22.6166C78.2181 23.013 77.3418 23.1984 76.4438 23.1725C75.3028 23.1552 74.3311 22.8579 73.5416 22.2804C72.7477 21.7073 72.1664 20.9013 71.7933 19.8714C71.4202 18.8371 71.2944 17.6779 71.4115 16.3893L71.4765 15.7602C71.6371 14.4457 72.0231 13.2737 72.6304 12.235C73.2421 11.2008 74.0362 10.3948 75.0208 9.81736C76.0056 9.2399 77.0902 8.96842 78.2744 9.00292C79.7147 9.03742 80.8688 9.51571 81.7321 10.4423C82.5953 11.3688 83.0291 12.5454 83.0291 13.9674L80.8817 13.9544C80.8644 13.0625 80.6128 12.3384 80.1313 11.7867C79.6454 11.2353 78.9947 10.9421 78.1748 10.9076C76.9775 10.8818 75.9839 11.3258 75.1944 12.2351C74.4006 13.1443 73.906 14.4156 73.7107 16.049L73.676 16.3765C73.624 16.9194 73.6152 17.4754 73.65 18.0442C73.7063 19.0311 73.9883 19.8111 74.4873 20.3842C74.9862 20.9573 75.6715 21.2548 76.548 21.2806V21.2806ZM90.031 23.1725C88.3175 23.138 86.9814 22.5131 86.0139 21.2891C85.0465 20.0697 84.6431 18.5097 84.7949 16.6048L84.8556 16.0618C85.0031 14.7087 85.4066 13.4675 86.0702 12.3514C86.7341 11.231 87.5452 10.3862 88.504 9.81737C89.4628 9.24858 90.4953 8.9771 91.6059 9.00292C93.0201 9.03743 94.1306 9.50271 94.9375 10.4035C95.7401 11.3041 96.1825 12.5237 96.2563 14.0666C96.2823 14.6139 96.2651 15.1612 96.2087 15.7085L96.0654 16.7556H87.081C86.9292 17.9925 87.1332 19.0483 87.6971 19.9146C88.2611 20.785 89.1026 21.2331 90.222 21.2676C91.5755 21.3021 92.8292 20.6945 93.9831 19.4491L95.3063 20.5567C94.7294 21.384 93.9831 22.0304 93.0722 22.4959C92.1612 22.9655 91.1504 23.1897 90.031 23.1725L90.031 23.1725ZM91.4929 10.9076C90.5429 10.8818 89.7143 11.2008 89.0073 11.8687C88.3002 12.5324 87.7362 13.5235 87.3239 14.8379L94.0091 14.8509L94.0569 14.6484C94.1956 13.5881 94.0222 12.7047 93.5451 12.0022C93.0634 11.2956 92.3823 10.9336 91.4929 10.9076L91.4929 10.9076ZM109.566 11.1489H105.089L103.033 22.9182H100.742L102.79 11.1489H98.4038L98.7334 9.25725H109.896L109.566 11.1489H109.566ZM114.759 19.4706L119.652 9.25724H122.194L114.034 25.1892C112.902 27.4044 111.444 28.499 109.666 28.4732C109.349 28.4645 108.889 28.3868 108.278 28.2447L108.481 26.3485L109.08 26.4131C109.809 26.4476 110.438 26.2838 110.967 25.9262C111.496 25.5685 111.965 24.9911 112.373 24.1894L113.197 22.6252L110.82 9.25722H113.223L114.759 19.4705L114.759 19.4706ZM134.359 16.1523C134.189 17.54 133.812 18.7898 133.226 19.9016C132.641 21.0135 131.916 21.8451 131.053 22.3967C130.19 22.9484 129.231 23.2112 128.181 23.1853C126.589 23.1508 125.37 22.6166 124.52 21.5823L123.288 28.1715H120.988L124.294 9.25723L126.376 9.24422L126.125 10.7698C127.257 9.55887 128.619 8.9684 130.203 9.0029C131.526 9.0374 132.554 9.52003 133.291 10.4551C134.029 11.3904 134.419 12.6788 134.458 14.3207C134.467 14.8595 134.445 15.3808 134.398 15.8851L134.359 16.1523L134.359 16.1523ZM132.098 15.8851L132.159 14.825C132.159 13.5968 131.925 12.653 131.456 12.0022C130.983 11.3473 130.302 11.0068 129.413 10.9723C128.085 10.9378 126.936 11.5671 125.969 12.8555L124.815 19.4102C125.331 20.6255 126.259 21.2461 127.595 21.2806C128.741 21.3065 129.712 20.8625 130.515 19.9489C131.313 19.0352 131.842 17.6822 132.098 15.8851V15.8851ZM140.267 13.9674L143.282 13.9933C144.779 14.0019 145.942 14.3984 146.762 15.187C147.586 15.9713 147.95 17.0099 147.855 18.2985C147.764 19.6861 147.2 20.8021 146.172 21.6513C145.143 22.4959 143.829 22.9182 142.228 22.9182H136.419L138.805 9.25725H141.109L140.267 13.9674L140.267 13.9674ZM139.951 15.8721L139.048 21.0135L142.302 21.0263C143.209 21.0091 143.946 20.7635 144.519 20.285C145.091 19.811 145.434 19.1776 145.542 18.3846C145.638 17.652 145.499 17.0615 145.13 16.6091C144.762 16.1609 144.211 15.9196 143.473 15.8851L139.951 15.8721V15.8721ZM151.833 22.9182H149.534L151.924 9.25723H154.223L151.833 22.9182Z" fill="white"/>
<path fill-rule="evenodd" clip-rule="evenodd" d="M53.0159 31.3608H188.287L187.279 33.509H51.0001L53.0159 31.3608Z" fill="#FEDC00"/>
<path d="M176.792 16.1523C176.623 17.54 176.246 18.7898 175.66 19.9016C175.074 21.0135 174.35 21.8451 173.487 22.3967C172.623 22.9484 171.665 23.2112 170.615 23.1853C169.023 23.1508 167.804 22.6166 166.953 21.5823L165.721 28.1715H163.422L166.728 9.25722L168.81 9.24421L168.558 10.7698C169.691 9.55886 171.053 8.96839 172.636 9.00289C173.959 9.0374 174.988 9.52003 175.725 10.4551C176.463 11.3904 176.853 12.6788 176.892 14.3207C176.901 14.8595 176.879 15.3808 176.831 15.8851L176.792 16.1523L176.792 16.1523ZM174.532 15.8851L174.593 14.825C174.593 13.5968 174.359 12.653 173.89 12.0022C173.417 11.3473 172.736 11.0068 171.847 10.9723C170.519 10.9378 169.37 11.5671 168.402 12.8555L167.248 19.4102C167.764 20.6255 168.693 21.2461 170.029 21.2806C171.174 21.3064 172.146 20.8625 172.949 19.9488C173.747 19.0352 174.276 17.6822 174.532 15.8851V15.8851ZM183.564 19.4706L188.458 9.25723H191L182.84 25.1892C181.708 27.4044 180.25 28.499 178.471 28.4732C178.155 28.4645 177.695 28.3868 177.083 28.2447L177.287 26.3485L177.886 26.4131C178.614 26.4476 179.243 26.2838 179.773 25.9262C180.302 25.5685 180.771 24.9911 181.178 24.1894L182.002 22.6252L179.625 9.25721H182.028L183.564 19.4705L183.564 19.4706Z" fill="white"/>
<path fill-rule="evenodd" clip-rule="evenodd" d="M158.512 19.4459C159.747 19.4459 160.75 20.4415 160.75 21.669C160.75 22.8967 159.747 23.8923 158.512 23.8923C157.276 23.8923 156.274 22.8967 156.274 21.669C156.274 20.4415 157.276 19.4459 158.512 19.4459Z" fill="#FEDC00"/>
<path d="M69.6981 43.8816C69.6751 43.7879 69.6652 43.6974 69.6652 43.6071L69.6783 43.3327C69.197 43.7763 68.6873 43.9918 68.1479 43.9786C67.6847 43.9718 67.3092 43.8273 67.0196 43.543C66.7318 43.2587 66.5995 42.9037 66.6259 42.4764C66.6574 41.9242 66.9005 41.4936 67.3554 41.1845C67.8089 40.874 68.4061 40.7194 69.1456 40.7194L70.0621 40.7243L70.1201 40.3103C70.1532 39.9996 70.0919 39.7532 69.9381 39.5706C69.7843 39.3898 69.5542 39.2962 69.2482 39.2897C68.9471 39.283 68.6808 39.3571 68.4508 39.5081C68.2191 39.6611 68.0784 39.8616 68.0256 40.113L67.1437 40.1179C67.1734 39.8123 67.2927 39.541 67.5027 39.306C67.7129 39.0694 67.9826 38.8869 68.3118 38.7571C68.6411 38.6272 68.9834 38.5649 69.3341 38.5714C69.8801 38.5846 70.3054 38.7489 70.6099 39.0645C70.9143 39.3817 71.0415 39.8007 70.9919 40.3233L70.5668 42.9037L70.542 43.2751C70.5354 43.451 70.5553 43.6268 70.5999 43.7993L70.59 43.8816H69.6981L69.6981 43.8816ZM68.3218 43.2077C68.603 43.2144 68.8693 43.147 69.1192 43.0088C69.3691 42.8692 69.5858 42.6752 69.766 42.4287L69.9547 41.3554L69.2913 41.3505C68.7385 41.3505 68.315 41.4376 68.0207 41.6101C67.7277 41.7829 67.5606 42.0293 67.5225 42.3465C67.4928 42.5898 67.5507 42.7935 67.6946 42.9545C67.8387 43.1174 68.0471 43.2012 68.3218 43.2077ZM75.8494 39.4079H73.5083L72.7275 43.8816H71.8455L72.7573 38.6716H75.985L75.8494 39.4079L75.8494 39.4079ZM80.6142 41.3012C80.5497 41.8304 80.4056 42.3071 80.1823 42.7311C79.959 43.155 79.6826 43.4722 79.3535 43.6826C79.0243 43.893 78.6585 43.9933 78.2582 43.9835C77.6511 43.9703 77.1861 43.7664 76.8618 43.3721L76.392 45.885H75.5152L76.7758 38.6716L77.5699 38.6666L77.474 39.2484C77.9057 38.7867 78.4253 38.5616 79.0292 38.5748C79.5337 38.5878 79.9259 38.7719 80.2071 39.1286C80.4884 39.4852 80.6372 39.9765 80.6521 40.6027C80.6555 40.8081 80.6471 41.007 80.6291 41.1993L80.6142 41.3012L80.6142 41.3012ZM79.7522 41.1993L79.7753 40.7951C79.7753 40.3267 79.686 39.9667 79.5073 39.7184C79.3269 39.4687 79.0671 39.3389 78.728 39.3257C78.2219 39.3125 77.7835 39.5526 77.4145 40.0439L76.9743 42.5437C77.1712 43.0072 77.5252 43.2439 78.0349 43.2569C78.4715 43.2668 78.8423 43.0977 79.1483 42.7491C79.4528 42.4007 79.6546 41.8848 79.7522 41.1993L79.7522 41.1993ZM83.5854 43.9785C82.9321 43.9653 82.4224 43.727 82.0535 43.2603C81.6845 42.7952 81.5307 42.2002 81.5887 41.4739L81.6117 41.2667C81.6681 40.7507 81.8219 40.2774 82.0751 39.8517C82.3282 39.4243 82.6376 39.1021 83.0031 38.8853C83.3687 38.6684 83.7625 38.5649 84.1862 38.5748C84.7254 38.5878 85.149 38.7654 85.4568 39.1089C85.7628 39.4523 85.9315 39.9174 85.9597 40.5059C85.9696 40.7145 85.9631 40.9233 85.9414 41.132L85.8869 41.5313H82.4605C82.4026 42.0031 82.4804 42.4056 82.6955 42.7361C82.9105 43.0681 83.2316 43.239 83.6583 43.252C84.1745 43.2652 84.6526 43.0336 85.0928 42.5584L85.5973 42.9809C85.3774 43.2964 85.0928 43.543 84.7453 43.7205C84.398 43.8997 84.0123 43.985 83.5854 43.9785L83.5854 43.9785ZM84.1431 39.3011C83.7807 39.2912 83.4648 39.4128 83.1951 39.6676C82.9253 39.9207 82.7104 40.2987 82.5532 40.8L85.1027 40.8049L85.1208 40.7277C85.1738 40.3233 85.1077 39.9864 84.9257 39.7184C84.7419 39.4489 84.4823 39.3109 84.1431 39.3011H84.1431ZM90.5359 39.4079H88.1948L87.414 43.8815H86.5321L87.4438 38.6716H90.6715L90.5359 39.4079L90.5359 39.4079ZM93.7586 43.8815C93.7356 43.7879 93.7257 43.6974 93.7257 43.6071L93.7388 43.3327C93.2575 43.7763 92.7478 43.9917 92.2084 43.9785C91.7452 43.9718 91.3697 43.8273 91.0801 43.543C90.7923 43.2587 90.66 42.9037 90.6864 42.4764C90.7179 41.9242 90.961 41.4936 91.4159 41.1845C91.8694 40.874 92.4666 40.7194 93.2061 40.7194L94.1226 40.7243L94.1806 40.3103C94.2137 39.9996 94.1524 39.7531 93.9986 39.5706C93.8448 39.3898 93.6147 39.2962 93.3087 39.2896C93.0076 39.2829 92.7413 39.3571 92.5113 39.5081C92.2797 39.6611 92.1389 39.8616 92.0862 40.113L91.2042 40.1179C91.2339 39.8123 91.3532 39.541 91.5632 39.306C91.7734 39.0694 92.0431 38.8869 92.3723 38.7571C92.7016 38.6272 93.0439 38.5649 93.3946 38.5714C93.9406 38.5846 94.3659 38.7489 94.6704 39.0645C94.9748 39.3817 95.1021 39.8007 95.0524 40.3233L94.6273 42.9037L94.6025 43.2751C94.596 43.451 94.6158 43.6268 94.6605 43.7993L94.6505 43.8815H93.7586L93.7586 43.8815ZM92.3823 43.2077C92.6635 43.2144 92.9298 43.1469 93.1797 43.0087C93.4296 42.8692 93.6463 42.6752 93.8265 42.4287L94.0153 41.3554L93.3518 41.3505C92.799 41.3505 92.3755 41.4376 92.0812 41.6101C91.7883 41.7828 91.6211 42.0293 91.583 42.3465C91.5533 42.5898 91.6112 42.7934 91.7551 42.9545C91.8992 43.1174 92.1076 43.2012 92.3823 43.2077V43.2077ZM100.409 39.3931H98.702L97.9179 43.8815H97.0445L97.8252 39.3931H96.1525L96.2784 38.6715H100.535L100.409 39.3931H100.409ZM103.424 38.5747C103.862 38.5812 104.239 38.6995 104.552 38.9312C104.867 39.163 105.098 39.4803 105.249 39.8878C105.399 40.2937 105.449 40.7375 105.401 41.219L105.391 41.3242C105.33 41.8321 105.178 42.2907 104.936 42.6998C104.693 43.1091 104.38 43.4279 103.995 43.6564C103.611 43.8831 103.189 43.9917 102.731 43.9785C102.294 43.9718 101.918 43.8535 101.604 43.6219C101.288 43.39 101.058 43.0762 100.912 42.6785C100.767 42.2808 100.715 41.842 100.757 41.3637C100.807 40.8247 100.954 40.3399 101.199 39.9091C101.443 39.4785 101.759 39.1449 102.147 38.9099C102.532 38.6733 102.959 38.5615 103.424 38.5748V38.5747ZM101.64 41.3686C101.617 41.5707 101.617 41.7811 101.64 41.9997C101.672 42.3776 101.786 42.6801 101.981 42.9052C102.176 43.1304 102.438 43.2471 102.764 43.2569C103.055 43.2668 103.323 43.1944 103.569 43.0434C103.814 42.8904 104.021 42.6588 104.19 42.3514C104.357 42.0425 104.466 41.7006 104.514 41.3242C104.541 41.0301 104.544 40.7803 104.529 40.578C104.489 40.1886 104.372 39.8829 104.175 39.6577C103.978 39.4326 103.717 39.3143 103.389 39.3011C102.938 39.2912 102.552 39.4686 102.236 39.832C101.92 40.1936 101.723 40.6701 101.649 41.2568L101.64 41.3686V41.3686ZM110.801 41.3012C110.737 41.8303 110.593 42.3071 110.369 42.7311C110.146 43.155 109.87 43.4722 109.541 43.6826C109.211 43.893 108.845 43.9933 108.445 43.9834C107.838 43.9702 107.373 43.7664 107.049 43.3721L106.579 45.885H105.702L106.963 38.6716L107.757 38.6666L107.661 39.2484C108.093 38.7867 108.612 38.5615 109.216 38.5748C109.721 38.5878 110.113 38.7719 110.394 39.1286C110.675 39.4852 110.824 39.9765 110.839 40.6027C110.842 40.8081 110.834 41.007 110.816 41.1993L110.801 41.3012L110.801 41.3012ZM109.939 41.1992L109.962 40.7951C109.962 40.3266 109.873 39.9666 109.694 39.7184C109.514 39.4686 109.254 39.3389 108.915 39.3257C108.409 39.3125 107.97 39.5526 107.601 40.0439L107.161 42.5436C107.358 43.0071 107.712 43.2439 108.222 43.2569C108.659 43.2668 109.029 43.0976 109.335 42.7491C109.64 42.4007 109.842 41.8848 109.939 41.1992V41.1992ZM118.106 43.8815H117.229L118.015 39.4079H115.679L114.893 43.8815H114.016L114.926 38.6716H119.017L118.106 43.8815H118.106ZM121.426 42.5667L123.292 38.6715H124.262L121.15 44.7476C120.718 45.5924 120.162 46.0098 119.484 45.9999C119.363 45.9968 119.188 45.9672 118.954 45.913L119.032 45.1898L119.26 45.2145C119.538 45.2275 119.778 45.1652 119.98 45.0287C120.182 44.8923 120.361 44.6721 120.516 44.3663L120.831 43.7697L119.924 38.6715H120.84L121.426 42.5667L121.426 42.5667ZM128.722 39.3931H127.015L126.231 43.8815H125.357L126.138 39.3931H124.465L124.591 38.6715H128.848L128.722 39.3931H128.722ZM131.091 43.9785C130.438 43.9653 129.928 43.727 129.559 43.2603C129.191 42.7952 129.037 42.2002 129.095 41.4739L129.118 41.2667C129.174 40.7507 129.328 40.2774 129.581 39.8517C129.834 39.4243 130.144 39.1021 130.509 38.8853C130.875 38.6684 131.268 38.5649 131.692 38.5747C132.231 38.5878 132.655 38.7654 132.963 39.1088C133.269 39.4523 133.438 39.9174 133.466 40.5059C133.476 40.7145 133.469 40.9232 133.447 41.132L133.393 41.5313H129.967C129.909 42.003 129.986 42.4056 130.202 42.7361C130.416 43.0681 130.738 43.239 131.164 43.252C131.68 43.2652 132.159 43.0336 132.599 42.5584L133.103 42.9809C132.883 43.2964 132.599 43.543 132.251 43.7204C131.904 43.8997 131.518 43.985 131.091 43.9785H131.091ZM131.649 39.301C131.287 39.2912 130.971 39.4128 130.701 39.6675C130.431 39.9207 130.216 40.2986 130.059 40.8L132.609 40.8049L132.627 40.7276C132.68 40.3233 132.614 39.9863 132.432 39.7184C132.248 39.4489 131.988 39.3109 131.649 39.301V39.301ZM135.837 38.6715L135.056 43.155H136.912L137.693 38.6715H138.57L137.784 43.155H139.637L140.421 38.6715H141.303L140.393 43.8815H134.048L134.958 38.6715H135.837H135.837ZM144.071 43.9785C143.417 43.9653 142.908 43.727 142.539 43.2603C142.17 42.7952 142.016 42.2002 142.074 41.4739L142.097 41.2667C142.153 40.7507 142.307 40.2774 142.56 39.8517C142.813 39.4243 143.123 39.1021 143.488 38.8853C143.854 38.6684 144.248 38.5649 144.671 38.5747C145.211 38.5878 145.634 38.7654 145.942 39.1088C146.248 39.4523 146.417 39.9174 146.445 40.5059C146.455 40.7145 146.448 40.9232 146.427 41.132L146.372 41.5313H142.946C142.888 42.003 142.966 42.4056 143.181 42.7361C143.396 43.0681 143.717 43.239 144.143 43.252C144.66 43.2652 145.138 43.0336 145.578 42.5584L146.082 42.9809C145.863 43.2964 145.578 43.543 145.23 43.7204C144.883 43.8997 144.497 43.985 144.071 43.9785ZM144.628 39.301C144.266 39.2912 143.95 39.4128 143.68 39.6675C143.41 39.9207 143.196 40.2986 143.038 40.8L145.588 40.8049L145.606 40.7276C145.659 40.3233 145.593 39.9863 145.411 39.7184C145.227 39.4489 144.967 39.3109 144.628 39.301ZM149.165 43.2569C149.477 43.2636 149.76 43.1731 150.012 42.9841C150.265 42.7968 150.429 42.5503 150.506 42.2445L151.335 42.2396C151.287 42.5667 151.155 42.8658 150.94 43.1353C150.725 43.405 150.455 43.6154 150.129 43.7664C149.802 43.9176 149.467 43.9884 149.125 43.9785C148.69 43.9718 148.319 43.8584 148.018 43.6382C147.715 43.4198 147.494 43.1124 147.351 42.7195C147.209 42.3252 147.161 41.883 147.206 41.3917L147.231 41.1517C147.292 40.6504 147.439 40.2034 147.671 39.8073C147.904 39.4128 148.207 39.1055 148.582 38.8852C148.958 38.665 149.372 38.5615 149.823 38.5747C150.372 38.5877 150.813 38.7703 151.142 39.1236C151.471 39.4769 151.637 39.9256 151.637 40.468L150.818 40.4631C150.811 40.1228 150.715 39.8468 150.531 39.6364C150.346 39.426 150.098 39.3143 149.785 39.301C149.329 39.2912 148.95 39.4605 148.649 39.8073C148.346 40.1541 148.157 40.6389 148.083 41.2617L148.069 41.3867C148.05 41.5937 148.046 41.8057 148.06 42.0227C148.081 42.3991 148.189 42.6966 148.379 42.9151C148.569 43.1337 148.831 43.2471 149.165 43.2569ZM156.61 39.3931H154.902L154.118 43.8815H153.245L154.025 39.3931H152.353L152.479 38.6715H156.736L156.61 39.3931H156.61ZM156.793 43.8815L157.703 38.6716L159.556 38.6765C160.208 38.6798 160.709 38.7999 161.06 39.0349C161.411 39.2715 161.57 39.6134 161.538 40.0621C161.505 40.5601 161.163 40.9463 160.511 41.2223C160.769 41.2996 160.971 41.4426 161.116 41.6496C161.262 41.8568 161.328 42.0951 161.315 42.3646C161.295 42.8331 161.1 43.2012 160.729 43.4691C160.357 43.7386 159.859 43.875 159.235 43.8815H156.793V43.8815ZM158.067 41.5938L157.791 43.1633L159.177 43.1682C159.54 43.1682 159.833 43.0959 160.058 42.9496C160.283 42.8033 160.412 42.5996 160.448 42.34C160.479 42.1081 160.418 41.9307 160.261 41.8026C160.104 41.676 159.869 41.6086 159.556 41.5987L158.067 41.5938ZM158.188 40.8805L159.265 40.8854C159.689 40.8854 160.018 40.8197 160.253 40.6882C160.489 40.5567 160.625 40.3661 160.661 40.1147C160.729 39.6593 160.382 39.4211 159.619 39.3981L158.451 39.3931L158.188 40.8805V40.8805ZM166.432 38.6716H167.339L166.427 43.8815H165.55L166.211 40.1409L163.244 43.8815H162.337L163.247 38.6716H164.121L163.466 42.4171L166.432 38.6716ZM172.041 38.6716H172.948L172.036 43.8815H171.159L171.819 40.1409L168.853 43.8815H167.946L168.856 38.6716H169.73L169.075 42.4171L172.041 38.6716ZM172.608 36.7749C172.569 37.176 172.412 37.495 172.135 37.73C171.859 37.9665 171.515 38.0783 171.101 38.0651C170.702 38.0586 170.385 37.9385 170.148 37.7035C169.91 37.4703 169.794 37.158 169.801 36.77L170.514 36.7749C170.491 37.2434 170.689 37.4833 171.105 37.4965C171.335 37.4999 171.517 37.4325 171.649 37.2976C171.781 37.1612 171.866 36.9887 171.905 36.7799L172.608 36.775V36.7749Z" fill="white"/>
</g>
<defs>
<clipPath id="clip0_20_2">
<rect width="140" height="37" fill="white" transform="translate(51 9)"/>
</clipPath>
</defs>
</svg>
