<svg width="41" height="35" viewBox="0 0 41 35" fill="none" xmlns="http://www.w3.org/2000/svg">
<g clip-path="url(#clip0_19_828)">
<path fill-rule="evenodd" clip-rule="evenodd" d="M23.1137 0C32.9904 0 41 7.83662 41 17.4999C41 27.1633 32.9904 34.9999 23.1137 34.9999C17.4689 34.9999 12.4348 32.4394 9.15664 28.4416L0 29.3839C0 29.3839 3.37568 25.4019 5.92391 22.3484C5.47086 20.8086 5.2275 19.1821 5.2275 17.5C5.2275 7.83664 13.2371 4.52601e-05 23.1137 4.52601e-05L23.1137 0ZM25.1342 21.7109H19.336V21.1451C19.336 20.1818 19.4454 19.3968 19.6694 18.7954C19.8934 18.1888 20.2268 17.6434 20.6696 17.1439C21.1124 16.6444 22.1075 15.7678 23.6547 14.5139C24.4778 13.8564 24.8894 13.2549 24.8894 12.7095C24.8894 12.1591 24.7227 11.736 24.3945 11.4302C24.0611 11.1295 23.5609 10.9766 22.8889 10.9766C22.1648 10.9766 21.5709 11.211 21.0968 11.6799C20.6228 12.1438 20.3206 12.9644 20.1904 14.1265L14.2671 13.4078C14.4703 11.2773 15.2622 9.56468 16.6375 8.26495C18.018 6.9652 20.1331 6.31789 22.9827 6.31789C25.2019 6.31789 26.9888 6.77152 28.3537 7.67369C30.2031 8.90208 31.1304 10.5331 31.1304 12.5719C31.1304 13.418 30.8907 14.2386 30.4114 15.0236C29.9374 15.8085 28.958 16.7719 27.4837 17.9034C26.4574 18.7036 25.8062 19.3408 25.5353 19.825C25.2696 20.3041 25.1342 20.9361 25.1342 21.7109L25.1342 21.7109ZM19.1328 23.2196H25.3478V28.5816H19.1328V23.2196Z" fill="#FEDC00"/>
</g>
<defs>
<clipPath id="clip0_19_828">
<rect width="41" height="35" fill="white"/>
</clipPath>
</defs>
</svg>
