<svg width="35" height="37" viewBox="0 0 35 37" fill="none" xmlns="http://www.w3.org/2000/svg">
<g clip-path="url(#clip0_19_831)">
<path fill-rule="evenodd" clip-rule="evenodd" d="M28.87 16.2627H35.0003V33.908H28.7995L28.87 16.2627ZM26.7915 17.4204V32.645C24.3291 34.1217 22.8575 35.057 19.8507 35.8724C18.3077 36.2908 13.5371 36.949 11.9588 36.995C10.6101 37.0343 5.74839 36.852 4.5603 36.118C3.5395 35.4873 3.10609 34.0025 3.6442 32.9257C4.02514 32.1634 4.8613 31.7698 5.47626 31.4173L2.48162 30.9262C1.5663 30.5322 -0.320151 28.0432 2.3759 26.5061L4.24312 25.594C3.05604 25.4933 1.27659 25.684 0.438117 24.6468C-0.172356 23.8917 -0.52019 21.3246 2.02358 20.2969C2.5196 20.0966 3.55143 19.9038 4.10224 19.8058C3.14419 19.5577 2.03602 19.4401 1.49509 18.4727L1.14277 17.1046L1.67125 15.5611C2.10197 14.9905 3.90542 14.2273 4.63072 14.1228C5.95085 13.9327 11.8522 14.3862 12.6282 13.6317C13.2841 12.9938 12.4697 10.6084 12.3464 9.84307C11.9489 7.37514 11.2222 3.01602 13.0158 1.03797C14.5538 -0.658103 16.7033 -0.0582521 17.0674 1.2836C17.0693 1.29075 16.9178 5.19304 16.997 5.63352C17.562 8.77608 22.4702 14.453 25.0297 16.368L26.7915 17.4204L26.7915 17.4204Z" fill="#FEDC00"/>
</g>
<defs>
<clipPath id="clip0_19_831">
<rect width="35" height="37" fill="white"/>
</clipPath>
</defs>
</svg>
