<svg width="33" height="33" viewBox="0 0 33 33" fill="none" xmlns="http://www.w3.org/2000/svg">
<g clip-path="url(#clip0_19_726)">
<path fill-rule="evenodd" clip-rule="evenodd" d="M4.10712 11.954C4.10712 7.97238 7.95585 4.12597 11.936 4.12597H12.8343C15.1187 4.12597 17.166 5.53753 18.3372 6.70859C19.6272 7.99797 20.5994 9.99481 20.5994 12.5316C20.5994 16.7725 16.8385 20.6165 12.6421 20.6165C10.0099 20.6165 8.04957 19.7149 6.72238 18.3864C5.53671 17.1999 4.10713 15.1663 4.10713 12.8522V11.954L4.10712 11.954ZM2.75965 4.51085C0.773704 7.47642 0 9.04204 0 12.7243C0 16.4601 1.85458 19.3585 3.73814 21.2419C7.612 25.1153 14.3175 25.9194 18.8824 22.8461L29.0696 33.0004L32.9999 29.0704L22.8451 18.8838C25.9091 14.3087 25.0195 7.55127 21.289 3.82123C20.2323 2.76413 19.3041 2.00161 17.9039 1.30284C13.11 -1.09047 7.27633 -0.10582 3.57585 3.59475C3.35948 3.8111 2.97794 4.351 2.75964 4.51084L2.75965 4.51085Z" fill="#0093DD"/>
</g>
<defs>
<clipPath id="clip0_19_726">
<rect width="33" height="33" fill="white"/>
</clipPath>
</defs>
</svg>
