<svg width="24" height="27" viewBox="0 0 24 27" fill="none" xmlns="http://www.w3.org/2000/svg">
<g clip-path="url(#clip0_19_789)">
<path fill-rule="evenodd" clip-rule="evenodd" d="M16.252 1.62776C15.6448 2.53455 15.3222 3.20356 15.3222 4.41706C15.3222 4.76946 15.4446 5.47156 15.5613 5.69205C14.4839 6.31855 8.03351 9.97136 7.46131 10.371C7.03041 10.0759 6.49131 9.36924 5.20121 9.09235C3.09981 8.64145 1.01223 9.83765 0.206809 12.0671C-0.981391 15.3565 3.1254 19.7816 7.31151 16.4119C9.98991 17.9707 12.7726 19.5636 15.4674 21.0973L15.295 22.3175L15.3222 22.3214C15.3222 27.6194 23.2326 28.2795 23.9285 22.642C24.1378 20.9461 22.8966 18.9134 21.007 18.2569C19.1459 17.6105 17.5906 18.3006 16.2913 19.5984C13.6388 18.1229 10.944 16.48 8.28341 14.9884C8.99261 13.0341 8.4122 12.4025 8.3624 11.8019C9.3591 11.2371 15.9544 7.49815 16.4102 7.17765C17.0032 7.57955 17.6165 8.48365 19.3829 8.60935C23.2242 8.88285 25.4512 4.06636 22.7005 1.31554C20.8495 -0.53546 18.0456 -0.43586 16.252 1.62774L16.252 1.62776Z" fill="#7D7D7D"/>
</g>
<defs>
<clipPath id="clip0_19_789">
<rect width="23.9517" height="26.5897" fill="white"/>
</clipPath>
</defs>
</svg>
