<svg width="30" height="20" viewBox="0 0 30 20" fill="none" xmlns="http://www.w3.org/2000/svg">
<g clip-path="url(#clip0_19_801)">
<path fill-rule="evenodd" clip-rule="evenodd" d="M2.32129 0.0755465C5.04173 0.0755465 28.9903 -0.190521 29.5765 0.275484C30.4892 1.00112 27.505 3.03935 25.2422 5.19795C23.9186 6.46074 16.0719 14.5954 15.0092 14.5885C13.7856 14.5805 3.01527 3.28591 0.259932 0.824575C0.406131 -0.103538 1.48444 0.0631177 2.32128 0.0755509L2.32129 0.0755465ZM9.50162 12.8165L1.98686 19.9999H28.0328L20.5574 12.7599C14.8288 18.2014 15.1834 18.1657 9.50162 12.8165V12.8165ZM0.0393219 18.7712L7.88855 11.2475L0 3.76176L0.0393342 18.7712H0.0393219ZM22.1705 11.1909L30 3.6483V18.7145L22.1705 11.1908V11.1909Z" fill="#7D7D7D"/>
</g>
<defs>
<clipPath id="clip0_19_801">
<rect width="30" height="20" fill="white"/>
</clipPath>
</defs>
</svg>
