<svg width="20" height="20" viewBox="0 0 20 20" fill="none" xmlns="http://www.w3.org/2000/svg">
<g clip-path="url(#clip0_19_389)">
<path fill-rule="evenodd" clip-rule="evenodd" d="M11.2438 3.64588C11.4396 3.65236 11.6806 3.72424 11.8428 3.77022C12.2306 3.88096 12.0619 3.92175 12.175 3.55393C12.2875 3.18869 12.3715 2.83705 12.4665 2.42C12.6074 1.80091 13.0223 0.758951 13.0675 0.189069L12.2144 0.00321228L11.2438 3.64587V3.64588ZM8.76596 16.3567L7.87088 16.154L6.91893 19.8232L7.77653 19.9942L8.76596 16.3567V16.3567ZM11.2664 16.3476C11.2664 16.573 11.6425 17.8992 11.731 18.2127C11.7885 18.4141 12.1905 20 12.2726 20C12.535 20 12.8374 19.8459 13.0707 19.7915C12.937 19.2145 12.6533 18.4678 12.5822 17.9161C12.555 17.7063 12.3967 17.2646 12.3346 16.9816C12.3075 16.8579 12.166 16.1391 12.0296 16.1391C11.934 16.1391 11.4648 16.3437 11.2664 16.3476V16.3476ZM5.70588 14.9126L5.13717 14.3181C4.96268 14.3122 3.981 15.3898 3.78066 15.5912C3.4795 15.893 2.64388 16.6539 2.45323 16.9388L3.08722 17.5398L5.70589 14.9125L5.70588 14.9126ZM14.2418 14.8782L16.9483 17.5735L17.5545 16.9473L14.8667 14.2527L14.2418 14.8782V14.8782ZM10.3299 15.1301C11.7362 15.1301 12.9841 14.2598 13.7041 13.539C14.466 12.7762 15.1181 11.5024 15.1181 9.98249C15.1181 8.51895 14.4557 7.21277 13.7215 6.47841C13.2426 5.99919 12.935 5.75635 12.314 5.41961C11.9281 5.21108 10.9988 4.86981 10.434 4.86981H9.67071C8.4538 4.86981 7.08824 5.65921 6.45166 6.26859C6.14404 6.56259 5.63349 7.18816 5.45771 7.60326C5.33168 7.9005 5.20889 8.06564 5.11842 8.4108C5.08223 8.54938 4.88253 9.18855 4.88253 9.32195V10.4345C4.88253 10.9914 5.21794 11.9835 5.42539 12.3598C5.72591 12.9037 6.05356 13.326 6.46976 13.7482C7.19681 14.4851 8.48675 15.1301 9.94796 15.1301H10.3299L10.3299 15.1301ZM3.84335 12.1131L3.61845 11.2738L0.0271436 12.2173L0.23201 13.076L3.84334 12.1131H3.84335ZM16.1082 12.1001L19.7997 13.0877L20 12.2147L16.3299 11.2783L16.1082 12.1001V12.1001ZM0 7.78525L3.6275 8.7508L3.60036 8.72101L3.83366 7.88887L0.216505 6.92655L4.87742e-06 7.78525H0ZM16.1243 7.89664C16.143 8.122 16.2975 8.42118 16.2975 8.62582L16.3053 8.75922L19.143 8.03457V7.96528H19.3162C19.4894 7.96528 19.7602 7.79626 20 7.78525L19.7977 6.90648L16.1243 7.89664V7.89664ZM14.285 5.11332C14.3212 5.16707 14.826 5.70457 14.8402 5.70457C14.9177 5.70457 17.4046 3.27353 17.5467 3.06112C17.5034 2.99572 16.9955 2.46988 16.9567 2.46988C16.8837 2.46988 14.4382 4.88342 14.285 5.11332H14.285ZM2.45318 3.09545L5.08283 5.67672L5.06668 5.71557L5.71488 5.04338C5.46284 4.97603 3.18539 2.46989 3.07812 2.46989C2.97407 2.46989 2.48161 2.9886 2.45318 3.09545L2.45318 3.09545ZM7.06816 0.174193L6.91306 0.178078L7.90249 3.83176L8.73036 3.61805L8.66896 3.2308L8.61985 3.12395L7.7965 0C7.50568 0 7.22262 0.174201 7.06816 0.174201L7.06816 0.174193Z" fill="#EBA627"/>
</g>
<defs>
<clipPath id="clip0_19_389">
<rect width="20" height="20" fill="white"/>
</clipPath>
</defs>
</svg>
