<svg width="27" height="27" viewBox="0 0 27 27" fill="none" xmlns="http://www.w3.org/2000/svg">
<g clip-path="url(#clip0_19_413)">
<path fill-rule="evenodd" clip-rule="evenodd" d="M-1.31635e-05 15.8598V16.1745C0.237912 16.5173 0.110423 16.5246 0.494273 16.844C0.733749 17.0432 0.921643 17.145 1.18186 17.3199C1.56791 17.5794 2.2002 18.0229 2.2002 18.629V18.7864C2.2002 19.3751 1.91735 19.9532 1.91735 20.643C1.91735 21.4028 2.93932 21.7444 3.70894 21.7444C4.01764 21.9514 4.32494 21.8082 4.7226 22.2086C5.03124 22.5194 5.10242 22.6904 5.20468 23.2049C5.35325 23.9524 5.47076 25.0801 6.31781 25.0801H6.34924L6.3547 25.1135L8.23514 24.8283H8.39231C9.5805 24.8283 9.97232 26.9996 10.8754 26.9996H11.064C11.7356 26.9996 12.6827 25.8668 13.3585 25.8668H13.6414C14.3498 25.8668 15.2504 26.9996 15.9674 26.9996H16.0931C17.0753 26.9996 17.4114 24.8283 18.6076 24.8283H18.7648C19.4319 24.8283 19.877 25.0801 20.4936 25.0801H20.6821C21.3027 25.0801 21.5792 24.4311 21.6759 23.8722C21.8015 23.1459 21.8301 22.6591 22.2615 22.2242C23.0287 21.4509 25.0826 22.0047 25.0826 20.5801V20.4857C25.0826 19.9098 24.8312 19.4465 24.8312 18.9437V18.5661C24.8312 18.0071 25.4761 17.5179 25.8581 17.2971C26.109 17.1521 26.3096 16.9959 26.5285 16.8354C26.6384 16.7548 26.7258 16.666 26.8053 16.5461C26.9114 16.386 26.9317 16.2507 27 16.143V15.8913C26.9614 15.8304 26.9328 15.642 26.899 15.5518C26.8744 15.4859 26.7892 15.3441 26.7485 15.2619C26.637 15.0362 26.5393 14.9494 26.409 14.7521C26.2198 14.4657 25.8684 14.0333 25.8684 13.5941V13.3423C25.8684 12.9984 26.2199 12.4786 26.3839 12.2535C26.5056 12.0864 26.5846 11.9565 26.7029 11.7862C26.8179 11.6204 26.862 11.4247 26.9685 11.2654L27 11.1081V10.7619L26.9388 10.7277C26.9204 9.98087 24.8312 9.47511 24.8312 8.43324V8.11855C24.8312 7.49486 25.0826 7.08133 25.0826 6.3878C25.0826 4.97467 22.9361 5.53014 22.1825 4.69688C21.3918 3.82263 22.1325 1.88781 20.3993 1.88781C19.9028 1.88781 19.33 2.17101 18.7334 2.17101C17.3289 2.17101 17.1205 -0.000305176 16.1245 -0.000305176H15.9359C15.4655 -0.000305176 14.7218 0.599284 14.3958 0.817889C14.1976 0.922889 13.9286 1.1011 13.6414 1.1011H13.3585C12.6022 1.1011 11.8457 -0.000305176 11.0326 -0.000305176H10.8754C9.94101 -0.000305176 9.55555 2.17101 8.3923 2.17101H8.23513C7.57621 2.17101 7.09478 1.88781 6.38066 1.88781C5.0384 1.88781 5.52547 4.06445 4.72313 4.79128C3.87865 5.5563 1.91734 4.90867 1.91734 6.51368C1.91734 7.0727 2.2002 7.67119 2.2002 8.24443V8.33885C2.2002 9.52285 0.0314142 9.98372 0.0314142 10.7934V11.0451C0.0314142 11.8644 1.13152 12.52 1.13152 13.4367V13.6885C1.13152 14.0094 0.714327 14.5768 0.56533 14.7894C0.451737 14.9515 0.355141 15.1111 0.24507 15.287C0.133478 15.4653 0.0801764 15.7333 -1.52588e-05 15.8598L-1.31635e-05 15.8598ZM15.44 16.5875C15.4898 16.7392 15.5223 16.8606 15.5353 16.9495C15.5461 17.0384 15.531 17.1056 15.4833 17.149C15.4378 17.1945 15.3555 17.2205 15.2364 17.2314C15.1172 17.2422 14.9547 17.2487 14.7468 17.2487C14.5323 17.2487 14.3634 17.2444 14.2421 17.2379C14.1229 17.2314 14.0298 17.2183 13.967 17.201C13.9041 17.1815 13.8586 17.1555 13.8327 17.1208C13.8088 17.0861 13.7872 17.0427 13.7698 16.9864L13.2174 15.3365H10.1328L9.61291 16.943C9.59558 17.0015 9.5739 17.0514 9.54574 17.0926C9.51975 17.1316 9.47426 17.1641 9.4136 17.188C9.35297 17.2097 9.26415 17.227 9.15366 17.2357C9.04103 17.2444 8.89372 17.2487 8.71177 17.2487C8.51681 17.2487 8.36516 17.2422 8.25469 17.2292C8.14423 17.2162 8.06841 17.1858 8.02726 17.136C7.98393 17.0883 7.96877 17.0189 7.98176 16.93C7.99476 16.8411 8.02726 16.7219 8.07706 16.5745L10.6093 9.28338C10.6354 9.21181 10.6635 9.15328 10.6982 9.10777C10.7328 9.06441 10.787 9.02971 10.8606 9.00588C10.9343 8.98418 11.0361 8.969 11.1682 8.96252C11.2982 8.956 11.4737 8.95165 11.6881 8.95165C11.9372 8.95165 12.1365 8.956 12.286 8.96252C12.4333 8.969 12.5481 8.98418 12.6304 9.00588C12.7127 9.02971 12.7734 9.06441 12.808 9.11209C12.8449 9.15762 12.8752 9.2205 12.9012 9.30288L15.44 16.5875L15.44 16.5875ZM11.6686 10.5603H11.6621L10.501 14.053H12.8297L11.6686 10.5603H11.6686ZM18.2647 16.982C18.2647 17.0232 18.2495 17.0622 18.2214 17.0948C18.1954 17.1295 18.1499 17.1576 18.0849 17.1771C18.0221 17.1988 17.9376 17.2162 17.8314 17.2292C17.7253 17.2422 17.591 17.2487 17.4264 17.2487C17.2661 17.2487 17.1318 17.2422 17.0235 17.2292C16.9151 17.2162 16.8285 17.1988 16.7657 17.1771C16.7029 17.1576 16.6574 17.1295 16.6292 17.0948C16.6011 17.0622 16.5881 17.0232 16.5881 16.982V9.21832C16.5881 9.17714 16.6011 9.13809 16.6292 9.10559C16.6574 9.0709 16.7029 9.04271 16.77 9.02319C16.835 9.00153 16.9195 8.98418 17.0256 8.97117C17.1318 8.95817 17.2661 8.95165 17.4264 8.95165C17.591 8.95165 17.7253 8.95817 17.8314 8.97117C17.9376 8.98418 18.0221 9.00153 18.0849 9.02319C18.1499 9.04271 18.1954 9.0709 18.2214 9.10559C18.2495 9.13809 18.2647 9.17714 18.2647 9.21832V16.982ZM13.5 3.46835C19.0345 3.46835 23.5228 7.96044 23.5228 13.4996C23.5228 19.0388 19.0345 23.5309 13.5 23.5309C7.96549 23.5309 3.47718 19.0388 3.47718 13.4996C3.47718 7.96044 7.96549 3.46835 13.5 3.46835ZM13.5 4.58053C18.4209 4.58053 22.4116 8.57456 22.4116 13.4996C22.4116 18.4246 18.4209 22.4187 13.5 22.4187C8.57909 22.4187 4.58842 18.4246 4.58842 13.4996C4.58842 8.57456 8.57909 4.58053 13.5 4.58053Z" fill="#63CC48"/>
</g>
<defs>
<clipPath id="clip0_19_413">
<rect width="27" height="27" fill="white"/>
</clipPath>
</defs>
</svg>
