<svg width="24" height="19" viewBox="0 0 24 19" fill="none" xmlns="http://www.w3.org/2000/svg">
<path fill-rule="evenodd" clip-rule="evenodd" d="M21.6069 19C21.8836 19 22.2074 18.675 22.2074 18.4308V16.7989C22.2074 16.4304 21.8901 16.1537 21.4781 16.1537H2.51535C2.05956 16.1537 1.78582 16.4249 1.78582 16.8367V18.4686C1.78582 18.7059 2.13383 19 2.38662 19H21.6069H21.6069ZM10.8369 0.957653C10.7875 1.05642 8.71174 4.62567 8.49646 5.04855C8.24153 5.54938 7.61578 6.64547 7.30975 7.04602C6.87565 7.61407 6.23827 8.13402 5.38961 8.13402H5.30379C4.24283 8.13402 3.62258 7.36051 3.08377 6.65027C2.92675 6.44369 1.77448 4.93914 1.50112 4.51194L0.284624 4.12316L0 5.15467C0.00837676 5.20212 0.0159159 5.25429 0.0238273 5.31172C0.13468 6.12223 0.42433 7.77951 0.628816 8.47159C0.740693 8.85086 0.774572 9.69508 0.898734 10.0377C1.02336 10.3815 1.12435 11.1646 1.20104 11.6177C1.33498 12.4072 1.53006 14.2954 2.17182 14.2954H21.4352C22.3297 14.2954 22.3905 13.5307 22.5488 12.597C22.6158 12.2029 22.9694 10.3017 23.0324 10.1016L24 4.79444L23.628 3.7007L22.504 4.39587L22.5078 4.40331C22.2674 4.87645 21.2048 6.14843 20.8242 6.6503C20.2383 7.42173 19.6768 8.13404 18.5179 8.13404C16.9214 8.13404 16.1042 6.29956 15.4295 5.02428C15.0621 4.32977 14.6472 3.65729 14.2529 2.95694C13.8891 2.31111 13.4914 1.54937 13.108 0.957681L11.9321 0L10.8369 0.957681L10.8369 0.957653Z" fill="#EBA627"/>
</svg>
