<svg width="17" height="12" viewBox="0 0 17 12" fill="none" xmlns="http://www.w3.org/2000/svg">
<path fill-rule="evenodd" clip-rule="evenodd" d="M1.98538 0.645565C1.6015 0.298147 1.08266 3.20448e-06 0.372485 3.20448e-06H0V1.67784H0.372485C0.750968 1.67784 0.873329 1.80134 1.11685 1.93544C1.6093 2.27849 2.04357 2.71011 2.85391 2.71011H3.97077C4.67135 2.71011 6.07911 1.67784 6.20447 1.67784H7.44549C7.55645 1.67784 9.0188 2.71011 9.43027 2.71011H11.0438C11.4546 2.71011 12.8276 1.54872 13.1533 1.54872H13.6494C14.5587 1.54872 15.4254 2.71011 16.3791 2.71011H16.9999V1.16139C15.7925 1.13332 15.1429 0 13.8977 0H13.1533C12.2368 0 11.1235 1.16139 10.423 1.16139H9.92692C9.10937 1.16139 8.47357 0 7.07299 0H6.20446C5.49668 0 4.1645 1.16139 3.84658 1.16139H3.10221C2.63376 1.16139 2.35245 0.847026 1.98536 0.645562L1.98538 0.645565ZM11.5398 9.93542C11.0402 10.0745 11.042 10.3228 10.2994 10.3228H10.0511C9.16037 10.3228 8.26844 9.16137 7.32134 9.16137H6.57637C5.207 9.16137 4.70496 10.3228 3.47473 10.3228H3.22641C2.63679 10.3228 1.54273 9.74768 1.36518 9.29048L0.00360086 9.13205L1.97223e-06 10.7101C1.39877 10.7101 1.45755 12 3.59889 12C4.98806 12 5.84159 10.7101 6.70053 10.7101H6.82469C8.11489 10.7101 8.22946 11.8709 9.92693 11.8709H10.6713C11.2897 11.8709 12.4258 11.2958 12.6567 10.9677C12.8804 10.8118 12.875 10.7101 13.1533 10.7101H13.7735C14.7596 10.7101 14.957 11.8709 16.3791 11.8709H16.9999V10.3228C15.4422 10.3228 15.5748 9.16137 13.5252 9.16137H12.4084L11.5398 9.93542L11.5398 9.93542ZM5.832 4.77404C4.81172 4.86261 4.78292 5.67783 3.47472 5.67783C1.96919 5.67783 1.70408 4.64555 0.744974 4.64555H4.62241e-06V6.19366H0.620813C0.995697 6.19366 1.77486 7.35504 3.10225 7.35504H3.35057C4.93948 7.35504 5.21 6.74067 6.20449 6.19366C8.50359 6.19366 8.4472 7.35504 10.0511 7.35504H10.5472C11.9255 7.35504 12.5499 6.19366 13.4011 6.19366H13.7736C14.7681 6.19366 15.465 7.35504 16.3792 7.35504H17V5.67783H16.6275C15.9197 5.67783 15.0542 4.64556 13.8977 4.64556H13.5252C11.4325 4.64556 11.8416 5.67783 10.1753 5.67783H9.67863C9.17659 5.67783 7.22179 3.85716 5.83202 4.77405L5.832 4.77404Z" fill="#56BBED"/>
</svg>
