<svg width="20" height="26" viewBox="0 0 20 26" fill="none" xmlns="http://www.w3.org/2000/svg">
<g clip-path="url(#clip0_19_795)">
<path fill-rule="evenodd" clip-rule="evenodd" d="M0.700119 0H19.3001C19.6851 0 20 0.324623 20 0.721376V25.2391C20 25.636 19.6402 26.1462 19.3001 25.961L10.0118 20.9019L0.700095 25.961C0.359506 26.1452 0 25.636 0 25.2391V0.721376C0 0.324623 0.315023 0 0.700095 0L0.700119 0ZM10.0001 5.11045L11.8012 8.77259L15.9298 9.39921L12.9349 12.2517L13.6635 16.3998L9.93915 14.4371L6.29659 16.3587L6.98429 12.2721L4.07015 9.3789L8.13824 8.79271L10.0001 5.11045L10.0001 5.11045Z" fill="#7D7D7D"/>
</g>
<defs>
<clipPath id="clip0_19_795">
<rect width="20" height="26" fill="white"/>
</clipPath>
</defs>
</svg>
