<svg width="60" height="60" viewBox="0 0 60 60" fill="none" xmlns="http://www.w3.org/2000/svg">
<path d="M29.9768 14.5443C21.4672 14.5443 14.5736 21.4305 14.5736 29.9235C14.5736 38.4198 21.4672 45.3061 29.9768 45.3061C38.4797 45.3061 45.3799 38.4198 45.3799 29.9235C45.3799 21.4305 38.4797 14.5443 29.9768 14.5443ZM29.9768 39.9168C24.4492 39.9168 19.9679 35.4425 19.9679 29.9268C19.9679 24.4079 24.4492 19.9368 29.9768 19.9368C35.5043 19.9368 39.979 24.4079 39.979 29.9268C39.979 35.4425 35.5043 39.9168 29.9768 39.9168Z" fill="white"/>
<path d="M45.9932 17.5649C47.9769 17.5649 49.585 15.9593 49.585 13.9787C49.585 11.9981 47.9769 10.3925 45.9932 10.3925C44.0096 10.3925 42.4015 11.9981 42.4015 13.9787C42.4015 15.9593 44.0096 17.5649 45.9932 17.5649Z" fill="white"/>
<path d="M58.4107 10.3327C56.8481 6.31071 53.6661 3.13041 49.6379 1.57685C47.309 0.701929 44.8467 0.232867 42.3545 0.17964C39.1459 0.0399198 38.1297 0 29.9933 0C21.857 0 20.8141 -3.34607e-07 17.6322 0.17964C15.1466 0.229541 12.6844 0.698603 10.3554 1.57685C6.32386 3.13041 3.14194 6.31071 1.58263 10.3327C0.706352 12.6613 0.236562 15.1164 0.186584 17.6048C0.0433141 20.8051 0 21.8197 0 29.9468C0 38.0705 -2.48242e-08 39.1051 0.186584 42.2888C0.236562 44.7771 0.706352 47.2322 1.58263 49.5642C3.14527 53.5828 6.32719 56.7631 10.3587 58.32C12.6777 59.2249 15.1399 59.7372 17.6388 59.817C20.8474 59.9568 21.8636 60 30 60C38.1364 60 39.1793 60 42.3612 59.817C44.8501 59.7671 47.3123 59.2948 49.6446 58.4232C53.6728 56.8629 56.8547 53.686 58.4174 49.664C59.2936 47.3353 59.7634 44.8802 59.8134 42.3919C59.9567 39.1916 60 38.177 60 30.0499C60 21.9228 60 20.8916 59.8134 17.7079C59.7701 15.1863 59.3036 12.688 58.4107 10.3327ZM54.3525 42.0426C54.3292 43.9588 53.9827 45.8583 53.3163 47.658C52.3001 50.2761 50.231 52.3453 47.6122 53.35C45.8296 54.012 43.9505 54.358 42.048 54.3846C38.8827 54.5309 37.9898 54.5675 29.8734 54.5675C21.7503 54.5675 20.9207 54.5675 17.6955 54.3846C15.7996 54.3613 13.9138 54.012 12.1346 53.35C9.50578 52.3486 7.42337 50.2794 6.40715 47.658C5.75411 45.8816 5.40093 44.002 5.37095 42.1058C5.22768 38.9454 5.19436 38.0539 5.19436 29.9501C5.19436 21.843 5.19436 21.0146 5.37095 17.7911C5.39427 15.8749 5.74078 13.9787 6.40715 12.179C7.42337 9.55422 9.50578 7.48836 12.1346 6.4837C13.9138 5.82502 15.7996 5.47572 17.6955 5.4491C20.8641 5.30606 21.7537 5.26613 29.8734 5.26613C37.9931 5.26613 38.8261 5.26613 42.048 5.4491C43.9505 5.47239 45.8296 5.82169 47.6122 6.4837C50.231 7.49168 52.3001 9.56088 53.3163 12.179C53.9693 13.9554 54.3225 15.835 54.3525 17.7312C54.4958 20.8949 54.5324 21.7831 54.5324 29.8902C54.5324 37.994 54.5324 38.8656 54.3892 42.0459H54.3525V42.0426Z" fill="white"/>
</svg>
