<svg width="147" height="173" viewBox="0 0 147 173" fill="none" xmlns="http://www.w3.org/2000/svg">
<rect x="72.8349" y="0.0200195" width="83.5746" height="151.095" rx="8" transform="rotate(28.6057 72.8349 0.0200195)" fill="#1A6FC9"/>
<rect x="75.1812" y="9.15723" width="71" height="123" rx="8" transform="rotate(28.6057 75.1812 9.15723)" fill="#FFCC0A"/>
<circle cx="43.1093" cy="143.159" r="5" transform="rotate(-61.3943 43.1093 143.159)" fill="#FFCC0A"/>
<path d="M49.2397 112.938L52.0089 107.86C52.5145 106.932 53.1453 106.21 53.9012 105.693C54.643 105.168 55.4443 104.885 56.305 104.844C57.1656 104.803 58.0103 105.009 58.8391 105.461C59.6679 105.913 60.2981 106.512 60.7297 107.257C61.1614 108.003 61.3645 108.834 61.3391 109.749C61.3136 110.665 61.0481 111.586 60.5425 112.513L58.9912 115.358L64.3642 118.288L63.1462 120.521L49.2397 112.938ZM58.5389 111.475C58.9679 110.689 59.0936 109.974 58.916 109.33C58.7321 108.665 58.296 108.144 57.6077 107.769C56.9194 107.394 56.2458 107.309 55.5869 107.514C54.9357 107.706 54.3956 108.195 53.9666 108.982L52.4383 111.784L57.0106 114.278L58.5389 111.475ZM74.9013 98.9661L67.368 99.9973L65.9777 102.547L71.3506 105.477L70.1326 107.71L56.2261 100.127L58.9954 95.0485C59.501 94.1214 60.1317 93.3993 60.8876 92.882C61.6295 92.3572 62.4307 92.0743 63.2914 92.0333C64.152 91.9924 64.9968 92.1979 65.8255 92.6499C66.7386 93.1478 67.409 93.8232 67.8369 94.6762C68.2647 95.5292 68.4142 96.4581 68.2853 97.4631L76.2916 96.4166L74.9013 98.9661ZM63.997 101.467L65.5253 98.6643C65.9466 97.8917 66.0653 97.1728 65.8814 96.5075C65.6975 95.8422 65.2684 95.3257 64.5941 94.958C63.9058 94.5827 63.2322 94.4978 62.5733 94.7035C61.9144 94.9091 61.3743 95.3982 60.953 96.1708L59.4248 98.9732L63.997 101.467ZM81.2485 87.8786C80.5208 89.2131 79.5344 90.2698 78.2895 91.0489C77.0522 91.8138 75.7095 92.2207 74.2615 92.2693C72.8134 92.3179 71.4222 91.9784 70.0877 91.2507C68.7532 90.5229 67.7144 89.5372 66.9711 88.2935C66.2355 87.0358 65.8542 85.6797 65.8272 84.2253C65.8003 82.7709 66.1507 81.3764 66.8785 80.042C67.5985 78.7215 68.5811 77.6718 69.826 76.8928C71.071 76.1137 72.4175 75.6999 73.8655 75.6513C75.3212 75.5886 76.7163 75.9211 78.0507 76.6488C79.3852 77.3766 80.4203 78.3693 81.1559 79.627C81.8992 80.8707 82.2804 82.2268 82.2997 83.6953C82.319 85.1637 81.9686 86.5582 81.2485 87.8786ZM79.2162 86.7429C79.7294 85.8018 79.9751 84.8332 79.9533 83.8372C79.9175 82.8335 79.625 81.8995 79.0759 81.035C78.5267 80.1706 77.7605 79.4703 76.7772 78.934C75.822 78.4131 74.8324 78.1559 73.8082 78.1624C72.7841 78.1688 71.8475 78.4326 70.9984 78.9537C70.1352 79.4671 69.447 80.1943 68.9338 81.1355C68.4129 82.0907 68.1703 83.0701 68.2062 84.0738C68.228 85.0698 68.5134 86 69.0626 86.8645C69.6054 87.7072 70.3614 88.3928 71.3306 88.9214C72.3139 89.4576 73.3138 89.7296 74.3302 89.7371C75.3543 89.7307 76.2979 89.4707 77.1611 88.9573C78.0102 88.4363 78.6952 87.6981 79.2162 86.7429ZM79.8201 56.3109L93.9584 64.0211L92.7404 66.2546L84.0172 61.4974L87.0709 68.3294L86.6573 69.088L79.2275 70.2302L87.9717 74.9988L86.7537 77.2323L72.6155 69.522L73.0406 68.7424L83.9985 67.146L79.4065 57.0694L79.8201 56.3109ZM99.9007 53.6762C99.1729 55.0106 98.1866 56.0674 96.9416 56.8464C95.7044 57.6114 94.3617 58.0182 92.9136 58.0669C91.4656 58.1155 90.0743 57.776 88.7399 57.0482C87.4054 56.3205 86.3665 55.3348 85.6233 54.0911C84.8876 52.8334 84.5064 51.4773 84.4794 50.0228C84.4525 48.5684 84.8029 47.174 85.5306 45.8395C86.2507 44.5191 87.2332 43.4694 88.4782 42.6903C89.7231 41.9113 91.0696 41.4975 92.5177 41.4488C93.9734 41.3861 95.3685 41.7186 96.7029 42.4464C98.0374 43.1741 99.0724 44.1669 99.8081 45.4246C100.551 46.6683 100.933 48.0243 100.952 49.4928C100.971 50.9613 100.621 52.3557 99.9007 53.6762ZM97.8683 52.5405C98.3816 51.5993 98.6273 50.6308 98.6055 49.6348C98.5697 48.6311 98.2772 47.697 97.728 46.8326C97.1789 45.9681 96.4127 45.2678 95.4294 44.7316C94.4742 44.2107 93.4845 43.9534 92.4604 43.9599C91.4363 43.9664 90.4997 44.2301 89.6506 44.7512C88.7874 45.2646 88.0992 45.9919 87.586 46.933C87.065 47.8882 86.8225 48.8677 86.8583 49.8713C86.8801 50.8673 87.1656 51.7976 87.7148 52.662C88.2575 53.5047 89.0135 54.1904 89.9828 54.719C90.9661 55.2552 91.9659 55.5271 92.9824 55.5347C94.0065 55.5282 94.9501 55.2683 95.8133 54.7549C96.6624 54.2338 97.3474 53.4957 97.8683 52.5405Z" fill="#1A6FC9"/>
</svg>
