<svg width="120" height="78" viewBox="0 0 120 78" fill="none" xmlns="http://www.w3.org/2000/svg">
<path d="M0 25L-4.34518e-07 10.7622C-6.74505e-07 2.8986 7.31232 4.18426e-06 16.3333 3.61948e-06L39 2.20038e-06C44.5229 1.85461e-06 49 4.47715 49 10L49 25L0 25Z" fill="url(#paint0_linear)"/>
<path d="M-3.37803e-07 62.6867C-8.87957e-08 71.1444 7.41009 78 16.5517 78L110 78C115.523 78 120 73.5228 120 68L120 49.2876L120 34.3133C120 28.7904 115.523 24.3133 110 24.3133L16.5517 24.3133C7.41009 24.3133 -1.78247e-06 17.4576 -2.03148e-06 9.00001L-3.37803e-07 62.6867Z" fill="#1A6FC9"/>
<path d="M59.7766 50.8664C51.6272 50.8664 39.2511 46.2888 34.0817 44L28 56.7314C32.4092 59.4017 44.9374 64.7422 59.7766 64.7422C74.6159 64.7422 88.0563 59.4017 92.9216 56.7314L86.3839 44C80.9104 46.2888 67.926 50.8664 59.7766 50.8664Z" fill="#FFCC0A"/>
<defs>
<linearGradient id="paint0_linear" x1="7.65625" y1="23.554" x2="44.7768" y2="-8.38406" gradientUnits="userSpaceOnUse">
<stop stop-color="#15579C"/>
<stop offset="1" stop-color="#1A6FC9"/>
</linearGradient>
</defs>
</svg>
