<svg width="121" height="132" viewBox="0 0 121 132" fill="none" xmlns="http://www.w3.org/2000/svg">
<path d="M5.02029 53.7461C5.02029 49.3278 8.60202 45.7461 13.0203 45.7461H112.818C117.237 45.7461 120.818 49.3278 120.818 53.7461V121.071C120.818 126.594 116.341 131.071 110.818 131.071H15.0203C9.49746 131.071 5.02029 126.594 5.02029 121.071V53.7461Z" fill="#1A6FC9"/>
<path d="M79.3978 86.6984C80.6821 87.4769 80.6821 89.3404 79.3978 90.1189L56.524 103.985C55.1911 104.793 53.4872 103.834 53.4872 102.275L53.4872 74.5422C53.4872 72.9835 55.1911 72.0239 56.524 72.8319L79.3978 86.6984Z" fill="#FFCC0A"/>
<path d="M116.429 17.1954C117.001 19.3292 115.734 21.5226 113.6 22.0944L9.47559 49.9945C7.34172 50.5663 5.14837 49.2999 4.57661 47.1661L2.67915 40.0847C1.24974 34.75 4.41556 29.2667 9.75022 27.8372L102.284 3.04292C107.619 1.6135 113.102 4.77933 114.531 10.114L116.429 17.1954Z" fill="#1A6FC9"/>
<path d="M13.0423 26.955L24.8162 23.8002L28.571 44.8778L16.7971 48.0326L13.0423 26.955Z" fill="#FFCC0A"/>
<path d="M38.3564 20.1723L50.1303 17.0175L53.8851 38.095L42.1112 41.2499L38.3564 20.1723Z" fill="#FFCC0A"/>
<path d="M63.6701 13.3896L75.4441 10.2348L79.1989 31.3123L67.425 34.4671L63.6701 13.3896Z" fill="#FFCC0A"/>
<path d="M88.984 6.60637L100.758 3.45156L104.513 24.5291L92.7389 27.6839L88.984 6.60637Z" fill="#FFCC0A"/>
</svg>
