<svg width="30" height="30" viewBox="0 0 30 30" fill="none" xmlns="http://www.w3.org/2000/svg">
<circle cx="15" cy="15" r="15" fill="#262626"/>
<path d="M10.965 14.0925C12.045 16.215 13.785 17.9475 15.9075 19.035L17.5575 17.385C17.76 17.1825 18.06 17.115 18.3225 17.205C19.1625 17.4825 20.07 17.6325 21 17.6325C21.4125 17.6325 21.75 17.97 21.75 18.3825V21C21.75 21.4125 21.4125 21.75 21 21.75C13.9575 21.75 8.25 16.0425 8.25 9C8.25 8.5875 8.5875 8.25 9 8.25H11.625C12.0375 8.25 12.375 8.5875 12.375 9C12.375 9.9375 12.525 10.8375 12.8025 11.6775C12.885 11.94 12.825 12.2325 12.615 12.4425L10.965 14.0925Z" fill="white"/>
</svg>
