<svg width="107" height="113" viewBox="0 0 107 113" fill="none" xmlns="http://www.w3.org/2000/svg">
<path d="M47.9404 9.91222C43.2495 8.66488 41.4379 12.7655 37.8781 14.6217C36.3588 11.4351 27.9116 18.9558 26.141 20.1501C24.5226 21.2419 22.4597 22.1735 21.0857 23.5517C18.8995 25.7461 20.772 25.2835 21.8974 27.1476C20.2356 29.8228 16.4629 30.1449 15.3601 33.5161C14.5733 35.9291 17.3439 40.0048 20.0706 38.9021L21.3365 39.7814C22.0697 40.1044 22.8942 40.4808 23.7984 40.7481C30.2093 42.645 36.1513 38.8029 40.9066 34.6157C44.2695 31.6532 46.6245 27.7395 49.9796 24.7907C51.5963 23.3681 53.6657 21.3036 54.2617 19.1002C55.4022 14.92 51.7391 10.9226 47.9404 9.91222Z" fill="#B52A41"/>
<path d="M45.3648 103.338C59.7613 112.585 105.077 78.4611 100.08 67.0639C94.4564 54.2326 57.1277 34.3597 43.8928 45.1483C32.1805 54.6968 34.8543 96.588 45.3648 103.338Z" fill="#E5334C"/>
<path d="M56.5455 11.9858C54.4151 9.66708 54.1512 8.13325 47.7505 13.6943C50.5435 13.2453 53.6654 13.1451 52.0409 17.2643C51.7656 17.961 50.1674 20.0739 49.2671 20.1659C47.2982 20.3656 48.8177 19.0893 48.2631 18.0966C46.5387 15.01 42.5669 19.0773 40.3026 20.7708C37.226 23.0719 33.7781 24.7972 30.8824 27.253C37.2796 27.7156 30.0255 31.5443 27.689 32.3795C23.8475 33.7486 20.7878 36.4598 17.1633 37.772C20.2742 42.4911 23.8977 44.7821 28.9377 47.1908C31.0856 48.216 40.7282 54.3673 41.7822 53.7202L40.9488 55.8622C44.5491 57.6579 48.0996 56.2551 51.6573 54.017C53.8792 52.6204 56.6025 50.8814 57.8414 48.419C59.0261 46.0656 58.1869 43.8935 57.8475 41.4397C57.1189 36.2122 57.2525 31.0632 57.7907 25.9649C58.2002 22.052 59.5339 15.2418 56.5455 11.9858Z" fill="#E5334C"/>
<path d="M100.285 66.9261C95.9373 57.0028 74.6699 43.3588 58.5283 42.5282C57.1513 42.4564 57.1548 43.459 58.9431 44.4372C62.1642 46.1948 65.2024 48.5272 68.3538 50.4341C74.9995 54.4593 81.2514 58.8099 87.1532 63.6009C95.7341 70.5707 87.9032 77.6287 81.3735 82.5061C74.4635 87.6655 66.8427 92.6614 58.7756 95.1775C57.4521 95.5891 47.7189 99.0632 42.0625 99.2506C43.1031 101.014 44.2777 102.377 45.5688 103.205C59.9613 112.446 105.279 78.3253 100.285 66.9261Z" fill="#B52A41"/>
<path d="M34.4254 28.7855C33.5018 27.6626 30.8608 26.3483 30.579 28.9102C30.5297 29.3736 30.736 29.8562 30.9876 30.223L30.8195 30.6302C30.784 31.4803 31.8046 32.4568 32.268 33.2131C32.9496 34.3246 33.3987 35.5206 34.1302 36.624C35.6704 38.9577 37.0601 41.3588 38.613 43.7052C39.9616 45.7423 41.1122 48.1045 42.7884 49.895C43.2936 50.4357 44.0923 51.2852 44.9232 50.6609C45.7979 50.0069 45.0932 48.4383 44.804 47.6497C43.9681 45.369 42.4412 43.4905 41.4177 41.2725C40.2832 38.8142 39.0099 36.573 37.691 34.2264C36.6806 32.4381 35.7481 30.3929 34.4254 28.7855Z" fill="#B52A41"/>
<path d="M52.2675 10.1367C50.8245 11.8042 52.0242 12.9198 52.7261 14.5286C53.5034 16.2995 53.8339 18.7338 54.0034 20.7273C54.393 25.2253 55.0795 29.7402 55.7141 34.2603C56.0044 36.3257 56.4158 38.3434 56.6805 40.3707C56.9093 42.1241 56.9407 44.8283 59.3404 43.7205L58.124 43.6596C57.064 42.1134 57.6892 39.5114 57.7149 37.7694C57.7527 35.3508 57.5075 32.9356 57.4983 30.5231C57.4807 25.6677 59.1319 20.5212 58.1833 15.6934C57.7763 13.5876 56.2325 5.55438 52.2675 10.1367Z" fill="#B52A41"/>
<path d="M50.9436 15.5812C49.9946 15.7147 49.9812 17.3929 50.1778 17.716L49.8077 18.2594C50.5645 20.3977 50.5322 22.736 50.8824 25.0292C51.3057 27.7841 51.9657 30.4986 52.395 33.2623C52.7014 35.2443 53.2953 37.1347 53.4932 39.1389C53.5979 40.1968 53.2146 43.7129 54.4807 43.9234C55.1982 42.0768 54.4573 39.2551 54.246 37.3068C53.9965 35.0052 53.5897 32.7672 53.2942 30.4541C52.7473 26.2155 52.0477 21.8074 51.8211 17.5954C51.787 16.8945 51.8799 15.4479 50.9436 15.5812Z" fill="#B52A41"/>
<path d="M46.2875 31.4648C45.7665 30.3641 45.215 29.2372 44.576 28.2332C43.8126 27.032 43.4001 26.9696 43.7921 28.4724C44.5381 31.3333 46.0618 34.798 47.2795 37.6005C48.4287 40.2447 49.5558 42.7931 50.7879 45.3772L50.875 45.74C51.1556 46.0234 51.9527 45.8604 52.1285 45.414C52.3246 44.9155 51.9334 43.9316 51.6691 43.2115C50.9873 41.3548 49.9832 39.4686 49.1215 37.6482C48.1586 35.6022 47.2632 33.5362 46.2875 31.4648Z" fill="#B52A41"/>
<path d="M43.4625 55.9053C42.4588 56.4375 41.8292 56.4321 41.1209 57.4464C40.5526 58.2642 40.1841 59.2835 39.9171 60.2386C39.2121 62.7539 39.3009 65.3981 39.5127 67.972C39.9174 72.8899 40.3884 77.9377 42.5228 82.4086C43.4983 84.4545 45.2096 86.3917 47.4393 87.1404C49.6306 87.8765 51.8417 86.2871 53.648 85.1836C55.875 83.8261 56.867 82.5821 56.9482 79.8744C57.0306 77.2 56.4594 74.4341 55.7317 71.8718C54.5378 67.6778 52.5227 64.0718 50.3065 60.3887C49.4646 58.9892 48.4787 57.5591 47.253 56.6826C46.445 56.1035 44.1675 55.0251 43.3908 56.2347L43.4625 55.9053Z" fill="#F24462"/>
<path d="M39.1409 49.1181C37.5336 47.575 35.6374 46.2096 33.8495 44.7585C31.5993 42.9378 29.5642 40.8614 27.4347 38.9039C26.308 37.8712 25.1709 36.7347 23.8914 35.8859C22.6847 35.0818 22.4035 35.2204 21.213 35.785C19.6445 36.5279 18.0964 37.2187 16.3047 37.2393C17.3328 38.6877 18.2753 40.2237 19.389 41.5718C22.0029 44.7397 25.4646 46.6204 29.171 48.4978C30.9167 49.3812 32.7995 50.0828 34.6345 50.8336C35.819 51.3207 38.2913 52.5869 39.2139 52.4458L41.44 51.8257C41.5392 51.8907 41.617 51.9745 41.7289 52.0268C40.9256 50.8738 40.1124 50.0469 39.1409 49.1181Z" fill="#F24462"/>
<path d="M48.9352 20.0632C48.4667 20.1578 48.3102 20.0078 48.3337 19.992L48.2969 19.723C47.5803 20.99 49.139 24.5759 49.4229 26.0195C49.9274 28.5791 50.4788 31.1199 50.9664 33.6483C51.3432 35.5957 51.5069 37.4356 51.7723 39.4198C51.9212 40.5117 52.5457 44.6128 53.7135 44.7406C54.2046 43.4044 53.11 40.7148 52.9012 39.2374C52.6396 37.404 52.1976 35.5304 51.9899 33.6946C51.5443 29.7198 51.0202 25.7171 50.5354 21.7347C50.4412 20.9763 50.2978 20.1703 49.9105 19.5331C49.6463 19.7538 49.2502 19.9998 48.9352 20.0632Z" fill="#F24462"/>
<path d="M38.3712 22.488C37.7497 22.3621 36.4249 23.6177 35.8893 23.979C35.0553 24.5417 34.0373 24.9643 34.1463 25.9213C34.2296 26.6571 35.2225 27.9207 35.5884 28.5894C36.6684 30.5819 37.7134 32.5982 38.8063 34.6161C40.2849 37.3447 42.0087 39.9506 43.5098 42.681C43.8935 43.3761 46.6796 49.034 47.6459 47.935L48.928 47.6578C49.1612 47.3344 49.0494 46.9287 48.9591 46.3466C48.6518 44.4076 47.2751 42.4109 46.3947 40.5817C44.9102 37.5036 43.4658 34.2196 41.8736 31.146C40.7406 28.955 40.2085 27.2571 39.5776 24.8637C39.4118 24.2516 39.1465 22.6463 38.3712 22.488Z" fill="#F24462"/>
<path opacity="0.6" d="M37.5698 85.3013L45.9355 76.1322L55.3687 77.2637L60.9843 65.981L72.1354 65.9536C72.1354 65.9536 72.0552 57.3377 72.4929 57.3363C72.9335 57.3329 84.2437 55.5843 84.2437 55.5843L82.4261 50.491L84.4952 51.595L88.1798 57.9285L76.8044 60.4578L75.2357 70.335L62.9305 69.5227L56.4047 81.4193L46.9667 79.4096L37.8957 89.0544L37.5698 85.3013Z" fill="#D1CD95"/>
<path opacity="0.6" d="M36.3514 72.1644C36.3514 72.1644 48.8936 67.2299 56.5702 62.0516C64.2468 56.8734 73.515 46.2141 73.515 46.2141L74.7348 46.7156C74.7348 46.7156 66.9796 56.3542 57.2837 62.8947C47.5877 69.4352 36.2204 73.2833 36.2204 73.2833L36.3514 72.1644Z" fill="#D1CD95"/>
<path opacity="0.6" d="M39.4417 93.7397C39.4417 93.7397 61.5662 86.0163 69.6786 79.9564C77.7881 73.8985 92.6024 57.7308 92.6024 57.7308L93.4855 58.6043C93.4855 58.6043 83.2495 71.5345 70.5616 80.8299C57.587 90.3315 39.7861 95.1213 39.7861 95.1213L39.4417 93.7397Z" fill="#D1CD95"/>
</svg>
