<svg width="253" height="333" viewBox="0 0 253 333" fill="none" xmlns="http://www.w3.org/2000/svg">
<path d="M212.832 38.422C214.014 37.3748 215.213 36.345 216.427 35.3325C218.053 33.9749 220.016 36.6251 218.39 37.9827C208.719 46.0812 200.018 55.3019 192.466 65.4111C184.917 75.5138 178.542 86.4758 173.515 98.0431C168.517 109.558 165.152 121.639 161.53 133.63C157.939 145.518 153.98 157.392 147.752 168.196C141.319 179.373 132.866 189.32 122.831 197.431C121.586 198.435 120.313 199.415 119.025 200.361C117.319 201.615 115.346 198.968 117.062 197.711C127.388 190.127 136.208 180.613 143.007 169.748C149.631 159.171 153.862 147.361 157.525 135.496C161.216 123.551 164.415 111.43 169.168 99.8484C173.97 88.1318 180.159 76.965 187.489 66.6396C194.829 56.3112 203.35 46.8291 212.832 38.422Z" fill="#2EA098"/>
<path d="M30.8842 225.627C30.708 225.855 30.5354 226.075 30.3657 226.306C30.0761 226.693 29.7793 227.092 29.4896 227.479C29.4362 227.561 29.3763 227.639 29.3229 227.72C29.0391 228.127 28.759 228.528 28.4818 228.938C28.3223 229.166 28.1657 229.404 28.0192 229.639C27.916 229.796 27.8164 229.946 27.7198 230.106C27.6346 230.229 27.5523 230.363 27.4737 230.491C27.3597 230.667 27.2559 230.84 27.1514 231.03C27.0481 231.186 26.9515 231.346 26.8548 231.507C26.7798 231.627 26.7113 231.752 26.6392 231.883C26.5606 232.01 26.4819 232.138 26.4098 232.269C26.4026 232.282 26.3853 232.298 26.381 232.321C26.1264 232.752 25.8951 233.188 25.65 233.634C25.4475 234.017 25.2385 234.397 25.0527 234.781C24.9265 235.01 24.8308 235.23 24.7213 235.46C24.7177 235.467 24.7177 235.467 24.7141 235.473C24.583 235.742 24.4556 236.005 24.3413 236.275C24.3131 236.311 24.3016 236.347 24.2901 236.383C24.1541 236.692 24.0217 236.995 23.8821 237.311C23.7425 237.626 23.5993 237.948 23.4794 238.275C23.4542 238.321 23.4318 238.377 23.4059 238.439C23.3987 238.452 23.3879 238.472 23.3836 238.495C23.2391 238.851 23.1077 239.214 22.9799 239.57C22.8613 239.863 22.7521 240.17 22.6495 240.48C22.5125 240.9 22.3754 241.319 22.245 241.742C22.1181 242.159 21.9942 242.585 21.8775 242.999C21.7965 243.27 21.7322 243.542 21.6578 243.817C21.6306 243.913 21.6135 244.005 21.5863 244.101C21.5548 244.221 21.5198 244.346 21.4883 244.466C21.4411 244.644 21.3969 244.833 21.3562 245.016C21.2677 245.394 21.1791 245.771 21.1138 246.154C21.1023 246.19 21.0974 246.23 21.0925 246.27C20.8646 247.382 20.6802 248.492 20.5357 249.607C20.4921 249.95 20.4513 250.302 20.4178 250.642C20.4116 250.716 20.4025 250.779 20.3962 250.852C20.3354 251.459 20.2884 252.056 20.2509 252.667C20.1807 253.848 20.1505 255.035 20.1574 256.216C20.1606 256.473 20.1733 256.745 20.1699 256.999C20.1904 257.582 20.2072 258.171 20.2479 258.749C20.262 258.987 20.276 259.225 20.3097 259.474C20.3429 259.987 20.3899 260.49 20.4405 260.988C20.4647 261.223 20.4925 261.451 20.5166 261.686C20.5349 261.901 20.5662 262.123 20.6041 262.349C20.6208 262.52 20.6375 262.691 20.6744 262.857C20.7097 263.149 20.758 263.449 20.8136 263.736C20.8577 264.058 20.9156 264.372 20.9699 264.692C21.0833 265.292 21.1967 265.892 21.3269 266.492C22.098 270.006 23.2252 273.399 24.6543 276.6C24.7744 276.862 24.8915 277.115 25.0116 277.377C25.0483 277.465 25.0885 277.547 25.1288 277.629C25.1536 277.677 25.1785 277.725 25.2034 277.773C25.2554 277.895 25.3206 278.025 25.3791 278.151C25.3821 278.161 25.385 278.171 25.3916 278.175C25.3916 278.175 25.3916 278.175 25.3981 278.178C25.5343 278.458 25.6646 278.718 25.8007 278.997C25.9339 279.267 26.0772 279.533 26.2206 279.8C26.5037 280.34 26.7903 280.873 27.0974 281.4C27.2407 281.667 27.3913 281.921 27.5484 282.178C27.6954 282.438 27.8525 282.695 28.0132 282.945C28.3274 283.46 28.6453 283.967 28.9769 284.465C29.5765 285.376 30.1971 286.263 30.8446 287.149C34.9111 292.689 39.8723 297.519 45.278 301.68C50.921 306.014 57.1482 309.706 63.8968 312.141C63.8968 312.141 63.8968 312.141 63.9034 312.145C64.8965 312.495 65.9106 312.823 66.9224 313.124C66.9289 313.127 66.9391 313.124 66.9391 313.124C68.7214 313.653 70.5404 314.1 72.3974 314.431C72.9191 314.522 73.424 314.612 73.9463 314.686C74.6117 314.779 75.2873 314.869 75.954 314.929C76.3339 314.968 76.7101 315.013 77.0936 315.045C77.1037 315.042 77.1139 315.039 77.1205 315.042C77.5606 315.08 77.9912 315.103 78.4284 315.131C78.525 315.141 78.6252 315.145 78.7254 315.149C79.323 315.18 79.901 315.199 80.4928 315.209C80.9545 315.207 81.4127 315.212 81.878 315.204C82.4167 315.201 82.9495 315.179 83.4895 315.144C84.0325 315.118 84.5624 315.086 85.0995 315.04C87.4728 314.836 89.8461 314.461 92.194 313.885C92.64 313.772 93.0963 313.656 93.5329 313.53C95.1393 313.092 96.7293 312.559 98.2965 311.928C98.7655 311.743 99.2352 311.541 99.6983 311.335C100.944 310.792 102.163 310.174 103.371 309.499C103.771 309.268 104.165 309.049 104.556 308.804C104.682 308.728 104.806 308.659 104.936 308.578C105.213 308.415 105.488 308.242 105.756 308.065C106.099 307.844 106.439 307.613 106.783 307.376C107.027 307.212 107.271 307.047 107.506 306.869C107.709 306.734 107.908 306.588 108.102 306.438C108.487 306.155 108.87 305.863 109.24 305.563C109.617 305.267 109.986 304.967 110.343 304.66C110.395 304.612 110.45 304.574 110.492 304.529C110.568 304.468 110.644 304.407 110.714 304.343C110.831 304.237 110.946 304.138 111.07 304.036C111.313 303.828 111.549 303.617 111.788 303.399C112.354 302.882 112.906 302.359 113.453 301.815C113.645 301.622 113.836 301.429 114.021 301.232C114.196 301.055 114.37 300.878 114.531 300.694C114.817 300.391 115.107 300.081 115.391 299.768C115.489 299.651 115.59 299.545 115.685 299.435C115.783 299.335 115.881 299.218 115.979 299.102C116.021 299.056 116.063 299.011 116.102 298.956C116.144 298.911 116.186 298.866 116.221 298.817C116.47 298.536 116.705 298.247 116.941 297.959C117.268 297.567 117.588 297.171 117.901 296.772C118.109 296.503 118.321 296.227 118.522 295.954C118.691 295.74 118.85 295.528 119.01 295.301C119.282 294.93 119.551 294.549 119.814 294.165C120.893 292.608 121.89 290.998 122.812 289.339C122.913 289.155 123.017 288.965 123.118 288.782C123.269 288.524 123.406 288.258 123.541 287.982C123.86 287.356 124.173 286.726 124.472 286.089C124.75 285.491 125.022 284.89 125.286 284.284C125.383 284.047 125.486 283.814 125.582 283.577C125.814 283.031 126.034 282.477 126.246 281.92C126.405 281.539 126.545 281.146 126.684 280.753C127 279.853 127.3 278.951 127.567 278.048C127.636 277.83 127.708 277.606 127.764 277.38C127.83 277.135 127.9 276.901 127.963 276.662C128.095 276.206 128.21 275.749 128.318 275.288C128.417 274.907 128.506 274.529 128.597 274.161C128.893 272.865 129.144 271.57 129.356 270.271C129.396 270.028 129.432 269.792 129.462 269.535C129.544 269 129.612 268.457 129.677 267.921C129.722 267.528 129.765 267.125 129.807 266.739C129.92 265.572 130.003 264.415 130.058 263.259C130.137 261.366 130.124 259.482 130.011 257.61C129.997 257.356 129.987 257.111 129.974 256.856C129.827 254.719 129.563 252.595 129.198 250.499C128.948 249.108 128.658 247.728 128.32 246.373C128.308 246.349 128.312 246.326 128.3 246.302C127.979 245.025 127.617 243.759 127.212 242.512C127.119 242.231 127.02 241.946 126.921 241.661C125.075 236.225 122.453 231.13 119.173 226.595C116.499 222.896 113.392 219.565 109.895 216.71C105.455 213.089 100.348 210.261 94.8324 208.283C90.5508 206.745 86.0389 205.704 81.4252 205.204C81.0954 205.167 80.7657 205.131 80.4388 205.105C80.0154 205.068 79.5854 205.027 79.1649 205.001C78.2107 204.936 77.2493 204.885 76.293 204.87C76.0055 204.866 75.715 204.851 75.4203 204.859C74.6114 204.841 73.7911 204.859 72.9838 204.883C72.6122 204.892 72.2434 204.911 71.8681 204.926C70.6646 204.989 69.4532 205.082 68.2602 205.219C67.0671 205.355 65.8662 205.522 64.6734 205.736C63.7201 205.902 62.7625 206.092 61.8173 206.306C61.5033 206.38 61.1892 206.455 60.8715 206.536C60.5879 206.602 60.3173 206.674 60.0468 206.747C58.9487 207.022 57.8486 207.346 56.7711 207.692C56.7675 207.698 56.7675 207.698 56.7675 207.698C56.3745 207.823 55.9779 207.955 55.5878 208.09C54.8178 208.357 54.0537 208.645 53.2889 208.949C53.0577 209.044 52.8199 209.135 52.6018 209.237C51.3029 209.767 50.0252 210.352 48.7753 210.996C48.3079 211.225 47.84 211.47 47.3749 211.726C47.1496 211.841 46.9271 211.966 46.7149 212.088C46.4171 212.257 46.1331 212.417 45.8384 212.596C45.2016 212.962 44.5708 213.349 43.9494 213.749C43.4483 214.07 42.9566 214.405 42.4715 214.744C42.2275 214.909 41.9835 215.073 41.749 215.251C40.8643 215.882 39.9985 216.54 39.1583 217.229C38.2421 217.979 37.3312 218.766 36.4523 219.588C36.2164 219.799 35.9799 220.028 35.7535 220.253C35.6841 220.317 35.6248 220.378 35.5554 220.442C35.1901 220.796 34.838 221.157 34.4859 221.518C34.4194 221.592 34.3463 221.663 34.2697 221.74C34.0354 221.995 33.7946 222.246 33.564 222.495C33.0782 223.021 32.5882 223.57 32.1214 224.124C31.9392 224.331 31.7635 224.541 31.5945 224.755C31.335 225.056 31.1031 225.338 30.8842 225.627Z" fill="#FC2D0F"/>
<path d="M72.9577 204.902C77.3778 209.878 82.0654 214.599 86.9946 219.053C99.2994 230.134 113.15 239.447 128.277 246.314C127.956 245.037 127.595 243.772 127.189 242.524C127.097 242.243 126.998 241.958 126.898 241.673C125.052 236.237 122.43 231.142 119.15 226.607C110.423 221.334 102.3 215.165 94.8063 208.302C90.5247 206.764 86.0127 205.723 81.399 205.223C81.0692 205.186 80.7395 205.15 80.4127 205.123C79.0392 204.999 77.6507 204.917 76.2668 204.889C75.1675 204.856 74.0633 204.862 72.9577 204.902Z" fill="#E21B07"/>
<path d="M88.8143 207.794C88.2646 209.429 88.3767 211.163 89.5652 213.003C91.3154 215.698 94.1518 217.49 96.5601 219.532C98.975 221.578 101.524 223.458 104.154 225.222C109.104 228.552 114.693 232.209 120.419 234.021C124.529 235.327 126.067 228.674 126.939 225.912C128.682 220.404 130.95 215.074 133.034 209.676C133.22 209.198 133.42 208.711 133.627 208.211C135.312 204.173 137.496 199.461 135.453 195.359C133.854 192.141 130.904 189.673 128.038 187.609C125.634 185.885 121.286 182.809 118.143 183.528C115.001 184.214 111.995 187.303 109.472 189.19C106.021 191.771 102.659 194.468 99.4063 197.293C99.3021 197.39 99.195 197.476 99.0843 197.568C95.9849 200.146 90.2274 203.615 88.8143 207.794Z" fill="#4CBFB9"/>
<path d="M88.8152 207.794C88.2655 209.429 88.3776 211.163 89.5661 213.003C91.3163 215.698 94.1527 217.49 96.561 219.532C98.9759 221.578 101.524 223.458 104.154 225.222C109.105 228.552 114.694 232.209 120.42 234.021C124.53 235.327 126.068 228.674 126.94 225.912C128.683 220.404 130.951 215.074 133.035 209.676C133.221 209.198 133.421 208.711 133.628 208.211C130.611 208.436 127.553 208.288 124.56 207.836C116.566 206.61 109.041 203.244 101.995 199.273C101.01 198.722 100.042 198.155 99.0816 197.575C95.9858 200.146 90.2283 203.615 88.8152 207.794Z" fill="#2EA098"/>
<path d="M125.059 190.372C121.569 195.319 118.074 200.273 114.583 205.22C110.994 210.3 107.404 215.381 103.821 220.465C102.595 222.196 105.19 224.239 106.413 222.497C110.22 217.101 114.036 211.702 117.842 206.306C121.11 201.671 124.381 197.046 127.648 192.411C128.878 190.673 126.289 188.634 125.059 190.372Z" fill="#2EA098"/>
<path d="M95.4319 212.546C94.8079 213.183 95.0724 214.361 95.7118 214.858C96.4678 215.454 97.4042 215.21 98.0246 214.578C101.795 210.766 105.495 206.881 109.123 202.94C113.524 198.169 117.827 193.311 122.021 188.358C123.397 186.727 120.797 184.707 119.428 186.326C115.067 191.459 110.609 196.505 106.031 201.443C102.564 205.2 99.0281 208.911 95.4319 212.546Z" fill="#2EA098"/>
<path d="M130.392 196.388C128.282 200.175 126.162 203.965 124.052 207.753C120.523 214.07 116.995 220.387 113.473 226.708C113.034 227.49 113.608 228.557 114.352 228.864C115.24 229.233 116.076 228.755 116.511 227.979C120.191 221.387 123.867 214.784 127.557 208.189C129.516 204.677 131.461 201.174 133.426 197.665C133.869 196.876 133.292 195.817 132.541 195.506C131.663 195.133 130.828 195.612 130.392 196.388Z" fill="#2EA098"/>
<path d="M124.568 207.84C124.395 207.813 124.222 207.786 124.063 207.75C120.535 214.067 117.006 220.385 113.485 226.705C113.046 227.488 113.619 228.554 114.363 228.861C115.252 229.231 116.087 228.752 116.522 227.976C120.202 221.384 123.879 214.782 127.568 208.186C126.565 208.103 125.559 207.993 124.568 207.84Z" fill="#1A847A"/>
<path d="M117.854 206.304C116.759 205.983 115.673 205.615 114.584 205.221C110.995 210.301 107.405 215.382 103.822 220.466C102.596 222.197 105.191 224.24 106.414 222.499C110.221 217.102 114.037 211.703 117.854 206.304Z" fill="#1A847A"/>
<path d="M95.4337 212.546C94.8097 213.184 95.0742 214.362 95.7136 214.859C96.4696 215.454 97.406 215.21 98.0264 214.579C101.797 210.767 105.497 206.882 109.125 202.941C108.08 202.468 107.053 201.962 106.033 201.444C102.566 205.201 99.0299 208.911 95.4337 212.546Z" fill="#1A847A"/>
<path d="M30.8844 225.627C30.7081 225.854 30.5355 226.075 30.3658 226.306C30.0762 226.693 29.7794 227.092 29.4898 227.479C29.4364 227.561 29.3764 227.638 29.323 227.72C29.0393 228.127 28.7591 228.527 28.482 228.938C28.3224 229.166 28.1658 229.404 28.0194 229.639C27.9162 229.796 27.8165 229.945 27.7199 230.106C27.6347 230.229 27.5524 230.363 27.4738 230.491C27.3598 230.667 27.256 230.84 27.1515 231.03C27.0548 231.19 26.9581 231.35 26.8608 231.527C26.8261 231.559 26.8009 231.605 26.7822 231.654C26.7324 231.729 26.6826 231.804 26.6393 231.883C26.5607 232.01 26.482 232.137 26.4099 232.268C26.4027 232.282 26.3854 232.298 26.3811 232.321C26.1265 232.752 25.8952 233.188 25.6501 233.633C25.4476 234.017 25.2386 234.397 25.0528 234.781C24.9266 235.01 24.8309 235.23 24.7214 235.46C24.7178 235.467 24.7178 235.467 24.7142 235.473C24.5832 235.742 24.4558 236.005 24.3414 236.275C24.3132 236.31 24.3017 236.347 24.2903 236.383C24.1543 236.692 24.0219 236.995 23.8823 237.31C23.7427 237.626 23.5995 237.948 23.4795 238.275C23.4543 238.321 23.4319 238.377 23.406 238.439C23.3988 238.452 23.388 238.472 23.3837 238.495C23.2392 238.851 23.1079 239.214 22.98 239.57C22.8614 239.863 22.7522 240.17 22.6496 240.48C22.5126 240.9 22.3756 241.319 22.2451 241.742C22.1182 242.159 21.9943 242.585 21.8776 242.999C21.7966 243.27 21.7324 243.542 21.6579 243.816C21.6307 243.912 21.6137 244.005 21.5864 244.101C21.555 244.221 21.5199 244.346 21.4884 244.465C21.4412 244.644 21.397 244.833 21.3563 245.016C21.2678 245.394 21.1792 245.771 21.1139 246.154C21.1025 246.19 21.0976 246.23 21.0926 246.27C20.8647 247.382 20.6803 248.492 20.5359 249.607C20.4922 249.949 20.4515 250.302 20.418 250.642C20.4117 250.716 20.4026 250.779 20.3963 250.852C20.3356 251.459 20.2885 252.056 20.251 252.667C20.1809 253.848 20.1507 255.034 20.1575 256.216C20.1607 256.473 20.1734 256.745 20.17 256.999C20.1905 257.582 20.2073 258.171 20.2481 258.748C20.2621 258.987 20.2761 259.225 20.3098 259.473C20.343 259.987 20.39 260.49 20.4406 260.987C20.4648 261.223 20.4926 261.451 20.5168 261.686C20.535 261.901 20.5663 262.123 20.6042 262.349C20.6209 262.52 20.6376 262.691 20.6745 262.857C20.7098 263.149 20.7582 263.449 20.8137 263.735C20.8578 264.058 20.9157 264.372 20.97 264.692C21.0834 265.292 21.1969 265.892 21.327 266.492C22.0981 270.005 23.2253 273.399 24.6544 276.6C24.7745 276.862 24.8916 277.114 25.0117 277.377C25.0484 277.465 25.0886 277.547 25.1289 277.629C25.1538 277.677 25.1787 277.725 25.2035 277.773C25.2556 277.895 25.3207 278.025 25.3793 278.151C25.3822 278.161 25.3852 278.171 25.3917 278.175C25.3917 278.175 25.3917 278.175 25.3983 278.178C25.5344 278.458 25.6647 278.717 25.8008 278.997C25.934 279.267 26.0774 279.533 26.2207 279.8C26.5038 280.34 26.7905 280.873 27.0975 281.4C27.2408 281.667 27.3914 281.92 27.5485 282.178C27.6955 282.438 27.8526 282.695 28.0134 282.945C28.3276 283.46 28.6454 283.967 28.977 284.465C29.5767 285.376 30.1972 286.263 30.8447 287.149C34.9112 292.689 39.8724 297.518 45.2781 301.68C50.9212 306.014 57.1484 309.706 63.8969 312.141C63.8969 312.141 63.8969 312.141 63.9035 312.145C64.8966 312.495 65.9107 312.823 66.9225 313.124C66.929 313.127 66.9392 313.124 66.9392 313.124C68.7215 313.653 70.5405 314.1 72.3975 314.431C72.9192 314.522 73.4241 314.612 73.9465 314.686C74.6119 314.779 75.2874 314.869 75.9542 314.929C76.334 314.968 76.7103 315.013 77.0937 315.045C77.1039 315.042 77.1141 315.039 77.1206 315.042C77.5607 315.08 77.9913 315.103 78.4285 315.131C78.5251 315.141 78.6253 315.145 78.7255 315.149C79.3232 315.18 79.9012 315.199 80.4929 315.209C80.9547 315.207 81.4128 315.212 81.8782 315.204C82.4169 315.201 82.9497 315.179 83.4897 315.143C84.0326 315.118 84.5625 315.085 85.0996 315.04C87.4729 314.836 89.8462 314.461 92.1941 313.885C92.6402 313.772 93.0964 313.656 93.533 313.53C95.1394 313.091 96.7295 312.559 98.2966 311.928C98.7656 311.743 99.2353 311.541 99.6984 311.335C100.944 310.792 102.163 310.174 103.371 309.499C103.771 309.268 104.165 309.049 104.556 308.803C104.683 308.728 104.806 308.659 104.936 308.578C105.213 308.415 105.488 308.241 105.756 308.065C106.099 307.844 106.439 307.613 106.783 307.376C107.027 307.212 107.271 307.047 107.506 306.869C107.709 306.733 107.908 306.587 108.102 306.438C108.488 306.155 108.87 305.863 109.24 305.563C109.617 305.267 109.987 304.967 110.343 304.66C110.395 304.612 110.45 304.574 110.492 304.528C110.568 304.468 110.644 304.407 110.714 304.343C110.832 304.237 110.946 304.138 111.07 304.036C111.313 303.828 111.549 303.617 111.788 303.399C112.354 302.882 112.906 302.359 113.453 301.815C113.645 301.622 113.836 301.429 114.022 301.232C114.196 301.055 114.37 300.878 114.531 300.694C114.818 300.39 115.108 300.081 115.391 299.767C115.489 299.651 115.59 299.545 115.685 299.434C115.783 299.318 115.885 299.211 115.973 299.098C116.018 299.046 116.063 299.011 116.098 298.962C116.14 298.917 116.182 298.872 116.218 298.823C116.466 298.542 116.702 298.254 116.937 297.965C117.264 297.573 117.584 297.178 117.898 296.779C118.106 296.509 118.317 296.233 118.519 295.96C118.688 295.746 118.847 295.535 119.006 295.307C119.279 294.936 119.548 294.556 119.811 294.171C120.889 292.615 121.886 291.005 122.808 289.345C122.909 289.162 123.014 288.972 123.115 288.788C123.265 288.53 123.403 288.265 123.538 287.989C122.683 288.116 121.809 288.215 120.95 288.288C120.137 288.37 119.319 288.414 118.498 288.449C112.021 288.698 105.438 287.668 99.3881 285.499C94.8062 283.856 90.4931 281.678 86.4099 279.098C85.4338 278.484 84.4788 277.847 83.528 277.187C81.0367 275.466 78.6546 273.609 76.3308 271.63L76.3242 271.627C75.7058 271.107 75.101 270.578 74.5101 270.04C69.4457 265.537 64.7489 260.537 60.3305 255.435C54.0829 248.199 48.1851 240.576 43.2181 232.424C43.2116 232.421 43.2152 232.414 43.2086 232.411C40.6919 228.286 38.4048 224.024 36.438 219.614C36.2021 219.826 35.9656 220.054 35.7393 220.279C35.6698 220.343 35.6105 220.404 35.5411 220.469C35.1759 220.822 34.8237 221.183 34.4716 221.544C34.4051 221.618 34.332 221.689 34.2554 221.766C34.0211 222.021 33.7803 222.272 33.5497 222.521C33.0639 223.047 32.5739 223.596 32.1071 224.15C31.9249 224.357 31.7492 224.567 31.5802 224.782C31.3351 225.056 31.1032 225.338 30.8844 225.627Z" fill="#E21B07"/>
<path d="M27.1441 231.026C26.6189 231.871 26.1162 232.738 25.6326 233.632C24.589 235.575 23.6908 237.563 22.9589 239.575C22.8403 239.868 22.7311 240.175 22.6285 240.486C20.575 246.48 19.8546 252.687 20.224 258.744C20.3847 261.366 20.7477 263.946 21.2928 266.49C22.0639 270.004 23.191 273.397 24.6201 276.598C25.8558 279.36 27.3081 281.977 28.9391 284.47C29.5388 285.38 30.1594 286.268 30.8069 287.153C34.8735 292.694 39.8345 297.523 45.2402 301.685C50.8833 306.019 57.1105 309.711 63.8591 312.146C63.8591 312.146 63.8591 312.146 63.8656 312.149C64.8588 312.5 65.8729 312.827 66.8847 313.128C66.8913 313.132 66.9014 313.129 66.9014 313.129C68.6837 313.658 70.5027 314.104 72.3597 314.435C76.4785 315.184 80.7688 315.403 85.0654 315.038C87.4387 314.834 89.812 314.46 92.1599 313.883C94.2271 313.383 96.2669 312.731 98.2624 311.927C98.7314 311.741 99.2011 311.539 99.6642 311.333C100.91 310.79 102.129 310.172 103.336 309.498C103.867 309.201 104.384 308.897 104.895 308.572C105.173 308.409 105.447 308.236 105.715 308.059C108.476 306.268 111.051 304.162 113.412 301.81C113.604 301.617 113.796 301.424 113.981 301.227C114.155 301.05 114.329 300.873 114.49 300.688C106.162 302.35 97.5752 302.06 89.0099 299.206C61.5068 290.066 41.356 262.67 29.7666 237.298C28.8283 235.221 27.9576 233.129 27.1441 231.026Z" fill="#BC0D04"/>
<path d="M124.184 243.115C132.037 248.674 123.405 260.885 115.542 255.312C107.696 249.756 116.322 237.542 124.184 243.115Z" fill="white"/>
<path d="M100.993 246.836C108.846 252.395 100.214 264.606 92.3515 259.033C84.5015 253.483 93.1272 241.269 100.993 246.836Z" fill="white"/>
<path d="M96.1924 225.729C104.045 231.288 95.413 243.499 87.5507 237.926C79.7008 232.377 88.3264 220.162 96.1924 225.729Z" fill="white"/>
<path d="M71.6256 220.756C79.4784 226.315 70.8462 238.526 62.9839 232.953C55.1376 227.397 63.7632 215.183 71.6256 220.756Z" fill="white"/>
<path d="M64.6394 205.751C64.0846 208.278 64.815 211.044 67.5584 212.989C73.7454 217.358 80.3965 210.746 79.131 205.016C78.1767 204.951 77.2153 204.9 76.259 204.885C75.1495 204.855 74.0453 204.861 72.9433 204.895C72.5716 204.903 72.2029 204.922 71.8276 204.938C69.4373 205.064 67.0279 205.333 64.6394 205.751Z" fill="white"/>
<path d="M123.838 276.652C125.078 277.531 126.332 277.965 127.547 278.054C127.615 277.836 127.688 277.611 127.744 277.386C127.81 277.141 127.88 276.906 127.943 276.668C128.074 276.211 128.189 275.754 128.298 275.293C128.722 273.624 129.062 271.951 129.336 270.276C129.376 270.033 129.412 269.797 129.442 269.541C129.523 269.005 129.592 268.463 129.656 267.927C129.838 266.372 129.966 264.821 130.031 263.261C123.005 261.348 116.802 271.671 123.838 276.652Z" fill="white"/>
<path d="M45.8056 212.611C50.6081 215.527 55.5524 212.063 56.7347 207.713C56.3417 207.838 55.9451 207.97 55.555 208.105C54.785 208.372 54.0209 208.66 53.2562 208.964C53.025 209.059 52.7872 209.15 52.5691 209.252C51.2701 209.782 49.9924 210.368 48.7425 211.011C48.2751 211.24 47.8071 211.486 47.3421 211.741C47.1167 211.856 46.8943 211.981 46.6821 212.103C46.3843 212.272 46.0902 212.435 45.8056 212.611Z" fill="white"/>
<path opacity="0.5" d="M70.2894 211.42C73.5476 212.104 75.6743 215.263 78.0905 217.275C85.634 223.552 93.9346 228.871 101.943 234.55C107.098 238.207 112.097 242.255 115.784 247.399C118.4 251.048 120.031 255.82 120.959 260.196C121.629 263.38 121.516 266.919 119.661 269.592C114.431 277.14 105.938 268.651 102.744 263.711C99.5039 258.685 97.1914 253.121 93.9748 248.082C89.772 241.503 84.2026 235.98 78.9006 230.298C74.8503 225.952 68.6875 221.647 66.6891 215.838C65.8077 213.254 67.4127 210.818 70.2894 211.42Z" fill="white"/>
<path d="M60.0129 206.763C59.6223 208.604 59.3597 210.507 59.4534 212.368C59.5491 214.349 60.1638 216.487 61.8624 217.695C63.6294 218.949 65.8737 218.794 67.925 218.694C70.3713 218.59 72.7733 218.846 75.0811 219.706C77.1882 220.482 79.5915 221.634 79.9019 224.109C80.1387 225.988 79.4281 227.884 78.8768 229.645C78.2543 231.598 77.884 233.604 78.0336 235.657C78.1699 237.626 78.8036 239.622 80.1642 241.087C81.6341 242.664 83.709 243.405 85.8353 243.526C90.6956 243.795 94.9898 240.954 99.7828 240.725C102.052 240.618 104.491 241.132 106.123 242.816C107.676 244.43 108.236 246.743 108.395 248.921C108.735 253.434 107.381 258.312 110.126 262.331C111.312 264.067 113.152 265.251 115.291 265.225C117.607 265.186 119.785 263.927 121.666 262.71C124.303 261.005 126.975 258.755 129.993 257.626C129.98 257.372 129.97 257.127 129.956 256.872C125.935 258.302 122.826 261.471 119.027 263.382C117.102 264.353 114.825 264.986 112.812 263.869C110.91 262.814 109.767 260.657 109.35 258.594C108.448 254.095 110.029 249.394 108.328 245.011C107.561 243.01 106.086 241.396 104.076 240.614C102.023 239.817 99.7176 239.836 97.5833 240.257C93.0622 241.139 88.4213 243.866 83.724 242.432C81.7011 241.814 80.1388 240.374 79.3738 238.4C78.6307 236.463 78.6228 234.292 78.9837 232.272C79.5689 228.977 82.1573 224.77 79.6904 221.672C78.9221 220.711 77.8023 220.095 76.712 219.58C75.6377 219.083 74.5224 218.691 73.3756 218.418C72.2426 218.135 71.068 217.975 69.8953 217.936C68.8228 217.9 67.7523 217.985 66.6736 218.022C64.5567 218.086 62.3404 217.788 61.1369 215.82C60.005 213.985 60.0805 211.569 60.3395 209.502C60.4619 208.52 60.628 207.536 60.8405 206.561C60.5539 206.617 60.2834 206.69 60.0129 206.763Z" fill="#FFB600"/>
<path d="M41.7169 215.267C44.3986 216.316 47.5597 216.495 50.3419 216.866C51.7061 217.053 53.3664 217.199 54.5621 217.926C55.7716 218.642 55.6345 220.333 55.5791 221.566C55.4759 223.753 55.0198 225.899 54.7538 228.057C54.5076 230.054 54.4054 232.131 55.0244 234.076C55.753 236.379 57.4956 238.081 59.6423 239.126C62.1788 240.377 65.0294 240.794 67.7545 241.424C70.678 242.111 73.552 243.122 76.2457 244.459C77.617 245.146 78.8844 246.005 79.6159 247.389C80.2296 248.537 80.4793 249.835 80.6499 251.107C81.0017 253.8 81.146 256.499 81.7474 259.142C82.3031 261.59 83.1787 263.983 84.633 266.038C85.8815 267.8 87.5115 269.303 89.3499 270.443C93.0071 272.712 97.5313 273.7 101.769 272.867C103.988 272.433 105.934 271.346 108.057 270.62C109.125 270.261 110.266 270.002 111.403 270.2C112.642 270.413 113.663 271.163 114.393 272.162C115.913 274.236 116.412 276.865 117.635 279.108C118.614 280.893 120.138 282.295 121.955 283.21C122.988 283.736 124.109 284.088 125.252 284.273C125.348 284.036 125.451 283.803 125.548 283.566C123.03 283.195 120.63 281.943 119.064 279.937C116.488 276.634 116.384 269.956 111.18 269.412C109.024 269.19 106.983 270.216 105.05 271.03C103.033 271.89 100.948 272.407 98.743 272.413C94.3499 272.427 89.9518 270.62 86.8394 267.517C83.1322 263.804 82.1481 258.569 81.644 253.548C81.4067 251.173 81.3073 248.61 79.9705 246.543C78.489 244.243 75.4768 243.174 73.0374 242.258C70.3514 241.232 67.5815 240.637 64.7831 240.001C62.0675 239.386 59.0484 238.577 57.1477 236.388C54.1845 232.982 55.5086 228.173 56.0518 224.164C56.1979 223.092 56.3142 222.013 56.3171 220.922C56.324 219.902 56.3303 218.728 55.6641 217.892C54.8709 216.884 53.362 216.634 52.1805 216.393C50.8762 216.127 49.55 215.995 48.2244 215.845C46.2691 215.631 44.2672 215.408 42.4205 214.733C42.1954 214.924 41.9478 215.095 41.7169 215.267Z" fill="#FFB600"/>
<path d="M122.455 246.566C126.238 249.536 121.633 255.422 117.843 252.449C114.056 249.486 118.661 243.599 122.455 246.566Z" fill="#67AA1A"/>
<path d="M126.775 273.379C127.372 273.845 127.978 274.093 128.577 274.167C128.873 272.87 129.125 271.575 129.337 270.276C129.376 270.033 129.412 269.797 129.443 269.541C129.524 269.005 129.592 268.463 129.657 267.927C129.703 267.534 129.745 267.131 129.787 266.744C126.478 266.091 123.507 270.822 126.775 273.379Z" fill="#67AA1A"/>
<path d="M98.7471 250.078C102.534 253.041 97.9253 258.934 94.1353 255.961C90.3519 252.991 94.9506 247.101 98.7471 250.078Z" fill="#67AA1A"/>
<path d="M93.8804 228.817C97.6638 231.786 93.0586 237.673 89.2687 234.7C85.4816 231.736 90.0868 225.85 93.8804 228.817Z" fill="#67AA1A"/>
<path d="M69.0831 224.015C72.8665 226.985 68.2612 232.871 64.4713 229.898C60.6842 226.935 65.2931 221.042 69.0831 224.015Z" fill="#67AA1A"/>
<path d="M68.2208 205.24C67.8736 206.49 68.1658 207.897 69.5029 208.94C72.6083 211.375 76.2638 207.849 75.391 204.877C74.5821 204.859 73.7618 204.876 72.9546 204.901C72.5829 204.91 72.2141 204.929 71.8388 204.944C70.6288 205.003 69.4204 205.106 68.2208 205.24Z" fill="#67AA1A"/>
<path d="M30.3635 226.296C49.9441 260.247 81.6224 285.891 118.984 295.303C120.374 293.397 121.644 291.4 122.786 289.341C122.887 289.158 122.991 288.968 123.092 288.784C118.445 287.771 113.857 286.466 109.331 284.845C76.9855 273.279 51.9556 249.477 35.7204 220.268C33.8145 222.103 32.019 224.11 30.3635 226.296Z" fill="#F9E1AF"/>
<path d="M20.2922 259.463C20.4562 261.832 20.8052 264.174 21.3058 266.489C22.0769 270.002 23.204 273.395 24.6332 276.596C24.8698 277.128 25.1201 277.649 25.3705 278.171C25.3705 278.171 25.3705 278.171 25.377 278.175C39.4576 294.013 56.6601 306.707 75.9359 314.936C78.9371 315.265 82.0069 315.299 85.085 315.04C87.4583 314.836 89.8316 314.461 92.1794 313.885C92.6255 313.772 93.0817 313.656 93.5183 313.53C90.957 312.82 88.4127 312.016 85.8957 311.117C58.4691 301.312 36.302 282.695 20.2922 259.463Z" fill="#F9E1AF"/>
<path d="M23.8764 237.307C23.5424 238.053 23.2419 238.801 22.964 239.569C22.8454 239.862 22.7362 240.169 22.6336 240.48C22.353 241.315 22.0891 242.151 21.855 242.995C21.5514 244.073 21.2806 245.17 21.07 246.266C34.3437 264.237 49.9865 280.586 69.3033 292.011C80.4767 298.622 92.3183 304.158 104.533 308.799C104.66 308.724 104.783 308.655 104.913 308.574C105.191 308.411 105.465 308.237 105.733 308.061C107.855 306.686 109.871 305.116 111.766 303.395C108.966 302.374 106.178 301.3 103.408 300.194C91.1434 295.286 79.0141 289.668 67.9426 282.423C56.6986 275.057 47.0101 265.919 38.2932 255.728C33.2115 249.8 28.3992 243.662 23.8764 237.307Z" fill="#F9E1AF"/>
<path d="M29.0844 233.049C29.0939 233.063 29.0968 233.073 29.0896 233.086C31.0859 233.195 32.672 234.794 33.2729 236.771C33.4362 237.296 33.5615 237.937 33.6317 238.615C35.0896 238.633 36.5391 239.286 37.6404 240.369C39.1441 241.854 40.0434 243.987 39.9697 246.105C40.1413 246.166 40.3062 246.222 40.4605 246.299C41.8609 247.01 42.9199 248.233 43.8997 249.429C44.7934 250.518 45.6228 251.708 45.9761 253.097C46.0461 253.358 46.0886 253.637 46.1042 253.919C48.0503 254.367 49.9744 255.707 51.2591 256.892C52.3565 257.906 53.7298 259.472 54.4828 261.158C55.1652 261.158 55.8395 261.282 56.4191 261.516C57.9105 262.123 59.1045 263.318 60.0823 264.564C60.8944 265.6 61.6455 266.824 61.7699 268.164C61.7715 268.207 61.7768 268.244 61.7785 268.288C64.3615 268.788 66.6968 270.73 67.95 272.965C68.1686 273.358 68.3986 273.886 68.5933 274.462C70.2585 274.397 72.0382 275.164 73.2617 276.119C74.3424 276.961 75.4139 278.208 76.0153 279.58C77.0554 279.504 78.1246 279.623 78.9 279.811C81.5344 280.45 83.9435 282.134 85.3532 284.472C85.4848 284.698 85.6222 284.944 85.7459 285.2C88.6297 285.029 91.6252 286.098 93.8135 287.951C94.1536 288.232 94.4823 288.549 94.793 288.9C96.734 288.799 98.9465 289.786 100.405 290.64C101.147 291.074 102.4 291.883 103.411 292.867C105.096 292.472 107.302 293.037 108.566 293.656C109.629 294.173 110.84 295.027 111.681 296.087C112.88 295.971 114.181 296.226 115.067 296.663C115.753 296.998 116.378 297.444 116.916 297.97C116.68 298.259 116.445 298.547 116.196 298.828C116.157 298.884 116.115 298.929 116.077 298.968C116.038 299.023 115.996 299.068 115.954 299.113L115.948 299.11C115.768 298.925 115.577 298.76 115.365 298.602C114.599 298.009 113.524 297.545 112.488 297.504C112.752 298.204 112.809 298.952 112.567 299.732C112.246 300.75 111.192 301.441 110.13 301.061C109.153 300.711 108.582 299.595 108.679 298.581C108.786 297.565 109.347 296.902 110.109 296.51C109.183 295.557 107.842 294.862 106.675 294.518C106 294.317 105.249 294.194 104.525 294.239C104.991 295.05 105.145 295.903 104.654 296.716C103.419 298.775 100.645 296.574 101.296 294.663C101.444 294.224 101.682 293.886 101.967 293.599C101.754 293.413 101.533 293.241 101.336 293.072C99.8251 291.848 97.9765 290.882 96.0569 290.525C95.9574 290.505 95.8542 290.49 95.751 290.476C95.8413 290.731 95.9084 290.981 95.9349 291.243C96.0446 292.361 95.4249 293.565 94.3542 293.991C91.7619 294.996 90.7696 291.156 92.5129 289.709C92.6996 289.556 92.9052 289.43 93.1139 289.315C92.9587 289.178 92.797 289.038 92.6477 288.922C91.1947 287.764 89.4282 287.005 87.5882 286.751C87.1756 286.695 86.7259 286.644 86.2779 286.636C86.3911 287.159 86.407 287.688 86.2529 288.201C85.9441 289.242 84.8809 290.073 83.7741 289.806C82.6172 289.536 82.1676 288.213 82.4735 287.161C82.7357 286.282 83.4394 285.748 84.2506 285.452C83.7662 284.673 83.1389 283.953 82.7752 283.59C81.6412 282.488 80.2149 281.669 78.688 281.281C78.2541 281.17 77.3431 281.027 76.4399 281.025C76.5145 281.51 76.5084 282.001 76.4152 282.496C76.2158 283.478 75.5858 284.437 74.5028 284.498C73.2826 284.56 72.4774 283.434 72.5019 282.304C72.5279 280.971 73.3635 280.227 74.4489 279.852C74.4371 279.812 74.4152 279.774 74.3933 279.736C73.6788 278.43 72.5838 277.273 71.2459 276.588C70.6064 276.261 69.7443 275.983 68.9157 275.953C69.1209 277.534 68.753 279.055 66.8759 279.148C65.8466 279.204 64.9685 278.397 65.0166 277.348C65.0615 276.383 65.779 275.498 66.5808 275.018C66.7626 274.905 66.9502 274.812 67.1438 274.739C67.0947 274.627 67.0587 274.522 67.0126 274.42C66.2468 272.633 64.7975 271.127 63.0445 270.282C62.5782 270.059 62.0772 269.869 61.5634 269.748C61.371 270.299 61.0434 270.801 60.5753 271.218C59.8547 271.845 58.6533 272.276 57.7388 271.798C56.6999 271.252 57.3508 269.682 57.9961 269.099C58.6031 268.554 59.431 268.259 60.2605 268.178C60.0861 266.836 59.0939 265.616 58.2123 264.644C57.3563 263.704 56.2225 262.849 54.9496 262.635C55.0575 263.292 55.0484 263.944 54.8498 264.568C54.0857 266.887 50.0809 267.063 50.3628 264.163C50.5087 262.674 51.5716 261.766 52.8551 261.371C52.7278 261.122 52.6028 260.9 52.4991 260.732C51.6864 259.371 50.6158 258.185 49.3553 257.235C48.3774 256.501 47.1846 255.785 45.9534 255.448C45.5894 256.869 44.6034 258.118 43.0491 258.338C42.5274 258.417 41.9959 258.406 41.6623 257.958C41.3484 257.521 41.2857 256.906 41.3598 256.384C41.5216 255.253 42.3957 254.301 43.4666 253.951C43.8394 253.832 44.2167 253.767 44.6087 253.752C44.4122 252.544 43.6223 251.452 42.8825 250.533C42.0507 249.486 41.0422 248.172 39.757 247.592C39.7334 247.682 39.7235 247.762 39.6999 247.851C39.34 249.001 38.5153 250.313 37.2839 250.659C37.0707 250.721 36.8725 250.74 36.6822 250.729C35.7375 250.679 35.0792 249.813 35.1064 248.787C35.1127 248.543 35.1452 248.313 35.2003 248.105C35.5845 246.678 37.0417 245.953 38.5023 245.903C38.5046 245.76 38.4932 245.625 38.4854 245.485C38.3814 243.968 37.7069 242.496 36.6181 241.436C35.8287 240.669 34.7738 240.106 33.681 240.076C33.6174 241.261 33.3141 242.416 32.6275 243.199C32.2668 243.606 31.7925 243.925 31.1876 244.079C30.6806 244.209 30.1259 244.194 29.6458 243.981C29.0313 243.703 28.9227 243.233 28.9681 242.593C29.0441 241.431 29.7079 240.38 30.5996 239.66C30.6683 239.612 30.7341 239.554 30.8095 239.511C31.2301 239.196 31.6873 238.97 32.1513 238.824C32.0633 237.667 31.75 236.453 30.9725 235.556C30.5145 235.039 29.9527 234.696 29.3344 234.595C29.3559 235.067 29.3142 235.531 29.183 235.97C29.087 236.284 28.948 236.583 28.7429 236.863C28.0605 237.793 26.7134 238.272 25.6608 237.735C24.5979 237.201 24.7699 235.896 25.2935 235.007C25.7925 234.147 26.6652 233.569 27.61 233.279C27.4812 232.815 27.2949 232.363 27.0871 231.95C27.0125 231.806 26.9313 231.659 26.8531 231.523C26.8502 231.512 26.8436 231.509 26.8436 231.509C26.9402 231.349 27.0369 231.189 27.1401 231.032C27.2476 230.852 27.3514 230.679 27.4625 230.493C27.5411 230.365 27.6234 230.232 27.7085 230.108C28.3292 230.995 28.7919 231.984 29.0844 233.049ZM110.171 298.908C110.197 299.187 110.389 299.659 110.734 299.653C111.484 299.639 111.163 298.268 110.982 297.776C110.965 297.792 110.942 297.788 110.918 297.8C110.484 298.031 110.128 298.398 110.171 298.908ZM102.84 295.718C103.285 296.398 103.517 295.791 103.307 295.258C103.231 295.071 103.133 294.906 103.023 294.735C102.719 294.977 102.575 295.316 102.84 295.718ZM93.423 292.582C94.3169 292.989 94.5368 291.489 94.3532 290.97C94.2989 290.82 94.2207 290.683 94.1395 290.536C94.0039 290.581 93.8654 290.616 93.7387 290.691C93.2018 290.984 92.6316 292.206 93.423 292.582ZM83.9283 287.51C83.7019 288.076 84.1602 288.67 84.6329 288.137C84.9445 287.788 84.9825 287.331 84.8556 286.817C84.4895 286.94 84.0837 287.135 83.9283 287.51ZM74.0004 282.481C74.0367 282.833 74.3008 283.175 74.6454 282.921C74.8626 282.759 74.9335 282.32 74.9732 282.078C75.0148 281.785 74.9855 281.513 74.943 281.233C74.3332 281.427 73.9135 281.801 74.0004 282.481ZM66.5135 277.481C66.6627 277.939 67.2454 277.5 67.3968 277.225C67.5489 276.933 67.5823 276.593 67.5497 276.234C67.3142 276.352 67.0912 276.494 66.9025 276.697C66.7665 276.835 66.4363 277.234 66.5135 277.481ZM58.817 270.506C59.2598 270.477 59.6194 270.18 59.8792 269.785C59.4194 269.908 58.9861 270.121 58.817 270.506ZM52.8092 264.819C53.6166 264.453 53.6496 263.618 53.4059 262.758C52.891 262.918 52.4049 263.197 52.1061 263.647C51.6615 264.315 51.8692 265.24 52.8092 264.819ZM42.8261 256.867C43.5974 256.737 44.1786 256.084 44.4624 255.336C43.5772 255.471 42.6768 255.991 42.8261 256.867ZM38.2234 247.542C38.2457 247.486 38.2549 247.423 38.2772 247.367C37.9507 247.417 37.6455 247.522 37.3543 247.695C37.0696 247.871 36.0459 248.971 36.7738 249.261C37.3468 249.491 38.0992 247.891 38.2234 247.542ZM30.4699 242.685C31.0744 242.796 31.5881 242.158 31.827 241.615C31.8637 241.533 31.9003 241.451 31.9167 241.374C32.0056 241.073 32.0646 240.765 32.104 240.445C31.8751 240.566 31.6586 240.712 31.4545 240.881C30.9242 241.348 30.5448 241.976 30.4699 242.685ZM26.4055 236.413C27.2536 236.794 27.8467 235.499 27.8525 234.76C27.1015 235.055 26.467 235.619 26.4055 236.413Z" fill="#6FD8D8"/>
<path d="M96.0398 309.721C96.7958 310.316 95.8762 311.491 95.1203 310.896C94.3607 310.307 95.2839 309.126 96.0398 309.721Z" fill="white"/>
<path d="M89.8484 306.844C90.6044 307.439 89.6848 308.614 88.9288 308.018C88.1729 307.423 89.0924 306.248 89.8484 306.844Z" fill="white"/>
<path d="M81.7962 303.478C82.5521 304.073 81.6326 305.248 80.8766 304.652C80.117 304.064 81.0366 302.889 81.7962 303.478Z" fill="white"/>
<path d="M73.0867 299.332C73.8427 299.928 72.9231 301.102 72.1671 300.507C71.4111 299.912 72.3307 298.737 73.0867 299.332Z" fill="white"/>
<path d="M64.3763 294.469C65.1322 295.065 64.2126 296.239 63.4566 295.644C62.6971 295.055 63.6167 293.881 64.3763 294.469Z" fill="white"/>
<path d="M57.6609 289.212C58.4169 289.807 57.4973 290.982 56.7414 290.387C55.9818 289.798 56.905 288.617 57.6609 289.212Z" fill="white"/>
<path d="M48.366 282.773C49.122 283.369 48.2023 284.543 47.4463 283.948C46.6838 283.349 47.6035 282.175 48.366 282.773Z" fill="white"/>
<path d="M41.5984 275.781C42.3544 276.376 41.4348 277.551 40.6788 276.955C39.9229 276.36 40.8424 275.185 41.5984 275.781Z" fill="white"/>
<path d="M33.9441 267.951C34.7001 268.546 33.7805 269.721 33.0246 269.125C32.265 268.537 33.1882 267.355 33.9441 267.951Z" fill="white"/>
<path d="M27.9656 261.58C28.7215 262.175 27.802 263.35 27.046 262.754C26.2901 262.159 27.2096 260.984 27.9656 261.58Z" fill="white"/>
<path d="M22.1355 254.481C22.8915 255.076 21.9718 256.251 21.2159 255.655C20.4599 255.06 21.3796 253.885 22.1355 254.481Z" fill="white"/>
</svg>
