<svg width="322" height="336" viewBox="0 0 322 336" fill="none" xmlns="http://www.w3.org/2000/svg">
<path d="M237.085 200.988C235.26 200.827 233.505 200.606 231.883 200.38C230.971 200.251 230.097 200.12 229.279 199.986C227.832 199.751 226.398 199.487 224.968 199.189C224.447 199.085 223.933 198.972 223.405 198.856C213.013 196.516 203.078 192.549 193.816 187.349C190.826 192.244 187.825 197.085 184.822 201.87C180.957 208.034 177.144 214.161 173.314 220.191C161.962 238.061 150.686 256.735 136.689 271.646C136.218 272.152 135.75 272.652 135.268 273.142C133.809 274.655 132.32 276.129 130.798 277.547C128.716 279.495 126.572 281.357 124.349 283.112C123.162 284.065 121.948 284.982 120.713 285.867C117.327 288.305 113.705 290.516 109.562 291.581C104.113 292.99 97.9734 292.059 93.2034 288.123C85.7399 281.967 82.9409 271.054 83.6232 262.523C83.9307 258.673 84.707 254.788 85.8354 250.929C86.3492 249.14 86.9425 247.366 87.5972 245.601C88.8109 242.325 90.2414 239.094 91.8268 235.929C92.0578 235.459 92.2899 234.999 92.5305 234.536C94.7356 230.257 97.1805 226.13 99.7035 222.239C93.9991 226.29 87.7407 230.22 81.2254 233.375C80.7204 233.627 80.2095 233.866 79.7023 234.101C78.3189 234.743 76.9348 235.347 75.5403 235.904C73.9252 236.551 72.3022 237.139 70.6715 237.668C67.1775 238.79 63.6616 239.614 60.1632 240.048C51.6761 241.103 40.652 238.773 34.1766 231.588C30.0345 226.993 28.8462 220.899 30.0208 215.394C30.9091 211.214 32.9558 207.498 35.2474 204.007C36.9189 201.463 38.7125 198.997 40.6225 196.599C41.7086 195.233 42.8366 193.893 43.9933 192.574C45.2394 191.149 46.5274 189.749 47.8405 188.376C48.1959 188.002 48.561 187.635 48.9297 187.264C63.2018 172.716 81.3038 160.682 98.5936 148.626C104.457 144.537 110.408 140.462 116.404 136.338C121.23 133.004 126.109 129.682 131.062 126.362C125.072 116.255 120.609 105.289 118.195 93.7046C118.185 93.6586 118.173 93.6042 118.163 93.5582C118.053 93.0475 117.951 92.5056 117.84 91.9563C117.435 89.8574 117.035 87.4953 116.723 85.0269C116.507 83.2862 116.339 81.4832 116.253 79.6824C115.69 68.096 118.457 56.3345 133.055 57.8936C133.104 57.9001 133.164 57.9008 133.213 57.9158C138.433 58.5296 142.755 62.0679 145.865 66.1141C145.975 66.259 146.089 66.4075 146.198 66.5524C147.512 68.2909 148.708 70.0921 149.826 71.9467C150.664 73.3431 151.454 74.7716 152.191 76.2199C152.467 76.7518 152.737 77.2932 153.002 77.8394C154.086 80.0642 155.07 82.341 155.991 84.6606C157.447 88.3044 158.735 92.0477 159.967 95.8241L159.972 95.8278C161.241 99.7158 162.441 103.643 163.698 107.537C164.638 107.749 165.491 108.213 166.214 108.996C173.102 116.407 180.222 123.585 187.554 130.537C194.822 137.562 202.297 144.366 209.995 150.929C211.154 151.918 211.688 153.195 211.764 154.661L211.769 154.665C216.046 155.863 220.373 156.986 224.665 158.174C228.892 159.349 233.083 160.588 237.164 162.032C237.656 162.204 238.144 162.381 238.632 162.558C239.745 162.971 240.857 163.406 241.963 163.859C243.509 164.491 245.027 165.169 246.522 165.898C246.568 165.918 246.61 165.943 246.655 165.962C249.4 167.293 252.063 168.79 254.604 170.505C254.911 170.71 255.214 170.92 255.509 171.13C259.729 174.097 263.487 178.32 264.277 183.575C266.848 200.683 250.216 202.159 237.085 200.988Z" fill="#EA8B34"/>
<path d="M237.084 200.988C235.259 200.827 233.504 200.606 231.882 200.38C230.97 200.251 230.096 200.12 229.278 199.987C227.831 199.751 226.397 199.487 224.968 199.189C224.446 199.085 223.932 198.972 223.405 198.856C213.012 196.516 203.077 192.549 193.815 187.349C190.825 192.244 187.825 197.085 184.821 201.87C180.956 208.034 177.143 214.161 173.313 220.191C161.961 238.061 150.685 256.735 136.689 271.647C136.217 272.152 135.749 272.652 135.267 273.142C133.808 274.655 132.319 276.129 130.797 277.547C128.716 279.495 126.571 281.357 124.349 283.112C123.161 284.065 121.947 284.982 120.712 285.867C117.326 288.305 113.704 290.516 109.562 291.581C104.112 292.991 97.9726 292.059 93.2026 288.123C85.7391 281.968 82.9401 271.054 83.6224 262.523C83.9299 258.674 84.7062 254.788 85.8346 250.929C86.3484 249.14 86.9417 247.366 87.5964 245.602C88.8101 242.326 90.2405 239.094 91.826 235.929C92.057 235.46 92.2891 234.999 92.5297 234.537C94.7348 230.257 97.1796 226.13 99.7027 222.239C93.9982 226.29 87.7398 230.221 81.2246 233.375C80.7196 233.627 80.2087 233.866 79.7015 234.101C78.3181 234.743 76.934 235.347 75.5395 235.905C73.9244 236.552 72.3014 237.139 70.6707 237.668C67.1767 238.79 63.6607 239.614 60.1624 240.048C51.6753 241.103 40.6512 238.773 34.1758 231.588C30.0337 226.993 28.8453 220.899 30.02 215.395C30.9082 211.215 32.9549 207.498 35.2466 204.007C36.918 201.463 38.7117 198.998 40.6217 196.599C41.7078 195.234 42.8358 193.893 43.9925 192.574C45.2385 191.149 46.5266 189.749 47.8396 188.376C48.1951 188.002 48.5602 187.635 48.9289 187.264C63.201 172.716 81.3029 160.682 98.5927 148.626C104.456 144.537 110.407 140.462 116.403 136.338C121.229 133.005 126.108 129.682 131.061 126.362C125.071 116.255 120.608 105.289 118.194 93.7048C118.184 93.6588 118.172 93.6043 118.162 93.5584C118.052 93.0477 117.95 92.5058 117.84 91.9565C117.435 89.8575 117.034 87.4955 116.722 85.027C116.506 83.2863 116.338 81.4834 116.252 79.6826C115.689 68.0962 118.456 56.3346 133.055 57.8937C133.103 57.9003 133.163 57.901 133.213 57.916C130.551 59.0837 128.481 60.7891 127.01 63.677C125.225 67.1915 124.81 71.2404 124.748 75.1871C124.6 85.4594 126.531 95.7598 130.011 105.409C131.758 110.25 133.908 114.952 136.49 119.399C137.854 121.755 140.238 124.239 140.006 127.158C139.469 132.398 131.64 134.864 127.752 137.046C122.252 140.136 116.767 143.237 111.295 146.371C89.9973 158.584 68.6589 171.603 52.3703 189.967C48.3064 194.547 44.5204 199.538 42.464 205.31C37.9474 217.973 44.2626 230.193 58.1596 231.883C64.9007 232.706 71.8183 231.564 78.1319 229.168C81.3918 227.934 84.5324 226.351 87.4486 224.435C90.1239 222.685 92.4391 219.996 95.3117 218.632C98.2376 217.249 103.546 218.828 103.471 222.712C103.427 225.227 101.122 227.833 99.9602 229.962C98.3925 232.836 96.9098 235.769 95.7 238.812C92.9238 245.788 92.3793 253.663 94.3415 260.929C96.0268 267.169 99.5978 274.034 105.969 276.498C118.199 281.222 131.265 266.441 138.284 258.369C157.706 236.012 172.311 209.325 186.863 183.678C187.787 182.059 189.12 180.481 190.948 180.111C192.751 179.745 194.545 180.62 196.172 181.474C205.102 186.175 214.122 191.175 224.067 192.829C234.087 194.495 247.266 192.164 252.437 182.446C254.369 178.809 255.485 174.461 254.594 170.498C254.9 170.703 255.204 170.912 255.498 171.123C259.719 174.089 263.476 178.313 264.266 183.568C266.847 200.683 250.216 202.159 237.084 200.988Z" fill="#D17428"/>
<path d="M242.724 151.569C240.948 152.633 239.11 153.611 237.22 154.466C224.984 160.039 212.371 159.828 200.161 154.176C192.199 150.484 185.179 144.95 179.094 138.613C172.441 131.679 166.799 123.666 163.324 114.714C161.527 110.077 160.41 105.179 160.055 100.22C158.867 83.4904 166.496 68.7957 178.769 59.4391C180.916 57.8009 183.206 56.3249 185.614 55.0313C191.19 52.0301 197.419 50.0019 204.005 49.1534C207.243 48.7407 210.511 48.6168 213.771 48.7607C214.33 48.7863 214.881 48.8215 215.438 48.8687C218.433 49.0906 221.402 49.544 224.327 50.2141C224.886 50.3387 225.442 50.4765 225.994 50.6191C228.615 51.2991 231.185 52.1536 233.683 53.1811C234.338 53.448 234.985 53.7244 235.622 54.0153C243.387 57.5185 250.393 62.6538 255.878 69.177C258.388 72.1615 260.556 75.4233 262.373 78.8731C262.724 79.5458 263.064 80.2329 263.391 80.9174C264.977 84.2729 266.244 87.7866 267.157 91.3941C267.307 91.9813 267.451 92.5864 267.581 93.1806C268.024 95.1713 268.358 97.1934 268.587 99.2251C268.65 99.8065 268.706 100.397 268.757 100.976C269.373 108.647 268.453 116.417 265.85 123.663C265.217 125.429 264.484 127.157 263.652 128.846L263.648 128.851C262.728 130.724 261.701 132.537 260.567 134.292C256.05 141.316 249.88 147.262 242.724 151.569Z" fill="#EA8B34"/>
<path d="M260.591 134.31C256.768 132.273 253.891 128.924 251.94 125.014C251.126 123.377 250.58 121.779 250.281 120.187C248.228 120.483 246.051 120.296 243.731 119.481C236.932 117.099 232.813 110.651 232.616 103.553C232.591 102.902 232.618 102.261 232.671 101.617C232.153 101.668 231.624 101.673 231.068 101.634C228.106 101.43 224.961 100.887 222.321 99.4695C217.315 96.7831 215.904 91.8421 216.489 86.798C213.488 87.0806 210.431 86.6215 207.377 85.2582C201.13 82.4636 197.914 75.5819 198.565 68.8763C198.645 68.0479 198.782 67.2551 198.968 66.4774C191.464 66.4911 184.233 64.5015 178.773 59.4428C180.921 57.8046 183.211 56.3286 185.619 55.035C191.195 52.0338 197.423 50.0056 204.009 49.1571C207.248 48.7444 210.516 48.6204 213.776 48.7644C214.334 48.79 214.886 48.8251 215.443 48.8724C218.438 49.0943 221.407 49.5477 224.332 50.2178C224.89 50.3424 225.446 50.4802 225.999 50.6228C228.619 51.3028 231.189 52.1573 233.688 53.1848C234.342 53.4517 234.99 53.7281 235.626 54.0189C243.391 57.5222 250.398 62.6574 255.883 69.1807C258.393 72.1651 260.56 75.427 262.378 78.8768C262.729 79.5495 263.069 80.2366 263.396 80.9211C264.982 84.2766 266.249 87.7903 267.162 91.3978C267.312 91.985 267.456 92.5901 267.586 93.1843C268.028 95.175 268.363 97.1971 268.591 99.2288C268.655 99.8102 268.711 100.401 268.761 100.98C269.378 108.651 268.458 116.421 265.855 123.667C265.222 125.433 264.489 127.161 263.657 128.85L263.653 128.855C262.752 130.742 261.725 132.556 260.591 134.31Z" fill="#D17428"/>
<path d="M184.852 138.14C183.991 137.319 183.128 136.451 182.281 135.573C175.448 128.456 170.457 120.904 167.442 113.126C165.78 108.838 164.779 104.394 164.461 99.9121C163.259 82.9733 172.166 67.2669 187.717 58.9127C192.931 56.1054 198.607 54.2919 204.583 53.5236C207.513 53.1472 210.54 53.029 213.593 53.1658C214.095 53.1859 214.594 53.2193 215.095 53.2611C217.868 53.4648 220.656 53.886 223.364 54.5115C223.896 54.6309 224.413 54.761 224.925 54.8959C227.336 55.5217 229.731 56.3175 232.038 57.2668C232.707 57.5447 233.295 57.7903 233.83 58.0341C239.49 60.583 244.555 63.9848 248.884 68.1291C250.173 69.3628 251.405 70.6731 252.537 72.0221C254.803 74.7201 256.816 77.7182 258.503 80.9312C258.815 81.5359 259.135 82.1696 259.444 82.8177C260.915 85.9172 262.078 89.169 262.919 92.4848C263.065 93.0381 263.193 93.5851 263.307 94.1296C263.714 95.9787 264.031 97.8654 264.237 99.7279C264.295 100.267 264.349 100.811 264.396 101.364C264.976 108.528 264.055 115.734 261.728 122.195C261.195 123.681 260.57 125.179 259.86 126.65L259.72 126.931C255.566 135.406 248.723 142.813 240.455 147.795C238.791 148.793 237.092 149.688 235.407 150.456C224.442 155.453 213.208 155.358 202.017 150.183C196.114 147.455 190.339 143.402 184.852 138.14ZM247.804 69.2481C243.604 65.2247 238.685 61.9284 233.185 59.4489C232.659 59.2124 232.094 58.9683 231.442 58.6966C229.195 57.7782 226.872 56.9989 224.528 56.3944C224.034 56.2657 223.527 56.1429 223.011 56.0213C220.375 55.4123 217.666 55.0065 214.966 54.806C214.479 54.7668 214.001 54.7349 213.521 54.7162C210.555 54.5852 207.613 54.7007 204.777 55.0648C198.995 55.8076 193.497 57.5591 188.448 60.2802C173.443 68.3386 164.845 83.4836 166.009 99.7991C166.315 104.128 167.288 108.42 168.887 112.562C171.829 120.147 176.712 127.524 183.4 134.492C189.505 140.86 196.02 145.694 202.666 148.772C213.427 153.754 224.226 153.841 234.76 149.039C236.393 148.299 238.039 147.433 239.651 146.463C247.664 141.635 254.295 134.453 258.325 126.24L258.465 125.96C259.148 124.544 259.755 123.1 260.267 121.659C262.513 115.403 263.404 108.424 262.845 101.482C262.8 100.946 262.751 100.414 262.687 99.8928C262.488 98.0811 262.179 96.2536 261.779 94.4553C261.667 93.9277 261.541 93.3976 261.401 92.8565C260.586 89.6363 259.448 86.4802 258.028 83.473C257.73 82.8407 257.421 82.2228 257.116 81.6388C255.475 78.5228 253.535 75.6185 251.336 73.0021C250.246 71.7163 249.051 70.4487 247.804 69.2481Z" fill="#F5F5F5"/>
<path d="M263.672 128.87C263.375 128.711 263.081 128.539 262.79 128.353C258.119 125.369 255.656 120.381 255.465 114.901C255.416 113.409 255.545 111.942 255.803 110.496C253.315 113.014 250.042 114.443 246.279 113.556C242.242 112.61 238.874 109.248 237.737 105.286C236.494 100.969 237.772 96.2815 239.905 92.4715C239.983 92.3408 240.204 91.8942 240.481 91.3457C239.27 92.3871 238.159 93.6265 236.879 94.5308C235.09 95.7903 232.957 96.6561 230.755 96.7992C225.712 97.135 221.503 93.6076 220.904 88.6202C220.351 84.0269 222.802 80.7951 225.153 77.1674C225.164 77.1531 225.489 76.4131 225.792 75.7405C225.712 75.7553 225.644 75.7642 225.632 75.7701C224.893 76.0395 224.215 76.5461 223.555 76.96C219.64 79.4028 215.487 81.5328 210.753 80.1663C206.023 78.7951 203.259 74.0708 204.247 69.275C205.005 65.5812 207.278 63.2552 209.892 61.009C208.155 61.2503 206.409 61.4541 204.664 61.6059C200.033 62.0079 195.068 62.0235 190.827 59.8477C188.403 58.6038 186.736 56.9506 185.628 55.043C187.602 53.9787 189.656 53.0372 191.784 52.2281C195.657 50.7506 199.756 49.7125 204.018 49.1651C207.257 48.7524 210.525 48.6285 213.785 48.7724C214.344 48.798 214.895 48.8331 215.452 48.8804C218.447 49.1023 221.416 49.5557 224.341 50.2258C224.9 50.3504 225.456 50.4882 226.008 50.6308C228.629 51.3108 231.199 52.1653 233.697 53.1928C234.352 53.4597 234.999 53.7362 235.636 54.027C243.401 57.5302 250.407 62.6654 255.892 69.1887C258.402 72.1731 260.569 75.435 262.387 78.8848C262.738 79.5575 263.078 80.2446 263.405 80.9291C264.991 84.2846 266.258 87.7983 267.171 91.4058C267.321 91.9929 267.465 92.5981 267.595 93.1923C268.038 95.183 268.372 97.2051 268.601 99.2369C268.664 99.8182 268.72 100.409 268.77 100.988C269.36 108.288 268.553 115.673 266.228 122.615C266.111 122.967 265.991 123.331 265.86 123.68C265.237 125.453 264.504 127.181 263.672 128.87Z" fill="#E6E6E6"/>
<path d="M266.234 122.627C262.31 119.592 260.238 114.996 260.061 109.983C260.011 108.492 260.141 107.024 260.399 105.579C257.91 108.096 254.638 109.525 250.875 108.638C246.834 107.689 243.469 104.33 242.333 100.369C241.09 96.0514 242.368 91.3639 244.501 87.554C244.579 87.4233 244.8 86.9767 245.076 86.4281C243.866 87.4696 242.755 88.7089 241.475 89.6132C239.686 90.8728 237.553 91.7385 235.351 91.8816C230.307 92.2174 226.099 88.6901 225.499 83.7027C224.947 79.1094 227.398 75.8775 229.749 72.2499C229.76 72.2355 230.084 71.4956 230.388 70.823C230.308 70.8378 230.24 70.8467 230.228 70.8526C229.489 71.1219 228.811 71.6286 228.151 72.0424C224.241 74.489 220.083 76.6152 215.349 75.2488C210.619 73.8776 207.855 69.1532 208.843 64.3575C209.601 60.6637 211.874 58.3376 214.488 56.0915C212.751 56.3328 211.004 56.5365 209.259 56.6883C204.629 57.0903 199.664 57.1059 195.422 54.9302C193.941 54.1736 192.741 53.2596 191.788 52.2313C195.661 50.7538 199.76 49.7157 204.023 49.1683C207.261 48.7556 210.529 48.6317 213.789 48.7756C214.348 48.8012 214.899 48.8363 215.456 48.8836C218.451 49.1055 221.42 49.5589 224.345 50.229C224.904 50.3536 225.46 50.4914 226.012 50.634C228.633 51.314 231.203 52.1685 233.701 53.196C234.356 53.4629 235.003 53.7394 235.64 54.0302C243.405 57.5334 250.411 62.6686 255.896 69.1919C258.406 72.1763 260.574 75.4382 262.392 78.8881C262.743 79.5607 263.083 80.2478 263.409 80.9323C264.995 84.2878 266.262 87.8015 267.175 91.409C267.326 91.9962 267.47 92.6013 267.599 93.1955C268.042 95.1862 268.377 97.2083 268.605 99.2401C268.668 99.8214 268.724 100.412 268.775 100.991C269.369 108.295 268.558 115.684 266.234 122.627Z" fill="#F5F5F5"/>
<path d="M263.408 80.9321C256.521 78.3767 250.033 74.7659 244.622 69.7523C239.722 65.2225 235.829 59.5102 233.7 53.1959C234.354 53.4628 235.002 53.7392 235.639 54.03C236.297 55.7685 237.103 57.4445 238.024 59.0495C243.145 67.9794 251.648 74.3168 261.002 78.3171C261.464 78.519 261.927 78.7077 262.395 78.8916C262.741 79.5606 263.081 80.2477 263.408 80.9321Z" fill="#FEB467"/>
<path d="M267.598 93.195C255.522 88.9155 243.955 82.4557 235.495 72.682C229.978 66.3092 225.91 58.5065 224.339 50.2249C224.898 50.3494 225.454 50.4872 226.006 50.6298C226.584 53.4163 227.446 56.1481 228.559 58.7825C233.605 70.7137 243.549 79.7628 254.764 85.8687C258.769 88.0454 262.92 89.8628 267.174 91.4085C267.329 91.9993 267.468 92.6008 267.598 93.195Z" fill="#FEB467"/>
<path d="M268.775 100.999C263.943 98.987 259.25 96.6469 254.747 93.989C247.301 89.6045 240.341 84.3684 234.098 78.3967C228.009 72.5813 222.471 66.0393 218.288 58.7121C216.487 55.557 214.947 52.2213 213.78 48.7763C214.338 48.8019 214.89 48.837 215.447 48.8843C216.925 53.0547 218.962 57.0309 221.328 60.7488C225.8 67.7883 231.472 74.0373 237.665 79.5979C243.966 85.2564 250.93 90.1691 258.346 94.2563C261.677 96.0911 265.104 97.7627 268.605 99.2481C268.668 99.8294 268.723 100.412 268.775 100.999Z" fill="#FEB467"/>
<path d="M145.14 78.8601C143.62 79.6796 141.894 79.9065 140.205 79.6293C138.432 79.3414 136.754 78.2277 134.97 78.1136C132.972 77.9801 133.209 79.1972 133.242 80.7898C133.269 82.2024 133.324 83.6371 132.92 85.016C131.983 88.1694 128.948 89.6745 125.824 89.3835C125.78 89.3806 125.74 89.373 125.697 89.3701C122.061 88.9828 119.942 86.0933 116.707 85.025C116.491 83.2843 116.323 81.4813 116.237 79.6805C118.582 80.0352 120.666 81.3236 122.807 82.708C123.344 83.0593 124.216 83.6376 125.117 84.0099C126.172 84.4394 127.262 84.5759 127.901 83.7043C128.555 82.822 128.014 80.7022 128.047 79.6777C128.158 76.3316 129.843 73.463 133.405 72.9862C135.11 72.7663 136.731 73.143 138.33 73.686C140.736 74.4976 142.649 75.2059 144.189 72.6448C145.32 70.7658 145.7 68.6455 146.189 66.5409C147.502 68.2794 148.699 70.0806 149.817 71.9353C148.93 74.7549 147.784 77.4279 145.14 78.8601Z" fill="#F5F5F5"/>
<path d="M241.991 196.555C240.665 197.599 238.885 198.272 237.726 199.505C237.273 199.986 237.089 200.484 237.086 200.992C235.262 200.832 233.507 200.61 231.884 200.385C231.925 199.807 232.041 199.219 232.259 198.618C232.867 196.924 234.105 195.698 235.531 194.663C236.298 194.11 238.795 193.097 239.392 192.102C239.453 192.012 239.488 191.917 239.509 191.82C239.859 190.155 234.894 187.623 233.972 186.138C231.996 182.963 233.746 179.445 236.924 177.981C238.458 177.272 241.618 177.476 242.75 176.23C244.079 174.777 242.631 171.945 242.162 170.414C241.452 168.089 241.339 165.887 241.946 163.857C243.535 164.513 245.102 165.207 246.643 165.956C246.635 165.996 246.624 166.04 246.621 166.084C246.389 167.991 247.599 169.992 248.019 171.814C248.425 173.555 248.572 175.396 248.037 177.123C247.505 178.867 246.335 180.222 244.735 181.078C243.122 181.94 240.179 181.591 238.869 182.753C238.052 183.48 238.219 183.114 238.815 183.914C239.246 184.481 240.058 184.921 240.621 185.346C241.792 186.23 242.973 187.129 243.767 188.385C244.116 188.942 244.366 189.507 244.507 190.087C245.159 192.489 244.076 194.9 241.991 196.555Z" fill="#F5F5F5"/>
<path d="M75.533 235.902C73.9178 236.549 72.2949 237.136 70.6641 237.665C70.4564 236.707 70.092 235.833 69.533 235.085C68.1737 233.258 65.8776 234.028 63.9703 234.352C61.9699 234.688 59.9284 234.81 58.0032 234.048C56.5815 233.481 55.4773 232.481 54.8141 231.234L54.8093 231.231C54.1755 230.044 53.9401 228.646 54.1988 227.209C54.6783 224.602 56.5542 222.664 57.3639 220.211C58.6143 216.462 51.7529 217.867 49.7399 217.714C46.3097 217.455 42.8105 215.918 42.1459 212.204C41.5476 208.831 44.3007 206.493 44.504 203.324C44.5545 202.595 44.4625 201.862 44.2737 201.146C43.7474 199.206 42.3923 197.442 40.6019 196.593C41.688 195.228 42.816 193.887 43.9727 192.569C45.362 193.445 46.551 194.632 47.4833 195.994C48.1555 196.982 48.6986 198.068 49.0747 199.194C50.0501 202.096 49.7823 205.101 48.5453 207.872C48.0066 209.079 46.4585 210.957 47.8189 212.04C49.2272 213.159 52.1442 212.461 53.7582 212.46C57.1649 212.443 61.1077 213.392 62.3785 216.97C63.2623 219.436 62.3944 221.905 61.2349 224.119C60.2766 225.932 57.4958 229.238 61.2244 229.475C64.6924 229.695 67.7389 227.788 71.1159 229.673C71.7289 230.014 72.2761 230.411 72.7516 230.852C74.2083 232.176 75.0722 233.935 75.533 235.902Z" fill="#F5F5F5"/>
<path d="M130.795 277.548C128.714 279.496 126.57 281.357 124.347 283.113C123.648 283.299 122.956 283.498 122.276 283.661C118.332 284.605 114.371 283.284 113.267 279.012C113.122 278.437 113.066 277.846 113.077 277.238C113.147 273.618 115.464 269.629 112.733 266.764C109.206 263.052 104.462 267.3 100.546 267.999C99.344 268.218 98.1804 268.207 97.0976 267.992C94.1381 267.417 91.7982 265.301 90.9637 261.998C90.0427 258.331 91.9742 249.709 85.8706 250.921C85.8585 250.926 85.8452 250.924 85.8331 250.93C86.3468 249.141 86.9401 247.367 87.5948 245.602C88.1608 245.618 88.725 245.686 89.28 245.815C91.1413 246.255 92.435 247.157 93.345 248.35C95.313 250.911 95.4905 254.783 95.6509 258.132C95.774 260.608 96.1959 263.359 99.3325 262.99C101.669 262.721 103.747 261.243 105.969 260.559C110.018 259.308 114.24 260.479 116.963 263.771C118.231 265.301 119.084 267.173 119.247 269.17C119.434 271.444 118.547 273.472 118.263 275.665L118.26 275.67C118.246 275.797 118.233 275.923 118.219 276.05C117.972 278.721 119.187 279.16 121.454 278.526C123.318 278.001 125.118 277.222 127.077 277.098C128.336 277.014 129.597 277.176 130.795 277.548Z" fill="#F5F5F5"/>
<path d="M139.911 84.1657C138.953 84.7392 138.336 85.6123 137.865 86.6126C137.374 87.6585 137.04 88.7786 136.55 89.833C136.062 90.8741 135.39 91.8492 134.576 92.6621C132.99 94.2523 130.935 95.2541 128.717 95.5757C128.172 95.6517 127.631 95.6927 127.092 95.6903C124.037 95.726 121.063 94.6835 118.175 93.6987C118.164 93.6527 118.153 93.5983 118.143 93.5523C118.032 93.0417 117.931 92.4997 117.82 91.9504C120.677 92.9264 123.692 94.1143 126.732 94.158C127.409 94.168 128.083 94.1224 128.765 94.0069C130.97 93.6224 132.977 92.4161 134.31 90.6094C135.672 88.756 135.952 86.369 137.296 84.5094C139.87 80.9687 144.725 82.048 148.204 80.123C149.857 79.2084 151.222 77.8367 152.172 76.2225C152.448 76.7544 152.717 77.2958 152.983 77.842C151.901 79.4003 150.454 80.7095 148.758 81.5911C146.864 82.5718 144.813 82.7854 142.747 83.2076C141.781 83.3948 140.781 83.6467 139.911 84.1657Z" fill="#F5F5F5"/>
<path d="M224.969 199.184C224.448 199.08 223.934 198.967 223.406 198.851C223.536 198.533 223.698 198.223 223.874 197.925C224.564 196.788 225.522 195.857 226.372 194.829C226.784 194.323 227.127 193.787 227.391 193.214C228.02 191.87 228.201 190.366 227.836 188.869C227.576 187.809 227.082 186.867 226.359 186.045C225.583 185.153 224.783 184.273 224.534 183.07C224.082 180.874 225.112 178.69 226.808 177.313C228.863 175.657 231.342 175.392 233.823 174.816C235.021 174.533 236.235 174.111 237.085 173.173C237.872 172.316 237.961 171.198 237.786 170.09C237.612 169.028 237.267 168.01 237.089 166.953C236.898 165.824 236.821 164.685 236.917 163.549C236.957 163.032 237.033 162.527 237.143 162.026C237.635 162.198 238.123 162.375 238.611 162.552C238.443 163.465 238.394 164.401 238.451 165.328C238.594 167.629 239.855 169.981 239.269 172.301C238.672 174.673 236.329 175.842 234.13 176.338C231.744 176.88 229.155 177.091 227.328 178.915C226.602 179.643 226.096 180.579 225.987 181.613C225.855 182.737 226.305 183.638 227.026 184.473C227.772 185.335 228.453 186.162 228.907 187.226C229.293 188.13 229.508 189.109 229.551 190.094C229.601 191.228 229.419 192.298 229.03 193.3C228.674 194.229 228.144 195.108 227.483 195.909C226.658 196.905 225.687 197.803 225.068 198.956C225.039 199.024 225.002 199.102 224.969 199.184Z" fill="#F5F5F5"/>
<path d="M81.2234 233.376C80.7184 233.627 80.2075 233.867 79.7003 234.101C79.6148 233.221 79.9473 232.313 80.1495 231.395C80.3646 230.411 80.2771 229.385 79.9571 228.424C79.491 227.039 78.5367 225.805 77.3065 225.058C74.6952 223.464 71.4315 224.832 68.7376 223.395C67.4788 222.726 66.6239 221.56 66.5338 220.121C66.4523 218.879 66.9207 217.694 67.1551 216.497C67.4312 215.126 67.1076 213.942 65.9951 213.042C64.7761 212.053 63.1872 211.754 61.6589 211.654C59.0365 211.482 54.4666 211.885 53.592 208.603C53.2282 207.244 53.6279 205.831 53.7723 204.473C53.9064 203.169 53.8874 201.846 53.7463 200.543C53.4589 197.963 52.6278 195.438 51.3906 193.165C51.1635 192.747 50.9195 192.331 50.6644 191.93C49.8459 190.648 48.9045 189.446 47.8326 188.364C48.1881 187.99 48.5531 187.624 48.9218 187.252C49.9602 188.308 50.896 189.468 51.7175 190.707C52.5924 192.025 53.3297 193.444 53.9144 194.912C54.8725 197.321 55.4082 199.924 55.4178 202.518C55.4243 203.878 55.2007 205.19 55.0552 206.539C54.9761 207.246 54.9184 208.085 55.3146 208.708C55.7392 209.384 56.624 209.6 57.3587 209.753C60.3815 210.384 63.6514 209.653 66.385 211.424C67.6219 212.222 68.5853 213.395 68.7858 214.888C68.946 216.107 68.5634 217.289 68.2871 218.461C67.9803 219.763 67.943 221.051 69.199 221.863C70.5952 222.759 72.3147 222.611 73.9003 222.656C75.3039 222.692 76.6692 222.895 77.906 223.593C79.0275 224.234 79.9741 225.181 80.656 226.275C80.9512 226.753 81.1942 227.259 81.385 227.793L81.3813 227.798C81.6145 228.426 81.7483 229.084 81.8097 229.748C81.8674 230.416 81.8151 231.099 81.6774 231.754C81.5362 232.284 81.2972 232.824 81.2234 233.376Z" fill="#F5F5F5"/>
<path d="M135.269 273.137C134.585 273.137 133.888 273.173 133.194 273.234C130.652 273.473 127.906 273.967 125.427 273.054C124.889 272.853 124.411 272.593 123.989 272.291C122.201 271.003 121.393 268.853 121.041 266.597C120.82 265.18 120.712 263.735 120.319 262.353C119.922 260.968 119.235 259.642 118.311 258.536C116.49 256.37 114.023 255.291 111.204 255.554C108.81 255.778 106.472 256.653 104.049 256.559C101.384 256.453 99.3237 254.894 98.4564 252.357C97.4559 249.428 97.8388 246.184 97.1337 243.177C96.8041 241.783 96.2967 240.412 95.546 239.219C94.7396 237.931 93.657 236.833 92.2285 236.117C92.0989 236.048 91.9668 235.992 91.8346 235.937C92.0656 235.467 92.2977 235.006 92.5383 234.544C93.91 235.156 95.14 236.131 96.0699 237.278C96.1307 237.348 96.1841 237.427 96.2364 237.497C98.1203 239.91 98.8269 242.993 99.1423 245.982C99.4261 248.665 99.0682 252.59 101.66 254.299C103.606 255.58 106.195 254.873 108.293 254.46C110.831 253.958 113.33 253.617 115.782 254.685C118.375 255.816 120.328 258.159 121.39 260.74C122.499 263.448 122.068 266.587 123.344 269.225C123.819 270.213 124.512 270.867 125.329 271.289C126.716 272.019 128.464 272.091 130.12 271.976C132.342 271.826 134.495 271.539 136.685 271.66C136.216 272.152 135.748 272.653 135.269 273.137Z" fill="#F5F5F5"/>
<path d="M125.7 89.3653C122.064 88.9781 119.945 86.0886 116.71 85.0203C116.494 83.2796 116.326 81.4766 116.24 79.6758C118.585 80.0304 120.67 81.3189 122.81 82.7033C123.347 83.0546 124.219 83.6329 125.12 84.0052C125.297 85.807 125.528 87.5974 125.827 89.3788C125.783 89.3759 125.735 89.3693 125.7 89.3653Z" fill="#E6E6E6"/>
<path d="M126.742 94.1572C126.852 94.6679 126.976 95.1811 127.103 95.6895C124.047 95.7253 121.073 94.6828 118.185 93.698C118.174 93.652 118.163 93.5975 118.153 93.5516C118.043 93.0409 117.941 92.499 117.83 91.9497C120.684 92.9305 123.702 94.1135 126.742 94.1572Z" fill="#E6E6E6"/>
<path d="M50.6605 191.935C49.842 190.652 48.9006 189.45 47.8287 188.369C48.1842 187.995 48.5492 187.628 48.9179 187.257C49.9563 188.313 50.8921 189.472 51.7136 190.712C51.3567 191.107 51.002 191.52 50.6605 191.935Z" fill="#E6E6E6"/>
<path d="M44.2796 201.15C43.7533 199.209 42.3981 197.446 40.6078 196.597C41.6938 195.232 42.8218 193.891 43.9786 192.572C45.3678 193.449 46.5568 194.635 47.4892 195.998C46.3022 197.643 45.2195 199.361 44.2796 201.15Z" fill="#E6E6E6"/>
<path d="M75.5322 235.901C73.917 236.548 72.2941 237.136 70.6633 237.665C70.4556 236.706 70.0912 235.833 69.5322 235.084C68.1729 233.257 65.8768 234.028 63.9695 234.352C61.9691 234.688 59.9276 234.81 58.0024 234.047C56.5807 233.481 55.4765 232.481 54.8133 231.234C55.8711 231.521 56.9793 231.733 58.1474 231.876C63.0248 232.47 67.9958 232.041 72.7534 230.839C74.2075 232.176 75.0714 233.934 75.5322 235.901Z" fill="#E6E6E6"/>
<path d="M81.2226 233.376C80.7177 233.627 80.2068 233.867 79.6996 234.101C79.614 233.222 79.9465 232.313 80.1488 231.395C80.3638 230.411 80.2763 229.385 79.9563 228.425C80.4378 228.224 80.906 228.02 81.372 227.799C81.6052 228.427 81.7391 229.086 81.8005 229.749C81.8582 230.417 81.8058 231.1 81.6681 231.755C81.5354 232.285 81.2964 232.824 81.2226 233.376Z" fill="#E6E6E6"/>
<path d="M95.5362 239.212C94.7298 237.924 93.6472 236.826 92.2188 236.11C92.0892 236.041 91.957 235.985 91.8248 235.93C92.0558 235.46 92.2879 234.999 92.5285 234.537C93.9002 235.149 95.1302 236.123 96.0602 237.271C96.1209 237.341 96.1744 237.42 96.2267 237.49C96.0431 237.928 95.8559 238.37 95.6819 238.814C95.6346 238.945 95.5872 239.076 95.5362 239.212Z" fill="#E6E6E6"/>
<path d="M97.0974 267.992C94.138 267.417 91.7981 265.301 90.9636 261.998C90.0426 258.331 91.9741 249.709 85.8705 250.921C85.8583 250.926 85.8451 250.924 85.8329 250.93C86.3467 249.14 86.94 247.367 87.5947 245.602C88.1607 245.618 88.7248 245.686 89.2799 245.815C91.1412 246.255 92.4348 247.157 93.3449 248.35C92.9126 252.56 93.2219 256.845 94.3277 260.936C94.9677 263.283 95.8783 265.725 97.0974 267.992Z" fill="#E6E6E6"/>
<path d="M127.085 277.088C128.336 277.014 129.601 277.171 130.79 277.544C128.709 279.492 126.565 281.353 124.342 283.109C123.644 283.296 122.951 283.494 122.271 283.657C118.327 284.601 114.366 283.28 113.262 279.009C113.118 278.434 113.061 277.843 113.072 277.234C114.815 276.975 116.555 276.424 118.262 275.657C118.249 275.783 118.235 275.91 118.222 276.037C117.974 278.708 119.19 279.146 121.457 278.513C123.325 277.991 125.125 277.213 127.085 277.088Z" fill="#E6E6E6"/>
<path d="M125.427 273.054C124.888 272.853 124.411 272.593 123.988 272.291C124.444 271.965 124.895 271.626 125.339 271.274C126.726 272.005 128.475 272.076 130.13 271.962C132.353 271.812 134.506 271.524 136.695 271.646C136.224 272.151 135.756 272.651 135.274 273.141C134.589 273.141 133.892 273.176 133.199 273.237C130.643 273.474 127.897 273.968 125.427 273.054Z" fill="#E6E6E6"/>
<path d="M225.084 198.95C225.042 199.025 225.005 199.103 224.968 199.181C224.446 199.077 223.932 198.964 223.404 198.848C223.535 198.53 223.696 198.22 223.872 197.922C224.562 196.785 225.52 195.854 226.371 194.826C226.782 194.32 227.125 193.784 227.39 193.211C227.933 193.256 228.487 193.278 229.04 193.291C228.684 194.22 228.154 195.099 227.493 195.9C226.678 196.903 225.707 197.801 225.084 198.95Z" fill="#E6E6E6"/>
<path d="M241.992 196.555C240.666 197.599 238.887 198.272 237.727 199.505C237.274 199.986 237.09 200.484 237.088 200.992C235.263 200.832 233.508 200.61 231.886 200.384C231.926 199.807 232.042 199.219 232.26 198.618C232.868 196.924 234.106 195.698 235.533 194.662C236.299 194.11 238.796 193.097 239.393 192.102C241.187 191.608 242.916 190.942 244.521 190.089C245.16 192.489 244.078 194.899 241.992 196.555Z" fill="#E6E6E6"/>
<path d="M200.544 89.8581C199.342 88.7075 196.599 89.6147 194.427 91.8888C192.251 94.1592 191.466 96.9352 192.664 98.0906C193.866 99.2412 196.609 98.334 198.781 96.06C200.956 93.7811 201.745 91.0087 200.544 89.8581Z" fill="#D17428"/>
<path d="M225.224 113.499C224.023 112.349 221.279 113.256 219.108 115.53C216.936 117.804 216.147 120.576 217.344 121.732C218.546 122.882 221.289 121.975 223.461 119.701C225.636 117.422 226.425 114.65 225.224 113.499Z" fill="#D17428"/>
<path d="M213.679 122.244C213.462 121.712 212.857 121.461 212.326 121.677C207.003 123.853 202.484 121.206 200.267 119.435C195.416 115.566 192.645 109.155 193.523 103.849C193.612 103.286 193.232 102.751 192.669 102.661C192.102 102.568 191.571 102.952 191.482 103.515C190.573 109.01 193.071 115.509 197.636 119.88C198.064 120.293 198.516 120.685 198.983 121.059C203.363 124.551 208.517 125.479 213.117 123.6C213.643 123.38 213.898 122.77 213.679 122.244Z" fill="#D17428"/>
<path d="M203.82 90.1678C204.676 91.2735 206.072 91.8432 207.369 91.0659C208.454 90.4153 209.127 88.6267 208.267 87.5173C206.462 85.1806 204.461 83.2871 202.013 81.6288C200.856 80.8469 199.122 81.5397 198.506 82.6795C197.786 84.0138 198.394 85.4016 199.556 86.1872C201.162 87.2675 202.637 88.636 203.82 90.1678Z" fill="#D17428"/>
<path d="M232.695 110.821C230.998 109.008 229.281 107.211 227.542 105.442C225.206 103.063 221.626 106.805 223.962 109.184C225.706 110.956 227.418 112.75 229.115 114.563C231.394 116.996 234.969 113.251 232.695 110.821Z" fill="#D17428"/>
<path d="M200.931 93.8153C198.754 96.0857 196.016 96.9966 194.815 95.846C193.613 94.6954 194.397 91.9193 196.578 89.6442C198.754 87.3738 201.493 86.4629 202.694 87.6135C203.896 88.7641 203.108 91.5449 200.931 93.8153Z" fill="#6D0F14"/>
<path d="M225.615 117.451C223.438 119.721 220.7 120.632 219.498 119.482C218.297 118.331 219.081 115.555 221.261 113.28C223.438 111.01 226.176 110.099 227.378 111.249C228.576 112.405 227.786 115.177 225.615 117.451Z" fill="#6D0F14"/>
<path d="M199.781 117.631C195.216 113.259 192.718 106.761 193.627 101.265C193.72 100.698 194.256 100.318 194.815 100.412C195.382 100.505 195.763 101.041 195.668 101.6C194.79 106.906 197.561 113.317 202.413 117.186C204.63 118.956 209.149 121.603 214.471 119.428C215.002 119.211 215.604 119.468 215.824 119.994C216.04 120.525 215.788 121.131 215.257 121.347C210.654 123.231 205.5 122.303 201.124 118.806C200.662 118.436 200.21 118.044 199.781 117.631Z" fill="#6D0F14"/>
<path d="M210.417 85.2717C208.612 82.935 206.611 81.0415 204.164 79.3832C203.006 78.6013 201.272 79.2941 200.656 80.4339C199.936 81.7682 200.545 83.156 201.707 83.9416C203.309 85.0266 204.784 86.3952 205.967 87.927C206.822 89.0327 208.219 89.6024 209.515 88.8251C210.609 88.1734 211.282 86.3847 210.417 85.2717Z" fill="#F5F5F5"/>
<path d="M234.846 108.576C233.148 106.763 231.431 104.965 229.692 103.197C227.357 100.818 223.777 104.56 226.112 106.939C227.856 108.711 229.568 110.505 231.266 112.318C233.544 114.751 237.119 111.006 234.846 108.576Z" fill="#F5F5F5"/>
<path d="M174.31 111.187C170.869 111.338 167.444 111.775 164.077 112.485C160.609 113.216 156.839 114.53 155.231 117.685C154.178 119.761 154.299 122.288 155.103 124.473C155.906 126.657 157.319 128.563 158.808 130.36C160.425 132.317 162.151 134.182 163.967 135.949C158.743 134.678 153.414 135.92 148.115 136.836C143.325 137.664 138.539 138.487 133.75 139.314C139.093 141.293 143.53 143.413 148.767 145.661C145.337 150.287 141.718 154.744 138.292 159.365C139.672 158.271 141.366 158.096 143.076 157.673C149.029 156.202 154.89 154.355 160.603 152.137C164.457 150.645 168.384 148.958 172.517 149.026C169.213 160.109 166.17 171.437 163.973 182.792C168.117 178.852 172.288 175.51 176.865 172.085C177.765 177.196 177.945 182.166 177.804 187.354C182.05 176.431 185.792 165.402 188.21 153.936C190.259 156.589 192.732 159.195 195.616 160.9C196.569 161.463 197.623 161.983 198.724 161.877C200.734 161.686 201.947 159.611 202.726 157.744C204.038 154.597 205.096 151.346 205.878 148.028C202.723 145.279 198.143 145.537 194.059 144.632C188.846 143.483 184.374 140.141 180.568 136.397C180.064 135.904 179.555 135.377 179.289 134.723C178.958 133.906 179.044 132.991 179.122 132.115C179.309 129.969 179.41 127.816 179.41 125.655C179.412 123.055 179.273 120.422 178.508 117.94C177.758 115.477 176.482 112.619 174.31 111.187Z" fill="#D17428"/>
<path d="M174.378 145.509C170.21 146.875 165.887 147.68 161.591 148.529C156.531 149.529 151.509 150.68 146.47 151.773C149.505 148.632 152.509 145.78 155.04 143.067C150.201 140.896 145.031 138.662 139.825 136.324C145.746 135.49 151.153 134.779 156.28 134.454C160.762 134.166 164.982 133.982 169.051 134.291C169.225 134.302 169.39 134.315 169.564 134.327C170.108 134.371 170.649 134.429 171.191 134.496C173.541 134.785 175.847 135.27 178.075 135.679C178.913 135.835 179.759 136.051 180.585 136.214L184.439 142.018C181.038 143.028 177.762 144.402 174.378 145.509Z" fill="#D80C03"/>
<path d="M162.012 143.799L163.078 143.59C167.677 142.684 172.02 141.834 176.196 140.467C177.62 140 179.021 139.493 180.491 138.955C180.112 138.885 179.732 138.814 179.348 138.74C177.418 138.369 175.419 137.991 173.485 137.754C172.964 137.689 172.406 137.634 171.788 137.577C171.709 137.57 171.245 137.541 171.245 137.541C167.058 137.226 162.642 137.389 157.306 137.729C157.384 137.766 164.136 140.795 164.136 140.795L161.174 143.969C161.463 143.91 161.74 143.856 162.012 143.799Z" fill="#B80500"/>
<path d="M175.327 145.794C174.144 150.021 173.523 154.368 172.861 158.699C172.081 163.799 171.145 168.864 170.272 173.945C173.278 170.783 176.001 167.653 178.601 165.008C180.981 169.749 183.434 174.82 185.993 179.92C186.576 173.968 187.046 168.538 187.158 163.397C187.251 158.904 187.252 154.681 186.771 150.63C186.749 150.461 186.735 150.29 186.713 150.121C186.641 149.579 186.566 149.042 186.478 148.503C186.089 146.165 185.505 143.883 184.995 141.673C184.804 140.842 184.548 140.006 184.354 139.188L178.389 135.59C177.52 139.032 176.289 142.37 175.327 145.794Z" fill="#E20D03"/>
<path d="M177.57 158.076L177.734 157C178.438 152.367 179.102 147.992 180.289 143.76C180.694 142.321 181.14 140.898 181.615 139.406C181.703 139.778 181.791 140.158 181.88 140.538C182.33 142.45 182.796 144.429 183.118 146.35C183.202 146.864 183.284 147.421 183.365 148.039C183.375 148.115 183.428 148.582 183.428 148.582C183.925 152.752 183.955 157.173 183.839 162.517C183.799 162.44 180.481 155.83 180.481 155.83L177.441 158.928C177.484 158.634 177.524 158.354 177.57 158.076Z" fill="#C40500"/>
<path d="M205.957 154.143C206.236 153.254 206.324 152.356 206.135 151.602C205.845 150.443 204.825 149.561 203.711 149.109C202.597 148.658 201.388 148.558 200.197 148.444C200.141 148.438 200.084 148.433 200.027 148.427C197.982 148.227 195.946 147.965 193.915 147.638C192.793 147.454 191.656 147.251 190.551 146.965C188.805 146.523 187.116 145.889 185.627 144.875C184.09 143.824 182.837 142.414 181.612 141.017C181.598 141.006 181.592 140.993 181.578 140.982L180.696 141.903C180.832 142.251 180.98 142.563 181.035 142.681C181.571 143.846 182.221 144.961 182.958 146.013C183.46 146.727 183.998 147.413 184.575 148.069C185.709 149.358 186.969 150.531 188.318 151.589C190.577 153.354 193.042 154.851 195.62 156.091C196.158 156.352 196.754 156.665 197.388 156.969C197.746 157.138 198.117 157.308 198.486 157.462C199.956 158.065 201.521 158.445 202.877 157.927C204.234 157.408 205.438 155.799 205.957 154.143Z" fill="#D11E0B"/>
<path d="M202.897 157.92C201.535 158.434 199.975 158.058 198.506 157.455C198.132 157.298 197.762 157.135 197.408 156.962C197.859 156.563 198.067 156.015 197.956 155.367C197.748 154.15 196.61 153.641 195.732 152.96C194.919 152.335 194.1 151.707 193.275 151.096C192.56 150.571 191.811 150.041 191.347 149.267C191.164 148.951 191.021 148.621 190.973 148.257C190.962 148.172 191.025 147.239 191.067 147.263C190.931 147.182 190.792 147.106 190.652 147.021C190.619 147.003 190.595 146.985 190.563 146.968C191.672 147.248 192.805 147.456 193.927 147.64C195.954 147.964 197.994 148.229 200.04 148.43C200.096 148.435 200.153 148.441 200.21 148.446C201.4 148.561 202.613 148.655 203.723 149.112C204.837 149.564 205.857 150.446 206.147 151.604C206.337 152.358 206.248 153.257 205.969 154.145C205.437 155.799 204.233 157.408 202.897 157.92Z" fill="#AF1509"/>
<path d="M206.227 154.297C208.345 150.468 209.474 146.42 210.106 142.088C210.155 141.737 210.202 141.378 210.127 141.039C209.859 139.814 207.69 138.506 206.663 138.03C205.164 137.336 203.547 136.657 201.893 136.552C198.898 136.36 196.161 136.595 193.225 137.209C190.334 137.813 188.198 138.266 185.046 138.646L180.964 141.614C183.528 145.995 187.521 149.585 192.303 151.285C195.58 152.447 199.335 152.948 201.732 155.465C202.835 156.624 203.296 157.67 203.296 157.67C203.296 157.67 204.359 157.672 206.227 154.297Z" fill="#FC2D0F"/>
<path d="M194.666 144.736C194.968 144.314 195.058 143.721 194.801 143.272C194.639 142.988 194.36 142.797 194.08 142.635C193.462 142.29 192.773 142.088 192.083 141.947C190.199 141.566 188.246 141.642 186.347 141.34C185.033 141.13 183.687 140.683 182.639 139.886L181.765 140.798C183.341 142.175 185.137 143.303 186.983 144.309C188.962 145.387 191.286 146.364 193.412 145.607C193.897 145.431 194.369 145.163 194.666 144.736Z" fill="#D11E0B"/>
<path opacity="0.3" d="M205.619 153.322C206.082 152.689 206.408 151.858 206.655 151.348C207.268 150.053 207.739 148.696 208.104 147.309C208.384 146.231 208.598 145.14 208.767 144.037C208.908 143.11 209.225 141.984 208.76 141.102C208.422 140.462 207.744 140.018 207.033 139.913C206.172 139.785 205.824 140.378 205.681 141.12C205.508 142.038 205.373 142.938 205.104 143.843C204.565 145.635 203.672 147.255 203.001 148.992C202.441 150.434 202.15 152.439 203.288 153.702C203.565 154.005 203.96 154.224 204.373 154.192C204.862 154.149 205.275 153.789 205.619 153.322Z" fill="#F5F5F5"/>
<path d="M164.968 114.877C165.843 114.56 166.739 114.434 167.5 114.592C168.669 114.834 169.593 115.81 170.099 116.906C170.6 117.998 170.749 119.201 170.918 120.388C170.929 120.443 170.932 120.498 170.944 120.553C171.233 122.585 171.585 124.614 171.996 126.626C172.224 127.736 172.479 128.861 172.809 129.958C173.324 131.685 174.028 133.344 175.113 134.786C176.23 136.275 177.691 137.464 179.144 138.634C179.159 138.645 179.168 138.652 179.183 138.663L178.301 139.584C177.945 139.463 177.63 139.328 177.507 139.279C176.32 138.794 175.178 138.191 174.093 137.503C173.359 137.031 172.647 136.522 171.972 135.973C170.635 134.901 169.407 133.685 168.298 132.385C166.436 130.202 164.838 127.803 163.483 125.287C163.198 124.756 162.859 124.177 162.528 123.557C162.34 123.207 162.159 122.848 161.986 122.479C161.322 121.034 160.87 119.492 161.33 118.11C161.783 116.747 163.334 115.48 164.968 114.877Z" fill="#D11E0B"/>
<path d="M161.328 118.102C160.868 119.484 161.316 121.031 161.984 122.471C162.152 122.836 162.338 123.199 162.526 123.549C162.904 123.086 163.445 122.847 164.097 122.929C165.318 123.083 165.878 124.198 166.601 125.049C167.263 125.832 167.927 126.623 168.575 127.424C169.126 128.114 169.695 128.839 170.488 129.273C170.807 129.442 171.151 129.569 171.512 129.603C171.599 129.609 172.525 129.513 172.501 129.465C172.588 129.6 172.675 129.735 172.756 129.866C172.773 129.894 172.794 129.926 172.815 129.949C172.485 128.851 172.23 127.727 172.002 126.616C171.591 124.604 171.235 122.581 170.95 120.544C170.939 120.489 170.936 120.434 170.924 120.379C170.76 119.196 170.609 117.984 170.105 116.897C169.604 115.805 168.683 114.824 167.507 114.583C166.745 114.425 165.849 114.551 164.974 114.868C163.333 115.48 161.782 116.747 161.328 118.102Z" fill="#AF1509"/>
<path d="M164.799 114.62C168.537 112.338 172.528 111.034 176.828 110.219C177.177 110.152 177.535 110.092 177.878 110.15C179.116 110.362 180.516 112.472 181.036 113.48C181.793 114.951 182.54 116.536 182.717 118.179C183.036 121.163 182.918 123.903 182.43 126.868C181.952 129.78 181.59 131.937 181.347 135.098L178.555 139.301C174.063 136.925 170.309 133.093 168.404 128.389C167.098 125.164 166.444 121.437 163.824 119.151C162.614 118.101 161.553 117.689 161.553 117.689C161.553 117.689 161.508 116.628 164.799 114.62Z" fill="#FC2D0F"/>
<path d="M173.846 122.121C174.428 121.7 175.254 121.566 175.881 121.918C176.276 122.137 176.55 122.523 176.773 122.907C177.259 123.76 177.557 124.711 177.761 125.674C178.316 128.291 178.237 131.001 178.691 133.64C179.005 135.471 179.646 137.332 180.761 138.774L179.51 139.997C177.572 137.833 175.984 135.343 174.56 132.797C173.034 130.057 171.643 126.844 172.656 123.879C172.89 123.198 173.264 122.542 173.846 122.121Z" fill="#D11E0B"/>
<path opacity="0.3" d="M165.803 115.185C166.414 114.696 167.232 114.334 167.731 114.071C168.999 113.4 170.332 112.872 171.706 112.45C172.77 112.126 173.854 111.863 174.945 111.65C175.868 111.469 176.975 111.108 177.879 111.536C178.531 111.846 179.009 112.502 179.144 113.207C179.312 114.059 178.734 114.437 177.999 114.611C177.089 114.825 176.19 114.995 175.305 115.305C173.536 115.925 171.962 116.885 170.251 117.626C168.835 118.243 166.84 118.621 165.531 117.541C165.213 117.281 164.981 116.89 164.991 116.479C165.007 115.974 165.351 115.546 165.803 115.185Z" fill="#F5F5F5"/>
<path d="M181.414 143.414C181.389 143.456 180.825 143.259 180.766 143.237C180.541 143.163 180.327 143.075 180.112 142.978C178.83 142.389 177.751 141.356 176.989 140.178C176.855 139.976 176.738 139.772 176.64 139.552C176.616 139.495 176.379 138.872 176.424 138.853C177.514 138.435 178.431 137.686 179.329 136.952C179.753 136.608 180.176 136.255 180.549 135.858C180.734 135.657 180.913 135.444 181.059 135.214C181.145 135.082 181.274 134.656 181.449 134.646C181.513 134.642 181.582 134.672 181.642 134.702C182.58 135.164 183.5 135.741 184.224 136.502C184.578 136.873 184.884 137.298 185.096 137.765C185.145 137.879 185.523 138.686 185.344 138.8C185.185 138.898 184.986 139.127 184.849 139.257C183.612 140.491 182.374 141.945 181.414 143.414Z" fill="#EF3420"/>
<path opacity="0.3" d="M184.745 138.057C184.154 136.865 183.024 136.097 181.944 135.382C181.703 135.22 181.312 135.353 181.186 135.606C181.044 135.901 181.151 136.188 181.411 136.365C181.91 136.695 182.325 136.968 182.767 137.353C183.219 137.745 183.524 138.101 183.787 138.631C183.916 138.889 184.316 138.983 184.553 138.823C184.822 138.641 184.885 138.34 184.745 138.057Z" fill="#F5F5F5"/>
<path d="M158.338 170.605C156.358 172.669 153.084 172.742 151.02 170.762C148.956 168.783 148.883 165.508 150.863 163.444C152.843 161.38 156.117 161.307 158.181 163.287C160.245 165.267 160.313 168.538 158.338 170.605Z" fill="#D17428"/>
<path d="M142.936 186.684C140.956 188.747 137.681 188.82 135.618 186.841C133.554 184.861 133.481 181.586 135.461 179.522C137.441 177.459 140.715 177.385 142.779 179.365C144.843 181.345 144.916 184.62 142.936 186.684Z" fill="#D17428"/>
<path d="M127.532 202.765C125.552 204.829 122.277 204.902 120.213 202.922C118.15 200.942 118.076 197.668 120.056 195.604C122.036 193.54 125.311 193.467 127.375 195.447C129.442 197.422 129.511 200.702 127.532 202.765Z" fill="#D17428"/>
<path d="M108.512 220.434C111.371 220.372 113.639 218.004 113.577 215.145C113.516 212.286 111.148 210.018 108.288 210.079C105.429 210.141 103.161 212.509 103.223 215.368C103.285 218.227 105.653 220.495 108.512 220.434Z" fill="#D17428"/>
<path d="M161.576 167.973C159.597 170.036 156.322 170.11 154.258 168.13C152.194 166.15 152.121 162.875 154.101 160.811C156.081 158.748 159.356 158.674 161.419 160.654C163.483 162.634 163.552 165.905 161.576 167.973Z" fill="#F5F5F5"/>
<path d="M142.547 185.644C145.406 185.582 147.674 183.214 147.612 180.355C147.551 177.496 145.183 175.228 142.324 175.29C139.464 175.352 137.197 177.719 137.258 180.579C137.32 183.438 139.688 185.706 142.547 185.644Z" fill="#F5F5F5"/>
<path d="M130.772 200.132C128.792 202.196 125.517 202.269 123.454 200.289C121.39 198.309 121.317 195.035 123.297 192.971C125.276 190.907 128.551 190.834 130.615 192.814C132.682 194.789 132.752 198.069 130.772 200.132Z" fill="#F5F5F5"/>
<path d="M115.369 216.211C113.39 218.274 110.115 218.348 108.051 216.368C105.987 214.388 105.914 211.113 107.894 209.049C109.874 206.986 113.149 206.913 115.212 208.892C117.28 210.868 117.349 214.147 115.369 216.211Z" fill="#F5F5F5"/>
<path d="M158.881 163.493C157.68 162.343 155.884 164.206 157.091 165.36C158.288 166.515 160.087 164.648 158.881 163.493Z" fill="#E20D03"/>
<path d="M143.334 179.831C142.133 178.681 140.337 180.544 141.544 181.698C142.746 182.857 144.541 180.986 143.334 179.831Z" fill="#E20D03"/>
<path d="M127.78 195.632C126.578 194.481 124.783 196.344 125.989 197.499C127.192 198.658 128.986 196.786 127.78 195.632Z" fill="#E20D03"/>
<path d="M112.828 211.69C111.627 210.539 109.832 212.402 111.038 213.557C112.236 214.712 114.03 212.84 112.828 211.69Z" fill="#E20D03"/>
<path opacity="0.3" d="M138.976 250.659C145.862 242.859 151.584 234.057 157.683 225.607C158.783 224.085 159.917 222.529 160.45 220.724C160.975 218.92 160.784 216.78 159.475 215.433C153.798 209.606 144.974 223.262 142.044 226.643C136.19 233.395 129.044 239.185 124.704 247C123.72 248.778 122.879 250.696 122.805 252.724C122.732 254.753 123.554 256.913 125.286 257.977C126.925 258.984 129.075 258.839 130.827 258.053C132.583 257.263 134.015 255.913 135.368 254.547C136.6 253.279 137.807 251.984 138.976 250.659Z" fill="#F5F5F5"/>
<path opacity="0.3" d="M115.262 161.931C115.559 161.573 115.831 161.189 116.076 160.791C117.364 158.667 117.634 155.718 116.049 153.808C114.688 152.162 112.291 151.677 110.185 152.061C105.654 152.889 101.019 156.369 97.1018 158.657C92.5245 161.33 88.0321 164.188 83.9192 167.544C82.6595 168.57 81.4099 169.673 80.5866 171.073C79.7549 172.473 79.3971 174.238 80.0006 175.751C80.7719 177.69 82.9665 178.766 85.0519 178.814C87.1373 178.863 89.1428 178.074 91.0499 177.225C97.9616 174.139 104.391 170.066 110.648 165.8C112.298 164.662 113.992 163.475 115.262 161.931Z" fill="#F5F5F5"/>
<path opacity="0.3" d="M232.368 169.231C233.913 167.069 232.942 164.954 230.93 163.531C229.607 162.599 228.181 161.809 226.679 161.189C223.435 159.855 218.188 160.377 218.62 165.106C218.762 166.646 219.678 168.049 220.885 169.014C222.093 169.979 223.578 170.541 225.085 170.898C227.466 171.463 230.621 171.526 232.27 169.368C232.302 169.317 232.335 169.274 232.368 169.231Z" fill="#F5F5F5"/>
<path opacity="0.3" d="M156.356 98.0591C156.733 97.3294 156.933 96.4939 156.955 95.6733C156.995 94.1443 156.492 92.6478 155.857 91.2549C155.242 89.9153 154.405 88.4887 153.167 87.5538C152.201 86.8199 150.641 86.2158 149.417 86.6306C148.235 87.0314 147.521 88.5154 147.096 89.6345C146.123 92.19 146.362 95.2491 147.935 97.5217C148.71 98.6422 149.781 99.5861 151.072 100.036C152.357 100.483 153.86 100.389 154.996 99.6324C155.581 99.237 156.034 98.6868 156.356 98.0591Z" fill="#F5F5F5"/>
<path opacity="0.3" d="M189.87 89.6992C189.619 86.8741 188.157 84.0016 185.524 83.0305C180.565 81.1944 175.28 86.0772 174.829 90.8368C174.58 93.4607 175.647 96.2044 177.686 97.869C179.726 99.5336 182.708 100.02 185.121 98.9579C188.323 97.5512 189.958 93.7767 189.914 90.4337C189.904 90.1897 189.889 89.942 189.87 89.6992Z" fill="#FF00FF"/>
<path opacity="0.3" d="M232.23 131.362C232.183 129.5 231.527 127.65 230.281 126.26C228.776 124.572 226.555 123.59 224.302 123.443C220.13 123.169 215.3 125.495 215.221 130.167C215.187 132.135 215.973 134.054 217.149 135.634C218.263 137.128 219.739 138.376 221.486 139.024C224.803 140.254 228.875 138.983 230.883 136.08C231.825 134.704 232.268 133.027 232.23 131.362Z" fill="#FF00FF"/>
</svg>
