<svg width="160" height="172" viewBox="0 0 160 172" fill="none" xmlns="http://www.w3.org/2000/svg">
<path d="M2.14666 152.658C-2.64415 145.441 2.08004 139.908 2.08004 139.908C2.08004 139.908 96.7401 69.8647 102.94 65.3471C109.14 60.8328 132.458 44.1516 153.01 70.8941C168.665 91.2601 153.823 110.063 148.953 115.977C143.859 122.157 139.324 125.569 134.437 121.218C128.93 116.314 137.139 109.027 138.994 105.796C140.85 102.564 148.903 94.8182 140.7 83.0677C136.169 76.5745 125.202 69.3616 113.171 78.9499C101.141 88.5382 22.6692 148.633 17.7651 152.688C12.8577 156.742 5.64814 157.932 2.14666 152.658Z" fill="#D1CD95"/>
<path d="M149.505 85.8961C152.843 84.3236 156.838 84.9866 159.74 87.0089C159.217 81.8616 157.221 76.3545 152.897 70.7275C151.971 69.5214 151.038 68.4087 150.102 67.3726C149.579 67.8523 148.889 68.3187 148.009 68.7852C146.397 69.6447 144.608 70.1944 143.132 71.4771C140.87 73.446 139.7 77.1674 139.024 80.0692C138.977 80.2758 138.928 80.5156 138.881 80.7755C139.521 81.4751 140.09 82.1914 140.583 82.8977C142.832 86.1193 143.852 89.0378 144.121 91.6431C146.157 89.9506 147.986 86.6124 149.505 85.8961Z" fill="#E5334C"/>
<path d="M31.5511 141.707C29.8686 135.527 27.0201 129.467 25.7308 123.03C25.6808 122.78 25.6309 122.527 25.5809 122.267C21.5863 125.222 17.9083 127.944 14.7033 130.313C14.6833 130.666 14.67 131.016 14.6666 131.369C14.6167 136.573 15.2797 142.31 17.9682 146.774C18.6845 147.967 19.5374 149.21 20.5302 150.239C23.0089 148.31 26.8335 145.348 31.5511 141.707Z" fill="#E5334C"/>
<path d="M156.79 103.464C152.772 102.131 147.555 99.7357 142.764 99.3625C141.465 102.194 139.649 104.297 138.883 105.629C138.51 106.279 137.877 107.098 137.15 108.028C138.083 108.088 138.993 108.088 139.712 108.081C144.187 108.048 148.351 109.264 151.033 113.052C152.855 110.627 155.044 107.355 156.79 103.464Z" fill="#E5334C"/>
<path d="M49.7239 127.701C52.1359 125.842 54.6113 123.939 57.12 122.007C56.407 119.665 55.2277 117.28 54.6679 115.224C53.5552 111.146 52.3658 107.112 51.7861 102.887C48.1147 105.602 44.45 108.314 40.8652 110.963C41.1517 113.612 42.2245 115.67 43.7437 118.536C45.3362 121.537 47.3251 125.129 49.7239 127.701Z" fill="#E5334C"/>
<path d="M130.889 67.086C132.212 63.6812 134.554 59.9198 137.949 58.234C130.133 54.7859 122.603 55.6121 116.42 57.7476C116.66 58.2141 116.876 58.7005 117.063 59.1969C118.379 62.7017 117.899 70.6142 119.985 74.9486C123.243 73.9025 126.325 73.9424 129.113 74.6687C129.989 72.3833 130.019 69.3282 130.889 67.086Z" fill="#E5334C"/>
<path d="M100.921 66.5796C98.0226 68.7118 92.4855 72.7996 85.4492 78.0002C86.6053 81.1586 87.3449 84.7034 88.5576 87.6585C89.3272 89.5308 90.7231 92.5026 92.4722 94.7747C95.8337 92.1794 98.9521 89.7707 101.724 87.6218C101.841 83.7905 101.854 79.9825 101.524 76.1712C101.254 72.9762 100.811 69.7479 100.921 66.5796Z" fill="#E5334C"/>
<path d="M70.1278 106.885C70.5976 107.898 71.2506 109.247 72.0768 110.493C74.9286 108.298 77.7505 106.122 80.5057 104C80.0559 100.342 79.7594 96.6571 78.9898 93.0157C78.3501 89.9906 77.4106 87.0822 77.1341 84.1404C73.566 86.779 69.7847 89.5742 65.8867 92.456C65.94 93.9519 65.9633 95.4278 66.2232 96.6771C66.9861 100.312 68.5953 103.597 70.1278 106.885Z" fill="#E5334C"/>
<g opacity="0.4">
<path opacity="0.4" d="M140.699 83.0675C141.368 84.027 141.918 84.9565 142.384 85.8593C142.328 82.9642 141.361 79.6559 138.773 75.9479C134.242 69.4547 123.274 62.2418 111.244 71.8301C99.2138 81.4183 20.7418 141.513 15.8377 145.568C10.9337 149.626 3.72413 150.812 0.222641 145.538C0.159341 145.441 0.102709 145.345 0.0394088 145.248C-0.133833 147.317 0.289262 149.859 2.14828 152.657C5.64977 157.931 12.8593 156.742 17.7634 152.687C22.6675 148.63 101.139 88.5346 113.17 78.9496C125.2 69.3614 136.168 76.5742 140.699 83.0675Z" fill="#998767"/>
<path opacity="0.4" d="M148.95 115.977C153.158 110.87 164.798 96.1473 157.812 79.1096C159.704 93.0289 150.632 104.48 147.024 108.861C142.147 114.781 137.779 118.152 133.125 114.604C132.225 116.916 132.232 119.255 134.434 121.217C139.322 125.568 143.856 122.157 148.95 115.977Z" fill="#998767"/>
</g>
<path opacity="0.4" d="M138.581 62.2118C134.344 58.9002 123.649 57.7941 117.219 59.6631C110.253 61.6887 102.644 66.936 97.2531 71.8434C95.9638 73.0161 92.0393 75.5048 94.3314 77.4104C100.305 73.226 104.733 69.308 110.606 65.8532C116.42 62.4317 126.771 60.0563 133.464 62.9414C139.064 65.3535 140.121 67.3391 142.203 67.2691C146.73 67.1225 142.456 65.2369 138.581 62.2118Z" fill="white"/>
<path opacity="0.4" d="M75.5778 91.7265C78.5795 89.4977 81.3014 87.2222 84.3698 85.0533C85.7924 84.0472 91.4328 81.3453 91.2762 79.6129L91.4727 79.5096C89.4938 76.6611 75.8177 88.3316 73.4489 90.084C72.7293 90.6171 69.2411 92.7693 70.7703 93.9686C71.6332 94.6416 74.9115 92.2196 75.5778 91.7265Z" fill="white"/>
<path opacity="0.4" d="M146.285 98.8357L145.904 98.9392C146.041 98.9826 146.168 98.9425 146.285 98.8357Z" fill="white"/>
<path opacity="0.4" d="M146.256 107.501C148.189 105.076 150.324 101.734 151.154 98.716C151.62 97.0302 151.434 91.4932 148.688 93.0923C147.552 93.752 147.149 98.063 146.286 98.836L146.583 98.756C145.87 102.208 142.358 104.366 140.283 106.938C139.167 108.324 133.81 114.701 138.59 114.524C141.216 114.428 144.781 109.35 146.256 107.501Z" fill="white"/>
<path d="M89.0241 171.013C80.362 171.013 78.3631 164.016 78.3631 164.016C78.3631 164.016 72.3662 46.4116 72.0331 38.749C71.6999 31.0864 70.7004 2.43485 104.349 0.102745C129.976 -1.67298 137.432 21.0917 139.664 28.4211C141.996 36.0838 142.329 41.7474 135.999 43.4132C128.866 45.2889 127.337 34.418 125.671 31.0864C124.006 27.7548 122.007 16.7606 107.681 17.0938C99.7651 17.277 87.6915 22.4243 89.0241 37.7495C90.3567 53.0748 97.0199 151.689 97.6862 158.019C98.3525 164.349 95.3541 171.013 89.0241 171.013Z" fill="#D1CD95"/>
<path d="M114.912 11.3155C115.448 7.66406 118.21 4.70229 121.499 3.40297C116.921 0.990911 111.231 -0.391693 104.151 0.0980488C102.635 0.204659 101.189 0.364574 99.8101 0.571132C99.92 1.27076 99.9267 2.10699 99.8301 3.09647C99.6535 4.91218 99.1205 6.71123 99.3737 8.6502C99.7635 11.6253 102.215 14.657 104.258 16.8226C104.404 16.9758 104.578 17.1491 104.767 17.3323C105.704 17.189 106.617 17.1091 107.479 17.0891C111.407 16.9991 114.402 17.7621 116.725 18.9814C116.438 16.3495 114.669 12.9812 114.912 11.3155Z" fill="#E5334C"/>
<path d="M96.1669 140.457C90.0868 138.442 83.4636 137.462 77.3901 134.974C77.1536 134.877 76.9137 134.777 76.6738 134.677C76.927 139.641 77.1602 144.209 77.3601 148.19C77.6433 148.4 77.9299 148.606 78.2197 148.806C82.5274 151.725 87.6747 154.347 92.8819 154.577C94.2712 154.636 95.7804 154.616 97.1863 154.357C96.9431 151.222 96.5933 146.401 96.1669 140.457Z" fill="#E5334C"/>
<path d="M133.576 14.9668C130.245 17.5788 125.361 20.5972 122.402 24.3852C124.045 27.0338 124.791 29.7124 125.477 31.085C125.814 31.7579 126.144 32.7374 126.517 33.8535C127.083 33.1106 127.586 32.351 127.976 31.7513C130.421 28.0066 133.74 25.2081 138.377 25.0681C137.364 22.2063 135.852 18.5749 133.576 14.9668Z" fill="#E5334C"/>
<path d="M94.5506 117.57C94.3374 114.531 94.1208 111.416 93.8976 108.261C91.5522 107.558 88.9136 107.222 86.8913 106.552C82.8801 105.223 78.8589 103.983 75.0176 102.128C75.2475 106.689 75.4807 111.243 75.7072 115.694C78.0726 116.92 80.3814 117.166 83.6064 117.483C86.9879 117.816 91.0824 118.146 94.5506 117.57Z" fill="#E5334C"/>
<path d="M88.9491 16.4261C86.8435 13.441 85.0045 9.40979 85.4776 5.64844C78.2813 10.2527 74.8065 16.9825 73.1641 23.3158C73.6871 23.3757 74.2102 23.4624 74.7299 23.5823C78.378 24.4252 84.7046 29.1993 89.4688 29.859C90.3983 26.5674 92.1407 24.0187 94.2829 22.0998C92.8637 20.1041 90.3317 18.3884 88.9491 16.4261Z" fill="#E5334C"/>
<path d="M71.9492 41.1096C72.1225 44.7011 72.4656 51.5774 72.9054 60.3161C76.177 61.0991 79.5386 62.445 82.6702 63.068C84.6559 63.4612 87.9041 63.9442 90.7659 63.7443C90.4628 59.5099 90.1796 55.5753 89.9264 52.0805C86.798 49.865 83.6331 47.7461 80.2782 45.9137C77.4596 44.3712 74.5279 42.952 71.9492 41.1096Z" fill="#E5334C"/>
<path d="M88.4939 89.0577C89.5967 89.2242 91.0826 89.4275 92.5784 89.4308C92.3252 85.8394 92.0754 82.2879 91.8322 78.8164C88.5372 77.1706 85.3023 75.3749 81.8408 74.0056C78.9656 72.8662 76.0238 72.04 73.4219 70.644C73.6451 75.075 73.8816 79.7726 74.1282 84.6133C75.4042 85.3963 76.6468 86.1925 77.8295 86.6656C81.2811 88.0415 84.9058 88.5146 88.4939 89.0577Z" fill="#E5334C"/>
<g opacity="0.4">
<path opacity="0.4" d="M107.68 17.0924C108.849 17.0657 109.929 17.119 110.938 17.2323C108.496 15.6798 105.205 14.6537 100.684 14.7603C92.7678 14.9435 80.6941 20.0908 82.0268 35.416C83.3594 50.7413 90.0225 149.356 90.6889 155.686C91.3552 162.016 88.3567 168.679 82.0268 168.679C81.9102 168.679 81.8002 168.672 81.6836 168.669C83.3094 169.958 85.6648 171.011 89.0231 171.011C95.3531 171.011 98.3515 164.348 97.6852 158.018C97.0188 151.688 90.3557 53.0734 89.0231 37.7481C87.6904 22.4229 99.7641 17.2756 107.68 17.0924Z" fill="#998767"/>
<path opacity="0.4" d="M139.663 28.4196C137.737 22.0896 131.91 4.24905 113.85 0.644287C126.493 6.76439 131.014 20.6571 132.666 26.0875C134.898 33.427 135.295 38.9274 129.765 40.8431C131.19 42.872 133.146 44.1613 135.998 43.4117C142.328 41.7459 141.995 36.0823 139.663 28.4196Z" fill="#998767"/>
</g>
<path opacity="0.4" d="M89.1338 7.31747C84.0332 9.01658 77.1934 17.3155 75.1978 23.7022C73.0323 30.6252 73.1956 39.867 74.305 47.0732C74.5682 48.7956 74.4716 53.4431 77.3267 52.5869C77.1435 45.2974 76.3306 39.4405 76.7004 32.6374C77.0668 25.9043 80.8116 15.9629 86.9183 11.9817C92.0256 8.6501 94.2644 8.86666 95.3572 7.09426C97.7326 3.24629 93.798 5.76496 89.1338 7.31747Z" fill="white"/>
<path opacity="0.4" d="M78.8764 76.1314C78.6798 72.3967 78.29 68.8719 78.18 65.1172C78.1301 63.3748 78.9996 57.1814 77.4704 56.3551L77.4938 56.1353C74.0256 56.2085 76.1845 74.0591 76.331 77.0009C76.3777 77.8971 76.2411 81.9916 78.0868 81.3786C79.1262 81.0321 78.9197 76.9609 78.8764 76.1314Z" fill="white"/>
<path opacity="0.4" d="M123.908 21.1602L123.781 21.534C123.895 21.4439 123.931 21.3137 123.908 21.1602Z" fill="white"/>
<path opacity="0.4" d="M131.112 25.9744C130.163 23.0227 128.557 19.3946 126.505 17.0358C125.355 15.7165 120.644 12.8081 120.455 15.9797C120.375 17.2924 123.743 20.0109 123.909 21.157L124.006 20.8638C126.488 23.3692 126.345 27.487 127.338 30.6353C127.874 32.3311 130.226 40.3235 132.721 36.2424C134.094 34.0035 131.839 28.2233 131.112 25.9744Z" fill="white"/>
</svg>
