<svg width="164" height="277" viewBox="0 0 164 277" fill="none" xmlns="http://www.w3.org/2000/svg">
<path d="M56.9792 240.221C55.6449 242.131 53.2082 242.733 51.5373 241.565C49.8664 240.398 49.5935 237.903 50.9278 235.993L150.24 93.8657C151.574 91.956 154.011 91.3544 155.682 92.522C157.353 93.6895 157.626 96.1845 156.291 98.0941L56.9792 240.221Z" fill="#F7A767"/>
<path d="M156.342 93.1377C156.213 93.446 156.053 93.7514 155.85 94.0417L56.5375 236.169C55.2032 238.079 52.7664 238.68 51.0955 237.513C50.8439 237.337 50.6258 237.127 50.4377 236.895C49.7141 238.631 50.1181 240.574 51.5374 241.566C53.2083 242.734 55.6449 242.132 56.9793 240.222L156.291 98.0949C157.425 96.4724 157.397 94.4315 156.342 93.1377Z" fill="#D38A59"/>
<path d="M133.369 118.067L132.355 120.191L135.494 127.804L138.675 123.253L133.369 118.067Z" fill="#A06A45"/>
<path d="M121.418 134.91L117.435 141.118L121.012 148.764L126.277 140.734L121.418 134.91Z" fill="#A06A45"/>
<path d="M167.95 128.759C191.654 124.556 207.463 101.932 203.259 78.2283C199.056 54.5244 176.432 38.7162 152.728 42.9197C129.024 47.1232 113.216 69.7466 117.42 93.4505C121.623 117.154 144.247 132.963 167.95 128.759Z" fill="#F97673"/>
<path opacity="0.7" d="M203.379 78.8842C202.275 84.7998 199.925 90.5801 196.256 95.8315C182.468 115.563 155.292 120.385 135.561 106.598C125.5 99.5675 119.318 89.0547 117.501 77.8241C114.461 94.1295 120.91 111.454 135.39 121.572C155.122 135.359 182.299 130.543 196.089 110.808C202.843 101.135 205.126 89.6777 203.379 78.8842Z" fill="#DD6868"/>
<path d="M130.384 130.008C125.337 124.878 121.459 118.068 114.739 114.852C111.617 113.356 108.17 113.535 105.798 116.27C103.371 119.063 102.439 122.967 104.328 126.289C108.267 133.218 117.561 132.915 124.413 133.353C128.797 133.633 133.122 135.022 137.299 136.313C141.203 137.52 145.381 140.204 146.902 144.176C148.403 148.095 143.072 150.098 140.237 148.405C138.824 147.561 137.899 145.945 136.983 144.638C135.875 143.057 134.972 141.346 134.168 139.598C132.816 136.676 131.786 133.69 130.024 130.971C128.706 128.941 125.837 131.363 127.136 133.365C129.041 136.3 130.008 139.759 131.585 142.868C133.266 146.179 135.571 150.334 139.059 152.008C143.803 154.281 149.998 151.611 150.817 146.249C151.319 142.961 149.056 139.824 146.834 137.686C143.222 134.212 138.975 132.89 134.276 131.57C130.364 130.469 126.571 129.653 122.507 129.52C118.612 129.391 114.711 129.196 111.132 127.51C108.507 126.272 106.315 123.837 107.359 120.832C108.483 117.594 111.012 117.005 113.792 118.563C119.545 121.791 122.99 127.818 127.506 132.404C129.182 134.113 132.08 131.731 130.384 130.008Z" fill="#C6B68D"/>
<path d="M131.457 128.469C126.41 123.339 122.532 116.529 115.812 113.312C112.69 111.817 109.242 111.996 106.87 114.731C104.444 117.524 103.511 121.428 105.4 124.75C109.339 131.679 118.634 131.376 125.485 131.814C129.87 132.094 134.194 133.483 138.371 134.774C142.276 135.981 146.454 138.665 147.975 142.637C149.475 146.556 144.144 148.559 141.309 146.866C139.896 146.022 138.971 144.406 138.055 143.099C136.947 141.518 136.045 139.807 135.24 138.059C133.888 135.137 132.859 132.151 131.096 129.432C129.778 127.402 126.91 129.824 128.209 131.826C130.114 134.76 131.08 138.22 132.658 141.329C134.338 144.64 136.644 148.795 140.131 150.468C144.875 152.741 151.071 150.072 151.889 144.71C152.391 141.422 150.128 138.285 147.906 136.147C144.295 132.672 140.047 131.351 135.348 130.031C131.437 128.93 127.644 128.114 123.579 127.981C119.684 127.852 115.784 127.656 112.204 125.971C109.579 124.733 107.387 122.298 108.431 119.293C109.555 116.055 112.085 115.466 114.865 117.024C120.617 120.252 124.063 126.279 128.578 130.864C130.254 132.574 133.152 130.192 131.457 128.469Z" fill="#E5BFA1"/>
<path d="M102.54 158.726C105.46 153.277 109.103 148.338 113.848 144.343C118.397 140.513 123.809 137.933 129.446 136.14C128.596 135.364 127.746 134.587 126.893 133.809C125.648 136.635 125.639 139.644 125.811 142.674C126.017 146.303 126.377 149.848 125.887 153.475C125.508 156.278 124.386 159.066 123.33 161.669C122.158 164.556 120.768 167.507 118.697 169.867C117.106 171.683 120.193 173.812 121.771 172.015C125.664 167.577 128.091 160.978 129.339 155.282C130.106 151.766 129.959 148.184 129.695 144.619C129.455 141.389 129.089 138.114 130.431 135.067C131.162 133.402 129.253 132.3 127.878 132.736C122.079 134.583 116.65 137.304 111.882 141.111C106.665 145.272 102.603 150.729 99.4694 156.58C98.3392 158.685 101.401 160.858 102.54 158.726Z" fill="#C6B68D"/>
<path d="M100.829 157.685C103.749 152.236 107.392 147.297 112.137 143.301C116.686 139.471 122.098 136.892 127.735 135.098C126.885 134.322 126.035 133.546 125.182 132.767C123.937 135.594 123.928 138.602 124.1 141.632C124.306 145.261 124.666 148.806 124.176 152.434C123.797 155.237 122.675 158.024 121.619 160.628C120.447 163.515 119.057 166.466 116.986 168.825C115.395 170.642 118.482 172.771 120.06 170.973C123.953 166.536 126.38 159.936 127.628 154.241C128.395 150.725 128.248 147.142 127.984 143.577C127.744 140.347 127.378 137.072 128.72 134.025C129.451 132.361 127.543 131.258 126.167 131.694C120.368 133.542 114.939 136.263 110.171 140.07C104.954 144.23 100.892 149.687 97.7584 155.539C96.6283 157.644 99.6888 159.811 100.829 157.685Z" fill="#E5BFA1"/>
<path d="M135.185 130.952C134.307 129.728 132.997 128.923 131.753 128.059C130.631 127.28 130.106 126.279 128.866 125.897C126.894 124.721 123.038 128.081 122.027 129.535C121.096 130.881 121.223 134.08 122.108 135.506C124.394 139.181 129.875 141.807 133.433 138.536C135.537 136.603 137.092 133.609 135.185 130.952Z" fill="#C6B68D"/>
<path d="M134.113 128.985C133.234 127.762 131.925 126.957 130.681 126.093C129.559 125.314 129.034 124.313 127.793 123.931C125.821 122.755 121.966 126.115 120.955 127.568C120.024 128.915 120.15 132.114 121.036 133.54C123.321 137.215 128.803 139.84 132.36 136.57C134.465 134.637 136.023 131.645 134.113 128.985Z" fill="#E5BFA1"/>
<path opacity="0.4" d="M130.908 126.405C128.202 124.437 125.307 123.956 123.492 125.462C121.794 126.868 121.252 129.897 124.609 132.066C126.936 133.572 131.244 133.481 132.604 132.18C133.639 131.194 131.842 126.304 130.485 126.638L130.908 126.405Z" fill="white"/>
<path opacity="0.4" d="M112.535 112.303C111.552 112.466 110.749 112.323 109.794 112.673C108.677 113.083 108.055 113.767 107.287 114.584C106.572 115.347 105.834 116.142 105.588 117.175C105.415 117.889 105.196 119.426 105.814 119.935C106.538 119.572 106.741 118.787 107.179 118.167C107.698 117.439 108.493 116.713 109.159 116.117C110.571 114.852 112.431 115.014 114.033 115.889C115.842 116.879 117.42 118.784 119.487 119.22C120.344 119.401 121.197 119.177 121.046 118.13C120.934 117.355 120.097 116.828 119.521 116.382C118.582 115.65 113.398 111.596 112.584 112.562L112.535 112.303Z" fill="white"/>
<path d="M172.063 50.177C168.871 49.1803 164.662 48.6154 161.247 48.0538C156.552 47.284 152.068 48.0679 147.843 50.1228C138.078 54.8783 126.749 64.5231 134.845 75.6913C138.073 80.1407 142.406 83.2071 148.062 83.213C152.821 83.2168 156.514 80.0216 160.98 78.8028C168.265 76.8073 179.752 78.8905 182.133 69.801C183.257 65.5069 183.69 62.392 181.461 58.3476C180.032 55.7553 176.013 51.0648 172.828 50.7167L172.061 50.1802L172.063 50.177Z" fill="#F98F80"/>
<path opacity="0.4" d="M138.784 146.086C139.432 147.557 141.543 148.336 143.103 148.418C144.164 148.473 144.894 148.094 145.835 147.902C146.803 147.705 146.971 148.159 146.703 149.195C146.322 150.681 144.169 151.606 142.695 151.455C141.339 151.314 139.78 150.095 138.536 149.547C136.793 148.785 134.165 145.888 134.312 143.768C134.525 140.701 138.658 144.597 138.806 146.02C138.694 146.105 138.769 145.956 138.68 145.898L138.784 146.086Z" fill="white"/>
<path d="M151.792 61.5464C150.713 57.9508 147.132 54.3921 144.848 57.6598C142.565 60.9274 144.972 70.1316 144.972 70.1316C144.972 70.1316 154.768 68.9258 156.231 66.2472C157.698 63.5708 151.792 61.5464 151.792 61.5464Z" fill="#E5BFA1"/>
<path d="M150.733 60.1206C149.655 56.525 146.073 52.9663 143.79 56.234C141.507 59.5016 144.657 68.376 144.657 68.376C144.657 68.376 153.709 67.5 155.173 64.8214C156.636 62.1428 150.733 60.1206 150.733 60.1206Z" fill="white"/>
<path d="M128.479 72.2565C129.594 69.877 129.569 66.4508 127.08 67.2227C124.595 67.9969 122.057 74.082 122.057 74.082C122.057 74.082 126.531 77.4627 128.386 76.6561C130.243 75.8464 128.479 72.2565 128.479 72.2565Z" fill="#E5BFA1"/>
<path d="M128.862 71.3771C129.977 68.9976 129.952 65.5714 127.463 66.3433C124.978 67.1175 122.44 73.2026 122.44 73.2026C122.44 73.2026 126.914 76.5833 128.769 75.7767C130.624 74.9702 128.862 71.3771 128.862 71.3771Z" fill="white"/>
<path d="M167.388 94.3139C168.411 91.3178 167.627 87.0878 164.364 88.1638C161.102 89.2397 158.925 96.8829 158.925 96.8829C158.925 96.8829 165.89 100.958 168.22 99.7534C172.639 97.4691 167.388 94.3139 167.388 94.3139Z" fill="#E5BFA1"/>
<path d="M168.652 93.8261C169.675 90.83 168.89 86.6 165.628 87.676C162.365 88.7519 160.188 96.3952 160.188 96.3952C160.188 96.3952 167.154 100.47 169.483 99.2656C173.904 96.9782 168.652 93.8261 168.652 93.8261Z" fill="white"/>
<path d="M156.746 47.6292C159.465 46.644 162.185 44.2625 159.759 43.3306C157.333 42.3987 150.614 45.102 150.614 45.102C150.614 45.102 151.101 50.1562 153.154 50.6116C157.052 51.4775 156.746 47.6292 156.746 47.6292Z" fill="#E5BFA1"/>
<path d="M156.711 46.6912C159.43 45.706 162.15 43.3245 159.724 42.3926C157.298 41.4607 150.579 44.164 150.579 44.164C150.579 44.164 151.066 49.2182 153.119 49.6737C157.015 50.5428 156.711 46.6912 156.711 46.6912Z" fill="white"/>
<path d="M146.462 53.1038C147.367 53.6978 148.445 53.99 149.503 54.1584C150.695 54.3482 150.844 52.4792 149.655 52.2916C148.934 52.1765 148.152 51.976 147.535 51.5684C146.53 50.9044 145.453 52.4376 146.462 53.1038Z" fill="#65EAE0"/>
<path d="M158.713 64.5296C158.852 65.3132 158.989 66.1 159.104 66.8907C159.163 67.2872 159.213 67.6824 159.253 68.085C159.267 68.2294 159.276 68.3071 159.274 68.4119C159.275 68.4654 159.274 68.5221 159.27 68.5766C159.261 68.7958 159.342 68.4111 159.277 68.5385C159.048 68.9975 159.411 69.583 159.848 69.7345C160.376 69.9207 160.817 69.6192 161.044 69.1635C161.355 68.5458 161.078 67.5212 160.995 66.8775C160.872 65.9808 160.717 65.0898 160.56 64.2021C160.346 63.0108 158.502 63.3405 158.713 64.5296Z" fill="#65EAE0"/>
<path d="M163.618 79.3438C163.204 80.7059 162.685 82.0384 162.178 83.369C161.748 84.4993 163.515 85.1242 163.945 83.9939C164.452 82.6634 164.971 81.3308 165.385 79.9687C165.735 78.8214 163.972 78.1845 163.618 79.3438Z" fill="#65EAE0"/>
<path d="M138.375 51.1915C139.259 50.546 140.354 49.9335 141.477 49.9264C142.674 49.9177 142.843 48.0481 141.63 48.0597C139.979 48.0727 138.492 48.7912 137.179 49.7504C136.203 50.4605 137.407 51.8973 138.375 51.1915Z" fill="#65EAE0"/>
<path d="M129.789 60.167C130.891 61.4608 131.821 62.8926 132.927 64.1887C133.712 65.1119 135.155 63.9121 134.371 62.9943C133.268 61.7006 132.339 60.2687 131.233 58.9727C130.448 58.0494 129.007 59.246 129.789 60.167Z" fill="#65EAE0"/>
<path d="M144.334 79.9352C145.458 81.1629 146.828 81.7452 148.483 81.8022C149.686 81.846 149.846 79.9751 148.635 79.9355C147.488 79.8929 146.567 79.6042 145.778 78.7409C144.964 77.8508 143.52 79.0452 144.334 79.9352Z" fill="#65EAE0"/>
</svg>
