<svg width="194" height="13" viewBox="0 0 194 13" fill="none" xmlns="http://www.w3.org/2000/svg">
<path d="M0 12.3203L0.705182 12.2705C1.16977 12.2207 1.39377 12.146 1.44355 11.698L2.08236 1.5849C2.13214 1.1369 1.82518 1.05394 1.36059 1.01246L0.638812 0.962682V0.581055H4.2062L7.79019 8.16383L11.3742 0.581055H14.7839V0.962682L14.0622 1.01246C13.5644 1.06224 13.274 1.1369 13.3238 1.5849L13.9626 11.698C14.0124 12.146 14.2032 12.229 14.701 12.2705L15.4227 12.3203V12.7019H10.9096V12.3203L11.6148 12.2705C12.1125 12.2207 12.3946 12.146 12.3531 11.698L11.7143 1.25305L7.26752 10.6527H7.16797L2.70458 1.26135L2.06577 11.698C2.01599 12.146 2.30636 12.229 2.77095 12.2705L3.50932 12.3203V12.7019H0.00829645V12.3203H0Z" fill="#262626"/>
<path d="M17.2578 12.3203L17.9796 12.2705C18.4442 12.2207 18.7014 12.146 18.7014 11.698V1.5849C18.7014 1.1369 18.4442 1.05394 17.9796 1.01246L17.2578 0.962682V0.581055H21.8539C24.7493 0.581055 26.8815 1.20327 26.8815 3.54282C26.8815 5.33481 25.5375 6.28058 23.3473 6.55436L28.9472 12.7185H26.8732L21.4806 6.75347H20.3108V11.7146C20.3108 12.1626 20.5514 12.2456 21.0492 12.2871L21.771 12.3369V12.7185H17.2578V12.3203ZM21.7212 6.2391C23.7704 6.2391 25.0646 5.55051 25.0646 3.65067C25.0646 1.75912 23.7704 1.07883 21.7212 1.07883H20.3108V6.2474H21.7212V6.2391Z" fill="#262626"/>
<path d="M29.8691 12.3203L30.5909 12.2705C31.0555 12.2207 31.3127 12.146 31.3127 11.698V1.5849C31.3127 1.1369 31.0555 1.05394 30.5909 1.01246L29.8691 0.962682V0.581055H34.3823V0.962682L33.6605 1.01246C33.1628 1.06224 32.9222 1.1369 32.9222 1.5849V11.698C32.9222 12.146 33.1628 12.229 33.6605 12.2705L34.3823 12.3203V12.7019H29.8691V12.3203Z" fill="#262626"/>
<path d="M39.3231 12.3037L40.2855 12.2539C40.7501 12.2373 41.0073 12.1377 41.0073 11.6897V7.22635L37.0417 1.54341C36.7845 1.16178 36.6932 1.04564 36.2286 0.995859L35.5234 0.94608V0.564453H40.161V0.94608L39.3646 0.995859C38.8668 1.04564 38.5848 1.17008 38.8336 1.54341L42.3679 6.61243L45.9187 1.54341C46.1924 1.16178 45.8855 1.04564 45.3877 0.995859L44.5912 0.94608V0.564453H48.1089V0.94608L47.4037 0.995859C46.9391 1.04564 46.8395 1.17008 46.5906 1.54341L42.625 7.22635V11.6897C42.625 12.1377 42.8656 12.2041 43.3634 12.2539L44.3258 12.3037V12.7019H39.3314V12.3037H39.3231Z" fill="#262626"/>
<path d="M57.9988 11.7309C58.173 12.1291 58.3389 12.2287 58.8284 12.2785L59.5336 12.3282V12.7099H54.9126V12.3282L55.709 12.2785C56.2234 12.2287 56.4142 12.1374 56.24 11.7309L54.8628 8.24648H50.333L48.9559 11.7309C48.7816 12.1291 48.9724 12.2287 49.4868 12.2785L50.2833 12.3282V12.7099H46.7988V12.3282L47.504 12.2785C47.9686 12.2287 48.1428 12.1374 48.317 11.7309L53.0376 0H53.2948L57.9988 11.7309ZM54.6222 7.59937L52.6062 2.48058L50.5902 7.59937H54.6222Z" fill="#262626"/>
<path d="M64.082 12.3203L64.8038 12.2705C65.2684 12.2207 65.5256 12.146 65.5256 11.698V1.5849C65.5256 1.1369 65.2684 1.05394 64.8038 1.01246L64.082 0.962682V0.581055H68.6782C71.5735 0.581055 73.7057 1.20327 73.7057 3.54282C73.7057 5.33481 72.3617 6.28058 70.1715 6.55436L75.7715 12.7185H73.7057L68.3131 6.75347H67.1433V11.7146C67.1433 12.1626 67.3839 12.2456 67.8817 12.2871L68.6035 12.3369V12.7185H64.0903V12.3203H64.082ZM68.5454 6.2391C70.5946 6.2391 71.8888 5.55051 71.8888 3.65067C71.8888 1.75912 70.5946 1.07883 68.5454 1.07883H67.1351V6.2474H68.5454V6.2391Z" fill="#262626"/>
<path d="M76.6875 12.3203L77.4093 12.2705C77.8739 12.2207 78.131 12.146 78.131 11.698V1.5849C78.131 1.1369 77.8739 1.05394 77.4093 1.01246L76.6875 0.962682V0.581055H85.5977L86.1286 4.13185H85.8383L84.2039 1.34431C84.0795 1.10372 84.0131 1.08713 83.7393 1.08713H79.7405V6.09807H82.1381C82.4119 6.09807 82.4451 6.06488 82.4866 5.89066L83.1254 3.99911H83.4158V8.75287H83.1254L82.4866 6.87791C82.4202 6.70369 82.4036 6.67051 82.1381 6.67051H79.7405V12.1875H84.5275C84.7846 12.1875 84.8344 12.1543 84.9755 11.9635L87.1657 9.11791H87.456L86.3692 12.7019H76.6875V12.3203Z" fill="#262626"/>
<path d="M89.7571 12.4777L89.3921 8.81078H89.6824L91.0596 11.6398C91.2006 11.9136 91.4081 12.1044 91.6818 12.2122C91.9888 12.3284 92.304 12.3699 92.8848 12.3699C94.5523 12.3699 95.9544 11.5403 95.9544 10.1133C95.9544 8.57849 94.8178 7.85671 93.1254 7.30916L92.2791 7.03538C90.4042 6.44635 89.334 5.29317 89.334 3.50118C89.334 1.452 91.3832 0.282227 93.5236 0.282227C94.544 0.282227 95.4566 0.406671 96.2448 0.713632L96.8172 3.97406H96.5268L94.9754 1.42711C94.7348 1.02889 94.5606 0.962521 94.2371 0.879558C93.9301 0.813188 93.6646 0.796594 93.2913 0.796594C91.9971 0.796594 90.7277 1.59304 90.7277 2.95362C90.7277 4.04043 91.3334 4.84517 92.7272 5.29317L93.5734 5.56694C95.8134 6.30531 97.3979 7.23449 97.3979 9.40811C97.3979 11.5071 95.3488 12.8677 92.8516 12.8677C91.632 12.8925 90.6531 12.7847 89.7571 12.4777Z" fill="#262626"/>
<path d="M99.4395 6.61228C99.4395 2.82089 102.302 0.307129 105.828 0.307129C109.345 0.307129 112.216 2.82089 112.216 6.61228C112.216 10.3871 109.353 12.9008 105.828 12.9008C102.31 12.8925 99.4395 10.3871 99.4395 6.61228ZM110.357 6.61228C110.357 2.91215 108.424 0.838089 105.828 0.838089C103.223 0.838089 101.281 2.92045 101.281 6.61228C101.281 10.2792 103.214 12.3699 105.828 12.3699C108.416 12.3699 110.357 10.2709 110.357 6.61228Z" fill="#262626"/>
<path d="M114.113 12.3203L114.835 12.2705C115.3 12.2207 115.557 12.146 115.557 11.698V1.5849C115.557 1.1369 115.3 1.05394 114.835 1.01246L114.113 0.962682V0.581055H118.709C121.605 0.581055 123.737 1.20327 123.737 3.54282C123.737 5.33481 122.393 6.28058 120.203 6.55436L125.803 12.7185H123.737L118.344 6.75347H117.175V11.7146C117.175 12.1626 117.415 12.2456 117.913 12.2871L118.635 12.3369V12.7185H114.122V12.3203H114.113ZM118.577 6.2391C120.626 6.2391 121.92 5.55051 121.92 3.65067C121.92 1.75912 120.626 1.07883 118.577 1.07883H117.166V6.2474H118.577V6.2391Z" fill="#262626"/>
<path d="M129.239 12.3037L130.202 12.2539C130.666 12.2373 130.924 12.1377 130.924 11.6897V1.03735H128.136C127.862 1.03735 127.788 1.05394 127.671 1.29453L126.261 4.32267H125.971L126.352 0.581055H137.088L137.486 4.32267H137.196L135.769 1.29453C135.652 1.05394 135.578 1.03735 135.321 1.03735H132.533V11.6897C132.533 12.1377 132.757 12.2041 133.255 12.2539L134.217 12.3037V12.7019H129.223V12.3037H129.239Z" fill="#262626"/>
<path d="M142.795 9.40812C142.795 7.53317 144.396 6.41317 146.263 5.72458C145.176 4.76222 144.595 3.86622 144.595 2.91215C144.595 1.44372 146.055 0.307129 147.922 0.307129C149.648 0.307129 150.917 1.09527 150.917 2.44756C150.917 3.89111 149.449 4.70414 147.864 5.25999C149.017 6.22236 150.278 7.45021 151.564 8.77761L153.232 5.88221C153.539 5.35125 153.406 5.06918 152.85 5.05259L152.037 5.03599V4.67096H155.638V5.03599L154.932 5.05259C154.435 5.06918 154.194 5.29318 153.937 5.72458L151.904 9.15094C152.56 9.85612 153.198 10.5779 153.779 11.2831C154.277 11.9053 154.625 12.262 155.057 12.3035L155.696 12.3533V12.7017H152.908C152.377 12.0463 151.738 11.2914 151.033 10.4783C149.897 11.9634 148.553 12.8926 146.761 12.8926C144.189 12.8926 142.795 11.1172 142.795 9.40812ZM147.416 12.0629C148.826 12.0629 149.847 11.3411 150.726 10.1299C149.399 8.66146 147.914 7.11836 146.487 5.9071C145.018 6.54592 144.388 7.58295 144.388 8.8025C144.396 10.6111 145.657 12.0629 147.416 12.0629ZM147.64 5.06918C149.05 4.53822 149.755 3.70859 149.755 2.53882C149.755 1.31927 149.001 0.697051 147.914 0.697051C146.711 0.697051 145.997 1.35246 145.997 2.38119C145.997 3.40993 146.636 4.18978 147.64 5.06918Z" fill="#262626"/>
<path d="M161.659 12.4777L161.294 8.81078H161.585L162.962 11.6398C163.103 11.9136 163.31 12.1044 163.584 12.2122C163.891 12.3284 164.206 12.3699 164.787 12.3699C166.455 12.3699 167.857 11.5403 167.857 10.1133C167.857 8.57849 166.72 7.85671 165.028 7.30916L164.182 7.03538C162.307 6.44635 161.236 5.29317 161.236 3.50118C161.236 1.452 163.286 0.282227 165.426 0.282227C166.446 0.282227 167.359 0.406671 168.147 0.713632L168.72 3.97406H168.429L166.878 1.42711C166.637 1.02889 166.463 0.962521 166.139 0.879558C165.832 0.813188 165.567 0.796594 165.194 0.796594C163.899 0.796594 162.63 1.59304 162.63 2.95362C162.63 4.04043 163.236 4.84517 164.629 5.29317L165.476 5.56694C167.716 6.30531 169.3 7.23449 169.3 9.40811C169.3 11.5071 167.251 12.8677 164.754 12.8677C163.534 12.8925 162.555 12.7847 161.659 12.4777Z" fill="#262626"/>
<path d="M171.451 12.3203L172.173 12.2705C172.638 12.2207 172.895 12.146 172.895 11.698V1.5849C172.895 1.1369 172.638 1.05394 172.173 1.01246L171.451 0.962682V0.581055H176.504C179.316 0.581055 181.606 1.17009 181.606 3.8C181.606 6.40503 179.316 7.11021 176.504 7.11021H174.902V6.59584H176.363C178.52 6.59584 179.805 5.94044 179.805 3.84148C179.805 1.77572 178.528 1.07053 176.363 1.07053H174.504V11.698C174.504 12.146 174.745 12.2456 175.243 12.2539L176.62 12.2871V12.7019H171.451V12.3203Z" fill="#262626"/>
<path d="M192.466 11.7309C192.64 12.1291 192.806 12.2287 193.295 12.2785L194 12.3282V12.7099H189.379V12.3282L190.176 12.2785C190.69 12.2287 190.881 12.1374 190.707 11.7309L189.33 8.24648H184.8L183.423 11.7309C183.248 12.1291 183.439 12.2287 183.954 12.2785L184.75 12.3282V12.7099H181.266V12.3282L181.971 12.2785C182.435 12.2287 182.61 12.1374 182.784 11.7309L187.504 0H187.762L192.466 11.7309ZM189.089 7.59937L187.073 2.48058L185.057 7.59937H189.089Z" fill="#262626"/>
</svg>
