<svg width="1440" height="492" viewBox="0 0 1440 492" fill="none" xmlns="http://www.w3.org/2000/svg">
<path fill-rule="evenodd" clip-rule="evenodd" d="M1660.84 253.659C1653.78 417.338 1455.67 105.336 1385.07 269.484C1292.45 484.845 1358.48 97.9299 1170.44 289.117C992.771 469.755 971.08 294.192 693.54 289.125C426.259 284.244 430.846 272.687 241.277 157.631C36.6867 784.78 -23.76 370.221 23.961 179.566C74.558 -22.5779 -457.874 444.924 -308.466 257.357C-188.006 106.131 -175.623 109.049 35.7445 26.0193C261.484 -62.6561 425.73 112.065 660.358 118.884C859.975 124.685 1115.43 6.00094 1307.1 31.8212C1514.59 59.7719 1667.68 95.1881 1660.84 253.659Z" fill="#FF8EA9"/>
</svg>
