<svg width="2044" height="202" viewBox="0 0 2044 202" fill="none" xmlns="http://www.w3.org/2000/svg">
<path fill-rule="evenodd" clip-rule="evenodd" d="M2043 201.981C2031 201.981 1828.5 201.981 1748 201.981C1748 201.981 1627.5 201.981 1517 201.981C1406.5 201.981 1447 201.981 1072.5 201.981C698 201.981 864.174 201.981 642.338 201.981C420.502 201.981 299.002 201.981 299.002 201.981C299.002 201.981 410.167 201.981 107.503 201.981C-195.162 201.981 220.035 109.03 431.403 26.0002C657.143 -62.6752 821.388 112.046 1056.02 118.865C1255.63 124.666 1511.09 5.98188 1702.76 31.8021C1910.25 59.7528 2055 201.981 2043 201.981Z" fill="#FF8EA9"/>
</svg>
