<svg width="328" height="344" viewBox="0 0 328 344" fill="none" xmlns="http://www.w3.org/2000/svg">
<path d="M131.053 184.804L30.1289 162.603C30.1289 162.603 22.8387 157.45 25.2238 149.331C27.609 141.212 33.5883 140.647 33.5883 140.647L134.394 165.229L131.053 184.804Z" fill="#EF9C56"/>
<path d="M24.9 154.955C26.3889 158.77 29.5095 162.857 29.5095 162.857L130.434 185.057L131.58 178.354L24.9 154.955Z" fill="#E08F4C"/>
<path d="M50.412 167.154C46.1639 161.987 42.5959 155.693 40.5739 149.528C39.9523 147.633 39.7257 144.079 38.3657 141.969L33.5937 140.806C31.639 142.212 31.6782 146.035 31.7832 148.25C32.0704 154.394 34.3743 159.786 37.8766 164.394L50.412 167.154Z" fill="#E5334C"/>
<path d="M121.645 166.109C121.256 164.973 120.67 163.328 119.851 161.835L112.059 159.932C110.196 162.484 110.218 167.182 110.863 169.659C111.85 173.452 115.92 177.899 117.426 181.887L128.056 184.226L128.212 183.328C127.274 181.32 126.175 179.396 125.26 177.47C123.531 173.832 122.946 169.942 121.645 166.109Z" fill="#E5334C"/>
<path d="M67.6554 162.12C66.7753 160.135 65.3911 153.586 63.3401 148.06L53.1825 145.584C53.6564 152.051 58.4884 161.721 59.639 164.455C60.0109 165.337 61.1676 167.476 62.005 169.703L73.539 172.24C71.2683 169.168 69.3104 165.849 67.6554 162.12Z" fill="#E5334C"/>
<path d="M80.4114 152.224C80.6963 159.721 86.8289 173.144 88.1237 175.371C88.1439 175.402 88.1641 175.433 88.1843 175.464L102.853 178.689C100.072 175.32 97.7056 171.542 95.7203 168.078C93.6409 164.447 91.4259 160.8 89.9737 156.814C89.7495 156.205 89.5186 155.336 89.2406 154.371L80.4114 152.224Z" fill="#E5334C"/>
<path opacity="0.4" d="M132.226 169.455L131.326 173.163L25.677 147.797L27.6077 144.677L132.226 169.455Z" fill="white"/>
<path d="M126.585 166.3L46.0026 101.603C46.0026 101.603 41.7587 93.7528 47.4996 87.5296C53.2352 81.3097 58.8539 83.4608 58.8539 83.4608L138.276 150.231L126.585 166.3Z" fill="#EF9C56"/>
<path d="M44.7078 92.4328C44.3482 96.5068 45.3306 101.558 45.3306 101.558L125.913 166.254L129.913 160.753L44.7078 92.4328Z" fill="#E08F4C"/>
<path d="M62.1542 114.688C60.6372 108.173 60.2404 100.948 61.1639 94.5287C61.4461 92.5583 62.8253 89.2715 62.5435 86.7727L58.7847 83.6161C56.41 84.0096 54.7468 87.4509 53.8551 89.4837C51.3823 95.1189 51.056 100.966 52.1488 106.655L62.1542 114.688Z" fill="#E5334C"/>
<path d="M126.448 145.373C126.605 144.178 126.808 142.451 126.738 140.746L120.596 135.587C117.796 137.046 115.729 141.267 115.206 143.777C114.404 147.613 116.083 153.409 115.661 157.65L124.147 164.466L124.687 163.725C124.738 161.512 124.606 159.301 124.641 157.166C124.709 153.133 125.914 149.383 126.448 145.373Z" fill="#E5334C"/>
<path d="M79.842 117.832C79.9342 115.66 81.6014 109.18 82.2185 103.314L74.2164 96.5836C71.7679 102.587 71.8064 113.398 71.6213 116.362C71.5606 117.317 71.6455 119.752 71.4098 122.113L80.6188 129.509C79.9511 125.754 79.6698 121.91 79.842 117.832Z" fill="#E5334C"/>
<path d="M95.6696 114.625C92.598 121.468 92.1341 136.224 92.3066 138.794C92.3079 138.83 92.3126 138.871 92.319 138.904L104.031 148.306C103.035 144.054 102.589 139.615 102.346 135.636C102.094 131.463 101.731 127.208 102.197 122.991C102.268 122.347 102.442 121.465 102.622 120.477L95.6696 114.625Z" fill="#E5334C"/>
<path opacity="0.4" d="M134.448 153.066L131.995 155.984L48.5781 86.3653L51.6954 84.427L134.448 153.066Z" fill="white"/>
<path d="M245.442 98.9897C232.902 82.974 208.028 74.3727 188.049 74.9801C176.35 75.3354 152.15 70.7734 123.412 78.9316C131.118 82.0799 132.766 91.6485 131.842 99.0803C128.658 124.655 105.441 144.482 94.7964 167.045C83.7678 190.419 96.3136 213.581 115.171 226.567L122.741 227.728C128.382 238.27 152.151 237.733 162.293 235.27C187.293 229.209 213.565 209.618 231.521 191.943C257.751 166.13 268.746 128.759 245.442 98.9897Z" fill="#FFC7AE"/>
<path d="M188.052 74.986C183.328 75.1285 176.56 74.4756 168.282 74.1725C171.405 75.3776 174.644 76.5809 177.237 77.8926C184.121 81.3809 191.452 84.373 197.651 89.1987C209.198 98.1976 223.8 118.41 213.696 133.155C206.806 113.25 197.822 98.3215 174.11 98.1267C195.585 110.695 185.727 139.353 172.403 153.642C172.145 148.307 171.782 141.909 168.646 137.41C165.62 133.07 157.518 128.044 152.251 131.087C160.615 134.192 159.021 145.551 156.452 151.722C152.807 160.473 148.164 168.482 142.499 175.963C132.066 189.732 116.319 193.234 101.141 199.883C98.9704 200.832 96.8757 202.033 94.9746 203.42C99.3107 212.622 106.596 220.652 115.188 226.571L122.758 227.732C128.398 238.275 152.168 237.738 162.31 235.274C187.309 229.213 213.582 209.622 231.537 191.947C257.765 166.129 268.759 128.758 245.455 98.9889C232.901 82.9748 208.022 74.3767 188.052 74.986Z" fill="#DDB6A2"/>
<path d="M259.326 120.812C256.4 117.573 253.023 120.706 251.76 123.933C250.052 128.297 250.58 136.272 243.588 135.114C239.571 134.444 234.574 129.113 230.823 132.969C226.526 137.385 232.068 146.566 224.662 149.274C221.593 150.397 218.493 149.614 215.669 148.186C213.691 147.185 212.284 145.925 210.518 147.623C208.752 149.321 208.507 152.021 208.48 154.306C208.426 158.189 207.305 160.769 203.667 162.69C200.706 164.254 198.034 164.405 194.983 163.493C192.775 162.833 190.779 161.496 188.472 162.415C182.664 164.715 185.788 172.013 182.335 175.941C180.155 178.425 177.085 179.911 173.776 179.012C171.624 178.426 170.52 176.527 168.07 176.895C165.606 177.265 162.977 179.559 161.844 181.63C160.29 184.476 161.278 188.601 158.891 191.13C154.979 195.274 150.582 190.847 146.399 191.629C144.125 192.053 141.192 194.219 140.294 196.345C139.334 198.636 140.967 200.895 139.683 203.189C138.709 204.935 136.041 206.723 133.981 206.507C132.104 206.312 130.434 204.498 128.44 204.534C121.978 204.65 122.712 212.522 120.084 216.138C118.627 218.131 117.605 218.468 115.36 218.378C113.342 218.297 111.613 217.999 110.233 219.735C108.321 222.141 109.099 224.311 112.428 227.546C121.507 235.448 192.297 296.922 201.175 299.68C210.663 302.627 250.878 275.813 250.878 275.813C250.878 275.813 291.787 250.07 292.976 240.207C294.165 230.344 263.045 128.514 263.045 128.514C263.045 128.514 260.863 122.512 259.326 120.812Z" fill="#EF9C56"/>
<path d="M209.573 298.466C205.605 294.337 199.49 291.111 195.245 287.819C188.902 282.909 182.842 277.284 177.032 271.77C164.267 259.66 151.478 247.684 138.931 235.101C135.384 231.541 125.909 224.634 119.183 217.092C118.03 218.378 117.002 218.616 115.096 218.536C113.994 218.489 112.981 218.384 112.057 218.577C116.093 221.9 121.98 224.225 125.404 227.333C131.863 233.187 138.365 239.426 144.978 245.336C161.053 259.704 176.985 273.374 192.555 288.262C194.903 290.508 199.936 296.407 204.79 299.725C206.182 299.481 207.842 299.078 209.573 298.466Z" fill="#FCB06B"/>
<path d="M209.502 283.702C203.172 277.181 197.653 269.802 191.367 263.201C179.799 251.046 169.415 237.719 157.919 225.629C152.406 219.834 146.87 213.796 141.672 207.745C140.828 206.763 139.794 205.623 138.688 204.36C137.442 205.721 135.38 206.858 133.722 206.683C133.175 206.624 132.648 206.426 132.121 206.184C132.456 206.713 132.768 207.205 133.058 207.63C139.118 216.505 147.271 223.434 154.949 231.091C167.233 243.335 178.5 255.847 189.977 268.511C198.345 277.745 206.153 287.608 214.713 296.444C215.986 295.877 217.322 295.271 218.658 294.619C215.621 290.16 211.394 285.653 209.502 283.702Z" fill="#FCB06B"/>
<path d="M224.52 275.096C219.542 269.464 214.541 263.684 209.675 257.449C199.315 244.172 188.46 230.403 177.929 217.238C172.825 210.853 168.468 203.467 163.72 196.867C162.33 194.938 160.664 192.959 158.957 190.918C158.857 191.049 158.749 191.178 158.632 191.306C156.918 193.118 155.11 193.292 153.273 192.976C156.09 197.392 158.836 201.848 162.055 205.893C175.223 222.433 189.077 239.052 202.932 255.147C209.456 262.732 215.569 270.892 221.776 278.727C223.919 281.431 226.45 285.464 229.228 289.079C230.874 288.153 232.49 287.217 234.064 286.293C231.093 281.924 226.887 277.78 224.52 275.096Z" fill="#FCB06B"/>
<path d="M249.64 276.623C246.023 271.143 240.882 266.046 237.562 261.97C231.25 254.211 226.09 245.255 220.322 237.069C214.615 228.978 208.812 221.059 203.372 212.661C198.09 204.508 191.77 197.353 186.611 189.423C184.175 185.675 182.259 181.679 180.467 177.625C178.975 178.777 177.229 179.479 175.357 179.451C176.567 181.548 177.772 183.67 179.107 185.73C191.707 205.179 205.518 223.089 218.953 241.775C225.255 250.545 231.389 259.409 237.292 268.52C238.63 270.585 241.206 275.668 244.176 280.126C246.646 278.569 248.561 277.329 249.64 276.623Z" fill="#FCB06B"/>
<path d="M258.969 121.044C256.043 117.805 252.666 120.939 251.403 124.165C249.695 128.529 250.223 136.505 243.231 135.347C239.214 134.677 234.217 129.346 230.465 133.201C226.629 137.142 230.625 144.872 226.276 148.421C226.307 148.549 226.335 148.671 226.371 148.795C227.835 154.384 230.841 159.55 233.055 164.86C235.764 171.356 239.449 177.33 242.169 183.9C246.054 193.283 249.348 202.916 253.397 212.245C257.571 221.869 262.665 231.34 266.345 241.181C268.408 246.692 270.49 254.215 274.415 259.465C283.616 252.425 292.09 244.845 292.624 240.436C293.813 230.573 262.693 128.743 262.693 128.743C262.693 128.743 260.506 122.744 258.969 121.044Z" fill="#E08F4C"/>
<path d="M253.433 274.166C252.503 272.73 251.778 271.737 251.525 271.346C246.874 264.166 211.737 205.506 205.957 197.883C200.651 190.891 195.908 183.467 191.88 175.676C190.574 173.146 188.152 168.2 187.026 163.463C183.422 166.109 185.098 171.73 182.897 175.379C184.656 177.342 231.842 251.168 234.083 254.548C237.605 259.859 240.524 265.436 244.226 270.58C245.577 272.46 246.918 274.952 248.657 277.26L253.433 274.166Z" fill="#E08F4C"/>
<path d="M264.814 260.662C262.449 256.019 259.617 251.59 257.236 246.935C253.313 239.261 250.176 231.077 246.601 223.2C243.012 215.287 239.307 207.597 235.544 199.804C231.81 192.067 227.671 184.436 224.566 176.417C221.889 169.502 217.536 163.421 214.74 156.575C213.566 153.701 212.72 150.652 211.431 147.853C211.358 147.693 211.275 147.532 211.188 147.375C210.949 147.507 210.706 147.68 210.452 147.926C208.686 149.624 208.441 152.324 208.414 154.609C208.376 157.366 207.793 159.465 206.158 161.137C207.251 162.859 208.166 164.601 208.859 166.139C210.311 169.349 212.413 172.331 213.879 175.518C215.78 179.649 217.281 183.973 219.311 188.109C222.161 193.923 225.154 199.695 227.819 205.621C231.166 213.056 235.377 219.819 239.374 226.877C246.689 239.8 250.884 255.179 259.752 267.295C260.117 267.79 260.502 268.316 261.112 269.051C263.012 267.754 265.101 266.304 267.222 264.79C266.391 263.267 265.48 261.974 264.814 260.662Z" fill="#E08F4C"/>
<path opacity="0.4" d="M129.547 127.942C124.052 134.464 120.216 141.781 114.014 147.829C108.865 152.857 103.78 160.605 103.239 168.276C103.08 170.55 103.836 172.491 105.074 173.935C105.533 176.651 107.441 178.695 111.939 178.831C117.781 179.013 123.97 173.105 127.147 168.979C134.707 159.155 146.3 148.955 144.729 134.719C143.771 126.011 135.838 120.469 129.547 127.942Z" fill="white"/>
<path d="M143.529 107.966C143.529 107.966 123.64 114.573 130.565 124.852C136.431 133.565 170.375 123.193 170.375 123.193C170.375 123.193 165.139 94.4165 153.84 95.2515C142.478 96.1047 143.529 107.966 143.529 107.966Z" fill="#6D4032"/>
<path d="M134.543 115.132C132.48 117.614 133.398 121.037 136.054 122.641C138.393 124.05 141.721 123.578 144.16 122.737C146.342 121.988 151.72 120.439 147.98 117.596C145.816 115.954 141.627 118.417 140.564 114.792C140.041 113.003 141.337 111.573 138.552 112.358C136.967 112.808 135.619 114.125 134.644 115.288L134.543 115.132Z" fill="#8D5440"/>
<path d="M158.285 96.7747C165.362 103.765 168.688 122.056 168.688 122.056C168.688 122.056 142.038 130.199 131.887 125.99C138.236 134.25 171.514 124.081 171.514 124.081C171.514 124.081 167.294 100.955 158.285 96.7747Z" fill="#3D231C"/>
<path d="M182.301 74.6264C182.301 74.6264 168.173 68.5547 166.905 76.9036C165.828 83.9758 189.49 94.788 189.49 94.788C189.49 94.788 200.78 78.0556 194.192 73.1646C187.562 68.2558 182.301 74.6264 182.301 74.6264Z" fill="#6D4032"/>
<path d="M173.86 73.9566C171.51 74.2163 170.328 76.3485 170.994 78.3915C171.583 80.1893 173.634 81.5196 175.378 82.251C176.941 82.9078 180.641 84.6622 179.995 81.4983C179.62 79.6655 176.117 78.9213 177.316 76.6226C177.912 75.4903 179.324 75.3885 177.413 74.4693C176.328 73.946 174.939 73.9673 173.833 74.0852L173.86 73.9566Z" fill="#8D5440"/>
<path d="M195.874 76.0119C196.3 82.8046 189.129 93.4334 189.129 93.4334C189.129 93.4334 170.548 84.9439 167.068 78.0905C166.475 85.1672 189.675 95.7689 189.675 95.7689C189.675 95.7689 198.743 82.3225 195.874 76.0119Z" fill="#3D231C"/>
<path d="M114.694 158.527C114.694 158.527 103.096 168.752 110.88 173.777C117.475 178.029 137.533 161.193 137.533 161.193C137.533 161.193 125.39 143.066 117.934 146.892C110.443 150.733 114.694 158.527 114.694 158.527Z" fill="#6D4032"/>
<path d="M110.694 166.001C110.026 168.288 111.672 170.361 113.96 170.688C115.978 170.976 118.103 169.696 119.518 168.425C120.783 167.287 123.993 164.683 120.588 163.817C118.624 163.316 116.5 166.206 114.695 164.037C113.809 162.964 114.266 161.618 112.6 162.957C111.653 163.718 111.127 165.004 110.803 166.078L110.694 166.001Z" fill="#8D5440"/>
<path d="M121.421 146.643C128.327 149.378 136.049 160.899 136.049 160.899C136.049 160.899 120.296 174.118 112.123 174.169C118.911 177.978 138.582 161.467 138.582 161.467C138.582 161.467 128.815 146.905 121.421 146.643Z" fill="#3D231C"/>
</svg>
