<svg width="231" height="278" viewBox="0 0 231 278" fill="none" xmlns="http://www.w3.org/2000/svg">
<path d="M0 123.381L76.8454 28.2008C76.8454 28.2008 123.632 22.9259 158.17 29.5046C192.714 36.0834 227.063 54.7104 227.063 54.7104L0 123.381Z" fill="#FFC7AE"/>
<path d="M220.47 43.3059L68.1095 32.9563C66.7191 37.0951 64.3333 48.8026 67.8012 51.7836C71.3557 54.8403 75.9867 55.4733 80.5582 55.3759C85.3678 55.2731 90.2424 54.5211 94.9817 53.6392C99.1529 52.8602 103.714 50.1227 107.701 50.22C107.079 58.8113 118.407 59.7148 124.932 59.4768C132.733 59.1954 139.182 55.8357 146.053 52.6979C146.237 56.301 145.339 58.5354 149.002 60.2396C152.199 61.7274 162.024 64.1944 165.53 64.2701C172.752 64.4324 176.485 62.1872 182.122 59.3198C182.344 65.1303 183.67 66.326 189.583 67.2998C194.679 68.1384 200.495 68.6956 205.759 68.3061C210.78 67.9328 217.256 67.197 220.913 63.2747C222.504 61.5705 225.057 43.663 220.47 43.3059Z" fill="#CCA797"/>
<path d="M76.6671 82.0478C72.9287 70.8759 60.7289 58.4218 47.1765 58.0322C57.8723 62.9068 31.6603 76.5836 28.2194 79.9162C24.6217 83.4058 21.4677 89.0323 24.6326 93.3658C25.6118 98.9599 37.4004 102.909 46.0674 102.255C60.3556 101.167 82.8401 100.518 76.6671 82.0478Z" fill="#F97673"/>
<path opacity="0.7" d="M55.6381 60.0286C56.969 61.2134 58.6839 62.474 59.4846 63.2152C62.6117 66.0988 64.3104 68.9986 65.5331 72.8885C67.313 78.5637 67.5674 86.4571 62.7523 91.1314C63.315 88.0206 64.159 83.6276 62.1843 80.7332C60.9778 85.1749 56.6227 92.0295 50.5958 91.7806C52.2784 89.3352 54.0582 85.4021 52.8193 82.578C51.5587 84.3849 50.7418 86.4354 48.924 88.0801C46.1216 90.6066 41.7773 91.5696 38.2607 92.657C39.6673 91.2937 41.5122 89.3677 40.8359 87.485C39.6457 88.2911 39.3103 89.8762 37.9253 90.7202C35.6585 92.1052 32.4124 92.8356 29.756 93.1819C28.1005 93.3983 26.0933 93.0195 24.3242 93.1007C24.4216 93.2576 24.5244 93.4145 24.638 93.5714C25.6173 99.1654 37.4059 103.115 46.0729 102.46C60.361 101.378 82.8455 100.724 76.6672 82.2534C73.7295 73.4836 65.5711 63.9185 55.6381 60.0286Z" fill="#DD6868"/>
<path d="M45.7588 71.3574C44.5902 74.1274 40.4893 75.4854 37.741 76.7459C36.2369 77.4384 33.9918 78.3365 34.403 80.2138C34.8574 82.2642 37.6058 81.9559 39.2883 81.3878C43.0375 80.1326 46.8894 77.4709 48.9182 74.306C51.5475 70.2105 44.6876 69.2962 44.5524 73.4349L45.7588 71.3574Z" fill="#F98F80"/>
<path d="M0 123.381L2.05046 277.072L228.708 202.039L227.068 54.7104L0 123.381Z" fill="#6D4032"/>
<path d="M2.43581 227.748C2.07874 228.013 1.72711 228.284 1.38086 228.57C1.78121 228.327 2.11661 228.045 2.43581 227.748Z" fill="#F97673"/>
<path d="M227.352 107.443C221.346 108.947 214.638 113.865 208.757 116.18C201.605 118.999 193.49 118.42 186.759 123.365C181.284 127.39 178.65 133.893 172.304 136.896C166.287 139.747 158.248 139.444 151.88 140.921C142.294 143.144 134.676 149.923 125.025 153.05C111.775 157.346 102.259 165.51 90.5296 172.321C75.2406 181.205 55.6234 174.556 39.7717 185.084C27.4637 193.264 15.1557 196.185 1.01367 200.594L1.37611 228.565C0.954118 228.938 2.82058 227.38 2.43106 227.742C14.7607 218.578 33.2579 222.386 47.4595 216.614C57.4953 212.535 66.1569 205.853 75.5976 200.649C85.0436 195.444 94.2462 194.113 104.509 191.349C124.473 185.976 141.26 179.089 159.714 170.363C170.805 165.115 181.236 161.355 192.299 158.12C198.489 156.307 203.753 152.699 209.714 150.28C214.692 148.257 227.422 150.383 227.487 145.482C227.573 139.438 227.416 115.239 227.352 107.443Z" fill="#F97673"/>
<path d="M110.454 168.837C105.779 168.669 102.295 172.24 99.3142 175.529C95.5596 179.674 93.1629 182.4 87.5364 183.834C80.4275 185.646 73.6972 184.05 66.518 184.326C61.2377 184.526 55.2001 184.462 50.8882 187.859C46.3112 191.468 43.763 196.856 38.7694 200.091C30.1295 205.691 16.3987 201.433 9.25188 209.597C5.32413 210.787 1.83453 212.518 2.95442 215.034C4.70189 218.962 15.3274 212.318 18.9793 211.799C29.2423 210.338 39.5161 209.667 48.854 204.127C54.7185 200.649 60.1611 194.351 66.9725 192.999C70.7812 192.241 74.6981 192.701 78.4473 191.771C81.9801 190.894 85.1343 189.136 88.613 188.146C93.098 186.874 97.94 186.793 102.49 185.387C107.159 183.942 113.835 181.518 116.199 176.833C118.401 172.473 114.917 168.999 110.454 168.837Z" fill="#F98F80"/>
<path d="M211.738 120.541C202.075 123.933 195.61 130.409 187.879 136.555C180.856 142.133 174.332 141.586 166.146 143.366C157.312 145.287 148.591 150.821 139.464 153.261C132.128 155.225 122.043 159.38 122.357 168.594C122.909 168.621 123.45 168.577 123.974 168.485C126.046 170.249 133.989 168.577 135.698 167.901C143.532 164.79 149.418 158.515 157.501 155.528C168.278 151.552 178.947 150.416 188.75 144.335C193.424 141.435 197.168 142.565 202.346 141.034C206.149 139.915 210.915 137.107 214.437 135.283C222.942 130.88 223.64 116.359 211.738 120.541Z" fill="#F98F80"/>
<path d="M0 123.381L227.068 53.926L227.258 71.9633L0.151499 137.318L0 123.381Z" fill="#CCA797"/>
<path d="M204.91 27.8059C206.252 14.6484 191.093 9.5034 182.615 8.99485C171.032 8.29694 169.414 14.7621 166.466 17.1966C155.094 -2.19868 121.113 -7.50599 108.767 13.4312C98.6335 4.15824 82.3327 0.0681631 70.9769 10.0282C65.1989 15.0975 61.8176 22.0387 62.1854 29.6886C62.2774 31.5551 65.1936 44.891 70.5334 46.7413C80.4988 50.193 91.9087 52.357 113.208 39.5188C114.436 55.1595 142.261 49.1813 150.057 43.122C153.038 50.945 154.147 53.1198 163.03 56.1333C173.52 59.6931 184.465 57.9835 187.955 52.0162C188.598 58.8059 192.31 61.2513 201.204 61.8626C208.713 62.3766 219.68 60.9483 225.571 55.8953C237.533 45.6268 223.591 13.7936 204.91 27.8059ZM81.9107 22.4986L82.6574 21.5464C82.4572 21.898 82.2029 22.2118 81.9107 22.4986Z" fill="#F97673"/>
<g opacity="0.7">
<path opacity="0.7" d="M227.831 34.8986C227.442 38.4151 226.068 41.6072 223.503 43.8091C217.612 48.8621 206.645 50.2904 199.136 49.7764C190.242 49.1651 186.531 46.7197 185.887 39.93C182.403 45.9028 171.452 47.607 160.962 44.0525C152.079 41.0391 150.97 38.8642 147.989 31.0411C140.187 37.1005 112.368 43.0787 111.14 27.438C89.8461 40.2763 78.4308 38.1122 68.4653 34.6605C65.7765 33.73 63.7044 29.8834 62.2977 26.0584C62.1679 27.2487 62.13 28.4605 62.1895 29.694C62.2815 31.5605 65.1975 44.8965 70.5373 46.7467C80.5028 50.1984 91.9128 52.3625 113.212 39.5242C114.441 55.1649 142.265 49.1867 150.061 43.1274C153.042 50.9504 154.151 53.1253 163.034 56.1387C173.525 59.6986 184.469 57.989 187.959 52.0216C188.603 58.8113 192.314 61.2567 201.208 61.8681C208.717 62.382 219.689 60.9538 225.575 55.9007C230.996 51.2318 231.088 42.1373 227.831 34.8986Z" fill="#DD6868"/>
</g>
<path d="M71.4787 17.4563C70.0287 20.0694 69.4985 23.1099 70.4831 26.1288C73.8645 36.5379 86.4159 31.5497 90.8251 25.0359C101.294 9.56298 73.8321 4.56402 71.4787 17.4563Z" fill="#F98F80"/>
<path d="M141.244 5.11045C137.083 4.02842 131.37 3.83365 126.609 5.23487C111.207 5.38095 110.99 32.6805 126.972 26.0963C132.533 23.8025 134.8 17.4347 140.329 15.1733C143.191 13.9993 146.302 14.9082 146.8 10.8722C147.233 7.32861 144.349 5.91656 141.244 5.11045Z" fill="#F98F80"/>
<path d="M191.13 17.6078C189.058 12.2734 178.968 13.1228 175.068 15.1733C173.731 15.8766 172.649 16.7097 171.822 17.6836C168.359 19.6312 165.313 22.8286 164.269 25.8258C163.084 29.2288 164.751 31.7931 168.305 31.923C172.108 32.0636 174.597 28.8338 177.713 27.254C181.354 25.3984 193.587 23.9377 191.13 17.6078Z" fill="#F98F80"/>
<path d="M209.73 28.639C204.498 29.4938 198.59 33.0213 195.252 35.2881C186.856 40.9904 199.97 42.9921 204.671 41.9317C208.718 41.0228 220.279 38.4962 220.263 33.1348C220.247 28.1359 214.009 27.2432 209.73 28.639Z" fill="#F98F80"/>
<path d="M15.5531 146.407C18.7829 145.785 21.9371 144.827 25.1886 144.302C26.3842 144.107 25.908 142.29 24.7178 142.479C21.4663 143.004 18.3122 143.961 15.0823 144.583C13.8867 144.811 14.3629 146.634 15.5531 146.407Z" fill="#8D5440"/>
<path d="M18.0997 163.524C19.3062 160.835 21.7084 158.92 24.408 157.844C25.5171 157.4 25.0626 155.571 23.9373 156.02C20.8048 157.27 17.905 159.402 16.4929 162.545C15.9952 163.643 17.602 164.628 18.0997 163.524Z" fill="#8D5440"/>
<path d="M13.5061 152.617C15.1995 152.645 16.893 152.672 18.5917 152.699C19.8036 152.72 19.836 150.837 18.6241 150.816C16.9307 150.789 15.2374 150.762 13.5386 150.735C12.3214 150.719 12.2943 152.601 13.5061 152.617Z" fill="#8D5440"/>
<path d="M9.70922 177.98C10.9211 178.002 10.9536 176.119 9.74172 176.097C8.52985 176.076 8.49736 177.959 9.70922 177.98Z" fill="#8D5440"/>
<path d="M10.03 177.953C12.2806 178.554 14.5312 179.154 16.7818 179.755C17.9558 180.068 18.486 178.261 17.312 177.948C15.0614 177.347 12.8108 176.747 10.5602 176.146C9.38616 175.827 8.85598 177.639 10.03 177.953Z" fill="#8D5440"/>
<path d="M31.9191 182.389C33.58 180.312 35.7387 178.727 37.8811 177.174C38.8495 176.471 37.9406 174.821 36.956 175.535C34.5377 177.293 32.1842 179.062 30.3123 181.416C29.5549 182.362 31.1725 183.32 31.9191 182.389Z" fill="#8D5440"/>
<path d="M40.9038 164.79C43.1706 163.66 45.01 161.966 46.817 160.219C47.688 159.375 46.3788 158.022 45.5078 158.866C43.8144 160.505 42.1101 162.085 39.9785 163.151C38.8911 163.697 39.8163 165.337 40.9038 164.79Z" fill="#8D5440"/>
<path d="M50.5237 134.007C53.3478 134.05 56.172 134.099 58.9961 134.142C60.2079 134.164 60.2404 132.281 59.0286 132.259C56.2045 132.216 53.3803 132.167 50.5562 132.124C49.3389 132.102 49.3119 133.985 50.5237 134.007Z" fill="#8D5440"/>
<path d="M83.1253 144.134C84.3372 144.156 84.3696 142.273 83.1578 142.252C81.9405 142.23 81.9134 144.113 83.1253 144.134Z" fill="#8D5440"/>
<path d="M83.3742 144.102C85.733 143.556 88.0539 143.112 90.483 143.117C91.6949 143.123 91.7274 141.24 90.5101 141.235C87.9132 141.229 85.4191 141.689 82.898 142.273C81.724 142.555 82.1948 144.378 83.3742 144.102Z" fill="#8D5440"/>
<path d="M77.3529 167.301C78.5161 165.061 79.6846 162.821 80.8478 160.576C81.4051 159.499 79.7983 158.52 79.2356 159.602C78.067 161.842 76.9039 164.082 75.7407 166.327C75.1834 167.398 76.7902 168.377 77.3529 167.301Z" fill="#8D5440"/>
<path d="M65.1753 151.849C66.4088 150.031 67.4204 148.073 68.6539 146.255C69.3356 145.249 67.7234 144.28 67.0417 145.281C65.8082 147.099 64.7966 149.058 63.5631 150.875C62.8814 151.882 64.4936 152.85 65.1753 151.849Z" fill="#8D5440"/>
<path d="M88.5393 123.316C90.9847 123.354 93.4355 123.392 95.8809 123.435C97.0927 123.457 97.1252 121.574 95.9134 121.552C93.468 121.515 91.0172 121.471 88.5718 121.433C87.3599 121.417 87.3274 123.3 88.5393 123.316Z" fill="#8D5440"/>
<path d="M106.482 132.081C108.142 132.108 109.646 132.232 111.075 133.157C112.097 133.817 113.066 132.205 112.049 131.545C110.35 130.441 108.494 130.23 106.509 130.198C105.297 130.176 105.264 132.059 106.482 132.081Z" fill="#8D5440"/>
<path d="M104.36 158.596C105.572 158.617 105.604 156.735 104.392 156.713C103.175 156.691 103.142 158.574 104.36 158.596Z" fill="#8D5440"/>
<path d="M105.175 158.141C106.344 155.891 107.507 153.635 108.205 151.184C108.54 150.015 106.728 149.49 106.398 150.654C105.743 152.947 104.661 155.052 103.563 157.162C103.011 158.239 104.618 159.218 105.175 158.141Z" fill="#8D5440"/>
<path d="M95.6781 136.425C96.7493 136.392 97.853 135.781 98.6266 135.067C99.5193 134.239 98.21 132.892 97.3173 133.714C97.0522 133.958 96.7493 134.137 96.4301 134.299C96.3111 134.364 96.1867 134.412 96.0568 134.456C95.9865 134.477 95.9107 134.499 95.8349 134.521C95.5428 134.596 95.9594 134.537 95.7105 134.542C94.4986 134.58 94.4609 136.463 95.6781 136.425Z" fill="#8D5440"/>
<path d="M119.725 122.413C121.061 121.114 122.403 119.821 123.739 118.523C124.61 117.679 123.301 116.326 122.43 117.17C121.094 118.469 119.752 119.762 118.416 121.06C117.545 121.904 118.854 123.257 119.725 122.413Z" fill="#8D5440"/>
<path d="M128.553 109.807C131.388 109.288 134.217 108.768 137.052 108.249C138.248 108.033 137.772 106.209 136.582 106.426C133.747 106.945 130.917 107.465 128.082 107.984C126.887 108.2 127.363 110.024 128.553 109.807Z" fill="#8D5440"/>
<path d="M157.557 117.084C160.127 117.084 162.669 116.613 165.169 116.045C166.354 115.775 165.883 113.951 164.698 114.222C162.361 114.757 159.997 115.206 157.589 115.206C156.378 115.201 156.345 117.084 157.557 117.084Z" fill="#8D5440"/>
<path d="M149.786 129.825C150.354 128.294 151.279 126.914 152.432 125.762C153.292 124.907 151.983 123.549 151.123 124.409C149.732 125.794 148.661 127.45 147.979 129.294C147.557 130.436 149.37 130.955 149.786 129.825Z" fill="#8D5440"/>
<path d="M134.445 137.799C134.483 135.624 134.581 133.503 135.549 131.513C136.074 130.431 134.467 129.446 133.937 130.539C132.812 132.854 132.606 135.229 132.563 137.772C132.541 138.984 134.424 139.016 134.445 137.799Z" fill="#8D5440"/>
<path d="M170.838 99.2195C172.05 99.2411 172.083 97.3584 170.871 97.3368C169.653 97.3152 169.621 99.1979 170.838 99.2195Z" fill="#8D5440"/>
<path d="M170.838 99.2195C173.852 99.2682 176.86 99.3169 179.873 99.3656C181.085 99.3872 181.118 97.5045 179.906 97.4829C176.892 97.4342 173.884 97.3855 170.871 97.3368C169.653 97.3152 169.621 99.1979 170.838 99.2195Z" fill="#8D5440"/>
<path d="M177.748 120.665C179.544 119.48 181.102 117.982 182.893 116.792C183.899 116.126 182.985 114.482 181.968 115.152C180.172 116.337 178.614 117.836 176.823 119.026C175.817 119.691 176.731 121.336 177.748 120.665Z" fill="#8D5440"/>
<path d="M204.595 107.67C206.629 107.67 208.825 107.183 210.373 105.793C211.276 104.981 209.967 103.629 209.063 104.44C207.9 105.484 206.137 105.787 204.622 105.787C203.415 105.787 203.383 107.67 204.595 107.67Z" fill="#8D5440"/>
<path d="M207.46 89.6057C209.764 90.2225 212.074 90.796 214.466 90.8826C215.683 90.9258 215.71 89.0431 214.498 88.9998C212.269 88.924 210.132 88.3722 207.99 87.7987C206.816 87.485 206.286 89.2919 207.46 89.6057Z" fill="#8D5440"/>
<path d="M27.1845 245.352C29.6948 244.146 32.1726 242.902 34.591 241.517C35.6405 240.911 34.7208 239.271 33.6658 239.877C31.2529 241.262 28.7697 242.507 26.2594 243.713C25.1666 244.238 26.0917 245.877 27.1845 245.352Z" fill="#8D5440"/>
<path d="M20.1615 237.183C20.7999 236.561 21.449 236.063 22.2551 235.668C23.3426 235.133 22.4175 233.493 21.33 234.029C20.3941 234.489 19.5989 235.111 18.8523 235.831C17.9758 236.675 19.2851 238.027 20.1615 237.183Z" fill="#8D5440"/>
<path d="M15.3841 262.335C15.8926 261.339 16.3039 259.873 17.3534 259.316C18.4246 258.743 17.4995 257.103 16.4283 257.677C15.0163 258.434 14.459 260.014 13.7719 261.361C13.2254 262.438 14.8322 263.417 15.3841 262.335Z" fill="#8D5440"/>
<path d="M56.1057 243.686C59.4113 243.74 62.6844 243.708 65.9684 243.248C67.1694 243.08 66.688 241.257 65.4977 241.425C62.3869 241.863 59.2761 241.857 56.1382 241.803C54.9263 241.782 54.8938 243.664 56.1057 243.686Z" fill="#8D5440"/>
<path d="M57.4042 227.759C59.1625 226.606 60.6719 225.189 62.1813 223.734C63.0523 222.89 61.7431 221.537 60.8721 222.381C59.4871 223.723 58.102 225.059 56.4844 226.119C55.4673 226.779 56.3817 228.43 57.4042 227.759Z" fill="#8D5440"/>
<path d="M80.9163 211.317C82.1282 211.339 82.1605 209.456 80.9487 209.435C79.7368 209.413 79.7045 211.301 80.9163 211.317Z" fill="#8D5440"/>
<path d="M80.6687 211.279C82.8057 211.891 84.6614 213.076 86.6144 214.104C87.6856 214.666 88.6647 213.059 87.5881 212.491C85.4944 211.388 83.4928 210.127 81.1989 209.467C80.0303 209.137 47.4613 216.619 80.6687 211.279Z" fill="#8D5440"/>
<path d="M79.5652 230.94C80.5336 231.459 81.3884 232.157 82.3622 232.676C83.428 233.25 84.4073 231.638 83.3361 231.064C82.3676 230.545 81.5129 229.847 80.5391 229.328C79.4733 228.76 78.494 230.366 79.5652 230.94Z" fill="#8D5440"/>
<path d="M93.4215 236.247C95.8344 234.446 97.6793 232.157 99.5133 229.793C100.26 228.835 98.6369 227.872 97.9011 228.819C96.2835 230.907 94.628 233.017 92.4964 234.608C91.5388 235.322 92.4477 236.972 93.4215 236.247Z" fill="#8D5440"/>
<path d="M96.6343 223.723C98.517 221.932 100.632 220.406 102.737 218.886C103.705 218.183 102.796 216.533 101.812 217.247C99.5827 218.864 97.3267 220.471 95.3249 222.376C94.4485 223.209 95.7578 224.561 96.6343 223.723Z" fill="#8D5440"/>
<path d="M100.28 201.46C103.954 201.52 107.622 201.541 111.268 201.038C112.469 200.87 111.988 199.053 110.798 199.215C107.324 199.696 103.808 199.631 100.307 199.577C99.0954 199.561 99.0684 201.444 100.28 201.46Z" fill="#8D5440"/>
<path d="M133.974 220.368C135.906 218.561 138.27 217.252 140.629 216.105C141.722 215.575 140.791 213.936 139.704 214.466C137.199 215.689 134.71 217.106 132.66 219.021C131.778 219.844 133.087 221.196 133.974 220.368Z" fill="#8D5440"/>
<path d="M118.319 225.351C118.914 223.658 119.558 222.029 120.559 220.525C121.235 219.514 119.623 218.545 118.947 219.552C117.854 221.18 117.156 222.982 116.507 224.821C116.106 225.968 117.919 226.487 118.319 225.351Z" fill="#8D5440"/>
<path d="M132.001 201.844C134.501 203.749 137.173 205.345 140.057 206.589C141.171 207.07 141.685 205.258 140.587 204.782C137.861 203.608 135.334 202.034 132.975 200.237C132.012 199.491 131.049 201.114 132.001 201.844Z" fill="#8D5440"/>
<path d="M149.41 187.096C150.784 189.147 152.759 190.38 155.253 190.483C156.47 190.532 156.492 188.649 155.285 188.6C153.489 188.53 152.05 187.659 151.055 186.176C150.378 185.17 148.734 186.085 149.41 187.096Z" fill="#8D5440"/>
<path d="M162.8 207.417C165.321 206.221 167.913 205.188 170.207 203.581C171.191 202.888 170.277 201.244 169.282 201.942C166.988 203.548 164.396 204.582 161.875 205.777C160.777 206.297 161.707 207.936 162.8 207.417Z" fill="#8D5440"/>
<path d="M166.76 192.89C169.46 192.36 172.035 191.408 174.702 190.759C175.881 190.472 175.411 188.649 174.231 188.936C171.564 189.59 168.989 190.537 166.289 191.067C165.099 191.3 165.575 193.123 166.76 192.89Z" fill="#8D5440"/>
<path d="M176.962 175.01C179.748 175.097 182.453 175.648 185.164 176.238C186.343 176.492 186.879 174.685 185.694 174.431C182.816 173.809 179.943 173.219 176.989 173.127C175.782 173.089 175.75 174.972 176.962 175.01Z" fill="#8D5440"/>
<path d="M208.038 168.453C210.094 171.158 213.14 172.776 216.273 173.912C217.42 174.328 217.939 172.516 216.803 172.105C213.946 171.071 211.257 169.6 209.391 167.144C208.655 166.181 207.313 167.501 208.038 168.453Z" fill="#8D5440"/>
<path d="M200.113 187.432C200.08 189.406 200.064 191.424 200.616 193.339C200.951 194.503 202.78 194.037 202.439 192.869C201.931 191.11 201.969 189.276 201.996 187.464C202.017 186.252 200.134 186.22 200.113 187.432Z" fill="#8D5440"/>
<path d="M197.641 173.749C198.247 175.005 198.924 176.249 200.189 176.952C201.25 177.542 202.229 175.93 201.163 175.34C200.195 174.799 199.746 173.782 199.281 172.824C198.756 171.726 197.117 172.657 197.641 173.749Z" fill="#8D5440"/>
<path d="M217.643 186.588C217.659 187.859 218.303 188.806 218.849 189.904C219.385 190.991 221.024 190.066 220.488 188.979C220.11 188.216 219.536 187.491 219.525 186.615C219.509 185.403 217.626 185.37 217.643 186.588Z" fill="#8D5440"/>
<path d="M217.512 159.467C217.523 160.992 218.264 162.388 219.611 163.14C220.671 163.73 221.65 162.118 220.585 161.528C219.811 161.095 219.394 160.386 219.389 159.499C219.384 158.287 217.501 158.255 217.512 159.467Z" fill="#8D5440"/>
</svg>
