<svg width="239" height="356" viewBox="0 0 239 356" fill="none" xmlns="http://www.w3.org/2000/svg">
<path d="M170.195 263.954C161.738 257.523 136.181 220.478 136.181 220.478L113.71 236.45C113.71 236.45 140.299 272.761 143.589 282.864C146.883 292.965 155.669 312.42 165.097 316.954C176.669 322.516 185.665 316.366 186.82 315.514C188.003 314.703 196.766 308.225 195.32 295.472C194.137 285.077 178.651 270.385 170.195 263.954Z" fill="#F7A767"/>
<path d="M170.193 263.953C161.737 257.522 136.179 220.477 136.179 220.477L133.586 222.321C137.796 228.372 159.264 258.97 166.879 264.756C175.335 271.187 190.821 285.88 192.004 296.275C193.453 309.032 184.688 315.506 183.504 316.317C183.008 316.682 181.069 318.023 178.1 318.995C182.921 318.23 186.16 316.001 186.825 315.515C188.009 314.704 196.772 308.226 195.325 295.473C194.135 285.077 178.65 270.384 170.193 263.953Z" fill="#D38A59"/>
<path d="M118.76 243.664L124.031 251.08L150.598 240.99L140.053 226.154L118.76 243.664Z" fill="#A06A45"/>
<path d="M68.8789 48.5383C47.2567 24.1156 8.7249 28.7151 -9.47701 42.2191C-28.2138 54.9706 -45.2236 89.8493 -29.2656 118.298C-22.0722 131.126 68.2569 263.521 75.608 266.846C82.7008 270.057 127.753 241.414 130.714 239.084C133.887 237.054 175.4 204.168 174.699 196.414C173.979 188.375 78.6293 59.5487 68.8789 48.5383Z" fill="#FFC7AE"/>
<path d="M68.8772 48.5384C54.9785 32.8398 34.0936 29.1347 16.1112 32.0751C26.854 34.1831 37.1727 39.2416 45.1741 48.2796C54.9246 59.29 150.27 188.12 150.994 196.155C151.695 203.909 110.182 236.796 107.009 238.826C105.083 240.341 85.3695 252.977 69.8623 260.753C72.7381 264.293 74.7463 266.459 75.6092 266.851C82.702 270.061 127.755 241.418 130.715 239.088C133.888 237.058 175.401 204.172 174.7 196.418C173.978 188.375 78.6276 59.5487 68.8772 48.5384Z" fill="#DDB6A2"/>
<path opacity="0.4" d="M-22.4365 80.7766C-33.6091 96.0136 -20.6463 118.406 -9.88334 129.745C5.52713 145.976 13.7486 165.862 26.6925 183.987C33.4448 193.444 41.3835 201.674 48.0271 210.996C53.9909 219.369 59.4464 234.138 69.2644 238.664C73.4249 240.584 79.8856 239.932 82.8965 235.978C86.9012 230.713 83.1777 224.712 80.2229 220.187C72.2329 207.943 60.7139 198.951 52.9458 186.849C43.5885 172.27 35.3297 157.027 25.2876 142.899C17.9372 132.557 9.59145 122.23 4.68123 110.678C0.191685 100.112 1.59324 55.1403 -18.0812 76.0914C-19.4533 77.5539 -20.7841 78.8347 -21.962 80.4332L-22.4394 80.7725L-22.4365 80.7766Z" fill="white"/>
<path d="M-4.33879 154.87C-2.17048 157.921 1.65429 164.776 5.58413 160.923C7.14565 159.393 7.68598 157.06 9.30756 155.511C10.9413 153.954 13.0071 152.937 15.2594 152.353C24.6244 149.935 34.6854 161.614 41.4391 166.514C48.9894 171.988 55.5331 178.152 63.5673 183.227C70.0701 187.338 84.8308 190.652 82.8532 178.787C80.8676 166.886 100.547 170.729 107.3 173.17C110.85 174.454 114.562 179.428 117.993 179.2C123.54 178.831 120.298 170.911 119.056 168.024C115.191 159.048 108.656 151.191 104.659 142.26C101.444 135.081 92.6035 125.976 94.5806 117.439C95.315 114.274 99.7058 111.695 102.671 113.382C104.002 114.141 104.616 116.085 105.774 117.157C106.811 118.119 108.496 118.827 109.704 119.789C113.969 123.195 122.422 134.384 128.36 128.568C121.085 117.15 111.88 106.282 99.2268 100.526C83.3269 93.2958 62.5372 96.2706 46.2844 100.625C35.4642 103.523 24.6272 109.721 15.2325 115.747C10.0419 119.077 3.27911 122.8 0.287473 128.41C-2.04173 132.776 -4.40453 138.456 -4.23309 143.401C-4.17199 145.166 -3.97103 146.82 -4.12362 148.67C-4.21798 149.797 -4.18214 153.017 -4.33474 152.383L-4.33879 154.87Z" fill="#DDB6A2"/>
<path d="M59.9314 37.8456C39.9003 19.5513 9.67092 23.8278 -11.8818 37.5699C-31.9788 50.3869 -40.8957 76.7911 -38.343 99.9514C-37.0669 111.523 -34.6647 121.928 -28.4709 131.636C-26.1298 135.306 -18.6245 149.258 -11.8277 153.209C-9.25158 155.848 -5.95812 157.928 -2.88711 158.145C6.26245 158.791 4.63198 150.748 8.48883 146.021C17.7748 134.659 34.877 156.886 41.647 163.943C47.0678 169.591 70.6596 199.355 77.8383 185.233C81.0903 178.842 72.6676 173.306 74.5125 167.762C77.4394 158.977 84.8917 167.431 89.3294 170.976C98.281 178.12 124.069 189.418 116.039 167.977C110.59 153.422 98.687 141.627 90.9154 128.072C81.5771 111.781 91.9591 99.3041 105.768 114.336C108.311 117.108 117.767 128.802 121.085 121.937C123.06 117.854 114.67 106.486 112.688 103.004C99.2062 79.324 79.5589 55.7692 59.9314 37.8456Z" fill="#6D4032"/>
<path d="M68.3642 169.634C66.5193 175.178 74.942 180.713 71.69 187.105C71.3503 187.766 70.9803 188.334 70.5759 188.81C73.5969 189.428 76.1674 188.52 77.8415 185.229C81.0934 178.838 72.6707 173.302 74.5156 167.758C74.6684 167.297 74.8339 166.887 75.013 166.522C72.3018 165.167 69.7937 165.348 68.3642 169.634Z" fill="#3D231C"/>
<path d="M2.33688 147.896C-0.216793 151.021 -0.370467 155.594 -2.8201 158.145C6.24533 158.741 4.63785 150.731 8.48544 146.017C8.87083 145.548 9.26358 145.141 9.67294 144.783C6.97088 144.468 4.45076 145.31 2.33688 147.896Z" fill="#3D231C"/>
<path d="M84.7636 129.94C92.5353 143.495 104.434 155.293 109.888 169.845C111.892 175.192 111.791 178.503 110.376 180.35C116.185 180.837 119.78 177.953 116.039 167.969C110.59 153.414 98.6867 141.62 90.915 128.064C86.3111 120.028 86.5047 112.923 89.5355 109.587C81.6532 108.162 77.9379 118.032 84.7636 129.94Z" fill="#3D231C"/>
<path d="M59.9316 37.8448C44.5449 23.7885 23.136 23.0561 4.27148 29.6989C21.513 25.2451 40.0461 27.175 53.7802 39.7203C73.4065 57.6508 93.0538 81.2055 106.538 104.872C108.419 108.169 116.059 118.567 115.162 123.114C117.558 124.462 119.792 124.616 121.086 121.93C123.062 117.846 114.671 106.478 112.69 102.996C99.2093 79.3272 79.5591 55.7683 59.9316 37.8448Z" fill="#3D231C"/>
<path d="M-31.2659 77.6499C-32.862 86.6282 -32.2673 95.9128 -29.7929 104.543C-27.1799 113.66 -24.0835 122.592 -20.5925 131.504C-18.8148 136.044 -7.22988 153.217 -3.53315 144.889C-1.2546 143.203 0.848166 140.198 1.76877 136.858C4.00926 128.701 -4.7616 120.508 -9.3373 114.242C-14.865 106.679 -18.6479 97.2185 -20.5605 88.1703C-21.573 83.3787 -21.9873 78.1435 -20.6546 73.25C-19.9212 70.5546 -16.0129 64.5551 -17.2982 61.6503C-22.0648 50.8915 -30.566 73.6995 -31.2659 77.6499Z" fill="#8D5440"/>
<path d="M60.5734 166.452C51.3939 160.34 60.958 184.729 68.2998 182.36L68.2204 182.283C69.7863 183.106 70.5924 182.339 68.9884 178.308C67.8674 175.506 63.0537 168.1 60.5734 166.452Z" fill="#8D5440"/>
<path d="M76.6198 155.741C76.0869 156.345 75.5835 156.965 75.0455 157.536C75.0206 157.578 74.9969 157.614 74.972 157.656L79.2314 155.012C78.2881 154.97 77.4075 155.188 76.6198 155.741Z" fill="#8D5440"/>
<path d="M87.1416 149.707C83.756 148.276 79.1403 147.069 75.6752 148.594C71.6024 150.387 67.7774 156.083 72.1588 159.54C73.3362 159.166 74.2283 158.416 75.0479 157.547C75.5172 156.751 76.0448 156.157 76.6222 155.753C78.0981 154.076 79.7703 152.565 82.8887 152.754L79.2338 155.023C87.0349 155.391 99.5484 173.725 104.721 170.609C103.509 162.804 94.1052 152.649 87.1416 149.707Z" fill="#8D5440"/>
<path d="M-1.01557 53.987C-0.398915 50.3393 0.157478 46.5639 1.60165 43.138C2.32693 41.4167 -0.313659 40.2121 -1.04415 41.9432C-2.5887 45.6049 -3.21942 49.6097 -3.88107 53.5025C-4.19349 55.3506 -1.32799 55.835 -1.01557 53.987Z" fill="#EF9C56"/>
<path d="M3.89729 39.6105C5.77608 38.3726 8.03814 38.068 10.2137 37.7274C12.0603 37.438 11.8056 34.5436 9.95499 34.8359C7.24603 35.2572 4.5434 35.7044 2.21499 37.2437C0.645396 38.2741 2.33866 40.6392 3.89729 39.6105Z" fill="#EF9C56"/>
<path d="M11.5824 45.9077C12.4142 47.0095 13.5913 47.7745 14.411 48.8848C15.5235 50.39 17.8932 48.7117 16.7778 47.2025C15.9553 46.0881 14.7725 45.315 13.9493 44.2254C12.8206 42.7317 10.4509 44.41 11.5824 45.9077Z" fill="#EF9C56"/>
<path d="M23.648 39.5854C25.1021 39.3436 26.5169 38.8922 27.971 38.6503C29.8101 38.3419 29.5623 35.4486 27.7123 35.7588C26.2541 36.0035 24.8434 36.4521 23.3893 36.694C21.5514 36.9955 21.7991 39.8887 23.648 39.5854Z" fill="#EF9C56"/>
<path d="M32.6271 56.9656C34.1524 55.8814 32.47 53.5146 30.9447 54.5988C29.4195 55.6829 31.1018 58.0497 32.6271 56.9656Z" fill="#EF9C56"/>
<path d="M30.8694 56.9069C32.2397 57.9609 33.2405 59.3688 33.7883 61.0135C34.3802 62.7973 37.1061 61.7915 36.5188 60.0227C35.8209 57.9184 34.4664 56.0128 32.7056 54.6579C31.2253 53.5177 29.3793 55.7615 30.8694 56.9069Z" fill="#EF9C56"/>
<path d="M21.8943 81.635C23.731 81.109 25.6636 81.0264 27.5004 80.5003C29.3071 79.9835 28.2973 77.2604 26.5096 77.7698C24.6729 78.2959 22.7402 78.3785 20.9035 78.9045C19.0927 79.4243 20.1026 82.1473 21.8943 81.635Z" fill="#EF9C56"/>
<path d="M1.54526 69.73C2.69714 68.1805 3.97732 66.7773 5.78868 66.0013C7.50761 65.2667 6.51689 62.5363 4.79795 63.2709C2.49969 64.2528 0.771086 65.9078 -0.703788 67.8939C-1.81457 69.3899 0.429259 71.2358 1.54526 69.73Z" fill="#EF9C56"/>
<path d="M47.5552 53.6695C49.3167 53.9886 50.9891 54.6451 52.7506 54.9642C54.5952 55.2974 55.0756 52.4348 53.235 52.0987C51.4735 51.7796 49.8011 51.1231 48.0396 50.8039C46.1951 50.4707 45.7106 53.3363 47.5552 53.6695Z" fill="#EF9C56"/>
<path d="M41.7196 36.4359C43.481 36.7551 45.1535 37.4116 46.915 37.7307C48.7595 38.0639 49.2399 35.2012 47.3994 34.8651C45.6379 34.546 43.9655 33.8895 42.204 33.5704C40.3594 33.2372 39.879 36.0998 41.7196 36.4359Z" fill="#EF9C56"/>
<path d="M72.7877 65.837C73.7971 67.2571 74.8065 68.6772 75.8159 70.0973C76.9 71.6226 79.2669 69.9403 78.1827 68.415C77.1733 66.9949 76.1639 65.5748 75.1545 64.1547C74.0704 62.6294 71.7036 64.3117 72.7877 65.837Z" fill="#EF9C56"/>
<path d="M0.461496 119.675C2.39246 119.076 4.27646 118.333 6.20455 117.73C8.0004 117.172 6.99173 114.443 5.21378 115C3.28281 115.599 1.39884 116.341 -0.529247 116.944C-2.32222 117.506 -1.31646 120.232 0.461496 119.675Z" fill="#EF9C56"/>
<path d="M41.3921 112.573C42.6858 113.279 43.8736 114.171 45.1674 114.877C46.8098 115.774 47.9989 113.12 46.3622 112.231C45.0684 111.525 43.8807 110.633 42.5869 109.927C40.9444 109.03 39.7525 111.68 41.3921 112.573Z" fill="#EF9C56"/>
<path d="M40.6744 139.982C41.4595 141.087 42.2446 142.191 43.0297 143.296C44.1138 144.821 46.4807 143.139 45.3965 141.614C44.6114 140.509 43.8263 139.404 43.0413 138.3C41.9571 136.775 39.5903 138.457 40.6744 139.982Z" fill="#EF9C56"/>
<path d="M72.1365 114.057C72.3752 114.393 72.6358 114.768 72.9895 114.992C73.4038 115.258 73.7572 115.378 74.2546 115.384C74.6308 115.39 75.0029 115.211 75.308 115.006C75.9685 114.573 76.0965 113.606 75.6508 112.978C75.1792 112.315 74.2874 112.2 73.6228 112.636C73.5905 112.659 73.5552 112.678 73.5199 112.697C73.6337 112.634 73.7504 112.575 73.8643 112.513C73.8331 112.529 73.799 112.541 73.7649 112.553C73.8867 112.527 74.0126 112.499 74.1315 112.469C74.0836 112.479 74.0397 112.485 73.9901 112.484C74.1142 112.487 74.2371 112.497 74.3612 112.501C74.3294 112.499 74.3017 112.494 74.2712 112.485C74.3894 112.523 74.5116 112.558 74.6269 112.592C74.5796 112.577 74.5404 112.556 74.4972 112.538C74.6038 112.602 74.7133 112.67 74.8158 112.738C74.726 112.68 74.6453 112.609 74.5728 112.533C74.6638 112.626 74.7507 112.723 74.8376 112.82C74.7121 112.677 74.6057 112.528 74.4965 112.374C74.0392 111.731 73.1157 111.571 72.4684 112.031C71.832 112.489 71.6764 113.41 72.1365 114.057Z" fill="#EF9C56"/>
<path d="M59.1259 88.4951C61.6957 88.392 64.2266 87.8659 66.3926 86.4237C67.9564 85.3853 66.2632 83.0201 64.7103 84.0569C62.9696 85.215 60.917 85.523 58.8672 85.6036C56.9905 85.6708 57.2631 88.5646 59.1259 88.4951Z" fill="#EF9C56"/>
<path d="M91.2027 96.4134C92.4395 97.0568 93.7735 97.3143 95.1342 97.5408C96.9823 97.8532 97.4667 94.9877 95.6187 94.6753C94.3451 94.46 93.4747 94.3235 92.3987 93.7607C91.695 93.3961 90.787 93.7979 90.4784 94.4862C90.1402 95.2442 90.499 96.0488 91.2027 96.4134Z" fill="#EF9C56"/>
<path d="M4.42339 59.6623C7.40196 59.1834 10.3327 58.44 13.1023 57.2388C14.8155 56.4961 13.8288 53.7627 12.1115 54.5083C9.56487 55.612 6.90194 56.3294 4.16465 56.7708C2.32095 57.0643 2.57159 59.9615 4.42339 59.6623Z" fill="#EF9C56"/>
<path d="M23.1117 56.354C24.3323 54.0614 25.5528 51.7689 26.7733 49.4763C27.6548 47.8205 25.001 46.6314 24.1276 48.2814C22.907 50.574 21.6865 52.8666 20.4659 55.1592C19.5844 56.8149 22.2383 58.004 23.1117 56.354Z" fill="#EF9C56"/>
<path d="M14.4445 33.8934C15.7069 35.6695 17.1233 37.4824 17.8276 39.57C18.4277 41.348 21.1564 40.3463 20.5581 38.5792C19.7707 36.2462 18.2192 34.2005 16.8101 32.218C15.7312 30.6829 13.3603 32.3681 14.4445 33.8934Z" fill="#EF9C56"/>
<path d="M33.9041 34.4346C34.4715 33.3736 35.0801 32.4478 36.065 31.7172C37.5702 30.6048 35.889 28.231 34.3827 29.3504C32.9787 30.391 32.0749 31.7154 31.2583 33.2398C30.3739 34.8915 33.0278 36.0806 33.9041 34.4346Z" fill="#EF9C56"/>
</svg>
