<svg width="393" height="676" viewBox="0 0 393 676" fill="none" xmlns="http://www.w3.org/2000/svg">
<path d="M127.418 602.247C124.262 607.101 117.774 608.477 112.919 605.321C108.065 602.165 106.689 595.677 109.845 590.823L344.598 229.722C347.754 224.868 354.243 223.492 359.097 226.648C363.951 229.804 365.327 236.292 362.171 241.147L127.418 602.247Z" fill="#F7A767"/>
<path d="M361.038 228.304C360.764 229.092 360.402 229.87 359.922 230.608L125.169 591.708C122.013 596.562 115.525 597.938 110.67 594.782C109.932 594.303 109.294 593.744 108.715 593.129C107.185 597.574 108.789 602.648 112.906 605.324C117.76 608.48 124.248 607.104 127.404 602.25L362.158 241.15C364.848 237.03 364.246 231.737 361.038 228.304Z" fill="#D38A59"/>
<path d="M462.423 260.874C505.868 217.807 506.175 147.674 463.108 104.228C420.04 60.7826 349.908 60.4759 306.462 103.543C263.017 146.611 262.71 216.743 305.777 260.189C348.845 303.635 418.977 303.941 462.423 260.874Z" fill="#D1CD95"/>
<path d="M443.614 88.8817C433.385 82.2321 422.463 77.4933 411.282 74.5659C384.845 101.141 376.833 146.6 382.641 182.854L383.201 185.497C382.887 186.366 382.12 186.499 382.604 187.315C391.824 175.334 403.49 164.288 416.42 156.305C434.343 145.248 455.057 139.677 474.438 131.13C476.493 130.224 479.086 128.749 480.945 127.798C472.434 112.305 459.468 99.1887 443.614 88.8817Z" fill="#E5334C"/>
<path d="M324.287 275.809C334.515 282.459 347.004 287.154 358.193 290.087C384.63 263.512 392.72 219.237 386.912 182.982L384.904 180.401C385.219 179.532 385.986 179.398 385.507 178.575C376.287 190.555 364.621 201.602 351.691 209.584C333.768 220.642 320.527 223.615 301.16 232.16C299.104 233.066 289.939 235.588 288.08 236.539C296.572 252.042 308.432 265.502 324.287 275.809Z" fill="#E5334C"/>
<path d="M290.255 123.569C283.606 133.797 279.767 145.317 276.834 156.506C303.409 182.943 347.968 190.358 384.228 184.542L386.87 183.981C387.739 184.296 387.873 185.063 388.688 184.579C376.716 175.364 365.661 163.693 357.679 150.763C346.621 132.839 341.051 112.126 332.503 92.745C331.597 90.6891 330.135 88.0211 329.184 86.1626C313.692 94.6737 300.562 107.715 290.255 123.569Z" fill="#E5334C"/>
<path d="M479.498 240.143C486.147 229.915 489.797 217.879 492.722 206.684C466.147 180.247 422.313 173.936 386.054 179.753L383.411 180.313C382.542 179.998 382.408 179.232 381.593 179.715C393.565 188.93 404.62 200.601 412.602 213.532C423.66 231.455 429.231 252.168 437.778 271.549C438.684 273.605 439.586 275.575 440.537 277.434C456.032 268.936 469.185 256.006 479.498 240.143Z" fill="#E5334C"/>
<path opacity="0.5" d="M493.614 161.427C493.094 181.162 487.298 201.011 475.743 218.785C442.403 270.07 373.792 284.626 322.498 251.28C296.047 234.083 279.366 207.507 273.994 178.765C273.021 216.001 290.832 252.855 324.36 274.651C375.645 307.992 444.259 293.45 477.605 242.157C493.747 217.309 498.664 188.409 493.614 161.427Z" fill="#998767"/>
<path opacity="0.3" d="M426.174 106.133C427.918 94.8267 408.741 88.8242 401.487 87.1384C396.186 85.8988 381.452 80.3635 352.482 87.1859C343.429 89.3152 333.276 95.5014 326.663 102.151C319.587 109.276 312.497 116.439 308.696 125.991C306.505 131.508 304.239 139.947 309.206 144.893C313.821 149.48 320.592 142.992 323.546 139.604C326.354 136.385 328.378 132.465 331.203 129.256C334.836 125.117 338.923 121.584 343.225 118.214C349.558 113.242 355.759 107.887 363.723 105.765C371.974 103.567 381.691 102.489 390.181 103.667C395.879 104.461 399.887 106.148 405.293 107.814C407.798 108.584 410.497 109.551 413.22 110.224C417.334 111.217 425.247 112.163 426.174 106.133Z" fill="white"/>
<path opacity="0.3" d="M307.293 171.501C307.259 168.306 307.168 165.181 307.767 162.04C308.216 159.661 310.712 154.831 308.952 152.565C307.908 151.218 307.331 150.712 305.643 151.547L305.904 151.144C296.596 149.995 294.38 156.689 293.279 165.098C292.397 171.884 288.773 181.348 296.799 184.562C306.028 188.271 307.358 178.318 307.293 171.501Z" fill="white"/>
<path d="M317.189 271.004L314.606 276.72L326.852 295.475L335.938 281.499L317.189 271.004Z" fill="#A06A45"/>
</svg>
