<svg width="329" height="524" viewBox="0 0 329 524" fill="none" xmlns="http://www.w3.org/2000/svg">
<path d="M284.578 230.665C323.955 246.833 368.983 228.017 385.15 188.64C401.318 149.262 382.503 104.235 343.125 88.067C303.748 71.8995 258.72 90.7148 242.552 130.092C226.385 169.47 245.2 214.498 284.578 230.665Z" fill="#FFC7AE"/>
<path d="M366.112 122.646C371.409 137.392 371.214 154.127 364.27 169.531C350.061 201.053 312.987 215.088 281.466 200.879C272.629 196.895 265.163 191.113 259.312 184.164C264.852 199.58 276.389 212.821 292.501 220.083C324.023 234.293 361.096 220.258 375.305 188.736C385.538 166.054 381.133 140.494 366.112 122.646Z" fill="#DDB6A2"/>
<path opacity="0.4" d="M339.82 115.45C346.445 86.5774 291.06 89.9259 278.878 106.858L276.832 105.935C267.508 112.288 259.446 116.525 259.951 129.326C260.312 138.533 267.343 147.678 275.304 151.206C287.615 156.655 307.53 158.644 316.635 146.853C320.816 141.443 323.308 135.608 328.243 130.752C333.486 125.605 338.129 122.827 339.82 115.45Z" fill="white"/>
<path d="M299.307 214.26C297.547 208.396 294.496 203.338 293.315 197.244C291.913 190.007 291.411 182.017 291.908 174.6C292.356 168.006 293.887 161.446 293.38 154.843C293.029 150.228 293.317 142.356 288.998 139.566C289.186 139.182 289.029 139.104 288.857 138.858L286.804 137.71C286.723 138.486 280.413 142.784 279.022 144.236C274.847 148.614 271.359 153.593 268.021 158.616C263.172 165.92 257.611 173.609 254.814 181.975C252.545 188.762 248.923 196.473 250.187 203.709C251.22 209.621 254.618 210.746 259.52 213.179C266.856 216.815 274.219 219.781 282.342 221.28C289.663 222.601 302.828 226.004 299.307 214.26Z" fill="#CEA999"/>
<path d="M319.316 82.0647C320.395 82.4283 321.572 82.6063 322.552 83.2932C319.151 91.9094 312.278 98.3237 308.066 106.544C305.82 110.932 304.225 116.12 302.446 120.696C301.21 123.882 299.039 141.614 294.887 138.077C287.177 131.526 290.962 105.653 294.964 97.8298C297.968 91.9652 302.689 86.4449 308.892 83.9327C312.12 82.626 316.105 82.4816 319.367 81.8654C318.918 81.993 319.096 81.7354 318.957 81.6346L319.316 82.0647Z" fill="#CEA999"/>
<path d="M287.315 175.364C309.025 138.268 296.552 90.5962 259.456 68.886C222.36 47.1758 174.688 59.6486 152.978 96.7447C131.268 133.841 143.74 181.513 180.837 203.223C217.933 224.933 265.605 212.461 287.315 175.364Z" fill="#F97673"/>
<path opacity="0.7" d="M274.332 92.5419C280.076 108.97 279.773 127.544 272.056 144.663C256.091 180.08 214.439 195.849 179.022 179.883C167.016 174.471 157.271 166.105 150.249 156.035C156.388 173.593 169.447 188.701 187.745 196.949C223.163 212.914 264.815 197.146 280.78 161.729C291.336 138.311 288.02 112.175 274.332 92.5419Z" fill="#DD6868"/>
<path d="M140.705 140.257C140.387 143.397 88.2138 453.551 109.108 465.248C129.208 476.495 344.43 232.092 344.43 232.092L140.705 140.257Z" fill="#EF9C56"/>
<path d="M277.727 202.843C263.359 195.27 245.585 189.175 227.474 191.13C202.806 193.795 159.796 218.073 139.402 243.592C133.626 250.823 126.84 259.478 123.092 267.946C119.815 275.352 119.645 284.527 117.777 291.87L124.443 290.441C124.416 291.319 126.959 293.232 128.786 294.439C138.12 300.603 148.263 300.465 159.281 299.609C181.111 297.912 201.542 287.698 217.162 272.6C225.077 264.945 232.826 258.135 239.661 249.356C246.275 240.861 255.429 233.657 260.98 224.507C266.18 215.934 288.251 208.393 277.727 202.843Z" fill="#E08F4C"/>
<path d="M272.718 199.764C261.11 202.065 246.856 201.078 236.509 202.045C189.493 206.45 143.104 242.598 118.723 286.32C107.41 369.755 98.0856 459.073 109.111 465.248C129.211 476.494 344.433 232.091 344.433 232.091L272.718 199.764Z" fill="#EF9C56"/>
<path d="M319.055 220.653C274.423 270.688 138.103 421.603 104.17 436.908C104.145 452.876 105.593 463.279 109.109 465.247C129.208 476.494 344.431 232.091 344.431 232.091L319.055 220.653Z" fill="#E08F4C"/>
<path d="M121.185 271.169C120.575 280.743 123.301 290.334 126.097 299.396C129.254 309.649 132.969 319.754 136.808 329.77C145.518 352.483 155.689 374.643 167.413 395.961C168.767 394.999 170.125 394.031 171.479 393.068C171.078 392.527 170.816 392.072 170.575 391.449C169.403 388.45 164.741 390.215 165.913 393.214C166.3 394.209 166.787 395.104 167.413 395.961C169.367 398.622 172.988 395.812 171.479 393.068C160.258 372.66 150.581 351.428 142.137 329.725C138.311 319.884 134.719 309.934 131.47 299.885C128.617 291.05 125.513 281.343 126.109 271.938C126.316 268.756 121.388 267.946 121.185 271.169Z" fill="#E08F4C"/>
<path d="M150.862 239.67C156.009 249.271 159.212 259.813 162.618 270.109C166.187 280.877 170.253 291.463 174.87 301.829C184.325 323.075 196.137 343.244 209.369 362.342C210.967 364.651 214.865 362.641 213.733 360.013C213.215 358.813 212.541 357.704 212.03 356.507C210.757 353.563 206.085 355.315 207.368 358.272C207.886 359.472 208.559 360.581 209.071 361.778C210.526 361 211.979 360.228 213.435 359.449C200.26 340.431 188.587 320.394 179.167 299.24C174.553 288.883 170.568 278.272 167.009 267.516C163.543 257.047 160.153 246.528 154.922 236.775C153.406 233.943 149.367 236.879 150.862 239.67Z" fill="#E08F4C"/>
<path d="M190.031 207.647C190.375 216.754 195.032 225.213 199.513 232.902C204.398 241.279 209.68 249.268 213.83 258.051C224.003 279.575 236.304 300.125 252.639 317.561C254.34 319.371 257.632 316.935 256.565 314.758C256.023 313.647 255.217 312.847 254.606 311.804C252.973 309.027 248.927 311.945 250.54 314.697C250.933 315.357 251.559 315.824 251.897 316.52C253.208 315.585 254.51 314.653 255.822 313.718C240.098 296.933 228.321 276.957 218.491 256.286C214.45 247.79 209.531 239.949 204.694 231.893C200.196 224.411 195.331 216.073 194.994 207.122C194.868 203.912 189.909 204.446 190.031 207.647Z" fill="#E08F4C"/>
<path d="M255.714 200.057C257.212 205.089 260.229 209.51 263.336 213.68C267.011 218.612 270.84 223.445 274.546 228.361C282.921 239.477 291.063 250.788 300.421 261.121C301.631 260.002 302.838 258.873 304.048 257.754C303.976 257.591 303.904 257.428 303.832 257.265C302.638 254.28 297.97 256.042 299.17 259.03C299.583 260.052 300.023 260.864 300.863 261.588C302.961 263.401 306.409 260.345 304.49 258.221C295.567 248.369 287.736 237.628 279.775 227.005C276.167 222.195 272.519 217.421 268.841 212.663C265.44 208.261 261.989 203.683 260.388 198.282C259.46 195.201 254.802 196.991 255.714 200.057Z" fill="#E08F4C"/>
<path d="M109.062 387.272C109.359 391.072 111.247 394.44 113.252 397.599C115.735 401.518 118.523 405.237 121.289 408.954C127.61 417.465 134.149 425.813 140.159 434.552C141.456 436.441 144.222 435.563 144.658 433.489C145 431.863 144.226 430.993 143.476 429.68C141.873 426.887 137.825 429.81 139.41 432.573C139.871 433.371 139.581 433.402 139.726 432.723C141.227 432.372 142.724 432.011 144.225 431.66C138.766 423.722 132.882 416.098 127.105 408.408C124.33 404.71 121.561 400.999 118.963 397.181C116.827 394.04 114.325 390.657 114.024 386.747C113.773 383.542 108.811 384.067 109.062 387.272Z" fill="#E08F4C"/>
<path d="M168.536 228.212C180.772 229.163 193.043 227.928 205.235 226.85C218.108 225.71 231.037 225.448 243.875 223.908C250.111 223.16 256.235 221.693 262.444 220.887C265.685 220.469 268.976 220.333 272.231 220.09C281.022 219.427 290.064 218.923 298.621 216.651C301.731 215.828 299.934 211.167 296.856 211.989C288.751 214.142 280.038 214.496 271.712 215.131C268.536 215.371 265.347 215.552 262.177 215.895C256.203 216.555 250.267 218.067 244.284 218.83C231.74 220.433 219.097 220.64 206.507 221.731C194.167 222.797 181.708 224.246 169.317 223.278C166.121 223.034 165.317 227.965 168.536 228.212Z" fill="#E08F4C"/>
<path d="M126.14 273.94C139.851 272.25 153.631 273.521 167.307 274.922C181.165 276.344 194.823 277.391 208.762 277.169C216.041 277.052 223.327 277.092 230.598 276.702C238.257 276.288 245.819 275.117 253.337 273.62C260.69 272.147 267.943 270.2 275.157 268.167C278.692 267.167 282.219 266.149 285.744 265.137C289.442 264.081 293.28 262.681 297.134 262.385C298.594 262.277 299.346 260.966 299.352 259.642C299.356 259.567 299.352 259.489 299.356 259.413C299.361 258.618 298.641 257.664 297.901 257.4C297.45 257.242 296.98 257.161 296.533 257.013C293.51 256.027 291.429 260.558 294.484 261.559C294.893 261.69 295.461 261.808 295.851 261.946C295.364 261.273 294.884 260.604 294.396 259.932C294.393 260.007 294.396 260.085 294.393 260.16C295.136 259.245 295.869 258.333 296.612 257.417C293.244 257.671 289.893 258.792 286.659 259.704C283.109 260.705 279.569 261.733 276.029 262.745C268.639 264.86 261.23 266.883 253.712 268.465C246.517 269.978 239.228 271.103 231.89 271.623C224.331 272.159 216.734 272.095 209.157 272.192C202.221 272.28 195.347 272.35 188.423 271.883C181.342 271.406 174.286 270.619 167.233 269.895C153.432 268.483 139.46 267.264 125.627 268.968C122.423 269.372 122.938 274.338 126.14 273.94Z" fill="#E08F4C"/>
<path d="M114.585 342.053C123.027 340.412 131.8 341.39 140.279 342.251C149.875 343.224 159.407 344.015 169.07 343.937C179.164 343.854 189.238 343.033 199.29 342.125C204.328 341.672 209.363 341.188 214.407 340.754C217.09 340.521 219.777 340.313 222.467 340.114C223.665 340.025 224.864 339.952 226.066 339.873C226.731 339.827 229.42 339.29 229.856 339.532C229.904 337.997 229.951 336.461 229.999 334.925C230.479 334.781 229.504 334.901 229.401 334.909C226.189 335.057 226.723 340.015 229.926 339.871C230.56 339.842 231.143 339.775 231.761 339.594C234.051 338.923 233.609 335.954 231.905 334.987C230.444 334.159 228.015 334.767 226.441 334.856C223.739 335.011 221.043 335.207 218.347 335.419C212.995 335.837 207.653 336.336 202.305 336.833C191.668 337.814 181.015 338.727 170.331 338.944C160.507 339.141 150.808 338.313 141.048 337.312C132.185 336.401 122.891 335.372 114.063 337.085C110.933 337.699 111.424 342.668 114.585 342.053Z" fill="#E08F4C"/>
<path d="M108.356 409.277C114.733 408.047 121.217 407.617 127.659 406.839C133.914 406.084 140.104 404.724 146.297 403.58C158.023 401.425 170.164 399.372 181.176 394.616C184.12 393.343 182.368 388.671 179.411 389.954C168.522 394.658 156.557 396.645 144.958 398.773C139.029 399.859 133.12 401.123 127.141 401.88C120.7 402.689 114.217 403.081 107.841 404.311C104.704 404.922 105.188 409.889 108.356 409.277Z" fill="#E08F4C"/>
<path d="M137.126 197.736C141.025 192.697 146.092 188.944 151.411 185.534C155.555 182.876 159.77 180.059 164.292 178.077C173.332 174.105 182.85 171.2 192.163 167.949C195.204 166.888 193.433 162.223 190.398 163.287C180.777 166.644 170.931 169.647 161.617 173.818C157.032 175.871 152.752 178.797 148.524 181.471C142.849 185.058 137.419 189.208 133.29 194.557C131.323 197.099 135.16 200.279 137.126 197.736Z" fill="#E08F4C"/>
<path d="M130.776 243.388C137.341 236.413 146.648 232.155 155.376 228.586C159.053 227.083 162.787 225.744 166.552 224.488C167.954 224.015 170.421 223.716 171.575 222.686C172.373 221.972 172.967 220.859 172.46 219.771L172.456 219.762C171.11 216.861 166.434 218.605 167.795 221.527L167.798 221.536C168.091 220.563 168.39 219.593 168.683 218.621C169.003 218.335 169.325 218.319 168.852 218.482C168.504 218.609 168.148 218.717 167.796 218.835C166.535 219.248 165.269 219.659 164.012 220.082C160.114 221.394 156.256 222.823 152.456 224.393C143.281 228.19 133.816 232.883 126.932 240.206C124.723 242.554 128.584 245.714 130.776 243.388Z" fill="#E08F4C"/>
<path d="M136.582 172.069C139.285 192.435 144.638 212.331 148.165 232.554C148.352 231.933 148.538 231.318 148.725 230.697C148.66 230.791 148.602 230.887 148.539 230.974C149.859 231.024 151.173 231.072 152.492 231.122C152.792 232.024 152.833 232.05 152.605 231.196C152.467 230.735 152.286 230.354 151.98 229.978C149.955 227.493 145.886 230.376 147.914 232.871C147.618 232.507 148.315 233.872 148.433 234.018C149.355 235.154 151.432 235.584 152.386 234.166C153.624 232.322 152.852 230.41 152.479 228.362C151.976 225.596 151.427 222.832 150.875 220.075C149.76 214.532 148.568 209.008 147.394 203.478C145.147 192.891 142.98 182.279 141.551 171.547C141.122 168.362 136.16 168.871 136.582 172.069Z" fill="#E08F4C"/>
<path d="M166.845 157.688C169.203 160.746 170.792 164.469 172.437 167.934C175.039 173.411 177.448 178.976 179.819 184.556C181.883 189.406 183.894 194.287 185.865 199.172C186.487 200.703 187.1 202.237 187.703 203.775C188.334 205.371 188.439 207.536 189.45 208.85C189.962 209.518 190.866 210.049 191.745 209.885C192.851 209.678 193.469 209.158 194.18 208.313C196.247 205.839 192.4 202.663 190.339 205.124C190.631 205.056 190.929 204.991 191.22 204.923C191.985 205.268 192.751 205.613 193.516 205.958C193.958 206.541 193.284 204.565 193.207 204.277C193.11 203.895 192.958 203.52 192.811 203.147C192.64 202.694 192.459 202.244 192.284 201.797C191.657 200.21 191.024 198.62 190.381 197.034C188.316 191.915 186.202 186.819 184.041 181.741C181.75 176.359 179.396 170.994 176.886 165.705C175.136 162.016 173.408 158.038 170.907 154.786C168.943 152.251 164.88 155.138 166.845 157.688Z" fill="#E08F4C"/>
<path opacity="0.2" d="M125.166 387.134C131.575 371.267 168.138 253.516 172.341 238.779C175.733 226.899 184.618 197.181 186.705 185.064C187.541 180.232 185.808 169.832 181.94 166.124C178.512 162.838 172.289 158.928 167.146 158.834C160.438 156.355 151.853 154.127 148.197 160.042C143.154 168.202 142.529 183.44 141.48 192.763C140.26 203.636 132.248 257.183 128.913 273.209C124.437 294.727 114.897 388.934 115.288 396.897C115.747 406.209 122.849 392.871 125.166 387.134Z" fill="white"/>
<path d="M212.76 69.6644C203.881 67.2195 189.486 74.7843 182.53 79.8341C172.849 86.862 167.523 100.601 173.481 111.703C181.307 126.285 197.092 120.743 206.394 111.151C215.868 101.383 222.078 94.4315 235.065 89.7686C260.235 80.7318 220.25 63.4976 212.76 69.6644Z" fill="#F98F80"/>
<path opacity="0.7" d="M295.037 113.305C294.013 107.681 291.059 101.47 287.316 97.1975C280.524 89.4258 271.212 84.8291 265.655 75.9185C264.601 74.2236 261.177 70.0415 261.286 68.7632L257.167 66.3619C252.674 67.2592 250.911 71.9345 251.588 76.1674C251.996 78.7522 253.561 79.9946 255.087 81.9022C256.906 84.1799 258.125 86.7853 260.013 89.0477C264.133 93.9812 267.157 99.5253 271.793 104.2C275.055 107.497 278.205 111.18 281.956 113.937C284.885 116.085 288.509 119.959 292.19 120.506C296.74 121.184 295.615 116.481 295.037 113.305Z" fill="#DD6868"/>
<path d="M292.423 60.1853C292.423 60.1853 263.469 36.8767 254.79 57.0831C247.442 74.1998 295.513 114.833 295.513 114.833C295.513 114.833 333.382 79.3775 321.279 63.3427C309.109 47.2167 292.423 60.1853 292.423 60.1853Z" fill="#6D4032"/>
<path d="M323.519 68.8773C319.893 86.145 295.822 108.672 295.822 108.672C295.822 108.672 258.08 76.7615 254.602 57.5881C248.387 74.9848 295.512 114.823 295.512 114.823C295.512 114.823 325.948 86.3275 323.519 68.8773Z" fill="#3D231C"/>
<path d="M273.116 53.6672C267.431 52.969 263.211 57.6334 263.376 63.139C263.524 67.9848 267.426 72.4826 271.018 75.3214C274.231 77.8592 281.708 84.3826 282.348 76.0714C282.718 71.2673 275.019 67.3822 279.408 62.326C281.567 59.8322 284.954 60.3847 281.099 56.99C278.909 55.059 275.652 54.3197 272.978 53.9732L273.116 53.6672Z" fill="#8D5440"/>
<path d="M247.841 80.0771C248.495 81.4155 249.393 82.5721 250.298 83.7471C251.124 84.8251 252.433 86.1748 252.435 87.6178C252.44 89.2233 254.917 88.9517 254.916 87.3554C254.907 84.1755 251.474 81.853 250.172 79.1946C249.466 77.7643 247.132 78.6375 247.841 80.0771Z" fill="#6D4032"/>
<path d="M230.165 89.561C231.218 91.2247 232.45 92.831 233.025 94.7392C233.487 96.2826 235.818 95.3845 235.356 93.8568C234.717 91.7508 233.358 89.9492 232.198 88.1146C231.333 86.7502 229.31 88.2087 230.165 89.561Z" fill="#6D4032"/>
<path d="M223.162 82.8529C224.094 81.9765 225.272 81.3032 226.455 80.8393C227.949 80.2472 227.073 77.9191 225.573 78.5084C223.961 79.1397 222.509 80.0807 221.245 81.2677C220.75 81.7352 220.937 82.6324 221.412 83.0233C221.976 83.4921 222.661 83.3175 223.162 82.8529Z" fill="#6D4032"/>
<path d="M230.716 69.4277C233.001 69.5676 235.291 69.6102 237.549 70.0453C239.13 70.3512 239.513 67.8849 237.932 67.579C235.674 67.1439 233.384 67.1013 231.099 66.9614C229.509 66.8657 229.11 69.3326 230.716 69.4277Z" fill="#6D4032"/>
<path d="M234.566 79.1016C235.984 79.4954 237.327 80.1238 238.666 80.7273C240.133 81.3884 241.159 79.1122 239.692 78.4512C238.143 77.7528 236.592 77.0921 234.949 76.6353C234.294 76.455 233.62 77.0643 233.523 77.6724C233.414 78.406 233.914 78.915 234.566 79.1016Z" fill="#6D4032"/>
<path d="M242.897 66.4873C244.08 67.0283 245.851 67.7115 246.63 68.807C247.566 70.1186 249.592 68.6693 248.663 67.3606C247.602 65.8695 245.53 64.951 243.92 64.2175C242.459 63.5438 241.433 65.8199 242.897 66.4873Z" fill="#6D4032"/>
<path d="M190.347 71.8878C191.987 70.1034 194.401 69.0205 196.729 68.4668C198.267 68.1014 198.03 65.6162 196.467 65.9857C193.469 66.6978 190.54 67.9861 188.426 70.2934C187.338 71.4828 189.267 73.0736 190.347 71.8878Z" fill="#6D4032"/>
<path d="M195.691 80.7728C196.394 79.2484 197.281 77.8762 198.353 76.5874C199.38 75.3473 197.457 73.7592 196.433 74.993C195.226 76.4437 194.213 78.0276 193.425 79.7433C192.742 81.2075 195.018 82.2335 195.691 80.7728Z" fill="#6D4032"/>
<path d="M208.567 65.8725C210.167 65.8113 211.722 65.7989 213.282 66.2183C214.836 66.6348 215.203 64.1691 213.665 63.752C211.906 63.2811 210.104 63.3128 208.304 63.3914C206.701 63.4589 206.964 65.94 208.567 65.8725Z" fill="#6D4032"/>
<path d="M205.261 77.5683C205.557 79.3281 205.942 81.1281 205.717 82.9214C205.521 84.5131 207.985 84.9025 208.183 83.3044C208.434 81.2847 208.072 79.2959 207.742 77.3059C207.472 75.7266 204.988 75.9798 205.261 77.5683Z" fill="#6D4032"/>
<path d="M217.734 103.166C218.509 105.702 219.274 108.241 220.049 110.777C220.521 112.316 222.848 111.425 222.38 109.894C221.605 107.359 220.84 104.819 220.065 102.284C219.599 100.747 217.265 101.636 217.734 103.166Z" fill="#6D4032"/>
<path d="M242.705 109.713C245.134 109.228 247.546 109.525 249.979 109.847C251.571 110.058 251.961 107.595 250.362 107.38C247.734 107.032 245.073 106.707 242.443 107.232C240.881 107.548 241.122 110.027 242.705 109.713Z" fill="#6D4032"/>
<path d="M257.127 101.991C258.788 101.965 260.432 102.521 262.001 103.006C263.516 103.474 264.561 101.207 263.027 100.73C261.005 100.11 259.004 99.4768 256.865 99.5095C255.26 99.5302 255.528 102.014 257.127 101.991Z" fill="#6D4032"/>
<path d="M267.534 94.7833C269.078 95.9859 270.706 97.0724 272.251 98.2749C273.517 99.2601 275.112 97.3399 273.845 96.3547C272.3 95.1522 270.673 94.0656 269.128 92.8631C267.858 91.8686 266.264 93.7889 267.534 94.7833Z" fill="#6D4032"/>
<path d="M275.775 112.914C276.062 114.762 276.037 116.622 276.002 118.486C275.988 119.162 276.763 119.657 277.374 119.595C278.115 119.515 278.469 118.9 278.483 118.223C278.518 116.359 278.543 114.499 278.256 112.651C278.011 111.068 275.526 111.321 275.775 112.914Z" fill="#6D4032"/>
<path d="M267.275 120.849C267.546 122.068 267.82 123.281 268.091 124.501C268.237 125.165 268.73 125.686 269.463 125.61C270.083 125.544 270.718 124.902 270.572 124.238C270.301 123.019 270.027 121.806 269.756 120.587C269.61 119.923 269.117 119.401 268.384 119.477C267.767 119.537 267.123 120.182 267.275 120.849Z" fill="#6D4032"/>
<path d="M289.436 125.584C290.502 127.592 290.936 129.812 290.948 132.065C290.959 133.674 293.437 133.402 293.429 131.803C293.411 129.087 292.745 126.531 291.469 124.138C290.707 122.713 288.688 124.181 289.436 125.584Z" fill="#6D4032"/>
<path d="M330.916 101.462C332.117 100.499 333.467 99.9726 334.9 99.4298C336.408 98.859 335.526 96.5281 334.018 97.0989C332.399 97.7117 330.834 98.3411 329.469 99.4289C328.22 100.431 329.66 102.461 330.916 101.462Z" fill="#6D4032"/>
<path d="M326.897 91.7163C327.888 91.3729 329.006 91.4625 329.97 91.8589C331.45 92.4724 332.48 90.2055 330.996 89.5827C329.42 88.9261 327.635 88.8194 326.017 89.3789C324.489 89.9099 325.378 92.2437 326.897 91.7163Z" fill="#6D4032"/>
<path d="M315.479 104.974C316.718 106.123 317.751 107.287 317.597 109.074C317.464 110.663 319.928 111.068 320.063 109.457C320.294 106.715 319.005 104.845 317.074 103.054C315.893 101.962 314.312 103.888 315.479 104.974Z" fill="#6D4032"/>
<path d="M330.019 109.94C332.3 111.007 334.258 112.619 336.534 113.698C337.986 114.391 339.012 112.115 337.56 111.422C335.291 110.345 333.332 108.734 331.045 107.664C329.587 106.984 328.564 109.254 330.019 109.94Z" fill="#6D4032"/>
<path d="M305.793 123.637C307.096 124.271 307.801 125.532 308.31 126.836C308.902 128.33 311.233 127.448 310.641 125.953C309.878 124.021 308.732 122.292 306.816 121.368C305.37 120.662 304.344 122.938 305.793 123.637Z" fill="#6D4032"/>
<path d="M320.422 122.446C321.598 122.032 322.889 122.046 324.074 121.629C325.596 121.095 324.707 118.761 323.191 119.298C322.015 119.712 320.725 119.698 319.54 120.115C318.025 120.651 318.907 122.982 320.422 122.446Z" fill="#6D4032"/>
<path d="M327.955 141.835C329.09 142.346 330.231 142.861 331.366 143.372C332.832 144.033 333.858 141.757 332.392 141.096C331.257 140.585 330.116 140.07 328.981 139.559C327.514 138.898 326.488 141.174 327.955 141.835Z" fill="#6D4032"/>
<path d="M168.701 84.2702C168.19 85.4051 167.675 86.5464 167.164 87.6813C166.503 89.1477 168.779 90.1737 169.44 88.7073C169.952 87.5724 170.466 86.4312 170.978 85.2963C171.639 83.8298 169.363 82.8038 168.701 84.2702Z" fill="#6D4032"/>
<path d="M157.632 103.774C157.693 104.899 158.013 106.078 157.565 107.157C156.951 108.638 159.218 109.667 159.841 108.184C160.489 106.627 160.2 105.139 160.12 103.515C160.033 101.903 157.549 102.172 157.632 103.774Z" fill="#6D4032"/>
<path d="M188.84 92.0693C189.735 93.1633 190.7 94.2733 190.797 95.7438C190.902 97.3484 193.383 97.086 193.278 95.4813C193.148 93.574 192.045 92.0564 190.873 90.6229C189.859 89.3834 187.823 90.8205 188.84 92.0693Z" fill="#6D4032"/>
<path d="M181.064 78.0831C181.976 78.494 182.881 78.9022 183.793 79.3131C185.259 79.9742 186.285 77.698 184.819 77.037C183.907 76.626 183.002 76.2179 182.09 75.8069C180.624 75.1459 179.598 77.422 181.064 78.0831Z" fill="#6D4032"/>
<path d="M250.176 130.173C250.662 131.458 251.267 132.652 252.131 133.731C253.13 134.987 255.169 133.543 254.164 132.285C253.422 131.36 252.93 130.394 252.507 129.29C251.936 127.782 249.602 128.671 250.176 130.173Z" fill="#6D4032"/>
<path d="M280.767 161.745C282.103 160.652 283.444 159.668 285.059 159.031C286.553 158.439 285.671 156.108 284.176 156.7C282.365 157.417 280.824 158.487 279.32 159.712C278.074 160.723 279.521 162.756 280.767 161.745Z" fill="#6D4032"/>
<path d="M287.836 143.45C288.747 143.861 289.653 144.269 290.564 144.68C292.031 145.341 293.057 143.065 291.59 142.404C290.679 141.993 289.773 141.584 288.862 141.174C287.395 140.512 286.369 142.789 287.836 143.45Z" fill="#6D4032"/>
<path d="M200.716 125.514C201.628 125.925 202.533 126.333 203.445 126.744C204.912 127.405 205.938 125.129 204.471 124.468C203.559 124.057 202.654 123.649 201.742 123.238C200.276 122.577 199.25 124.853 200.716 125.514Z" fill="#6D4032"/>
<path d="M299.078 114.864C301.537 115.911 304.219 116.207 306.832 116.671C308.418 116.949 308.798 114.489 307.215 114.205C304.829 113.781 302.35 113.546 300.102 112.594C298.624 111.958 297.598 114.235 299.078 114.864Z" fill="#6D4032"/>
<path d="M318.643 97.2409C319.629 98.491 320.203 100.008 320.292 101.598C320.388 103.206 322.862 102.94 322.773 101.335C322.659 99.3583 321.899 97.3511 320.675 95.7945C319.682 94.526 317.649 95.9724 318.643 97.2409Z" fill="#6D4032"/>
<path d="M330.534 118.189C331.723 119.569 333.186 120.39 334.825 121.128C336.291 121.789 337.314 119.52 335.851 118.852C334.646 118.309 333.45 117.762 332.57 116.736C331.523 115.536 329.487 116.973 330.534 118.189Z" fill="#6D4032"/>
<path d="M213.306 72.0956C215.659 73.1029 218.193 73.386 220.639 72.5397C222.164 72.0152 221.275 69.6814 219.756 70.2088C217.938 70.839 216.067 70.5636 214.329 69.8258C212.857 69.1932 211.825 71.4664 213.306 72.0956Z" fill="#6D4032"/>
<path d="M219.617 63.2657C221.279 63.202 222.813 63.2875 224.364 63.9483C225.845 64.5775 226.868 62.3077 225.39 61.6721C223.422 60.8309 221.466 60.6935 219.357 60.7783C217.751 60.8522 218.013 63.3332 219.617 63.2657Z" fill="#6D4032"/>
<path d="M240.907 87.6362C242.124 89.1055 243.571 90.4403 244.303 92.2358C244.907 93.7202 247.242 92.847 246.634 91.3533C245.814 89.3266 244.311 87.8438 242.94 86.1898C241.914 84.9602 239.877 86.3974 240.907 87.6362Z" fill="#6D4032"/>
<path d="M247.4 96.9163C248.232 96.6544 249.445 97.4163 250.166 97.7411C251.632 98.4021 252.658 96.126 251.192 95.465C249.725 94.8039 248.146 94.0691 246.52 94.5789C244.981 95.0665 245.873 97.394 247.4 96.9163Z" fill="#6D4032"/>
<path d="M258.427 86.6979C259.526 87.2548 259.816 88.8583 259.879 89.9607C259.975 91.5689 262.45 91.3036 262.36 89.6983C262.24 87.6341 261.386 85.4084 259.45 84.4282C258.015 83.697 256.999 85.9697 258.427 86.6979Z" fill="#6D4032"/>
<path d="M251.077 74.1627C252.376 75.7225 253.903 77.2012 255.742 78.0915C257.191 78.7908 258.208 76.5181 256.768 75.8153C255.338 75.1246 254.119 73.9153 253.113 72.7099C252.081 71.493 250.051 72.9331 251.077 74.1627Z" fill="#6D4032"/>
<path d="M266.724 107.124C265.827 109.113 264.906 111.022 263.45 112.668C262.385 113.875 264.308 115.463 265.371 114.262C266.967 112.457 268.011 110.328 268.994 108.147C269.661 106.684 267.392 105.66 266.724 107.124Z" fill="#6D4032"/>
<path d="M276.639 106.39C278.865 107.494 280.423 109.738 281.726 111.783C282.595 113.141 284.624 111.685 283.759 110.336C282.209 107.904 280.3 105.433 277.662 104.121C276.215 103.399 275.196 105.678 276.639 106.39Z" fill="#6D4032"/>
<path d="M224.427 75.067C225.83 74.5411 227.247 74.0366 228.758 73.9508C230.366 73.8549 230.101 71.3802 228.496 71.4698C226.788 71.5666 225.136 72.1337 223.545 72.736C222.037 73.3068 222.919 75.6377 224.427 75.067Z" fill="#6D4032"/>
<path d="M229.698 63.8437C231.66 64.0685 233.358 64.7265 235.14 65.522C236.606 66.183 237.632 63.9069 236.166 63.2458C234.189 62.3549 232.248 61.6253 230.084 61.371C228.49 61.1972 228.1 63.6606 229.698 63.8437Z" fill="#6D4032"/>
<path d="M236.533 75.1881C238.992 76.235 241.674 76.531 244.287 76.9958C245.87 77.2796 246.253 74.8133 244.67 74.5294C242.284 74.1057 239.805 73.8704 237.557 72.9183C236.079 72.2828 235.056 74.5526 236.533 75.1881Z" fill="#6D4032"/>
<path d="M202.858 68.9817C205.475 71.0363 208.186 72.9714 210.804 75.0261C212.067 76.0177 213.662 74.0974 212.398 73.1059C209.78 71.0512 207.07 69.1161 204.452 67.0614C203.188 66.0699 201.594 67.9901 202.858 68.9817Z" fill="#6D4032"/>
</svg>
