<svg width="436" height="369" viewBox="0 0 436 369" fill="none" xmlns="http://www.w3.org/2000/svg">
<path d="M169.282 69.7666C169.282 69.7666 167.256 39.3554 136.53 23.23C102.056 5.13691 73.1115 7.44221 55.519 12.0295C35.6912 17.199 20.1595 51.3127 36.5527 74.0862C52.0611 95.6255 99.4709 105.976 99.4709 105.976C99.4709 105.976 19.1931 115.616 -14.0007 130.682C-24.328 135.374 -27.3318 148.182 -25.4922 151.651C-17.7381 166.298 10.7056 190.433 23.6292 190.433C36.5528 190.433 116.702 165.436 116.702 165.436C116.702 165.436 181.344 237.832 183.067 248.171C184.79 258.509 196.375 361.782 201.16 364.518C213.222 371.411 281.31 368.826 284.756 361.072C285.408 359.616 292.557 353.108 291.939 345.843C289.297 314.535 270.109 243.863 270.109 243.863C270.109 243.863 363.008 295.732 375.256 297.292C391.055 299.306 447.36 247.88 433.855 228.634C427.195 219.145 307.168 176.637 307.168 176.637L233.05 114.58C233.05 114.58 305.469 94.6125 313.77 88.1507C316.355 86.1365 321.862 76.077 318.369 72.3512C306.423 59.579 270.633 44.8508 260.632 42.1846C247.708 38.75 169.282 69.7666 169.282 69.7666Z" fill="#3D231C"/>
<path d="M176.186 55.9813C176.186 55.9813 174.16 25.5701 143.435 9.44471C108.96 -8.64834 82.6004 3.99585 65.008 8.58315C45.1918 13.7526 27.0638 37.5156 43.457 60.2891C58.9654 81.8285 106.375 92.179 106.375 92.179C106.375 92.179 -26.3421 123.207 -18.588 137.854C-10.8338 152.501 17.6097 176.637 30.5333 176.637C43.4569 176.637 123.607 151.639 123.607 151.639C123.607 151.639 188.248 224.035 189.971 234.374C191.694 244.712 203.279 347.985 208.064 350.721C220.126 357.614 288.214 355.029 291.66 347.275C295.106 339.521 277.013 230.066 277.013 230.066C277.013 230.066 370.087 286.08 382.16 283.495C394.234 280.91 441.62 234.374 433.005 226.619C424.389 218.865 314.073 162.84 314.073 162.84L239.954 100.795C239.954 100.795 324.412 80.9669 318.381 72.3511C312.35 63.7354 280.46 31.8455 267.536 28.3992C254.612 24.9529 176.186 55.9813 176.186 55.9813Z" fill="#E08F4C"/>
<path d="M141.709 20.6453C159.279 35.4317 125.072 47.1677 121.928 24.0449C118.936 1.96999 154.004 19.8652 141.709 31.8457V20.6453Z" fill="#DDB6A2"/>
<path d="M62.4216 36.1651C66.1241 29.3191 82.1797 27.1302 85.5212 35.4782C86.5924 38.1677 86.3943 40.6359 85.4047 42.6851C85.2766 46.2827 83.5535 49.962 79.6532 51.6735C70.4087 55.7369 56.8447 46.4923 62.4216 36.1651Z" fill="#DDB6A2"/>
<path d="M77.9413 33.1613L77.9297 33.1497C87.1043 34.5701 79.2104 47.4471 72.411 40.799C68.0449 36.5261 73.8198 32.684 77.9413 33.1613Z" fill="white"/>
<path d="M143.433 84.8558C147.136 78.0098 163.191 75.8209 166.533 84.1688C167.604 86.8583 167.406 89.3267 166.416 91.3758C166.288 94.9735 164.565 98.6526 160.665 100.364C151.42 104.427 137.856 95.1831 143.433 84.8558Z" fill="#DDB6A2"/>
<path d="M158.953 81.8519L158.941 81.8402C168.116 83.2607 160.222 96.1378 153.423 89.4897C149.057 85.2168 154.831 81.3745 158.953 81.8519Z" fill="white"/>
<path d="M165.846 106.838C169.548 99.9916 185.603 97.8027 188.945 106.151C190.016 108.84 189.818 111.308 188.829 113.358C188.701 116.955 186.977 120.634 183.077 122.346C173.821 126.398 160.257 117.153 165.846 106.838Z" fill="#DDB6A2"/>
<path d="M181.355 103.834L181.344 103.822C190.518 105.242 182.624 118.119 175.825 111.471C171.471 107.187 177.245 103.356 181.355 103.834Z" fill="white"/>
<path d="M189.971 131.392C193.673 124.546 209.728 122.358 213.07 130.694C214.141 133.383 213.943 135.852 212.954 137.901C212.826 141.498 211.102 145.178 207.202 146.889C197.958 150.964 184.394 141.72 189.971 131.392Z" fill="#DDB6A2"/>
<path d="M205.49 128.388L205.479 128.377C214.653 129.797 206.759 142.674 199.96 136.026C195.594 131.753 201.369 127.911 205.49 128.388Z" fill="white"/>
<path d="M135.25 16.7913L135.238 16.7797C144.413 18.2001 136.519 31.0772 129.72 24.4291C125.365 20.1445 131.128 16.314 135.25 16.7913Z" fill="white"/>
<path d="M95.908 54.5726C97.7243 52.3372 103.732 54.3513 105.851 54.7821C113.093 56.2724 125.656 54.6541 132.315 50.4859C135.692 48.3786 137.24 44.6412 140.826 43.0578C143.097 42.0448 146.624 41.8935 148.173 43.0694V43.0578C148.173 43.0694 148.185 43.0694 148.185 43.0811C148.639 43.4304 148.918 43.896 148.941 44.4898C153.517 55.4225 127.984 65.5052 120.591 66.3202C113.209 67.1352 106.736 67.1468 100.356 62.7691C98.3182 61.372 93.4979 57.5415 95.908 54.5726Z" fill="#DDB6A2"/>
<path d="M145.588 45.2117C145.483 45.1418 145.378 45.0836 145.274 45.037C145.239 44.9555 145.204 44.8624 145.157 44.7809L145.588 45.2117Z" fill="white"/>
<path d="M138.369 49.5311C140.267 47.3539 142.56 43.6981 145.273 45.037C147.637 50.4277 135.703 56.7032 131.442 55.9231C131.546 53.8506 136.669 51.4755 138.369 49.5311Z" fill="white"/>
<path d="M174.777 200.237C177.967 192.308 186.652 191.05 193.51 188.384C211.068 181.55 225.714 168.801 242.969 161.559C254.018 156.925 264.73 147.588 276.14 145.189C280.692 144.234 290.519 140.264 293.918 145.515C295.56 148.042 294.559 149.881 292.626 151.313C290.169 154.771 278.55 158.846 276.14 160.162C265.905 165.715 255.928 172.026 245.135 176.753C231.396 182.761 218.868 189.56 206.212 197.349C199.553 201.448 193.068 206.081 185.744 208.631C182.985 209.598 179.026 211.507 176.279 209.283C173.775 207.246 173.694 202.926 174.777 200.237Z" fill="#DDB6A2"/>
<path d="M239.943 165.11C248.523 160.325 259.305 159.324 267.222 153.91C270.889 151.406 273.591 148.822 277.852 147.32C278.841 146.97 283.499 144.712 284.325 144.828C285.129 144.945 285.664 145.236 285.967 145.608C291.497 149.276 276.746 153.944 274.091 154.748C267.268 156.785 262.017 160.173 255.893 164.248C250.281 167.986 242.667 172.69 236.077 174.378C226.623 176.799 236.624 166.961 239.943 165.11Z" fill="white"/>
</svg>
