<svg width="311" height="355" viewBox="0 0 311 355" fill="none" xmlns="http://www.w3.org/2000/svg">
<path d="M263.652 297.247C265.861 299.747 265.877 303.341 263.693 305.269C261.504 307.2 257.947 306.74 255.738 304.24L91.4533 118.241C89.244 115.741 89.2278 112.147 91.4125 110.219C93.6016 108.288 97.1582 108.749 99.3676 111.248L263.652 297.247Z" fill="#F7A767"/>
<path d="M92.4883 109.514C92.8771 109.8 93.2418 110.127 93.5739 110.502L257.858 296.501C260.068 299.001 260.084 302.595 257.899 304.523C257.571 304.815 257.205 305.044 256.819 305.232C258.987 306.823 261.831 306.915 263.688 305.273C265.873 303.345 265.857 299.751 263.648 297.251L99.3633 111.252C97.4897 109.133 94.6472 108.485 92.4883 109.514Z" fill="#D38A59"/>
<path d="M119.43 149.859L122.05 151.99L133.689 150.183L128.434 144.231L119.43 149.859Z" fill="#A06A45"/>
<path d="M130.441 60.1793C153.252 86.0017 150.804 125.427 124.982 148.237C99.1595 171.048 59.7343 168.601 36.9239 142.778C14.1135 116.956 16.5607 77.5305 42.3831 54.7201C68.2092 31.914 107.635 34.3533 130.441 60.1793Z" fill="#8D5440"/>
<path d="M88.4924 39.2838C96.3484 42.8118 103.595 48.0259 109.671 54.9003C132.481 80.7227 130.034 120.148 104.211 142.958C91.0405 154.589 74.3376 159.648 58.1065 158.395C79.761 168.112 106.038 164.973 124.986 148.238C150.809 125.428 153.252 86.0062 130.445 60.1802C119.262 47.5242 104.092 40.488 88.4924 39.2838Z" fill="#6D4032"/>
<path d="M120.576 45.7976L120.637 45.7475C97.2404 26.3022 61.7158 26.9086 37.2483 48.5204C14.3188 68.775 8.49705 100.944 21.3594 125.995C22.4763 129.71 24.9206 133.433 26.5471 136.421C29.0523 141.013 33.2089 148.376 37.9372 151.185C43.7786 154.652 50.7971 147.822 50.3608 142.012C49.9603 136.704 45.2924 128.456 50.8037 124.543C53.5467 122.593 55.0608 124.33 57.8847 124.044C60.9027 123.736 62.9652 121.121 63.9244 118.329C65.0966 114.9 64.383 112.363 67.4351 109.859C70.0138 107.745 73.5934 106.543 76.8709 105.949C83.7557 104.699 88.1423 108.695 93.3935 112.226C98.1524 115.426 104.203 121.554 110.454 119.235C116.764 116.89 115.711 108.28 113.205 103.323C110.517 98.0051 104.917 93.7688 102.855 88.2266C101.136 83.6054 102.45 76.5177 108.106 75.4865C110.684 75.0169 112.875 76.6988 115.482 75.0799C118.974 72.9134 117.348 70.7215 117.062 67.5616C116.321 59.2852 123.442 59.9144 128.694 62.065C135.266 64.7541 139.514 61.2478 134.701 55.2224C131.015 50.633 126.058 47.5823 120.576 45.7976Z" fill="#FFC7AE"/>
<path opacity="0.4" d="M90.4267 98.6156L90.1601 98.8502C92.1057 102.685 94.5191 106.733 97.5831 109.958C100.578 113.109 108.156 114.99 105.346 108.348C103.572 104.146 99.6117 99.3744 96.6697 95.9603C92.9367 91.6145 87.7451 94.4024 90.4267 98.6156Z" fill="white"/>
<path d="M106.086 99.5813C109.113 103.692 112.698 106.991 115.426 111.057C115.417 108.259 114.588 105.307 113.464 103.088C110.776 97.7695 105.176 93.5332 103.114 87.9909C101.838 84.5602 102.235 79.7774 104.83 77.1171C101.449 77.5418 98.4188 80.1084 98.1698 84.1333C97.8272 89.6376 103.083 95.5014 106.086 99.5813Z" fill="#DDB6A2"/>
<path d="M91.4608 111.009C89.1415 107.526 85.8445 103.222 82.3959 101.424C78.2875 99.2867 70.9544 98.6572 66.9451 101.214C60.7579 105.167 62.7978 115.752 59.1837 121.08C56.9158 124.419 52.3858 119.205 49.7627 119.734C47.1843 120.256 46.264 121.972 44.8488 124.177C40.9746 130.216 44.1528 133.376 44.6615 139.894C44.98 143.925 44.0191 149.034 41.1075 151.868C46.1236 152.212 50.9859 146.636 50.6186 141.776C50.2182 136.469 45.5501 128.221 51.0614 124.307C53.8045 122.357 56.1979 125.443 59.0181 125.152C62.0361 124.845 63.2229 120.886 64.1743 118.092C65.3464 114.664 64.633 112.127 67.6851 109.623C70.2637 107.509 73.826 106.905 77.1035 106.311C82.7093 105.299 87.3566 108.16 91.4608 111.009Z" fill="#DDB6A2"/>
<path d="M80.588 31.4865C81.0118 31.9912 81.3518 32.8279 82.0759 32.9532C93.7926 35.0182 103.469 38.8763 112.392 44.7228C117.874 48.3118 134.531 55.6024 130.197 62.6491C138.259 64.4805 139.179 58.8795 134.95 54.9864C114.449 36.102 95.1212 31.2925 80.588 31.4865Z" fill="#DDB6A2"/>
<path d="M117.32 67.3261C117.084 65.3152 117.719 63.1115 120.419 60.9053C118.435 60.2275 115.672 60.7994 114.139 65.6216C113.348 68.1144 115.317 71.9954 116.859 73.8993C118.981 71.8418 117.597 69.661 117.32 67.3261Z" fill="#DDB6A2"/>
<path d="M139.098 172.472L146.393 180.099L158.234 177.695L148.835 167.67L139.098 172.472Z" fill="#A06A45"/>
<path opacity="0.4" d="M35.3156 64.5621C30.1055 64.6998 27.6863 68.201 25.4715 72.3659C19.4596 83.645 19.3052 94.2082 20.9867 106.491C21.3778 109.345 24.9046 134.959 31.7595 128.126L33.1183 127.639C34.6923 127.538 31.8512 119.681 31.4248 118.032C30.1565 113.098 30.377 108.074 30.7067 102.996C31.0758 97.2145 32.7383 92.2566 35.2496 86.9999C37.5518 82.1712 40.852 78.9142 41.5068 73.4078C42.0759 68.6293 41.115 64.4127 35.3156 64.5621Z" fill="white"/>
<path opacity="0.4" d="M36.6301 135.549C32.2506 134.49 34.2704 138.636 33.8299 140.606L33.1674 139.042C32.8967 141.077 35.261 144.967 37.0685 145.981C40.1554 147.712 42.0605 144.694 41.3507 141.825C40.8709 139.899 38.8084 136.073 36.6301 135.549Z" fill="white"/>
<path d="M38.4915 42.9381C35.2138 44.6649 28.1383 49.9571 28.2834 54.2118C28.4369 58.6713 32.03 57.6627 34.9154 55.3543C37.9567 53.7569 41.5544 50.8605 42.3639 50.0097C46.6912 45.4668 45.0304 39.4909 38.4915 42.9381Z" fill="#F97673"/>
<path d="M68.8681 31.3533C65.8394 32.1078 66.5221 35.5098 66.5809 37.5718C66.8537 47.4757 55.011 57.9369 46.2061 65.7081C41.3376 70.0113 36.4812 73.8955 31.0457 77.1842C28.1493 78.9395 17.1193 82.6612 18.1294 76.1166C18.2841 76.0474 18.4285 76.0013 18.2473 75.7199C18.2307 75.7263 18.2142 75.7327 18.1976 75.7391C18.2049 75.7038 18.2079 75.6721 18.2161 75.6289L18.1686 75.7483C15.3797 76.5898 13.8721 80.8064 15.0663 83.5451C16.4319 86.6683 19.9732 86.9951 23.1058 86.7026C30.2107 86.038 36.2166 81.0955 41.9541 77.0755C46.581 73.8335 51.0697 69.7781 55.0921 65.494C72.1888 47.2859 74.1002 39.8514 73.6637 36.677C73.3518 34.4588 71.7084 30.6448 68.8681 31.3533ZM17.9753 76.222L17.9125 76.376C17.915 76.3082 17.9434 76.2629 17.9753 76.222Z" fill="#F97673"/>
<path d="M80.5135 31.5949C86.7232 32.2169 88.0735 38.5512 86.7695 44.1115C85.3792 50.0717 81.7099 54.0934 77.5763 58.5349C73.1355 63.303 68.3461 68.1178 63.2683 72.601C58.9119 76.445 53.6506 81.0066 50.7168 85.9549C45.8348 94.2055 50.3854 99.6657 53.8691 91.2694C56.2083 85.6361 60.8587 82.3163 65.2185 78.0605C73.3159 70.1575 84.0506 62.8309 90.5669 53.7645C93.9409 49.0663 95.8095 42.7479 93.4862 37.2167C92.2702 34.3279 90.0355 31.5496 87.1975 30.1019C85.0651 29.0138 79.5695 28.8321 80.0045 31.5622L80.5135 31.5949Z" fill="#F97673"/>
<path d="M31.3238 50.2135C30.216 51.4638 29.1134 55.295 31.924 55.2318C34.5139 55.1755 35.4552 50.9807 36.8463 49.4455C37.535 48.6872 39.2663 47.7767 39.3416 46.6557C39.443 45.1771 38.1183 45.0144 37.0717 45.3743C35.4834 45.9185 31.8197 49.2127 31.1721 50.587L31.3238 50.2135Z" fill="#F98F80"/>
<path d="M16.1512 80.3233C16.1788 80.2859 16.2135 80.2573 16.2447 80.2242C16.2653 80.1342 16.2772 80.0514 16.2986 79.9534L16.1512 80.3233Z" fill="#F98F80"/>
<path d="M36.9933 75.2845C33.915 77.6865 30.4923 79.5475 26.6873 80.3878C23.0829 81.1792 20.0537 82.3576 16.8121 79.7751C16.6284 79.8975 16.4012 80.0558 16.2367 80.2281C14.7743 86.9415 26.3258 83.4977 29.0504 82.2421C31.6326 81.0528 34.5936 79.6678 36.8158 78.0601C37.4735 77.5829 40.0162 75.7617 40.0256 74.9945C40.0611 72.8255 37.6165 74.792 36.9933 75.2845Z" fill="#F98F80"/>
<path d="M71.5571 67.6648C70.0704 67.6066 65.9415 72.1245 64.6311 73.0674C62.2339 74.7904 60.0168 76.8467 58.2933 79.1383C56.474 81.5527 54.5483 83.4489 52.317 85.6119C50.9058 86.9812 47.7444 90.9634 49.9634 92.944L50.2298 92.7095C50.2275 92.9013 49.9092 92.7989 50.066 93.0419C50.3545 92.8695 50.629 92.6357 50.8307 92.3669C52.4122 90.2218 53.6088 87.5837 55.2523 85.4165C56.9511 83.1746 58.717 81.1912 60.6781 79.1344C62.666 77.0481 64.7117 74.9434 67.0374 73.0895C67.8214 72.4644 73.9804 67.7606 71.5571 67.6648Z" fill="#F98F80"/>
<path d="M135.034 158.036C126.194 163.332 115.424 166.43 108.683 174.703C105.551 178.544 104.643 183.398 107.644 187.618C110.716 191.933 115.831 194.546 121.092 193.037C132.063 189.89 134.766 176.858 137.68 167.479C139.546 161.477 142.93 155.923 146.136 150.553C149.129 145.526 154.272 140.617 160.308 139.834C166.266 139.064 167.257 147.156 163.95 150.529C162.3 152.211 159.745 152.955 157.613 153.787C155.04 154.793 152.359 155.473 149.655 156.01C145.136 156.906 140.634 157.336 136.258 158.874C132.992 160.021 135.397 164.828 138.618 163.696C143.345 162.036 148.475 161.855 153.334 160.707C158.508 159.482 165.062 157.68 168.561 153.39C173.32 147.556 171.69 138.035 164.51 135.095C160.106 133.29 154.981 135.38 151.257 137.752C145.215 141.607 141.94 147.071 138.521 153.165C135.675 158.238 133.26 163.24 131.704 168.848C130.217 174.223 128.629 179.58 125.078 183.993C122.476 187.229 118.346 189.454 114.521 186.996C110.397 184.345 110.429 180.623 113.529 177.283C119.956 170.372 129.498 167.601 137.401 162.868C140.343 161.089 138.005 156.256 135.034 158.036Z" fill="#DD6868"/>
<path d="M133.263 156.023C124.423 161.318 113.653 164.416 106.912 172.689C103.78 176.53 102.872 181.384 105.876 185.609C108.948 189.923 114.063 192.537 119.324 191.028C130.295 187.881 132.998 174.849 135.912 165.47C137.778 159.467 141.162 153.914 144.368 148.543C147.362 143.517 152.504 138.608 158.536 137.828C164.495 137.058 165.485 145.15 162.178 148.523C160.528 150.205 157.973 150.949 155.841 151.781C153.268 152.787 150.587 153.467 147.883 154.004C143.364 154.9 138.862 155.33 134.487 156.868C131.22 158.015 133.625 162.822 136.846 161.69C141.573 160.03 146.704 159.849 151.562 158.701C156.736 157.476 163.29 155.674 166.789 151.384C171.548 145.55 169.918 136.029 162.738 133.089C158.334 131.284 153.209 133.374 149.485 135.746C143.439 139.605 140.168 145.065 136.749 151.159C133.903 156.232 131.488 161.234 129.932 166.842C128.445 172.217 126.857 177.574 123.306 181.987C120.704 185.223 116.574 187.448 112.749 184.99C108.626 182.339 108.657 178.617 111.757 175.277C118.184 168.367 127.726 165.595 135.629 160.862C138.568 159.079 136.229 154.246 133.263 156.023Z" fill="#F97673"/>
<path d="M165.622 206.439C159.024 200.543 153.379 193.81 149.422 185.866C145.626 178.249 143.857 169.851 143.261 161.404C141.897 162.326 140.528 163.251 139.16 164.168C142.672 166.849 146.855 167.873 151.125 168.657C156.244 169.595 161.291 170.286 166.178 172.19C169.949 173.663 173.447 176.158 176.712 178.503C180.332 181.101 183.968 184.03 186.557 187.706C188.547 190.533 192.551 186.951 190.578 184.154C185.714 177.243 177.356 171.647 169.848 167.992C165.214 165.741 160.181 164.739 155.136 163.908C150.563 163.155 145.883 162.563 142.099 159.669C140.033 158.095 137.851 160.37 137.998 162.433C138.614 171.125 140.577 179.591 144.261 187.504C148.297 196.164 154.519 203.649 161.606 209.98C164.144 212.267 168.194 208.741 165.622 206.439Z" fill="#DD6868"/>
<path d="M163.593 208.465C156.996 202.569 151.351 195.836 147.394 187.892C143.598 180.275 141.832 171.881 141.232 163.43C139.868 164.352 138.499 165.277 137.131 166.194C140.643 168.875 144.826 169.899 149.096 170.683C154.215 171.621 159.262 172.312 164.149 174.216C167.921 175.689 171.419 178.184 174.683 180.528C178.303 183.127 181.94 186.056 184.529 189.732C186.519 192.559 190.522 188.977 188.549 186.18C183.685 179.269 175.327 173.673 167.819 170.018C163.186 167.766 158.152 166.765 153.107 165.934C148.534 165.181 143.858 164.585 140.07 161.694C138.004 160.121 135.826 162.401 135.969 164.459C136.586 173.151 138.548 181.617 142.232 189.53C146.269 198.19 152.49 205.674 159.578 212.006C162.119 214.297 166.173 210.768 163.593 208.465Z" fill="#F97673"/>
<path d="M137.967 151.68C135.969 152.489 134.409 154.04 132.787 155.481C131.326 156.781 129.756 157.171 128.811 158.769C126.506 161.117 129.89 167.614 131.573 169.503C133.134 171.253 137.625 172.155 139.906 171.397C145.788 169.455 151.286 162.712 147.932 156.666C145.946 153.091 142.304 149.918 137.967 151.68Z" fill="#DD6868"/>
<path d="M134.871 152.504C132.874 153.313 131.313 154.864 129.691 156.305C128.23 157.606 126.661 157.995 125.716 159.593C123.411 161.941 126.794 168.438 128.478 170.328C130.038 172.077 134.529 172.979 136.81 172.221C142.693 170.279 148.191 163.536 144.841 157.486C142.854 153.912 139.217 150.743 134.871 152.504Z" fill="#F97673"/>
<path opacity="0.4" d="M131.215 155.375C127.207 158.792 125.241 162.869 126.582 165.874C127.837 168.686 131.913 170.237 136.498 165.926C139.677 162.938 139.281 157.919 138.028 155.623C137.075 153.875 131.487 153.997 131.362 156.049L131.215 155.375Z" fill="white"/>
</svg>
