<svg width="466" height="831" viewBox="0 0 466 831" fill="none" xmlns="http://www.w3.org/2000/svg">
<path fill-rule="evenodd" clip-rule="evenodd" d="M100.797 761.606C200.986 751.151 317.339 819.62 397.832 759.055C473.218 702.333 477.245 585.327 448.5 495.5C420.5 408 356.535 350 330 269.915C300.146 179.811 403.823 99.5303 350.5 21C295.531 -59.9544 143.842 -140.602 46.2418 -147.982C-50.0652 -155.266 -141.855 -103.89 -220.276 -47.5059C-288.876 1.81683 -317.639 85.3262 -370.223 151.452C-422.949 217.756 -522.179 258.619 -530.719 342.884C-539.311 427.666 -444.152 485.445 -412.069 564.384C-380.342 642.445 -410.211 751.615 -343.612 803.248C-276.882 854.982 -178.763 818.329 -94.6768 810.45C-26.651 804.076 32.8416 768.697 100.797 761.606Z" fill="white"/>
</svg>
