<svg width="602" height="1064" viewBox="0 0 602 1064" fill="none" xmlns="http://www.w3.org/2000/svg">
<path fill-rule="evenodd" clip-rule="evenodd" d="M122.796 795.606C222.985 785.15 339.338 853.62 419.831 793.055C495.217 736.333 498.382 616.173 485.427 522.753C473.489 436.659 379.336 386.42 352 303.915C322.145 213.811 374.076 104.276 320.752 25.7455C265.783 -55.209 165.841 -106.602 68.241 -113.983C-28.066 -121.266 -119.856 -69.8899 -198.277 -13.506C-266.876 35.8166 -295.639 119.326 -348.224 185.452C-400.949 251.756 -500.18 292.619 -508.72 376.884C-517.311 461.666 -422.153 519.444 -390.069 598.384C-358.343 676.445 -388.212 785.615 -321.613 837.247C-254.883 888.981 -156.764 852.329 -72.6777 844.45C-4.65187 838.075 54.8408 802.697 122.796 795.606Z" fill="#C4FFF2"/>
</svg>
