<svg width="40" height="40" viewBox="0 0 40 40" fill="none" xmlns="http://www.w3.org/2000/svg">
<circle cx="20" cy="20" r="20" fill="white"/>
<path d="M31.8674 25.8816C31.8371 25.8164 31.8089 25.7622 31.7827 25.7189C31.349 24.9377 30.5201 23.9788 29.2966 22.842L29.2707 22.816L29.2578 22.8032L29.2447 22.7901H29.2316C28.6763 22.2608 28.3246 21.9049 28.1774 21.7226C27.9079 21.3755 27.8476 21.0241 27.9948 20.6681C28.0989 20.3991 28.4897 19.8311 29.1663 18.9632C29.5222 18.5032 29.8041 18.1346 30.0123 17.8568C31.5136 15.8609 32.1645 14.5854 31.9648 14.03L31.8873 13.9002C31.8352 13.8221 31.7007 13.7506 31.484 13.6854C31.2668 13.6203 30.9892 13.6096 30.6507 13.6529L26.9021 13.6788C26.8413 13.6573 26.7546 13.6593 26.6416 13.6854C26.5288 13.7115 26.4724 13.7246 26.4724 13.7246L26.4071 13.7572L26.3553 13.7963C26.3119 13.8222 26.2642 13.8678 26.2121 13.9329C26.1602 13.9977 26.1169 14.0739 26.0822 14.1606C25.6741 15.2106 25.2101 16.1869 24.6893 17.0893C24.3682 17.6274 24.0733 18.0937 23.804 18.4886C23.5351 18.8833 23.3095 19.1741 23.1274 19.3605C22.945 19.5472 22.7804 19.6966 22.6326 19.8096C22.4851 19.9225 22.3724 19.9703 22.2944 19.9528C22.2162 19.9354 22.1426 19.918 22.0729 19.9007C21.9515 19.8226 21.8538 19.7163 21.7802 19.5818C21.7062 19.4473 21.6565 19.278 21.6304 19.0741C21.6045 18.87 21.5892 18.6945 21.5848 18.5469C21.5808 18.3995 21.5826 18.1911 21.5914 17.9221C21.6005 17.653 21.6045 17.4709 21.6045 17.3754C21.6045 17.0456 21.611 16.6877 21.6239 16.3015C21.637 15.9154 21.6476 15.6094 21.6565 15.384C21.6653 15.1584 21.6694 14.9197 21.6694 14.668C21.6694 14.4163 21.6541 14.219 21.6239 14.0757C21.5939 13.9327 21.548 13.7938 21.4875 13.6592C21.4267 13.5247 21.3376 13.4206 21.2207 13.3468C21.1036 13.273 20.958 13.2145 20.7847 13.171C20.3247 13.0669 19.739 13.0106 19.0273 13.0019C17.4133 12.9845 16.3763 13.0887 15.9164 13.3144C15.7341 13.4097 15.5692 13.54 15.4218 13.7047C15.2656 13.8957 15.2438 13.9999 15.3566 14.0171C15.8773 14.0951 16.2459 14.2817 16.4629 14.5767L16.5411 14.733C16.6019 14.8458 16.6626 15.0455 16.7234 15.3318C16.7841 15.6181 16.8233 15.9348 16.8405 16.2818C16.8838 16.9153 16.8838 17.4577 16.8405 17.9089C16.797 18.3602 16.756 18.7116 16.7169 18.9632C16.6777 19.2149 16.6192 19.4188 16.5411 19.575C16.4629 19.7312 16.4109 19.8266 16.3848 19.8613C16.3588 19.8959 16.3371 19.9178 16.3198 19.9263C16.2071 19.9695 16.0898 19.9916 15.9683 19.9916C15.8468 19.9916 15.6993 19.9307 15.5258 19.8092C15.3523 19.6877 15.1723 19.5207 14.9857 19.3081C14.7991 19.0954 14.5886 18.7982 14.3543 18.4164C14.1201 18.0346 13.8771 17.5834 13.6254 17.0628L13.4172 16.6852C13.287 16.4423 13.1092 16.0886 12.8836 15.6244C12.6578 15.1601 12.4583 14.711 12.2848 14.2771C12.2155 14.0948 12.1113 13.9561 11.9725 13.8606L11.9073 13.8215C11.864 13.7868 11.7945 13.75 11.6991 13.7108C11.6036 13.6717 11.5039 13.6436 11.3997 13.6263L7.83321 13.6522C7.46876 13.6522 7.22148 13.7348 7.09127 13.8997L7.03916 13.9777C7.01313 14.0211 7 14.0905 7 14.186C7 14.2815 7.02603 14.3987 7.07814 14.5374C7.59879 15.761 8.16498 16.9411 8.77671 18.0779C9.38844 19.2147 9.92003 20.1303 10.3711 20.8241C10.8224 21.5184 11.2823 22.1737 11.7509 22.7896C12.2195 23.4058 12.5297 23.8007 12.6815 23.9741C12.8334 24.1479 12.9528 24.2779 13.0396 24.3646L13.365 24.677C13.5733 24.8853 13.8791 25.1347 14.2826 25.4254C14.6862 25.7162 15.1331 26.0025 15.6234 26.2847C16.1137 26.5665 16.6842 26.7965 17.3351 26.9744C17.9859 27.1524 18.6193 27.2238 19.2355 27.1894H20.7324C21.036 27.1631 21.266 27.0677 21.4223 26.9029L21.4741 26.8377C21.509 26.7859 21.5416 26.7054 21.5717 26.5971C21.6021 26.4887 21.6172 26.3692 21.6172 26.2392C21.6084 25.8661 21.6368 25.5299 21.7017 25.2306C21.7666 24.9313 21.8405 24.7057 21.9232 24.5537C22.0059 24.4019 22.0991 24.2738 22.2029 24.1699C22.307 24.0659 22.3811 24.0028 22.4246 23.9811C22.4678 23.9593 22.5023 23.9445 22.5284 23.9356C22.7366 23.8662 22.9817 23.9334 23.264 24.1375C23.5461 24.3414 23.8106 24.5932 24.0581 24.8925C24.3054 25.192 24.6026 25.528 24.9496 25.9011C25.2969 26.2743 25.6005 26.5517 25.8608 26.7342L26.121 26.8904C26.2948 26.9946 26.5204 27.0901 26.7982 27.1769C27.0754 27.2636 27.3183 27.2853 27.5269 27.2419L30.8589 27.19C31.1885 27.19 31.445 27.1354 31.6269 27.0271C31.8091 26.9186 31.9174 26.7991 31.9523 26.6692C31.9872 26.5391 31.989 26.3914 31.959 26.2264C31.9281 26.0618 31.8977 25.9467 31.8674 25.8816Z" fill="#EF859E"/>
</svg>
