<svg width="814" height="896" viewBox="0 0 814 896" fill="none" xmlns="http://www.w3.org/2000/svg">
<path fill-rule="evenodd" clip-rule="evenodd" d="M105.902 772.026C22.7 736.617 -93.2519 765.705 -146.547 692.657C-199.741 619.747 -165.001 516.474 -144.705 428.534C-126.45 349.439 -96.2972 272.081 -36.7473 216.917C19.8896 164.452 101.868 162.966 173.381 133.875C267.787 95.4713 374.269 -50.1099 448.81 19.396C536.359 101.033 361.911 267.516 425.48 368.948C494.784 479.531 751.399 400.064 803.998 519.5C848.785 621.195 718.987 685.118 632.999 755.5C558.998 816.07 443.498 906.237 328.252 894.72C241.907 886.092 185.748 806.007 105.902 772.026Z" fill="white"/>
</svg>
