<svg width="989" height="896" viewBox="0 0 989 896" fill="none" xmlns="http://www.w3.org/2000/svg">
<path fill-rule="evenodd" clip-rule="evenodd" d="M280.904 772.026C197.702 736.617 81.7501 765.705 28.455 692.657C-24.7387 619.747 10.0006 516.474 30.2969 428.534C48.5519 349.439 78.7047 272.081 138.255 216.917C194.892 164.452 276.87 162.966 348.383 133.875C442.789 95.4713 549.271 -50.1099 623.812 19.396C711.361 101.033 536.913 267.516 600.482 368.948C669.786 479.531 926.401 400.064 979 519.5C1023.79 621.195 893.989 685.118 808.001 755.5C734 816.07 618.5 906.237 503.254 894.72C416.909 886.092 360.75 806.007 280.904 772.026Z" fill="white"/>
</svg>
