<svg width="304" height="332" viewBox="0 0 304 332" fill="none" xmlns="http://www.w3.org/2000/svg">
<path d="M138.902 193.155C126.299 188.469 113.671 183.818 100.968 179.403C92.602 176.498 84.2024 173.699 75.7581 171.055C75.6867 170.748 75.5677 170.442 75.3825 170.132C72.2272 164.778 69.256 159.327 66.4891 153.753C64.7242 150.2 58.8629 152.301 60.6427 155.876C62.759 160.129 64.9746 164.32 67.2968 168.461C62.0753 166.904 56.8274 165.417 51.5597 164.003C51.7152 165.505 51.8823 167.005 52.0495 168.506C52.2673 170.513 52.5036 172.523 52.7574 174.532C54.1923 173.704 55.6032 172.833 56.9843 171.917C70.9859 175.863 84.816 180.352 98.5654 185.127C111.218 189.519 123.795 194.153 136.342 198.822C140.066 200.212 142.657 194.558 138.902 193.155Z" fill="#9B500D"/>
<path d="M76.8612 159.116C76.7675 158.998 76.6695 158.891 76.5707 158.779C75.8228 157.931 75.0648 157.096 74.2849 156.276C74.1254 156.112 73.9644 155.937 73.7998 155.78C70.4268 152.259 66.7287 148.895 62.7773 146.044C61.0823 144.816 59.2318 143.896 57.4841 142.764C56.1355 141.89 55.4715 140.558 54.3251 139.501C53.4306 138.672 52.0029 138.316 50.9528 138.942C50.5106 139.205 50.1711 139.609 49.9009 140.04C48.566 142.179 48.8475 144.966 49.6551 147.359C50.7207 150.512 52.553 153.328 55.1414 155.42C54.4506 155.125 53.7714 154.829 53.0864 154.534C53.0672 154.524 53.0481 154.515 53.023 154.506C52.4398 154.257 51.8625 154.006 51.28 153.763C52.2177 155.66 52.4535 158.065 52.8953 160.006C53.6266 163.204 54.2575 166.409 54.7331 169.66C55.114 172.254 55.2187 174.838 55.2781 177.439C55.7149 179.035 56.0595 180.654 56.3162 182.286C56.3902 182.569 56.4592 182.858 56.5099 183.144C56.5806 183.534 56.6815 183.927 56.712 184.329C56.7165 184.406 56.7143 184.478 56.743 184.557C58.053 184.661 59.3589 184.735 60.6677 184.785C61.0232 184.808 61.3764 184.814 61.7304 184.826C62.937 184.872 64.1455 184.887 65.3583 184.891C65.5015 184.889 65.6446 184.888 65.7877 184.886C66.5343 184.887 67.2786 184.87 68.0287 184.852C70.4213 180.156 72.6196 175.35 74.7386 170.53C76.071 167.489 77.3334 164.416 78.4247 161.27C78.4511 161.201 78.4667 161.139 78.4939 161.075C77.9623 160.413 77.4197 159.757 76.8612 159.116Z" fill="#D10505"/>
<path d="M76.3067 317.971L63.5563 319.696L55.8145 254.141L42.023 137.301L39.6348 117.092L36.8085 93.0714L35.4745 81.8448L41.5095 81.0282L42.7716 89.6486L46.6377 116.013L49.3982 134.78L69.6279 272.542L76.3067 317.971Z" fill="#9B500D"/>
<path d="M49.3972 134.781C46.9624 135.677 44.5028 136.524 42.0213 137.296L35.4735 81.8449L41.5027 81.0291L49.3972 134.781Z" fill="#8C4307"/>
<path d="M62.4884 31.3662L69.307 81.7576C71.6157 98.8187 59.6633 114.519 42.5964 116.828C25.5354 119.137 9.83463 107.179 7.52602 90.1175L0.707319 39.7261C0.405747 37.4974 1.9685 35.4525 4.19131 35.1517L57.9081 27.883C58.4007 27.8164 58.8818 27.8409 59.3314 27.9413C60.9508 28.3015 62.2534 29.6302 62.4884 31.3662Z" fill="#6FAE99"/>
<path d="M62.4879 31.3666L69.3066 81.758C71.6152 98.819 59.6629 114.519 42.5959 116.828C25.5349 119.137 9.83413 107.179 7.52552 90.1179L6.81127 84.8395C7.63379 85.6658 8.48754 86.458 9.37837 87.2154C15.4269 92.3693 23.4461 95.6678 31.3113 94.5618C38.0227 93.6237 44.0415 89.5544 48.2566 84.248C52.4709 78.9357 55.0123 72.4702 56.5936 65.8838C59.5829 53.5048 59.3511 40.7137 59.3293 27.9299C60.9503 28.3018 62.2529 29.6306 62.4879 31.3666Z" fill="#5F9E87"/>
<path d="M6.8437 44.3251C6.76677 43.1829 6.70613 41.9847 7.16754 40.9368C8.09972 38.8219 10.6847 38.1078 12.9514 37.6458C19.9367 36.2169 26.9514 34.7839 34.0726 34.4474C35.4315 34.3829 37.1575 34.6033 37.5664 35.9037C38.0178 37.3416 36.4037 38.5216 35.0396 39.166C33.0801 40.0881 31.1013 41.0009 29.2697 42.1626C23.3687 45.9114 19.259 52.3501 18.3331 59.2779C17.9565 62.1 18.0841 64.9853 17.5428 67.7819C17.24 69.3399 16.701 70.9178 15.5886 72.0538C14.4762 73.1897 12.6857 73.7724 11.2401 73.108C9.1897 72.1671 9.13649 69.7436 9.18592 67.8138C9.23959 65.6505 8.94981 63.6413 8.64683 61.4904C7.83359 55.7894 7.23228 50.0657 6.8437 44.3251Z" fill="#7BB7A1"/>
<path d="M76.3057 317.971L63.5554 319.696L55.8136 254.141C59.8069 260.701 64.4359 266.884 69.627 272.542L76.3057 317.971Z" fill="#8C4307"/>
<path d="M98.5553 185.129C111.208 189.52 123.785 194.155 136.332 198.824C140.067 200.212 142.659 194.557 138.897 193.155C126.295 188.47 113.667 183.818 100.964 179.404C100.082 181.273 99.2778 183.185 98.5553 185.129Z" fill="#874006"/>
<path d="M268.783 227.897C268.436 262.894 242.982 296.702 208.67 307.729C179.571 317.071 146 309.43 123.748 289.705C119.752 286.173 116.126 282.238 112.949 277.955C106.913 269.808 102.654 260.536 100.176 250.784C95.0858 230.82 97.4397 208.846 107.161 190.384C109.113 186.674 111.365 183.103 113.918 179.723C114.424 179.046 114.943 178.384 115.476 177.727C116.503 176.447 117.559 175.205 118.674 173.997C142.266 148.146 182.7 137.831 215.437 150.607C231.44 156.851 245.077 168.163 254.538 182.166C257.357 186.317 259.795 190.694 261.833 195.249C264.287 200.758 266.141 206.521 267.311 212.425C268.319 217.496 268.836 222.682 268.783 227.897Z" fill="white"/>
<path d="M267.304 212.42C256.019 215.745 244.083 216.822 232.41 215.476C224.953 214.609 217.534 212.752 210.93 209.185C204.327 205.623 198.564 200.245 195.314 193.482C193.647 190.035 193.133 186.151 192.27 182.421C178.208 192.942 160.861 198.831 143.322 199.771C135.144 200.197 126.811 199.569 119.074 196.859C114.798 195.359 110.706 193.19 107.162 190.384C109.114 186.674 111.366 183.103 113.919 179.723C114.424 179.046 114.944 178.384 115.476 177.727C116.504 176.447 117.56 175.205 118.674 173.997C142.267 148.146 182.701 137.831 215.438 150.608C231.441 156.851 245.077 168.163 254.539 182.166C257.358 186.317 259.796 190.694 261.834 195.249C264.281 200.759 266.136 206.522 267.304 212.42Z" fill="#F2F2F2"/>
<path d="M145.709 297.913C162.42 299.373 180.15 297.816 196.463 294.038C211.403 290.577 227.369 284.809 238.35 273.666C249.687 262.164 257.226 246.154 259.109 230.192C260.098 221.828 259.177 213.526 258.043 205.228C257.052 197.951 255.974 190.954 253.413 184.163C253.743 183.474 254.119 182.808 254.54 182.171C257.353 186.318 259.797 190.699 261.829 195.256C266.399 205.501 268.895 216.624 268.785 227.903C268.445 262.905 242.984 296.707 208.672 307.735C182.836 316.032 153.491 310.931 131.656 295.879C136.266 296.802 140.946 297.495 145.709 297.913Z" fill="#F2F2F2"/>
<path d="M209.468 118.389C209.5 119.155 209.507 119.912 209.496 120.672C209.483 122.698 209.328 124.726 209.052 126.752C205.897 149.557 186.466 169.483 163.167 173.8C139.857 178.125 114.481 166.52 103.217 146.395C99.962 140.564 97.9553 134.165 97.156 127.596C96.9998 126.309 96.8831 125.005 96.8207 123.705C96.5782 119.044 96.9351 114.355 97.8487 109.764C99.7969 99.9749 104.319 90.6732 111.235 83.2574C111.507 82.9698 111.778 82.6763 112.045 82.4013C113.182 81.2262 114.382 80.1202 115.625 79.0622C133.18 64.1628 160.409 60.8187 180.696 71.8876C186.661 75.1475 191.893 79.5219 196.225 84.6572C204.229 94.1093 209.07 106.139 209.468 118.389Z" fill="white"/>
<path d="M209.465 118.389C194.576 108.632 178.682 100.678 161.22 98.0775C139.636 94.8585 117.605 100.247 97.8469 109.77C99.7951 99.9809 104.318 90.6791 111.233 83.2634C111.505 82.9758 111.776 82.6823 112.043 82.4072C113.18 81.2321 114.38 80.1262 115.623 79.0682C133.178 64.1688 160.407 60.8247 180.694 71.8936C186.659 75.1535 191.892 79.5279 196.224 84.6632C204.227 94.1094 209.068 106.14 209.465 118.389Z" fill="#F2F2F2"/>
<path d="M208.511 129.818C204.122 151.315 185.41 169.673 163.16 173.801C140.852 177.936 116.645 167.469 104.746 148.911C135.885 173.006 190.766 164.941 208.511 129.818Z" fill="#F2F2F2"/>
<path d="M145.242 213.074C143.565 207.126 147.027 200.936 152.976 199.259C158.924 197.582 165.114 201.044 166.791 206.993C168.468 212.941 165.006 219.131 159.057 220.808C153.104 222.492 146.92 219.028 145.242 213.074Z" fill="#F2F2F2"/>
<path d="M168.441 247.804C171.462 242.408 169.538 235.585 164.142 232.563C158.746 229.541 151.923 231.466 148.901 236.861C145.879 242.257 147.804 249.081 153.2 252.103C158.595 255.124 165.419 253.2 168.441 247.804Z" fill="#F2F2F2"/>
<path d="M162.429 211.474C164.723 205.731 161.926 199.216 156.182 196.923C150.439 194.629 143.924 197.426 141.631 203.17C139.338 208.913 142.134 215.428 147.878 217.721C153.621 220.014 160.136 217.217 162.429 211.474Z" fill="#333333"/>
<path d="M146.136 202.484C146.506 203.808 148.285 204.463 150.103 203.948C151.92 203.434 153.093 201.949 152.717 200.626C152.347 199.303 150.568 198.648 148.75 199.162C146.932 199.671 145.76 201.162 146.136 202.484Z" fill="#666666"/>
<path d="M165.785 238.309C165.132 232.16 159.617 227.704 153.467 228.357C147.318 229.01 142.862 234.525 143.515 240.674C144.168 246.824 149.683 251.28 155.832 250.627C161.982 249.974 166.438 244.459 165.785 238.309Z" fill="#333333"/>
<path d="M148.156 234.873C148.533 236.196 150.306 236.852 152.123 236.337C153.941 235.822 155.113 234.338 154.743 233.014C154.367 231.692 152.594 231.036 150.777 231.55C148.958 232.059 147.786 233.55 148.156 234.873Z" fill="#666666"/>
<path d="M258.467 148.566C258.271 147.917 258.61 147.238 258.989 146.685C259.368 146.132 259.82 145.588 259.945 144.926C260.059 144.265 259.632 143.451 258.952 143.459C258.619 143.469 258.312 143.671 258.04 143.869C257.257 144.435 256.457 145.009 255.681 145.586C253.842 146.916 252.004 148.252 250.154 149.583C249.74 149.878 249.326 150.173 248.906 150.469C250.637 154.791 253.002 158.891 254.901 163.131C256.579 166.881 258.526 170.321 260.639 173.714C262.371 172.649 264.25 171.84 266.032 170.798C266.441 170.558 266.837 170.307 267.231 170.039C267.717 169.704 268.202 169.31 268.352 168.746C268.516 168.193 268.202 167.459 267.627 167.405C267.192 167.362 266.728 167.688 266.35 167.458C265.952 167.208 266.084 166.593 266.355 166.215C266.619 165.827 266.989 165.425 266.896 164.96C266.715 164.017 265.1 164.349 264.496 163.594C263.602 162.509 265.737 160.721 264.839 159.642C264.407 159.139 263.602 159.242 263.005 158.935C262.283 158.584 261.986 157.669 262.088 156.879C262.183 156.078 262.588 155.366 262.983 154.667C263.074 154.5 263.168 154.314 263.158 154.106C263.128 153.71 262.673 153.479 262.271 153.42C261.876 153.372 261.432 153.402 261.103 153.172C260.327 152.65 260.792 151.446 261.328 150.687C261.852 149.923 262.322 148.725 261.553 148.202C260.669 147.581 259.508 148.849 258.467 148.566Z" fill="#B30404"/>
<path d="M257.146 151.557C256.581 149.585 256.007 147.597 255.681 145.58C253.842 146.91 252.004 148.246 250.154 149.577C249.74 149.872 249.326 150.167 248.906 150.463C250.637 154.785 253.002 158.885 254.901 163.125C256.579 166.875 258.526 170.315 260.639 173.708C262.371 172.643 264.25 171.834 266.032 170.792C263.682 167.814 261.724 164.513 260.247 161.01C258.972 157.94 258.056 154.749 257.146 151.557Z" fill="#8D0000"/>
<path d="M262.458 172.59C261.122 168.632 259.757 164.677 258.335 160.749C258.07 159.984 257.794 159.222 257.518 158.465C257.402 158.134 257.275 157.811 257.158 157.48C256.873 156.7 256.578 155.928 256.293 155.148C256.049 154.495 255.812 153.84 255.568 153.186C254.719 150.93 253.864 148.675 252.987 146.428C249.712 148.621 246.354 150.593 242.733 151.99C241.69 152.406 240.62 152.754 239.538 153.05C239.411 153.085 239.284 153.114 239.157 153.149C238.141 153.412 237.119 153.628 236.077 153.781C233.69 154.146 231.276 154.228 228.877 154.021C228.038 153.955 227.212 153.852 226.393 153.712C225.917 153.639 225.445 153.547 224.977 153.444C224.276 153.299 223.584 153.124 222.894 152.925C219.483 151.995 216.192 150.625 212.89 149.304C212.228 149.047 211.585 148.794 210.935 148.541C209.927 148.152 208.927 147.78 207.918 147.427C206.195 146.83 204.452 146.307 202.669 145.933C198.261 149.414 193.482 152.456 188.974 155.198C183.4 158.586 177.599 161.61 171.553 164.071C171.145 164.234 170.73 164.385 170.321 164.542C173.834 164.377 180.273 166.809 181.898 167.3C183.667 167.837 185.38 168.536 187.025 169.353C188.367 170.002 189.679 170.732 190.95 171.521C192.447 172.436 193.9 173.416 195.317 174.442C196.355 175.186 197.366 175.951 198.371 176.711C198.378 176.721 198.383 176.715 198.391 176.726C199.737 177.756 201.072 178.794 202.417 179.824C202.937 180.22 203.457 180.621 203.982 181.016C206.959 183.241 209.987 185.363 213.24 187.067C214.63 187.805 216.055 188.454 217.528 189.007C217.654 189.056 217.767 189.094 217.887 189.144C223.884 191.318 229.82 191.62 235.494 190.434C236.453 190.233 237.405 189.991 238.352 189.701C239.328 189.414 240.291 189.074 241.255 188.693C242.739 188.092 244.199 187.411 245.626 186.615C247.492 185.616 249.287 184.453 251.04 183.153C254.59 180.522 257.922 177.605 261.111 174.552C261.619 174.071 262.108 173.581 262.615 173.094C262.58 172.919 262.521 172.748 262.458 172.59Z" fill="#D9811A"/>
<path d="M262.457 172.59C261.121 168.632 259.756 164.678 258.334 160.749C258.07 159.985 257.793 159.222 257.518 158.465C257.401 158.134 257.274 157.811 257.157 157.48C255.804 158.691 254.436 159.879 253.03 161.007C248.311 164.793 243.188 168.072 237.75 170.737C231.931 173.597 225.548 175.81 219.07 175.343C212.956 174.91 207.429 172.2 202.274 168.747C205.298 162.013 207.121 154.785 207.918 147.433C206.195 146.836 204.452 146.313 202.669 145.939C198.261 149.42 193.482 152.462 188.974 155.204C183.4 158.592 177.599 161.616 171.553 164.077C171.145 164.24 170.73 164.391 170.321 164.548C173.834 164.383 180.273 166.815 181.898 167.306C183.847 167.896 185.711 168.695 187.526 169.614C187.942 169.82 188.359 170.033 188.766 170.258C189.114 170.45 189.464 170.653 189.807 170.852C190.145 171.051 190.488 171.244 190.82 171.449C191.028 171.577 191.225 171.705 191.433 171.832C191.929 172.142 192.425 172.457 192.911 172.779C193.207 172.978 193.502 173.177 193.799 173.382C194.207 173.661 194.609 173.941 195.012 174.227C195.237 174.387 195.463 174.554 195.693 174.714C196.601 175.373 197.497 176.04 198.376 176.71C198.383 176.721 198.389 176.714 198.396 176.725C199.742 177.755 201.077 178.793 202.423 179.823C202.942 180.219 203.462 180.62 203.987 181.015C206.964 183.24 209.992 185.363 213.245 187.067C214.635 187.804 216.06 188.453 217.533 189.007C217.659 189.055 217.772 189.094 217.892 189.143C223.89 191.318 229.825 191.62 235.5 190.434C236.458 190.232 237.41 189.99 238.357 189.701C239.333 189.413 240.296 189.074 241.26 188.693C242.744 188.092 244.204 187.41 245.631 186.614C247.497 185.615 249.292 184.452 251.046 183.152C254.596 180.522 257.928 177.604 261.116 174.551C261.624 174.07 262.113 173.58 262.62 173.093C262.579 172.92 262.52 172.748 262.457 172.59Z" fill="#BD6211"/>
<path d="M262.457 172.59C258.328 172.527 254.192 172.508 250.064 172.499C252.811 168.568 255.58 164.663 258.335 160.749C258.07 159.985 257.794 159.222 257.518 158.465C254.227 163.138 250.917 167.809 247.639 172.493C247.615 172.496 247.597 172.492 247.574 172.495C242.968 172.491 238.354 172.507 233.741 172.534C231.814 172.55 229.885 172.554 227.959 172.57C228.254 172.147 228.543 171.726 228.838 171.304C232.553 166.053 236.327 160.836 240.095 155.626C245.501 155.456 250.895 155.288 256.288 155.155C256.044 154.501 255.806 153.847 255.562 153.193C253.503 153.245 251.45 153.301 249.398 153.364C246.786 153.437 244.177 153.527 241.566 153.612C241.954 153.075 242.34 152.533 242.733 151.996C241.691 152.412 240.621 152.76 239.538 153.056C239.381 153.262 239.23 153.474 239.075 153.692C238.076 153.726 237.076 153.753 236.078 153.787C233.676 153.873 231.28 153.952 228.878 154.027C227.397 154.078 225.911 154.129 224.43 154.174C224.619 153.934 224.795 153.695 224.977 153.45C224.277 153.305 223.584 153.13 222.894 152.931C222.56 153.376 222.232 153.815 221.892 154.261C217.337 154.412 212.789 154.561 208.243 154.687C209.799 152.899 211.342 151.108 212.891 149.316C212.229 149.059 211.586 148.805 210.937 148.553C209.668 150.033 208.392 151.507 207.114 152.964C206.604 153.565 206.087 154.16 205.571 154.756C201.714 154.853 197.87 154.956 194.003 155.025C192.388 155.052 190.778 155.067 189.162 155.089C189.096 155.128 189.035 155.166 188.969 155.204C187.898 155.857 186.812 156.482 185.72 157.101C191.75 157.044 197.779 156.933 203.807 156.774C199.541 161.699 195.242 166.611 190.949 171.516C191.107 171.626 191.269 171.717 191.432 171.821C191.68 171.972 191.923 172.136 192.171 172.294C192.452 172.471 192.734 172.66 193.003 172.838C193.003 172.838 193.011 172.849 193.016 172.842C193.69 173.283 194.35 173.743 194.999 174.216C195.053 174.257 195.104 174.286 195.157 174.326C195.209 174.355 195.262 174.396 195.316 174.436C199.016 174.509 202.713 174.552 206.418 174.565C205.078 176.317 203.749 178.061 202.41 179.813C202.929 180.209 203.449 180.61 203.974 181.005C205.613 178.86 207.247 176.722 208.886 174.577C210.745 174.588 212.59 174.589 214.441 174.584C214.913 174.586 215.378 174.582 215.851 174.584C218.622 174.585 221.385 174.57 224.149 174.56C223.989 174.791 223.84 175.014 223.679 175.239C220.957 179.131 218.27 183.066 215.649 187.04C214.849 187.047 214.032 187.05 213.232 187.056C214.622 187.794 216.048 188.443 217.52 188.996C223.862 188.95 230.218 188.867 236.568 188.748C236.213 189.304 235.84 189.856 235.486 190.418C236.444 190.216 237.397 189.974 238.343 189.684C238.549 189.352 238.758 189.043 238.965 188.722C239.727 188.703 240.478 188.691 241.247 188.676C242.73 188.076 244.191 187.394 245.618 186.598C244.737 186.622 243.845 186.647 242.956 186.659C242.069 186.678 241.187 186.69 240.299 186.708C243.039 182.593 245.845 178.522 248.664 174.462C252.809 174.468 256.957 174.487 261.095 174.53C261.604 174.049 262.093 173.559 262.6 173.072C262.58 172.919 262.521 172.748 262.457 172.59ZM208.222 172.23C208.124 172.345 208.033 172.465 207.942 172.591C202.888 172.582 197.834 172.525 192.785 172.42C197.302 167.27 201.805 162.103 206.294 156.921C206.355 156.847 206.429 156.772 206.49 156.698C210.323 156.597 214.167 156.489 217.995 156.359C218.786 156.336 219.576 156.301 220.367 156.277C216.316 161.603 212.275 166.916 208.222 172.23ZM210.416 172.602C211.223 171.543 212.047 170.488 212.854 169.43C216.212 165.027 219.549 160.604 222.894 156.198C227.806 156.041 232.716 155.866 237.628 155.709C233.573 161.317 229.524 166.923 225.553 172.579C220.509 172.598 215.459 172.619 210.416 172.602ZM237.91 186.751C231.298 186.875 224.67 186.972 218.047 187.02C220.776 182.912 223.577 178.854 226.41 174.81C226.475 174.717 226.53 174.632 226.595 174.546C226.941 174.541 227.293 174.535 227.646 174.541C233.857 174.495 240.065 174.473 246.282 174.468C243.453 178.547 240.643 182.631 237.91 186.751Z" fill="#DEAD7C"/>
<path d="M207.935 172.591C202.881 172.583 197.827 172.526 192.778 172.421C197.295 167.271 201.798 162.104 206.286 156.922C206.604 155.607 206.878 154.28 207.118 152.958C206.608 153.558 206.091 154.154 205.574 154.749C201.717 154.847 197.873 154.949 194.006 155.018C192.392 155.046 190.781 155.061 189.166 155.082C189.099 155.121 189.039 155.159 188.972 155.198C187.902 155.85 186.816 156.475 185.723 157.095C191.753 157.037 197.782 156.926 203.811 156.767C199.544 161.693 195.246 166.604 190.952 171.509C191.111 171.619 191.272 171.711 191.436 171.814C191.683 171.966 191.926 172.13 192.175 172.287C192.455 172.464 192.738 172.653 193.007 172.832C193.007 172.832 193.014 172.843 193.019 172.836C193.694 173.276 194.353 173.736 195.003 174.21C195.056 174.251 195.108 174.279 195.161 174.32C195.213 174.349 195.266 174.389 195.319 174.43C199.02 174.503 202.717 174.546 206.421 174.558C205.082 176.31 203.753 178.055 202.413 179.807C202.933 180.202 203.453 180.604 203.978 180.998C205.617 178.854 207.251 176.715 208.889 174.571C210.748 174.582 212.594 174.583 214.445 174.577C212.303 174.025 210.223 173.214 208.208 172.226C208.122 172.345 208.025 172.466 207.935 172.591Z" fill="#D18546"/>
<path d="M258.341 160.754C255.585 164.663 252.818 168.573 250.071 172.504C254.199 172.513 258.328 172.533 262.464 172.595C262.527 172.754 262.58 172.926 262.632 173.086C262.13 173.572 261.635 174.063 261.127 174.544C256.982 174.501 252.841 174.482 248.695 174.476C245.87 178.537 243.065 182.608 240.331 186.722C241.218 186.704 242.1 186.692 242.988 186.673C243.875 186.655 244.768 186.635 245.649 186.612C244.221 187.402 242.761 188.089 241.278 188.69C240.514 188.698 239.759 188.717 238.997 188.736C238.783 189.058 238.58 189.366 238.374 189.698C237.435 189.993 236.476 190.236 235.517 190.431C235.871 189.864 236.239 189.318 236.599 188.762C230.249 188.881 223.893 188.958 217.551 189.01C216.078 188.451 214.653 187.802 213.264 187.07C214.063 187.064 214.881 187.06 215.68 187.054C218.302 183.08 220.988 179.145 223.711 175.253C224.623 175.153 225.53 175.013 226.424 174.826C223.59 178.864 220.789 182.922 218.061 187.036C224.683 186.988 231.312 186.891 237.924 186.767C240.657 182.647 243.466 178.558 246.295 174.484C240.079 174.489 233.865 174.512 227.66 174.557C229.737 174.061 231.768 173.362 233.766 172.542C238.379 172.515 242.993 172.5 247.598 172.504C247.622 172.501 247.64 172.505 247.663 172.501C250.942 167.817 254.245 163.148 257.543 158.473C257.794 159.228 258.07 159.985 258.341 160.754Z" fill="#D18546"/>
<path d="M267.627 177.063C267.667 176.388 268.212 175.867 268.761 175.47C269.306 175.08 269.92 174.722 270.259 174.138C270.593 173.556 270.469 172.641 269.829 172.417C269.516 172.31 269.158 172.4 268.83 172.492C267.898 172.756 266.956 173.027 266.025 173.302C263.84 173.926 261.661 174.549 259.471 175.18C258.982 175.318 258.493 175.456 257.997 175.583C258.149 180.238 258.976 184.898 259.316 189.529C259.614 193.627 260.267 197.528 261.106 201.434C263.094 201.028 265.138 200.906 267.171 200.53C267.638 200.449 268.096 200.345 268.557 200.223C269.128 200.074 269.716 199.869 270.051 199.393C270.401 198.928 270.353 198.134 269.83 197.889C269.435 197.703 268.887 197.849 268.607 197.505C268.318 197.132 268.653 196.603 269.04 196.335C269.422 196.063 269.906 195.806 269.975 195.343C270.128 194.396 268.495 194.157 268.185 193.238C267.714 191.916 270.332 190.958 269.854 189.637C269.621 189.018 268.826 188.839 268.372 188.351C267.816 187.775 267.848 186.815 268.205 186.104C268.568 185.386 269.195 184.853 269.805 184.329C269.949 184.202 270.097 184.062 270.16 183.863C270.269 183.478 269.92 183.107 269.56 182.917C269.207 182.737 268.778 182.61 268.543 182.284C267.992 181.528 268.84 180.553 269.605 180.026C270.361 179.482 271.21 178.519 270.667 177.768C270.028 176.887 268.505 177.678 267.627 177.063Z" fill="#D10505"/>
<path d="M265.36 179.424C265.502 177.38 265.64 175.313 266.019 173.302C263.834 173.927 261.655 174.55 259.465 175.181C258.976 175.318 258.487 175.456 257.99 175.583C258.142 180.239 258.97 184.899 259.31 189.529C259.608 193.628 260.261 197.529 261.1 201.435C263.088 201.028 265.132 200.907 267.165 200.53C265.967 196.93 265.26 193.161 265.062 189.36C264.895 186.05 265.126 182.728 265.36 179.424Z" fill="#AD0000"/>
<path d="M263.208 173.187C263.266 175.598 263.299 178.006 263.327 180.421C263.332 181.119 263.337 181.817 263.342 182.515C263.347 183.345 263.357 184.174 263.361 184.997C263.361 185.35 263.366 185.695 263.366 186.048C263.368 186.854 263.364 187.667 263.354 188.474C263.352 192.649 263.285 196.833 263.193 201.008C263.197 201.175 263.193 201.36 263.185 201.529C262.543 201.813 261.915 202.113 261.277 202.384C257.236 204.167 253.106 205.777 248.875 207.037C246.779 207.66 244.7 208.139 242.603 208.446C240.99 208.707 239.385 208.852 237.78 208.908C236.746 208.941 235.729 208.929 234.711 208.864C233.725 208.818 232.744 208.718 231.776 208.58C226.032 207.756 220.561 205.457 215.66 201.366C215.558 201.278 215.47 201.201 215.369 201.119C214.173 200.092 213.057 198.995 211.998 197.83C209.523 195.119 207.399 192.092 205.36 188.982C205.005 188.433 204.649 187.877 204.3 187.328C203.391 185.904 202.486 184.467 201.576 183.044C201.575 183.032 201.563 183.033 201.562 183.028C200.882 181.973 200.188 180.908 199.466 179.853C198.483 178.41 197.449 176.991 196.355 175.622C195.427 174.451 194.442 173.313 193.402 172.247C192.136 170.919 190.756 169.679 189.28 168.57C187.526 167.261 179.334 160.169 177.027 162.142C179.479 160.054 181.88 157.848 184.475 156.01C185.151 155.536 185.825 155.087 186.538 154.662C187.71 153.966 188.934 153.346 190.237 152.871C198.076 149.983 207.142 150.643 214.478 154.631C216.625 155.798 218.603 157.221 220.502 158.761C221.334 159.437 222.144 160.128 222.962 160.835C223.484 161.296 224.006 161.751 224.535 162.223C227.19 164.587 229.817 167.003 232.708 169.036C233.285 169.46 233.876 169.858 234.488 170.235C234.893 170.491 235.302 170.734 235.728 170.963C236.452 171.373 237.191 171.756 237.96 172.1C240.145 173.113 242.444 173.859 244.813 174.326C245.839 174.54 246.88 174.686 247.92 174.784C248.053 174.796 248.181 174.808 248.314 174.82C249.436 174.907 250.558 174.946 251.683 174.914C255.549 174.839 259.382 174.129 263.208 173.187Z" fill="#F7931E"/>
<path d="M258.273 186.904C252.547 188.856 246.618 190.189 240.591 190.844C234.147 191.548 227.391 191.453 221.461 188.81C215.862 186.318 211.584 181.886 207.92 176.882C213.056 171.582 217.237 165.408 220.49 158.769C218.591 157.228 216.613 155.806 214.466 154.639C207.124 150.652 198.059 149.991 190.225 152.879C185.174 154.739 181.174 158.594 177.008 162.144C179.315 160.172 187.508 167.263 189.261 168.573C190.89 169.798 192.373 171.18 193.762 172.658C194.082 172.997 194.403 173.336 194.707 173.683C194.968 173.982 195.225 174.288 195.481 174.593C195.731 174.894 195.986 175.194 196.231 175.501C196.382 175.69 196.528 175.885 196.673 176.074C197.034 176.533 197.389 176.999 197.74 177.471C197.952 177.759 198.158 178.047 198.365 178.342C198.653 178.745 198.939 179.142 199.216 179.553C199.372 179.782 199.529 180.012 199.686 180.247C200.313 181.172 200.929 182.11 201.533 183.037C201.534 183.049 201.546 183.048 201.547 183.054C202.456 184.477 203.361 185.914 204.271 187.337C204.626 187.887 204.981 188.442 205.331 188.992C207.37 192.102 209.494 195.129 211.969 197.84C213.028 199.005 214.144 200.102 215.34 201.129C215.442 201.216 215.53 201.294 215.63 201.376C220.526 205.468 226.004 207.772 231.746 208.59C232.715 208.727 233.696 208.828 234.681 208.873C235.699 208.933 236.716 208.95 237.751 208.918C239.35 208.863 240.96 208.711 242.574 208.456C244.671 208.155 246.75 207.67 248.845 207.046C253.076 205.787 257.206 204.177 261.247 202.394C261.891 202.116 262.52 201.822 263.156 201.539C263.163 201.37 263.168 201.185 263.163 201.018C263.255 196.843 263.322 192.659 263.325 188.484C263.335 187.676 263.333 186.865 263.337 186.058C263.337 185.705 263.332 185.36 263.332 185.007C261.672 185.674 259.98 186.321 258.273 186.904Z" fill="#DB7214"/>
<path d="M247.956 177.437C253.099 179.118 258.23 180.801 263.342 182.516C263.337 181.818 263.332 181.12 263.327 180.421C261.369 179.767 259.424 179.122 257.474 178.478C254.997 177.655 252.512 176.85 250.025 176.04C250.572 175.667 251.125 175.294 251.671 174.921C250.547 174.954 249.425 174.915 248.302 174.828C248.082 174.965 247.869 175.113 247.651 175.268C246.701 174.955 245.752 174.647 244.801 174.334C242.515 173.592 240.236 172.856 237.949 172.108C236.537 171.648 235.131 171.193 233.719 170.733C233.977 170.567 234.225 170.408 234.483 170.242C233.87 169.865 233.279 169.467 232.702 169.043C232.235 169.345 231.775 169.647 231.308 169.949C226.972 168.541 222.648 167.125 218.327 165.691C220.4 164.545 222.458 163.382 224.529 162.224C223.994 161.759 223.472 161.298 222.956 160.836C221.258 161.795 219.558 162.741 217.858 163.682C217.171 164.074 216.488 164.459 215.799 164.839C212.139 163.614 208.488 162.406 204.836 161.15C198.712 159.052 192.61 156.904 186.531 154.663C186.449 154.716 186.366 154.763 186.283 154.816C186.019 154.983 185.749 155.145 185.486 155.324C185.145 155.537 184.806 155.774 184.468 156.011C194.069 159.567 203.743 162.911 213.462 166.146C207.77 169.323 202.057 172.474 196.349 175.623C196.459 175.775 196.581 175.92 196.697 176.077C196.877 176.304 197.046 176.538 197.234 176.775C197.436 177.034 197.635 177.312 197.831 177.572C197.831 177.572 197.833 177.584 197.845 177.582C198.332 178.227 198.791 178.882 199.24 179.55C199.277 179.604 199.313 179.647 199.35 179.702C199.386 179.745 199.423 179.8 199.46 179.854C202.913 181.185 206.373 182.484 209.854 183.757C207.997 184.946 206.151 186.134 204.294 187.329C204.649 187.878 205.005 188.433 205.354 188.983C207.623 187.529 209.893 186.069 212.162 184.615C213.909 185.257 215.638 185.895 217.382 186.513C217.822 186.674 218.262 186.836 218.707 186.991C221.313 187.934 223.911 188.861 226.516 189.798C226.287 189.96 226.07 190.115 225.841 190.278C221.958 193.007 218.088 195.788 214.268 198.634C213.515 198.366 212.75 198.093 211.991 197.825C213.05 198.99 214.166 200.087 215.362 201.114C221.341 203.231 227.345 205.321 233.356 207.375C232.831 207.774 232.293 208.17 231.769 208.581C232.738 208.719 233.719 208.819 234.704 208.865C235.012 208.626 235.31 208.4 235.62 208.173C236.34 208.416 237.054 208.66 237.774 208.909C239.373 208.854 240.983 208.702 242.597 208.448C241.76 208.173 240.915 207.887 240.076 207.6C239.236 207.314 238.397 207.027 237.564 206.74C241.539 203.807 245.564 200.933 249.603 198.081C253.498 199.501 257.389 200.934 261.27 202.385C261.913 202.107 262.543 201.813 263.179 201.53C263.186 201.361 263.191 201.176 263.186 201.009C259.321 199.543 255.443 198.115 251.566 196.699C255.487 193.941 259.424 191.21 263.348 188.475C263.358 187.668 263.356 186.856 263.36 186.049C258.672 189.317 253.971 192.581 249.292 195.872C249.273 195.862 249.249 195.86 249.23 195.85C244.902 194.28 240.558 192.718 236.216 191.173C234.403 190.529 232.583 189.879 230.77 189.234C231.19 188.939 231.61 188.643 232.03 188.347C237.307 184.665 242.629 181.054 247.956 177.437ZM211.931 182.419C207.181 180.685 202.449 178.906 197.742 177.089C203.746 173.792 209.739 170.46 215.726 167.124C215.808 167.071 215.904 167.028 215.987 166.981C219.628 168.197 223.272 169.4 226.921 170.584C227.67 170.829 228.425 171.067 229.176 171.318C223.557 174.945 217.942 178.56 212.322 182.175C212.189 182.253 212.056 182.33 211.931 182.419ZM247.33 197.26C243.286 200.124 239.251 203.006 235.277 205.95C229.016 203.811 222.75 201.643 216.509 199.436C220.478 196.504 224.492 193.643 228.534 190.809C228.628 190.749 228.709 190.684 228.796 190.624C229.123 190.741 229.454 190.852 229.782 190.981C235.64 193.049 241.484 195.148 247.33 197.26ZM228.49 188.408C223.746 186.715 218.994 185.011 214.256 183.275C215.377 182.556 216.511 181.841 217.632 181.122C222.291 178.127 226.936 175.109 231.581 172.104C236.249 173.628 240.928 175.145 245.601 176.669C239.868 180.556 234.153 184.447 228.49 188.408Z" fill="#FCC58D"/>
<path d="M215.72 167.131C209.734 170.467 203.739 173.793 197.736 177.096C202.443 178.913 207.181 180.691 211.925 182.426C212.05 182.337 212.183 182.26 212.31 182.183C213.867 183.8 215.541 185.269 217.37 186.521C215.626 185.897 213.898 185.265 212.151 184.623C209.881 186.077 207.612 187.537 205.342 188.991C204.987 188.441 204.631 187.886 204.282 187.336C206.14 186.147 207.986 184.96 209.843 183.765C206.367 182.485 202.906 181.186 199.448 179.862C199.411 179.807 199.374 179.753 199.338 179.71C199.301 179.655 199.265 179.612 199.228 179.557C198.779 178.889 198.32 178.235 197.833 177.59C197.821 177.592 197.82 177.58 197.82 177.58C197.623 177.32 197.43 177.041 197.222 176.783C197.041 176.551 196.866 176.312 196.686 176.085C196.564 175.934 196.449 175.789 196.338 175.631C202.045 172.481 207.758 169.331 213.45 166.154C203.737 162.918 194.057 159.569 184.457 156.019C184.795 155.782 185.133 155.545 185.474 155.331C185.738 155.158 186.008 154.991 186.272 154.823C186.354 154.77 186.437 154.723 186.52 154.67C192.592 156.912 198.695 159.067 204.825 161.158C208.482 162.413 212.129 163.628 215.787 164.846C216.476 164.467 217.159 164.082 217.847 163.69C217.178 164.843 216.469 165.997 215.72 167.131Z" fill="#EF9850"/>
<path d="M263.347 188.475C259.424 191.216 255.486 193.94 251.566 196.699C255.441 198.109 259.32 199.543 263.186 201.009C263.19 201.176 263.186 201.361 263.178 201.53C262.536 201.814 261.908 202.114 261.27 202.385C257.388 200.933 253.498 199.501 249.603 198.081C245.563 200.933 241.538 203.807 237.564 206.739C238.403 207.026 239.236 207.314 240.075 207.6C240.914 207.887 241.759 208.173 242.596 208.447C240.983 208.708 239.378 208.853 237.773 208.909C237.053 208.66 236.339 208.416 235.619 208.173C235.31 208.406 235.012 208.626 234.704 208.864C233.718 208.819 232.737 208.718 231.769 208.581C232.292 208.169 232.831 207.78 233.355 207.375C227.344 205.321 221.34 203.231 215.362 201.114C214.166 200.087 213.05 198.99 211.99 197.825C212.743 198.094 213.509 198.366 214.268 198.634C218.087 195.788 221.952 193.013 225.84 190.278C226.73 190.498 227.632 190.674 228.539 190.802C224.497 193.637 220.482 196.497 216.513 199.429C222.755 201.642 229.021 203.81 235.282 205.943C239.255 202.999 243.291 200.118 247.335 197.253C241.488 195.136 235.638 193.043 229.786 190.968C231.903 191.213 234.058 191.25 236.213 191.155C240.556 192.706 244.899 194.262 249.227 195.833C249.246 195.842 249.27 195.845 249.289 195.854C253.968 192.563 258.67 189.305 263.357 186.031C263.355 186.856 263.356 187.662 263.347 188.475Z" fill="#EF9850"/>
<path d="M219.504 151.305C219.508 151.466 219.504 151.616 219.496 151.778C219.366 155.761 216.882 159.251 213.791 162.225C212.187 163.792 210.401 165.198 208.705 166.479C207.695 167.225 206.72 167.924 205.835 168.575C200.75 172.267 195.234 175.331 189.505 177.922C187.969 178.619 186.422 179.277 184.87 179.905C184.745 179.952 184.628 180.009 184.503 180.056C179.105 182.226 173.452 184.149 167.651 185.681C166.707 185.94 165.754 186.176 164.793 186.408C162.192 187.041 159.56 187.588 156.915 188.035C155.947 188.208 154.982 188.357 154.008 188.488C150.681 188.968 147.326 189.285 143.982 189.427C143.122 189.466 142.252 189.482 141.387 189.492C138.513 189.528 135.656 189.419 132.813 189.153C131.458 189.025 130.111 188.867 128.775 188.66C126.898 188.382 125.035 188.037 123.191 187.606C122.458 187.436 121.728 187.254 121.002 187.054C120.539 186.938 120.079 186.809 119.625 186.673C116.591 185.788 113.613 184.662 110.753 183.293C109.898 182.889 109.152 182.321 108.495 181.663C108.031 181.188 107.62 180.665 107.246 180.106C106.496 178.977 105.901 177.714 105.459 176.436C104.73 174.361 104.261 172.173 104.02 169.948C103.837 168.468 103.775 166.947 103.79 165.428C103.789 163.123 103.981 160.792 104.297 158.491C104.46 157.269 104.665 156.047 104.902 154.844C105.034 154.139 105.184 153.438 105.335 152.749C105.446 152.244 105.557 151.739 105.681 151.245C108.555 153.06 111.619 154.604 114.817 155.867C115.513 156.155 116.212 156.419 116.914 156.665C120.49 157.937 124.201 158.874 127.949 159.477C128.773 159.605 129.601 159.726 130.421 159.824C133.382 160.17 136.358 160.316 139.304 160.24C141.78 160.174 144.245 159.99 146.691 159.701C148.503 159.497 150.299 159.224 152.095 158.898C158.626 157.733 165.06 155.895 171.317 153.669C171.996 153.44 172.668 153.199 173.333 152.948C173.954 152.727 174.568 152.494 175.186 152.25C176.089 151.906 176.969 151.566 177.863 151.201C178.679 150.881 179.495 150.55 180.297 150.214C184.362 148.517 188.355 146.645 192.244 144.584C193.45 143.961 194.642 143.322 195.816 142.644C196.078 142.507 196.328 142.365 196.589 142.217C197.525 141.678 198.476 141.113 199.403 140.51C200.03 140.108 200.647 139.684 201.258 139.25C204.294 137.059 207.047 134.453 208.83 131.303C209.493 132.27 210.493 133.795 211.369 135.104C211.831 135.782 212.243 136.401 212.555 136.849C212.79 137.175 212.96 137.415 213.059 137.527C214.466 139.236 215.858 141.09 216.986 143.07C217.889 144.668 218.627 146.324 219.065 148.02C219.336 149.094 219.49 150.19 219.504 151.305Z" fill="#F7931E"/>
<path d="M219.496 151.778C219.261 159.048 211.158 164.708 205.835 168.576C199.391 173.252 192.249 176.924 184.871 179.911C164.734 188.047 140.933 192.886 119.613 186.675C116.579 185.789 113.602 184.663 110.741 183.295C108.06 182.021 106.435 179.237 105.446 176.432C103.483 170.839 103.452 164.56 104.284 158.487C104.59 159.557 104.888 160.562 105.141 161.065C107.294 165.145 110.468 168.699 114.333 171.222C122.022 176.232 131.663 177.035 140.843 176.952C158.374 176.79 176.202 173.798 191.684 165.557C201.723 160.215 210.691 152.468 216.966 143.055C218.538 145.804 219.595 148.761 219.496 151.778Z" fill="#E87F18"/>
<path d="M219.044 148.005C217.657 147.333 216.264 146.661 214.877 145.983C212.805 144.973 210.727 143.959 208.653 142.931C209.935 140.889 211.225 138.857 212.54 136.833C212.228 136.386 211.815 135.761 211.354 135.089C209.858 137.405 208.368 139.727 206.893 142.065C205.009 141.119 203.12 140.18 201.237 139.235C200.627 139.67 200.002 140.089 199.383 140.495C201.526 141.591 203.678 142.667 205.835 143.737C202.763 148.614 199.742 153.526 196.795 158.493C193.972 157.096 191.166 155.689 188.348 154.285C190.839 150.4 193.317 146.512 195.796 142.635C194.622 143.313 193.43 143.952 192.224 144.575C190.347 147.517 188.47 150.464 186.581 153.407C184.478 152.342 182.382 151.282 180.277 150.205C179.475 150.541 178.659 150.872 177.843 151.192C179.073 151.813 180.288 152.449 181.517 153.059C182.846 153.74 184.183 154.395 185.515 155.063C182.153 160.313 178.776 165.548 175.353 170.747C171.59 168.85 167.839 166.95 164.087 165.039C167.738 160.729 171.436 156.454 175.165 152.235C174.547 152.48 173.933 152.712 173.312 152.933C172.648 153.185 171.969 153.426 171.296 153.654C168.271 157.121 165.267 160.609 162.284 164.119C158.872 162.383 155.466 160.646 152.067 158.878C150.271 159.199 148.474 159.472 146.663 159.681C142.551 164.071 138.432 168.451 134.325 172.835C130.925 170.53 127.534 168.2 124.144 165.875C126.215 163.839 128.301 161.819 130.394 159.81C129.575 159.712 128.746 159.591 127.923 159.463C126.104 161.209 124.306 162.969 122.502 164.73C119.714 162.802 116.939 160.872 114.156 158.931C115.062 158.17 115.968 157.408 116.882 156.657C116.18 156.412 115.487 156.147 114.786 155.86C114.023 156.495 113.262 157.135 112.508 157.787C111.473 157.067 110.426 156.348 109.398 155.633C108.031 154.672 106.672 153.715 105.304 152.741C105.146 153.432 105.002 154.132 104.87 154.837C106.902 156.258 108.928 157.68 110.961 159.107C109.416 160.445 107.878 161.793 106.347 163.147C105.482 163.903 104.624 164.67 103.759 165.427C103.751 165.81 103.76 166.185 103.764 166.567C103.777 167.323 103.821 168.088 103.879 168.827C103.912 169.204 103.939 169.577 103.989 169.952C106.457 171.906 108.947 173.844 111.459 175.762C110.035 177.203 108.625 178.654 107.215 180.111C107.403 180.396 107.6 180.656 107.803 180.921C108.017 181.179 108.23 181.431 108.465 181.668C109.99 180.094 111.517 178.531 113.048 176.962C116.432 179.55 119.836 182.106 123.254 184.635C122.498 185.448 121.735 186.256 120.978 187.058C121.3 187.145 121.622 187.227 121.939 187.316C122.351 187.409 122.754 187.516 123.167 187.609L124.852 185.811C126.152 186.764 127.446 187.717 128.755 188.657C129.389 188.75 130.017 188.844 130.66 188.919C130.77 188.934 130.873 188.95 130.987 188.952C131.527 189.016 132.061 189.076 132.599 189.122C132.66 189.132 132.733 189.146 132.793 189.144C130.587 187.543 128.407 185.951 126.226 184.353L133.372 176.744L134.608 175.419C135.333 175.918 136.068 176.41 136.799 176.908C139.975 179.064 143.15 181.209 146.337 183.357C145.33 184.605 144.308 185.836 143.294 187.084C142.655 187.881 142.01 188.673 141.373 189.482C142.238 189.472 143.106 189.444 143.968 189.417C145.303 187.762 146.643 186.099 147.99 184.448C149.988 185.796 151.998 187.142 154 188.478C154.493 188.411 154.973 188.346 155.446 188.264C155.927 188.199 156.417 188.115 156.901 188.026C154.337 186.336 151.778 184.634 149.229 182.924C151.068 180.669 152.924 178.411 154.783 176.17C157.436 172.957 160.107 169.747 162.789 166.571C166.605 168.509 170.422 170.459 174.251 172.402C174.227 172.447 174.201 172.48 174.177 172.519C171.663 176.317 169.125 180.113 166.543 183.854C165.959 184.704 165.363 185.549 164.773 186.399C165.26 186.285 165.733 186.168 166.201 186.045C166.685 185.919 167.158 185.796 167.625 185.673C170.456 181.563 173.23 177.437 175.982 173.278C179.169 174.895 182.349 176.508 185.524 178.126C185.169 178.766 184.819 179.398 184.477 180.048C184.602 180.001 184.719 179.943 184.844 179.897C186.407 179.267 187.943 178.611 189.479 177.914C189.068 177.701 188.664 177.493 188.254 177.291C190.975 172.372 193.779 167.495 196.627 162.637C196.943 162.104 197.255 161.584 197.56 161.053C197.847 161.194 198.129 161.335 198.416 161.469C201.827 163.152 205.261 164.825 208.679 166.471C210.381 165.189 212.16 163.772 213.775 162.204C215.659 158.562 217.557 154.931 219.478 151.297C219.479 151.088 219.468 150.868 219.452 150.662L219.429 150.276C219.392 149.517 219.247 148.754 219.044 148.005ZM107.089 169.867C106.142 169.13 105.19 168.368 104.241 167.619C105.319 166.667 106.4 165.696 107.477 164.744C108.272 164.04 109.073 163.34 109.868 162.641C110.781 161.837 111.702 161.055 112.634 160.26C115.444 162.227 118.262 164.205 121.088 166.157C119.17 168.047 117.259 169.943 115.349 171.855C114.523 172.678 113.697 173.506 112.878 174.334C110.95 172.845 109.012 171.363 107.089 169.867ZM124.639 183.176C121.222 180.652 117.82 178.108 114.45 175.536C115.348 174.627 116.241 173.723 117.147 172.824C118.992 170.968 120.851 169.128 122.716 167.287C126.122 169.639 129.543 171.965 132.964 174.297C132.264 175.043 131.564 175.783 130.871 176.528C128.794 178.75 126.716 180.96 124.639 183.176ZM152.024 176.436C150.54 178.226 149.051 180.022 147.582 181.833C145.177 180.212 142.772 178.59 140.371 176.956C138.909 175.953 137.443 174.963 135.983 173.967L149.37 159.691C151.734 160.918 154.097 162.139 156.463 163.342C157.978 164.116 159.49 164.879 160.999 165.654C157.988 169.227 154.999 172.821 152.024 176.436ZM186.51 176.404C184.676 175.476 182.835 174.537 181 173.602C179.705 172.947 178.416 172.286 177.122 171.643C177.12 171.631 177.109 171.633 177.109 171.633C180.537 166.427 183.913 161.186 187.277 155.947C190.114 157.361 192.94 158.776 195.787 160.177C194.883 161.708 193.985 163.239 193.106 164.774C190.864 168.637 188.67 172.505 186.51 176.404ZM210.138 164.989C209.244 164.561 208.344 164.133 207.456 163.704C205.053 162.542 202.667 161.366 200.268 160.191C199.711 159.914 199.143 159.645 198.586 159.368C201.528 154.407 204.529 149.486 207.582 144.599C209.592 145.593 211.613 146.58 213.629 147.573C215.124 148.297 216.62 149.026 218.116 149.749C215.444 154.811 212.795 159.906 210.138 164.989Z" fill="#FCC58D"/>
<path d="M126.227 184.358C128.409 185.962 130.595 187.554 132.794 189.149C132.734 189.146 132.661 189.138 132.6 189.128C132.062 189.081 131.529 189.022 130.988 188.958C130.881 188.955 130.777 188.939 130.661 188.924C130.024 188.849 129.39 188.756 128.757 188.663C127.453 187.722 126.153 186.769 124.854 185.816L123.168 187.615C122.755 187.522 122.353 187.415 121.94 187.321C121.618 187.234 121.296 187.152 120.979 187.063C121.737 186.262 122.499 185.448 123.256 184.641C119.837 182.106 116.433 179.55 113.05 176.968C111.511 178.532 109.986 180.1 108.467 181.673C108.237 181.436 108.018 181.184 107.804 180.927C107.602 180.667 107.405 180.402 107.217 180.116C108.626 178.66 110.036 177.209 111.46 175.768C108.955 173.849 106.465 171.911 103.991 169.958C103.94 169.583 103.908 169.211 103.88 168.832C103.809 168.084 103.778 167.329 103.766 166.572C103.762 166.191 103.753 165.816 103.761 165.432C104.626 164.676 105.484 163.909 106.349 163.153C106.692 163.704 107.062 164.233 107.461 164.752C106.383 165.705 105.302 166.675 104.225 167.627C105.174 168.376 106.125 169.138 107.073 169.875C108.996 171.371 110.935 172.859 112.862 174.342C113.675 173.515 114.506 172.68 115.333 171.863C115.918 172.214 116.523 172.538 117.131 172.838C116.226 173.737 115.327 174.641 114.435 175.55C117.81 178.121 121.207 180.666 124.624 183.19C126.701 180.974 128.779 178.763 130.856 176.547C131.687 176.644 132.528 176.721 133.365 176.769L126.227 184.358Z" fill="#EF9850"/>
<path d="M149.245 182.934C151.793 184.644 154.347 186.347 156.917 188.036C156.426 188.12 155.943 188.209 155.462 188.274C154.983 188.357 154.502 188.422 154.016 188.488C152.019 187.151 150.009 185.805 148.006 184.458C146.664 186.108 145.318 187.766 143.984 189.427C143.121 189.454 142.253 189.482 141.389 189.492C142.026 188.689 142.671 187.891 143.31 187.094C144.317 185.847 145.339 184.609 146.353 183.367C143.166 181.224 139.991 179.074 136.814 176.918C138.008 176.954 139.198 176.966 140.385 176.954C142.78 178.589 145.191 180.21 147.596 181.831C149.072 180.025 150.554 178.224 152.038 176.435C152.965 176.357 153.886 176.274 154.811 176.179C152.934 178.422 151.084 180.679 149.245 182.934Z" fill="#EF9850"/>
<path d="M188.28 177.3C188.689 177.501 189.094 177.709 189.505 177.922C187.969 178.62 186.433 179.275 184.87 179.905C184.745 179.952 184.627 180.01 184.502 180.056C184.845 179.413 185.195 178.774 185.55 178.135C182.375 176.516 179.193 174.898 176.007 173.286C173.255 177.445 170.475 181.572 167.651 185.681C167.178 185.805 166.705 185.928 166.226 186.053C165.753 186.177 165.278 186.289 164.799 186.407C165.394 185.556 165.985 184.712 166.569 183.863C169.15 180.121 171.687 176.32 174.202 172.527C175.185 172.245 176.161 171.952 177.128 171.642C178.422 172.285 179.713 172.952 181.007 173.601C182.84 174.53 184.688 175.468 186.516 176.403C188.676 172.504 190.87 168.636 193.113 164.779C194.318 164.108 195.501 163.398 196.66 162.65C193.805 167.51 191.001 172.38 188.28 177.3Z" fill="#EF9850"/>
<path d="M219.457 150.285L219.479 150.67C219.496 150.877 219.507 151.096 219.506 151.306C217.579 154.941 215.687 158.571 213.803 162.212C212.188 163.781 210.414 165.197 208.707 166.479C205.289 164.834 201.855 163.16 198.444 161.478C199.069 161.065 199.679 160.63 200.277 160.19C202.675 161.365 205.056 162.542 207.465 163.703C208.353 164.132 209.247 164.561 210.147 164.988C212.804 159.905 215.454 154.816 218.132 149.759C216.636 149.03 215.14 148.307 213.645 147.584C214.077 147.065 214.494 146.531 214.886 145.988C216.274 146.666 217.667 147.338 219.054 148.01C219.25 148.754 219.395 149.517 219.457 150.285Z" fill="#EF9850"/>
<path opacity="0.2" d="M202.101 141.465C186.372 152.116 167.968 158.225 149.378 162.12C145.91 162.846 142.336 163.533 139.322 165.398C138.738 165.758 138.125 166.259 138.092 166.944C138.058 167.576 138.549 168.119 139.071 168.484C140.581 169.54 142.524 169.731 144.364 169.78C153.611 170.01 162.725 167.451 171.282 163.958C179.839 160.465 187.988 156.024 196.423 152.243C198.709 151.217 201.03 150.234 203.118 148.846C204.63 147.841 206.007 146.628 207.196 145.261C208.389 143.887 210.507 140.554 208.443 138.988C206.619 137.599 203.546 140.487 202.101 141.465Z" fill="white"/>
<path d="M114.598 128.917C117.611 125.36 117.17 120.035 113.614 117.022C110.058 114.009 104.732 114.449 101.719 118.005C98.7062 121.562 99.1466 126.887 102.703 129.9C106.259 132.913 111.585 132.473 114.598 128.917Z" fill="#F2AAAA"/>
<path d="M104.793 118.679C104.864 119.559 106.247 120.16 107.877 120.024C109.507 119.887 110.775 119.064 110.699 118.19C110.628 117.31 109.244 116.709 107.614 116.846C105.985 116.983 104.716 117.806 104.793 118.679Z" fill="#F9C5C5"/>
<path d="M156.254 119.193C157.876 118.973 158.849 116.264 158.427 113.141C158.004 110.019 156.346 107.666 154.723 107.885C153.101 108.105 152.128 110.814 152.55 113.937C152.973 117.059 154.631 119.412 156.254 119.193Z" fill="#F2F2F2"/>
<path d="M123.053 119.767C124.313 119.597 125.068 117.494 124.741 115.072C124.413 112.649 123.125 110.823 121.865 110.993C120.605 111.164 119.85 113.266 120.178 115.689C120.505 118.112 121.793 119.938 123.053 119.767Z" fill="#F2F2F2"/>
<path d="M153.896 116.513C155.519 116.294 156.492 113.584 156.069 110.462C155.647 107.339 153.989 104.986 152.366 105.206C150.743 105.425 149.77 108.135 150.193 111.257C150.615 114.38 152.273 116.733 153.896 116.513Z" fill="#282828"/>
<path d="M117.659 113.587C118.02 116.256 119.438 118.262 120.822 118.074C122.206 117.887 123.04 115.57 122.679 112.908C122.319 110.245 120.9 108.233 119.516 108.421C118.132 108.608 117.298 110.919 117.659 113.587Z" fill="#282828"/>
<path d="M112.767 140.719C114.148 140.902 115.526 141.068 116.898 141.235C121.532 141.802 126.188 142.223 130.848 142.5C135.141 142.756 139.493 142.877 143.679 141.905C147.431 141.033 151.106 139.192 153.59 136.186C156.12 133.12 157.024 128.596 156.006 124.78C155.207 121.783 153.484 118.982 150.939 117.212C147.173 114.587 143.227 115.437 139.111 116.531C135.376 117.527 131.738 118.849 128.057 120.022C120.14 122.557 111.954 124.465 104.592 128.321C103.761 128.756 102.923 129.228 102.281 129.912C101.294 130.96 100.849 132.393 100.433 133.776C100.129 134.796 99.5232 136.586 100.185 137.596C100.786 138.506 102.687 138.738 103.654 139.001C106.631 139.811 109.696 140.31 112.767 140.719Z" fill="#F2F2F2"/>
<path d="M57.8879 133.357C58.1614 134.628 59.1246 135.788 60.3952 136.35C60.8332 136.542 61.2876 136.678 61.7547 136.776C62.3581 136.909 62.9812 136.968 63.6012 137.004C64.0287 137.029 64.4655 137.036 64.8915 137.05C65.2028 137.056 65.5083 137.062 65.8145 137.074C66.438 137.092 67.0606 137.103 67.679 137.127C68.3501 137.143 69.0279 137.165 69.6991 137.182C70.3175 137.206 70.935 137.224 71.5526 137.241C74.7801 137.348 78.0152 137.466 81.2459 137.596C81.8533 137.627 82.4776 137.65 83.0901 137.675C83.8473 137.71 84.6037 137.739 85.3609 137.774C85.9793 137.798 86.6044 137.827 87.2228 137.85C88.1181 137.891 89.0192 137.93 89.9095 137.977C90.5278 138 91.1462 138.024 91.772 138.059C93.9643 138.151 96.1574 138.248 98.3438 138.34C98.9739 138.363 99.6055 138.397 100.236 138.419C102.392 138.509 104.549 138.606 106.703 138.678C107.328 138.707 107.946 138.725 108.57 138.748C111.331 138.852 114.087 138.957 116.845 139.038C117.468 139.055 118.086 139.073 118.704 139.097C119.915 139.13 121.119 139.158 122.329 139.186C122.953 139.203 123.576 139.214 124.198 139.226C125.049 139.248 125.893 139.259 126.737 139.276C127.36 139.287 127.982 139.293 128.61 139.303C130.681 139.334 132.75 139.352 134.822 139.353C135.013 139.351 135.199 139.355 135.39 139.354C135.813 139.35 136.244 139.357 136.674 139.353C138.714 139.34 140.796 139.279 142.697 138.807C143.426 138.63 144.118 138.399 144.785 138.076C146.355 137.326 147.688 136.143 148.602 134.245C149.32 132.756 149.714 131.079 149.807 129.376C149.977 126.397 149.259 123.299 147.815 120.836C146.077 117.876 143.388 116.413 140.266 115.85C139.476 115.706 138.663 115.613 137.823 115.583C136.206 115.503 134.507 115.614 132.803 115.826C132.157 115.908 131.513 116.001 130.865 116.112C128.821 116.455 126.806 116.919 124.913 117.366C124.277 117.518 123.664 117.666 123.063 117.813C122.004 118.064 121.008 118.3 120.085 118.491C118.731 118.77 117.371 119.049 116.016 119.316C115.405 119.441 114.794 119.559 114.19 119.683C113.137 119.891 112.095 120.092 111.047 120.287C110.436 120.406 109.825 120.524 109.213 120.637C108.427 120.785 107.64 120.933 106.854 121.082C106.236 121.195 105.63 121.307 105.012 121.414C102.674 121.838 100.348 122.255 98.0078 122.661C97.3901 122.774 96.7708 122.876 96.1574 122.977C95.1131 123.16 94.068 123.337 93.0163 123.509C92.3919 123.618 91.7668 123.72 91.1416 123.823C90.5407 123.928 89.939 124.027 89.3365 124.121C88.7121 124.229 88.0928 124.331 87.4735 124.433C85.4053 124.772 83.3378 125.118 81.2739 125.445C80.6663 125.545 80.0587 125.645 79.4504 125.739C78.2763 125.934 77.1123 126.115 75.9441 126.309C75.319 126.412 74.6988 126.508 74.0795 126.609C73.0798 126.768 72.0859 126.927 71.087 127.092C70.4786 127.186 69.8644 127.281 69.2576 127.387C68.842 127.449 68.4214 127.518 68.0007 127.587C66.9842 127.755 65.4521 127.908 63.8965 128.196C63.2745 128.322 62.6592 128.453 62.0561 128.63C60.74 129.012 59.5466 129.549 58.764 130.342C57.8885 131.243 57.6603 132.337 57.8879 133.357Z" fill="#F7931E"/>
<path d="M57.8887 133.357C58.1622 134.628 59.1254 135.788 60.396 136.35C60.834 136.542 61.2883 136.678 61.7555 136.776C62.3588 136.909 62.982 136.968 63.602 137.004C64.0295 137.029 64.4663 137.036 64.8922 137.05C65.2035 137.056 65.509 137.062 65.8153 137.074C66.4387 137.092 67.0614 137.103 67.6797 137.127C68.3509 137.143 69.0287 137.165 69.6998 137.182C70.3182 137.206 70.9358 137.224 71.5534 137.242C74.7809 137.348 78.0159 137.466 81.2466 137.596C81.8541 137.627 82.4784 137.651 83.0909 137.675C83.8481 137.71 84.6045 137.739 85.3617 137.774C85.9801 137.798 86.6052 137.827 87.2235 137.851C88.1188 137.891 89.02 137.93 89.9102 137.977C90.5286 138.001 91.1469 138.024 91.7728 138.059C93.9651 138.151 96.1582 138.248 98.3446 138.34C98.9747 138.363 99.6063 138.397 100.236 138.419C102.393 138.509 104.55 138.606 106.704 138.678C107.329 138.707 107.946 138.725 108.571 138.748C111.332 138.853 114.087 138.957 116.846 139.038C117.469 139.055 118.087 139.073 118.705 139.097C119.916 139.13 121.12 139.158 122.33 139.186C122.954 139.203 123.576 139.214 124.199 139.226C125.05 139.248 125.894 139.259 126.738 139.276C127.361 139.288 127.983 139.293 128.611 139.303C130.682 139.334 132.751 139.352 134.823 139.353C135.014 139.351 135.2 139.356 135.39 139.354C135.814 139.35 136.245 139.357 136.674 139.353C138.715 139.34 140.797 139.279 142.698 138.807C143.427 138.63 144.118 138.4 144.785 138.076C146.356 137.326 147.689 136.143 148.603 134.245C149.321 132.756 149.715 131.079 149.807 129.376C119.36 133.657 88.271 136.544 57.8887 133.357Z" fill="#E87E13"/>
<path d="M137.83 115.582C138.681 116.751 139.45 117.979 140.137 119.26C142.883 124.371 144.177 130.269 143.305 136.049C143.168 136.976 142.958 137.9 142.704 138.8C143.432 138.624 144.124 138.393 144.791 138.07C145.022 137.089 145.197 136.086 145.31 135.067C145.626 132.014 145.389 128.893 144.681 125.913C143.829 122.314 142.29 118.927 140.272 115.843C139.476 115.7 138.664 115.613 137.83 115.582Z" fill="#E2760A"/>
<path d="M130.871 116.112C131.345 117.099 131.791 118.101 132.209 119.114C134.32 124.299 135.555 129.901 135.259 135.519C135.188 136.807 135.044 138.081 134.833 139.345C135.024 139.343 135.209 139.348 135.4 139.346C135.824 139.343 136.255 139.35 136.684 139.346C137.367 134.9 137.264 130.387 136.284 125.926C135.524 122.434 134.316 119.062 132.809 115.826C132.163 115.907 131.518 116 130.871 116.112Z" fill="#E2760A"/>
<path d="M123.063 117.813C123.311 118.323 123.548 118.835 123.774 119.36C126.134 124.75 127.472 130.619 127.065 136.527C126.998 137.449 126.895 138.365 126.749 139.269C127.372 139.28 127.993 139.286 128.622 139.296C129.26 135.011 129.06 130.619 128.078 126.362C127.365 123.251 126.277 120.245 124.92 117.365C124.283 117.517 123.665 117.666 123.063 117.813Z" fill="#E2760A"/>
<path d="M114.19 119.683C114.301 119.973 114.406 120.263 114.505 120.554C116.302 125.764 117.119 131.488 116.992 136.994C116.978 137.682 116.932 138.358 116.85 139.032C117.473 139.049 118.091 139.067 118.709 139.091C119.1 135.096 118.726 131.008 118.06 127.055C117.613 124.416 116.95 121.812 116.015 119.316C115.412 119.446 114.801 119.564 114.19 119.683Z" fill="#E2760A"/>
<path d="M105.012 121.421C105.063 121.623 105.125 121.817 105.182 122.019C106.701 127.415 107.225 133.101 106.708 138.678C107.333 138.707 107.95 138.725 108.575 138.748C108.862 135.573 108.822 132.366 108.476 129.193C108.176 126.445 107.635 123.729 106.854 121.088C106.235 121.195 105.629 121.307 105.012 121.421Z" fill="#E2760A"/>
<path d="M96.1591 122.983C96.1705 123.023 96.1878 123.063 96.2001 123.109C97.7181 128.016 98.3661 133.201 98.344 138.335C98.9741 138.357 99.6057 138.391 100.236 138.413C100.289 135.408 99.9925 132.378 99.548 129.446C99.1951 127.147 98.6913 124.88 98.0096 122.667C97.397 122.774 96.7784 122.881 96.1591 122.983Z" fill="#E2760A"/>
<path d="M87.4806 124.444C87.4814 124.45 87.4814 124.45 87.4822 124.455C89.1829 128.77 89.9857 133.38 89.9075 137.965C90.5258 137.989 91.1442 138.013 91.77 138.047C91.8327 133.303 91.0124 128.564 89.3435 124.132C88.7192 124.24 88.0999 124.342 87.4806 124.444Z" fill="#E2760A"/>
<path d="M79.4556 125.745C80.7633 129.539 81.3637 133.579 81.2436 137.591C81.851 137.622 82.4753 137.645 83.0878 137.669C83.2006 133.515 82.5816 129.383 81.2791 125.45C80.6715 125.55 80.0647 125.656 79.4556 125.745Z" fill="#E2760A"/>
<path d="M69.2583 127.393C69.8321 130.618 69.9742 133.92 69.699 137.182C70.3173 137.206 70.9349 137.224 71.5525 137.242C71.8295 133.86 71.6781 130.446 71.0885 127.104C70.4793 127.192 69.8659 127.293 69.2583 127.393Z" fill="#E2760A"/>
<path d="M62.0572 128.637C62.2465 130.874 62.2122 133.137 61.9436 135.389C61.8874 135.856 61.8245 136.318 61.7492 136.777C62.3525 136.91 62.9757 136.969 63.5956 137.005C63.7061 136.321 63.7932 135.64 63.8677 134.955C64.0894 132.709 64.1054 130.444 63.8918 128.203C63.2807 128.322 62.6603 128.459 62.0572 128.637Z" fill="#E2760A"/>
<path d="M74.0794 126.615C74.3227 127.442 74.5098 128.295 74.6557 129.153C74.7408 129.649 75.3085 129.961 75.778 129.855C76.2827 129.745 76.5602 129.236 76.481 128.739C76.3523 127.92 76.1716 127.115 75.9491 126.309C75.3188 126.418 74.6987 126.514 74.0794 126.615Z" fill="#E2760A"/>
<path d="M85.3662 136.489C85.3698 136.913 85.3675 137.337 85.3601 137.768C85.9785 137.792 86.6036 137.821 87.2219 137.845C87.236 137.419 87.2316 136.989 87.2331 136.559C87.2268 135.366 85.3584 135.284 85.3662 136.489Z" fill="#E2760A"/>
<path d="M91.1478 123.828C91.608 124.978 91.9767 126.159 92.2564 127.387C92.523 128.563 94.3432 128.156 94.0765 126.979C93.8099 125.803 93.4627 124.65 93.0232 123.521C92.3989 123.629 91.7737 123.731 91.1478 123.828Z" fill="#E2760A"/>
<path d="M102.264 126.654C102.782 126.56 103.241 126.856 103.38 127.357C103.862 129.113 104.052 130.957 103.939 132.77C103.91 133.258 103.481 133.71 102.967 133.666C102.472 133.625 102.041 133.218 102.072 132.694C102.098 132.272 102.107 131.853 102.104 131.43C102.097 131.204 102.09 130.978 102.078 130.758C102.069 130.646 102.06 130.534 102.057 130.421C102.055 130.409 102.054 130.403 102.053 130.397C102.049 130.362 102.043 130.321 102.044 130.285C101.953 129.431 101.791 128.587 101.56 127.765C101.425 127.299 101.786 126.742 102.264 126.654Z" fill="#E2760A"/>
<path d="M109.215 120.643C109.449 121.579 109.654 122.518 109.876 123.456C109.99 123.948 110.489 124.275 110.987 124.166C111.474 124.058 111.805 123.541 111.697 123.054C111.471 122.135 111.269 121.213 111.049 120.293C110.438 120.412 109.827 120.53 109.215 120.643Z" fill="#E2760A"/>
<path d="M121.9 135.655C122.075 136.814 122.247 137.997 122.341 139.179C122.964 139.196 123.587 139.207 124.21 139.218C124.119 137.887 123.922 136.564 123.726 135.246C123.652 134.743 123.078 134.432 122.615 134.537C122.087 134.656 121.826 135.157 121.9 135.655Z" fill="#E2760A"/>
<path d="M128.861 119.316C129.288 119.115 129.919 119.233 130.115 119.714C130.768 121.274 131.297 122.886 131.676 124.537C131.788 125.012 131.462 125.563 130.973 125.654C130.472 125.745 129.972 125.454 129.856 124.951C129.68 124.174 129.468 123.408 129.229 122.653C129.168 122.47 129.108 122.287 129.047 122.104C129.017 122.012 128.987 121.921 128.95 121.83C128.932 121.785 128.92 121.739 128.902 121.693C128.901 121.688 128.901 121.688 128.9 121.682C128.789 121.303 128.614 120.932 128.464 120.576C128.272 120.124 128.378 119.543 128.861 119.316Z" fill="#E2760A"/>
<path d="M140.805 130.29C141.361 130.334 141.66 130.735 141.701 131.261C141.822 132.774 141.843 134.294 141.755 135.805C141.725 136.293 141.297 136.745 140.783 136.701C140.288 136.661 139.856 136.253 139.887 135.729C139.974 134.213 139.961 132.697 139.834 131.186C139.791 130.696 140.34 130.251 140.805 130.29Z" fill="#E2760A"/>
<path d="M146.346 121.233C146.87 121.138 147.311 121.436 147.462 121.936C147.825 123.164 148.119 124.409 148.344 125.674C148.427 126.153 148.148 126.698 147.641 126.791C147.163 126.879 146.618 126.601 146.525 126.088C146.301 124.828 146.006 123.578 145.643 122.349C145.501 121.878 145.873 121.314 146.346 121.233Z" fill="#E2760A"/>
<path d="M65.9354 135.135C65.898 135.785 65.8597 136.43 65.8156 137.075C66.439 137.092 67.0617 137.103 67.68 137.127C67.725 136.488 67.7581 135.85 67.7972 135.212C67.8672 134.008 66.0062 133.937 65.9354 135.135Z" fill="#E2760A"/>
<path opacity="0.3" d="M135.865 120.029C136.523 120.388 136.978 120.888 136.987 121.567C137.008 123.051 134.344 123.884 133.212 124.079C127.131 125.134 121.006 125.898 114.933 127.012C108.552 128.18 102.123 129.307 95.6197 129.446C94.0953 129.479 87.4197 129.093 90.1898 126.305C91.8351 124.649 95.0807 124.58 97.236 124.133C102.812 122.967 108.621 122.999 114.265 122.253C117.985 121.761 121.684 121.159 125.369 120.452C128.744 119.792 132.57 118.229 135.865 120.029Z" fill="white"/>
<path d="M177.199 131.347C181.306 126.499 180.706 119.239 175.858 115.131C171.01 111.024 163.75 111.624 159.642 116.472C155.535 121.32 156.135 128.58 160.983 132.688C165.831 136.795 173.091 136.195 177.199 131.347Z" fill="#F2AAAA"/>
<path d="M163.827 117.397C163.924 118.597 165.808 119.417 168.035 119.235C170.262 119.053 171.986 117.93 171.883 116.731C171.787 115.532 169.902 114.712 167.675 114.894C165.449 115.082 163.725 116.199 163.827 117.397Z" fill="#F9C5C5"/>
<path d="M162.358 138.696C161.43 136.959 157.013 131.464 154.955 134.126C154.316 134.965 153.936 136.043 153.314 136.922C151.349 139.654 148.428 141.549 145.543 143.05C142.502 144.626 139.101 145.666 135.669 145.634C135.053 145.634 134.359 145.626 133.947 146.106C133.573 146.521 133.575 147.202 133.82 147.73C134.063 148.246 134.493 148.642 134.94 148.988C135.886 149.714 136.913 150.286 137.995 150.731C139.326 151.303 140.731 151.71 142.138 152.003C145.343 152.692 148.655 152.889 151.876 152.376C155.612 151.787 159.908 150.256 162.12 146.875C162.982 145.564 163.389 144.021 163.352 142.474C163.314 141.177 162.983 139.872 162.358 138.696Z" fill="#F2F2F2"/>
<path d="M161.402 140.355C161.429 141.79 161.02 143.225 160.169 144.445C157.98 147.596 153.774 149.043 150.114 149.622C146.968 150.119 143.727 149.955 140.598 149.345C139.225 149.083 137.856 148.719 136.561 148.195C135.508 147.788 134.506 147.267 133.592 146.602C133.16 146.278 132.741 145.917 132.503 145.442C132.27 144.954 132.275 144.326 132.64 143.936C133.052 143.492 133.726 143.49 134.329 143.486C137.686 143.492 141.016 142.504 143.999 141.019C146.836 139.608 149.701 137.829 151.638 135.285C152.255 134.461 152.627 133.461 153.262 132.677C155.291 130.192 159.571 135.257 160.469 136.862C161.076 137.944 161.388 139.15 161.402 140.355Z" fill="#CE5959"/>
<path d="M161.4 140.355C161.427 141.79 161.018 143.225 160.168 144.445C157.979 147.596 153.773 149.043 150.113 149.622C146.967 150.12 143.725 149.955 140.597 149.345C139.224 149.083 137.855 148.719 136.559 148.195C138.859 146.654 141.278 145.287 143.817 144.185C149.335 141.76 155.354 140.558 161.4 140.355Z" fill="#DD7878"/>
<path d="M268.56 121.662C262.034 123.62 255.319 124.75 248.513 125.073C239.526 136.514 230.996 148.287 222.706 160.248C215.07 171.255 207.644 182.407 200.256 193.572C198.054 196.892 192.632 193.851 194.843 190.506C202.259 179.29 209.726 168.091 217.387 157.044C222.434 149.762 227.574 142.551 232.835 135.442C232.712 135.154 232.627 134.832 232.591 134.478C231.987 128.295 231.172 122.14 230.121 116.005C229.455 112.094 235.429 110.342 236.099 114.277C236.893 118.959 237.57 123.651 238.142 128.364C242.945 122.058 247.865 115.826 252.933 109.723C255.497 106.641 259.933 111.004 257.391 114.065C256.194 115.505 255.015 116.943 253.838 118.392C258.228 117.87 262.55 116.969 266.826 115.685C270.676 114.525 272.388 120.511 268.56 121.662Z" fill="#9B500D"/>
<path d="M222.705 160.243C215.069 171.25 207.643 182.401 200.255 193.566C198.053 196.886 192.631 193.845 194.842 190.5C202.258 179.284 209.725 168.085 217.386 157.038C219.199 158.035 220.974 159.103 222.705 160.243Z" fill="#874006"/>
<path d="M277.33 102.254C277.288 103.221 277.198 104.189 277.047 105.147C276.353 109.732 274.476 114.131 271.986 118.063C267.892 124.524 262.223 129.901 256.468 134.861C256.356 134.959 256.243 135.052 256.142 135.144C255.147 136.001 254.136 136.83 253.106 137.645C252.832 137.873 252.55 138.084 252.27 138.307C251.319 139.051 250.355 139.779 249.377 140.496C249.256 140.578 249.149 140.665 249.028 140.747C248.425 141.187 247.813 141.61 247.197 142.04C242.496 139.654 237.887 137.064 233.337 134.419C230.465 132.747 227.631 131.005 224.902 129.11C224.843 129.071 224.79 129.03 224.731 128.99C224.777 128.142 224.836 127.298 224.907 126.452C224.917 126.301 224.927 126.157 224.942 126.005C225.047 124.88 225.163 123.754 225.31 122.635C225.345 122.409 225.367 122.173 225.408 121.947C226.062 117.11 227.066 112.215 228.577 107.585C229.582 104.504 230.895 101.496 232.664 98.7719C233.901 96.8785 235.432 94.2884 237.785 93.6714C238.557 93.4653 239.427 93.5387 240.087 93.9989C240.607 94.3585 240.947 94.9277 241.197 95.497C242.539 98.6122 241.827 102.537 241.302 105.761C241.287 105.871 241.265 105.969 241.244 106.08C241.178 106.477 241.101 106.875 241.022 107.268C240.974 107.526 240.937 107.782 240.887 108.033C240.864 108.132 240.842 108.23 240.814 108.33C240.785 108.471 240.755 108.6 240.726 108.742C240.579 109.377 240.427 110.018 240.257 110.657C240.641 110.007 241.014 109.372 241.393 108.729C241.403 108.71 241.418 108.69 241.427 108.671C241.796 108.041 242.171 107.417 242.541 106.794C242.579 106.723 242.623 106.651 242.667 106.58C243.346 105.461 244.019 104.342 244.718 103.244C249.931 94.9841 257.639 82.2533 269.382 87.5623C271.737 88.6352 273.774 90.4021 275.135 92.6068C276.905 95.449 277.475 98.9076 277.33 102.254Z" fill="#D10505"/>
<path d="M277.052 105.146C276.358 109.731 274.481 114.13 271.991 118.062C267.896 124.523 262.227 129.901 256.472 134.86C256.36 134.959 256.247 135.052 256.146 135.143C255.151 136 254.141 136.83 253.11 137.644C252.837 137.872 252.555 138.084 252.274 138.307C251.324 139.05 250.359 139.778 249.381 140.496C249.261 140.578 249.153 140.664 249.033 140.746C248.43 141.186 247.818 141.609 247.201 142.039C242.501 139.653 237.892 137.064 233.342 134.418C230.47 132.747 227.636 131.004 224.907 129.11C224.848 129.07 224.795 129.029 224.735 128.99C224.782 128.141 224.841 127.297 224.912 126.451C224.921 126.301 224.931 126.156 224.947 126.005C225.051 124.88 225.168 123.753 225.315 122.634C225.35 122.409 225.372 122.173 225.413 121.946C236.669 129.214 253.531 125.702 264.166 118.41C269.467 114.772 273.648 110.229 277.052 105.146Z" fill="#B70000"/>
<path d="M254.654 93.3418C257.146 91.0158 260.266 89.226 263.654 88.8869C267.042 88.5479 270.701 89.8564 272.644 92.6513C273.711 94.1792 274.212 96.2077 273.533 97.942C273.361 98.3893 273.097 98.8193 272.702 99.0817C272.192 99.4194 271.544 99.4413 270.934 99.4343C265.897 99.4171 260.621 98.7336 256.02 100.79C253.902 101.733 252.071 103.211 250.239 104.636C249.694 105.062 249.114 105.499 248.432 105.627C247.751 105.755 246.936 105.471 246.699 104.822C246.212 103.514 248.796 100.68 249.538 99.5882C251.052 97.3588 252.681 95.1854 254.654 93.3418Z" fill="#DD0B0B"/>
<path d="M254.17 146.178C252.766 148.96 249.386 150.457 246.217 149.906C244.811 149.661 243.456 149.05 242.322 148.176C240.653 149.124 238.565 149.359 236.787 148.536C235.532 147.954 234.585 146.959 233.988 145.774C233.076 145.915 232.13 145.858 231.191 145.537C229.526 144.974 228.239 143.673 227.524 142.092C226.408 142.141 225.288 141.94 224.264 141.482C222.484 140.683 221.287 139.167 220.845 137.399C220.488 137.233 220.143 137.023 219.84 136.771C218.703 135.826 217.795 134.677 217.328 133.259C216.837 131.748 217.067 130.051 217.816 128.654C218.065 128.196 218.366 127.773 218.721 127.396C221.144 124.823 225.512 124.489 228.232 126.76C228.637 127.1 228.987 127.482 229.283 127.902C229.663 127.797 230.047 127.721 230.442 127.686C231.733 127.559 232.936 127.934 233.953 128.608C235.083 127.954 236.467 127.814 237.706 128.232C238.727 128.583 239.446 129.125 240.133 129.922C240.487 130.334 240.793 130.782 241.054 131.255C242.898 131.154 244.749 131.86 246.095 133.158C247.159 134.179 247.844 135.448 248.157 136.785C251.903 136.756 255.04 139.939 254.808 143.745C254.767 144.634 254.537 145.448 254.17 146.178Z" fill="#F2F2F2"/>
<path d="M254.17 146.178C253.711 146.276 253.248 146.339 252.779 146.361C250.094 146.509 247.191 145.665 245.23 143.84C244.279 144.232 243.307 144.507 242.37 144.64C238.939 145.152 235.707 143.511 234.319 140.754C230.217 141.291 226.372 138.61 225.717 134.518C224.9 134.617 224.065 134.622 223.254 134.547C220.18 134.252 217.803 131.642 217.822 128.653C218.071 128.195 218.372 127.772 218.727 127.396C221.15 124.822 225.518 124.488 228.239 126.76C228.643 127.099 228.993 127.482 229.289 127.901C229.669 127.796 230.053 127.72 230.448 127.685C231.739 127.558 232.942 127.933 233.959 128.607C235.089 127.953 236.473 127.813 237.713 128.231C238.734 128.582 239.452 129.124 240.139 129.921C240.493 130.333 240.799 130.781 241.06 131.254C242.904 131.153 244.755 131.859 246.101 133.158C247.165 134.178 247.851 135.447 248.163 136.784C251.91 136.755 255.046 139.938 254.814 143.744C254.767 144.634 254.537 145.448 254.17 146.178Z" fill="white"/>
<path d="M225.261 128.733C224.445 127.912 223.103 127.795 222.123 128.358C221.917 128.475 221.874 128.773 222.001 128.959C222.137 129.168 222.398 129.198 222.603 129.081C223.273 128.698 224.166 128.851 224.691 129.378C225.258 129.946 225.283 130.88 224.88 131.526C224.758 131.728 224.88 132.01 225.079 132.108C225.303 132.221 225.533 132.112 225.661 131.91C226.262 130.921 226.077 129.554 225.261 128.733Z" fill="#F2F2F2"/>
<path d="M233.634 135.788C233.522 136.018 233.122 136.108 232.899 136.186C232.626 136.283 232.349 136.356 232.06 136.383C231.5 136.435 230.962 136.305 230.54 135.92C229.717 135.177 229.726 133.832 230.604 133.128C230.788 132.984 230.868 132.734 230.726 132.527C230.606 132.346 230.307 132.255 230.124 132.405C228.815 133.454 228.688 135.43 229.959 136.566C230.57 137.111 231.383 137.335 232.188 137.238C232.599 137.188 233.002 137.08 233.382 136.927C233.791 136.77 234.201 136.583 234.403 136.174C234.657 135.673 233.883 135.289 233.634 135.788Z" fill="#F2F2F2"/>
<path d="M244.76 139.61C244.93 138.267 244.588 136.797 243.42 135.981C242.813 135.556 242.105 135.442 241.376 135.392C240.761 135.35 240.081 135.358 239.583 135.784C239.407 135.939 239.319 136.172 239.462 136.385C239.575 136.561 239.882 136.663 240.064 136.507C240.411 136.209 240.867 136.219 241.301 136.25C241.856 136.288 242.449 136.351 242.918 136.682C243.797 137.304 244.039 138.436 243.913 139.444C243.838 139.992 244.691 140.163 244.76 139.61Z" fill="#F2F2F2"/>
<path d="M250.449 142.298C250.423 141.8 250.32 141.3 250.12 140.843C249.911 140.352 249.626 139.841 249.189 139.524C248.294 138.863 247.202 139.226 246.31 139.699C246.105 139.81 246.068 140.114 246.189 140.3C246.325 140.509 246.579 140.534 246.791 140.422C247.347 140.12 248.166 139.77 248.727 140.256C249.297 140.758 249.551 141.625 249.584 142.355C249.612 142.913 250.476 142.856 250.449 142.298Z" fill="#F2F2F2"/>
<path d="M242.573 141.966C241.908 142.397 241.022 142.511 240.298 142.149C239.574 141.787 239.146 141.003 239.223 140.204C239.245 139.968 239.517 139.818 239.732 139.86C239.977 139.911 240.097 140.133 240.075 140.369C240.071 140.382 240.073 140.393 240.073 140.399C240.074 140.405 240.075 140.411 240.077 140.429C240.081 140.458 240.079 140.482 240.083 140.511C240.087 140.547 240.091 140.576 240.096 140.611C240.098 140.623 240.106 140.64 240.108 140.651C240.129 140.72 240.149 140.783 240.176 140.851C240.159 140.812 240.17 140.846 240.185 140.868C240.201 140.902 240.217 140.929 240.239 140.962C240.255 140.99 240.277 141.023 240.299 141.05C240.305 141.055 240.328 141.088 240.342 141.104C240.356 141.12 240.391 141.157 240.391 141.157C240.412 141.178 240.432 141.199 240.452 141.214C240.48 141.24 240.507 141.26 240.533 141.281C240.546 141.291 240.56 141.301 240.573 141.311C240.625 141.34 240.676 141.369 240.728 141.398C240.754 141.412 240.786 141.426 240.817 141.433C240.829 141.438 240.854 141.446 240.867 141.451C240.929 141.466 240.996 141.481 241.063 141.49C241.1 141.497 241.136 141.498 241.173 141.505C241.184 141.503 241.203 141.507 241.215 141.505C241.292 141.501 241.364 141.503 241.434 141.493C241.564 141.482 241.633 141.46 241.781 141.41C241.924 141.361 241.962 141.338 242.099 141.248C242.297 141.12 242.567 141.173 242.701 141.37C242.822 141.556 242.771 141.838 242.573 141.966Z" fill="#F2F2F2"/>
<path opacity="0.2" d="M150.981 40.9883C152.043 40.3608 153.166 39.7489 154.398 39.6241C155.629 39.4993 157.003 39.9882 157.569 41.0822C158.135 42.1761 157.761 43.5586 157.009 44.5323C156.257 45.5119 155.196 46.1871 154.215 46.9231C151.677 48.8252 149.528 51.2182 146.934 53.0505C144.617 54.6898 141.961 55.8495 139.186 56.44C137.433 56.8146 134.326 56.4526 135.286 53.9696C135.978 52.1977 138.7 50.2886 140.089 49.0317C143.434 45.9871 147.088 43.2888 150.981 40.9883Z" fill="white"/>
<path d="M205.732 100.458L177.277 97.9596C163.962 94.1414 149.593 93.3562 136.044 94.1624C135.676 94.1823 135.304 94.2147 134.938 94.2404L101.676 91.3118C104.406 83.1544 109.319 75.8963 114.7 69.1898C114.854 69.0018 115.017 68.7945 115.172 68.6182C117.245 66.0623 119.393 63.5739 121.621 61.1522C137.556 43.8084 157.329 29.9884 179.122 21.0255C181.564 22.7912 184.934 23.3267 187.949 23.5457C189.011 23.6231 190.083 23.6871 191.157 23.7687C192.553 26.4047 193.852 29.0777 194.896 31.9404C195.175 32.6791 195.427 33.4334 195.664 34.2135C197.922 41.6779 200.052 49.1657 201.463 56.8523C204.065 71.1384 205.47 85.8968 205.732 100.458Z" fill="#D10505"/>
<path d="M205.732 100.458L177.276 97.9595C163.961 94.1413 149.593 93.3562 136.043 94.1624C135.676 94.1823 135.304 94.2147 134.937 94.2404L101.675 91.3117C104.406 83.1544 109.318 75.8962 114.7 69.1898C114.853 69.0018 115.016 68.7945 115.172 68.6182C117.245 66.0622 119.392 63.5739 121.621 61.1522C127.151 60.0932 132.789 59.5633 138.399 59.4014C145.413 59.1989 152.421 59.5704 159.392 60.2456C167.03 60.9918 175.281 61.9418 181.926 58.0863C188.306 54.3862 191.662 47.0102 193.161 39.7778C193.682 37.223 194.122 34.4758 194.897 31.9463C195.176 32.6849 195.427 33.4392 195.664 34.2194C197.922 41.6838 200.052 49.1716 201.463 56.8582C204.064 71.1383 205.47 85.8968 205.732 100.458Z" fill="#BA0000"/>
<path d="M217.327 98.2316C217.998 102.966 216.995 107.737 213.339 111.791C212.949 112.22 210.512 115.351 209.802 114.915C205.576 112.28 201.633 109.23 197.397 106.614C191.284 102.837 184.636 100.051 177.71 98.0798C164.128 94.1844 149.484 93.3889 135.667 94.2074C135.294 94.228 134.909 94.2561 134.537 94.2885C122.526 95.0776 110.069 97.5157 100.906 105.271C100.247 105.827 99.5862 106.418 98.7548 106.673C95.3808 107.691 95.6688 101.919 95.3026 100.051C94.72 97.1142 94.5858 94.0925 94.9066 91.1227C95.1464 88.9223 95.6463 86.7464 96.4158 84.6654C97.6732 81.2463 99.6491 78.1063 102.344 75.6035C105.756 72.4364 109.882 70.0028 114.38 68.152C123.915 64.2041 135.1 62.8756 144.602 62.7007C156.677 62.4703 168.728 64.4051 180.39 67.569C188.296 69.7184 197.114 72.9626 204.145 77.9597C205.235 78.7378 206.316 79.6188 207.351 80.6015C212.225 85.1499 216.386 91.67 217.327 98.2316Z" fill="#EF8F8F"/>
<path d="M217.327 98.2316C217.998 102.967 216.995 107.737 213.339 111.791C212.949 112.22 210.512 115.351 209.802 114.915C205.576 112.28 201.633 109.23 197.397 106.614C191.284 102.837 184.636 100.051 177.71 98.0799C164.128 94.1844 149.484 93.3889 135.667 94.2074C135.294 94.2281 134.909 94.2561 134.537 94.2885C122.526 95.0777 110.069 97.5158 100.906 105.271C100.247 105.827 99.5862 106.418 98.7548 106.673C95.3808 107.691 95.6688 101.919 95.3026 100.051C94.72 97.1143 94.5858 94.0926 94.9066 91.1227C95.1464 88.9223 95.6463 86.7464 96.4158 84.6655C96.7116 84.9539 97.052 85.2184 97.4788 85.4593C99.196 86.4095 101.246 86.7293 103.18 86.8976C111.908 87.6636 120.586 85.4202 129.259 84.2347C138.347 82.9871 147.555 82.8877 156.707 83.3932C168.02 84.0185 179.409 85.6068 189.962 89.7151C198.872 93.1918 207.537 98.5291 217.101 98.2324C217.173 98.2405 217.255 98.2294 217.327 98.2316Z" fill="#E57F7F"/>
<path d="M153.92 64.94C152.221 68.7174 151.816 72.8334 151.394 76.904L149.916 91.1389C149.78 92.4294 151.781 92.702 151.917 91.4115C152.391 86.8324 152.864 82.2533 153.343 77.6734C153.762 73.6153 154.093 69.4855 155.786 65.7147C156.319 64.5318 154.452 63.7571 153.92 64.94Z" fill="#D66969"/>
<path d="M148.864 65.0148C145.744 73.0336 144.089 81.5471 144.011 90.1518C144 91.4374 145.997 91.7166 146.013 90.4244C146.091 81.993 147.674 73.6564 150.731 65.7953C151.2 64.5792 149.339 63.8038 148.864 65.0148Z" fill="#D66969"/>
<path d="M143.437 65.0441C139.092 72.8824 137.893 81.8956 136.791 90.6567C136.631 91.9446 138.633 92.2172 138.793 90.9294C139.874 82.3204 141.03 73.5219 145.297 65.8196C145.933 64.6884 144.061 63.9205 143.437 65.0441Z" fill="#D66969"/>
<path d="M136.536 65.8409C135.199 69.8562 133.357 73.9933 133.014 78.2502C132.651 82.677 132.723 87.1764 132.606 91.6117C132.571 92.9005 134.568 93.1797 134.608 91.8843C134.724 87.5805 134.705 83.2471 134.985 78.957C135.264 74.7088 137.07 70.6241 138.403 66.6155C138.811 65.3898 136.949 64.6085 136.536 65.8409Z" fill="#D66969"/>
<path d="M128.491 67.3415C126.417 75.5891 125.49 84.0519 125.667 92.5505C125.693 93.8489 127.691 93.5666 127.667 92.2799C127.492 83.9722 128.465 75.6704 130.492 67.6083C130.812 66.3526 128.805 66.0925 128.491 67.3415Z" fill="#D66969"/>
<path d="M121.545 69.416C120.48 76.7269 119.907 84.1026 119.838 91.4937C119.827 92.7793 121.824 93.0585 121.84 91.7663C121.909 84.3752 122.476 77.0062 123.547 69.6887C123.731 68.4035 121.736 68.136 121.545 69.416Z" fill="#D66969"/>
<path d="M116.155 70.8143C114.266 78.5652 113.708 86.5839 114.466 94.526C114.587 95.8175 116.587 95.5469 116.466 94.2553C115.72 86.4849 116.304 78.6657 118.151 71.0877C118.463 69.8211 116.463 69.5602 116.155 70.8143Z" fill="#D66969"/>
<path d="M110.953 73.4113C108.287 80.7656 107.306 88.6144 108.102 96.3961C108.235 97.6861 110.235 97.4155 110.102 96.1255C109.349 88.7024 110.274 81.1954 112.819 74.1859C113.258 72.968 111.397 72.1925 110.953 73.4113Z" fill="#D66969"/>
<path d="M105.06 76.4423C102.684 83.8648 101.822 91.656 102.532 99.4195C102.653 100.711 104.653 100.44 104.532 99.1489C103.854 91.7573 104.658 84.2845 106.921 77.2177C107.316 75.9877 105.454 75.2006 105.06 76.4423Z" fill="#D66969"/>
<path d="M99.2994 81.2592C97.6988 88.1887 97.2391 95.34 97.9107 102.422C98.0317 103.713 100.032 103.443 99.9107 102.151C99.2562 95.2402 99.7378 88.295 101.301 81.5318C101.595 80.2618 99.5899 80.0075 99.2994 81.2592Z" fill="#D66969"/>
<path d="M158.336 66.1697C157.484 74.2581 156.636 82.3398 155.784 90.4282C155.648 91.7187 157.649 91.9913 157.785 90.7008C158.638 82.6124 159.485 74.5307 160.338 66.4423C160.473 65.146 158.471 64.8733 158.336 66.1697Z" fill="#D66969"/>
<path d="M163.409 67.7706C163.875 75.6269 163.459 83.5009 162.205 91.2674C161.996 92.5499 163.997 92.8166 164.206 91.5401C165.491 83.5963 165.887 75.5338 165.409 67.5C165.335 66.2021 163.336 66.4786 163.409 67.7706Z" fill="#D66969"/>
<path d="M168.878 69.061C169.801 76.8494 169.496 84.7025 167.993 92.4011C167.742 93.6773 169.749 93.9433 169.995 92.6737C171.529 84.8096 171.818 76.7497 170.879 68.7962C170.727 67.4969 168.727 67.7675 168.878 69.061Z" fill="#D66969"/>
<path d="M176.804 69.4519C176.577 68.1746 174.576 68.4394 174.804 69.7225C176.226 77.6704 176.057 85.7797 174.323 93.6649C174.041 94.9334 176.047 95.1934 176.325 93.9374C178.097 85.8918 178.253 77.5573 176.804 69.4519Z" fill="#D66969"/>
<path d="M183.255 71.2546C182.908 70.0116 181.051 70.8122 181.398 72.0493C183.545 79.7079 183.616 87.8207 181.715 95.5373C181.408 96.7972 183.408 97.0581 183.717 95.8099C185.703 87.7115 185.505 79.2755 183.255 71.2546Z" fill="#D66969"/>
<path d="M187.455 74.0069C188.667 82.0369 188.74 90.1731 187.674 98.2248C187.502 99.5142 189.503 99.7809 189.676 98.4974C190.767 90.2752 190.69 81.9364 189.455 73.7363C189.257 72.455 187.257 72.7198 187.455 74.0069Z" fill="#D66969"/>
<path d="M194.912 75.7034C194.605 74.4548 192.604 74.7137 192.912 75.974C194.843 83.847 194.779 92.1153 192.619 99.9387C192.278 101.173 194.135 101.961 194.48 100.714C196.742 92.5425 196.935 83.9461 194.912 75.7034Z" fill="#D66969"/>
<path d="M201.442 78.6779C201.204 77.408 199.203 77.6669 199.442 78.9485C201.062 87.5205 200.869 96.2901 198.883 104.783C198.588 106.047 200.588 106.308 200.884 105.055C202.903 96.4031 203.088 87.4016 201.442 78.6779Z" fill="#D66969"/>
<path d="M207.239 81.8111C206.892 80.5681 205.041 81.368 205.382 82.606C206.56 86.8541 207.347 90.9939 207.045 95.4244C206.759 99.5781 205.841 103.65 204.888 107.691C204.593 108.955 206.594 109.216 206.89 107.963C207.909 103.621 208.892 99.2356 209.099 94.7642C209.299 90.2818 208.429 86.1054 207.239 81.8111Z" fill="#D66969"/>
<path d="M211.796 91.0786C212.706 97.7638 212.058 104.582 209.87 110.964C209.451 112.192 211.311 112.967 211.731 111.74C214.034 105.014 214.754 97.8509 213.79 90.8088C213.622 89.5235 211.621 89.7883 211.796 91.0786Z" fill="#D66969"/>
<path opacity="0.2" d="M166.287 68.9101C167.459 69.0921 168.671 69.3162 169.621 70.0238C170.571 70.7314 171.159 72.0732 170.634 73.1357C170.254 73.9037 169.421 74.327 168.62 74.6324C165.626 75.7603 162.365 75.8969 159.169 75.977C146.538 76.2887 133.777 75.9072 121.427 78.5578C119.453 78.9801 110.791 81.4304 110.551 77.6763C110.365 74.7571 115.705 72.5058 117.827 71.8602C127.749 68.8275 138.417 67.5631 148.767 67.5602C154.618 67.5449 160.49 67.9984 166.287 68.9101Z" fill="white"/>
<path d="M202.83 33.1066C203.004 34.7016 202.817 36.3156 202.139 37.793C200.315 41.7963 195.237 44.3409 190.574 44.2193C186.785 48.5245 180.431 48.4406 176.535 45.2529C172.759 46.6537 168.537 46.0784 165.417 42.1348C163.2 39.3412 162.927 35.5618 164.18 32.3285C164.49 31.5281 164.899 30.756 165.387 30.039C165.373 29.7125 165.388 29.3819 165.403 29.0573C165.202 28.5829 165.023 28.0995 164.866 27.6011C164.842 27.5566 164.807 27.5195 164.777 27.4758C162.124 23.272 162.893 18.0555 166.452 14.9163C166.985 14.444 167.591 14.0217 168.246 13.6524C171.814 11.6825 175.969 12.1175 179.337 14.0566C183.858 9.59285 191.241 8.80883 196.71 13.6052C197.23 14.0543 197.674 14.5556 198.068 15.0816C199.225 16.6152 199.842 18.4369 200.007 20.3198C200.081 20.9966 200.071 21.6786 200.025 22.3538C200.464 22.7663 200.871 23.2188 201.248 23.7054C201.574 24.133 201.888 24.5982 202.162 25.0807C203.648 27.6328 203.855 30.4835 202.83 33.1066Z" fill="#E57F7F"/>
<path d="M201.249 23.7051C201.414 25.0087 201.249 26.3509 200.752 27.6187C200.899 29.0142 200.744 30.4326 200.15 31.7314C198.542 35.2517 194.068 37.4994 189.968 37.3912C186.634 41.1749 181.045 41.0951 177.62 38.2917C174.298 39.5176 170.587 39.0164 167.855 35.5519C167.458 35.0443 167.134 34.5087 166.879 33.946C165.992 33.5285 165.124 33.0249 164.281 32.3985C164.247 32.3731 164.214 32.3477 164.181 32.3224C164.491 31.522 164.9 30.7499 165.388 30.0329C165.374 29.7063 165.389 29.3758 165.404 29.0512C165.203 28.5768 165.024 28.0934 164.867 27.595C164.843 27.5505 164.808 27.5134 164.778 27.4696C162.125 23.2658 162.894 18.0494 166.453 14.9102C166.987 14.4379 167.592 14.0155 168.247 13.6462C171.815 11.6764 175.971 12.1113 179.339 14.0505C183.859 9.58671 191.242 8.80269 196.711 13.599C197.231 14.0482 197.675 14.5494 198.069 15.0755C199.226 16.6091 199.843 18.4308 200.008 20.3136C200.082 20.9905 200.073 21.6725 200.027 22.3476C200.465 22.766 200.879 23.2178 201.249 23.7051Z" fill="#EF8F8F"/>
<path d="M180.796 23.4148C180.536 22.596 180.282 21.7822 180.022 20.9634C179.803 20.2704 179.591 19.5883 179.185 18.9743C178.278 17.61 176.474 17.4719 174.979 17.4115C173.387 17.3461 171.862 17.6362 170.536 18.568C169.342 19.4104 168.498 20.6714 168.132 22.0765C167.68 23.81 168.078 25.6435 169.06 27.123C169.353 27.5671 170.051 27.6041 170.451 27.2932C170.9 26.9458 170.921 26.3516 170.621 25.9025C169.069 23.5683 170.293 20.2553 173.014 19.5347C173.822 19.3238 174.667 19.3468 175.484 19.4274C176.066 19.4861 176.982 19.4636 177.426 19.9172C177.823 20.3353 177.968 21.0143 178.136 21.5471C178.417 22.4288 178.691 23.3055 178.971 24.1873C179.13 24.6974 179.815 24.9033 180.272 24.71C180.809 24.4822 180.96 23.9241 180.796 23.4148Z" fill="#E57F7F"/>
<path d="M195.959 22.8919C195.011 21.3122 193.369 20.0412 191.639 19.4332C189.487 18.6732 187.076 18.904 185.227 20.2889C184.208 21.0539 185.422 22.6156 186.447 21.8498C187.999 20.6903 190.022 20.7688 191.695 21.6115C193.219 22.3727 194.634 23.7819 194.778 25.5482C194.909 27.137 194.089 28.7112 192.829 29.6401C191.357 30.7232 189.435 30.9534 187.671 30.6306C186.416 30.4004 186.156 32.3646 187.405 32.5898C190.988 33.2457 195.091 31.705 196.367 28.0684C196.972 26.3621 196.901 24.4666 195.959 22.8919Z" fill="#E57F7F"/>
<path d="M76.8606 159.116C76.7669 158.998 76.6689 158.891 76.5701 158.779C75.8222 157.931 75.0642 157.096 74.2843 156.276C74.1249 156.112 73.9638 155.937 73.7992 155.78C70.7551 163.693 63.3487 169.425 55.0575 172.679C55.1806 174.251 55.2325 175.827 55.2736 177.41C55.712 179.017 56.0574 180.643 56.3206 182.279C56.3947 182.562 56.4637 182.851 56.5143 183.137C56.5851 183.527 56.686 183.92 56.7165 184.322C56.721 184.399 56.7187 184.471 56.7232 184.548C56.7349 184.546 56.7415 184.551 56.7533 184.55C58.0633 184.653 59.3693 184.727 60.678 184.777C61.0336 184.801 61.3867 184.807 61.7407 184.819C62.9473 184.864 64.1559 184.88 65.3687 184.883C65.5118 184.882 65.655 184.88 65.7981 184.879C66.5447 184.879 67.2889 184.862 68.039 184.844C70.4316 180.149 72.63 175.342 74.749 170.523C76.0814 167.481 77.3437 164.408 78.435 161.262C78.4615 161.193 78.477 161.131 78.5043 161.068C77.9617 160.413 77.4192 159.757 76.8606 159.116Z" fill="#B70000"/>
<path d="M64.8436 192.306C67.6162 193.729 71.2304 192.941 73.468 190.631C74.4583 189.608 75.1968 188.313 75.5962 186.939C77.5012 186.717 79.3319 185.681 80.2769 183.971C80.9488 182.757 81.1296 181.401 80.91 180.087C81.7301 179.659 82.4611 179.059 83.0262 178.248C84.0379 176.809 84.3125 174.998 83.9584 173.308C84.8903 172.692 85.6748 171.869 86.2353 170.891C87.207 169.201 87.2799 167.268 86.591 165.576C86.7835 165.233 86.9361 164.86 87.0335 164.477C87.3948 163.042 87.4534 161.577 86.9935 160.164C86.5024 158.654 85.3139 157.417 83.8835 156.733C83.4114 156.51 82.9171 156.344 82.4089 156.251C78.9343 155.599 75.2092 157.906 74.3485 161.344C74.2208 161.857 74.1651 162.372 74.1688 162.885C73.7995 163.024 73.4459 163.192 73.1029 163.393C71.9856 164.052 71.2324 165.062 70.8079 166.206C69.5129 166.346 68.3058 167.047 67.5546 168.116C66.9337 169 66.6745 169.865 66.5889 170.91C66.5431 171.454 66.5625 171.995 66.6288 172.529C65.0805 173.533 64.0035 175.196 63.6794 177.037C63.4217 178.487 63.6153 179.919 64.1509 181.184C61.1081 183.369 60.446 187.789 62.8742 190.727C63.45 191.408 64.1182 191.932 64.8436 192.306Z" fill="#F2F2F2"/>
<path d="M64.8425 192.306C65.2708 192.117 65.6817 191.888 66.0719 191.638C68.3293 190.18 70.1784 187.78 70.6884 185.149C71.6887 184.906 72.638 184.55 73.4683 184.11C76.5411 182.499 78.1829 179.273 77.6814 176.229C81.3128 174.245 82.8338 169.817 80.9603 166.123C81.6764 165.721 82.3571 165.235 82.9646 164.693C85.2732 162.642 85.6583 159.132 83.8815 156.727C83.4094 156.504 82.9152 156.338 82.4069 156.246C78.9323 155.593 75.2073 157.901 74.3465 161.338C74.2189 161.851 74.1631 162.366 74.1669 162.879C73.7976 163.019 73.4439 163.186 73.1009 163.388C71.9837 164.046 71.2305 165.056 70.806 166.201C69.5109 166.34 68.3038 167.041 67.5526 168.11C66.9317 168.994 66.6726 169.86 66.587 170.904C66.5411 171.448 66.5605 171.989 66.6269 172.523C65.0785 173.527 64.0016 175.19 63.6774 177.031C63.4198 178.482 63.6134 179.913 64.1489 181.178C61.1061 183.364 60.444 187.783 62.8722 190.721C63.4489 191.408 64.1171 191.933 64.8425 192.306Z" fill="white"/>
<path d="M77.9186 161.177C78.0986 160.036 79.1079 159.153 80.2371 159.024C80.4667 158.999 80.681 159.214 80.6927 159.434C80.7018 159.677 80.5122 159.864 80.2826 159.889C79.5119 159.976 78.8828 160.622 78.7676 161.361C78.6479 162.153 79.1754 162.918 79.878 163.211C80.0933 163.301 80.1639 163.602 80.0646 163.795C79.9457 164.02 79.6951 164.066 79.4806 163.981C78.3984 163.531 77.7386 162.318 77.9186 161.177Z" fill="#F2F2F2"/>
<path d="M75.3089 171.814C75.534 171.933 75.9127 171.774 76.1358 171.702C76.411 171.617 76.6779 171.516 76.9326 171.368C77.4135 171.082 77.7682 170.657 77.8895 170.098C78.1193 169.015 77.3154 167.93 76.1917 167.879C75.9574 167.869 75.7518 167.717 75.7361 167.468C75.7243 167.249 75.9119 167.003 76.1462 167.013C77.823 167.091 79.0857 168.61 78.7319 170.276C78.5594 171.076 78.033 171.732 77.3287 172.132C76.9681 172.336 76.5812 172.478 76.1836 172.586C75.7568 172.697 75.3217 172.792 74.9107 172.579C74.4162 172.323 74.8136 171.553 75.3089 171.814Z" fill="#F2F2F2"/>
<path d="M68.5746 181.451C67.6469 180.466 67.0588 179.076 67.5216 177.73C67.7611 177.028 68.2654 176.518 68.823 176.048C69.2946 175.65 69.8508 175.258 70.5025 175.308C70.7376 175.323 70.9416 175.463 70.9581 175.718C70.9691 175.931 70.7772 176.19 70.5479 176.173C70.0895 176.14 69.7268 176.416 69.3941 176.694C68.9646 177.051 68.523 177.451 68.3398 177.995C67.9941 179.015 68.4659 180.074 69.1694 180.815C69.5464 181.218 68.9582 181.859 68.5746 181.451Z" fill="#F2F2F2"/>
<path d="M65.5604 186.977C65.2889 186.56 65.0772 186.099 64.9695 185.612C64.8519 185.096 64.7793 184.515 64.9421 183.997C65.2764 182.937 66.3755 182.585 67.3717 182.444C67.6063 182.412 67.8156 182.635 67.8274 182.854C67.8372 183.104 67.6459 183.279 67.4172 183.31C66.7897 183.395 65.921 183.596 65.7558 184.317C65.5871 185.057 65.8997 185.91 66.2987 186.519C66.5999 186.98 65.8683 187.443 65.5604 186.977Z" fill="#F2F2F2"/>
<path d="M71.727 182.064C72.5209 182.016 73.305 181.587 73.6736 180.869C74.0422 180.15 73.9341 179.263 73.3928 178.661C73.2376 178.485 72.9267 178.527 72.7808 178.684C72.6086 178.869 72.6486 179.12 72.8039 179.296C72.8113 179.307 72.818 179.312 72.8246 179.317C72.8254 179.323 72.8321 179.328 72.8396 179.339C72.8545 179.361 72.8701 179.389 72.885 179.411C72.9007 179.438 72.9173 179.472 72.933 179.5C72.9404 179.511 72.9419 179.522 72.9502 179.539C72.9714 179.608 72.9919 179.671 73.0073 179.74C72.9951 179.694 73.0065 179.735 73.0097 179.758C73.0144 179.793 73.0192 179.828 73.0181 179.864C73.0229 179.9 73.0217 179.936 73.0206 179.972C73.0214 179.977 73.0219 180.025 73.0184 180.043C73.0149 180.062 73.0104 180.116 73.0104 180.116C73.0085 180.146 72.9999 180.171 72.9922 180.202C72.9852 180.239 72.9775 180.27 72.9646 180.308C72.9604 180.32 72.9518 180.345 72.9475 180.358C72.9253 180.414 72.9023 180.465 72.8735 180.517C72.8591 180.543 72.8388 180.569 72.8244 180.595C72.8193 180.602 72.799 180.629 72.7947 180.641C72.7541 180.694 72.707 180.743 72.6597 180.791C72.6336 180.818 72.6066 180.84 72.5805 180.867C72.5695 180.875 72.5586 180.882 72.5484 180.895C72.4887 180.939 72.4281 180.977 72.3617 181.016C72.2508 181.079 72.1828 181.106 72.0276 181.151C71.8842 181.194 71.8431 181.2 71.6773 181.21C71.4403 181.225 71.253 181.429 71.2672 181.666C71.2848 181.885 71.4967 182.083 71.727 182.064Z" fill="#F2F2F2"/>
<path d="M46.222 187.713C42.1092 188.478 39.4304 185.586 37.7253 182.209C35.3198 177.453 33.916 172.154 33.7671 166.817C33.727 165.682 33.7142 164.483 33.7916 163.29C33.7916 163.29 33.7916 163.29 33.79 163.278C33.9552 160.748 34.5162 158.229 36.2118 156.327C37.6947 154.663 39.7913 154.003 41.8299 153.268C44.278 152.381 46.8136 151.656 49.4291 151.565C52.4767 151.445 55.0438 152.232 57.0959 153.627C58.0628 154.284 58.9282 155.075 59.6832 155.976C61.0529 157.624 62.0275 159.398 62.6517 161.23C66.4339 172.233 57.7677 185.559 46.222 187.713Z" fill="#DD0E0E"/>
<path d="M46.2229 187.713C42.11 188.478 39.4313 185.586 37.7262 182.209C35.3207 177.453 33.9169 172.154 33.768 166.817C33.7279 165.682 33.715 164.483 33.7925 163.29C33.7976 163.504 33.8077 163.712 33.8222 163.907C33.9878 165.396 34.3469 166.858 34.7967 168.284C35.3122 169.887 35.9484 171.455 36.6335 172.987C37.8304 175.698 39.4252 178.611 42.239 179.544C43.8779 180.093 45.6851 179.854 47.3452 179.367C52.2405 177.94 56.3812 174.424 59.0866 170.098C60.7866 167.389 61.9379 164.379 62.6542 161.242C66.4348 172.233 57.7686 185.559 46.2229 187.713Z" fill="#D10505"/>
</svg>
