<svg width="266" height="341" viewBox="0 0 266 341" fill="none" xmlns="http://www.w3.org/2000/svg">
<path d="M136.991 70.8319C135.999 69.58 134.409 68.9555 132.847 68.6056C130.336 68.0425 127.741 68.0444 125.168 68.1106C120.504 68.2279 115.846 68.5367 111.211 69.0465C111.887 71.389 113.27 73.5266 115.143 75.0859C117.015 76.6452 119.356 77.6321 121.783 77.8746C126.072 78.3086 130.656 76.9134 134.404 74.8969C135.68 74.1998 138.389 72.598 136.991 70.8319Z" fill="#BA4820"/>
<path d="M85.5492 80.8844C85.5716 80.8123 85.6283 80.7448 85.728 80.6795C85.9124 80.6992 86.4749 80.195 86.6429 80.0873C87.0028 79.8558 87.3615 79.62 87.7214 79.3885C88.3686 78.9693 89.0201 78.5488 89.6604 78.122C90.8163 77.3453 91.9698 76.5599 93.1005 75.7431C95.3587 74.115 97.546 72.3841 99.5622 70.4603C101.678 68.4382 103.604 66.2049 105.172 63.7316C102.264 62.3314 99.3524 60.9324 96.4449 59.5322C95.7816 59.2117 95.0939 58.8885 94.3603 58.8417C93.6796 58.7992 93.015 59.0019 92.3586 59.1835C82.7314 61.8608 72.1485 60.9305 63.1314 56.6182C62.5885 56.3586 62.026 56.062 61.7103 55.5511C61.4464 55.1248 61.3431 54.2065 62.004 54.0755C62.1914 54.0378 62.3863 54.0781 62.5756 54.1152C68.8046 55.3644 75.1336 56.2939 81.499 56.1629C82.8388 56.1361 84.1821 56.0707 85.52 55.9691C86.1896 55.9204 86.8555 55.8587 87.5246 55.7914C87.8685 55.7575 89.1594 55.4004 89.428 55.571C83.2752 51.6346 77.5092 47.0871 72.2534 42.0169C71.1102 40.9153 69.9903 39.779 69.0301 38.5043C68.4035 37.6695 67.8105 36.769 67.3682 35.8173C67.1784 35.4035 66.8747 34.7998 66.9985 34.3275C67.4319 32.6248 72.7173 36.9849 73.3878 37.5013C76.2791 39.7115 78.8607 42.2665 81.6746 44.5546C83.9355 46.3928 86.2883 48.1207 88.7143 49.7389C93.5733 52.9828 98.7122 55.7913 104.012 58.2445C109.344 60.7122 114.835 62.8202 120.414 64.6638C123.198 65.5847 126.007 66.4421 128.828 67.2398C128.619 67.18 128.137 65.8813 128.007 65.6488C127.702 65.1112 127.382 64.5828 127.045 64.0635C126.373 63.0295 125.638 62.0411 124.855 61.0847C121.077 56.4678 116.365 52.7356 112.16 48.5337C111.118 47.4934 110.101 46.4228 109.14 45.3133C108.981 45.1312 107.048 43.0469 107.795 42.939C108.515 42.8341 109.337 43.1815 109.998 43.4272C114.708 45.1956 118.261 48.537 121.948 51.8178C125.704 55.3855 129.409 59.156 131.739 63.7825C132.775 65.8417 133.717 68.2426 135.827 69.1615C136.942 69.6492 138.22 69.6207 139.367 70.0195C140.518 70.4171 141.615 71.5551 141.264 72.7215C140.812 74.2219 138.697 74.1898 137.175 73.829C127.655 71.5823 118.279 68.7307 109.124 65.2997C109.093 65.2895 107.214 68.221 107.02 68.4869C106.25 69.5381 105.429 70.5521 104.556 71.5189C102.82 73.45 100.884 75.2055 98.7675 76.7144C97.1355 77.8818 95.392 78.9012 93.5645 79.7364C91.6019 80.6279 89.4201 81.4764 87.2623 81.6965C86.9602 81.7283 86.6489 81.7437 86.3552 81.6695C86.0714 81.5973 85.4287 81.2663 85.5492 80.8844Z" fill="#330D04"/>
<path d="M55.3324 161.79C50.3706 167.949 44.8808 174.753 37.1722 177.469C35.8041 177.956 34.3804 178.326 32.9369 178.523C31.7218 178.694 30.6349 178.835 29.3431 179.154C31.0974 178.123 32.2453 177.028 33.6083 175.808C34.9669 174.589 36.1646 173.146 36.8816 171.463C34.5548 172.639 31.9819 173.351 29.3473 173.618C24.9517 174.076 20.3757 173.302 16.4578 171.399C19.0943 171.207 21.875 170.702 24.3129 169.655C21.7468 169.046 21.8317 169.183 19.1362 168.379C17.2762 167.819 14.9965 166.594 13.5626 165.276C9.32772 161.393 8.08417 155.91 7.89685 150.38C8.09863 151.45 9.37564 152.661 10.7044 153.65C11.6886 154.381 12.6994 154.987 13.3314 155.33C21.3586 159.742 31.131 162.936 40.6897 163.434C43.3223 163.567 45.9309 163.496 48.4942 163.192C49.0896 163.131 49.6834 163.047 50.2736 162.949C51.2016 162.796 52.1267 162.616 53.0422 162.4C53.4822 162.288 55.0406 162.149 55.3324 161.79Z" fill="#D86639"/>
<path d="M55.3318 161.79C50.37 167.949 44.8802 174.753 37.1716 177.469C35.8036 177.956 34.3798 178.326 32.9363 178.523C31.7212 178.694 30.6343 178.835 29.3425 179.155C31.0968 178.123 32.2448 177.028 33.6077 175.808C34.9663 174.589 36.164 173.146 36.881 171.464C34.5542 172.64 31.9813 173.351 29.3467 173.618C32.8997 169.979 36.6308 166.507 40.6892 163.434C43.3217 163.568 45.9303 163.496 48.4936 163.192C49.0891 163.131 49.6828 163.047 50.273 162.949C51.201 162.796 52.1262 162.616 53.0416 162.4C53.4816 162.288 55.04 162.149 55.3318 161.79Z" fill="#C4512D"/>
<path d="M223.55 141.667C223.291 142.912 222.997 144.147 222.672 145.373C221.758 148.829 220.591 152.223 219.257 155.54C215.516 164.866 209.805 173.375 204.518 181.866C201.715 186.358 199.078 190.945 196.119 195.334C195.795 195.815 195.471 196.277 195.132 196.738C194.778 197.213 194.417 197.68 194.042 198.146C193.879 198.338 193.022 199.479 192.351 200.239C190.692 198.056 189.115 195.797 187.416 193.62C186.2 192.068 184.967 190.491 183.578 189.095C184.412 188.144 185.205 187.246 185.984 186.385C190.708 181.103 194.4 177.099 198.274 169.97C199.571 167.576 200.785 165.135 201.908 162.657C203.968 158.098 205.713 153.404 207.106 148.6C207.762 146.355 208.343 144.079 208.844 141.788C209.096 140.621 209.337 139.447 209.553 138.271C209.646 137.774 210.205 135.98 209.806 135.525C209.537 135.233 209.12 135.583 208.799 135.733C207.921 136.151 207.055 136.579 206.187 137.017C202.791 138.757 199.432 140.713 196.11 142.513C194.255 143.521 192.397 144.52 190.522 145.505C187.569 147.057 184.584 148.579 181.575 150.029C174.853 153.264 167.991 156.283 160.866 158.438C157.882 159.348 154.837 160.106 151.747 160.669C148.512 161.252 145.102 161.612 141.988 160.556C137.548 159.047 135.445 154.542 135.851 150.068C136.292 145.108 139.876 141.205 143.853 138.536C155.242 130.869 169.249 127.474 182.505 124.683C183.083 124.556 183.654 124.441 184.233 124.323C185.142 124.133 186.057 123.95 186.973 123.772C187.594 123.648 188.212 123.533 188.835 123.417C198.733 121.602 209.35 120.408 219.374 121.941C221.468 122.256 223.774 123.098 224.656 125.162C226.607 129.728 224.523 137.027 223.55 141.667Z" fill="#C65D34"/>
<path d="M222.671 145.368C221.757 148.824 220.59 152.218 219.256 155.536C215.514 164.862 209.804 173.371 204.517 181.861C201.713 186.354 199.077 190.941 196.118 195.33C195.794 195.811 195.469 196.272 195.131 196.734C194.777 197.208 194.416 197.676 194.041 198.142C193.877 198.333 193.02 199.475 192.35 200.235C190.69 198.051 189.114 195.793 187.414 193.616C186.198 192.063 184.966 190.487 183.576 189.091C184.411 188.139 185.204 187.242 185.983 186.381C190.706 181.098 194.399 177.095 198.273 169.966C199.57 167.572 200.784 165.131 201.907 162.653C203.967 158.094 205.711 153.4 207.105 148.596C207.761 146.351 208.342 144.075 208.843 141.784C209.095 140.617 209.335 139.443 209.552 138.267C209.645 137.77 210.204 135.976 209.805 135.521C209.535 135.228 209.119 135.579 208.798 135.729C207.919 136.146 207.053 136.575 206.185 137.012C202.79 138.753 199.431 140.709 196.108 142.509C194.253 143.516 192.396 144.515 190.52 145.501C187.567 147.052 184.583 148.575 181.573 150.025C174.851 153.26 167.99 156.279 160.865 158.434C159.634 156.946 158.186 155.576 156.785 154.258C153.568 151.229 154.165 148.398 158.508 147.922C163.076 147.421 167.607 146.723 172.095 145.746C181.003 143.79 189.703 140.842 197.95 136.959C200.267 135.866 202.547 134.707 204.783 133.476C205.455 133.112 211.332 130.176 211.241 129.66C211.801 132.741 212.371 135.824 212.931 138.905C213.054 139.554 213.184 140.225 213.578 140.747C213.972 141.27 214.58 141.577 215.17 141.856C217.654 143.087 220.153 144.251 222.671 145.368Z" fill="#B54A28"/>
<path d="M195.526 197.119C195.452 197.022 188.365 190.287 185.824 186.124C184.875 186.626 183.886 187.055 182.885 187.488C182.16 187.797 181.446 188.126 180.731 188.456C183.352 194.66 186.897 201.225 190.818 206.58C191.045 205.952 194.583 199.533 195.526 197.119Z" fill="black"/>
<path d="M190.524 145.509C187.571 147.061 184.586 148.584 181.577 150.033C172.029 154.634 162.204 158.775 151.749 160.673C148.514 161.257 145.104 161.616 141.99 160.56C137.55 159.052 135.447 154.546 135.853 150.072C136.294 145.112 139.878 141.21 143.855 138.541C155.244 130.873 169.251 127.478 182.507 124.688C183.085 124.561 183.655 124.445 184.235 124.327C184.846 125.633 185.405 126.957 185.93 128.291C188.094 133.83 189.629 139.619 190.524 145.509Z" fill="#B54A28"/>
<path d="M131.101 154.919C127.97 170.727 122.545 186.006 114.119 199.802C113.728 200.448 113.331 201.075 112.932 201.709C112.39 202.56 111.836 203.401 111.264 204.229C110.974 204.662 110.674 205.094 110.379 205.524C109.189 207.252 107.944 208.93 106.651 210.559C105.681 211.802 104.675 213.018 103.642 214.204C101.648 216.498 99.5483 218.699 97.3387 220.776C97.2205 220.893 97.0911 221.004 96.9617 221.116C92.3444 225.318 86.7235 227.834 81.4496 230.923C75.3513 233.995 69.6685 237.649 65.5764 243.477C65.4393 243.68 65.2948 243.89 65.1621 244.091C64.6548 244.863 64.1959 245.673 63.7685 246.512C63.7641 246.513 63.7566 246.52 63.7546 246.53C63.6704 246.685 63.5973 246.846 63.5186 247.005C63.3925 247.247 63.2775 247.495 63.1681 247.747C62.743 248.679 62.3495 249.641 62.0107 250.63C62.0012 250.646 62.0005 250.661 61.9885 250.669C61.9164 250.868 61.8518 251.06 61.7852 251.262C58.5876 260.852 58.6405 272.792 58.7169 281.872C58.7348 283.963 60.1492 303.907 61.0716 310.12C61.2427 311.283 61.3929 311.962 61.5195 311.96C55.1017 312.991 46.6034 314.386 46.6041 314.593C46.3955 313.294 46.1969 311.997 46.0233 310.688C45.8777 309.617 45.7471 308.532 45.6302 307.462C45.4157 305.529 45.243 303.594 45.1022 301.654C43.7757 283.202 45.7489 264.3 49.9426 246.408C51.175 241.14 53.1672 235.911 56.7989 231.807C57.7237 230.774 59.4638 230.32 61.2695 229.764C63.763 229.004 66.3338 228.029 66.9064 224.974C67.1469 223.664 67.3478 222.397 67.5117 221.151C68.0726 216.827 68.1916 212.762 68.1928 208.169C68.1898 205.348 68.1853 202.471 68.219 199.579C68.2813 195.36 68.4207 191.096 68.7968 186.87C69.5894 178.054 71.3984 169.404 75.5492 161.643C77.9614 157.131 81.3457 153.001 85.4961 149.955C88.9857 147.925 92.7991 146.385 96.7832 145.24C96.7908 145.234 96.7964 145.237 96.8007 145.236C100.213 144.73 103.765 144.783 107.086 144.939C113.974 145.266 121.656 147.866 127.815 152.253C128.968 153.083 130.079 153.982 131.101 154.919Z" fill="#C65D34"/>
<path d="M111.262 204.224C110.972 204.657 110.672 205.089 110.377 205.519C109.184 207.234 107.948 208.914 106.649 210.554C105.679 211.798 104.673 213.013 103.64 214.199C101.646 216.493 99.5462 218.695 97.3366 220.771C97.2184 220.888 97.089 221 96.9596 221.111C92.3423 225.313 86.7215 227.829 81.4475 230.918C75.3493 233.99 69.6664 237.644 65.5743 243.472C65.4373 243.675 65.2939 243.889 65.1593 244.101C65.1581 244.096 65.1625 244.095 65.16 244.086C66.1156 240.44 67.5337 236.967 69.984 234.075C70.228 233.833 70.47 233.601 70.7109 233.365C71.5541 232.548 72.4009 231.744 73.2632 230.944C78.4201 226.871 85.0511 224.669 90.927 221.644C91.9047 221.143 92.8676 220.622 93.7953 220.059C97.7939 217.639 100.899 214.321 104.189 211.042C106.511 208.727 108.919 206.516 111.262 204.224Z" fill="#B14A2B"/>
<path d="M68.2161 199.588C68.9101 204.94 69.6952 210.282 69.7976 215.675C69.8347 217.563 69.7751 219.459 69.6008 221.349C69.1189 226.674 67.7271 231.911 64.8513 236.38C64.4741 233.842 63.1327 231.547 61.2655 229.769C63.7589 229.009 66.3297 228.034 66.9023 224.979C67.1429 223.669 67.3437 222.402 67.5076 221.156C68.0685 216.832 68.1875 212.767 68.1888 208.174C68.1869 205.357 68.1824 202.48 68.2161 199.588Z" fill="#B14A2B"/>
<path d="M61.6618 251.494C61.7668 251.244 61.8725 250.979 61.9873 250.679C61.9139 250.873 61.8493 251.065 61.7828 251.267C58.582 260.863 58.6324 272.795 58.7144 281.877C58.7366 284.358 60.7267 311.986 61.5083 311.968C55.0905 312.999 46.591 314.389 46.5973 314.6C46.3887 313.301 46.1933 311.998 46.0165 310.695C45.6158 307.697 45.3138 304.681 45.0953 301.661C46.9178 300.978 48.7016 300.206 50.4414 299.343C52.352 298.4 54.3403 297.21 55.1781 295.249C55.6278 294.201 55.6925 293.039 55.7532 291.896C56.1834 283.473 56.3019 275.013 57.5857 266.678C58.3839 261.492 59.6514 256.351 61.6618 251.494Z" fill="#B14A2B"/>
<path d="M61.1366 310.134C61.0059 310.104 50.3812 309.176 45.3711 307.378C44.9182 308.431 44.3851 309.45 43.8401 310.477C43.4466 311.217 43.0667 311.972 42.6943 312.721C49.1854 316.177 56.7119 319.324 63.7165 321.197C63.4727 320.52 62.0111 312.785 61.1366 310.134Z" fill="black"/>
<path d="M58.565 237.63C58.4642 237.606 58.3602 237.587 58.2543 237.579C57.2956 237.519 56.6632 238.485 56.3168 239.26C54.3683 243.591 52.6937 248.044 51.2979 252.584C50.5828 254.921 49.93 257.278 49.2505 259.623C48.9146 260.776 48.7356 262.036 49.1427 263.167C49.9363 265.355 51.2208 262.71 51.6228 261.694C53.1455 257.867 55.2602 254.324 57.1028 250.649C58.679 247.509 62.155 241.973 59.7161 238.47C59.4463 238.074 59.0318 237.75 58.565 237.63Z" fill="#D66B45"/>
<path d="M131.103 154.918C127.972 170.726 122.547 186.005 114.12 199.802C113.729 200.447 113.333 201.075 112.933 201.708C112.391 202.56 111.837 203.401 111.266 204.228C110.976 204.662 110.676 205.093 110.38 205.523C109.191 207.252 107.945 208.929 106.653 210.559C105.683 211.802 104.676 213.018 103.643 214.203C101.649 216.498 99.5496 218.699 97.34 220.775C97.2218 220.893 97.0924 221.004 96.963 221.115C94.9541 221.346 92.9495 221.524 90.9359 221.652C88.035 221.842 85.1337 221.929 82.2401 221.924C78.0244 221.907 73.8096 221.707 69.6086 221.353C68.9231 221.293 68.2464 221.23 67.5696 221.168C67.5509 221.168 67.5354 221.163 67.5123 221.165C68.0731 216.841 68.1922 212.776 68.1934 208.183C68.1903 205.362 68.1859 202.485 68.2195 199.593C68.2819 195.374 68.4213 191.11 68.7973 186.884C69.59 178.068 71.399 169.418 75.5498 161.656C77.962 157.145 81.3463 153.015 85.4967 149.969C88.9862 147.939 92.7997 146.399 96.7838 145.254C96.7913 145.248 96.7969 145.251 96.8013 145.25C100.213 144.744 103.766 144.797 107.087 144.953C113.975 145.28 121.656 147.88 127.816 152.266C128.97 153.083 130.08 153.981 131.103 154.918Z" fill="#B14A2B"/>
<path d="M189.416 60.927C188.514 64.733 186.899 68.364 184.84 71.68C182.836 74.9098 180.418 77.8492 177.819 80.6126C177.06 81.4113 176.295 82.2025 175.505 82.9767C175.484 83.0014 175.459 83.0318 175.437 83.0522C172.582 85.8626 167.561 88.8768 166.318 92.8477C164.566 98.4482 167.938 103.658 170.573 108.294C177.773 120.99 182.15 134.038 179.779 148.675C177.834 160.683 172.191 171.99 164.289 181.176C162.101 183.722 159.767 186.096 157.296 188.301C153.428 191.774 149.24 194.854 144.812 197.558C131.291 205.83 115.557 210.696 99.9973 213.027C86.8837 214.987 70.8813 216.738 58.6178 210.686C58.1104 210.435 57.6149 210.177 57.1233 209.898C53.024 207.612 49.5 204.546 46.7395 200.952C40.4046 192.713 38.109 181.742 42.1766 171.346C44.6641 164.996 49.3317 159.63 54.8696 155.639C66.7753 147.065 81.9138 144.455 96.2266 143.322C97.1895 143.244 98.1616 143.183 99.1406 143.129C108.867 142.562 119.118 142.855 128.754 141.183C130.945 140.807 133.106 140.327 135.221 139.714L135.317 139.687C140.861 138.069 145.858 135.033 148.871 130.992C150.324 129.04 151.311 126.855 151.68 124.492C152.198 121.173 151.508 117.487 149.15 113.561C144.413 105.648 134.908 104.015 129.176 97.4981C128.804 97.0877 128.447 96.6494 128.127 96.1914C127.831 95.8023 127.556 95.3884 127.301 94.9597C127.16 94.7209 127.017 94.4777 126.884 94.2365C126.66 93.8323 126.468 93.4285 126.277 93.029C126.097 92.5984 125.933 92.1586 125.782 91.7152C125.346 90.4131 125.042 89.056 124.873 87.68C124.765 86.8148 124.712 85.9393 124.705 85.0649C124.699 84.294 124.736 83.5254 124.814 82.769C124.812 82.7415 124.817 82.7116 124.821 82.6917C124.86 82.422 124.905 82.1598 124.95 81.8977C126.443 73.6557 132.927 66.0494 140.49 62.4167C147.555 59.0256 155.517 58.6224 163.153 57.4805C171.736 56.2038 180.214 53.392 187.189 48.1086C187.725 48.1911 188.207 48.3641 188.61 48.6812C188.839 48.8628 189.039 49.0759 189.211 49.3205C191.272 52.2079 190.167 57.7328 189.416 60.927Z" fill="#D86639"/>
<path d="M167.822 139.32C167.596 139.576 167.28 139.744 166.956 139.885C163.867 141.234 160.181 140.68 157.21 139.086C154.24 137.491 151.884 134.954 149.829 132.276C149.511 131.856 149.186 131.432 148.871 130.992C150.324 129.04 151.311 126.854 151.68 124.491C153.779 126.308 156.327 127.653 158.785 128.993C162.214 130.881 165.745 133.022 167.669 136.433C168.168 137.336 168.51 138.555 167.822 139.32Z" fill="#CE5930"/>
<path d="M153.426 120.622C154.017 140.539 131.648 151.32 114.249 147.24C109.115 146.032 104.137 144.469 99.1357 143.13C111.102 142.439 123.885 143.029 135.312 139.689C147.262 136.195 156.68 126.119 149.144 113.558C144.407 105.645 134.902 104.012 129.17 97.4951C128.798 97.0848 128.441 96.6465 128.121 96.1885C127.825 95.7994 127.55 95.3855 127.295 94.9567C127.154 94.7179 127.011 94.4748 126.878 94.2335C129.736 95.9302 132.997 97.1619 136.202 98.3245C145.585 101.73 153.128 110.317 153.426 120.622Z" fill="#CE5930"/>
<path d="M166.317 92.8475C164.564 98.448 167.936 103.658 170.571 108.294C177.771 120.99 182.148 134.038 179.777 148.674C177.832 160.683 172.189 171.99 164.287 181.176C148.213 199.881 123.905 209.446 99.9998 213.025C86.8862 214.985 70.8838 216.737 58.6203 210.685C58.1129 210.434 57.6174 210.175 57.1258 209.897C53.0265 207.611 49.5025 204.544 46.742 200.951C51.8325 195.496 56.8359 190.169 61.9341 182.852C74.3255 181.482 94.6102 181.401 107.042 182.221C105.276 181.286 100.57 179.173 99.5055 178.017C103.692 178.352 112.227 179.425 116.415 179.764C116.06 179.264 113.425 176.771 112.949 176.38C118.901 178.605 128.478 177.412 134.38 174.126C132.41 173.766 130.448 173.4 128.486 173.033C146.476 167.737 160.785 151.554 163.834 133.051C162.389 134.435 160.586 135.443 158.637 135.925C160.642 132.342 161.928 128.373 162.505 124.313C163.537 117.112 162.36 109.571 159.07 103.077C156.001 97.0202 151.031 91.315 155.738 84.4734C158.395 80.6104 163.143 78.515 167.825 78.3081C170.199 78.2071 172.856 78.6828 174.318 80.563C174.867 81.2729 175.2 82.1183 175.498 82.9733C175.477 82.998 175.452 83.0284 175.429 83.0488C172.576 85.8636 167.559 88.8766 166.317 92.8475Z" fill="#CE5930"/>
<path d="M188.602 48.6696C188.198 48.3525 187.717 48.1795 187.186 48.1002C186.439 48.6695 185.678 49.2194 184.892 49.7335C182.28 51.4265 179.516 52.794 176.642 53.9142C176.341 56.6588 175.593 59.2681 173.793 61.3109C172.323 62.9755 170.302 64.048 168.297 65.0078C165.242 66.4651 162.095 67.7408 158.887 68.8307C153.558 70.63 147.686 72.1366 144.138 76.4909C145.208 76.2043 146.362 76.2383 147.423 76.5809C144.862 77.506 142.576 79.2031 140.959 81.3978C142.119 81.077 143.376 81.1437 144.492 81.5841C141.649 84.1464 140.103 88.0929 140.444 91.9131C141.318 89.8293 142.429 87.5106 144.577 86.8128C143.823 90.234 143.747 93.8068 144.36 97.2501C144.742 94.9683 145.75 92.7909 147.241 91.0267C147.583 93.7112 148.325 96.3417 149.44 98.8077C149.499 97.4349 149.551 96.059 149.605 94.6874C152.53 97.1897 155.019 100.209 156.925 103.558C157.218 101.875 157.199 100.138 156.862 98.4598C159.478 100.374 161.796 102.691 163.739 105.286C164.522 105.102 165.309 104.918 166.09 104.725C166.438 104.638 166.785 104.547 167.132 104.456C167.04 104.26 166.936 104.072 166.843 103.872C163.833 97.2144 164.632 92.8151 169.992 88.0962C170.564 87.594 171.143 87.0806 171.715 86.5597C177.816 81.0612 183.923 74.6847 187.352 67.2923C187.507 66.9524 187.659 66.6138 187.803 66.2677C187.984 65.8501 188.158 65.4206 188.316 64.9904C189.611 61.5139 190.286 57.8226 190.077 53.9C190.072 53.6798 190.059 53.4621 190.042 53.2455C190.031 53.0365 190.017 52.8331 189.998 52.6265C189.98 52.41 189.961 52.189 189.934 51.9705C189.895 51.6609 189.856 51.3468 189.808 51.0396C189.782 50.8585 189.749 50.6886 189.705 50.5311C189.686 50.4611 189.665 50.3867 189.65 50.3155C189.647 50.3023 189.643 50.2892 189.636 50.2817C189.61 50.2041 189.588 50.1254 189.555 50.0546C189.459 49.775 189.336 49.5358 189.193 49.3256C189.027 49.0654 188.825 48.848 188.602 48.6696Z" fill="#CE5930"/>
<path d="M132.454 84.8002C133.168 88.4889 132.319 92.3839 130.423 95.6264C130.233 95.9616 130.032 96.2904 129.814 96.6098C129.616 96.9143 129.396 97.2106 129.169 97.4949C128.796 97.0845 128.439 96.6462 128.119 96.1883C127.823 95.7991 127.549 95.3852 127.293 94.9565C126.91 94.3184 126.57 93.6682 126.273 93.0202C126.092 92.5896 125.928 92.1498 125.777 91.7064C125.342 90.4043 125.037 89.0472 124.868 87.6713C127.151 86.4557 129.619 85.5516 132.126 84.891C132.234 84.8564 132.345 84.8305 132.454 84.8002Z" fill="#CE5930"/>
<path d="M132.152 84.4981C132.171 84.5681 132.167 84.6541 132.147 84.735C132.141 84.7836 132.134 84.8422 132.128 84.8908C131.669 88.7298 130.368 92.4719 128.37 95.7898C128.291 95.9151 128.211 96.0503 128.125 96.1825C127.829 95.7933 127.554 95.3794 127.299 94.9507C126.915 94.3126 126.575 93.6623 126.278 93.0144C126.098 92.5838 125.934 92.144 125.783 91.7006C125.347 90.3985 125.043 89.0414 124.874 87.6654C124.766 86.8002 124.713 85.9248 124.706 85.0504C124.7 84.2795 124.737 83.5108 124.815 82.7544C124.813 82.7269 124.818 82.697 124.822 82.6771C124.861 82.4074 124.906 82.1452 124.951 81.8831C125.688 81.8394 126.447 81.9075 127.162 82.0582C128.867 82.4155 130.446 83.2365 131.891 84.2028C131.987 84.294 132.107 84.3693 132.152 84.4981Z" fill="#CE5930"/>
<path d="M177.818 80.6126C177.039 81.4404 176.241 82.2501 175.436 83.0522C174.126 84.3471 172.36 85.6743 170.712 87.1241C168.772 88.829 166.991 90.7018 166.317 92.8477C164.565 98.4482 167.937 103.658 170.572 108.294C177.772 120.99 182.149 134.038 179.778 148.675C177.833 160.683 172.19 171.99 164.288 181.176C148.213 199.881 123.906 209.446 100.001 213.026C86.887 214.986 70.8846 216.737 58.6211 210.685C58.1137 210.434 57.6182 210.176 57.1266 209.897C60.6226 206.358 64.4229 203.272 69.0276 201.885C74.2849 199.144 79.6111 196.517 85.2134 194.581C88.4295 193.47 91.7138 192.707 95.0269 192.083C97.2755 191.663 99.5367 191.306 101.804 190.953C100.402 190.125 99.0334 189.232 97.7549 188.271C101.746 189.315 106.02 189.932 110.273 189.316C107.017 188.667 103.984 187.358 101.497 185.502C104.281 186.372 107.293 186.754 110.32 186.628C111.95 186.558 113.586 186.341 115.208 186.382C113.111 185.818 111.173 184.908 109.512 183.705C112.075 184.677 114.706 185.556 117.497 185.989C119.259 186.265 121.099 186.307 122.921 186.1C123.575 185.877 124.226 185.64 124.879 185.412C123.184 185.194 121.604 184.575 120.356 183.606C121.456 183.495 122.536 183.719 123.623 183.767C124.656 183.806 125.688 183.69 126.728 183.582C128.035 183.437 129.343 183.296 130.655 183.15C132.098 182.544 133.529 181.912 134.952 181.231C139.139 179.254 143.096 176.887 146.529 173.902C148.32 172.663 150.07 171.312 151.742 169.813C155.91 166.112 159.47 161.631 162.195 156.685C161.334 157.06 160.434 157.351 159.508 157.546C161.159 156.261 162.652 154.793 163.955 153.17C164.127 152.787 164.291 152.393 164.454 152.009C163.541 152.559 162.569 153.011 161.556 153.32C163.291 151.672 164.794 149.782 166.027 147.735C166.735 145.476 167.281 143.177 167.633 140.856C167.789 139.819 167.924 138.774 168.053 137.725C167.484 138.189 166.888 138.604 166.255 138.957C167.04 137.793 167.721 136.574 168.311 135.303C168.358 134.739 168.415 134.182 168.45 133.626C167.803 134.422 167.075 135.16 166.247 135.776C167.429 133.442 168.186 130.882 168.994 128.407C169.169 127.864 169.311 127.32 169.419 126.758C170.089 123.323 169.425 119.799 168.318 116.53C167.731 114.78 167.025 113.133 166.256 111.457C165.831 110.519 165.398 109.584 164.964 108.644C164.576 107.786 163.984 106.857 163.733 105.947C163.066 104.492 162.391 103.039 161.946 101.499C161.189 98.9156 161.462 96.631 162.175 94.0832C162.773 91.9535 163.513 89.8269 164.744 87.9788C166.007 86.0892 167.742 84.5447 169.641 83.3034C171.843 81.8651 174.33 80.7909 176.951 80.5934C177.226 80.5833 177.522 80.5814 177.818 80.6126Z" fill="#F2CAA8"/>
<path d="M188.873 49.9697C188.825 49.8795 188.778 49.7794 188.722 49.6959C188.16 50.883 187.546 52.0515 186.86 53.1833C186.101 54.4391 185.267 55.6307 184.371 56.7501C182.89 58.6011 181.202 60.2645 179.339 61.7175C178.212 62.5992 177.031 63.4062 175.8 64.133C172.459 66.1031 168.747 67.3135 165.186 68.8121C163.006 69.7354 160.867 70.7701 158.73 71.7993C156.387 72.9326 153.986 74.0961 152.047 75.8715C150.166 77.6025 148.754 79.8395 147.506 82.0548C147.125 82.7207 146.735 83.4222 146.097 83.839C146.793 83.4956 147.494 83.151 148.107 82.6754C148.607 82.2873 149.036 81.8294 149.465 81.3715C148.27 84.1186 147.569 87.1343 145.602 89.374C147.588 88.6505 149.181 86.9333 149.75 84.9056C149.861 87.6025 149.952 90.4178 148.819 92.8604C149.86 91.8234 150.62 90.5014 150.994 89.0789C151.065 89.2479 151.134 89.4125 151.212 89.5747C152.217 92.3727 153.221 95.1707 154.231 97.9675C154.511 96.7169 154.778 95.4326 154.864 94.1605C155.536 94.6669 156.263 95.0971 157.044 95.418C157.352 95.5447 157.664 95.6658 157.966 95.7706C158.231 95.862 158.501 95.9335 158.77 96.005C160.442 99.0662 162.043 102.165 163.476 105.335C164.347 105.132 165.215 104.929 166.083 104.713C166.431 104.626 166.773 104.536 167.12 104.445C167.028 104.249 166.928 104.055 166.84 103.858C165.881 101.735 165.311 99.8437 165.146 98.1086C164.8 94.3701 166.335 91.3028 169.985 88.0837C170.558 87.5815 171.136 87.0681 171.708 86.5472C177.809 81.0488 183.916 74.6723 187.345 67.2798C187.5 66.94 187.652 66.6014 187.796 66.2552C187.977 65.8376 188.151 65.4082 188.31 64.9779C189.604 61.5014 190.279 57.8102 190.07 53.8876C190.066 53.6674 190.052 53.4496 190.035 53.2331C190.024 53.0241 190.01 52.8206 189.991 52.614C189.973 52.3975 189.955 52.1766 189.927 51.9581C189.889 51.6484 189.849 51.3344 189.802 51.0272C189.775 50.8461 189.742 50.6762 189.699 50.5186C189.679 50.4486 189.659 50.3742 189.644 50.303C189.64 50.2899 189.636 50.2768 189.63 50.2692C189.603 50.1917 189.582 50.1129 189.548 50.0422C189.452 49.7626 189.329 49.5233 189.186 49.3132C189.095 49.5457 188.983 49.7555 188.873 49.9697Z" fill="#F2CAA8"/>
<path d="M189.636 50.2816C189.61 50.204 189.588 50.1253 189.554 50.0545C189.458 49.7749 189.335 49.5356 189.192 49.3255C189.089 49.5473 188.977 49.7571 188.871 49.9702C188.823 49.8799 188.776 49.7798 188.72 49.6964C188.158 50.8834 187.544 52.0519 186.859 53.1837C186.446 53.8725 185.998 54.5335 185.54 55.1782C186.024 59.2416 185.878 63.314 184.774 67.2044C184.541 68.8326 183.846 70.3908 182.955 71.8009C182.786 72.1256 182.622 72.4535 182.434 72.7787C182.183 73.2157 181.88 73.5349 181.549 73.7492C177.726 78.4904 172.211 81.7493 168.52 86.6238C167.242 88.3056 166.201 90.2139 165.582 92.2318C164.59 94.1124 164.012 96.2273 163.977 98.3C163.865 104.502 166.94 110.237 169.054 116.072C174.11 130.025 173.687 145.88 167.897 159.536C161.638 174.302 149.461 186.102 135.332 193.69C121.214 201.283 105.228 204.914 89.2521 206.234C92.2005 202.027 94.1674 197.149 95.017 192.081C91.6996 192.707 88.4153 193.469 85.2036 194.579C79.6025 196.52 74.2795 199.141 69.0178 201.883C64.413 203.27 60.6128 206.356 57.1168 209.895C57.6096 210.178 58.1051 210.437 58.6113 210.683C70.8748 216.735 86.8816 214.983 99.9908 213.024C123.897 209.449 148.204 199.88 164.278 181.174C172.179 171.984 177.823 160.681 179.768 148.673C182.139 134.036 177.766 120.987 170.562 108.293C167.932 103.655 164.559 98.4452 166.308 92.8459C166.454 92.3719 166.666 91.9128 166.914 91.4628C167.686 90.3355 168.702 89.2252 169.981 88.0941C170.554 87.5919 171.133 87.0785 171.704 86.5576C177.805 81.0592 183.912 74.6827 187.337 67.2914C187.492 66.9516 187.644 66.613 187.788 66.2668C187.969 65.8493 188.143 65.4198 188.301 64.9896C189.596 61.513 190.271 57.8218 190.062 53.8992C190.057 53.679 190.044 53.4612 190.027 53.2447C190.016 53.0357 190.002 52.8322 189.983 52.6256C189.965 52.4091 189.946 52.1882 189.919 51.9697C189.88 51.66 189.841 51.346 189.793 51.0387C189.767 50.8577 189.734 50.6878 189.69 50.5302C189.671 50.4602 189.65 50.3859 189.635 50.3146C189.642 50.3035 189.644 50.2935 189.636 50.2816Z" fill="#E5AF88"/>
<path d="M181.507 57.8669C183.1 59.1126 185.049 59.8736 186.91 59.4858C190.212 58.8033 191.086 55.3207 190.933 52.4001C190.872 51.2253 190.561 50.0347 189.865 49.0871C187.498 45.8747 181.929 48.6966 179.656 50.6301C179.229 50.9933 178.818 51.3989 178.55 51.8924C178.168 52.6058 178.218 53.4681 178.545 54.1924C179.138 55.5027 180.209 56.8506 181.507 57.8669Z" fill="black"/>
<path d="M166.013 82.3914C166.035 78.7306 163.085 75.7452 159.425 75.7232C155.764 75.7013 152.779 78.6511 152.757 82.3119C152.735 85.9727 155.684 88.9581 159.345 88.9801C163.006 89.002 165.991 86.0522 166.013 82.3914Z" fill="#F2AAAA"/>
<path d="M157.887 80.4728C158.932 79.6484 159.446 78.5572 159.035 78.0354C158.623 77.5137 157.442 77.759 156.397 78.5834C155.351 79.4078 154.837 80.499 155.249 81.0208C155.66 81.5425 156.841 81.2972 157.887 80.4728Z" fill="#F9CACA"/>
<path d="M188.027 65.48C186.235 68.232 183.619 70.369 180.864 72.1769C175.143 75.9311 168.719 78.457 162.346 80.9597C162.554 80.0117 162.888 79.0902 163.327 78.2246C163.293 78.2904 162.798 78.4228 162.699 78.4737C162.495 78.5868 162.303 78.7292 162.131 78.8899C161.114 79.8449 160.74 81.6771 162.031 82.5966C162.348 82.8244 162.735 82.9624 163.128 82.9713C162.733 82.5152 162.473 81.9467 162.392 81.3474C167.705 80.6312 173.003 79.2832 177.674 76.6534C182.345 74.0235 186.364 70.0099 188.317 65.0135C188.224 65.1711 188.126 65.3256 188.027 65.48Z" fill="#3A1308"/>
<path d="M183.8 50.0634C184.213 50.5851 183.7 51.6784 182.651 52.5009C181.608 53.3266 180.422 53.5698 180.013 53.0468C179.605 52.5239 180.113 51.4318 181.162 50.6093C182.207 49.7881 183.387 49.5417 183.8 50.0634Z" fill="#333333"/>
<path d="M149.989 72.9218C148.004 71.8598 146.891 70.0812 147.5 68.947C148.11 67.8127 150.209 67.7549 152.188 68.8136C154.173 69.8756 155.287 71.6542 154.677 72.7885C154.073 73.9259 151.974 73.9837 149.989 72.9218Z" fill="#F2CAA8"/>
<path d="M150.769 72.4513C150.554 71.9456 150.525 71.3834 150.696 70.8604C150.905 70.2185 151.465 69.8422 152.095 69.7009C152.214 69.6726 152.328 69.6742 152.444 69.6702C152.303 69.568 152.154 69.4726 151.995 69.3895C150.706 68.7002 149.289 68.8379 148.829 69.6953C148.369 70.5527 149.041 71.8081 150.33 72.4975C150.534 72.6058 150.735 72.6867 150.942 72.7521C150.886 72.6543 150.817 72.5558 150.769 72.4513Z" fill="#3A1308"/>
<path d="M95.4749 163.367C93.7536 179.383 89.6993 195.089 82.534 209.577C82.2015 210.249 81.8635 210.917 81.5167 211.587C79.1232 216.183 76.4202 220.647 73.3714 224.849C71.5932 227.31 69.6942 229.691 67.6776 231.955C63.3938 236.767 57.8594 239.833 52.7523 243.474C46.9446 247.069 41.61 251.215 38.0563 257.389C37.4778 258.397 36.9624 259.463 36.5197 260.57C36.5121 260.577 36.509 260.582 36.5114 260.591C36.4395 260.757 36.3764 260.921 36.3089 261.085C36.2095 261.339 36.1157 261.596 36.0318 261.854C35.6913 262.82 35.3879 263.818 35.1367 264.834C35.1328 264.854 35.1265 264.865 35.1258 264.88C35.068 265.079 35.0245 265.28 34.9723 265.483C32.6356 275.324 33.7455 287.203 34.6261 296.244C34.8672 298.716 39.302 326.054 40.0785 325.966C33.7794 327.563 25.4352 329.702 25.4602 329.912C25.141 328.638 24.8281 327.354 24.5352 326.074C23.8691 323.121 23.3004 320.146 22.8173 317.156C19.8665 298.895 20.1499 279.894 22.7421 261.696C23.5062 256.336 25.0233 250.957 28.2796 246.551C29.1022 245.438 30.8043 244.83 32.5521 244.116C34.9663 243.137 37.4411 241.935 37.7397 238.842C38.2991 232.912 38.057 227.882 37.5303 221.994C37.2808 219.185 37.0212 216.322 36.8016 213.434C36.4853 209.225 36.2492 204.966 36.2482 200.722C36.2515 191.88 37.2883 183.095 40.7323 174.992C42.7376 170.287 45.7383 165.877 49.6011 162.472C52.9048 160.145 56.5601 158.272 60.4286 156.778C60.4362 156.771 60.4406 156.77 60.4505 156.772C63.7988 155.968 67.3389 155.704 70.6685 155.565C77.5609 155.279 85.4388 157.193 91.9655 161.017C93.1837 161.726 94.3633 162.516 95.4749 163.367Z" fill="#D86639"/>
<path d="M56.7453 177.991C55.0495 177.259 53.1213 177.1 51.1173 177.569C47.2287 178.48 45.6248 182.099 44.7919 185.627C43.6523 190.464 42.8063 195.324 42.3767 200.276C41.4992 210.368 42.0689 220.55 43.4364 230.568C43.4499 230.668 43.4635 230.768 43.477 230.868C43.5423 231.325 43.6138 231.805 43.8982 232.169C44.4739 232.905 45.6101 232.84 46.4969 232.538C48.8135 231.751 50.6182 229.914 52.0996 227.964C56.502 222.168 58.767 215.064 60.7193 208.057C62.325 202.299 63.7911 196.377 63.3936 190.411C63.1696 187.081 62.3268 183.711 60.3877 180.992C59.3983 179.612 58.1527 178.6 56.7453 177.991Z" fill="#E8744B"/>
<path d="M73.6415 221.656C70.6592 225.213 67.857 228.791 64.0863 231.558C57.9768 236.037 50.1717 238.95 44.6019 244.222C43.8206 245.092 43.0418 245.972 42.2741 246.858C42.0524 247.112 41.832 247.371 41.6115 247.63C39.4176 250.734 38.3197 254.325 37.691 258.046C37.8088 257.825 37.9267 257.604 38.0545 257.385C41.6082 251.211 46.944 247.069 52.7505 243.47C57.862 239.828 63.392 236.762 67.6758 231.95C69.6924 229.687 71.5914 227.306 73.3696 224.845C75.8284 221.456 78.0505 217.893 80.0807 214.232C77.9475 216.72 75.7487 219.142 73.6415 221.656Z" fill="#C65330"/>
<path d="M39.7982 229.314C40.568 236.473 40.0538 243.996 36.7091 250.381C36.1071 247.881 34.5662 245.717 32.5491 244.113C34.9634 243.134 37.4381 241.931 37.7367 238.839C38.2961 232.909 38.0541 227.879 37.5274 221.99C37.2779 219.181 37.0182 216.319 36.7986 213.43C37.9685 218.698 39.2184 223.949 39.7982 229.314Z" fill="#C65330"/>
<path d="M34.864 265.71C34.9435 265.453 35.0313 265.174 35.1174 264.872C35.0596 265.072 35.0161 265.272 34.9639 265.475C32.6272 275.317 33.7371 287.196 34.6177 296.237C34.8588 298.709 39.2936 326.047 40.0701 325.959C33.771 327.556 25.4268 329.694 25.4518 329.904C25.1326 328.631 24.8198 327.347 24.5268 326.066C23.8607 323.114 23.292 320.138 22.8089 317.149C24.5634 316.306 26.2719 315.381 27.9275 314.367C29.7447 313.257 31.6197 311.895 32.284 309.869C32.6393 308.786 32.5992 307.62 32.562 306.481C32.2419 298.053 31.6132 289.616 32.1492 281.2C32.4858 275.963 33.2938 270.728 34.864 265.71Z" fill="#C65330"/>
<path d="M39.5398 324.17C39.4072 324.15 28.7421 324.166 23.5891 322.822C23.2307 323.91 22.7901 324.974 22.3377 326.046C22.01 326.82 21.6991 327.603 21.3925 328.385C28.1686 331.254 35.939 333.716 43.0867 334.965C42.7873 334.309 40.6489 326.732 39.5398 324.17Z" fill="black"/>
<path d="M28.2146 254.558C28.5949 253.379 29.3316 251.955 30.5656 252.056C31.4817 252.133 32.0763 253.056 32.3515 253.932C33.1648 256.514 32.4272 259.314 31.5046 261.854C28.8131 269.254 24.4301 276.449 24.8441 284.314C24.9841 287.017 26.2192 291.056 24.5913 293.447C22.0843 287.961 22.8453 279.865 23.5728 274.048C24.412 267.41 26.1679 260.918 28.2146 254.558Z" fill="#E8744B"/>
<path d="M75.576 150.312C75.0706 149.081 72.6617 148.904 70.201 149.919C67.7403 150.934 66.1566 152.752 66.6619 153.983C67.1673 155.214 69.5762 155.391 72.0369 154.376C74.4976 153.361 76.0814 151.543 75.576 150.312Z" fill="#EFD2A8"/>
<path d="M79.211 154.002C77.4071 154.855 76.2882 156.276 76.7128 157.181C77.1374 158.085 78.9481 158.126 80.7563 157.273C82.5602 156.42 83.6792 154.999 83.2546 154.094C82.8256 153.191 81.0149 153.15 79.211 154.002Z" fill="#EFD2A8"/>
<path d="M63.3706 157.716C61.5667 158.568 60.4478 159.989 60.8723 160.894C61.2969 161.799 63.1076 161.84 64.9159 160.986C66.7198 160.134 67.8387 158.712 67.4141 157.808C66.9864 156.909 65.1757 156.868 63.3706 157.716Z" fill="#EFD2A8"/>
<path d="M86.0954 147.397C84.7988 147.699 83.873 148.473 84.0235 149.12C84.174 149.766 85.3497 150.048 86.645 149.742C87.9416 149.439 88.8674 148.665 88.7169 148.019C88.5665 147.373 87.392 147.095 86.0954 147.397Z" fill="#EFD2A8"/>
<path d="M56.4057 159.351C55.2305 159.973 54.5257 160.95 54.8357 161.542C55.1444 162.13 56.3532 162.107 57.5284 161.485C58.7036 160.863 59.4084 159.886 59.0985 159.294C58.7897 158.705 57.5809 158.729 56.4057 159.351Z" fill="#EFD2A8"/>
<path opacity="0.5" d="M198.99 123.839C197.604 124.006 196.199 124.173 194.885 124.65C193.571 125.127 192.331 125.941 191.613 127.143C191.311 127.65 191.113 128.298 191.398 128.818C191.803 129.549 192.843 129.53 193.668 129.396C197.691 128.749 201.66 127.755 205.513 126.425C206.67 126.025 209.806 125.511 208.764 123.722C208.144 122.654 206.923 122.907 205.877 123.022C203.582 123.276 201.288 123.566 198.99 123.839Z" fill="#E8744B"/>
<path d="M180.639 133.104C181.446 134.576 182.238 136.11 182.902 137.693C183.571 139.293 184.099 140.946 184.357 142.646C184.416 143.063 184.468 143.491 184.341 143.899C184.268 144.145 184.156 144.322 184.021 144.463C183.566 144.914 182.81 144.869 182.129 144.93C178.497 145.233 174.891 144.492 171.586 143.48C167.194 142.127 163.233 139.897 159.701 137.243C157.919 135.913 156.253 134.47 154.673 132.929C153.139 131.436 151.338 129.984 150.284 128.114C149.476 126.675 149.757 124.779 150.037 123.151C150.105 122.751 150.762 120.374 150.911 119.193C150.944 118.958 151.248 118.845 151.419 119.005C152.201 119.703 152.852 120.507 153.545 121.291L153.55 121.294C153.935 121.748 154.339 122.187 154.779 122.603C156.133 123.886 157.736 124.997 159.359 125.98C164.581 129.171 170.961 131.155 177.538 131.022C178.108 131.006 179.21 131.191 179.21 131.191C179.997 131.313 180.329 132.53 180.639 133.104Z" fill="#D10505"/>
<path d="M182.906 137.692C183.575 139.292 184.103 140.945 184.361 142.645C184.42 143.062 184.472 143.49 184.345 143.898C184.272 144.144 184.16 144.321 184.025 144.462C183.57 144.913 182.814 144.868 182.133 144.929C178.501 145.232 174.895 144.491 171.59 143.479C167.198 142.126 163.237 139.897 159.704 137.242C157.923 135.912 156.257 134.469 154.677 132.928C153.143 131.435 151.342 129.983 150.288 128.113C149.48 126.674 149.761 124.778 150.041 123.15C150.109 122.75 150.766 120.373 150.915 119.192C150.948 118.957 151.252 118.844 151.423 119.004C152.205 119.702 152.856 120.506 153.549 121.29L153.554 121.293C153.962 122.07 154.376 122.851 154.847 123.616C156.669 126.574 159.046 129.19 161.836 131.343C163.381 132.532 165.062 133.569 166.845 134.447C171.686 136.824 177.272 137.945 182.906 137.692Z" fill="#BA0000"/>
<path d="M164.658 132.635C164.629 133.331 164.291 134.013 163.491 134.512C161.199 135.933 158.98 133.358 159.874 131.467C160.06 131.081 160.366 130.723 160.832 130.434C162.799 129.216 164.71 130.93 164.658 132.635Z" fill="#F7931E"/>
<path d="M171.701 136.094C171.672 136.79 171.333 137.473 170.534 137.972C168.242 139.392 166.022 136.817 166.916 134.926C167.102 134.54 167.408 134.182 167.876 133.898C169.837 132.677 171.752 134.389 171.701 136.094Z" fill="#F7931E"/>
<path d="M178.04 138.048C178.011 138.744 177.67 139.432 176.873 139.925C174.581 141.346 172.362 138.771 173.256 136.879C173.442 136.494 173.748 136.136 174.215 135.851C176.176 134.63 178.092 136.343 178.04 138.048Z" fill="#F7931E"/>
<path d="M159.016 128.633C158.995 129.327 158.649 130.016 157.856 130.504C155.564 131.924 153.35 129.353 154.235 127.459C154.42 127.074 154.726 126.716 155.197 126.425C157.16 125.213 159.067 126.928 159.016 128.633Z" fill="#F7931E"/>
<path d="M164.662 132.635C164.476 133.021 164.17 133.378 163.699 133.669C161.737 134.885 159.826 133.172 159.881 131.461C160.066 131.075 160.372 130.717 160.838 130.428C162.802 129.216 164.713 130.93 164.662 132.635Z" fill="#FBB03B"/>
<path d="M171.702 136.094C171.516 136.48 171.21 136.838 170.739 137.128C168.777 138.345 166.866 136.631 166.921 134.92C167.106 134.535 167.412 134.177 167.88 133.892C169.838 132.677 171.753 134.389 171.702 136.094Z" fill="#FBB03B"/>
<path d="M178.042 138.048C177.856 138.434 177.55 138.792 177.079 139.082C175.117 140.299 173.206 138.585 173.261 136.874C173.446 136.489 173.752 136.131 174.22 135.846C176.178 134.631 178.093 136.343 178.042 138.048Z" fill="#FBB03B"/>
<path d="M159.016 128.633C158.83 129.019 158.524 129.377 158.057 129.662C156.094 130.878 154.179 129.166 154.23 127.461C154.416 127.075 154.722 126.717 155.193 126.427C157.16 125.213 159.067 126.928 159.016 128.633Z" fill="#FBB03B"/>
<path d="M180.794 132.242C180.492 132.071 180.058 132.102 179.848 132.414C179.658 132.698 179.685 133.137 180.006 133.327C180.224 133.45 180.432 133.59 180.631 133.747C180.679 133.786 180.729 133.828 180.777 133.867C180.796 133.885 180.821 133.907 180.84 133.925C180.924 134.005 181.007 134.086 181.088 134.172C181.256 134.356 181.409 134.549 181.555 134.754C181.556 134.758 181.562 134.762 181.563 134.766C181.564 134.77 181.564 134.77 181.57 134.774C181.604 134.83 181.639 134.886 181.673 134.943C181.738 135.057 181.799 135.176 181.855 135.293C182.001 135.601 182.425 135.771 182.75 135.601C183.076 135.435 183.246 135.059 183.089 134.73C182.602 133.701 181.796 132.817 180.794 132.242Z" fill="#BA0000"/>
<path d="M187.748 135.061C188.186 135.675 188.449 136.351 188.533 137.048C188.598 137.572 188.572 138.107 188.452 138.626C188.241 139.551 187.741 140.414 186.978 141.082C186.828 141.218 186.664 141.343 186.489 141.458C186.195 141.657 185.894 141.811 185.587 141.943C183.763 142.688 181.656 142.277 180.321 140.889C180.161 140.735 180.019 140.563 179.893 140.381C179.807 140.259 179.726 140.135 179.658 140.008C178.622 138.222 178.982 135.965 180.504 134.517C180.699 134.321 180.914 134.144 181.148 133.985C182.449 133.103 184.035 132.928 185.407 133.377C186.331 133.668 187.157 134.235 187.748 135.061Z" fill="#F7931E"/>
<path d="M187.747 135.061C188.185 135.675 188.448 136.351 188.532 137.049C188.597 137.572 188.571 138.107 188.451 138.626C188.011 138.724 187.572 138.803 187.131 138.878C185.605 139.135 184.057 139.328 182.583 139.806C181.897 140.034 181.226 140.318 180.615 140.695C180.514 140.755 180.418 140.82 180.319 140.885C180.158 140.731 180.016 140.559 179.891 140.377C179.805 140.254 179.724 140.131 179.656 140.004C178.62 138.217 178.98 135.96 180.501 134.513C182.067 133.905 183.729 133.53 185.405 133.373C186.33 133.668 187.156 134.236 187.747 135.061Z" fill="#DB750F"/>
<path d="M187.748 135.061C188.093 135.545 188.328 136.069 188.454 136.609C188.488 136.75 188.512 136.904 188.532 137.044C187.994 136.99 187.45 136.966 186.911 136.993C185.143 137.072 183.41 137.651 181.851 138.487C181.067 138.907 180.302 139.41 179.656 140.003C179.578 139.874 179.507 139.738 179.45 139.599C178.704 137.94 179.076 135.981 180.377 134.641C180.602 134.4 180.861 134.178 181.147 133.985C183.154 132.625 185.822 132.937 187.381 134.621C187.508 134.755 187.633 134.904 187.748 135.061Z" fill="#FBB03B"/>
<path d="M187.75 135.061C188.096 135.545 188.331 136.069 188.456 136.609C188.407 136.617 188.362 136.625 188.308 136.635C188.024 136.695 187.729 136.72 187.434 136.76C186.532 136.872 185.631 137.056 184.734 137.233C184.113 137.358 183.49 137.488 182.915 137.727C182.455 137.92 182.033 138.183 181.651 138.486C180.878 138.79 180.131 139.157 179.456 139.593C178.71 137.934 179.082 135.975 180.383 134.635C180.273 135.448 180.396 136.299 180.533 137.1C181.239 136.518 182.094 136.155 182.951 135.814C184.369 135.252 185.881 134.758 187.387 134.615C187.51 134.755 187.636 134.904 187.75 135.061Z" fill="#FFA227"/>
<path d="M186.979 141.078C186.828 141.214 186.665 141.339 186.489 141.453C186.195 141.652 185.894 141.806 185.587 141.939C184.837 141.576 184.124 141.128 183.481 140.609C183.28 140.631 183.095 140.593 182.907 140.527C182.465 140.376 182.171 139.892 182.23 139.443C182.367 138.354 184.237 138.115 184.521 139.209C184.569 139.366 184.577 139.495 184.561 139.66C184.557 139.68 184.542 139.693 184.542 139.712C185.285 140.284 186.105 140.745 186.979 141.078Z" fill="#3A1308"/>
<path d="M188.938 135.981C187.189 135.721 185.307 136.001 183.628 136.574C182.699 136.892 181.809 137.421 180.969 137.912C180.114 138.413 179.325 138.984 178.646 139.695C178.047 140.322 179.081 141.148 179.68 140.521C180.275 139.899 180.985 139.415 181.735 138.977C182.478 138.545 183.249 138.082 184.07 137.799C185.528 137.296 187.166 137.036 188.686 137.266C189.543 137.401 189.802 136.109 188.938 135.981Z" fill="#F7931E"/>
<path opacity="0.5" d="M182.387 134.109C182.304 134.184 182.226 134.276 182.214 134.387C182.197 134.529 182.299 134.661 182.426 134.729C182.558 134.796 182.707 134.807 182.854 134.809C183.465 134.823 184.082 134.719 184.653 134.504C184.73 134.474 184.81 134.442 184.86 134.381C184.972 134.242 184.873 134.038 184.746 133.918C184.434 133.627 184.039 133.61 183.631 133.652C183.16 133.702 182.754 133.767 182.387 134.109Z" fill="white"/>
<path d="M229.118 151.801C229.918 156.77 226.077 163.439 223.981 167.763C221.842 172.189 219.228 176.379 216.353 180.359C210.376 188.621 202.675 195.589 195.385 202.646C193.033 204.922 190.733 207.249 188.384 209.538C186.884 210.994 185.37 212.435 183.814 213.841C182.927 214.638 182.033 215.389 181.084 216.099C180.882 216.254 179.754 217.164 178.91 217.741C177.807 215.183 176.808 212.576 175.666 210.014C174.855 208.189 174.023 206.342 173.002 204.627C180.494 199.422 185.692 196.467 192.153 189.413C194.02 187.375 195.817 185.272 197.526 183.104C200.67 179.129 203.541 174.93 206.094 170.554C207.292 168.498 208.413 166.403 209.473 164.277C210.011 163.191 210.533 162.095 211.033 160.991C211.251 160.521 212.237 158.892 211.956 158.352C211.768 157.995 211.269 158.236 210.916 158.306C209.956 158.496 208.992 158.706 208.032 158.929C204.267 159.811 200.481 160.905 196.776 161.869C191.42 163.247 186.045 164.573 180.623 165.697C179.697 165.891 178.778 166.075 177.844 166.258C172.162 167.363 166.644 168.701 160.867 169.306C155.575 169.861 150.262 170.12 144.946 170.347C141.129 170.512 136.198 170.209 132.895 168.079C128.895 165.503 129.59 158.292 131.084 153.987C132.736 149.215 135.882 146.795 140.451 145.141C153.542 140.393 174.033 140.462 187.759 140.971C189.297 141.03 190.838 141.099 192.375 141.173C193.017 141.212 193.656 141.242 194.295 141.287C204.488 141.93 215.222 143.355 224.713 147.32C226.693 148.161 228.75 149.552 229.118 151.801Z" fill="#D86639"/>
<path d="M137.773 160.779C138.474 162.785 139.4 164.734 140.689 166.379L137.773 160.779Z" fill="#CE5930"/>
<path d="M146.446 170.694C146.243 170.538 146.019 170.393 145.853 170.217C144.639 168.947 143.476 167.601 142.36 166.242C140.14 163.545 138.132 160.629 136.872 157.35C135.34 153.365 134.99 148.454 135.218 144.222C135.263 143.381 135.37 141.486 135.216 139.72C133.101 140.333 130.94 140.813 128.75 141.188C128.192 142.44 127.719 143.744 127.258 145.04C126.537 147.048 125.827 149.081 125.542 151.2C125.247 153.42 125.427 155.688 125.689 157.914C126.529 165.106 128.243 172.305 131.105 178.937C133.423 177.782 135.876 176.892 138.39 176.017C139.837 175.513 141.445 175.125 142.825 174.461C143.387 174.192 144.788 173.451 145.148 172.848C145.458 172.333 146.768 172.418 146.917 171.544C146.986 171.162 146.739 170.919 146.446 170.694Z" fill="#CE5930"/>
<path d="M218.094 154.468C217.774 160.463 214.877 165.98 211.902 171.198C209.933 174.654 207.886 178.084 205.483 181.25C200.109 188.304 193.067 193.87 186.88 200.217C186.592 200.504 186.297 200.816 186.176 201.212C186.04 201.674 186.158 202.169 186.285 202.628C186.91 204.957 187.61 207.264 188.378 209.548C186.878 211.004 185.364 212.445 183.808 213.851C182.921 214.648 182.027 215.399 181.078 216.109C180.876 216.264 179.748 217.174 178.904 217.751C177.801 215.193 176.802 212.586 175.659 210.024C174.848 208.199 174.017 206.352 172.996 204.637C180.488 199.432 185.686 196.477 192.147 189.423C194.014 187.385 195.811 185.282 197.519 183.114C200.664 179.14 203.535 174.94 206.088 170.564C207.286 168.508 208.407 166.413 209.467 164.287C210.005 163.201 210.526 162.105 211.027 161.001C211.245 160.531 212.231 158.902 211.95 158.362C211.761 158.005 211.263 158.246 210.91 158.316C209.95 158.506 208.986 158.716 208.025 158.939C204.261 159.821 200.475 160.915 196.77 161.879C191.414 163.257 186.039 164.583 180.617 165.707C179.691 165.901 178.771 166.085 177.838 166.268C191.333 162.573 204.326 156.976 218.094 154.468Z" fill="#C65330"/>
<path d="M182.787 215.457C182.737 215.344 177.416 206.975 175.938 202.259C174.883 202.518 173.804 202.703 172.712 202.878C171.924 203.007 171.14 203.153 170.356 203.299C171.412 210.045 173.29 217.378 175.837 223.607C176.21 223.047 181.264 217.598 182.787 215.457Z" fill="black"/>
<path opacity="0.5" d="M170.97 144.823C167.195 145.363 163.471 146.271 159.867 147.532C157.29 148.433 152.017 150.316 152.815 154C153.054 155.121 154.087 155.942 155.184 156.265C156.286 156.587 157.458 156.498 158.602 156.394C171.7 155.159 184.65 152.523 197.674 150.597C201.457 150.036 205.241 149.498 209.03 148.977C209.752 148.876 211.914 149.032 211.381 147.955C211.115 147.42 209.901 147.05 209.364 146.93C197.442 144.241 184.914 143.227 172.749 144.599C172.154 144.66 171.562 144.735 170.97 144.823Z" fill="#E8744B"/>
<path d="M154.256 192.52C153.769 193.653 152.56 194.322 151.594 194.985C150.195 195.956 148.821 196.967 147.446 197.974C146.206 198.887 144.94 200.17 143.515 200.776C141.058 201.838 139.192 199.673 137.52 198.191C135.969 196.825 134.515 195.348 133.181 193.762C130.556 190.658 128.386 187.175 126.748 183.449C123.64 176.334 121.246 168.942 120.521 161.162C119.913 154.689 120.089 147.32 123.112 141.443C123.504 140.68 124.28 140.386 125.135 140.257C125.961 140.128 126.86 140.162 127.541 140.086C129.455 139.868 131.343 139.458 133.169 138.854C134.734 138.332 134.815 139.252 134.625 140.628C133.901 145.892 134.069 151.267 134.926 156.513C136.083 163.537 138.481 170.349 141.949 176.569C142.543 177.643 143.167 178.691 143.829 179.723C144.869 181.352 145.982 182.943 147.177 184.468C147.415 184.784 147.662 185.097 147.917 185.408C149.033 186.786 150.218 188.121 151.453 189.404C152.137 190.105 154.788 191.36 154.256 192.52Z" fill="#D10505"/>
<path d="M154.256 192.52C153.769 193.653 152.56 194.322 151.594 194.985C150.195 195.956 148.821 196.967 147.446 197.974C146.206 198.887 144.94 200.17 143.515 200.776C141.058 201.838 139.192 199.673 137.52 198.191C135.969 196.825 134.515 195.348 133.181 193.762C130.556 190.658 128.386 187.175 126.748 183.449C123.64 176.334 121.246 168.942 120.521 161.162C119.913 154.689 120.089 147.32 123.112 141.443C123.504 140.68 124.28 140.386 125.135 140.257C125.137 140.845 125.095 141.427 125.042 141.95C124.687 145.28 123.773 148.397 123.758 151.798C123.738 155.148 124.122 158.494 124.694 161.789C125.662 167.367 127.164 172.882 129.618 177.987C130.946 180.762 132.567 183.404 134.489 185.806C135.857 187.515 138.405 191.125 140.695 191.533C142.082 191.78 142.67 189.361 143.948 190.166C144.462 190.49 144.835 191.004 145.377 191.311C146.425 191.916 147.543 191.989 147.81 190.554C147.884 190.142 147.788 189.726 147.678 189.328C147.417 188.401 144.857 184.356 146.702 184.388C146.854 184.393 147.017 184.418 147.178 184.473C147.416 184.788 147.663 185.102 147.919 185.412C149.035 186.79 150.219 188.125 151.455 189.409C152.137 190.105 154.788 191.36 154.256 192.52Z" fill="#BA0000"/>
<path d="M125.852 144.252C126.147 144.91 126.731 145.436 127.66 145.594C130.32 146.049 131.361 142.695 129.801 141.228C129.483 140.93 129.059 140.708 128.516 140.618C126.231 140.223 125.139 142.626 125.852 144.252Z" fill="#F7931E"/>
<path d="M125.852 144.252C126.17 144.55 126.594 144.772 127.143 144.865C129.427 145.255 130.514 142.849 129.797 141.229C129.479 140.931 129.055 140.709 128.512 140.619C126.231 140.223 125.139 142.626 125.852 144.252Z" fill="#FBB03B"/>
<path d="M125.061 152.031C125.356 152.689 125.94 153.215 126.869 153.373C129.529 153.829 130.57 150.474 129.01 149.007C128.692 148.709 128.268 148.487 127.725 148.397C125.44 148.003 124.349 150.41 125.061 152.031Z" fill="#F7931E"/>
<path d="M125.061 152.031C125.379 152.33 125.803 152.551 126.352 152.645C128.636 153.035 129.723 150.629 129.006 149.009C128.688 148.71 128.264 148.488 127.721 148.398C125.44 148.003 124.349 150.41 125.061 152.031Z" fill="#FBB03B"/>
<path d="M125.881 161.352C126.176 162.01 126.76 162.536 127.689 162.694C130.349 163.15 131.39 159.795 129.831 158.328C129.513 158.03 129.088 157.808 128.545 157.718C126.26 157.324 125.169 159.731 125.881 161.352Z" fill="#F7931E"/>
<path d="M125.881 161.352C126.199 161.65 126.623 161.872 127.172 161.965C129.456 162.356 130.543 159.95 129.826 158.33C129.508 158.031 129.084 157.809 128.541 157.719C126.26 157.324 125.169 159.731 125.881 161.352Z" fill="#FBB03B"/>
<path d="M127.907 170.401C128.202 171.059 128.785 171.585 129.714 171.743C132.375 172.198 133.416 168.844 131.856 167.377C131.538 167.079 131.114 166.857 130.571 166.767C128.285 166.372 127.194 168.78 127.907 170.401Z" fill="#F7931E"/>
<path d="M127.907 170.401C128.225 170.699 128.649 170.921 129.197 171.014C131.482 171.404 132.568 168.998 131.852 167.378C131.534 167.08 131.11 166.858 130.566 166.768C128.285 166.372 127.194 168.78 127.907 170.401Z" fill="#FBB03B"/>
<path d="M131.141 179.182C131.436 179.84 132.02 180.366 132.949 180.523C135.609 180.979 136.65 177.625 135.09 176.158C134.772 175.86 134.348 175.638 133.805 175.548C131.52 175.153 130.429 177.561 131.141 179.182Z" fill="#F7931E"/>
<path d="M131.141 179.182C131.459 179.48 131.883 179.702 132.432 179.795C134.716 180.185 135.803 177.779 135.086 176.159C134.768 175.861 134.344 175.639 133.801 175.549C131.52 175.153 130.429 177.561 131.141 179.182Z" fill="#FBB03B"/>
<path d="M135.717 188.298C136.012 188.956 136.596 189.482 137.525 189.64C140.185 190.095 141.226 186.741 139.667 185.274C139.349 184.976 138.925 184.754 138.381 184.664C136.096 184.269 135.004 186.672 135.717 188.298Z" fill="#F7931E"/>
<path d="M135.717 188.298C136.035 188.596 136.459 188.818 137.008 188.911C139.292 189.302 140.379 186.895 139.662 185.275C139.344 184.977 138.92 184.755 138.377 184.665C136.096 184.269 135.004 186.672 135.717 188.298Z" fill="#FBB03B"/>
<path d="M142.436 195.662C142.731 196.32 143.315 196.847 144.244 197.004C146.904 197.46 147.945 194.105 146.385 192.639C146.067 192.34 145.643 192.118 145.1 192.028C142.815 191.634 141.724 194.041 142.436 195.662Z" fill="#F7931E"/>
<path d="M142.436 195.662C142.754 195.961 143.178 196.183 143.727 196.276C146.011 196.666 147.098 194.26 146.381 192.64C146.063 192.341 145.639 192.12 145.096 192.03C142.815 191.634 141.724 194.041 142.436 195.662Z" fill="#FBB03B"/>
<path d="M126.874 83.0944C125.812 83.1715 124.768 83.5544 123.7 83.5579C121.531 83.5689 119.692 82.0804 117.982 80.7495C112.642 76.6022 106.632 73.3187 100.26 71.0586C95.3195 69.307 89.9931 68.1708 84.8401 69.1253C94.385 75.482 107.04 76.6493 115.422 84.4723C96.7358 86.4149 77.4902 86.4206 59.5943 80.6972C54.2149 78.9774 48.9415 76.7385 43.3443 76.0022C42.8116 75.9329 42.1209 75.9732 41.9507 76.4819C41.8298 76.8451 42.0761 77.2245 42.3312 77.5166C44.0686 79.5232 46.5596 80.6948 49.0062 81.7231C56.4641 84.8605 64.2588 87.1886 72.2159 88.6569C64.4039 93.0602 55.8036 96.0611 46.9471 97.489C46.2252 97.6039 44.5798 97.9224 44.7787 98.965C44.9699 99.9625 46.1755 99.9446 46.9502 100.004C49.2612 100.184 51.5869 100.162 53.8937 99.9528C58.5115 99.5327 63.0573 98.3411 67.2904 96.4447C69.1715 95.5993 70.9908 94.6155 72.7241 93.4907C74.8097 92.1412 76.8435 90.5705 79.2588 89.9872C83.0963 89.0622 87.1048 90.7985 91.0368 90.4362C88.5524 99.3857 84.1989 107.811 78.3391 115.014C79.3938 115.881 80.961 115.076 82.0222 114.212C89.2666 108.336 94.145 99.6286 95.3697 90.3822C103.909 90.1397 112.434 89.4725 120.909 88.3857C116.314 97.5046 106.934 102.982 99.3398 109.808C98.7698 110.319 97.9726 112.051 99.4474 111.61C104.342 110.148 108.948 107.809 113.029 104.735C117.062 101.688 120.569 97.9339 123.289 93.6674C123.752 92.941 124.189 92.2032 124.607 91.4515C125.442 89.9393 126.236 88.3158 127.642 87.3192C128.462 86.7392 129.548 86.2738 129.742 85.2875C129.983 84.081 128.599 83.1164 127.368 83.0755C127.195 83.0809 127.035 83.0827 126.874 83.0944Z" fill="#3A1308"/>
<path d="M127.967 83.2201C125.049 83.0758 122.141 83.579 119.279 84.1492C114.082 85.1819 108.931 86.4326 103.839 87.8977C105.049 90.3844 107.009 92.5131 109.407 93.8941C111.801 95.2763 114.618 95.9243 117.377 95.7311C122.26 95.3837 127.122 92.9362 130.924 89.9579C132.228 88.933 134.95 86.616 133.037 84.908C131.68 83.7004 129.781 83.3071 127.967 83.2201Z" fill="#D86639"/>
<path d="M130.148 86.6445C130.073 86.7124 129.991 86.7916 129.906 86.8763C129.595 87.1649 129.279 87.4173 129.061 87.5858C128.33 88.1602 127.587 88.6909 126.84 89.1754C123.606 91.2617 120.244 92.5075 117.166 92.723C115.003 92.8738 112.785 92.3662 110.911 91.2784C110.142 90.8316 109.427 90.2899 108.781 89.6583C111.702 88.8927 114.654 88.1892 117.606 87.5704C118.362 87.4084 119.11 87.2532 119.87 87.1043C122.46 86.5904 125.198 86.1014 127.824 86.2276C128.77 86.2768 129.549 86.4193 130.148 86.6445Z" fill="#BA4820"/>
<path d="M130.148 86.6442C130.073 86.7122 129.991 86.7914 129.906 86.8761C129.595 87.1647 129.279 87.4171 129.062 87.5855C128.33 88.16 127.587 88.6907 126.84 89.1752C126.607 89.0984 126.376 89.0303 126.141 88.9635C124.191 88.4052 122.192 88.021 120.179 87.7958C119.323 87.6981 118.464 87.6248 117.602 87.5714C118.358 87.4094 119.106 87.2541 119.866 87.1053C122.456 86.5913 125.194 86.1024 127.819 86.2286C128.77 86.2765 129.549 86.419 130.148 86.6442Z" fill="#A8310C"/>
</svg>
