<svg width="1372" height="722" viewBox="0 0 1372 722" fill="none" xmlns="http://www.w3.org/2000/svg">
<path fill-rule="evenodd" clip-rule="evenodd" d="M1249.18 80.2022C1183.38 6.56073 1049.4 98.0333 959.892 56.3119C867.479 13.2362 755.285 48.5008 653.519 56.3119C551.754 64.1229 409.037 -32.8955 315.537 13.6045C215.47 63.3704 1.23079 235.201 0.546908 372.412C-0.170904 516.43 416.129 330.348 519.037 431.104C580.134 490.925 573.63 685.047 653.519 715.527C734.421 746.394 810.825 658.214 887.052 617.138C940.599 588.283 976.48 539.478 1030.85 512.2C1138.04 458.417 1302.51 488.58 1356.6 381.545C1405.91 283.982 1322.01 161.719 1249.18 80.2022Z" fill="white"/>
</svg>
