<svg width="817" height="722" viewBox="0 0 817 722" fill="none" xmlns="http://www.w3.org/2000/svg">
<path fill-rule="evenodd" clip-rule="evenodd" d="M1248.63 79.7906C1182.83 6.14911 1048.85 97.6216 959.345 55.9003C866.932 12.8245 754.738 48.0892 652.973 55.9002C551.207 63.7113 408.49 -33.3071 314.99 13.1929C214.923 62.9587 0.683948 234.789 3.287e-05 372C-0.717804 516.019 415.583 329.936 518.49 430.693C579.587 490.513 573.084 684.635 652.973 715.115C733.874 745.982 810.278 657.802 886.505 616.726C940.052 587.872 975.933 539.066 1030.3 511.788C1137.49 458.005 1301.96 488.169 1356.06 381.133C1405.36 283.571 1321.46 161.308 1248.63 79.7906Z" fill="white"/>
</svg>
