<svg width="359" height="289" viewBox="0 0 359 289" fill="none" xmlns="http://www.w3.org/2000/svg">
<path d="M324.619 89.0921C343.955 135.09 294.708 198.423 216.333 229.848C137.957 261.274 58.6637 249.481 40.7947 202.895C13.422 131.508 70.7054 93.564 149.086 62.1362C227.456 30.7128 297.677 25.0173 324.619 89.0921Z" fill="#EF9C56"/>
<path d="M324.618 89.0919C323.096 85.4717 321.434 82.0736 319.642 78.8935C335.548 124.595 286.763 185.803 210.152 216.521C137.405 245.689 63.8691 237.624 39.3984 199.064C39.8361 200.331 40.3023 201.605 40.7939 202.895C58.6573 249.483 137.951 261.276 216.332 229.848C294.702 198.425 343.955 135.09 324.618 89.0919Z" fill="#E08F4C"/>
<path d="M303.143 53.4656C294.833 45.8545 283.414 42.9166 272.707 39.8594C246.543 32.3884 224.113 32.749 198.203 41.6829C173.402 50.2298 148.419 55.2512 124.253 66.338C105.973 74.7267 88.3113 84.3225 72.0048 95.7866C63.6768 101.64 52.309 110.065 46.2117 120.383C38.2823 130.715 33.0332 145.345 31.3071 156.636C29.4925 168.517 26.7566 191.436 35.4411 201.812C45.4181 213.726 60.5923 202.843 72.0193 199.563C80.7218 197.062 84.0483 199.327 91.131 203.704C101.481 210.102 117.046 218.128 129.795 217.048C143.762 215.87 146.931 203.548 158.344 199.055C164.423 196.662 172.381 198.544 178.642 197.386C194.092 194.528 197.592 180.357 214.161 181.084C221.882 181.42 239.688 183.067 246.06 177.207C251.11 172.566 245.426 164.757 247.779 158.243C251.377 148.295 261.32 150.402 269.738 149.483C277.733 148.607 281.803 143.338 285.328 135.722C287.563 130.889 286.546 123.532 290.364 119.685C296.045 113.961 300.539 116.498 304.274 108.116C307.776 100.254 306.498 100.869 313.667 96.884C319.636 93.5655 322.739 91.1028 321.983 84.3806C320.808 73.8899 310.395 60.1098 303.143 53.4656Z" fill="#65EAE0"/>
<path d="M310.007 84.6337C301.975 82.9665 305.505 94.1085 302.002 101.97C298.273 110.35 292.39 101.709 286.704 107.434C282.889 111.274 283.903 118.639 281.668 123.472C278.145 131.093 277.699 141.915 269.699 142.794C261.283 143.718 247.713 136.053 244.116 146.001C241.763 152.514 248.104 167.136 243.057 171.782C236.682 177.637 218.225 169.175 210.503 168.839C193.934 168.112 193.291 188.833 177.835 191.693C171.574 192.851 160.765 184.417 154.686 186.81C143.274 191.303 141.854 210.121 127.884 211.307C115.134 212.387 97.8228 197.857 87.4732 191.459C80.3905 187.083 77.0618 184.812 68.3616 187.318C56.9345 190.598 48.3907 217.396 31.7834 189.568C31.2371 188.651 30.4864 187.861 29.9412 186.899C30.6851 192.764 32.3337 198.101 35.4524 201.821C45.4294 213.734 60.6035 202.852 72.0306 199.572C80.7331 197.071 84.0595 199.336 91.1423 203.713C101.492 210.11 117.057 218.137 129.806 217.057C143.773 215.879 146.943 203.557 158.356 199.064C164.434 196.671 172.392 198.553 178.653 197.395C194.104 194.537 197.603 180.366 214.172 181.092C221.894 181.429 239.699 183.076 246.072 177.216C251.121 172.575 245.438 164.766 247.79 158.252C251.388 148.304 261.331 150.411 269.749 149.492C277.744 148.616 281.814 143.347 285.339 135.731C287.574 130.898 286.563 123.538 290.375 119.694C296.056 113.97 300.55 116.507 304.285 108.125C307.782 100.265 306.509 100.878 313.678 96.8929C319.647 93.5744 322.75 91.1117 321.994 84.3895C321.62 81.0366 320.293 77.3447 318.431 73.6566C318.565 79.2432 319.555 86.6119 310.007 84.6337Z" fill="#4DB2AA"/>
<path opacity="0.7" d="M274.005 59.1194C267.465 44.9094 253.36 44.6307 239.914 44.401C235.166 44.3203 228.663 43.8715 224.91 47.6094C221.664 50.8442 222.169 52.3581 223.884 53.2464C226.571 55.8253 236.567 57.9044 238.115 58.0241C246.625 58.689 257.635 66.0977 257.841 75.5863C257.978 81.88 254.892 89.3004 251.75 94.5929C249.229 98.8389 241.311 104.808 244.298 110.54C248.26 118.146 257.204 107.892 259.957 104.159C270.279 90.1686 282.445 77.4486 274.005 59.1194ZM230.6 55.3711C230.844 55.5348 231.031 55.715 231.131 55.9304L230.6 55.3711Z" fill="#ABFFEB"/>
<path opacity="0.7" d="M105.828 91.9171C100.956 90.6036 93.0096 93.4135 88.4295 95.2627C82.2301 97.7676 79.099 100.382 74.2669 104.578C72.0997 106.462 69.5801 107.753 67.7466 110.102C67.684 110.185 67.6235 110.273 67.5609 110.355C57.5051 118.758 51.6592 132.409 53.0427 145.726C54.577 160.501 65.0181 169.848 79.6696 167.814C87.8475 166.679 89.6741 162.61 86.2543 155.195C83.7435 149.744 80.593 143.478 80.8079 137.426C81.0539 130.385 86.5411 121.696 91.7159 116.922C96.4358 112.573 102.234 110.356 106.747 105.682C110.41 101.897 113.006 93.8566 105.828 91.9171Z" fill="#ABFFEB"/>
<path d="M60.3783 173.297C60.1633 163.372 61.9817 153.346 64.7012 143.833C67.5786 133.759 71.6264 123.963 76.8438 114.871C80.4008 108.672 84.5797 103.181 90.2751 98.8299C92.8106 96.8944 95.5476 95.2546 98.5865 94.2403C100.751 93.5126 103.331 93.4225 105.016 94.5209C107.404 96.0838 108.516 99.3195 109.125 102.081C109.991 106.021 110.083 110.151 109.946 114.168C109.641 123.147 108.13 132.029 107.312 140.971C106.496 149.899 106.963 159.308 108.739 168.097C109.788 173.291 111.692 177.849 114.847 182.104C117.209 185.291 120.541 188.205 124.737 187.945C128.186 187.73 130.809 184.694 132.441 181.953C134.733 178.105 136.135 173.804 137.32 169.501C140.325 158.616 140.31 147.36 140.946 136.169C141.584 124.932 146.057 114.192 147.306 103.017C147.817 98.4346 147.925 93.8486 148.665 89.2829C149.382 84.88 150.62 80.6317 152.596 76.6171C154.601 72.5463 157.596 68.7804 161.18 65.9907C162.182 65.2123 163.597 64.46 164.458 64.3317C164.598 64.314 165.367 64.3882 165.354 64.3871C165.98 64.5955 166.311 64.8647 166.931 65.4074C170.039 68.0981 171.649 72.972 172.847 76.741C174.474 81.8634 175.146 87.2792 175.649 92.6093C176.155 98.0086 176.353 103.436 176.667 108.849C176.89 112.651 177.271 116.435 177.382 120.245C177.622 128.258 177.639 136.432 179.501 144.274C180.956 150.403 184.054 155.694 189.99 158.355C193.762 160.046 197.748 158.894 200.182 155.608C202.844 152.014 203.737 147.177 204.373 142.858C205.22 137.094 205.369 131.228 205.39 125.407C205.427 115.936 204.785 106.488 204.07 97.0507C203.456 88.9637 204.426 80.6883 206.657 72.9024C209.032 64.6314 213.083 56.3204 219.928 50.8445C222.136 49.0787 224.902 47.5742 227.651 47.7929C230.943 48.0486 233.872 50.9133 235.344 53.7241C240.015 62.6536 237.094 73.8746 237.18 83.4622C237.254 91.5234 236.664 99.5697 236.931 107.636C237.165 114.663 237.573 123.446 242.287 129.11C245.099 132.494 249.714 134.759 253.497 131.366C257.121 128.12 258.494 122.759 259.659 118.233C262.242 108.188 263.168 97.7034 263.96 87.3936C264.222 83.9578 264.992 80.516 265.732 77.1567C266.868 72.0177 268.329 66.4485 271.019 61.9691C271.594 61.0174 272.256 60.1205 272.994 59.2885C273.193 59.0684 273.328 58.944 273.776 58.5796C273.998 58.4013 274.234 58.2426 274.47 58.0841C275.204 57.5919 273.979 58.3067 274.764 57.9409C274.926 57.8693 275.097 57.801 275.264 57.7404C276.057 57.4417 274.715 57.82 275.552 57.6631C276.175 57.5471 276.204 57.5867 276.449 57.6096C277.006 57.6608 277.207 57.7332 277.499 57.8397C277.744 57.9263 278.87 58.6171 278.593 58.2941C280.259 60.2678 280.83 63.8735 281.351 66.3959C281.631 67.7638 281.843 69.1207 282.259 70.4598C282.46 71.1195 282.696 71.7715 282.909 72.4322C282.869 72.3146 283.228 73.5295 283.112 73.0655C283.44 74.4399 282.411 73.0024 284.133 71.5845C284.611 71.3927 285.084 71.2031 285.562 71.0114C286.541 71.2569 286.749 71.2501 286.183 70.9855C282.902 69.2001 280.655 74.5424 283.908 76.307C285.727 77.2941 287.811 76.7007 288.712 74.8084C289.489 73.1823 288.541 71.0419 288.023 69.4949C286.985 66.3956 286.565 62.9141 285.503 59.6135C284.959 57.9237 284.252 56.2229 283.202 54.7809C282.129 53.3158 280.156 52.563 278.463 52.1124C275.649 51.3647 272.822 52.1281 270.49 53.7907C265.432 57.4075 263.156 64.5733 261.533 70.2648C260.13 75.1851 258.701 80.4673 258.294 85.5947C257.509 95.4613 256.625 105.368 254.473 115.055C253.884 117.722 253.325 119.797 252.369 122.33C251.53 124.536 251.174 125.477 249.711 127.033C250.306 126.399 249.496 127.164 249.29 127.304C248.778 127.65 249.939 126.98 249.397 127.236C249.258 127.304 249.106 127.352 248.958 127.399C249.791 127.135 249.357 127.296 249.108 127.326C248.528 127.392 249.818 127.379 249.232 127.334C248.363 127.267 249.479 127.535 248.628 127.148C248.021 126.875 249.167 127.506 248.576 127.131C248.389 127.014 248.22 126.878 248.045 126.744C247.852 126.598 247.677 126.432 247.499 126.274C246.878 125.712 247.891 126.71 247.281 126.048C246.271 124.961 245.717 124.041 245.171 122.76C243.753 119.43 243.323 115.716 243.001 112.145C242.605 107.799 242.573 103.422 242.617 99.0588C242.695 91.2175 242.677 83.2806 243.211 75.4609C243.933 64.962 244.403 53.5626 236.199 45.7051C230.468 40.2122 222.628 41.601 216.758 45.9774C209.704 51.2368 205.105 59.4998 202.269 67.6557C199.072 76.8688 197.594 86.9306 198.233 96.6728C198.804 105.402 199.501 114.094 199.616 122.847C199.69 128.522 199.561 134.118 198.923 139.817C198.646 142.276 198.255 144.723 197.653 147.121C197.641 147.171 197.409 148.023 197.578 147.426C197.51 147.67 197.434 147.911 197.361 148.158C197.214 148.618 197.053 149.078 196.883 149.529C196.721 149.952 196.541 150.362 196.35 150.777C196.262 150.972 196.164 151.158 196.063 151.351C195.685 152.077 196.183 151.188 195.929 151.59C195.731 151.906 195.501 152.208 195.267 152.5C194.657 153.255 195.479 152.377 194.955 152.836C194.746 153.015 193.793 153.582 194.698 153.086C194.42 153.235 193.284 153.538 194.275 153.319C194.023 153.375 192.953 153.396 193.9 153.418C193.552 153.411 193.201 153.347 192.859 153.274C192.217 153.136 193.483 153.477 192.836 153.264C192.645 153.2 192.452 153.118 192.262 153.041C192.062 152.956 191.862 152.857 191.671 152.761C190.985 152.418 191.694 152.803 191.283 152.541C189.062 151.14 187.523 149.594 186.511 147.34C184.987 143.937 184.467 140.126 184.042 136.455C183.181 129.073 183.564 121.626 182.863 114.244C181.845 103.557 182.046 92.7756 180.089 82.1832C179.135 77.002 177.637 71.8662 175.163 67.1921C173.455 63.9657 171.164 60.4814 167.632 59.0712C164.253 57.7268 160.822 59.1472 158.037 61.1126C154.208 63.8157 151.06 67.7576 148.691 71.7637C143.931 79.83 142.523 89.0658 141.833 98.2625C141.431 103.656 140.629 108.865 139.42 114.142C138.166 119.622 136.721 125.057 135.8 130.607C134.88 136.125 134.93 141.771 134.64 147.35C134.347 152.922 133.839 158.48 132.73 163.959C131.797 168.57 130.389 173.205 128.338 177.447C127.653 178.858 126.804 180.162 125.734 181.312C125.025 182.075 124.274 182.254 123.589 182.153C122.462 181.985 121.079 180.556 120.222 179.566C118.558 177.642 117.227 175.547 116.237 173.207C114.225 168.443 113.65 163.142 113.234 158.032C112.898 153.898 112.562 149.719 112.769 145.572C112.981 141.39 113.507 137.229 113.999 133.076C115.057 124.147 116.276 115.076 115.549 106.071C115.015 99.4703 112.795 90.7192 105.617 88.4926C99.0661 86.4613 92.2386 90.2006 87.1004 93.9837C81.2522 98.2874 76.8764 103.781 73.1083 109.931C67.6367 118.85 63.4579 128.527 60.3077 138.493C57.209 148.286 55.0663 158.474 54.6646 168.754C54.599 170.484 54.5883 172.224 54.626 173.957C54.7061 177.69 60.4583 176.998 60.3783 173.297Z" fill="#6D4032"/>
<path d="M215.711 84.9043C202.444 85.0428 190.111 93.3826 177.996 98.7187C165.578 104.189 153.007 109.568 140.536 115.257C130.562 119.805 116.563 124.787 111.358 134.339C107.246 141.89 109.542 145.34 114.125 146.316C126.406 154.715 177.019 127.951 188.678 123.276C200.733 118.443 214.349 114.432 224.019 106.069C235.405 96.2264 230.218 84.7537 215.711 84.9043Z" fill="#FD8DA8"/>
<path d="M220.425 95.5591C210.755 103.922 200.03 111.515 187.975 116.348C176.536 120.935 124.722 143.191 111.279 136.24C108.342 142.663 110.625 145.685 114.863 146.595C127.145 154.994 177.757 128.23 189.416 123.555C201.471 118.721 215.087 114.71 224.757 106.347C233.002 99.2196 232.557 91.2369 226.182 87.4315C225.384 90.087 223.519 92.883 220.425 95.5591Z" fill="#FC6A8C"/>
<path d="M116.242 149.417L116.72 149.225C116.429 149.246 116.139 149.254 115.852 149.254C115.977 149.313 116.108 149.369 116.242 149.417Z" fill="#4DB2AA"/>
<path d="M223.956 83.4743C219.056 79.5753 214.915 78.7155 208.634 80.2065C194.609 83.5328 181.917 91.8376 168.288 96.6582C159.386 99.8065 150.438 103.732 142.407 108.688C136.899 112.09 131.751 115.864 125.975 118.901C116.644 123.81 106.293 126.671 106.156 138.773C106.087 144.537 111.115 147.562 116.627 147.591C113.463 146.065 112.141 141.337 113.049 138.491C114.436 134.138 117.351 130.762 121.083 128.277C129.522 122.653 139.588 118.987 148.984 114.716C159.794 109.801 170.918 105.334 181.726 100.4C189.724 96.7471 197.418 91.1737 206.174 89.4432C210.767 88.5332 215.332 88.2852 220.091 88.8399C222.949 89.1741 230.888 90.9745 231.106 94.4473C233.023 89.1229 227.48 86.2791 223.956 83.4743Z" fill="#4DB2AA"/>
<path d="M57.5566 174.473C55.8718 150.634 66.0385 128.711 76.8573 108.127C77.4371 107.027 75.6604 106.272 75.0861 107.37C64.1026 128.274 53.9329 150.493 55.641 174.692C55.7245 175.935 57.6434 175.708 57.5566 174.473Z" fill="#8D5440"/>
<path d="M100.686 92.6383C112.379 86.68 111.851 116.887 110.655 122.848C110.405 124.071 112.32 124.343 112.561 123.13C114.014 115.918 114.188 83.6003 99.9672 90.8463C98.8712 91.4069 99.5787 93.2034 100.686 92.6383Z" fill="#8D5440"/>
<path d="M108.886 150.843C109.155 156.177 110.36 161.379 111.855 166.491C112.578 168.964 113.473 171.387 114.175 173.868C114.796 176.07 115.42 178.263 116.507 180.29C118.411 183.846 122.175 185.834 126.076 184.168C129.971 182.504 131.583 177.423 131.966 173.588C132.09 172.351 130.181 172.064 130.058 173.3C129.698 176.922 128.197 181.882 124.125 182.787C119.791 183.753 117.745 178.907 116.7 175.663C114.081 167.525 111.237 159.222 110.801 150.623C110.742 149.377 108.823 149.604 108.886 150.843Z" fill="#8D5440"/>
<path d="M144.735 100.665C147.094 90.4291 147.95 78.7984 153.973 69.8689C155.832 67.1069 158.034 64.4184 160.701 62.3982C161.654 61.6715 162.901 60.8655 164.154 61.0327C165.618 61.2306 166.032 63.5023 166.237 64.6195C166.458 65.839 168.376 65.6251 168.155 64.4057C167.574 61.2059 165.848 58.2226 162.187 59.3715C158.741 60.4533 155.936 64.0408 153.829 66.7743C146.472 76.3219 145.452 89.0073 142.832 100.375C142.543 101.595 144.458 101.868 144.735 100.665Z" fill="#8D5440"/>
<path d="M178.764 131.138C179.977 136.215 179.557 141.533 181.418 146.478C182.796 150.137 185.595 153.903 189.234 155.532C196.792 158.914 200.787 149.4 201.481 143.634C201.631 142.4 199.717 142.115 199.575 143.352C198.974 148.378 195.892 156.748 189.327 153.44C186.074 151.803 183.877 147.821 182.775 144.531C181.314 140.171 181.749 135.384 180.689 130.927C180.395 129.731 178.478 129.932 178.764 131.138Z" fill="#8D5440"/>
<path d="M205.009 73.3403C204.425 64.7242 211.608 56.491 217.52 51.0578C220.321 48.4798 223.219 46.2713 227.132 45.9403C231.705 45.5549 234.338 48.7618 234.4 53.1014C234.421 54.3496 236.338 54.117 236.317 52.8875C236.254 48.5292 234.013 45.057 229.62 44.1578C225.204 43.2486 221.093 45.5032 217.831 48.2212C213.819 51.5656 210.261 55.5507 207.419 59.9378C204.81 63.964 202.755 68.6737 203.082 73.5641C203.175 74.7968 205.096 74.5753 205.009 73.3403Z" fill="#8D5440"/>
<path d="M263.725 77.661C263.413 74.8129 264.943 71.5322 265.984 68.9711C267.52 65.1966 269.451 61.481 272.007 58.2929C272.901 57.1814 273.962 56.0544 275.281 55.4617C276.827 54.7653 278.055 56.0148 278.919 57.1677C280.802 59.667 281.575 62.7578 282.642 65.6415C283.072 66.8091 284.864 66.0906 284.434 64.923C283.176 61.5291 282.216 57.926 279.763 55.1511C277.274 52.3334 274.197 53.2993 271.819 55.6438C268.643 58.7675 266.494 63.0177 264.708 67.0453C263.31 70.1962 261.412 74.3263 261.804 77.8826C261.942 79.1164 263.857 78.897 263.725 77.661Z" fill="#8D5440"/>
</svg>
