<svg width="211" height="329" viewBox="0 0 211 329" fill="none" xmlns="http://www.w3.org/2000/svg">
<path d="M155.335 66.1134L164.007 79.9866L168.081 86.4989L178.338 102.913L181.117 107.358L189.055 120.049L194.884 129.368L197.511 133.566L199.133 136.161L209.486 152.714L217.837 166.064L232.986 190.299L237.244 197.119L246.945 212.625L255.788 226.774L267.271 245.133L268.695 247.407C269.706 249.041 269.188 251.186 267.549 252.192L266.354 253.05L251.07 264.024L239.322 272.457L222.623 284.449L216.467 288.865L195.091 304.218L192.403 306.144C190.967 307.017 189.115 306.742 187.998 305.481L184.679 301.548L179.007 294.83L174.355 289.325L169.763 283.878L156.313 267.947L147.541 257.549L137.601 245.786L137.597 245.781L133.074 240.429L120.236 225.219L111.638 215.037L96.5761 197.196L92.1216 191.92L91.3569 191.006L85.3915 183.937L76.8807 173.858L52.6848 145.2C51.3486 143.696 51.5707 141.377 53.1574 140.149L91.2172 110.754L104.249 100.686L110.028 96.2233L116.389 91.3066L142.652 71.0256L150.256 65.1558C151.726 64.0194 153.791 64.2525 154.981 65.5946C155.105 65.7705 155.229 65.9374 155.335 66.1134Z" fill="#0D9393"/>
<path d="M155.334 66.1138L164.006 79.987L168.08 86.4992L178.337 102.913C145.504 128.489 114.904 156.678 91.3516 191.02L85.3862 183.951L76.8753 173.872L52.6795 145.214C51.3433 143.71 51.5653 141.391 53.1521 140.163L91.2118 110.768L104.244 100.7L110.023 96.2373L116.384 91.3207L142.646 71.0397L150.251 65.1697C151.721 64.0334 153.786 64.2665 154.976 65.6087C155.104 65.7709 155.228 65.9378 155.334 66.1138Z" fill="#0A7C7C"/>
<path d="M197.507 133.569L199.128 136.164L209.482 152.718L217.833 166.067L232.982 190.303L237.24 197.122L246.941 212.629L255.784 226.777L267.267 245.136L268.691 247.411C269.702 249.045 269.183 251.189 267.545 252.196L266.35 253.053L251.066 264.027L239.318 272.46L222.619 284.452L216.463 288.869L195.087 304.222L192.399 306.148C190.963 307.021 189.111 306.745 187.994 305.484L184.675 301.551L179.003 294.834C180.315 293.281 181.618 291.72 182.907 290.154C192.997 277.947 202.654 265.448 211.868 252.667C211.397 246.975 210.839 241.269 210.218 235.546C206.534 201.492 200.86 167.666 197.507 133.569Z" fill="#0A7C7C"/>
<path d="M104.252 100.712C98.5169 128.582 92.2189 156.338 85.3892 183.958L76.8783 173.88C81.9737 152.923 86.7556 131.882 91.2194 110.78L104.252 100.712Z" fill="#FFCECA"/>
<path d="M154.982 65.6211C154.74 66.5709 154.502 67.5252 154.265 68.4795C148.7 90.9191 143.867 113.512 139.189 136.148C135.978 151.671 132.844 167.207 129.597 182.72C126.621 196.926 123.54 211.11 120.228 225.236L111.63 215.054C116.578 193.314 121.027 171.459 125.503 149.604C127.879 138.02 130.25 126.441 132.721 114.879C135.839 100.227 139.107 85.6068 142.657 71.0566L150.261 65.1867C151.722 64.0413 153.792 64.2789 154.982 65.6211Z" fill="#FFCECA"/>
<path d="M181.122 107.362L189.059 120.053C181.807 150.542 174.851 181.097 168.19 211.718C164.116 230.441 160.15 249.19 156.299 267.96L147.527 257.562C155.578 218.662 164.111 179.867 173.121 141.191C175.739 129.909 178.408 118.631 181.122 107.362Z" fill="#FFCECA"/>
<path d="M209.482 152.727L217.833 166.077C214.481 183.846 211.334 201.645 208.345 219.483C207.34 225.496 206.345 231.509 205.367 237.53C203.728 247.653 202.13 257.779 200.564 267.91C198.691 280.016 196.869 292.126 195.078 304.241L192.39 306.167C190.954 307.04 189.102 306.764 187.985 305.503L184.666 301.57C184.958 299.545 185.265 297.524 185.561 295.504C186.083 292.003 186.604 288.502 187.134 285.001C192.214 251.249 197.604 217.532 203.656 183.936C205.124 175.779 206.629 167.612 208.188 159.464C208.615 157.211 209.046 154.962 209.482 152.727Z" fill="#FFCECA"/>
<path d="M116.386 91.3369C110.911 120.615 105.428 149.884 99.9539 179.153C98.8268 185.172 97.6952 191.194 96.5681 197.213L92.1135 191.937C92.2922 191.015 92.4573 190.097 92.6314 189.171C98.4278 158.203 104.224 127.226 110.025 96.2536L116.386 91.3369Z" fill="#FFCECA"/>
<path d="M164.013 79.9906L168.088 86.5029C165.993 96.3748 163.931 106.251 161.913 116.127C158.35 133.516 154.905 150.932 151.582 168.37C146.665 194.128 141.998 219.935 137.59 245.79L133.067 240.438C134.536 231.886 136.034 223.334 137.562 214.786C143.117 183.689 149.031 152.647 155.318 121.694L155.322 121.689C156.404 116.329 157.496 110.978 158.61 105.631C160.38 97.0768 162.18 88.527 164.013 79.9906Z" fill="#FFCECA"/>
<path d="M194.89 129.372L197.518 133.578L197.522 133.583L199.135 136.169C198.848 137.804 198.566 139.434 198.285 141.074L198.289 141.078C194.662 161.924 191.144 182.787 187.736 203.677C183.076 232.2 178.617 260.759 174.344 289.338L169.752 283.891C171.1 274.896 172.467 265.9 173.856 256.9C180.203 215.828 186.95 174.816 194.101 133.878C194.356 132.374 194.626 130.876 194.89 129.372Z" fill="#FFCECA"/>
<path d="M232.983 190.311L237.241 197.131C236.327 202.503 235.412 207.876 234.498 213.248C230.467 236.973 226.51 260.715 222.606 284.466L216.451 288.882C217.753 280.93 219.06 272.983 220.376 265.045C224.515 240.113 228.717 215.208 232.983 190.311Z" fill="#FFCECA"/>
<path d="M104.25 100.714C98.5149 128.584 92.217 156.34 85.3873 183.96L76.8764 173.882C81.9718 152.924 86.7536 131.883 91.2175 110.781L104.25 100.714Z" fill="#FCBCB9"/>
<path d="M116.386 91.3376C110.912 120.616 105.428 149.885 99.9542 179.154C97.4448 182.435 95.0039 185.765 92.6362 189.167C98.4326 158.199 104.229 127.222 110.03 96.2497L116.386 91.3376Z" fill="#FCBCB9"/>
<path d="M164.012 79.9905L168.087 86.5029C165.992 96.3747 163.93 106.251 161.912 116.127C159.695 117.958 157.506 119.817 155.326 121.694C156.408 116.333 157.5 110.982 158.614 105.635C160.379 97.0767 162.18 88.527 164.012 79.9905Z" fill="#FCBCB9"/>
<path d="M154.266 68.4797C148.701 90.9192 143.868 113.512 139.19 136.148C134.521 140.535 129.958 145.015 125.504 149.604C127.88 138.02 130.251 126.441 132.722 114.879C135.84 100.228 139.108 85.607 142.657 71.0567L150.262 65.1869C151.732 64.0505 153.797 64.2836 154.987 65.6257C154.74 66.571 154.503 67.5254 154.266 68.4797Z" fill="#FCBCB9"/>
<path d="M187.122 284.991C191.694 279.359 196.175 273.663 200.556 267.905C198.684 280.011 196.861 292.121 195.07 304.236L192.382 306.162C190.947 307.035 189.094 306.759 187.978 305.498L184.658 301.565C184.951 299.54 185.257 297.519 185.554 295.499C186.075 291.989 186.592 288.492 187.122 284.991Z" fill="#FCBCB9"/>
<path d="M232.979 190.311L237.237 197.131C236.323 202.503 235.408 207.876 234.494 213.248C230.463 236.973 226.506 260.715 222.602 284.466L216.447 288.882C217.749 280.93 219.056 272.983 220.372 265.045C224.511 240.113 228.713 215.208 232.979 190.311Z" fill="#FCBCB9"/>
<path d="M208.182 159.449C208.613 157.201 209.04 154.957 209.48 152.718L217.831 166.067C214.479 183.836 211.332 201.635 208.343 219.473C206.88 207.611 205.258 195.764 203.658 183.921C205.118 175.764 206.627 167.602 208.182 159.449Z" fill="#FCBCB9"/>
<path d="M197.518 133.583L199.131 136.169C198.844 137.804 198.562 139.434 198.28 141.074C198.016 138.572 197.756 136.084 197.518 133.583Z" fill="#FCBCB9"/>
<path d="M134.975 66.4918C131.233 72.2405 126.232 77.0376 121.112 81.5998C118.788 83.6681 116.414 85.7051 113.925 87.5752C113.109 88.1939 112.284 88.7946 111.44 89.3591C109.717 90.5338 107.938 91.6181 106.082 92.5626C105.472 92.8712 104.858 93.1664 104.234 93.4434C103.949 93.5681 103.664 93.6838 103.38 93.8085C102.439 94.1969 101.422 94.5451 100.415 94.5621C100.211 94.5682 100.011 94.5517 99.816 94.5306C99.657 94.5091 99.4981 94.4786 99.339 94.43C98.3435 94.1521 97.5854 93.4869 96.9665 92.6528C96.8381 92.4724 96.7188 92.2919 96.6039 92.0978C96.1583 91.3893 95.8028 90.5983 95.4839 89.8434C92.9928 83.9445 90.4971 78.0502 88.0014 72.1558C87.0171 69.8369 86.0326 67.4999 85.1929 65.1255C84.3532 62.751 83.6674 60.3301 83.2849 57.8386C82.5154 52.8604 83.0716 47.4861 85.864 43.296C88.4503 39.4251 92.6395 36.9429 96.9015 35.0633C103.654 32.0801 111.001 30.3032 118.38 30.4127C123.52 30.4945 128.771 31.5415 133.061 34.3604C144.358 41.7544 141.293 56.7907 134.975 66.4918Z" fill="#F9D12B"/>
<path d="M92.0332 99.1091C92.0701 99.1905 92.107 99.2718 92.135 99.3623C92.311 99.8326 92.4056 100.322 92.3734 100.839C92.3375 101.461 92.1379 102.038 91.8383 102.571C91.8249 102.603 91.807 102.63 91.7891 102.658C91.4581 103.241 91.0224 103.784 90.5865 104.291C90.4292 104.469 90.2854 104.642 90.1235 104.816L90.119 104.821C89.8177 105.145 89.5119 105.474 89.206 105.794L89.1971 105.803C87.8069 107.225 86.3024 108.534 84.7201 109.757C83.3814 110.806 81.9786 111.783 80.5483 112.715C78.4773 114.079 76.3286 115.347 74.1794 116.571C68.5085 119.799 62.6502 122.844 56.3272 124.467C45.659 127.205 31.1677 125.387 27.9263 112.936C26.6916 108.202 27.3456 103.149 28.8417 98.4927C30.993 91.7997 34.8363 85.7192 39.5892 80.534C42.5749 77.2722 46.0976 74.2419 50.3745 73.097C55.0088 71.854 60.0294 72.9889 64.2784 75.2004C66.4097 76.3083 68.3796 77.6624 70.269 79.1441C72.1583 80.6259 73.9624 82.2216 75.7574 83.8175C80.3156 87.8633 84.8694 91.9137 89.4232 95.9641C90.4281 96.8723 91.4976 97.907 92.0332 99.1091Z" fill="#F9D12B"/>
<path d="M90.1174 104.822C89.816 105.146 89.5103 105.475 89.2044 105.795L89.1954 105.804C88.3737 106.282 87.5383 106.747 86.6846 107.175C84.6337 108.217 82.4314 109.028 80.1999 109.594C77.9688 110.197 75.7133 110.587 73.4669 110.994C71.2113 111.366 68.9417 111.706 66.667 111.96C64.383 112.186 62.0941 112.372 59.7996 112.418C57.5003 112.431 55.1917 112.418 52.8993 112.168C50.6117 111.941 48.332 111.569 46.1008 111.02C43.8784 110.434 41.7001 109.694 39.6289 108.726C41.8245 109.358 44.0282 109.88 46.2625 110.243C48.4922 110.602 50.7387 110.797 52.9847 110.92C57.4852 111.102 62.0005 110.858 66.4912 110.365C68.7389 110.138 70.9813 109.817 73.2238 109.495C75.4708 109.178 77.713 108.82 79.9138 108.385C82.1144 107.933 84.2684 107.326 86.3569 106.466C87.4104 106.054 88.4453 105.588 89.4802 105.121L90.1174 104.822Z" fill="#EABE06"/>
<path d="M91.8371 102.572C91.8238 102.604 91.8058 102.631 91.7879 102.659C87.6682 104.174 83.1868 104.686 78.7872 104.648C74.1836 104.625 69.6207 104.004 65.1159 103.278C62.8587 102.892 60.6149 102.465 58.3794 101.947C56.1483 101.407 53.9258 100.813 51.7564 100.054C47.4134 98.5601 43.211 96.5115 39.6328 93.6644C43.5921 95.9506 47.8049 97.6046 52.1416 98.8583C54.3097 99.4625 56.5001 100.017 58.7123 100.457C60.9202 100.93 63.1503 101.334 65.38 101.693C67.6099 102.079 69.8577 102.428 72.1005 102.719C74.3344 103.037 76.5855 103.246 78.8317 103.396C83.1605 103.661 87.5359 103.504 91.8371 102.572Z" fill="#EABE06"/>
<path d="M92.0338 99.1095C92.0707 99.1908 92.1077 99.2721 92.1356 99.3626C91.6962 99.4251 91.2521 99.483 90.8034 99.5183C89.8107 99.5941 88.8085 99.5976 87.8104 99.551C85.8139 99.4398 83.825 99.129 81.8849 98.6862C77.9955 97.7827 74.2349 96.538 70.5183 95.1205C68.6801 94.3731 66.8462 93.5939 65.0568 92.7055C63.2853 91.7898 61.5272 90.8513 59.8542 89.7624C58.1766 88.6781 56.5708 87.4934 55.0458 86.2084C53.5434 84.9005 52.1264 83.5057 50.8626 81.9827C52.3783 83.2497 53.9208 84.4621 55.5262 85.5832C57.136 86.6998 58.8085 87.7162 60.4942 88.6825C63.9061 90.574 67.4612 92.2103 71.1006 93.6238C72.9114 94.3533 74.7579 95.0009 76.6089 95.6529C78.4555 96.3096 80.3288 96.9116 82.1882 97.4729C85.3975 98.4 88.673 99.0952 92.0338 99.1095Z" fill="#EABE06"/>
<path d="M91.2905 55.5848C92.9378 58.5832 94.2827 61.7519 95.3606 65.0089C95.9177 66.6372 96.3617 68.2982 96.7875 69.9593C97.1908 71.6342 97.5351 73.314 97.8252 75.0125C98.079 76.7112 98.3102 78.4147 98.4463 80.1416C98.5642 81.8596 98.6278 83.5961 98.5054 85.3296C98.3664 87.8206 97.9055 90.3368 96.9668 92.6437C96.8384 92.4633 96.719 92.2828 96.6041 92.0887C97.1034 89.8443 97.2849 87.5661 97.2624 85.294C97.2265 83.6208 97.1408 81.9525 96.9371 80.276C96.7515 78.6085 96.5252 76.9367 96.24 75.279C95.9819 73.612 95.6604 71.9547 95.3072 70.302C94.9766 68.6447 94.5645 67.0061 94.1616 65.3675C93.3102 62.0906 92.3186 58.8466 91.2905 55.5848Z" fill="#EABE06"/>
<path d="M100.301 40.6148C102.088 45.2721 103.08 50.2259 103.609 55.1925C103.892 57.6756 104.007 60.1828 104.09 62.6766C104.15 65.1751 104.125 67.6697 104.072 70.1645C103.992 72.6506 103.884 75.1459 103.677 77.642C103.461 80.129 103.195 82.621 102.757 85.0872C102.22 88.2934 101.46 91.4787 100.396 94.544C100.192 94.5501 99.9921 94.5335 99.7969 94.5124C100.57 91.3406 101.125 88.1343 101.513 84.9066C101.797 82.4598 102.027 79.9952 102.162 77.527C102.31 75.0631 102.408 72.5951 102.457 70.1138C102.533 67.6415 102.567 65.1649 102.557 62.6978C102.56 60.226 102.468 57.7594 102.344 55.2977C102.07 50.3745 101.446 45.4676 100.301 40.6148Z" fill="#EABE06"/>
<path d="M112.662 64.2732C112.957 67.7041 112.726 71.1937 112.14 74.6044C111.988 75.4537 111.827 76.3031 111.644 77.1572L111.024 79.6792L110.286 82.1658L109.467 84.626L108.533 87.0461C108.199 87.8424 107.884 88.6477 107.532 89.4351L106.448 91.7885C106.328 92.0389 106.198 92.2984 106.073 92.5534C105.464 92.862 104.849 93.1571 104.225 93.4342C104.537 92.697 104.844 91.9462 105.174 91.2089L106.135 88.8429L107.073 86.4726L107.952 84.0801L108.795 81.6788L109.569 79.2553L110.28 76.8142C110.482 75.9871 110.694 75.1691 110.914 74.351C111.722 71.052 112.294 67.6912 112.662 64.2732Z" fill="#EABE06"/>
<path d="M126 39.8353C126.792 45.3758 126.651 51.0506 125.815 56.6085C125.41 59.3964 124.793 62.1451 124.061 64.8631C123.312 67.5721 122.408 70.246 121.385 72.8665C120.34 75.4735 119.181 78.0405 117.908 80.5405C116.666 82.9359 115.356 85.291 113.932 87.57C113.116 88.1887 112.291 88.7894 111.447 89.3539C111.868 88.6431 112.279 87.9323 112.686 87.217C114.041 84.798 115.36 82.3612 116.56 79.8618C117.765 77.3759 118.902 74.8499 119.902 72.2704C120.925 69.7044 121.829 67.0849 122.607 64.4392C123.402 61.7933 124.043 59.1033 124.579 56.3914C125.625 50.968 126.121 45.4173 126 39.8353Z" fill="#EABE06"/>
<path d="M84.7154 109.763C83.3767 110.812 81.9739 111.789 80.5436 112.721L80.2089 112.832L77.0052 113.765L73.7689 114.584L70.5137 115.304L67.2303 115.906C66.1296 116.082 65.0333 116.245 63.9369 116.399C59.5331 116.978 55.0908 117.267 50.6543 117.148C55.0538 116.6 59.4164 115.972 63.7368 115.167C64.819 114.945 65.8922 114.732 66.9745 114.529L70.1935 113.819L73.394 113.054L76.5802 112.213L79.7479 111.326L82.8968 110.348L84.7154 109.763Z" fill="#EABE06"/>
<path d="M166.64 60.2778C168.191 63.1727 169.733 66.0586 171.285 68.9535C174.378 74.7343 177.471 80.5151 180.56 86.3005C180.97 87.0637 181.389 87.8541 181.487 88.7151C181.511 88.9099 181.512 89.1004 181.491 89.2774C181.238 91.7013 177.504 93.1912 175.753 94.3751C173.849 95.6601 171.978 97.0037 170.074 98.2977C164.963 101.771 159.847 105.222 154.741 108.691C144.636 115.556 134.563 122.462 124.637 129.583C113.752 137.048 102.867 144.523 91.9779 151.992L75.6529 163.192C72.9329 165.059 70.2127 166.927 67.4836 168.794C65.7289 170.001 63.2873 172.664 60.9304 171.703C59.9111 171.285 59.1517 170.447 58.4241 169.632C53.6929 164.354 48.966 159.071 44.2393 153.789C42.0154 151.303 39.7871 148.812 37.5541 146.318C37.0416 145.741 36.551 145.069 36.2415 144.36C35.5302 142.732 36.183 141.539 37.5631 140.558C56.0262 127.314 74.6726 114.322 93.1312 101.074C93.5596 100.766 93.9971 100.459 94.4256 100.161C95.8192 99.1657 97.2173 98.175 98.6154 97.1843C109.367 89.5616 120.124 81.9524 130.858 74.3027C136.225 70.4778 141.583 66.6529 146.931 62.801C149.61 60.875 152.275 58.9536 154.949 57.023C156.767 55.707 159.118 53.0625 161.57 53.5148C161.611 53.5281 161.652 53.5323 161.693 53.5365C164.419 54.1318 165.466 58.0784 166.64 60.2778Z" fill="#0CA8A3"/>
<path d="M166.639 60.2778C168.19 63.1727 169.732 66.0586 171.284 68.9535C174.377 74.7343 177.47 80.5152 180.559 86.3005C180.969 87.0638 181.388 87.8542 181.486 88.7151C181.51 88.9099 181.511 89.1004 181.49 89.2775C181.237 91.7013 177.503 93.1912 175.752 94.3752C173.848 95.6601 171.977 97.0037 170.073 98.2978C164.962 101.771 159.846 105.222 154.74 108.692C144.635 115.556 134.562 122.462 124.636 129.583C113.751 137.048 102.866 144.523 91.9769 151.992L75.6519 163.192C72.9319 165.059 70.2117 166.927 67.4826 168.794C65.7279 170.001 63.2863 172.664 60.9294 171.703C59.9101 171.285 59.1507 170.447 58.4231 169.632C53.6919 164.354 48.965 159.072 44.2383 153.789C53.8734 148.307 63.1442 141.485 72.1 134.974C104.997 111.071 134.878 83.8768 161.696 53.541C164.418 54.1318 165.465 58.0784 166.639 60.2778Z" fill="#0D9393"/>
<path d="M104.973 98.167C104.358 97.2829 103.739 96.3944 103.119 95.5058C101.853 93.7017 100.578 91.9067 99.2943 90.1208C98.2304 88.6416 97.2952 87.3791 95.2668 87.8124C93.5734 88.1705 91.9618 89.1311 90.5866 90.1533C88.3863 91.7944 86.6823 94.2388 86.3549 97.0034C86.134 98.9009 88.3767 100.901 89.4624 102.276C90.9605 104.183 92.4947 106.053 93.9612 107.982C94.5616 108.771 95.1484 109.565 95.7398 110.363C99.9007 109.464 104.369 106.14 106.832 102.733C106.993 102.514 107.155 102.277 107.212 102.009C107.471 100.896 106.147 99.8358 105.587 99.0329C105.376 98.7534 105.17 98.4602 104.973 98.167Z" fill="#EABE06"/>
<path opacity="0.5" d="M91.6664 90.8118C89.7722 92.1693 88.6151 94.3871 89.4757 95.3962C90.3364 96.4144 92.4939 96.2432 94.5188 94.7895C96.4129 93.432 97.57 91.2141 96.7094 90.205C95.8533 89.1913 93.6957 89.3535 91.6664 90.8118Z" fill="white"/>
<path d="M68.06 119.276C70.0418 116.385 72.9952 114.198 76.3053 112.966L86.3125 105.789L86.5989 104.154C77.0342 102.479 66.9314 106.736 61.4433 114.734C58.6634 118.793 56.9614 123.795 56.3904 129.596C55.2312 141.306 59.4261 152.752 67.3298 159.452C69.4437 161.235 71.7951 162.641 74.2613 163.665C75.8691 173.131 81.765 181.733 89.8635 186.114C92.528 187.558 95.4065 188.519 98.3494 189.022C99.4898 192.142 101.339 194.808 102.952 196.918C104.129 198.455 105.379 199.965 106.593 201.42C110.714 206.385 114.615 211.08 115.588 216.592C116.472 221.62 114.765 227.239 113.267 232.199L118.738 225.461L120.95 234.523C122.63 228.995 124.712 222.117 123.496 215.205C122.153 207.592 117.39 201.852 112.77 196.296C111.557 194.832 110.412 193.453 109.326 192.033C108.634 191.136 107.928 190.162 107.303 189.142C111.969 188.47 116.418 186.648 120.032 183.726C124.083 180.46 127.09 174.672 124.125 169.684C122.098 166.275 117.822 164.613 112.975 165.341C108.218 166.059 103.773 168.819 100.776 172.925C99.0437 175.297 97.9261 177.932 97.4893 180.616C96.1755 180.231 94.9061 179.711 93.6899 179.054C88.6659 176.331 84.7852 171.36 82.9756 165.628C88.9512 165.948 94.8879 164.205 99.3475 160.369C101.636 158.4 103.179 156.202 103.922 153.829C104.882 150.805 104.48 147.493 102.801 144.509C100.997 141.303 97.8717 138.901 94.4501 138.071C88.5564 136.643 81.951 139.267 78.0111 144.596C75.9782 147.337 74.6581 150.745 74.1119 154.518C73.5648 154.15 73.0309 153.742 72.5196 153.32C66.5976 148.3 63.4804 139.508 64.3834 130.381C64.8154 125.937 66.0467 122.199 68.06 119.276ZM107.253 177.654C108.963 175.305 111.548 173.674 114.162 173.286C115.73 173.047 116.998 173.423 117.219 173.793C117.517 174.294 116.697 176.105 114.994 177.479C112.326 179.632 109.007 180.919 105.531 181.314C105.821 180.06 106.405 178.817 107.253 177.654ZM84.4573 149.375C86.4407 146.683 89.8442 145.219 92.5479 145.873C93.8248 146.185 95.0753 147.173 95.7929 148.455C96.1287 149.047 96.6323 150.217 96.2472 151.413C95.9552 152.341 95.2326 153.303 94.0974 154.283C90.8855 157.043 86.3492 158.077 81.8634 157.459C82.0287 154.265 82.9181 151.451 84.4573 149.375Z" fill="#EABE06"/>
<path d="M326.119 204.053C315.006 203.339 303.999 205.058 293.358 206.716C290.541 207.156 287.619 207.61 284.769 208.009C272.746 209.691 258.804 210.763 246.48 205.984C240.02 203.478 234.264 199.432 229.706 194.28C238.732 191.455 245.402 183.82 246.115 175.306C246.55 170.091 244.398 164.697 240.368 160.883C236.767 157.483 232.133 155.891 227.666 156.516C220.499 157.525 214.423 164.054 213.221 172.023C212.505 176.737 213.284 181.742 215.534 186.945C212.214 186.286 209.166 185.14 206.708 184.007C193.603 177.975 181.879 165.985 171.862 148.376C167.438 140.601 163.558 132.282 159.802 124.23C156.19 116.49 152.453 108.483 148.198 100.838C144.807 94.7645 140.503 87.8821 134.223 82.8521C127.116 77.162 118.363 74.8909 110.804 76.7829C101.543 79.0965 94.9334 88.0879 96.059 96.8096L99.5341 96.3604L104.188 93.0219C105.065 89.2324 108.529 85.6312 112.761 84.5682C117.899 83.2804 124.044 84.9825 129.202 89.1143C134.405 93.282 138.176 99.3523 141.185 104.753C145.307 112.14 148.979 120.012 152.532 127.63C156.356 135.823 160.306 144.291 164.891 152.35C175.754 171.44 188.698 184.549 203.355 191.3C209.259 194.015 215.052 195.443 220.468 195.536C226.242 203.586 234.306 209.868 243.582 213.463C257.616 218.908 272.841 217.777 285.875 215.955C288.797 215.546 291.746 215.083 294.595 214.639C305.281 212.971 315.374 211.395 325.601 212.049L313.602 208.788L326.119 204.053ZM221.158 173.231C221.835 168.758 225.116 164.995 228.79 164.471C231.581 164.077 233.78 165.711 234.854 166.723C237.102 168.846 238.346 171.879 238.118 174.643C237.596 180.852 231.836 185.496 226.409 186.877C225.821 187.027 225.237 187.145 224.657 187.24C222.611 183.669 220.383 178.389 221.158 173.231Z" fill="#EABE06"/>
<path d="M138.381 121.574L104.858 145.436L90.5913 120.935L90.0442 120.001L82.2969 106.687L110.361 86.5507L118.093 96.2134L118.758 97.0471L138.381 121.574Z" fill="#FEE24F"/>
<path d="M85.8659 156.73C86.1879 157.308 86.4693 157.9 86.7008 158.497L81.379 162.285L74.1743 149.91C75.2944 149.897 76.4202 150.024 77.5198 150.288C80.937 151.122 84.0627 153.524 85.8659 156.73Z" fill="#EABE06"/>
<path d="M138.38 121.574L104.857 145.436L90.5904 120.935L90.0433 120.001C99.6751 112.373 109.023 104.44 118.092 96.2135L118.757 97.0472L138.38 121.574Z" fill="#EABE06"/>
</svg>
