<svg width="1440" height="438" viewBox="0 0 1440 438" fill="none" xmlns="http://www.w3.org/2000/svg">
<path fill-rule="evenodd" clip-rule="evenodd" d="M-159.299 179.934C-152.525 16.2421 -121.802 299.773 -51.5 135.5C9.91228 -8 1.17841 40.5 171.678 40.5C503.178 40.5 596.952 14.4266 874.5 19C1141.79 23.4043 1081.5 -0.499999 1269 19C1586 -127.5 1444.5 635.5 1477.71 251.112C1427.48 453.346 1959.07 -15.1033 1810 172.73C1689.81 324.17 1712.43 329.602 1501.21 413.008C1275.62 502.085 1076.06 319.328 841.424 312.928C641.798 307.482 363.397 442.616 171.678 417.137C-35.8591 389.555 -165.858 338.416 -159.299 179.934Z" fill="white"/>
</svg>
