<svg width="2030" height="290" viewBox="0 0 2030 290" fill="none" xmlns="http://www.w3.org/2000/svg">
<path fill-rule="evenodd" clip-rule="evenodd" d="M1974.5 288.972C1919.5 288.972 1863.89 288.972 1720.89 288.972C1640.49 288.972 1574.89 288.972 1415.39 288.972C1200.39 288.972 1300.67 288.972 1023.09 288.972C748.502 288.972 777.002 288.965 571.502 288.972C430.502 288.972 414.392 288.972 283.228 288.972C-16 288.972 -32 297 29.8904 249.972C183.831 133.001 153.925 108.897 365.292 25.8671C591.033 -62.8083 755.278 111.913 989.906 118.731C1189.52 124.532 1449.78 -18.1874 1636.65 31.669C1919 107 2136.61 288.973 1974.5 288.972Z" fill="white"/>
</svg>
