<svg width="1440" height="492" viewBox="0 0 1440 492" fill="none" xmlns="http://www.w3.org/2000/svg">
<path fill-rule="evenodd" clip-rule="evenodd" d="M1660.84 253.562C1653.78 417.241 1455.67 105.239 1385.07 269.387C1292.45 484.748 1358.48 97.833 1170.44 289.02C992.771 469.658 971.08 294.095 693.54 289.028C426.259 284.147 430.846 272.59 241.277 157.534C36.6867 784.683 -23.76 370.124 23.961 179.47C74.558 -22.6748 -457.874 444.827 -308.466 257.26C-188.006 106.034 -175.623 108.952 35.7445 25.9224C261.484 -62.753 425.73 111.968 660.358 118.787C859.975 124.588 1115.43 5.90402 1307.1 31.7243C1514.59 59.6749 1667.68 95.0912 1660.84 253.562Z" fill="white"/>
</svg>
