<svg width="34" height="35" viewBox="0 0 34 35" fill="none" xmlns="http://www.w3.org/2000/svg">
<g clip-path="url(#clip0_358_1005)">
<path d="M31.4191 19.4606C31.3233 19.3629 33.5383 17.9364 33.3528 17.6023C33.2585 17.412 32.8818 17.1212 32.2701 16.6881C31.6584 16.255 31.281 16.0104 31.0905 16.0075C30.5635 16.142 32.982 13.8633 32.6577 13.1957C32.4284 12.6721 31.7626 12.4732 30.6655 12.5028L31.0085 11.9416C31.4477 11.1932 31.8943 10.206 31.6562 10.0136C31.4212 9.86745 30.8511 9.76631 29.9911 9.79946C29.1319 9.78639 28.6102 9.82468 28.4656 9.87256C29.6281 8.61501 30.0694 7.72405 29.792 7.29603C29.2765 6.6756 28.178 6.79758 27.6495 7.02841L27.4116 7.07102L27.5129 6.55245C27.7199 5.46914 27.7831 4.38364 26.3928 5.02514C25.4819 5.34261 24.7134 5.75472 24.7141 5.7085L24.8235 4.9088C24.8874 3.77708 24.9961 3.0236 24.8559 2.7826C24.7587 2.78112 22.1103 4.58241 22.1103 4.58241L22.0718 4.29672C21.9409 3.44329 21.828 1.41119 21.1104 1.54282C20.3455 1.72382 19.3291 2.84104 19.1321 3.26184C18.9388 3.44768 16.7532 -0.126208 16.2183 0.524464C15.6849 1.08269 15.3773 2.63836 15.5137 2.87545C14.0177 1.01109 13.17 0.24306 12.9278 0.570706C12.7789 0.899772 12.7222 1.55772 12.6604 2.55078C12.5994 3.49376 12.6374 4.06069 12.731 4.30098C12.3564 3.87148 11.8373 3.48602 11.1751 3.04829C10.5634 2.61518 10.1778 2.65555 10.0314 3.07712C9.67832 4.30076 9.61514 5.38626 9.88778 6.38055C9.83966 6.47613 9.50747 6.32853 8.8438 5.9871C7.23693 5.01873 6.38664 4.67446 6.33182 4.95487C6.22959 5.28465 6.3167 5.94864 6.5395 6.89594C6.763 7.79702 6.99613 8.32068 7.18447 8.4661C5.42513 8.06176 4.47331 8.00105 4.32588 8.23382C4.08368 8.56146 5.04839 10.8415 4.90454 10.8393L4.62073 10.835C3.90754 10.6816 1.57381 10.4573 1.5666 10.9311C1.46079 11.4958 2.06414 12.734 2.06344 12.7802L2.39205 13.1628C2.81327 13.593 3.3754 14.218 3.23155 14.2158C3.04105 14.2129 0.853342 13.8483 0.845429 14.3683C0.836109 14.9807 0.973453 15.4105 1.30423 15.6505C1.58447 15.8898 1.96362 16.2731 2.47668 16.8011L2.52117 16.9443C2.51759 17.1792 2.5592 17.5112 2.41535 17.509C2.32205 17.5076 1.93816 17.6905 1.26441 18.0116C0.641204 18.3335 0.303273 18.5633 0.349224 18.6103L0.392302 18.8459C0.483754 19.2249 0.664939 19.8402 0.902098 19.8438C1.13926 19.8474 1.8065 19.9539 2.80357 20.1078L2.36946 20.525C1.79003 21.0363 1.10983 21.7811 1.29963 21.8302L2.86413 22.5166L3.28892 22.7119L2.89929 23.2723C2.45944 24.067 1.91946 25.0528 2.06043 25.2437C2.29185 25.6248 3.00217 25.9669 3.3387 25.8295L4.67797 25.4723C4.86848 25.4752 4.91443 25.5221 4.81965 25.617C4.62481 25.8991 4.38121 26.3192 4.13543 26.8818C3.88965 27.4444 3.88391 27.8219 4.07225 27.9673C4.44892 28.2582 6.22983 27.245 6.32314 27.2465C6.41498 27.3442 5.89975 30.0255 6.36973 30.3178C6.70121 30.5116 7.94788 30.1068 8.37842 29.9245L8.95497 29.602L8.80251 30.166C8.4947 31.4828 8.43368 32.4258 9.92185 31.7395C10.9307 31.3773 11.264 31.1936 11.6005 31.0562L11.5438 31.718C11.5294 32.6617 11.8021 33.656 12.4231 33.4766C13.0954 33.2519 13.7703 32.5995 14.4555 31.5234L14.5886 32.2344C14.7174 33.2265 15.1278 34.3693 15.6555 34.1885C16.1839 33.9615 16.7224 33.072 17.3651 31.4752L17.9244 32.2851C18.6699 33.3829 19.7009 34.6276 19.8469 34.4873C19.9417 34.3924 20.0482 33.7815 20.21 32.605C20.2595 32.417 20.2617 32.2745 20.2631 32.182L20.4672 31.2874C20.6075 31.5246 20.982 31.9579 21.5916 32.5336C22.2018 33.063 22.5839 33.2576 22.7779 33.0255C23.0714 32.6524 23.1776 31.8026 23.1518 30.4345L23.7606 31.0563C24.6543 31.8713 25.831 32.7406 26.0273 32.366C26.1274 32.1788 26.1331 31.8013 25.9986 31.1867C25.8275 29.9088 25.6456 29.3397 25.5075 28.9601L26.1697 29.3939C27.1144 29.9284 28.5372 30.4702 29.0671 30.1469C29.9809 29.6407 28.5365 27.4458 28.5358 27.4959L29.1984 27.6485C30.1014 27.851 31.0058 27.9611 31.2014 27.6328C31.2502 27.491 31.116 27.1114 30.8369 26.5408C30.5617 25.9702 30.3271 25.5429 30.1409 25.2549C30.0014 24.9677 29.865 24.7306 29.724 24.5397L30.3393 24.7378C31.2402 25.0829 32.1446 25.1891 32.3416 24.7683C32.394 24.3915 31.6025 23.2468 31.228 22.8134L30.7616 22.2862L31.3339 22.2487C32.0966 22.2141 33.1025 22.0406 33.1076 21.7093C33.1126 21.3781 32.4561 20.5667 31.8472 19.9449L31.4191 19.4606Z" fill="#EC6953"/>
<path d="M18.6641 11.8918C18.6641 12.1588 18.6152 12.5136 18.5176 12.9563C18.4264 13.3925 18.3092 13.9068 18.166 14.4993C18.0293 15.0592 17.873 15.759 17.6973 16.5989C17.5215 17.4322 17.3359 18.4641 17.1406 19.6946L16.3887 19.6946C16.1934 18.4511 16.0078 17.4159 15.832 16.5891C15.6563 15.7623 15.5 15.0689 15.3633 14.509C15.2396 13.9947 15.1257 13.4934 15.0215 13.0051C14.9173 12.5103 14.8652 12.1392 14.8652 11.8918C14.8652 11.3905 15.0508 10.9641 15.4219 10.6125C15.793 10.2545 16.2389 10.0754 16.7598 10.0754C17.2741 10.0754 17.7201 10.2545 18.0977 10.6125C18.4753 10.9641 18.6641 11.3905 18.6641 11.8918ZM18.6445 22.6829C18.6445 23.1777 18.4557 23.6041 18.0781 23.9622C17.707 24.3137 17.2708 24.4895 16.7695 24.4895C16.2617 24.4895 15.819 24.3137 15.4414 23.9622C15.0703 23.6041 14.8848 23.1777 14.8848 22.6829C14.8848 22.1881 15.0703 21.7616 15.4414 21.4036C15.819 21.039 16.2617 20.8567 16.7695 20.8567C17.2708 20.8567 17.707 21.039 18.0781 21.4036C18.4557 21.7616 18.6445 22.1881 18.6445 22.6829Z" fill="white"/>
</g>
<defs>
<clipPath id="clip0_358_1005">
<rect width="33" height="34" fill="white" transform="translate(0.628906 0.206299) rotate(0.871853)"/>
</clipPath>
</defs>
</svg>
