<svg width="533" height="404" viewBox="0 0 533 404" fill="none" xmlns="http://www.w3.org/2000/svg">
<g clip-path="url(#clip0_420_2010)">
<path d="M-0.000976562 403.629L-0.000941276 0.000396729C67.8648 37.4227 96.3853 86.3652 204.535 93.0642C352.103 102.192 430.685 191.446 436.716 276.429C441.221 339.781 466.076 384.01 529.771 403.629L-0.000976562 403.629Z" fill="#94C356"/>
</g>
<g clip-path="url(#clip1_420_2010)">
<path d="M-0.000976562 403.629L-0.000957695 187.807C44.5808 157.409 115.607 168.46 157.399 196.881C183.662 214.739 199.371 241.535 221.012 264.06C247.609 291.732 285.257 305.184 323.239 301.221C356.066 297.799 391.439 297.384 420.565 315.179C448.643 332.332 461.12 363.408 486.76 382.909C488.846 384.498 490.985 385.979 493.161 387.36C505.259 395.052 518.648 399.792 532.552 403.629L-0.000976562 403.629Z" fill="#58A333"/>
<g clip-path="url(#clip2_420_2010)">
<path d="M96.0129 224.832C94.834 229.887 97.9541 234.935 102.993 236.098C108.026 237.26 112.018 234.39 114.24 229.054C116.19 224.377 111.324 218.722 106.285 217.559C101.251 216.397 97.1918 219.777 96.0129 224.832Z" fill="white"/>
<path d="M71.7167 199.909C70.5378 204.964 73.6592 210.007 78.6965 211.176C83.74 212.34 88.9972 208.202 90.1811 203.149C91.355 198.092 88.0031 194.029 82.9708 192.862C77.9322 191.698 72.8969 194.85 71.7167 199.909Z" fill="white"/>
<path d="M60.3675 220.886C61.5817 222.706 64.045 223.179 65.8528 221.95C67.6657 220.722 67.9366 218.659 66.9337 216.447C66.0571 214.499 62.9119 214.387 61.0927 215.619C59.2799 216.847 59.1457 219.074 60.3675 220.886Z" fill="white"/>
<path d="M45.6714 221.289C46.8919 223.105 49.3439 223.581 51.1568 222.353C52.9696 221.125 53.2252 218.305 52.0061 216.484C50.7843 214.672 48.5616 214.552 46.7487 215.78C44.9322 217.002 44.4523 219.467 45.6714 221.289Z" fill="white"/>
</g>
</g>
<defs>
<clipPath id="clip0_420_2010">
<rect width="529.772" height="403.629" fill="white" transform="matrix(1 8.74228e-08 8.74228e-08 -1 -0.000976562 403.629)"/>
</clipPath>
<clipPath id="clip1_420_2010">
<rect width="532.553" height="233.978" fill="white" transform="matrix(1 8.74228e-08 8.74228e-08 -1 -0.000976562 403.629)"/>
</clipPath>
<clipPath id="clip2_420_2010">
<rect width="69.6548" height="38.0925" fill="white" transform="matrix(-0.965926 -0.258819 -0.258819 0.965926 121.245 203.111)"/>
</clipPath>
</defs>
</svg>
