<svg width="256" height="324" viewBox="0 0 256 324" fill="none" xmlns="http://www.w3.org/2000/svg">
<g clip-path="url(#clip0_311_3018)">
<path d="M255.755 1.52588e-05V219.725C197.703 217.997 150.543 171.084 149.213 112.357C148.639 86.9388 155.021 66.6275 169.092 47.6809L183.057 52.9693L173.729 40.6759C177.792 35.6754 185.769 28.2333 191.619 22.9875L212.902 37.8398L199.479 17.4539C216.189 6.03476 234.111 0.629074 255.755 1.52588e-05Z" fill="#AED7E6"/>
<path d="M255.755 156.456C216.816 194.807 174.155 232.327 92.8633 254.238C114.848 168.738 197.31 121.889 255.755 95.1592V156.456Z" fill="#FCC200"/>
<path d="M255.51 74.1443C253.702 75.2105 235.334 80.4243 212.094 87.0241C160.009 101.812 72.825 126.559 49.7979 139.236L50.2658 140.089C73.1972 127.465 160.317 102.729 212.36 87.9624C237.493 80.8294 254.096 76.1168 256.01 74.9866L255.51 74.1443Z" fill="#15466B"/>
<path d="M91.9277 123.126C81.6958 126.932 63.5613 118.914 57.5625 110.012C70.4322 111.355 91.7894 105.096 98.7667 120.663C98.671 121.548 98.1498 121.974 97.2032 121.953" fill="#15466B"/>
<path d="M183.536 95.5751C175.751 101.205 167.667 113.434 165.923 124.491C176.495 124.597 204.776 102.004 195.906 92.6217" fill="#15466B"/>
<path d="M38.7046 151.21C43.0335 154.601 49.2769 153.854 52.6805 149.525C56.0734 145.197 55.1055 140.079 50.9787 135.547C47.373 131.581 39.747 133.745 36.3541 138.074C32.9612 142.392 34.3758 147.809 38.7046 151.21Z" fill="#EC6953"/>
<path d="M3.8185 163.461C8.14739 166.862 14.3908 166.094 17.7837 161.776C21.1766 157.447 19.5812 150.538 15.2523 147.137C10.9234 143.746 5.52027 145.154 2.12736 149.483C-1.26555 153.801 -0.510388 160.059 3.8185 163.461Z" fill="#EC6953"/>
<path d="M59.3703 170.295C58.6365 172.246 59.6256 174.432 61.572 175.168C63.5291 175.903 65.2734 174.986 66.4433 172.971C67.4644 171.212 65.8158 168.685 63.8588 167.949C61.9124 167.214 60.1149 168.344 59.3703 170.295Z" fill="#EC6953"/>
<path d="M50.9683 159.025C50.2344 160.976 51.2129 163.162 53.1699 163.898C55.127 164.634 57.4456 163.279 58.1795 161.318C58.9241 159.366 57.786 157.554 55.8396 156.818C53.8826 156.093 51.7022 157.074 50.9683 159.025Z" fill="#EC6953"/>
<path d="M255.755 115.14C234.526 129.321 150.139 204.371 129.888 223.968C166.667 201.748 219.582 152.447 255.681 128.521L255.755 115.14Z" fill="#B87E15"/>
</g>
<defs>
<clipPath id="clip0_311_3018">
<rect width="256" height="324" fill="white" transform="matrix(1 0 0 -1 0 324)"/>
</clipPath>
</defs>
</svg>
