<svg width="236" height="77" viewBox="0 0 236 77" fill="none" xmlns="http://www.w3.org/2000/svg">
<path d="M163.038 55.3774V61.6379H161.924V56.599H159.139V61.6379H158.025V55.3774H163.038Z" fill="#2780BF"/>
<path d="M168.759 61.587L168.253 60.3145H165.671L165.165 61.587H163.949L166.38 55.3265H167.494L169.924 61.587H168.759ZM167.797 59.093L166.987 57.0061L166.177 59.093H167.797Z" fill="#2780BF"/>
<path d="M172.608 55.3774C172.911 55.3774 173.165 55.4283 173.418 55.5301C173.671 55.6319 173.873 55.7337 174.076 55.9373C174.278 56.1409 174.43 56.2936 174.532 56.5481C174.633 56.8026 174.684 57.0571 174.684 57.3624C174.684 57.6678 174.633 57.9223 174.532 58.1259C174.43 58.3804 174.278 58.584 174.127 58.7367C173.975 58.8894 173.721 59.0421 173.468 59.1439C173.215 59.2457 172.962 59.2966 172.658 59.2966H172V61.6379H170.886V55.3774H172.608ZM171.949 58.0241H172.759C172.962 58.0241 173.114 57.9732 173.266 57.8205C173.418 57.6678 173.468 57.5151 173.468 57.3115C173.468 57.1079 173.418 56.9553 173.266 56.8026C173.114 56.6499 172.962 56.599 172.759 56.599H171.949V58.0241Z" fill="#2780BF"/>
<path d="M176.81 55.3774V57.7696L178.937 55.3774H180.405L177.772 58.3295L180.759 61.6379H179.19L176.861 59.0421V61.6379H175.696V55.3774H176.81Z" fill="#2780BF"/>
<path d="M184.81 57.0571C184.81 57.4133 184.911 57.6169 185.063 57.7696C185.215 57.9223 185.468 57.9732 185.772 57.9732C185.924 57.9732 186.076 57.9732 186.177 57.9223C186.278 57.9223 186.38 57.8714 186.532 57.8714V55.3774H187.646V61.6379H186.532V59.1439C186.38 59.1948 186.278 59.1948 186.127 59.1948C185.975 59.1948 185.823 59.2457 185.62 59.2457C185.367 59.2457 185.114 59.1948 184.861 59.1439C184.608 59.093 184.405 58.9912 184.253 58.8385C184.101 58.6858 183.949 58.5331 183.848 58.2786C183.747 58.075 183.696 57.7696 183.696 57.4642V55.3774H184.81V57.0571Z" fill="#2780BF"/>
<path d="M189.873 55.3774L191.139 58.1768L192.253 55.3774H193.468L190.987 61.6379H189.772L190.582 59.602L188.709 55.3774H189.873Z" fill="#2780BF"/>
<path d="M199.392 60.3654V62.9612H198.329V61.6379H194.38V62.9612H193.316V60.3654H193.823C194.177 59.7038 194.481 59.0421 194.684 58.2786C194.886 57.566 194.987 56.7517 194.987 55.8355V55.3265H198.633V60.3654H199.392ZM197.468 56.599H196.051C196 57.3115 195.899 57.9732 195.747 58.584C195.595 59.1948 195.342 59.8056 195.089 60.3654H197.468V56.599Z" fill="#2780BF"/>
<path d="M204.051 56.599H201.772V57.7696H203.797V58.9912H201.772V60.3654H204.051V61.587H200.608V55.3265H204.051V56.599Z" fill="#2780BF"/>
<path d="M210.43 60.6199C210.329 60.7726 210.228 60.9253 210.076 61.078C209.924 61.2307 209.772 61.3325 209.57 61.4343C209.367 61.5361 209.164 61.6379 208.911 61.6888C208.658 61.7397 208.405 61.7906 208.101 61.7906C207.696 61.7906 207.291 61.6888 206.886 61.5361C206.481 61.3834 206.177 61.1798 205.873 60.8744C205.57 60.569 205.367 60.2636 205.165 59.8564C205.013 59.4493 204.911 58.9912 204.911 58.5331C204.911 58.075 205.013 57.6169 205.165 57.2097C205.316 56.8026 205.57 56.4463 205.873 56.1918C206.177 55.8864 206.481 55.6828 206.886 55.5301C207.291 55.3774 207.646 55.2756 208.101 55.2756C208.354 55.2756 208.658 55.3265 208.861 55.3774C209.114 55.4283 209.316 55.5301 209.519 55.6319C209.721 55.7337 209.873 55.8355 210.025 55.9882C210.177 56.1409 210.278 56.2427 210.38 56.3954L210.025 57.4133C209.924 57.3115 209.823 57.2097 209.721 57.057C209.62 56.9552 209.468 56.8535 209.316 56.8026C209.164 56.7008 208.962 56.6499 208.81 56.599C208.608 56.5481 208.405 56.4972 208.202 56.4972C207.899 56.4972 207.646 56.5481 207.342 56.6499C207.089 56.7517 206.886 56.8534 206.683 57.057C206.481 57.2097 206.329 57.4642 206.228 57.6678C206.127 57.9223 206.076 58.1768 206.076 58.4822C206.076 58.7876 206.127 59.0421 206.228 59.2966C206.329 59.5511 206.481 59.7546 206.683 59.9073C206.886 60.06 207.089 60.2127 207.342 60.3145C207.595 60.4163 207.899 60.4672 208.202 60.4672C208.405 60.4672 208.658 60.4163 208.81 60.3654C209.013 60.3145 209.215 60.2636 209.367 60.1618C209.519 60.06 209.671 59.9582 209.823 59.8564C209.924 59.7546 210.025 59.6529 210.127 59.5002L210.481 60.5181L210.43 60.6199Z" fill="#2780BF"/>
<path d="M162.076 73.0391V68.8146L159.139 73.0391H157.975V66.7786H159.089V71.0032L162.025 66.7786H163.139V73.0391H162.076Z" fill="#2780BF"/>
<path d="M172.253 66.7786V73.0391H171.139V68.0002H168.354V73.0391H167.24V66.7786H172.253Z" fill="#2780BF"/>
<path d="M175.595 66.7786C175.899 66.7786 176.152 66.8295 176.405 66.9313C176.658 67.0331 176.861 67.1349 177.063 67.3385C177.266 67.5421 177.418 67.6948 177.519 67.9493C177.62 68.2038 177.671 68.4583 177.671 68.7637C177.671 69.0691 177.62 69.3236 177.519 69.5271C177.418 69.7816 177.266 69.9852 177.114 70.1379C176.962 70.2906 176.709 70.4433 176.456 70.5451C176.202 70.6469 175.949 70.6978 175.646 70.6978H174.987V73.0391H173.873V66.7786H175.595ZM174.937 69.4762H175.747C175.949 69.4762 176.101 69.4253 176.253 69.2726C176.405 69.12 176.456 68.9673 176.456 68.7637C176.456 68.5601 176.405 68.4074 176.253 68.2547C176.101 68.102 175.949 68.0511 175.747 68.0511H174.937V69.4762Z" fill="#2780BF"/>
<path d="M182.734 73.0391V68.8146L179.797 73.0391H178.633V66.7786H179.747V71.0032L182.684 66.7786H183.797V73.0391H182.734Z" fill="#2780BF"/>
<path d="M186.582 66.7786V69.1709L188.709 66.7786H190.177L187.544 69.7307L190.532 73.0391H188.962L186.633 70.4433V73.0391H185.519V66.7786H186.582Z" fill="#2780BF"/>
<path d="M196.152 73.0391H195.038V68.0002H193.367V68.5092C193.316 69.2217 193.266 69.8834 193.215 70.4433C193.114 71.0032 193.013 71.4613 192.861 71.8685C192.709 72.2757 192.506 72.5301 192.253 72.7337C192 72.9373 191.747 73.0391 191.443 73.0391C191.342 73.0391 191.24 73.0391 191.19 72.9882C191.089 72.9882 191.038 72.9373 190.987 72.9373L190.785 71.9194C190.937 71.9194 191.089 71.8685 191.24 71.8176C191.392 71.7667 191.494 71.6649 191.646 71.5631C191.747 71.4104 191.848 71.2577 191.949 71.0541C192.051 70.8505 192.101 70.5451 192.152 70.2397C192.202 69.8834 192.253 69.4762 192.304 69.0182C192.354 68.5601 192.354 67.9493 192.354 67.3385V66.8295H196.253L196.152 73.0391Z" fill="#2780BF"/>
<path d="M202.937 66.6768C203.392 66.6768 203.797 66.7786 204.152 66.9313C204.557 67.084 204.861 67.3385 205.165 67.593C205.468 67.8984 205.671 68.2038 205.873 68.611C206.076 69.0182 206.127 69.4254 206.127 69.9343C206.127 70.3924 206.025 70.7996 205.873 71.2068C205.721 71.614 205.468 71.9194 205.165 72.2248C204.861 72.5301 204.557 72.7337 204.152 72.8864C203.747 73.0391 203.342 73.1409 202.937 73.1409C202.532 73.1409 202.177 73.09 201.823 72.9373C201.468 72.7846 201.165 72.6319 200.861 72.3775C200.557 72.123 200.354 71.8685 200.152 71.5122C199.949 71.2068 199.848 70.7996 199.747 70.4433H198.835V73.0391H197.721V66.7786H198.835V69.2217H199.747C199.848 68.8655 199.949 68.5092 200.152 68.2038C200.354 67.8984 200.608 67.6439 200.861 67.3894C201.114 67.1858 201.468 66.9822 201.772 66.8804C202.228 66.7277 202.582 66.6768 202.937 66.6768ZM202.937 67.9493C202.633 67.9493 202.38 68.0002 202.127 68.102C201.873 68.2038 201.671 68.3565 201.468 68.5092C201.266 68.6619 201.114 68.9164 201.013 69.12C200.911 69.3744 200.861 69.6289 200.861 69.9343C200.861 70.2397 200.911 70.4942 201.013 70.7487C201.114 71.0032 201.266 71.2068 201.468 71.3595C201.671 71.5122 201.873 71.6649 202.127 71.7667C202.38 71.8685 202.633 71.9194 202.937 71.9194C203.24 71.9194 203.494 71.8685 203.747 71.7667C204 71.6649 204.203 71.5122 204.405 71.3595C204.608 71.2068 204.759 70.9523 204.861 70.7487C204.962 70.4942 205.013 70.2397 205.013 69.9343C205.013 69.6289 204.962 69.3744 204.861 69.12C204.759 68.8655 204.608 68.6619 204.456 68.5092C204.304 68.3565 204.051 68.2038 203.797 68.102C203.544 68.0002 203.24 67.8984 202.937 67.9493Z" fill="#2780BF"/>
<path d="M208.152 68.5092C208.152 68.8655 208.253 69.0691 208.405 69.2217C208.557 69.3744 208.81 69.4253 209.114 69.4253C209.266 69.4253 209.418 69.4253 209.519 69.3744C209.62 69.3744 209.721 69.3235 209.873 69.3235V66.8295H210.987V73.09H209.873V70.596C209.721 70.6469 209.62 70.6469 209.468 70.6469C209.316 70.6469 209.165 70.6978 208.962 70.6978C208.709 70.6978 208.456 70.6469 208.202 70.596C207.949 70.5451 207.747 70.4433 207.595 70.2906C207.443 70.1379 207.291 69.9852 207.19 69.7307C207.089 69.5271 207.038 69.2218 207.038 68.9164V66.8295H208.152V68.5092Z" fill="#2780BF"/>
<path d="M215.949 68.0002H213.671V69.1709H215.696V70.3924H213.671V71.7667H215.949V72.9882H212.506V66.7277H215.949V68.0002Z" fill="#2780BF"/>
<path d="M218.43 66.7786V69.2217H221.316V66.7786H222.43V73.0391H221.316V70.4433H218.43V73.0391H217.316V66.7786H218.43Z" fill="#2780BF"/>
<path d="M228.101 73.0391V68.8146L225.165 73.0391H224V66.7786H225.114V71.0032L228.051 66.7786H229.165V73.0391H228.101Z" fill="#2780BF"/>
<path d="M234.835 73.0391V68.8146L231.899 73.0391H230.734V66.7786H231.848V71.0032L234.785 66.7786H235.899V73.0391H234.835ZM234.835 65.1499C234.835 65.3535 234.785 65.5062 234.734 65.6589C234.633 65.8116 234.532 65.9643 234.43 66.0661C234.278 66.1679 234.127 66.2696 233.975 66.3205C233.772 66.3714 233.62 66.4223 233.418 66.4223C233.215 66.4223 233.013 66.3714 232.861 66.3205C232.658 66.2696 232.506 66.1679 232.405 66.0661C232.253 65.9643 232.152 65.8116 232.101 65.6589C232 65.5062 232 65.3026 232 65.099L232.81 64.9463C232.81 65.099 232.861 65.2517 233.013 65.3535C233.114 65.4553 233.266 65.5062 233.468 65.5062C233.671 65.5062 233.823 65.4553 233.924 65.3535C234.025 65.2517 234.076 65.099 234.127 64.9463L234.835 65.1499Z" fill="#2780BF"/>
<path d="M53.6709 35.6288L52.2025 0H33.2658L24.8608 35.6288H20.8101V49.4223H28.2025V43.5181H49.8228V49.4223H57.2152V35.6288H53.6709ZM32.2025 35.6288L38.9367 8.55092H45.4177L46.0759 35.6288H32.2025Z" fill="#2780BF"/>
<path d="M68.405 0H61.3164V43.5181H68.405V30.539C76.8607 30.539 82.8861 24.2276 82.8861 15.2695C82.8861 6.3114 76.8607 0 68.405 0ZM68.405 21.7845V8.55092C72.405 8.55092 75.4936 10.5869 75.4936 15.1677C75.4936 19.7486 72.405 21.7845 68.405 21.7845Z" fill="#2780BF"/>
<path d="M94.1772 27.5869V0H87.2405V43.5181H94.6329L104.405 17.7635L103.443 43.5181H110.582L111.544 0.0508995H104.051L94.1772 27.5869Z" fill="#2780BF"/>
<path d="M177.013 19.4432C178.683 17.6108 179.646 15.1677 179.646 12.2665C179.646 5.59882 174.734 0 166.835 0H160.051V43.5181H166.785C175.443 43.5181 182.329 39.4971 182.329 29.3175C182.228 24.6857 180.101 21.3773 177.013 19.4432ZM167.038 8.04194C171.089 8.04194 172.557 10.1797 172.557 12.4701C172.557 14.7605 171.038 16.9492 167.089 16.9492V8.04194H167.038ZM167.038 35.4762V23.4641C171.848 23.4641 174.987 25.2456 174.987 29.4701C174.987 33.6947 171.747 35.4762 167.038 35.4762Z" fill="#2780BF"/>
<path d="M200.557 0.0509075L194.835 16.2366L188.506 0.0509075H180.253L191.24 26.4671L185.215 43.569H193.215L208.557 0.0509075H200.557Z" fill="#2780BF"/>
<path d="M231.949 35.6288L228.608 0H212.456C212.456 0 208.709 27.0779 205.215 35.6288H200.911V49.4732H208.304V43.5181H228.608V49.4732H236V35.6288H231.949ZM213.266 35.6288C215.797 27.536 217.62 17.2545 218.532 8.55092H222.278L224.405 35.6288H213.266Z" fill="#2780BF"/>
<path d="M134.38 27.4851L125.975 0H118.937L117.418 43.5181H124.354L124.962 19.4432L130.43 36.1887H137.519L146.228 17.0509V43.5181H153.165V0H146.127L134.38 27.4851Z" fill="#2780BF"/>
<path d="M18.9873 4.17367C14.8354 8.34733 14.8354 15.1168 18.9873 19.2396C16.9114 17.1527 14.1772 16.1348 11.4937 16.1348C8.75949 16.1348 6.07595 17.1527 4 19.2396C8.1519 15.0659 8.1519 8.29644 4 4.17367C6.07595 6.2605 8.81012 7.27847 11.4937 7.27847C14.2278 7.27847 16.9114 6.2605 18.9873 4.17367ZM15.3418 0.152696L15.1899 0.305395C14.2278 1.27246 12.9114 1.83235 11.4937 1.83235C10.1266 1.83235 8.81012 1.27246 7.79747 0.305395L7.64557 0.152696L0 7.88925L0.151899 8.04194C2.17721 10.0779 2.17721 13.3863 0.151899 15.4222L0 15.5749L7.64557 23.2605L7.79747 23.1078C8.75949 22.1408 10.0759 21.5809 11.4937 21.5809C12.8608 21.5809 14.1772 22.1408 15.1899 23.1078L15.3418 23.2605L22.9873 15.5749L22.8354 15.4222C20.8101 13.3863 20.8101 10.0779 22.8354 8.04194L22.9873 7.88925L15.3418 0.152696Z" fill="#2780BF"/>
<path d="M146.629 51.3605L138.502 59.5302L142.333 63.3812L150.46 55.2114L146.629 51.3605Z" fill="#2780BF"/>
<path d="M128.773 51.3845L124.942 55.2355L133.069 63.4053L136.9 59.5543L128.773 51.3845Z" fill="#2780BF"/>
<path d="M133.057 64.9793L124.93 73.149L128.761 77L136.888 68.8302L133.057 64.9793Z" fill="#2780BF"/>
<path d="M142.321 64.9552L138.49 68.8062L146.617 76.976L150.448 73.125L142.321 64.9552Z" fill="#2780BF"/>
</svg>
