<svg width="22" height="18" viewBox="0 0 22 18" fill="none" xmlns="http://www.w3.org/2000/svg">
<path d="M19.0398 11.4494C18.9305 10.7256 18.3658 10.1607 17.6463 9.993C14.8229 9.33984 14.1125 7.72459 13.9941 5.94165C13.4932 5.85338 12.6007 5.74747 11.0888 5.74747C9.57691 5.74747 8.67525 5.84456 8.17433 5.93282C8.05593 7.72459 7.34554 9.33101 4.52216 9.98417C3.79355 10.1519 3.22887 10.7168 3.12869 11.4405L2.58223 15.1741C2.39097 16.4981 3.36549 17.6897 4.72253 17.6897H17.4459C18.803 17.6897 19.7775 16.4981 19.5862 15.183L19.0398 11.4494ZM11.0797 14.9623C9.54959 14.9623 8.31095 13.7442 8.31095 12.2437C8.31095 10.7432 9.54959 9.52519 11.0797 9.52519C12.6098 9.52519 13.8484 10.7432 13.8484 12.2437C13.8484 13.7442 12.6098 14.9623 11.0797 14.9623ZM21.9906 4.65298C21.9633 3.02891 17.7829 0.310364 11.0797 0.310364C4.38555 0.310364 0.196024 3.02891 0.168701 4.65298C0.141378 6.28588 0.196024 8.40423 2.94654 8.05117C6.17975 7.63633 5.97939 6.5242 5.97939 4.92661C5.97939 3.81447 8.60239 3.54968 11.0797 3.54968C13.557 3.54968 16.18 3.81447 16.1891 4.92661C16.1891 6.5242 15.9887 7.63633 19.2128 8.05117C21.9724 8.40423 22.018 6.28588 21.9906 4.65298Z" fill="#134B6D"/>
</svg>
