<svg width="120" height="124" viewBox="0 0 120 124" fill="none" xmlns="http://www.w3.org/2000/svg">
<g clip-path="url(#clip0_354_644)">
<path d="M70.5487 20.2715C66.2987 18.391 59.7387 17.7641 55.6887 17.8935C29.1287 18.7392 13.3987 37.6442 15.6387 62.9968C18.1887 91.8817 40.3487 107.523 69.3787 107.185C69.6887 107.185 69.9887 107.105 70.2687 106.986C83.4387 106.08 95.3187 100.23 104.149 91.3046C113.819 81.5337 119.819 68.1012 119.819 53.5344C119.819 38.9875 113.889 25.8236 104.309 16.2915C94.7287 6.74947 81.4987 0.859065 66.8787 0.859065C66.8687 0.859065 66.8487 0.859065 66.8387 0.859065C63.6687 0.689915 60.4887 0.530715 56.9387 0.699865C42.5487 1.41627 26.5987 8.51062 16.0987 19.3561C7.46873 28.2713 1.96873 40.2511 0.448729 52.6488C-1.80127 70.9767 4.62873 88.3892 14.8387 101.344C32.9287 124.309 69.3087 127.99 89.4587 117.951C65.6787 116.995 42.1587 123.085 21.0587 96.2995C15.3287 89.026 10.4487 79.7029 9.31873 69.9519C7.45873 53.8926 11.2187 37.3358 22.5987 25.5848C29.1587 18.8089 38.5587 13.7841 47.1087 11.3762C54.4287 9.30662 59.6187 9.48572 66.6487 9.84392C66.6587 9.84392 66.6687 9.84392 66.6887 9.84392C66.7587 9.84392 66.8187 9.86382 66.8787 9.86382C78.9987 9.86382 89.9687 14.7493 97.9187 22.6595C105.859 30.5598 110.769 41.4849 110.769 53.5443C110.769 65.6833 105.769 76.8771 97.7087 85.0162C90.0387 92.7672 79.5887 97.7223 68.0687 98.0905C45.3087 97.1552 25.7787 89.6429 23.2787 61.3252C21.3787 39.8332 37.3187 24.4804 58.8187 23.6048C62.3287 23.4655 65.8687 23.6744 69.3187 24.2814C70.1487 24.4306 70.9787 24.1023 71.4587 23.4157C72.2187 22.3212 71.7787 20.8088 70.5487 20.2715Z" fill="white"/>
<path d="M48.8789 41.7933V76.1606C48.8789 79.0262 51.9989 80.8172 54.4889 79.3844L84.3989 62.2007C86.8889 60.7679 86.8889 57.1859 84.3989 55.7531L54.4889 38.5695C51.9989 37.1367 48.8789 38.9277 48.8789 41.7933ZM55.8489 49.4249C55.8489 48.4996 56.8589 47.9225 57.6589 48.3802L74.2789 57.9222C75.0889 58.3899 75.0889 59.5441 74.2789 60.0018L57.6589 69.5438C56.8489 70.0115 55.8489 69.4244 55.8489 68.4991V49.4249Z" fill="white"/>
</g>
<defs>
<clipPath id="clip0_354_644">
<rect x="-0.000976562" y="0.630127" width="119.82" height="122.574" rx="10" fill="white"/>
</clipPath>
</defs>
</svg>
