<svg width="199" height="203" viewBox="0 0 199 203" fill="none" xmlns="http://www.w3.org/2000/svg">
<g clip-path="url(#clip0_420_3096)">
<path d="M184.657 161.011C187.172 158.17 188.464 154.526 188.243 150.727C188.039 146.946 186.424 143.472 183.552 140.871C180.731 138.339 177.112 137.056 173.39 137.261L139.3 138.852C139.045 138.835 138.824 138.818 138.637 138.784C138.875 138.493 139.283 138.117 139.895 137.74L191.081 106.445C194.717 104.34 197.318 100.97 198.422 96.9485C199.544 92.8933 199.017 88.6328 196.944 84.954C196.502 84.1669 195.975 83.397 195.397 82.6954C193.341 80.1802 190.605 78.3836 187.495 77.528C183.484 76.3987 179.304 76.912 175.684 78.9653L130.599 102.612C126.962 104.494 124.906 105.162 123.767 105.35C124.362 104.409 125.722 102.732 128.849 100.011L175.701 59.6475C182.397 54.1036 183.365 44.1453 177.876 37.4208C172.387 30.6964 162.497 29.721 155.903 35.1964L105.312 75.817C104.36 76.5869 103.596 77.1516 102.984 77.5794C103.562 76.2789 104.581 74.3112 106.349 71.4024L134.763 24.605C137.091 21.0973 137.94 16.9223 137.159 12.8158C136.394 8.74346 134.083 5.13313 130.565 2.72054C127.098 0.359275 122.935 -0.513365 118.822 0.273722C114.727 1.06081 111.192 3.38785 108.83 6.8613L83.7805 42.3829C71.7488 59.4592 55.2646 82.8323 47.9062 79.838C47.9062 79.838 47.3963 79.6155 46.4956 78.5204C43.1988 74.4823 39.5621 64.7293 36.7581 52.461C33.8011 39.4399 32.5266 33.8618 32.1867 32.3732L32.1017 32.031C32.0167 31.6545 31.8808 31.2781 31.7278 30.9359C31.1331 29.1564 30.2324 27.5138 29.0428 26.0594C26.3237 22.7228 22.2962 20.7038 18.0137 20.5327C13.9691 20.3787 10.1114 21.7988 7.13749 24.5708C4.16354 27.3427 2.43015 31.107 2.2772 35.2135L0.10197 108.515C-0.560797 130.502 1.42751 154.047 20.4268 177.3C29.1787 188.028 38.9673 198.774 53.6161 202.008C69.2336 205.464 87.7061 199.971 111.77 184.726C124.855 176.444 148.562 169.942 165.063 167.393L165.522 167.324C170.042 166.64 173.356 166.127 175.208 165.699C178.862 165.425 182.21 163.765 184.657 161.011Z" fill="#F5F5F5"/>
<path d="M175.174 159.402L174.987 159.419L174.801 159.454C173.135 159.864 169.447 160.429 164.791 161.13C147.304 163.817 122.918 170.644 109.289 179.285C60.1589 210.409 42.808 194.274 25.508 173.091C7.7323 151.343 5.86296 129.048 6.49174 108.207L8.68396 34.9056C8.88789 29.7211 13.2384 25.6659 18.4045 25.8712C21.1066 25.9739 23.5367 27.2572 25.1852 29.2762C26.0179 30.3029 26.6466 31.5177 27.0205 32.8694L27.0715 32.8523C27.2244 33.5196 28.448 38.8068 31.7279 53.2653C33.3083 60.2464 37.1829 75.047 42.638 81.7373C43.8106 83.1746 45.0512 84.2183 46.3597 84.7487C57.1679 89.1633 69.7265 72.7884 89.1167 45.2575L114.2 9.7017C115.678 7.49444 117.922 6.00582 120.505 5.52672C123.105 5.03051 125.722 5.57805 127.914 7.06667C128.713 7.61421 129.41 8.26441 130.021 8.98306C131.058 10.2492 131.772 11.7721 132.078 13.4147C132.57 16.0326 132.044 18.6676 130.497 20.9434L101.998 67.8606C97.0019 76.125 95.9313 79.7867 98.0215 82.3361C98.2085 82.5586 98.4124 82.781 98.6503 82.9864C101.403 85.4674 104.581 83.8248 109.51 79.8893L160.118 39.2688C164.315 35.7953 170.552 36.4113 174.019 40.6376C177.486 44.8811 176.874 51.1607 172.642 54.6512L125.688 95.1006C120.997 99.1901 116.511 103.93 118.72 108.105C118.89 108.43 119.094 108.721 119.298 108.977C122.68 113.118 130.735 108.926 133.879 107.3L179.049 83.5681C181.343 82.2506 183.994 81.9255 186.543 82.627C188.532 83.1746 190.248 84.321 191.523 85.878C191.897 86.3229 192.219 86.802 192.508 87.3153C193.8 89.6253 194.14 92.3116 193.426 94.8782C192.729 97.4277 191.081 99.5665 188.719 100.901L137.499 132.248C134.219 134.25 132.57 137.312 133.301 140.033C133.488 140.735 133.811 141.351 134.253 141.881C135.408 143.284 137.397 144.122 139.963 144.174L174.274 142.565C176.5 142.446 178.658 143.199 180.307 144.704C180.629 144.995 180.918 145.303 181.19 145.628C182.312 147.014 182.975 148.708 183.077 150.522C183.196 152.78 182.448 154.936 180.952 156.613C179.457 158.29 177.401 159.282 175.174 159.402Z" fill="#673F60"/>
</g>
<defs>
<clipPath id="clip0_420_3096">
<rect width="199" height="203" fill="white"/>
</clipPath>
</defs>
</svg>
