<svg width="545" height="689" viewBox="0 0 545 689" fill="none" xmlns="http://www.w3.org/2000/svg">
<g clip-path="url(#clip0_398_113)">
<path d="M544.479 689V221.746C420.892 225.419 320.492 325.182 317.662 450.067C316.439 504.121 330.025 547.314 359.982 587.604L389.712 576.358L369.854 602.501C378.504 613.135 395.486 628.961 407.94 640.116L453.249 608.532L424.673 651.884C460.246 676.167 498.4 687.662 544.479 689Z" fill="#AED7E6"/>
<path d="M544.479 356.291C461.583 274.734 370.76 194.946 197.698 148.353C244.502 330.171 420.055 429.798 544.479 486.64V356.291Z" fill="#FFE596"/>
<path d="M543.958 531.329C540.109 529.061 501.004 517.974 451.529 503.939C340.645 472.491 155.038 419.866 106.016 392.908L107.012 391.094C155.831 417.939 341.301 470.541 452.095 501.944C505.601 517.113 540.947 527.134 545.023 529.538L543.958 531.329Z" fill="#15466B"/>
<path d="M195.705 427.167C173.922 419.072 135.316 436.123 122.545 455.055C149.943 452.198 195.411 465.507 210.265 432.404C210.061 430.522 208.951 429.615 206.936 429.661" fill="#15466B"/>
<path d="M390.732 485.755C374.157 473.783 356.948 447.777 353.234 424.264C375.742 424.038 435.95 472.083 417.066 492.035" fill="#15466B"/>
<path d="M82.3982 367.445C91.614 360.235 104.906 361.822 112.151 371.028C119.375 380.233 117.314 391.116 108.528 400.753C100.852 409.187 84.6172 404.584 77.394 395.379C70.1709 386.196 73.1824 374.678 82.3982 367.445Z" fill="#EC6953"/>
<path d="M8.1286 341.393C17.3444 334.161 30.636 335.793 37.8592 344.976C45.0824 354.181 41.6859 368.874 32.4701 376.106C23.2543 383.317 11.7515 380.324 4.52833 371.118C-2.69487 361.935 -1.0872 348.626 8.1286 341.393Z" fill="#EC6953"/>
<path d="M126.394 326.86C124.832 322.711 126.937 318.062 131.081 316.498C135.248 314.934 138.961 316.883 141.452 321.169C143.626 324.91 140.116 330.283 135.949 331.848C131.806 333.412 127.979 331.009 126.394 326.86Z" fill="#EC6953"/>
<path d="M108.506 350.825C106.944 346.676 109.027 342.028 113.193 340.463C117.36 338.899 122.296 341.778 123.858 345.95C125.443 350.1 123.02 353.954 118.877 355.519C114.71 357.06 110.068 354.974 108.506 350.825Z" fill="#EC6953"/>
<path d="M544.48 444.149C499.284 413.994 319.632 254.395 276.52 212.722C354.82 259.973 467.47 364.815 544.321 415.694L544.48 444.149Z" fill="#B87E15"/>
</g>
<defs>
<clipPath id="clip0_398_113">
<rect width="545" height="689" fill="white"/>
</clipPath>
</defs>
</svg>
