<svg width="34" height="35" viewBox="0 0 34 35" fill="none" xmlns="http://www.w3.org/2000/svg">
<g clip-path="url(#clip0_395_55)">
<path d="M31.7935 18.8027C31.6952 18.7074 33.8727 17.2244 33.6787 16.8951C33.5795 16.7074 33.1955 16.4264 32.5728 16.0092C31.9502 15.592 31.5666 15.3571 31.3761 15.3592C30.8527 15.5072 33.2117 13.167 32.8703 12.508C32.6277 11.9905 31.9569 11.8088 30.861 11.8665L31.1894 11.2968C31.6091 10.5373 32.0302 9.53888 31.7872 9.35267C31.5485 9.21265 30.976 9.12623 30.1172 9.18151C29.2579 9.19057 28.7374 9.24229 28.5941 9.29388C29.7237 8.0068 30.1419 7.10477 29.8536 6.68404C29.3223 6.0771 28.2273 6.22733 27.7049 6.47169L27.4683 6.52041L27.5561 5.9994C27.7352 4.91112 27.7704 3.82435 26.3971 4.50146C25.4946 4.84228 24.7371 5.27404 24.7366 5.22782L24.8253 4.42557C24.86 3.29258 24.9493 2.53655 24.8029 2.29924C24.7057 2.30027 22.1045 4.16917 22.1045 4.16917L22.0588 3.88457C21.9059 3.03479 21.7407 1.00628 21.0268 1.15635C20.2667 1.35698 19.2794 2.50002 19.0934 2.92575C18.9049 3.11651 16.628 -0.399904 16.1101 0.264329C15.5911 0.836113 15.3238 2.39918 15.4662 2.63268C13.9227 0.807474 13.0554 0.0615339 12.8218 0.39531C12.6814 0.728102 12.6417 1.38729 12.6055 2.38161C12.5688 3.32585 12.6214 3.89161 12.7211 4.12941C12.3356 3.70971 11.8068 3.33774 11.1335 2.91721C10.5108 2.50001 10.1264 2.55029 9.9909 2.97549C9.66948 4.20782 9.63427 5.29458 9.93243 6.28152C9.88679 6.37832 9.55091 6.23932 8.87867 5.91509C7.24738 4.98844 6.38851 4.66618 6.34093 4.94791C6.24722 5.28021 6.35141 5.94174 6.59854 6.88299C6.84517 7.77801 7.09171 8.2955 7.28373 8.43601C5.51456 8.07712 4.5615 8.04094 4.42011 8.27743C4.18643 8.61121 5.20955 10.8657 5.06569 10.8672L4.78186 10.8702C4.06495 10.7352 1.72622 10.5711 1.73122 11.0449C1.63999 11.6122 2.27504 12.8344 2.27552 12.8806L2.61388 13.2546C3.04603 13.6738 3.62408 14.2841 3.48022 14.2856C3.28971 14.2876 1.09333 13.9795 1.09882 14.4995C1.10527 15.112 1.25364 15.538 1.59049 15.7695C1.8768 16.0015 2.2657 16.3749 2.79219 16.8895L2.84035 17.0315C2.84282 17.2665 2.89297 17.5972 2.74912 17.5988C2.6558 17.5997 2.27676 17.7925 1.6115 18.1308C0.996788 18.4686 0.664891 18.7071 0.712035 18.7529L0.761169 18.9873C0.862352 19.3638 1.05933 19.9743 1.2965 19.9718C1.53367 19.9693 2.20344 20.0585 3.20414 20.1867L2.78091 20.6149C2.21485 21.141 1.55406 21.903 1.74506 21.9472L3.32672 22.5932L3.7564 22.7774L3.38134 23.3477C2.9621 24.1534 2.44768 25.1528 2.59353 25.34C2.83469 25.715 3.55359 26.0387 3.88646 25.8927L5.21609 25.5011C5.40661 25.4991 5.45375 25.5449 5.36145 25.6421C5.17394 25.9292 4.94124 26.3554 4.71003 26.9242C4.47883 27.4929 4.48281 27.8704 4.67483 28.0109C5.05887 28.292 6.81309 27.2333 6.9064 27.2323C7.00073 27.3276 6.55473 30.0214 7.03209 30.3014C7.36845 30.4866 8.60428 30.0498 9.02998 29.8566L9.59804 29.5193L9.46015 30.0871C9.18636 31.4113 9.14965 32.3556 10.6197 31.6312C11.6188 31.2432 11.9473 31.0509 12.2802 30.9049L12.2405 31.5679C12.2504 32.5117 12.5486 33.4986 13.1648 33.3033C13.8311 33.0613 14.489 32.3917 15.1463 31.2984L15.2976 32.0057C15.4519 32.9941 15.8916 34.126 16.4145 33.9317C16.9369 33.6912 17.4523 32.7881 18.0536 31.1753L18.6336 31.9705C19.4071 33.0487 20.4698 34.2665 20.6122 34.1224C20.7045 34.0252 20.7952 33.4117 20.9267 32.2314C20.9713 32.0422 20.9698 31.8996 20.9688 31.8072L21.1499 30.9077C21.2962 31.1411 21.6818 31.5647 22.306 32.1244C22.9296 32.6379 23.3166 32.8226 23.5046 32.5856C23.7883 32.2051 23.8727 31.3528 23.8116 29.9858L24.4363 30.5918C25.3506 31.3835 26.5494 32.2222 26.7359 31.8427C26.8311 31.6529 26.8271 31.2754 26.6768 30.6645C26.4728 29.3915 26.2764 28.8272 26.1285 28.4512L26.8017 28.8679C27.7598 29.3779 29.1961 29.8828 29.7175 29.546C30.6179 29.0164 29.1176 26.8595 29.1181 26.9095L29.7845 27.0451C30.6924 27.2243 31.5993 27.311 31.7863 26.9777C31.8315 26.8347 31.6875 26.4587 31.3938 25.8955C31.104 25.3322 30.8585 24.911 30.665 24.628C30.5181 24.3444 30.3757 24.111 30.2298 23.9237L30.85 24.106C31.7594 24.4277 32.6663 24.5106 32.8524 24.0848C32.8951 23.7068 32.0744 22.5829 31.6889 22.1593L31.209 21.6443L31.7801 21.592C32.5417 21.5378 33.5428 21.3385 33.5393 21.0072C33.5358 20.6759 32.8586 19.8817 32.234 19.2758L31.7935 18.8027Z" fill="#FBC205"/>
<path d="M12.2656 25.9201L12.2479 24.2406C12.2462 24.0827 12.1127 23.9531 11.9532 23.9548L10.5069 23.97C10.3475 23.9717 10.2139 23.8421 10.2122 23.6842L10.1976 22.2975C10.1959 22.1395 10.3267 22.0072 10.4862 22.0055L11.9325 21.9902C12.0919 21.9886 12.2228 21.8562 12.2211 21.6983L12.2102 20.6659C12.2085 20.508 12.075 20.3784 11.9156 20.3801L10.4692 20.3953C10.3098 20.397 10.1762 20.2674 10.1745 20.1095L10.1571 18.4531C10.1554 18.2952 10.2862 18.1628 10.4456 18.1612L11.892 18.1459C12.0514 18.1442 12.1822 18.0119 12.1806 17.8539L12.1068 10.8625C12.1052 10.7045 12.236 10.5722 12.3954 10.5705L18.838 10.5026C19.7867 10.4926 20.6161 10.6033 21.334 10.8345C22.0519 11.0658 22.6503 11.3947 23.137 11.821C23.6237 12.2474 23.9907 12.7636 24.246 13.3734C24.5013 13.9833 24.6328 14.6522 24.6405 15.3803C24.6481 16.0967 24.5306 16.7568 24.2881 17.3603C24.0456 17.9677 23.6855 18.4839 23.2118 18.9126C22.7341 19.3414 22.1427 19.679 21.4298 19.9254C20.717 20.1717 19.8901 20.2999 18.9414 20.3099L15.2477 20.3488C15.0883 20.3505 14.9575 20.4829 14.9591 20.6408L14.97 21.6731C14.9717 21.8311 15.1052 21.9606 15.2647 21.959L21.2601 21.8958C21.4195 21.8941 21.5531 22.0237 21.5547 22.1816L21.5694 23.5683C21.571 23.7263 21.4402 23.8586 21.2808 23.8603L15.2893 23.9235C15.1298 23.9251 14.999 24.0575 15.0007 24.2154L15.0184 25.8949C15.0201 26.0529 14.8893 26.1852 14.7298 26.1869L12.5603 26.2098C12.4008 26.2076 12.2673 26.0819 12.2656 25.9201ZM14.9334 17.8288C14.935 17.9867 15.0686 18.1163 15.228 18.1146L18.6962 18.078C19.8393 18.066 20.6533 17.8224 21.146 17.3472C21.6387 16.872 21.8769 16.2261 21.8683 15.4056C21.8598 14.6006 21.6042 13.9676 21.1055 13.5029C20.6029 13.0382 19.7839 12.8118 18.6408 12.8238L15.1726 12.8604C15.0132 12.8621 14.8824 12.9944 14.8841 13.1524L14.9334 17.8288Z" fill="white"/>
</g>
<defs>
<clipPath id="clip0_395_55">
<rect width="33" height="34" fill="white" transform="translate(0.517578 0.3479) rotate(-0.604052)"/>
</clipPath>
</defs>
</svg>
