<svg width="62" height="66" viewBox="0 0 62 66" fill="none" xmlns="http://www.w3.org/2000/svg">
<mask id="path-1-outside-1_403_1385" maskUnits="userSpaceOnUse" x="0" y="-0.00106812" width="62" height="66" fill="black">
<rect fill="white" y="-0.00106812" width="62" height="66"/>
<path fill-rule="evenodd" clip-rule="evenodd" d="M9.60117 11.6417C14.5572 6.30335 22.0551 2.52952 28.9827 1.37489C35.3448 0.315216 40.9892 1.53484 46.4123 4.5389C51.6977 7.47798 56.0637 11.7167 58.5171 17.5198C61 23.388 61.0639 30.6807 59.4955 36.8138C58.1385 42.1172 53.4923 48.1753 49.3967 50.8794C49.3229 50.9294 49.2344 50.9744 49.1312 51.0244C48.9001 51.2843 48.6739 51.4792 48.492 51.5592C41.8004 55.313 34.9564 55.6479 28.0239 53.7485C22.886 52.339 17.5711 49.165 14.4244 44.5714C11.3466 40.0778 10.8795 33.9047 11.2925 28.7163C12.0054 19.8041 16.868 13.4561 25.1133 10.767C31.9278 8.54764 38.8848 8.96751 44.6472 13.696C48.2363 16.6401 50.9061 20.8288 51.7272 25.3374C52.7695 31.0806 51.3388 38.9132 47.0367 42.9319C44.2489 45.5361 39.2733 46.6707 35.9053 45.881C34.1747 45.4761 32.2965 44.1815 31.2345 42.3521C30.3888 40.8925 30.1578 39.1631 30.2659 36.7588C30.2954 36.5939 30.3397 36.4439 30.3839 36.314C30.3643 36.299 30.3397 36.289 30.32 36.274C29.8824 35.9791 29.5579 35.5892 29.3219 35.1393V35.1343C29.2285 34.9544 29.1548 34.7595 29.0859 34.5645C28.4959 34.3796 27.6896 34.2496 27.0996 34.5345C26.5194 34.8094 25.9393 35.5942 25.7328 36.204C25.4427 37.0487 25.5459 38.5833 25.7229 39.438C26.6915 44.0565 29.2039 43.6917 31.9278 45.3961C27.842 45.9909 24.1447 43.1818 23.7218 38.7932C23.5743 37.2587 23.6186 35.8391 24.4495 34.5095C25.5656 32.7301 27.0799 32.1503 28.8057 32.4602C28.7811 32.4152 28.7565 32.3652 28.7368 32.3102C28.5844 31.8853 28.432 31.4605 28.1173 31.1306C27.9453 30.9456 27.7142 30.7707 27.4339 30.6307C27.1881 30.5108 26.9128 30.4208 26.6178 30.3858C26.2785 30.3458 25.9098 30.3758 25.5312 30.4658C25.1378 30.5558 24.7396 30.7157 24.361 30.9306C23.9873 31.1406 23.6481 31.4055 23.358 31.6954C23.0581 31.9903 22.8073 32.3252 22.6107 32.6701C22.2223 33.3549 22.0502 34.1596 21.883 34.9644H21.8879C21.7847 35.5042 21.2881 35.8541 20.7768 35.7441C20.2654 35.6392 19.9311 35.1143 20.0343 34.5745H20.0393L20.0442 34.5545C20.2458 33.5848 20.4523 32.6151 20.998 31.6504C21.2783 31.1606 21.6421 30.6857 22.0748 30.2559C22.4927 29.841 22.9696 29.4711 23.476 29.1812C23.9972 28.8863 24.5626 28.6614 25.1329 28.5314C25.7082 28.3964 26.2883 28.3515 26.8243 28.4114C27.3454 28.4714 27.8273 28.6264 28.2501 28.8313C28.7368 29.0712 29.1498 29.3911 29.4645 29.726C29.553 29.821 29.6317 29.916 29.7054 30.0109C29.8628 29.826 30.0348 29.661 30.2168 29.5211C30.5462 29.2662 30.91 29.0812 31.2738 28.9513C31.0673 28.1265 31.0083 27.0619 31.0083 27.0419C30.7478 25.4174 29.553 24.3727 28.2403 23.5779C26.6964 22.6432 25.069 22.3733 23.2498 22.5233C20.2851 22.7682 19.7246 23.433 17.2712 24.7026C19.5427 21.8935 21.8535 20.6289 24.8478 20.6938L24.4102 20.124L23.4662 20.364L23.8988 19.6692L23.3924 18.7994L24.1545 19.0144L24.7838 18.2396L24.8232 19.0694L25.718 19.4592L24.9805 19.7541L24.9117 20.6938C25.7082 20.7138 26.5538 20.8288 27.4634 21.0337C29.2383 21.4386 31.3132 23.1131 32.2424 24.8226C32.8914 26.0122 33.2848 27.5267 32.8914 28.7513C33.0979 28.7663 33.2995 28.7913 33.4863 28.8263C34.6516 27.8166 35.0302 26.2071 34.7155 24.7426C33.6928 19.9391 31.3083 18.1496 26.4752 18.3696C29.0122 17.2599 33.0586 17.6498 35.0548 21.3237C35.9742 23.0131 36.3872 25.0975 36.1512 26.9769C36.0332 27.9066 35.7333 28.6764 35.2613 29.2762C35.5071 29.2812 35.7529 29.2762 35.9889 29.2462C37.6213 29.0512 38.6439 27.4167 38.8013 25.7023C39.2929 20.5189 36.7313 18.3596 34.5828 16.6151C38.6488 17.6348 41.0531 21.9585 40.6794 25.8972C40.4975 27.8316 39.4552 29.5961 37.9949 30.5258C37.0067 31.1556 36.1561 31.0356 35.1728 30.9356C34.9761 31.0306 34.745 31.0456 34.5238 30.9606C34.3222 30.8807 34.1206 30.7957 33.9141 30.7257C33.7174 30.6557 33.5158 30.5958 33.2946 30.5458C33.2602 30.5408 33.2258 30.5358 33.1913 30.5258C33.0832 30.5258 32.9848 30.5108 32.9013 30.4808C32.8029 30.4708 32.7046 30.4608 32.6063 30.4608C32.3801 30.4558 32.1441 30.4808 31.9081 30.5508C31.6623 30.6207 31.4164 30.7407 31.2001 30.9107C31.0182 31.0506 30.8559 31.2256 30.7478 31.4305C30.6642 31.5854 30.6052 31.7704 30.5609 31.9603C30.5609 32.0803 30.5413 32.1903 30.5019 32.3002C30.4626 32.6351 30.4626 32.99 30.5068 33.3299C30.5511 33.6848 30.6396 34.0247 30.7822 34.2996C30.8903 34.5095 31.028 34.6845 31.205 34.7994C31.4164 34.9394 31.7016 35.0294 32.0064 35.0644H32.0261C32.3408 35.0993 32.6554 35.0694 32.9062 34.9844C33.1127 34.9094 33.2798 34.7944 33.4126 34.6445C33.565 34.4745 33.6732 34.2646 33.7371 34.0497C33.7961 33.8397 33.8158 33.6248 33.7912 33.4349C33.7715 33.2849 33.7273 33.15 33.6535 33.05C33.5847 32.955 33.4765 32.88 33.3536 32.8201L33.3241 32.8051C33.1668 32.7351 32.9996 32.7001 32.8619 32.6951C32.7685 32.6901 32.6898 32.7051 32.6358 32.7351C32.6013 32.7501 32.5718 32.7751 32.5522 32.8101C32.5227 32.85 32.503 32.905 32.4932 32.96L32.4883 32.995H32.5423C32.9996 32.995 33.3733 33.3849 33.3733 33.8647C33.3733 34.3446 32.9996 34.7345 32.5423 34.7345C32.4538 34.7345 32.3703 34.7345 32.2326 34.7145C32.0949 34.6945 31.9474 34.6545 31.7803 34.5745C31.5983 34.4895 31.3918 34.3496 31.2198 34.1496C31.0723 33.9747 30.9493 33.7598 30.8805 33.4849C30.8117 33.2099 30.8117 32.895 30.8707 32.5951C30.9297 32.3202 31.0428 32.0353 31.2099 31.7904C31.3968 31.5155 31.6524 31.2955 31.972 31.1456C32.2424 31.0206 32.5571 30.9556 32.916 30.9656C33.2553 30.9756 33.6486 31.0606 34.0075 31.2256L34.0616 31.2505C34.4058 31.4155 34.7303 31.6604 34.9761 31.9853C35.1138 32.1703 35.2219 32.3802 35.3055 32.6001C35.3498 32.6101 35.3891 32.6201 35.4333 32.6351C35.8857 32.8201 36.3429 33 36.8985 33.14C37.1788 33.2099 37.4787 33.2699 37.7983 33.3049C38.1228 33.3399 38.4817 33.3549 38.8848 33.3299C39.3175 33.3049 39.7895 33.2349 40.2566 33.095C40.6352 32.985 41.0088 32.8251 41.3432 32.6101C41.7021 32.3802 42.0266 32.0853 42.3019 31.7604C42.6068 31.4055 42.8477 31.0106 43.0198 30.6307C43.182 30.2709 43.2705 29.921 43.3295 29.5711C43.3885 29.2212 43.4131 28.8263 43.4426 28.4314C43.4721 28.0216 43.8113 27.7117 44.1998 27.7416C44.5882 27.7716 44.8832 28.1265 44.8537 28.5414C44.8242 28.9513 44.7996 29.3611 44.7209 29.826C44.6423 30.2958 44.5193 30.7707 44.303 31.2605C44.0768 31.7654 43.7573 32.2802 43.359 32.7501C42.9903 33.1849 42.5576 33.5798 42.0758 33.8847C41.6185 34.1746 41.1268 34.3846 40.6352 34.5295C40.0599 34.6995 39.4847 34.7844 38.9586 34.8144C38.4817 34.8444 38.0441 34.8244 37.6458 34.7794C37.2378 34.7345 36.8838 34.6645 36.5691 34.5845C36.1413 34.4745 35.7726 34.3496 35.4284 34.2146C35.4088 34.3296 35.3793 34.4396 35.3498 34.5545C35.2465 34.9044 35.0941 35.2443 34.8778 35.5492C34.8876 35.5842 34.8974 35.6142 34.8974 35.6542C34.922 35.8891 34.9515 36.129 35.3399 36.4439C36.7854 37.6036 39.0766 38.0784 40.9695 37.9235C44.6816 37.6236 45.6895 35.6842 47.0465 35.0294C45.8272 40.9775 37.8769 41.0325 34.1796 38.0084C33.5896 37.5236 33.3192 37.1037 33.1864 36.7038C33.0094 36.7488 32.8275 36.7788 32.6358 36.7938C32.4293 37.0337 32.2424 37.2787 32.1293 37.5436C32.0507 37.7335 31.9966 37.9485 31.9769 38.2034C31.9523 38.4883 31.9671 38.8032 32.0212 39.1581C32.0753 39.543 32.1834 39.9678 32.3408 40.3827C32.6456 40.9925 33.034 41.5323 33.4372 41.9572C33.9338 42.3671 34.5582 42.702 35.1875 43.0369C35.2268 43.0569 35.2662 43.0769 35.3055 43.1018C35.3645 43.1418 35.4088 43.1918 35.453 43.2418C38.4423 44.2915 42.8231 43.1918 45.4437 40.7426C47.8037 38.5383 48.5461 34.8144 48.8804 31.5155C49.4852 25.3774 47.4792 20.194 42.6903 16.2652C37.6999 12.1665 32.0015 11.8716 26.1015 13.796C21.2389 15.3805 17.3498 18.4146 15.4225 23.293C13.8934 27.1618 13.7164 32.2702 14.7096 36.5939C15.8158 41.4274 17.0204 44.2215 21.1308 46.9606C31.1608 53.6386 39.4552 52.7438 47.7643 47.8554C49.6868 46.3008 51.4961 43.9066 52.8531 41.8622C55.5474 37.7985 56.4029 32.7951 55.9998 27.6517C55.3262 19.0294 51.4568 12.9013 44.1113 8.82256C39.6371 6.33833 34.9958 5.31865 29.7546 6.19338C23.8988 7.16808 17.2958 10.462 13.1018 14.9806C8.93251 19.4742 6.70034 25.6423 6.80359 31.7054C6.93634 39.453 10.7369 48.6451 16.1649 53.6685C29.14 65.6848 48.6346 62.6857 61 53.2887C51.0683 67.8441 25.6098 68.4639 13.3968 57.1675C6.96584 51.2143 2.15734 40.9125 2.00001 31.7904C1.87709 24.4277 4.54684 17.085 9.60117 11.6417Z"/>
</mask>
<path fill-rule="evenodd" clip-rule="evenodd" d="M9.60117 11.6417C14.5572 6.30335 22.0551 2.52952 28.9827 1.37489C35.3448 0.315216 40.9892 1.53484 46.4123 4.5389C51.6977 7.47798 56.0637 11.7167 58.5171 17.5198C61 23.388 61.0639 30.6807 59.4955 36.8138C58.1385 42.1172 53.4923 48.1753 49.3967 50.8794C49.3229 50.9294 49.2344 50.9744 49.1312 51.0244C48.9001 51.2843 48.6739 51.4792 48.492 51.5592C41.8004 55.313 34.9564 55.6479 28.0239 53.7485C22.886 52.339 17.5711 49.165 14.4244 44.5714C11.3466 40.0778 10.8795 33.9047 11.2925 28.7163C12.0054 19.8041 16.868 13.4561 25.1133 10.767C31.9278 8.54764 38.8848 8.96751 44.6472 13.696C48.2363 16.6401 50.9061 20.8288 51.7272 25.3374C52.7695 31.0806 51.3388 38.9132 47.0367 42.9319C44.2489 45.5361 39.2733 46.6707 35.9053 45.881C34.1747 45.4761 32.2965 44.1815 31.2345 42.3521C30.3888 40.8925 30.1578 39.1631 30.2659 36.7588C30.2954 36.5939 30.3397 36.4439 30.3839 36.314C30.3643 36.299 30.3397 36.289 30.32 36.274C29.8824 35.9791 29.5579 35.5892 29.3219 35.1393V35.1343C29.2285 34.9544 29.1548 34.7595 29.0859 34.5645C28.4959 34.3796 27.6896 34.2496 27.0996 34.5345C26.5194 34.8094 25.9393 35.5942 25.7328 36.204C25.4427 37.0487 25.5459 38.5833 25.7229 39.438C26.6915 44.0565 29.2039 43.6917 31.9278 45.3961C27.842 45.9909 24.1447 43.1818 23.7218 38.7932C23.5743 37.2587 23.6186 35.8391 24.4495 34.5095C25.5656 32.7301 27.0799 32.1503 28.8057 32.4602C28.7811 32.4152 28.7565 32.3652 28.7368 32.3102C28.5844 31.8853 28.432 31.4605 28.1173 31.1306C27.9453 30.9456 27.7142 30.7707 27.4339 30.6307C27.1881 30.5108 26.9128 30.4208 26.6178 30.3858C26.2785 30.3458 25.9098 30.3758 25.5312 30.4658C25.1378 30.5558 24.7396 30.7157 24.361 30.9306C23.9873 31.1406 23.6481 31.4055 23.358 31.6954C23.0581 31.9903 22.8073 32.3252 22.6107 32.6701C22.2223 33.3549 22.0502 34.1596 21.883 34.9644H21.8879C21.7847 35.5042 21.2881 35.8541 20.7768 35.7441C20.2654 35.6392 19.9311 35.1143 20.0343 34.5745H20.0393L20.0442 34.5545C20.2458 33.5848 20.4523 32.6151 20.998 31.6504C21.2783 31.1606 21.6421 30.6857 22.0748 30.2559C22.4927 29.841 22.9696 29.4711 23.476 29.1812C23.9972 28.8863 24.5626 28.6614 25.1329 28.5314C25.7082 28.3964 26.2883 28.3515 26.8243 28.4114C27.3454 28.4714 27.8273 28.6264 28.2501 28.8313C28.7368 29.0712 29.1498 29.3911 29.4645 29.726C29.553 29.821 29.6317 29.916 29.7054 30.0109C29.8628 29.826 30.0348 29.661 30.2168 29.5211C30.5462 29.2662 30.91 29.0812 31.2738 28.9513C31.0673 28.1265 31.0083 27.0619 31.0083 27.0419C30.7478 25.4174 29.553 24.3727 28.2403 23.5779C26.6964 22.6432 25.069 22.3733 23.2498 22.5233C20.2851 22.7682 19.7246 23.433 17.2712 24.7026C19.5427 21.8935 21.8535 20.6289 24.8478 20.6938L24.4102 20.124L23.4662 20.364L23.8988 19.6692L23.3924 18.7994L24.1545 19.0144L24.7838 18.2396L24.8232 19.0694L25.718 19.4592L24.9805 19.7541L24.9117 20.6938C25.7082 20.7138 26.5538 20.8288 27.4634 21.0337C29.2383 21.4386 31.3132 23.1131 32.2424 24.8226C32.8914 26.0122 33.2848 27.5267 32.8914 28.7513C33.0979 28.7663 33.2995 28.7913 33.4863 28.8263C34.6516 27.8166 35.0302 26.2071 34.7155 24.7426C33.6928 19.9391 31.3083 18.1496 26.4752 18.3696C29.0122 17.2599 33.0586 17.6498 35.0548 21.3237C35.9742 23.0131 36.3872 25.0975 36.1512 26.9769C36.0332 27.9066 35.7333 28.6764 35.2613 29.2762C35.5071 29.2812 35.7529 29.2762 35.9889 29.2462C37.6213 29.0512 38.6439 27.4167 38.8013 25.7023C39.2929 20.5189 36.7313 18.3596 34.5828 16.6151C38.6488 17.6348 41.0531 21.9585 40.6794 25.8972C40.4975 27.8316 39.4552 29.5961 37.9949 30.5258C37.0067 31.1556 36.1561 31.0356 35.1728 30.9356C34.9761 31.0306 34.745 31.0456 34.5238 30.9606C34.3222 30.8807 34.1206 30.7957 33.9141 30.7257C33.7174 30.6557 33.5158 30.5958 33.2946 30.5458C33.2602 30.5408 33.2258 30.5358 33.1913 30.5258C33.0832 30.5258 32.9848 30.5108 32.9013 30.4808C32.8029 30.4708 32.7046 30.4608 32.6063 30.4608C32.3801 30.4558 32.1441 30.4808 31.9081 30.5508C31.6623 30.6207 31.4164 30.7407 31.2001 30.9107C31.0182 31.0506 30.8559 31.2256 30.7478 31.4305C30.6642 31.5854 30.6052 31.7704 30.5609 31.9603C30.5609 32.0803 30.5413 32.1903 30.5019 32.3002C30.4626 32.6351 30.4626 32.99 30.5068 33.3299C30.5511 33.6848 30.6396 34.0247 30.7822 34.2996C30.8903 34.5095 31.028 34.6845 31.205 34.7994C31.4164 34.9394 31.7016 35.0294 32.0064 35.0644H32.0261C32.3408 35.0993 32.6554 35.0694 32.9062 34.9844C33.1127 34.9094 33.2798 34.7944 33.4126 34.6445C33.565 34.4745 33.6732 34.2646 33.7371 34.0497C33.7961 33.8397 33.8158 33.6248 33.7912 33.4349C33.7715 33.2849 33.7273 33.15 33.6535 33.05C33.5847 32.955 33.4765 32.88 33.3536 32.8201L33.3241 32.8051C33.1668 32.7351 32.9996 32.7001 32.8619 32.6951C32.7685 32.6901 32.6898 32.7051 32.6358 32.7351C32.6013 32.7501 32.5718 32.7751 32.5522 32.8101C32.5227 32.85 32.503 32.905 32.4932 32.96L32.4883 32.995H32.5423C32.9996 32.995 33.3733 33.3849 33.3733 33.8647C33.3733 34.3446 32.9996 34.7345 32.5423 34.7345C32.4538 34.7345 32.3703 34.7345 32.2326 34.7145C32.0949 34.6945 31.9474 34.6545 31.7803 34.5745C31.5983 34.4895 31.3918 34.3496 31.2198 34.1496C31.0723 33.9747 30.9493 33.7598 30.8805 33.4849C30.8117 33.2099 30.8117 32.895 30.8707 32.5951C30.9297 32.3202 31.0428 32.0353 31.2099 31.7904C31.3968 31.5155 31.6524 31.2955 31.972 31.1456C32.2424 31.0206 32.5571 30.9556 32.916 30.9656C33.2553 30.9756 33.6486 31.0606 34.0075 31.2256L34.0616 31.2505C34.4058 31.4155 34.7303 31.6604 34.9761 31.9853C35.1138 32.1703 35.2219 32.3802 35.3055 32.6001C35.3498 32.6101 35.3891 32.6201 35.4333 32.6351C35.8857 32.8201 36.3429 33 36.8985 33.14C37.1788 33.2099 37.4787 33.2699 37.7983 33.3049C38.1228 33.3399 38.4817 33.3549 38.8848 33.3299C39.3175 33.3049 39.7895 33.2349 40.2566 33.095C40.6352 32.985 41.0088 32.8251 41.3432 32.6101C41.7021 32.3802 42.0266 32.0853 42.3019 31.7604C42.6068 31.4055 42.8477 31.0106 43.0198 30.6307C43.182 30.2709 43.2705 29.921 43.3295 29.5711C43.3885 29.2212 43.4131 28.8263 43.4426 28.4314C43.4721 28.0216 43.8113 27.7117 44.1998 27.7416C44.5882 27.7716 44.8832 28.1265 44.8537 28.5414C44.8242 28.9513 44.7996 29.3611 44.7209 29.826C44.6423 30.2958 44.5193 30.7707 44.303 31.2605C44.0768 31.7654 43.7573 32.2802 43.359 32.7501C42.9903 33.1849 42.5576 33.5798 42.0758 33.8847C41.6185 34.1746 41.1268 34.3846 40.6352 34.5295C40.0599 34.6995 39.4847 34.7844 38.9586 34.8144C38.4817 34.8444 38.0441 34.8244 37.6458 34.7794C37.2378 34.7345 36.8838 34.6645 36.5691 34.5845C36.1413 34.4745 35.7726 34.3496 35.4284 34.2146C35.4088 34.3296 35.3793 34.4396 35.3498 34.5545C35.2465 34.9044 35.0941 35.2443 34.8778 35.5492C34.8876 35.5842 34.8974 35.6142 34.8974 35.6542C34.922 35.8891 34.9515 36.129 35.3399 36.4439C36.7854 37.6036 39.0766 38.0784 40.9695 37.9235C44.6816 37.6236 45.6895 35.6842 47.0465 35.0294C45.8272 40.9775 37.8769 41.0325 34.1796 38.0084C33.5896 37.5236 33.3192 37.1037 33.1864 36.7038C33.0094 36.7488 32.8275 36.7788 32.6358 36.7938C32.4293 37.0337 32.2424 37.2787 32.1293 37.5436C32.0507 37.7335 31.9966 37.9485 31.9769 38.2034C31.9523 38.4883 31.9671 38.8032 32.0212 39.1581C32.0753 39.543 32.1834 39.9678 32.3408 40.3827C32.6456 40.9925 33.034 41.5323 33.4372 41.9572C33.9338 42.3671 34.5582 42.702 35.1875 43.0369C35.2268 43.0569 35.2662 43.0769 35.3055 43.1018C35.3645 43.1418 35.4088 43.1918 35.453 43.2418C38.4423 44.2915 42.8231 43.1918 45.4437 40.7426C47.8037 38.5383 48.5461 34.8144 48.8804 31.5155C49.4852 25.3774 47.4792 20.194 42.6903 16.2652C37.6999 12.1665 32.0015 11.8716 26.1015 13.796C21.2389 15.3805 17.3498 18.4146 15.4225 23.293C13.8934 27.1618 13.7164 32.2702 14.7096 36.5939C15.8158 41.4274 17.0204 44.2215 21.1308 46.9606C31.1608 53.6386 39.4552 52.7438 47.7643 47.8554C49.6868 46.3008 51.4961 43.9066 52.8531 41.8622C55.5474 37.7985 56.4029 32.7951 55.9998 27.6517C55.3262 19.0294 51.4568 12.9013 44.1113 8.82256C39.6371 6.33833 34.9958 5.31865 29.7546 6.19338C23.8988 7.16808 17.2958 10.462 13.1018 14.9806C8.93251 19.4742 6.70034 25.6423 6.80359 31.7054C6.93634 39.453 10.7369 48.6451 16.1649 53.6685C29.14 65.6848 48.6346 62.6857 61 53.2887C51.0683 67.8441 25.6098 68.4639 13.3968 57.1675C6.96584 51.2143 2.15734 40.9125 2.00001 31.7904C1.87709 24.4277 4.54684 17.085 9.60117 11.6417Z" fill="#134B6D"/>
<path fill-rule="evenodd" clip-rule="evenodd" d="M9.60117 11.6417C14.5572 6.30335 22.0551 2.52952 28.9827 1.37489C35.3448 0.315216 40.9892 1.53484 46.4123 4.5389C51.6977 7.47798 56.0637 11.7167 58.5171 17.5198C61 23.388 61.0639 30.6807 59.4955 36.8138C58.1385 42.1172 53.4923 48.1753 49.3967 50.8794C49.3229 50.9294 49.2344 50.9744 49.1312 51.0244C48.9001 51.2843 48.6739 51.4792 48.492 51.5592C41.8004 55.313 34.9564 55.6479 28.0239 53.7485C22.886 52.339 17.5711 49.165 14.4244 44.5714C11.3466 40.0778 10.8795 33.9047 11.2925 28.7163C12.0054 19.8041 16.868 13.4561 25.1133 10.767C31.9278 8.54764 38.8848 8.96751 44.6472 13.696C48.2363 16.6401 50.9061 20.8288 51.7272 25.3374C52.7695 31.0806 51.3388 38.9132 47.0367 42.9319C44.2489 45.5361 39.2733 46.6707 35.9053 45.881C34.1747 45.4761 32.2965 44.1815 31.2345 42.3521C30.3888 40.8925 30.1578 39.1631 30.2659 36.7588C30.2954 36.5939 30.3397 36.4439 30.3839 36.314C30.3643 36.299 30.3397 36.289 30.32 36.274C29.8824 35.9791 29.5579 35.5892 29.3219 35.1393V35.1343C29.2285 34.9544 29.1548 34.7595 29.0859 34.5645C28.4959 34.3796 27.6896 34.2496 27.0996 34.5345C26.5194 34.8094 25.9393 35.5942 25.7328 36.204C25.4427 37.0487 25.5459 38.5833 25.7229 39.438C26.6915 44.0565 29.2039 43.6917 31.9278 45.3961C27.842 45.9909 24.1447 43.1818 23.7218 38.7932C23.5743 37.2587 23.6186 35.8391 24.4495 34.5095C25.5656 32.7301 27.0799 32.1503 28.8057 32.4602C28.7811 32.4152 28.7565 32.3652 28.7368 32.3102C28.5844 31.8853 28.432 31.4605 28.1173 31.1306C27.9453 30.9456 27.7142 30.7707 27.4339 30.6307C27.1881 30.5108 26.9128 30.4208 26.6178 30.3858C26.2785 30.3458 25.9098 30.3758 25.5312 30.4658C25.1378 30.5558 24.7396 30.7157 24.361 30.9306C23.9873 31.1406 23.6481 31.4055 23.358 31.6954C23.0581 31.9903 22.8073 32.3252 22.6107 32.6701C22.2223 33.3549 22.0502 34.1596 21.883 34.9644H21.8879C21.7847 35.5042 21.2881 35.8541 20.7768 35.7441C20.2654 35.6392 19.9311 35.1143 20.0343 34.5745H20.0393L20.0442 34.5545C20.2458 33.5848 20.4523 32.6151 20.998 31.6504C21.2783 31.1606 21.6421 30.6857 22.0748 30.2559C22.4927 29.841 22.9696 29.4711 23.476 29.1812C23.9972 28.8863 24.5626 28.6614 25.1329 28.5314C25.7082 28.3964 26.2883 28.3515 26.8243 28.4114C27.3454 28.4714 27.8273 28.6264 28.2501 28.8313C28.7368 29.0712 29.1498 29.3911 29.4645 29.726C29.553 29.821 29.6317 29.916 29.7054 30.0109C29.8628 29.826 30.0348 29.661 30.2168 29.5211C30.5462 29.2662 30.91 29.0812 31.2738 28.9513C31.0673 28.1265 31.0083 27.0619 31.0083 27.0419C30.7478 25.4174 29.553 24.3727 28.2403 23.5779C26.6964 22.6432 25.069 22.3733 23.2498 22.5233C20.2851 22.7682 19.7246 23.433 17.2712 24.7026C19.5427 21.8935 21.8535 20.6289 24.8478 20.6938L24.4102 20.124L23.4662 20.364L23.8988 19.6692L23.3924 18.7994L24.1545 19.0144L24.7838 18.2396L24.8232 19.0694L25.718 19.4592L24.9805 19.7541L24.9117 20.6938C25.7082 20.7138 26.5538 20.8288 27.4634 21.0337C29.2383 21.4386 31.3132 23.1131 32.2424 24.8226C32.8914 26.0122 33.2848 27.5267 32.8914 28.7513C33.0979 28.7663 33.2995 28.7913 33.4863 28.8263C34.6516 27.8166 35.0302 26.2071 34.7155 24.7426C33.6928 19.9391 31.3083 18.1496 26.4752 18.3696C29.0122 17.2599 33.0586 17.6498 35.0548 21.3237C35.9742 23.0131 36.3872 25.0975 36.1512 26.9769C36.0332 27.9066 35.7333 28.6764 35.2613 29.2762C35.5071 29.2812 35.7529 29.2762 35.9889 29.2462C37.6213 29.0512 38.6439 27.4167 38.8013 25.7023C39.2929 20.5189 36.7313 18.3596 34.5828 16.6151C38.6488 17.6348 41.0531 21.9585 40.6794 25.8972C40.4975 27.8316 39.4552 29.5961 37.9949 30.5258C37.0067 31.1556 36.1561 31.0356 35.1728 30.9356C34.9761 31.0306 34.745 31.0456 34.5238 30.9606C34.3222 30.8807 34.1206 30.7957 33.9141 30.7257C33.7174 30.6557 33.5158 30.5958 33.2946 30.5458C33.2602 30.5408 33.2258 30.5358 33.1913 30.5258C33.0832 30.5258 32.9848 30.5108 32.9013 30.4808C32.8029 30.4708 32.7046 30.4608 32.6063 30.4608C32.3801 30.4558 32.1441 30.4808 31.9081 30.5508C31.6623 30.6207 31.4164 30.7407 31.2001 30.9107C31.0182 31.0506 30.8559 31.2256 30.7478 31.4305C30.6642 31.5854 30.6052 31.7704 30.5609 31.9603C30.5609 32.0803 30.5413 32.1903 30.5019 32.3002C30.4626 32.6351 30.4626 32.99 30.5068 33.3299C30.5511 33.6848 30.6396 34.0247 30.7822 34.2996C30.8903 34.5095 31.028 34.6845 31.205 34.7994C31.4164 34.9394 31.7016 35.0294 32.0064 35.0644H32.0261C32.3408 35.0993 32.6554 35.0694 32.9062 34.9844C33.1127 34.9094 33.2798 34.7944 33.4126 34.6445C33.565 34.4745 33.6732 34.2646 33.7371 34.0497C33.7961 33.8397 33.8158 33.6248 33.7912 33.4349C33.7715 33.2849 33.7273 33.15 33.6535 33.05C33.5847 32.955 33.4765 32.88 33.3536 32.8201L33.3241 32.8051C33.1668 32.7351 32.9996 32.7001 32.8619 32.6951C32.7685 32.6901 32.6898 32.7051 32.6358 32.7351C32.6013 32.7501 32.5718 32.7751 32.5522 32.8101C32.5227 32.85 32.503 32.905 32.4932 32.96L32.4883 32.995H32.5423C32.9996 32.995 33.3733 33.3849 33.3733 33.8647C33.3733 34.3446 32.9996 34.7345 32.5423 34.7345C32.4538 34.7345 32.3703 34.7345 32.2326 34.7145C32.0949 34.6945 31.9474 34.6545 31.7803 34.5745C31.5983 34.4895 31.3918 34.3496 31.2198 34.1496C31.0723 33.9747 30.9493 33.7598 30.8805 33.4849C30.8117 33.2099 30.8117 32.895 30.8707 32.5951C30.9297 32.3202 31.0428 32.0353 31.2099 31.7904C31.3968 31.5155 31.6524 31.2955 31.972 31.1456C32.2424 31.0206 32.5571 30.9556 32.916 30.9656C33.2553 30.9756 33.6486 31.0606 34.0075 31.2256L34.0616 31.2505C34.4058 31.4155 34.7303 31.6604 34.9761 31.9853C35.1138 32.1703 35.2219 32.3802 35.3055 32.6001C35.3498 32.6101 35.3891 32.6201 35.4333 32.6351C35.8857 32.8201 36.3429 33 36.8985 33.14C37.1788 33.2099 37.4787 33.2699 37.7983 33.3049C38.1228 33.3399 38.4817 33.3549 38.8848 33.3299C39.3175 33.3049 39.7895 33.2349 40.2566 33.095C40.6352 32.985 41.0088 32.8251 41.3432 32.6101C41.7021 32.3802 42.0266 32.0853 42.3019 31.7604C42.6068 31.4055 42.8477 31.0106 43.0198 30.6307C43.182 30.2709 43.2705 29.921 43.3295 29.5711C43.3885 29.2212 43.4131 28.8263 43.4426 28.4314C43.4721 28.0216 43.8113 27.7117 44.1998 27.7416C44.5882 27.7716 44.8832 28.1265 44.8537 28.5414C44.8242 28.9513 44.7996 29.3611 44.7209 29.826C44.6423 30.2958 44.5193 30.7707 44.303 31.2605C44.0768 31.7654 43.7573 32.2802 43.359 32.7501C42.9903 33.1849 42.5576 33.5798 42.0758 33.8847C41.6185 34.1746 41.1268 34.3846 40.6352 34.5295C40.0599 34.6995 39.4847 34.7844 38.9586 34.8144C38.4817 34.8444 38.0441 34.8244 37.6458 34.7794C37.2378 34.7345 36.8838 34.6645 36.5691 34.5845C36.1413 34.4745 35.7726 34.3496 35.4284 34.2146C35.4088 34.3296 35.3793 34.4396 35.3498 34.5545C35.2465 34.9044 35.0941 35.2443 34.8778 35.5492C34.8876 35.5842 34.8974 35.6142 34.8974 35.6542C34.922 35.8891 34.9515 36.129 35.3399 36.4439C36.7854 37.6036 39.0766 38.0784 40.9695 37.9235C44.6816 37.6236 45.6895 35.6842 47.0465 35.0294C45.8272 40.9775 37.8769 41.0325 34.1796 38.0084C33.5896 37.5236 33.3192 37.1037 33.1864 36.7038C33.0094 36.7488 32.8275 36.7788 32.6358 36.7938C32.4293 37.0337 32.2424 37.2787 32.1293 37.5436C32.0507 37.7335 31.9966 37.9485 31.9769 38.2034C31.9523 38.4883 31.9671 38.8032 32.0212 39.1581C32.0753 39.543 32.1834 39.9678 32.3408 40.3827C32.6456 40.9925 33.034 41.5323 33.4372 41.9572C33.9338 42.3671 34.5582 42.702 35.1875 43.0369C35.2268 43.0569 35.2662 43.0769 35.3055 43.1018C35.3645 43.1418 35.4088 43.1918 35.453 43.2418C38.4423 44.2915 42.8231 43.1918 45.4437 40.7426C47.8037 38.5383 48.5461 34.8144 48.8804 31.5155C49.4852 25.3774 47.4792 20.194 42.6903 16.2652C37.6999 12.1665 32.0015 11.8716 26.1015 13.796C21.2389 15.3805 17.3498 18.4146 15.4225 23.293C13.8934 27.1618 13.7164 32.2702 14.7096 36.5939C15.8158 41.4274 17.0204 44.2215 21.1308 46.9606C31.1608 53.6386 39.4552 52.7438 47.7643 47.8554C49.6868 46.3008 51.4961 43.9066 52.8531 41.8622C55.5474 37.7985 56.4029 32.7951 55.9998 27.6517C55.3262 19.0294 51.4568 12.9013 44.1113 8.82256C39.6371 6.33833 34.9958 5.31865 29.7546 6.19338C23.8988 7.16808 17.2958 10.462 13.1018 14.9806C8.93251 19.4742 6.70034 25.6423 6.80359 31.7054C6.93634 39.453 10.7369 48.6451 16.1649 53.6685C29.14 65.6848 48.6346 62.6857 61 53.2887C51.0683 67.8441 25.6098 68.4639 13.3968 57.1675C6.96584 51.2143 2.15734 40.9125 2.00001 31.7904C1.87709 24.4277 4.54684 17.085 9.60117 11.6417Z" stroke="#DADADA" stroke-width="2" mask="url(#path-1-outside-1_403_1385)"/>
</svg>
