<svg width="62" height="66" viewBox="0 0 62 66" fill="none" xmlns="http://www.w3.org/2000/svg">
<mask id="path-1-outside-1_403_1363" maskUnits="userSpaceOnUse" x="-8.64215" y="-7.38621" width="76.8279" height="78.8385" fill="black">
<rect fill="white" x="-8.64215" y="-7.38621" width="76.8279" height="78.8385"/>
<path fill-rule="evenodd" clip-rule="evenodd" d="M15.5876 6.15202C21.7383 2.60912 29.8472 1.23374 36.6907 2.12281C42.9755 2.94 47.9507 5.66516 52.2213 9.98038C56.3804 14.1965 59.3124 19.3563 60.0087 25.4243C60.7146 31.5609 58.7469 38.3329 55.5647 43.5695C52.8124 48.0975 46.7532 52.3945 42.1452 53.7411C42.0618 53.7665 41.966 53.7832 41.8549 53.8003C41.565 53.9757 41.2979 54.0923 41.1044 54.1149C33.7602 55.6997 27.2233 54.0751 21.2244 50.3562C16.7788 47.5983 13.2606 43.0296 11.5752 37.8858C9.92693 32.8541 10.5972 27.1257 12.4288 22.4374C15.5783 14.3851 21.9218 9.88071 30.4327 9.72113C37.4658 9.59222 43.8993 11.9478 48.0099 17.956C50.5705 21.6972 51.924 26.3326 51.4387 30.7389C50.8231 36.3524 46.8699 42.5939 41.7018 45.0996C38.3529 46.7233 33.8741 46.1102 31.259 45.2897C30.0643 44.9158 26.8415 43.6151 25.2604 42.343C24.8637 42.0675 24.4661 41.7614 24.0592 41.402C23.4654 40.8755 22.8498 40.2365 22.262 39.5554C21.6678 38.8622 21.1041 38.1177 20.6251 37.3935C20.1475 36.6647 19.7468 35.9489 19.4155 35.2035C19.0842 34.458 18.8195 33.6922 18.6109 32.8575C18.3954 31.9954 18.2359 31.0644 18.157 30.1172C18.0845 29.2325 18.0787 28.3274 18.1668 27.4455C18.2573 26.4886 18.4599 25.5452 18.7675 24.6888C19.0635 23.8542 19.4674 23.0973 19.973 22.472C20.5024 21.8185 21.1404 21.3237 21.8442 20.9799C22.572 20.6231 23.3734 20.4247 24.2007 20.3754C25.0114 20.3311 25.8479 20.4359 26.6367 20.6829C26.7154 20.7065 26.7913 20.7394 26.8732 20.769C27.0154 20.6654 27.1955 20.5529 27.4307 20.4419C27.7969 20.2642 28.341 20.049 28.9956 19.9024C29.4817 19.7961 30.0299 19.7184 30.6294 19.7218C31.3757 19.7238 32.1881 19.8416 32.9561 20.1075C33.007 20.1228 33.0551 20.1474 33.1047 20.1673C33.5275 19.7341 34.0451 19.3546 34.8715 19.1737C35.391 19.0572 36.0127 19.037 36.64 19.0992C37.2627 19.1599 37.9182 19.2962 38.5038 19.4973C39.0986 19.7011 39.6189 19.9683 40.0693 20.3004C40.5321 20.6412 40.9251 21.0469 41.2588 21.5154C41.5767 21.9692 41.84 22.4873 42.0306 23.029C42.2258 23.5721 42.3516 24.1448 42.3959 24.7031C42.4398 25.2462 42.4068 25.7762 42.3136 26.2882C42.2135 26.8234 42.0453 27.3331 41.823 27.8214C41.6007 28.3098 41.3168 28.7847 40.9542 29.1855C40.5546 29.6257 40.0698 29.9797 39.4734 30.1842C39.1313 30.2985 38.76 30.3586 38.3707 30.3779C38.3043 31.0696 38.2842 31.7751 38.4188 32.5371C38.5186 33.1121 38.7009 33.7321 38.9757 34.3293C39.2131 34.8498 39.5153 35.3392 39.8823 35.7471C40.2637 36.1745 40.7252 36.52 41.239 36.7752C41.7574 37.0318 42.325 37.1921 42.9185 37.2492C43.5332 37.3026 44.1814 37.2448 44.7939 37.0704C45.3731 36.9062 45.9171 36.6406 46.3695 36.2769C46.6158 36.0783 46.8413 35.8483 47.0507 35.5881C49.3088 30.0842 48.8457 24.7523 45.4563 19.7882C41.8974 14.5815 36.6142 12.6975 30.5241 12.8118C25.5052 12.9046 20.9999 14.6151 17.8286 18.5883C15.3132 21.739 13.9563 25.4849 13.6877 29.7745C13.3852 34.5636 13.7769 38.3349 16.8866 42.0291C24.4732 51.0491 32.2726 52.6541 41.4432 50.4822C43.6808 49.5846 46.0548 47.8801 47.8995 46.3751C51.5663 43.3732 53.7631 38.9813 54.8137 34.1039C56.5772 25.9282 54.6381 19.1589 48.8563 13.305C45.3345 9.73943 41.2482 7.48298 36.0702 6.81142C30.2858 6.0587 23.1529 7.24265 17.9477 10.2418C12.7726 13.2248 8.95583 18.3061 7.36705 23.9505C5.33765 31.1632 6.35991 40.7507 10.0736 46.9375C18.956 61.7262 38.1446 64.4598 52.4001 59.2526C39.0017 69.9251 14.8595 63.302 6.50186 49.3875C2.10232 42.0561 0.439641 31.1561 2.82813 22.6634C4.75977 15.8099 9.31522 9.76434 15.5876 6.15202ZM30.3197 31.695C29.8502 31.5944 29.3952 31.4124 28.9948 31.166C28.9684 31.153 28.9388 31.134 28.9124 31.1211C28.7268 30.9997 28.556 30.8627 28.3926 30.7177C27.9685 31.0042 27.5175 31.2119 27.0444 31.3424C26.6758 31.4437 26.2981 31.4917 25.9235 31.4954C25.9277 31.5824 25.9286 31.6634 25.9374 31.7518C25.9748 32.2324 26.039 32.7412 26.1597 33.2972C26.2929 33.9125 26.4987 34.6051 26.7768 35.3093C27.0215 35.9228 27.3218 36.5529 27.6948 37.1595C28.1002 37.8262 28.5829 38.4708 29.1578 39.0774C29.6933 39.6469 30.3149 40.1818 31.0286 40.6787C31.7674 41.1932 32.5978 41.6545 33.4639 42.0306C34.3161 42.4026 35.1841 42.6884 36.0058 42.8594C36.8182 43.0277 37.6196 43.0816 38.4177 43.079C38.9635 43.0763 39.4811 43.05 39.9908 43.0164C40.2644 42.9118 40.5316 42.7952 40.8029 42.6647C40.9098 42.611 41.0103 42.5453 41.1173 42.4917C40.6437 42.4554 40.1678 42.3933 39.6863 42.2992C38.9633 42.1527 38.2323 41.9484 37.5333 41.6881C36.8514 41.4379 36.1909 41.1336 35.584 40.7848C34.9601 40.4259 34.3926 40.0133 33.8774 39.5609C33.3465 39.0936 32.88 38.5801 32.4815 38.0416C32.1006 37.5286 31.7688 36.9697 31.4912 36.3817C31.2071 35.7817 30.9804 35.1585 30.8116 34.5274C30.5396 33.5677 30.4134 32.6265 30.3197 31.695ZM22.7155 22.7504C22.259 22.9767 21.845 23.2965 21.5014 23.7182C21.1416 24.1602 20.8466 24.7226 20.621 25.3563C20.3713 26.0535 20.2067 26.8368 20.1302 27.6464C20.0568 28.4117 20.059 29.1945 20.125 29.9663C20.1947 30.8098 20.3371 31.6297 20.5249 32.3825C20.7071 33.1034 20.9319 33.7664 21.2202 34.403C21.5039 35.0382 21.8546 35.6684 22.2822 36.3115C22.7149 36.9713 23.2291 37.6455 23.7665 38.2761C24.2973 38.8948 24.8467 39.4685 25.3744 39.9297C25.7326 40.2492 26.0784 40.5095 26.4158 40.7471C27.0472 41.0477 27.6758 41.4584 28.0757 41.74C28.1799 41.7965 28.284 41.853 28.3835 41.9081C28.4798 41.9572 28.5553 42.0253 28.6293 42.098C29.4352 42.456 30.255 42.7678 31.0823 43.0212C30.6731 42.7873 30.2773 42.5424 29.901 42.283C29.0873 41.7157 28.362 41.0892 27.727 40.414C27.0572 39.7033 26.4871 38.9467 26.0109 38.1628C25.5814 37.4585 25.2307 36.7275 24.9494 36.0172C24.625 35.1982 24.3933 34.407 24.236 33.7037C24.0871 33.0231 24.0081 32.4291 23.9703 31.8829C23.9486 31.619 23.9394 31.3639 23.9348 31.1102C23.6205 30.9805 23.3238 30.8258 23.0553 30.6443C22.4855 30.2562 22.0315 29.7514 21.7955 29.1759C21.5692 28.6185 21.5532 28.0333 21.67 27.4931C21.7983 26.8806 22.104 26.3164 22.4365 25.9317C22.7912 25.5235 23.1973 25.2972 23.6024 25.1918C24.0075 25.0863 24.389 25.11 24.7325 25.193C25.0528 25.269 25.3504 25.4037 25.6004 25.5797C25.8503 25.7557 26.054 25.9682 26.2021 26.2146C26.2229 26.246 26.2391 26.2761 26.2599 26.3076C26.5209 26.7998 26.5166 27.2678 26.5031 27.7331C26.5054 27.759 26.5017 27.7882 26.504 27.8141C26.4775 28.3562 26.0177 28.7783 25.4756 28.7518C24.9335 28.7253 24.5114 28.2655 24.5379 27.7234L24.5421 27.659C24.5486 27.4692 24.551 27.2933 24.5232 27.2345L24.5181 27.2178C24.5102 27.2104 24.4977 27.2016 24.482 27.1868C24.432 27.1516 24.3653 27.1215 24.2806 27.1011C24.2144 27.0863 24.1515 27.0775 24.1029 27.0881C24.0589 27.1001 24.0019 27.1386 23.9325 27.2186C23.7935 27.3788 23.6648 27.6227 23.6073 27.8982C23.5656 28.0875 23.5651 28.2741 23.6294 28.4296C23.7104 28.6306 23.9029 28.8297 24.1682 29.0052C24.3774 29.1488 24.6162 29.2609 24.8727 29.348C24.8833 29.3461 24.894 29.3443 24.9046 29.3424C25.0866 29.3415 25.2578 29.393 25.4041 29.4772C25.7851 29.5361 26.1731 29.5214 26.5402 29.4247C26.9087 29.3234 27.2611 29.1416 27.5723 28.8616C27.9177 28.5515 28.2243 28.1187 28.4373 27.6275C28.6523 27.1471 28.7755 26.6189 28.7831 26.1064C28.7887 25.5832 28.6676 25.0624 28.4436 24.5813C28.2196 24.1003 27.8961 23.665 27.4898 23.321C27.0834 22.9769 26.5941 22.724 26.0645 22.5549C25.4979 22.3747 24.8993 22.3009 24.3192 22.3337C23.747 22.3738 23.2067 22.5093 22.7155 22.7504ZM29.4252 21.833C29.2354 21.877 29.0595 21.9251 28.9021 21.9787C29.457 22.4835 29.905 23.0924 30.2173 23.7665C30.3464 24.0424 30.4455 24.3346 30.5278 24.6318C30.6894 24.6147 30.8509 24.5976 31.0056 24.6037C31.431 24.6154 31.8236 24.703 32.1476 24.8507C32.4624 24.9957 32.7068 25.1902 32.8965 25.3986C33.1261 25.6593 33.2783 25.9422 33.3658 26.2056C33.4463 26.4417 33.4819 26.6593 33.4911 26.8639C33.5007 27.0334 33.4901 27.1866 33.4761 27.3338C33.439 27.8778 32.9695 28.2818 32.4255 28.2447C31.8815 28.2075 31.4775 27.738 31.5147 27.194C31.5198 27.1098 31.5235 27.0301 31.5212 26.9537C31.5184 26.9125 31.5157 26.8713 31.5009 26.8366C31.4874 26.7973 31.4662 26.7505 31.4314 26.7148C31.4046 26.6866 31.3717 26.6616 31.3282 26.6384C31.2352 26.5954 31.1074 26.5671 30.962 26.5638C30.8824 26.5601 30.7986 26.5703 30.7088 26.5837C30.6517 27.2276 30.4886 27.8549 30.2366 28.4252C30.1005 28.7274 29.9379 29.0167 29.7596 29.2912C29.8286 29.3473 29.9022 29.4047 29.9785 29.4529L30.041 29.4968C30.2979 29.6497 30.5933 29.7585 30.8895 29.797C31.2011 29.8351 31.5256 29.7963 31.8395 29.7088C32.2354 29.6006 32.6044 29.4137 32.9072 29.2119C33.1739 29.0295 33.379 28.8338 33.5559 28.6144C33.7356 28.3857 33.9 28.107 34.0631 27.7826C34.2289 27.4488 34.3905 27.0785 34.4966 26.6915C34.6 26.3137 34.6621 25.8883 34.6432 25.4133C34.6248 24.9031 34.5101 24.3439 34.2894 23.8184C34.1081 23.3804 33.8559 22.9766 33.524 22.6701C33.1935 22.3589 32.7769 22.1329 32.3288 21.9782C31.7803 21.7882 31.1859 21.7006 30.6354 21.7018C30.1933 21.6953 29.7836 21.7489 29.4252 21.833ZM39.4971 27.8699C39.7162 27.6279 39.8908 27.3321 40.0371 27.0127C40.1965 26.6669 40.3155 26.304 40.3837 25.9258C40.4453 25.586 40.4667 25.229 40.4358 24.8615C40.4058 24.474 40.3142 24.073 40.1773 23.6887C40.0422 23.3151 39.8663 22.9595 39.646 22.6511C39.4369 22.3562 39.1906 22.1006 38.9046 21.8936C38.6074 21.6732 38.2612 21.4985 37.8594 21.3577C37.4298 21.2085 36.9358 21.1056 36.4497 21.0606C36.0127 21.0202 35.6063 21.0294 35.2979 21.0983C35.1461 21.1335 35.0178 21.1908 34.896 21.2603C35.4251 21.7673 35.8231 22.3915 36.097 23.0591C36.2321 23.3823 36.3306 23.7096 36.4125 24.042C36.7291 23.9958 37.0379 23.9926 37.3268 24.039C37.8661 24.1252 38.3443 24.3647 38.6646 24.693C39.0085 25.0435 39.1598 25.4472 39.2171 25.8783C39.2591 26.2088 39.2438 26.512 39.2224 26.8185C39.1899 27.3639 38.7189 27.7725 38.1782 27.7414C37.6329 27.7089 37.2242 27.2379 37.2553 26.6972C37.2674 26.4889 37.2795 26.2806 37.2615 26.1389C37.2587 26.0977 37.2597 26.0778 37.255 26.0764C37.2157 26.0394 37.1259 26.0023 37.006 25.9814C36.8754 25.9624 36.7305 25.9744 36.5833 26.011C36.5517 26.4355 36.4813 26.8382 36.3779 27.216C36.3311 27.3887 36.27 27.5419 36.2121 27.7011C36.2167 27.7025 36.22 27.7085 36.2232 27.7145C36.363 27.8373 36.5222 27.9456 36.6902 28.0415C37.0369 28.2314 37.4383 28.3569 37.8327 28.4047C38.198 28.4488 38.5535 28.4243 38.835 28.3272C39.0998 28.2351 39.3151 28.0727 39.4971 27.8699ZM42.7449 39.2056C41.9046 39.1299 41.0996 38.9033 40.3761 38.5397C39.6387 38.172 38.9754 37.6751 38.4246 37.0555C37.9137 36.4883 37.5069 35.8262 37.1913 35.146C36.8461 34.3964 36.6112 33.5992 36.4863 32.8552C36.3083 31.8177 36.3456 30.9205 36.4328 30.0585C36.1963 29.9723 35.9685 29.8737 35.7524 29.7533C35.6047 29.6736 35.4612 29.5801 35.3223 29.4879C35.2478 29.6018 35.1732 29.7156 35.0848 29.8253C34.7856 30.1998 34.4393 30.5298 34.0003 30.832C33.5373 31.1472 32.9692 31.4257 32.3534 31.5941C32.3321 31.5978 32.3108 31.6015 32.2881 31.6098C32.3741 32.433 32.4854 33.2385 32.6871 33.9955C32.8282 34.5173 33.0132 35.027 33.2451 35.5155C33.4621 35.9692 33.7263 36.417 34.0466 36.8462C34.3687 37.2861 34.7464 37.6922 35.1643 38.0649C35.5744 38.4303 36.0354 38.7605 36.5474 39.0555C37.0593 39.3505 37.6176 39.609 38.1911 39.8165C38.8142 40.044 39.4466 40.2237 40.0604 40.3475C40.6497 40.4689 41.2298 40.5371 41.7774 40.5451C42.2959 40.5494 42.7973 40.493 43.2673 40.3566C43.6372 40.2506 44.0039 40.0882 44.365 39.8939C44.6225 39.6078 44.8674 39.313 45.0967 39.0033C44.3291 39.2069 43.5207 39.277 42.7449 39.2056Z"/>
</mask>
<path fill-rule="evenodd" clip-rule="evenodd" d="M15.5876 6.15202C21.7383 2.60912 29.8472 1.23374 36.6907 2.12281C42.9755 2.94 47.9507 5.66516 52.2213 9.98038C56.3804 14.1965 59.3124 19.3563 60.0087 25.4243C60.7146 31.5609 58.7469 38.3329 55.5647 43.5695C52.8124 48.0975 46.7532 52.3945 42.1452 53.7411C42.0618 53.7665 41.966 53.7832 41.8549 53.8003C41.565 53.9757 41.2979 54.0923 41.1044 54.1149C33.7602 55.6997 27.2233 54.0751 21.2244 50.3562C16.7788 47.5983 13.2606 43.0296 11.5752 37.8858C9.92693 32.8541 10.5972 27.1257 12.4288 22.4374C15.5783 14.3851 21.9218 9.88071 30.4327 9.72113C37.4658 9.59222 43.8993 11.9478 48.0099 17.956C50.5705 21.6972 51.924 26.3326 51.4387 30.7389C50.8231 36.3524 46.8699 42.5939 41.7018 45.0996C38.3529 46.7233 33.8741 46.1102 31.259 45.2897C30.0643 44.9158 26.8415 43.6151 25.2604 42.343C24.8637 42.0675 24.4661 41.7614 24.0592 41.402C23.4654 40.8755 22.8498 40.2365 22.262 39.5554C21.6678 38.8622 21.1041 38.1177 20.6251 37.3935C20.1475 36.6647 19.7468 35.9489 19.4155 35.2035C19.0842 34.458 18.8195 33.6922 18.6109 32.8575C18.3954 31.9954 18.2359 31.0644 18.157 30.1172C18.0845 29.2325 18.0787 28.3274 18.1668 27.4455C18.2573 26.4886 18.4599 25.5452 18.7675 24.6888C19.0635 23.8542 19.4674 23.0973 19.973 22.472C20.5024 21.8185 21.1404 21.3237 21.8442 20.9799C22.572 20.6231 23.3734 20.4247 24.2007 20.3754C25.0114 20.3311 25.8479 20.4359 26.6367 20.6829C26.7154 20.7065 26.7913 20.7394 26.8732 20.769C27.0154 20.6654 27.1955 20.5529 27.4307 20.4419C27.7969 20.2642 28.341 20.049 28.9956 19.9024C29.4817 19.7961 30.0299 19.7184 30.6294 19.7218C31.3757 19.7238 32.1881 19.8416 32.9561 20.1075C33.007 20.1228 33.0551 20.1474 33.1047 20.1673C33.5275 19.7341 34.0451 19.3546 34.8715 19.1737C35.391 19.0572 36.0127 19.037 36.64 19.0992C37.2627 19.1599 37.9182 19.2962 38.5038 19.4973C39.0986 19.7011 39.6189 19.9683 40.0693 20.3004C40.5321 20.6412 40.9251 21.0469 41.2588 21.5154C41.5767 21.9692 41.84 22.4873 42.0306 23.029C42.2258 23.5721 42.3516 24.1448 42.3959 24.7031C42.4398 25.2462 42.4068 25.7762 42.3136 26.2882C42.2135 26.8234 42.0453 27.3331 41.823 27.8214C41.6007 28.3098 41.3168 28.7847 40.9542 29.1855C40.5546 29.6257 40.0698 29.9797 39.4734 30.1842C39.1313 30.2985 38.76 30.3586 38.3707 30.3779C38.3043 31.0696 38.2842 31.7751 38.4188 32.5371C38.5186 33.1121 38.7009 33.7321 38.9757 34.3293C39.2131 34.8498 39.5153 35.3392 39.8823 35.7471C40.2637 36.1745 40.7252 36.52 41.239 36.7752C41.7574 37.0318 42.325 37.1921 42.9185 37.2492C43.5332 37.3026 44.1814 37.2448 44.7939 37.0704C45.3731 36.9062 45.9171 36.6406 46.3695 36.2769C46.6158 36.0783 46.8413 35.8483 47.0507 35.5881C49.3088 30.0842 48.8457 24.7523 45.4563 19.7882C41.8974 14.5815 36.6142 12.6975 30.5241 12.8118C25.5052 12.9046 20.9999 14.6151 17.8286 18.5883C15.3132 21.739 13.9563 25.4849 13.6877 29.7745C13.3852 34.5636 13.7769 38.3349 16.8866 42.0291C24.4732 51.0491 32.2726 52.6541 41.4432 50.4822C43.6808 49.5846 46.0548 47.8801 47.8995 46.3751C51.5663 43.3732 53.7631 38.9813 54.8137 34.1039C56.5772 25.9282 54.6381 19.1589 48.8563 13.305C45.3345 9.73943 41.2482 7.48298 36.0702 6.81142C30.2858 6.0587 23.1529 7.24265 17.9477 10.2418C12.7726 13.2248 8.95583 18.3061 7.36705 23.9505C5.33765 31.1632 6.35991 40.7507 10.0736 46.9375C18.956 61.7262 38.1446 64.4598 52.4001 59.2526C39.0017 69.9251 14.8595 63.302 6.50186 49.3875C2.10232 42.0561 0.439641 31.1561 2.82813 22.6634C4.75977 15.8099 9.31522 9.76434 15.5876 6.15202ZM30.3197 31.695C29.8502 31.5944 29.3952 31.4124 28.9948 31.166C28.9684 31.153 28.9388 31.134 28.9124 31.1211C28.7268 30.9997 28.556 30.8627 28.3926 30.7177C27.9685 31.0042 27.5175 31.2119 27.0444 31.3424C26.6758 31.4437 26.2981 31.4917 25.9235 31.4954C25.9277 31.5824 25.9286 31.6634 25.9374 31.7518C25.9748 32.2324 26.039 32.7412 26.1597 33.2972C26.2929 33.9125 26.4987 34.6051 26.7768 35.3093C27.0215 35.9228 27.3218 36.5529 27.6948 37.1595C28.1002 37.8262 28.5829 38.4708 29.1578 39.0774C29.6933 39.6469 30.3149 40.1818 31.0286 40.6787C31.7674 41.1932 32.5978 41.6545 33.4639 42.0306C34.3161 42.4026 35.1841 42.6884 36.0058 42.8594C36.8182 43.0277 37.6196 43.0816 38.4177 43.079C38.9635 43.0763 39.4811 43.05 39.9908 43.0164C40.2644 42.9118 40.5316 42.7952 40.8029 42.6647C40.9098 42.611 41.0103 42.5453 41.1173 42.4917C40.6437 42.4554 40.1678 42.3933 39.6863 42.2992C38.9633 42.1527 38.2323 41.9484 37.5333 41.6881C36.8514 41.4379 36.1909 41.1336 35.584 40.7848C34.9601 40.4259 34.3926 40.0133 33.8774 39.5609C33.3465 39.0936 32.88 38.5801 32.4815 38.0416C32.1006 37.5286 31.7688 36.9697 31.4912 36.3817C31.2071 35.7817 30.9804 35.1585 30.8116 34.5274C30.5396 33.5677 30.4134 32.6265 30.3197 31.695ZM22.7155 22.7504C22.259 22.9767 21.845 23.2965 21.5014 23.7182C21.1416 24.1602 20.8466 24.7226 20.621 25.3563C20.3713 26.0535 20.2067 26.8368 20.1302 27.6464C20.0568 28.4117 20.059 29.1945 20.125 29.9663C20.1947 30.8098 20.3371 31.6297 20.5249 32.3825C20.7071 33.1034 20.9319 33.7664 21.2202 34.403C21.5039 35.0382 21.8546 35.6684 22.2822 36.3115C22.7149 36.9713 23.2291 37.6455 23.7665 38.2761C24.2973 38.8948 24.8467 39.4685 25.3744 39.9297C25.7326 40.2492 26.0784 40.5095 26.4158 40.7471C27.0472 41.0477 27.6758 41.4584 28.0757 41.74C28.1799 41.7965 28.284 41.853 28.3835 41.9081C28.4798 41.9572 28.5553 42.0253 28.6293 42.098C29.4352 42.456 30.255 42.7678 31.0823 43.0212C30.6731 42.7873 30.2773 42.5424 29.901 42.283C29.0873 41.7157 28.362 41.0892 27.727 40.414C27.0572 39.7033 26.4871 38.9467 26.0109 38.1628C25.5814 37.4585 25.2307 36.7275 24.9494 36.0172C24.625 35.1982 24.3933 34.407 24.236 33.7037C24.0871 33.0231 24.0081 32.4291 23.9703 31.8829C23.9486 31.619 23.9394 31.3639 23.9348 31.1102C23.6205 30.9805 23.3238 30.8258 23.0553 30.6443C22.4855 30.2562 22.0315 29.7514 21.7955 29.1759C21.5692 28.6185 21.5532 28.0333 21.67 27.4931C21.7983 26.8806 22.104 26.3164 22.4365 25.9317C22.7912 25.5235 23.1973 25.2972 23.6024 25.1918C24.0075 25.0863 24.389 25.11 24.7325 25.193C25.0528 25.269 25.3504 25.4037 25.6004 25.5797C25.8503 25.7557 26.054 25.9682 26.2021 26.2146C26.2229 26.246 26.2391 26.2761 26.2599 26.3076C26.5209 26.7998 26.5166 27.2678 26.5031 27.7331C26.5054 27.759 26.5017 27.7882 26.504 27.8141C26.4775 28.3562 26.0177 28.7783 25.4756 28.7518C24.9335 28.7253 24.5114 28.2655 24.5379 27.7234L24.5421 27.659C24.5486 27.4692 24.551 27.2933 24.5232 27.2345L24.5181 27.2178C24.5102 27.2104 24.4977 27.2016 24.482 27.1868C24.432 27.1516 24.3653 27.1215 24.2806 27.1011C24.2144 27.0863 24.1515 27.0775 24.1029 27.0881C24.0589 27.1001 24.0019 27.1386 23.9325 27.2186C23.7935 27.3788 23.6648 27.6227 23.6073 27.8982C23.5656 28.0875 23.5651 28.2741 23.6294 28.4296C23.7104 28.6306 23.9029 28.8297 24.1682 29.0052C24.3774 29.1488 24.6162 29.2609 24.8727 29.348C24.8833 29.3461 24.894 29.3443 24.9046 29.3424C25.0866 29.3415 25.2578 29.393 25.4041 29.4772C25.7851 29.5361 26.1731 29.5214 26.5402 29.4247C26.9087 29.3234 27.2611 29.1416 27.5723 28.8616C27.9177 28.5515 28.2243 28.1187 28.4373 27.6275C28.6523 27.1471 28.7755 26.6189 28.7831 26.1064C28.7887 25.5832 28.6676 25.0624 28.4436 24.5813C28.2196 24.1003 27.8961 23.665 27.4898 23.321C27.0834 22.9769 26.5941 22.724 26.0645 22.5549C25.4979 22.3747 24.8993 22.3009 24.3192 22.3337C23.747 22.3738 23.2067 22.5093 22.7155 22.7504ZM29.4252 21.833C29.2354 21.877 29.0595 21.9251 28.9021 21.9787C29.457 22.4835 29.905 23.0924 30.2173 23.7665C30.3464 24.0424 30.4455 24.3346 30.5278 24.6318C30.6894 24.6147 30.8509 24.5976 31.0056 24.6037C31.431 24.6154 31.8236 24.703 32.1476 24.8507C32.4624 24.9957 32.7068 25.1902 32.8965 25.3986C33.1261 25.6593 33.2783 25.9422 33.3658 26.2056C33.4463 26.4417 33.4819 26.6593 33.4911 26.8639C33.5007 27.0334 33.4901 27.1866 33.4761 27.3338C33.439 27.8778 32.9695 28.2818 32.4255 28.2447C31.8815 28.2075 31.4775 27.738 31.5147 27.194C31.5198 27.1098 31.5235 27.0301 31.5212 26.9537C31.5184 26.9125 31.5157 26.8713 31.5009 26.8366C31.4874 26.7973 31.4662 26.7505 31.4314 26.7148C31.4046 26.6866 31.3717 26.6616 31.3282 26.6384C31.2352 26.5954 31.1074 26.5671 30.962 26.5638C30.8824 26.5601 30.7986 26.5703 30.7088 26.5837C30.6517 27.2276 30.4886 27.8549 30.2366 28.4252C30.1005 28.7274 29.9379 29.0167 29.7596 29.2912C29.8286 29.3473 29.9022 29.4047 29.9785 29.4529L30.041 29.4968C30.2979 29.6497 30.5933 29.7585 30.8895 29.797C31.2011 29.8351 31.5256 29.7963 31.8395 29.7088C32.2354 29.6006 32.6044 29.4137 32.9072 29.2119C33.1739 29.0295 33.379 28.8338 33.5559 28.6144C33.7356 28.3857 33.9 28.107 34.0631 27.7826C34.2289 27.4488 34.3905 27.0785 34.4966 26.6915C34.6 26.3137 34.6621 25.8883 34.6432 25.4133C34.6248 24.9031 34.5101 24.3439 34.2894 23.8184C34.1081 23.3804 33.8559 22.9766 33.524 22.6701C33.1935 22.3589 32.7769 22.1329 32.3288 21.9782C31.7803 21.7882 31.1859 21.7006 30.6354 21.7018C30.1933 21.6953 29.7836 21.7489 29.4252 21.833ZM39.4971 27.8699C39.7162 27.6279 39.8908 27.3321 40.0371 27.0127C40.1965 26.6669 40.3155 26.304 40.3837 25.9258C40.4453 25.586 40.4667 25.229 40.4358 24.8615C40.4058 24.474 40.3142 24.073 40.1773 23.6887C40.0422 23.3151 39.8663 22.9595 39.646 22.6511C39.4369 22.3562 39.1906 22.1006 38.9046 21.8936C38.6074 21.6732 38.2612 21.4985 37.8594 21.3577C37.4298 21.2085 36.9358 21.1056 36.4497 21.0606C36.0127 21.0202 35.6063 21.0294 35.2979 21.0983C35.1461 21.1335 35.0178 21.1908 34.896 21.2603C35.4251 21.7673 35.8231 22.3915 36.097 23.0591C36.2321 23.3823 36.3306 23.7096 36.4125 24.042C36.7291 23.9958 37.0379 23.9926 37.3268 24.039C37.8661 24.1252 38.3443 24.3647 38.6646 24.693C39.0085 25.0435 39.1598 25.4472 39.2171 25.8783C39.2591 26.2088 39.2438 26.512 39.2224 26.8185C39.1899 27.3639 38.7189 27.7725 38.1782 27.7414C37.6329 27.7089 37.2242 27.2379 37.2553 26.6972C37.2674 26.4889 37.2795 26.2806 37.2615 26.1389C37.2587 26.0977 37.2597 26.0778 37.255 26.0764C37.2157 26.0394 37.1259 26.0023 37.006 25.9814C36.8754 25.9624 36.7305 25.9744 36.5833 26.011C36.5517 26.4355 36.4813 26.8382 36.3779 27.216C36.3311 27.3887 36.27 27.5419 36.2121 27.7011C36.2167 27.7025 36.22 27.7085 36.2232 27.7145C36.363 27.8373 36.5222 27.9456 36.6902 28.0415C37.0369 28.2314 37.4383 28.3569 37.8327 28.4047C38.198 28.4488 38.5535 28.4243 38.835 28.3272C39.0998 28.2351 39.3151 28.0727 39.4971 27.8699ZM42.7449 39.2056C41.9046 39.1299 41.0996 38.9033 40.3761 38.5397C39.6387 38.172 38.9754 37.6751 38.4246 37.0555C37.9137 36.4883 37.5069 35.8262 37.1913 35.146C36.8461 34.3964 36.6112 33.5992 36.4863 32.8552C36.3083 31.8177 36.3456 30.9205 36.4328 30.0585C36.1963 29.9723 35.9685 29.8737 35.7524 29.7533C35.6047 29.6736 35.4612 29.5801 35.3223 29.4879C35.2478 29.6018 35.1732 29.7156 35.0848 29.8253C34.7856 30.1998 34.4393 30.5298 34.0003 30.832C33.5373 31.1472 32.9692 31.4257 32.3534 31.5941C32.3321 31.5978 32.3108 31.6015 32.2881 31.6098C32.3741 32.433 32.4854 33.2385 32.6871 33.9955C32.8282 34.5173 33.0132 35.027 33.2451 35.5155C33.4621 35.9692 33.7263 36.417 34.0466 36.8462C34.3687 37.2861 34.7464 37.6922 35.1643 38.0649C35.5744 38.4303 36.0354 38.7605 36.5474 39.0555C37.0593 39.3505 37.6176 39.609 38.1911 39.8165C38.8142 40.044 39.4466 40.2237 40.0604 40.3475C40.6497 40.4689 41.2298 40.5371 41.7774 40.5451C42.2959 40.5494 42.7973 40.493 43.2673 40.3566C43.6372 40.2506 44.0039 40.0882 44.365 39.8939C44.6225 39.6078 44.8674 39.313 45.0967 39.0033C44.3291 39.2069 43.5207 39.277 42.7449 39.2056Z" fill="#134B6D"/>
<path fill-rule="evenodd" clip-rule="evenodd" d="M15.5876 6.15202C21.7383 2.60912 29.8472 1.23374 36.6907 2.12281C42.9755 2.94 47.9507 5.66516 52.2213 9.98038C56.3804 14.1965 59.3124 19.3563 60.0087 25.4243C60.7146 31.5609 58.7469 38.3329 55.5647 43.5695C52.8124 48.0975 46.7532 52.3945 42.1452 53.7411C42.0618 53.7665 41.966 53.7832 41.8549 53.8003C41.565 53.9757 41.2979 54.0923 41.1044 54.1149C33.7602 55.6997 27.2233 54.0751 21.2244 50.3562C16.7788 47.5983 13.2606 43.0296 11.5752 37.8858C9.92693 32.8541 10.5972 27.1257 12.4288 22.4374C15.5783 14.3851 21.9218 9.88071 30.4327 9.72113C37.4658 9.59222 43.8993 11.9478 48.0099 17.956C50.5705 21.6972 51.924 26.3326 51.4387 30.7389C50.8231 36.3524 46.8699 42.5939 41.7018 45.0996C38.3529 46.7233 33.8741 46.1102 31.259 45.2897C30.0643 44.9158 26.8415 43.6151 25.2604 42.343C24.8637 42.0675 24.4661 41.7614 24.0592 41.402C23.4654 40.8755 22.8498 40.2365 22.262 39.5554C21.6678 38.8622 21.1041 38.1177 20.6251 37.3935C20.1475 36.6647 19.7468 35.9489 19.4155 35.2035C19.0842 34.458 18.8195 33.6922 18.6109 32.8575C18.3954 31.9954 18.2359 31.0644 18.157 30.1172C18.0845 29.2325 18.0787 28.3274 18.1668 27.4455C18.2573 26.4886 18.4599 25.5452 18.7675 24.6888C19.0635 23.8542 19.4674 23.0973 19.973 22.472C20.5024 21.8185 21.1404 21.3237 21.8442 20.9799C22.572 20.6231 23.3734 20.4247 24.2007 20.3754C25.0114 20.3311 25.8479 20.4359 26.6367 20.6829C26.7154 20.7065 26.7913 20.7394 26.8732 20.769C27.0154 20.6654 27.1955 20.5529 27.4307 20.4419C27.7969 20.2642 28.341 20.049 28.9956 19.9024C29.4817 19.7961 30.0299 19.7184 30.6294 19.7218C31.3757 19.7238 32.1881 19.8416 32.9561 20.1075C33.007 20.1228 33.0551 20.1474 33.1047 20.1673C33.5275 19.7341 34.0451 19.3546 34.8715 19.1737C35.391 19.0572 36.0127 19.037 36.64 19.0992C37.2627 19.1599 37.9182 19.2962 38.5038 19.4973C39.0986 19.7011 39.6189 19.9683 40.0693 20.3004C40.5321 20.6412 40.9251 21.0469 41.2588 21.5154C41.5767 21.9692 41.84 22.4873 42.0306 23.029C42.2258 23.5721 42.3516 24.1448 42.3959 24.7031C42.4398 25.2462 42.4068 25.7762 42.3136 26.2882C42.2135 26.8234 42.0453 27.3331 41.823 27.8214C41.6007 28.3098 41.3168 28.7847 40.9542 29.1855C40.5546 29.6257 40.0698 29.9797 39.4734 30.1842C39.1313 30.2985 38.76 30.3586 38.3707 30.3779C38.3043 31.0696 38.2842 31.7751 38.4188 32.5371C38.5186 33.1121 38.7009 33.7321 38.9757 34.3293C39.2131 34.8498 39.5153 35.3392 39.8823 35.7471C40.2637 36.1745 40.7252 36.52 41.239 36.7752C41.7574 37.0318 42.325 37.1921 42.9185 37.2492C43.5332 37.3026 44.1814 37.2448 44.7939 37.0704C45.3731 36.9062 45.9171 36.6406 46.3695 36.2769C46.6158 36.0783 46.8413 35.8483 47.0507 35.5881C49.3088 30.0842 48.8457 24.7523 45.4563 19.7882C41.8974 14.5815 36.6142 12.6975 30.5241 12.8118C25.5052 12.9046 20.9999 14.6151 17.8286 18.5883C15.3132 21.739 13.9563 25.4849 13.6877 29.7745C13.3852 34.5636 13.7769 38.3349 16.8866 42.0291C24.4732 51.0491 32.2726 52.6541 41.4432 50.4822C43.6808 49.5846 46.0548 47.8801 47.8995 46.3751C51.5663 43.3732 53.7631 38.9813 54.8137 34.1039C56.5772 25.9282 54.6381 19.1589 48.8563 13.305C45.3345 9.73943 41.2482 7.48298 36.0702 6.81142C30.2858 6.0587 23.1529 7.24265 17.9477 10.2418C12.7726 13.2248 8.95583 18.3061 7.36705 23.9505C5.33765 31.1632 6.35991 40.7507 10.0736 46.9375C18.956 61.7262 38.1446 64.4598 52.4001 59.2526C39.0017 69.9251 14.8595 63.302 6.50186 49.3875C2.10232 42.0561 0.439641 31.1561 2.82813 22.6634C4.75977 15.8099 9.31522 9.76434 15.5876 6.15202ZM30.3197 31.695C29.8502 31.5944 29.3952 31.4124 28.9948 31.166C28.9684 31.153 28.9388 31.134 28.9124 31.1211C28.7268 30.9997 28.556 30.8627 28.3926 30.7177C27.9685 31.0042 27.5175 31.2119 27.0444 31.3424C26.6758 31.4437 26.2981 31.4917 25.9235 31.4954C25.9277 31.5824 25.9286 31.6634 25.9374 31.7518C25.9748 32.2324 26.039 32.7412 26.1597 33.2972C26.2929 33.9125 26.4987 34.6051 26.7768 35.3093C27.0215 35.9228 27.3218 36.5529 27.6948 37.1595C28.1002 37.8262 28.5829 38.4708 29.1578 39.0774C29.6933 39.6469 30.3149 40.1818 31.0286 40.6787C31.7674 41.1932 32.5978 41.6545 33.4639 42.0306C34.3161 42.4026 35.1841 42.6884 36.0058 42.8594C36.8182 43.0277 37.6196 43.0816 38.4177 43.079C38.9635 43.0763 39.4811 43.05 39.9908 43.0164C40.2644 42.9118 40.5316 42.7952 40.8029 42.6647C40.9098 42.611 41.0103 42.5453 41.1173 42.4917C40.6437 42.4554 40.1678 42.3933 39.6863 42.2992C38.9633 42.1527 38.2323 41.9484 37.5333 41.6881C36.8514 41.4379 36.1909 41.1336 35.584 40.7848C34.9601 40.4259 34.3926 40.0133 33.8774 39.5609C33.3465 39.0936 32.88 38.5801 32.4815 38.0416C32.1006 37.5286 31.7688 36.9697 31.4912 36.3817C31.2071 35.7817 30.9804 35.1585 30.8116 34.5274C30.5396 33.5677 30.4134 32.6265 30.3197 31.695ZM22.7155 22.7504C22.259 22.9767 21.845 23.2965 21.5014 23.7182C21.1416 24.1602 20.8466 24.7226 20.621 25.3563C20.3713 26.0535 20.2067 26.8368 20.1302 27.6464C20.0568 28.4117 20.059 29.1945 20.125 29.9663C20.1947 30.8098 20.3371 31.6297 20.5249 32.3825C20.7071 33.1034 20.9319 33.7664 21.2202 34.403C21.5039 35.0382 21.8546 35.6684 22.2822 36.3115C22.7149 36.9713 23.2291 37.6455 23.7665 38.2761C24.2973 38.8948 24.8467 39.4685 25.3744 39.9297C25.7326 40.2492 26.0784 40.5095 26.4158 40.7471C27.0472 41.0477 27.6758 41.4584 28.0757 41.74C28.1799 41.7965 28.284 41.853 28.3835 41.9081C28.4798 41.9572 28.5553 42.0253 28.6293 42.098C29.4352 42.456 30.255 42.7678 31.0823 43.0212C30.6731 42.7873 30.2773 42.5424 29.901 42.283C29.0873 41.7157 28.362 41.0892 27.727 40.414C27.0572 39.7033 26.4871 38.9467 26.0109 38.1628C25.5814 37.4585 25.2307 36.7275 24.9494 36.0172C24.625 35.1982 24.3933 34.407 24.236 33.7037C24.0871 33.0231 24.0081 32.4291 23.9703 31.8829C23.9486 31.619 23.9394 31.3639 23.9348 31.1102C23.6205 30.9805 23.3238 30.8258 23.0553 30.6443C22.4855 30.2562 22.0315 29.7514 21.7955 29.1759C21.5692 28.6185 21.5532 28.0333 21.67 27.4931C21.7983 26.8806 22.104 26.3164 22.4365 25.9317C22.7912 25.5235 23.1973 25.2972 23.6024 25.1918C24.0075 25.0863 24.389 25.11 24.7325 25.193C25.0528 25.269 25.3504 25.4037 25.6004 25.5797C25.8503 25.7557 26.054 25.9682 26.2021 26.2146C26.2229 26.246 26.2391 26.2761 26.2599 26.3076C26.5209 26.7998 26.5166 27.2678 26.5031 27.7331C26.5054 27.759 26.5017 27.7882 26.504 27.8141C26.4775 28.3562 26.0177 28.7783 25.4756 28.7518C24.9335 28.7253 24.5114 28.2655 24.5379 27.7234L24.5421 27.659C24.5486 27.4692 24.551 27.2933 24.5232 27.2345L24.5181 27.2178C24.5102 27.2104 24.4977 27.2016 24.482 27.1868C24.432 27.1516 24.3653 27.1215 24.2806 27.1011C24.2144 27.0863 24.1515 27.0775 24.1029 27.0881C24.0589 27.1001 24.0019 27.1386 23.9325 27.2186C23.7935 27.3788 23.6648 27.6227 23.6073 27.8982C23.5656 28.0875 23.5651 28.2741 23.6294 28.4296C23.7104 28.6306 23.9029 28.8297 24.1682 29.0052C24.3774 29.1488 24.6162 29.2609 24.8727 29.348C24.8833 29.3461 24.894 29.3443 24.9046 29.3424C25.0866 29.3415 25.2578 29.393 25.4041 29.4772C25.7851 29.5361 26.1731 29.5214 26.5402 29.4247C26.9087 29.3234 27.2611 29.1416 27.5723 28.8616C27.9177 28.5515 28.2243 28.1187 28.4373 27.6275C28.6523 27.1471 28.7755 26.6189 28.7831 26.1064C28.7887 25.5832 28.6676 25.0624 28.4436 24.5813C28.2196 24.1003 27.8961 23.665 27.4898 23.321C27.0834 22.9769 26.5941 22.724 26.0645 22.5549C25.4979 22.3747 24.8993 22.3009 24.3192 22.3337C23.747 22.3738 23.2067 22.5093 22.7155 22.7504ZM29.4252 21.833C29.2354 21.877 29.0595 21.9251 28.9021 21.9787C29.457 22.4835 29.905 23.0924 30.2173 23.7665C30.3464 24.0424 30.4455 24.3346 30.5278 24.6318C30.6894 24.6147 30.8509 24.5976 31.0056 24.6037C31.431 24.6154 31.8236 24.703 32.1476 24.8507C32.4624 24.9957 32.7068 25.1902 32.8965 25.3986C33.1261 25.6593 33.2783 25.9422 33.3658 26.2056C33.4463 26.4417 33.4819 26.6593 33.4911 26.8639C33.5007 27.0334 33.4901 27.1866 33.4761 27.3338C33.439 27.8778 32.9695 28.2818 32.4255 28.2447C31.8815 28.2075 31.4775 27.738 31.5147 27.194C31.5198 27.1098 31.5235 27.0301 31.5212 26.9537C31.5184 26.9125 31.5157 26.8713 31.5009 26.8366C31.4874 26.7973 31.4662 26.7505 31.4314 26.7148C31.4046 26.6866 31.3717 26.6616 31.3282 26.6384C31.2352 26.5954 31.1074 26.5671 30.962 26.5638C30.8824 26.5601 30.7986 26.5703 30.7088 26.5837C30.6517 27.2276 30.4886 27.8549 30.2366 28.4252C30.1005 28.7274 29.9379 29.0167 29.7596 29.2912C29.8286 29.3473 29.9022 29.4047 29.9785 29.4529L30.041 29.4968C30.2979 29.6497 30.5933 29.7585 30.8895 29.797C31.2011 29.8351 31.5256 29.7963 31.8395 29.7088C32.2354 29.6006 32.6044 29.4137 32.9072 29.2119C33.1739 29.0295 33.379 28.8338 33.5559 28.6144C33.7356 28.3857 33.9 28.107 34.0631 27.7826C34.2289 27.4488 34.3905 27.0785 34.4966 26.6915C34.6 26.3137 34.6621 25.8883 34.6432 25.4133C34.6248 24.9031 34.5101 24.3439 34.2894 23.8184C34.1081 23.3804 33.8559 22.9766 33.524 22.6701C33.1935 22.3589 32.7769 22.1329 32.3288 21.9782C31.7803 21.7882 31.1859 21.7006 30.6354 21.7018C30.1933 21.6953 29.7836 21.7489 29.4252 21.833ZM39.4971 27.8699C39.7162 27.6279 39.8908 27.3321 40.0371 27.0127C40.1965 26.6669 40.3155 26.304 40.3837 25.9258C40.4453 25.586 40.4667 25.229 40.4358 24.8615C40.4058 24.474 40.3142 24.073 40.1773 23.6887C40.0422 23.3151 39.8663 22.9595 39.646 22.6511C39.4369 22.3562 39.1906 22.1006 38.9046 21.8936C38.6074 21.6732 38.2612 21.4985 37.8594 21.3577C37.4298 21.2085 36.9358 21.1056 36.4497 21.0606C36.0127 21.0202 35.6063 21.0294 35.2979 21.0983C35.1461 21.1335 35.0178 21.1908 34.896 21.2603C35.4251 21.7673 35.8231 22.3915 36.097 23.0591C36.2321 23.3823 36.3306 23.7096 36.4125 24.042C36.7291 23.9958 37.0379 23.9926 37.3268 24.039C37.8661 24.1252 38.3443 24.3647 38.6646 24.693C39.0085 25.0435 39.1598 25.4472 39.2171 25.8783C39.2591 26.2088 39.2438 26.512 39.2224 26.8185C39.1899 27.3639 38.7189 27.7725 38.1782 27.7414C37.6329 27.7089 37.2242 27.2379 37.2553 26.6972C37.2674 26.4889 37.2795 26.2806 37.2615 26.1389C37.2587 26.0977 37.2597 26.0778 37.255 26.0764C37.2157 26.0394 37.1259 26.0023 37.006 25.9814C36.8754 25.9624 36.7305 25.9744 36.5833 26.011C36.5517 26.4355 36.4813 26.8382 36.3779 27.216C36.3311 27.3887 36.27 27.5419 36.2121 27.7011C36.2167 27.7025 36.22 27.7085 36.2232 27.7145C36.363 27.8373 36.5222 27.9456 36.6902 28.0415C37.0369 28.2314 37.4383 28.3569 37.8327 28.4047C38.198 28.4488 38.5535 28.4243 38.835 28.3272C39.0998 28.2351 39.3151 28.0727 39.4971 27.8699ZM42.7449 39.2056C41.9046 39.1299 41.0996 38.9033 40.3761 38.5397C39.6387 38.172 38.9754 37.6751 38.4246 37.0555C37.9137 36.4883 37.5069 35.8262 37.1913 35.146C36.8461 34.3964 36.6112 33.5992 36.4863 32.8552C36.3083 31.8177 36.3456 30.9205 36.4328 30.0585C36.1963 29.9723 35.9685 29.8737 35.7524 29.7533C35.6047 29.6736 35.4612 29.5801 35.3223 29.4879C35.2478 29.6018 35.1732 29.7156 35.0848 29.8253C34.7856 30.1998 34.4393 30.5298 34.0003 30.832C33.5373 31.1472 32.9692 31.4257 32.3534 31.5941C32.3321 31.5978 32.3108 31.6015 32.2881 31.6098C32.3741 32.433 32.4854 33.2385 32.6871 33.9955C32.8282 34.5173 33.0132 35.027 33.2451 35.5155C33.4621 35.9692 33.7263 36.417 34.0466 36.8462C34.3687 37.2861 34.7464 37.6922 35.1643 38.0649C35.5744 38.4303 36.0354 38.7605 36.5474 39.0555C37.0593 39.3505 37.6176 39.609 38.1911 39.8165C38.8142 40.044 39.4466 40.2237 40.0604 40.3475C40.6497 40.4689 41.2298 40.5371 41.7774 40.5451C42.2959 40.5494 42.7973 40.493 43.2673 40.3566C43.6372 40.2506 44.0039 40.0882 44.365 39.8939C44.6225 39.6078 44.8674 39.313 45.0967 39.0033C44.3291 39.2069 43.5207 39.277 42.7449 39.2056Z" stroke="white" stroke-width="2" mask="url(#path-1-outside-1_403_1363)"/>
</svg>
