<svg width="63" height="66" viewBox="0 0 63 66" fill="none" xmlns="http://www.w3.org/2000/svg">
<mask id="path-1-outside-1_403_1368" maskUnits="userSpaceOnUse" x="0.000976562" y="0.547119" width="63" height="65" fill="black">
<rect fill="white" x="0.000976562" y="0.547119" width="63" height="65"/>
<path fill-rule="evenodd" clip-rule="evenodd" d="M19.5614 35.8141C19.7787 37.2484 20.1949 38.7014 20.7914 40.0661C21.374 41.403 22.1324 42.6888 23.0479 43.8354C23.9404 44.9541 24.9669 45.9103 26.0351 46.6902C27.1957 47.535 28.4211 48.1802 29.5956 48.5934C31.3528 49.2154 32.9203 49.3175 34.4463 49.3036C34.7607 49.4568 35.126 49.5218 35.5006 49.4614C38.3721 48.9972 40.1755 49.0715 42.9823 47.5953C49.5254 44.1557 53.4975 39.3837 53.4836 31.6409C53.4697 25.5646 51.6201 19.9618 47.3058 15.4916C42.7419 10.7614 36.8693 8.67253 30.3031 9.29455C17.143 10.5386 7.95498 21.8371 9.8601 35.0899C11.9086 49.3268 22.322 56.986 35.5746 56.9303C35.7318 56.9535 35.889 56.9582 36.0508 56.9489C36.1849 56.9396 36.3144 56.9257 36.4439 56.9164C36.9618 56.9025 37.4797 56.8793 38.0022 56.8421C38.1687 56.8282 38.3259 56.7772 38.4692 56.6936C45.077 55.7095 50.8664 52.4091 55.0511 47.6743C59.7399 42.3685 62.408 35.2617 61.9503 27.6256C61.4925 19.985 57.9921 13.2541 52.7067 8.55184C47.8283 4.2116 41.424 1.59818 34.4879 1.57961C34.3769 1.56569 34.2613 1.54712 34.1457 1.54712C32.4441 1.5564 30.7378 1.57033 28.8465 1.77922C21.3787 2.5962 13.3004 6.82503 8.17694 12.8503C3.96441 17.8033 1.5599 24.2742 1.07437 30.8286C0.436247 39.5091 4.00141 49.8235 10.1283 55.8163C17.721 63.248 37.0311 67.6997 48.2584 61.8694C36.8323 63.0809 21.3417 61.8415 13.1201 52.7943C9.90172 49.2572 7.12265 44.6431 6.23945 39.6344C4.76438 31.2603 6.19784 22.4499 11.756 15.914C14.9558 12.1494 19.6909 9.21563 24.0652 7.67915C27.1772 6.58829 29.5818 6.35619 32.4071 6.2912C32.6059 6.33298 32.8094 6.35619 33.0221 6.34226C39.3339 5.96162 45.1972 8.18512 49.5809 12.0844C53.9645 15.9836 56.8638 21.5679 57.2476 27.8995C57.6267 34.2358 55.4118 40.1218 51.5276 44.5224C47.9208 48.6073 42.8667 51.4064 37.1144 52.0934C25.7762 52.293 16.2136 48.7651 14.0819 33.948C12.4635 22.7145 19.5105 13.9087 30.636 12.8596C36.1248 12.3397 40.9246 14.0247 44.7441 17.9797C48.4063 21.7768 50.3808 26.7994 50.3947 31.9612C50.4086 38.33 46.7278 41.5794 41.3408 44.411C39.1443 45.5668 37.7432 45.5297 35.5977 45.8221C33.9931 45.8778 32.3839 45.915 30.747 45.3347C29.8731 45.0237 28.9483 44.5363 28.0651 43.8911C27.2235 43.2783 26.4235 42.531 25.7392 41.6769C25.0363 40.7949 24.4352 39.7737 23.9589 38.6782C23.4734 37.5641 23.1404 36.4129 22.974 35.3034C22.8121 34.2126 22.8075 33.1357 22.9508 32.0401C23.0942 30.9214 23.3948 29.7888 23.8248 28.6051C24.0421 28.0156 24.2918 27.4121 24.56 26.8133C24.6895 26.7855 24.8143 26.7297 24.9299 26.6508C25.8779 25.987 26.8212 25.3279 27.4177 25.0633C27.6073 24.9797 27.7368 24.9472 27.8339 24.9519C27.9402 24.9519 28.0697 24.9937 28.2223 25.0401L28.3518 25.0819C28.9251 25.2675 29.5771 25.4811 30.28 25.3C30.7655 25.1747 31.1262 24.9101 31.4314 24.5852C31.8106 25.1283 32.1296 25.6018 32.4209 26.0381C31.3805 27.881 30.5482 29.8956 29.9702 31.3624C29.2442 33.2053 27.635 39.5555 29.0592 43.4594C30.0072 39.8758 31.4083 35.6098 33.0267 31.9891C33.2995 31.9612 33.5585 31.8313 33.7434 31.5945C34.0162 31.2417 34.2891 30.8889 34.5388 30.6197C34.77 30.3644 35.0058 30.1462 35.237 30.0023C35.4266 29.8816 35.6439 29.8027 35.8612 29.7517C36.1479 29.6867 36.4346 29.6681 36.6982 29.682C36.9479 29.6913 37.2161 29.7331 37.4612 29.7702C37.7525 29.8166 38.0114 29.8538 38.312 29.8538C38.6588 29.8538 38.9779 29.7888 39.2738 29.6635C39.5651 29.5428 39.8241 29.3664 40.0553 29.1482C40.2217 28.9904 40.3697 28.8093 40.5084 28.6237C42.1916 30.9493 43.2228 33.066 44.966 36.5521C45.3175 32.6993 40.8784 23.4572 39.6807 22.3802C38.6264 21.4286 37.5953 20.9784 36.3005 21.6282C35.6855 21.9392 35.0983 22.4266 34.5434 23.0255C34.4463 22.8816 34.3446 22.7377 34.2336 22.5798C33.7434 21.8789 33.2163 21.1408 32.7816 20.5559C32.3932 20.0268 31.9724 19.4836 31.5701 18.987C31.1401 18.4578 30.7979 18.0771 30.5158 17.8079C30.169 17.469 29.8592 17.2462 29.5633 17.0745C29.124 16.8192 28.7032 16.6892 28.2084 16.6938C27.7321 16.6985 27.3067 16.8284 26.8489 17.1023C26.5299 17.2926 26.1646 17.5665 25.6975 18.0864C25.323 18.5088 24.8698 19.1123 24.3011 20.0082C23.6999 20.9551 22.9323 22.2874 22.1925 23.7589C22.137 23.6939 22.0723 23.6382 21.989 23.6011L19.8204 22.5056C19.788 22.4916 19.7556 22.4916 19.7232 22.4777C19.6724 22.4591 19.6261 22.4406 19.5753 22.4359C19.5337 22.4313 19.492 22.4406 19.4458 22.4452C19.3996 22.4499 19.3579 22.4499 19.3117 22.4638C19.2608 22.4777 19.2192 22.5056 19.1776 22.5288C19.1452 22.5473 19.1129 22.552 19.0851 22.5752L16.8424 24.3206C16.5419 24.5527 16.4864 24.989 16.7176 25.2907C16.9488 25.5925 17.3835 25.6482 17.684 25.4161L18.8955 24.4738L18.9834 25.9685L17.365 27.0454C17.0459 27.2543 16.9627 27.686 17.1708 28.0016C17.3788 28.3219 17.8089 28.4055 18.1233 28.1966L19.0759 27.5607L19.21 29.812C19.2285 30.1137 19.4366 30.3505 19.7094 30.4294C19.6308 30.8193 19.5614 31.2046 19.5105 31.5899C19.3394 32.9917 19.3487 34.3843 19.5614 35.8141ZM37.4334 25.0169C37.7802 25.3325 38.2334 25.8106 38.7189 26.3816C38.8715 26.5626 39.0195 26.739 39.1628 26.9154C38.9779 27.2125 38.7975 27.491 38.6264 27.6535C38.571 27.7046 38.5155 27.7463 38.4692 27.7649C38.423 27.7835 38.3675 27.7928 38.2935 27.7928C38.1825 27.7928 37.9837 27.7649 37.7664 27.7278C37.4843 27.686 37.1745 27.6349 36.7768 27.621C36.3976 27.6071 35.9861 27.6256 35.5653 27.7092C36.0878 27.3657 36.3606 26.7808 36.3375 26.1959C36.6936 25.7364 37.0635 25.3372 37.4334 25.0169ZM27.205 21.8743C27.6628 21.1548 27.9911 20.7045 28.2362 20.4213C28.4211 20.6116 28.6385 20.853 28.8974 21.1733C29.1748 21.5168 29.5679 22.0367 30.0072 22.6263C30.0673 22.7098 30.1228 22.7841 30.1829 22.8676C30.0072 23.0858 29.85 23.2715 29.7621 23.2947C29.6373 23.3272 29.2858 23.2111 28.976 23.1137L28.8419 23.0719C28.5229 22.9698 28.2269 22.8862 27.857 22.8816C27.4778 22.8769 27.0755 22.9512 26.5807 23.1694C26.5114 23.2019 26.4374 23.239 26.3634 23.2715C26.664 22.7516 26.9507 22.2735 27.205 21.8743ZM21.633 24.9147C21.4342 25.3372 21.2446 25.7689 21.0642 26.2006L20.3614 25.8431L20.2689 24.2834L21.3694 24.8405C21.4526 24.8869 21.5451 24.9101 21.633 24.9147ZM20.4585 27.4446L20.5602 27.4957C20.5325 27.5792 20.5047 27.6581 20.477 27.7371L20.4585 27.4446Z"/>
<path fill-rule="evenodd" clip-rule="evenodd" d="M36.3237 39.6251C36.6612 39.7969 37.0774 39.6576 37.2485 39.3187C37.4196 38.9752 37.2808 38.5621 36.9433 38.3903L34.7746 37.2948C34.7422 37.2809 34.7099 37.2809 34.6821 37.267C34.6313 37.2484 34.585 37.2299 34.5341 37.2252C34.4925 37.2206 34.4509 37.2298 34.4047 37.2345C34.3584 37.2391 34.3168 37.2391 34.2706 37.2531C34.2243 37.267 34.1827 37.2948 34.1365 37.318C34.1041 37.3366 34.0717 37.3413 34.044 37.3645L31.8013 39.1098C31.5008 39.3419 31.4453 39.7783 31.6765 40.08C31.9077 40.3817 32.3423 40.4374 32.6429 40.2053L33.8544 39.263L33.9423 40.7577L32.3238 41.8347C32.0048 42.0436 31.9216 42.4753 32.1296 42.7909C32.3377 43.1112 32.7678 43.1948 33.0822 42.9859L34.0347 42.3499L34.1688 44.6013C34.192 44.9819 34.5203 45.2744 34.8994 45.2512C35.2786 45.228 35.5699 44.8984 35.5468 44.5177L35.4081 42.2246L36.5086 42.7816C36.8508 42.9534 37.2623 42.8141 37.4334 42.4753C37.6045 42.1318 37.4658 41.7186 37.1282 41.5469L35.3156 40.6324L35.2231 39.0727L36.3237 39.6251Z"/>
<path fill-rule="evenodd" clip-rule="evenodd" d="M41.8957 35.9162C42.2379 36.0879 42.6494 35.9487 42.8205 35.6098C42.9916 35.2663 42.8529 34.8532 42.5153 34.6814L40.3466 33.5859C40.3142 33.572 40.2819 33.572 40.2541 33.5581C40.2033 33.5395 40.157 33.5209 40.1062 33.5163C40.0645 33.5116 40.0229 33.5209 39.9767 33.5256C39.9304 33.5302 39.8888 33.5302 39.8426 33.5441C39.7963 33.5581 39.7547 33.5859 39.7085 33.6091C39.6761 33.6277 39.6437 33.6323 39.616 33.6555L37.3733 35.4009C37.0728 35.633 37.0173 36.0694 37.2485 36.3711C37.4797 36.6728 37.9143 36.7285 38.2149 36.4964L39.4264 35.5541L39.5143 37.0488L37.8958 38.1257C37.5768 38.3346 37.4935 38.7663 37.7016 39.082C37.9097 39.4023 38.3398 39.4858 38.6542 39.2769L39.6068 38.641L39.7409 40.8923C39.764 41.273 40.0923 41.5654 40.4715 41.5422C40.8506 41.519 41.1419 41.1894 41.1188 40.8088L40.9801 38.5157L42.0806 39.0727C42.4228 39.2445 42.8344 39.1052 43.0054 38.7663C43.1765 38.4228 43.0378 38.0097 42.7003 37.8379L40.8876 36.9235L40.7951 35.3638L41.8957 35.9162Z"/>
</mask>
<path fill-rule="evenodd" clip-rule="evenodd" d="M19.5614 35.8141C19.7787 37.2484 20.1949 38.7014 20.7914 40.0661C21.374 41.403 22.1324 42.6888 23.0479 43.8354C23.9404 44.9541 24.9669 45.9103 26.0351 46.6902C27.1957 47.535 28.4211 48.1802 29.5956 48.5934C31.3528 49.2154 32.9203 49.3175 34.4463 49.3036C34.7607 49.4568 35.126 49.5218 35.5006 49.4614C38.3721 48.9972 40.1755 49.0715 42.9823 47.5953C49.5254 44.1557 53.4975 39.3837 53.4836 31.6409C53.4697 25.5646 51.6201 19.9618 47.3058 15.4916C42.7419 10.7614 36.8693 8.67253 30.3031 9.29455C17.143 10.5386 7.95498 21.8371 9.8601 35.0899C11.9086 49.3268 22.322 56.986 35.5746 56.9303C35.7318 56.9535 35.889 56.9582 36.0508 56.9489C36.1849 56.9396 36.3144 56.9257 36.4439 56.9164C36.9618 56.9025 37.4797 56.8793 38.0022 56.8421C38.1687 56.8282 38.3259 56.7772 38.4692 56.6936C45.077 55.7095 50.8664 52.4091 55.0511 47.6743C59.7399 42.3685 62.408 35.2617 61.9503 27.6256C61.4925 19.985 57.9921 13.2541 52.7067 8.55184C47.8283 4.2116 41.424 1.59818 34.4879 1.57961C34.3769 1.56569 34.2613 1.54712 34.1457 1.54712C32.4441 1.5564 30.7378 1.57033 28.8465 1.77922C21.3787 2.5962 13.3004 6.82503 8.17694 12.8503C3.96441 17.8033 1.5599 24.2742 1.07437 30.8286C0.436247 39.5091 4.00141 49.8235 10.1283 55.8163C17.721 63.248 37.0311 67.6997 48.2584 61.8694C36.8323 63.0809 21.3417 61.8415 13.1201 52.7943C9.90172 49.2572 7.12265 44.6431 6.23945 39.6344C4.76438 31.2603 6.19784 22.4499 11.756 15.914C14.9558 12.1494 19.6909 9.21563 24.0652 7.67915C27.1772 6.58829 29.5818 6.35619 32.4071 6.2912C32.6059 6.33298 32.8094 6.35619 33.0221 6.34226C39.3339 5.96162 45.1972 8.18512 49.5809 12.0844C53.9645 15.9836 56.8638 21.5679 57.2476 27.8995C57.6267 34.2358 55.4118 40.1218 51.5276 44.5224C47.9208 48.6073 42.8667 51.4064 37.1144 52.0934C25.7762 52.293 16.2136 48.7651 14.0819 33.948C12.4635 22.7145 19.5105 13.9087 30.636 12.8596C36.1248 12.3397 40.9246 14.0247 44.7441 17.9797C48.4063 21.7768 50.3808 26.7994 50.3947 31.9612C50.4086 38.33 46.7278 41.5794 41.3408 44.411C39.1443 45.5668 37.7432 45.5297 35.5977 45.8221C33.9931 45.8778 32.3839 45.915 30.747 45.3347C29.8731 45.0237 28.9483 44.5363 28.0651 43.8911C27.2235 43.2783 26.4235 42.531 25.7392 41.6769C25.0363 40.7949 24.4352 39.7737 23.9589 38.6782C23.4734 37.5641 23.1404 36.4129 22.974 35.3034C22.8121 34.2126 22.8075 33.1357 22.9508 32.0401C23.0942 30.9214 23.3948 29.7888 23.8248 28.6051C24.0421 28.0156 24.2918 27.4121 24.56 26.8133C24.6895 26.7855 24.8143 26.7297 24.9299 26.6508C25.8779 25.987 26.8212 25.3279 27.4177 25.0633C27.6073 24.9797 27.7368 24.9472 27.8339 24.9519C27.9402 24.9519 28.0697 24.9937 28.2223 25.0401L28.3518 25.0819C28.9251 25.2675 29.5771 25.4811 30.28 25.3C30.7655 25.1747 31.1262 24.9101 31.4314 24.5852C31.8106 25.1283 32.1296 25.6018 32.4209 26.0381C31.3805 27.881 30.5482 29.8956 29.9702 31.3624C29.2442 33.2053 27.635 39.5555 29.0592 43.4594C30.0072 39.8758 31.4083 35.6098 33.0267 31.9891C33.2995 31.9612 33.5585 31.8313 33.7434 31.5945C34.0162 31.2417 34.2891 30.8889 34.5388 30.6197C34.77 30.3644 35.0058 30.1462 35.237 30.0023C35.4266 29.8816 35.6439 29.8027 35.8612 29.7517C36.1479 29.6867 36.4346 29.6681 36.6982 29.682C36.9479 29.6913 37.2161 29.7331 37.4612 29.7702C37.7525 29.8166 38.0114 29.8538 38.312 29.8538C38.6588 29.8538 38.9779 29.7888 39.2738 29.6635C39.5651 29.5428 39.8241 29.3664 40.0553 29.1482C40.2217 28.9904 40.3697 28.8093 40.5084 28.6237C42.1916 30.9493 43.2228 33.066 44.966 36.5521C45.3175 32.6993 40.8784 23.4572 39.6807 22.3802C38.6264 21.4286 37.5953 20.9784 36.3005 21.6282C35.6855 21.9392 35.0983 22.4266 34.5434 23.0255C34.4463 22.8816 34.3446 22.7377 34.2336 22.5798C33.7434 21.8789 33.2163 21.1408 32.7816 20.5559C32.3932 20.0268 31.9724 19.4836 31.5701 18.987C31.1401 18.4578 30.7979 18.0771 30.5158 17.8079C30.169 17.469 29.8592 17.2462 29.5633 17.0745C29.124 16.8192 28.7032 16.6892 28.2084 16.6938C27.7321 16.6985 27.3067 16.8284 26.8489 17.1023C26.5299 17.2926 26.1646 17.5665 25.6975 18.0864C25.323 18.5088 24.8698 19.1123 24.3011 20.0082C23.6999 20.9551 22.9323 22.2874 22.1925 23.7589C22.137 23.6939 22.0723 23.6382 21.989 23.6011L19.8204 22.5056C19.788 22.4916 19.7556 22.4916 19.7232 22.4777C19.6724 22.4591 19.6261 22.4406 19.5753 22.4359C19.5337 22.4313 19.492 22.4406 19.4458 22.4452C19.3996 22.4499 19.3579 22.4499 19.3117 22.4638C19.2608 22.4777 19.2192 22.5056 19.1776 22.5288C19.1452 22.5473 19.1129 22.552 19.0851 22.5752L16.8424 24.3206C16.5419 24.5527 16.4864 24.989 16.7176 25.2907C16.9488 25.5925 17.3835 25.6482 17.684 25.4161L18.8955 24.4738L18.9834 25.9685L17.365 27.0454C17.0459 27.2543 16.9627 27.686 17.1708 28.0016C17.3788 28.3219 17.8089 28.4055 18.1233 28.1966L19.0759 27.5607L19.21 29.812C19.2285 30.1137 19.4366 30.3505 19.7094 30.4294C19.6308 30.8193 19.5614 31.2046 19.5105 31.5899C19.3394 32.9917 19.3487 34.3843 19.5614 35.8141ZM37.4334 25.0169C37.7802 25.3325 38.2334 25.8106 38.7189 26.3816C38.8715 26.5626 39.0195 26.739 39.1628 26.9154C38.9779 27.2125 38.7975 27.491 38.6264 27.6535C38.571 27.7046 38.5155 27.7463 38.4692 27.7649C38.423 27.7835 38.3675 27.7928 38.2935 27.7928C38.1825 27.7928 37.9837 27.7649 37.7664 27.7278C37.4843 27.686 37.1745 27.6349 36.7768 27.621C36.3976 27.6071 35.9861 27.6256 35.5653 27.7092C36.0878 27.3657 36.3606 26.7808 36.3375 26.1959C36.6936 25.7364 37.0635 25.3372 37.4334 25.0169ZM27.205 21.8743C27.6628 21.1548 27.9911 20.7045 28.2362 20.4213C28.4211 20.6116 28.6385 20.853 28.8974 21.1733C29.1748 21.5168 29.5679 22.0367 30.0072 22.6263C30.0673 22.7098 30.1228 22.7841 30.1829 22.8676C30.0072 23.0858 29.85 23.2715 29.7621 23.2947C29.6373 23.3272 29.2858 23.2111 28.976 23.1137L28.8419 23.0719C28.5229 22.9698 28.2269 22.8862 27.857 22.8816C27.4778 22.8769 27.0755 22.9512 26.5807 23.1694C26.5114 23.2019 26.4374 23.239 26.3634 23.2715C26.664 22.7516 26.9507 22.2735 27.205 21.8743ZM21.633 24.9147C21.4342 25.3372 21.2446 25.7689 21.0642 26.2006L20.3614 25.8431L20.2689 24.2834L21.3694 24.8405C21.4526 24.8869 21.5451 24.9101 21.633 24.9147ZM20.4585 27.4446L20.5602 27.4957C20.5325 27.5792 20.5047 27.6581 20.477 27.7371L20.4585 27.4446Z" fill="#134B6D"/>
<path fill-rule="evenodd" clip-rule="evenodd" d="M36.3237 39.6251C36.6612 39.7969 37.0774 39.6576 37.2485 39.3187C37.4196 38.9752 37.2808 38.5621 36.9433 38.3903L34.7746 37.2948C34.7422 37.2809 34.7099 37.2809 34.6821 37.267C34.6313 37.2484 34.585 37.2299 34.5341 37.2252C34.4925 37.2206 34.4509 37.2298 34.4047 37.2345C34.3584 37.2391 34.3168 37.2391 34.2706 37.2531C34.2243 37.267 34.1827 37.2948 34.1365 37.318C34.1041 37.3366 34.0717 37.3413 34.044 37.3645L31.8013 39.1098C31.5008 39.3419 31.4453 39.7783 31.6765 40.08C31.9077 40.3817 32.3423 40.4374 32.6429 40.2053L33.8544 39.263L33.9423 40.7577L32.3238 41.8347C32.0048 42.0436 31.9216 42.4753 32.1296 42.7909C32.3377 43.1112 32.7678 43.1948 33.0822 42.9859L34.0347 42.3499L34.1688 44.6013C34.192 44.9819 34.5203 45.2744 34.8994 45.2512C35.2786 45.228 35.5699 44.8984 35.5468 44.5177L35.4081 42.2246L36.5086 42.7816C36.8508 42.9534 37.2623 42.8141 37.4334 42.4753C37.6045 42.1318 37.4658 41.7186 37.1282 41.5469L35.3156 40.6324L35.2231 39.0727L36.3237 39.6251Z" fill="#134B6D"/>
<path fill-rule="evenodd" clip-rule="evenodd" d="M41.8957 35.9162C42.2379 36.0879 42.6494 35.9487 42.8205 35.6098C42.9916 35.2663 42.8529 34.8532 42.5153 34.6814L40.3466 33.5859C40.3142 33.572 40.2819 33.572 40.2541 33.5581C40.2033 33.5395 40.157 33.5209 40.1062 33.5163C40.0645 33.5116 40.0229 33.5209 39.9767 33.5256C39.9304 33.5302 39.8888 33.5302 39.8426 33.5441C39.7963 33.5581 39.7547 33.5859 39.7085 33.6091C39.6761 33.6277 39.6437 33.6323 39.616 33.6555L37.3733 35.4009C37.0728 35.633 37.0173 36.0694 37.2485 36.3711C37.4797 36.6728 37.9143 36.7285 38.2149 36.4964L39.4264 35.5541L39.5143 37.0488L37.8958 38.1257C37.5768 38.3346 37.4935 38.7663 37.7016 39.082C37.9097 39.4023 38.3398 39.4858 38.6542 39.2769L39.6068 38.641L39.7409 40.8923C39.764 41.273 40.0923 41.5654 40.4715 41.5422C40.8506 41.519 41.1419 41.1894 41.1188 40.8088L40.9801 38.5157L42.0806 39.0727C42.4228 39.2445 42.8344 39.1052 43.0054 38.7663C43.1765 38.4228 43.0378 38.0097 42.7003 37.8379L40.8876 36.9235L40.7951 35.3638L41.8957 35.9162Z" fill="#134B6D"/>
<path fill-rule="evenodd" clip-rule="evenodd" d="M19.5614 35.8141C19.7787 37.2484 20.1949 38.7014 20.7914 40.0661C21.374 41.403 22.1324 42.6888 23.0479 43.8354C23.9404 44.9541 24.9669 45.9103 26.0351 46.6902C27.1957 47.535 28.4211 48.1802 29.5956 48.5934C31.3528 49.2154 32.9203 49.3175 34.4463 49.3036C34.7607 49.4568 35.126 49.5218 35.5006 49.4614C38.3721 48.9972 40.1755 49.0715 42.9823 47.5953C49.5254 44.1557 53.4975 39.3837 53.4836 31.6409C53.4697 25.5646 51.6201 19.9618 47.3058 15.4916C42.7419 10.7614 36.8693 8.67253 30.3031 9.29455C17.143 10.5386 7.95498 21.8371 9.8601 35.0899C11.9086 49.3268 22.322 56.986 35.5746 56.9303C35.7318 56.9535 35.889 56.9582 36.0508 56.9489C36.1849 56.9396 36.3144 56.9257 36.4439 56.9164C36.9618 56.9025 37.4797 56.8793 38.0022 56.8421C38.1687 56.8282 38.3259 56.7772 38.4692 56.6936C45.077 55.7095 50.8664 52.4091 55.0511 47.6743C59.7399 42.3685 62.408 35.2617 61.9503 27.6256C61.4925 19.985 57.9921 13.2541 52.7067 8.55184C47.8283 4.2116 41.424 1.59818 34.4879 1.57961C34.3769 1.56569 34.2613 1.54712 34.1457 1.54712C32.4441 1.5564 30.7378 1.57033 28.8465 1.77922C21.3787 2.5962 13.3004 6.82503 8.17694 12.8503C3.96441 17.8033 1.5599 24.2742 1.07437 30.8286C0.436247 39.5091 4.00141 49.8235 10.1283 55.8163C17.721 63.248 37.0311 67.6997 48.2584 61.8694C36.8323 63.0809 21.3417 61.8415 13.1201 52.7943C9.90172 49.2572 7.12265 44.6431 6.23945 39.6344C4.76438 31.2603 6.19784 22.4499 11.756 15.914C14.9558 12.1494 19.6909 9.21563 24.0652 7.67915C27.1772 6.58829 29.5818 6.35619 32.4071 6.2912C32.6059 6.33298 32.8094 6.35619 33.0221 6.34226C39.3339 5.96162 45.1972 8.18512 49.5809 12.0844C53.9645 15.9836 56.8638 21.5679 57.2476 27.8995C57.6267 34.2358 55.4118 40.1218 51.5276 44.5224C47.9208 48.6073 42.8667 51.4064 37.1144 52.0934C25.7762 52.293 16.2136 48.7651 14.0819 33.948C12.4635 22.7145 19.5105 13.9087 30.636 12.8596C36.1248 12.3397 40.9246 14.0247 44.7441 17.9797C48.4063 21.7768 50.3808 26.7994 50.3947 31.9612C50.4086 38.33 46.7278 41.5794 41.3408 44.411C39.1443 45.5668 37.7432 45.5297 35.5977 45.8221C33.9931 45.8778 32.3839 45.915 30.747 45.3347C29.8731 45.0237 28.9483 44.5363 28.0651 43.8911C27.2235 43.2783 26.4235 42.531 25.7392 41.6769C25.0363 40.7949 24.4352 39.7737 23.9589 38.6782C23.4734 37.5641 23.1404 36.4129 22.974 35.3034C22.8121 34.2126 22.8075 33.1357 22.9508 32.0401C23.0942 30.9214 23.3948 29.7888 23.8248 28.6051C24.0421 28.0156 24.2918 27.4121 24.56 26.8133C24.6895 26.7855 24.8143 26.7297 24.9299 26.6508C25.8779 25.987 26.8212 25.3279 27.4177 25.0633C27.6073 24.9797 27.7368 24.9472 27.8339 24.9519C27.9402 24.9519 28.0697 24.9937 28.2223 25.0401L28.3518 25.0819C28.9251 25.2675 29.5771 25.4811 30.28 25.3C30.7655 25.1747 31.1262 24.9101 31.4314 24.5852C31.8106 25.1283 32.1296 25.6018 32.4209 26.0381C31.3805 27.881 30.5482 29.8956 29.9702 31.3624C29.2442 33.2053 27.635 39.5555 29.0592 43.4594C30.0072 39.8758 31.4083 35.6098 33.0267 31.9891C33.2995 31.9612 33.5585 31.8313 33.7434 31.5945C34.0162 31.2417 34.2891 30.8889 34.5388 30.6197C34.77 30.3644 35.0058 30.1462 35.237 30.0023C35.4266 29.8816 35.6439 29.8027 35.8612 29.7517C36.1479 29.6867 36.4346 29.6681 36.6982 29.682C36.9479 29.6913 37.2161 29.7331 37.4612 29.7702C37.7525 29.8166 38.0114 29.8538 38.312 29.8538C38.6588 29.8538 38.9779 29.7888 39.2738 29.6635C39.5651 29.5428 39.8241 29.3664 40.0553 29.1482C40.2217 28.9904 40.3697 28.8093 40.5084 28.6237C42.1916 30.9493 43.2228 33.066 44.966 36.5521C45.3175 32.6993 40.8784 23.4572 39.6807 22.3802C38.6264 21.4286 37.5953 20.9784 36.3005 21.6282C35.6855 21.9392 35.0983 22.4266 34.5434 23.0255C34.4463 22.8816 34.3446 22.7377 34.2336 22.5798C33.7434 21.8789 33.2163 21.1408 32.7816 20.5559C32.3932 20.0268 31.9724 19.4836 31.5701 18.987C31.1401 18.4578 30.7979 18.0771 30.5158 17.8079C30.169 17.469 29.8592 17.2462 29.5633 17.0745C29.124 16.8192 28.7032 16.6892 28.2084 16.6938C27.7321 16.6985 27.3067 16.8284 26.8489 17.1023C26.5299 17.2926 26.1646 17.5665 25.6975 18.0864C25.323 18.5088 24.8698 19.1123 24.3011 20.0082C23.6999 20.9551 22.9323 22.2874 22.1925 23.7589C22.137 23.6939 22.0723 23.6382 21.989 23.6011L19.8204 22.5056C19.788 22.4916 19.7556 22.4916 19.7232 22.4777C19.6724 22.4591 19.6261 22.4406 19.5753 22.4359C19.5337 22.4313 19.492 22.4406 19.4458 22.4452C19.3996 22.4499 19.3579 22.4499 19.3117 22.4638C19.2608 22.4777 19.2192 22.5056 19.1776 22.5288C19.1452 22.5473 19.1129 22.552 19.0851 22.5752L16.8424 24.3206C16.5419 24.5527 16.4864 24.989 16.7176 25.2907C16.9488 25.5925 17.3835 25.6482 17.684 25.4161L18.8955 24.4738L18.9834 25.9685L17.365 27.0454C17.0459 27.2543 16.9627 27.686 17.1708 28.0016C17.3788 28.3219 17.8089 28.4055 18.1233 28.1966L19.0759 27.5607L19.21 29.812C19.2285 30.1137 19.4366 30.3505 19.7094 30.4294C19.6308 30.8193 19.5614 31.2046 19.5105 31.5899C19.3394 32.9917 19.3487 34.3843 19.5614 35.8141ZM37.4334 25.0169C37.7802 25.3325 38.2334 25.8106 38.7189 26.3816C38.8715 26.5626 39.0195 26.739 39.1628 26.9154C38.9779 27.2125 38.7975 27.491 38.6264 27.6535C38.571 27.7046 38.5155 27.7463 38.4692 27.7649C38.423 27.7835 38.3675 27.7928 38.2935 27.7928C38.1825 27.7928 37.9837 27.7649 37.7664 27.7278C37.4843 27.686 37.1745 27.6349 36.7768 27.621C36.3976 27.6071 35.9861 27.6256 35.5653 27.7092C36.0878 27.3657 36.3606 26.7808 36.3375 26.1959C36.6936 25.7364 37.0635 25.3372 37.4334 25.0169ZM27.205 21.8743C27.6628 21.1548 27.9911 20.7045 28.2362 20.4213C28.4211 20.6116 28.6385 20.853 28.8974 21.1733C29.1748 21.5168 29.5679 22.0367 30.0072 22.6263C30.0673 22.7098 30.1228 22.7841 30.1829 22.8676C30.0072 23.0858 29.85 23.2715 29.7621 23.2947C29.6373 23.3272 29.2858 23.2111 28.976 23.1137L28.8419 23.0719C28.5229 22.9698 28.2269 22.8862 27.857 22.8816C27.4778 22.8769 27.0755 22.9512 26.5807 23.1694C26.5114 23.2019 26.4374 23.239 26.3634 23.2715C26.664 22.7516 26.9507 22.2735 27.205 21.8743ZM21.633 24.9147C21.4342 25.3372 21.2446 25.7689 21.0642 26.2006L20.3614 25.8431L20.2689 24.2834L21.3694 24.8405C21.4526 24.8869 21.5451 24.9101 21.633 24.9147ZM20.4585 27.4446L20.5602 27.4957C20.5325 27.5792 20.5047 27.6581 20.477 27.7371L20.4585 27.4446Z" stroke="white" stroke-width="2" mask="url(#path-1-outside-1_403_1368)"/>
<path fill-rule="evenodd" clip-rule="evenodd" d="M36.3237 39.6251C36.6612 39.7969 37.0774 39.6576 37.2485 39.3187C37.4196 38.9752 37.2808 38.5621 36.9433 38.3903L34.7746 37.2948C34.7422 37.2809 34.7099 37.2809 34.6821 37.267C34.6313 37.2484 34.585 37.2299 34.5341 37.2252C34.4925 37.2206 34.4509 37.2298 34.4047 37.2345C34.3584 37.2391 34.3168 37.2391 34.2706 37.2531C34.2243 37.267 34.1827 37.2948 34.1365 37.318C34.1041 37.3366 34.0717 37.3413 34.044 37.3645L31.8013 39.1098C31.5008 39.3419 31.4453 39.7783 31.6765 40.08C31.9077 40.3817 32.3423 40.4374 32.6429 40.2053L33.8544 39.263L33.9423 40.7577L32.3238 41.8347C32.0048 42.0436 31.9216 42.4753 32.1296 42.7909C32.3377 43.1112 32.7678 43.1948 33.0822 42.9859L34.0347 42.3499L34.1688 44.6013C34.192 44.9819 34.5203 45.2744 34.8994 45.2512C35.2786 45.228 35.5699 44.8984 35.5468 44.5177L35.4081 42.2246L36.5086 42.7816C36.8508 42.9534 37.2623 42.8141 37.4334 42.4753C37.6045 42.1318 37.4658 41.7186 37.1282 41.5469L35.3156 40.6324L35.2231 39.0727L36.3237 39.6251Z" stroke="white" stroke-width="2" mask="url(#path-1-outside-1_403_1368)"/>
<path fill-rule="evenodd" clip-rule="evenodd" d="M41.8957 35.9162C42.2379 36.0879 42.6494 35.9487 42.8205 35.6098C42.9916 35.2663 42.8529 34.8532 42.5153 34.6814L40.3466 33.5859C40.3142 33.572 40.2819 33.572 40.2541 33.5581C40.2033 33.5395 40.157 33.5209 40.1062 33.5163C40.0645 33.5116 40.0229 33.5209 39.9767 33.5256C39.9304 33.5302 39.8888 33.5302 39.8426 33.5441C39.7963 33.5581 39.7547 33.5859 39.7085 33.6091C39.6761 33.6277 39.6437 33.6323 39.616 33.6555L37.3733 35.4009C37.0728 35.633 37.0173 36.0694 37.2485 36.3711C37.4797 36.6728 37.9143 36.7285 38.2149 36.4964L39.4264 35.5541L39.5143 37.0488L37.8958 38.1257C37.5768 38.3346 37.4935 38.7663 37.7016 39.082C37.9097 39.4023 38.3398 39.4858 38.6542 39.2769L39.6068 38.641L39.7409 40.8923C39.764 41.273 40.0923 41.5654 40.4715 41.5422C40.8506 41.519 41.1419 41.1894 41.1188 40.8088L40.9801 38.5157L42.0806 39.0727C42.4228 39.2445 42.8344 39.1052 43.0054 38.7663C43.1765 38.4228 43.0378 38.0097 42.7003 37.8379L40.8876 36.9235L40.7951 35.3638L41.8957 35.9162Z" stroke="white" stroke-width="2" mask="url(#path-1-outside-1_403_1368)"/>
</svg>
