<svg width="62" height="65" viewBox="0 0 62 65" fill="none" xmlns="http://www.w3.org/2000/svg">
<mask id="path-1-outside-1_403_1394" maskUnits="userSpaceOnUse" x="-0.829102" y="0.595795" width="63" height="64" fill="black">
<rect fill="white" x="-0.829102" y="0.595795" width="63" height="64"/>
<path fill-rule="evenodd" clip-rule="evenodd" d="M39.0775 31.397C39.0775 30.743 38.5497 30.2138 37.9024 30.2088C37.3048 30.1539 36.7073 30.1389 36.0899 30.8229C35.8011 31.1424 35.5671 31.6416 35.5123 32.1858C35.4675 32.6351 35.5472 33.1294 35.816 33.5937C36.0849 34.053 36.538 34.4524 37.1007 34.717C37.5737 34.9416 38.1414 35.0764 38.7439 35.0814C39.4111 35.0864 40.1281 34.9217 40.7356 34.5622C41.3132 34.2227 41.7912 33.7135 42.0551 33.0145C42.304 32.3555 42.3339 31.5667 42.1945 30.7879C42.0601 30.034 41.7613 29.2552 41.343 28.6212C40.9198 27.9722 40.3771 27.4779 39.7497 27.1284C39.1173 26.779 38.4003 26.5793 37.6136 26.5293C36.8318 26.4794 35.9754 26.5743 35.1638 26.8539C34.4218 27.1085 33.7048 27.5179 33.1123 28.102C32.5148 28.6861 32.0517 29.4399 31.738 30.2487C31.4094 31.0825 31.2351 31.9961 31.2301 32.8598C31.2202 33.6735 31.3596 34.4324 31.6086 35.1214C31.8774 35.8702 32.2808 36.5392 32.7638 37.1034C33.2368 37.6525 33.7845 38.1018 34.4716 38.4513C35.1239 38.7858 35.8858 39.0254 36.8119 39.1702C37.7779 39.325 38.948 39.3749 40.1032 39.2301C41.0941 39.1053 42.08 38.8307 42.9414 38.3515C43.7928 37.8772 44.4999 37.2132 45.0775 36.4843C45.7846 35.5906 46.2924 34.6071 46.6261 33.7634C46.9298 32.9946 47.0991 32.3106 47.1837 31.6316C47.2684 30.9626 47.2634 30.3436 47.2236 29.6746C47.1837 29.0106 47.1041 28.2817 46.9298 27.5328C46.7555 26.759 46.4767 25.9702 46.0435 25.2313C45.6153 24.4974 45.0426 23.8334 44.3953 23.2793C43.7281 22.7101 42.9713 22.2408 42.1895 21.9263C41.4825 21.6417 40.7555 21.477 40.0534 21.4071C39.2368 21.3272 38.4551 21.3672 37.753 21.472C36.8368 21.6068 36.06 21.8464 35.3281 22.116C35.114 21.8165 34.8899 21.5219 34.6459 21.2224C34.1878 20.6582 33.6949 20.139 33.1372 19.7147C32.5795 19.2853 31.9621 18.9558 31.3098 18.7162C30.6426 18.4715 29.9305 18.3218 29.1936 18.2519C28.4517 18.182 27.6849 18.2019 26.938 18.3218C26.2309 18.4366 25.5338 18.6463 24.8816 18.9708L24.8168 19.0057C24.1845 19.3252 23.6119 19.7446 23.1189 20.2039C22.5612 20.7231 22.0932 21.3122 21.7645 21.8864C21.3114 22.6752 21.1123 23.3941 20.9928 24.093C20.6392 24.143 20.2907 24.2079 19.9371 24.2977C19.2152 24.4824 18.523 24.767 17.8857 25.2463C17.2832 25.7056 16.7554 26.3297 16.3322 27.0436C15.9139 27.7475 15.5853 28.5513 15.3662 29.38L15.3512 29.435C15.1371 30.2637 15.0326 31.1174 15.0475 31.9661C15.0624 32.8098 15.1869 33.6486 15.4309 34.4623C15.655 35.1962 15.9736 35.9002 16.377 36.5542C17.1288 38.5362 18.2741 40.1787 19.5986 41.5716C21.4608 43.5286 23.9106 45.261 26.4451 46.0348C28.5065 46.6589 31.3397 47.2929 33.2368 47.3379C33.3762 47.3578 33.5156 47.3628 33.66 47.3529C36.558 47.0733 38.3555 47.248 41.2484 46.0049C47.9953 43.1043 52.7107 38.5761 53.1539 31.2023C53.5024 25.416 51.6551 20.1989 47.6119 15.6957C43.3298 10.9279 36.797 9.16562 30.1945 9.3753C16.9595 9.78967 7.84249 20.169 8.95785 32.8897C10.2276 47.3828 21.2616 55.2309 35.7165 55.0612C35.8708 55.0612 36.0202 55.0213 36.1596 54.9613C42.7173 54.507 48.6327 51.5715 53.0294 47.0932C57.8444 42.1907 60.8319 35.4509 60.8319 28.1419C60.8319 20.8429 57.8792 14.2379 53.1091 9.45518C48.3389 4.66742 41.7513 1.71189 34.4716 1.71189C34.4667 1.71189 34.4567 1.71189 34.4517 1.71189C32.8733 1.62702 31.2899 1.54714 29.5222 1.63201C22.3571 1.99147 14.4151 5.55108 9.1869 10.9929C4.88978 15.4661 2.15118 21.477 1.39433 27.6976C0.273996 36.8937 3.47567 45.6305 8.55951 52.1306C17.567 63.6532 35.6816 65.5004 45.7148 60.463C33.8741 59.9837 22.1629 63.0391 11.6566 49.5995C8.80349 45.95 6.37361 41.272 5.81095 36.3794C4.8848 28.3216 6.75701 20.0142 12.4234 14.1181C15.6898 10.7183 20.3703 8.19708 24.6276 6.98891C28.2725 5.95048 30.8567 6.04034 34.3571 6.22007C34.3621 6.22007 34.3671 6.22007 34.377 6.22007C34.4119 6.22007 34.4418 6.23006 34.4716 6.23006C40.5065 6.23006 45.9688 8.68135 49.9273 12.6503C53.8809 16.6143 56.3257 22.0961 56.3257 28.1469C56.3257 34.2377 53.836 39.8542 49.8227 43.938C46.0036 47.8271 40.8003 50.3134 35.0642 50.4981C23.7314 50.0288 14.0068 46.2595 12.762 32.051C11.816 21.2673 19.7529 13.564 30.4584 13.1246C35.9754 12.9 41.7115 14.4376 45.2866 18.4216C48.7223 22.2458 50.4352 26.6192 50.1364 31.5368C49.768 37.5976 45.4709 40.623 39.914 43.0094C37.8028 43.918 36.3638 43.933 34.4169 44.0678C31.4691 44.0628 27.4559 43.6185 24.6475 42.0259C23.8558 41.5766 23.1538 41.0973 22.5214 40.5881C22.7305 40.6081 22.9446 40.613 23.1538 40.613C24.0251 40.5931 24.8567 40.3684 25.5836 39.979C26.3355 39.5796 26.9778 39.0055 27.4509 38.3165C27.8791 37.6875 28.1579 36.9636 28.3073 36.2546C28.4766 35.4608 28.4816 34.662 28.3621 33.9931C28.2326 33.2891 27.9637 32.73 27.5953 32.2806C27.2218 31.8263 26.7637 31.5018 26.2558 31.2772C25.7978 31.0725 25.3048 30.9477 24.8168 30.8927C24.309 30.8328 23.7911 30.8528 23.3231 30.9427C22.8102 31.0375 22.3521 31.2123 21.9538 31.4769C21.5405 31.7514 21.2069 32.1159 20.9629 32.5702C20.7289 33.0095 20.5944 33.5437 20.5745 34.0679C20.5546 34.5922 20.6542 35.1313 20.8981 35.5807C21.1421 36.04 21.5156 36.3844 21.9239 36.6141C22.372 36.8687 22.8849 36.9935 23.328 36.9885C23.7015 36.9835 24.0301 36.8987 24.304 36.7739C24.3338 36.7589 24.3637 36.7489 24.3936 36.7339C24.7919 36.5292 25.0807 36.2197 25.2451 35.9451C25.6782 35.2262 25.504 34.7968 25.3048 34.3775C25.0558 33.7784 24.3737 33.4888 23.7762 33.7335C23.4077 33.8832 23.1538 34.1928 23.0691 34.5522C23.0293 34.5273 22.9944 34.5023 22.9795 34.4723C22.9446 34.4074 22.9297 34.2926 22.9347 34.1578C22.9396 33.9881 22.9845 33.8183 23.0542 33.6835C23.104 33.5937 23.1737 33.5188 23.2583 33.4589C23.3828 33.374 23.5521 33.3141 23.7513 33.2791C23.9953 33.2342 24.2741 33.2242 24.5629 33.2592C24.8218 33.2891 25.0758 33.349 25.2948 33.4489C25.489 33.5338 25.6534 33.6486 25.7729 33.7934C25.8973 33.9431 25.9919 34.1528 26.0417 34.4324C26.1114 34.8068 26.1015 35.2811 25.9969 35.7754C25.9073 36.2047 25.743 36.6341 25.499 36.9935C25.2401 37.3729 24.8865 37.6875 24.4782 37.9071C24.0699 38.1268 23.6069 38.2516 23.1139 38.2616C22.5961 38.2716 22.0384 38.1568 21.4857 37.9371C20.8832 37.7024 20.2957 37.353 19.7828 36.9286C19.2898 36.5192 18.8616 36.04 18.5081 35.5108C18.1446 34.9666 17.8707 34.3775 17.6865 33.7734C17.5073 33.1793 17.4127 32.5602 17.4027 31.9362C17.3927 31.2921 17.4724 30.6481 17.6317 30.0241L17.6417 29.9791C17.801 29.3651 18.045 28.776 18.3537 28.2567C18.6276 27.7924 18.9513 27.403 19.3098 27.1334C19.6583 26.8688 20.0716 26.7041 20.5197 26.5893C21.0326 26.4595 21.6052 26.3896 22.1778 26.3247C22.2077 26.3197 22.2326 26.3097 22.2575 26.3047C22.3023 26.2947 22.3471 26.2897 22.3919 26.2747C22.4268 26.2647 22.4567 26.2498 22.4915 26.2348C22.5313 26.2198 22.5662 26.2048 22.6011 26.1849C22.6359 26.1649 22.6658 26.1449 22.6957 26.125C22.7305 26.105 22.7604 26.08 22.7903 26.0601C22.8201 26.0351 22.8401 26.0101 22.865 25.9852C22.8948 25.9552 22.9247 25.9303 22.9496 25.8953C22.9695 25.8703 22.9894 25.8404 23.0094 25.8154C23.0343 25.7805 23.0592 25.7455 23.0791 25.7056C23.094 25.6756 23.1089 25.6457 23.1189 25.6157C23.1338 25.5758 23.1538 25.5359 23.1687 25.4959C23.1787 25.461 23.1836 25.426 23.1936 25.3861C23.1986 25.3511 23.2135 25.3212 23.2135 25.2862C23.3081 24.5274 23.3977 23.7685 23.806 23.0596C24.0251 22.6752 24.3438 22.2808 24.7272 21.9213C25.0708 21.6018 25.4592 21.3172 25.8724 21.1076L25.9322 21.0826C26.3654 20.8679 26.8384 20.7281 27.3214 20.6482C27.8741 20.5584 28.4417 20.5484 28.9895 20.5983C29.3978 20.6383 29.7911 20.7231 30.1745 20.833C30.1845 20.838 30.1945 20.843 30.2044 20.8479L30.2592 20.8779C30.5081 21.0277 30.7372 21.2473 30.9314 21.5069C31.1903 21.8464 31.3895 22.2508 31.5339 22.6602C31.6683 23.0446 31.743 23.434 31.748 23.8234C31.753 24.2079 31.6882 24.6122 31.5389 25.0366C31.3745 25.5009 31.1156 25.9752 30.777 26.3995C30.4832 26.764 30.1347 27.0785 29.7513 27.2882C29.3679 27.4979 28.9347 27.6127 28.5015 27.6377C28.0434 27.6626 27.5903 27.5927 27.2069 27.433C26.8484 27.2832 26.5347 27.0585 26.2907 26.7939C26.0467 26.5294 25.8774 26.2398 25.8077 25.9552C25.748 25.7256 25.7579 25.4909 25.8077 25.2713C25.8724 24.9917 26.0019 24.7371 26.1662 24.5274C26.3106 24.3427 26.4799 24.1929 26.6542 24.083C26.8185 23.9832 26.9679 23.9233 27.0973 23.9133C27.182 23.9033 27.2666 23.9183 27.3363 23.9433C27.431 23.9782 27.5106 24.0381 27.5754 24.103C27.6301 24.1629 27.67 24.2228 27.6998 24.2827L27.7048 24.2877C27.3712 24.148 26.9729 24.1879 26.6741 24.4325C26.2359 24.782 26.1712 25.421 26.5197 25.8604C26.6044 25.9652 26.689 26.07 26.8085 26.1749C26.938 26.2897 27.0973 26.3896 27.2965 26.4644C27.3363 26.4844 27.3762 26.4994 27.416 26.5094C27.66 26.5843 27.9687 26.6142 28.2824 26.5643C28.5264 26.5244 28.7803 26.4245 29.0044 26.2548C29.0393 26.2298 29.0741 26.2048 29.104 26.1749C29.348 25.9602 29.5272 25.6706 29.6368 25.3461C29.7314 25.0716 29.7762 24.757 29.7662 24.4375C29.7563 24.123 29.6915 23.7985 29.5621 23.4939C29.4376 23.2044 29.2633 22.9298 29.0293 22.6852C28.7704 22.4206 28.4417 22.1859 28.0534 22.0411C27.7048 21.9113 27.3164 21.8464 26.8932 21.8914C26.46 21.9363 26.0119 22.0911 25.5936 22.3507C25.2251 22.5753 24.8716 22.8899 24.5679 23.2893C24.2392 23.7186 23.9704 24.2428 23.8359 24.8119C23.7164 25.3312 23.7015 25.8953 23.8509 26.4694C24.0052 27.0735 24.3388 27.6726 24.8119 28.1818C25.2451 28.6461 25.7978 29.0505 26.4401 29.3151C27.1073 29.5897 27.8641 29.7145 28.616 29.6746C29.343 29.6347 30.0749 29.4399 30.7322 29.0805C31.3596 28.736 31.9073 28.2418 32.3604 27.6826C32.8484 27.0785 33.2218 26.3896 33.4559 25.7256C33.665 25.1365 33.7596 24.5623 33.7696 23.9932C33.8243 24.0731 33.8791 24.148 33.9339 24.2278H33.9389C34.0733 24.4225 34.2625 24.5673 34.4816 24.6522L34.5314 24.6722C34.7853 24.757 35.0642 24.757 35.3331 24.6522C36.2044 24.3127 37.0758 23.9682 38.1065 23.8184C38.6493 23.7386 39.2418 23.7036 39.8343 23.7635C40.3273 23.8135 40.8302 23.9233 41.3231 24.123C41.8659 24.3427 42.3986 24.6722 42.8717 25.0765C43.3348 25.4709 43.7331 25.9303 44.0219 26.4295C44.3157 26.9337 44.5099 27.4929 44.6393 28.062C44.7738 28.6561 44.8385 29.2652 44.8733 29.8244C44.9082 30.3735 44.9132 30.8628 44.8534 31.3371C44.7937 31.8014 44.6642 32.2956 44.4302 32.8947C44.1613 33.5737 43.7679 34.3525 43.2352 35.0265C42.8368 35.5307 42.3588 35.9801 41.8011 36.2946C41.2186 36.6191 40.5264 36.8038 39.8144 36.8987C38.8932 37.0185 37.9571 36.9735 37.1804 36.8487C36.5131 36.7439 35.9853 36.5791 35.5571 36.3595C35.1638 36.1548 34.8401 35.8902 34.5613 35.5657C34.2625 35.2162 34.0086 34.7968 33.8393 34.3276C33.6799 33.8882 33.5953 33.4089 33.6003 32.8897C33.6053 32.3206 33.7248 31.7015 33.9538 31.1224C34.153 30.6082 34.4368 30.1439 34.7853 29.8044C35.109 29.4849 35.5123 29.2602 35.9405 29.1154C36.4534 28.9407 36.9912 28.8808 37.4841 28.9107C37.9173 28.9407 38.3057 29.0406 38.6293 29.2253C38.9281 29.39 39.187 29.6297 39.3912 29.9392C39.6252 30.2986 39.7995 30.758 39.8791 31.2173C39.9488 31.6067 39.9488 31.9611 39.8592 32.2008C39.8044 32.3456 39.6899 32.4604 39.5505 32.5452C39.3215 32.68 39.0376 32.7449 38.7688 32.74C38.5298 32.74 38.3057 32.685 38.1264 32.6002L38.1165 32.5952C38.6542 32.4704 39.0775 31.9811 39.0775 31.397ZM37.8924 32.3705C37.8924 32.3755 37.8824 32.3955 37.8675 32.4154L37.8625 32.4105H37.8576C37.8526 32.4154 37.8426 32.4204 37.8476 32.4154L37.8526 32.4105L37.8576 32.4055L37.8526 32.4005C37.8476 32.3905 37.8526 32.4005 37.8576 32.4055C37.8775 32.3755 37.8874 32.3655 37.8924 32.3705Z"/>
</mask>
<path fill-rule="evenodd" clip-rule="evenodd" d="M39.0775 31.397C39.0775 30.743 38.5497 30.2138 37.9024 30.2088C37.3048 30.1539 36.7073 30.1389 36.0899 30.8229C35.8011 31.1424 35.5671 31.6416 35.5123 32.1858C35.4675 32.6351 35.5472 33.1294 35.816 33.5937C36.0849 34.053 36.538 34.4524 37.1007 34.717C37.5737 34.9416 38.1414 35.0764 38.7439 35.0814C39.4111 35.0864 40.1281 34.9217 40.7356 34.5622C41.3132 34.2227 41.7912 33.7135 42.0551 33.0145C42.304 32.3555 42.3339 31.5667 42.1945 30.7879C42.0601 30.034 41.7613 29.2552 41.343 28.6212C40.9198 27.9722 40.3771 27.4779 39.7497 27.1284C39.1173 26.779 38.4003 26.5793 37.6136 26.5293C36.8318 26.4794 35.9754 26.5743 35.1638 26.8539C34.4218 27.1085 33.7048 27.5179 33.1123 28.102C32.5148 28.6861 32.0517 29.4399 31.738 30.2487C31.4094 31.0825 31.2351 31.9961 31.2301 32.8598C31.2202 33.6735 31.3596 34.4324 31.6086 35.1214C31.8774 35.8702 32.2808 36.5392 32.7638 37.1034C33.2368 37.6525 33.7845 38.1018 34.4716 38.4513C35.1239 38.7858 35.8858 39.0254 36.8119 39.1702C37.7779 39.325 38.948 39.3749 40.1032 39.2301C41.0941 39.1053 42.08 38.8307 42.9414 38.3515C43.7928 37.8772 44.4999 37.2132 45.0775 36.4843C45.7846 35.5906 46.2924 34.6071 46.6261 33.7634C46.9298 32.9946 47.0991 32.3106 47.1837 31.6316C47.2684 30.9626 47.2634 30.3436 47.2236 29.6746C47.1837 29.0106 47.1041 28.2817 46.9298 27.5328C46.7555 26.759 46.4767 25.9702 46.0435 25.2313C45.6153 24.4974 45.0426 23.8334 44.3953 23.2793C43.7281 22.7101 42.9713 22.2408 42.1895 21.9263C41.4825 21.6417 40.7555 21.477 40.0534 21.4071C39.2368 21.3272 38.4551 21.3672 37.753 21.472C36.8368 21.6068 36.06 21.8464 35.3281 22.116C35.114 21.8165 34.8899 21.5219 34.6459 21.2224C34.1878 20.6582 33.6949 20.139 33.1372 19.7147C32.5795 19.2853 31.9621 18.9558 31.3098 18.7162C30.6426 18.4715 29.9305 18.3218 29.1936 18.2519C28.4517 18.182 27.6849 18.2019 26.938 18.3218C26.2309 18.4366 25.5338 18.6463 24.8816 18.9708L24.8168 19.0057C24.1845 19.3252 23.6119 19.7446 23.1189 20.2039C22.5612 20.7231 22.0932 21.3122 21.7645 21.8864C21.3114 22.6752 21.1123 23.3941 20.9928 24.093C20.6392 24.143 20.2907 24.2079 19.9371 24.2977C19.2152 24.4824 18.523 24.767 17.8857 25.2463C17.2832 25.7056 16.7554 26.3297 16.3322 27.0436C15.9139 27.7475 15.5853 28.5513 15.3662 29.38L15.3512 29.435C15.1371 30.2637 15.0326 31.1174 15.0475 31.9661C15.0624 32.8098 15.1869 33.6486 15.4309 34.4623C15.655 35.1962 15.9736 35.9002 16.377 36.5542C17.1288 38.5362 18.2741 40.1787 19.5986 41.5716C21.4608 43.5286 23.9106 45.261 26.4451 46.0348C28.5065 46.6589 31.3397 47.2929 33.2368 47.3379C33.3762 47.3578 33.5156 47.3628 33.66 47.3529C36.558 47.0733 38.3555 47.248 41.2484 46.0049C47.9953 43.1043 52.7107 38.5761 53.1539 31.2023C53.5024 25.416 51.6551 20.1989 47.6119 15.6957C43.3298 10.9279 36.797 9.16562 30.1945 9.3753C16.9595 9.78967 7.84249 20.169 8.95785 32.8897C10.2276 47.3828 21.2616 55.2309 35.7165 55.0612C35.8708 55.0612 36.0202 55.0213 36.1596 54.9613C42.7173 54.507 48.6327 51.5715 53.0294 47.0932C57.8444 42.1907 60.8319 35.4509 60.8319 28.1419C60.8319 20.8429 57.8792 14.2379 53.1091 9.45518C48.3389 4.66742 41.7513 1.71189 34.4716 1.71189C34.4667 1.71189 34.4567 1.71189 34.4517 1.71189C32.8733 1.62702 31.2899 1.54714 29.5222 1.63201C22.3571 1.99147 14.4151 5.55108 9.1869 10.9929C4.88978 15.4661 2.15118 21.477 1.39433 27.6976C0.273996 36.8937 3.47567 45.6305 8.55951 52.1306C17.567 63.6532 35.6816 65.5004 45.7148 60.463C33.8741 59.9837 22.1629 63.0391 11.6566 49.5995C8.80349 45.95 6.37361 41.272 5.81095 36.3794C4.8848 28.3216 6.75701 20.0142 12.4234 14.1181C15.6898 10.7183 20.3703 8.19708 24.6276 6.98891C28.2725 5.95048 30.8567 6.04034 34.3571 6.22007C34.3621 6.22007 34.3671 6.22007 34.377 6.22007C34.4119 6.22007 34.4418 6.23006 34.4716 6.23006C40.5065 6.23006 45.9688 8.68135 49.9273 12.6503C53.8809 16.6143 56.3257 22.0961 56.3257 28.1469C56.3257 34.2377 53.836 39.8542 49.8227 43.938C46.0036 47.8271 40.8003 50.3134 35.0642 50.4981C23.7314 50.0288 14.0068 46.2595 12.762 32.051C11.816 21.2673 19.7529 13.564 30.4584 13.1246C35.9754 12.9 41.7115 14.4376 45.2866 18.4216C48.7223 22.2458 50.4352 26.6192 50.1364 31.5368C49.768 37.5976 45.4709 40.623 39.914 43.0094C37.8028 43.918 36.3638 43.933 34.4169 44.0678C31.4691 44.0628 27.4559 43.6185 24.6475 42.0259C23.8558 41.5766 23.1538 41.0973 22.5214 40.5881C22.7305 40.6081 22.9446 40.613 23.1538 40.613C24.0251 40.5931 24.8567 40.3684 25.5836 39.979C26.3355 39.5796 26.9778 39.0055 27.4509 38.3165C27.8791 37.6875 28.1579 36.9636 28.3073 36.2546C28.4766 35.4608 28.4816 34.662 28.3621 33.9931C28.2326 33.2891 27.9637 32.73 27.5953 32.2806C27.2218 31.8263 26.7637 31.5018 26.2558 31.2772C25.7978 31.0725 25.3048 30.9477 24.8168 30.8927C24.309 30.8328 23.7911 30.8528 23.3231 30.9427C22.8102 31.0375 22.3521 31.2123 21.9538 31.4769C21.5405 31.7514 21.2069 32.1159 20.9629 32.5702C20.7289 33.0095 20.5944 33.5437 20.5745 34.0679C20.5546 34.5922 20.6542 35.1313 20.8981 35.5807C21.1421 36.04 21.5156 36.3844 21.9239 36.6141C22.372 36.8687 22.8849 36.9935 23.328 36.9885C23.7015 36.9835 24.0301 36.8987 24.304 36.7739C24.3338 36.7589 24.3637 36.7489 24.3936 36.7339C24.7919 36.5292 25.0807 36.2197 25.2451 35.9451C25.6782 35.2262 25.504 34.7968 25.3048 34.3775C25.0558 33.7784 24.3737 33.4888 23.7762 33.7335C23.4077 33.8832 23.1538 34.1928 23.0691 34.5522C23.0293 34.5273 22.9944 34.5023 22.9795 34.4723C22.9446 34.4074 22.9297 34.2926 22.9347 34.1578C22.9396 33.9881 22.9845 33.8183 23.0542 33.6835C23.104 33.5937 23.1737 33.5188 23.2583 33.4589C23.3828 33.374 23.5521 33.3141 23.7513 33.2791C23.9953 33.2342 24.2741 33.2242 24.5629 33.2592C24.8218 33.2891 25.0758 33.349 25.2948 33.4489C25.489 33.5338 25.6534 33.6486 25.7729 33.7934C25.8973 33.9431 25.9919 34.1528 26.0417 34.4324C26.1114 34.8068 26.1015 35.2811 25.9969 35.7754C25.9073 36.2047 25.743 36.6341 25.499 36.9935C25.2401 37.3729 24.8865 37.6875 24.4782 37.9071C24.0699 38.1268 23.6069 38.2516 23.1139 38.2616C22.5961 38.2716 22.0384 38.1568 21.4857 37.9371C20.8832 37.7024 20.2957 37.353 19.7828 36.9286C19.2898 36.5192 18.8616 36.04 18.5081 35.5108C18.1446 34.9666 17.8707 34.3775 17.6865 33.7734C17.5073 33.1793 17.4127 32.5602 17.4027 31.9362C17.3927 31.2921 17.4724 30.6481 17.6317 30.0241L17.6417 29.9791C17.801 29.3651 18.045 28.776 18.3537 28.2567C18.6276 27.7924 18.9513 27.403 19.3098 27.1334C19.6583 26.8688 20.0716 26.7041 20.5197 26.5893C21.0326 26.4595 21.6052 26.3896 22.1778 26.3247C22.2077 26.3197 22.2326 26.3097 22.2575 26.3047C22.3023 26.2947 22.3471 26.2897 22.3919 26.2747C22.4268 26.2647 22.4567 26.2498 22.4915 26.2348C22.5313 26.2198 22.5662 26.2048 22.6011 26.1849C22.6359 26.1649 22.6658 26.1449 22.6957 26.125C22.7305 26.105 22.7604 26.08 22.7903 26.0601C22.8201 26.0351 22.8401 26.0101 22.865 25.9852C22.8948 25.9552 22.9247 25.9303 22.9496 25.8953C22.9695 25.8703 22.9894 25.8404 23.0094 25.8154C23.0343 25.7805 23.0592 25.7455 23.0791 25.7056C23.094 25.6756 23.1089 25.6457 23.1189 25.6157C23.1338 25.5758 23.1538 25.5359 23.1687 25.4959C23.1787 25.461 23.1836 25.426 23.1936 25.3861C23.1986 25.3511 23.2135 25.3212 23.2135 25.2862C23.3081 24.5274 23.3977 23.7685 23.806 23.0596C24.0251 22.6752 24.3438 22.2808 24.7272 21.9213C25.0708 21.6018 25.4592 21.3172 25.8724 21.1076L25.9322 21.0826C26.3654 20.8679 26.8384 20.7281 27.3214 20.6482C27.8741 20.5584 28.4417 20.5484 28.9895 20.5983C29.3978 20.6383 29.7911 20.7231 30.1745 20.833C30.1845 20.838 30.1945 20.843 30.2044 20.8479L30.2592 20.8779C30.5081 21.0277 30.7372 21.2473 30.9314 21.5069C31.1903 21.8464 31.3895 22.2508 31.5339 22.6602C31.6683 23.0446 31.743 23.434 31.748 23.8234C31.753 24.2079 31.6882 24.6122 31.5389 25.0366C31.3745 25.5009 31.1156 25.9752 30.777 26.3995C30.4832 26.764 30.1347 27.0785 29.7513 27.2882C29.3679 27.4979 28.9347 27.6127 28.5015 27.6377C28.0434 27.6626 27.5903 27.5927 27.2069 27.433C26.8484 27.2832 26.5347 27.0585 26.2907 26.7939C26.0467 26.5294 25.8774 26.2398 25.8077 25.9552C25.748 25.7256 25.7579 25.4909 25.8077 25.2713C25.8724 24.9917 26.0019 24.7371 26.1662 24.5274C26.3106 24.3427 26.4799 24.1929 26.6542 24.083C26.8185 23.9832 26.9679 23.9233 27.0973 23.9133C27.182 23.9033 27.2666 23.9183 27.3363 23.9433C27.431 23.9782 27.5106 24.0381 27.5754 24.103C27.6301 24.1629 27.67 24.2228 27.6998 24.2827L27.7048 24.2877C27.3712 24.148 26.9729 24.1879 26.6741 24.4325C26.2359 24.782 26.1712 25.421 26.5197 25.8604C26.6044 25.9652 26.689 26.07 26.8085 26.1749C26.938 26.2897 27.0973 26.3896 27.2965 26.4644C27.3363 26.4844 27.3762 26.4994 27.416 26.5094C27.66 26.5843 27.9687 26.6142 28.2824 26.5643C28.5264 26.5244 28.7803 26.4245 29.0044 26.2548C29.0393 26.2298 29.0741 26.2048 29.104 26.1749C29.348 25.9602 29.5272 25.6706 29.6368 25.3461C29.7314 25.0716 29.7762 24.757 29.7662 24.4375C29.7563 24.123 29.6915 23.7985 29.5621 23.4939C29.4376 23.2044 29.2633 22.9298 29.0293 22.6852C28.7704 22.4206 28.4417 22.1859 28.0534 22.0411C27.7048 21.9113 27.3164 21.8464 26.8932 21.8914C26.46 21.9363 26.0119 22.0911 25.5936 22.3507C25.2251 22.5753 24.8716 22.8899 24.5679 23.2893C24.2392 23.7186 23.9704 24.2428 23.8359 24.8119C23.7164 25.3312 23.7015 25.8953 23.8509 26.4694C24.0052 27.0735 24.3388 27.6726 24.8119 28.1818C25.2451 28.6461 25.7978 29.0505 26.4401 29.3151C27.1073 29.5897 27.8641 29.7145 28.616 29.6746C29.343 29.6347 30.0749 29.4399 30.7322 29.0805C31.3596 28.736 31.9073 28.2418 32.3604 27.6826C32.8484 27.0785 33.2218 26.3896 33.4559 25.7256C33.665 25.1365 33.7596 24.5623 33.7696 23.9932C33.8243 24.0731 33.8791 24.148 33.9339 24.2278H33.9389C34.0733 24.4225 34.2625 24.5673 34.4816 24.6522L34.5314 24.6722C34.7853 24.757 35.0642 24.757 35.3331 24.6522C36.2044 24.3127 37.0758 23.9682 38.1065 23.8184C38.6493 23.7386 39.2418 23.7036 39.8343 23.7635C40.3273 23.8135 40.8302 23.9233 41.3231 24.123C41.8659 24.3427 42.3986 24.6722 42.8717 25.0765C43.3348 25.4709 43.7331 25.9303 44.0219 26.4295C44.3157 26.9337 44.5099 27.4929 44.6393 28.062C44.7738 28.6561 44.8385 29.2652 44.8733 29.8244C44.9082 30.3735 44.9132 30.8628 44.8534 31.3371C44.7937 31.8014 44.6642 32.2956 44.4302 32.8947C44.1613 33.5737 43.7679 34.3525 43.2352 35.0265C42.8368 35.5307 42.3588 35.9801 41.8011 36.2946C41.2186 36.6191 40.5264 36.8038 39.8144 36.8987C38.8932 37.0185 37.9571 36.9735 37.1804 36.8487C36.5131 36.7439 35.9853 36.5791 35.5571 36.3595C35.1638 36.1548 34.8401 35.8902 34.5613 35.5657C34.2625 35.2162 34.0086 34.7968 33.8393 34.3276C33.6799 33.8882 33.5953 33.4089 33.6003 32.8897C33.6053 32.3206 33.7248 31.7015 33.9538 31.1224C34.153 30.6082 34.4368 30.1439 34.7853 29.8044C35.109 29.4849 35.5123 29.2602 35.9405 29.1154C36.4534 28.9407 36.9912 28.8808 37.4841 28.9107C37.9173 28.9407 38.3057 29.0406 38.6293 29.2253C38.9281 29.39 39.187 29.6297 39.3912 29.9392C39.6252 30.2986 39.7995 30.758 39.8791 31.2173C39.9488 31.6067 39.9488 31.9611 39.8592 32.2008C39.8044 32.3456 39.6899 32.4604 39.5505 32.5452C39.3215 32.68 39.0376 32.7449 38.7688 32.74C38.5298 32.74 38.3057 32.685 38.1264 32.6002L38.1165 32.5952C38.6542 32.4704 39.0775 31.9811 39.0775 31.397ZM37.8924 32.3705C37.8924 32.3755 37.8824 32.3955 37.8675 32.4154L37.8625 32.4105H37.8576C37.8526 32.4154 37.8426 32.4204 37.8476 32.4154L37.8526 32.4105L37.8576 32.4055L37.8526 32.4005C37.8476 32.3905 37.8526 32.4005 37.8576 32.4055C37.8775 32.3755 37.8874 32.3655 37.8924 32.3705Z" fill="#134B6D"/>
<path fill-rule="evenodd" clip-rule="evenodd" d="M39.0775 31.397C39.0775 30.743 38.5497 30.2138 37.9024 30.2088C37.3048 30.1539 36.7073 30.1389 36.0899 30.8229C35.8011 31.1424 35.5671 31.6416 35.5123 32.1858C35.4675 32.6351 35.5472 33.1294 35.816 33.5937C36.0849 34.053 36.538 34.4524 37.1007 34.717C37.5737 34.9416 38.1414 35.0764 38.7439 35.0814C39.4111 35.0864 40.1281 34.9217 40.7356 34.5622C41.3132 34.2227 41.7912 33.7135 42.0551 33.0145C42.304 32.3555 42.3339 31.5667 42.1945 30.7879C42.0601 30.034 41.7613 29.2552 41.343 28.6212C40.9198 27.9722 40.3771 27.4779 39.7497 27.1284C39.1173 26.779 38.4003 26.5793 37.6136 26.5293C36.8318 26.4794 35.9754 26.5743 35.1638 26.8539C34.4218 27.1085 33.7048 27.5179 33.1123 28.102C32.5148 28.6861 32.0517 29.4399 31.738 30.2487C31.4094 31.0825 31.2351 31.9961 31.2301 32.8598C31.2202 33.6735 31.3596 34.4324 31.6086 35.1214C31.8774 35.8702 32.2808 36.5392 32.7638 37.1034C33.2368 37.6525 33.7845 38.1018 34.4716 38.4513C35.1239 38.7858 35.8858 39.0254 36.8119 39.1702C37.7779 39.325 38.948 39.3749 40.1032 39.2301C41.0941 39.1053 42.08 38.8307 42.9414 38.3515C43.7928 37.8772 44.4999 37.2132 45.0775 36.4843C45.7846 35.5906 46.2924 34.6071 46.6261 33.7634C46.9298 32.9946 47.0991 32.3106 47.1837 31.6316C47.2684 30.9626 47.2634 30.3436 47.2236 29.6746C47.1837 29.0106 47.1041 28.2817 46.9298 27.5328C46.7555 26.759 46.4767 25.9702 46.0435 25.2313C45.6153 24.4974 45.0426 23.8334 44.3953 23.2793C43.7281 22.7101 42.9713 22.2408 42.1895 21.9263C41.4825 21.6417 40.7555 21.477 40.0534 21.4071C39.2368 21.3272 38.4551 21.3672 37.753 21.472C36.8368 21.6068 36.06 21.8464 35.3281 22.116C35.114 21.8165 34.8899 21.5219 34.6459 21.2224C34.1878 20.6582 33.6949 20.139 33.1372 19.7147C32.5795 19.2853 31.9621 18.9558 31.3098 18.7162C30.6426 18.4715 29.9305 18.3218 29.1936 18.2519C28.4517 18.182 27.6849 18.2019 26.938 18.3218C26.2309 18.4366 25.5338 18.6463 24.8816 18.9708L24.8168 19.0057C24.1845 19.3252 23.6119 19.7446 23.1189 20.2039C22.5612 20.7231 22.0932 21.3122 21.7645 21.8864C21.3114 22.6752 21.1123 23.3941 20.9928 24.093C20.6392 24.143 20.2907 24.2079 19.9371 24.2977C19.2152 24.4824 18.523 24.767 17.8857 25.2463C17.2832 25.7056 16.7554 26.3297 16.3322 27.0436C15.9139 27.7475 15.5853 28.5513 15.3662 29.38L15.3512 29.435C15.1371 30.2637 15.0326 31.1174 15.0475 31.9661C15.0624 32.8098 15.1869 33.6486 15.4309 34.4623C15.655 35.1962 15.9736 35.9002 16.377 36.5542C17.1288 38.5362 18.2741 40.1787 19.5986 41.5716C21.4608 43.5286 23.9106 45.261 26.4451 46.0348C28.5065 46.6589 31.3397 47.2929 33.2368 47.3379C33.3762 47.3578 33.5156 47.3628 33.66 47.3529C36.558 47.0733 38.3555 47.248 41.2484 46.0049C47.9953 43.1043 52.7107 38.5761 53.1539 31.2023C53.5024 25.416 51.6551 20.1989 47.6119 15.6957C43.3298 10.9279 36.797 9.16562 30.1945 9.3753C16.9595 9.78967 7.84249 20.169 8.95785 32.8897C10.2276 47.3828 21.2616 55.2309 35.7165 55.0612C35.8708 55.0612 36.0202 55.0213 36.1596 54.9613C42.7173 54.507 48.6327 51.5715 53.0294 47.0932C57.8444 42.1907 60.8319 35.4509 60.8319 28.1419C60.8319 20.8429 57.8792 14.2379 53.1091 9.45518C48.3389 4.66742 41.7513 1.71189 34.4716 1.71189C34.4667 1.71189 34.4567 1.71189 34.4517 1.71189C32.8733 1.62702 31.2899 1.54714 29.5222 1.63201C22.3571 1.99147 14.4151 5.55108 9.1869 10.9929C4.88978 15.4661 2.15118 21.477 1.39433 27.6976C0.273996 36.8937 3.47567 45.6305 8.55951 52.1306C17.567 63.6532 35.6816 65.5004 45.7148 60.463C33.8741 59.9837 22.1629 63.0391 11.6566 49.5995C8.80349 45.95 6.37361 41.272 5.81095 36.3794C4.8848 28.3216 6.75701 20.0142 12.4234 14.1181C15.6898 10.7183 20.3703 8.19708 24.6276 6.98891C28.2725 5.95048 30.8567 6.04034 34.3571 6.22007C34.3621 6.22007 34.3671 6.22007 34.377 6.22007C34.4119 6.22007 34.4418 6.23006 34.4716 6.23006C40.5065 6.23006 45.9688 8.68135 49.9273 12.6503C53.8809 16.6143 56.3257 22.0961 56.3257 28.1469C56.3257 34.2377 53.836 39.8542 49.8227 43.938C46.0036 47.8271 40.8003 50.3134 35.0642 50.4981C23.7314 50.0288 14.0068 46.2595 12.762 32.051C11.816 21.2673 19.7529 13.564 30.4584 13.1246C35.9754 12.9 41.7115 14.4376 45.2866 18.4216C48.7223 22.2458 50.4352 26.6192 50.1364 31.5368C49.768 37.5976 45.4709 40.623 39.914 43.0094C37.8028 43.918 36.3638 43.933 34.4169 44.0678C31.4691 44.0628 27.4559 43.6185 24.6475 42.0259C23.8558 41.5766 23.1538 41.0973 22.5214 40.5881C22.7305 40.6081 22.9446 40.613 23.1538 40.613C24.0251 40.5931 24.8567 40.3684 25.5836 39.979C26.3355 39.5796 26.9778 39.0055 27.4509 38.3165C27.8791 37.6875 28.1579 36.9636 28.3073 36.2546C28.4766 35.4608 28.4816 34.662 28.3621 33.9931C28.2326 33.2891 27.9637 32.73 27.5953 32.2806C27.2218 31.8263 26.7637 31.5018 26.2558 31.2772C25.7978 31.0725 25.3048 30.9477 24.8168 30.8927C24.309 30.8328 23.7911 30.8528 23.3231 30.9427C22.8102 31.0375 22.3521 31.2123 21.9538 31.4769C21.5405 31.7514 21.2069 32.1159 20.9629 32.5702C20.7289 33.0095 20.5944 33.5437 20.5745 34.0679C20.5546 34.5922 20.6542 35.1313 20.8981 35.5807C21.1421 36.04 21.5156 36.3844 21.9239 36.6141C22.372 36.8687 22.8849 36.9935 23.328 36.9885C23.7015 36.9835 24.0301 36.8987 24.304 36.7739C24.3338 36.7589 24.3637 36.7489 24.3936 36.7339C24.7919 36.5292 25.0807 36.2197 25.2451 35.9451C25.6782 35.2262 25.504 34.7968 25.3048 34.3775C25.0558 33.7784 24.3737 33.4888 23.7762 33.7335C23.4077 33.8832 23.1538 34.1928 23.0691 34.5522C23.0293 34.5273 22.9944 34.5023 22.9795 34.4723C22.9446 34.4074 22.9297 34.2926 22.9347 34.1578C22.9396 33.9881 22.9845 33.8183 23.0542 33.6835C23.104 33.5937 23.1737 33.5188 23.2583 33.4589C23.3828 33.374 23.5521 33.3141 23.7513 33.2791C23.9953 33.2342 24.2741 33.2242 24.5629 33.2592C24.8218 33.2891 25.0758 33.349 25.2948 33.4489C25.489 33.5338 25.6534 33.6486 25.7729 33.7934C25.8973 33.9431 25.9919 34.1528 26.0417 34.4324C26.1114 34.8068 26.1015 35.2811 25.9969 35.7754C25.9073 36.2047 25.743 36.6341 25.499 36.9935C25.2401 37.3729 24.8865 37.6875 24.4782 37.9071C24.0699 38.1268 23.6069 38.2516 23.1139 38.2616C22.5961 38.2716 22.0384 38.1568 21.4857 37.9371C20.8832 37.7024 20.2957 37.353 19.7828 36.9286C19.2898 36.5192 18.8616 36.04 18.5081 35.5108C18.1446 34.9666 17.8707 34.3775 17.6865 33.7734C17.5073 33.1793 17.4127 32.5602 17.4027 31.9362C17.3927 31.2921 17.4724 30.6481 17.6317 30.0241L17.6417 29.9791C17.801 29.3651 18.045 28.776 18.3537 28.2567C18.6276 27.7924 18.9513 27.403 19.3098 27.1334C19.6583 26.8688 20.0716 26.7041 20.5197 26.5893C21.0326 26.4595 21.6052 26.3896 22.1778 26.3247C22.2077 26.3197 22.2326 26.3097 22.2575 26.3047C22.3023 26.2947 22.3471 26.2897 22.3919 26.2747C22.4268 26.2647 22.4567 26.2498 22.4915 26.2348C22.5313 26.2198 22.5662 26.2048 22.6011 26.1849C22.6359 26.1649 22.6658 26.1449 22.6957 26.125C22.7305 26.105 22.7604 26.08 22.7903 26.0601C22.8201 26.0351 22.8401 26.0101 22.865 25.9852C22.8948 25.9552 22.9247 25.9303 22.9496 25.8953C22.9695 25.8703 22.9894 25.8404 23.0094 25.8154C23.0343 25.7805 23.0592 25.7455 23.0791 25.7056C23.094 25.6756 23.1089 25.6457 23.1189 25.6157C23.1338 25.5758 23.1538 25.5359 23.1687 25.4959C23.1787 25.461 23.1836 25.426 23.1936 25.3861C23.1986 25.3511 23.2135 25.3212 23.2135 25.2862C23.3081 24.5274 23.3977 23.7685 23.806 23.0596C24.0251 22.6752 24.3438 22.2808 24.7272 21.9213C25.0708 21.6018 25.4592 21.3172 25.8724 21.1076L25.9322 21.0826C26.3654 20.8679 26.8384 20.7281 27.3214 20.6482C27.8741 20.5584 28.4417 20.5484 28.9895 20.5983C29.3978 20.6383 29.7911 20.7231 30.1745 20.833C30.1845 20.838 30.1945 20.843 30.2044 20.8479L30.2592 20.8779C30.5081 21.0277 30.7372 21.2473 30.9314 21.5069C31.1903 21.8464 31.3895 22.2508 31.5339 22.6602C31.6683 23.0446 31.743 23.434 31.748 23.8234C31.753 24.2079 31.6882 24.6122 31.5389 25.0366C31.3745 25.5009 31.1156 25.9752 30.777 26.3995C30.4832 26.764 30.1347 27.0785 29.7513 27.2882C29.3679 27.4979 28.9347 27.6127 28.5015 27.6377C28.0434 27.6626 27.5903 27.5927 27.2069 27.433C26.8484 27.2832 26.5347 27.0585 26.2907 26.7939C26.0467 26.5294 25.8774 26.2398 25.8077 25.9552C25.748 25.7256 25.7579 25.4909 25.8077 25.2713C25.8724 24.9917 26.0019 24.7371 26.1662 24.5274C26.3106 24.3427 26.4799 24.1929 26.6542 24.083C26.8185 23.9832 26.9679 23.9233 27.0973 23.9133C27.182 23.9033 27.2666 23.9183 27.3363 23.9433C27.431 23.9782 27.5106 24.0381 27.5754 24.103C27.6301 24.1629 27.67 24.2228 27.6998 24.2827L27.7048 24.2877C27.3712 24.148 26.9729 24.1879 26.6741 24.4325C26.2359 24.782 26.1712 25.421 26.5197 25.8604C26.6044 25.9652 26.689 26.07 26.8085 26.1749C26.938 26.2897 27.0973 26.3896 27.2965 26.4644C27.3363 26.4844 27.3762 26.4994 27.416 26.5094C27.66 26.5843 27.9687 26.6142 28.2824 26.5643C28.5264 26.5244 28.7803 26.4245 29.0044 26.2548C29.0393 26.2298 29.0741 26.2048 29.104 26.1749C29.348 25.9602 29.5272 25.6706 29.6368 25.3461C29.7314 25.0716 29.7762 24.757 29.7662 24.4375C29.7563 24.123 29.6915 23.7985 29.5621 23.4939C29.4376 23.2044 29.2633 22.9298 29.0293 22.6852C28.7704 22.4206 28.4417 22.1859 28.0534 22.0411C27.7048 21.9113 27.3164 21.8464 26.8932 21.8914C26.46 21.9363 26.0119 22.0911 25.5936 22.3507C25.2251 22.5753 24.8716 22.8899 24.5679 23.2893C24.2392 23.7186 23.9704 24.2428 23.8359 24.8119C23.7164 25.3312 23.7015 25.8953 23.8509 26.4694C24.0052 27.0735 24.3388 27.6726 24.8119 28.1818C25.2451 28.6461 25.7978 29.0505 26.4401 29.3151C27.1073 29.5897 27.8641 29.7145 28.616 29.6746C29.343 29.6347 30.0749 29.4399 30.7322 29.0805C31.3596 28.736 31.9073 28.2418 32.3604 27.6826C32.8484 27.0785 33.2218 26.3896 33.4559 25.7256C33.665 25.1365 33.7596 24.5623 33.7696 23.9932C33.8243 24.0731 33.8791 24.148 33.9339 24.2278H33.9389C34.0733 24.4225 34.2625 24.5673 34.4816 24.6522L34.5314 24.6722C34.7853 24.757 35.0642 24.757 35.3331 24.6522C36.2044 24.3127 37.0758 23.9682 38.1065 23.8184C38.6493 23.7386 39.2418 23.7036 39.8343 23.7635C40.3273 23.8135 40.8302 23.9233 41.3231 24.123C41.8659 24.3427 42.3986 24.6722 42.8717 25.0765C43.3348 25.4709 43.7331 25.9303 44.0219 26.4295C44.3157 26.9337 44.5099 27.4929 44.6393 28.062C44.7738 28.6561 44.8385 29.2652 44.8733 29.8244C44.9082 30.3735 44.9132 30.8628 44.8534 31.3371C44.7937 31.8014 44.6642 32.2956 44.4302 32.8947C44.1613 33.5737 43.7679 34.3525 43.2352 35.0265C42.8368 35.5307 42.3588 35.9801 41.8011 36.2946C41.2186 36.6191 40.5264 36.8038 39.8144 36.8987C38.8932 37.0185 37.9571 36.9735 37.1804 36.8487C36.5131 36.7439 35.9853 36.5791 35.5571 36.3595C35.1638 36.1548 34.8401 35.8902 34.5613 35.5657C34.2625 35.2162 34.0086 34.7968 33.8393 34.3276C33.6799 33.8882 33.5953 33.4089 33.6003 32.8897C33.6053 32.3206 33.7248 31.7015 33.9538 31.1224C34.153 30.6082 34.4368 30.1439 34.7853 29.8044C35.109 29.4849 35.5123 29.2602 35.9405 29.1154C36.4534 28.9407 36.9912 28.8808 37.4841 28.9107C37.9173 28.9407 38.3057 29.0406 38.6293 29.2253C38.9281 29.39 39.187 29.6297 39.3912 29.9392C39.6252 30.2986 39.7995 30.758 39.8791 31.2173C39.9488 31.6067 39.9488 31.9611 39.8592 32.2008C39.8044 32.3456 39.6899 32.4604 39.5505 32.5452C39.3215 32.68 39.0376 32.7449 38.7688 32.74C38.5298 32.74 38.3057 32.685 38.1264 32.6002L38.1165 32.5952C38.6542 32.4704 39.0775 31.9811 39.0775 31.397ZM37.8924 32.3705C37.8924 32.3755 37.8824 32.3955 37.8675 32.4154L37.8625 32.4105H37.8576C37.8526 32.4154 37.8426 32.4204 37.8476 32.4154L37.8526 32.4105L37.8576 32.4055L37.8526 32.4005C37.8476 32.3905 37.8526 32.4005 37.8576 32.4055C37.8775 32.3755 37.8874 32.3655 37.8924 32.3705Z" stroke="white" stroke-width="2" mask="url(#path-1-outside-1_403_1394)"/>
</svg>
