<svg width="247" height="194" viewBox="0 0 247 194" fill="none" xmlns="http://www.w3.org/2000/svg">
<path d="M13.9208 190.613C32.5426 178.184 51.7917 174.158 69.608 176.314C78.6433 177.201 86.7866 178.587 94.421 180.731C109.629 184.705 130.254 191.232 143.645 192.606C186.977 197.729 218.448 175.287 236.43 147.57C241.23 140.084 244.352 128.99 245.856 114.598C247.359 100.205 245.527 83.8269 240.477 66.1059C235.37 48.063 225.745 33.8416 212.292 23.6294C197.648 12.3383 179.559 5.316 158.336 2.50227C137.113 -0.31145 116.306 0.732309 96.2259 5.57331C76.1459 10.4143 57.8599 19.489 41.3824 32.8192C24.5898 46.2161 13.4631 61.7916 8.13842 80.1983C-0.551902 108.437 -1.96179 143.802 3.58791 186.361C4.48105 192.748 8.39288 194.296 13.9208 190.613Z" fill="#9F5794"/>
<path d="M75.4964 74.0563L75.4677 79.1215L80.6247 75.6301L80.5147 95.0288L85.2207 95.0555L85.3669 69.2624L81.6668 69.2414L75.4964 74.0563Z" fill="white"/>
<path d="M99.9084 68.8419C98.5074 68.834 97.2483 69.1502 96.1312 69.7545C95.0141 70.3589 94.075 71.2517 93.3141 72.397C92.5532 73.5423 91.9704 74.94 91.5659 76.5902C91.1614 78.2405 90.9352 80.1073 90.9234 82.1908C90.9118 84.2385 91.0808 86.1075 91.4666 87.7622C91.8524 89.417 92.4192 90.8212 93.1671 91.9751C93.915 93.1289 94.8439 94.0323 95.9539 94.6852C97.0638 95.3382 98.3552 95.6688 99.8281 95.6772C101.229 95.6851 102.488 95.4048 103.605 94.8005C104.722 94.1961 105.661 93.3392 106.422 92.1939C107.183 91.0487 107.766 89.6509 108.17 88.0007C108.575 86.3504 108.765 84.4834 108.777 82.4358C108.789 80.3163 108.584 78.4111 108.162 76.7203C107.741 75.0294 107.138 73.625 106.354 72.4709C105.57 71.3169 104.641 70.4494 103.531 69.8324C102.421 69.2154 101.165 68.9209 99.8003 68.9131L99.9084 68.8419ZM99.7713 74.0143C100.993 74.0212 101.995 74.7454 102.776 76.2227C103.558 77.7001 103.942 79.7499 103.927 82.3724C103.911 85.1385 103.504 87.2198 102.706 88.5804C101.908 89.941 100.935 90.6181 99.785 90.6115C99.2102 90.6083 98.6722 90.4615 98.1711 90.1354C97.67 89.8092 97.2417 89.3038 96.8505 88.6191C96.4592 87.9343 96.1408 87.0703 95.9311 86.0273C95.7215 84.9843 95.6206 83.7622 95.6288 82.3253C95.6371 80.8524 95.752 79.5957 95.9735 78.5552C96.1949 77.5146 96.4872 76.6541 96.8862 75.9738C97.2853 75.2935 97.7192 74.793 98.224 74.4725C98.7287 74.1521 99.2684 74.0114 99.8432 74.0147L99.7713 74.0143Z" fill="white"/>
<path d="M113.258 92.5919C113.253 93.49 113.536 94.246 114.143 94.8602C114.751 95.4744 115.503 95.766 116.401 95.7711C117.3 95.7762 118.056 95.4931 118.67 94.8859C119.284 94.2786 119.576 93.5259 119.581 92.6278C119.586 91.7297 119.303 90.9737 118.695 90.3595C118.088 89.7454 117.335 89.4537 116.437 89.4486C115.539 89.4435 114.783 89.7266 114.169 90.3339C113.555 90.9411 113.263 91.6939 113.258 92.5919ZM113.333 79.3721C113.328 80.2702 113.611 81.0262 114.218 81.6404C114.826 82.2545 115.578 82.5462 116.476 82.5513C117.375 82.5564 118.131 82.2733 118.745 81.666C119.359 81.0588 119.651 80.306 119.656 79.408C119.661 78.5099 119.378 77.7538 118.77 77.1397C118.163 76.5255 117.41 76.2339 116.512 76.2288C115.614 76.2237 114.858 76.5068 114.244 77.114C113.63 77.7213 113.338 78.474 113.333 79.3721Z" fill="white"/>
<path d="M133.131 69.0303C131.73 69.0224 130.47 69.3385 129.353 69.9429C128.236 70.5473 127.297 71.4401 126.536 72.5854C125.775 73.7306 125.193 75.1284 124.788 76.7786C124.384 78.4289 124.157 80.2957 124.146 82.3792C124.134 84.4269 124.303 86.2959 124.689 87.9506C125.075 89.6054 125.641 91.0096 126.389 92.1635C127.137 93.3173 128.066 94.2207 129.176 94.8736C130.286 95.5265 131.577 95.8572 133.05 95.8655C134.451 95.8735 135.71 95.5932 136.827 94.9888C137.944 94.3845 138.883 93.5276 139.644 92.3823C140.405 91.237 140.988 89.8393 141.392 88.189C141.797 86.5388 141.987 84.6718 141.999 82.6242C142.011 80.5047 141.806 78.5995 141.385 76.9087C140.963 75.2178 140.36 73.8133 139.576 72.6593C138.793 71.5053 137.864 70.6378 136.753 70.0208C135.643 69.4038 134.388 69.1093 133.022 69.1015L133.131 69.0303ZM132.994 74.2027C134.215 74.2096 135.217 74.9338 135.999 76.4111C136.781 77.8884 137.164 79.9383 137.149 82.5607C137.134 85.3268 136.727 87.4082 135.929 88.7688C135.131 90.1294 134.157 90.8064 133.007 90.7999C132.432 90.7967 131.894 90.6499 131.393 90.3237C130.892 89.9976 130.464 89.4922 130.073 88.8074C129.681 88.1226 129.363 87.2586 129.153 86.2156C128.944 85.1726 128.843 83.9506 128.851 82.5137C128.859 81.0408 128.974 79.7841 129.196 78.7436C129.417 77.703 129.709 76.8425 130.108 76.1622C130.507 75.4818 130.941 74.9814 131.446 74.6609C131.951 74.3404 132.491 74.1998 133.065 74.2031L132.994 74.2027Z" fill="white"/>
<path d="M155.057 69.1546C153.656 69.1467 152.396 69.4629 151.279 70.0672C150.162 70.6716 149.223 71.5644 148.462 72.7097C147.701 73.855 147.119 75.2527 146.714 76.903C146.31 78.5532 146.083 80.42 146.072 82.5036C146.06 84.5512 146.229 86.4202 146.615 88.075C147.001 89.7297 147.567 91.134 148.315 92.2878C149.063 93.4416 149.992 94.345 151.102 94.9979C152.212 95.6509 153.503 95.9815 154.976 95.9899C156.377 95.9978 157.636 95.7175 158.753 95.1132C159.87 94.5088 160.809 93.6519 161.57 92.5066C162.331 91.3614 162.914 89.9636 163.318 88.3134C163.723 86.6631 163.913 84.7961 163.925 82.7485C163.937 80.629 163.732 78.7238 163.311 77.033C162.889 75.3421 162.286 73.9377 161.502 72.7836C160.719 71.6296 159.79 70.7621 158.679 70.1451C157.569 69.5281 156.314 69.2336 154.948 69.2259L155.057 69.1546ZM154.919 74.327C156.141 74.3339 157.143 75.0581 157.925 76.5354C158.707 78.0128 159.09 80.0627 159.075 82.6851C159.06 85.4512 158.653 87.5325 157.855 88.8931C157.056 90.2537 156.083 90.9308 154.933 90.9243C154.358 90.921 153.82 90.7742 153.319 90.4481C152.818 90.1219 152.39 89.6165 151.999 88.9317C151.607 88.247 151.289 87.383 151.079 86.34C150.87 85.297 150.769 84.0749 150.777 82.638C150.785 81.1651 150.9 79.9084 151.122 78.8679C151.343 77.8273 151.635 76.9668 152.034 76.2865C152.433 75.6062 152.867 75.1057 153.372 74.7852C153.877 74.4648 154.417 74.3241 154.991 74.3274L154.919 74.327Z" fill="white"/>
<path d="M192.181 80.2656L171.681 80.1983L171.658 84.1499L192.158 84.2172L192.181 80.2656Z" fill="white"/>
<path d="M75.2991 108.857L75.2704 113.922L80.4274 110.431L80.3174 129.83L85.0234 129.856L85.1696 104.063L81.4695 104.042L75.2991 108.857Z" fill="white"/>
<path d="M104.56 116.495C105.245 116.032 105.824 115.353 106.332 114.458C106.84 113.562 107.097 112.522 107.104 111.373C107.11 110.331 106.935 109.36 106.546 108.424C106.156 107.487 105.621 106.694 104.907 106.007C104.192 105.321 103.369 104.777 102.401 104.377C101.434 103.976 100.357 103.754 99.2076 103.748C98.058 103.741 96.9791 103.951 96.0069 104.34C95.0347 104.73 94.2054 105.264 93.4831 105.943C92.7607 106.621 92.2172 107.444 91.8168 108.376C91.4163 109.308 91.231 110.313 91.2251 111.354C91.2185 112.504 91.4641 113.547 91.9619 114.448C92.4598 115.349 93.0307 116.035 93.6747 116.505C92.7731 117.111 92.014 117.933 91.3974 118.971C90.7808 120.01 90.4867 121.194 90.4792 122.523C90.4729 123.636 90.6825 124.679 91.1081 125.652C91.5337 126.624 92.1395 127.49 92.8898 128.212C93.6401 128.935 94.5349 129.515 95.5745 129.916C96.614 130.317 97.7264 130.539 98.9478 130.546C100.169 130.553 101.284 130.344 102.328 129.954C103.372 129.565 104.273 128.996 105.032 128.281C105.79 127.567 106.406 126.744 106.842 125.777C107.279 124.809 107.5 123.769 107.507 122.655C107.514 121.326 107.198 120.139 106.593 119.093C105.988 118.048 105.238 117.218 104.344 116.602L104.56 116.495ZM99.0349 108.848C100.041 108.854 100.794 109.145 101.329 109.723C101.865 110.301 102.113 110.949 102.109 111.632C102.105 112.314 101.85 112.923 101.308 113.459C100.766 113.995 100.01 114.278 99.0042 114.272C97.9983 114.267 97.2096 113.975 96.6738 113.433C96.138 112.891 95.8541 112.279 95.858 111.596C95.8619 110.914 96.1168 110.304 96.6589 109.733C97.201 109.161 97.957 108.878 98.9629 108.884L99.0349 108.848ZM98.8688 125.48C97.7552 125.474 96.8587 125.181 96.1796 124.567C95.5005 123.952 95.1456 123.196 95.1507 122.298C95.1558 121.4 95.5193 120.647 96.2053 120.04C96.8913 119.434 97.791 119.151 98.9046 119.158C100.018 119.164 100.915 119.492 101.594 120.107C102.273 120.722 102.592 121.478 102.587 122.376C102.582 123.274 102.218 124.026 101.532 124.633C100.846 125.24 99.9461 125.558 98.8325 125.552L98.8688 125.48Z" fill="white"/>
<path d="M112.184 127.388C112.179 128.286 112.462 129.042 113.069 129.656C113.676 130.27 114.429 130.562 115.327 130.567C116.225 130.572 116.981 130.289 117.595 129.682C118.21 129.075 118.501 128.322 118.506 127.424C118.511 126.526 118.228 125.77 117.621 125.155C117.014 124.541 116.261 124.25 115.363 124.244C114.465 124.239 113.709 124.523 113.095 125.13C112.481 125.737 112.189 126.49 112.184 127.388ZM112.259 114.168C112.254 115.066 112.537 115.822 113.144 116.436C113.751 117.05 114.504 117.342 115.402 117.347C116.3 117.352 117.056 117.069 117.67 116.462C118.284 115.855 118.576 115.102 118.581 114.204C118.586 113.306 118.303 112.55 117.696 111.936C117.089 111.321 116.336 111.03 115.438 111.025C114.54 111.02 113.784 111.303 113.17 111.91C112.555 112.517 112.264 113.27 112.259 114.168Z" fill="white"/>
<path d="M132.056 103.826C130.655 103.818 129.396 104.134 128.279 104.739C127.162 105.343 126.223 106.236 125.462 107.381C124.701 108.527 124.118 109.924 123.714 111.575C123.309 113.225 123.083 115.092 123.071 117.175C123.06 119.223 123.229 121.092 123.614 122.747C124 124.401 124.567 125.806 125.315 126.959C126.063 128.113 126.992 129.017 128.102 129.67C129.212 130.322 130.503 130.653 131.976 130.661C133.377 130.669 134.636 130.389 135.753 129.785C136.87 129.18 137.809 128.323 138.57 127.178C139.331 126.033 139.914 124.635 140.318 122.985C140.723 121.335 140.913 119.468 140.924 117.42C140.936 115.301 140.732 113.395 140.31 111.705C139.889 110.014 139.286 108.609 138.502 107.455C137.718 106.301 136.789 105.434 135.679 104.817C134.569 104.2 133.313 103.905 131.948 103.897L132.056 103.826ZM131.919 108.999C133.141 109.005 134.142 109.73 134.924 111.207C135.706 112.684 136.09 114.734 136.075 117.357C136.059 120.123 135.652 122.204 134.854 123.565C134.056 124.925 133.082 125.602 131.933 125.596C131.358 125.593 130.82 125.446 130.319 125.12C129.818 124.793 129.39 124.288 128.998 123.603C128.607 122.919 128.289 122.055 128.079 121.012C127.869 119.969 127.768 118.747 127.777 117.31C127.785 115.837 127.9 114.58 128.121 113.539C128.343 112.499 128.635 111.638 129.034 110.958C129.433 110.278 129.867 109.777 130.372 109.457C130.877 109.136 131.416 108.996 131.991 108.999L131.919 108.999Z" fill="white"/>
<path d="M153.982 103.951C152.581 103.943 151.322 104.259 150.205 104.863C149.088 105.468 148.149 106.36 147.388 107.506C146.627 108.651 146.044 110.049 145.64 111.699C145.235 113.349 145.009 115.216 144.997 117.299C144.986 119.347 145.155 121.216 145.54 122.871C145.926 124.526 146.493 125.93 147.241 127.084C147.989 128.238 148.918 129.141 150.028 129.794C151.138 130.447 152.429 130.777 153.902 130.786C155.303 130.794 156.562 130.513 157.679 129.909C158.796 129.305 159.735 128.448 160.496 127.303C161.257 126.157 161.839 124.76 162.244 123.109C162.649 121.459 162.839 119.592 162.85 117.544C162.862 115.425 162.658 113.52 162.236 111.829C161.815 110.138 161.212 108.734 160.428 107.58C159.644 106.425 158.715 105.558 157.605 104.941C156.495 104.324 155.239 104.029 153.874 104.022L153.982 103.951ZM153.845 109.123C155.067 109.13 156.068 109.854 156.85 111.331C157.632 112.809 158.016 114.859 158.001 117.481C157.985 120.247 157.578 122.328 156.78 123.689C155.982 125.05 155.008 125.727 153.859 125.72C153.284 125.717 152.746 125.57 152.245 125.244C151.744 124.918 151.316 124.412 150.924 123.728C150.533 123.043 150.215 122.179 150.005 121.136C149.795 120.093 149.694 118.871 149.703 117.434C149.711 115.961 149.826 114.704 150.047 113.664C150.269 112.623 150.561 111.763 150.96 111.082C151.359 110.402 151.793 109.902 152.298 109.581C152.803 109.261 153.342 109.12 153.917 109.123L153.845 109.123Z" fill="white"/>
</svg>
