<svg width="38" height="38" viewBox="0 0 38 38" fill="none" xmlns="http://www.w3.org/2000/svg">
<path d="M19 38C29.4934 38 38 29.4934 38 19C38 8.50659 29.4934 0 19 0C8.50659 0 0 8.50659 0 19C0 29.4934 8.50659 38 19 38Z" fill="#134B6D"/>
<path d="M20.3459 21.4637C23.1019 21.4637 24.9943 20.8922 26.0484 19.7492C27.1026 18.6061 27.6233 17.2091 27.6233 15.5453C27.6233 14.58 27.4201 13.691 27.0391 12.8909C26.6454 12.0907 26.1246 11.4557 25.4769 11.0112C24.8292 10.5667 24.0291 10.2619 23.0765 10.0968C22.3907 9.96975 21.4127 9.90625 20.1173 9.90625H12.7764V23.9022H10.3633V26.201H12.7891V29.3635H15.3673V26.201H23.9021V23.9022H15.3673V21.4637H20.3459ZM15.3673 12.2177H20.3459C21.5144 12.2177 22.3145 12.2812 22.7463 12.3956C23.4194 12.5861 23.9656 12.9671 24.372 13.5386C24.7784 14.1101 24.9943 14.8087 24.9943 15.6342C24.9943 16.7518 24.6514 17.6282 23.9529 18.2505C23.2543 18.8728 22.0732 19.1776 20.4094 19.1776H15.3673V12.2177Z" fill="white"/>
</svg>
