<svg width="865" height="405" viewBox="0 0 865 405" fill="none" xmlns="http://www.w3.org/2000/svg">
<g clip-path="url(#clip0_420_2805)">
<path d="M851.553 146.373L863.324 163.779C864.252 165.151 863.893 167.017 862.522 167.947L848.866 177.207C847.494 178.137 845.63 177.778 844.702 176.406L832.931 159C832.003 157.627 832.362 155.761 833.733 154.831L847.389 145.571C848.761 144.642 850.625 145 851.553 146.373Z" fill="#9F5794"/>
<path d="M613.513 377.976C617.564 377.976 621.717 377.772 625.819 377.364C627.47 377.2 628.97 378.367 629.172 380.014L631.727 400.88C631.928 402.522 630.762 404.02 629.117 404.191C623.939 404.73 618.706 405 613.536 405H613.513C603.986 405 594.422 404.096 585.038 402.321C583.41 402.013 582.371 400.419 582.712 398.797L587.033 378.229C587.374 376.609 588.962 375.574 590.591 375.875C598.152 377.27 605.85 377.976 613.513 377.976Z" fill="#9F5794"/>
<path d="M546.198 359.192C547.618 360.044 548.125 361.87 547.31 363.31L536.953 381.599C536.135 383.042 534.3 383.551 532.874 382.703C520.155 375.141 508.641 365.809 498.594 354.907C497.473 353.691 497.587 351.795 498.823 350.695L514.514 336.735C515.754 335.633 517.651 335.748 518.78 336.964C526.844 345.641 536.044 353.103 546.198 359.192Z" fill="#9F5794"/>
<path d="M718.922 358.856C720.08 360.039 720.063 361.937 718.861 363.074C708.113 373.229 696.003 381.731 682.776 388.424C681.297 389.173 679.502 388.543 678.783 387.049L669.668 368.112C668.949 366.619 669.578 364.83 671.054 364.077C681.626 358.675 691.326 351.867 699.956 343.778C701.167 342.644 703.067 342.659 704.228 343.845L718.922 358.856Z" fill="#9F5794"/>
<path d="M790.349 185.932C791.583 184.823 793.483 184.964 794.566 186.221L808.281 202.145C809.361 203.399 809.219 205.288 807.993 206.399C799.206 214.358 791.617 223.459 785.383 233.546C784.51 234.957 782.671 235.439 781.241 234.597L763.156 223.948C761.731 223.109 761.251 221.273 762.114 219.863C769.843 207.23 779.337 195.838 790.349 185.932Z" fill="#9F5794"/>
<path d="M493.587 297.035C494.194 298.575 493.484 300.332 491.959 300.977L472.632 309.157C471.105 309.802 469.342 309.089 468.726 307.55C463.214 293.77 459.751 279.362 458.414 264.603C458.265 262.954 459.511 261.519 461.162 261.4L482.1 259.894C483.753 259.775 485.186 261.02 485.343 262.67C486.467 274.477 489.234 286.003 493.587 297.035Z" fill="#9F5794"/>
<path d="M740.903 269.947C741.447 268.381 743.158 267.553 744.724 268.098L764.541 274.998C766.104 275.543 766.931 277.249 766.39 278.813L758.441 301.769C756.544 307.237 754.337 312.623 751.847 317.817C751.132 319.31 749.327 319.902 747.848 319.158L729.09 309.714C727.612 308.97 727.019 307.17 727.726 305.674C729.688 301.525 731.441 297.241 732.937 292.896L740.903 269.947Z" fill="#9F5794"/>
<path d="M242.063 37.0456C245.237 34.3216 248.542 31.7002 251.92 29.2403C253.261 28.2643 255.134 28.6009 256.081 29.9616L268.082 47.1978C269.028 48.5564 268.692 50.4215 267.358 51.4014C265.082 53.0729 262.851 54.8291 260.689 56.6446C260.552 56.7599 260.425 56.8876 260.311 57.0258L242.988 77.9697C241.931 79.2474 240.038 79.4255 238.761 78.3672L222.599 64.9684C221.325 63.9119 221.147 62.0229 222.202 60.7471L241.017 37.9938C241.129 37.8573 241.254 37.7312 241.389 37.6167L242.063 37.0456Z" fill="#9F5794"/>
<path d="M464.448 213.562C462.808 213.335 461.661 211.822 461.887 210.182L467.281 170.927C467.506 169.312 468.952 168.149 470.572 168.334L491.472 170.722C493.117 170.91 494.294 172.394 494.077 174.035C494.051 174.229 494.026 174.424 494 174.62L488.606 213.871C488.38 215.513 486.865 216.661 485.223 216.434L464.448 213.562Z" fill="#9F5794"/>
<path d="M193.377 100.338L209.545 113.744C210.82 114.802 210.998 116.694 209.942 117.971L184.532 148.696C183.477 149.973 181.587 150.151 180.311 149.093L164.144 135.687C162.868 134.63 162.69 132.737 163.746 131.46L189.156 100.735C190.212 99.4583 192.102 99.2806 193.377 100.338Z" fill="#9F5794"/>
<path d="M147.779 184.613C148.776 185.935 148.518 187.815 147.174 188.781C138.483 195.03 125.216 202.942 107.623 208.824C106.049 209.35 104.36 208.465 103.867 206.881L97.6207 186.804C97.129 185.223 98.0132 183.546 99.5812 183.016C113.458 178.324 123.934 172.16 130.902 167.207C132.254 166.245 134.133 166.507 135.131 167.832L147.779 184.613Z" fill="#9F5794"/>
<path d="M346.235 0.064721C347.89 0.112209 349.166 1.52011 349.087 3.17403L348.09 24.1858C348.011 25.8405 346.606 27.1146 344.95 27.0757C333.119 26.7977 321.291 28.1785 309.887 31.1616C308.284 31.5811 306.622 30.6638 306.166 29.0704L300.373 8.86562C299.917 7.27625 300.833 5.61477 302.43 5.18618C316.672 1.3636 331.468 -0.358942 346.235 0.064721Z" fill="#9F5794"/>
<path d="M438.821 34.4083C440.104 35.4548 440.258 37.3487 439.188 38.6121L425.613 54.6405C424.541 55.9053 422.65 56.0587 421.36 55.0169C412.153 47.5774 401.992 41.5004 391.073 36.913C389.546 36.2716 388.785 34.5354 389.388 32.9935L397.052 13.4248C397.656 11.8814 399.399 11.1178 400.93 11.7531C414.614 17.4318 427.337 25.04 438.821 34.4083Z" fill="#9F5794"/>
<path d="M491.288 118.098C491.671 119.71 490.641 121.308 489.023 121.66L468.505 126.127C466.886 126.479 465.29 125.45 464.901 123.839C462.114 112.302 457.751 101.277 451.883 90.9772C451.063 89.5387 451.517 87.6985 452.935 86.8437L470.917 76.002C472.337 75.1458 474.185 75.6026 475.011 77.04C482.401 89.888 487.863 103.677 491.288 118.098Z" fill="#9F5794"/>
<path d="M0.742188 170.544L10.4805 160.792C11.47 159.802 13.0444 159.779 14.0565 160.747L40.3252 185.7C41.3597 186.668 42.979 186.623 43.9461 185.61L67.5609 160.68C68.5505 159.644 70.2148 159.621 71.2268 160.635L82.7644 172.188C83.754 173.179 83.754 174.822 82.7644 175.813L58.9021 199.707C57.8901 200.72 57.9126 202.387 58.9471 203.378L84.3162 227.474C85.3508 228.465 85.3732 230.132 84.3612 231.145L72.8236 242.698C71.8341 243.689 70.1923 243.689 69.2027 242.698L44.3959 217.858C43.4063 216.867 41.7645 216.867 40.7749 217.858L14.3038 244.364C13.3143 245.355 11.6725 245.355 10.6829 244.364L0.944588 234.613C-0.0449829 233.622 -0.0674515 232.046 0.899635 231.032L26.7635 203.738C27.7081 202.725 27.708 201.148 26.7185 200.157L0.742188 174.147C-0.247391 173.156 -0.247391 171.535 0.742188 170.544Z" fill="#9F5794"/>
</g>
<defs>
<clipPath id="clip0_420_2805">
<rect width="865" height="405" fill="white" transform="matrix(-1 0 0 1 865 0)"/>
</clipPath>
</defs>
</svg>
