<svg width="610" height="771" viewBox="0 0 610 771" fill="none" xmlns="http://www.w3.org/2000/svg">
<path d="M0.608673 770.706L0.608719 248.042C138.932 252.151 251.304 363.744 254.472 503.439C255.84 563.902 240.634 612.217 207.105 657.286L173.829 644.706L196.055 673.949C186.374 685.844 167.367 703.547 153.428 716.025L102.716 680.695L134.7 729.188C94.8854 756.351 52.1821 769.209 0.608673 770.706Z" fill="#AED7E6"/>
<path d="M0.608195 398.541C93.3896 307.313 195.041 218.064 388.739 165.944C336.355 369.324 139.869 480.765 0.608182 544.348L0.608195 398.541Z" fill="#63B56C"/>
<path d="M1.41301 592.755L1.57906 593.034C2.25649 592.736 3.16658 592.388 4.26616 591.996C5.99983 591.378 8.29225 590.62 11.0841 589.736C16.6693 587.968 24.2832 585.687 33.4861 582.996C51.7177 577.666 76.2111 570.722 103.578 562.963L104.369 562.739L104.642 563.701L104.369 562.739L104.8 562.617C166.807 545.041 249.546 521.589 323.668 498.763C397.225 476.111 462.163 454.113 489.994 439.104L489.842 438.828C461.908 453.893 396.841 475.912 323.43 498.515C249.19 521.374 166.281 544.869 104.281 562.431C74.3363 570.916 49.4798 577.958 31.539 583.216C22.5679 585.845 15.3334 588.026 10.0596 589.716C7.42211 590.562 5.28288 591.282 3.66557 591.872C2.71395 592.22 1.96672 592.514 1.41301 592.755Z" fill="#15466B" stroke="#134B6D" stroke-width="2"/>
<path d="M390.97 477.823C415.35 468.769 458.56 487.842 472.854 509.019C442.188 505.823 391.299 520.711 374.674 483.682C374.902 481.577 376.144 480.563 378.399 480.613" fill="#15466B"/>
<path d="M172.688 543.36C191.24 529.969 210.5 500.879 214.657 474.578C189.466 474.324 122.078 528.067 143.214 550.386" fill="#15466B"/>
<path d="M517.787 411.02C507.473 402.955 492.596 404.73 484.486 415.027C476.402 425.324 478.708 437.498 488.541 448.277C497.133 457.712 515.304 452.563 523.388 442.266C531.473 431.995 528.102 419.111 517.787 411.02Z" fill="#EC6953"/>
<path d="M600.913 381.878C590.598 373.788 575.722 375.614 567.637 385.886C559.553 396.183 563.354 412.617 573.669 420.708C583.984 428.773 596.858 425.425 604.943 415.128C613.027 404.857 611.228 389.969 600.913 381.878Z" fill="#EC6953"/>
<path d="M468.545 365.622C470.294 360.981 467.937 355.781 463.299 354.031C458.636 352.281 454.48 354.462 451.692 359.256C449.259 363.441 453.187 369.452 457.851 371.202C462.488 372.951 466.771 370.263 468.545 365.622Z" fill="#EC6953"/>
<path d="M488.567 392.429C490.316 387.788 487.984 382.589 483.321 380.839C478.658 379.089 473.133 382.31 471.384 386.976C469.61 391.618 472.322 395.929 476.96 397.679C481.623 399.404 486.818 397.071 488.567 392.429Z" fill="#EC6953"/>
<path d="M0.607186 496.819C51.1922 463.087 252.265 284.563 300.519 237.947C212.882 290.802 86.7994 408.077 0.784618 464.989L0.607186 496.819Z" fill="#B87E15"/>
</svg>
