<svg width="365" height="364" viewBox="0 0 365 364" fill="none" xmlns="http://www.w3.org/2000/svg">
<g clip-path="url(#clip0_398_68)">
<path d="M99.1494 156.166C81.1096 173.072 52.8068 172.18 35.8834 154.098C18.9872 136.016 21.2295 112.644 37.9113 90.7675C52.5146 71.547 87.5567 78.2392 104.453 96.3216C121.349 114.404 117.176 139.247 99.1494 156.166Z" fill="#FFE596"/>
<path d="M260.388 197.408C242.348 214.314 214.045 213.394 197.121 195.339C180.184 177.243 184.617 145.618 202.629 128.685C220.669 111.779 245.506 115.981 262.415 134.05C279.312 152.132 278.441 180.461 260.388 197.408Z" fill="#FFE596"/>
<path d="M201.102 294.324C190.668 293.645 182.806 284.577 183.534 274.158C184.236 263.739 192.109 257.703 203.657 256.584C213.815 255.573 221.821 268.347 221.119 278.793C220.391 289.212 211.522 295.07 201.102 294.324Z" fill="#FFE596"/>
<path d="M234.781 356.12C224.361 355.401 216.498 346.387 217.213 335.954C217.915 325.535 228.958 317.742 239.392 318.475C249.813 319.222 255.632 328.127 254.944 338.56C254.229 348.965 245.201 356.839 234.781 356.12Z" fill="#FFE596"/>
</g>
<defs>
<clipPath id="clip0_398_68">
<rect width="333.534" height="181.396" fill="white" transform="translate(128.125) rotate(44.937)"/>
</clipPath>
</defs>
</svg>
