<svg width="20" height="20" fill="none" xmlns="http://www.w3.org/2000/svg"><path d="M16.72.517a.922.922 0 0 0-1.003.153l-1.3 1.15L12.65.24a.935.935 0 0 0-1.248 0L9.635 1.82 7.866.24a.936.936 0 0 0-1.248 0l-1.77 1.58L3.549.67A.93.93 0 0 0 2 1.37v17.26a.931.931 0 0 0 1.55.701l1.3-1.15 1.768 1.581a.935.935 0 0 0 1.249 0l1.767-1.58 1.767 1.58a.936.936 0 0 0 1.248 0l1.77-1.582 1.3 1.151a.93.93 0 0 0 1.548-.701V1.37a.922.922 0 0 0-.547-.854z" fill="#fff"/><path d="M14.44 9.532H5.56a.468.468 0 1 0 0 .936h8.879a.468.468 0 0 0 0-.936zm-4.215-2.81H5.56a.468.468 0 1 0 0 .936h4.664a.468.468 0 1 0 0-.936zm4.215 5.62H5.56a.468.468 0 0 0 0 .936h8.879a.468.468 0 1 0 0-.936z" fill="#000"/></svg>