<svg xmlns="http://www.w3.org/2000/svg" viewBox="0 0 387.03 130.17"><defs><style>.cls-1{fill:#fff}</style></defs><g id="Layer_2" data-name="Layer 2"><g id="Layer_1-2" data-name="Layer 1"><path id="text" class="cls-1" d="M24.81 123.81l4.26-21.74h5.15l-6.55 28.1h-5.81l-4.73-21.55-4.65 21.55H6.59L0 102.07h5.35l4.5 21.7 4.45-21.7H20zm36.8-21.74h-4.92v28.1h4.92zm48.29 28.1v-28.1h-4.77v22.44l-11.9-22.44h-6.59v28.1h4.77v-22.44l11.89 22.44zm68.22-28.1v28.1H183v-10.62h4.42c6.63 0 11.86-1.55 11.86-8.65 0-7.86-5.77-8.83-11.93-8.83zm9.27 4c3.44 0 6.82.39 6.82 4.93 0 4-2.87 4.57-6.59 4.57H183V106zm94.54 24.15h5.54l-6.47-12.8a7.08 7.08 0 0 0 5.27-7.25c0-6.24-4.26-8.1-12.52-8.1h-9v28.1h4.92v-11.82h6.24zM274.49 106c3.87 0 6.78.51 6.78 4.19 0 3.37-2.4 4.22-6.63 4.22h-4.88V106zm40.95-4h-4.92v28.1h4.92v-8.6l4.11-4.5 8.84 13.1h5.81l-11.39-16.6 10.42-11.43h-5.85l-11.94 13.37zm-83.34 0h-5.19l-10.47 28.1h5l2.17-6.24 1.45-4.11H225l4.23-12.06v.11l4.07 11.2 1.72 4.91 2.21 6.24h5.39zm-92.26 15.7H154v-4h-19.08v16.51h19.88V126h-15zm-4.92-15.7v4.11h19.88V102z"/><path id="logo" class="cls-1" d="M0 12.42l13.53-4c.26 7.31.46 14.25.78 21.18a38.46 38.46 0 0 0 .84 7.11c1 4.1 3.58 5.13 7.26 3a27.73 27.73 0 0 0 4.52-3.5c5.56-5.1 10.94-10.41 16.64-15.34s11.94-9.63 19.4-12S77.74 7.08 84.08 12a72.44 72.44 0 0 1 9.49 9.21c3.18 3.58 5.89 7.56 8.89 11.29 2.64 3.28 5.54 6.21 9.59 7.88 5 2.07 10.2 1.77 15.2.82 13-2.47 26-5.5 39-8.16 11.23-2.31 22.51-4.42 33.76-6.65 10.1-2 20.17-4.17 30.29-6 9.64-1.75 19.33-3.17 29-4.75 8.86-1.45 17.7-3 26.58-4.36 11.24-1.69 22.48-3.39 33.77-4.71 16.53-1.93 33.1-3.53 49.65-5.23 4.85-.5 9.7-.89 14.64-1.34.93-.08 1.87 0 3.09 0-.85 3.12-1.64 6-2.53 9.25-3.24.42-6.52.91-9.81 1.24-12.28 1.25-24.57 2.38-36.83 3.7-6.78.73-13.53 1.77-20.3 2.62-8.66 1.09-17.34 2.05-26 3.21-6.52.88-13 2-19.53 3-9.93 1.56-19.86 3.11-29.78 4.72-13.57 2.19-27.16 4.35-40.71 6.68-9.66 1.67-19.27 3.63-28.91 5.43-11.87 2.23-23.74 4.48-35.62 6.62-6.94 1.24-13.9 2.44-20.89 3.34a59.83 59.83 0 0 1-11.12.26c-5.7-.32-10.16-3.37-13.85-7.48-3-3.38-5.76-7-8.61-10.59a50.77 50.77 0 0 0-11.15-10.6c-6.24-4.21-12.5-4.12-18.85-.34-4.88 2.91-8.94 6.79-13 10.7C34.11 37 28.63 42.17 23 47.21a26.68 26.68 0 0 1-9.8 5.8c-3.66 1.16-6.69.1-8.46-3.32a24.28 24.28 0 0 1-2.11-6.07C.51 33.5.06 23.22 0 12.42"/><path id="text-2" data-name="text" class="cls-1" d="M24.81 123.81l4.26-21.74h5.15l-6.55 28.1h-5.81l-4.73-21.55-4.65 21.55H6.59L0 102.07h5.35l4.5 21.7 4.45-21.7H20zm36.8-21.74h-4.92v28.1h4.92zm48.29 28.1v-28.1h-4.77v22.44l-11.9-22.44h-6.59v28.1h4.77v-22.44l11.89 22.44zm68.22-28.1v28.1H183v-10.62h4.42c6.63 0 11.86-1.55 11.86-8.65 0-7.86-5.77-8.83-11.93-8.83zm9.27 4c3.44 0 6.82.39 6.82 4.93 0 4-2.87 4.57-6.59 4.57H183V106zm94.54 24.15h5.54l-6.47-12.8a7.08 7.08 0 0 0 5.27-7.25c0-6.24-4.26-8.1-12.52-8.1h-9v28.1h4.92v-11.82h6.24zM274.49 106c3.87 0 6.78.51 6.78 4.19 0 3.37-2.4 4.22-6.63 4.22h-4.88V106zm40.95-4h-4.92v28.1h4.92v-8.6l4.11-4.5 8.84 13.1h5.81l-11.39-16.6 10.42-11.43h-5.85l-11.94 13.37zm-83.34 0h-5.19l-10.47 28.1h5l2.17-6.24 1.45-4.11H225l4.23-12.06v.11l4.07 11.2 1.72 4.91 2.21 6.24h5.39zm-92.26 15.7H154v-4h-19.08v16.51h19.88V126h-15zm-4.92-15.7v4.11h19.88V102z"/><path id="logo-2" data-name="logo" class="cls-1" d="M0 12.42l13.53-4c.26 7.31.46 14.25.78 21.18a38.46 38.46 0 0 0 .84 7.11c1 4.1 3.58 5.13 7.26 3a27.73 27.73 0 0 0 4.52-3.5c5.56-5.1 10.94-10.41 16.64-15.34s11.94-9.63 19.4-12S77.74 7.08 84.08 12a72.44 72.44 0 0 1 9.49 9.21c3.18 3.58 5.89 7.56 8.89 11.29 2.64 3.28 5.54 6.21 9.59 7.88 5 2.07 10.2 1.77 15.2.82 13-2.47 26-5.5 39-8.16 11.23-2.31 22.51-4.42 33.76-6.65 10.1-2 20.17-4.17 30.29-6 9.64-1.75 19.33-3.17 29-4.75 8.86-1.45 17.7-3 26.58-4.36 11.24-1.69 22.48-3.39 33.77-4.71 16.53-1.93 33.1-3.53 49.65-5.23 4.85-.5 9.7-.89 14.64-1.34.93-.08 1.87 0 3.09 0-.85 3.12-1.64 6-2.53 9.25-3.24.42-6.52.91-9.81 1.24-12.28 1.25-24.57 2.38-36.83 3.7-6.78.73-13.53 1.77-20.3 2.62-8.66 1.09-17.34 2.05-26 3.21-6.52.88-13 2-19.53 3-9.93 1.56-19.86 3.11-29.78 4.72-13.57 2.19-27.16 4.35-40.71 6.68-9.66 1.67-19.27 3.63-28.91 5.43-11.87 2.23-23.74 4.48-35.62 6.62-6.94 1.24-13.9 2.44-20.89 3.34a59.83 59.83 0 0 1-11.12.26c-5.7-.32-10.16-3.37-13.85-7.48-3-3.38-5.76-7-8.61-10.59a50.77 50.77 0 0 0-11.15-10.6c-6.24-4.21-12.5-4.12-18.85-.34-4.88 2.91-8.94 6.79-13 10.7C34.11 37 28.63 42.17 23 47.21a26.68 26.68 0 0 1-9.8 5.8c-3.66 1.16-6.69.1-8.46-3.32a24.28 24.28 0 0 1-2.11-6.07C.51 33.5.06 23.22 0 12.42"/></g></g></svg>