<svg width="24" height="38" fill="none" xmlns="http://www.w3.org/2000/svg"><path d="M1.087 9.684a10.1 10.1 0 0 1 .91-3.234c.9-1.878 2.285-3.291 4.163-4.22 1.5-.736 3.088-1.075 4.734-1.182.107-.01.203-.038.31-.048h1.83c.716.097 1.442.155 2.149.29 1.955.359 3.717 1.133 5.16 2.518 1.53 1.471 2.41 3.291 2.73 5.382.106.678.145 1.375.145 2.062.01 2.266.01 4.54.01 6.806" stroke="#D0D0D0" stroke-miterlimit="10" stroke-linecap="round" stroke-linejoin="round"/><path d="M1.153 9.267a13.732 13.732 0 0 0-.143 2.08C1 13.635 1 15.932 1 18.218m22.237 1.612c0 .067 0-.059 0 0" stroke="#D0D0D0" stroke-miterlimit="10" stroke-linecap="round" stroke-linejoin="round"/><path d="M23.237 21.61v5.335c0 1.617-.29 3.166-.987 4.628-.9 1.868-2.265 3.282-4.144 4.191-2.14 1.046-4.424 1.307-6.776 1.22-1.782-.067-3.515-.397-5.131-1.18-2.208-1.075-3.698-2.789-4.56-5.074C1.174 29.491 1 28.194 1 26.868V11.833" stroke="#D0D0D0" stroke-miterlimit="10" stroke-linecap="round" stroke-linejoin="round"/><path d="M1 21.61v5.335c0 1.617.29 3.166.987 4.628.9 1.868 2.266 3.282 4.144 4.191 2.14 1.046 4.424 1.307 6.777 1.22 1.78-.067 3.514-.397 5.13-1.18 2.208-1.075 3.699-2.789 4.56-5.074.465-1.239.64-2.536.64-3.862V11.833" stroke="#D0D0D0" stroke-miterlimit="10" stroke-linecap="round" stroke-linejoin="round"/><path d="M10.652 10.458c0 .513-.01 1.027 0 1.55.02.88.63 1.52 1.452 1.529.842.01 1.481-.63 1.491-1.53.01-1.007.01-2.013 0-3.02-.01-.881-.63-1.52-1.452-1.53-.842-.01-1.472.64-1.491 1.53-.01.493 0 .978 0 1.471z" stroke="#D0D0D0" stroke-miterlimit="10"/></svg>