<svg width="20" height="25" viewBox="0 0 20 25" fill="none" xmlns="http://www.w3.org/2000/svg">
<path d="M9.52149 0C4.27149 0 0 4.27148 0 9.52149C0 11.5991 0.65625 13.5732 1.89941 15.2295L8.93457 24.7046C8.95215 24.7276 8.97901 24.7364 8.99854 24.7569C9.3501 25.1334 9.85742 25.0386 10.1079 24.7046C12.1338 22.0015 15.8472 16.9531 17.2749 15.0488C17.2749 15.0488 17.2754 15.0474 17.2759 15.0464L17.2847 15.0347C18.4351 13.4185 19.043 11.5122 19.043 9.52149C19.043 4.27148 14.7715 0 9.52149 0ZM9.52149 14.6582C6.69483 14.6582 4.38477 12.3481 4.38477 9.52149C4.38477 6.69482 6.69483 4.38477 9.52149 4.38477C12.3481 4.38477 14.6582 6.69482 14.6582 9.52149C14.6582 12.3481 12.3481 14.6582 9.52149 14.6582Z" fill="url(#paint0_linear_31_33)"/>
<defs>
<linearGradient id="paint0_linear_31_33" x1="9.52149" y1="0" x2="9.52149" y2="25" gradientUnits="userSpaceOnUse">
<stop stop-color="#FFB801"/>
<stop offset="1" stop-color="#F1AE01"/>
</linearGradient>
</defs>
</svg>
