<svg width="21" height="16" viewBox="0 0 21 16" fill="none" xmlns="http://www.w3.org/2000/svg">
<path d="M0.438376 1.40337C3.32054 3.84425 8.37785 8.13851 9.86426 9.47746C10.0638 9.65818 10.2778 9.75005 10.5 9.75005C10.7217 9.75005 10.9354 9.65904 11.1345 9.47918C12.6221 8.13892 17.6795 3.84425 20.5617 1.40337C20.7411 1.2517 20.7685 0.985094 20.6232 0.799662C20.2874 0.371172 19.7866 0.125488 19.25 0.125488H1.75001C1.21341 0.125488 0.712647 0.371172 0.376852 0.799703C0.231575 0.985094 0.258932 1.2517 0.438376 1.40337Z" fill="url(#paint0_linear_31_25)"/>
<path d="M20.7462 2.72609C20.5912 2.6539 20.4087 2.67909 20.2797 2.78934C17.0834 5.49891 13.0041 8.97203 11.7206 10.1285C11.0003 10.7788 10.0005 10.7788 9.27847 10.1277C7.91044 8.89509 3.32948 5.00074 0.720316 2.7893C0.59042 2.67905 0.407572 2.65472 0.253764 2.72605C0.0991348 2.79787 0 2.95254 0 3.123V14.1254C0 15.0906 0.784834 15.8755 1.75001 15.8755H19.25C20.2152 15.8755 21 15.0906 21 14.1254V3.123C21 2.95254 20.9009 2.79746 20.7462 2.72609Z" fill="url(#paint1_linear_31_25)"/>
<defs>
<linearGradient id="paint0_linear_31_25" x1="10.5" y1="0.125488" x2="10.5" y2="9.75005" gradientUnits="userSpaceOnUse">
<stop stop-color="#FFB801"/>
<stop offset="1" stop-color="#F1AE01"/>
</linearGradient>
<linearGradient id="paint1_linear_31_25" x1="10.5" y1="2.6853" x2="10.5" y2="15.8755" gradientUnits="userSpaceOnUse">
<stop stop-color="#FFB801"/>
<stop offset="1" stop-color="#F1AE01"/>
</linearGradient>
</defs>
</svg>
