<svg width="75" height="98" viewBox="0 0 75 98" fill="none" xmlns="http://www.w3.org/2000/svg">
<path d="M37.3242 0C16.7442 0 0 16.7442 0 37.3242C0 45.4686 2.5725 53.2071 7.4457 59.6996L35.0235 96.8422C35.0924 96.9321 35.1977 96.9666 35.2743 97.047C36.6524 98.5227 38.6411 98.1514 39.623 96.8422C47.5645 86.2459 62.1209 66.4562 67.7176 58.9914C67.7176 58.9914 67.7195 58.9857 67.7214 58.9818L67.7559 58.9359C72.2654 52.6003 74.6484 45.1278 74.6484 37.3242C74.6484 16.7442 57.9042 0 37.3242 0ZM37.3242 57.4602C26.2437 57.4602 17.1883 48.4047 17.1883 37.3242C17.1883 26.2437 26.2437 17.1883 37.3242 17.1883C48.4047 17.1883 57.4602 26.2437 57.4602 37.3242C57.4602 48.4047 48.4047 57.4602 37.3242 57.4602Z" fill="url(#paint0_linear_102_99)"/>
<defs>
<linearGradient id="paint0_linear_102_99" x1="37.3242" y1="0" x2="37.3242" y2="98" gradientUnits="userSpaceOnUse">
<stop stop-color="#FEC326"/>
<stop offset="1" stop-color="#B4822C"/>
</linearGradient>
</defs>
</svg>
