<svg width="46" height="46" viewBox="0 0 46 46" fill="none" xmlns="http://www.w3.org/2000/svg">
<circle cx="23" cy="23" r="23" fill="#B0002C"/>
<g clip-path="url(#clip0_158_6)">
<path d="M32.3952 26.1277C31.1707 26.1277 29.9684 25.9362 28.8291 25.5597C28.2708 25.3693 27.5845 25.544 27.2438 25.8939L24.995 27.5915C22.387 26.1994 20.7806 24.5934 19.4074 22.0051L21.0551 19.8148C21.4832 19.3873 21.6367 18.7629 21.4528 18.1769C21.0746 17.0316 20.8826 15.8299 20.8826 14.6049C20.8826 13.7199 20.1627 13 19.2778 13H15.6048C14.7199 13 14 13.7199 14 14.6048C14 24.7481 22.252 33 32.3952 33C33.2801 33 34.0001 32.2801 34.0001 31.3952V27.7325C34 26.8477 33.2801 26.1277 32.3952 26.1277Z" fill="white"/>
</g>
<defs>
<clipPath id="clip0_158_6">
<rect width="20" height="20" fill="white" transform="translate(14 13)"/>
</clipPath>
</defs>
</svg>
