<svg width="119" height="64" viewBox="0 0 119 64" fill="none" xmlns="http://www.w3.org/2000/svg">
<path d="M26.9072 43.0252L26.1598 24.7147H16.6826L12.4632 43.0252H10.4309V50.1097H14.1494V47.0735H24.9947V50.1097H28.7123V43.0252H26.9072ZM16.1392 43.0252L19.5281 29.1154H22.7796L23.1113 43.0252H16.1392Z" fill="white"/>
<path d="M34.3134 24.7227L30.767 24.7148V47.0736H34.3095V40.3994C38.554 40.3994 41.5726 37.1541 41.5726 32.561C41.5726 27.9689 38.556 24.7246 34.3134 24.7227ZM34.3095 35.9163V29.1155C36.308 29.1155 37.855 30.1521 37.855 32.5159C37.855 34.8807 36.308 35.9163 34.3095 35.9163Z" fill="white"/>
<path d="M47.2383 38.8997V24.715H43.7393V47.0728H47.451L52.3511 33.8521L51.8734 47.0728H55.4605L55.941 24.7504H52.1867L47.2383 38.8997Z" fill="white"/>
<path d="M88.7559 34.7053C89.5825 33.7531 90.0737 32.5015 90.0737 31.0123C90.0737 27.5933 87.6063 24.7151 83.6431 24.7151H80.2321V47.0729H83.6035C87.9418 47.0729 91.3867 45.0026 91.3867 39.7666C91.3867 37.4077 90.3193 35.7075 88.7559 34.7053ZM83.7746 28.837C85.8089 28.837 86.5311 29.9335 86.5311 31.1026C86.5311 32.2708 85.7664 33.4115 83.7795 33.4134H83.7746V28.837ZM83.7746 42.9432V36.7706C86.185 36.7706 87.7562 37.6816 87.7562 39.8569C87.7562 42.0312 86.1183 42.9432 83.7746 42.9432Z" fill="white"/>
<path d="M100.573 24.7303L97.7106 33.0536L94.5384 24.7303H90.3809L95.9055 38.3014L92.8783 47.1038H96.883L104.598 24.7303H100.573Z" fill="white"/>
<path d="M116.308 43.0253L114.641 24.7148H106.546C106.546 24.7148 104.678 38.6246 102.908 43.0253H100.75V50.1314H104.467V47.0736H114.658V50.1314H118.376V43.0253H116.308ZM106.941 43.0253C108.217 38.871 109.122 33.575 109.569 29.1155H111.437L112.512 43.0253H106.941Z" fill="white"/>
<path d="M67.3774 38.8251L63.1764 24.715H59.6464L58.8912 47.0659H62.3584L62.6523 34.6943L65.403 43.3033H68.9688L73.3187 33.4869V47.0659H76.8178V24.7071L73.2887 24.715L67.3774 38.8251Z" fill="white"/>
<path d="M9.60091 26.7813L9.52453 26.8608L9.60091 26.7813ZM1.92018 26.7813L1.99656 26.8608L1.92018 26.7813ZM9.52453 26.8608C7.44578 29.0017 7.44578 32.4728 9.52453 34.6147L9.60091 34.6942L9.52453 34.6147C8.48515 33.5438 7.12285 33.0088 5.76055 33.0088C4.39824 33.0088 3.03594 33.5438 1.99656 34.6147C4.07531 32.4728 4.07531 29.0017 1.99656 26.8608C3.03594 27.9308 4.39824 28.4667 5.76055 28.4667C7.12285 28.4667 8.48515 27.9308 9.52453 26.8608ZM1.99656 34.6147L1.92018 34.6942L1.99656 34.6147ZM7.68169 24.8042L7.60531 24.8828L9.52453 26.8608L7.60531 24.8828C7.11221 25.3903 6.45668 25.67 5.76055 25.67C5.06441 25.67 4.40888 25.3903 3.91675 24.8828L3.8394 24.8042L0 28.7593L0.0763823 28.8378C1.09352 29.8852 1.09352 31.5893 0.0763823 32.6367L0 32.7162L3.8394 36.6713L3.91675 36.5918C4.40888 36.0842 5.06441 35.8055 5.76055 35.8055C6.45668 35.8055 7.11221 36.0842 7.60531 36.5918L7.68169 36.6713L11.5211 32.7162L11.4437 32.6367C10.4276 31.5893 10.4276 29.8852 11.4437 28.8378L11.5211 28.7593L7.68169 24.8042Z" fill="white"/>
<path d="M113.237 21.7531L113.046 21.5548C108.386 16.7576 100.808 16.7576 96.1498 21.5548L95.9584 21.7531L94.0392 19.7751L94.2306 19.5778C98.888 14.7796 98.888 6.97258 94.2306 2.17531L94.0392 1.97702L95.9584 1.90735e-06L96.1498 0.198292C98.4065 2.52183 101.407 3.80189 104.597 3.80189C107.788 3.80189 110.789 2.52183 113.046 0.198292L113.237 1.90735e-06L115.156 1.97702L114.965 2.17531C110.308 6.97258 110.308 14.7796 114.965 19.5778L115.156 19.7751L113.237 21.7531ZM99.5454 5.67289C100.734 9.02126 100.735 12.7191 99.5503 16.0684C101.145 15.4677 102.848 15.1545 104.597 15.1545C106.342 15.1545 108.042 15.4667 109.635 16.0655C109.055 14.4252 108.751 12.6739 108.751 10.8766C108.751 9.07427 109.055 7.32008 109.638 5.67682C106.386 6.89797 102.796 6.89601 99.5454 5.67289Z" fill="white"/>
<path d="M75.4597 57.0083L73.5405 55.0313L77.6139 50.8358L79.5331 52.8138L75.4597 57.0083Z" fill="white"/>
<path d="M70.8244 57.0083L66.752 52.8138L68.6712 50.8358L72.7445 55.0313L70.8244 57.0083Z" fill="white"/>
<path d="M68.6718 64L66.7526 62.023L70.825 57.8275L72.7452 59.8045L68.6718 64Z" fill="white"/>
<path d="M77.6133 64L73.5399 59.8045L75.4591 57.8275L79.5325 62.023L77.6133 64Z" fill="white"/>
<path d="M85.0999 53.366V56.248H84.5894V53.9363H83.3431V56.248H82.8317V53.366H85.0999Z" fill="white"/>
<path d="M87.7021 56.2481L87.4768 55.6582H86.3069L86.0807 56.2481H85.5315L86.6347 53.366H87.1374L88.2406 56.2481H87.7021ZM87.2622 55.0996L86.8919 54.1288L86.5167 55.0996H87.2622Z" fill="white"/>
<path d="M89.8343 53.4301C89.9445 53.4723 90.0412 53.5332 90.1234 53.6127C90.2046 53.6922 90.2684 53.7855 90.3158 53.8964C90.3631 54.0054 90.3854 54.1281 90.3854 54.2655C90.3854 54.3961 90.3641 54.5168 90.3196 54.6258C90.2752 54.7357 90.2133 54.8299 90.133 54.9094C90.0528 54.988 89.9561 55.0498 89.8449 55.094C89.7328 55.1382 89.6109 55.1598 89.4785 55.1598H89.1816V56.2474H88.6711V53.3663H89.4746C89.6042 53.3663 89.7241 53.3879 89.8343 53.4301ZM89.1816 54.5943H89.552C89.6428 54.5943 89.7202 54.5639 89.7821 54.504C89.8449 54.4432 89.8758 54.3637 89.8758 54.2655C89.8758 54.1713 89.8459 54.0927 89.7859 54.0279C89.727 53.9641 89.6486 53.9317 89.552 53.9317H89.1816V54.5943Z" fill="white"/>
<path d="M91.4016 53.366V54.4664L92.353 53.366H93.0076L91.8261 54.7353L93.1594 56.248H92.4545L91.4016 55.0554V56.248H90.8921V53.366H91.4016Z" fill="white"/>
<path d="M89.6198 58.5761V61.4582H89.1093V59.1464H87.8621V61.4582H87.3516V58.5761H89.6198Z" fill="white"/>
<path d="M91.5224 58.6404C91.6326 58.6826 91.7293 58.7435 91.8105 58.823C91.8927 58.9025 91.9565 58.9957 92.0039 59.1057C92.0503 59.2156 92.0735 59.3383 92.0735 59.4758C92.0735 59.6063 92.0522 59.7261 92.0077 59.836C91.9633 59.946 91.9014 60.0402 91.8211 60.1197C91.7399 60.1982 91.6442 60.2591 91.533 60.3043C91.4209 60.3484 91.299 60.37 91.1656 60.37H90.8698V61.4577H90.3593V58.5766H91.1617C91.2923 58.5766 91.4122 58.5972 91.5224 58.6404ZM90.8698 59.8046H91.2401C91.3309 59.8046 91.4073 59.7742 91.4692 59.7133C91.533 59.6534 91.563 59.5739 91.563 59.4758C91.563 59.3815 91.534 59.303 91.4731 59.2382C91.4141 59.1734 91.3367 59.142 91.2401 59.142H90.8698V59.8046Z" fill="white"/>
<path d="M94.4154 61.4578V59.5151L93.0937 61.4578H92.5803V58.5757H93.0899V60.5311L94.4154 58.5757H94.925V61.4578H94.4154Z" fill="white"/>
<path d="M96.1743 58.5761V59.6765L97.1248 58.5761H97.7803L96.5988 59.9445L97.9321 61.4582H97.2272L96.1743 60.2665V61.4582H95.6648V58.5761H96.1743Z" fill="white"/>
<path d="M100.539 61.4578H100.028V59.1461H99.2719L99.2642 59.3787C99.2536 59.7164 99.2294 60.0148 99.1917 60.2759C99.154 60.5371 99.0998 60.756 99.0283 60.9317C98.9567 61.1084 98.8678 61.2438 98.7614 61.3351C98.6551 61.4274 98.5294 61.4745 98.3834 61.4745C98.3428 61.4745 98.3022 61.4696 98.2664 61.4598C98.2297 61.451 98.2016 61.4402 98.1813 61.4303L98.0875 60.9641C98.1658 60.9592 98.2364 60.9435 98.3022 60.9179C98.3669 60.8924 98.423 60.8502 98.4733 60.7913C98.5226 60.7324 98.5652 60.6539 98.6019 60.5528C98.6377 60.4526 98.6686 60.324 98.6957 60.168C98.7208 60.0109 98.7411 59.8214 98.7537 59.5996C98.7663 59.3777 98.775 59.1147 98.7779 58.8133L98.7817 58.5757H100.539V61.4578Z" fill="white"/>
<path d="M104.173 58.6322C104.348 58.7068 104.5 58.8109 104.634 58.9434C104.765 59.0759 104.871 59.234 104.947 59.4165C105.024 59.6001 105.061 59.8004 105.061 60.0173C105.061 60.2313 105.024 60.4296 104.947 60.6112C104.871 60.7928 104.766 60.9508 104.636 61.0853C104.504 61.2178 104.352 61.3229 104.178 61.3994C104.003 61.476 103.82 61.5143 103.628 61.5143C103.45 61.5143 103.282 61.4829 103.121 61.422C102.959 61.3602 102.816 61.2738 102.689 61.1629C102.561 61.0519 102.455 60.9194 102.369 60.7653C102.283 60.6112 102.225 60.4443 102.197 60.2617H101.787V61.4583H101.278V58.5763H101.787V59.6924H102.209C102.246 59.5206 102.308 59.3635 102.396 59.2202C102.485 59.0779 102.591 58.9532 102.716 58.8491C102.84 58.7451 102.981 58.6636 103.134 58.6067C103.289 58.5488 103.45 58.5193 103.621 58.5193C103.815 58.5193 103.999 58.5576 104.173 58.6322ZM103.257 59.1564C103.146 59.2006 103.048 59.2634 102.965 59.3449C102.882 59.4264 102.817 59.5235 102.771 59.6374C102.723 59.7513 102.7 59.8779 102.7 60.0173C102.7 60.1567 102.723 60.2823 102.771 60.3962C102.817 60.5101 102.882 60.6082 102.965 60.6887C103.048 60.7702 103.146 60.834 103.257 60.8782C103.369 60.9224 103.49 60.944 103.621 60.944C103.75 60.944 103.871 60.9224 103.982 60.8782C104.094 60.834 104.191 60.7702 104.273 60.6887C104.354 60.6082 104.419 60.5101 104.466 60.3962C104.513 60.2823 104.535 60.1567 104.535 60.0173C104.535 59.8779 104.513 59.7513 104.466 59.6374C104.419 59.5235 104.354 59.4264 104.273 59.3449C104.191 59.2634 104.094 59.2006 103.982 59.1564C103.871 59.1122 103.75 59.0896 103.621 59.0896C103.49 59.0896 103.369 59.1122 103.257 59.1564Z" fill="white"/>
<path d="M105.979 59.3627C105.979 59.5149 106.014 59.6219 106.082 59.6837C106.152 59.7456 106.257 59.776 106.401 59.776C106.476 59.776 106.538 59.7721 106.587 59.7642C106.636 59.7554 106.687 59.7456 106.739 59.7318V58.5764H107.249V61.4575H106.739V60.3021C106.682 60.3149 106.621 60.3257 106.556 60.3345C106.49 60.3424 106.413 60.3463 106.322 60.3463C106.205 60.3463 106.095 60.3306 105.992 60.3002C105.887 60.2698 105.797 60.2217 105.72 60.1559C105.644 60.0901 105.583 60.0057 105.537 59.9026C105.491 59.7995 105.469 59.6759 105.469 59.5306V58.5764H105.979V59.3627Z" fill="white"/>
<path d="M109.533 58.5761V59.1464H108.5V59.6922H109.416V60.2615H108.5V60.8878H109.533V61.4582H107.989V58.5761H109.533Z" fill="white"/>
<path d="M110.685 58.5761V59.6922H111.987V58.5761H112.498V61.4582H111.987V60.2615H110.685V61.4582H110.176V58.5761H110.685Z" fill="white"/>
<path d="M115.071 61.4578V59.5151L113.751 61.4578H113.237V58.5757H113.747V60.5311L115.071 58.5757H115.582V61.4578H115.071Z" fill="white"/>
<path d="M118.157 61.4578V59.5151L116.835 61.4578H116.322V58.5757H116.831V60.5311L118.157 58.5757H118.667V61.4578H118.157ZM118.097 58.0682C118.061 58.1448 118.013 58.2096 117.952 58.2626C117.891 58.3166 117.82 58.3588 117.739 58.3892C117.659 58.4196 117.573 58.4353 117.482 58.4353C117.391 58.4353 117.305 58.4196 117.223 58.3892C117.141 58.3588 117.071 58.3166 117.01 58.2626C116.951 58.2096 116.904 58.1448 116.868 58.0682C116.833 57.9916 116.816 57.9102 116.816 57.8218L117.19 57.761C117.195 57.8365 117.224 57.8994 117.276 57.9543C117.328 58.0073 117.397 58.0339 117.482 58.0339C117.573 58.0339 117.645 58.0073 117.695 57.9543C117.745 57.8994 117.773 57.8365 117.778 57.761L118.148 57.8218C118.148 57.9102 118.132 57.9916 118.097 58.0682Z" fill="white"/>
<path d="M84.6675 61.5139V59.5712L83.3468 61.5139H82.8324V58.6318H83.3429V60.5872L84.6675 58.6318H85.178V61.5139H84.6675Z" fill="white"/>
<path d="M95.3814 54.1646C95.3814 54.3167 95.4152 54.4247 95.4838 54.4856C95.5535 54.5474 95.6588 54.5778 95.8019 54.5778C95.8773 54.5778 95.9392 54.5739 95.9885 54.5661C96.0388 54.5582 96.0881 54.5474 96.1413 54.5337V53.3783H96.6508V56.2604H96.1413V55.104C96.0843 55.1177 96.0224 55.1276 95.9576 55.1364C95.8928 55.1443 95.8145 55.1482 95.7236 55.1482C95.6066 55.1482 95.4964 55.1325 95.393 55.102C95.2885 55.0716 95.1996 55.0235 95.1213 54.9577C95.0449 54.892 94.9849 54.8076 94.9385 54.7045C94.8931 54.6014 94.8708 54.4777 94.8708 54.3334V53.3783H95.3814V54.1646Z" fill="white"/>
<path d="M97.6947 53.3779L98.2564 54.6746L98.7592 53.3779H99.3161L98.1975 56.26H97.6396L97.9983 55.3323L97.1455 53.3779H97.6947Z" fill="white"/>
<path d="M102.02 55.6902V56.878H101.536V56.2605H99.7555V56.878H99.2721V55.6902H99.5061C99.6753 55.3927 99.8048 55.0757 99.8957 54.737C99.9866 54.3983 100.032 54.0243 100.032 53.615V53.3784H101.661V55.6902H102.02ZM101.151 53.9478H100.515C100.495 54.2639 100.449 54.5682 100.379 54.8636C100.309 55.1581 100.208 55.433 100.075 55.6902H101.151V53.9478Z" fill="white"/>
<path d="M104.146 53.3779V53.9482H103.114V54.494H104.029V55.0634H103.114V55.6897H104.146V56.26H102.602V53.3779H104.146Z" fill="white"/>
<path d="M106.916 56.0051C106.848 56.0679 106.77 56.1229 106.678 56.169C106.587 56.2161 106.486 56.2524 106.375 56.278C106.266 56.3035 106.146 56.3162 106.019 56.3162C105.832 56.3162 105.652 56.2799 105.48 56.2083C105.307 56.1356 105.155 56.0335 105.023 55.903C104.892 55.7714 104.787 55.6134 104.71 55.4298C104.633 55.2443 104.593 55.0411 104.593 54.8192C104.593 54.5964 104.633 54.3932 104.71 54.2087C104.787 54.0241 104.892 53.8661 105.023 53.7345C105.155 53.604 105.307 53.5029 105.48 53.4302C105.652 53.3576 105.832 53.3222 106.019 53.3222C106.144 53.3222 106.261 53.335 106.37 53.3615C106.479 53.388 106.578 53.4253 106.668 53.4724C106.758 53.5196 106.835 53.5735 106.901 53.6354C106.969 53.6962 107.02 53.762 107.06 53.8317L106.9 54.297C106.86 54.244 106.814 54.193 106.758 54.1439C106.702 54.0968 106.637 54.0536 106.565 54.0163C106.492 53.979 106.413 53.9485 106.33 53.9259C106.246 53.9034 106.155 53.8916 106.058 53.8916C105.921 53.8916 105.794 53.9132 105.678 53.9564C105.563 53.9986 105.463 54.0604 105.38 54.1409C105.297 54.2214 105.232 54.3186 105.185 54.4335C105.138 54.5483 105.115 54.6769 105.115 54.8192C105.115 54.9616 105.138 55.0892 105.185 55.204C105.232 55.3189 105.297 55.4171 105.38 55.4976C105.463 55.5771 105.563 55.6389 105.678 55.6821C105.794 55.7243 105.921 55.7459 106.058 55.7459C106.159 55.7459 106.254 55.7351 106.342 55.7125C106.431 55.689 106.511 55.6585 106.584 55.6193C106.656 55.581 106.721 55.5358 106.776 55.4858C106.833 55.4337 106.881 55.3807 106.919 55.3248L107.079 55.8019C107.037 55.8745 106.983 55.9422 106.916 56.0051Z" fill="white"/>
</svg>
