<svg width="267" height="266" viewBox="0 0 267 266" fill="none" xmlns="http://www.w3.org/2000/svg">
<path d="M65.848 191.6L66.1366 190.643L65.3863 190.416L64.9873 191.091L65.848 191.6ZM11.416 243.728L10.91 242.865L9.39945 243.752L10.9304 244.602L11.416 243.728ZM28.984 257.552L28.2512 258.232L28.8323 258.858L29.5413 258.382L28.984 257.552ZM86.872 197.936L87.7295 198.45L88.3903 197.349L87.1606 196.979L86.872 197.936ZM251.032 178.928V179.928H252.032V178.928H251.032ZM251.032 159.632H252.032V158.632H251.032V159.632ZM31 159.632V158.632H30V159.632H31ZM31 178.928H30V179.928H31V178.928ZM128.92 178.928H129.92V177.928H128.92V178.928ZM122.872 245.456V244.456H122.843L122.813 244.458L122.872 245.456ZM84.568 245.168L84.5997 244.169L82.8832 244.114L83.6831 245.634L84.568 245.168ZM91.768 264.464L90.7874 264.66L90.9482 265.464H91.768V264.464ZM138.424 261.296L138.126 260.342L138.112 260.346L138.099 260.35L138.424 261.296ZM150.232 178.928V177.928H149.232V178.928H150.232ZM185.944 202.832L185.413 201.985L184.207 202.741L185.327 203.619L185.944 202.832ZM244.696 259.568L243.907 260.182L244.477 260.916L245.251 260.4L244.696 259.568ZM262.84 247.472L263.395 248.304L264.292 247.706L263.628 246.856L262.84 247.472ZM202.936 192.176L203.527 191.37L202.98 190.968L202.405 191.329L202.936 192.176ZM55.768 53.936L56.2683 53.0701L55.5646 52.6636L55.0228 53.2692L55.768 53.936ZM92.056 77.264L92.8602 77.8584L93.4625 77.0434L92.6396 76.452L92.056 77.264ZM76.216 95.696L75.5828 96.47L76.2832 97.043L76.9231 96.4031L76.216 95.696ZM40.216 70.064L39.5283 69.338L38.6078 70.2101L39.6703 70.902L40.216 70.064ZM115.096 35.216L116.037 35.5556L116.52 34.216H115.096V35.216ZM100.696 64.592L100.124 65.4124L100.987 66.0136L101.544 65.122L100.696 64.592ZM64.696 42.992L63.9486 42.3276L63.113 43.2676L64.2172 43.8699L64.696 42.992ZM70.744 35.216V34.216H70.2549L69.9547 34.602L70.744 35.216ZM250.168 18.512L250.723 17.6799L250.347 17.4294L249.91 17.5458L250.168 18.512ZM245.848 19.664V20.664H245.979L246.106 20.6302L245.848 19.664ZM175.864 19.664V18.664H174.864V19.664H175.864ZM175.864 37.52H174.864V38.52H175.864V37.52ZM234.328 37.52L235.192 38.0229L236.067 36.52H234.328V37.52ZM198.904 83.6L198.138 84.2432L198.832 85.0692L199.603 84.3148L198.904 83.6ZM159.16 4.976L160.125 4.71211L159.875 3.79911L158.949 3.99841L159.16 4.976ZM140.44 9.008L140.229 8.03041L139.19 8.25431L139.477 9.27814L140.44 9.008ZM193.432 108.08V109.08H195.77L194.155 107.389L193.432 108.08ZM91.48 108.08L90.7635 107.382L89.1106 109.08H91.48V108.08ZM139.576 24.56L140.537 24.8369L140.783 23.984L139.965 23.6387L139.576 24.56ZM126.616 19.088L127.005 18.1667L126.697 18.0369L126.373 18.1178L126.616 19.088ZM123.16 19.952V20.952H123.283L123.403 20.9221L123.16 19.952ZM81.112 19.952L80.2501 19.445L79.3636 20.952H81.112V19.952ZM89.464 4.976L90.3478 5.44388L90.9878 4.23496L89.6417 3.99191L89.464 4.976ZM68.728 1.23199L68.9057 0.247905L68.1686 0.114812L67.8336 0.784779L68.728 1.23199ZM2.488 75.536L1.92814 74.7074L0.627762 75.586L1.9735 76.3935L2.488 75.536ZM16.6 89.36L15.776 89.9265L16.3528 90.7655L17.1812 90.1737L16.6 89.36ZM28.408 80.144L28.9583 79.309L28.3334 78.8972L27.7621 79.3806L28.408 80.144ZM64.12 106.928L64.7698 107.688L65.6348 106.949L64.7903 106.186L64.12 106.928ZM5.08 140.624L4.75199 139.679L3.18516 140.223L4.39768 141.355L5.08 140.624ZM16.888 157.328L15.9832 157.754L16.3836 158.605L17.2576 158.257L16.888 157.328ZM87.448 112.112H88.448V109.721L86.7459 111.4L87.448 112.112ZM87.448 127.664H86.448V128.664H87.448V127.664ZM198.328 127.664V128.664H199.328V127.664H198.328ZM198.328 112.976L199.023 112.257L197.328 110.618V112.976H198.328ZM261.688 152.432L261.339 153.369L262.13 153.664L262.553 152.933L261.688 152.432ZM275.512 134.576L276.196 135.306L277.435 134.144L275.818 133.624L275.512 134.576ZM211.864 97.136L211.184 96.4028L210.403 97.127L211.175 97.8607L211.864 97.136ZM263.992 27.728L264.884 28.1794L265.285 27.3879L264.547 26.8959L263.992 27.728ZM64.9873 191.091C52.9948 211.364 32.3958 230.26 10.91 242.865L11.922 244.591C33.6362 231.852 54.5092 212.732 66.7087 192.109L64.9873 191.091ZM10.9304 244.602C16.0169 247.428 24.5746 254.273 28.2512 258.232L29.7168 256.872C25.9054 252.767 17.1831 245.788 11.9016 242.854L10.9304 244.602ZM29.5413 258.382C50.6658 244.203 73.8175 221.637 87.7295 198.45L86.0145 197.421C72.2785 220.315 49.3502 242.677 28.4267 256.722L29.5413 258.382ZM87.1606 196.979L66.1366 190.643L65.5594 192.557L86.5835 198.893L87.1606 196.979ZM252.032 178.928V159.632H250.032V178.928H252.032ZM251.032 158.632H31V160.632H251.032V158.632ZM30 159.632V178.928H32V159.632H30ZM31 179.928H128.92V177.928H31V179.928ZM127.92 178.928V240.56H129.92V178.928H127.92ZM127.92 240.56C127.92 242.398 127.619 243.201 127.089 243.646C126.494 244.146 125.327 244.456 122.872 244.456V246.456C125.313 246.456 127.17 246.19 128.375 245.178C129.645 244.111 129.92 242.466 129.92 240.56H127.92ZM122.813 244.458C117.967 244.743 102.744 244.745 84.5997 244.169L84.5363 246.167C102.68 246.743 117.985 246.745 122.931 246.454L122.813 244.458ZM83.6831 245.634C86.5328 251.048 89.6594 259.02 90.7874 264.66L92.7486 264.268C91.5726 258.388 88.3632 250.232 85.4529 244.702L83.6831 245.634ZM91.768 265.464C102.991 265.464 112.38 265.464 120.115 265.067C127.84 264.67 134.004 263.873 138.749 262.242L138.099 260.35C133.628 261.887 127.696 262.674 120.013 263.069C112.34 263.464 103.009 263.464 91.768 263.464V265.464ZM138.722 262.25C143.499 260.758 146.7 258.467 148.658 254.942C150.586 251.472 151.232 246.939 151.232 241.136H149.232C149.232 246.853 148.582 250.96 146.91 253.97C145.268 256.925 142.565 258.954 138.126 260.342L138.722 262.25ZM151.232 241.136V178.928H149.232V241.136H151.232ZM150.232 179.928H251.032V177.928H150.232V179.928ZM185.327 203.619C206.597 220.29 231.876 244.713 243.907 260.182L245.485 258.954C233.325 243.319 207.915 218.782 186.561 202.045L185.327 203.619ZM245.251 260.4L263.395 248.304L262.285 246.64L244.141 258.736L245.251 260.4ZM263.628 246.856C251.167 230.918 225.17 207.241 203.527 191.37L202.345 192.982C223.902 208.791 249.745 232.346 262.052 248.088L263.628 246.856ZM202.405 191.329L185.413 201.985L186.475 203.679L203.467 193.023L202.405 191.329ZM55.2677 54.8018C68.1993 62.2734 82.2835 71.4715 91.4724 78.076L92.6396 76.452C83.3965 69.8085 69.2567 60.5746 56.2683 53.0701L55.2677 54.8018ZM91.2518 76.6696C86.3843 83.2551 81.2325 89.2653 75.5089 94.9889L76.9231 96.4031C82.7195 90.6067 87.9358 84.5208 92.8602 77.8584L91.2518 76.6696ZM76.8492 94.922C67.303 87.1115 53.1553 77.2963 40.7617 69.226L39.6703 70.902C52.0447 78.9597 66.121 88.7285 75.5828 96.47L76.8492 94.922ZM40.9037 70.79C46.4012 65.5818 51.6048 60.0887 56.5132 54.6028L55.0228 53.2692C50.1392 58.7273 44.9748 64.1782 39.5283 69.338L40.9037 70.79ZM114.155 34.8763C110.438 45.1714 105.574 54.9 99.848 64.062L101.544 65.122C107.338 55.852 112.266 45.9966 116.037 35.5556L114.155 34.8763ZM101.268 63.7716C91.7182 57.1158 77.8558 49.031 65.1749 42.1141L64.2172 43.8699C76.8802 50.777 90.6659 58.8202 100.124 65.4124L101.268 63.7716ZM65.4434 43.6563C67.7723 41.0363 69.5768 38.3455 71.5334 35.8299L69.9547 34.602C67.8792 37.2704 66.2277 39.7636 63.9486 42.3276L65.4434 43.6563ZM70.744 36.216H115.096V34.216H70.744V36.216ZM249.91 17.5458L245.59 18.6978L246.106 20.6302L250.426 19.4782L249.91 17.5458ZM245.848 18.664H175.864V20.664H245.848V18.664ZM174.864 19.664V37.52H176.864V19.664H174.864ZM175.864 38.52H234.328V36.52H175.864V38.52ZM233.464 37.0171C224.286 52.7908 211.38 69.9967 198.205 82.8852L199.603 84.3148C212.924 71.2833 225.938 53.9292 235.192 38.0229L233.464 37.0171ZM199.67 82.9568C181.632 61.4834 168.444 35.1225 160.125 4.71211L158.195 5.23988C166.58 35.8855 179.888 62.5166 198.138 84.2432L199.67 82.9568ZM158.949 3.99841L140.229 8.03041L140.651 9.98558L159.371 5.95358L158.949 3.99841ZM139.477 9.27814C150.742 49.4253 168.089 82.992 192.709 108.771L194.155 107.389C169.815 81.904 152.603 48.6547 141.403 8.73785L139.477 9.27814ZM193.432 107.08H91.48V109.08H193.432V107.08ZM92.1965 108.778C113.62 86.775 130.698 58.9835 140.537 24.8369L138.615 24.2831C128.87 58.1045 111.964 85.609 90.7635 107.382L92.1965 108.778ZM139.965 23.6387L127.005 18.1667L126.227 20.0092L139.187 25.4812L139.965 23.6387ZM126.373 18.1178L122.917 18.9818L123.403 20.9221L126.859 20.0581L126.373 18.1178ZM123.16 18.952H81.112V20.952H123.16V18.952ZM81.9739 20.459C84.8622 15.549 87.7494 10.3519 90.3478 5.44388L88.5802 4.50811C85.9946 9.3921 83.1218 14.563 80.2501 19.445L81.9739 20.459ZM89.6417 3.99191L68.9057 0.247905L68.5503 2.21608L89.2863 5.96008L89.6417 3.99191ZM67.8336 0.784779C56.0955 24.2609 33.7414 53.212 1.92814 74.7074L3.04786 76.3646C35.1706 54.66 57.7445 25.4351 69.6224 1.67921L67.8336 0.784779ZM1.9735 76.3935C4.03362 77.6296 6.7039 79.8698 9.27386 82.404C11.8376 84.9322 14.2392 87.6913 15.776 89.9265L17.424 88.7935C15.7928 86.4207 13.2984 83.5638 10.6781 80.98C8.0641 78.4022 5.26239 76.0344 3.0025 74.6785L1.9735 76.3935ZM17.1812 90.1737C21.2379 87.2761 25.2915 84.091 29.0539 80.9074L27.7621 79.3806C24.0365 82.533 20.0261 85.6839 16.0188 88.5463L17.1812 90.1737ZM27.8577 80.979C40.5098 89.3178 54.575 99.6542 63.4497 107.67L64.7903 106.186C55.809 98.0738 41.6502 87.6741 28.9583 79.309L27.8577 80.979ZM63.4702 106.168C45.7154 121.345 25.3784 132.517 4.75199 139.679L5.40801 141.569C26.2536 134.331 46.8126 123.039 64.7698 107.688L63.4702 106.168ZM4.39768 141.355C8.60326 145.28 13.7191 152.943 15.9832 157.754L17.7928 156.902C15.4489 151.921 10.1967 144.032 5.76232 139.893L4.39768 141.355ZM17.2576 158.257C42.7047 148.136 67.304 133.381 88.1501 112.824L86.7459 111.4C66.12 131.739 41.7593 146.36 16.5184 156.399L17.2576 158.257ZM86.448 112.112V127.664H88.448V112.112H86.448ZM87.448 128.664H198.328V126.664H87.448V128.664ZM199.328 127.664V112.976H197.328V127.664H199.328ZM197.633 113.695C215.304 130.787 236.447 144.107 261.339 153.369L262.037 151.495C237.393 142.325 216.488 129.149 199.023 112.257L197.633 113.695ZM262.553 152.933C265.685 147.525 271.675 139.544 276.196 135.306L274.828 133.846C270.133 138.248 264.027 146.395 260.823 151.931L262.553 152.933ZM275.818 133.624C250.904 125.606 230.011 113.01 212.553 96.4113L211.175 97.8607C228.853 114.67 250.008 127.418 275.206 135.528L275.818 133.624ZM212.544 97.8692C232.505 79.355 252.448 52.7631 264.884 28.1794L263.1 27.2766C250.768 51.6529 230.967 78.053 211.184 96.4028L212.544 97.8692ZM264.547 26.8959L250.723 17.6799L249.613 19.344L263.437 28.56L264.547 26.8959Z" fill="#A28A58"/>
</svg>