<svg width="99" height="86" viewBox="0 0 99 86" fill="none" xmlns="http://www.w3.org/2000/svg">
<path d="M25.7102 82.8775L39.1392 78.4775L47.1362 65.1075C39.9662 71.0485 32.1422 77.5335 25.7102 82.8775ZM35.9542 53.6955L41.9862 48.4165L31.7262 3.88247L26.4572 41.8175L35.9542 53.6955ZM42.7342 47.7605L44.9682 45.8035C45.0392 45.7415 45.4242 45.6355 45.5182 45.6535L56.8562 47.6975L60.3872 40.4125L32.4492 3.11847L42.7342 47.7605ZM56.2612 48.9265L49.1372 47.6415L55.5932 50.3055L56.2612 48.9265ZM44.6172 47.8575L42.9942 49.2795C42.9432 49.3865 42.8502 49.4645 42.7392 49.5015L36.7742 54.7245L38.7802 57.2345L44.6172 47.8575ZM14.3432 36.5485L19.4302 35.8175L12.3972 34.2095L4.00216 45.0965L13.8422 36.7205C13.9302 36.6535 13.9952 36.5985 14.3432 36.5485ZM20.5512 36.5375C20.5272 36.5435 14.6972 37.3825 14.6972 37.3825C14.6972 37.3825 22.8012 81.2855 23.0632 82.4765L37.9782 58.3385L20.5512 36.5375ZM46.7102 48.0605L49.1542 61.7285L59.3532 53.2825L46.7102 48.0605ZM48.3772 62.3705L45.8682 48.3395L25.1222 81.6525C32.1412 75.8235 40.7632 68.6785 48.3772 62.3705ZM4.17916 46.0975L13.1012 42.3235C13.5312 42.1415 13.9272 42.3585 14.0062 42.8145L20.8012 80.1295C21.2702 80.0055 21.3392 79.9925 21.6252 79.9075L13.8902 37.8315L4.17916 46.0975ZM56.8112 50.8075L60.5012 52.3315L67.3322 46.6765C67.5762 46.4745 68.0092 46.4995 68.2282 46.7295L72.6142 51.3255L77.2892 8.55647L56.8112 50.8075ZM18.8852 78.4695L18.0842 73.8725L16.6272 75.5045L18.8852 78.4695ZM95.8832 77.6185L67.6982 48.0805L49.7032 62.9805L95.8832 77.6185ZM40.2092 78.3975L94.5662 78.1195L49.0122 63.6815L40.2092 78.3975ZM97.7802 79.4185L39.5922 79.7145L23.2612 85.0645C22.6272 85.2225 22.3082 84.7655 22.2172 84.4465C21.9652 83.5455 21.6152 82.3525 21.3792 81.4355C20.7932 81.6065 19.9322 81.9305 19.3862 81.2995L15.2512 75.8685C15.0052 75.5045 14.8472 75.3015 15.4052 74.6035C16.3132 73.6515 17.2332 72.7315 17.7912 72.1995L12.8522 43.8535L0.979159 48.8785C0.214159 49.2035 -0.30584 48.5315 0.20216 47.8715L11.6122 33.0745C11.8122 32.8035 12.0072 32.7865 12.2792 32.8345L20.6162 34.7405C20.8472 34.8185 20.9542 34.9345 20.9822 34.9705L25.3252 40.4015L30.8462 0.660471C30.9472 -0.0665291 31.5822 -0.23153 32.0242 0.35747L61.0332 39.0805L77.7622 4.56047C78.1472 3.77147 79.1052 4.04847 79.0092 4.91947L73.7992 52.5665L98.3542 78.3005C98.8422 78.8135 98.3852 79.4045 97.7802 79.4185Z" fill="black"/>
</svg>
