<svg width="47" height="31" viewBox="0 0 47 31" fill="none" xmlns="http://www.w3.org/2000/svg">
<path d="M45.1962 7.17337H42.4441C42.292 6.90248 42.1242 6.64177 41.9408 6.39291C41.9164 6.35271 41.888 6.31525 41.8561 6.28101C40.4847 4.49143 38.3272 3.33442 35.9036 3.33442H33.0496C32.6694 3.33442 32.3612 3.64268 32.3612 4.0229C32.3612 4.40312 32.6694 4.71138 33.0496 4.71138H35.9036C37.3513 4.71138 38.6824 5.21773 39.7314 6.06125H30.2182C29.8721 6.06125 29.5496 6.2476 29.3768 6.54759C29.204 6.84767 29.2046 7.22009 29.3784 7.51963L34.6277 16.5639C34.954 17.1259 35.4846 17.5317 36.0933 17.7112C36.1269 17.7231 36.1615 17.7328 36.1973 17.7395C36.3923 17.788 36.5941 17.8145 36.7994 17.8145H42.0237V19.3471H40.8265C39.9879 19.3471 39.3058 20.0293 39.3058 20.8678V22.6112C39.3058 23.4498 39.988 24.1319 40.8265 24.1319H42.0237V26.156H38.2842L26.9531 6.63287C26.7485 6.28046 26.3682 6.06143 25.9607 6.06143H3.6705C3.07051 6.06143 2.58243 6.54915 2.58243 7.14849V12.1873H1.37695V4.71129H29.8533C30.2335 4.71129 30.5417 4.40303 30.5417 4.02281C30.5417 3.64259 30.2335 3.33433 29.8533 3.33433H14.2803L12.6389 1.20097C12.2387 0.680758 11.6079 0.370117 10.9516 0.370117H5.09693C4.10387 0.370117 3.29587 1.17811 3.29587 2.17117V3.33433H1.15848C0.519662 3.33433 0 3.85445 0 4.49373V26.3744C0 27.0132 0.519662 27.5329 1.15848 27.5329H4.32868C4.95905 29.3337 6.67437 30.6291 8.68756 30.6291C10.7008 30.6291 12.4162 29.3336 13.0464 27.5329H15.7835C16.1637 27.5329 16.4719 27.2247 16.4719 26.8444C16.4719 26.4642 16.1637 26.156 15.7835 26.156H13.3015C13.3029 26.1079 13.3051 26.06 13.3051 26.0116C13.3051 23.4654 11.2336 21.3939 8.68747 21.3939C6.1413 21.3939 4.06991 23.4654 4.06991 26.0116C4.06991 26.0599 4.07211 26.1079 4.07358 26.156H1.37695V13.5644H29.3842L36.6921 26.156H33.1475C33.149 26.1079 33.1512 26.0601 33.1512 26.0117C33.1512 23.4655 31.0797 21.394 28.5335 21.394C25.9873 21.394 23.9159 23.4655 23.9159 26.0117C23.9159 26.06 23.9181 26.1079 23.9196 26.156H18.9965C18.6163 26.156 18.3081 26.4643 18.3081 26.8445C18.3081 27.2247 18.6163 27.533 18.9965 27.533H24.1747C24.8051 29.3338 26.5204 30.6292 28.5336 30.6292C30.5468 30.6292 32.2622 29.3337 32.8925 27.533C33.9853 27.5331 42.2076 27.5334 42.2421 27.5334C42.7213 27.5334 43.1335 27.2409 43.3095 26.8251C43.3682 26.6865 43.4007 26.5343 43.4007 26.3745V10.8315C43.4007 10.0362 43.2752 9.27001 43.0447 8.55032H45.1963C45.4317 8.55032 45.6231 8.74181 45.6231 8.97718V11.038C45.6231 11.342 45.5129 11.6354 45.312 11.8647L45.0523 12.1622C44.8021 12.4486 44.8316 12.8834 45.1179 13.1337C45.2484 13.2477 45.4098 13.3036 45.5705 13.3036C45.7624 13.3036 45.9532 13.2238 46.0894 13.068L46.3485 12.7713C46.7687 12.2915 47.0001 11.676 47.0001 11.0381V8.97727C47 7.98256 46.1908 7.17337 45.1962 7.17337ZM42.0236 22.7551H40.8265C40.7472 22.7551 40.6827 22.6905 40.6827 22.6113V20.8679C40.6827 20.7886 40.7473 20.7242 40.8265 20.7242H42.0236V22.7551ZM4.67283 2.17126C4.67283 1.93746 4.86312 1.74716 5.09693 1.74716H10.9515C11.1832 1.74716 11.406 1.85686 11.5474 2.04064L12.5428 3.33442H4.67283V2.17126ZM8.68756 22.7709C10.4745 22.7709 11.9283 24.2247 11.9283 26.0117C11.9283 27.7986 10.4745 29.2523 8.68756 29.2523C6.90065 29.2523 5.44695 27.7986 5.44695 26.0117C5.44695 24.2247 6.90065 22.7709 8.68756 22.7709ZM15.315 7.43848H21.0118V12.1874H15.315V7.43848ZM13.9381 12.1874H8.24125V7.43848H13.9381V12.1874ZM3.95947 7.43848H6.86439V12.1874H3.95947V7.43848ZM22.3887 12.1874V7.43848H25.8286L28.5849 12.1874H22.3887ZM28.5335 29.2523C26.7466 29.2523 25.2929 27.7986 25.2929 26.0117C25.2929 24.2247 26.7466 22.7709 28.5335 22.7709C30.3204 22.7709 31.7742 24.2247 31.7742 26.0117C31.7742 27.7986 30.3203 29.2523 28.5335 29.2523ZM30.9232 7.4382H35.6354V15.5571L30.9232 7.4382ZM37.0123 16.4375V7.43811H40.9938C41.6438 8.40996 42.0237 9.57698 42.0237 10.8314V16.4374H37.0123V16.4375Z" fill="black"/>
</svg>
