<svg width="50" height="26" viewBox="0 0 50 26" fill="none" xmlns="http://www.w3.org/2000/svg">
<path d="M47.6908 10.7099C46.2881 9.97747 44.8161 9.38313 43.3156 8.94339C42.9274 8.82991 42.5205 9.05208 42.4067 9.44026C42.2929 9.82845 42.5154 10.2354 42.9036 10.3492C44.3123 10.762 45.6949 11.3202 47.0128 12.0084C47.1586 12.0845 47.2948 12.1732 47.4226 12.2706C46.6229 12.2786 45.8365 12.3122 45.2267 12.4302C43.8636 12.694 43.5775 13.3871 43.5775 13.9221C43.5775 15.4273 45.6045 16.7477 47.9154 16.7477C48.1245 16.7477 48.331 16.7391 48.5354 16.7254V17.4119H44.7451C43.8614 16.1273 42.3818 15.2828 40.7081 15.2828C39.0345 15.2828 37.5549 16.1273 36.6713 17.4119H15.6432C14.7595 16.1273 13.2799 15.2828 11.6063 15.2828C9.93265 15.2828 8.45306 16.1273 7.56946 17.4119H1.46497V15.6668H2.4513C2.85579 15.6668 3.18372 15.339 3.18372 14.9344V14.3817H4.86458C5.85804 14.3817 6.66634 13.5735 6.66634 12.58V11.9495C6.66634 11.5776 6.55345 11.22 6.33997 10.9155L4.84876 8.78802H6.62024C6.87054 8.78802 7.10364 8.66009 7.23811 8.44896C8.15198 7.0137 9.52122 5.69895 11.3076 4.54124C12.4251 3.81702 13.6333 3.27278 14.8996 2.91155C14.6767 3.03958 14.457 3.17249 14.2417 3.31204C12.8432 4.21858 11.662 5.2303 10.7312 6.31897C10.3446 6.77122 10.253 7.38939 10.492 7.93235C10.7294 8.47142 11.2431 8.81858 11.8327 8.83851C11.8327 8.83851 35.394 9.6345 35.401 9.6346C35.4081 9.6346 35.4151 9.63401 35.4222 9.63382C35.4422 9.63333 35.4622 9.63255 35.4817 9.6305L35.4841 9.6304C36.8568 9.48011 38.2729 9.49505 39.6934 9.67484C40.0952 9.7261 40.4612 9.44144 40.512 9.04017C40.5627 8.6389 40.2786 8.27239 39.8772 8.22161C38.4587 8.04202 37.0423 8.01487 35.6618 8.14056C34.5062 7.06214 33.3759 6.0219 32.2985 5.04515C29.7166 2.70589 26.3811 1.31507 22.9065 1.12893L19.4971 0.946318C16.2728 0.774248 13.1652 1.59212 10.5109 3.31214C8.68528 4.49515 7.24593 5.8431 6.22688 7.32327C3.79095 7.33382 3.57425 7.30071 3.31692 7.34788C2.41331 7.48802 1.71878 8.26927 1.71878 9.21194V13.6409C1.71878 13.6437 1.71839 13.6465 1.71839 13.6493C1.71839 13.6522 1.71878 13.655 1.71878 13.6578V14.2021H1.02737C0.460867 14.2021 2.67029e-05 14.6625 2.67029e-05 15.2285V19.71C2.67029e-05 20.1981 0.34739 20.6213 0.823758 20.716L7.05091 21.9741C7.76829 23.7892 9.53909 25.0773 11.6062 25.0773C13.5477 25.0773 15.2288 23.9416 16.0204 22.2998H18.7218C19.1263 22.2998 19.4542 21.972 19.4542 21.5674C19.4542 21.1628 19.1263 20.835 18.7218 20.835H16.4583C16.4871 20.6206 16.5034 20.4024 16.5034 20.1802C16.5034 19.7289 16.4408 19.2922 16.3259 18.877H35.9884C35.8736 19.2922 35.811 19.7289 35.811 20.1802C35.811 20.4024 35.8273 20.6206 35.856 20.835H22.1398C21.7353 20.835 21.4074 21.1628 21.4074 21.5674C21.4074 21.972 21.7353 22.2998 22.1398 22.2998H36.2939C37.0855 23.9417 38.7666 25.0773 40.708 25.0773C42.6496 25.0773 44.3307 23.9416 45.1223 22.2998H47.3538C48.813 22.2998 50.0002 21.1126 50.0002 19.6534V14.5157C50.0001 12.9117 49.1152 11.4535 47.6908 10.7099ZM11.8326 7.34173C11.816 7.30413 11.8347 7.28245 11.8446 7.27073C13.9016 4.86497 17.115 2.90989 20.8118 2.48343L22.3395 2.56526C22.5829 3.46712 22.912 5.63851 22.3354 7.72747L11.8823 7.37425C11.8655 7.37366 11.8464 7.37308 11.8326 7.34173ZM33.47 8.10374L23.8316 7.77806C24.2731 5.89056 24.1292 3.943 23.8709 2.68851C26.6301 3.05071 29.2415 4.25169 31.3149 6.1303C32.0132 6.76341 32.7342 7.42376 33.47 8.10374ZM5.20149 11.9494V12.5799C5.20149 12.7657 5.05042 12.9167 4.86458 12.9167H3.18372V9.21175C3.18372 9.14534 3.20042 9.08333 3.22766 9.02728L5.14046 11.7562C5.1803 11.813 5.20149 11.8799 5.20149 11.9494ZM1.46497 19.3509V18.8768H6.88665C6.74759 19.3798 6.69065 19.8897 6.71507 20.4116L1.46497 19.3509ZM11.6063 23.6121C9.7138 23.6121 8.17405 22.0724 8.17405 20.1799C8.17405 18.2874 9.7138 16.7477 11.6063 16.7477C13.4989 16.7477 15.0386 18.2874 15.0386 20.1799C15.0386 22.0724 13.4989 23.6121 11.6063 23.6121ZM47.9153 15.2827C46.2598 15.2827 45.1746 14.4343 45.0536 13.9982C45.3568 13.8222 46.318 13.7331 47.9153 13.7331C48.0884 13.7331 48.2604 13.7393 48.4303 13.7504C48.4991 13.9956 48.5353 14.2525 48.5353 14.5154V15.2582C48.3324 15.2744 48.1252 15.2827 47.9153 15.2827ZM40.708 23.6121C38.8156 23.6121 37.2758 22.0724 37.2758 20.1799C37.2758 18.2874 38.8156 16.7477 40.708 16.7477C42.6006 16.7477 44.1404 18.2874 44.1404 20.1799C44.1404 22.0724 42.6006 23.6121 40.708 23.6121ZM47.3537 20.8347H45.5601C45.5889 20.6203 45.6051 20.4021 45.6051 20.1799C45.6051 19.7286 45.5425 19.2919 45.4277 18.8767H48.5353V19.6531C48.5353 20.3046 48.0052 20.8347 47.3537 20.8347Z" fill="black"/>
</svg>
