<svg width="31" height="31" viewBox="0 0 31 31" fill="none" xmlns="http://www.w3.org/2000/svg">
<path d="M22.8229 6.77295C21.8713 6.77295 21.1735 7.53421 21.1735 8.42236C21.1735 9.37394 21.9348 10.0718 22.8229 10.0718C23.7745 10.0718 24.4723 9.3105 24.4723 8.42236C24.4723 7.53421 23.7111 6.77295 22.8229 6.77295Z" stroke="white" stroke-miterlimit="10"/>
<path d="M15.3372 8.99335C11.8481 8.99335 8.99335 11.8481 8.99335 15.3372C8.99335 18.8264 11.8481 21.6811 15.3372 21.6811C18.8264 21.6811 21.6811 18.8264 21.6811 15.3372C21.6811 11.7847 18.8264 8.99335 15.3372 8.99335Z" stroke="white" stroke-miterlimit="10"/>
<path d="M20.9832 29.5475H9.56424C4.80633 29.5475 1 25.6777 1 20.9832V9.56424C1 4.86977 4.86977 1 9.56424 1H20.9832C25.6777 1 29.5475 4.86977 29.5475 9.56424V20.9832C29.5475 25.7411 25.7411 29.5475 20.9832 29.5475Z" stroke="white" stroke-miterlimit="10"/>
</svg>
