<svg width="249" height="249" viewBox="0 0 249 249" fill="none" xmlns="http://www.w3.org/2000/svg">
<path d="M107.769 17.2646H107.823C110.658 16.7835 112.851 15.9016 114.296 14.6989C116.115 13.1756 116.81 11.1177 116.355 8.5521C115.901 5.98646 114.563 4.22259 112.343 3.36738C110.524 2.6458 108.197 2.53889 105.415 3.01995H105.362L105.121 1.57678L100.975 2.29837L101.216 3.74153H101.162C94.9032 4.83727 91.8807 7.99086 92.7099 12.6678C93.5123 17.2646 97.3106 19.1353 103.677 18.0129H103.757L104.024 19.4828L108.063 18.7879L107.769 17.2646ZM96.7756 11.8126C96.1069 7.91069 97.685 5.42523 101.243 4.81055L101.403 4.78382L103.516 16.9171L103.356 16.9439C99.7982 17.5585 97.4443 15.7412 96.7756 11.8126ZM112.263 9.11333C112.932 13.042 111.353 15.5541 107.796 16.1688L107.635 16.1955L105.522 4.06224L105.683 4.03551C109.24 3.42083 111.567 5.23815 112.263 9.11333Z" fill="#C4C4C4"/>
<path d="M142.14 18.6543L142.247 17.5853L132.511 16.6766L133.206 9.24697L140.482 9.94183L140.829 9.96855L140.936 8.92626L133.313 8.17795L133.955 1.44317L143.691 2.35183L143.798 1.30954L129.996 0L128.338 17.3447L141.819 18.6276L142.14 18.6543Z" fill="#C4C4C4"/>
<path d="M164.903 24.908C166.241 24.908 167.739 24.6675 169.29 23.9192L169.584 23.7855L169.076 22.8501L168.809 22.9838C165.385 24.614 162.228 23.4915 160.704 22.957C159.099 22.3958 158.056 21.3268 157.628 19.75C157.173 18.093 157.36 15.9817 158.243 13.4695C159.955 8.55208 162.603 6.68131 166.134 7.91067C168.247 8.65898 171.243 10.7168 170.788 13.3626L170.734 13.6833L171.804 13.9239L171.858 13.5764C172.206 11.4117 170.627 8.365 166.321 6.86839C160.918 4.99761 155.943 7.21581 154.177 12.2402C152.412 17.318 154.953 22.1553 160.329 24.0261C161.239 24.32 162.87 24.908 164.903 24.908Z" fill="#C4C4C4"/>
<path d="M184.67 35.9188L193.604 22.2087L199.408 25.977L199.97 25.0951L184.964 15.3136L184.376 16.1955L190.18 19.9638L181.246 33.7006L184.67 35.9188Z" fill="#C4C4C4"/>
<path d="M197.83 46.0745L200.371 48.8539C203.1 51.8204 206.764 52.7023 210.482 51.3928L206.256 55.268L209.011 58.2879L221.636 46.7159L221.877 46.5021L219.122 43.4821L214.28 47.9185C207.62 53.4239 202.966 49.9764 201.388 48.3996L213.21 37.5758L213.451 37.362L210.696 34.342L198.071 45.9141L197.83 46.0745Z" fill="#C4C4C4"/>
<path d="M219.149 74.43C220.058 76.1137 220.994 77.8776 222.225 79.0001C223.054 79.7484 223.963 80.1225 224.9 80.1225C225.622 80.1225 226.397 79.9087 227.227 79.4811C230.222 77.8776 230.089 75.1784 229.58 73.2809C230.998 74.4835 232.817 74.7775 234.422 73.9223C236.696 72.7196 236.963 69.9936 235.171 66.6263C233.94 64.3011 231.801 63.9003 230.089 63.9804L232.63 62.6442L230.704 59.0363L215.297 67.2142L219.149 74.43ZM225.274 66.5193L226.799 69.379C228.484 72.5325 228.109 74.2162 225.461 75.6327C222.144 77.3966 221.235 76.0603 219.55 72.88L218.186 70.3143L225.274 66.5193ZM234.395 68.497C234.181 69.0583 233.539 69.5928 232.523 70.154C231.346 70.7954 230.329 71.0092 229.58 70.8489C228.965 70.7152 228.484 70.3411 228.163 69.7264L226.21 66.065C227.521 65.5038 232.443 63.7132 234.181 67.0004C234.502 67.5884 234.556 68.0694 234.395 68.497Z" fill="#C4C4C4"/>
<path d="M226.317 90.3049L226.585 91.4007L233.807 92.0154L235.385 98.2424L229.554 102.358L229.367 102.492L230.41 106.661L245.496 96.0242L245.683 95.8905L244.8 92.3895L244.907 92.3093H244.8L244.693 91.9084L226.772 90.3584L226.317 90.3049ZM236.321 97.5742L234.957 92.1223L243.035 92.8171L236.321 97.5742Z" fill="#C4C4C4"/>
<path d="M231.399 115.908V117.03L247.074 122.135L231.613 128.442L231.667 132.745L249 125.716L248.946 122.081L249 122.055H248.946V121.6L231.827 116.041L231.399 115.908Z" fill="#C4C4C4"/>
<path d="M228.083 151.426C227.521 153.697 227.468 155.381 227.922 156.691C228.484 158.267 229.714 159.283 231.747 159.791C232.256 159.924 232.737 159.978 233.219 159.978C234.422 159.978 235.519 159.577 236.455 158.802C237.578 157.893 238.408 156.45 238.836 154.793L240.12 149.742L246.111 151.239L247.101 147.283L230.169 143.034L228.083 151.426ZM232.63 155.729C231.186 155.354 230.169 154.713 229.661 153.751C229.153 152.816 229.073 151.559 229.474 150.009L230.169 147.23L239.183 149.502L238.274 153.083C238.006 154.098 237.391 154.927 236.509 155.435C235.492 155.996 234.155 156.103 232.63 155.729Z" fill="#C4C4C4"/>
<path d="M213.104 184.966L207.781 191.567C207.433 191.995 206.925 192.262 206.363 192.342C205.801 192.396 205.24 192.235 204.812 191.888C203.929 191.166 203.795 189.857 204.517 188.948C205.24 188.066 206.55 187.906 207.433 188.627L207.7 188.841L208.369 188.013L208.102 187.799C207.46 187.264 206.63 187.024 205.801 187.131C204.972 187.211 204.196 187.639 203.688 188.28C203.153 188.948 202.912 189.75 203.019 190.605C203.1 191.434 203.528 192.182 204.17 192.716C204.785 193.224 205.587 193.438 206.336 193.411L202.752 197.848L216.073 208.565L216.34 208.778L218.908 205.598L206.149 195.335L211.392 188.841L223.883 198.917L224.151 199.13L226.718 195.95L213.398 185.233L213.104 184.966Z" fill="#C4C4C4"/>
<path d="M188.281 210.248C186.73 211.397 185.152 212.573 184.242 213.99C183.172 215.647 183.252 217.277 184.536 219.014C186.516 221.66 188.977 221.313 191.036 220.377C190.047 221.981 190.047 223.825 191.116 225.268C191.839 226.23 192.802 226.711 193.979 226.711C194.246 226.711 194.513 226.684 194.808 226.631C196.225 226.364 197.59 225.535 198.445 224.894C200.559 223.317 200.639 221.099 200.291 219.469L202.03 221.767L205.32 219.335L194.888 205.358L188.281 210.248ZM192.24 208.672L197.055 215.112L194.46 217.037C193.069 218.079 191.972 218.533 191.009 218.56C189.966 218.56 189.03 217.945 188.067 216.662C185.82 213.642 186.997 212.573 189.886 210.409L192.24 208.672ZM194.567 222.809C193.123 220.858 193.042 219.388 194.326 218.426L197.643 215.941C198.392 217.17 200.933 221.74 197.937 223.958C197.135 224.546 196.172 225.001 194.567 222.809Z" fill="#C4C4C4"/>
<path d="M159.527 225.722L159.955 226.711L168.969 222.889L171.885 229.758L164.824 232.724L165.251 233.713L172.286 230.72L174.934 236.974L165.92 240.795L166.321 241.757L179.107 236.359L172.313 220.297L159.527 225.722Z" fill="#C4C4C4"/>
<path d="M146.768 245.686L144.067 229.544L140.028 230.212L142.703 246.381L135.882 247.477L136.069 248.519L153.75 245.606L153.589 244.564L146.768 245.686Z" fill="#C4C4C4"/>
<path d="M117.96 235.611C118.522 235.13 118.87 234.488 118.923 233.74C118.977 232.938 118.736 232.163 118.201 231.575C117.666 230.96 116.944 230.613 116.168 230.533C114.938 230.453 113.787 231.041 113.333 232.083L106.432 247.717L107.555 247.797L112.343 236.92L118.228 248.653L122.775 249.027L116.302 236.279C116.917 236.199 117.505 235.985 117.96 235.611ZM116.088 231.575C117.158 231.655 117.933 232.564 117.853 233.606C117.826 234.061 117.612 234.488 117.265 234.782C116.917 235.076 116.489 235.236 116.008 235.183L113.199 234.969L114.296 232.484C114.563 231.896 115.312 231.522 116.088 231.575Z" fill="#C4C4C4"/>
<path d="M85.5407 221.794C85.7279 221.259 86.1292 220.858 86.6374 220.618C87.1456 220.377 87.7341 220.35 88.2423 220.564C88.7772 220.751 89.1785 221.152 89.4192 221.66C89.6599 222.168 89.6599 222.729 89.4727 223.264L89.3657 223.584L90.3554 223.958L90.4624 223.638C90.7566 222.863 90.7299 222.007 90.3821 221.232C90.0344 220.457 89.3925 219.869 88.6168 219.575C86.9851 218.987 85.1662 219.789 84.551 221.419C84.2835 222.141 84.2835 222.916 84.551 223.638L76.4463 220.618L70.3477 236.974L74.1994 238.417L79.9235 223.05L84.7917 224.867L79.0676 240.234L82.9194 241.651L88.6435 226.283L93.5384 228.101L87.8143 243.468L91.6393 244.884L97.7379 228.528L86.4769 224.333C85.5942 223.851 85.193 222.756 85.5407 221.794Z" fill="#C4C4C4"/>
<path d="M60.7719 218.8L55.6362 215.005L57.5621 207.896L54.1115 205.331L49.2166 223.13L49.1631 223.344L52.0519 225.482L52.0252 225.589L52.1321 225.535L52.4799 225.776L67.2984 215.593L67.6997 215.326L66.7902 214.658L60.7719 218.8ZM55.3152 216.101L59.8357 219.442L53.1486 224.039L55.3152 216.101Z" fill="#C4C4C4"/>
<path d="M42.4495 195.63L38.3035 197.073C37.608 196.164 36.8591 195.282 36.1101 194.427C35.8694 194.16 35.6554 193.866 35.4146 193.598L39.8816 189.884L37.2603 186.73L23.8594 197.874L26.4807 201.028L28.9148 198.997C27.8449 200.868 27.5506 202.872 29.3963 205.09C31.1082 207.148 32.9271 208.164 34.7192 208.164C35.9496 208.164 37.18 207.683 38.357 206.694C41.1655 204.342 41.3795 201.402 38.9722 197.955L42.7972 196.618C43.5996 196.351 44.3753 196.565 44.937 197.233C45.5255 198.035 45.4185 199.184 44.6963 199.852C44.2951 200.2 43.7869 200.36 43.2519 200.36C42.7169 200.333 42.2355 200.066 41.8877 199.665L41.6737 199.398L40.8446 200.093L41.0585 200.36C41.5935 201.001 42.3425 201.375 43.1449 201.429C43.9741 201.509 44.7766 201.215 45.3918 200.681C46.5419 199.665 46.7024 197.874 45.7662 196.618C44.9103 195.603 43.6799 195.229 42.4495 195.63ZM30.065 199.211C31.8304 196.699 33.9167 194.854 34.6122 194.24L36.6183 196.645C38.1162 198.462 39.2931 200.494 35.6554 203.513C34.1575 204.77 32.9003 205.705 31.7501 205.545C31.0547 205.438 30.4395 204.93 29.7975 203.995C29.0753 202.899 28.9148 200.841 30.065 199.211Z" fill="#C4C4C4"/>
<path d="M16.2095 143.782L15.9153 143.595L15.4071 144.531L15.6746 144.691C18.9378 146.615 19.7938 149.849 20.195 151.426C21.1045 154.82 18.8041 157.412 13.7219 158.775C8.69324 160.111 5.64394 158.962 4.70774 155.354C4.11928 153.19 4.14603 149.555 6.60687 148.459L6.90111 148.326L6.49988 147.31L6.1789 147.47C4.17278 148.406 2.56788 151.399 3.71806 155.809C4.44026 158.535 5.93817 160.673 7.99779 161.929C9.3352 162.757 10.8599 163.158 12.4648 163.158C13.294 163.158 14.1232 163.051 14.9523 162.837C17.4132 162.169 19.4193 160.673 20.5695 158.588C21.7464 156.45 22.0139 153.858 21.2917 151.132C20.8905 149.582 19.9275 145.974 16.2095 143.782Z" fill="#C4C4C4"/>
<path d="M17.6806 133.76L17.6539 132.611L10.7528 130.366L10.6458 123.979L17.4666 121.199L17.3864 116.897L0.267483 123.872L0.0534966 123.952L0.106993 127.56L0 127.587L0.106993 127.614V128.041L17.2259 133.627L17.6806 133.76ZM9.65614 130.019L1.92588 127.507L9.54915 124.406L9.65614 130.019Z" fill="#C4C4C4"/>
<path d="M11.6352 96.2379L4.89458 89.4497L4.60035 90.6791L11.2339 97.3337L10.806 98.7501L10.378 100.514L2.70122 98.6967L1.73828 102.705L18.4025 106.661L18.7235 106.714L19.6864 102.705L11.3409 100.728L11.7422 99.0441C12.8121 94.5275 16.3696 94.9819 20.9168 96.0776L21.2378 96.1578L22.2007 92.149L21.8798 92.0688C16.5568 90.786 13.454 92.0421 11.6352 96.2379Z" fill="#C4C4C4"/>
<path d="M25.1431 78.225C25.5443 78.4388 25.999 78.5457 26.4538 78.5457C26.7747 78.5457 27.1225 78.4923 27.4167 78.3854C28.1657 78.1181 28.7809 77.5836 29.1286 76.8888C29.6903 75.7663 29.5298 74.4835 28.7541 73.6817L16.8511 61.4415L16.3429 62.4304L24.6349 70.9557L11.7689 71.998L11.5817 72.0248L9.54883 76.1137L23.8057 74.8844C23.3242 76.1939 23.8859 77.6104 25.1431 78.225ZM25.6513 77.2897C24.7954 76.8621 24.4744 75.8465 24.8756 74.9913L26.1328 72.4791L28.0319 74.4033C28.4599 74.8577 28.5401 75.6861 28.1924 76.381C27.7109 77.3431 26.5608 77.744 25.6513 77.2897Z" fill="#C4C4C4"/>
<path d="M38.2504 60.6933L40.9252 57.5931L36.5385 53.7981L38.9726 50.992C41.2997 48.2927 43.8943 44.3106 39.6948 40.7027C38.1434 39.3664 36.485 38.8854 34.8266 39.313C33.4357 39.6604 32.0448 40.6225 30.7341 42.1726C28.835 44.3641 29.1292 46.4487 30.1724 48.3194L27.7383 46.2081L25.0635 49.3083L38.0364 60.4795L38.2504 60.6933ZM36.9397 43.8563C38.5981 45.2728 39.3471 46.5823 39.2668 47.8384C39.1866 48.9341 38.5179 49.8695 37.7689 50.7247L35.7093 53.13C35.0138 52.542 32.981 50.6713 31.2691 48.1324C29.9852 46.2081 30.3864 44.3106 31.1086 43.2684C31.7506 42.333 32.4193 41.8519 33.088 41.7717C33.1682 41.7717 33.2485 41.745 33.3287 41.745C34.4254 41.745 35.5756 42.6804 36.9397 43.8563Z" fill="#C4C4C4"/>
<path d="M52.534 22.9571L49.6184 25.0684L49.5114 25.0149L49.5382 25.1218L49.1904 25.3624L54.6471 42.9744L55.5565 42.3062L53.4167 35.3844L58.5791 31.6161L64.7847 35.5715L68.262 33.0325L52.6945 23.064L52.534 22.9571ZM53.1224 34.2886L50.7151 26.5383L57.6429 30.9747L53.1224 34.2886Z" fill="#C4C4C4"/>
</svg>
