<svg width="75" height="75" viewBox="0 0 75 75" fill="none" xmlns="http://www.w3.org/2000/svg">
<g clip-path="url(#clip0_2282_73)">
<path d="M70.764 0.149902H4.23694C1.98229 0.149902 0.150391 1.9818 0.150391 4.23645V70.7635C0.150391 73.0152 1.98229 74.8501 4.23694 74.8501H70.764C73.0157 74.8501 74.8506 73.0182 74.8506 70.7635V4.23645C74.8506 1.9818 73.0157 0.149902 70.764 0.149902ZM73.9511 4.23645V37.0518H52.0403C53.1406 36.5571 54.076 35.8405 54.7716 34.932C55.842 33.5319 56.2168 31.8409 55.797 30.2908C55.1314 27.8323 53.5274 26.1383 51.3927 25.6376C48.8352 25.038 45.9269 26.2522 43.6063 28.8817L37.1572 36.3892V1.04936H70.767C72.521 1.04936 73.9511 2.4795 73.9511 4.23645ZM25.4762 37.0098C22.9457 37.0098 20.772 36.0684 19.5128 34.4253C18.6013 33.2321 18.2775 31.8049 18.6283 30.5067C19.21 28.354 20.5921 26.8729 22.421 26.4471C22.7898 26.3602 23.1676 26.3182 23.5514 26.3182C25.5152 26.3182 27.6259 27.4245 29.3889 29.4243L35.9069 37.0128H25.4762V37.0098ZM37.7149 37.0098L44.2299 29.4243C46.3407 27.0318 48.9461 25.9134 51.2008 26.4441C53.0297 26.8699 54.4118 28.351 54.9935 30.5037C55.3443 31.8019 55.0235 33.2321 54.109 34.4223C52.8528 36.0654 50.6791 37.0068 48.1456 37.0068H37.7149V37.0098ZM4.23694 1.04936H36.2577V36.1433L30.0185 28.8787C27.7009 26.2522 24.7926 25.041 22.2351 25.6376C20.1004 26.1353 18.4934 27.8323 17.8308 30.2908C17.411 31.8409 17.7858 33.5319 18.8562 34.932C19.5518 35.8405 20.4872 36.5541 21.5875 37.0518H1.04985V4.23645C1.04985 2.4795 2.47999 1.04936 4.23694 1.04936ZM1.04985 70.7635V37.9482H35.793L21.0059 54.6002L21.6265 55.1519L36.2577 38.6768V73.9476H4.23694C2.47999 73.9506 1.04985 72.5205 1.04985 70.7635ZM70.764 73.9506H37.1542V38.4369L51.9953 55.1519L52.6159 54.6002L37.8288 37.9482H73.9481V70.7635C73.9511 72.5205 72.521 73.9506 70.764 73.9506Z" fill="#0C594B" stroke="#0C594B" stroke-miterlimit="10"/>
</g>
<defs>
<clipPath id="clip0_2282_73">
<rect width="75" height="75" fill="white"/>
</clipPath>
</defs>
</svg>
