<svg width="169" height="169" viewBox="0 0 169 169" fill="none" xmlns="http://www.w3.org/2000/svg">
<g clip-path="url(#clip0_2217_135)">
<path d="M73.1444 11.7178H73.1807C75.1051 11.3913 76.5937 10.7928 77.5741 9.97651C78.8086 8.94259 79.2806 7.54589 78.972 5.80456C78.6634 4.06323 77.7556 2.86606 76.2488 2.28562C75.0143 1.79587 73.4349 1.72331 71.5468 2.04981H71.5105L71.3471 1.07031L68.5332 1.56006L68.6966 2.53956H68.6602C64.4121 3.28326 62.3606 5.42364 62.9234 8.59795C63.4681 11.7178 66.046 12.9876 70.3668 12.2257H70.4212L70.6028 13.2234L73.3441 12.7518L73.1444 11.7178ZM65.6829 8.01751C65.229 5.36923 66.3002 3.68231 68.7147 3.26512L68.8236 3.24698L70.2578 11.482L70.1489 11.5002C67.7344 11.9174 66.1368 10.6839 65.6829 8.01751ZM76.1944 6.18548C76.6482 8.85189 75.5771 10.5569 73.1625 10.9741L73.0536 10.9923L71.6194 2.75723L71.7283 2.73909C74.1429 2.3219 75.7223 3.55534 76.1944 6.18548Z" fill="#F4B9B8"/>
<path d="M96.4732 12.6609L96.5458 11.9354L89.9376 11.3187L90.4096 6.27605L95.3476 6.74767L95.5836 6.7658L95.6562 6.05839L90.4822 5.5505L90.9179 0.9795L97.5261 1.59622L97.5988 0.888805L88.231 0L87.1055 11.7721L96.2553 12.6428L96.4732 12.6609Z" fill="#F4B9B8"/>
<path d="M111.922 16.9056C112.83 16.9056 113.846 16.7423 114.899 16.2344L115.099 16.1437L114.754 15.5089L114.573 15.5996C112.249 16.706 110.107 15.9442 109.072 15.5814C107.983 15.2005 107.275 14.4749 106.984 13.4047C106.675 12.2801 106.803 10.8472 107.402 9.14211C108.563 5.80455 110.361 4.53483 112.757 5.36922C114.191 5.87711 116.225 7.2738 115.916 9.06955L115.88 9.28722L116.606 9.45047L116.642 9.21466C116.878 7.74541 115.807 5.67758 112.884 4.6618C109.217 3.39208 105.84 4.89761 104.642 8.30772C103.444 11.7541 105.169 15.0372 108.818 16.307C109.435 16.5065 110.542 16.9056 111.922 16.9056Z" fill="#F4B9B8"/>
<path d="M125.338 24.3786L131.402 15.0734L135.342 17.631L135.723 17.0324L125.538 10.3936L125.139 10.9921L129.078 13.5497L123.015 22.8731L125.338 24.3786Z" fill="#F4B9B8"/>
<path d="M134.271 31.2713L135.995 33.1578C137.847 35.1712 140.334 35.7698 142.858 34.881L139.989 37.5111L141.859 39.5608L150.428 31.7067L150.591 31.5615L148.721 29.5118L145.436 32.5229C140.915 36.2595 137.756 33.9196 136.685 32.8494L144.709 25.5032L144.873 25.358L143.003 23.3083L134.434 31.1625L134.271 31.2713Z" fill="#F4B9B8"/>
<path d="M148.739 50.5168C149.357 51.6596 149.992 52.8568 150.827 53.6186C151.39 54.1265 152.007 54.3804 152.642 54.3804C153.133 54.3804 153.659 54.2353 154.222 53.9451C156.255 52.8568 156.164 51.0247 155.819 49.7369C156.782 50.5531 158.016 50.7527 159.105 50.1722C160.649 49.356 160.83 47.5058 159.614 45.2203C158.779 43.6422 157.326 43.3701 156.164 43.4245L157.889 42.5176L156.582 40.0688L146.125 45.6193L148.739 50.5168ZM152.897 45.1477L153.931 47.0886C155.075 49.229 154.821 50.3717 153.024 51.3331C150.773 52.5303 150.155 51.6233 149.012 49.4648L148.086 47.7235L152.897 45.1477ZM159.087 46.49C158.942 46.8709 158.506 47.2337 157.816 47.6146C157.018 48.05 156.328 48.1951 155.819 48.0862C155.402 47.9955 155.075 47.7416 154.857 47.3244L153.532 44.8394C154.422 44.4585 157.762 43.2432 158.942 45.4742C159.16 45.8733 159.196 46.1998 159.087 46.49Z" fill="#F4B9B8"/>
<path d="M153.605 61.2913L153.787 62.035L158.689 62.4521L159.76 66.6785L155.802 69.4719L155.675 69.5626L156.383 72.3923L166.622 65.173L166.749 65.0823L166.15 62.7061L166.223 62.6517H166.15L166.078 62.3796L153.914 61.3275L153.605 61.2913ZM160.395 66.225L159.469 62.5247L164.952 62.9963L160.395 66.225Z" fill="#F4B9B8"/>
<path d="M157.055 78.6685V79.4303L167.693 82.8948L157.2 87.1756L157.236 90.096L169 85.3254L168.964 82.8585L169 82.8404H168.964V82.532L157.345 78.7592L157.055 78.6685Z" fill="#F4B9B8"/>
<path d="M154.803 102.775C154.422 104.317 154.386 105.46 154.694 106.348C155.076 107.419 155.911 108.108 157.291 108.452C157.635 108.543 157.962 108.579 158.289 108.579C159.106 108.579 159.85 108.307 160.486 107.781C161.248 107.165 161.811 106.185 162.101 105.06L162.973 101.632L167.039 102.648L167.711 99.9634L156.219 97.0793L154.803 102.775ZM157.89 105.695C156.909 105.441 156.219 105.006 155.874 104.353C155.53 103.718 155.475 102.866 155.747 101.814L156.219 99.9272L162.337 101.469L161.72 103.9C161.539 104.589 161.121 105.151 160.522 105.496C159.832 105.877 158.924 105.949 157.89 105.695Z" fill="#F4B9B8"/>
<path d="M144.637 125.539L141.024 130.02C140.788 130.31 140.443 130.491 140.062 130.546C139.681 130.582 139.3 130.473 139.009 130.237C138.41 129.748 138.319 128.859 138.81 128.242C139.3 127.643 140.189 127.535 140.788 128.024L140.97 128.169L141.424 127.607L141.242 127.462C140.807 127.099 140.244 126.936 139.681 127.009C139.118 127.063 138.592 127.353 138.247 127.789C137.884 128.242 137.72 128.786 137.793 129.367C137.847 129.929 138.138 130.437 138.574 130.8C138.991 131.144 139.536 131.289 140.044 131.271L137.611 134.282L146.652 141.556L146.834 141.701L148.577 139.543L139.917 132.577L143.475 128.169L151.953 135.008L152.135 135.153L153.878 132.994L144.837 125.721L144.637 125.539Z" fill="#F4B9B8"/>
<path d="M127.789 142.699C126.736 143.479 125.665 144.277 125.048 145.238C124.322 146.363 124.376 147.469 125.248 148.648C126.591 150.444 128.261 150.208 129.659 149.573C128.987 150.662 128.987 151.913 129.714 152.893C130.204 153.546 130.857 153.872 131.656 153.872C131.838 153.872 132.019 153.854 132.219 153.818C133.181 153.636 134.107 153.074 134.688 152.639C136.122 151.568 136.177 150.063 135.941 148.956L137.121 150.516L139.354 148.866L132.273 139.379L127.789 142.699ZM130.476 141.628L133.744 146L131.983 147.306C131.039 148.013 130.295 148.322 129.641 148.34C128.933 148.34 128.298 147.923 127.644 147.052C126.119 145.002 126.918 144.277 128.879 142.807L130.476 141.628ZM132.056 151.224C131.075 149.9 131.021 148.902 131.892 148.249L134.143 146.562C134.652 147.397 136.376 150.498 134.343 152.004C133.798 152.403 133.145 152.711 132.056 151.224Z" fill="#F4B9B8"/>
<path d="M108.273 153.201L108.564 153.872L114.682 151.278L116.661 155.94L111.868 157.953L112.158 158.625L116.933 156.593L118.73 160.837L112.612 163.431L112.885 164.084L121.563 160.42L116.951 149.519L108.273 153.201Z" fill="#F4B9B8"/>
<path d="M99.6135 166.751L97.7799 155.795L95.0386 156.248L96.854 167.222L92.2246 167.966L92.3517 168.674L104.352 166.696L104.243 165.989L99.6135 166.751Z" fill="#F4B9B8"/>
<path d="M80.0609 159.913C80.4421 159.586 80.6782 159.151 80.7145 158.643C80.7508 158.099 80.5874 157.573 80.2243 157.174C79.8612 156.756 79.371 156.521 78.8446 156.466C78.0094 156.412 77.2288 156.811 76.9202 157.518L72.2363 168.129L72.9988 168.184L76.2485 160.801L80.2425 168.764L83.3287 169.018L78.9353 160.366C79.3529 160.312 79.7523 160.166 80.0609 159.913ZM78.7901 157.174C79.5163 157.228 80.0428 157.845 79.9883 158.552C79.9701 158.86 79.8249 159.151 79.5889 159.35C79.3529 159.55 79.0624 159.659 78.7356 159.622L76.8294 159.477L77.5737 157.79C77.7553 157.391 78.2636 157.137 78.7901 157.174Z" fill="#F4B9B8"/>
<path d="M58.0578 150.535C58.1849 150.172 58.4572 149.9 58.8022 149.737C59.1471 149.573 59.5465 149.555 59.8914 149.7C60.2545 149.827 60.5268 150.099 60.6902 150.444C60.8536 150.789 60.8536 151.17 60.7265 151.532L60.6539 151.75L61.3256 152.004L61.3983 151.786C61.598 151.26 61.5798 150.68 61.3438 150.154C61.1078 149.628 60.6721 149.229 60.1456 149.029C59.0382 148.63 57.8037 149.174 57.3861 150.281C57.2046 150.77 57.2046 151.297 57.3861 151.786L51.8853 149.737L47.7461 160.838L50.3603 161.817L54.2454 151.387L57.5495 152.621L53.6645 163.051L56.2787 164.012L60.1638 153.582L63.486 154.815L59.601 165.245L62.1971 166.207L66.3363 155.106L58.6932 152.258C58.0941 151.931 57.8218 151.188 58.0578 150.535Z" fill="#F4B9B8"/>
<path d="M41.2472 148.503L37.7615 145.927L39.0687 141.102L36.7267 139.361L33.4045 151.442L33.3682 151.587L35.3288 153.038L35.3107 153.11L35.3833 153.074L35.6193 153.237L45.6769 146.326L45.9492 146.145L45.332 145.692L41.2472 148.503ZM37.5437 146.671L40.6118 148.938L36.0732 152.058L37.5437 146.671Z" fill="#F4B9B8"/>
<path d="M28.8107 132.777L25.9968 133.756C25.5248 133.139 25.0164 132.541 24.5081 131.96C24.3447 131.779 24.1995 131.579 24.0361 131.398L27.0679 128.877L25.2888 126.736L16.1934 134.3L17.9725 136.441L19.6246 135.062C18.8984 136.332 18.6987 137.692 19.9513 139.198C21.1132 140.594 22.3477 141.284 23.5641 141.284C24.3992 141.284 25.2343 140.957 26.0331 140.286C27.9393 138.69 28.0845 136.695 26.4506 134.355L29.0467 133.448C29.5914 133.266 30.1178 133.411 30.4991 133.865C30.8985 134.409 30.8259 135.189 30.3357 135.643C30.0634 135.878 29.7184 135.987 29.3554 135.987C28.9923 135.969 28.6655 135.788 28.4295 135.516L28.2842 135.334L27.7215 135.806L27.8667 135.987C28.2298 136.422 28.7381 136.676 29.2827 136.713C29.8455 136.767 30.3902 136.568 30.8077 136.205C31.5884 135.516 31.6973 134.3 31.0619 133.448C30.4809 132.758 29.6458 132.504 28.8107 132.777ZM20.4052 135.207C21.6034 133.502 23.0194 132.251 23.4915 131.833L24.853 133.466C25.8697 134.699 26.6685 136.078 24.1995 138.128C23.1828 138.98 22.3296 139.615 21.5489 139.506C21.0769 139.434 20.6594 139.089 20.2237 138.454C19.7335 137.71 19.6246 136.314 20.4052 135.207Z" fill="#F4B9B8"/>
<path d="M11.0012 97.5872L10.8015 97.4602L10.4566 98.0951L10.6381 98.2039C12.853 99.5099 13.4339 101.705 13.7062 102.775C14.3235 105.079 12.7622 106.838 9.31283 107.763C5.89979 108.67 3.83018 107.89 3.19477 105.441C2.79537 103.972 2.81353 101.505 4.48374 100.761L4.68344 100.671L4.41112 99.9815L4.19327 100.09C2.83168 100.725 1.74242 102.757 2.52306 105.75C3.01323 107.6 4.02988 109.051 5.42777 109.903C6.3355 110.466 7.3703 110.738 8.45957 110.738C9.02236 110.738 9.58515 110.665 10.1479 110.52C11.8181 110.067 13.1797 109.051 13.9604 107.636C14.7592 106.185 14.9407 104.426 14.4505 102.575C14.1782 101.523 13.5247 99.0746 11.0012 97.5872Z" fill="#F4B9B8"/>
<path d="M12.0001 90.7852L11.982 90.0053L7.2981 88.4816L7.22548 84.1464L11.8549 82.26L11.8004 79.3396L0.181545 84.0738L0.036309 84.1283L0.0726179 86.577L0 86.5952L0.0726179 86.6133V86.9035L11.6915 90.6945L12.0001 90.7852ZM6.55377 88.2458L1.30712 86.5407L6.48115 84.4366L6.55377 88.2458Z" fill="#F4B9B8"/>
<path d="M7.89684 65.3182L3.32192 60.7109L3.12222 61.5453L7.62453 66.0619L7.33405 67.0233L7.04358 68.2204L1.83325 66.987L1.17969 69.7078L12.4899 72.3924L12.7078 72.4287L13.3613 69.7078L7.69714 68.3655L7.96946 67.2228C8.69564 64.1573 11.1102 64.4657 14.1964 65.2094L14.4143 65.2638L15.0679 62.543L14.85 62.4885C11.2373 61.6179 9.13135 62.4704 7.89684 65.3182Z" fill="#F4B9B8"/>
<path d="M17.0655 53.0926C17.3378 53.2377 17.6464 53.3103 17.9551 53.3103C18.1729 53.3103 18.4089 53.274 18.6086 53.2015C19.117 53.0201 19.5345 52.6573 19.7705 52.1857C20.1518 51.4239 20.0428 50.5532 19.5164 50.009L11.4376 41.7014L11.0927 42.3726L16.7206 48.1589L7.98827 48.8663L7.86119 48.8844L6.48145 51.6597L16.1578 50.8253C15.831 51.7141 16.2122 52.6754 17.0655 53.0926ZM17.4104 52.4578C16.8295 52.1676 16.6116 51.4783 16.884 50.8978L17.7372 49.1928L19.0262 50.4988C19.3167 50.8071 19.3711 51.3694 19.1351 51.8411C18.8083 52.4941 18.0277 52.7661 17.4104 52.4578Z" fill="#F4B9B8"/>
<path d="M25.9609 41.1934L27.7763 39.0893L24.799 36.5135L26.4511 34.6089C28.0305 32.7769 29.7915 30.0742 26.9412 27.6255C25.8883 26.7185 24.7627 26.392 23.6371 26.6823C22.6931 26.9181 21.7491 27.5711 20.8595 28.6231C19.5705 30.1105 19.7702 31.5253 20.4782 32.7951L18.8262 31.3621L17.0107 33.4662L25.8157 41.0483L25.9609 41.1934ZM25.0713 29.7659C26.1969 30.7272 26.7052 31.616 26.6508 32.4686C26.5963 33.2123 26.1424 33.8471 25.6341 34.4276L24.2362 36.0601C23.7642 35.661 22.3845 34.3913 21.2226 32.6681C20.3512 31.3621 20.6235 30.0742 21.1137 29.3668C21.5494 28.7319 22.0032 28.4054 22.4571 28.351C22.5115 28.351 22.566 28.3329 22.6205 28.3329C23.3648 28.3329 24.1455 28.9678 25.0713 29.7659Z" fill="#F4B9B8"/>
<path d="M35.6551 15.5813L33.6762 17.0143L33.6036 16.978L33.6218 17.0505L33.3857 17.2138L37.0893 29.1673L37.7065 28.7139L36.2541 24.0159L39.758 21.4583L43.9698 24.1429L46.3299 22.4197L35.764 15.6539L35.6551 15.5813ZM36.0545 23.2722L34.4205 18.0119L39.1226 21.023L36.0545 23.2722Z" fill="#F4B9B8"/>
</g>
<defs>
<clipPath id="clip0_2217_135">
<rect width="169" height="169" fill="white"/>
</clipPath>
</defs>
</svg>
