<svg width="476" height="476" viewBox="0 0 476 476" fill="none" xmlns="http://www.w3.org/2000/svg">
<g clip-path="url(#clip0_2264_32)">
<path d="M135.849 26.1926L135.698 26.243L134.285 23.523L126.567 27.4518L127.98 30.1718L127.828 30.2726C122.532 32.9422 118.748 36.0652 116.579 39.5407C113.956 43.7718 113.905 48.3555 116.377 53.2415C118.849 58.077 122.582 60.6963 127.526 60.9481C127.828 60.9481 128.131 60.9985 128.434 60.9985C132.167 60.9985 136.606 59.7392 141.549 57.2207L141.751 57.12L143.164 59.8904L150.73 56.0622L149.318 53.2918L149.469 53.1911C154.867 50.4711 158.65 47.3985 160.819 44.1244C163.493 39.9941 163.594 35.4607 161.173 30.6252C156.683 21.76 147.704 20.1985 135.849 26.1926ZM146.089 26.8978C149.015 27.9052 151.487 30.323 153.404 34.1511C157.187 41.6563 155.573 47.6504 148.763 51.1259L148.359 51.3274L136.606 28.2074L137.009 28.0059C140.288 26.3437 143.365 25.9407 146.089 26.8978ZM131.208 56.4652C128.282 55.4578 125.811 52.9896 123.894 49.1111C121.926 45.283 121.422 41.8578 122.33 38.9363C123.187 36.1659 125.306 33.9496 128.585 32.237L128.989 32.0355L140.742 55.1555L140.339 55.4074C137.06 57.0696 133.983 57.4222 131.208 56.4652Z" fill="#4B9374"/>
<path d="M198.905 37.6771L196.231 22.163L212.021 19.443L211.668 17.3778L195.878 20.1482L193.457 5.99411L213.685 2.46818L213.282 0.453369L184.78 5.38967L190.985 41.203L219.486 36.2667L219.133 34.2015L198.905 37.6771Z" fill="#4B9374"/>
<path d="M276.086 31.683C269.881 36.6696 262.869 35.9645 259.489 35.6622C255.908 35.3096 253.284 33.6474 251.569 30.6252C249.804 27.5022 249.198 23.0697 249.703 17.5289C250.207 12.2904 251.569 8.3615 253.688 5.79261C255.908 3.07261 259.086 1.91409 263.121 2.26669C267.863 2.72002 275.026 5.44002 275.379 11.0815L275.43 11.6859L277.548 11.6356L277.498 10.9808C277.145 6.39706 272.454 1.0578 262.97 0.151131C257.068 -0.402943 251.822 0.906687 247.836 4.08002C243.952 7.10224 241.48 11.7363 240.976 17.0252C239.866 28.1571 247.433 36.7704 259.287 37.9289C260.246 38.0296 261.608 38.1304 263.172 38.1304C267.056 38.1304 272.403 37.3245 277.397 33.2948L277.902 32.8919L276.54 31.3304L276.086 31.683Z" fill="#4B9374"/>
<path d="M341.009 22.0118L306.051 8.6637L305.294 10.5778L318.813 15.7659L306.807 47.197L306.606 47.8015L314.475 50.8237L326.733 18.7881L340.252 23.9259L341.009 22.0118Z" fill="#4B9374"/>
<path d="M374.101 71.8282L366.736 81.6504L373.495 86.6875L395.338 57.6238L388.578 52.5867L380.406 63.5171C368.703 77.5201 357.706 72.0801 353.922 69.4104L374.504 42.009L367.795 36.9719L345.952 66.086L352.157 70.7704C358.917 75.8075 366.887 76.1601 374.101 71.8282Z" fill="#4B9374"/>
<path d="M389.789 103.058L400.08 116.708C402.501 119.932 404.973 123.256 407.899 125.12C409.463 126.127 411.026 126.631 412.641 126.631C414.507 126.631 416.424 125.926 418.341 124.465C423.89 120.285 423.083 115.046 421.015 110.714C424.394 112.88 428.329 112.93 431.406 110.613C435.644 107.44 435.341 101.698 430.549 95.4015C427.118 90.8682 422.377 90.8682 418.946 91.6741L423.94 87.8964L418.896 81.1467L390.243 102.605L389.789 103.058ZM410.118 98.323L414.255 103.763C416.475 106.685 417.483 109.002 417.433 111.016C417.433 113.233 416.121 115.247 413.448 117.212C407.041 121.997 404.771 119.479 400.231 113.434L396.498 108.498L410.118 98.323ZM426.362 103.612C422.276 106.685 419.148 106.886 417.08 104.116L411.834 97.1141C414.305 95.5527 423.991 90.0623 428.834 96.4593C429.994 98.1215 430.952 100.187 426.362 103.612Z" fill="#4B9374"/>
<path d="M420.712 149.55L435.896 148.945L440.84 161.487L429.49 171.914L432.718 180.175L461.169 154.083L461.472 153.781L458.748 146.779L458.798 146.729H458.698L458.395 145.923L419.905 147.484L420.712 149.55ZM442.505 159.976L438.166 148.844L455.419 148.139L442.505 159.976Z" fill="#4B9374"/>
<path d="M437.661 201.683L471.409 209.49L440.537 225.357L440.184 225.558L441.092 234.323L475.848 216.542L474.94 208.08L437.409 199.416L437.661 201.683Z" fill="#4B9374"/>
<path d="M440.083 256.133L436.956 273.914C436.098 278.75 436.25 282.225 437.41 284.895C438.772 288.068 441.546 289.982 445.834 290.738C446.641 290.889 447.348 290.939 448.104 290.939C454.763 290.939 458.748 285.348 459.858 279.304L461.775 268.474L474.537 270.69L476 262.379L440.083 256.133ZM455.368 280.916C453.25 282.376 450.374 282.83 447.045 282.276C443.917 281.721 441.748 280.513 440.487 278.598C439.276 276.684 438.923 274.065 439.529 270.791L440.588 264.797L459.908 268.172L458.546 275.828C458.193 277.893 457.083 279.707 455.368 280.916Z" fill="#4B9374"/>
<path d="M423.688 317.938L439.729 325.796L431.759 342.015L415.768 334.157L412.035 341.713L444.774 357.68L448.457 350.125L433.626 342.922L441.596 326.702L456.427 333.905L460.109 326.35L427.421 310.382L423.688 317.938Z" fill="#4B9374"/>
<path d="M399.475 360.299L397.961 361.962L405.276 375.259L396.196 385.233L381.819 379.742L375.866 386.29L412.288 400.344L417.332 394.753L417.433 394.803L417.382 394.702L417.988 394.047L399.475 360.299ZM398.314 386.039L406.335 377.224L414.658 392.335L398.314 386.039Z" fill="#4B9374"/>
<path d="M356.546 415.959L354.781 407.547C354.428 405.784 355.134 404.172 356.647 403.215C358.514 402.207 360.935 402.762 362.095 404.474C362.751 405.431 362.953 406.539 362.751 407.698C362.499 408.806 361.843 409.763 360.885 410.367L360.38 410.72L361.49 412.533L362.045 412.181C363.508 411.274 364.466 409.813 364.819 408.151C365.173 406.489 364.819 404.776 363.861 403.316C362.045 400.696 358.413 399.84 355.588 401.452C353.267 402.913 352.158 405.381 352.662 408L354.529 417.067C352.359 418.326 350.241 419.686 348.173 421.046C347.567 421.449 347.012 421.802 346.407 422.205L339.9 411.929L332.736 416.462L351.905 446.634L352.259 447.188L359.422 442.655L355.689 436.762C359.321 439.683 363.508 440.942 368.754 437.618C376.674 432.581 378.742 426.184 374.505 419.585C370.469 413.088 364.416 411.879 356.546 415.959ZM347.517 423.867L353.116 420.341C357.152 417.822 361.894 415.757 367.241 424.219C369.46 427.695 371.075 430.566 370.419 432.933C370.015 434.344 368.805 435.553 366.635 436.61C364.113 437.87 359.775 437.668 356.597 434.797C351.855 430.314 348.526 425.428 347.517 423.867Z" fill="#4B9374"/>
<path d="M273.211 436.761L264.837 437.517L267.863 471.668L250.308 473.23L247.332 439.683L247.282 439.079L238.857 439.834L242.035 475.396L242.086 476L275.783 473.028L276.439 472.978L273.261 437.416L273.211 436.761Z" fill="#4B9374"/>
<path d="M205.16 448.75L197.442 447.239C192.347 446.231 188.513 446.231 185.487 447.239C181.501 448.548 178.979 451.671 178.021 456.507C177.214 460.687 178.021 464.163 180.492 466.732C182.561 468.898 185.739 470.409 189.926 471.215C196.03 472.424 199.51 469.553 201.831 465.573L200.469 472.525L208.742 474.136L215.653 439.079L215.754 438.474L207.481 436.862L205.16 448.75ZM191.489 469.402C189.119 469.15 187.504 468.495 186.647 467.336C185.184 465.372 185.688 462.148 186.445 458.119C187.908 450.714 191.187 449.002 194.768 449.002C195.929 449.002 197.089 449.203 198.249 449.405L204.807 450.714C204.454 452.527 203.193 458.219 200.267 464.062C198.098 468.394 194.113 469.603 191.489 469.402Z" fill="#4B9374"/>
<path d="M144.071 414.699C139.027 412.03 133.629 410.972 128.887 411.677C123.338 412.533 118.899 415.807 116.024 421.147C113.199 426.486 112.947 432.027 115.267 437.165C117.285 441.597 121.169 445.526 126.214 448.196C130.148 450.261 134.285 451.369 138.22 451.369C139.329 451.369 140.389 451.268 141.448 451.117C147.047 450.21 151.487 446.886 154.312 441.547C157.136 436.208 157.389 430.667 155.018 425.579C153.05 421.247 149.116 417.369 144.071 414.699ZM123.641 425.327C127.374 418.326 131.863 414.75 136.908 414.75C138.926 414.75 140.994 415.304 143.163 416.462C150.679 420.442 151.941 427.745 146.694 437.567C143.869 442.856 140.641 446.181 137.059 447.49C133.982 448.599 130.703 448.246 127.222 446.382C123.742 444.519 121.573 442 120.816 438.827C119.908 435.15 120.866 430.616 123.641 425.327Z" fill="#4B9374"/>
<path d="M77.2823 409.914L63.8135 396.868L62.3506 398.379L81.8728 417.218L107.196 391.126L101.143 385.283L77.2823 409.914Z" fill="#4B9374"/>
<path d="M69.564 348.16L59.1219 354.406L55.0863 347.707C51.2524 341.36 45.0477 333.603 35.1604 339.496C31.478 341.713 29.4602 344.634 29.2079 348.21C29.0061 351.182 29.9646 354.557 32.1337 358.184C35.3118 363.473 39.8014 364.178 44.3415 363.271L38.3385 366.797L42.6768 374L73.9527 355.313L69.564 348.16ZM32.8904 353.096C33.3444 350.729 36.1189 348.916 39.5996 346.8C42.5254 345.037 44.7955 344.382 46.6619 344.382C50.294 344.382 52.3118 347.002 53.926 349.722L57.3563 355.464C55.7925 356.421 50.6975 359.292 44.3919 361.055C39.7005 362.365 36.1694 360.299 34.5551 358.133C33.1931 356.169 32.5877 354.507 32.8904 353.096Z" fill="#4B9374"/>
<path d="M49.0827 308.72L33.8987 308.015L30.1153 295.07L42.323 285.701L39.8512 277.188L8.87793 300.913L10.9966 308.166L10.8957 308.216H10.9966L11.2488 309.073L49.688 310.886L49.0827 308.72ZM28.2993 296.43L31.6287 307.914L14.3764 307.108L28.2993 296.43Z" fill="#4B9374"/>
<path d="M36.5223 247.419L3.88427 247.067L19.9763 235.129L4.18694 222.889L36.7745 223.241L36.8754 214.83L0.454006 214.427L0.353116 222.637L16.4451 235.078L0.10089 247.268L0 255.428L36.4214 255.831L36.5223 247.419Z" fill="#4B9374"/>
<path d="M40.7089 192.264L43.4329 184.305L12.5605 173.828L31.5279 167.482L20.3795 150.96L50.5961 161.236L51.2015 161.437L53.9255 153.479L20.0264 141.994L19.4715 141.793L16.7979 149.55L28.2489 166.373L9.1807 172.77L8.87803 172.871L6.25488 180.578L40.154 192.062L40.7089 192.264Z" fill="#4B9374"/>
<path d="M63.6617 133.733L64.1662 134.439L65.4778 132.625L56.6499 120.234L64.4689 109.253L79.4006 113.031L84.546 105.828L46.7122 96.1571L42.3235 102.302H42.2226L42.273 102.403L41.7686 103.108L63.6617 133.733ZM62.3502 108.699L55.3887 118.421L45.3502 104.367L62.3502 108.699Z" fill="#4B9374"/>
</g>
<defs>
<clipPath id="clip0_2264_32">
<rect width="476" height="476" fill="white"/>
</clipPath>
</defs>
</svg>
