<svg width="10" height="13" viewBox="0 0 10 13" fill="none" xmlns="http://www.w3.org/2000/svg">
<path d="M5.94334 0.773926H2.33459C1.96245 0.773926 1.66076 1.07562 1.66076 1.44775V6.54787H0.891113C0.51898 6.54787 0.217285 6.84957 0.217285 7.2217C0.217285 7.59383 0.51898 7.89553 0.891113 7.89553H1.66076V9.43486H0.891113C0.51898 9.43486 0.217285 9.73656 0.217285 10.1087C0.217285 10.4808 0.51898 10.7825 0.891113 10.7825H1.66076V12.2739C1.66076 12.6461 1.96245 12.9478 2.33459 12.9478C2.70672 12.9478 3.00842 12.6461 3.00842 12.2739V10.7825H5.94334C6.31547 10.7825 6.61717 10.4808 6.61717 10.1087C6.61717 9.73656 6.31547 9.43486 5.94334 9.43486H3.00842V7.89553H5.94334C7.90679 7.89553 9.50416 6.29815 9.50416 4.3347C9.50412 2.32274 7.86523 0.773926 5.94334 0.773926ZM5.94334 6.54787H3.00842V2.12158H5.94334C7.15632 2.12158 8.15651 3.09998 8.15651 4.33475C8.15646 5.5551 7.16369 6.54787 5.94334 6.54787Z" fill="#A28A58"/>
</svg>
