<svg width="38" height="37" viewBox="0 0 38 37" fill="none" xmlns="http://www.w3.org/2000/svg">
<path d="M26.0212 35.9961H11.9024C6.0196 35.9961 1.31335 31.2114 1.31335 25.407V11.2883C1.31335 5.4839 6.09804 0.699219 11.9024 0.699219H26.0212C31.8255 0.699219 36.6102 5.4839 36.6102 11.2883V25.407C36.6102 31.2898 31.904 35.9961 26.0212 35.9961Z" stroke="white" stroke-miterlimit="10"/>
<path fill-rule="evenodd" clip-rule="evenodd" d="M16.0805 18.687V30.1195C16.0805 30.2818 16.1987 30.4187 16.3488 30.4187H20.1551C20.3052 30.4187 20.4234 30.2869 20.4234 30.1195V18.4993H23.1838C23.3248 18.4993 23.4385 18.3776 23.4476 18.2254L23.7159 14.7257C23.7295 14.5532 23.6067 14.4011 23.4476 14.4011H20.4234V11.9208C20.4234 11.3375 20.8463 10.8658 21.3693 10.8658H23.4976C23.6431 10.8658 23.7659 10.734 23.7659 10.5666V7.06683C23.7659 6.89945 23.6477 6.76758 23.4976 6.76758H19.9004C17.7904 6.76758 16.085 8.67468 16.085 11.0281V14.4011H14.175C14.0249 14.4011 13.9113 14.5329 13.9113 14.7003V18.2001C13.9113 18.3624 14.0295 18.4993 14.175 18.4993H16.0805V18.687Z" stroke="white" stroke-miterlimit="10"/>
</svg>
