<svg width="51" height="51" viewBox="0 0 51 51" fill="none" xmlns="http://www.w3.org/2000/svg">
<path d="M17.6219 14.5051H14.3722C13.5902 14.5051 12.9539 13.8681 12.9539 13.0852C12.9539 12.2996 13.5892 11.6653 14.372 11.6653C14.3793 11.6653 14.3865 11.6654 14.3938 11.6654H17.5057C18.0645 11.671 18.6171 11.922 19.0224 12.3548C19.5888 12.9594 20.538 12.9902 21.1426 12.424C21.7472 11.8576 21.7782 10.9084 21.2118 10.3038C20.246 9.27282 18.9016 8.67572 17.5232 8.66542C17.5194 8.66542 17.5157 8.66542 17.512 8.66542H17.4971V7.33252C17.4971 6.50412 16.8255 5.83252 15.9971 5.83252C15.1687 5.83252 14.4971 6.50412 14.4971 7.33252V8.66532C11.7746 8.66532 9.95398 10.754 9.95398 13.0851C9.95398 15.5222 11.936 17.505 14.3723 17.505H17.622C18.404 17.505 19.0403 18.1419 19.0403 18.9248C19.0403 19.7105 18.405 20.3447 17.6223 20.3447C17.615 20.3447 17.6077 20.3446 17.6005 20.3446H14.2052C13.8105 20.3406 13.3914 20.1982 13.0245 19.9435C12.3439 19.4708 11.4093 19.6396 10.9369 20.3203C10.4645 21.0008 10.6331 21.9354 11.3137 22.4078C12.3941 23.1579 13.3672 23.3446 14.4972 23.3446V24.6774C14.4972 25.5058 15.1688 26.1774 15.9972 26.1774C16.8256 26.1774 17.4972 25.5058 17.4972 24.6774V23.3446C20.2393 23.3446 22.0403 21.2378 22.0403 18.9248C22.0402 16.4878 20.0582 14.5051 17.6219 14.5051Z" fill="url(#paint0_linear)"/>
<path d="M31.6451 19.346C33.7694 9.3421 26.106 0 15.9972 0C7.1763 0 0 7.1799 0 16.0051C0 26.1194 9.3452 33.7991 19.357 31.6561C17.234 41.6245 24.8647 51 35.0029 51C43.8237 51 51 43.8202 51 34.995C51 24.8835 41.6557 17.198 31.6451 19.346ZM3 16.0051C3 8.8341 8.8305 3 15.9972 3C25.0199 3 31.3294 12.0391 28.1913 20.5158C24.8288 22.1055 22.1057 24.8336 20.5213 28.2003C12.0524 31.3526 3 25.0471 3 16.0051ZM35.0029 48C27.8363 48 22.0058 42.166 22.0058 34.995C22.0058 27.8241 27.8363 21.9901 35.0029 21.9901C42.1695 21.9901 48 27.8241 48 34.995C48 42.166 42.1695 48 35.0029 48Z" fill="url(#paint1_linear)"/>
<path d="M40.1215 39.9692C38.0275 39.3045 35.8391 39.0933 33.6824 39.3381C33.9864 38.4056 34.2005 37.4486 34.3238 36.4772H36.1213C36.9497 36.4772 37.6213 35.8056 37.6213 34.9772C37.6213 34.1488 36.9497 33.4772 36.1213 33.4772H34.4136C34.3826 33.0029 34.3635 32.8676 34.2365 31.7089C34.0262 29.7886 36.4097 28.7617 37.6716 30.1848C38.2211 30.8046 39.1692 30.8619 39.7891 30.312C40.4089 29.7625 40.466 28.8144 39.9163 28.1945C36.7329 24.6037 30.7246 27.2072 31.2545 32.0359C31.3898 33.2704 31.3797 33.1597 31.4052 33.4771H30.3383C29.5099 33.4771 28.8383 34.1487 28.8383 34.9771C28.8383 35.8055 29.5099 36.4771 30.3383 36.4771H31.2929C31.0621 37.9371 30.5754 39.3517 29.8416 40.6686C29.1936 41.8315 30.2766 43.2041 31.5584 42.8426C34.0984 42.1276 36.4669 41.9562 39.2139 42.8284C40.0022 43.0788 40.8465 42.6433 41.0975 41.8526C41.3479 41.0631 40.911 40.2199 40.1215 39.9692Z" fill="url(#paint2_linear)"/>
<path d="M37.2499 4.71729C40.1892 4.71729 43.3131 6.93679 43.3131 11.0501V12.4625L41.9622 11.1109C41.3767 10.5249 40.4268 10.5249 39.8409 11.1103C39.255 11.6959 39.2547 12.6457 39.8403 13.2316L43.7521 17.1456C44.3323 17.7266 45.285 17.7351 45.8739 17.1456L49.7858 13.2316C50.3714 12.6457 50.3712 11.696 49.7852 11.1103C49.1993 10.5246 48.2495 10.5249 47.6639 11.1109L46.3129 12.4626V11.0501C46.3129 5.59299 42.1672 1.71729 37.2497 1.71729C36.4213 1.71729 35.7497 2.38889 35.7497 3.21729C35.7497 4.04569 36.4215 4.71729 37.2499 4.71729Z" fill="url(#paint3_linear)"/>
<path d="M13.7501 46.2828C10.8108 46.2828 7.68691 44.0633 7.68691 39.95V38.5375L9.03791 39.8892C9.62341 40.475 10.573 40.4756 11.1592 39.8898C11.7452 39.3042 11.7454 38.3544 11.1598 37.7685L7.24791 33.8544C6.66761 33.2729 5.71301 33.2662 5.12611 33.8544L1.21401 37.7686C0.628413 38.3545 0.628613 39.3042 1.21461 39.8899C1.80041 40.4755 2.75021 40.4753 3.33591 39.8893L4.68691 38.5376V39.95C4.68691 45.4072 8.83261 49.2828 13.7501 49.2828C14.5785 49.2828 15.2501 48.6112 15.2501 47.7828C15.2501 46.9544 14.5785 46.2828 13.7501 46.2828Z" fill="url(#paint4_linear)"/>
<defs>
<linearGradient id="paint0_linear" x1="3.99997" y1="16" x2="30.414" y2="14.4929" gradientUnits="userSpaceOnUse">
<stop stop-color="#EE581C"/>
<stop offset="1" stop-color="#F38F46"/>
</linearGradient>
<linearGradient id="paint1_linear" x1="6.5" y1="26" x2="48.1161" y2="22.0031" gradientUnits="userSpaceOnUse">
<stop stop-color="#EE581C"/>
<stop offset="1" stop-color="#F38F46"/>
</linearGradient>
<linearGradient id="paint2_linear" x1="16.5" y1="35" x2="40.4294" y2="33.1416" gradientUnits="userSpaceOnUse">
<stop stop-color="#EE581C"/>
<stop offset="1" stop-color="#F38F46"/>
</linearGradient>
<linearGradient id="paint3_linear" x1="18" y1="10" x2="49.2584" y2="7.06772" gradientUnits="userSpaceOnUse">
<stop stop-color="#EE581C"/>
<stop offset="1" stop-color="#F38F46"/>
</linearGradient>
<linearGradient id="paint4_linear" x1="2.61984" y1="41.5049" x2="22.3047" y2="39.2753" gradientUnits="userSpaceOnUse">
<stop stop-color="#EE581C"/>
<stop offset="1" stop-color="#F38F46"/>
</linearGradient>
</defs>
</svg>
