<svg width="56" height="40" viewBox="0 0 56 40" fill="none" xmlns="http://www.w3.org/2000/svg">
<path d="M55.9888 22.1367C55.9219 20.5858 54.4045 19.3473 51.47 18.4547C49.1939 17.7741 46.304 17.3612 43.1799 17.2943V5.38913C43.1688 5.1883 43.113 4.99862 43.0126 4.83125C42.7001 3.48118 41.1939 2.38774 38.5272 1.58439C36.0167 0.825673 32.7364 0.412842 29.2887 0.412842C25.8522 0.412842 22.6053 0.825673 20.1395 1.58439C18.1199 2.20922 15.6987 3.36961 15.6987 5.36682C15.6987 5.48955 15.7099 5.61228 15.7322 5.73502L15.855 10.8229C8.60251 9.43934 1.60669 14.2036 0.23431 21.4449C0.0781032 22.2706 0 23.0963 0 23.9331C0 31.2971 5.99163 37.2887 13.3556 37.2887C16.424 37.2887 19.3919 36.2399 21.7685 34.2985C23.855 34.7894 26.3096 35.0572 28.9093 35.0795C29.4784 38.1702 36.1729 39.5872 42.41 39.5872C45.8466 39.5872 49.0934 39.1632 51.5593 38.3933C53.5788 37.7685 56 36.597 56 34.5997V22.3487C56 22.2817 56 22.2036 55.9888 22.1367ZM40.848 11.5593C40.848 11.7043 40.3124 12.4742 37.8912 13.2106C35.6262 13.8912 32.4909 14.2929 29.2999 14.2929C26.5439 14.2929 23.8438 14.0028 21.7015 13.4561C21.6681 13.4449 21.6457 13.4449 21.6123 13.4338C20.5523 12.5969 19.3808 11.9275 18.1199 11.4589L18.0418 8.31242C18.8117 8.70294 19.6151 9.01535 20.4519 9.23851C22.8731 9.94143 26.0084 10.3208 29.2999 10.3208C32.7364 10.3208 36.0279 9.90796 38.5384 9.14925C39.3752 8.90378 40.1897 8.58021 40.9596 8.17853V11.1018C40.8368 11.258 40.848 11.4031 40.848 11.5593ZM20.8089 3.73781C23.0628 3.04604 26.0753 2.65552 29.2887 2.65552C32.4798 2.65552 35.6151 3.04604 37.8801 3.73781C40.3013 4.47421 40.8368 5.23293 40.8368 5.37798C40.8368 5.53418 40.2901 6.30406 37.8689 7.0293C35.6039 7.70991 32.4798 8.10043 29.2887 8.10043C26.2092 8.10043 23.2859 7.74339 21.0656 7.09625C18.6667 6.40448 17.9972 5.64576 17.9414 5.40029C17.9414 5.37797 17.9303 5.37798 17.9303 5.37798C17.9414 5.16598 18.4547 4.45189 20.8089 3.73781ZM20.8424 32.1674C16.3013 36.2957 9.26081 35.9721 5.1325 31.431C1.00418 26.8898 1.32775 19.8494 5.8689 15.7211C7.91074 13.8578 10.5886 12.8313 13.3556 12.8313C14.4714 12.8313 15.576 12.9986 16.6471 13.3222C20.5188 14.5272 23.431 17.7406 24.2566 21.7016C24.4017 22.438 24.4798 23.1967 24.4798 23.9442C24.4909 27.0795 23.1632 30.0586 20.8424 32.1674ZM23.6764 32.4128C24.5802 31.3082 25.3054 30.0698 25.8187 28.742C26.7671 28.8201 27.749 28.8759 28.7755 28.887V29.0879L28.8424 32.8703C27.113 32.848 25.3835 32.6918 23.6764 32.4128ZM26.6555 22.6165C27.3027 22.6611 27.9833 22.6834 28.675 22.6946L28.742 26.6444C27.9609 26.6332 27.1911 26.5997 26.4547 26.544C26.622 25.6848 26.7113 24.8034 26.7113 23.9331C26.7113 23.4979 26.689 23.0628 26.6555 22.6165ZM29.4003 20.4742C29.3668 20.4742 29.3222 20.4742 29.2887 20.4742C28.2176 20.4742 27.1799 20.4296 26.2204 20.3626C25.7964 18.8675 25.1269 17.4617 24.2232 16.212C25.8968 16.424 27.5816 16.5356 29.2775 16.5356C32.7252 16.5356 36.0167 16.1227 38.5272 15.364C39.364 15.1186 40.1674 14.795 40.9372 14.4045V17.3278C36.1506 17.4617 31.2301 18.4658 29.4003 20.4742ZM30.8731 22.2483C30.8731 22.2371 30.8731 22.226 30.8842 22.2036C30.9847 21.9024 31.7768 21.166 34.0865 20.5188C36.251 19.9052 39.0739 19.5704 42.0418 19.5704H42.2315C45.4226 19.5704 48.5467 19.9387 50.8229 20.6304C53.1994 21.3445 53.7573 22.0809 53.7685 22.2483V22.2594C53.7573 22.4268 53.1994 23.1967 50.7225 23.9331C48.4351 24.6137 45.4226 24.9819 42.2427 24.9819C39.1632 24.9819 36.2399 24.6248 34.0195 23.9889C31.6206 23.2971 30.9623 22.5272 30.8954 22.2929C30.8731 22.2483 30.8731 22.2483 30.8731 22.2483ZM50.9121 36.2734C48.6583 36.9763 45.6346 37.3668 42.4212 37.3668C39.1967 37.3668 36.1841 36.9875 33.9526 36.3069C31.5983 35.5816 31.1074 34.834 31.1074 34.6667C31.1074 34.6555 31.1074 34.6555 31.1074 34.6444L31.0516 31.4087C31.9442 31.8438 32.8703 32.1785 33.8298 32.424C36.1729 33.0377 39.152 33.3836 42.2092 33.3836C45.6569 33.3836 48.9261 32.9707 51.4254 32.212C52.2399 31.9665 53.0209 31.643 53.7685 31.2636V34.6109H53.7796C53.7796 34.7671 53.2664 35.537 50.9121 36.2734ZM53.7908 28.0614H53.7796C53.7796 28.173 53.7127 28.3069 53.7127 28.4296C53.7127 28.5858 53.1883 29.3445 50.7782 30.0809C48.4909 30.7727 45.4449 31.152 42.2204 31.152C36.0391 31.152 31.8773 29.7573 31.007 28.6751L30.9958 27.7378L30.9512 25.1716C31.7322 25.5621 32.5467 25.8745 33.3835 26.1088C35.8047 26.8117 38.94 27.1911 42.2315 27.1911C45.6234 27.1911 48.8591 26.7894 51.3473 26.053C52.1953 25.8187 53.0098 25.4951 53.7908 25.0935V28.0614Z" fill="url(#paint0_linear)"/>
<path d="M17.417 25.5176C16.9038 23.6989 15.2413 22.4493 13.3557 22.4493C12.2622 22.4493 11.3696 21.5678 11.3696 20.4744C11.3808 19.3698 12.2622 18.4883 13.3557 18.4883C14.4491 18.4883 15.3417 19.3809 15.3417 20.4744C15.3417 21.088 15.8438 21.5901 16.4575 21.5901C17.0711 21.5901 17.5732 21.088 17.5732 20.4744C17.5732 18.5887 16.3236 16.9263 14.5049 16.413V15.9109C14.5049 15.2973 14.0028 14.7952 13.3891 14.7952C12.7755 14.7952 12.2734 15.2973 12.2734 15.9109V16.3907C10.0307 16.9932 8.69178 19.3028 9.2943 21.5455C9.78523 23.3865 11.4477 24.6696 13.3557 24.6696C14.4491 24.6696 15.3417 25.5511 15.3417 26.6445C15.3417 27.738 14.4603 28.6306 13.3668 28.6306C12.2734 28.6306 11.3808 27.7491 11.3808 26.6557C11.3808 26.042 10.8787 25.5399 10.265 25.5399C9.65134 25.5399 9.14925 26.042 9.14925 26.6557C9.1604 28.5636 10.4324 30.2261 12.2734 30.7282V31.6989C12.2734 32.3126 12.7755 32.8147 13.3891 32.8147C14.0028 32.8147 14.5049 32.3126 14.5049 31.6989V30.717C16.7476 30.0811 18.053 27.7603 17.417 25.5176Z" fill="url(#paint1_linear)"/>
<defs>
<linearGradient id="paint0_linear" x1="7.13725" y1="20.3841" x2="52.4017" y2="14.1695" gradientUnits="userSpaceOnUse">
<stop stop-color="#EE581C"/>
<stop offset="1" stop-color="#F38F46"/>
</linearGradient>
<linearGradient id="paint1_linear" x1="10.2235" y1="23.9816" x2="40.9389" y2="22.6201" gradientUnits="userSpaceOnUse">
<stop stop-color="#EE581C"/>
<stop offset="1" stop-color="#F38F46"/>
</linearGradient>
</defs>
</svg>
