<svg width="56" height="50" viewBox="0 0 56 50" fill="none" xmlns="http://www.w3.org/2000/svg">
<path d="M7.87378 1.5H48.1262C51.6202 1.5 54.5 4.39353 54.5 8.02305V31.5558C54.5 35.1853 51.6202 38.0788 48.1262 38.0788H43.3183H42.6887L42.2477 38.5282L32.9681 47.9842V39.5793V38.0793H31.4681H7.87378C4.38033 38.0793 1.5 35.1853 1.5 31.5563V8.02305C1.5 4.3936 4.38027 1.5 7.87378 1.5Z" stroke="url(#paint0_linear)" stroke-width="3"/>
<path d="M12.0252 13.0688H12.1522C12.7955 13.0688 13.3168 13.6001 13.3168 14.255V23.9705H17.6656C18.3084 23.9705 18.8297 24.5018 18.8297 25.1567C18.8297 25.8122 18.3084 26.3434 17.6656 26.3434H12.0466C11.3916 26.3434 10.8606 25.8023 10.8606 25.1349V14.255C10.8606 13.6001 11.3819 13.0688 12.0252 13.0688Z" fill="url(#paint1_linear)"/>
<path d="M21.6757 13.0688H21.8033C22.446 13.0688 22.9674 13.6001 22.9674 14.255V25.1567C22.9674 25.8122 22.446 26.3434 21.8033 26.3434H21.6757C21.0325 26.3434 20.5111 25.8122 20.5111 25.1567V14.255C20.5111 13.6001 21.0325 13.0688 21.6757 13.0688Z" fill="url(#paint2_linear)"/>
<path d="M25.6103 13.0689H25.7894C26.2867 13.0689 26.729 13.3906 26.8907 13.8699L29.3133 21.0597L29.7867 22.7652H29.9321L30.4417 21.0597L32.9679 13.8559C33.1331 13.3834 33.5724 13.0684 34.0641 13.0684H34.2365C35.0446 13.0684 35.6072 13.8876 35.3302 14.6615L31.5915 25.1131C31.3268 25.8517 30.6376 26.3429 29.8663 26.3429C29.0878 26.3429 28.3941 25.8434 28.1349 25.0954L24.5125 14.6501C24.2447 13.8787 24.8069 13.0689 25.6103 13.0689Z" fill="url(#paint3_linear)"/>
<path d="M39.3353 15.4417V18.5194H43.3928C44.0355 18.5194 44.5569 19.0507 44.5569 19.7061C44.5569 20.3616 44.0355 20.8928 43.3928 20.8928H39.3353V23.97H43.9748C44.6181 23.97 45.1395 24.5012 45.1395 25.1567C45.1395 25.8116 44.6181 26.3429 43.9748 26.3429H38.0645C37.41 26.3429 36.879 25.8018 36.879 25.1349V14.2769C36.879 13.61 37.41 13.0688 38.0645 13.0688H43.9748C44.6181 13.0688 45.1395 13.6001 45.1395 14.255C45.1395 14.9105 44.6181 15.4417 43.9748 15.4417H39.3353Z" fill="url(#paint4_linear)"/>
<defs>
<linearGradient id="paint0_linear" x1="7.13725" y1="25.2549" x2="52.7176" y2="20.3062" gradientUnits="userSpaceOnUse">
<stop stop-color="#EE581C"/>
<stop offset="1" stop-color="#F38F46"/>
</linearGradient>
<linearGradient id="paint1_linear" x1="8.49997" y1="20" x2="25.942" y2="18.9943" gradientUnits="userSpaceOnUse">
<stop stop-color="#EE581C"/>
<stop offset="1" stop-color="#F38F46"/>
</linearGradient>
<linearGradient id="paint2_linear" x1="19.5" y1="20" x2="25.4981" y2="19.8934" gradientUnits="userSpaceOnUse">
<stop stop-color="#EE581C"/>
<stop offset="1" stop-color="#F38F46"/>
</linearGradient>
<linearGradient id="paint3_linear" x1="13.5" y1="20" x2="39.3376" y2="17.9518" gradientUnits="userSpaceOnUse">
<stop stop-color="#EE581C"/>
<stop offset="1" stop-color="#F38F46"/>
</linearGradient>
<linearGradient id="paint4_linear" x1="12.5" y1="20" x2="44.61" y2="17.9169" gradientUnits="userSpaceOnUse">
<stop stop-color="#EE581C"/>
<stop offset="1" stop-color="#F38F46"/>
</linearGradient>
</defs>
</svg>
