<svg width="51" height="51" viewBox="0 0 51 51" fill="none" xmlns="http://www.w3.org/2000/svg">
<path d="M36.0672 45.9673C35.3083 45.086 33.0317 44.5842 31.979 43.6213C29.7473 41.5813 26.7913 39.168 26.0447 38.6927C25.192 38.1521 26.773 36.6629 28.103 37.5136C28.9986 38.0623 32.0158 40.241 32.0158 39.7208C32.0158 39.1966 31.5914 37.8094 30.8978 35.7367C30.7122 35.3267 28.0133 28.5233 27.4727 27.4441C26.9362 26.3752 28.3315 25.5796 29.0272 26.467C29.7208 27.3564 32.6645 34.4005 33.3479 33.9068C33.811 33.5702 32.2687 30.6347 30.2838 24.7064C29.937 23.6722 31.773 22.8664 32.232 24.1189C34.5188 29.4739 35.5286 32.9623 36.1835 32.7257C36.8363 32.489 35.6572 29.4474 34.6025 24.329C34.3699 23.1989 36.0856 22.7154 36.3814 23.7803C38.0358 29.7208 38.7743 33.1337 39.3577 33.046C39.9412 32.9582 39.066 30.4592 38.5438 26.9708C38.5356 26.0182 39.7188 25.804 40.0228 26.8627C40.5368 29.0129 41.6996 33.2357 41.9261 34.4474C42.1505 35.6592 42.6646 38.6947 42.7972 40.0554C42.9298 41.4161 42.5646 43.0603 42.6401 43.9457C42.6442 43.9946 42.6768 44.113 42.7339 44.2966C47.8115 39.6372 51 32.9399 51 25.5C51 21.4302 50.0453 17.5848 48.35 14.1719C46.9526 14.5717 46.0652 14.8492 45.9673 14.9328C45.086 15.6917 44.5842 17.9683 43.6213 19.021C41.5813 21.2527 39.168 24.2087 38.6927 24.9553C38.1521 25.808 36.6629 24.227 37.5136 22.897C38.0623 22.0014 40.241 18.9842 39.7208 18.9842C39.1966 18.9842 37.8094 19.4086 35.7367 20.1022C35.3267 20.2878 28.5233 22.9867 27.4441 23.5273C26.3752 24.0638 25.5796 22.6685 26.467 21.9728C27.3564 21.2792 34.4005 18.3355 33.9068 17.6521C33.5702 17.189 30.6347 18.7313 24.7064 20.7162C23.6722 21.063 22.8664 19.227 24.1189 18.768C29.4739 16.4812 32.9623 15.4714 32.7257 14.8165C32.489 14.1637 29.4474 15.3428 24.329 16.3975C23.1989 16.6301 22.7154 14.9144 23.7803 14.6186C29.7208 12.9642 33.1337 12.2257 33.046 11.6423C32.9582 11.0588 30.4592 11.934 26.9708 12.4562C26.0182 12.4644 25.804 11.2812 26.8627 10.9772C29.0129 10.4632 33.2357 9.30036 34.4474 9.07392C35.6592 8.84952 38.6947 8.33544 40.0554 8.20284C41.4161 8.07024 43.0603 8.4354 43.9457 8.35992C43.9946 8.35584 44.113 8.3232 44.2966 8.26608C39.6372 3.18852 32.9399 0 25.5 0C21.4302 0 17.5848 0.95472 14.1719 2.64996C14.5717 4.04736 14.8492 4.93476 14.9328 5.03268C15.6917 5.91396 17.9683 6.4158 19.021 7.37868C21.2527 9.41868 24.2087 11.832 24.9553 12.3073C25.808 12.8479 24.227 14.3371 22.897 13.4864C22.0014 12.9377 18.9842 10.759 18.9842 11.2792C18.9842 11.8034 19.4086 13.1906 20.1022 15.2633C20.2878 15.6733 22.9867 22.4767 23.5273 23.5559C24.0638 24.6248 22.6685 25.4204 21.9728 24.533C21.2792 23.6436 18.3355 16.5995 17.6521 17.0932C17.189 17.4277 18.7313 20.3653 20.7162 26.2936C21.063 27.3278 19.227 28.1336 18.768 26.8811C16.4832 21.524 15.4734 18.0336 14.8186 18.2702C14.1658 18.5069 15.3449 21.5485 16.3996 26.6669C16.6321 27.797 14.9165 28.2805 14.6207 27.2177C12.9662 21.2772 12.2298 17.8643 11.6464 17.952C11.0629 18.0397 11.9381 20.5387 12.4603 24.0271C12.4685 24.9798 11.2853 25.194 10.9813 24.1352C10.4672 21.9851 9.30444 17.7623 9.078 16.5505C8.8536 15.3388 8.33952 12.3032 8.20692 10.9426C8.07432 9.58188 8.43948 7.93764 8.364 7.05228C8.35992 7.00332 8.32728 6.885 8.27016 6.7014C3.18852 11.3628 0 18.0601 0 25.5C0 29.5698 0.95472 33.4152 2.64996 36.8281C4.04736 36.4283 4.93476 36.1508 5.03268 36.0672C5.91396 35.3083 6.4158 33.0317 7.37868 31.979C9.41868 29.7473 11.832 26.7913 12.3073 26.0447C12.8479 25.192 14.3371 26.773 13.4864 28.103C12.9377 28.9986 10.759 32.0158 11.2792 32.0158C11.8034 32.0158 13.1906 31.5914 15.2633 30.8978C15.6733 30.7122 22.4767 28.0133 23.5559 27.4727C24.6248 26.9362 25.4204 28.3315 24.533 29.0272C23.6436 29.7208 16.5995 32.6645 17.0932 33.3479C17.4277 33.811 20.3653 32.2687 26.2936 30.2838C27.3278 29.937 28.1336 31.773 26.8811 32.232C21.5261 34.5188 18.0377 35.5286 18.2743 36.1835C18.511 36.8363 21.5526 35.6572 26.671 34.6025C27.8011 34.3699 28.2846 36.0856 27.2197 36.3814C21.2792 38.0358 17.8663 38.7743 17.954 39.3577C18.0418 39.9412 20.5408 39.066 24.0292 38.5438C24.9818 38.5356 25.196 39.7188 24.1373 40.0228C21.9871 40.5368 17.7643 41.6996 16.5526 41.9261C15.3408 42.1505 12.3053 42.6646 10.9446 42.7972C9.58392 42.9298 7.93968 42.5646 7.05432 42.6401C7.00536 42.6442 6.88704 42.6768 6.70344 42.7339C11.3628 47.8115 18.0601 51 25.5 51C29.5698 51 33.4152 50.0453 36.8281 48.35C36.4283 46.9526 36.1508 46.0632 36.0672 45.9673Z" fill="url(#paint0_linear)"/>
<defs>
<linearGradient id="paint0_linear" x1="6.5" y1="26" x2="48.1161" y2="22.0031" gradientUnits="userSpaceOnUse">
<stop stop-color="#EE581C"/>
<stop offset="1" stop-color="#F38F46"/>
</linearGradient>
</defs>
</svg>
