<svg width="49" height="51" viewBox="0 0 49 51" fill="none" xmlns="http://www.w3.org/2000/svg">
<path d="M38.8583 13.0732L47.5928 13.7095L48.2291 4.97518L45.2358 4.75714L44.9855 8.19355C40.1905 3.00581 33.4386 0 26.271 0C12.2102 0 0.771057 11.4393 0.771057 25.5C0.771057 39.5606 12.2104 50.9999 26.2711 50.9999C34.7735 50.9999 42.6912 46.7706 47.4509 39.6864L44.9597 38.0127C40.7586 44.2656 33.7722 47.9987 26.2711 47.9987C13.8652 47.9988 3.77228 37.9058 3.77228 25.5C3.77228 13.0941 13.8651 3.00122 26.271 3.00122C32.651 3.00122 38.6575 5.70322 42.8958 10.3581L39.0764 10.0799L38.8583 13.0732Z" fill="url(#paint0_linear)"/>
<path d="M13.7458 28.3186C13.7458 27.3538 14.7107 26.7277 16.0816 26.0336C17.6556 25.2381 18.7558 24.3241 18.7558 22.3606C18.7558 20.0417 17.2662 18.603 14.592 18.603C12.2901 18.603 10.5806 19.7032 9.83581 20.5495L11.5115 22.3438C12.1207 21.7175 13.1365 21.0066 14.2197 21.0066C15.0997 21.0066 15.6753 21.4805 15.6753 22.3946C15.6753 23.8163 14.2704 24.4256 12.8317 25.0688C10.3944 26.169 9.80194 27.6246 9.80194 30.756H18.7728V28.3186H13.7458Z" fill="url(#paint1_linear)"/>
<path d="M27.4388 25.7963V18.7212H25.577L19.9913 25.7963V28.2167H24.7306V30.7388H27.4388V28.2167H28.9284V25.7963H27.4388ZM25.0353 25.7962H22.6826L25.0353 22.7834V25.7962Z" fill="url(#paint2_linear)"/>
<path d="M36.2572 21.7005C34.9539 21.7005 33.8199 22.3098 33.1766 23.3593V18.3999H30.4684V30.756H33.1766V25.6613C33.5153 24.7134 34.4124 24.0872 35.0554 24.0872C35.8341 24.0872 36.3418 24.6119 36.3418 25.7629V30.7561H39.0501V25.0689C39.05 23.5286 38.6437 21.7005 36.2572 21.7005Z" fill="url(#paint3_linear)"/>
<defs>
<linearGradient id="paint0_linear" x1="6.81962" y1="26" x2="45.593" y2="22.5347" gradientUnits="userSpaceOnUse">
<stop stop-color="#EE581C"/>
<stop offset="1" stop-color="#F38F46"/>
</linearGradient>
<linearGradient id="paint1_linear" x1="10.9453" y1="24.7986" x2="42.3564" y2="22.7731" gradientUnits="userSpaceOnUse">
<stop stop-color="#EE581C"/>
<stop offset="1" stop-color="#F38F46"/>
</linearGradient>
<linearGradient id="paint2_linear" x1="20" y1="25" x2="30.9442" y2="24.2183" gradientUnits="userSpaceOnUse">
<stop stop-color="#EE581C"/>
<stop offset="1" stop-color="#F38F46"/>
</linearGradient>
<linearGradient id="paint3_linear" x1="12.5" y1="25" x2="38.4937" y2="22.9653" gradientUnits="userSpaceOnUse">
<stop stop-color="#EE581C"/>
<stop offset="1" stop-color="#F38F46"/>
</linearGradient>
</defs>
</svg>
