<svg width="45" height="51" viewBox="0 0 45 51" fill="none" xmlns="http://www.w3.org/2000/svg">
<path d="M44.1638 13.8376L44.1623 13.7979C44.1401 13.308 44.1253 12.7898 44.1163 12.2131C44.0747 9.4011 41.8393 7.07507 39.0269 6.91787C33.1632 6.59064 28.6271 4.67861 24.7513 0.900859L24.7182 0.869342C23.4541 -0.289781 21.5471 -0.289781 20.2825 0.869342L20.2495 0.900859C16.3736 4.67861 11.8375 6.59064 5.97384 6.91826C3.16182 7.07507 0.926068 9.4011 0.884434 12.2135C0.875874 12.7862 0.860699 13.3045 0.838521 13.7979L0.836186 13.8901C0.722181 19.8694 0.580549 27.3109 3.07 34.0652C4.43884 37.7796 6.51196 41.0083 9.23137 43.6623C12.3286 46.6849 16.3853 49.0844 21.2887 50.7941C21.4483 50.8498 21.614 50.8949 21.7829 50.9288C22.021 50.9762 22.2607 51 22.5004 51C22.7401 51 22.9801 50.9762 23.2179 50.9288C23.3868 50.8949 23.5537 50.8494 23.714 50.7933C28.6116 49.0805 32.664 46.6798 35.7585 43.6577C38.4767 41.0029 40.5499 37.7733 41.9199 34.0582C44.4187 27.2837 44.2774 19.8281 44.1638 13.8376ZM39.1121 33.0229C36.4865 40.1418 31.1267 45.0308 22.7265 47.9685C22.6965 47.9786 22.6646 47.9876 22.6315 47.9942C22.5447 48.0113 22.4564 48.0113 22.3685 47.9938C22.3358 47.9872 22.3039 47.9786 22.2743 47.9685C13.8651 45.0363 8.50181 40.15 5.87812 33.0306C3.58361 26.8047 3.71357 19.9737 3.82835 13.9473L3.82913 13.9139C3.85247 13.396 3.86804 12.8536 3.8766 12.2575C3.89527 11.0088 4.88981 9.97579 6.14076 9.90614C9.45899 9.72093 12.3741 9.0797 15.0527 7.94587C17.7277 6.81359 20.1035 5.21751 22.3152 3.06658C22.4276 2.97164 22.5735 2.97125 22.6856 3.06658C24.8976 5.21751 27.2735 6.81359 29.9481 7.94587C32.6267 9.0797 35.5418 9.72093 38.8604 9.90614C40.1114 9.97579 41.1059 11.0088 41.1242 12.2579C41.1331 12.8571 41.1487 13.3995 41.172 13.9139C41.2864 19.9472 41.4133 26.7837 39.1121 33.0229Z" fill="url(#paint0_linear)"/>
<path d="M22.4997 12.791C15.4912 12.791 9.78975 18.4929 9.78975 25.5009C9.78975 32.5094 15.4912 38.2113 22.4997 38.2113C29.5077 38.2113 35.2096 32.5094 35.2096 25.5009C35.2096 18.4929 29.5077 12.791 22.4997 12.791ZM22.4997 35.2183C17.1414 35.2183 12.7823 30.8592 12.7823 25.5009C12.7823 20.1427 17.1414 15.7836 22.4997 15.7836C27.8576 15.7836 32.2166 20.1427 32.2166 25.5009C32.2166 30.8592 27.8576 35.2183 22.4997 35.2183Z" fill="url(#paint1_linear)"/>
<path d="M26.1525 21.5551L20.2491 27.4585L18.6468 25.8562C18.0624 25.2717 17.1149 25.2717 16.5305 25.8562C15.9465 26.4406 15.9465 27.3881 16.5305 27.9721L19.1912 30.6327C19.4834 30.925 19.8662 31.0709 20.2491 31.0709C20.632 31.0709 21.0149 30.925 21.3071 30.6327L28.2688 23.671C28.8529 23.0866 28.8529 22.1391 28.2688 21.5551C27.6844 20.9703 26.737 20.9703 26.1525 21.5551Z" fill="url(#paint2_linear)"/>
<defs>
<linearGradient id="paint0_linear" x1="6.32032" y1="26" x2="41.8479" y2="23.0943" gradientUnits="userSpaceOnUse">
<stop stop-color="#EE581C"/>
<stop offset="1" stop-color="#F38F46"/>
</linearGradient>
<linearGradient id="paint1_linear" x1="13.0295" y1="25.7504" x2="33.7722" y2="23.7582" gradientUnits="userSpaceOnUse">
<stop stop-color="#EE581C"/>
<stop offset="1" stop-color="#F38F46"/>
</linearGradient>
<linearGradient id="paint2_linear" x1="17.7002" y1="26.1913" x2="27.9369" y2="24.9454" gradientUnits="userSpaceOnUse">
<stop stop-color="#EE581C"/>
<stop offset="1" stop-color="#F38F46"/>
</linearGradient>
</defs>
</svg>
