<svg width="26" height="26" viewBox="0 0 26 26" fill="none" xmlns="http://www.w3.org/2000/svg">
<g clip-path="url(#clip0)" filter="url(#filter0_d)">
<path d="M19.34 10.6976C19.3091 9.99753 19.1959 9.51621 19.0337 9.09913C18.8664 8.65642 18.609 8.26006 18.2718 7.93056C17.9423 7.59594 17.5433 7.33592 17.1057 7.17122C16.6862 7.00904 16.2074 6.89582 15.5073 6.86496C14.802 6.83147 14.578 6.82373 12.7891 6.82373C11.0001 6.82373 10.7762 6.83147 10.0735 6.86234C9.37338 6.89321 8.89206 7.00653 8.47509 7.16861C8.03227 7.33592 7.63591 7.59333 7.30642 7.93056C6.97179 8.26006 6.71188 8.65904 6.54708 9.09662C6.38489 9.51621 6.27168 9.99492 6.24081 10.695C6.20733 11.4004 6.19958 11.6243 6.19958 13.4133C6.19958 15.2022 6.20733 15.4261 6.2382 16.1289C6.26906 16.829 6.38238 17.3103 6.54456 17.7274C6.71188 18.1701 6.97179 18.5664 7.30642 18.8959C7.63591 19.2306 8.03489 19.4906 8.47247 19.6553C8.89206 19.8175 9.37077 19.9307 10.071 19.9616C10.7736 19.9925 10.9976 20.0002 12.7866 20.0002C14.5755 20.0002 14.7995 19.9925 15.5022 19.9616C16.2023 19.9307 16.6836 19.8175 17.1006 19.6553C17.9861 19.3129 18.6862 18.6128 19.0286 17.7274C19.1907 17.3078 19.304 16.829 19.3349 16.1289C19.3657 15.4261 19.3735 15.2022 19.3735 13.4133C19.3735 11.6243 19.3709 11.4004 19.34 10.6976ZM18.1534 16.0774C18.1251 16.7209 18.017 17.0684 17.9269 17.3C17.7055 17.8741 17.2499 18.3297 16.6759 18.5511C16.4442 18.6412 16.0942 18.7492 15.4532 18.7775C14.7582 18.8085 14.5498 18.8161 12.7917 18.8161C11.0336 18.8161 10.8226 18.8085 10.1301 18.7775C9.4866 18.7492 9.1391 18.6412 8.90744 18.5511C8.62178 18.4455 8.36177 18.2782 8.15072 18.0594C7.93193 17.8457 7.76461 17.5883 7.65904 17.3027C7.56895 17.071 7.46086 16.7209 7.4326 16.08C7.40164 15.385 7.39399 15.1765 7.39399 13.4184C7.39399 11.6603 7.40164 11.4492 7.4326 10.7569C7.46086 10.1134 7.56895 9.76587 7.65904 9.53421C7.76461 9.24845 7.93193 8.98853 8.15333 8.77738C8.3669 8.55859 8.6243 8.39128 8.91006 8.2858C9.14172 8.19571 9.49183 8.08762 10.1327 8.05927C10.8277 8.0284 11.0362 8.02066 12.7942 8.02066C14.5549 8.02066 14.7634 8.0284 15.4558 8.05927C16.0993 8.08762 16.4468 8.19571 16.6785 8.2858C16.9641 8.39128 17.2242 8.55859 17.4352 8.77738C17.654 8.99105 17.8213 9.24845 17.9269 9.53421C18.017 9.76587 18.1251 10.1159 18.1534 10.7569C18.1843 11.4519 18.192 11.6603 18.192 13.4184C18.192 15.1765 18.1843 15.3824 18.1534 16.0774Z" fill="black"/>
<path d="M12.7891 10.0284C10.9205 10.0284 9.4043 11.5445 9.4043 13.4133C9.4043 15.2821 10.9205 16.7981 12.7891 16.7981C14.6579 16.7981 16.174 15.2821 16.174 13.4133C16.174 11.5445 14.6579 10.0284 12.7891 10.0284ZM12.7891 15.609C11.5768 15.609 10.5935 14.6257 10.5935 13.4133C10.5935 12.2009 11.5768 11.2176 12.7891 11.2176C14.0016 11.2176 14.9848 12.2009 14.9848 13.4133C14.9848 14.6257 14.0016 15.609 12.7891 15.609Z" fill="black"/>
<path d="M17.0981 9.89452C17.0981 10.3309 16.7443 10.6847 16.3078 10.6847C15.8714 10.6847 15.5176 10.3309 15.5176 9.89452C15.5176 9.45804 15.8714 9.10431 16.3078 9.10431C16.7443 9.10431 17.0981 9.45804 17.0981 9.89452Z" fill="black"/>
</g>
<defs>
<filter id="filter0_d" x="0.176453" y="0.82373" width="25.1765" height="25.1765" filterUnits="userSpaceOnUse" color-interpolation-filters="sRGB">
<feFlood flood-opacity="0" result="BackgroundImageFix"/>
<feColorMatrix in="SourceAlpha" type="matrix" values="0 0 0 0 0 0 0 0 0 0 0 0 0 0 0 0 0 0 127 0"/>
<feOffset/>
<feGaussianBlur stdDeviation="3"/>
<feColorMatrix type="matrix" values="0 0 0 0 1 0 0 0 0 1 0 0 0 0 1 0 0 0 0.66 0"/>
<feBlend mode="normal" in2="BackgroundImageFix" result="effect1_dropShadow"/>
<feBlend mode="normal" in="SourceGraphic" in2="effect1_dropShadow" result="shape"/>
</filter>
<clipPath id="clip0">
<rect width="13.1765" height="13.1765" fill="white" transform="translate(6.17645 6.82373)"/>
</clipPath>
</defs>
</svg>
