<svg width="21" height="21" viewBox="0 0 21 21" fill="none" xmlns="http://www.w3.org/2000/svg">
<path d="M20.9845 4.52408C20.9845 4.50008 21.001 4.47672 20.9999 4.453L14.5914 10.6279L20.9923 16.6056C20.996 16.5629 20.9845 16.5198 20.9845 16.4762V4.52408Z" fill="url(#paint0_linear)"/>
<path d="M13.6132 11.5782L10.9971 14.0952C10.8647 14.2226 10.6937 14.2864 10.5226 14.2864C10.3551 14.2864 10.1876 14.2253 10.0561 14.1028L7.44712 11.6716L1.00452 17.8815C1.16117 17.9378 1.32932 17.9815 1.50541 17.9815H19.5399C19.8014 17.9815 20.0467 17.9019 20.2599 17.7831L13.6132 11.5782Z" fill="url(#paint1_linear)"/>
<path d="M10.5151 12.6598L20.2954 3.23859C20.0739 3.10693 19.8162 3.01862 19.5399 3.01862H1.50539C1.14565 3.01862 0.816006 3.1583 0.559265 3.37134L10.5151 12.6598Z" fill="url(#paint2_linear)"/>
<path d="M0 4.75359V16.4761C0 16.6106 0.0309293 16.7404 0.0645045 16.8644L6.42718 10.7373L0 4.75359Z" fill="url(#paint3_linear)"/>
<defs>
<linearGradient id="paint0_linear" x1="15.4082" y1="10.6484" x2="20.6723" y2="10.3818" gradientUnits="userSpaceOnUse">
<stop stop-color="#EE581C"/>
<stop offset="1" stop-color="#F38F46"/>
</linearGradient>
<linearGradient id="paint1_linear" x1="3.45863" y1="14.8426" x2="18.0952" y2="10.6155" gradientUnits="userSpaceOnUse">
<stop stop-color="#EE581C"/>
<stop offset="1" stop-color="#F38F46"/>
</linearGradient>
<linearGradient id="paint2_linear" x1="3.07465" y1="7.93374" x2="18.723" y2="4.85717" gradientUnits="userSpaceOnUse">
<stop stop-color="#EE581C"/>
<stop offset="1" stop-color="#F38F46"/>
</linearGradient>
<linearGradient id="paint3_linear" x1="0.819151" y1="10.9277" x2="6.09841" y2="10.6586" gradientUnits="userSpaceOnUse">
<stop stop-color="#EE581C"/>
<stop offset="1" stop-color="#F38F46"/>
</linearGradient>
</defs>
</svg>
