<svg width="20" height="22" viewBox="0 0 20 22" fill="none" xmlns="http://www.w3.org/2000/svg">
<path d="M10 6.14136C8.44958 6.14136 7.18823 7.40275 7.18823 8.95315C7.18823 10.5035 8.44958 11.7649 10 11.7649C11.5505 11.7649 12.8118 10.5035 12.8118 8.95315C12.8118 7.40275 11.5504 6.14136 10 6.14136Z" fill="url(#paint0_linear)"/>
<path d="M16.5795 2.72534C14.8221 0.967871 12.4854 0 10 0C7.51462 0 5.17793 0.967871 3.42051 2.72534C1.663 4.48284 0.695129 6.81948 0.695129 9.30484C0.695129 14.3327 5.4492 18.5147 8.00326 20.7614C8.35814 21.0736 8.66464 21.3432 8.90874 21.5712C9.21472 21.8571 9.60728 22 9.99998 22C10.3926 22 10.7853 21.857 11.0912 21.5713C11.3354 21.3432 11.6419 21.0736 11.9967 20.7614C14.5508 18.5147 19.3049 14.3328 19.3049 9.30488C19.3049 6.81948 18.337 4.48284 16.5795 2.72534ZM10 13.0538C7.73896 13.0538 5.89951 11.2143 5.89951 8.95327C5.89951 6.69221 7.73896 4.85276 10 4.85276C12.2611 4.85276 14.1005 6.69221 14.1005 8.95327C14.1005 11.2143 12.261 13.0538 10 13.0538Z" fill="url(#paint1_linear)"/>
<defs>
<linearGradient id="paint0_linear" x1="7.90496" y1="9.00828" x2="12.4938" y2="8.56755" gradientUnits="userSpaceOnUse">
<stop stop-color="#EE581C"/>
<stop offset="1" stop-color="#F38F46"/>
</linearGradient>
<linearGradient id="paint1_linear" x1="3.06696" y1="11.2157" x2="18.2921" y2="9.97876" gradientUnits="userSpaceOnUse">
<stop stop-color="#EE581C"/>
<stop offset="1" stop-color="#F38F46"/>
</linearGradient>
</defs>
</svg>
