<svg width="58" height="19" viewBox="0 0 58 19" fill="none" xmlns="http://www.w3.org/2000/svg">
<path d="M11.6 4.24434V15.4443H9.472L3.888 8.64434V15.4443H1.328V4.24434H3.472L9.04 11.0443V4.24434H11.6ZM23.0659 11.1723C23.0659 11.2043 23.0499 11.4283 23.0179 11.8443H16.5059C16.6232 12.3777 16.9005 12.799 17.3379 13.1083C17.7752 13.4177 18.3192 13.5723 18.9699 13.5723C19.4179 13.5723 19.8125 13.5083 20.1539 13.3803C20.5059 13.2417 20.8312 13.0283 21.1299 12.7403L22.4579 14.1803C21.6472 15.1083 20.4632 15.5723 18.9059 15.5723C17.9352 15.5723 17.0765 15.3857 16.3299 15.0123C15.5832 14.6283 15.0072 14.1003 14.6019 13.4283C14.1965 12.7563 13.9939 11.9937 13.9939 11.1403C13.9939 10.2977 14.1912 9.54034 14.5859 8.86834C14.9912 8.18567 15.5405 7.65767 16.2339 7.28434C16.9379 6.90034 17.7219 6.70834 18.5859 6.70834C19.4285 6.70834 20.1912 6.88967 20.8739 7.25234C21.5565 7.615 22.0899 8.13767 22.4739 8.82034C22.8685 9.49234 23.0659 10.2763 23.0659 11.1723ZM18.6019 8.59634C18.0365 8.59634 17.5619 8.75634 17.1779 9.07634C16.7939 9.39634 16.5592 9.83367 16.4739 10.3883H20.7139C20.6285 9.84434 20.3939 9.41234 20.0099 9.09234C19.6259 8.76167 19.1565 8.59634 18.6019 8.59634ZM30.5253 15.4443L28.6373 12.8043L26.6853 15.4443H23.9653L27.2773 11.1083L24.0773 6.83634H26.8773L28.7013 9.34834L30.5733 6.83634H33.2293L30.0293 11.0443L33.3573 15.4443H30.5253ZM40.6809 15.0283C40.4355 15.2097 40.1315 15.3483 39.7689 15.4443C39.4169 15.5297 39.0435 15.5723 38.6489 15.5723C37.6249 15.5723 36.8302 15.311 36.2649 14.7883C35.7102 14.2657 35.4329 13.4977 35.4329 12.4843V8.94834H34.1049V7.02834H35.4329V4.93234H37.9289V7.02834H40.0729V8.94834H37.9289V12.4523C37.9289 12.815 38.0195 13.0977 38.2009 13.3003C38.3929 13.4923 38.6595 13.5883 39.0009 13.5883C39.3955 13.5883 39.7315 13.4817 40.0089 13.2683L40.6809 15.0283Z" fill="#CDCDCD"/>
<path d="M52 5.44434L57 10.4443L52 15.4443" stroke="#CDCDCD" stroke-width="2" stroke-linecap="round" stroke-linejoin="round"/>
</svg>
