<svg width="58" height="19" viewBox="0 0 58 19" fill="none" xmlns="http://www.w3.org/2000/svg">
<path d="M9.04 4.24434V11.0443L3.472 4.24434H1.328V15.4443H3.888V8.64434L9.472 15.4443H11.6V4.24434H9.04ZM23.0659 11.1723C23.0659 8.40434 21.1139 6.70834 18.5859 6.70834C15.9619 6.70834 13.9939 8.56434 13.9939 11.1403C13.9939 13.7003 15.9299 15.5723 18.9059 15.5723C20.4579 15.5723 21.6579 15.0923 22.4579 14.1803L21.1299 12.7403C20.5379 13.3003 19.8819 13.5723 18.9699 13.5723C17.6579 13.5723 16.7459 12.9163 16.5059 11.8443H23.0179C23.0339 11.6363 23.0659 11.3643 23.0659 11.1723ZM18.6019 8.59634C19.7219 8.59634 20.5379 9.30034 20.7139 10.3883H16.4739C16.6499 9.28434 17.4659 8.59634 18.6019 8.59634ZM33.3573 15.4443L30.0293 11.0443L33.2293 6.83634H30.5733L28.7013 9.34834L26.8773 6.83634H24.0773L27.2773 11.1083L23.9653 15.4443H26.6853L28.6373 12.8043L30.5253 15.4443H33.3573ZM40.0089 13.2683C39.7369 13.4763 39.3689 13.5883 39.0009 13.5883C38.3289 13.5883 37.9289 13.1883 37.9289 12.4523V8.94834H40.0729V7.02834H37.9289V4.93234H35.4329V7.02834H34.1049V8.94834H35.4329V12.4843C35.4329 14.5323 36.6169 15.5723 38.6489 15.5723C39.4169 15.5723 40.1689 15.3963 40.6809 15.0283L40.0089 13.2683Z" fill="black"/>
<path d="M52 5.44434L57 10.4443L52 15.4443" stroke="black" stroke-width="2" stroke-linecap="round" stroke-linejoin="round"/>
</svg>
