<svg width="94" height="19" viewBox="0 0 94 19" fill="none" xmlns="http://www.w3.org/2000/svg">
<path d="M23.176 4.24434H18.328V15.4443H20.92V12.3563H23.176C26.168 12.3563 28.04 10.8043 28.04 8.30834C28.04 5.79634 26.168 4.24434 23.176 4.24434ZM23.032 10.2443H20.92V6.35634H23.032C24.616 6.35634 25.416 7.07634 25.416 8.30834C25.416 9.52434 24.616 10.2443 23.032 10.2443ZM32.6585 7.97234V6.83634H30.2745V15.4443H32.7705V11.3803C32.7705 9.73234 33.6825 8.98034 35.0585 8.98034C35.2505 8.98034 35.4105 8.99634 35.6185 9.01234V6.70834C34.2905 6.70834 33.2665 7.14034 32.6585 7.97234ZM46.0165 11.1723C46.0165 8.40434 44.0645 6.70834 41.5365 6.70834C38.9125 6.70834 36.9445 8.56434 36.9445 11.1403C36.9445 13.7003 38.8805 15.5723 41.8565 15.5723C43.4085 15.5723 44.6085 15.0923 45.4085 14.1803L44.0805 12.7403C43.4885 13.3003 42.8325 13.5723 41.9205 13.5723C40.6085 13.5723 39.6965 12.9163 39.4565 11.8443H45.9685C45.9845 11.6363 46.0165 11.3643 46.0165 11.1723ZM41.5525 8.59634C42.6725 8.59634 43.4885 9.30034 43.6645 10.3883H39.4245C39.6005 9.28434 40.4165 8.59634 41.5525 8.59634ZM54.226 6.83634L51.762 12.6923L49.378 6.83634H46.802L50.418 15.4443H52.994L56.626 6.83634H54.226ZM59.4525 5.63634C60.3805 5.63634 61.0045 5.02834 61.0045 4.19634C61.0045 3.42834 60.3805 2.85233 59.4525 2.85233C58.5245 2.85233 57.9005 3.46034 57.9005 4.24434C57.9005 5.02834 58.5245 5.63634 59.4525 5.63634ZM58.2045 15.4443H60.7005V6.83634H58.2045V15.4443ZM67.673 15.5723C70.409 15.5723 72.393 13.7323 72.393 11.1403C72.393 8.54834 70.409 6.70834 67.673 6.70834C64.937 6.70834 62.937 8.54834 62.937 11.1403C62.937 13.7323 64.937 15.5723 67.673 15.5723ZM67.673 13.5243C66.425 13.5243 65.465 12.6283 65.465 11.1403C65.465 9.65234 66.425 8.75634 67.673 8.75634C68.921 8.75634 69.865 9.65234 69.865 11.1403C69.865 12.6283 68.921 13.5243 67.673 13.5243ZM80.7974 6.83634V11.0923C80.7974 12.6763 79.9654 13.4123 78.8134 13.4123C77.7094 13.4123 77.0694 12.7723 77.0694 11.3323V6.83634H74.5734V11.7003C74.5734 14.3563 76.0934 15.5723 78.2534 15.5723C79.3094 15.5723 80.2694 15.1723 80.9254 14.4203V15.4443H83.2934V6.83634H80.7974ZM89.0617 15.5723C91.6377 15.5723 93.1257 14.4363 93.1257 12.8363C93.1257 9.44434 87.9257 10.8683 87.9257 9.39634C87.9257 8.94834 88.4057 8.59634 89.5257 8.59634C90.3097 8.59634 91.1577 8.75634 92.0057 9.23634L92.8377 7.46034C92.0217 6.98034 90.7097 6.70834 89.5257 6.70834C87.0137 6.70834 85.5417 7.86034 85.5417 9.49234C85.5417 12.9323 90.7417 11.4923 90.7417 12.9003C90.7417 13.3803 90.3097 13.6843 89.1577 13.6843C88.1017 13.6843 86.9337 13.3483 86.1657 12.8523L85.3337 14.6443C86.1337 15.1723 87.6057 15.5723 89.0617 15.5723Z" fill="#CDCDCD"/>
<path d="M6 4.44434L1 9.44434L6 14.4443" stroke="#CDCDCD" stroke-width="2" stroke-linecap="round" stroke-linejoin="round"/>
</svg>
