<svg width="94" height="19" viewBox="0 0 94 19" fill="none" xmlns="http://www.w3.org/2000/svg">
<path d="M23.176 4.24434C24.168 4.24434 25.0267 4.40967 25.752 4.74034C26.488 5.071 27.0533 5.54034 27.448 6.14834C27.8427 6.75634 28.04 7.47634 28.04 8.30834C28.04 9.12967 27.8427 9.84967 27.448 10.4683C27.0533 11.0763 26.488 11.5457 25.752 11.8763C25.0267 12.1963 24.168 12.3563 23.176 12.3563H20.92V15.4443H18.328V4.24434H23.176ZM23.032 10.2443C23.8107 10.2443 24.4027 10.079 24.808 9.74834C25.2133 9.407 25.416 8.927 25.416 8.30834C25.416 7.679 25.2133 7.199 24.808 6.86834C24.4027 6.527 23.8107 6.35634 23.032 6.35634H20.92V10.2443H23.032ZM32.6585 7.97234C32.9572 7.55634 33.3572 7.24167 33.8585 7.02834C34.3705 6.815 34.9572 6.70834 35.6185 6.70834V9.01234C35.3412 8.991 35.1545 8.98034 35.0585 8.98034C34.3438 8.98034 33.7838 9.183 33.3785 9.58834C32.9732 9.983 32.7705 10.5803 32.7705 11.3803V15.4443H30.2745V6.83634H32.6585V7.97234ZM46.0165 11.1723C46.0165 11.2043 46.0005 11.4283 45.9685 11.8443H39.4565C39.5738 12.3777 39.8512 12.799 40.2885 13.1083C40.7258 13.4177 41.2698 13.5723 41.9205 13.5723C42.3685 13.5723 42.7632 13.5083 43.1045 13.3803C43.4565 13.2417 43.7818 13.0283 44.0805 12.7403L45.4085 14.1803C44.5978 15.1083 43.4138 15.5723 41.8565 15.5723C40.8858 15.5723 40.0272 15.3857 39.2805 15.0123C38.5338 14.6283 37.9578 14.1003 37.5525 13.4283C37.1472 12.7563 36.9445 11.9937 36.9445 11.1403C36.9445 10.2977 37.1418 9.54034 37.5365 8.86834C37.9418 8.18567 38.4912 7.65767 39.1845 7.28434C39.8885 6.90034 40.6725 6.70834 41.5365 6.70834C42.3792 6.70834 43.1418 6.88967 43.8245 7.25234C44.5072 7.615 45.0405 8.13767 45.4245 8.82034C45.8192 9.49234 46.0165 10.2763 46.0165 11.1723ZM41.5525 8.59634C40.9872 8.59634 40.5125 8.75634 40.1285 9.07634C39.7445 9.39634 39.5098 9.83367 39.4245 10.3883H43.6645C43.5792 9.84434 43.3445 9.41234 42.9605 9.09234C42.5765 8.76167 42.1072 8.59634 41.5525 8.59634ZM56.626 6.83634L52.994 15.4443H50.418L46.802 6.83634H49.378L51.762 12.6923L54.226 6.83634H56.626ZM58.2045 6.83634H60.7005V15.4443H58.2045V6.83634ZM59.4525 5.63634C58.9938 5.63634 58.6205 5.503 58.3325 5.23634C58.0445 4.96967 57.9005 4.639 57.9005 4.24434C57.9005 3.84967 58.0445 3.519 58.3325 3.25234C58.6205 2.98567 58.9938 2.85233 59.4525 2.85233C59.9112 2.85233 60.2845 2.98034 60.5725 3.23634C60.8605 3.49234 61.0045 3.81234 61.0045 4.19634C61.0045 4.61234 60.8605 4.959 60.5725 5.23634C60.2845 5.503 59.9112 5.63634 59.4525 5.63634ZM67.673 15.5723C66.7663 15.5723 65.9503 15.3857 65.225 15.0123C64.5103 14.6283 63.9503 14.1003 63.545 13.4283C63.1397 12.7563 62.937 11.9937 62.937 11.1403C62.937 10.287 63.1397 9.52434 63.545 8.85234C63.9503 8.18034 64.5103 7.65767 65.225 7.28434C65.9503 6.90034 66.7663 6.70834 67.673 6.70834C68.5797 6.70834 69.3903 6.90034 70.105 7.28434C70.8197 7.65767 71.3797 8.18034 71.785 8.85234C72.1903 9.52434 72.393 10.287 72.393 11.1403C72.393 11.9937 72.1903 12.7563 71.785 13.4283C71.3797 14.1003 70.8197 14.6283 70.105 15.0123C69.3903 15.3857 68.5797 15.5723 67.673 15.5723ZM67.673 13.5243C68.313 13.5243 68.8357 13.311 69.241 12.8843C69.657 12.447 69.865 11.8657 69.865 11.1403C69.865 10.415 69.657 9.839 69.241 9.41234C68.8357 8.975 68.313 8.75634 67.673 8.75634C67.033 8.75634 66.505 8.975 66.089 9.41234C65.673 9.839 65.465 10.415 65.465 11.1403C65.465 11.8657 65.673 12.447 66.089 12.8843C66.505 13.311 67.033 13.5243 67.673 13.5243ZM83.2934 6.83634V15.4443H80.9254V14.4203C80.5947 14.7937 80.2 15.0817 79.7414 15.2843C79.2827 15.4763 78.7867 15.5723 78.2534 15.5723C77.1227 15.5723 76.2267 15.247 75.5654 14.5963C74.904 13.9457 74.5734 12.9803 74.5734 11.7003V6.83634H77.0694V11.3323C77.0694 12.719 77.6507 13.4123 78.8134 13.4123C79.4107 13.4123 79.8907 13.2203 80.2534 12.8363C80.616 12.4417 80.7974 11.8603 80.7974 11.0923V6.83634H83.2934ZM89.0617 15.5723C88.3471 15.5723 87.6484 15.487 86.9657 15.3163C86.2831 15.135 85.7391 14.911 85.3337 14.6443L86.1657 12.8523C86.5497 13.0977 87.0137 13.3003 87.5577 13.4603C88.1017 13.6097 88.6351 13.6843 89.1577 13.6843C90.2137 13.6843 90.7417 13.423 90.7417 12.9003C90.7417 12.655 90.5977 12.479 90.3097 12.3723C90.0217 12.2657 89.5791 12.175 88.9817 12.1003C88.2777 11.9937 87.6964 11.871 87.2377 11.7323C86.7791 11.5937 86.3791 11.3483 86.0377 10.9963C85.7071 10.6443 85.5417 10.143 85.5417 9.49234C85.5417 8.94834 85.6964 8.46834 86.0057 8.05234C86.3257 7.62567 86.7844 7.295 87.3817 7.06034C87.9897 6.82567 88.7044 6.70834 89.5257 6.70834C90.1337 6.70834 90.7364 6.77767 91.3337 6.91634C91.9417 7.04434 92.4431 7.22567 92.8377 7.46034L92.0057 9.23634C91.2484 8.80967 90.4217 8.59634 89.5257 8.59634C88.9924 8.59634 88.5924 8.671 88.3257 8.82034C88.0591 8.96967 87.9257 9.16167 87.9257 9.39634C87.9257 9.663 88.0697 9.84967 88.3577 9.95634C88.6457 10.063 89.1044 10.1643 89.7337 10.2603C90.4377 10.3777 91.0137 10.5057 91.4617 10.6443C91.9097 10.7723 92.2991 11.0123 92.6297 11.3643C92.9604 11.7163 93.1257 12.207 93.1257 12.8363C93.1257 13.3697 92.9657 13.8443 92.6457 14.2603C92.3257 14.6763 91.8564 15.0017 91.2377 15.2363C90.6297 15.4603 89.9044 15.5723 89.0617 15.5723Z" fill="black"/>
<path d="M6 4.44434L1 9.44434L6 14.4443" stroke="black" stroke-width="2" stroke-linecap="round" stroke-linejoin="round"/>
</svg>
