<svg width="17" height="17" viewBox="0 0 17 17" fill="none" xmlns="http://www.w3.org/2000/svg">
<path d="M11.7028 7.30469C11.7028 6.93793 11.4055 6.64062 11.0388 6.64062H4.19891C3.83215 6.64062 3.53485 6.93793 3.53485 7.30469C3.53485 7.67145 3.83215 7.96875 4.19891 7.96875H11.0388C11.4055 7.96875 11.7028 7.67145 11.7028 7.30469Z" fill="white"/>
<path d="M4.19891 9.29688C3.83215 9.29688 3.53485 9.59418 3.53485 9.96094C3.53485 10.3277 3.83215 10.625 4.19891 10.625H8.35298C8.71974 10.625 9.01704 10.3277 9.01704 9.96094C9.01704 9.59418 8.71974 9.29688 8.35298 9.29688H4.19891Z" fill="white"/>
<path d="M5.75919 15.6719H3.53827C2.80594 15.6719 2.21014 15.0761 2.21014 14.3438V2.65625C2.21014 1.92392 2.80594 1.32812 3.53827 1.32812H11.7026C12.4349 1.32812 13.0307 1.92392 13.0307 2.65625V6.74023C13.0307 7.107 13.328 7.4043 13.6947 7.4043C14.0615 7.4043 14.3588 7.107 14.3588 6.74023V2.65625C14.3588 1.19159 13.1672 0 11.7026 0H3.53827C2.07361 0 0.882019 1.19159 0.882019 2.65625V14.3438C0.882019 15.8084 2.07361 17 3.53827 17H5.75919C6.12595 17 6.42326 16.7027 6.42326 16.3359C6.42326 15.9692 6.12595 15.6719 5.75919 15.6719Z" fill="white"/>
<path d="M15.5353 9.61389C14.7585 8.83714 13.4947 8.83711 12.7184 9.61336L9.07264 13.2511C8.99521 13.3284 8.9381 13.4235 8.90629 13.5282L8.1123 16.1421C8.04191 16.3738 8.10324 16.6255 8.27238 16.7988C8.39908 16.9287 8.57121 16.9992 8.74775 16.9992C8.80681 16.9992 8.86645 16.9913 8.92498 16.975L11.6053 16.2326C11.7156 16.202 11.8161 16.1435 11.8972 16.0626L15.5353 12.4313C16.3121 11.6546 16.3121 10.3907 15.5353 9.61389ZM11.0825 14.9993L9.73404 15.3728L10.1287 14.0736L12.5886 11.6191L13.528 12.5584L11.0825 14.9993ZM14.5967 11.4918L14.468 11.6202L13.5289 10.681L13.6571 10.5531C13.916 10.2942 14.3373 10.2942 14.5962 10.5531C14.8551 10.812 14.8551 11.2333 14.5967 11.4918Z" fill="white"/>
<path d="M11.0388 3.98438H4.19891C3.83215 3.98438 3.53485 4.28168 3.53485 4.64844C3.53485 5.0152 3.83215 5.3125 4.19891 5.3125H11.0388C11.4055 5.3125 11.7028 5.0152 11.7028 4.64844C11.7028 4.28168 11.4055 3.98438 11.0388 3.98438Z" fill="white"/>
</svg>
