<svg width="52" height="52" viewBox="0 0 52 52" fill="none" xmlns="http://www.w3.org/2000/svg">
<path d="M46.9219 0H29.3762C28.8153 0 28.3606 0.454695 28.3606 1.01562V9.28728C28.3606 9.71049 28.6231 10.0894 29.0194 10.2381C29.4153 10.3867 29.8624 10.2743 30.141 9.95546C30.7238 9.2885 31.5666 8.93679 32.4515 8.98869C33.8668 9.07268 35.008 10.2019 35.106 11.6151C35.1613 12.4133 34.8933 13.1728 34.3513 13.7537C33.8086 14.3353 33.072 14.6556 32.2771 14.6556C31.4593 14.6556 30.6807 14.3013 30.141 13.6837C29.8625 13.3649 29.4154 13.2523 29.0194 13.4011C28.6232 13.5498 28.3606 13.9287 28.3606 14.3519V14.6183C27.6359 14.0973 26.7634 13.7695 25.8194 13.7134C25.0585 13.6682 24.3164 13.7977 23.6394 14.0819V7.76811C23.6394 7.20718 23.1847 6.75248 22.6238 6.75248H5.07812C2.27805 6.75248 0 9.03053 0 11.8306V46.9219C0 49.722 2.27805 52 5.07812 52H40.1694C42.9695 52 45.2475 49.722 45.2475 46.9219V44.7507C45.2475 44.1897 44.7928 43.735 44.2319 43.735C43.671 43.735 43.2163 44.1897 43.2163 44.7507V46.9219C43.2163 48.6019 41.8494 49.9688 40.1694 49.9688H23.6394V42.7127C23.6394 42.2895 23.3769 41.9106 22.9806 41.7619C22.5845 41.613 22.1374 41.7257 21.859 42.0445C21.3193 42.6622 20.5407 43.0165 19.7229 43.0165C18.928 43.0165 18.1914 42.6962 17.6487 42.1146C17.1067 41.5337 16.8386 40.7741 16.8939 39.9759C16.9919 38.5626 18.1331 37.4335 19.5484 37.3495C20.4331 37.2971 21.2761 37.6492 21.859 38.3163C22.1375 38.635 22.5844 38.7475 22.9806 38.5989C23.3768 38.4502 23.6394 38.0713 23.6394 37.6481V30.3921H28.9409C28.6925 30.9825 28.5604 31.6225 28.5604 32.2773C28.5604 33.6218 29.1244 34.9191 30.1078 35.8366C31.105 36.7671 32.4065 37.2273 33.7729 37.1327C36.2016 36.9642 38.142 35.0036 38.2863 32.5721C38.3314 31.8112 38.2021 31.0691 37.9177 30.3921H43.2162V35.6102C43.2162 36.1712 43.6709 36.6259 44.2318 36.6259C44.7927 36.6259 45.2474 36.1712 45.2474 35.6102V29.3764C45.2474 28.8155 44.7927 28.3608 44.2318 28.3608H44.134C44.7215 27.5397 45.0476 26.5461 45.0476 25.5248C45.0476 24.87 44.9155 24.23 44.6671 23.6396H50.9844C51.5453 23.6396 52 23.1849 52 22.624V5.07812C52 2.27805 49.722 0 46.9219 0ZM2.03125 11.8306C2.03125 10.1506 3.39808 8.78373 5.07812 8.78373H21.6081V16.0398C21.6081 16.463 21.8706 16.8419 22.2669 16.9906C22.6628 17.1392 23.1099 17.0266 23.3885 16.7079C23.9712 16.0411 24.8137 15.6888 25.699 15.7412C27.1142 15.8253 28.2555 16.9543 28.3535 18.3677C28.4089 19.1659 28.1408 19.9253 27.5987 20.5064C27.056 21.0879 26.3194 21.4083 25.5245 21.4083C24.7067 21.4083 23.9281 21.054 23.3885 20.4364C23.1099 20.1175 22.6629 20.005 22.2669 20.1538C21.8706 20.3024 21.6081 20.6814 21.6081 21.1046V28.3606H16.3065C16.5549 27.7702 16.687 27.1302 16.687 26.4754C16.687 25.1309 16.123 23.8337 15.1396 22.9161C14.1424 21.9856 12.8407 21.5257 11.4747 21.62C9.04587 21.7885 7.10552 23.7491 6.9612 26.1805C6.916 26.9414 7.04539 27.6836 7.32966 28.3605H2.03125V11.8306ZM19.4281 35.3217C16.9967 35.466 15.036 37.4065 14.8676 39.8353C14.7729 41.2014 15.2332 42.503 16.1636 43.5001C17.0812 44.4836 18.3785 45.0475 19.7229 45.0475C20.3777 45.0475 21.0176 44.9155 21.6081 44.667V49.9688H5.07812C3.39808 49.9688 2.03125 48.6019 2.03125 46.9219V30.3919H9.28728C9.71049 30.3919 10.0894 30.1294 10.2381 29.7331C10.3868 29.3368 10.2742 28.8899 9.95546 28.6115C9.2885 28.0288 8.93618 27.1867 8.98869 26.301C9.07268 24.8857 10.2019 23.7445 11.6151 23.6465C12.4133 23.5912 13.1728 23.8592 13.7538 24.4013C14.3353 24.944 14.6557 25.6806 14.6557 26.4755C14.6557 27.2933 14.3014 28.0719 13.6838 28.6115C13.3651 28.89 13.2525 29.3369 13.4012 29.7331C13.5499 30.1294 13.9288 30.3919 14.352 30.3919H21.608V35.6903C20.9311 35.4058 20.1889 35.2762 19.4281 35.3217ZM35.292 30.1411C35.9588 30.7238 36.3112 31.5659 36.2587 32.4516C36.1747 33.8668 35.0456 35.008 33.6323 35.1061C32.8342 35.161 32.0746 34.8934 31.4936 34.3513C30.912 33.8086 30.5917 33.072 30.5917 32.2771C30.5917 31.4593 30.946 30.6807 31.5636 30.141C31.8823 29.8625 31.9949 29.4155 31.8462 29.0194C31.6976 28.6232 31.3186 28.3606 30.8954 28.3606H23.6395V23.0591C24.2299 23.3075 24.8699 23.4396 25.5247 23.4396C26.546 23.4396 27.5397 23.1135 28.3607 22.526V22.6239C28.3607 23.1848 28.8154 23.6395 29.3763 23.6395H35.6904C35.406 24.3165 35.2767 25.0586 35.3218 25.8195C35.3779 26.7636 35.7056 27.636 36.2266 28.3607H35.9602C35.537 28.3607 35.1581 28.6232 35.0094 29.0195C34.8606 29.4156 34.9732 29.8626 35.292 30.1411ZM49.9688 21.6081H42.7128C42.2896 21.6081 41.9107 21.8706 41.762 22.2669C41.6133 22.6631 41.7259 23.11 42.0446 23.3885C42.6623 23.9281 43.0165 24.7067 43.0165 25.5245C43.0165 26.3194 42.6962 27.056 42.1146 27.5987C41.5337 28.1407 40.7741 28.4089 39.9759 28.3535C38.5626 28.2555 37.4335 27.1142 37.3495 25.699C37.2969 24.8133 37.6493 23.9712 38.3162 23.3884C38.6349 23.1099 38.7475 22.663 38.5988 22.2668C38.4501 21.8706 38.0712 21.608 37.648 21.608H30.3921V16.3064C30.9825 16.5548 31.6225 16.6869 32.2773 16.6869C33.6218 16.6869 34.9191 16.1229 35.8366 15.1395C36.7671 14.1423 37.2273 12.8408 37.1326 11.4746C36.9641 9.04577 35.0035 7.10541 32.5721 6.96109C31.8109 6.9158 31.069 7.04529 30.3921 7.32966V2.03125H46.9219C48.6019 2.03125 49.9688 3.39808 49.9688 5.07812V21.6081Z" fill="url(#paint0_linear)"/>
<path d="M44.2314 39.1643C43.9643 39.1643 43.7023 39.273 43.5134 39.4619C43.3245 39.6508 43.2158 39.9128 43.2158 40.1799C43.2158 40.447 43.3245 40.7091 43.5134 40.898C43.7023 41.0869 43.9643 41.1956 44.2314 41.1956C44.4986 41.1956 44.7606 41.0869 44.9495 40.898C45.1394 40.7091 45.2471 40.447 45.2471 40.1799C45.2471 39.9128 45.1394 39.6508 44.9495 39.4619C44.7606 39.273 44.4996 39.1643 44.2314 39.1643Z" fill="url(#paint1_linear)"/>
<defs>
<linearGradient id="paint0_linear" x1="6.62745" y1="26.5098" x2="49.0596" y2="22.4345" gradientUnits="userSpaceOnUse">
<stop stop-color="#EE581C"/>
<stop offset="1" stop-color="#F38F46"/>
</linearGradient>
<linearGradient id="paint1_linear" x1="43.4747" y1="40.1998" x2="45.1322" y2="40.0407" gradientUnits="userSpaceOnUse">
<stop stop-color="#EE581C"/>
<stop offset="1" stop-color="#F38F46"/>
</linearGradient>
</defs>
</svg>
