<svg width="55" height="55" viewBox="0 0 55 55" fill="none" xmlns="http://www.w3.org/2000/svg">
<g clip-path="url(#clip0)">
<path d="M43.4275 33.8818C42.3481 31.6314 38.4866 28.5078 34.7558 25.4896C32.675 23.8075 30.7087 22.2171 29.4552 20.9636C29.1412 20.6474 28.6714 20.5465 28.2567 20.6955C27.4844 20.9751 27.0077 21.1905 26.6319 21.3578C26.0591 21.6144 25.8666 21.7015 25.0942 21.7794C24.7527 21.8138 24.4457 21.9971 24.2554 22.2813C22.6352 24.7035 20.9577 24.4973 19.8371 24.1215C19.4796 24.0024 19.4154 23.8488 19.3811 23.7021C19.1404 22.6961 20.3482 20.354 21.9133 18.7888C25.6373 15.0625 27.5577 14.1298 31.614 15.9425C36.2156 18.0004 40.8265 19.6115 40.8723 19.6275C41.4751 19.836 42.1236 19.5198 42.3321 18.9217C42.5383 18.3235 42.2243 17.6704 41.6262 17.4619C41.5803 17.4459 37.0612 15.8669 32.5512 13.8479C27.2965 11.4989 24.4135 13.0458 20.2953 17.1663C18.7278 18.7338 16.5988 21.9054 17.1488 24.2315C17.3848 25.2215 18.0816 25.9549 19.1173 26.2963C21.7138 27.1534 24.0834 26.3329 25.848 23.9909C26.5767 23.8786 26.9732 23.7136 27.569 23.4455C27.7844 23.3493 28.0365 23.237 28.3711 23.1018C29.682 24.3324 31.4511 25.7646 33.3142 27.2703C36.683 29.995 40.5032 33.0843 41.3626 34.8718C41.7866 35.754 41.3305 36.3293 41.0211 36.5928C40.5673 36.9824 39.9463 37.1061 39.6095 36.87C39.2382 36.6157 38.7547 36.5996 38.372 36.8288C37.987 37.0579 37.7716 37.491 37.8197 37.9357C37.8976 38.6644 37.2307 39.0815 36.942 39.2259C36.2086 39.5971 35.4432 39.533 35.1567 39.2671C34.8359 38.9693 34.3752 38.8821 33.9674 39.0334C33.5595 39.1869 33.2752 39.5628 33.234 39.9981C33.1652 40.7498 32.6084 41.4717 31.8819 41.7535C31.5312 41.8864 31.0225 41.9667 30.5665 41.5495C30.2824 41.2929 29.8881 41.1943 29.5192 41.2837C29.1457 41.3753 28.8455 41.6458 28.7148 42.0055C28.6713 42.1202 28.5727 42.3952 27.5002 42.3952C26.7371 42.3952 25.3644 41.8795 24.693 41.4349C23.8886 40.9055 18.8446 37.1427 14.4882 33.4943C13.8763 32.9787 12.8176 31.874 11.8826 30.8978C11.053 30.0315 10.2945 29.2455 9.90485 28.9155C9.41672 28.503 8.69485 28.5649 8.28922 29.0508C7.88134 29.5343 7.94086 30.2585 8.42447 30.6664C8.77971 30.9667 9.46721 31.693 10.2257 32.4837C11.2478 33.5515 12.3042 34.6562 13.0147 35.252C17.2818 38.8248 22.4106 42.6817 23.4326 43.353C24.276 43.9077 26.0932 44.6868 27.5003 44.6868C28.6301 44.6868 29.4987 44.4278 30.1013 43.9214C30.908 44.2354 31.8247 44.2377 32.707 43.8939C33.7497 43.4905 34.6067 42.677 35.0926 41.6917C35.9955 41.8842 37.0291 41.7489 37.9686 41.2769C38.8876 40.814 39.5521 40.1059 39.8821 39.2785C40.7942 39.3267 41.7337 39.0035 42.5106 38.3367C43.8262 37.2115 44.1882 35.4608 43.4275 33.8818Z" fill="url(#paint0_linear)"/>
<path d="M22.9164 14.8953H12.6039C11.9714 14.8953 11.458 15.4086 11.458 16.0411C11.458 16.6736 11.9714 17.187 12.6039 17.187H22.9164C23.5489 17.187 24.0622 16.6736 24.0622 16.0411C24.0622 15.4086 23.5489 14.8953 22.9164 14.8953Z" fill="url(#paint1_linear)"/>
<path d="M46.7852 31.4433C46.4299 30.9186 45.7195 30.7742 45.1948 31.1317L41.8444 33.3821C41.3197 33.7349 41.1798 34.4477 41.5328 34.9724C41.755 35.3002 42.1172 35.4789 42.4861 35.4789C42.7039 35.4789 42.9261 35.417 43.1233 35.2842L46.4736 33.0338C46.9983 32.6808 47.1381 31.9682 46.7852 31.4433Z" fill="url(#paint2_linear)"/>
<path d="M39.6703 36.9117C38.8499 36.2654 35.1809 32.5094 32.9122 30.1444C32.4744 29.686 31.7481 29.67 31.2919 30.11C30.8336 30.5478 30.8198 31.2741 31.2576 31.7303C31.8466 32.3444 37.0417 37.7596 38.2494 38.713C38.4579 38.878 38.7101 38.9583 38.9576 38.9583C39.2944 38.9583 39.6313 38.807 39.8604 38.5205C40.2524 38.0254 40.1677 37.3035 39.6703 36.9117Z" fill="url(#paint3_linear)"/>
<path d="M35.0926 39.2103C33.7199 38.1125 30.271 34.4481 29.4918 33.6002C29.0609 33.1327 28.3391 33.1052 27.8716 33.5315C27.4063 33.96 27.3743 34.6865 27.8028 35.1517C27.8441 35.1952 31.9599 39.6389 33.6603 41.0001C33.8712 41.1674 34.1255 41.2499 34.3753 41.2499C34.7099 41.2499 35.0444 41.1009 35.2713 40.8214C35.6656 40.3263 35.5854 39.6044 35.0926 39.2103Z" fill="url(#paint4_linear)"/>
<path d="M30.5312 41.518C28.8972 40.1407 25.5537 36.5817 24.9005 35.8827C24.4674 35.4198 23.7409 35.3946 23.2803 35.8277C22.8174 36.2609 22.7944 36.985 23.2253 37.448C24.1649 38.454 27.3641 41.8457 29.0531 43.2711C29.2684 43.4521 29.5297 43.5415 29.7909 43.5415C30.1163 43.5415 30.4418 43.4017 30.6687 43.1336C31.0766 42.6477 31.0147 41.9259 30.5312 41.518Z" fill="url(#paint5_linear)"/>
<path d="M13.3925 12.9182C11.4285 11.0573 3.575 10.4545 1.21462 10.3148C0.889238 10.2988 0.588994 10.4064 0.359863 10.6242C0.130625 10.8395 0 11.142 0 11.4583V32.0833C0 32.7158 0.513369 33.2292 1.14587 33.2292H8.02087C8.51587 33.2292 8.95587 32.9107 9.10938 32.4386C9.27663 31.9252 13.2252 19.8069 13.7454 13.8485C13.7752 13.5002 13.6469 13.1564 13.3925 12.9182ZM7.18437 30.9376H2.29163V12.6867C5.97438 12.9777 9.94812 13.6102 11.3919 14.3114C10.7846 19.3302 8.03687 28.2471 7.18437 30.9376Z" fill="url(#paint6_linear)"/>
<path d="M53.854 12.6035C44.8569 12.6035 39.8657 14.9066 39.6572 15.0029C39.3593 15.1426 39.1369 15.4016 39.0453 15.7156C38.9537 16.0296 38.9994 16.3665 39.1713 16.646C40.5875 18.9262 45.0219 31.59 45.8744 34.6791C46.0119 35.1764 46.4634 35.5201 46.979 35.5201H53.854C54.4865 35.5201 54.9999 35.0067 54.9999 34.3742V13.7493C54.9999 13.1145 54.4865 12.6035 53.854 12.6035ZM52.7082 33.2285H47.8361C46.7499 29.6901 43.5415 20.4639 41.7518 16.6506C43.5003 16.0571 47.2564 15.0373 52.7082 14.909V33.2285Z" fill="url(#paint7_linear)"/>
</g>
<defs>
<linearGradient id="paint0_linear" x1="0.499512" y1="29" x2="54.8694" y2="23.1468" gradientUnits="userSpaceOnUse">
<stop stop-color="#EE581C"/>
<stop offset="1" stop-color="#F38F46"/>
</linearGradient>
<linearGradient id="paint1_linear" x1="11" y1="16" x2="28.5916" y2="6.70771" gradientUnits="userSpaceOnUse">
<stop stop-color="#EE581C"/>
<stop offset="1" stop-color="#F38F46"/>
</linearGradient>
<linearGradient id="paint2_linear" x1="5.50049" y1="33" x2="46.1553" y2="28.4033" gradientUnits="userSpaceOnUse">
<stop stop-color="#EE581C"/>
<stop offset="1" stop-color="#F38F46"/>
</linearGradient>
<linearGradient id="paint3_linear" x1="32.107" y1="34.464" x2="39.5884" y2="33.7455" gradientUnits="userSpaceOnUse">
<stop stop-color="#EE581C"/>
<stop offset="1" stop-color="#F38F46"/>
</linearGradient>
<linearGradient id="paint4_linear" x1="28.5232" y1="37.3184" x2="35.0681" y2="36.6898" gradientUnits="userSpaceOnUse">
<stop stop-color="#EE581C"/>
<stop offset="1" stop-color="#F38F46"/>
</linearGradient>
<linearGradient id="paint5_linear" x1="23.9393" y1="39.6087" x2="30.4848" y2="38.9802" gradientUnits="userSpaceOnUse">
<stop stop-color="#EE581C"/>
<stop offset="1" stop-color="#F38F46"/>
</linearGradient>
<linearGradient id="paint6_linear" x1="1.7524" y1="21.9959" x2="43.3621" y2="19.6022" gradientUnits="userSpaceOnUse">
<stop stop-color="#EE581C"/>
<stop offset="1" stop-color="#F38F46"/>
</linearGradient>
<linearGradient id="paint7_linear" x1="7.49951" y1="24" x2="54.0255" y2="21.1665" gradientUnits="userSpaceOnUse">
<stop stop-color="#EE581C"/>
<stop offset="1" stop-color="#F38F46"/>
</linearGradient>
<clipPath id="clip0">
<rect width="55" height="55" fill="white"/>
</clipPath>
</defs>
</svg>
