<svg width="55" height="55" viewBox="0 0 55 55" fill="none" xmlns="http://www.w3.org/2000/svg">
<g clip-path="url(#clip0)">
<path d="M51.3673 20.8373L52.9784 19.2262C53.4443 18.7605 53.7008 18.1412 53.7008 17.4826C53.7008 16.824 53.4443 16.2047 52.9785 15.7391L51.1331 13.8937C50.6675 13.428 50.0482 13.1715 49.3897 13.1715C48.731 13.1715 48.1118 13.428 47.6461 13.8937L46.0349 15.5049C43.9084 14.0402 41.4954 12.9634 38.898 12.3776V9.99619H39.8784C41.2058 9.99619 42.2858 8.91617 42.2858 7.58876V4.23957C42.2858 2.91205 41.2058 1.83203 39.8784 1.83203H28.7948C27.4674 1.83203 26.3874 2.91205 26.3874 4.23957V7.58865C26.3874 8.91606 27.4674 9.99608 28.7948 9.99608H29.775V12.3842C27.1896 12.9716 24.7873 14.0459 22.6693 15.5048L21.0581 13.8936C20.5924 13.4279 19.9731 13.1714 19.3146 13.1714C18.6559 13.1714 18.0367 13.4279 17.5711 13.8936L15.7257 15.7389C14.7644 16.7004 14.7644 18.2646 15.7257 19.2261L16.0113 19.5117H8.39683C7.80365 19.5117 7.32261 19.9926 7.32261 20.5859C7.32261 21.1792 7.80365 21.6601 8.39683 21.6601H16.7984C15.998 22.9493 15.3353 24.3323 14.8316 25.7891H1.07422C0.481034 25.7891 0 26.27 0 26.8633C0 27.4566 0.481034 27.9375 1.07422 27.9375H14.2175C13.9144 29.27 13.7406 30.6508 13.7099 32.0665H6.87499C6.2818 32.0665 5.80077 32.5474 5.80077 33.1407C5.80077 33.734 6.2818 34.2149 6.87499 34.2149H13.7741C13.8903 35.6366 14.1512 37.0176 14.5418 38.3439H5.37108C4.7779 38.3439 4.29687 38.8248 4.29687 39.4181C4.29687 40.0114 4.7779 40.4923 5.37108 40.4923H15.3059C18.4311 47.9309 25.7912 53.1681 34.3521 53.1681C45.7374 53.1681 55 43.9054 55 32.5201C55 28.1869 53.6571 24.1619 51.3673 20.8373ZM49.1653 15.4128C49.2421 15.336 49.3296 15.3199 49.3897 15.3199C49.4496 15.3199 49.5373 15.336 49.6141 15.4128L51.4595 17.2582C51.5363 17.335 51.5524 17.4227 51.5524 17.4826C51.5524 17.5426 51.5363 17.6302 51.4594 17.707L50.0471 19.1193C49.3433 18.2962 48.5761 17.529 47.753 16.8252L49.1653 15.4128ZM28.5358 7.58876V4.23957C28.5358 4.09669 28.652 3.98046 28.7948 3.98046H39.8784C40.0211 3.98046 40.1374 4.09669 40.1374 4.23957V7.58865C40.1374 7.73152 40.0211 7.84764 39.8784 7.84764H37.8238H30.8492H28.7948C28.652 7.84775 28.5358 7.73152 28.5358 7.58876ZM31.9235 9.99619H36.7496V12.0122C35.9627 11.9208 35.1631 11.8722 34.3522 11.8722C33.5305 11.8722 32.7204 11.9219 31.9236 12.0157V9.99619H31.9235ZM17.2447 17.2581L19.0901 15.4127C19.1669 15.3359 19.2545 15.3198 19.3145 15.3198C19.3745 15.3198 19.4621 15.3359 19.5389 15.4127L20.9512 16.8251C20.1281 17.5289 19.3609 18.2961 18.6571 19.1192L17.2447 17.7069C17.121 17.5833 17.121 17.3819 17.2447 17.2581ZM34.3521 51.0196C24.1514 51.0196 15.8525 42.7207 15.8525 32.52C15.8525 22.3194 24.1514 14.0205 34.3521 14.0205C44.5527 14.0205 52.8516 22.3194 52.8516 32.52C52.8516 42.7207 44.5527 51.0196 34.3521 51.0196Z" fill="url(#paint0_linear)"/>
<path d="M41.4427 23.9106L36.3647 28.9885C35.7709 28.6488 35.0842 28.4535 34.3525 28.4535C32.1103 28.4535 30.2861 30.2777 30.2861 32.52C30.2861 34.7622 32.1103 36.5863 34.3525 36.5863C36.5947 36.5863 38.4188 34.7622 38.4188 32.52C38.4188 31.7882 38.2235 31.1016 37.8839 30.5078L42.9618 25.4298C43.3813 25.0103 43.3813 24.3301 42.9618 23.9106C42.5422 23.4911 41.8622 23.4911 41.4427 23.9106ZM34.3525 34.438C33.2949 34.438 32.4346 33.5777 32.4346 32.5201C32.4346 31.4625 33.295 30.6021 34.3525 30.6021C35.4099 30.6021 36.2704 31.4625 36.2704 32.5201C36.2704 33.5777 35.41 34.438 34.3525 34.438Z" fill="url(#paint1_linear)"/>
<path d="M34.3525 18.5925C34.6351 18.5925 34.9122 18.4776 35.1119 18.2778C35.3117 18.078 35.4268 17.8008 35.4268 17.5183C35.4268 17.2358 35.3118 16.9586 35.1119 16.7588C34.9122 16.559 34.6351 16.4441 34.3525 16.4441C34.07 16.4441 33.7929 16.559 33.5931 16.7588C33.3933 16.9586 33.2783 17.2358 33.2783 17.5183C33.2783 17.8019 33.3932 18.078 33.5931 18.2778C33.793 18.4776 34.07 18.5925 34.3525 18.5925Z" fill="url(#paint2_linear)"/>
<path d="M34.3525 46.4473C34.07 46.4473 33.7929 46.5622 33.5931 46.762C33.3933 46.9618 33.2783 47.239 33.2783 47.5215C33.2783 47.8051 33.3932 48.0812 33.5931 48.281C33.7929 48.4818 34.07 48.5957 34.3525 48.5957C34.6351 48.5957 34.9122 48.4818 35.1119 48.281C35.3117 48.0812 35.4268 47.804 35.4268 47.5215C35.4268 47.239 35.3118 46.9618 35.1119 46.762C34.9122 46.5622 34.6351 46.4473 34.3525 46.4473Z" fill="url(#paint3_linear)"/>
<path d="M23.7441 20.8376C23.4616 20.8376 23.1845 20.9526 22.9847 21.1524C22.7849 21.3522 22.6699 21.6293 22.6699 21.9119C22.6699 22.1955 22.7848 22.4715 22.9847 22.6724C23.1845 22.8722 23.4616 22.9861 23.7441 22.9861C24.0267 22.9861 24.3038 22.8722 24.5035 22.6724C24.7033 22.4715 24.8184 22.1955 24.8184 21.9119C24.8184 21.6293 24.7034 21.3533 24.5035 21.1524C24.3038 20.9526 24.0267 20.8376 23.7441 20.8376Z" fill="url(#paint4_linear)"/>
<path d="M44.96 42.0537C44.6763 42.0537 44.4003 42.1687 44.1994 42.3685C43.9996 42.5683 43.8857 42.8454 43.8857 43.1279C43.8857 43.4104 43.9996 43.6876 44.1994 43.8874C44.4003 44.0872 44.6763 44.2021 44.96 44.2021C45.2425 44.2021 45.5196 44.0872 45.7193 43.8874C45.9191 43.6876 46.0342 43.4104 46.0342 43.1279C46.0342 42.8454 45.9192 42.5683 45.7193 42.3685C45.5196 42.1687 45.2425 42.0537 44.96 42.0537Z" fill="url(#paint5_linear)"/>
<path d="M23.7441 42.0537C23.4616 42.0537 23.1845 42.1687 22.9847 42.3685C22.7849 42.5683 22.6699 42.8454 22.6699 43.1279C22.6699 43.4104 22.7848 43.6876 22.9847 43.8874C23.1846 44.0872 23.4616 44.2021 23.7441 44.2021C24.0267 44.2021 24.3038 44.0872 24.5035 43.8874C24.7033 43.6876 24.8184 43.4104 24.8184 43.1279C24.8184 42.8454 24.7034 42.5683 24.5035 42.3685C24.3038 42.1687 24.0267 42.0537 23.7441 42.0537Z" fill="url(#paint6_linear)"/>
<path d="M19.3516 31.4456C19.068 31.4456 18.7919 31.5605 18.5921 31.7603C18.3913 31.9601 18.2773 32.2373 18.2773 32.5198C18.2773 32.8023 18.3913 33.0794 18.5921 33.2792C18.7919 33.4801 19.0681 33.594 19.3516 33.594C19.6341 33.594 19.9112 33.4801 20.111 33.2792C20.3107 33.0794 20.4258 32.8023 20.4258 32.5198C20.4258 32.2373 20.3108 31.9601 20.111 31.7603C19.9112 31.5605 19.6341 31.4456 19.3516 31.4456Z" fill="url(#paint7_linear)"/>
<path d="M50.113 31.7603C49.9132 31.5605 49.636 31.4456 49.3535 31.4456C49.0699 31.4456 48.7938 31.5605 48.5942 31.7603C48.3943 31.9601 48.2793 32.2373 48.2793 32.5198C48.2793 32.8034 48.3942 33.0794 48.5942 33.2792C48.7938 33.4791 49.071 33.594 49.3535 33.594C49.636 33.594 49.9132 33.4791 50.113 33.2792C50.3128 33.0794 50.4277 32.8023 50.4277 32.5198C50.4276 32.2373 50.3128 31.9602 50.113 31.7603Z" fill="url(#paint8_linear)"/>
<path d="M1.07422 38.3442C0.791699 38.3442 0.514551 38.4581 0.314746 38.6579C0.114941 38.8588 0 39.1349 0 39.4185C0 39.701 0.114834 39.977 0.314746 40.1779C0.514551 40.3777 0.791699 40.4927 1.07422 40.4927C1.35674 40.4927 1.63389 40.3777 1.83358 40.1779C2.03339 39.9781 2.14844 39.701 2.14844 39.4185C2.14844 39.1349 2.0335 38.8577 1.83358 38.6579C1.63389 38.4581 1.35674 38.3442 1.07422 38.3442Z" fill="url(#paint9_linear)"/>
<path d="M49.038 29.2584C49.6065 29.0889 49.9302 28.4907 49.7608 27.9221C49.0013 25.3739 47.5996 23.0288 45.7074 21.1406C43.8148 19.2521 41.4665 17.8555 38.9161 17.1017C38.3473 16.9335 37.7497 17.2585 37.5815 17.8274C37.4132 18.3963 37.7382 18.9939 38.3072 19.162C42.8398 20.5016 46.3518 24.0058 47.7018 28.5356C47.8407 29.0018 48.268 29.3033 48.7308 29.3033C48.8323 29.3034 48.9356 29.2888 49.038 29.2584Z" fill="url(#paint10_linear)"/>
</g>
<defs>
<linearGradient id="paint0_linear" x1="7.0098" y1="28.0034" x2="51.8294" y2="23.3915" gradientUnits="userSpaceOnUse">
<stop stop-color="#EE581C"/>
<stop offset="1" stop-color="#F38F46"/>
</linearGradient>
<linearGradient id="paint1_linear" x1="26" y1="30" x2="44.3309" y2="28.2395" gradientUnits="userSpaceOnUse">
<stop stop-color="#EE581C"/>
<stop offset="1" stop-color="#F38F46"/>
</linearGradient>
<linearGradient id="paint2_linear" x1="33.5521" y1="17.5394" x2="35.3053" y2="17.371" gradientUnits="userSpaceOnUse">
<stop stop-color="#EE581C"/>
<stop offset="1" stop-color="#F38F46"/>
</linearGradient>
<linearGradient id="paint3_linear" x1="33.5521" y1="47.5425" x2="35.3053" y2="47.3742" gradientUnits="userSpaceOnUse">
<stop stop-color="#EE581C"/>
<stop offset="1" stop-color="#F38F46"/>
</linearGradient>
<linearGradient id="paint4_linear" x1="22.9437" y1="21.9329" x2="24.6969" y2="21.7646" gradientUnits="userSpaceOnUse">
<stop stop-color="#EE581C"/>
<stop offset="1" stop-color="#F38F46"/>
</linearGradient>
<linearGradient id="paint5_linear" x1="44.1596" y1="43.149" x2="45.9127" y2="42.9806" gradientUnits="userSpaceOnUse">
<stop stop-color="#EE581C"/>
<stop offset="1" stop-color="#F38F46"/>
</linearGradient>
<linearGradient id="paint6_linear" x1="22.9437" y1="43.149" x2="24.6969" y2="42.9806" gradientUnits="userSpaceOnUse">
<stop stop-color="#EE581C"/>
<stop offset="1" stop-color="#F38F46"/>
</linearGradient>
<linearGradient id="paint7_linear" x1="18.5512" y1="32.5408" x2="20.3043" y2="32.3725" gradientUnits="userSpaceOnUse">
<stop stop-color="#EE581C"/>
<stop offset="1" stop-color="#F38F46"/>
</linearGradient>
<linearGradient id="paint8_linear" x1="48.5531" y1="32.5408" x2="50.3062" y2="32.3725" gradientUnits="userSpaceOnUse">
<stop stop-color="#EE581C"/>
<stop offset="1" stop-color="#F38F46"/>
</linearGradient>
<linearGradient id="paint9_linear" x1="0.27382" y1="39.4395" x2="2.02695" y2="39.2711" gradientUnits="userSpaceOnUse">
<stop stop-color="#EE581C"/>
<stop offset="1" stop-color="#F38F46"/>
</linearGradient>
<linearGradient id="paint10_linear" x1="24" y1="23.5" x2="48.9541" y2="20.8993" gradientUnits="userSpaceOnUse">
<stop stop-color="#EE581C"/>
<stop offset="1" stop-color="#F38F46"/>
</linearGradient>
<clipPath id="clip0">
<rect width="55" height="55" fill="white"/>
</clipPath>
</defs>
</svg>
