<svg width="52" height="52" viewBox="0 0 52 52" fill="none" xmlns="http://www.w3.org/2000/svg">
<g clip-path="url(#clip0)">
<path d="M48.8003 45.871L41.1628 32.6426C41.4372 32.323 41.81 32.0866 42.2451 31.984C43.4481 31.7005 44.4458 30.8992 44.982 29.7856C45.5183 28.672 45.5227 27.3925 44.9943 26.2752C44.5898 25.4201 44.8209 24.4073 45.5564 23.8123C46.5174 23.0349 47.0685 21.8802 47.0685 20.6442C47.0685 19.4082 46.5174 18.2534 45.5564 17.476C44.8209 16.8811 44.5898 15.8683 44.9943 15.0131C45.5228 13.8958 45.5183 12.6162 44.982 11.5026C44.4458 10.389 43.4481 9.58772 42.245 9.30427C41.3242 9.08734 40.6765 8.27517 40.6699 7.32914C40.6613 6.09316 40.1021 4.94229 39.1357 4.17166C38.1694 3.40103 36.9227 3.11189 35.716 3.37859C34.7921 3.58252 33.8563 3.1319 33.4399 2.28246C32.8958 1.17262 31.8927 0.37832 30.6876 0.103297C29.4824 -0.171827 28.234 0.108679 27.2623 0.872507C26.5187 1.45718 25.4799 1.45718 24.7361 0.872507C23.7644 0.108679 22.516 -0.171624 21.3109 0.103297C20.1058 0.37832 19.1027 1.17262 18.5587 2.28246C18.1423 3.1319 17.206 3.58282 16.2826 3.37859C15.0757 3.11209 13.8292 3.40103 12.8629 4.17166C11.8966 4.94229 11.3374 6.09316 11.3288 7.32914C11.3222 8.27507 10.6744 9.08734 9.75359 9.30427C8.55052 9.58772 7.5529 10.389 7.01667 11.5026C6.48034 12.6162 6.47597 13.8958 7.00438 15.013C7.40889 15.8681 7.17774 16.881 6.44225 17.4759C5.4813 18.2534 4.93014 19.4081 4.93014 20.6441C4.93014 21.8801 5.4813 23.0349 6.44225 23.8122C7.17774 24.4072 7.40889 25.42 7.00438 26.2751C6.47587 27.3925 6.48034 28.672 7.01667 29.7856C7.5529 30.8992 8.55052 31.7005 9.7537 31.984C10.1888 32.0865 10.5616 32.323 10.8359 32.6426L3.19855 45.871C2.99289 46.2273 3.02244 46.6724 3.2733 46.9983C3.52425 47.3242 3.94694 47.4665 4.34393 47.359L9.66331 45.9158L11.0733 51.2441C11.1785 51.6418 11.5132 51.9366 11.921 51.991C11.966 51.997 12.0109 51.9999 12.0554 51.9999C12.4147 51.9999 12.7516 51.809 12.9346 51.4921L19.4515 40.2047C19.9676 40.6824 20.6041 41.0237 21.3111 41.1851C22.516 41.4599 23.7646 41.1797 24.7364 40.4159C25.4801 39.8312 26.5189 39.8312 27.2626 40.4159C27.9898 40.9874 28.8717 41.2883 29.7747 41.2883C30.0784 41.2883 30.3846 41.2543 30.6878 41.1851C31.3949 41.0237 32.0314 40.6824 32.5475 40.2047L39.0643 51.4921C39.2473 51.8091 39.5843 51.9999 39.9435 51.9999C39.988 51.9999 40.033 51.997 40.078 51.991C40.4857 51.9366 40.8205 51.6417 40.9257 51.2441L42.3357 45.9158L47.655 47.359C48.052 47.4668 48.4748 47.3242 48.7257 46.9983C48.9765 46.6724 49.0061 46.2273 48.8003 45.871ZM12.4069 48.3438L11.3655 44.4084C11.2963 44.1469 11.1258 43.9238 10.8916 43.7886C10.6573 43.6534 10.3789 43.6172 10.1179 43.688L6.18896 44.7539L11.5974 35.3862C11.8533 36.0569 12.2846 36.6552 12.8631 37.1167C13.8295 37.8873 15.0761 38.1765 16.2828 37.9098C16.9644 37.7593 17.6521 37.966 18.1334 38.4256L12.4069 48.3438ZM30.2358 39.2049C29.6311 39.3427 29.0052 39.2021 28.5179 38.8191C27.7764 38.2362 26.8881 37.9448 25.9994 37.9448C25.111 37.9448 24.2222 38.2363 23.481 38.8191C22.9937 39.2022 22.3678 39.3429 21.7631 39.2049C21.1587 39.0669 20.6556 38.6685 20.3827 38.1119C19.5525 36.4183 17.6862 35.5196 15.8446 35.9264C15.2392 36.0602 14.6141 35.9151 14.1295 35.5286C13.6448 35.1421 13.3643 34.5649 13.36 33.945C13.3469 32.0589 12.0554 30.4396 10.2195 30.007C9.61608 29.8649 9.1158 29.463 8.84677 28.9044C8.57784 28.3458 8.57561 27.7042 8.84068 27.1437C9.64706 25.4387 9.18618 23.4194 7.71977 22.2332C7.23777 21.8433 6.96142 21.2641 6.96142 20.6442C6.96142 20.0243 7.23787 19.4451 7.71987 19.0552C9.18618 17.869 9.64716 15.8497 8.84068 14.1446C8.57561 13.5842 8.57784 12.9424 8.84687 12.384C9.1158 11.8254 9.61618 11.4235 10.2195 11.2813C12.0554 10.8488 13.3469 9.22942 13.36 7.34336C13.3643 6.72344 13.6447 6.14618 14.1295 5.75975C14.6141 5.37321 15.2391 5.22808 15.8447 5.36194C17.6861 5.76848 19.5525 4.87009 20.3827 3.17648C20.6556 2.61984 21.1587 2.22142 21.7631 2.0835C22.3677 1.94568 22.9937 2.08614 23.481 2.46922C24.9638 3.63502 27.035 3.63502 28.5179 2.46922C29.0053 2.08614 29.6312 1.94568 30.2358 2.0835C30.8402 2.22142 31.3433 2.61984 31.6162 3.17648C32.4463 4.87009 34.3126 5.76848 36.1542 5.36194C36.7594 5.22798 37.3847 5.37321 37.8694 5.75975C38.354 6.14628 38.6345 6.72344 38.6389 7.34336C38.652 9.22942 39.9434 10.8488 41.7793 11.2813C42.3828 11.4235 42.8831 11.8254 43.1521 12.384C43.421 12.9425 43.4233 13.5842 43.1582 14.1447C42.3518 15.8497 42.8127 17.869 44.2791 19.0552C44.7611 19.4451 45.0374 20.0243 45.0374 20.6442C45.0374 21.2641 44.761 21.8433 44.279 22.2332C42.8127 23.4194 42.3517 25.4387 43.1582 27.1438C43.4233 27.7042 43.421 28.3459 43.152 28.9044C42.8831 29.463 42.3827 29.8649 41.7793 30.007C39.9434 30.4396 38.652 32.0589 38.6389 33.945C38.6345 34.5649 38.3541 35.1422 37.8694 35.5286C37.3847 35.9151 36.7596 36.0601 36.1541 35.9264C34.3126 35.5195 32.4463 36.4183 31.6162 38.1119C31.3433 38.6685 30.8402 39.0668 30.2358 39.2049ZM41.881 43.688C41.6199 43.6172 41.3415 43.6535 41.1073 43.7886C40.8731 43.9239 40.7025 44.1469 40.6333 44.4084L39.5919 48.3438L33.8656 38.4256C34.347 37.9659 35.0347 37.7591 35.716 37.9098C36.923 38.1764 38.1694 37.8873 39.1357 37.1167C39.7143 36.6553 40.1455 36.0569 40.4015 35.3862L45.8099 44.7539L41.881 43.688Z" fill="url(#paint0_linear)"/>
<path d="M30.8317 28.3244C31.0412 28.3244 31.2507 28.2597 31.4286 28.1304C31.7837 27.8725 31.9329 27.4156 31.7985 26.9979L30.1976 22.0206L34.4194 18.9187C34.7731 18.6588 34.9198 18.201 34.7831 17.7839C34.6463 17.3668 34.2571 17.0848 33.8181 17.0848H28.5939L26.9648 12.121C26.8279 11.704 26.4387 11.4221 25.9999 11.4221C25.5611 11.4221 25.1718 11.704 25.035 12.121L23.4059 17.0848H18.1817C17.7427 17.0848 17.3533 17.3668 17.2166 17.7839C17.0798 18.201 17.2266 18.6588 17.5804 18.9187L21.8021 22.0206L20.2013 26.9979C20.0669 27.4157 20.2161 27.8725 20.5711 28.1304C20.9263 28.3884 21.4069 28.389 21.7626 28.1322L26.0001 25.0726L30.2376 28.1322C30.4147 28.2603 30.6231 28.3244 30.8317 28.3244ZM26.5942 22.9966C26.4167 22.8685 26.2082 22.8044 25.9997 22.8044C25.7912 22.8044 25.5827 22.8685 25.4052 22.9966L23.0821 24.674L23.9595 21.9462C24.0932 21.5303 23.9461 21.0754 23.594 20.8168L21.2789 19.1157H24.1413C24.5801 19.1157 24.9694 18.8338 25.1062 18.4168L25.9997 15.6943L26.8932 18.4168C27.0301 18.8338 27.4193 19.1157 27.8581 19.1157H30.7205L28.4054 20.8168C28.0533 21.0754 27.9062 21.5302 28.0399 21.9462L28.9173 24.674L26.5942 22.9966Z" fill="url(#paint1_linear)"/>
<path d="M40.2179 20.6443C40.2179 12.8044 33.8395 6.42603 25.9996 6.42603C18.1596 6.42603 11.7812 12.8044 11.7812 20.6443C11.7812 26.6086 15.5468 31.9816 21.1513 34.0143C21.6785 34.2054 22.2611 33.9332 22.4524 33.4059C22.6436 32.8786 22.3712 32.2961 21.8439 32.1048C17.0401 30.3625 13.8125 25.7569 13.8125 20.6443C13.8125 13.9244 19.2797 8.45721 25.9997 8.45721C32.7196 8.45721 38.1868 13.9244 38.1868 20.6443C38.1868 25.7572 34.9589 30.3629 30.1548 32.1051C29.6275 32.2963 29.355 32.8788 29.5462 33.4061C29.696 33.819 30.0857 34.0757 30.501 34.0757C30.6159 34.0757 30.7328 34.056 30.8472 34.0146C36.452 31.9821 40.2179 26.609 40.2179 20.6443Z" fill="url(#paint2_linear)"/>
<path d="M25.999 32.8311C25.7319 32.8311 25.4699 32.9397 25.281 33.1286C25.0921 33.3175 24.9834 33.5796 24.9834 33.8467C24.9834 34.1138 25.0921 34.3758 25.281 34.5647C25.4699 34.7536 25.7319 34.8623 25.999 34.8623C26.2661 34.8623 26.5282 34.7536 26.7171 34.5647C26.906 34.3758 27.0146 34.1138 27.0146 33.8467C27.0146 33.5796 26.906 33.3175 26.7171 33.1286C26.5282 32.9397 26.2661 32.8311 25.999 32.8311Z" fill="url(#paint3_linear)"/>
</g>
<defs>
<linearGradient id="paint0_linear" x1="8.90918" y1="26.5098" x2="46.4184" y2="23.3317" gradientUnits="userSpaceOnUse">
<stop stop-color="#EE581C"/>
<stop offset="1" stop-color="#F38F46"/>
</linearGradient>
<linearGradient id="paint1_linear" x1="19.4178" y1="20.039" x2="33.8225" y2="18.5929" gradientUnits="userSpaceOnUse">
<stop stop-color="#EE581C"/>
<stop offset="1" stop-color="#F38F46"/>
</linearGradient>
<linearGradient id="paint2_linear" x1="15.4055" y1="20.522" x2="38.5976" y2="18.2311" gradientUnits="userSpaceOnUse">
<stop stop-color="#EE581C"/>
<stop offset="1" stop-color="#F38F46"/>
</linearGradient>
<linearGradient id="paint3_linear" x1="25.2423" y1="33.8666" x2="26.8998" y2="33.7074" gradientUnits="userSpaceOnUse">
<stop stop-color="#EE581C"/>
<stop offset="1" stop-color="#F38F46"/>
</linearGradient>
<clipPath id="clip0">
<rect width="52" height="52" fill="white"/>
</clipPath>
</defs>
</svg>
