<svg width="52" height="52" viewBox="0 0 52 52" fill="none" xmlns="http://www.w3.org/2000/svg">
<path d="M14.6962 20.3479H10.1744C9.55041 20.3479 9.04395 20.8544 9.04395 21.4784V30.5218C9.04395 31.1458 9.55041 31.6523 10.1744 31.6523C10.7984 31.6523 11.3049 31.1458 11.3049 30.5218V22.6087H14.6962C15.3202 22.6087 15.8266 22.1023 15.8266 21.4783C15.8266 20.8543 15.3202 20.3479 14.6962 20.3479Z" fill="url(#paint0_linear)"/>
<path d="M12.4352 24.8696H10.1744C9.55041 24.8696 9.04395 25.3761 9.04395 26.0001C9.04395 26.6241 9.55041 27.1305 10.1744 27.1305H12.4352C13.0592 27.1305 13.5657 26.624 13.5657 26C13.5657 25.376 13.0592 24.8696 12.4352 24.8696Z" fill="url(#paint1_linear)"/>
<path d="M25.9999 0C11.6639 0 0 11.6639 0 25.9999C0 40.336 11.6639 51.9999 25.9999 51.9999C40.336 51.9999 51.9999 40.336 51.9999 25.9999C51.9999 11.6639 40.3361 0 25.9999 0ZM25.9999 49.7391C12.9095 49.7391 2.26083 39.0904 2.26083 25.9999C2.26083 12.9095 12.9095 2.26083 25.9999 2.26083C39.0904 2.26083 49.7391 12.9095 49.7391 25.9999C49.7391 39.0904 39.0904 49.7391 25.9999 49.7391Z" fill="url(#paint2_linear)"/>
<path d="M40.9868 13.9878C37.3129 9.40956 31.8506 6.78247 25.9995 6.78247C20.1483 6.78247 14.6861 9.40956 11.0122 13.9878C10.621 14.4739 10.6979 15.1861 11.1863 15.5772C11.6724 15.9683 12.3846 15.8914 12.7734 15.4031C16.0177 11.3606 20.8379 9.0432 25.9995 9.0432C31.161 9.0432 35.9812 11.3606 39.2233 15.4031C39.4472 15.6811 39.7749 15.8258 40.1051 15.8258C40.356 15.8258 40.6048 15.7444 40.8127 15.5771C41.301 15.1861 41.378 14.4739 40.9868 13.9878Z" fill="url(#paint3_linear)"/>
<path d="M39.8902 37.6141C39.4426 37.1868 38.7236 37.2049 38.2941 37.657C35.0498 41.0732 30.684 42.9564 25.9995 42.9564C21.3149 42.9564 16.9492 41.0731 13.7072 37.657C13.2799 37.2003 12.5609 37.1868 12.111 37.6141C11.6544 38.0436 11.6385 38.7603 12.0681 39.2125C15.742 43.0854 20.6888 45.2174 25.9996 45.2174C31.3103 45.2174 36.2571 43.0854 39.9333 39.2125C40.3628 38.7603 40.3447 38.0436 39.8902 37.6141Z" fill="url(#paint4_linear)"/>
<path d="M21.9169 27.1012C23.5808 26.8863 24.8695 25.4598 24.8695 23.7392C24.8695 21.8694 23.348 20.3479 21.4782 20.3479H19.2174C18.5934 20.3479 18.0869 20.8544 18.0869 21.4784V25.991C18.0869 25.9956 18.0869 26.0024 18.0869 26.0068V30.5218C18.0869 31.1458 18.5934 31.6523 19.2174 31.6523C19.8414 31.6523 20.3479 31.1458 20.3479 30.5218V28.729L22.9388 31.3222C23.1604 31.5414 23.4497 31.6523 23.7392 31.6523C24.0286 31.6523 24.3179 31.5415 24.5373 31.3199C24.9781 30.8791 24.9781 30.1623 24.5373 29.7215L21.9169 27.1012ZM20.3479 24.8697V22.6088H21.4783C22.1001 22.6088 22.6088 23.1153 22.6088 23.7393C22.6088 24.3633 22.1001 24.8698 21.4783 24.8698H20.3479V24.8697Z" fill="url(#paint5_linear)"/>
<path d="M32.7821 29.3913H29.3908V22.6087H32.7821C33.4061 22.6087 33.9126 22.1023 33.9126 21.4783C33.9126 20.8543 33.4061 20.3479 32.7821 20.3479H28.2604C27.6364 20.3479 27.1299 20.8544 27.1299 21.4784V30.5218C27.1299 31.1458 27.6364 31.6523 28.2604 31.6523H32.7821C33.4061 31.6523 33.9126 31.1458 33.9126 30.5218C33.9126 29.8978 33.4061 29.3913 32.7821 29.3913Z" fill="url(#paint6_linear)"/>
<path d="M41.7821 29.3913H38.3908V22.6087H41.7821C42.4061 22.6087 42.9126 22.1023 42.9126 21.4783C42.9126 20.8543 42.4061 20.3479 41.7821 20.3479H37.2604C36.6364 20.3479 36.1299 20.8544 36.1299 21.4784V30.5218C36.1299 31.1458 36.6364 31.6523 37.2604 31.6523H41.7821C42.4061 31.6523 42.9126 31.1458 42.9126 30.5218C42.9126 29.8978 42.4061 29.3913 41.7821 29.3913Z" fill="url(#paint7_linear)"/>
<path d="M30.5212 24.8696H28.2603C27.6364 24.8696 27.1299 25.3761 27.1299 26.0001C27.1299 26.6241 27.6364 27.1305 28.2603 27.1305H30.5212C31.1452 27.1305 31.6516 26.624 31.6516 26C31.6516 25.376 31.1452 24.8696 30.5212 24.8696Z" fill="url(#paint8_linear)"/>
<path d="M39.5212 24.8696H37.2603C36.6364 24.8696 36.1299 25.3761 36.1299 26.0001C36.1299 26.6241 36.6364 27.1305 37.2603 27.1305H39.5212C40.1452 27.1305 40.6516 26.624 40.6516 26C40.6516 25.376 40.1452 24.8696 39.5212 24.8696Z" fill="url(#paint9_linear)"/>
<defs>
<linearGradient id="paint0_linear" x1="9.90841" y1="26.1109" x2="20.9569" y2="25.3633" gradientUnits="userSpaceOnUse">
<stop stop-color="#EE581C"/>
<stop offset="1" stop-color="#F38F46"/>
</linearGradient>
<linearGradient id="paint1_linear" x1="9.62025" y1="26.0222" x2="18.1799" y2="24.3558" gradientUnits="userSpaceOnUse">
<stop stop-color="#EE581C"/>
<stop offset="1" stop-color="#F38F46"/>
</linearGradient>
<linearGradient id="paint2_linear" x1="6.62744" y1="26.5098" x2="49.0595" y2="22.4345" gradientUnits="userSpaceOnUse">
<stop stop-color="#EE581C"/>
<stop offset="1" stop-color="#F38F46"/>
</linearGradient>
<linearGradient id="paint3_linear" x1="14.6466" y1="11.3932" x2="37.3635" y2="4.04183" gradientUnits="userSpaceOnUse">
<stop stop-color="#EE581C"/>
<stop offset="1" stop-color="#F38F46"/>
</linearGradient>
<linearGradient id="paint4_linear" x1="15.3875" y1="41.3381" x2="36.3426" y2="34.0935" gradientUnits="userSpaceOnUse">
<stop stop-color="#EE581C"/>
<stop offset="1" stop-color="#F38F46"/>
</linearGradient>
<linearGradient id="paint5_linear" x1="16.5" y1="26" x2="27.9619" y2="25.3395" gradientUnits="userSpaceOnUse">
<stop stop-color="#EE581C"/>
<stop offset="1" stop-color="#F38F46"/>
</linearGradient>
<linearGradient id="paint6_linear" x1="21.5" y1="26" x2="33.5465" y2="25.4167" gradientUnits="userSpaceOnUse">
<stop stop-color="#EE581C"/>
<stop offset="1" stop-color="#F38F46"/>
</linearGradient>
<linearGradient id="paint7_linear" x1="30.5" y1="26" x2="42.5465" y2="25.4167" gradientUnits="userSpaceOnUse">
<stop stop-color="#EE581C"/>
<stop offset="1" stop-color="#F38F46"/>
</linearGradient>
<linearGradient id="paint8_linear" x1="24" y1="26" x2="31.1697" y2="24.645" gradientUnits="userSpaceOnUse">
<stop stop-color="#EE581C"/>
<stop offset="1" stop-color="#F38F46"/>
</linearGradient>
<linearGradient id="paint9_linear" x1="33" y1="26" x2="40.1697" y2="24.645" gradientUnits="userSpaceOnUse">
<stop stop-color="#EE581C"/>
<stop offset="1" stop-color="#F38F46"/>
</linearGradient>
</defs>
</svg>
