<svg width="55" height="55" viewBox="0 0 55 55" fill="none" xmlns="http://www.w3.org/2000/svg">
<path d="M48.7973 27.7804L42.8136 18.5401C42.3498 17.8239 41.5635 17.3962 40.7103 17.3962H14.3095C13.4575 17.3962 12.672 17.8228 12.208 18.5372L6.2057 27.7787C5.59232 28.7229 5.68707 29.9696 6.43612 30.8103L25.6283 52.357C26.1033 52.8903 26.7853 53.1962 27.4994 53.1962C27.4995 53.1962 27.4994 53.1962 27.4995 53.1962C28.2135 53.1962 28.8957 52.8904 29.3707 52.3571L48.565 30.8091C49.313 29.9694 49.4085 28.724 48.7973 27.7804ZM39.4981 19.5446L34.4658 27.3262L29.4305 19.5446H39.4981ZM32.4915 28.2298H22.5073L27.4994 20.5149L32.4915 28.2298ZM25.5683 19.5448L20.5468 27.305L15.5271 19.5448H25.5683ZM13.5408 20.4294L18.5864 28.2298H8.47445L13.5408 20.4294ZM8.9282 30.3783H19.7397L25.4562 48.9338L8.9282 30.3783ZM27.4994 48.2686L21.9877 30.3783H33.0111L27.4994 48.2686ZM29.5425 48.9344L35.2592 30.3784H46.0717L29.5425 48.9344ZM36.4401 28.2298L41.4811 20.4348L46.5288 28.2298H36.4401Z" fill="url(#paint0_linear)"/>
<path d="M3.25843 28.2297H1.07422C0.481035 28.2297 0 28.7107 0 29.304C0 29.8972 0.481035 30.3782 1.07422 30.3782H3.25843C3.85161 30.3782 4.33265 29.8972 4.33265 29.304C4.33265 28.7107 3.85161 28.2297 3.25843 28.2297Z" fill="url(#paint1_linear)"/>
<path d="M53.9254 28.2297H51.7412C51.148 28.2297 50.667 28.7107 50.667 29.304C50.667 29.8972 51.148 30.3782 51.7412 30.3782H53.9254C54.5186 30.3782 54.9996 29.8972 54.9996 29.304C54.9996 28.7107 54.5186 28.2297 53.9254 28.2297Z" fill="url(#paint2_linear)"/>
<path d="M46.9588 9.86417C46.5392 9.44469 45.8592 9.44469 45.4395 9.86417L41.8713 13.4324C41.4518 13.8519 41.4518 14.5321 41.8713 14.9516C42.0812 15.1614 42.356 15.2662 42.6309 15.2662C42.9059 15.2662 43.1807 15.1613 43.3905 14.9516L46.9588 11.3833C47.3782 10.9639 47.3782 10.2838 46.9588 9.86417Z" fill="url(#paint3_linear)"/>
<path d="M13.1745 13.4132L9.60634 9.84489C9.18697 9.4254 8.50698 9.4254 8.08707 9.84489C7.66759 10.2644 7.66759 10.9446 8.08707 11.364L11.6553 14.9323C11.8651 15.1421 12.14 15.2469 12.4149 15.2469C12.6898 15.2469 12.9647 15.142 13.1745 14.9323C13.5939 14.5129 13.5939 13.8326 13.1745 13.4132Z" fill="url(#paint4_linear)"/>
<path d="M27.5273 1.80396C26.9342 1.80396 26.4531 2.28488 26.4531 2.87817V9.87864C26.4531 10.4719 26.9341 10.9529 27.5273 10.9529C28.1205 10.9529 28.6016 10.4719 28.6016 9.87864V2.87817C28.6016 2.28499 28.1205 1.80396 27.5273 1.80396Z" fill="url(#paint5_linear)"/>
<path d="M28.2867 12.753C28.087 12.5532 27.8099 12.4382 27.5273 12.4382C27.2448 12.4382 26.9677 12.5532 26.7679 12.753C26.5681 12.9528 26.4531 13.2299 26.4531 13.5124C26.4531 13.796 26.568 14.0721 26.7679 14.2719C26.9677 14.4728 27.2448 14.5867 27.5273 14.5867C27.8099 14.5867 28.087 14.4728 28.2867 14.2719C28.4876 14.0721 28.6016 13.795 28.6016 13.5124C28.6016 13.2299 28.4876 12.9529 28.2867 12.753Z" fill="url(#paint6_linear)"/>
<defs>
<linearGradient id="paint0_linear" x1="11.3335" y1="35.6472" x2="46.5931" y2="31.5423" gradientUnits="userSpaceOnUse">
<stop stop-color="#EE581C"/>
<stop offset="1" stop-color="#F38F46"/>
</linearGradient>
<linearGradient id="paint1_linear" x1="0.5522" y1="29.325" x2="3.99125" y2="28.6589" gradientUnits="userSpaceOnUse">
<stop stop-color="#EE581C"/>
<stop offset="1" stop-color="#F38F46"/>
</linearGradient>
<linearGradient id="paint2_linear" x1="22.9995" y1="29" x2="53.6986" y2="23.3791" gradientUnits="userSpaceOnUse">
<stop stop-color="#EE581C"/>
<stop offset="1" stop-color="#F38F46"/>
</linearGradient>
<linearGradient id="paint3_linear" x1="29" y1="12.5" x2="46.8253" y2="10.7519" gradientUnits="userSpaceOnUse">
<stop stop-color="#EE581C"/>
<stop offset="1" stop-color="#F38F46"/>
</linearGradient>
<linearGradient id="paint4_linear" x1="8.50105" y1="12.4446" x2="13.1658" y2="11.9966" gradientUnits="userSpaceOnUse">
<stop stop-color="#EE581C"/>
<stop offset="1" stop-color="#F38F46"/>
</linearGradient>
<linearGradient id="paint5_linear" x1="24" y1="6.5" x2="29.9969" y2="6.36475" gradientUnits="userSpaceOnUse">
<stop stop-color="#EE581C"/>
<stop offset="1" stop-color="#F38F46"/>
</linearGradient>
<linearGradient id="paint6_linear" x1="24.5005" y1="13.5" x2="29.9502" y2="12.9766" gradientUnits="userSpaceOnUse">
<stop stop-color="#EE581C"/>
<stop offset="1" stop-color="#F38F46"/>
</linearGradient>
</defs>
</svg>
