<svg width="72" height="72" viewBox="0 0 72 72" fill="none" xmlns="http://www.w3.org/2000/svg">
<path d="M36 0C16.1504 0 0 16.1504 0 36C0 55.8496 16.1504 72 36 72C55.8496 72 72 55.8496 72 36C72 16.1504 55.8496 0 36 0ZM56.1203 26.5263L33.1128 49.3534C31.7594 50.7068 29.594 50.797 28.1504 49.4436L15.9699 38.3459C14.5263 36.9925 14.4361 34.7368 15.6992 33.2932C17.0526 31.8496 19.3083 31.7594 20.7519 33.1128L30.406 41.9549L50.9774 21.3835C52.4211 19.9398 54.6767 19.9398 56.1203 21.3835C57.5639 22.8271 57.5639 25.0827 56.1203 26.5263Z" fill="#4B9B49"/>
</svg>
