<svg width="20" height="20" viewBox="0 0 20 20" fill="none" xmlns="http://www.w3.org/2000/svg">
<path d="M10 20C15.5228 20 20 15.5228 20 10C20 4.47715 15.5228 0 10 0C4.47715 0 0 4.47715 0 10C0 15.5228 4.47715 20 10 20Z" fill="url(#paint0_linear)"/>
<path d="M4.57611 9.78335L14.2178 6.06585C14.6653 5.90419 15.0561 6.17502 14.9111 6.85169L14.9119 6.85085L13.2703 14.585C13.1486 15.1334 12.8228 15.2667 12.3669 15.0084L9.86695 13.1659L8.66111 14.3275C8.52778 14.4609 8.41528 14.5734 8.15695 14.5734L8.33445 12.0292L12.9678 7.84335C13.1694 7.66585 12.9228 7.56585 12.6569 7.74252L6.93111 11.3475L4.46278 10.5775C3.92695 10.4075 3.91528 10.0417 4.57611 9.78335Z" fill="white"/>
<defs>
<linearGradient id="paint0_linear" x1="2.54902" y1="10.1961" x2="18.8691" y2="8.62865" gradientUnits="userSpaceOnUse">
<stop stop-color="#EE581C"/>
<stop offset="1" stop-color="#F38F46"/>
</linearGradient>
</defs>
</svg>
