<svg width="103" height="103" viewBox="0 0 103 103" fill="none" xmlns="http://www.w3.org/2000/svg">
<path d="M53.6256 55.2584C53.6256 55.2584 53.1207 53.7037 52.8996 53.2318C52.4194 52.2064 52.2327 51.0674 52.3793 49.9446C52.7073 47.4334 52.794 44.8713 52.869 42.4673C52.9929 38.5024 52.5087 33.9462 49.7873 30.851C47.5593 28.317 44.2874 26.8467 40.9116 26.8684C39.609 26.8769 38.5695 27.9636 38.5695 29.2662V36.1758C38.5695 41.5226 37.584 47.5803 34.1188 51.8485C29.5385 57.4904 23.9103 56.7283 17.4404 56.7376V94.8589H22.6309C24.0151 94.8589 25.3527 95.3367 26.4358 96.1989C28.2017 97.6045 31.6518 101.23 36.9535 101.23H70.0155V55.2584H53.6256Z" fill="#FED2A4"/>
<path d="M14.9127 102.824H4.05965C1.81759 102.824 0 101.006 0 98.7639V53.3238C0 51.0817 1.81759 49.2642 4.05965 49.2642H14.9127C17.1547 49.2642 18.9723 51.0817 18.9723 53.3238V98.7637C18.9721 101.006 17.1547 102.824 14.9127 102.824Z" fill="#57BE92"/>
<path d="M18.9727 53.3244V98.7637C18.9727 101.007 17.1547 102.823 14.9114 102.823H10.7842C13.0274 102.823 14.8454 101.007 14.8454 98.7637V53.3244C14.8454 51.0811 13.0274 49.2651 10.7842 49.2651H14.9114C17.1547 49.2651 18.9727 51.0813 18.9727 53.3244Z" fill="#09A76D"/>
<path d="M40.9111 26.8679C44.287 26.846 47.5589 28.3164 49.7869 30.8505C52.5083 33.9457 52.9925 38.5019 52.8686 42.4668C52.7936 44.8708 52.7069 47.4329 52.379 49.9441C52.2323 51.0669 52.419 52.2059 52.8992 53.2313C53.0378 53.5272 53.2879 54.2484 53.4552 54.7455C53.7512 55.6244 53.966 56.6771 54.0087 57.6023C54.0825 59.2049 53.826 61.0637 52.9203 63.0768C52.9203 63.0768 51.2383 66.882 46.5878 68.9456C44.9018 69.6937 42.9842 68.7748 42.8872 66.8546C42.8522 66.1626 43.1083 65.5088 43.5644 65.001C44.4174 64.0513 45.6908 63.632 46.6256 62.7829C47.8816 61.6425 48.704 60.1628 48.6848 58.435C48.6704 57.1266 48.3398 55.8334 47.8701 54.6185C47.4738 53.594 47.0658 52.5612 46.9759 51.4555C46.9206 50.7752 47.0059 50.0666 47.0875 49.3919C47.2442 48.096 47.5162 46.8137 47.5824 45.5077C47.6691 43.7983 47.5325 42.0809 47.2181 40.3995C46.5898 37.0386 45.2659 33.8073 43.4507 30.9151L40.9111 26.8679Z" fill="#FFBD86"/>
<path d="M82.7672 2.62286L86.8355 10.8663C87.4748 12.1616 88.7104 13.0593 90.1397 13.2671L99.2367 14.589C102.836 15.112 104.274 19.5356 101.669 22.0746L95.0861 28.4912C94.0517 29.4994 93.5798 30.9521 93.824 32.3756L95.378 41.436C95.993 45.021 92.2301 47.755 89.0103 46.0623L80.8737 41.7846C79.5953 41.1125 78.0678 41.1125 76.7893 41.7846L68.6527 46.0623C65.4332 47.755 61.6703 45.021 62.285 41.436L63.8391 32.3756C64.0833 30.9519 63.6114 29.4992 62.5769 28.4912L55.9942 22.0746C53.3894 19.5356 54.8268 15.112 58.4264 14.589L67.5234 13.2671C68.9527 13.0595 70.1885 12.1616 70.8276 10.8663L74.8959 2.62286C76.5061 -0.638937 81.1574 -0.638937 82.7672 2.62286Z" fill="#FEE45A"/>
<path d="M95.086 28.4905C94.0522 29.4995 93.5816 30.9524 93.825 32.3763L95.3789 41.4357C95.9939 45.0202 92.2297 47.7545 89.0106 46.0624L88.54 45.8148C90.1683 44.9584 91.2681 43.1382 90.907 41.0353L89.3035 31.6808C89.0518 30.2115 89.5389 28.7113 90.6057 27.6691L97.4033 21.0449C99.4649 19.037 99.0748 15.8858 97.1061 14.2803L99.238 14.5899C102.837 15.1119 104.275 19.5365 101.669 22.0747L95.086 28.4905Z" fill="#FED402"/>
<path d="M78.2464 66.6715H64.9295C61.7485 66.6715 59.1699 64.0928 59.1699 60.9119C59.1699 57.731 61.7485 55.1523 64.9295 55.1523H78.2464C81.4274 55.1523 84.006 57.731 84.006 60.9119C84.006 64.0928 81.4274 66.6715 78.2464 66.6715Z" fill="#FFCB94"/>
<path d="M78.4418 89.7093H65.1248C61.9439 89.7093 59.3652 87.1307 59.3652 83.9497C59.3652 80.7688 61.9439 78.1902 65.1248 78.1902H78.4418C81.6227 78.1902 84.2013 80.7688 84.2013 83.9497C84.2013 87.1307 81.6227 89.7093 78.4418 89.7093Z" fill="#FFCB94"/>
<path d="M75.1517 101.23H61.8348C58.6538 101.23 56.0752 98.6509 56.0752 95.47C56.0752 92.2891 58.6538 89.7104 61.8348 89.7104H75.1517C78.3327 89.7104 80.9113 92.2891 80.9113 95.47C80.9113 98.6509 78.3327 101.23 75.1517 101.23Z" fill="#FFCB94"/>
<path d="M81.1468 78.1905H67.8299C64.6489 78.1905 62.0703 75.6119 62.0703 72.4309C62.0703 69.25 64.6489 66.6714 67.8299 66.6714H81.1468C84.3278 66.6714 86.9064 69.25 86.9064 72.4309C86.9062 75.6119 84.3276 78.1905 81.1468 78.1905Z" fill="#FFCB94"/>
<path d="M84.0054 60.9126C84.0054 61.6411 83.8688 62.3408 83.6204 62.9823C82.7905 60.8237 80.6981 59.2922 78.2477 59.2922H64.9297C63.3382 59.2922 61.8998 59.9359 60.8568 60.979C60.2939 61.5441 59.8469 62.2249 59.555 62.9825C59.3065 62.341 59.1699 61.6415 59.1699 60.9128C59.1699 59.3234 59.8157 57.883 60.8565 56.8399C61.8996 55.7968 63.338 55.1531 64.9295 55.1531H78.2475C81.4268 55.1529 84.0054 57.7315 84.0054 60.9126Z" fill="#FFBD86"/>
<path d="M84.2007 83.951C84.2007 84.6794 84.0641 85.3791 83.8156 86.0206C82.9858 83.8621 80.8934 82.3305 78.443 82.3305H65.125C63.5335 82.3305 62.0951 82.9743 61.0521 84.0174C60.4892 84.5825 60.0422 85.2632 59.7503 86.0209C59.5018 85.3793 59.3652 84.6798 59.3652 83.9512C59.3652 82.3617 60.011 80.9213 61.0519 79.8782C62.0949 78.8352 63.5333 78.1914 65.1248 78.1914H78.4428C81.6219 78.1912 84.2007 80.77 84.2007 83.951Z" fill="#FFBD86"/>
<path d="M80.9114 95.4693C80.9114 96.1999 80.7769 96.8974 80.5264 97.5389C79.6966 95.3803 77.602 93.8488 75.1517 93.8488H61.8357C60.2463 93.8488 58.8059 94.4946 57.7628 95.5354C57.1977 96.1005 56.7507 96.7793 56.461 97.5389C56.2106 96.8974 56.0762 96.1999 56.0762 95.4693C56.0762 93.8778 56.7197 92.4394 57.7628 91.3963C58.8059 90.3553 60.2463 89.7097 61.8357 89.7097H75.1517C78.3326 89.7095 80.9114 92.2883 80.9114 95.4693Z" fill="#FFBD86"/>
<path d="M86.9056 72.4314C86.9056 73.1599 86.771 73.8596 86.5205 74.5011C85.6907 72.3425 83.5983 70.811 81.1478 70.811H67.8299C66.2404 70.811 64.8 71.4545 63.7569 72.4978C63.1918 73.0629 62.7448 73.7437 62.4552 74.5013C62.2047 73.8598 62.0703 73.1601 62.0703 72.4316C62.0703 70.8422 62.7139 69.4018 63.7569 68.3587C64.8 67.3156 66.2404 66.6719 67.8299 66.6719H81.1478C84.3288 66.6717 86.9056 69.2505 86.9056 72.4314Z" fill="#FFBD86"/>
</svg>
