<svg width="103" height="103" viewBox="0 0 103 103" fill="none" xmlns="http://www.w3.org/2000/svg">
<path d="M47.2168 45.1765L46.0207 45.9217L41.7263 61.6559C41.4012 62.7614 40.7027 63.7197 39.75 64.3675L35.3441 67.3634C33.7683 68.4348 31.9069 69.0077 30.0014 69.0077C28.5336 71.6232 25.8616 74.5345 23.2454 74.554C20.5897 74.574 17.9894 71.6628 16.4997 69.0077C16.4997 69.0077 0 71.4025 0 85.6619V100.712C0 101.753 0.843916 102.597 1.88498 102.597H7.27578C7.27578 102.597 7.97164 101.562 8.83004 101.562C9.68844 101.562 10.3843 102.597 10.3843 102.597H18.6641L19.6159 101.528H26.8745L27.8263 102.597H30.7622L32.4893 101.528V83.5589C32.4893 82.209 33.036 80.9169 34.0049 79.977L46.3061 68.0443C46.7548 67.6092 47.0903 67.0709 47.2836 66.4764L51.4598 45.1767H47.2168V45.1765Z" fill="#FC8086"/>
<path d="M49.5703 45.1765L45.5571 65.9063C45.3638 66.5007 45.0282 67.0391 44.5796 67.4742L32.2783 79.4069C31.3095 80.3468 30.7627 81.6389 30.7627 82.9888V102.597H36.2493C37.2903 102.597 38.1342 101.753 38.1342 100.712V81.7123C38.1342 81.1786 38.3505 80.6677 38.7335 80.2961L48.5171 70.8056C49.2673 70.0778 49.7694 69.1323 49.9521 68.1033L53.7868 45.1765H49.5703Z" fill="#FB636F"/>
<path d="M23.2513 78.3551C26.5338 78.3551 31.7573 69.5946 30.7433 69.3995L30.0022 69.0076C29.0388 68.4983 28.4359 67.4978 28.4359 66.4081V59.2659H18.0667V66.4081C18.0667 67.4978 17.464 68.4985 16.5004 69.0076L15.7593 69.3995C14.7453 69.5946 19.9688 78.3551 23.2513 78.3551Z" fill="#FFEAE1"/>
<path d="M26.7277 63.9494C28.6925 62.2221 29.7736 59.6869 29.8185 57.0574L29.8012 38.832C27.9094 37.8012 25.3629 37.3924 23.2508 37.4588V37.4592V37.4588C17.8258 37.2882 13.0305 39.6367 13.007 45.2719L12.9957 47.989L12.3214 47.9862C11.333 47.9819 10.5281 48.7896 10.5241 49.7901L10.5156 53.6489C10.5114 54.6496 11.3095 55.4639 12.2978 55.4681L12.9748 55.4712C13.0196 58.1007 14.1005 60.636 16.0656 62.3631C18.5177 64.5185 20.7845 64.9967 23.6795 65.0168C24.3657 65.0061 25.0111 64.9297 25.62 64.8047C26.0183 64.5336 26.3895 64.2465 26.7277 63.9494Z" fill="#FFEAE1"/>
<path d="M10.5244 44.5379V49.7903H12.8319C14.6778 49.7903 16.1743 48.2938 16.1743 46.4478V38.1978C12.9944 38.5617 10.5244 41.2606 10.5244 44.5379Z" fill="#FBA65C"/>
<path d="M29.8062 44.3488L29.7979 35.5373C28.8396 35.2007 27.81 35.0156 26.7367 35.0156H12.2369C11.2863 35.0156 10.5156 35.7861 10.5156 36.7369C10.5156 40.2435 13.3582 43.086 16.8648 43.086H27.3909C28.3916 43.086 29.2741 43.5862 29.8062 44.3488Z" fill="#FBA65C"/>
<path d="M35.9773 49.7902C35.973 48.7896 35.1683 47.9819 34.18 47.9861L33.5057 47.9889L33.4944 45.2719C33.4789 41.5392 31.4535 39.3542 28.5924 38.282L28.6142 56.8499C28.5693 59.4795 27.4884 62.0148 25.5234 63.7419C25.0065 64.1961 24.4197 64.6309 23.7627 65.0133C26.6686 64.9457 28.869 63.7403 30.4358 62.3631C32.4006 60.636 33.4817 58.1006 33.5266 55.4711L34.2035 55.4681C35.1921 55.4639 35.9899 54.6493 35.9859 53.6489L35.9773 49.7902Z" fill="#FFDBCC"/>
<path d="M35.9759 49.743V44.255C35.9759 39.7868 32.8038 36.0595 28.5889 35.2017L28.5983 43.3469C29.6219 43.8084 30.3356 44.8354 30.3356 46.0309V46.4476C30.3356 48.2935 31.8322 49.79 33.6781 49.79H35.9856L35.9759 49.743Z" fill="#FB9538"/>
<path d="M27.4318 76.6824L23.244 74.2227L19.0562 76.6824C18.9779 76.7285 18.8981 76.7699 18.8174 76.8083L21.3676 80.5863H25.1201L27.7991 76.8636C27.6746 76.8109 27.5513 76.7528 27.4318 76.6824Z" fill="#BFE0FD"/>
<path d="M25.1215 80.5864H21.369L18.6641 102.597H27.8264L25.1215 80.5864Z" fill="#E6F1FF"/>
<path d="M14.6539 69.0025L12.1833 70.1118C11.4904 70.4228 11.2802 71.3061 11.7588 71.896L15.0546 75.9582C16.0262 77.1558 17.7274 77.4638 19.0571 76.6826L23.2449 74.2229L16.8601 69.2459C16.2236 68.7702 15.3789 68.677 14.6539 69.0025Z" fill="#FB636F"/>
<path d="M31.8352 69.0025L34.3058 70.1118C34.9986 70.4228 35.2088 71.3061 34.7303 71.896L31.4345 75.9582C30.4628 77.1558 28.7617 77.4638 27.4319 76.6827L23.2441 74.2229L29.6289 69.2459C30.2656 68.7702 31.1102 68.677 31.8352 69.0025Z" fill="#FB636F"/>
<path d="M86.2035 69.5155C84.6802 72.0204 82.2418 74.5727 79.7547 74.554C77.1385 74.5343 74.4665 71.6231 72.9988 69.0077C71.0933 69.0077 69.2318 68.4348 67.656 67.3633L63.2502 64.3675C62.2974 63.7197 61.599 62.7613 61.2739 61.6559L56.9816 45.9299L55.9732 45.1763H49.9976L49.3369 45.9154L53.0481 68.1028C53.2308 69.132 53.7329 70.0775 54.4831 70.8052L64.2667 80.2957C64.6497 80.6672 64.866 81.1782 64.866 81.7119V100.711C64.866 101.752 65.7099 102.596 66.751 102.596H75.1734L76.1252 101.528H83.3839L84.3356 102.596H92.6154C92.6154 102.596 93.3113 101.561 94.1697 101.561C94.9364 101.561 95.5719 102.382 95.6992 102.558L97.3365 101.666V85.647C97.3367 76.6025 91.3179 71.8897 86.2035 69.5155Z" fill="#7AABDC"/>
<path d="M86.4998 69.0078C86.1448 69.6407 85.7259 70.2879 85.2588 70.9067C89.9525 73.0178 95.628 77.2985 95.628 85.6618V102.597H101.115C102.156 102.597 103 101.753 103 100.712V85.6618C103 71.4026 86.4998 69.0078 86.4998 69.0078Z" fill="#5F98D5"/>
<path d="M79.7493 78.3548C76.4668 78.3548 71.2434 69.5944 72.2573 69.3993L72.9984 69.0074C73.9618 68.498 74.5647 67.4976 74.5647 66.4078V59.2656H84.9339V66.4078C84.9339 67.4976 85.5366 68.4982 86.5002 69.0074L87.2414 69.3993C88.2553 69.5944 83.0319 78.3548 79.7493 78.3548Z" fill="#FFEAE1"/>
<path d="M75.5675 76.6824L79.7553 74.2227L83.9431 76.6824C84.0214 76.7285 84.1012 76.7699 84.1819 76.8083L81.6317 80.5863H77.8792L75.2002 76.8636C75.3247 76.8109 75.448 76.7528 75.5675 76.6824Z" fill="#BFE0FD"/>
<path d="M77.8788 80.5864H81.6312L84.3362 102.597H75.1738L77.8788 80.5864Z" fill="#E6F1FF"/>
<path d="M88.3449 69.0025L90.8155 70.1118C91.5084 70.4228 91.7186 71.3061 91.24 71.896L87.9442 75.9582C86.9726 77.1558 85.2714 77.4638 83.9417 76.6827L79.7539 74.2229L86.1387 69.2459C86.7752 68.7702 87.6199 68.677 88.3449 69.0025Z" fill="#5F98D5"/>
<path d="M71.1636 69.0025L68.693 70.1118C68.0002 70.4228 67.79 71.3061 68.2686 71.896L71.5644 75.9582C72.536 77.1558 74.2371 77.4638 75.5669 76.6827L79.7547 74.2229L73.3699 69.2459C72.7332 68.7702 71.8886 68.677 71.1636 69.0025Z" fill="#5F98D5"/>
<path d="M86.2417 57.7674L86.2159 38.8174C84.481 37.8727 82.2921 37.4573 80.0035 37.4412C74.8364 37.5216 70.1662 39.6253 70.19 45.3193L70.198 47.228L70.2012 48.0264L69.5645 48.0268C68.1479 48.0276 67 49.1767 67.001 50.5934L67.0026 52.9193C67.0036 54.3356 68.1523 55.4829 69.5685 55.4823L70.227 55.4818C70.2934 58.1015 71.3916 60.6186 73.3638 62.3227C74.9515 63.6947 77.1803 64.8886 80.1178 64.9094C81.397 64.8894 82.5399 64.6478 83.5528 64.2672C85.2624 62.5649 86.2 60.2072 86.2417 57.7674Z" fill="#FFEAE1"/>
<path d="M84.6875 42.4047L84.7252 42.4049C85.2681 42.4073 85.7779 42.5499 86.2217 42.7984L86.2112 35.2158C85.8781 35.0884 85.5178 35.0156 85.1398 35.0156H75.5753C71.3187 35.0156 67.8682 38.4661 67.8682 42.7227V47.816C67.8682 48.5641 68.3415 49.2302 69.048 49.4763L70.9465 50.1373C71.6102 50.3683 72.303 49.875 72.302 49.1723L72.2978 45.5808C72.2905 43.8342 73.6834 42.4121 75.4091 42.4047L75.4467 42.4045C75.9748 42.4023 76.4972 42.4843 76.9963 42.6445C78.9032 43.2572 81.2312 43.2572 83.1383 42.6445C83.6368 42.4845 84.1593 42.4025 84.6875 42.4047Z" fill="#8F818F"/>
<path d="M92.3713 49.7372C92.3671 48.7402 91.5654 47.9355 90.5805 47.9397L89.9085 47.9425L89.8973 45.2352C89.882 41.5887 87.9409 39.4265 85.1786 38.3362L85.2052 57.7674C85.1605 60.3874 84.0834 62.9138 82.1254 64.6348C82.1011 64.6561 82.0753 64.677 82.0508 64.6981C84.051 64.2876 85.6403 63.3284 86.8495 62.2652C88.8073 60.5441 89.8846 58.0178 89.9293 55.3978L90.6038 55.395C91.5887 55.3907 92.384 54.5792 92.3797 53.5822L92.3713 49.7372Z" fill="#FFDBCC"/>
<path d="M89.26 39.0355H89.1588C88.5984 39.0355 88.1439 38.5811 88.1439 38.0206C88.1439 36.3728 86.8172 35.0362 85.1738 35.0173L85.1839 42.4448C86.6899 42.677 87.842 43.9928 87.8353 45.5809L87.8319 49.1728C87.8309 49.8753 88.5239 50.3686 89.1874 50.1374L91.0853 49.4764C91.7918 49.2303 92.2651 48.5642 92.2651 47.8161V42.0406C92.2649 40.381 90.9197 39.0355 89.26 39.0355Z" fill="#786E79"/>
<path d="M94.1695 88.4324C93.3109 88.4324 92.6152 89.1282 92.6152 89.9866V102.597H95.6282L95.724 102.545V89.9866C95.7238 89.1282 95.0279 88.4324 94.1695 88.4324Z" fill="#3986CE"/>
<path d="M10.3839 102.597V89.9866C10.3839 89.128 9.68805 88.4324 8.82965 88.4324C7.97124 88.4324 7.27539 89.1282 7.27539 89.9866V102.597H10.3839Z" fill="#FA4954"/>
<path d="M53.4824 24.4148H49.5173C49.5173 35.5124 42.2979 40.8867 42.2979 40.8867H60.7019C60.7019 40.8867 53.4824 35.5124 53.4824 24.4148Z" fill="#FBE77B"/>
<path d="M54.8316 38.8344C54.8316 38.4521 54.658 38.1108 54.3852 37.884H42.8036C42.1214 37.884 41.5684 38.4371 41.5684 39.1192V44.8524C41.5684 45.5346 42.1214 46.0876 42.8036 46.0876H54.8316V38.8344Z" fill="#FBD307"/>
<path d="M60.1958 37.884H52.9424C53.6246 37.884 54.1776 38.4371 54.1776 39.1192V46.0878H60.1958C60.878 46.0878 61.431 45.5348 61.431 44.8526V39.1194C61.431 38.4371 60.878 37.884 60.1958 37.884Z" fill="#F9C301"/>
<path d="M48.7823 7.06662L47.5278 6.84814L46.2574 9.36098C46.0886 9.69493 45.769 9.92708 45.3992 9.98441L36.1866 11.4141C35.2457 11.5602 34.8707 12.7141 35.546 13.3852L42.1589 19.9571C42.4245 20.221 42.5464 20.5964 42.4867 20.966L40.9996 30.1696C40.8477 31.1095 41.8294 31.8228 42.6764 31.3879L50.9701 27.1295C51.303 26.9585 51.6979 26.9585 52.0309 27.1295L54.2719 28.2802L55.2532 27.6618C53.9281 20.5657 51.7597 13.6502 48.7823 7.06662Z" fill="#FCDD2E"/>
<path d="M67.4542 13.3854C68.1296 12.7143 67.7546 11.5604 66.8137 11.4143L57.601 9.98458C57.2313 9.92724 56.9116 9.69509 56.7428 9.36115L52.5361 1.04088C52.1066 0.191127 50.8932 0.191127 50.4636 1.04088L47.5273 6.84811L48.2918 8.53855C51.1376 14.8312 53.1457 21.4683 54.2712 28.28L60.3239 31.3877C61.1708 31.8226 62.1525 31.1092 62.0007 30.1694L60.5136 20.9657C60.4538 20.5962 60.576 20.2208 60.8415 19.9569L67.4542 13.3854Z" fill="#FBD307"/>
</svg>
