<svg width="98" height="98" viewBox="0 0 98 98" fill="none" xmlns="http://www.w3.org/2000/svg">
<g clip-path="url(#clip0)">
<path d="M20.2736 35.6138C19.5661 35.4016 19.0865 34.7443 19.0865 34.0056V29.5183H12.398V34.0056C12.398 34.7441 11.9181 35.4016 11.2109 35.6138C4.72563 37.5601 0 43.574 0 50.693V63.2717C0 65.2142 1.5747 66.7889 3.51728 66.7889C5.45986 66.7889 7.03456 65.2142 7.03456 63.2717L7.04988 91.6869C7.04988 94.0756 8.99514 96.0121 11.3946 96.0121C13.7941 96.0121 15.7393 94.0756 15.7393 91.6869H15.7453C15.7453 94.0756 17.6905 96.0121 20.09 96.0121C22.4895 96.0121 24.4347 94.0756 24.4347 91.6869V63.2697L24.45 63.2715C24.45 65.2141 26.0247 66.7888 27.9673 66.7888C29.9099 66.7888 31.4846 65.2141 31.4846 63.2715V50.6928C31.4844 43.574 26.7588 37.5601 20.2736 35.6138Z" fill="#57BE92"/>
<path d="M17.5596 67.7242L17.554 95.1988C16.4571 94.4137 15.7448 93.1331 15.7448 91.6871H15.7389C15.7389 92.8826 15.2516 93.9638 14.4664 94.745C14.2988 94.9126 14.1173 95.0665 13.9219 95.2047V67.7238C13.9219 66.7193 14.7361 65.905 15.7406 65.905C16.7455 65.905 17.5599 66.7195 17.5596 67.7242Z" fill="#09A76D"/>
<path d="M31.4838 50.6922V63.2712C31.4838 64.242 31.0903 65.1227 30.4541 65.7589C29.8178 66.3951 28.9372 66.7887 27.9663 66.7887C27.3181 66.7887 26.7113 66.6135 26.1893 66.3067C26.4494 66.1559 26.6887 65.9704 26.9002 65.7589C27.5364 65.1227 27.93 64.242 27.93 63.2712V50.6922C27.93 44.9418 23.8232 41.0013 18.0138 38.9176C16.5315 38.3855 15.5312 36.9934 15.5312 35.4176V29.5181H19.0851V34.0064C19.0851 34.7448 19.5653 35.4019 20.2726 35.6134C26.7582 37.5602 31.4838 43.574 31.4838 50.6922Z" fill="#09A76D"/>
<path d="M15.4941 32.7338C21.5109 32.7338 26.3885 27.8561 26.3885 21.8393C26.3885 15.8224 21.5109 10.9448 15.4941 10.9448C9.47723 10.9448 4.59961 15.8224 4.59961 21.8393C4.59961 27.8561 9.47723 32.7338 15.4941 32.7338Z" fill="#FED2A4"/>
<path d="M26.3887 21.8389C26.3887 27.8551 21.5109 32.7329 15.4946 32.7329C13.4659 32.7329 11.5655 32.1788 9.93945 31.2118C10.7399 31.4 11.5754 31.4997 12.4342 31.4997C18.4521 31.4997 23.3301 26.6234 23.3301 20.6056C23.3301 16.6181 21.1865 13.1299 17.9894 11.2327C22.8041 12.3595 26.3887 16.6814 26.3887 21.8389Z" fill="#FFBD86"/>
<path d="M86.7892 35.6138C86.0817 35.4016 85.6021 34.7443 85.6021 34.0056V29.5183H78.9134V34.0056C78.9134 34.7441 78.4335 35.4016 77.7263 35.6138C71.2411 37.5599 66.5156 43.574 66.5156 50.6928V63.2715C66.5156 65.214 68.0903 66.7887 70.0329 66.7887C71.9755 66.7887 73.5502 65.214 73.5502 63.2715L73.5655 91.6867C73.5655 94.0754 75.5108 96.0119 77.9102 96.0119C80.3097 96.0119 82.255 94.0754 82.255 91.6867H82.2609C82.2609 94.0754 84.2061 96.0119 86.6056 96.0119C89.0051 96.0119 90.9503 94.0754 90.9503 91.6867V63.2697L90.9657 63.2715C90.9657 65.214 92.5404 66.7887 94.4829 66.7887C96.4255 66.7887 98.0002 65.214 98.0002 63.2715V50.6928C98 43.574 93.2744 37.5601 86.7892 35.6138Z" fill="#57BE92"/>
<path d="M84.0762 67.7244L84.0706 95.1991C82.9737 94.4139 82.2614 93.1334 82.2614 91.6873H82.2555C82.2555 92.8828 81.7682 93.9641 80.983 94.7452C80.8154 94.9129 80.6339 95.0668 80.4385 95.205V67.724C80.4385 66.7195 81.2527 65.9053 82.2572 65.9053C83.2619 65.9053 84.0763 66.7197 84.0762 67.7244Z" fill="#09A76D"/>
<path d="M97.9994 50.6924V63.2715C97.9994 64.2423 97.6059 65.1229 96.9697 65.7592C96.3334 66.3954 95.4528 66.7889 94.482 66.7889C93.8337 66.7889 93.2269 66.6138 92.705 66.307C92.9651 66.1561 93.2043 65.9707 93.4158 65.7592C94.0521 65.1229 94.4456 64.2423 94.4456 63.2715V50.6924C94.4456 44.942 90.3388 41.0015 84.5294 38.9179C83.0472 38.3858 82.0469 36.9937 82.0469 35.4178V29.5183H85.6007V34.0066C85.6007 34.745 86.081 35.4021 86.7882 35.6136C93.2736 37.5604 97.9994 43.5742 97.9994 50.6924Z" fill="#09A76D"/>
<path d="M82.0097 32.7338C88.0265 32.7338 92.9042 27.8561 92.9042 21.8393C92.9042 15.8224 88.0265 10.9448 82.0097 10.9448C75.9929 10.9448 71.1152 15.8224 71.1152 21.8393C71.1152 27.8561 75.9929 32.7338 82.0097 32.7338Z" fill="#FED2A4"/>
<path d="M92.9043 21.8391C92.9043 27.8554 88.0265 32.7332 82.0103 32.7332C79.9815 32.7332 78.0811 32.1791 76.4551 31.2121C77.2555 31.4002 78.091 31.5 78.9499 31.5C84.9677 31.5 89.8457 26.6237 89.8457 20.6059C89.8457 16.6183 87.7021 13.1301 84.505 11.2329C89.3195 12.3597 92.9043 16.6817 92.9043 21.8391Z" fill="#FFBD86"/>
<path d="M78.7265 20.5231C77.4343 19.1187 75.3302 18.8228 73.7007 19.8162L63.7742 26.8931L59.4199 29.4849C58.3812 30.1032 57.1066 30.1769 56.0035 29.6825C54.1894 28.8692 53.0218 27.0663 53.0218 25.0782V24.8824H45.3274V24.921C45.3274 26.9092 44.1599 28.712 42.3457 29.5253L41.9954 29.6823C40.8925 30.1767 39.6178 30.103 38.5792 29.4847L34.2249 26.8929L24.2984 19.816C22.6689 18.8226 20.5648 19.1186 19.2726 20.5229C17.5923 22.3489 17.963 25.2487 20.0488 26.5932L37.3025 38.8012C38.147 39.3778 38.6523 40.3344 38.6523 41.3571V90.7451C38.6523 93.6537 41.0103 96.0116 43.9189 96.0116C44.0056 96.0116 44.0919 96.0095 44.1775 96.0053C46.8993 95.874 48.9996 93.5461 48.9996 90.8211V91.8214C49.6239 94.1133 51.7558 96.0951 54.2648 96.0093C57.1194 95.9117 59.3468 93.4891 59.3468 90.6329V41.3573C59.3468 40.3346 59.8519 39.3779 60.6966 38.8014L77.9503 26.5934C80.0361 25.2487 80.4069 22.3491 78.7265 20.5231Z" fill="#60B7FF"/>
<path d="M77.951 26.5928L60.6957 38.8009C59.8528 39.378 59.3469 40.3356 59.3469 41.3579V90.633C59.3469 93.4884 57.1204 95.9114 54.2652 96.0086C53.5044 96.0345 52.7803 95.9005 52.1211 95.6325C54.0794 94.8349 55.4412 92.8657 55.4412 90.633V39.2614C55.4412 38.2391 55.9471 37.2836 56.7922 36.7066L74.0453 24.4985C75.8394 23.342 76.3667 21.0313 75.4049 19.2482C76.6174 19.1335 77.856 19.5768 78.7271 20.5235C80.4065 22.3497 80.0369 25.2484 77.951 26.5928Z" fill="#26A6FE"/>
<path d="M49.1673 26.5883C55.9605 26.5883 61.4675 21.0814 61.4675 14.2882C61.4675 7.495 55.9605 1.98804 49.1673 1.98804C42.3742 1.98804 36.8672 7.495 36.8672 14.2882C36.8672 21.0814 42.3742 26.5883 49.1673 26.5883Z" fill="#FED2A4"/>
<path d="M61.4668 14.2889C61.4668 21.0806 55.96 26.5873 49.1683 26.5873C46.067 26.5873 43.2348 25.4395 41.0713 23.543C42.4657 24.0929 43.9833 24.3942 45.5716 24.3942C52.3656 24.3942 57.8724 18.8874 57.8724 12.0958C57.8724 8.40315 56.2452 5.09182 53.6687 2.83936C58.2353 4.63302 61.4668 9.08322 61.4668 14.2889Z" fill="#FFBD86"/>
<path d="M49.1638 22.4425C47.742 22.4425 46.4322 21.7929 45.5707 20.6603C45.0759 20.0099 45.202 19.0816 45.8524 18.5868C46.5028 18.092 47.4311 18.218 47.9259 18.8686C48.223 19.2592 48.6741 19.4832 49.1638 19.4832C49.6557 19.4832 50.1081 19.2575 50.405 18.8638C50.8973 18.2117 51.8251 18.0817 52.4774 18.574C53.1297 19.0663 53.2595 19.9941 52.7672 20.6464C51.906 21.7879 50.5926 22.4425 49.1638 22.4425Z" fill="#F6A96C"/>
<path d="M50.8185 61.8949L50.8126 94.7098C49.9446 93.9482 49.2974 92.9203 48.9996 91.8214V90.8211C48.9996 92.3955 48.2973 93.8377 47.1807 94.8005V61.8949C47.1807 60.8907 47.9955 60.0759 48.9996 60.0759C49.5007 60.0759 49.9564 60.2792 50.2858 60.6086C50.6153 60.938 50.8185 61.3919 50.8185 61.8949Z" fill="#26A6FE"/>
</g>
<defs>
<clipPath id="clip0">
<rect width="98" height="98" fill="white"/>
</clipPath>
</defs>
</svg>
