<svg width="113" height="112" viewBox="0 0 113 112" fill="none" xmlns="http://www.w3.org/2000/svg">
<g clip-path="url(#clip0)">
<path d="M80.3662 26.4487L42.8809 63.9734L50.1672 68.9133L60.1376 63.9734L80.0334 74.6311L81.5041 73.1737C84.2442 70.4586 86.3086 67.1484 87.534 63.5058L88.2197 61.4671C89.445 57.8245 91.5097 54.5145 94.2495 51.7994L96.212 49.8545L80.3662 26.4487Z" fill="#E29A6C"/>
<path d="M80.0328 25.0786L66.7954 38.1956L40.4834 59.2239L44.5459 66.0995L75.6202 35.2808C77.2448 33.671 79.8789 33.671 81.5035 35.2808L96.2116 49.8552L100.624 45.483L80.0328 25.0786Z" fill="#D48C64"/>
<path d="M80.0341 74.6315L63.9261 58.6699L63.5659 56.0176L60.9137 55.6849L53.5597 62.9721C51.1227 65.387 47.1716 65.387 44.7348 62.9721C43.9224 62.1671 43.9227 60.8621 44.7348 60.0571L66.797 38.1955L49.9854 36.2668C45.792 35.7861 41.8858 33.9147 38.9008 30.9569L37.381 29.4509L13.8477 44.0253L20.2227 50.3424C22.9627 53.0575 25.0272 56.3675 26.2525 60.0103L26.9382 62.049C28.1636 65.6916 30.228 69.0016 32.9681 71.7169L37.3806 76.0891L40.3221 79.0041L41.7929 77.5467L53.5594 89.2063H59.4427L68.2675 92.1211C69.8921 90.5113 69.8921 87.9011 68.2675 86.2913H74.1508C75.7754 84.6817 75.7754 82.0713 74.1508 80.4615H80.0341C81.6587 78.8517 81.6587 76.2413 80.0341 74.6315Z" fill="#FFD18D"/>
<path d="M37.3797 29.4508L32.9671 25.0784L12.376 45.4826L18.751 51.7996C21.4915 54.5152 23.5561 57.8256 24.7815 61.4689L25.4665 63.506C26.6917 67.1484 28.7557 70.458 31.4953 73.1726L34.4379 76.0885L37.3794 73.1737L34.4379 70.2589C32.1492 67.9911 30.426 65.2256 29.4052 62.1822L28.7367 60.1893C27.3079 55.9297 24.8958 52.059 21.6927 48.8848C20.6086 47.8106 20.6086 46.0691 21.6927 44.9951L37.3797 29.4508Z" fill="#FBBD80"/>
<path d="M66.7958 70.259C65.9834 71.0641 65.9834 72.369 66.7958 73.1738L74.1499 80.461C75.7745 82.0709 78.4086 82.0709 80.0332 80.461L69.7376 70.259C68.9252 69.454 67.6082 69.454 66.7958 70.259Z" fill="#FBBD80"/>
<path d="M60.913 76.0889C60.1006 76.8939 60.1006 78.1989 60.913 79.0037L68.2671 86.2909C69.8917 87.9007 72.5257 87.9007 74.1503 86.2909L63.8548 76.0889C63.0421 75.2839 61.7252 75.2839 60.913 76.0889Z" fill="#FBBD80"/>
<path d="M55.0292 81.9185C54.2168 82.7236 54.2168 84.0285 55.0292 84.8333L62.3833 92.1205C64.0079 93.7303 66.642 93.7303 68.2666 92.1205L57.971 81.9185C57.1586 81.1137 55.8414 81.1137 55.0292 81.9185Z" fill="#FBBD80"/>
<path d="M35.9083 71.7164L32.9668 74.6312L33.8684 79.102L40.8441 76.6071L41.7916 71.7162C40.167 70.1066 37.5329 70.1066 35.9083 71.7164Z" fill="#E29A6C"/>
<path d="M10.9048 46.94L3.55071 39.6528C2.7383 38.8478 2.7383 37.5429 3.55071 36.7381L25.6129 14.8765C26.4253 14.0714 27.7422 14.0714 28.5544 14.8765L35.9084 22.1637C36.7208 22.9687 36.7208 24.2737 35.9084 25.0785L13.8463 46.94C13.0341 47.7448 11.7169 47.7448 10.9048 46.94Z" fill="#DBD8DB"/>
<path d="M32.9675 74.6313C31.3429 76.2412 31.3429 78.8511 32.9675 80.4611C34.5921 82.071 37.2262 82.071 38.8508 80.4611L41.7923 77.5463C43.4169 75.9365 43.4169 73.3264 41.7923 71.7166L38.8508 74.6313C37.2262 76.2412 34.5921 76.2412 32.9675 74.6313Z" fill="#D48C64"/>
<path d="M69.1286 54.2273H64.9684C63.4839 54.2273 62.0714 54.7751 60.9482 55.7197L63.9255 58.6699C64.2442 58.4825 64.5916 58.3493 64.9686 58.3495H69.1286C70.2776 58.3493 71.2085 57.4266 71.2087 56.2883C71.2085 55.1504 70.2771 54.2275 69.1286 54.2273Z" fill="#D48C64"/>
<path d="M9.43434 42.5677C6.99734 40.1529 6.99734 36.2378 9.43434 33.8231L28.555 14.8763L27.0842 13.419C26.2718 12.6139 24.9548 12.6139 24.1427 13.419L0.609306 36.7379C-0.203102 37.5429 -0.203102 38.8479 0.609306 39.6527L9.43412 48.3973C10.2465 49.2023 11.5635 49.2023 12.3757 48.3973L13.8464 46.9399L9.43434 42.5677Z" fill="#C9C5C9"/>
<path d="M87.3872 14.8763L80.0331 22.1635C79.2207 22.9685 79.2207 24.2735 80.0331 25.0783L102.095 46.9399C102.908 47.7449 104.225 47.7449 105.037 46.9399L112.391 39.6527C113.203 38.8476 113.203 37.5427 112.391 36.7379L90.3287 14.8763C89.5165 14.0715 88.1996 14.0715 87.3872 14.8763Z" fill="#ECEAEC"/>
<path d="M85.9165 19.2488C83.4795 21.6636 83.4795 25.5787 85.9165 27.9934L105.037 46.9402L103.566 48.3975C102.754 49.2026 101.437 49.2026 100.625 48.3975L77.0917 25.0786C76.2793 24.2736 76.2793 22.9686 77.0917 22.1638L85.9165 13.4192C86.729 12.6142 88.0459 12.6142 88.8581 13.4192L90.3288 14.8766L85.9165 19.2488Z" fill="#DBD8DB"/>
<path d="M41.7921 77.5463L38.8506 80.4611L39.7522 84.9319L46.7279 82.437L47.6754 77.546C46.0508 75.9364 43.4167 75.9364 41.7921 77.5463Z" fill="#E29A6C"/>
<path d="M38.8503 80.4609C37.2257 82.0708 37.2257 84.6807 38.8503 86.2907C40.4749 87.9005 43.109 87.9005 44.7336 86.2907L47.6751 83.3759C49.2997 81.7661 49.2997 79.156 47.6751 77.5461L44.7336 80.4609C43.109 82.0708 40.4749 82.0708 38.8503 80.4609Z" fill="#D48C64"/>
<path d="M47.6759 83.3761L44.7344 86.2909L45.6359 90.7617L52.6117 88.2668L53.5592 83.3759C51.9346 81.7663 49.3005 81.7663 47.6759 83.3761Z" fill="#E29A6C"/>
<path d="M44.7341 86.2908C43.1095 87.9006 43.1095 90.5105 44.7341 92.1206C46.3587 93.7304 48.9928 93.7304 50.6174 92.1206L53.5589 89.2058C55.1835 87.596 55.1835 84.9858 53.5589 83.376L50.6174 86.2908C48.993 87.9006 46.3587 87.9006 44.7341 86.2908Z" fill="#D48C64"/>
<path d="M53.5587 89.2059L50.6172 92.1206L51.5188 96.5915L58.4945 94.0966L59.442 89.2056C57.8172 87.5958 55.1833 87.5958 53.5587 89.2059Z" fill="#E29A6C"/>
<path d="M50.6169 92.1206C48.9923 93.7304 48.9923 96.3404 50.6169 97.9504C52.2415 99.5602 54.8756 99.5602 56.5002 97.9504L59.4417 95.0356C61.0663 93.4258 61.0663 90.8156 59.4417 89.2058L56.5002 92.1206C54.8756 93.7304 52.2415 93.7304 50.6169 92.1206Z" fill="#D48C64"/>
</g>
<defs>
<clipPath id="clip0">
<rect width="113" height="111.973" fill="white"/>
</clipPath>
</defs>
</svg>
