<svg width="72" height="72" viewBox="0 0 72 72" fill="none" xmlns="http://www.w3.org/2000/svg">
<circle cx="36" cy="36" r="36" fill="#EE4034"/>
<g clip-path="url(#clip0)">
<path d="M50.2308 45.3391L26.7197 21.828C25.6943 20.8026 24.0319 20.8026 23.0081 21.828L21.769 23.0652C20.7437 24.0909 20.7437 25.7533 21.769 26.7771L45.2801 50.2881C46.3058 51.3135 47.9682 51.3135 48.992 50.2881L50.2292 49.0509C51.2565 48.0272 51.2565 46.3644 50.2308 45.3391Z" fill="white"/>
<path d="M45.2801 21.8279L21.769 45.339C20.7437 46.3644 20.7437 48.0271 21.769 49.0509L23.0062 50.2881C24.0319 51.3135 25.6943 51.3135 26.7181 50.2881L50.2307 26.7786C51.2564 25.7532 51.2564 24.0908 50.2307 23.0671L48.9935 21.8299C47.9682 20.8026 46.3058 20.8026 45.2801 21.8279Z" fill="white"/>
</g>
<defs>
<clipPath id="clip0">
<rect width="30" height="30" fill="white" transform="translate(21 21)"/>
</clipPath>
</defs>
</svg>
