<svg width="17" height="14" viewBox="0 0 17 14" fill="none" xmlns="http://www.w3.org/2000/svg">
<path d="M6.97859 4.23741C6.64726 4.03941 6.2226 4.27874 6.2226 4.66674V9.33339C6.2226 9.72339 6.64793 9.95939 6.97859 9.76339L10.8912 7.4334C11.2166 7.2394 11.2159 6.76873 10.8919 6.57407L6.97859 4.23741ZM7.22259 8.45406V5.5474L9.65925 7.00273L7.22259 8.45406Z" fill="black"/>
<path d="M13.6219 1.18071C10.5199 0.720038 6.18654 0.720038 3.08321 1.18071C1.84187 1.36471 0.863872 2.33937 0.650539 3.60471C0.253206 5.95337 0.253206 8.04737 0.650539 10.3954C0.863872 11.6614 1.84187 12.6354 3.08321 12.8194C4.63787 13.05 6.49921 13.1654 8.35987 13.1654C10.2172 13.1654 12.0739 13.0507 13.6225 12.82C14.8625 12.636 15.8399 11.662 16.0545 10.396C16.4519 8.04737 16.4519 5.9527 16.0545 3.60404C15.8412 2.33937 14.8632 1.36471 13.6219 1.18071ZM15.0685 10.2294C14.9265 11.0667 14.2865 11.7107 13.4752 11.8307C10.4632 12.278 6.24987 12.278 3.22987 11.83C2.41787 11.7094 1.77721 11.066 1.63587 10.2287C1.25321 7.96604 1.25321 6.0347 1.63587 3.7707C1.77787 2.93337 2.41787 2.29071 3.23054 2.16937C4.73854 1.94604 6.54587 1.83404 8.35187 1.83404C10.1592 1.83404 11.9665 1.94604 13.4745 2.16937C14.2865 2.29004 14.9272 2.93337 15.0685 3.7707C15.4512 6.0347 15.4512 7.96604 15.0685 10.2294Z" fill="black"/>
</svg>
