<svg width="40" height="20" viewBox="0 0 40 20" fill="none" xmlns="http://www.w3.org/2000/svg">
<path d="M0.499725 9.22931H38.2928L29.917 0.853454C29.7217 0.65814 29.7217 0.341799 29.917 0.146485C30.1123 -0.0488285 30.4286 -0.0488285 30.6239 0.146485L39.8535 9.37601C39.8995 9.42205 39.9361 9.4775 39.9616 9.53854C40.0122 9.66096 40.0122 9.79838 39.9616 9.92079C39.9361 9.98183 39.8998 10.0373 39.8535 10.0833L30.6239 19.3128C30.5263 19.4105 30.3983 19.4593 30.2703 19.4593C30.1423 19.4593 30.0143 19.4105 29.9166 19.3128C29.7213 19.1175 29.7213 18.8012 29.9166 18.6059L38.2928 10.23H0.499657C0.223423 10.23 -0.000488281 10.0061 -0.000488281 9.72987C-0.000488281 9.45364 0.223423 9.22972 0.499657 9.22972L0.499725 9.22931Z" fill="#464365"/>
</svg>
