<svg width="40" height="20" viewBox="0 0 40 20" fill="none" xmlns="http://www.w3.org/2000/svg">
<path d="M39.5003 9.22931H1.70717L10.083 0.853454C10.2783 0.65814 10.2783 0.341799 10.083 0.146485C9.88771 -0.0488285 9.57137 -0.0488285 9.37606 0.146485L0.146534 9.37601C0.100497 9.42205 0.0638751 9.4775 0.0384178 9.53854C-0.0121549 9.66096 -0.0121549 9.79838 0.0384178 9.92079C0.0638786 9.98183 0.100151 10.0373 0.146534 10.0833L9.37606 19.3128C9.47372 19.4105 9.60171 19.4593 9.72971 19.4593C9.85771 19.4593 9.98571 19.4105 10.0834 19.3128C10.2787 19.1175 10.2787 18.8012 10.0834 18.6059L1.70724 10.23H39.5003C39.7766 10.23 40.0005 10.0061 40.0005 9.72987C40.0005 9.45364 39.7766 9.22972 39.5003 9.22972L39.5003 9.22931Z" fill="white"/>
</svg>
