<svg width="393" height="393" viewBox="0 0 393 393" fill="none" xmlns="http://www.w3.org/2000/svg">
<path d="M199.611 39.1V51L198.387 51V40.188L195.582 40.188V39.1L199.611 39.1Z" fill="white"/>
<path d="M217.848 44.8809C219.076 45.0952 219.962 45.5426 220.507 46.2233C221.066 46.894 221.268 47.7107 221.115 48.6733C221.009 49.3449 220.75 49.9243 220.34 50.4116C219.932 50.8876 219.383 51.2387 218.694 51.4647C218.004 51.6906 217.198 51.7488 216.275 51.6391C215.42 51.5375 214.631 51.3069 213.908 50.9474C213.199 50.578 212.65 50.1364 212.261 49.6226L213.004 48.7359C213.334 49.1856 213.805 49.578 214.417 49.913C215.03 50.2368 215.708 50.4428 216.451 50.5311C217.419 50.6461 218.2 50.5279 218.795 50.1766C219.392 49.8142 219.749 49.2636 219.866 48.5249C219.982 47.7973 219.808 47.1951 219.345 46.7181C218.882 46.2411 218.116 45.9391 217.047 45.8121L216.203 45.7118L216.344 44.8219L220.268 41.1313L214.224 40.4132L214.395 39.3387L221.992 40.2414L221.855 41.0976L217.848 44.8809Z" fill="white"/>
<path d="M265.495 58.8195C264.857 60.2595 263.837 61.1743 262.437 61.564C261.052 61.9477 259.425 61.7729 257.556 61.0397L257.059 62.1585L255.98 61.6994L256.476 60.5806C254.658 59.7334 253.414 58.681 252.744 57.4235C252.085 56.1704 252.075 54.8238 252.714 53.3838C253.353 51.9438 254.365 51.032 255.75 50.6482C257.146 50.2689 258.78 50.4407 260.654 51.1637L261.136 50.0759L262.216 50.535L261.733 51.6227C263.541 52.4655 264.778 53.5209 265.443 54.7887C266.112 56.0463 266.13 57.3899 265.495 58.8195ZM257.962 60.1228C259.502 60.7038 260.829 60.8432 261.942 60.5409C263.056 60.2387 263.87 59.5074 264.385 58.3471C264.899 57.1868 264.884 56.1029 264.34 55.0954C263.805 54.0924 262.799 53.2456 261.32 52.5551L257.962 60.1228ZM253.825 53.8562C253.31 55.0165 253.32 56.0982 253.854 57.1012C254.404 58.0984 255.413 58.9525 256.883 59.6638L260.24 52.096C258.69 51.5106 257.358 51.369 256.245 51.6713C255.146 51.9676 254.34 52.6959 253.825 53.8562Z" fill="white"/>
<path d="M279.302 72.9013L278.725 73.8238L271.482 69.5403L277.792 59.4506L284.815 63.6043L284.238 64.5268L278.297 61.0135L276.053 64.6025L281.35 67.7351L280.782 68.6432L275.485 65.5106L273.142 69.2582L279.302 72.9013Z" fill="white"/>
<path d="M298.276 81.1177C298.813 81.7682 299.09 82.4211 299.109 83.0767C299.135 83.7234 298.896 84.3533 298.393 84.9663C297.738 85.7632 296.948 86.1452 296.021 86.1121C295.104 86.0861 294.094 85.6287 292.991 84.7399L288.887 81.4335L296.441 72.2383L300.293 75.3421C301.281 76.1385 301.888 76.9621 302.113 77.8129C302.338 78.6637 302.138 79.47 301.512 80.2319C301.087 80.7486 300.595 81.0798 300.036 81.2255C299.483 81.3625 298.897 81.3266 298.276 81.1177ZM293.986 77.181L296.819 79.4635C297.534 80.0395 298.2 80.3358 298.817 80.3526C299.443 80.3765 299.982 80.1126 300.435 79.5608C300.888 79.0091 301.04 78.4324 300.889 77.8305C300.747 77.2358 300.318 76.6504 299.603 76.0745L296.77 73.792L293.986 77.181ZM293.627 83.9649C295.225 85.2519 296.509 85.3043 297.48 84.122C298.43 82.9661 298.106 81.7446 296.509 80.4576L293.371 77.9298L290.49 81.4371L293.627 83.9649Z" fill="white"/>
<path d="M316.227 90.5439C317.262 91.6555 317.808 92.7744 317.866 93.9008C317.923 95.0271 317.489 96.0243 316.563 96.8921C315.637 97.76 314.615 98.1267 313.499 97.9922C312.391 97.8499 311.32 97.223 310.285 96.1115L308.107 93.7722L305.366 96.341L304.508 95.4202L313.192 87.2839L316.227 90.5439ZM311.068 95.3311C311.871 96.1938 312.671 96.6789 313.468 96.7864C314.273 96.8862 315.019 96.6145 315.706 95.9714C316.409 95.3127 316.734 94.5809 316.681 93.776C316.637 92.9633 316.213 92.1256 315.41 91.2629L313.256 88.9486L308.914 93.0167L311.068 95.3311Z" fill="white"/>
<path d="M324.611 115.325L320.829 109.88L317.432 110.56L316.685 109.485L329.457 107.016L330.165 108.035L323.599 119.441L322.843 118.352L324.611 115.325ZM325.178 114.354L328.742 108.281L321.92 109.662L325.178 114.354Z" fill="white"/>
<path d="M342.642 129.712L332.135 135.299L331.575 134.191L341.122 129.115L338.532 123.986L334.958 125.732C333.481 126.453 332.249 126.954 331.262 127.235C330.289 127.521 329.486 127.589 328.851 127.439C328.227 127.283 327.754 126.887 327.432 126.25C327.294 125.976 327.186 125.675 327.108 125.344L328.144 124.908C328.191 125.101 328.256 125.279 328.337 125.441C328.562 125.886 328.918 126.152 329.407 126.239C329.9 126.336 330.548 126.261 331.35 126.014C332.162 125.762 333.186 125.34 334.422 124.746L339.002 122.504L342.642 129.712Z" fill="white"/>
<path d="M351.303 150.884L340.154 155.045L339.756 153.869L343.132 152.609L341.993 149.244C341.943 149.093 341.881 148.875 341.807 148.588L337.598 147.493L337.167 146.22L341.649 147.431C341.614 146.514 341.829 145.72 342.296 145.05C342.774 144.376 343.464 143.871 344.366 143.534C345.619 143.066 346.725 143.101 347.684 143.637C348.647 144.185 349.359 145.141 349.82 146.504L351.303 150.884ZM344.801 144.713C343.888 145.054 343.273 145.586 342.956 146.309C342.652 147.039 342.677 147.924 343.03 148.966L344.136 152.235L349.885 150.089L348.817 146.933C348.461 145.881 347.936 145.158 347.24 144.764C346.559 144.378 345.746 144.361 344.801 144.713Z" fill="white"/>
<path d="M346.95 171.223C346.909 170.965 346.957 170.73 347.094 170.518C347.242 170.303 347.447 170.161 347.71 170.09C347.973 170.019 348.2 170.046 348.391 170.17C348.593 170.29 348.715 170.479 348.756 170.737C348.797 170.994 348.744 171.23 348.596 171.445C348.46 171.668 348.261 171.815 347.998 171.886C347.736 171.957 347.503 171.926 347.299 171.794C347.108 171.67 346.991 171.48 346.95 171.223Z" fill="white"/>
<path d="M358.277 191.41L346.426 192.494L346.364 191.272L357.131 190.286L356.988 187.485L358.071 187.386L358.277 191.41Z" fill="white"/>
<path d="M352.945 210.378C352.806 211.617 352.413 212.534 351.766 213.129C351.13 213.737 350.326 214.001 349.354 213.921C348.677 213.866 348.082 213.652 347.57 213.281C347.069 212.91 346.684 212.39 346.416 211.72C346.148 211.05 346.041 210.252 346.094 209.324C346.143 208.464 346.325 207.66 346.641 206.913C346.966 206.178 347.374 205.597 347.864 205.171L348.796 205.844C348.366 206.207 348.003 206.706 347.706 207.341C347.419 207.977 347.255 208.668 347.212 209.415C347.157 210.388 347.322 211.158 347.71 211.724C348.109 212.291 348.681 212.604 349.426 212.665C350.161 212.725 350.752 212.506 351.2 212.009C351.649 211.511 351.904 210.725 351.965 209.65L352.014 208.801L352.912 208.875L356.84 212.504L357.188 206.428L358.273 206.516L357.835 214.154L356.971 214.083L352.945 210.378Z" fill="white"/>
<path d="M341.37 258.385C339.89 257.845 338.907 256.889 338.423 255.518C337.945 254.162 338.008 252.526 338.611 250.611L337.461 250.192L337.845 249.083L338.994 249.503C339.715 247.631 340.679 246.318 341.887 245.564C343.092 244.822 344.434 244.72 345.914 245.26C347.394 245.8 348.373 246.748 348.85 248.105C349.324 249.472 349.265 251.115 348.673 253.033L349.791 253.441L349.407 254.55L348.289 254.142C347.572 256.004 346.605 257.309 345.386 258.059C344.178 258.812 342.839 258.921 341.37 258.385ZM339.553 250.955C339.079 252.531 339.031 253.865 339.409 254.956C339.787 256.046 340.572 256.809 341.764 257.244C342.957 257.679 344.037 257.591 345.004 256.979C345.968 256.377 346.743 255.315 347.331 253.792L339.553 250.955ZM345.519 246.401C344.326 245.966 343.248 246.049 342.285 246.65C341.328 247.266 340.545 248.332 339.937 249.847L347.714 252.684C348.192 251.097 348.242 249.758 347.864 248.667C347.493 247.591 346.711 246.836 345.519 246.401Z" fill="white"/>
<path d="M329.159 273.388L328.201 272.873L331.96 265.344L342.441 270.979L338.796 278.28L337.837 277.765L340.921 271.59L337.192 269.585L334.443 275.091L333.5 274.584L336.249 269.078L332.356 266.985L329.159 273.388Z" fill="white"/>
<path d="M322.248 292.89C321.638 293.471 321.008 293.792 320.357 293.855C319.716 293.925 319.073 293.729 318.428 293.266C317.59 292.665 317.156 291.9 317.125 290.971C317.087 290.051 317.472 289.01 318.28 287.846L321.286 283.517L330.955 290.455L328.133 294.518C327.409 295.561 326.632 296.224 325.801 296.506C324.97 296.789 324.154 296.643 323.353 296.068C322.81 295.678 322.446 295.208 322.263 294.658C322.088 294.114 322.083 293.525 322.248 292.89ZM325.868 288.333L323.793 291.321C323.27 292.075 323.021 292.761 323.047 293.379C323.066 294.007 323.366 294.529 323.946 294.945C324.526 295.361 325.11 295.474 325.699 295.282C326.281 295.1 326.833 294.632 327.357 293.878L329.432 290.89L325.868 288.333ZM319.095 288.431C317.925 290.116 317.962 291.404 319.205 292.296C320.42 293.168 321.613 292.762 322.783 291.077L325.081 287.768L321.393 285.121L319.095 288.431Z" fill="white"/>
<path d="M314.054 311.448C313.019 312.559 311.943 313.182 310.827 313.317C309.711 313.451 308.69 313.084 307.763 312.217C306.837 311.349 306.403 310.352 306.46 309.225C306.526 308.107 307.076 306.992 308.111 305.88L310.289 303.541L307.547 300.972L308.404 300.051L317.088 308.188L314.054 311.448ZM308.941 306.611C308.138 307.473 307.71 308.307 307.657 309.112C307.613 309.925 307.934 310.653 308.621 311.296C309.323 311.954 310.073 312.23 310.87 312.123C311.675 312.023 312.48 311.541 313.283 310.679L315.437 308.364L311.095 304.296L308.941 306.611Z" fill="white"/>
<path d="M289.923 321.491L295.085 317.332L294.179 313.979L295.199 313.158L298.516 325.766L297.55 326.545L285.76 320.763L286.793 319.931L289.923 321.491ZM290.928 321.991L297.209 325.139L295.375 318.408L290.928 321.991Z" fill="white"/>
<path d="M276.755 340.466L270.483 330.353L271.549 329.717L277.247 338.906L282.182 335.963L280.202 332.512C279.385 331.087 278.803 329.89 278.457 328.922C278.106 327.97 277.985 327.172 278.092 326.528C278.205 325.893 278.568 325.393 279.181 325.027C279.444 324.87 279.737 324.741 280.061 324.641L280.565 325.646C280.376 325.707 280.203 325.783 280.047 325.876C279.619 326.131 279.378 326.506 279.324 327C279.261 327.499 279.379 328.141 279.679 328.926C279.984 329.72 280.474 330.714 281.148 331.909L283.69 336.33L276.755 340.466Z" fill="white"/>
<path d="M256.209 350.542L251.309 339.697L252.454 339.219L253.938 342.503L257.217 341.134C257.363 341.073 257.577 340.996 257.858 340.903L258.666 336.625L259.905 336.108L259 340.666C259.913 340.567 260.719 340.728 261.418 341.148C262.122 341.578 262.673 342.232 263.069 343.11C263.62 344.329 263.66 345.435 263.19 346.43C262.709 347.429 261.804 348.205 260.476 348.76L256.209 350.542ZM261.923 343.626C261.521 342.738 260.949 342.16 260.207 341.893C259.459 341.641 258.578 341.726 257.563 342.15L254.379 343.479L256.906 349.072L259.981 347.788C261.006 347.36 261.691 346.786 262.036 346.064C262.376 345.358 262.338 344.545 261.923 343.626Z" fill="white"/>
<path d="M215.269 351.373C215.528 351.347 215.758 351.409 215.959 351.559C216.162 351.721 216.289 351.935 216.34 352.202C216.391 352.469 216.347 352.695 216.21 352.879C216.075 353.074 215.877 353.184 215.618 353.21C215.358 353.236 215.127 353.168 214.924 353.007C214.712 352.858 214.581 352.65 214.53 352.382C214.479 352.115 214.527 351.883 214.674 351.687C214.811 351.503 215.01 351.399 215.269 351.373Z" fill="white"/>
<path d="M173.078 359.786L175.115 348.062L176.332 348.194L174.481 358.847L177.27 359.15L177.084 360.222L173.078 359.786Z" fill="white"/>
<path d="M155.06 350.443C153.872 350.071 153.055 349.513 152.61 348.769C152.15 348.034 152.064 347.2 152.352 346.269C152.553 345.619 152.891 345.081 153.367 344.653C153.84 344.235 154.434 343.96 155.151 343.827C155.867 343.693 156.676 343.741 157.577 343.97C158.411 344.182 159.162 344.513 159.829 344.962C160.481 345.42 160.964 345.928 161.277 346.486L160.414 347.265C160.15 346.778 159.738 346.329 159.178 345.918C158.614 345.518 157.97 345.226 157.245 345.042C156.3 344.802 155.508 344.817 154.868 345.086C154.224 345.367 153.792 345.864 153.571 346.579C153.354 347.283 153.441 347.9 153.834 348.432C154.226 348.964 154.944 349.362 155.988 349.627L156.811 349.836L156.545 350.697L152.129 353.832L158.027 355.33L157.706 356.37L150.291 354.487L150.547 353.658L155.06 350.443Z" fill="white"/>
<path d="M109.667 330.031C110.493 328.689 111.625 327.921 113.062 327.727C114.484 327.537 116.07 327.933 117.819 328.918L118.461 327.876L119.467 328.48L118.825 329.522C120.509 330.612 121.597 331.828 122.089 333.168C122.572 334.502 122.4 335.84 121.574 337.181C120.748 338.522 119.625 339.288 118.203 339.479C116.772 339.664 115.178 339.269 113.423 338.294L112.799 339.307L111.793 338.703L112.417 337.69C110.743 336.605 109.662 335.388 109.176 334.038C108.683 332.698 108.847 331.363 109.667 330.031ZM117.293 329.772C115.849 328.984 114.555 328.663 113.413 328.81C112.272 328.957 111.368 329.571 110.702 330.652C110.037 331.733 109.905 332.811 110.308 333.886C110.701 334.954 111.583 335.933 112.952 336.822L117.293 329.772ZM120.54 336.56C121.205 335.479 121.341 334.404 120.948 333.335C120.539 332.27 119.656 331.284 118.299 330.376L113.958 337.425C115.412 338.219 116.71 338.543 117.852 338.396C118.978 338.253 119.874 337.641 120.54 336.56Z" fill="white"/>
<path d="M97.7634 314.206L98.4548 313.365L105.012 318.639L97.4502 327.828L91.0915 322.714L91.7829 321.874L97.1613 326.199L99.8512 322.931L95.0557 319.074L95.7362 318.247L100.532 322.104L103.34 318.691L97.7634 314.206Z" fill="white"/>
<path d="M80.1139 303.517C79.6742 302.796 79.4896 302.107 79.56 301.451C79.6222 300.802 79.9428 300.207 80.5217 299.664C81.2743 298.959 82.1042 298.686 83.0114 298.846C83.9109 298.997 84.8433 299.591 85.8085 300.628L89.3994 304.485L80.7155 312.621L77.3447 309.001C76.4798 308.072 75.9943 307.168 75.8883 306.288C75.7822 305.409 76.0889 304.633 76.8084 303.959C77.2964 303.501 77.8257 303.238 78.3965 303.17C78.959 303.109 79.5314 303.224 80.1139 303.517ZM83.8025 308.029L81.3236 305.366C80.6981 304.694 80.0829 304.307 79.4779 304.206C78.8652 304.097 78.2983 304.287 77.7773 304.775C77.2562 305.263 77.0291 305.817 77.096 306.438C77.1551 307.051 77.4975 307.693 78.123 308.365L80.6018 311.027L83.8025 308.029ZM85.0766 301.314C83.6789 299.812 82.4218 299.585 81.3052 300.631C80.2136 301.654 80.3666 302.916 81.7643 304.417L84.5096 307.366L87.8219 304.263L85.0766 301.314Z" fill="white"/>
<path d="M63.6229 291.78C62.7567 290.532 62.3726 289.343 62.4707 288.213C62.5687 287.083 63.1334 286.147 64.1647 285.407C65.196 284.667 66.2519 284.44 67.3325 284.724C68.4039 285.015 69.3727 285.785 70.2389 287.032L72.0618 289.657L75.1143 287.467L75.8318 288.5L66.1633 295.438L63.6229 291.78ZM69.3605 287.704C68.6882 286.736 67.9671 286.145 67.1973 285.93C66.4182 285.722 65.6465 285.892 64.8822 286.441C64.0995 287.002 63.6788 287.688 63.6199 288.497C63.5519 289.313 63.854 290.205 64.5263 291.173L66.3298 293.77L71.164 290.302L69.3605 287.704Z" fill="white"/>
<path d="M58.6729 266.061L61.6487 271.986L65.0933 271.763L65.6808 272.933L52.7443 273.682L52.1873 272.573L60.2404 262.102L60.8355 263.287L58.6729 266.061ZM57.9794 266.952L53.6241 272.518L60.5432 272.057L57.9794 266.952Z" fill="white"/>
<path d="M42.7361 249.451L53.8963 245.32L54.2971 246.495L44.1573 250.247L46.0132 255.685L49.7878 254.433C51.3473 253.917 52.6348 253.585 53.6503 253.439C54.6515 253.286 55.4555 253.326 56.0622 253.561C56.6584 253.799 57.0718 254.256 57.3024 254.932C57.4012 255.222 57.4665 255.536 57.4983 255.874L56.4131 256.167C56.3934 255.969 56.3542 255.784 56.2956 255.613C56.1346 255.141 55.8186 254.829 55.3478 254.677C54.8733 254.514 54.2225 254.502 53.3953 254.639C52.5575 254.779 51.4865 255.061 50.1821 255.483L45.3442 257.093L42.7361 249.451Z" fill="white"/>
<path d="M37.9638 227.122L49.5776 224.527L49.8131 225.746L46.2958 226.531L46.9702 230.02C47.0003 230.176 47.0322 230.401 47.066 230.695L51.0909 232.355L51.3458 233.674L47.0665 231.861C46.9778 232.775 46.6567 233.532 46.1034 234.131C45.539 234.733 44.7867 235.139 43.8466 235.349C42.5414 235.641 41.4498 235.455 40.5716 234.792C39.6913 234.118 39.1146 233.075 38.8414 231.662L37.9638 227.122ZM43.5746 234.121C44.5258 233.909 45.2076 233.466 45.6199 232.794C46.019 232.113 46.1142 231.233 45.9056 230.153L45.2505 226.765L39.2612 228.103L39.8936 231.374C40.1044 232.465 40.5278 233.252 41.1638 233.737C41.7866 234.213 42.5902 234.341 43.5746 234.121Z" fill="white"/>
<path d="M44.5461 208.253C44.5579 208.514 44.4831 208.737 44.3217 208.925C44.149 209.113 43.9274 209.221 43.6568 209.249C43.3863 209.277 43.1626 209.215 42.9858 209.063C42.7977 208.911 42.6978 208.706 42.686 208.445C42.6742 208.185 42.7546 207.96 42.9273 207.772C43.0882 207.573 43.3039 207.46 43.5744 207.432C43.845 207.404 44.0746 207.472 44.2632 207.634C44.44 207.786 44.5343 207.993 44.5461 208.253Z" fill="white"/>
<path d="M35.6787 186.861L47.5291 187.946L47.4667 189.168L36.6996 188.183L36.5564 190.984L35.473 190.885L35.6787 186.861Z" fill="white"/>
<path d="M43.7165 168.391C44.0087 167.18 44.5113 166.327 45.2243 165.832C45.9283 165.322 46.7548 165.179 47.7038 165.401C48.3659 165.556 48.9264 165.856 49.3855 166.301C49.8335 166.743 50.1479 167.316 50.3287 168.021C50.5095 168.726 50.5157 169.536 50.3472 170.45C50.191 171.297 49.9107 172.068 49.5061 172.764C49.0926 173.446 48.6175 173.963 48.0809 174.314L47.2453 173.508C47.7144 173.211 48.1355 172.769 48.5085 172.182C48.8704 171.592 49.1192 170.93 49.2548 170.194C49.4315 169.236 49.364 168.447 49.0523 167.827C48.7295 167.205 48.204 166.809 47.4757 166.638C46.7585 166.47 46.1474 166.6 45.6425 167.028C45.1377 167.457 44.7877 168.2 44.5925 169.259L44.4384 170.095L43.5611 169.889L40.1369 165.704L39.0335 171.689L37.9742 171.441L39.3611 163.918L40.2053 164.115L43.7165 168.391Z" fill="white"/>
<path d="M60.9243 121.736C62.318 122.471 63.1612 123.549 63.4539 124.971C63.7418 126.378 63.4553 127.988 62.5947 129.802L63.6776 130.373L63.145 131.418L62.0621 130.847C61.0911 132.603 59.9548 133.772 58.6533 134.354C57.3569 134.926 56.0118 134.845 54.6181 134.111C53.2243 133.377 52.3835 132.306 52.0957 130.899C51.813 129.482 52.097 127.864 52.9477 126.045L51.8949 125.491L52.4275 124.445L53.4803 125C54.4461 123.255 55.5848 122.093 56.8964 121.516C58.1979 120.934 59.5406 121.007 60.9243 121.736ZM61.7073 129.335C62.3933 127.839 62.6237 126.526 62.3985 125.395C62.1733 124.264 61.4993 123.403 60.3762 122.812C59.2532 122.22 58.1701 122.162 57.1267 122.637C56.0885 123.102 55.1738 124.048 54.3827 125.476L61.7073 129.335ZM55.1661 133.036C56.2891 133.627 57.3697 133.691 58.4079 133.226C59.4412 132.746 60.3635 131.797 61.1747 130.38L53.8501 126.521C53.159 128.027 52.926 129.345 53.1511 130.475C53.3714 131.591 54.0431 132.444 55.1661 133.036Z" fill="white"/>
<path d="M75.9034 108.849L76.7865 109.484L71.9968 116.403L62.3385 109.451L66.983 102.742L67.8661 103.378L63.9376 109.053L67.3732 111.525L70.8759 106.465L71.7452 107.091L68.2424 112.151L71.8298 114.733L75.9034 108.849Z" fill="white"/>
<path d="M85.3816 90.4941C86.0694 90.0048 86.7419 89.773 87.3993 89.7988C88.0484 89.8167 88.6624 90.0969 89.2413 90.6394C89.9939 91.3445 90.3218 92.1565 90.2251 93.0754C90.1362 93.986 89.609 94.9597 88.6437 95.9966L85.0529 99.8539L76.3689 91.7176L79.7397 88.0967C80.6046 87.1677 81.4706 86.6201 82.3375 86.4539C83.2044 86.2878 83.9977 86.5418 84.7172 87.2159C85.2052 87.6731 85.5028 88.185 85.6103 88.7515C85.7094 89.3103 85.6332 89.8912 85.3816 90.4941ZM81.1471 94.4938L83.626 91.8311C84.2515 91.1592 84.5938 90.517 84.6529 89.9046C84.7198 89.2839 84.4927 88.7295 83.9717 88.2413C83.4506 87.7531 82.8838 87.5637 82.2711 87.6729C81.6661 87.7739 81.0508 88.1604 80.4253 88.8323L77.9465 91.495L81.1471 94.4938ZM87.9118 95.3109C89.3096 93.8094 89.4502 92.5357 88.3337 91.4896C87.242 90.4667 85.9973 90.706 84.5995 92.2074L81.8542 95.1564L85.1665 98.2598L87.9118 95.3109Z" fill="white"/>
<path d="M95.9891 73.2338C97.1717 72.2809 98.3286 71.8146 99.4597 71.8346C100.591 71.8547 101.559 72.3551 102.365 73.336C103.171 74.3168 103.468 75.3576 103.258 76.4585C103.041 77.5506 102.341 78.5731 101.158 79.5259L98.6693 81.531L101.054 84.4341L100.075 85.2234L92.5208 76.0282L95.9891 73.2338ZM100.43 78.6934C101.348 77.9539 101.888 77.1915 102.049 76.4064C102.204 75.6125 101.982 74.8521 101.385 74.1252C100.774 73.3809 100.064 73.0072 99.2545 73.0042C98.4382 72.9924 97.5711 73.3563 96.6533 74.0958L94.191 76.0796L97.9679 80.6772L100.43 78.6934Z" fill="white"/>
<path d="M121.299 66.5513L115.599 69.9372L116.052 73.3653L114.926 74.0338L113.314 61.1533L114.381 60.5196L125.347 67.8436L124.207 68.5208L121.299 66.5513ZM120.366 65.9198L114.532 61.952L115.455 68.8369L120.366 65.9198Z" fill="white"/>
<path d="M136.836 49.5365L141.708 60.3931L140.564 60.874L136.137 51.01L130.84 53.2367L132.344 56.9186C132.964 58.4398 133.382 59.7022 133.596 60.7059C133.817 61.6949 133.83 62.5003 133.638 63.1221C133.44 63.7336 133.012 64.1777 132.354 64.4544C132.072 64.5729 131.763 64.6597 131.428 64.7147L131.062 63.6516C131.259 63.6183 131.44 63.5665 131.607 63.4962C132.067 63.303 132.357 62.9661 132.476 62.4856C132.607 62.0008 132.575 61.3502 132.383 60.5339C132.186 59.7073 131.832 58.6575 131.323 57.3844L129.392 52.6657L136.836 49.5365Z" fill="white"/>
<path d="M158.531 42.3204L161.924 53.7266L160.724 54.0433L159.696 50.5889L156.261 51.4956C156.107 51.5361 155.885 51.5831 155.594 51.6366L154.215 55.7614L152.916 56.1042L154.429 51.7155C153.511 51.6883 152.734 51.419 152.097 50.9076C151.457 50.3852 151 49.6624 150.725 48.739C150.344 47.4572 150.454 46.3562 151.055 45.4361C151.667 44.513 152.669 43.8678 154.06 43.5005L158.531 42.3204ZM151.932 48.3854C152.21 49.3196 152.699 49.9697 153.399 50.3356C154.106 50.6878 154.991 50.7236 156.054 50.4431L159.391 49.5623L157.641 43.68L154.42 44.5303C153.346 44.8138 152.589 45.2889 152.149 45.9557C151.717 46.6087 151.645 47.4186 151.932 48.3854Z" fill="white"/>
<path d="M178.413 48.2898C178.153 48.3156 177.923 48.2534 177.722 48.1032C177.519 47.9419 177.392 47.7276 177.342 47.4604C177.291 47.1931 177.334 46.9676 177.472 46.7838C177.607 46.5888 177.804 46.4784 178.064 46.4526C178.323 46.4268 178.554 46.4946 178.757 46.6559C178.97 46.8049 179.101 47.0131 179.152 47.2803C179.202 47.5475 179.155 47.7792 179.008 47.9753C178.871 48.1591 178.672 48.264 178.413 48.2898Z" fill="white"/>
</svg>
