<svg width="395" height="397" viewBox="0 0 395 397" fill="none" xmlns="http://www.w3.org/2000/svg">
<g opacity="0.6">
<path d="M59.665 200.424L99.501 200.424" stroke="#1D2A90" stroke-width="2" stroke-miterlimit="10"/>
<path d="M196.714 295.5L196.713 335.713" stroke="#1D2A90" stroke-width="2" stroke-miterlimit="10"/>
<path d="M77.7822 132.046L112.501 151.5" stroke="#1D2A90" stroke-width="2" stroke-miterlimit="10"/>
<path d="M279.001 249.5L314.885 268.035" stroke="#1D2A90" stroke-width="2" stroke-miterlimit="10"/>
<path d="M148.001 282.5L128.344 317.595" stroke="#1D2A90" stroke-width="2" stroke-miterlimit="10"/>
<path d="M126.575 81.052L147.501 115" stroke="#1D2A90" stroke-width="2" stroke-miterlimit="10"/>
<path d="M244.501 283.5L265.166 318.111" stroke="#1D2A90" stroke-width="2" stroke-miterlimit="10"/>
<path d="M114.501 250L78.2664 268.878" stroke="#1D2A90" stroke-width="2" stroke-miterlimit="10"/>
<path d="M333.002 202.047L293.001 202.047" stroke="#1D2A90" stroke-width="2" stroke-miterlimit="10"/>
<path d="M313.566 129.395L280.502 150" stroke="#1D2A90" stroke-width="2" stroke-miterlimit="10"/>
<path d="M265.901 81.2681L245.501 115" stroke="#1D2A90" stroke-width="2" stroke-miterlimit="10"/>
<path d="M293.573 295.036C346.705 241.608 346.466 155.224 293.038 102.092C239.61 48.9597 153.226 49.1994 100.094 102.627C46.9613 156.055 47.201 242.439 100.629 295.571C154.057 348.704 240.441 348.464 293.573 295.036Z" stroke="#1D2A90" stroke-width="2" stroke-miterlimit="10"/>
<path d="M238.607 286.201C286.858 262.845 307.039 204.798 283.684 156.547C260.329 108.297 202.281 88.1154 154.031 111.471C105.78 134.826 85.5988 192.874 108.954 241.124C132.309 289.374 190.357 309.556 238.607 286.201Z" stroke="#1D2A90" stroke-width="2" stroke-miterlimit="10"/>
<path d="M226.87 302.31C284 285.757 316.893 226.025 300.34 168.895C283.787 111.765 224.055 78.8716 166.925 95.4249C109.795 111.978 76.9015 171.71 93.4549 228.84C110.008 285.97 169.74 318.863 226.87 302.31Z" stroke="#1D2A90" stroke-width="2" stroke-miterlimit="10"/>
<path d="M197 62.4998L197 101.5" stroke="#1D2A90" stroke-width="2" stroke-miterlimit="10"/>
</g>
</svg>
