<svg width="27" height="27" viewBox="0 0 27 27" fill="none" xmlns="http://www.w3.org/2000/svg">
<path d="M0.227616 26.7737C0.430917 26.9759 0.759321 26.9759 0.962621 26.7737L13.4757 14.2605L25.9888 26.7737H25.9892C26.1994 26.9911 26.546 26.997 26.7635 26.7867C26.9806 26.5765 26.9864 26.2299 26.7762 26.0125L14.2631 13.4993L26.7762 0.986235C26.9864 0.776026 26.9864 0.435249 26.7762 0.22504C26.566 0.0148305 26.2252 0.0148305 26.015 0.22504L13.5019 12.7381L0.988805 0.22504C0.778596 0.0148305 0.437819 0.0148305 0.22761 0.22504C0.0174013 0.435249 0.0174013 0.776026 0.22761 0.986235L12.7407 13.4993L0.22761 26.0125C0.122143 26.111 0.0625 26.2489 0.0625 26.3932C0.0625 26.5376 0.122145 26.6751 0.22761 26.7736L0.227616 26.7737Z" fill="white"/>
</svg>
