<svg width="67" height="67" viewBox="0 0 67 67" fill="none" xmlns="http://www.w3.org/2000/svg">
<rect width="67" height="67" rx="33.5" fill="url(#paint0_diamond_22_6160)"/>
<path d="M19.4042 44.0724L20.2986 44.5196L20.5752 43.9663L20.2037 43.4717L19.4042 44.0724ZM22.9275 47.5957L23.5281 46.7961L23.0335 46.4246L22.4803 46.7012L22.9275 47.5957ZM15.8809 51.119L14.9864 50.6718C14.7939 51.0567 14.8694 51.5217 15.1738 51.8261C15.4781 52.1304 15.9431 52.2059 16.3281 52.0134L15.8809 51.119ZM26.4523 26.4523L25.8523 25.6523C25.6005 25.8412 25.4523 26.1376 25.4523 26.4523H26.4523ZM40.5475 40.5475V41.5475C40.8425 41.5475 41.1224 41.4173 41.3124 41.1917L40.5475 40.5475ZM27.5472 25.6311L26.9472 24.8311L26.9472 24.8311L27.5472 25.6311ZM30.3527 26.8221L29.3604 26.9461L29.3604 26.9461L30.3527 26.8221ZM30.7502 30.002L31.7424 29.878L31.7424 29.878L30.7502 30.002ZM30.2477 31.4664L29.5406 30.7593L29.5406 30.7593L30.2477 31.4664ZM41.3286 39.62L40.5637 38.9759L40.5637 38.9759L41.3286 39.62ZM40.236 36.7418L40.3808 35.7523L40.3808 35.7523L40.236 36.7418ZM37.0182 36.2709L37.163 35.2814L37.0182 36.2709ZM35.5172 36.7684L36.2243 37.4755L36.2243 37.4755L35.5172 36.7684ZM14.8809 33.4999C14.8809 37.6908 16.2667 41.5609 18.6046 44.673L20.2037 43.4717C18.117 40.6941 16.8809 37.2428 16.8809 33.4999H14.8809ZM33.4999 14.8809C23.2169 14.8809 14.8809 23.2169 14.8809 33.4999H16.8809C16.8809 24.3215 24.3215 16.8809 33.4999 16.8809V14.8809ZM52.119 33.4999C52.119 23.2169 43.7829 14.8809 33.4999 14.8809V16.8809C42.6784 16.8809 50.119 24.3215 50.119 33.4999H52.119ZM33.4999 52.119C43.7829 52.119 52.119 43.7829 52.119 33.4999H50.119C50.119 42.6784 42.6784 50.119 33.4999 50.119V52.119ZM22.3268 48.3952C25.439 50.7331 29.309 52.119 33.4999 52.119V50.119C29.757 50.119 26.3058 48.8828 23.5281 46.7961L22.3268 48.3952ZM16.3281 52.0134L23.3747 48.4901L22.4803 46.7012L15.4336 50.2245L16.3281 52.0134ZM18.5097 43.6251L14.9864 50.6718L16.7753 51.5662L20.2986 44.5196L18.5097 43.6251ZM25.4523 26.4523V28.2142H27.4523V26.4523H25.4523ZM38.7856 41.5475H40.5475V39.5475H38.7856V41.5475ZM25.4523 28.2142C25.4523 35.578 31.4218 41.5475 38.7856 41.5475V39.5475C32.5264 39.5475 27.4523 34.4734 27.4523 28.2142H25.4523ZM27.0523 27.2523L28.1472 26.4311L26.9472 24.8311L25.8523 25.6523L27.0523 27.2523ZM29.3604 26.9461L29.7579 30.126L31.7424 29.878L31.345 26.6981L29.3604 26.9461ZM29.5406 30.7593L27.5071 32.7928L28.9213 34.207L30.9548 32.1735L29.5406 30.7593ZM29.7579 30.126C29.7871 30.3593 29.7069 30.593 29.5406 30.7593L30.9548 32.1735C31.5575 31.5708 31.8482 30.7237 31.7424 29.878L29.7579 30.126ZM28.1472 26.4311C28.6152 26.0801 29.2878 26.3656 29.3604 26.9461L31.345 26.6981C31.0819 24.5938 28.6438 23.5587 26.9472 24.8311L28.1472 26.4311ZM41.3124 41.1917L42.0935 40.2642L40.5637 38.9759L39.7826 39.9034L41.3124 41.1917ZM40.3808 35.7523L37.163 35.2814L36.8734 37.2604L40.0912 37.7313L40.3808 35.7523ZM34.8101 36.0613L32.7928 38.0785L34.207 39.4928L36.2243 37.4755L34.8101 36.0613ZM37.163 35.2814C36.2995 35.1551 35.4271 35.4442 34.8101 36.0613L36.2243 37.4755C36.3945 37.3053 36.6352 37.2255 36.8734 37.2604L37.163 35.2814ZM42.0935 40.2642C43.4876 38.6087 42.5223 36.0657 40.3808 35.7523L40.0912 37.7313C40.682 37.8177 40.9483 38.5192 40.5637 38.9759L42.0935 40.2642Z" fill="white"/>
<defs>
<radialGradient id="paint0_diamond_22_6160" cx="0" cy="0" r="1" gradientUnits="userSpaceOnUse" gradientTransform="translate(-27 33) rotate(10.4033) scale(130.139 2445.07)">
<stop stop-color="#00F0FF"/>
<stop offset="0.506706" stop-color="#5438FF"/>
<stop offset="0.972098" stop-color="#C92FFF"/>
</radialGradient>
</defs>
</svg>
