<svg width="69" height="76" viewBox="0 0 69 76" fill="none" xmlns="http://www.w3.org/2000/svg">
<path d="M5.11149 42.0111C4.76082 40.1522 4.58475 38.2647 4.58556 36.3731C4.58556 23.0398 12.6212 12.22 25.3903 7.96778M53.5668 59.39C48.2143 63.8398 41.4691 66.2764 34.5037 66.2761C27.821 66.2704 21.3344 64.0208 16.0872 59.8892M63.9821 31.2687C64.2772 32.9542 64.4244 34.6621 64.4218 36.3731C64.41 38.7885 64.1031 41.1934 63.5079 43.5347M43.8068 7.96778C49.1832 9.72841 53.9489 12.9759 57.5502 17.3329" stroke="white" stroke-width="2" stroke-miterlimit="10" stroke-linecap="round"/>
<path d="M34.5046 11.6863C33.1326 11.6863 31.8167 11.1422 30.8466 10.1736C29.8764 9.20505 29.3314 7.89142 29.3314 6.52168C29.3314 5.15194 29.8764 3.8383 30.8466 2.86975C31.8167 1.9012 33.1326 1.35708 34.5046 1.35708C35.8766 1.35708 37.1924 1.9012 38.1625 2.86975C39.1327 3.8383 39.6777 5.15194 39.6777 6.52168C39.6777 7.89142 39.1327 9.20505 38.1625 10.1736C37.1924 11.1422 35.8766 11.6863 34.5046 11.6863Z" fill="#4434FB" stroke="white" stroke-width="2" stroke-linecap="round" stroke-linejoin="round"/>
<path d="M60.1535 57.2468C59.4311 57.2468 58.7158 57.1048 58.0484 56.8288C57.381 56.5528 56.7746 56.1483 56.2638 55.6383C55.753 55.1284 55.3479 54.523 55.0714 53.8567C54.795 53.1904 54.6527 52.4763 54.6527 51.7551C54.6527 51.034 54.795 50.3198 55.0714 49.6536C55.3479 48.9873 55.753 48.3819 56.2638 47.8719C56.7746 47.362 57.381 46.9575 58.0484 46.6815C58.7158 46.4055 59.4311 46.2634 60.1535 46.2634C60.8759 46.2634 61.5912 46.4055 62.2586 46.6815C62.9259 46.9575 63.5324 47.362 64.0431 47.8719C64.5539 48.3819 64.9591 48.9873 65.2356 49.6536C65.512 50.3198 65.6543 51.034 65.6543 51.7551C65.6543 52.4763 65.512 53.1904 65.2356 53.8567C64.9591 54.523 64.5539 55.1284 64.0431 55.6383C63.5324 56.1483 62.9259 56.5528 62.2586 56.8288C61.5912 57.1048 60.8759 57.2468 60.1535 57.2468V57.2468Z" stroke="white" stroke-width="2" stroke-linecap="round" stroke-linejoin="round"/>
<path d="M6.3883 49.0695C5.67699 49.7811 5.27751 50.7454 5.27751 51.7508C5.27751 52.7561 5.67699 53.7204 6.3883 54.4321C7.10112 55.1422 8.06701 55.541 9.07403 55.541C10.081 55.541 11.0469 55.1422 11.7598 54.4321" stroke="white" stroke-width="2" stroke-linecap="round" stroke-linejoin="round"/>
<path d="M9.06924 58.6326C7.23989 58.6326 5.48547 57.9071 4.19193 56.6157C2.89839 55.3243 2.17168 53.5728 2.17168 51.7464C2.17168 49.9201 2.89839 48.1686 4.19193 46.8772C5.48547 45.5858 7.23989 44.8603 9.06924 44.8603C10.8986 44.8603 12.653 45.5858 13.9465 46.8772C15.2401 48.1686 15.9668 49.9201 15.9668 51.7464C15.9668 53.5728 15.2401 55.3243 13.9465 56.6157C12.653 57.9071 10.8986 58.6326 9.06924 58.6326V58.6326Z" stroke="white" stroke-width="2" stroke-linecap="round" stroke-linejoin="round"/>
<path d="M60.1557 53.95C59.5726 53.95 59.0134 53.7187 58.6011 53.3071C58.1888 52.8954 57.9571 52.3371 57.9571 51.755C57.9571 51.1729 58.1888 50.6146 58.6011 50.2029C59.0134 49.7913 59.5726 49.56 60.1557 49.56C60.7373 49.5623 61.2943 49.7946 61.7048 50.206C62.1153 50.6174 62.3457 51.1744 62.3457 51.755C62.3457 52.3357 62.1153 52.8926 61.7048 53.304C61.2943 53.7154 60.7373 53.9477 60.1557 53.95Z" stroke="white" stroke-width="2" stroke-linecap="round" stroke-linejoin="round"/>
<path d="M18.3117 17.3244C18.3117 17.3244 7.97541 17.3244 1.35237 17.3244L3.90213 21.809M37.211 69.9516L34.5037 74.6428L8.63791 30.0035M47.747 17.3244L67.6465 17.3244L41.9531 61.7313" stroke="white" stroke-width="2" stroke-linecap="round" stroke-linejoin="round"/>
</svg>
