<svg width="157" height="160" viewBox="0 0 157 160" fill="none" xmlns="http://www.w3.org/2000/svg">
<g opacity="0.8">
<path d="M46.9349 7.573C48.75 7.573 50.2214 6.10159 50.2214 4.2865C50.2214 2.47142 48.75 1 46.9349 1C45.1199 1 43.6484 2.47142 43.6484 4.2865C43.6484 6.10159 45.1199 7.573 46.9349 7.573Z" stroke="white" stroke-width="2" stroke-miterlimit="10" stroke-linecap="round" stroke-linejoin="round"/>
<path d="M4.2865 119.573C6.10159 119.573 7.57301 118.102 7.57301 116.287C7.57301 114.471 6.10159 113 4.2865 113C2.47142 113 1 114.471 1 116.287C1 118.102 2.47142 119.573 4.2865 119.573Z" stroke="white" stroke-width="2" stroke-miterlimit="10" stroke-linecap="round" stroke-linejoin="round"/>
<path d="M133.224 26.8333C135.039 26.8333 136.511 25.3618 136.511 23.5468C136.511 21.7317 135.039 20.2603 133.224 20.2603C131.409 20.2603 129.938 21.7317 129.938 23.5468C129.938 25.3618 131.409 26.8333 133.224 26.8333Z" stroke="white" stroke-width="2" stroke-miterlimit="10" stroke-linecap="round" stroke-linejoin="round"/>
<path d="M76.1303 129.25C77.9453 129.25 79.4168 127.779 79.4168 125.964C79.4168 124.148 77.9453 122.677 76.1303 122.677C74.3152 122.677 72.8438 124.148 72.8438 125.964C72.8438 127.779 74.3152 129.25 76.1303 129.25Z" stroke="white" stroke-width="2" stroke-miterlimit="10" stroke-linecap="round" stroke-linejoin="round"/>
<path d="M14.9102 46.2466V57.0997" stroke="white" stroke-width="2" stroke-miterlimit="10" stroke-linecap="round" stroke-linejoin="round"/>
<path d="M9.48438 51.6731H20.261" stroke="white" stroke-width="2" stroke-miterlimit="10" stroke-linecap="round" stroke-linejoin="round"/>
<path d="M11.8535 48.6924L17.8915 54.6539" stroke="white" stroke-width="2" stroke-miterlimit="10" stroke-linecap="round" stroke-linejoin="round"/>
<path d="M11.8535 54.6539L17.8915 48.6924" stroke="white" stroke-width="2" stroke-miterlimit="10" stroke-linecap="round" stroke-linejoin="round"/>
<path d="M99.748 47.8518V58.7049" stroke="white" stroke-width="2" stroke-miterlimit="10" stroke-linecap="round" stroke-linejoin="round"/>
<path d="M94.3984 53.2786H105.175" stroke="white" stroke-width="2" stroke-miterlimit="10" stroke-linecap="round" stroke-linejoin="round"/>
<path d="M96.7695 50.2974L102.808 56.3354" stroke="white" stroke-width="2" stroke-miterlimit="10" stroke-linecap="round" stroke-linejoin="round"/>
<path d="M96.7695 56.3354L102.808 50.2974" stroke="white" stroke-width="2" stroke-miterlimit="10" stroke-linecap="round" stroke-linejoin="round"/>
<path d="M18.043 133.148V143.925" stroke="white" stroke-width="2" stroke-miterlimit="10" stroke-linecap="round" stroke-linejoin="round"/>
<path d="M12.6934 138.498H23.47" stroke="white" stroke-width="2" stroke-miterlimit="10" stroke-linecap="round" stroke-linejoin="round"/>
<path d="M15.0625 135.518L21.1005 141.556" stroke="white" stroke-width="2" stroke-miterlimit="10" stroke-linecap="round" stroke-linejoin="round"/>
<path d="M15.0625 141.556L21.1005 135.518" stroke="white" stroke-width="2" stroke-miterlimit="10" stroke-linecap="round" stroke-linejoin="round"/>
<path d="M140.332 131.543V142.32" stroke="white" stroke-width="2" stroke-miterlimit="10" stroke-linecap="round" stroke-linejoin="round"/>
<path d="M134.906 136.969H145.759" stroke="white" stroke-width="2" stroke-miterlimit="10" stroke-linecap="round" stroke-linejoin="round"/>
<path d="M137.352 133.913L143.39 139.951" stroke="white" stroke-width="2" stroke-miterlimit="10" stroke-linecap="round" stroke-linejoin="round"/>
<path d="M137.352 139.951L143.39 133.913" stroke="white" stroke-width="2" stroke-miterlimit="10" stroke-linecap="round" stroke-linejoin="round"/>
<path d="M136.127 83.2389C137.35 83.086 138.649 83.0096 139.872 83.1624C142.012 83.3917 143.999 84.156 145.604 85.3025C145.986 85.6082 146.369 85.9139 146.751 86.2196C147.056 86.5254 147.439 86.9075 147.668 87.2897C147.821 87.5189 147.974 87.6718 148.05 87.9011C148.203 88.1304 148.279 88.2833 148.356 88.5125C148.432 88.7418 148.585 88.9711 148.662 89.124L148.738 89.2768L148.814 89.3533L148.891 89.5826L148.967 89.8119L149.044 89.8883V89.9647C149.044 90.0411 149.12 90.1176 149.12 90.194C149.12 90.3469 149.197 90.4997 149.273 90.5762C149.273 90.6526 149.349 90.729 149.349 90.8054C149.349 90.8819 149.426 90.9583 149.426 91.0347C149.426 91.1112 149.502 91.1876 149.502 91.264C149.579 91.3405 149.579 91.4169 149.579 91.4933C149.884 92.0283 150.267 92.6398 150.802 93.2512" stroke="#4434FB" stroke-width="2" stroke-miterlimit="10" stroke-linecap="round" stroke-linejoin="round"/>
<path d="M47.3906 24.1582V32.4127" stroke="#4434FB" stroke-width="2" stroke-miterlimit="10" stroke-linecap="round" stroke-linejoin="round"/>
<path d="M47.3906 35.7759V44.0304" stroke="#4434FB" stroke-width="2" stroke-miterlimit="10" stroke-linecap="round" stroke-linejoin="round"/>
<path d="M49.225 27.8271C48.2314 28.8207 46.6264 28.8207 45.6328 27.8271" stroke="#4434FB" stroke-width="2" stroke-miterlimit="10" stroke-linecap="round" stroke-linejoin="round"/>
<path d="M47.3146 46.5523H46.856C46.2446 46.5523 45.8624 45.8644 46.1681 45.3294L47.3146 43.5715H47.4675L48.6139 45.3294C48.9196 45.8644 48.5375 46.5523 47.926 46.5523H47.4675H47.3146Z" stroke="#4434FB" stroke-width="2" stroke-miterlimit="10" stroke-linecap="round" stroke-linejoin="round"/>
<path d="M49.9135 22.1713C49.9135 22.1713 49.3021 21.3306 47.3913 21.3306C45.4042 21.3306 44.8691 22.1713 44.8691 22.1713" stroke="#4434FB" stroke-width="2" stroke-miterlimit="10" stroke-linecap="round" stroke-linejoin="round"/>
<path d="M39.7486 35.0117C36.7678 35.0117 34.3984 32.6424 34.3984 29.6616" stroke="#4434FB" stroke-width="2" stroke-miterlimit="10" stroke-linecap="round" stroke-linejoin="round"/>
<path d="M44.3339 48.4633C42.4231 48.4633 40.8945 46.9347 40.8945 45.0239" stroke="#4434FB" stroke-width="2" stroke-miterlimit="10" stroke-linecap="round" stroke-linejoin="round"/>
<path d="M27.2148 22.5535C31.1128 22.5535 34.3229 25.7635 34.3229 29.6615" stroke="#4434FB" stroke-width="2" stroke-miterlimit="10" stroke-linecap="round" stroke-linejoin="round"/>
<path d="M36.4609 33.9417C36.4609 33.9417 41.5818 43.1897 41.5818 50.4506C41.5818 50.4506 41.8111 55.6479 47.2376 55.6479" stroke="#4434FB" stroke-width="2" stroke-miterlimit="10" stroke-linecap="round" stroke-linejoin="round"/>
<path d="M28.2832 22.783C28.2832 25.993 30.8818 28.5917 34.0919 28.5917" stroke="#4434FB" stroke-width="2" stroke-miterlimit="10" stroke-linecap="round" stroke-linejoin="round"/>
<path d="M35.3929 22.477C33.1 20.1841 29.5078 20.1841 27.2148 22.477" stroke="#4434FB" stroke-width="2" stroke-miterlimit="10" stroke-linecap="round" stroke-linejoin="round"/>
<path d="M19.6465 15.1396C22.0158 11.2417 26.2959 8.64307 31.2639 8.64307C38.754 8.64307 44.8685 14.6811 44.8685 22.2477" stroke="#4434FB" stroke-width="2" stroke-miterlimit="10" stroke-linecap="round" stroke-linejoin="round"/>
<path d="M24.1562 22.2479C24.1562 19.1906 26.602 16.7449 29.6592 16.7449C32.7164 16.7449 35.1622 19.1906 35.1622 22.2479" stroke="#4434FB" stroke-width="2" stroke-miterlimit="10" stroke-linecap="round" stroke-linejoin="round"/>
<path d="M44.7926 22.248C42.1175 24.9231 37.761 24.9231 35.0859 22.248" stroke="#4434FB" stroke-width="2" stroke-miterlimit="10" stroke-linecap="round" stroke-linejoin="round"/>
<path d="M11.3145 11.3184C18.9575 12.312 24.8426 18.885 24.8426 26.8337" stroke="#4434FB" stroke-width="2" stroke-miterlimit="10" stroke-linecap="round" stroke-linejoin="round"/>
<path d="M11.3145 11.3184C17.1232 13.9934 20.2568 20.49 18.5753 26.8337" stroke="#4434FB" stroke-width="2" stroke-miterlimit="10" stroke-linecap="round" stroke-linejoin="round"/>
<path d="M24.8437 26.8335C23.468 28.8971 22.5508 29.585 21.7101 29.585H21.6336C20.7929 29.585 19.7993 28.8971 18.5 26.8335" stroke="#4434FB" stroke-width="2" stroke-miterlimit="10" stroke-linecap="round" stroke-linejoin="round"/>
<path d="M15.8252 14.8342C13.7616 12.6177 10.2458 12.5412 8.0293 14.6049C8.0293 12.7705 9.48146 11.3184 11.3158 11.3184" stroke="#4434FB" stroke-width="2" stroke-miterlimit="10" stroke-linecap="round" stroke-linejoin="round"/>
<path d="M41.6586 33.4065C39.2892 32.9479 37.6842 30.655 38.1428 28.2856" stroke="#4434FB" stroke-width="2" stroke-miterlimit="10" stroke-linecap="round" stroke-linejoin="round"/>
<path d="M41.6602 33.4067C43.0359 33.636 44.0295 35.0118 43.7238 36.3875" stroke="#4434FB" stroke-width="2" stroke-miterlimit="10" stroke-linecap="round" stroke-linejoin="round"/>
<path d="M34.8555 20.4899C37.5305 17.8149 41.9635 17.8149 44.6385 20.4899" stroke="#4434FB" stroke-width="2" stroke-miterlimit="10" stroke-linecap="round" stroke-linejoin="round"/>
<path d="M33.7109 18.4265C35.0103 14.9871 38.8318 13.2292 42.2711 14.5285" stroke="#4434FB" stroke-width="2" stroke-miterlimit="10" stroke-linecap="round" stroke-linejoin="round"/>
<path d="M30.8062 16.7451C30.7298 13.1529 33.5577 10.1721 37.2264 10.0957" stroke="#4434FB" stroke-width="2" stroke-miterlimit="10" stroke-linecap="round" stroke-linejoin="round"/>
<path d="M29.0472 16.821C26.8307 14.681 26.7543 11.1652 28.8943 8.94873" stroke="#4434FB" stroke-width="2" stroke-miterlimit="10" stroke-linecap="round" stroke-linejoin="round"/>
<path d="M26.2981 17.8913C23.5466 17.127 22.018 14.2991 22.7823 11.624" stroke="#4434FB" stroke-width="2" stroke-miterlimit="10" stroke-linecap="round" stroke-linejoin="round"/>
<path d="M24.4616 23.394C23.7737 25.9162 21.0986 27.4448 18.5 26.757" stroke="#4434FB" stroke-width="2" stroke-miterlimit="10" stroke-linecap="round" stroke-linejoin="round"/>
<path d="M23.0862 19.8782C22.5512 21.6361 20.7169 22.7061 18.959 22.2475" stroke="#4434FB" stroke-width="2" stroke-miterlimit="10" stroke-linecap="round" stroke-linejoin="round"/>
<path d="M20.946 16.439C20.946 17.8911 19.7996 19.0376 18.4238 19.0376" stroke="#4434FB" stroke-width="2" stroke-miterlimit="10" stroke-linecap="round" stroke-linejoin="round"/>
<path d="M18.576 14.2227C18.576 15.2162 17.8117 15.9805 16.8945 15.9805" stroke="#4434FB" stroke-width="2" stroke-miterlimit="10" stroke-linecap="round" stroke-linejoin="round"/>
<path d="M55.1113 35.0117C58.0921 35.0117 60.4614 32.6424 60.4614 29.6616" stroke="#4434FB" stroke-width="2" stroke-miterlimit="10" stroke-linecap="round" stroke-linejoin="round"/>
<path d="M50.4492 48.4633C52.36 48.4633 53.8886 46.9347 53.8886 45.0239" stroke="#4434FB" stroke-width="2" stroke-miterlimit="10" stroke-linecap="round" stroke-linejoin="round"/>
<path d="M67.569 22.5532C63.671 22.5532 60.4609 25.7633 60.4609 29.6612" stroke="#4434FB" stroke-width="2" stroke-miterlimit="10" stroke-linecap="round" stroke-linejoin="round"/>
<path d="M58.3216 33.9417C58.3216 33.9417 53.2008 43.1897 53.2008 50.4506C53.2008 50.4506 52.9715 55.6479 47.5449 55.6479" stroke="#4434FB" stroke-width="2" stroke-miterlimit="10" stroke-linecap="round" stroke-linejoin="round"/>
<path d="M66.5001 22.7832C66.5001 25.9933 63.9015 28.5919 60.6914 28.5919" stroke="#4434FB" stroke-width="2" stroke-miterlimit="10" stroke-linecap="round" stroke-linejoin="round"/>
<path d="M59.3906 22.477C61.6835 20.1841 65.2758 20.1841 67.5687 22.477" stroke="#4434FB" stroke-width="2" stroke-miterlimit="10" stroke-linecap="round" stroke-linejoin="round"/>
<path d="M75.1361 15.1396C72.7667 11.2417 68.4866 8.64307 63.5187 8.64307C56.0285 8.64307 49.9141 14.6811 49.9141 22.2477" stroke="#4434FB" stroke-width="2" stroke-miterlimit="10" stroke-linecap="round" stroke-linejoin="round"/>
<path d="M70.627 22.2476C70.627 19.1904 68.1813 16.7446 65.1241 16.7446C62.0669 16.7446 59.6211 19.1904 59.6211 22.2476" stroke="#4434FB" stroke-width="2" stroke-miterlimit="10" stroke-linecap="round" stroke-linejoin="round"/>
<path d="M49.9902 22.248C52.6653 24.9231 57.0218 24.9231 59.6969 22.248" stroke="#4434FB" stroke-width="2" stroke-miterlimit="10" stroke-linecap="round" stroke-linejoin="round"/>
<path d="M83.4676 11.3184C75.8246 12.312 69.9395 18.885 69.9395 26.8337" stroke="#4434FB" stroke-width="2" stroke-miterlimit="10" stroke-linecap="round" stroke-linejoin="round"/>
<path d="M83.4673 11.3184C77.6586 13.9934 74.5249 20.49 76.2064 26.8337" stroke="#4434FB" stroke-width="2" stroke-miterlimit="10" stroke-linecap="round" stroke-linejoin="round"/>
<path d="M69.9395 26.8335C71.3152 28.8971 72.2324 29.585 73.0731 29.585H73.1495C73.9903 29.585 74.9838 28.8971 76.2832 26.8335" stroke="#4434FB" stroke-width="2" stroke-miterlimit="10" stroke-linecap="round" stroke-linejoin="round"/>
<path d="M78.957 14.8342C81.0206 12.6177 84.5365 12.5412 86.7529 14.6049C86.7529 12.7705 85.3008 11.3184 83.4664 11.3184" stroke="#4434FB" stroke-width="2" stroke-miterlimit="10" stroke-linecap="round" stroke-linejoin="round"/>
<path d="M53.125 33.4065C55.4943 32.9479 57.0994 30.655 56.6408 28.2856" stroke="#4434FB" stroke-width="2" stroke-miterlimit="10" stroke-linecap="round" stroke-linejoin="round"/>
<path d="M53.125 33.4067C51.7493 33.636 50.7557 35.0118 51.0614 36.3875" stroke="#4434FB" stroke-width="2" stroke-miterlimit="10" stroke-linecap="round" stroke-linejoin="round"/>
<path d="M60.0018 20.4902C57.3268 17.8151 52.8938 17.8151 50.2188 20.4902" stroke="#4434FB" stroke-width="2" stroke-miterlimit="10" stroke-linecap="round" stroke-linejoin="round"/>
<path d="M61.0719 18.4265C59.7726 14.9871 55.9511 13.2292 52.5117 14.5285" stroke="#4434FB" stroke-width="2" stroke-miterlimit="10" stroke-linecap="round" stroke-linejoin="round"/>
<path d="M63.9787 16.7446C64.0552 13.1524 61.2272 10.1716 57.5586 10.0952" stroke="#4434FB" stroke-width="2" stroke-miterlimit="10" stroke-linecap="round" stroke-linejoin="round"/>
<path d="M65.7363 16.821C67.9528 14.681 68.0292 11.1652 65.8892 8.94873" stroke="#4434FB" stroke-width="2" stroke-miterlimit="10" stroke-linecap="round" stroke-linejoin="round"/>
<path d="M68.4863 17.8913C71.2378 17.127 72.7664 14.2991 72.0021 11.624" stroke="#4434FB" stroke-width="2" stroke-miterlimit="10" stroke-linecap="round" stroke-linejoin="round"/>
<path d="M70.3203 23.394C71.0082 25.9162 73.6832 27.4448 76.2819 26.757" stroke="#4434FB" stroke-width="2" stroke-miterlimit="10" stroke-linecap="round" stroke-linejoin="round"/>
<path d="M71.6973 19.8782C72.2323 21.6361 74.0666 22.7061 75.8245 22.2475" stroke="#4434FB" stroke-width="2" stroke-miterlimit="10" stroke-linecap="round" stroke-linejoin="round"/>
<path d="M73.8359 16.4392C73.8359 17.8914 74.9824 19.0378 76.3581 19.0378" stroke="#4434FB" stroke-width="2" stroke-miterlimit="10" stroke-linecap="round" stroke-linejoin="round"/>
<path d="M76.207 14.2227C76.207 15.2162 76.9713 15.9805 77.8885 15.9805" stroke="#4434FB" stroke-width="2" stroke-miterlimit="10" stroke-linecap="round" stroke-linejoin="round"/>
<path d="M37.0742 56.2592C39.9021 49.7626 39.1378 39.9031 39.1378 39.9031" stroke="#4434FB" stroke-width="2" stroke-miterlimit="10" stroke-linecap="round" stroke-linejoin="round"/>
<path d="M55.6468 39.9031C55.6468 39.9031 54.8825 49.7626 57.7105 56.2592" stroke="#4434FB" stroke-width="2" stroke-miterlimit="10" stroke-linecap="round" stroke-linejoin="round"/>
<path d="M53.9641 60.3862C51.2126 64.437 49.149 65.6599 47.3911 65.5071H47.4675C45.7096 65.6599 43.5696 64.437 40.8945 60.3862" stroke="#4434FB" stroke-width="2" stroke-miterlimit="10" stroke-linecap="round" stroke-linejoin="round"/>
<path d="M137.884 93.0985C137.884 80.4111 127.643 70.1694 114.955 70.1694" stroke="#4434FB" stroke-width="2" stroke-miterlimit="10" stroke-linecap="round" stroke-linejoin="round"/>
<path d="M56.6406 49.839C56.6406 49.839 70.7038 49.2275 82.7798 57.4056C102.728 70.8573 114.88 70.1694 114.88 70.1694" stroke="#4434FB" stroke-width="2" stroke-miterlimit="10" stroke-linecap="round" stroke-linejoin="round"/>
<path d="M65.8125 111.9C65.8125 111.9 76.6656 116.792 92.1045 111.212" stroke="#4434FB" stroke-width="2" stroke-miterlimit="10" stroke-linecap="round" stroke-linejoin="round"/>
<path d="M35.8496 104.028C36.7668 104.869 40.6647 107.926 47.3906 108.232" stroke="#4434FB" stroke-width="2" stroke-miterlimit="10" stroke-linecap="round" stroke-linejoin="round"/>
<path d="M135.82 83.2393C136.126 82.9336 136.508 82.7043 136.89 82.475C137.273 82.3222 137.655 82.0929 138.113 81.94C138.572 81.7872 138.954 81.7107 139.413 81.6343C139.871 81.5579 140.33 81.5579 140.788 81.5579C142.623 81.6343 144.533 82.2457 146.138 83.3158C147.743 84.3858 149.119 85.9908 150.036 87.8252C150.266 88.2837 150.495 88.7423 150.648 89.2773C150.801 89.7359 150.954 90.2709 151.03 90.8059C151.106 91.0352 151.106 91.3409 151.183 91.5702C151.259 91.7995 151.259 92.1052 151.259 92.3345C151.259 92.5638 151.259 92.8695 151.336 93.0988V93.3281V93.481V93.7103V93.9396V94.0924V94.1689C151.336 94.2453 151.336 94.3217 151.336 94.3982C151.336 94.551 151.336 94.7039 151.336 94.8567C151.336 94.9332 151.336 95.0096 151.336 95.086C151.336 95.1625 151.336 95.2389 151.336 95.3153C151.336 95.3917 151.336 95.4682 151.336 95.5446C151.336 95.621 151.336 95.6975 151.336 95.7739C151.412 96.4618 151.489 97.2261 151.794 98.0668C152.024 98.9075 152.406 99.8247 153.094 100.895L153.629 101.659L154.316 102.423C154.546 102.653 154.851 102.958 155.081 103.264C155.386 103.57 155.692 103.799 155.998 104.105C155.692 104.411 155.31 104.64 154.928 104.869C154.546 105.022 154.164 105.251 153.705 105.404C153.246 105.557 152.864 105.633 152.406 105.71C151.947 105.786 151.489 105.786 151.03 105.786C149.196 105.71 147.285 105.098 145.68 104.028C144.075 102.958 142.699 101.353 141.782 99.519C141.553 99.0604 141.323 98.6018 141.17 98.0668C141.094 97.8375 141.018 97.6082 140.941 97.3025C140.865 97.0732 140.788 96.7675 140.788 96.5382C140.712 96.3089 140.712 96.0032 140.635 95.7739C140.559 95.5446 140.559 95.2389 140.559 95.0096L140.483 94.2453V94.016V93.8631V93.6338V93.4046V93.2517V93.1753C140.483 93.0988 140.483 93.0224 140.483 92.946C140.483 92.8695 140.483 92.7931 140.483 92.7167C140.483 92.6403 140.483 92.5638 140.483 92.4874C140.483 92.411 140.483 92.3345 140.483 92.2581C140.483 92.1817 140.483 92.1052 140.483 92.0288C140.483 91.876 140.483 91.7231 140.483 91.4938C140.406 90.8059 140.33 90.0416 140.024 89.2009C139.795 88.3602 139.413 87.443 138.725 86.373L138.19 85.6087L137.502 84.8444C137.272 84.6151 136.967 84.3094 136.737 84.0036C136.508 83.8508 136.202 83.6215 135.82 83.2393Z" stroke="#4434FB" stroke-width="2" stroke-miterlimit="10" stroke-linecap="round" stroke-linejoin="round"/>
<path d="M135.82 83.01C136.89 83.3157 137.884 83.7743 138.878 84.4622C140.559 85.6086 141.935 87.2137 142.852 89.048C143.081 89.5066 143.31 89.9652 143.463 90.5002C143.616 91.0352 143.769 91.4938 143.845 92.0288C143.922 92.2581 143.922 92.5638 143.998 92.7931C144.075 93.0224 144.075 93.3281 144.075 93.5574C144.075 93.7867 144.075 94.0924 144.151 94.3217V94.551V94.7038V94.9331V95.1624V95.3153V95.3917C144.151 95.4681 144.151 95.5446 144.151 95.621C144.151 95.7739 144.151 95.9267 144.151 96.0796C144.151 96.156 144.151 96.2324 144.151 96.3089C144.151 96.3853 144.151 96.4617 144.151 96.5382C144.151 96.6146 144.151 96.691 144.151 96.7675C144.151 96.8439 144.151 96.9203 144.151 96.9968C144.228 97.6846 144.304 98.4489 144.61 99.2897C144.839 100.13 145.298 101.124 145.909 102.118L146.444 102.882L147.132 103.723C147.361 103.952 147.667 104.258 147.896 104.563C148.202 104.869 148.508 105.098 148.813 105.481" stroke="#4434FB" stroke-width="2" stroke-miterlimit="10" stroke-linecap="round" stroke-linejoin="round"/>
<path d="M136.738 83.3154C138.114 83.5447 139.49 84.0033 140.713 84.6147C142.853 85.6848 144.763 87.2134 145.986 89.0477C146.292 89.5063 146.598 89.9649 146.827 90.4999C147.056 90.9585 147.286 91.4935 147.439 92.0285C147.515 92.2578 147.591 92.5635 147.668 92.7928C147.744 93.0221 147.744 93.3278 147.821 93.5571C147.821 93.7864 147.897 94.0921 147.897 94.3214V94.5507V94.7035V94.9328V95.1621V95.315V95.3914C147.897 95.4678 147.897 95.5443 147.897 95.6207C147.897 95.7736 147.897 95.9264 147.897 96.0793C147.897 96.1557 147.897 96.2321 147.897 96.3086C147.897 96.385 147.897 96.4614 147.897 96.5379C147.897 96.6143 147.897 96.6907 147.897 96.7672C147.897 96.8436 147.897 96.92 147.974 96.9965C148.05 97.6843 148.279 98.4486 148.585 99.2894C148.967 100.13 149.502 101.047 150.343 102.117L151.107 102.882L152.024 103.646C152.33 103.875 152.712 104.181 153.094 104.41C153.477 104.639 153.859 104.945 154.317 105.251" stroke="#4434FB" stroke-width="2" stroke-miterlimit="10" stroke-linecap="round" stroke-linejoin="round"/>
<path d="M137.887 92.7166C137.81 97.6081 135.823 102.5 132.078 106.245" stroke="#4434FB" stroke-width="2" stroke-miterlimit="10" stroke-linecap="round" stroke-linejoin="round"/>
<path d="M108.307 100.207C108.307 109.837 115.185 117.786 124.204 119.543C125.198 119.773 125.962 120.384 126.344 121.225C126.803 122.218 126.573 123.365 125.809 124.129C125.045 124.97 123.669 126.957 124.128 129.785C124.128 129.785 124.51 146.218 121.376 150.268" stroke="#4434FB" stroke-width="2" stroke-miterlimit="10" stroke-linecap="round" stroke-linejoin="round"/>
<path d="M132.077 106.321C132.077 108.537 133.3 110.448 135.135 111.442C136.51 112.206 137.122 113.811 136.51 115.263L127.645 149.81" stroke="#4434FB" stroke-width="2" stroke-miterlimit="10" stroke-linecap="round" stroke-linejoin="round"/>
<path d="M128.179 149.275C126.345 151.109 123.058 152.103 121.224 150.268L119.084 156.306C119.084 156.306 123.058 160.281 127.873 156.536L128.179 149.275Z" stroke="#4434FB" stroke-width="2" stroke-miterlimit="10" stroke-linecap="round" stroke-linejoin="round"/>
<path d="M34.2439 58.5522C30.1167 63.5202 27.6709 69.0232 26.0659 73.9147C25.2251 76.5134 25.378 79.2648 24.843 81.9399C24.2316 84.9207 22.7029 87.5958 21.7858 90.5001C21.0215 92.9459 21.0215 94.5509 22.6265 97.761" stroke="#4434FB" stroke-width="2" stroke-miterlimit="10" stroke-linecap="round" stroke-linejoin="round"/>
<path d="M55.7991 91.9521C50.7547 96.9965 47.621 103.875 47.1624 110.983C46.9332 114.805 47.3917 118.703 48.6146 122.295C49.2261 124.129 50.0668 125.887 50.984 127.645C52.054 129.632 52.2833 131.39 52.2833 133.607C52.2068 136.664 52.054 139.798 51.6718 142.855C51.3661 145.3 51.0604 148.358 49.5318 150.421" stroke="#4434FB" stroke-width="2" stroke-miterlimit="10" stroke-linecap="round" stroke-linejoin="round"/>
<path d="M77.1251 96.3086C70.8578 99.748 65.8898 105.404 63.444 112.13C62.1447 115.722 61.4568 119.543 61.6097 123.441C61.6861 125.429 61.9154 127.339 62.374 129.25C62.8326 131.467 62.6033 133.148 61.9154 135.288C60.9983 138.269 60.0047 141.173 58.7818 144.001C57.7882 146.218 56.6417 149.122 54.5781 150.651" stroke="#4434FB" stroke-width="2" stroke-miterlimit="10" stroke-linecap="round" stroke-linejoin="round"/>
<path d="M56.0288 149.275C54.1945 151.109 50.908 152.103 49.0736 150.268L46.9336 156.306C46.9336 156.306 50.908 160.281 55.7231 156.536L56.0288 149.275Z" stroke="#4434FB" stroke-width="2" stroke-miterlimit="10" stroke-linecap="round" stroke-linejoin="round"/>
<path d="M40.5154 121.608C37.1524 117.251 35.3945 105.404 35.3945 105.404C35.5474 103.57 37.7639 98.9078 38.146 97.1499" stroke="#4434FB" stroke-width="2" stroke-miterlimit="10" stroke-linecap="round" stroke-linejoin="round"/>
<path d="M22.5527 97.8376L36.0045 125.582" stroke="#4434FB" stroke-width="2" stroke-miterlimit="10" stroke-linecap="round" stroke-linejoin="round"/>
<path d="M40.2836 120.614C40.0543 123.212 38.1436 126.04 35.5449 125.811L37.7614 131.849C37.7614 131.849 43.4172 132.384 44.6401 126.422L40.2836 120.614Z" stroke="#4434FB" stroke-width="2" stroke-miterlimit="10" stroke-linecap="round" stroke-linejoin="round"/>
<path d="M89.0469 100.207C89.0469 109.837 95.9256 117.786 104.944 119.543C105.938 119.773 106.702 120.384 107.084 121.225C107.543 122.218 107.314 123.365 106.549 124.129C105.785 124.97 104.409 126.957 104.868 129.785C104.868 129.785 105.25 146.218 102.116 150.268" stroke="#4434FB" stroke-width="2" stroke-miterlimit="10" stroke-linecap="round" stroke-linejoin="round"/>
<path d="M116.869 116.486L108.309 149.81" stroke="#4434FB" stroke-width="2" stroke-miterlimit="10" stroke-linecap="round" stroke-linejoin="round"/>
<path d="M108.919 149.275C107.085 151.109 103.799 152.103 101.964 150.268L99.8242 156.306C99.8242 156.306 103.799 160.281 108.614 156.536L108.919 149.275Z" stroke="#4434FB" stroke-width="2" stroke-miterlimit="10" stroke-linecap="round" stroke-linejoin="round"/>
<path d="M108.307 95.5445C108.307 90.1944 112.128 85.685 117.173 84.6914" stroke="#4434FB" stroke-width="2" stroke-miterlimit="10" stroke-linecap="round" stroke-linejoin="round"/>
<path d="M41.582 99.9772C46.7793 94.78 47.4672 86.6784 43.4928 80.7168" stroke="#4434FB" stroke-width="2" stroke-miterlimit="10" stroke-linecap="round" stroke-linejoin="round"/>
<path d="M89.1983 79.7994C89.1983 65.3541 78.8802 53.2781 65.1992 50.603" stroke="#4434FB" stroke-width="2" stroke-miterlimit="10" stroke-linecap="round" stroke-linejoin="round"/>
<path d="M51.4414 158.141H123.668" stroke="#4434FB" stroke-width="2" stroke-miterlimit="10" stroke-linecap="round" stroke-linejoin="round"/>
<path d="M131.236 158.141H145.911" stroke="#4434FB" stroke-width="2" stroke-miterlimit="10" stroke-linecap="round" stroke-linejoin="round"/>
<path d="M26.375 158.141H41.0496" stroke="#4434FB" stroke-width="2" stroke-miterlimit="10" stroke-linecap="round" stroke-linejoin="round"/>
</g>
</svg>
