<svg width="192" height="150" viewBox="0 0 192 150" fill="none" xmlns="http://www.w3.org/2000/svg">
<path d="M32.1226 133.293C33.996 133.293 35.5147 131.774 35.5147 129.901C35.5147 128.027 33.996 126.509 32.1226 126.509C30.2492 126.509 28.7305 128.027 28.7305 129.901C28.7305 131.774 30.2492 133.293 32.1226 133.293Z" stroke="white" stroke-width="2" stroke-miterlimit="10" stroke-linecap="round" stroke-linejoin="round"/>
<path d="M140.891 62.4271C142.765 62.4271 144.283 60.9084 144.283 59.035C144.283 57.1615 142.765 55.6428 140.891 55.6428C139.018 55.6428 137.499 57.1615 137.499 59.035C137.499 60.9084 139.018 62.4271 140.891 62.4271Z" stroke="white" stroke-width="2" stroke-miterlimit="10" stroke-linecap="round" stroke-linejoin="round"/>
<path d="M84.1836 25.9986C82.3401 25.9986 80.7915 27.4734 80.7915 29.3907C80.7915 27.5472 79.3167 25.9986 77.3994 25.9986C79.243 25.9986 80.7915 24.5237 80.7915 22.6064C80.7915 24.45 82.3401 25.9986 84.1836 25.9986Z" stroke="white" stroke-width="2" stroke-miterlimit="10" stroke-linecap="round" stroke-linejoin="round"/>
<path d="M124.521 132.039C122.677 132.039 121.128 133.514 121.128 135.431C121.128 133.588 119.654 132.039 117.736 132.039C119.58 132.039 121.128 130.565 121.128 128.647C121.128 130.491 122.603 132.039 124.521 132.039Z" stroke="white" stroke-width="2" stroke-miterlimit="10" stroke-linecap="round" stroke-linejoin="round"/>
<path d="M178.574 93.6934V104.828" stroke="white" stroke-width="2" stroke-miterlimit="10" stroke-linecap="round" stroke-linejoin="round"/>
<path d="M172.97 99.2979H184.105" stroke="white" stroke-width="2" stroke-miterlimit="10" stroke-linecap="round" stroke-linejoin="round"/>
<path d="M175.402 96.2007L181.67 102.395" stroke="white" stroke-width="2" stroke-miterlimit="10" stroke-linecap="round" stroke-linejoin="round"/>
<path d="M175.402 102.395L181.67 96.2007" stroke="white" stroke-width="2" stroke-miterlimit="10" stroke-linecap="round" stroke-linejoin="round"/>
<path d="M80.791 134.62V145.755" stroke="white" stroke-width="2" stroke-miterlimit="10" stroke-linecap="round" stroke-linejoin="round"/>
<path d="M75.2598 140.151H86.3948" stroke="white" stroke-width="2" stroke-miterlimit="10" stroke-linecap="round" stroke-linejoin="round"/>
<path d="M77.6934 137.054L83.8877 143.248" stroke="white" stroke-width="2" stroke-miterlimit="10" stroke-linecap="round" stroke-linejoin="round"/>
<path d="M77.6934 143.248L83.8877 137.054" stroke="white" stroke-width="2" stroke-miterlimit="10" stroke-linecap="round" stroke-linejoin="round"/>
<path d="M124.521 12.946V24.0811" stroke="white" stroke-width="2" stroke-miterlimit="10" stroke-linecap="round" stroke-linejoin="round"/>
<path d="M118.917 18.4768H130.052" stroke="white" stroke-width="2" stroke-miterlimit="10" stroke-linecap="round" stroke-linejoin="round"/>
<path d="M121.425 15.3794L127.619 21.5737" stroke="white" stroke-width="2" stroke-miterlimit="10" stroke-linecap="round" stroke-linejoin="round"/>
<path d="M121.425 21.5737L127.619 15.3794" stroke="white" stroke-width="2" stroke-miterlimit="10" stroke-linecap="round" stroke-linejoin="round"/>
<path d="M20.8398 52.7668V63.9019" stroke="white" stroke-width="2" stroke-miterlimit="10" stroke-linecap="round" stroke-linejoin="round"/>
<path d="M15.2354 58.3713H26.3704" stroke="white" stroke-width="2" stroke-miterlimit="10" stroke-linecap="round" stroke-linejoin="round"/>
<path d="M17.7432 55.2742L23.9375 61.4685" stroke="white" stroke-width="2" stroke-miterlimit="10" stroke-linecap="round" stroke-linejoin="round"/>
<path d="M17.7432 61.4685L23.9375 55.2742" stroke="white" stroke-width="2" stroke-miterlimit="10" stroke-linecap="round" stroke-linejoin="round"/>
<path d="M24.9661 97.7492C24.9661 120.535 1 119.208 1 119.208C16.7808 112.35 14.4948 91.4811 14.4948 91.4811C14.4948 84.8443 19.878 79.4612 26.5147 79.4612C29.6119 79.4612 32.4141 80.6411 34.4788 82.4846" stroke="#4434FB" stroke-width="2" stroke-miterlimit="10" stroke-linecap="round" stroke-linejoin="round"/>
<path d="M33.0784 97.528C33.0784 95.3157 31.2349 93.4722 29.0226 93.4722C26.8103 93.4722 24.9668 95.3157 24.9668 97.528" stroke="#4434FB" stroke-width="2" stroke-miterlimit="10" stroke-linecap="round" stroke-linejoin="round"/>
<path d="M38.5367 73.6357C38.5367 73.6357 29.3927 83.4434 38.5367 91.4075" stroke="#4434FB" stroke-width="2" stroke-miterlimit="10" stroke-linecap="round" stroke-linejoin="round"/>
<path d="M38.5361 73.6357C38.5361 73.6357 43.1081 78.5764 42.5182 84.2546" stroke="#4434FB" stroke-width="2" stroke-miterlimit="10" stroke-linecap="round" stroke-linejoin="round"/>
<path d="M31.2357 94.136C29.7609 99.8141 32.6368 105.787 36.5451 109.769C38.8311 112.129 40.6009 114.931 41.6333 118.102C42.002 119.134 42.297 120.241 42.5182 121.568" stroke="#4434FB" stroke-width="2" stroke-miterlimit="10" stroke-linecap="round" stroke-linejoin="round"/>
<path d="M52.6935 99.1506C53.5046 99.8143 53.5784 100.92 52.9147 101.732C50.4812 104.165 51.1449 107.926 52.9147 110.654C55.6431 117.217 49.965 119.135 42.5908 121.568" stroke="#4434FB" stroke-width="2" stroke-miterlimit="10" stroke-linecap="round" stroke-linejoin="round"/>
<path d="M53.7997 86.8354C59.1091 87.7204 62.7962 92.7348 61.9113 98.0442C56.9706 100.183 54.6846 106.008 56.8969 110.949C54.0209 111.097 51.5137 108.958 51.3662 106.082" stroke="#4434FB" stroke-width="2" stroke-miterlimit="10" stroke-linecap="round" stroke-linejoin="round"/>
<path d="M40.9688 94.5784C43.181 96.7906 43.181 100.404 40.9688 102.69" stroke="#4434FB" stroke-width="2" stroke-miterlimit="10" stroke-linecap="round" stroke-linejoin="round"/>
<path d="M41.7051 78.134C48.5631 71.276 59.7718 71.276 66.6298 78.134" stroke="#4434FB" stroke-width="2" stroke-miterlimit="10" stroke-linecap="round" stroke-linejoin="round"/>
<path d="M32.1211 80.3461C35.4395 56.6012 55.866 38.3132 80.5695 38.3132C107.559 38.3132 129.46 60.2146 129.46 87.2041" stroke="#4434FB" stroke-width="2" stroke-miterlimit="10" stroke-linecap="round" stroke-linejoin="round"/>
<path d="M67.1481 109.769C64.2722 106.967 61.765 103.796 59.7002 100.33" stroke="#4434FB" stroke-width="2" stroke-miterlimit="10" stroke-linecap="round" stroke-linejoin="round"/>
<path d="M134.548 108C125.92 117.291 113.679 123.043 100.036 123.043C99.5202 123.043 99.0777 123.043 98.5615 123.043" stroke="#4434FB" stroke-width="2" stroke-miterlimit="10" stroke-linecap="round" stroke-linejoin="round"/>
<path d="M117.956 55.7903C136.097 73.9308 165.593 73.9308 183.734 55.7903" stroke="#4434FB" stroke-width="2" stroke-miterlimit="10" stroke-linecap="round" stroke-linejoin="round"/>
<path d="M183.733 55.7903C191.992 47.5312 191.992 34.1839 183.733 25.9985" stroke="#4434FB" stroke-width="2" stroke-miterlimit="10" stroke-linecap="round" stroke-linejoin="round"/>
<path d="M184.104 1C184.473 1 184.841 1.07374 185.21 1.22122C185.579 1.36871 185.948 1.51619 186.242 1.66367C186.611 1.81116 186.906 2.03238 187.201 2.25361C187.496 2.47484 187.791 2.7698 188.086 3.06477C189.192 4.24464 189.93 5.71948 190.225 7.41554C190.52 9.03786 190.446 10.8814 189.856 12.5037C189.708 12.9462 189.561 13.3149 189.34 13.7573C189.118 14.1261 188.971 14.5685 188.676 14.9372C188.528 15.1584 188.455 15.3059 188.307 15.4534C188.16 15.6746 188.012 15.8221 187.865 15.9696C187.717 16.1171 187.57 16.3383 187.422 16.4858L187.275 16.6333L187.201 16.707L187.054 16.8545L186.906 17.002L186.832 17.0757V17.1495C186.759 17.2232 186.759 17.2232 186.685 17.297C186.611 17.3707 186.464 17.5182 186.39 17.5919C186.316 17.6657 186.316 17.6657 186.242 17.7394C186.169 17.8131 186.169 17.8131 186.095 17.8869C186.021 17.9606 186.021 17.9606 185.948 18.0344C185.874 18.1081 185.874 18.1819 185.8 18.1819C185.431 18.6243 185.063 19.1405 184.694 19.8042C184.325 20.4679 184.03 21.279 183.809 22.3114L183.662 23.1226L183.588 24.0075C183.588 24.3024 183.588 24.5974 183.588 24.9661C183.588 25.3348 183.588 25.6298 183.662 26.0722C183.293 26.0722 182.924 25.9985 182.555 25.851C182.187 25.7035 181.818 25.556 181.523 25.4086C181.154 25.2611 180.859 25.0399 180.564 24.8186C180.269 24.5974 179.974 24.3024 179.679 24.0075C178.573 22.8276 177.836 21.3528 177.541 19.6567C177.246 18.0344 177.393 16.1908 177.91 14.5685C178.057 14.1261 178.205 13.7573 178.426 13.3149C178.5 13.0937 178.647 12.9462 178.721 12.725C178.795 12.5037 178.942 12.3562 179.09 12.135C179.237 11.9138 179.311 11.7663 179.458 11.6188C179.606 11.4713 179.753 11.2501 179.901 11.1026L180.343 10.5864L180.491 10.439L180.564 10.3652L180.712 10.2177L180.859 10.0702L180.933 9.99651V9.92277C181.007 9.84902 181.007 9.84902 181.081 9.77528C181.154 9.70154 181.154 9.70154 181.228 9.6278C181.302 9.55406 181.302 9.55406 181.376 9.48032C181.449 9.40657 181.449 9.40657 181.523 9.33283C181.597 9.25909 181.597 9.25909 181.67 9.18535C181.744 9.11161 181.892 8.96412 181.965 8.89038C182.334 8.44793 182.703 7.93174 183.072 7.26806C183.44 6.60438 183.735 5.79322 183.957 4.76083L184.104 3.94968L184.178 3.06477C184.178 2.7698 184.178 2.47484 184.178 2.10613C184.178 1.81116 184.104 1.44245 184.104 1Z" stroke="#4434FB" stroke-width="2" stroke-miterlimit="10" stroke-linecap="round" stroke-linejoin="round"/>
<path d="M152.91 73.857C164.193 72.6772 175.18 67.7365 183.882 59.0349" stroke="#4434FB" stroke-width="2" stroke-miterlimit="10" stroke-linecap="round" stroke-linejoin="round"/>
<path d="M183.882 59.0349C193.026 49.8909 193.026 35.1425 183.882 25.9985" stroke="#4434FB" stroke-width="2" stroke-miterlimit="10" stroke-linecap="round" stroke-linejoin="round"/>
<path d="M85.8792 122.084C74.6704 122.084 65.5264 112.94 65.5264 101.731C65.5264 90.5226 74.6704 81.3787 85.8792 81.3787" stroke="#4434FB" stroke-width="2" stroke-miterlimit="10" stroke-linecap="round" stroke-linejoin="round"/>
<path d="M85.8789 122.084L107.264 143.469" stroke="#4434FB" stroke-width="2" stroke-miterlimit="10" stroke-linecap="round" stroke-linejoin="round"/>
<path d="M108.15 149H101.587C101.587 145.976 104.02 143.543 107.044 143.543H110.51V146.64C110.51 147.967 109.477 149 108.15 149Z" stroke="#4434FB" stroke-width="2" stroke-miterlimit="10" stroke-linecap="round" stroke-linejoin="round"/>
<path d="M110.509 143.174V141.11C110.509 140.003 109.624 139.119 108.518 139.119H108.075L89.6396 108.221" stroke="#4434FB" stroke-width="2" stroke-miterlimit="10" stroke-linecap="round" stroke-linejoin="round"/>
<path d="M150.771 122.084C141.848 122.084 134.548 114.857 134.548 105.861C134.548 96.9381 141.775 89.6377 150.771 89.6377" stroke="#4434FB" stroke-width="2" stroke-miterlimit="10" stroke-linecap="round" stroke-linejoin="round"/>
<path d="M150.772 122.084L172.158 143.469" stroke="#4434FB" stroke-width="2" stroke-miterlimit="10" stroke-linecap="round" stroke-linejoin="round"/>
<path d="M173.114 149H166.551C166.551 145.976 168.984 143.543 172.008 143.543H175.474V146.64C175.474 147.967 174.367 149 173.114 149Z" stroke="#4434FB" stroke-width="2" stroke-miterlimit="10" stroke-linecap="round" stroke-linejoin="round"/>
<path d="M175.474 143.174V141.109C175.474 140.003 174.59 139.118 173.483 139.118H173.041L154.605 108.22" stroke="#4434FB" stroke-width="2" stroke-miterlimit="10" stroke-linecap="round" stroke-linejoin="round"/>
<path d="M125.183 122.084C122.233 122.084 119.505 121.273 117.071 119.946" stroke="#4434FB" stroke-width="2" stroke-miterlimit="10" stroke-linecap="round" stroke-linejoin="round"/>
<path d="M125.184 122.084L146.569 143.469" stroke="#4434FB" stroke-width="2" stroke-miterlimit="10" stroke-linecap="round" stroke-linejoin="round"/>
<path d="M147.454 149H140.891C140.891 145.976 143.324 143.543 146.348 143.543H149.813V146.64C149.887 147.967 148.781 149 147.454 149Z" stroke="#4434FB" stroke-width="2" stroke-miterlimit="10" stroke-linecap="round" stroke-linejoin="round"/>
<path d="M149.885 143.174V141.11C149.885 140.003 149 139.119 147.894 139.119H147.452L130.934 111.539" stroke="#4434FB" stroke-width="2" stroke-miterlimit="10" stroke-linecap="round" stroke-linejoin="round"/>
<path d="M66.7795 118.913C62.7974 114.931 61.3226 109.474 62.355 104.386" stroke="#4434FB" stroke-width="2" stroke-miterlimit="10" stroke-linecap="round" stroke-linejoin="round"/>
<path d="M66.8534 118.913L42.2236 143.543" stroke="#4434FB" stroke-width="2" stroke-miterlimit="10" stroke-linecap="round" stroke-linejoin="round"/>
<path d="M44.2886 149H37.7256C37.7256 145.976 40.1591 143.543 43.1825 143.543H46.6484V146.64C46.7221 147.967 45.616 149 44.2886 149Z" stroke="#4434FB" stroke-width="2" stroke-miterlimit="10" stroke-linecap="round" stroke-linejoin="round"/>
<path d="M44.584 143.543H46.6487C47.7549 143.543 48.6398 142.658 48.6398 141.552V141.109L81.3812 121.568" stroke="#4434FB" stroke-width="2" stroke-miterlimit="10" stroke-linecap="round" stroke-linejoin="round"/>
<path d="M150.918 112.719C162.127 101.51 162.127 83.4434 150.918 72.2346" stroke="#4434FB" stroke-width="2" stroke-miterlimit="10" stroke-linecap="round" stroke-linejoin="round"/>
<path d="M18.0361 149H150.55" stroke="#4434FB" stroke-width="2" stroke-miterlimit="10" stroke-linecap="round" stroke-linejoin="round"/>
<path d="M159.251 149H186.167" stroke="#4434FB" stroke-width="2" stroke-miterlimit="10" stroke-linecap="round" stroke-linejoin="round"/>
<path d="M183.292 25.6298C182.628 24.6712 182.112 23.5651 181.743 22.5327C181.079 20.6154 180.932 18.6244 181.227 16.7808C181.301 16.3384 181.448 15.8959 181.596 15.4535C181.743 15.011 181.891 14.5686 182.112 14.1999C182.186 13.9786 182.333 13.8312 182.407 13.6099C182.48 13.3887 182.628 13.2412 182.775 13.0937C182.923 12.9462 183.07 12.725 183.218 12.5775L183.292 12.4301L183.365 12.3563L183.513 12.2088L183.66 12.0613L183.734 11.9876V11.9139C183.808 11.8401 183.808 11.8401 183.882 11.7664C184.029 11.6926 184.103 11.5452 184.177 11.4714C184.25 11.3977 184.25 11.3977 184.324 11.3239C184.398 11.2502 184.398 11.1764 184.472 11.1764C184.545 11.1027 184.545 11.1027 184.619 11.029C184.693 10.9552 184.693 10.8815 184.766 10.8815C185.135 10.439 185.43 9.84909 185.725 9.11167C186.02 8.37425 186.241 7.48935 186.315 6.38322V5.49832L186.241 4.53967C186.168 4.17096 186.168 3.80225 186.094 3.43354C186.02 3.06483 185.946 2.62238 185.873 2.17993" stroke="#4434FB" stroke-width="2" stroke-miterlimit="10" stroke-linecap="round" stroke-linejoin="round"/>
<path d="M182.997 25.4085C182.555 24.3761 182.26 23.3438 182.113 22.3114C181.818 20.4678 182.039 18.6243 182.629 17.002C182.776 16.6332 182.924 16.1908 183.219 15.8221C183.44 15.4534 183.661 15.0847 183.956 14.7897C184.104 14.6422 184.251 14.4947 184.325 14.3472C184.472 14.1998 184.62 14.0523 184.767 13.9048C184.915 13.7573 185.062 13.6098 185.21 13.5361L185.357 13.4623L185.431 13.3886L185.578 13.2411L185.726 13.0936L185.8 13.0199C185.873 12.9461 185.873 12.9461 185.947 12.8724C186.095 12.7987 186.168 12.7249 186.242 12.6512C186.316 12.5774 186.39 12.5774 186.39 12.5037C186.463 12.43 186.463 12.43 186.537 12.3562C186.611 12.2825 186.684 12.2825 186.684 12.2087C186.758 12.135 186.758 12.135 186.832 12.0612C187.201 11.6925 187.643 11.2501 188.012 10.6602C188.381 10.0702 188.749 9.33279 189.044 8.30041L189.192 7.48925L189.339 6.60435C189.339 6.30938 189.413 5.94067 189.413 5.57196C189.413 5.20325 189.413 4.83454 189.413 4.39209" stroke="#4434FB" stroke-width="2" stroke-miterlimit="10" stroke-linecap="round" stroke-linejoin="round"/>
<path d="M24.9684 93.1038C24.9684 107.483 15.382 112.277 8.30273 113.825" stroke="#4434FB" stroke-width="2" stroke-miterlimit="10" stroke-linecap="round" stroke-linejoin="round"/>
<path d="M24.9688 92.9562C24.9688 90.7439 26.8123 88.9004 29.0246 88.9004C31.2368 88.9004 33.0804 90.7439 33.0804 92.9562V95.5372" stroke="#4434FB" stroke-width="2" stroke-miterlimit="10" stroke-linecap="round" stroke-linejoin="round"/>
<path d="M100.111 66.999C100.111 74.8894 93.7693 81.2312 85.8789 81.2312" stroke="#4434FB" stroke-width="2" stroke-miterlimit="10" stroke-linecap="round" stroke-linejoin="round"/>
</svg>
