<svg width="151" height="159" viewBox="0 0 151 159" fill="none" xmlns="http://www.w3.org/2000/svg">
<path d="M78.144 60.1956C78.9499 60.1956 79.6093 60.8549 79.6093 61.6608C79.6093 62.4667 78.9499 63.126 78.144 63.126C77.0451 63.126 76.166 64.0052 76.166 65.1041C76.166 64.0052 75.2868 63.126 74.1879 63.126C73.382 63.126 72.7227 62.4667 72.7227 61.6608C72.7227 60.8549 73.382 60.1956 74.1879 60.1956H78.144Z" stroke="#4434FB" stroke-width="2" stroke-miterlimit="10" stroke-linecap="round" stroke-linejoin="round"/>
<path d="M69.574 60.1956C68.1088 60.1956 66.7901 60.6351 65.6912 61.441C64.0061 62.6132 62.9805 64.5913 62.9805 66.7891C62.9805 70.4522 65.9109 73.3827 69.574 73.3827C73.2371 73.3827 76.1676 70.4522 76.1676 66.7891" stroke="#4434FB" stroke-width="2" stroke-miterlimit="10" stroke-linecap="round" stroke-linejoin="round"/>
<path d="M82.7615 60.1956C86.4246 60.1956 89.3551 63.126 89.3551 66.7891C89.3551 70.4522 86.4246 73.3827 82.7615 73.3827C79.0984 73.3827 76.168 70.4522 76.168 66.7891" stroke="#4434FB" stroke-width="2" stroke-miterlimit="10" stroke-linecap="round" stroke-linejoin="round"/>
<path d="M80.2698 73.3828C79.3906 74.7015 77.9987 75.4341 76.4602 75.4341H76.1671H75.8741C74.3356 75.4341 72.8703 74.6283 72.0645 73.3828" stroke="#4434FB" stroke-width="2" stroke-miterlimit="10" stroke-linecap="round" stroke-linejoin="round"/>
<path d="M54.043 43.6382C54.043 50.7446 58.1456 57.7777 67.0103 57.7777" stroke="#4434FB" stroke-width="2" stroke-miterlimit="10" stroke-linecap="round" stroke-linejoin="round"/>
<path d="M98.3657 43.6382C98.3657 50.7446 94.2631 57.7777 85.3984 57.7777" stroke="#4434FB" stroke-width="2" stroke-miterlimit="10" stroke-linecap="round" stroke-linejoin="round"/>
<path d="M76.2402 65.104V67.9612" stroke="#4434FB" stroke-width="2" stroke-miterlimit="10" stroke-linecap="round" stroke-linejoin="round"/>
<path d="M89.3548 66.7891C89.3548 66.7891 89.941 61.3677 92.5784 57.0452C95.2158 52.7228 98.5858 51.9169 98.366 42.2464V42.0266C98.366 41.8801 98.366 41.6603 98.366 41.5138C98.073 32.4293 89.2083 25.9823 80.4169 28.1801L79.7576 28.3266C78.5854 28.6197 77.4132 28.7662 76.241 28.7662C75.0688 28.7662 73.8966 28.6197 72.7244 28.3266L72.0651 28.1801C63.2004 25.9823 54.409 32.356 54.1159 41.5138C54.1159 41.6603 54.1159 41.8801 54.1159 42.0266V42.2464C53.9694 51.9169 57.3394 52.7228 59.9036 57.0452C62.4678 61.3677 63.1271 66.7891 63.1271 66.7891" stroke="#4434FB" stroke-width="2" stroke-miterlimit="10" stroke-linecap="round" stroke-linejoin="round"/>
<path d="M70.7457 66.7891C63.1264 59.1699 50.7452 59.1699 43.1992 66.7891" stroke="#4434FB" stroke-width="2" stroke-miterlimit="10" stroke-linecap="round" stroke-linejoin="round"/>
<path d="M70.7452 69.0603C64.5912 62.9063 54.7009 62.9063 48.5469 69.0603" stroke="#4434FB" stroke-width="2" stroke-miterlimit="10" stroke-linecap="round" stroke-linejoin="round"/>
<path d="M70.7443 71.1849C66.4952 66.9358 59.6086 66.9358 55.3594 71.1849" stroke="#4434FB" stroke-width="2" stroke-miterlimit="10" stroke-linecap="round" stroke-linejoin="round"/>
<path d="M82.7617 66.7891C90.3809 59.1699 102.762 59.1699 110.308 66.7891" stroke="#4434FB" stroke-width="2" stroke-miterlimit="10" stroke-linecap="round" stroke-linejoin="round"/>
<path d="M82.7617 69.0601C88.9157 62.9061 98.806 62.9061 104.96 69.0601" stroke="#4434FB" stroke-width="2" stroke-miterlimit="10" stroke-linecap="round" stroke-linejoin="round"/>
<path d="M82.7617 71.1847C87.0109 66.9355 93.8975 66.9355 98.1467 71.1847" stroke="#4434FB" stroke-width="2" stroke-miterlimit="10" stroke-linecap="round" stroke-linejoin="round"/>
<path d="M76.168 33.2354V40.8546" stroke="#4434FB" stroke-width="2" stroke-miterlimit="10" stroke-linecap="round" stroke-linejoin="round"/>
<path d="M76.168 1C76.168 5.83528 72.2119 9.79141 67.3766 9.79141C62.5413 9.79141 58.5852 13.7475 58.5852 18.5828C58.5852 23.4181 54.629 27.3742 49.7938 27.3742C44.9585 27.3742 41.0024 31.3304 41.0024 36.1657C41.0024 41.0009 37.0462 44.9571 32.2109 44.9571C37.0462 44.9571 41.0024 48.9132 41.0024 53.7485C41.0024 58.5838 44.9585 62.5399 49.7938 62.5399C54.629 62.5399 58.5852 66.496 58.5852 71.3313C58.5852 76.1666 62.5413 80.1227 67.3766 80.1227C72.2119 80.1227 76.168 84.0789 76.168 88.9141C76.168 84.0789 80.1241 80.1227 84.9594 80.1227C89.7947 80.1227 93.7508 76.1666 93.7508 71.3313C93.7508 66.496 97.707 62.5399 102.542 62.5399C107.378 62.5399 111.334 58.5838 111.334 53.7485C111.334 48.9132 115.29 44.9571 120.125 44.9571C115.29 44.9571 111.334 41.0009 111.334 36.1657C111.334 31.3304 107.378 27.3742 102.542 27.3742C97.707 27.3742 93.7508 23.4181 93.7508 18.5828C93.7508 13.7475 89.7947 9.79141 84.9594 9.79141C80.1241 9.79141 76.168 5.83528 76.168 1Z" stroke="#4434FB" stroke-width="2" stroke-miterlimit="10" stroke-linecap="round" stroke-linejoin="round"/>
<path d="M53.6032 33.1619C51.4786 31.0373 51.4786 27.5208 53.6032 25.3229C55.7278 23.1983 59.2444 23.1983 61.4422 25.3229" stroke="#4434FB" stroke-width="2" stroke-miterlimit="10" stroke-linecap="round" stroke-linejoin="round"/>
<path d="M53.6035 34.4072C53.6035 29.4254 57.6329 25.3228 62.688 25.3228" stroke="#4434FB" stroke-width="2" stroke-miterlimit="10" stroke-linecap="round" stroke-linejoin="round"/>
<path d="M98.8058 33.1619C100.93 31.0373 100.93 27.5208 98.8058 25.3229C96.6812 23.1983 93.1647 23.1983 90.9668 25.3229" stroke="#4434FB" stroke-width="2" stroke-miterlimit="10" stroke-linecap="round" stroke-linejoin="round"/>
<path d="M98.8052 34.4075C98.8052 29.4257 94.7758 25.323 89.7207 25.323" stroke="#4434FB" stroke-width="2" stroke-miterlimit="10" stroke-linecap="round" stroke-linejoin="round"/>
<path d="M76.168 28.473V18.1431" stroke="#4434FB" stroke-width="2" stroke-miterlimit="10" stroke-linecap="round" stroke-linejoin="round"/>
<path d="M73.8223 28.4729V21.1467" stroke="#4434FB" stroke-width="2" stroke-miterlimit="10" stroke-linecap="round" stroke-linejoin="round"/>
<path d="M78.584 28.4729V21.1467" stroke="#4434FB" stroke-width="2" stroke-miterlimit="10" stroke-linecap="round" stroke-linejoin="round"/>
<path d="M53.6775 44.8835H43.3477" stroke="#4434FB" stroke-width="2" stroke-miterlimit="10" stroke-linecap="round" stroke-linejoin="round"/>
<path d="M53.6777 47.3013H46.3516" stroke="#4434FB" stroke-width="2" stroke-miterlimit="10" stroke-linecap="round" stroke-linejoin="round"/>
<path d="M53.6777 42.5393H46.3516" stroke="#4434FB" stroke-width="2" stroke-miterlimit="10" stroke-linecap="round" stroke-linejoin="round"/>
<path d="M98.3652 44.8838H108.695" stroke="#4434FB" stroke-width="2" stroke-miterlimit="10" stroke-linecap="round" stroke-linejoin="round"/>
<path d="M98.3652 47.3015H105.691" stroke="#4434FB" stroke-width="2" stroke-miterlimit="10" stroke-linecap="round" stroke-linejoin="round"/>
<path d="M98.3652 42.5396H105.691" stroke="#4434FB" stroke-width="2" stroke-miterlimit="10" stroke-linecap="round" stroke-linejoin="round"/>
<path d="M76.168 75.4341V88.841" stroke="#4434FB" stroke-width="2" stroke-miterlimit="10" stroke-linecap="round" stroke-linejoin="round"/>
<path d="M73.8223 75.4341V79.6833" stroke="#4434FB" stroke-width="2" stroke-miterlimit="10" stroke-linecap="round" stroke-linejoin="round"/>
<path d="M78.584 75.4341V79.6833" stroke="#4434FB" stroke-width="2" stroke-miterlimit="10" stroke-linecap="round" stroke-linejoin="round"/>
<path d="M63.0547 34.9202L70.967 42.8324C72.5787 44.4442 73.5311 46.7153 73.5311 49.0597V51.9902" stroke="#4434FB" stroke-width="2" stroke-miterlimit="10" stroke-linecap="round" stroke-linejoin="round"/>
<path d="M89.3553 34.9202L81.4431 42.8324C79.8313 44.4442 78.8789 46.7153 78.8789 49.0597V51.9902" stroke="#4434FB" stroke-width="2" stroke-miterlimit="10" stroke-linecap="round" stroke-linejoin="round"/>
<path d="M76.2423 93.896L75.8027 149.282" stroke="#4434FB" stroke-width="2" stroke-miterlimit="10" stroke-linecap="round" stroke-linejoin="round"/>
<path d="M58.3649 147.011C34.9944 123.64 33.6757 87.0092 55.5077 65.2505" stroke="#4434FB" stroke-width="2" stroke-miterlimit="10" stroke-linecap="round" stroke-linejoin="round"/>
<path d="M55.507 152.212H55.9466C57.9979 152.212 59.6097 154.117 59.6097 156.461L55.4337 158L51.2578 156.461C51.2578 154.117 52.8696 152.212 54.9209 152.212H55.507Z" stroke="#4434FB" stroke-width="2" stroke-miterlimit="10" stroke-linecap="round" stroke-linejoin="round"/>
<path d="M63.7844 152.212H64.2239C66.2753 152.212 67.887 154.117 67.887 156.461L63.7111 158L59.5352 156.461C59.5352 154.117 61.1469 152.212 63.1982 152.212H63.7844Z" stroke="#4434FB" stroke-width="2" stroke-miterlimit="10" stroke-linecap="round" stroke-linejoin="round"/>
<path d="M72.0636 152.212H72.5032C74.5545 152.212 76.1663 154.117 76.1663 156.461L71.9903 158L67.8145 156.461C67.8145 154.117 69.4262 152.212 71.4775 152.212H72.0636Z" stroke="#4434FB" stroke-width="2" stroke-miterlimit="10" stroke-linecap="round" stroke-linejoin="round"/>
<path d="M58.2919 147.011C54.409 147.011 51.332 150.088 51.332 156.168" stroke="#4434FB" stroke-width="2" stroke-miterlimit="10" stroke-linecap="round" stroke-linejoin="round"/>
<path d="M60.27 119.684C49.061 119.684 39.9766 111.186 39.9766 100.709" stroke="#4434FB" stroke-width="2" stroke-miterlimit="10" stroke-linecap="round" stroke-linejoin="round"/>
<path d="M58.3652 147.011H63.7866" stroke="#4434FB" stroke-width="2" stroke-miterlimit="10" stroke-linecap="round" stroke-linejoin="round"/>
<path d="M33.3843 130.6C18.2191 115.435 17.4133 91.6979 31.5528 77.6316" stroke="#4434FB" stroke-width="2" stroke-miterlimit="10" stroke-linecap="round" stroke-linejoin="round"/>
<path d="M53.6045 67.2285C45.5457 67.8879 37.8532 71.1847 31.8457 77.1921" stroke="#4434FB" stroke-width="2" stroke-miterlimit="10" stroke-linecap="round" stroke-linejoin="round"/>
<path d="M24.3008 141.663H53.5322" stroke="#4434FB" stroke-width="2" stroke-miterlimit="10" stroke-linecap="round" stroke-linejoin="round"/>
<path d="M24.8125 137.78C24.8125 133.457 28.3291 129.941 32.6515 129.941" stroke="#4434FB" stroke-width="2" stroke-miterlimit="10" stroke-linecap="round" stroke-linejoin="round"/>
<path d="M33.3848 130.6C34.9233 132.139 36.535 133.457 38.1468 134.703" stroke="#4434FB" stroke-width="2" stroke-miterlimit="10" stroke-linecap="round" stroke-linejoin="round"/>
<path d="M24.8116 141.663H17.2656C17.2656 138.439 19.903 135.802 23.1266 135.802H24.8848V141.663H24.8116Z" stroke="#4434FB" stroke-width="2" stroke-miterlimit="10" stroke-linecap="round" stroke-linejoin="round"/>
<path d="M94.043 147.011C117.413 123.64 118.732 87.0092 96.9002 65.2505" stroke="#4434FB" stroke-width="2" stroke-miterlimit="10" stroke-linecap="round" stroke-linejoin="round"/>
<path d="M96.9034 152.212H96.4639C94.4125 152.212 92.8008 154.117 92.8008 156.461L96.9767 158L101.153 156.461C101.153 154.117 99.5409 152.212 97.4896 152.212H96.9034Z" stroke="#4434FB" stroke-width="2" stroke-miterlimit="10" stroke-linecap="round" stroke-linejoin="round"/>
<path d="M88.6222 152.212H88.1826C86.1313 152.212 84.5195 154.117 84.5195 156.461L88.6955 158L92.8713 156.461C92.8713 154.117 91.2596 152.212 89.2083 152.212H88.6222Z" stroke="#4434FB" stroke-width="2" stroke-miterlimit="10" stroke-linecap="round" stroke-linejoin="round"/>
<path d="M80.3448 152.212H79.9053C77.8539 152.212 76.2422 154.117 76.2422 156.461L80.4181 158L84.594 156.461C84.594 154.117 82.9822 152.212 80.9309 152.212H80.3448Z" stroke="#4434FB" stroke-width="2" stroke-miterlimit="10" stroke-linecap="round" stroke-linejoin="round"/>
<path d="M94.043 147.011C97.9258 147.011 101.003 150.088 101.003 156.168" stroke="#4434FB" stroke-width="2" stroke-miterlimit="10" stroke-linecap="round" stroke-linejoin="round"/>
<path d="M92.1406 119.684C103.35 119.684 112.434 111.186 112.434 100.709" stroke="#4434FB" stroke-width="2" stroke-miterlimit="10" stroke-linecap="round" stroke-linejoin="round"/>
<path d="M94.0444 147.011H88.623" stroke="#4434FB" stroke-width="2" stroke-miterlimit="10" stroke-linecap="round" stroke-linejoin="round"/>
<path d="M119.027 130.6C134.193 115.435 134.998 91.6981 120.859 77.6318" stroke="#4434FB" stroke-width="2" stroke-miterlimit="10" stroke-linecap="round" stroke-linejoin="round"/>
<path d="M98.8066 67.2285C106.865 67.8879 114.558 71.1847 120.565 77.1921" stroke="#4434FB" stroke-width="2" stroke-miterlimit="10" stroke-linecap="round" stroke-linejoin="round"/>
<path d="M128.11 141.662H98.8789" stroke="#4434FB" stroke-width="2" stroke-miterlimit="10" stroke-linecap="round" stroke-linejoin="round"/>
<path d="M127.599 137.78C127.599 133.457 124.082 129.941 119.76 129.941" stroke="#4434FB" stroke-width="2" stroke-miterlimit="10" stroke-linecap="round" stroke-linejoin="round"/>
<path d="M119.028 130.6C117.489 132.138 115.877 133.457 114.266 134.703" stroke="#4434FB" stroke-width="2" stroke-miterlimit="10" stroke-linecap="round" stroke-linejoin="round"/>
<path d="M127.598 141.663H135.144C135.144 138.439 132.506 135.802 129.283 135.802H127.598V141.663Z" stroke="#4434FB" stroke-width="2" stroke-miterlimit="10" stroke-linecap="round" stroke-linejoin="round"/>
<path d="M121.004 77.7782C126.499 73.7488 130.015 67.2285 130.015 59.9023" stroke="#4434FB" stroke-width="2" stroke-miterlimit="10" stroke-linecap="round" stroke-linejoin="round"/>
<path d="M130.015 45.0303C134.337 49.3527 134.337 56.2393 130.015 60.5618C125.766 56.3126 125.766 49.3527 130.015 45.0303Z" stroke="#4434FB" stroke-width="2" stroke-miterlimit="10" stroke-linecap="round" stroke-linejoin="round"/>
<path d="M120.49 11.6962C118.659 11.6962 117.12 13.1615 117.12 15.0663C117.12 13.2347 115.655 11.6962 113.75 11.6962C115.582 11.6962 117.12 10.231 117.12 8.32617C117.193 10.231 118.659 11.6962 120.49 11.6962Z" stroke="white" stroke-width="2" stroke-miterlimit="10" stroke-linecap="round" stroke-linejoin="round"/>
<path d="M37.3388 17.1908C39.2 17.1908 40.7088 15.682 40.7088 13.8207C40.7088 11.9595 39.2 10.4507 37.3388 10.4507C35.4776 10.4507 33.9688 11.9595 33.9688 13.8207C33.9688 15.682 35.4776 17.1908 37.3388 17.1908Z" stroke="white" stroke-width="2" stroke-miterlimit="10" stroke-linecap="round" stroke-linejoin="round"/>
<path d="M121.589 63.0528C123.45 63.0528 124.959 61.544 124.959 59.6828C124.959 57.8216 123.45 56.3127 121.589 56.3127C119.728 56.3127 118.219 57.8216 118.219 59.6828C118.219 61.544 119.728 63.0528 121.589 63.0528Z" stroke="white" stroke-width="2" stroke-miterlimit="10" stroke-linecap="round" stroke-linejoin="round"/>
<path d="M7.74009 100.636C5.90855 100.636 4.37002 102.101 4.37002 104.006C4.37002 102.175 2.90481 100.636 1 100.636C2.83154 100.636 4.37002 99.1708 4.37002 97.266C4.37002 99.0975 5.90855 100.636 7.74009 100.636Z" stroke="white" stroke-width="2" stroke-miterlimit="10" stroke-linecap="round" stroke-linejoin="round"/>
<path d="M136.974 126.497C138.835 126.497 140.344 124.989 140.344 123.127C140.344 121.266 138.835 119.757 136.974 119.757C135.112 119.757 133.604 121.266 133.604 123.127C133.604 124.989 135.112 126.497 136.974 126.497Z" stroke="white" stroke-width="2" stroke-miterlimit="10" stroke-linecap="round" stroke-linejoin="round"/>
<path d="M25.0293 54.188V65.2505" stroke="white" stroke-width="2" stroke-miterlimit="10" stroke-linecap="round" stroke-linejoin="round"/>
<path d="M19.4609 59.6826H30.5234" stroke="white" stroke-width="2" stroke-miterlimit="10" stroke-linecap="round" stroke-linejoin="round"/>
<path d="M21.9531 56.6055L28.1071 62.7595" stroke="white" stroke-width="2" stroke-miterlimit="10" stroke-linecap="round" stroke-linejoin="round"/>
<path d="M21.9531 62.7595L28.1071 56.6055" stroke="white" stroke-width="2" stroke-miterlimit="10" stroke-linecap="round" stroke-linejoin="round"/>
<path d="M143.787 82.3938V93.4563" stroke="white" stroke-width="2" stroke-miterlimit="10" stroke-linecap="round" stroke-linejoin="round"/>
<path d="M138.219 87.9617H149.281" stroke="white" stroke-width="2" stroke-miterlimit="10" stroke-linecap="round" stroke-linejoin="round"/>
<path d="M140.637 84.8848L146.864 91.0388" stroke="white" stroke-width="2" stroke-miterlimit="10" stroke-linecap="round" stroke-linejoin="round"/>
<path d="M140.637 91.0388L146.864 84.8848" stroke="white" stroke-width="2" stroke-miterlimit="10" stroke-linecap="round" stroke-linejoin="round"/>
<path d="M30.5234 146.718V157.78" stroke="white" stroke-width="2" stroke-miterlimit="10" stroke-linecap="round" stroke-linejoin="round"/>
<path d="M25.0293 152.212H36.0918" stroke="white" stroke-width="2" stroke-miterlimit="10" stroke-linecap="round" stroke-linejoin="round"/>
<path d="M27.4453 149.135L33.5993 155.29" stroke="white" stroke-width="2" stroke-miterlimit="10" stroke-linecap="round" stroke-linejoin="round"/>
<path d="M27.4453 155.29L33.5993 149.135" stroke="white" stroke-width="2" stroke-miterlimit="10" stroke-linecap="round" stroke-linejoin="round"/>
</svg>
