<svg width="185" height="156" viewBox="0 0 185 156" fill="none" xmlns="http://www.w3.org/2000/svg">
<path d="M28.7783 56.4981L23.0112 50.731C17.7055 45.4253 22.7805 39.7351 22.7805 39.7351C22.7805 40.8116 23.0112 41.8113 23.3188 42.734C24.0109 44.887 25.2412 46.7325 26.8559 48.3473L32.3155 53.653" stroke="#4434FB" stroke-width="2" stroke-miterlimit="10" stroke-linecap="round" stroke-linejoin="round"/>
<path d="M53.7695 70.0312L44.0039 69.7236" stroke="#4434FB" stroke-width="2" stroke-miterlimit="10" stroke-linecap="round" stroke-linejoin="round"/>
<path d="M44.0039 65.341L60.3824 64.8796" stroke="#4434FB" stroke-width="2" stroke-miterlimit="10" stroke-linecap="round" stroke-linejoin="round"/>
<path d="M40.466 68.3398L29.6239 58.4205C28.7011 57.5746 28.7011 56.1905 29.547 55.2678L30.5466 54.2681C31.3924 53.4223 32.8534 53.4223 33.6993 54.345L43.5417 65.1872" stroke="#4434FB" stroke-width="2" stroke-miterlimit="10" stroke-linecap="round" stroke-linejoin="round"/>
<path d="M45.3104 67.5707C45.3104 66.2635 44.2339 65.187 42.9267 65.187C41.6195 65.187 40.543 66.2635 40.543 67.5707C40.543 68.8779 41.6195 69.9545 42.9267 69.9545C44.2339 69.9545 45.3104 68.8779 45.3104 67.5707Z" stroke="#4434FB" stroke-width="2" stroke-miterlimit="10" stroke-linecap="round" stroke-linejoin="round"/>
<path d="M41.0049 102.097L35.2378 107.864C29.9321 113.169 35.0071 118.86 35.0071 118.86C35.0071 117.783 35.2378 116.784 35.5454 115.861C36.2374 113.708 37.4677 111.862 39.0825 110.247L44.542 104.942" stroke="#4434FB" stroke-width="2" stroke-miterlimit="10" stroke-linecap="round" stroke-linejoin="round"/>
<path d="M67.7646 88.4863L56.2305 88.7939" stroke="#4434FB" stroke-width="2" stroke-miterlimit="10" stroke-linecap="round" stroke-linejoin="round"/>
<path d="M56.2305 93.1768L73.5317 93.6381" stroke="#4434FB" stroke-width="2" stroke-miterlimit="10" stroke-linecap="round" stroke-linejoin="round"/>
<path d="M52.6925 90.178L41.8504 100.097C40.9277 100.943 40.9277 102.327 41.7735 103.25L42.7731 104.25C43.619 105.095 45.08 105.096 45.9258 104.173L55.7683 93.3307" stroke="#4434FB" stroke-width="2" stroke-miterlimit="10" stroke-linecap="round" stroke-linejoin="round"/>
<path d="M57.5389 90.947C57.5389 92.2542 56.4624 93.3307 55.1552 93.3307C53.848 93.3307 52.7715 92.2542 52.7715 90.947C52.7715 89.6398 53.848 88.5632 55.1552 88.5632C56.4624 88.5632 57.5389 89.6398 57.5389 90.947Z" stroke="#4434FB" stroke-width="2" stroke-miterlimit="10" stroke-linecap="round" stroke-linejoin="round"/>
<path d="M22.6279 92.4846L16.8608 98.2517C11.5551 103.557 16.6302 109.248 16.6302 109.248C16.6302 108.171 16.8608 107.171 17.1684 106.249C17.8605 104.096 19.0908 102.25 20.7056 100.635L26.1651 95.3297" stroke="#4434FB" stroke-width="2" stroke-miterlimit="10" stroke-linecap="round" stroke-linejoin="round"/>
<path d="M50.9268 78.7974L37.9316 79.1818" stroke="#4434FB" stroke-width="2" stroke-miterlimit="10" stroke-linecap="round" stroke-linejoin="round"/>
<path d="M37.9316 83.5649L61.9996 84.257C62.1534 84.257 62.2303 84.257 62.3841 84.257" stroke="#4434FB" stroke-width="2" stroke-miterlimit="10" stroke-linecap="round" stroke-linejoin="round"/>
<path d="M34.3917 80.5659L23.5496 90.4853C22.6269 91.3311 22.6269 92.7152 23.4727 93.638L24.4724 94.6376C25.3182 95.4834 26.7792 95.4834 27.625 94.5607L37.4675 83.7186" stroke="#4434FB" stroke-width="2" stroke-miterlimit="10" stroke-linecap="round" stroke-linejoin="round"/>
<path d="M36.7783 83.7953C38.0948 83.7953 39.162 82.7281 39.162 81.4116C39.162 80.0951 38.0948 79.0278 36.7783 79.0278C35.4618 79.0278 34.3945 80.0951 34.3945 81.4116C34.3945 82.7281 35.4618 83.7953 36.7783 83.7953Z" stroke="#4434FB" stroke-width="2" stroke-miterlimit="10" stroke-linecap="round" stroke-linejoin="round"/>
<path d="M162.961 56.4981L168.728 50.731C174.034 45.4253 168.959 39.7351 168.959 39.7351C168.959 40.8116 168.728 41.8113 168.42 42.734C167.728 44.887 166.498 46.7325 164.883 48.3473L159.424 53.653" stroke="#4434FB" stroke-width="2" stroke-miterlimit="10" stroke-linecap="round" stroke-linejoin="round"/>
<path d="M138.047 70.0312L147.736 69.7236" stroke="#4434FB" stroke-width="2" stroke-miterlimit="10" stroke-linecap="round" stroke-linejoin="round"/>
<path d="M147.736 65.341L131.357 64.8796" stroke="#4434FB" stroke-width="2" stroke-miterlimit="10" stroke-linecap="round" stroke-linejoin="round"/>
<path d="M151.273 68.3398L162.115 58.4205C163.038 57.5746 163.038 56.1905 162.192 55.2678L161.192 54.2681C160.347 53.4223 158.886 53.4223 158.04 54.345L148.197 65.1872" stroke="#4434FB" stroke-width="2" stroke-miterlimit="10" stroke-linecap="round" stroke-linejoin="round"/>
<path d="M146.43 67.5707C146.43 66.2635 147.506 65.187 148.813 65.187C150.121 65.187 151.197 66.2635 151.197 67.5707C151.197 68.8779 150.121 69.9545 148.813 69.9545C147.506 69.9545 146.43 68.8779 146.43 67.5707Z" stroke="#4434FB" stroke-width="2" stroke-miterlimit="10" stroke-linecap="round" stroke-linejoin="round"/>
<path d="M150.736 102.096L156.503 107.864C161.809 113.169 156.734 118.859 156.734 118.859C156.734 117.783 156.503 116.783 156.196 115.861C155.504 113.707 154.273 111.862 152.659 110.247L147.199 104.942" stroke="#4434FB" stroke-width="2" stroke-miterlimit="10" stroke-linecap="round" stroke-linejoin="round"/>
<path d="M123.975 88.4861L135.509 88.7937" stroke="#4434FB" stroke-width="2" stroke-miterlimit="10" stroke-linecap="round" stroke-linejoin="round"/>
<path d="M135.51 93.1768L118.285 93.6381" stroke="#4434FB" stroke-width="2" stroke-miterlimit="10" stroke-linecap="round" stroke-linejoin="round"/>
<path d="M139.046 90.1777L149.889 100.097C150.811 100.943 150.811 102.327 149.965 103.25L148.966 104.249C148.12 105.095 146.659 105.095 145.813 104.173L135.971 93.3304" stroke="#4434FB" stroke-width="2" stroke-miterlimit="10" stroke-linecap="round" stroke-linejoin="round"/>
<path d="M134.201 90.9467C134.201 92.2539 135.278 93.3305 136.585 93.3305C137.892 93.3305 138.969 92.2539 138.969 90.9467C138.969 89.6395 137.892 88.563 136.585 88.563C135.278 88.563 134.201 89.6395 134.201 90.9467Z" stroke="#4434FB" stroke-width="2" stroke-miterlimit="10" stroke-linecap="round" stroke-linejoin="round"/>
<path d="M169.109 92.4846L174.876 98.2517C180.182 103.557 175.107 109.248 175.107 109.248C175.107 108.171 174.876 107.171 174.569 106.249C173.877 104.096 172.647 102.25 171.032 100.635L165.572 95.3297" stroke="#4434FB" stroke-width="2" stroke-miterlimit="10" stroke-linecap="round" stroke-linejoin="round"/>
<path d="M140.814 78.7974L153.887 79.1818" stroke="#4434FB" stroke-width="2" stroke-miterlimit="10" stroke-linecap="round" stroke-linejoin="round"/>
<path d="M153.886 83.5649L129.818 84.257C129.664 84.257 129.587 84.257 129.434 84.257" stroke="#4434FB" stroke-width="2" stroke-miterlimit="10" stroke-linecap="round" stroke-linejoin="round"/>
<path d="M157.425 80.5659L168.268 90.4853C169.19 91.3311 169.19 92.7152 168.344 93.638L167.345 94.6376C166.499 95.4834 165.038 95.4834 164.192 94.5607L154.35 83.7186" stroke="#4434FB" stroke-width="2" stroke-miterlimit="10" stroke-linecap="round" stroke-linejoin="round"/>
<path d="M152.578 81.4118C152.578 82.719 153.655 83.7955 154.962 83.7955C156.269 83.7955 157.346 82.719 157.346 81.4118C157.346 80.1046 156.269 79.028 154.962 79.028C153.655 78.9512 152.578 80.0277 152.578 81.4118Z" stroke="#4434FB" stroke-width="2" stroke-miterlimit="10" stroke-linecap="round" stroke-linejoin="round"/>
<path d="M95.9074 100.251C105.135 100.559 114.439 97.5598 121.436 91.1007C132.048 78.6438 151.579 76.1062 151.579 76.1062C151.579 76.1062 146.658 76.4907 140.968 72.5691C133.739 67.571 122.974 57.4209 122.974 57.4209C115.515 50.5773 105.596 47.3477 95.8305 47.6553C86.0649 47.3477 76.1455 50.5773 68.6868 57.4209C68.6868 57.4209 57.9215 67.571 50.6935 72.5691C45.0033 76.4907 40.082 76.1062 40.082 76.1062C40.082 76.1062 59.6132 78.6438 70.2247 91.1007C77.3758 97.5598 86.6801 100.559 95.9074 100.251Z" stroke="#4434FB" stroke-width="2" stroke-miterlimit="10" stroke-linecap="round" stroke-linejoin="round"/>
<path d="M42.2383 76.0293H60.5392" stroke="#4434FB" stroke-width="2" stroke-miterlimit="10" stroke-linecap="round" stroke-linejoin="round"/>
<path d="M64.9219 76.0293C77.8401 76.0293 88.2978 86.4869 88.2978 99.4052" stroke="#4434FB" stroke-width="2" stroke-miterlimit="10" stroke-linecap="round" stroke-linejoin="round"/>
<path d="M149.506 76.0293H131.205" stroke="#4434FB" stroke-width="2" stroke-miterlimit="10" stroke-linecap="round" stroke-linejoin="round"/>
<path d="M126.821 76.0293C113.903 76.0293 103.445 86.4869 103.445 99.4052" stroke="#4434FB" stroke-width="2" stroke-miterlimit="10" stroke-linecap="round" stroke-linejoin="round"/>
<path d="M76.6055 78.7208C87.2169 68.1093 104.441 68.1093 115.13 78.7208" stroke="#4434FB" stroke-width="2" stroke-miterlimit="10" stroke-linecap="round" stroke-linejoin="round"/>
<path d="M61.54 18.2045C62.3089 15.9746 64.7695 14.8211 66.9995 15.667C72.2283 17.7431 78.4567 16.359 82.3784 11.8223L82.4552 11.8992C79.9177 19.281 72.8434 23.8947 65.3847 23.7409C62.4627 23.664 60.6172 20.8189 61.54 18.2045Z" stroke="#4434FB" stroke-width="2" stroke-miterlimit="10" stroke-linecap="round" stroke-linejoin="round"/>
<path d="M60.6169 38.7354C50.7744 38.7354 42.7773 30.7384 42.7773 20.8959C42.7773 11.0534 50.7744 3.0564 60.6169 3.0564" stroke="#4434FB" stroke-width="2" stroke-miterlimit="10" stroke-linecap="round" stroke-linejoin="round"/>
<path d="M64.6157 61.1116C57.9259 59.5738 52.9277 53.576 52.9277 46.4248" stroke="#4434FB" stroke-width="2" stroke-miterlimit="10" stroke-linecap="round" stroke-linejoin="round"/>
<path d="M71.4596 55.0372C69.691 52.5766 68.6914 49.5777 68.6914 46.3481" stroke="#4434FB" stroke-width="2" stroke-miterlimit="10" stroke-linecap="round" stroke-linejoin="round"/>
<path d="M60.6161 33.1222C53.9263 33.1222 48.4668 27.6627 48.4668 20.9729" stroke="#4434FB" stroke-width="2" stroke-miterlimit="10" stroke-linecap="round" stroke-linejoin="round"/>
<path d="M66.998 51.4232C74.6106 43.8107 74.6106 31.3538 66.998 23.7412" stroke="#4434FB" stroke-width="2" stroke-miterlimit="10" stroke-linecap="round" stroke-linejoin="round"/>
<path d="M60.7717 54.5756C65.1459 54.5756 68.6918 51.0296 68.6918 46.6555C68.6918 42.2813 65.1459 38.7354 60.7717 38.7354C56.3975 38.7354 52.8516 42.2813 52.8516 46.6555C52.8516 51.0296 56.3975 54.5756 60.7717 54.5756Z" stroke="#4434FB" stroke-width="2" stroke-miterlimit="10" stroke-linecap="round" stroke-linejoin="round"/>
<path d="M58.0034 14.0523C60.5409 16.513 64.6932 16.4361 67.0769 13.8217C72.7671 7.43942 82.1482 5.13258 90.4528 8.74662V8.59282C81.9944 0.288223 69.3068 -1.17277 59.3875 4.05606C55.6196 5.97842 54.9276 11.0535 58.0034 14.0523Z" stroke="#4434FB" stroke-width="2" stroke-miterlimit="10" stroke-linecap="round" stroke-linejoin="round"/>
<path d="M130.204 18.2045C129.435 15.9746 126.975 14.8211 124.745 15.667C119.516 17.7431 113.288 16.359 109.366 11.8223L109.289 11.8992C111.827 19.281 118.901 23.8947 126.36 23.7409C129.282 23.664 131.127 20.8189 130.204 18.2045Z" stroke="#4434FB" stroke-width="2" stroke-miterlimit="10" stroke-linecap="round" stroke-linejoin="round"/>
<path d="M131.127 38.7352C140.969 38.7352 148.966 30.7381 148.966 20.8956C148.966 11.0532 140.969 3.05615 131.127 3.05615" stroke="#4434FB" stroke-width="2" stroke-miterlimit="10" stroke-linecap="round" stroke-linejoin="round"/>
<path d="M127.129 61.1116C133.819 59.5738 138.817 53.576 138.817 46.4248" stroke="#4434FB" stroke-width="2" stroke-miterlimit="10" stroke-linecap="round" stroke-linejoin="round"/>
<path d="M120.283 55.0372C122.052 52.5766 123.051 49.5777 123.051 46.3481" stroke="#4434FB" stroke-width="2" stroke-miterlimit="10" stroke-linecap="round" stroke-linejoin="round"/>
<path d="M131.127 33.1222C137.817 33.1222 143.276 27.6627 143.276 20.9729" stroke="#4434FB" stroke-width="2" stroke-miterlimit="10" stroke-linecap="round" stroke-linejoin="round"/>
<path d="M124.745 51.4232C117.132 43.8107 117.132 31.3538 124.745 23.7412" stroke="#4434FB" stroke-width="2" stroke-miterlimit="10" stroke-linecap="round" stroke-linejoin="round"/>
<path d="M130.973 54.5756C135.347 54.5756 138.893 51.0296 138.893 46.6555C138.893 42.2813 135.347 38.7354 130.973 38.7354C126.599 38.7354 123.053 42.2813 123.053 46.6555C123.053 51.0296 126.599 54.5756 130.973 54.5756Z" stroke="#4434FB" stroke-width="2" stroke-miterlimit="10" stroke-linecap="round" stroke-linejoin="round"/>
<path d="M133.819 14.0523C131.281 16.513 127.129 16.4361 124.745 13.8217C119.055 7.43942 109.674 5.13258 101.369 8.74662V8.59282C109.828 0.288223 122.515 -1.17277 132.434 4.05606C136.202 5.97842 136.817 11.0535 133.819 14.0523Z" stroke="#4434FB" stroke-width="2" stroke-miterlimit="10" stroke-linecap="round" stroke-linejoin="round"/>
<path d="M95.9062 51.9614V65.418" stroke="#4434FB" stroke-width="2" stroke-miterlimit="10" stroke-linecap="round" stroke-linejoin="round"/>
<path d="M77.375 102.558H81.8349C81.8349 105.018 80.0663 107.017 77.7595 107.402" stroke="#4434FB" stroke-width="2" stroke-miterlimit="10" stroke-linecap="round" stroke-linejoin="round"/>
<path d="M59.5352 135.699H79.1432C84.0645 135.699 88.1399 131.701 88.1399 126.702V117.86H68.5318C66.7632 117.86 65.0716 118.398 63.6875 119.244" stroke="#4434FB" stroke-width="2" stroke-miterlimit="10" stroke-linecap="round" stroke-linejoin="round"/>
<path d="M66.9941 122.55H88.1401" stroke="#4434FB" stroke-width="2" stroke-miterlimit="10" stroke-linecap="round" stroke-linejoin="round"/>
<path d="M68.457 126.779H88.142" stroke="#4434FB" stroke-width="2" stroke-miterlimit="10" stroke-linecap="round" stroke-linejoin="round"/>
<path d="M67.3789 131.009H86.8332" stroke="#4434FB" stroke-width="2" stroke-miterlimit="10" stroke-linecap="round" stroke-linejoin="round"/>
<path d="M62.2243 112.246C61.9936 113.784 61.0709 115.091 59.7637 115.86" stroke="#4434FB" stroke-width="2" stroke-miterlimit="10" stroke-linecap="round" stroke-linejoin="round"/>
<path d="M51.9206 112.323C51.8438 112.016 51.8438 111.708 51.8438 111.4C51.8438 108.632 53.9968 106.325 56.765 106.172" stroke="#4434FB" stroke-width="2" stroke-miterlimit="10" stroke-linecap="round" stroke-linejoin="round"/>
<path d="M56.7656 106.018V104.865C56.7656 101.25 59.8414 98.3285 63.5323 98.5592L72.2214 99.1743C75.5279 99.405 78.0654 102.173 78.0654 105.48C78.0654 108.786 75.5279 111.554 72.2214 111.785L63.5323 112.4C59.8414 112.554 56.7656 109.632 56.7656 106.018Z" stroke="#4434FB" stroke-width="2" stroke-miterlimit="10" stroke-linecap="round" stroke-linejoin="round"/>
<path d="M66.2232 132.47L65.2236 133.469C62.0709 136.622 56.919 136.468 53.997 133.085L46.9996 125.088C44.3083 122.012 44.4621 117.475 47.3841 114.553C50.2292 111.708 54.8429 111.554 57.9186 114.169L65.9157 121.166C69.2221 124.088 69.3759 129.317 66.2232 132.47Z" stroke="#4434FB" stroke-width="2" stroke-miterlimit="10" stroke-linecap="round" stroke-linejoin="round"/>
<path d="M114.438 102.558H109.979C109.979 105.018 111.747 107.017 114.054 107.402" stroke="#4434FB" stroke-width="2" stroke-miterlimit="10" stroke-linecap="round" stroke-linejoin="round"/>
<path d="M132.2 135.699H112.592C107.671 135.699 103.596 131.701 103.596 126.703V117.86H123.204C124.972 117.86 126.664 118.398 128.048 119.244" stroke="#4434FB" stroke-width="2" stroke-miterlimit="10" stroke-linecap="round" stroke-linejoin="round"/>
<path d="M124.742 122.55H103.596" stroke="#4434FB" stroke-width="2" stroke-miterlimit="10" stroke-linecap="round" stroke-linejoin="round"/>
<path d="M123.281 126.78H103.596" stroke="#4434FB" stroke-width="2" stroke-miterlimit="10" stroke-linecap="round" stroke-linejoin="round"/>
<path d="M124.358 131.009H104.98" stroke="#4434FB" stroke-width="2" stroke-miterlimit="10" stroke-linecap="round" stroke-linejoin="round"/>
<path d="M129.508 112.246C129.738 113.784 130.661 115.091 131.968 115.86" stroke="#4434FB" stroke-width="2" stroke-miterlimit="10" stroke-linecap="round" stroke-linejoin="round"/>
<path d="M139.811 112.323C139.888 112.016 139.888 111.708 139.888 111.4C139.888 108.632 137.735 106.325 134.967 106.172" stroke="#4434FB" stroke-width="2" stroke-miterlimit="10" stroke-linecap="round" stroke-linejoin="round"/>
<path d="M134.97 106.018V104.865C134.97 101.25 131.894 98.3285 128.203 98.5592L119.514 99.1743C116.207 99.405 113.67 102.173 113.67 105.48C113.67 108.786 116.207 111.554 119.514 111.785L128.203 112.4C131.894 112.554 134.97 109.632 134.97 106.018Z" stroke="#4434FB" stroke-width="2" stroke-miterlimit="10" stroke-linecap="round" stroke-linejoin="round"/>
<path d="M125.511 132.47L126.511 133.469C129.664 136.622 134.816 136.468 137.738 133.085L144.735 125.088C147.426 122.012 147.273 117.475 144.351 114.553C141.505 111.708 136.892 111.554 133.816 114.169L125.819 121.166C122.589 124.088 122.359 129.317 125.511 132.47Z" stroke="#4434FB" stroke-width="2" stroke-miterlimit="10" stroke-linecap="round" stroke-linejoin="round"/>
<path d="M114.67 95.9448C115.362 96.6369 115.824 97.6365 115.824 98.713V99.5589C115.824 101.251 114.439 102.558 112.825 102.558H109.98H81.8362H78.9911C77.2994 102.558 75.9922 101.174 75.9922 99.5589V98.713C75.9922 97.6365 76.4536 96.7138 77.1456 95.9448" stroke="#4434FB" stroke-width="2" stroke-miterlimit="10" stroke-linecap="round" stroke-linejoin="round"/>
<path d="M106.98 48.501C107.999 48.501 108.826 47.6747 108.826 46.6555C108.826 45.6363 107.999 44.8101 106.98 44.8101C105.961 44.8101 105.135 45.6363 105.135 46.6555C105.135 47.6747 105.961 48.501 106.98 48.501Z" stroke="#4434FB" stroke-width="2" stroke-miterlimit="10" stroke-linecap="round" stroke-linejoin="round"/>
<path d="M86.605 46.6555C86.605 45.6559 85.7592 44.8101 84.7595 44.8101C83.7599 44.8101 82.9141 45.6559 82.9141 46.6555C82.9141 47.6551 83.7599 48.501 84.7595 48.501C85.836 48.501 86.605 47.6551 86.605 46.6555Z" stroke="#4434FB" stroke-width="2" stroke-miterlimit="10" stroke-linecap="round" stroke-linejoin="round"/>
<path d="M168.881 127.548C166.959 127.548 165.344 129.086 165.344 131.086C165.344 129.163 163.806 127.548 161.807 127.548C163.729 127.548 165.344 126.011 165.344 124.011C165.421 125.934 166.959 127.548 168.881 127.548Z" stroke="white" stroke-width="2" stroke-miterlimit="10" stroke-linecap="round" stroke-linejoin="round"/>
<path d="M23.8575 131.009C21.9351 131.009 20.3203 132.547 20.3203 134.546C20.3203 132.624 18.7825 131.009 16.7832 131.009C18.7056 131.009 20.3203 129.471 20.3203 127.472C20.3972 129.471 21.9351 131.009 23.8575 131.009Z" stroke="white" stroke-width="2" stroke-miterlimit="10" stroke-linecap="round" stroke-linejoin="round"/>
<path d="M8.07429 102.626C6.15193 102.626 4.53714 104.164 4.53714 106.163C4.53714 104.241 2.99926 102.626 1 102.626C2.92236 102.626 4.53714 101.088 4.53714 99.089C4.53714 101.011 6.07503 102.626 8.07429 102.626Z" stroke="white" stroke-width="2" stroke-miterlimit="10" stroke-linecap="round" stroke-linejoin="round"/>
<path d="M162.883 20.3577C160.961 20.3577 159.346 21.8956 159.346 23.8948C159.346 21.9725 157.808 20.3577 155.809 20.3577C157.731 20.3577 159.346 18.8198 159.346 16.8206C159.423 18.7429 160.961 20.3577 162.883 20.3577Z" stroke="white" stroke-width="2" stroke-miterlimit="10" stroke-linecap="round" stroke-linejoin="round"/>
<path d="M96.5235 36.6592C98.477 36.6592 100.061 35.0756 100.061 33.1221C100.061 31.1686 98.477 29.585 96.5235 29.585C94.57 29.585 92.9863 31.1686 92.9863 33.1221C92.9863 35.0756 94.57 36.6592 96.5235 36.6592Z" stroke="white" stroke-width="2" stroke-miterlimit="10" stroke-linecap="round" stroke-linejoin="round"/>
<path d="M95.9082 143.466V155" stroke="white" stroke-width="2" stroke-miterlimit="10" stroke-linecap="round" stroke-linejoin="round"/>
<path d="M90.0645 149.233H101.676" stroke="white" stroke-width="2" stroke-miterlimit="10" stroke-linecap="round" stroke-linejoin="round"/>
<path d="M92.6016 146.003L99.1376 152.462" stroke="white" stroke-width="2" stroke-miterlimit="10" stroke-linecap="round" stroke-linejoin="round"/>
<path d="M92.6016 152.462L99.1376 146.003" stroke="white" stroke-width="2" stroke-miterlimit="10" stroke-linecap="round" stroke-linejoin="round"/>
<path d="M26.9336 20.4346V32.0456" stroke="white" stroke-width="2" stroke-miterlimit="10" stroke-linecap="round" stroke-linejoin="round"/>
<path d="M21.0898 26.2014H32.7009" stroke="white" stroke-width="2" stroke-miterlimit="10" stroke-linecap="round" stroke-linejoin="round"/>
<path d="M23.7051 22.9722L30.1642 29.4313" stroke="white" stroke-width="2" stroke-miterlimit="10" stroke-linecap="round" stroke-linejoin="round"/>
<path d="M23.7051 29.4313L30.1642 22.9722" stroke="white" stroke-width="2" stroke-miterlimit="10" stroke-linecap="round" stroke-linejoin="round"/>
<path d="M177.338 68.1091V79.7202" stroke="white" stroke-width="2" stroke-miterlimit="10" stroke-linecap="round" stroke-linejoin="round"/>
<path d="M171.496 73.9531H183.107" stroke="white" stroke-width="2" stroke-miterlimit="10" stroke-linecap="round" stroke-linejoin="round"/>
<path d="M174.109 70.7236L180.569 77.1828" stroke="white" stroke-width="2" stroke-miterlimit="10" stroke-linecap="round" stroke-linejoin="round"/>
<path d="M174.109 77.1828L180.569 70.7236" stroke="white" stroke-width="2" stroke-miterlimit="10" stroke-linecap="round" stroke-linejoin="round"/>
</svg>
