<svg width="115" height="166" viewBox="0 0 115 166" fill="none" xmlns="http://www.w3.org/2000/svg">
<path d="M109.52 68.0396C111.464 68.0396 113.04 66.4637 113.04 64.5198C113.04 62.5759 111.464 61 109.52 61C107.576 61 106 62.5759 106 64.5198C106 66.4637 107.576 68.0396 109.52 68.0396Z" stroke="white" stroke-width="2" stroke-miterlimit="10" stroke-linecap="round" stroke-linejoin="round"/>
<path d="M38.3401 119.755C40.284 119.755 41.8599 118.179 41.8599 116.235C41.8599 114.291 40.284 112.715 38.3401 112.715C36.3962 112.715 34.8203 114.291 34.8203 116.235C34.8203 118.179 36.3962 119.755 38.3401 119.755Z" stroke="white" stroke-width="2" stroke-miterlimit="10" stroke-linecap="round" stroke-linejoin="round"/>
<path d="M91.2895 77.8997C89.3766 77.8997 87.7698 79.43 87.7698 81.4195C87.7698 79.5065 86.2394 77.8997 84.25 77.8997C86.1629 77.8997 87.7698 76.3693 87.7698 74.3799C87.7698 76.3693 89.3766 77.8997 91.2895 77.8997Z" stroke="white" stroke-width="2" stroke-miterlimit="10" stroke-linecap="round" stroke-linejoin="round"/>
<path d="M13.6252 11.4829C15.5692 11.4829 17.145 9.90708 17.145 7.96315C17.145 6.01923 15.5692 4.44336 13.6252 4.44336C11.6813 4.44336 10.1055 6.01923 10.1055 7.96315C10.1055 9.90708 11.6813 11.4829 13.6252 11.4829Z" stroke="white" stroke-width="2" stroke-miterlimit="10" stroke-linecap="round" stroke-linejoin="round"/>
<path d="M14.3912 142.71C12.4782 142.71 10.8714 144.24 10.8714 146.23C10.8714 144.317 9.34101 142.71 7.35156 142.71C9.26449 142.71 10.8714 141.179 10.8714 139.19C10.8714 141.179 12.4782 142.71 14.3912 142.71Z" stroke="white" stroke-width="2" stroke-miterlimit="10" stroke-linecap="round" stroke-linejoin="round"/>
<path d="M11.5957 84.1758V95.7299" stroke="white" stroke-width="2" stroke-miterlimit="10" stroke-linecap="round" stroke-linejoin="round"/>
<path d="M5.78125 89.991H17.3353" stroke="white" stroke-width="2" stroke-miterlimit="10" stroke-linecap="round" stroke-linejoin="round"/>
<path d="M8.38281 86.7773L14.8103 93.2048" stroke="white" stroke-width="2" stroke-miterlimit="10" stroke-linecap="round" stroke-linejoin="round"/>
<path d="M8.38281 93.2048L14.8103 86.7773" stroke="white" stroke-width="2" stroke-miterlimit="10" stroke-linecap="round" stroke-linejoin="round"/>
<path d="M95.7266 1V12.5541" stroke="white" stroke-width="2" stroke-miterlimit="10" stroke-linecap="round" stroke-linejoin="round"/>
<path d="M89.9121 6.81519H101.466" stroke="white" stroke-width="2" stroke-miterlimit="10" stroke-linecap="round" stroke-linejoin="round"/>
<path d="M92.5137 3.60156L98.9411 10.029" stroke="white" stroke-width="2" stroke-miterlimit="10" stroke-linecap="round" stroke-linejoin="round"/>
<path d="M92.5137 10.029L98.9411 3.60156" stroke="white" stroke-width="2" stroke-miterlimit="10" stroke-linecap="round" stroke-linejoin="round"/>
<path d="M94.7344 137.048V148.602" stroke="white" stroke-width="2" stroke-miterlimit="10" stroke-linecap="round" stroke-linejoin="round"/>
<path d="M88.9199 142.863H100.474" stroke="white" stroke-width="2" stroke-miterlimit="10" stroke-linecap="round" stroke-linejoin="round"/>
<path d="M91.5234 139.649L97.9508 146.077" stroke="white" stroke-width="2" stroke-miterlimit="10" stroke-linecap="round" stroke-linejoin="round"/>
<path d="M91.5234 146.077L97.9508 139.649" stroke="white" stroke-width="2" stroke-miterlimit="10" stroke-linecap="round" stroke-linejoin="round"/>
<path d="M50.8907 25.7151C47.7535 28.8523 42.6268 28.8523 39.4896 25.7151C36.3524 22.5779 36.3524 17.4513 39.4896 14.3141C42.6268 11.1769 47.7535 11.1769 50.8907 14.3141" stroke="#4434FB" stroke-width="2" stroke-miterlimit="10" stroke-linecap="round" stroke-linejoin="round"/>
<path d="M39.4896 25.715C36.3524 22.5778 36.3524 17.4512 39.4896 14.314" stroke="#4434FB" stroke-width="2" stroke-miterlimit="10" stroke-linecap="round" stroke-linejoin="round"/>
<path d="M50.8917 14.314C52.7281 16.1504 52.7281 19.2111 50.8917 21.0475C49.0553 22.8839 45.9946 22.8839 44.1582 21.0475" stroke="#4434FB" stroke-width="2" stroke-miterlimit="10" stroke-linecap="round" stroke-linejoin="round"/>
<path d="M52.3438 17.2217C52.3438 27.3219 60.5311 35.5093 70.6314 35.5093C80.7316 35.5093 88.919 43.6966 88.919 53.7969" stroke="#4434FB" stroke-width="2" stroke-miterlimit="10" stroke-linecap="round" stroke-linejoin="round"/>
<path d="M88.919 53.7969C88.919 33.5964 72.5443 17.2217 52.3438 17.2217" stroke="#4434FB" stroke-width="2" stroke-miterlimit="10" stroke-linecap="round" stroke-linejoin="round"/>
<path d="M45.0723 28.0874H49.9694C55.2491 28.0874 59.534 32.3724 59.534 37.6521C59.534 42.9317 63.819 47.2167 69.0987 47.2167C74.3784 47.2167 78.6633 51.5017 78.6633 56.7813V59.3829" stroke="#4434FB" stroke-width="2" stroke-miterlimit="10" stroke-linecap="round" stroke-linejoin="round"/>
<path d="M69.3285 47.2932C70.7823 47.2932 72.0066 48.5175 72.0066 49.9713C72.0066 51.4251 70.7823 52.6494 69.3285 52.6494C67.8747 52.6494 66.6504 51.4251 66.6504 49.9713" stroke="#4434FB" stroke-width="2" stroke-miterlimit="10" stroke-linecap="round" stroke-linejoin="round"/>
<path d="M69.3301 47.2932C70.7839 47.2932 72.0082 48.5175 72.0082 49.9713C72.0082 51.4251 70.7839 52.6494 69.3301 52.6494" stroke="#4434FB" stroke-width="2" stroke-miterlimit="10" stroke-linecap="round" stroke-linejoin="round"/>
<path d="M59.6874 39.2588C59.6874 40.5595 58.6162 41.6308 57.3154 41.6308C56.0146 41.6308 54.9434 40.5595 54.9434 39.2588C54.9434 37.958 56.0146 36.8867 57.3154 36.8867" stroke="#4434FB" stroke-width="2" stroke-miterlimit="10" stroke-linecap="round" stroke-linejoin="round"/>
<path d="M59.6874 39.2588C59.6874 40.5596 58.6162 41.6308 57.3154 41.6308C56.0146 41.6308 54.9434 40.5596 54.9434 39.2588" stroke="#4434FB" stroke-width="2" stroke-miterlimit="10" stroke-linecap="round" stroke-linejoin="round"/>
<path d="M84.9381 52.5728C88.3049 52.5728 91.1361 55.3274 91.1361 58.7707C91.1361 62.2139 88.3814 64.9685 84.9381 64.9685C81.4948 64.9685 78.7402 62.2139 78.7402 58.7707" stroke="#4434FB" stroke-width="2" stroke-miterlimit="10" stroke-linecap="round" stroke-linejoin="round"/>
<path d="M46.0684 28.2402V29.6941C46.0684 31.6835 45.6093 33.673 44.7676 35.4328C44.3085 36.4276 44.9972 37.5753 46.0684 37.5753" stroke="#4434FB" stroke-width="2" stroke-miterlimit="10" stroke-linecap="round" stroke-linejoin="round"/>
<path d="M47.3691 38.9526C47.3691 40.636 48.7465 42.0898 50.5064 42.0898H50.9655" stroke="#4434FB" stroke-width="2" stroke-miterlimit="10" stroke-linecap="round" stroke-linejoin="round"/>
<path d="M46.0684 37.6519C46.757 37.6519 47.3691 38.264 47.3691 38.9527" stroke="#4434FB" stroke-width="2" stroke-miterlimit="10" stroke-linecap="round" stroke-linejoin="round"/>
<path d="M51.043 42.0898C52.7263 42.0898 54.0271 43.4672 54.0271 45.074" stroke="#4434FB" stroke-width="2" stroke-miterlimit="10" stroke-linecap="round" stroke-linejoin="round"/>
<path d="M57.8528 45.074C56.7816 46.1452 55.0982 46.1452 54.1035 45.074" stroke="#4434FB" stroke-width="2" stroke-miterlimit="10" stroke-linecap="round" stroke-linejoin="round"/>
<path d="M14.9258 39.5649C17.9865 39.5649 20.435 42.0135 20.435 45.0742C17.3743 45.0742 14.9258 42.6256 14.9258 39.5649Z" stroke="#4434FB" stroke-width="2" stroke-miterlimit="10" stroke-linecap="round" stroke-linejoin="round"/>
<path d="M17.2227 49.6652C19.3651 47.5227 22.8849 47.5227 25.0274 49.6652C22.8849 51.8842 19.3651 51.8842 17.2227 49.6652Z" stroke="#4434FB" stroke-width="2" stroke-miterlimit="10" stroke-linecap="round" stroke-linejoin="round"/>
<path d="M25.0287 41.937C22.8863 44.0795 22.8863 47.5993 25.0287 49.7418C27.1712 47.5228 27.1712 44.0795 25.0287 41.937Z" stroke="#4434FB" stroke-width="2" stroke-miterlimit="10" stroke-linecap="round" stroke-linejoin="round"/>
<path d="M22.1953 54.7155C24.3378 52.573 27.8576 52.573 30.0001 54.7155C27.8576 56.858 24.3378 56.858 22.1953 54.7155Z" stroke="#4434FB" stroke-width="2" stroke-miterlimit="10" stroke-linecap="round" stroke-linejoin="round"/>
<path d="M29.9994 46.9106C27.857 49.0531 27.857 52.5729 29.9994 54.7154C32.1419 52.5729 32.1419 49.0531 29.9994 46.9106Z" stroke="#4434FB" stroke-width="2" stroke-miterlimit="10" stroke-linecap="round" stroke-linejoin="round"/>
<path d="M20.4336 45.0742L44.613 69.3302" stroke="#4434FB" stroke-width="2" stroke-miterlimit="10" stroke-linecap="round" stroke-linejoin="round"/>
<path d="M6.9668 58.9238C9.10928 56.7813 12.6291 56.7813 14.7716 58.9238C12.6291 61.0662 9.10928 61.0662 6.9668 58.9238Z" stroke="#4434FB" stroke-width="2" stroke-miterlimit="10" stroke-linecap="round" stroke-linejoin="round"/>
<path d="M15.7656 64.4331C15.7656 61.3724 18.2142 58.9238 21.2749 58.9238C21.2749 61.9845 18.8263 64.4331 15.7656 64.4331Z" stroke="#4434FB" stroke-width="2" stroke-miterlimit="10" stroke-linecap="round" stroke-linejoin="round"/>
<path d="M15.7656 53.4146C15.7656 56.4752 18.2142 58.9238 21.2749 58.9238C21.2749 55.8631 18.8263 53.4146 15.7656 53.4146Z" stroke="#4434FB" stroke-width="2" stroke-miterlimit="10" stroke-linecap="round" stroke-linejoin="round"/>
<path d="M14.7715 58.9238H34.2069" stroke="#4434FB" stroke-width="2" stroke-miterlimit="10" stroke-linecap="round" stroke-linejoin="round"/>
<path d="M34.2084 31.6836C32.0659 33.8261 32.0659 37.3459 34.2084 39.4883C36.3509 37.3459 36.3509 33.8261 34.2084 31.6836Z" stroke="#4434FB" stroke-width="2" stroke-miterlimit="10" stroke-linecap="round" stroke-linejoin="round"/>
<path d="M39.7162 40.4829C36.6555 40.4829 34.207 42.9314 34.207 45.9921C37.2677 45.9921 39.7162 43.5436 39.7162 40.4829Z" stroke="#4434FB" stroke-width="2" stroke-miterlimit="10" stroke-linecap="round" stroke-linejoin="round"/>
<path d="M28.6992 40.4829C31.7599 40.4829 34.2085 42.9314 34.2085 45.9921C31.2243 45.9921 28.6992 43.5436 28.6992 40.4829Z" stroke="#4434FB" stroke-width="2" stroke-miterlimit="10" stroke-linecap="round" stroke-linejoin="round"/>
<path d="M34.207 39.4883V58.9236" stroke="#4434FB" stroke-width="2" stroke-miterlimit="10" stroke-linecap="round" stroke-linejoin="round"/>
<path d="M98.9414 157.095C70.477 157.095 47.4453 134.523 47.4453 106.67" stroke="#4434FB" stroke-width="2" stroke-miterlimit="10" stroke-linecap="round" stroke-linejoin="round"/>
<path d="M47.4459 116.235C47.4459 141.868 26.6333 162.681 1 162.681" stroke="#4434FB" stroke-width="2" stroke-miterlimit="10" stroke-linecap="round" stroke-linejoin="round"/>
<path d="M78.7403 100.243C78.7403 115.087 66.7271 127.1 51.8828 127.1" stroke="#4434FB" stroke-width="2" stroke-miterlimit="10" stroke-linecap="round" stroke-linejoin="round"/>
<path d="M47.4473 51.7311C47.4473 48.0582 50.4314 44.9976 54.1808 44.9976" stroke="#4434FB" stroke-width="2" stroke-miterlimit="10" stroke-linecap="round" stroke-linejoin="round"/>
<path d="M78.0541 84.1743C61.1438 84.1743 47.4473 70.4777 47.4473 53.5674" stroke="#4434FB" stroke-width="2" stroke-miterlimit="10" stroke-linecap="round" stroke-linejoin="round"/>
<path d="M78.7422 57.3933V142.404" stroke="#4434FB" stroke-width="2" stroke-miterlimit="10" stroke-linecap="round" stroke-linejoin="round"/>
<path d="M47.4473 116.235V51.8076" stroke="#4434FB" stroke-width="2" stroke-miterlimit="10" stroke-linecap="round" stroke-linejoin="round"/>
<path d="M1 162.681L6.58574 157.095C12.5541 151.127 22.2718 151.127 28.2401 157.095C34.2084 163.063 43.9262 163.063 49.8945 157.095C55.8628 151.127 65.5805 151.127 71.5489 157.095L74.4565 160.003" stroke="#4434FB" stroke-width="2" stroke-miterlimit="10" stroke-linecap="round" stroke-linejoin="round"/>
<path d="M74.3809 160.003C80.3492 165.971 90.0668 165.971 96.0352 160.003L98.9429 157.095" stroke="#4434FB" stroke-width="2" stroke-miterlimit="10" stroke-linecap="round" stroke-linejoin="round"/>
<path d="M88.3833 156.024C82.7976 154.035 78.7422 148.678 78.7422 142.404" stroke="#4434FB" stroke-width="2" stroke-miterlimit="10" stroke-linecap="round" stroke-linejoin="round"/>
<path d="M47.4438 64.8154H42.6997C41.705 64.8154 40.8633 65.6571 40.8633 66.6518V67.4935C40.8633 68.4883 41.705 69.3299 42.6997 69.3299H43.5414H44.6126" stroke="#4434FB" stroke-width="2" stroke-miterlimit="10" stroke-linecap="round" stroke-linejoin="round"/>
<path d="M47.3665 71.6256H43.2346C42.699 71.6256 42.3164 71.243 42.3164 70.7074V70.2483C42.3164 69.7127 42.699 69.3301 43.2346 69.3301" stroke="#4434FB" stroke-width="2" stroke-miterlimit="10" stroke-linecap="round" stroke-linejoin="round"/>
<path d="M57.8518 9.26394C62.6694 9.26394 66.5748 8.47601 66.5748 7.50405C66.5748 6.53209 62.6694 5.74414 57.8518 5.74414C53.0343 5.74414 49.1289 6.53209 49.1289 7.50405C49.1289 8.47601 53.0343 9.26394 57.8518 9.26394Z" stroke="#4434FB" stroke-width="2" stroke-miterlimit="10" stroke-linecap="round" stroke-linejoin="round"/>
<path d="M108.016 105.331C108.903 99.8663 105.192 94.7175 99.7271 93.8306C94.2626 92.9438 89.1138 96.6547 88.2269 102.119C87.34 107.584 91.051 112.733 96.5155 113.619C101.98 114.506 107.129 110.795 108.016 105.331Z" stroke="#4434FB" stroke-width="2" stroke-miterlimit="10" stroke-linecap="round" stroke-linejoin="round"/>
<path d="M100.62 117.791C103.939 116.416 105.515 112.612 104.14 109.293C102.765 105.974 98.9605 104.398 95.6418 105.773C92.3231 107.148 90.7472 110.952 92.1219 114.271C93.4966 117.59 97.3013 119.166 100.62 117.791Z" stroke="#4434FB" stroke-width="2" stroke-miterlimit="10" stroke-linecap="round" stroke-linejoin="round"/>
<path d="M98.0999 95.958C99.3254 95.958 100.319 94.9645 100.319 93.739C100.319 92.5135 99.3254 91.52 98.0999 91.52C96.8744 91.52 95.8809 92.5135 95.8809 93.739C95.8809 94.9645 96.8744 95.958 98.0999 95.958Z" stroke="#4434FB" stroke-width="2" stroke-miterlimit="10" stroke-linecap="round" stroke-linejoin="round"/>
<path d="M98.0996 83.8682V88.9183" stroke="#4434FB" stroke-width="2" stroke-miterlimit="10" stroke-linecap="round" stroke-linejoin="round"/>
<path d="M98.0996 120.826V125.876" stroke="#4434FB" stroke-width="2" stroke-miterlimit="10" stroke-linecap="round" stroke-linejoin="round"/>
</svg>
