<svg width="129" height="156" viewBox="0 0 129 156" fill="none" xmlns="http://www.w3.org/2000/svg">
<path d="M96.6091 94.2557C95.061 94.2557 93.7606 95.4941 93.7606 97.1041C93.7606 95.5561 92.5221 94.2557 90.9121 94.2557C92.4602 94.2557 93.7606 93.0172 93.7606 91.4072C93.7606 93.0172 95.061 94.2557 96.6091 94.2557Z" stroke="white" stroke-width="2" stroke-miterlimit="10" stroke-linecap="round" stroke-linejoin="round"/>
<path d="M39.5783 145.775C38.0302 145.775 36.7298 147.014 36.7298 148.624C36.7298 147.076 35.4913 145.775 33.8813 145.775C35.4294 145.775 36.7298 144.537 36.7298 142.927C36.7298 144.537 37.9683 145.775 39.5783 145.775Z" stroke="white" stroke-width="2" stroke-miterlimit="10" stroke-linecap="round" stroke-linejoin="round"/>
<path d="M3.84843 104.597C5.42159 104.597 6.69691 103.322 6.69691 101.748C6.69691 100.175 5.42159 98.8999 3.84843 98.8999C2.27528 98.8999 1 100.175 1 101.748C1 103.322 2.27528 104.597 3.84843 104.597Z" stroke="white" stroke-width="2" stroke-miterlimit="10" stroke-linecap="round" stroke-linejoin="round"/>
<path d="M67.6297 6.6969C69.2028 6.6969 70.4782 5.42161 70.4782 3.84845C70.4782 2.2753 69.2028 1 67.6297 1C66.0565 1 64.7812 2.2753 64.7812 3.84845C64.7812 5.42161 66.0565 6.6969 67.6297 6.6969Z" stroke="white" stroke-width="2" stroke-miterlimit="10" stroke-linecap="round" stroke-linejoin="round"/>
<path d="M33.1998 72.6446C31.6518 72.6446 30.3514 73.883 30.3514 75.493C30.3514 73.945 29.1129 72.6446 27.5029 72.6446C29.051 72.6446 30.3514 71.4061 30.3514 69.7961C30.3514 71.4061 31.5898 72.6446 33.1998 72.6446Z" stroke="white" stroke-width="2" stroke-miterlimit="10" stroke-linecap="round" stroke-linejoin="round"/>
<path d="M27.6279 30.3513V39.7017" stroke="white" stroke-width="2" stroke-miterlimit="10" stroke-linecap="round" stroke-linejoin="round"/>
<path d="M22.9219 35.0574H32.2722" stroke="white" stroke-width="2" stroke-miterlimit="10" stroke-linecap="round" stroke-linejoin="round"/>
<path d="M25.0269 32.4568L30.2284 37.6583" stroke="white" stroke-width="2" stroke-miterlimit="10" stroke-linecap="round" stroke-linejoin="round"/>
<path d="M25.0269 37.6583L30.2284 32.4568" stroke="white" stroke-width="2" stroke-miterlimit="10" stroke-linecap="round" stroke-linejoin="round"/>
<path d="M108.932 124.227V133.577" stroke="white" stroke-width="2" stroke-miterlimit="10" stroke-linecap="round" stroke-linejoin="round"/>
<path d="M104.226 128.932H113.576" stroke="white" stroke-width="2" stroke-miterlimit="10" stroke-linecap="round" stroke-linejoin="round"/>
<path d="M106.331 126.332L111.533 131.534" stroke="white" stroke-width="2" stroke-miterlimit="10" stroke-linecap="round" stroke-linejoin="round"/>
<path d="M106.331 131.534L111.533 126.332" stroke="white" stroke-width="2" stroke-miterlimit="10" stroke-linecap="round" stroke-linejoin="round"/>
<path d="M105.713 36.8533V46.2036" stroke="white" stroke-width="2" stroke-miterlimit="10" stroke-linecap="round" stroke-linejoin="round"/>
<path d="M101.068 41.5593H110.356" stroke="white" stroke-width="2" stroke-miterlimit="10" stroke-linecap="round" stroke-linejoin="round"/>
<path d="M103.112 38.9587L108.314 44.1603" stroke="white" stroke-width="2" stroke-miterlimit="10" stroke-linecap="round" stroke-linejoin="round"/>
<path d="M103.112 44.1603L108.314 38.9587" stroke="white" stroke-width="2" stroke-miterlimit="10" stroke-linecap="round" stroke-linejoin="round"/>
<path d="M21.0573 110.232C6.69119 95.8656 6.69119 72.5826 21.0573 58.2166" stroke="#4434FB" stroke-width="2" stroke-miterlimit="10" stroke-linecap="round" stroke-linejoin="round"/>
<path d="M11.2729 58.9597C14.0595 58.9597 16.3506 61.2509 16.3506 64.0374C13.5021 64.0374 11.2729 61.7462 11.2729 58.9597Z" stroke="#4434FB" stroke-width="2" stroke-miterlimit="10" stroke-linecap="round" stroke-linejoin="round"/>
<path d="M5.20459 80.6326C7.99112 80.6326 10.2823 82.9237 10.2823 85.7102C7.49574 85.7102 5.20459 83.4191 5.20459 80.6326Z" stroke="#4434FB" stroke-width="2" stroke-miterlimit="10" stroke-linecap="round" stroke-linejoin="round"/>
<path d="M16.8453 69.7344C14.0587 69.7344 11.7676 72.0255 11.7676 74.812C14.5541 74.812 16.8453 72.5209 16.8453 69.7344Z" stroke="#4434FB" stroke-width="2" stroke-miterlimit="10" stroke-linecap="round" stroke-linejoin="round"/>
<path d="M17.5894 91.3452C14.8028 91.3452 12.5117 93.6364 12.5117 96.4229C15.2982 96.4229 17.5894 94.1937 17.5894 91.3452Z" stroke="#4434FB" stroke-width="2" stroke-miterlimit="10" stroke-linecap="round" stroke-linejoin="round"/>
<path d="M28.55 55.1202L25.6396 58.0306C24.4012 59.269 22.3577 59.269 21.1193 58.0306C19.8808 56.7921 19.8808 54.7487 21.1193 53.5102L24.0297 50.5999" stroke="#4434FB" stroke-width="2" stroke-miterlimit="10" stroke-linecap="round" stroke-linejoin="round"/>
<path d="M27.1869 51.9001C28.4253 53.1386 29.0446 54.5628 28.5492 55.1201C28.0538 55.6155 26.5676 55.0582 25.3292 53.7578C24.0907 52.5194 23.4715 51.0951 23.9669 50.5378" stroke="#4434FB" stroke-width="2" stroke-miterlimit="10" stroke-linecap="round" stroke-linejoin="round"/>
<path d="M27.1877 51.9002C26.5684 51.281 25.8254 50.9714 25.5777 51.2191C25.33 51.4667 25.6396 52.2098 26.2588 52.829" stroke="#4434FB" stroke-width="2" stroke-miterlimit="10" stroke-linecap="round" stroke-linejoin="round"/>
<path d="M112.084 50.5378C126.451 64.9039 126.451 88.1869 112.084 102.553" stroke="#4434FB" stroke-width="2" stroke-miterlimit="10" stroke-linecap="round" stroke-linejoin="round"/>
<path d="M121.932 101.81C119.145 101.81 116.854 99.5187 116.854 96.7322C119.641 96.7322 121.932 99.0233 121.932 101.81Z" stroke="#4434FB" stroke-width="2" stroke-miterlimit="10" stroke-linecap="round" stroke-linejoin="round"/>
<path d="M127.999 80.137C125.212 80.137 122.921 77.8459 122.921 75.0593C125.707 75.0593 127.999 77.3505 127.999 80.137Z" stroke="#4434FB" stroke-width="2" stroke-miterlimit="10" stroke-linecap="round" stroke-linejoin="round"/>
<path d="M116.358 91.0972C119.144 91.0972 121.436 88.8061 121.436 86.0195C118.649 85.9576 116.358 88.2488 116.358 91.0972Z" stroke="#4434FB" stroke-width="2" stroke-miterlimit="10" stroke-linecap="round" stroke-linejoin="round"/>
<path d="M115.616 69.4244C118.402 69.4244 120.693 67.1332 120.693 64.3467C117.907 64.3467 115.616 66.6378 115.616 69.4244Z" stroke="#4434FB" stroke-width="2" stroke-miterlimit="10" stroke-linecap="round" stroke-linejoin="round"/>
<path d="M104.654 105.711L107.564 102.801C108.803 101.562 110.846 101.562 112.085 102.801C113.323 104.039 113.323 106.083 112.085 107.321L109.174 110.231" stroke="#4434FB" stroke-width="2" stroke-miterlimit="10" stroke-linecap="round" stroke-linejoin="round"/>
<path d="M105.955 108.869C104.716 107.631 104.097 106.206 104.592 105.649C105.088 105.154 106.574 105.711 107.812 107.011C109.051 108.25 109.67 109.674 109.175 110.231" stroke="#4434FB" stroke-width="2" stroke-miterlimit="10" stroke-linecap="round" stroke-linejoin="round"/>
<path d="M105.955 108.869C106.574 109.488 107.317 109.798 107.565 109.55C107.812 109.302 107.503 108.559 106.883 107.94" stroke="#4434FB" stroke-width="2" stroke-miterlimit="10" stroke-linecap="round" stroke-linejoin="round"/>
<path d="M55.174 27.3171C50.4679 32.0232 42.7894 32.0232 38.0833 27.3171C33.3772 22.6109 33.3772 14.9325 38.0833 10.2264C42.7894 5.52024 50.4679 5.52024 55.174 10.2264" stroke="#4434FB" stroke-width="2" stroke-miterlimit="10" stroke-linecap="round" stroke-linejoin="round"/>
<path d="M38.0833 27.317C33.3772 22.6109 33.3772 14.9325 38.0833 10.2263" stroke="#4434FB" stroke-width="2" stroke-miterlimit="10" stroke-linecap="round" stroke-linejoin="round"/>
<path d="M55.1734 10.2263C57.9599 13.0128 57.9599 17.5332 55.1734 20.3817C52.3869 23.1682 47.8665 23.1682 45.0181 20.3817" stroke="#4434FB" stroke-width="2" stroke-miterlimit="10" stroke-linecap="round" stroke-linejoin="round"/>
<path d="M98.6452 54.1296C98.6452 77.6603 79.573 96.7945 55.9804 96.7945H51.1504" stroke="#4434FB" stroke-width="2" stroke-miterlimit="10" stroke-linecap="round" stroke-linejoin="round"/>
<path d="M50.2211 31.0322V34.8095C50.2211 39.9491 49.0445 45.0268 46.8153 49.6091C45.5769 52.1479 47.4345 55.0583 50.2211 55.0583" stroke="#4434FB" stroke-width="2" stroke-miterlimit="10" stroke-linecap="round" stroke-linejoin="round"/>
<path d="M55.1118 21.001C55.1118 32.7044 64.586 42.1786 76.2894 42.1786C87.9928 42.1786 97.467 51.6528 97.467 63.3562" stroke="#4434FB" stroke-width="2" stroke-miterlimit="10" stroke-linecap="round" stroke-linejoin="round"/>
<path d="M98.6434 54.1297C98.6434 30.599 79.5711 11.4648 55.9785 11.4648" stroke="#4434FB" stroke-width="2" stroke-miterlimit="10" stroke-linecap="round" stroke-linejoin="round"/>
<path d="M46.3823 30.9087H51.5839C57.1569 30.9087 61.7392 35.4291 61.7392 41.064C61.7392 46.699 66.2596 51.2194 71.8945 51.2194C77.4676 51.2194 82.0499 55.7397 82.0499 61.3747V64.0993" stroke="#4434FB" stroke-width="2" stroke-miterlimit="10" stroke-linecap="round" stroke-linejoin="round"/>
<path d="M53.5015 58.5881C53.5015 62.9847 57.093 66.5762 61.4895 66.5762H62.6661" stroke="#4434FB" stroke-width="2" stroke-miterlimit="10" stroke-linecap="round" stroke-linejoin="round"/>
<path d="M72.0194 51.1572C73.5675 51.1572 74.806 52.3957 74.806 53.9438C74.806 55.4918 73.5675 56.7303 72.0194 56.7303C70.4714 56.7303 69.2329 55.4918 69.2329 53.9438" stroke="#4434FB" stroke-width="2" stroke-miterlimit="10" stroke-linecap="round" stroke-linejoin="round"/>
<path d="M72.0195 51.1572C73.5676 51.1572 74.8061 52.3957 74.8061 53.9438C74.8061 55.4918 73.5676 56.7303 72.0195 56.7303" stroke="#4434FB" stroke-width="2" stroke-miterlimit="10" stroke-linecap="round" stroke-linejoin="round"/>
<path d="M50.2202 55.1204C52.0779 55.1204 53.5641 56.6065 53.5641 58.4642" stroke="#4434FB" stroke-width="2" stroke-miterlimit="10" stroke-linecap="round" stroke-linejoin="round"/>
<path d="M86.8169 59.2073C89.4796 59.2073 91.5849 61.3746 91.5849 63.9753C91.5849 66.638 89.4177 68.7434 86.8169 68.7434C84.1542 68.7434 82.0488 66.5761 82.0488 63.9753" stroke="#4434FB" stroke-width="2" stroke-miterlimit="10" stroke-linecap="round" stroke-linejoin="round"/>
<path d="M78.0288 133.453C82.7349 128.747 90.4134 128.747 95.1195 133.453C99.8257 138.159 99.8257 145.837 95.1195 150.543C90.4134 155.25 82.7349 155.25 78.0288 150.543" stroke="#4434FB" stroke-width="2" stroke-miterlimit="10" stroke-linecap="round" stroke-linejoin="round"/>
<path d="M95.1187 133.453C99.8248 138.159 99.8248 145.837 95.1187 150.543" stroke="#4434FB" stroke-width="2" stroke-miterlimit="10" stroke-linecap="round" stroke-linejoin="round"/>
<path d="M78.0284 150.543C75.2418 147.757 75.2418 143.236 78.0284 140.388C80.8149 137.601 85.3352 137.601 88.1837 140.388" stroke="#4434FB" stroke-width="2" stroke-miterlimit="10" stroke-linecap="round" stroke-linejoin="round"/>
<path d="M34.5552 106.702C34.5552 83.1715 53.6274 64.0374 77.22 64.0374H82.05" stroke="#4434FB" stroke-width="2" stroke-miterlimit="10" stroke-linecap="round" stroke-linejoin="round"/>
<path d="M82.9795 129.737V125.96C82.9795 120.821 84.156 115.743 86.3852 111.161C87.6237 108.622 85.766 105.711 82.9795 105.711" stroke="#4434FB" stroke-width="2" stroke-miterlimit="10" stroke-linecap="round" stroke-linejoin="round"/>
<path d="M78.0866 139.831C78.0866 128.127 68.6124 118.653 56.909 118.653C45.2056 118.653 35.7314 109.179 35.7314 97.4756" stroke="#4434FB" stroke-width="2" stroke-miterlimit="10" stroke-linecap="round" stroke-linejoin="round"/>
<path d="M34.5552 106.702C34.5552 130.233 53.6274 149.367 77.22 149.367" stroke="#4434FB" stroke-width="2" stroke-miterlimit="10" stroke-linecap="round" stroke-linejoin="round"/>
<path d="M86.8194 129.923H81.6179C76.0448 129.923 71.4625 125.403 71.4625 119.768C71.4625 114.195 66.9422 109.613 61.3072 109.613C55.7342 109.613 51.1519 105.092 51.1519 99.4573V96.7327" stroke="#4434FB" stroke-width="2" stroke-miterlimit="10" stroke-linecap="round" stroke-linejoin="round"/>
<path d="M79.6343 102.182C79.6343 97.7851 76.0428 94.1936 71.6463 94.1936H70.4697" stroke="#4434FB" stroke-width="2" stroke-miterlimit="10" stroke-linecap="round" stroke-linejoin="round"/>
<path d="M61.1791 109.613C59.631 109.613 58.3926 108.374 58.3926 106.826C58.3926 105.278 59.631 104.04 61.1791 104.04C62.7272 104.04 63.9656 105.278 63.9656 106.826" stroke="#4434FB" stroke-width="2" stroke-miterlimit="10" stroke-linecap="round" stroke-linejoin="round"/>
<path d="M61.1791 109.613C59.631 109.613 58.3926 108.374 58.3926 106.826C58.3926 105.278 59.631 104.04 61.1791 104.04" stroke="#4434FB" stroke-width="2" stroke-miterlimit="10" stroke-linecap="round" stroke-linejoin="round"/>
<path d="M82.9771 105.649C81.1195 105.649 79.6333 104.163 79.6333 102.305" stroke="#4434FB" stroke-width="2" stroke-miterlimit="10" stroke-linecap="round" stroke-linejoin="round"/>
<path d="M46.3823 101.563C43.7196 101.563 41.6143 99.3954 41.6143 96.7947C41.6143 94.132 43.7815 92.0266 46.3823 92.0266C49.045 92.0266 51.1503 94.1939 51.1503 96.7947" stroke="#4434FB" stroke-width="2" stroke-miterlimit="10" stroke-linecap="round" stroke-linejoin="round"/>
</svg>
