<svg width="56" height="49" viewBox="0 0 56 49" fill="none" xmlns="http://www.w3.org/2000/svg">
<path d="M45.143 49C41.0096 49 37.743 47.4 35.343 44.2C32.943 41 31.743 36.4667 31.743 30.6C31.743 25 33.0096 19.8 35.543 15C37.943 10.3333 41.6096 5.6 46.543 0.800005C46.6763 0.666669 46.8763 0.600001 47.143 0.600002C47.543 0.600002 47.8763 0.800003 48.143 1.20001C48.4096 1.6 48.4096 1.93334 48.143 2.2C41.6096 8.86667 38.343 16.7333 38.343 25.8C38.343 29.5333 39.0096 32.2667 40.343 34C41.543 32 43.743 31 46.943 31C49.6096 31 51.743 31.8 53.343 33.4C54.8096 35.1333 55.543 37.3333 55.543 40C55.543 42.9333 54.6763 45.1333 52.943 46.6C51.0763 48.2 48.4763 49 45.143 49ZM13.943 49C9.80963 49 6.54296 47.4 4.14296 44.2C1.74296 41 0.542961 36.4667 0.542962 30.6C0.542962 25 1.80963 19.8 4.34296 15C6.74296 10.3333 10.4096 5.6 15.343 0.800002C15.4763 0.666667 15.6763 0.599999 15.943 0.599999C16.343 0.599999 16.6763 0.8 16.943 1.2C17.2096 1.6 17.2096 1.93333 16.943 2.2C10.4096 8.86667 7.14296 16.7333 7.14296 25.8C7.14296 29.5333 7.80963 32.2667 9.14296 34C10.343 32 12.543 31 15.743 31C18.4096 31 20.543 31.8 22.143 33.4C23.6096 35.1333 24.343 37.3333 24.343 40C24.343 42.9333 23.4763 45.1333 21.743 46.6C19.8763 48.2 17.2763 49 13.943 49Z" fill="#4434FB"/>
</svg>
