<svg width="66" height="73" viewBox="0 0 66 73" fill="none" xmlns="http://www.w3.org/2000/svg">
<path d="M36.7676 43.1075C38.1993 40.1053 35.1778 37.3701 35.1778 33.8259C35.1778 27.5799 37.0839 28.7057 33.0636 24.5527C29.0516 28.7223 31.0659 29.8565 30.6498 33.3756C30.0005 38.9045 34.3787 46.3514 34.8116 46.7934C34.8116 46.7934 36.2515 44.1916 36.7676 43.1075Z" fill="#4434FB"/>
<path d="M61.3712 32.3583C61.7097 34.1592 61.8797 35.9879 61.8789 37.8205C61.8789 50.7379 54.1214 61.2203 41.7942 65.3399M14.5927 15.5215C19.76 11.2104 26.2718 8.84987 32.9961 8.8501C39.4476 8.85565 45.7097 11.0351 50.7753 15.0378M4.53782 42.7656C4.25294 41.1328 4.11089 39.4781 4.11331 37.8205C4.12476 35.4804 4.42105 33.1505 4.99561 30.8823M24.015 65.3399C18.8246 63.6341 14.2239 60.488 10.7472 56.2668" stroke="white" stroke-miterlimit="10" stroke-linecap="round"/>
<path d="M32.9961 61.7373C34.3206 61.7373 35.5909 62.2645 36.5275 63.2028C37.4641 64.1411 37.9902 65.4138 37.9902 66.7408C37.9902 68.0678 37.4641 69.3405 36.5275 70.2789C35.5909 71.2172 34.3206 71.7443 32.9961 71.7443C31.6716 71.7443 30.4013 71.2172 29.4647 70.2789C28.5281 69.3405 28.002 68.0678 28.002 66.7408C28.002 65.4138 28.5281 64.1411 29.4647 63.2028C30.4013 62.2645 31.6716 61.7373 32.9961 61.7373V61.7373Z" stroke="white" stroke-linecap="round" stroke-linejoin="round"/>
<path d="M8.23232 17.5977C8.9297 17.5977 9.62025 17.7353 10.2645 18.0026C10.9088 18.27 11.4943 18.6619 11.9874 19.156C12.4805 19.65 12.8717 20.2365 13.1385 20.882C13.4054 21.5275 13.5428 22.2194 13.5428 22.9181C13.5428 23.6168 13.4054 24.3086 13.1385 24.9541C12.8717 25.5996 12.4805 26.1861 11.9874 26.6802C11.4943 27.1742 10.9088 27.5661 10.2645 27.8335C9.62025 28.1009 8.9297 28.2385 8.23232 28.2385C7.53494 28.2385 6.84439 28.1009 6.2001 27.8335C5.55581 27.5661 4.97039 27.1742 4.47727 26.6802C3.98415 26.1861 3.59298 25.5996 3.32611 24.9541C3.05923 24.3086 2.92188 23.6168 2.92188 22.9181C2.92188 22.2194 3.05923 21.5275 3.32611 20.882C3.59298 20.2365 3.98415 19.65 4.47727 19.156C4.97039 18.6619 5.55581 18.27 6.2001 18.0026C6.84439 17.7353 7.53494 17.5977 8.23232 17.5977V17.5977Z" stroke="white" stroke-linecap="round" stroke-linejoin="round"/>
<path d="M60.1387 25.5197C60.8254 24.8302 61.2111 23.896 61.2111 22.922C61.2111 21.948 60.8254 21.0138 60.1387 20.3244C59.4506 19.6364 58.5181 19.25 57.5459 19.25C56.5738 19.25 55.6413 19.6364 54.9531 20.3244" stroke="white" stroke-linecap="round" stroke-linejoin="round"/>
<path d="M57.5495 16.2549C59.3155 16.2549 61.0092 16.9578 62.258 18.2089C63.5068 19.46 64.2084 21.1569 64.2084 22.9262C64.2084 24.6956 63.5068 26.3925 62.258 27.6436C61.0092 28.8947 59.3155 29.5976 57.5495 29.5976C55.7834 29.5976 54.0897 28.8947 52.841 27.6436C51.5922 26.3925 50.8906 24.6956 50.8906 22.9262C50.8906 21.1569 51.5922 19.46 52.841 18.2089C54.0897 16.9578 55.7834 16.2549 57.5495 16.2549V16.2549Z" stroke="white" stroke-linecap="round" stroke-linejoin="round"/>
<path d="M8.23333 20.7915C8.79626 20.7915 9.33613 21.0155 9.73417 21.4143C10.1322 21.8131 10.3558 22.354 10.3558 22.918C10.3558 23.482 10.1322 24.0229 9.73417 24.4217C9.33613 24.8205 8.79626 25.0445 8.23333 25.0445C7.67185 25.0423 7.13412 24.8173 6.73787 24.4187C6.34162 24.0202 6.11914 23.4805 6.11914 22.918C6.11914 22.3555 6.34162 21.8158 6.73787 21.4173C7.13412 21.0187 7.67185 20.7937 8.23333 20.7915Z" stroke="white" stroke-linecap="round" stroke-linejoin="round"/>
<path d="M65 56.2749H48.6275M30.3822 5.289L32.9958 0.744141L57.9666 43.9913M20.2108 56.2749H1L25.8043 13.2529" stroke="white" stroke-linecap="round" stroke-linejoin="round"/>
<path d="M49.0535 56.2747C46.0515 56.2767 43.079 55.6813 40.3084 54.5232C37.5379 53.3651 35.0245 51.6673 32.9141 49.5283" stroke="white" stroke-linecap="round" stroke-linejoin="round"/>
<path d="M31.7394 48.1528C30.5308 46.8121 28.9566 45.8554 27.2114 45.4009C24.8777 44.758 22.3854 45.0574 20.2695 46.2348C21.5086 48.3192 23.5137 49.834 25.8547 50.4545C28.2405 51.0822 30.7774 50.7406 32.9131 49.5038" stroke="white" stroke-linecap="round" stroke-linejoin="round"/>
<path d="M32.8377 25.52C31.4873 27.9192 30.7844 30.6296 30.7984 33.3839C30.7984 42.557 35.3015 46.3097 35.3015 46.3097C35.9771 45.325 36.5727 44.2876 37.0827 43.2075C38.5563 40.1138 39.3185 36.7284 39.3134 33.3005C39.3244 27.3055 36.9942 21.544 32.821 17.2476C28.6448 21.5427 26.3116 27.3043 26.3203 33.3005C26.3242 38.6643 28.2031 43.8573 31.6308 47.9775C32.022 48.4529 32.5131 49.0866 32.9459 49.5286" stroke="white" stroke-linecap="round" stroke-linejoin="round"/>
</svg>
