<svg width="44" height="44" viewBox="0 0 44 44" fill="none" xmlns="http://www.w3.org/2000/svg">
<path d="M0.270366 43.7266C0.603257 44.0576 1.141 44.0576 1.47389 43.7266L21.9632 23.2387L42.4526 43.7266H42.4532C42.7974 44.0826 43.3649 44.0922 43.721 43.748C44.0765 43.4038 44.086 42.8363 43.7418 42.4802L23.2525 21.9923L43.7418 1.50445C44.086 1.16027 44.086 0.602312 43.7418 0.258134C43.3976 -0.0860446 42.8396 -0.0860446 42.4954 0.258134L22.0061 20.746L1.51676 0.258134C1.17256 -0.0860446 0.614559 -0.0860446 0.270357 0.258134C-0.073846 0.602312 -0.073846 1.16027 0.270357 1.50445L20.7597 21.9923L0.270357 42.4802C0.0976608 42.6416 0 42.8673 0 43.1037C0 43.3401 0.0976639 43.5652 0.270357 43.7265L0.270366 43.7266Z" fill="#251B8D"/>
</svg>
