<svg width="453" height="261" viewBox="0 0 453 261" fill="none" xmlns="http://www.w3.org/2000/svg">
<path d="M-17.7678 162.941C-56.1312 153.255 -81.333 164.264 -91.2434 172.179C-108.351 185.811 -119.853 203.143 -122.208 241.395C-124.338 276.17 -142.858 255.565 -155.526 284.96C-168.688 315.453 -166.445 345.946 -173.082 355.677C-199.966 395.139 -199.495 441.687 -172.522 445.857C-93.5976 458.054 18.8242 435.139 -9.3149 440.431C-24.2477 443.234 133.645 491.709 143.533 437.225C146.381 421.552 418.422 422.269 457.592 363.48C461.763 357.224 494.565 85.5869 460.014 4.12927C451.83 -15.1533 427.032 38.4791 398.466 54.2864C361.157 74.9366 340.126 52.8514 317.121 54.2864C264.856 57.5375 264.184 99.5107 239.677 93.0533C217.053 87.0891 202.255 85.6093 186.403 88.569C167.121 92.1564 167.905 109.645 132.255 103.031C103.331 97.6721 96.0217 177.022 67.1876 161.91C16.0663 135.139 17.9049 171.955 -17.7678 162.941Z" fill="#110A44"/>
<path d="M59.2955 219.623C59.2955 220.452 58.6228 221.125 57.7933 221.125C56.9637 221.125 56.291 220.452 56.291 219.623C56.291 218.793 56.9637 218.121 57.7933 218.121C58.6228 218.143 59.2955 218.816 59.2955 219.623Z" fill="white"/>
<path d="M142.838 222.113C142.838 222.942 142.165 223.615 141.335 223.615C140.506 223.615 139.833 222.942 139.833 222.113C139.833 221.283 140.506 220.61 141.335 220.61C142.165 220.61 142.838 221.283 142.838 222.113Z" fill="white"/>
<path d="M217.39 193.659C217.39 194.197 216.964 194.623 216.426 194.623C215.888 194.623 215.462 194.197 215.462 193.659C215.462 193.121 215.888 192.695 216.426 192.695C216.942 192.695 217.39 193.121 217.39 193.659Z" fill="white"/>
<path d="M166.426 156.618C166.426 157.157 166 157.583 165.462 157.583C164.924 157.583 164.498 157.157 164.498 156.618C164.498 156.08 164.924 155.654 165.462 155.654C165.978 155.654 166.426 156.08 166.426 156.618Z" fill="white"/>
<path d="M366.763 85.1162C367.295 85.1162 367.727 84.6846 367.727 84.1521C367.727 83.6197 367.295 83.188 366.763 83.188C366.23 83.188 365.799 83.6197 365.799 84.1521C365.799 84.6846 366.23 85.1162 366.763 85.1162Z" fill="white"/>
<path d="M197.032 219.376C197.032 219.914 196.606 220.34 196.068 220.34C195.53 220.34 195.104 219.914 195.104 219.376C195.104 218.838 195.53 218.412 196.068 218.412C196.606 218.412 197.032 218.838 197.032 219.376Z" fill="white"/>
<path d="M255.103 130.812C255.103 131.35 254.677 131.776 254.139 131.776C253.601 131.776 253.175 131.35 253.175 130.812C253.175 130.274 253.601 129.848 254.139 129.848C254.677 129.848 255.103 130.274 255.103 130.812Z" fill="white"/>
<path d="M214.206 103.165C214.206 103.703 213.78 104.129 213.241 104.129C212.703 104.129 212.277 103.703 212.277 103.165C212.277 102.627 212.703 102.201 213.241 102.201C213.78 102.179 214.206 102.627 214.206 103.165Z" fill="white"/>
<path d="M270.238 111.372C270.238 111.91 269.812 112.336 269.274 112.336C268.736 112.336 268.31 111.91 268.31 111.372C268.31 110.834 268.736 110.408 269.274 110.408C269.812 110.386 270.238 110.834 270.238 111.372Z" fill="white"/>
<path d="M325.551 76.843C325.551 77.3811 325.125 77.8072 324.587 77.8072C324.049 77.8072 323.623 77.3811 323.623 76.843C323.623 76.3049 324.049 75.8789 324.587 75.8789C325.125 75.8789 325.551 76.3049 325.551 76.843Z" fill="white"/>
<path d="M298.22 72.022C298.752 72.022 299.184 71.5904 299.184 71.0579C299.184 70.5254 298.752 70.0938 298.22 70.0938C297.688 70.0938 297.256 70.5254 297.256 71.0579C297.256 71.5904 297.688 72.022 298.22 72.022Z" fill="white"/>
<path d="M434.407 47.4026C434.407 47.9407 433.981 48.3667 433.443 48.3667C432.904 48.3667 432.479 47.9407 432.479 47.4026C432.479 46.8645 432.904 46.4385 433.443 46.4385C433.958 46.4385 434.407 46.8645 434.407 47.4026Z" fill="white"/>
<path d="M234.385 118.502C234.385 119.04 233.959 119.466 233.421 119.466C232.883 119.466 232.457 119.04 232.457 118.502C232.457 117.964 232.883 117.538 233.421 117.538C233.959 117.538 234.385 117.964 234.385 118.502Z" fill="white"/>
<path d="M223.534 171.798C223.534 172.336 223.108 172.762 222.57 172.762C222.031 172.762 221.605 172.336 221.605 171.798C221.605 171.26 222.031 170.834 222.57 170.834C223.108 170.834 223.534 171.26 223.534 171.798Z" fill="white"/>
<path d="M196.067 167.65C196.067 168.188 195.641 168.614 195.103 168.614C194.565 168.614 194.139 168.188 194.139 167.65C194.139 167.112 194.565 166.686 195.103 166.686C195.641 166.686 196.067 167.112 196.067 167.65Z" fill="white"/>
<path d="M159.452 127.515C159.452 128.053 159.026 128.479 158.488 128.479C157.949 128.479 157.523 128.053 157.523 127.515C157.523 126.977 157.949 126.551 158.488 126.551C159.026 126.528 159.452 126.977 159.452 127.515Z" fill="white"/>
<path d="M313.645 157.583C313.645 158.121 313.219 158.547 312.681 158.547C312.143 158.547 311.717 158.121 311.717 157.583C311.717 157.045 312.143 156.619 312.681 156.619C313.219 156.619 313.645 157.045 313.645 157.583Z" fill="white"/>
<path d="M281.651 145.968C281.651 146.506 281.225 146.932 280.687 146.932C280.149 146.932 279.723 146.506 279.723 145.968C279.723 145.429 280.149 145.003 280.687 145.003C281.225 145.003 281.651 145.452 281.651 145.968Z" fill="white"/>
<path d="M317.39 145.004C317.39 145.542 316.964 145.968 316.426 145.968C315.888 145.968 315.462 145.542 315.462 145.004C315.462 144.466 315.888 144.04 316.426 144.04C316.964 144.04 317.39 144.466 317.39 145.004Z" fill="white"/>
<path d="M244.027 192.695C244.027 193.233 243.601 193.659 243.063 193.659C242.525 193.659 242.099 193.233 242.099 192.695C242.099 192.157 242.525 191.731 243.063 191.731C243.601 191.708 244.027 192.157 244.027 192.695Z" fill="white"/>
<path d="M243.063 154.017C243.063 154.555 242.637 154.981 242.099 154.981C241.561 154.981 241.135 154.555 241.135 154.017C241.135 153.479 241.561 153.053 242.099 153.053C242.637 153.053 243.063 153.479 243.063 154.017Z" fill="white"/>
<path d="M273.467 235.116C273.467 235.655 273.041 236.081 272.503 236.081C271.965 236.081 271.539 235.655 271.539 235.116C271.539 234.578 271.965 234.152 272.503 234.152C273.041 234.152 273.467 234.578 273.467 235.116Z" fill="white"/>
<path d="M365.53 220.341C365.53 220.879 365.104 221.305 364.566 221.305C364.028 221.305 363.602 220.879 363.602 220.341C363.602 219.802 364.028 219.376 364.566 219.376C365.104 219.376 365.53 219.802 365.53 220.341Z" fill="white"/>
<path d="M292.345 178.636C292.345 179.174 291.919 179.6 291.381 179.6C290.843 179.6 290.417 179.174 290.417 178.636C290.417 178.098 290.843 177.672 291.381 177.672C291.919 177.65 292.345 178.098 292.345 178.636Z" fill="white"/>
<path d="M343.669 149.377C343.669 149.915 343.243 150.341 342.705 150.341C342.167 150.341 341.741 149.915 341.741 149.377C341.741 148.839 342.167 148.413 342.705 148.413C343.243 148.413 343.669 148.839 343.669 149.377Z" fill="white"/>
<path d="M344.655 96.1471C344.655 96.6852 344.229 97.1112 343.691 97.1112C343.153 97.1112 342.727 96.6852 342.727 96.1471C342.727 95.609 343.153 95.1829 343.691 95.1829C344.206 95.1605 344.655 95.609 344.655 96.1471Z" fill="white"/>
<path d="M299.745 227.269C299.745 227.807 299.319 228.233 298.781 228.233C298.242 228.233 297.816 227.807 297.816 227.269C297.816 226.731 298.242 226.305 298.781 226.305C299.296 226.283 299.745 226.731 299.745 227.269Z" fill="white"/>
<path d="M323.624 234.153C323.624 234.691 323.198 235.117 322.659 235.117C322.121 235.117 321.695 234.691 321.695 234.153C321.695 233.614 322.121 233.188 322.659 233.188C323.175 233.188 323.624 233.614 323.624 234.153Z" fill="white"/>
<path d="M297.771 208.748C297.771 209.286 297.345 209.712 296.807 209.712C296.269 209.712 295.843 209.286 295.843 208.748C295.843 208.21 296.269 207.784 296.807 207.784C297.345 207.762 297.771 208.21 297.771 208.748Z" fill="white"/>
<path d="M355.574 201.26C355.574 201.798 355.148 202.224 354.61 202.224C354.072 202.224 353.646 201.798 353.646 201.26C353.646 200.722 354.072 200.296 354.61 200.296C355.148 200.296 355.574 200.722 355.574 201.26Z" fill="white"/>
<path d="M397.032 130.229C397.565 130.229 397.997 129.797 397.997 129.264C397.997 128.732 397.565 128.3 397.032 128.3C396.5 128.3 396.068 128.732 396.068 129.264C396.068 129.797 396.5 130.229 397.032 130.229Z" fill="white"/>
<path d="M373.87 246.843C373.87 247.381 373.444 247.807 372.905 247.807C372.367 247.807 371.941 247.381 371.941 246.843C371.941 246.305 372.367 245.879 372.905 245.879C373.444 245.879 373.87 246.305 373.87 246.843Z" fill="white"/>
<path d="M359.835 169.399C359.835 169.937 359.409 170.363 358.87 170.363C358.332 170.363 357.906 169.937 357.906 169.399C357.906 168.861 358.332 168.435 358.87 168.435C359.409 168.435 359.835 168.884 359.835 169.399Z" fill="white"/>
<path d="M298.757 122.358C298.757 122.896 298.331 123.322 297.793 123.322C297.255 123.322 296.829 122.896 296.829 122.358C296.829 121.82 297.255 121.394 297.793 121.394C298.331 121.394 298.757 121.82 298.757 122.358Z" fill="white"/>
<path d="M135.505 181.058C135.505 181.596 135.079 182.022 134.541 182.022C134.003 182.022 133.577 181.596 133.577 181.058C133.577 180.52 134.003 180.094 134.541 180.094C135.079 180.094 135.505 180.52 135.505 181.058Z" fill="white"/>
<path d="M50.4165 238.009C50.4165 238.547 49.9905 238.973 49.4524 238.973C48.9143 238.973 48.4883 238.547 48.4883 238.009C48.4883 237.47 48.9143 237.044 49.4524 237.044C49.9905 237.022 50.4165 237.47 50.4165 238.009Z" fill="white"/>
<path d="M38.8472 226.843C38.8472 227.381 38.4212 227.807 37.8831 227.807C37.3449 227.807 36.9189 227.381 36.9189 226.843C36.9189 226.305 37.3449 225.879 37.8831 225.879C38.4212 225.857 38.8472 226.305 38.8472 226.843Z" fill="white"/>
<path d="M15.6851 221.125C15.6851 221.663 15.2591 222.089 14.721 222.089C14.1829 222.089 13.7568 221.663 13.7568 221.125C13.7568 220.587 14.1829 220.161 14.721 220.161C15.2367 220.161 15.6851 220.587 15.6851 221.125Z" fill="white"/>
<path d="M29.8784 184.219C29.8784 184.757 29.4524 185.183 28.9143 185.183C28.3762 185.183 27.9502 184.757 27.9502 184.219C27.9502 183.681 28.3762 183.255 28.9143 183.255C29.4524 183.233 29.8784 183.681 29.8784 184.219Z" fill="white"/>
<path d="M213.243 135.228C213.243 136.057 212.57 136.73 211.741 136.73C210.911 136.73 210.238 136.057 210.238 135.228C210.238 134.398 210.911 133.726 211.741 133.726C212.57 133.726 213.243 134.398 213.243 135.228Z" fill="white"/>
<path d="M123.577 152.514C123.577 153.344 122.904 154.017 122.075 154.017C121.245 154.017 120.572 153.344 120.572 152.514C120.572 151.685 121.245 151.012 122.075 151.012C122.904 151.012 123.577 151.685 123.577 152.514Z" fill="white"/>
<path d="M136.672 253.547C136.672 254.13 136.425 254.601 135.596 254.601C134.766 254.601 134.542 254.13 134.542 253.547C134.542 252.965 134.766 252.494 135.596 252.494C136.425 252.494 136.672 252.965 136.672 253.547Z" fill="white"/>
<path d="M91.9416 236.17C91.9416 236.753 91.6949 237.224 90.8653 237.224C90.0357 237.224 89.8115 236.753 89.8115 236.17C89.8115 235.587 90.0357 235.116 90.8653 235.116C91.6949 235.116 91.9416 235.587 91.9416 236.17Z" fill="white"/>
<path d="M96.9409 257.202C96.3804 257.359 95.8647 257.247 95.6405 256.44C95.4163 255.633 95.7974 255.296 96.358 255.139C96.9185 254.982 97.4342 255.072 97.6584 255.879C97.8826 256.664 97.5015 257.023 96.9409 257.202Z" fill="white"/>
<path d="M197.144 244.892C197.144 245.475 196.897 245.946 196.067 245.946C195.238 245.946 195.014 245.475 195.014 244.892C195.014 244.309 195.238 243.838 196.067 243.838C196.897 243.838 197.144 244.309 197.144 244.892Z" fill="white"/>
<path d="M431.829 255.072C431.829 255.655 431.583 256.126 430.753 256.126C429.923 256.126 429.699 255.655 429.699 255.072C429.699 254.489 429.923 254.018 430.753 254.018C431.583 254.018 431.829 254.489 431.829 255.072Z" fill="white"/>
<path d="M331.495 258.502C331.495 259.085 331.249 259.556 330.419 259.556C329.589 259.556 329.365 259.085 329.365 258.502C329.365 257.919 329.589 257.448 330.419 257.448C331.249 257.471 331.495 257.919 331.495 258.502Z" fill="white"/>
<path d="M241.74 260.901C240.843 261.125 240.013 260.901 239.699 259.601C239.385 258.3 240.036 257.762 240.932 257.538C241.829 257.314 242.659 257.516 242.973 258.816C243.287 260.139 242.636 260.699 241.74 260.901Z" fill="white"/>
<path d="M286.359 244.826C285.462 245.05 284.632 244.826 284.318 243.525C284.004 242.225 284.655 241.687 285.552 241.462C286.448 241.238 287.278 241.44 287.592 242.74C287.906 244.041 287.278 244.601 286.359 244.826Z" fill="white"/>
<path d="M300.327 95.0936C299.431 95.3178 298.601 95.0936 298.287 93.7932C297.973 92.4927 298.623 91.9546 299.52 91.7304C300.417 91.5061 301.247 91.7079 301.561 93.0084C301.875 94.3089 301.247 94.8918 300.327 95.0936Z" fill="white"/>
<path d="M302.055 249.915C301.158 250.139 300.329 249.915 300.015 248.614C299.701 247.314 300.351 246.776 301.248 246.552C302.145 246.327 302.974 246.529 303.288 247.83C303.602 249.13 302.952 249.691 302.055 249.915Z" fill="white"/>
<path d="M334.834 117.448C333.937 117.672 333.108 117.448 332.794 116.147C332.48 114.847 333.13 114.309 334.027 114.084C334.924 113.86 335.754 114.062 336.068 115.362C336.381 116.685 335.754 117.246 334.834 117.448Z" fill="white"/>
<path d="M403.288 227.358C402.392 227.582 401.562 227.358 401.248 226.058C400.934 224.757 401.584 224.219 402.481 223.995C403.378 223.771 404.208 223.973 404.522 225.273C404.835 226.573 404.185 227.134 403.288 227.358Z" fill="white"/>
<path d="M425.126 82.7166C424.229 82.9409 423.4 82.7166 423.086 81.4162C422.772 80.1157 423.422 79.5776 424.319 79.3534C425.216 79.1292 426.046 79.331 426.359 80.6314C426.673 81.9319 426.023 82.4924 425.126 82.7166Z" fill="white"/>
<path d="M415.171 211.035C414.274 211.26 413.445 211.036 413.131 209.735C412.817 208.435 413.467 207.896 414.364 207.672C415.261 207.448 416.09 207.65 416.404 208.95C416.718 210.251 416.068 210.811 415.171 211.035Z" fill="white"/>
<path d="M421.943 239.467C421.046 239.691 420.216 239.467 419.902 238.166C419.588 236.866 420.239 236.328 421.136 236.103C422.032 235.879 422.862 236.081 423.176 237.381C423.467 238.682 422.84 239.242 421.943 239.467Z" fill="white"/>
<path d="M157.929 183.703C157.032 183.928 156.203 183.703 155.889 182.403C155.575 181.103 156.225 180.564 157.122 180.34C158.019 180.116 158.848 180.318 159.162 181.618C159.454 182.919 158.826 183.479 157.929 183.703Z" fill="white"/>
<path d="M167.725 225.296C166.828 225.52 165.998 225.296 165.685 223.996C165.371 222.695 166.021 222.157 166.918 221.933C167.815 221.709 168.644 221.911 168.958 223.211C169.272 224.511 168.622 225.072 167.725 225.296Z" fill="white"/>
<path d="M336.562 188.615C335.665 188.839 334.835 188.615 334.521 187.314C334.208 186.014 334.858 185.476 335.755 185.251C336.652 185.027 337.481 185.229 337.795 186.529C338.109 187.83 337.459 188.39 336.562 188.615Z" fill="white"/>
<path d="M222.008 231.618C221.111 231.843 220.282 231.618 219.968 230.318C219.654 229.018 220.304 228.479 221.201 228.255C222.098 228.031 222.927 228.233 223.241 229.533C223.555 230.834 222.905 231.417 222.008 231.618Z" fill="white"/>
<path d="M267.792 149.442C266.895 149.666 266.066 149.442 265.752 148.142C265.438 146.841 266.088 146.303 266.985 146.079C267.882 145.855 268.712 146.057 269.025 147.357C269.339 148.657 268.712 149.24 267.792 149.442Z" fill="white"/>
<path d="M257.12 217.442C256.224 217.666 255.394 217.442 255.08 216.142C254.766 214.841 255.416 214.303 256.313 214.079C257.21 213.855 258.04 214.057 258.354 215.357C258.668 216.657 258.04 217.24 257.12 217.442Z" fill="white"/>
<path d="M185.351 130.923C184.454 131.147 183.624 130.923 183.311 129.623C182.997 128.322 183.647 127.784 184.544 127.56C185.441 127.336 186.27 127.538 186.584 128.838C186.898 130.161 186.27 130.721 185.351 130.923Z" fill="white"/>
<path d="M431.381 121.103C429.968 121.439 428.69 121.103 428.197 119.085C427.704 117.067 428.713 116.215 430.125 115.878C431.538 115.542 432.816 115.834 433.287 117.852C433.78 119.892 432.794 120.766 431.381 121.103Z" fill="white"/>
<path d="M141.332 143.069L139.445 131L145.465 140.314L154.03 136.989L149.238 143.638H157.174L150.765 146.722L157.384 152.772L146.902 150.675L143.907 158.432L142.11 150.556L133.635 153.64L140.224 146.363L131 142.32L141.332 143.069Z" fill="white"/>
<path d="M251.838 161.636L257.738 152.802L256.061 162.295L263.488 165.23L256.51 166.637L261.571 171.309L255.672 169.512L256.301 177.299L250.88 169.752L244.381 172.926L247.885 166.847L240.668 163.822L249.173 163.044L245.699 155.048L251.838 161.636Z" fill="white"/>
<path d="M301.935 186.373L307.865 177.569L306.188 187.032L313.615 189.967L306.637 191.375L311.698 196.046L305.799 194.249L306.427 202.036L301.007 194.489L294.508 197.663L298.012 191.584L290.795 188.559L299.3 187.781L295.826 179.785L301.935 186.373Z" fill="white"/>
<path d="M318.321 213.954L324.221 205.149L322.574 214.643L330.001 217.578L322.993 218.985L328.054 223.657L322.154 221.86L322.813 229.616L317.363 222.07L310.894 225.274L314.398 219.195L307.181 216.14L315.656 215.391L312.182 207.366L318.321 213.954Z" fill="white"/>
<path d="M253.357 165.242L253.83 164.361L253.691 164.286L253.535 164.258L253.357 165.242ZM302.665 191.722L303.506 191.18L303.366 190.963L303.139 190.841L302.665 191.722ZM147.295 147.139C147.838 147.237 148.358 146.876 148.456 146.333C148.554 145.789 148.193 145.269 147.649 145.171L147.295 147.139ZM152.574 146.059C152.031 145.961 151.511 146.322 151.413 146.866C151.315 147.409 151.676 147.929 152.219 148.027L152.574 146.059ZM153.204 148.205C153.748 148.303 154.268 147.941 154.366 147.398C154.464 146.854 154.103 146.334 153.559 146.236L153.204 148.205ZM158.484 147.124C157.941 147.026 157.421 147.387 157.323 147.931C157.225 148.474 157.586 148.994 158.129 149.092L158.484 147.124ZM159.114 149.27C159.658 149.368 160.178 149.007 160.276 148.463C160.374 147.92 160.013 147.4 159.469 147.302L159.114 149.27ZM164.394 148.189C163.851 148.091 163.33 148.453 163.232 148.996C163.135 149.54 163.496 150.06 164.039 150.158L164.394 148.189ZM165.024 150.335C165.568 150.433 166.088 150.072 166.186 149.528C166.284 148.985 165.923 148.465 165.379 148.367L165.024 150.335ZM170.304 149.255C169.76 149.157 169.24 149.518 169.142 150.061C169.044 150.605 169.406 151.125 169.949 151.223L170.304 149.255ZM170.934 151.401C171.478 151.498 171.998 151.137 172.096 150.594C172.194 150.05 171.832 149.53 171.289 149.432L170.934 151.401ZM176.214 150.32C175.67 150.222 175.15 150.583 175.052 151.127C174.954 151.67 175.315 152.19 175.859 152.288L176.214 150.32ZM176.844 152.466C177.387 152.564 177.908 152.203 178.005 151.659C178.103 151.116 177.742 150.596 177.199 150.498L176.844 152.466ZM182.124 151.385C181.58 151.287 181.06 151.649 180.962 152.192C180.864 152.736 181.225 153.256 181.769 153.354L182.124 151.385ZM182.754 153.531C183.297 153.629 183.817 153.268 183.915 152.724C184.013 152.181 183.652 151.661 183.109 151.563L182.754 153.531ZM188.034 152.451C187.49 152.353 186.97 152.714 186.872 153.257C186.774 153.801 187.135 154.321 187.679 154.419L188.034 152.451ZM188.664 154.596C189.207 154.694 189.727 154.333 189.825 153.79C189.923 153.246 189.562 152.726 189.019 152.628L188.664 154.596ZM193.943 153.516C193.4 153.418 192.88 153.779 192.782 154.323C192.684 154.866 193.045 155.386 193.589 155.484L193.943 153.516ZM194.574 155.662C195.117 155.76 195.637 155.399 195.735 154.855C195.833 154.311 195.472 153.791 194.928 153.693L194.574 155.662ZM199.853 154.581C199.31 154.483 198.79 154.844 198.692 155.388C198.594 155.931 198.955 156.451 199.498 156.549L199.853 154.581ZM200.483 156.727C201.027 156.825 201.547 156.464 201.645 155.92C201.743 155.377 201.382 154.857 200.838 154.759L200.483 156.727ZM205.763 155.646C205.22 155.549 204.7 155.91 204.602 156.453C204.504 156.997 204.865 157.517 205.408 157.615L205.763 155.646ZM206.393 157.792C206.937 157.89 207.457 157.529 207.555 156.986C207.653 156.442 207.292 155.922 206.748 155.824L206.393 157.792ZM211.673 156.712C211.13 156.614 210.609 156.975 210.512 157.519C210.414 158.062 210.775 158.582 211.318 158.68L211.673 156.712ZM212.303 158.858C212.847 158.956 213.367 158.594 213.465 158.051C213.563 157.507 213.202 156.987 212.658 156.889L212.303 158.858ZM217.583 157.777C217.039 157.679 216.519 158.04 216.421 158.584C216.323 159.127 216.685 159.647 217.228 159.745L217.583 157.777ZM218.213 159.923C218.757 160.021 219.277 159.66 219.375 159.116C219.473 158.573 219.111 158.053 218.568 157.955L218.213 159.923ZM223.493 158.842C222.949 158.744 222.429 159.106 222.331 159.649C222.233 160.193 222.594 160.713 223.138 160.811L223.493 158.842ZM224.123 160.988C224.667 161.086 225.187 160.725 225.285 160.181C225.382 159.638 225.021 159.118 224.478 159.02L224.123 160.988ZM229.403 159.908C228.859 159.81 228.339 160.171 228.241 160.714C228.143 161.258 228.504 161.778 229.048 161.876L229.403 159.908ZM230.033 162.054C230.576 162.151 231.096 161.79 231.194 161.247C231.292 160.703 230.931 160.183 230.388 160.085L230.033 162.054ZM235.313 160.973C234.769 160.875 234.249 161.236 234.151 161.78C234.053 162.323 234.414 162.843 234.958 162.941L235.313 160.973ZM235.943 163.119C236.486 163.217 237.006 162.856 237.104 162.312C237.202 161.769 236.841 161.249 236.298 161.151L235.943 163.119ZM241.222 162.038C240.679 161.94 240.159 162.302 240.061 162.845C239.963 163.389 240.324 163.909 240.868 164.007L241.222 162.038ZM241.853 164.184C242.396 164.282 242.916 163.921 243.014 163.377C243.112 162.834 242.751 162.314 242.207 162.216L241.853 164.184ZM247.132 163.104C246.589 163.006 246.069 163.367 245.971 163.91C245.873 164.454 246.234 164.974 246.778 165.072L247.132 163.104ZM247.763 165.249C248.306 165.347 248.826 164.986 248.924 164.443C249.022 163.899 248.661 163.379 248.117 163.281L247.763 165.249ZM253.042 164.169C252.499 164.071 251.979 164.432 251.881 164.976C251.783 165.519 252.144 166.039 252.687 166.137L253.042 164.169ZM253.341 166.368C253.827 166.629 254.434 166.447 254.695 165.96C254.956 165.474 254.773 164.867 254.287 164.606L253.341 166.368ZM258.853 167.058C258.366 166.797 257.76 166.979 257.498 167.466C257.237 167.952 257.42 168.559 257.906 168.82L258.853 167.058ZM258.819 169.31C259.306 169.572 259.912 169.389 260.173 168.902C260.435 168.416 260.252 167.81 259.766 167.548L258.819 169.31ZM264.331 170C263.845 169.739 263.238 169.921 262.977 170.408C262.716 170.895 262.898 171.501 263.385 171.762L264.331 170ZM264.298 172.252C264.785 172.514 265.391 172.331 265.652 171.845C265.913 171.358 265.731 170.752 265.244 170.491L264.298 172.252ZM269.81 172.942C269.323 172.681 268.717 172.864 268.456 173.35C268.194 173.837 268.377 174.443 268.864 174.704L269.81 172.942ZM269.777 175.195C270.263 175.456 270.87 175.273 271.131 174.787C271.392 174.3 271.21 173.694 270.723 173.433L269.777 175.195ZM275.289 175.885C274.802 175.623 274.196 175.806 273.934 176.293C273.673 176.779 273.856 177.385 274.342 177.647L275.289 175.885ZM275.255 178.137C275.742 178.398 276.348 178.216 276.61 177.729C276.871 177.243 276.688 176.636 276.202 176.375L275.255 178.137ZM280.767 178.827C280.281 178.566 279.674 178.748 279.413 179.235C279.152 179.721 279.334 180.328 279.821 180.589L280.767 178.827ZM280.734 181.079C281.221 181.341 281.827 181.158 282.088 180.671C282.35 180.185 282.167 179.579 281.68 179.317L280.734 181.079ZM286.246 181.769C285.759 181.508 285.153 181.69 284.892 182.177C284.631 182.664 284.813 183.27 285.3 183.531L286.246 181.769ZM286.213 184.022C286.699 184.283 287.306 184.1 287.567 183.614C287.828 183.127 287.646 182.521 287.159 182.26L286.213 184.022ZM291.725 184.711C291.238 184.45 290.632 184.633 290.37 185.119C290.109 185.606 290.292 186.212 290.778 186.473L291.725 184.711ZM291.691 186.964C292.178 187.225 292.784 187.042 293.046 186.556C293.307 186.069 293.124 185.463 292.638 185.202L291.691 186.964ZM297.203 187.654C296.717 187.392 296.11 187.575 295.849 188.062C295.588 188.548 295.77 189.154 296.257 189.416L297.203 187.654ZM297.17 189.906C297.657 190.167 298.263 189.985 298.524 189.498C298.786 189.012 298.603 188.405 298.116 188.144L297.17 189.906ZM302.682 190.596C302.195 190.335 301.589 190.517 301.328 191.004C301.067 191.49 301.249 192.097 301.736 192.358L302.682 190.596ZM302.079 192.657C302.378 193.121 302.997 193.255 303.461 192.956C303.925 192.656 304.059 192.037 303.759 191.573L302.079 192.657ZM306.296 195.505C305.996 195.04 305.377 194.907 304.913 195.206C304.449 195.506 304.316 196.125 304.615 196.589L306.296 195.505ZM305.122 197.375C305.422 197.839 306.041 197.973 306.505 197.673C306.969 197.374 307.102 196.755 306.803 196.291L305.122 197.375ZM309.339 200.222C309.04 199.758 308.421 199.625 307.957 199.924C307.493 200.224 307.359 200.843 307.659 201.307L309.339 200.222ZM308.166 202.093C308.466 202.557 309.085 202.69 309.549 202.391C310.013 202.092 310.146 201.473 309.847 201.009L308.166 202.093ZM312.383 204.94C312.084 204.476 311.465 204.343 311.001 204.642C310.537 204.941 310.403 205.56 310.703 206.024L312.383 204.94ZM311.21 206.811C311.509 207.275 312.128 207.408 312.592 207.109C313.056 206.809 313.19 206.19 312.89 205.726L311.21 206.811ZM315.427 209.658C315.128 209.194 314.509 209.06 314.044 209.36C313.58 209.659 313.447 210.278 313.746 210.742L315.427 209.658ZM314.254 211.528C314.553 211.992 315.172 212.126 315.636 211.827C316.1 211.527 316.234 210.908 315.934 210.444L314.254 211.528ZM318.471 214.376C318.171 213.912 317.552 213.778 317.088 214.077C316.624 214.377 316.491 214.996 316.79 215.46L318.471 214.376ZM317.297 216.246C317.597 216.71 318.216 216.844 318.68 216.544C319.144 216.245 319.277 215.626 318.978 215.162L317.297 216.246ZM321.514 219.093C321.215 218.629 320.596 218.496 320.132 218.795C319.668 219.095 319.534 219.714 319.834 220.178L321.514 219.093ZM146.802 147.051L147.295 147.139L147.649 145.171L147.157 145.082L146.802 147.051ZM152.219 148.027L153.204 148.205L153.559 146.236L152.574 146.059L152.219 148.027ZM158.129 149.092L159.114 149.27L159.469 147.302L158.484 147.124L158.129 149.092ZM164.039 150.158L165.024 150.335L165.379 148.367L164.394 148.189L164.039 150.158ZM169.949 151.223L170.934 151.401L171.289 149.432L170.304 149.255L169.949 151.223ZM175.859 152.288L176.844 152.466L177.199 150.498L176.214 150.32L175.859 152.288ZM181.769 153.354L182.754 153.531L183.109 151.563L182.124 151.385L181.769 153.354ZM187.679 154.419L188.664 154.596L189.019 152.628L188.034 152.451L187.679 154.419ZM193.589 155.484L194.574 155.662L194.928 153.693L193.943 153.516L193.589 155.484ZM199.498 156.549L200.483 156.727L200.838 154.759L199.853 154.581L199.498 156.549ZM205.408 157.615L206.393 157.792L206.748 155.824L205.763 155.646L205.408 157.615ZM211.318 158.68L212.303 158.858L212.658 156.889L211.673 156.712L211.318 158.68ZM217.228 159.745L218.213 159.923L218.568 157.955L217.583 157.777L217.228 159.745ZM223.138 160.811L224.123 160.988L224.478 159.02L223.493 158.842L223.138 160.811ZM229.048 161.876L230.033 162.054L230.388 160.085L229.403 159.908L229.048 161.876ZM234.958 162.941L235.943 163.119L236.298 161.151L235.313 160.973L234.958 162.941ZM240.868 164.007L241.853 164.184L242.207 162.216L241.222 162.038L240.868 164.007ZM246.778 165.072L247.763 165.249L248.117 163.281L247.132 163.104L246.778 165.072ZM252.687 166.137L253.18 166.226L253.535 164.258L253.042 164.169L252.687 166.137ZM252.884 166.123L253.341 166.368L254.287 164.606L253.83 164.361L252.884 166.123ZM257.906 168.82L258.819 169.31L259.766 167.548L258.853 167.058L257.906 168.82ZM263.385 171.762L264.298 172.252L265.244 170.491L264.331 170L263.385 171.762ZM268.864 174.704L269.777 175.195L270.723 173.433L269.81 172.942L268.864 174.704ZM274.342 177.647L275.255 178.137L276.202 176.375L275.289 175.885L274.342 177.647ZM279.821 180.589L280.734 181.079L281.68 179.317L280.767 178.827L279.821 180.589ZM285.3 183.531L286.213 184.022L287.159 182.26L286.246 181.769L285.3 183.531ZM290.778 186.473L291.691 186.964L292.638 185.202L291.725 184.711L290.778 186.473ZM296.257 189.416L297.17 189.906L298.116 188.144L297.203 187.654L296.257 189.416ZM301.736 192.358L302.192 192.603L303.139 190.841L302.682 190.596L301.736 192.358ZM301.825 192.264L302.079 192.657L303.759 191.573L303.506 191.18L301.825 192.264ZM304.615 196.589L305.122 197.375L306.803 196.291L306.296 195.505L304.615 196.589ZM307.659 201.307L308.166 202.093L309.847 201.009L309.339 200.222L307.659 201.307ZM310.703 206.024L311.21 206.811L312.89 205.726L312.383 204.94L310.703 206.024ZM313.746 210.742L314.254 211.528L315.934 210.444L315.427 209.658L313.746 210.742ZM316.79 215.46L317.297 216.246L318.978 215.162L318.471 214.376L316.79 215.46ZM319.834 220.178L320.087 220.571L321.768 219.487L321.514 219.093L319.834 220.178Z" fill="white"/>
</svg>
