<svg width="294" height="13" viewBox="0 0 294 13" fill="none" xmlns="http://www.w3.org/2000/svg">
<rect x="21.9996" y="6" width="250" height="1" fill="white"/>
<path d="M287.501 12C286.778 12 286.063 11.858 285.396 11.582C284.728 11.306 284.122 10.9015 283.611 10.3915C283.1 9.88157 282.695 9.27617 282.419 8.60989C282.142 7.94361 282 7.22949 282 6.50831C282 5.78713 282.142 5.07301 282.419 4.40673C282.695 3.74044 283.1 3.13504 283.611 2.62509C284.122 2.11514 284.728 1.71062 285.396 1.43464C286.063 1.15866 286.778 1.01661 287.501 1.01661C288.223 1.01661 288.938 1.15866 289.606 1.43464C290.273 1.71063 290.88 2.11514 291.39 2.62509C291.901 3.13504 292.306 3.74045 292.583 4.40673C292.859 5.07301 293.002 5.78713 293.002 6.50831C293.002 7.22949 292.859 7.94361 292.583 8.60989C292.306 9.27617 291.901 9.88157 291.39 10.3915C290.88 10.9015 290.273 11.306 289.606 11.582C288.938 11.858 288.223 12 287.501 12V12Z" stroke="white" stroke-linecap="round" stroke-linejoin="round"/>
<path d="M6.50082 11.9834C5.77844 11.9834 5.06314 11.8414 4.39575 11.5654C3.72836 11.2894 3.12196 10.8849 2.61116 10.3749C2.10037 9.86497 1.69518 9.25957 1.41874 8.59329C1.1423 7.927 1.00001 7.21289 1.00001 6.49171C1.00001 5.77053 1.1423 5.05641 1.41874 4.39013C1.69518 3.72384 2.10037 3.11844 2.61116 2.60849C3.12196 2.09854 3.72836 1.69402 4.39575 1.41804C5.06314 1.14206 5.77844 1.00001 6.50082 1.00001C7.22319 1.00001 7.93849 1.14206 8.60588 1.41804C9.27327 1.69402 9.87967 2.09854 10.3905 2.60849C10.9013 3.11844 11.3065 3.72384 11.5829 4.39013C11.8593 5.05641 12.0016 5.77053 12.0016 6.49171C12.0016 7.21289 11.8593 7.927 11.5829 8.59329C11.3065 9.25957 10.9013 9.86497 10.3905 10.3749C9.87967 10.8849 9.27327 11.2894 8.60588 11.5654C7.93849 11.8414 7.22319 11.9834 6.50082 11.9834V11.9834Z" stroke="white" stroke-linecap="round" stroke-linejoin="round"/>
<path d="M287.499 9C286.916 9 286.357 8.76874 285.944 8.35711C285.532 7.94548 285.301 7.38719 285.301 6.80505C285.301 6.22291 285.532 5.66461 285.944 5.25298C286.357 4.84135 286.916 4.61009 287.499 4.61009C288.081 4.61237 288.638 4.84463 289.048 5.25602C289.459 5.6674 289.689 6.2244 289.689 6.80505C289.689 7.3857 289.459 7.94269 289.048 8.35408C288.638 8.76546 288.081 8.99772 287.499 9Z" stroke="white" stroke-linecap="round" stroke-linejoin="round"/>
<path d="M6.49914 9C5.91604 9 5.35682 8.76874 4.9445 8.35711C4.53218 7.94548 4.30055 7.38719 4.30055 6.80505C4.30055 6.22291 4.53218 5.66461 4.9445 5.25298C5.35682 4.84135 5.91604 4.61009 6.49914 4.61009C7.08075 4.61237 7.63776 4.84463 8.04821 5.25602C8.45867 5.6674 8.68912 6.2244 8.68912 6.80505C8.68912 7.3857 8.45867 7.94269 8.04821 8.35408C7.63776 8.76546 7.08075 8.99772 6.49914 9Z" stroke="white" stroke-linecap="round" stroke-linejoin="round"/>
</svg>
