<svg width="745" height="13" viewBox="0 0 745 13" fill="none" xmlns="http://www.w3.org/2000/svg">
<rect x="22" y="6" width="700" height="2" fill="white"/>
<path d="M737.501 12C736.779 12 736.063 11.858 735.396 11.582C734.729 11.306 734.122 10.9015 733.611 10.3915C733.101 9.88157 732.696 9.27617 732.419 8.60989C732.143 7.94361 732 7.22949 732 6.50831C732 5.78713 732.143 5.07301 732.419 4.40673C732.696 3.74044 733.101 3.13504 733.611 2.62509C734.122 2.11514 734.729 1.71062 735.396 1.43464C736.063 1.15866 736.779 1.01661 737.501 1.01661C738.224 1.01661 738.939 1.15866 739.606 1.43464C740.274 1.71063 740.88 2.11514 741.391 2.62509C741.902 3.13504 742.307 3.74045 742.583 4.40673C742.86 5.07301 743.002 5.78713 743.002 6.50831C743.002 7.22949 742.86 7.94361 742.583 8.60989C742.307 9.27617 741.902 9.88157 741.391 10.3915C740.88 10.9015 740.274 11.306 739.606 11.582C738.939 11.858 738.224 12 737.501 12V12Z" stroke="white" stroke-width="2" stroke-linecap="round" stroke-linejoin="round"/>
<path d="M737.499 9C736.916 9 736.357 8.76874 735.945 8.35711C735.533 7.94548 735.301 7.38719 735.301 6.80505C735.301 6.22291 735.533 5.66461 735.945 5.25298C736.357 4.84135 736.916 4.61009 737.499 4.61009C738.081 4.61237 738.638 4.84463 739.049 5.25602C739.459 5.6674 739.689 6.2244 739.689 6.80505C739.689 7.3857 739.459 7.94269 739.049 8.35408C738.638 8.76546 738.081 8.99772 737.499 9Z" stroke="white" stroke-width="2" stroke-linecap="round" stroke-linejoin="round"/>
<path d="M6.50213 11.9834C5.77975 11.9834 5.06445 11.8414 4.39706 11.5654C3.72967 11.2894 3.12327 10.8849 2.61247 10.3749C2.10168 9.86497 1.69649 9.25957 1.42005 8.59329C1.14361 7.927 1.00133 7.21289 1.00133 6.49171C1.00133 5.77053 1.14361 5.05641 1.42005 4.39013C1.69649 3.72384 2.10168 3.11844 2.61247 2.60849C3.12327 2.09854 3.72967 1.69402 4.39706 1.41804C5.06445 1.14206 5.77975 1.00001 6.50213 1.00001C7.2245 1.00001 7.93981 1.14206 8.60719 1.41804C9.27458 1.69402 9.88099 2.09854 10.3918 2.60849C10.9026 3.11844 11.3078 3.72384 11.5842 4.39013C11.8606 5.05641 12.0029 5.77053 12.0029 6.49171C12.0029 7.21289 11.8606 7.927 11.5842 8.59329C11.3078 9.25957 10.9026 9.86497 10.3918 10.3749C9.88098 10.8849 9.27458 11.2894 8.60719 11.5654C7.93981 11.8414 7.2245 11.9834 6.50213 11.9834V11.9834Z" stroke="white" stroke-width="2" stroke-linecap="round" stroke-linejoin="round"/>
<path d="M6.50046 9C5.91735 9 5.35813 8.76874 4.94581 8.35711C4.5335 7.94548 4.30186 7.38719 4.30186 6.80505C4.30186 6.22291 4.5335 5.66461 4.94581 5.25298C5.35813 4.84135 5.91735 4.61009 6.50046 4.61009C7.08206 4.61237 7.63907 4.84463 8.04953 5.25602C8.45998 5.6674 8.69043 6.2244 8.69043 6.80505C8.69043 7.3857 8.45998 7.94269 8.04953 8.35408C7.63907 8.76546 7.08206 8.99772 6.50046 9Z" stroke="white" stroke-width="2" stroke-linecap="round" stroke-linejoin="round"/>
</svg>
