<svg width="39" height="39" viewBox="0 0 39 39" fill="none" xmlns="http://www.w3.org/2000/svg">
<path d="M5.40416 30.0724L6.29859 30.5196L6.57523 29.9663L6.20369 29.4717L5.40416 30.0724ZM8.92747 33.5957L9.5281 32.7961L9.03353 32.4246L8.48025 32.7012L8.92747 33.5957ZM1.88086 37.119L0.986432 36.6718C0.793938 37.0567 0.869392 37.5217 1.17375 37.8261C1.47811 38.1304 1.94308 38.2059 2.32807 38.0134L1.88086 37.119ZM12.4523 12.4523L11.8523 11.6523C11.6005 11.8412 11.4523 12.1376 11.4523 12.4523H12.4523ZM26.5475 26.5475V27.5475C26.8425 27.5475 27.1224 27.4173 27.3124 27.1917L26.5475 26.5475ZM13.5472 11.6311L12.9472 10.8311L12.9472 10.8311L13.5472 11.6311ZM16.3527 12.8221L15.3604 12.9461L15.3604 12.9461L16.3527 12.8221ZM16.7502 16.002L17.7424 15.878L17.7424 15.878L16.7502 16.002ZM16.2477 17.4664L15.5406 16.7593L15.5406 16.7593L16.2477 17.4664ZM27.3286 25.62L26.5637 24.9759L26.5637 24.9759L27.3286 25.62ZM26.236 22.7418L26.3808 21.7523L26.3808 21.7523L26.236 22.7418ZM23.0182 22.2709L23.163 21.2814L23.0182 22.2709ZM21.5172 22.7684L22.2243 23.4755L22.2243 23.4755L21.5172 22.7684ZM0.880881 19.4999C0.880881 23.6908 2.26669 27.5609 4.60464 30.673L6.20369 29.4717C4.117 26.6941 2.88088 23.2428 2.88088 19.4999H0.880881ZM19.4999 0.880859C9.21691 0.880859 0.880881 9.21689 0.880881 19.4999H2.88088C2.88088 10.3215 10.3215 2.88086 19.4999 2.88086V0.880859ZM38.119 19.4999C38.119 9.21689 29.7829 0.880859 19.4999 0.880859V2.88086C28.6784 2.88086 36.119 10.3215 36.119 19.4999H38.119ZM19.4999 38.119C29.7829 38.119 38.119 29.7829 38.119 19.4999H36.119C36.119 28.6784 28.6784 36.119 19.4999 36.119V38.119ZM8.32683 34.3952C11.439 36.7331 15.309 38.119 19.4999 38.119V36.119C15.757 36.119 12.3058 34.8828 9.5281 32.7961L8.32683 34.3952ZM2.32807 38.0134L9.37468 34.4901L8.48025 32.7012L1.43365 36.2245L2.32807 38.0134ZM4.50974 29.6251L0.986432 36.6718L2.77529 37.5662L6.29859 30.5196L4.50974 29.6251ZM11.4523 12.4523V14.2142H13.4523V12.4523H11.4523ZM24.7856 27.5475H26.5475V25.5475H24.7856V27.5475ZM11.4523 14.2142C11.4523 21.578 17.4218 27.5475 24.7856 27.5475V25.5475C18.5264 25.5475 13.4523 20.4734 13.4523 14.2142H11.4523ZM13.0523 13.2523L14.1472 12.4311L12.9472 10.8311L11.8523 11.6523L13.0523 13.2523ZM15.3604 12.9461L15.7579 16.126L17.7424 15.878L17.345 12.6981L15.3604 12.9461ZM15.5406 16.7593L13.5071 18.7928L14.9213 20.207L16.9548 18.1735L15.5406 16.7593ZM15.7579 16.126C15.7871 16.3593 15.7069 16.593 15.5406 16.7593L16.9548 18.1735C17.5575 17.5708 17.8482 16.7237 17.7424 15.878L15.7579 16.126ZM14.1472 12.4311C14.6152 12.0801 15.2878 12.3656 15.3604 12.9461L17.345 12.6981C17.0819 10.5938 14.6438 9.55871 12.9472 10.8311L14.1472 12.4311ZM27.3124 27.1917L28.0935 26.2642L26.5637 24.9759L25.7826 25.9034L27.3124 27.1917ZM26.3808 21.7523L23.163 21.2814L22.8734 23.2604L26.0912 23.7313L26.3808 21.7523ZM20.8101 22.0613L18.7928 24.0785L20.207 25.4928L22.2243 23.4755L20.8101 22.0613ZM23.163 21.2814C22.2995 21.1551 21.4271 21.4442 20.8101 22.0613L22.2243 23.4755C22.3945 23.3053 22.6352 23.2255 22.8734 23.2604L23.163 21.2814ZM28.0935 26.2642C29.4876 24.6087 28.5223 22.0657 26.3808 21.7523L26.0912 23.7313C26.682 23.8177 26.9483 24.5192 26.5637 24.9759L28.0935 26.2642Z" fill="white"/>
</svg>
