<svg width="12" height="12" viewBox="0 0 12 12" fill="none" xmlns="http://www.w3.org/2000/svg">
<g clip-path="url(#clip0)">
<path d="M9.375 0C7.9275 0 6.75 1.1775 6.75 2.625C6.75 3.972 8.856 6.35775 9.096 6.6255C9.16725 6.70425 9.2685 6.75 9.375 6.75C9.4815 6.75 9.58275 6.70425 9.654 6.6255C9.894 6.35775 12 3.972 12 2.625C12 1.1775 10.8225 0 9.375 0ZM9.375 3.75C8.754 3.75 8.25 3.246 8.25 2.625C8.25 2.004 8.754 1.5 9.375 1.5C9.996 1.5 10.5 2.004 10.5 2.625C10.5 3.246 9.996 3.75 9.375 3.75Z" fill="#EC3D3D"/>
<path d="M0.2355 4.4055C0.09375 4.4625 0 4.6005 0 4.75425V11.625C0 11.7495 0.06225 11.8657 0.165 11.9355C0.228 11.9775 0.30075 12 0.375 12C0.42225 12 0.4695 11.991 0.5145 11.973L3.75 10.6785V3L0.2355 4.4055Z" fill="#EC3D3D"/>
<path d="M10.212 7.1265C9.999 7.3635 9.69375 7.5 9.375 7.5C9.05625 7.5 8.751 7.3635 8.538 7.1265C8.4615 7.04175 8.36325 6.93 8.25 6.79725V12L11.7645 10.5945C11.907 10.5382 12 10.3995 12 10.2465V4.73325C11.3858 5.7735 10.5645 6.7335 10.212 7.1265Z" fill="#EC3D3D"/>
<path d="M6.23625 3.6945L4.5 3V10.6785L7.5 11.8785V5.856C7.02075 5.21025 6.5205 4.4325 6.23625 3.6945Z" fill="#EC3D3D"/>
</g>
<defs>
<clipPath id="clip0">
<rect width="12" height="12" fill="white"/>
</clipPath>
</defs>
</svg>
