<svg width="16" height="16" viewBox="0 0 16 16" fill="none" xmlns="http://www.w3.org/2000/svg">
<path d="M13.1758 3.63305V0.470703H2.82422V3.63305L0 4.33911V15.5293H16V4.33911L13.1758 3.63305ZM3.76172 1.4082H12.2383V3.39867L8 2.33911L3.76172 3.39867V1.4082ZM0.9375 5.07108L8 3.30545L15.0625 5.07108V12.709H14.1172V7.06045H1.88281V12.709H0.9375V5.07108ZM13.1797 8.94339H2.82031V7.99795H13.1797V8.94339ZM2.82031 9.88089H13.1797V10.8262H2.82031V9.88089ZM2.82031 11.7637H13.1797V12.709H2.82031V11.7637ZM15.0625 14.5918H0.9375V13.6465H15.0625V14.5918Z" fill="#EC3D3D"/>
<path d="M5.64844 5.17761H6.58594V6.11511H5.64844V5.17761Z" fill="#EC3D3D"/>
<path d="M9.41406 5.17761H10.3516V6.11511H9.41406V5.17761Z" fill="#EC3D3D"/>
<path d="M7.53125 5.17761H8.46875V6.11511H7.53125V5.17761Z" fill="#EC3D3D"/>
</svg>
