<svg width="12" height="12" viewBox="0 0 12 12" fill="none" xmlns="http://www.w3.org/2000/svg">
<g clip-path="url(#clip0)">
<path d="M10.2416 1.75634C7.89815 -0.586451 4.09914 -0.585888 1.75635 1.75763C-0.586435 4.10114 -0.585873 7.90012 1.75764 10.2429C4.10116 12.5857 7.90014 12.5851 10.2429 10.2416C11.3681 9.11613 12 7.58977 11.9996 5.99834C11.9993 4.40717 11.3669 2.88129 10.2416 1.75634ZM9.08643 8.35755C9.08617 8.35781 9.08592 8.35809 9.08563 8.35835V8.35636L8.78163 8.65835C8.38846 9.05648 7.81586 9.22029 7.27162 9.09035C6.7233 8.94358 6.20205 8.70996 5.72763 8.39836C5.28686 8.11666 4.87839 7.78737 4.50963 7.41635C4.17032 7.07953 3.86549 6.70969 3.59962 6.31235C3.30881 5.8848 3.07863 5.41905 2.91562 4.92834C2.72875 4.35188 2.8836 3.71932 3.31563 3.29435L3.67162 2.93836C3.7706 2.83894 3.93142 2.83859 4.03082 2.93756C4.03108 2.93782 4.03136 2.93808 4.03162 2.93836L5.15561 4.06235C5.25503 4.16133 5.25538 4.32216 5.15641 4.42156C5.15615 4.42181 5.15589 4.42207 5.15561 4.42235L4.49561 5.08235C4.30624 5.26966 4.28242 5.56732 4.43962 5.78236C4.67833 6.10997 4.94249 6.41824 5.22963 6.70437C5.54976 7.02588 5.89778 7.31836 6.26962 7.57837C6.48447 7.72823 6.77575 7.70297 6.96161 7.51837L7.5996 6.87037C7.69858 6.77095 7.85941 6.7706 7.95881 6.86958C7.95906 6.86984 7.95932 6.87009 7.9596 6.87037L9.08561 7.99837C9.18506 8.09733 9.18541 8.25813 9.08643 8.35755Z" fill="#EC3D3D"/>
</g>
<defs>
<clipPath id="clip0">
<rect width="12" height="12" fill="white"/>
</clipPath>
</defs>
</svg>
