<svg width="16" height="16" viewBox="0 0 16 16" fill="none" xmlns="http://www.w3.org/2000/svg">
<g clip-path="url(#clip0)">
<path d="M2.60866 2.43475C2.32054 2.43475 2.08691 2.66835 2.08691 2.9565V3.65216C2.08691 3.94029 2.32051 4.17391 2.60866 4.17391C2.89682 4.17391 3.13041 3.94032 3.13041 3.65216V2.9565C3.13041 2.66835 2.89682 2.43475 2.60866 2.43475Z" fill="#EC3D3D"/>
<path d="M2.60866 5.21741C2.32054 5.21741 2.08691 5.451 2.08691 5.73916V6.78263C2.08691 7.07075 2.32051 7.30438 2.60866 7.30438C2.89682 7.30438 3.13041 7.07078 3.13041 6.78263V5.73916C3.13041 5.451 2.89682 5.21741 2.60866 5.21741Z" fill="#EC3D3D"/>
<path d="M4.69564 2.43475C4.40751 2.43475 4.17389 2.66835 4.17389 2.9565V3.65216C4.17389 3.94029 4.40748 4.17391 4.69564 4.17391C4.98379 4.17391 5.21739 3.94032 5.21739 3.65216V2.9565C5.21739 2.66835 4.98376 2.43475 4.69564 2.43475Z" fill="#EC3D3D"/>
<path d="M4.69564 5.21741C4.40751 5.21741 4.17389 5.451 4.17389 5.73916V6.78263C4.17389 7.07075 4.40748 7.30438 4.69564 7.30438C4.98379 7.30438 5.21739 7.07078 5.21739 6.78263V5.73916C5.21739 5.451 4.98376 5.21741 4.69564 5.21741Z" fill="#EC3D3D"/>
<path d="M4.69564 8.34784C4.40751 8.34784 4.17389 8.58143 4.17389 8.86959V10.3526C4.17389 10.6407 4.40748 10.8743 4.69564 10.8743C4.98379 10.8743 5.21739 10.6407 5.21739 10.3526V8.86959C5.21739 8.58146 4.98376 8.34784 4.69564 8.34784Z" fill="#EC3D3D"/>
<path d="M6.78261 2.43475C6.49449 2.43475 6.26086 2.66835 6.26086 2.9565V3.65216C6.26086 3.94029 6.49446 4.17391 6.78261 4.17391C7.07074 4.17391 7.30436 3.94032 7.30436 3.65216V2.9565C7.30436 2.66835 7.07077 2.43475 6.78261 2.43475Z" fill="#EC3D3D"/>
<path d="M6.78261 5.21741C6.49449 5.21741 6.26086 5.451 6.26086 5.73916V6.78263C6.26086 7.07075 6.49446 7.30438 6.78261 7.30438C7.07074 7.30438 7.30436 7.07078 7.30436 6.78263V5.73916C7.30436 5.451 7.07077 5.21741 6.78261 5.21741Z" fill="#EC3D3D"/>
<path d="M6.78261 8.34784C6.49449 8.34784 6.26086 8.58143 6.26086 8.86959V10.35C6.26086 10.6381 6.49446 10.8717 6.78261 10.8717C7.07074 10.8717 7.30436 10.6381 7.30436 10.35V8.86959C7.30436 8.58146 7.07077 8.34784 6.78261 8.34784Z" fill="#EC3D3D"/>
<path d="M13.3913 4.52179H10.9566C10.6684 4.52179 10.4348 4.75538 10.4348 5.04354C10.4348 5.3317 10.6684 5.56529 10.9566 5.56529H13.3913C13.6795 5.56529 13.9131 5.3317 13.9131 5.04354C13.9131 4.75538 13.6795 4.52179 13.3913 4.52179Z" fill="#EC3D3D"/>
<path d="M13.3913 6.6087H10.9566C10.6684 6.6087 10.4348 6.8423 10.4348 7.13045C10.4348 7.41858 10.6684 7.6522 10.9566 7.6522H13.3913C13.6795 7.6522 13.9131 7.41861 13.9131 7.13045C13.9131 6.8423 13.6795 6.6087 13.3913 6.6087Z" fill="#EC3D3D"/>
<path d="M13.3913 8.69568H10.9566C10.6684 8.69568 10.4348 8.92927 10.4348 9.21743C10.4348 9.50558 10.6684 9.73918 10.9566 9.73918H13.3913C13.6795 9.73918 13.9131 9.50558 13.9131 9.21743C13.9131 8.92927 13.6795 8.69568 13.3913 8.69568Z" fill="#EC3D3D"/>
<path d="M15.4782 2.43478H9.39131V0.52175C9.39131 0.233625 9.15772 0 8.86956 0H0.52175C0.233594 0 0 0.233594 0 0.52175V15.4783C0 15.7664 0.233594 16 0.52175 16C0.633187 16 15.3259 16 15.4783 16C15.7664 16 16 15.7664 16 15.4782V2.95653C16 2.66838 15.7664 2.43478 15.4782 2.43478ZM4.17391 12V13.4027C3.72375 13.8047 3.47894 14.3654 3.47922 14.9565H1.04347V1.04347H8.34781V11.3203C8.182 11.4701 8.03947 11.6467 7.92769 11.8448C7.08225 11.7294 6.25625 12.1519 5.84072 12.8883C5.63303 12.8599 5.42691 12.8638 5.21737 12.8995V12C5.21737 11.7119 4.98378 11.4782 4.69562 11.4782C4.40747 11.4782 4.17391 11.7119 4.17391 12ZM4.52184 14.9565C4.52041 14.2263 5.26072 13.712 5.95281 13.99C6.24238 14.1062 6.56925 13.9437 6.65088 13.6421C6.80837 13.06 7.43859 12.7051 8.03978 12.9465C8.32941 13.0628 8.65628 12.9001 8.73784 12.5986C8.86091 12.1438 9.27266 11.8261 9.73916 11.8261C10.2057 11.8261 10.6174 12.1437 10.7405 12.5986C10.8219 12.8996 11.1487 13.063 11.4385 12.9465C12.0396 12.7051 12.6699 13.0597 12.8274 13.6421C12.9089 13.9431 13.2357 14.1065 13.5255 13.99C14.2218 13.7103 14.9578 14.2305 14.9565 14.9565H4.52184ZM14.9565 13.1505C14.5557 12.9191 14.0909 12.8264 13.6375 12.8883C13.2216 12.1512 12.3951 11.7295 11.5505 11.8448C11.1263 11.0931 10.2694 10.6619 9.39128 10.8122V3.47825H14.9565V13.1505H14.9565Z" fill="#EC3D3D"/>
<path d="M2.60866 8.34784C2.32054 8.34784 2.08691 8.58143 2.08691 8.86959V9.91306C2.08691 10.2012 2.32051 10.4348 2.60866 10.4348C2.89682 10.4348 3.13041 10.2012 3.13041 9.91306V8.86959C3.13041 8.58146 2.89682 8.34784 2.60866 8.34784Z" fill="#EC3D3D"/>
<path d="M2.60866 11.4783C2.32054 11.4783 2.08691 11.7119 2.08691 12V13.0435C2.08691 13.3316 2.32051 13.5652 2.60866 13.5652C2.89682 13.5652 3.13041 13.3316 3.13041 13.0435V12C3.13041 11.7119 2.89682 11.4783 2.60866 11.4783Z" fill="#EC3D3D"/>
</g>
<defs>
<clipPath id="clip0">
<rect width="16" height="16" fill="white"/>
</clipPath>
</defs>
</svg>
