<svg width="16" height="16" viewBox="0 0 16 16" fill="none" xmlns="http://www.w3.org/2000/svg">
<g clip-path="url(#clip0)">
<path d="M8.00001 5.73866C8.2379 5.73866 8.43075 5.54582 8.43075 5.30793C8.43075 5.07004 8.2379 4.8772 8.00001 4.8772C7.76212 4.8772 7.56927 5.07004 7.56927 5.30793C7.56927 5.54582 7.76212 5.73866 8.00001 5.73866Z" fill="#EC3D3D"/>
<path d="M15.9645 6.02508L13.6556 0.694729C13.5873 0.537134 13.4321 0.435211 13.2603 0.435211H2.8087C2.63872 0.435211 2.48457 0.535196 2.41533 0.690422L0.037343 6.02078C-0.0221524 6.15409 -0.0100917 6.30835 0.069379 6.43073C0.148796 6.55311 0.284801 6.62704 0.430712 6.62704H0.874909V15.1341C0.874909 15.3719 1.0857 15.5648 1.32357 15.5648H14.6225C14.8604 15.5648 15.0353 15.3719 15.0353 15.1341V6.62704H15.5692C15.7143 6.62704 15.8497 6.55403 15.9293 6.43272C16.0089 6.31147 16.0222 6.15823 15.9645 6.02508ZM6.52832 14.7033V11.0959H9.38194V14.7033H6.52832ZM1.73638 11.0959H5.66684V14.7033H1.73638V11.0959ZM10.2434 11.0959H14.1739V14.7033H10.2434V11.0959ZM14.1739 10.2344H1.73638V6.62704H5.29889C5.43387 6.62704 5.56104 6.56377 5.64245 6.45609L8.02345 3.30752L10.3551 6.4528C10.4363 6.56237 10.5647 6.62698 10.7011 6.62698H14.1739V10.2344H14.1739ZM3.08824 1.29668H12.9775L14.9132 5.76557H10.9179L8.37283 2.33233C8.29202 2.22336 8.16457 2.15875 8.02884 2.15815C8.02814 2.15815 8.02749 2.15815 8.02679 2.15815C7.89186 2.15815 7.76469 2.22142 7.68323 2.3291L5.08449 5.76557H1.09453L3.08824 1.29668Z" fill="#EC3D3D"/>
<path d="M4.96691 12.0651C4.96691 11.8272 4.77405 11.6343 4.53618 11.6343H2.81324C2.57537 11.6343 2.38251 11.8272 2.38251 12.0651V13.788C2.38251 14.0259 2.57537 14.2188 2.81324 14.2188H4.53618C4.77405 14.2188 4.96691 14.0259 4.96691 13.788V12.0651ZM4.10545 13.3573H3.24398V12.4958H4.10545V13.3573Z" fill="#EC3D3D"/>
<path d="M13.5278 12.0651C13.5278 11.8272 13.3349 11.6343 13.097 11.6343H11.3741C11.1362 11.6343 10.9434 11.8272 10.9434 12.0651V13.788C10.9434 14.0259 11.1362 14.2188 11.3741 14.2188H13.097C13.3349 14.2188 13.5278 14.0259 13.5278 13.788V12.0651ZM12.6663 13.3573H11.8048V12.4958H12.6663V13.3573Z" fill="#EC3D3D"/>
<path d="M4.96691 7.5962C4.96691 7.35833 4.77405 7.16547 4.53618 7.16547H2.81324C2.57537 7.16547 2.38251 7.35833 2.38251 7.5962V9.31915C2.38251 9.55702 2.57537 9.74988 2.81324 9.74988H4.53618C4.77405 9.74988 4.96691 9.55702 4.96691 9.31915V7.5962ZM4.10545 8.88841H3.24398V8.02694H4.10545V8.88841Z" fill="#EC3D3D"/>
<path d="M9.2743 7.5962C9.2743 7.35833 9.08144 7.16547 8.84356 7.16547H7.12062C6.88274 7.16547 6.68988 7.35833 6.68988 7.5962V9.31915C6.68988 9.55702 6.88274 9.74988 7.12062 9.74988H8.84356C9.08144 9.74988 9.2743 9.55702 9.2743 9.31915V7.5962ZM8.41283 8.88841H7.55135V8.02694H8.41283V8.88841Z" fill="#EC3D3D"/>
<path d="M13.5278 7.5962C13.5278 7.35833 13.3349 7.16547 13.097 7.16547H11.3741C11.1362 7.16547 10.9434 7.35833 10.9434 7.5962V9.31915C10.9434 9.55702 11.1362 9.74988 11.3741 9.74988H13.097C13.3349 9.74988 13.5278 9.55702 13.5278 9.31915V7.5962ZM11.8048 8.02694H12.6663V8.88841H11.8048V8.02694Z" fill="#EC3D3D"/>
</g>
<defs>
<clipPath id="clip0">
<rect width="16" height="16" fill="white"/>
</clipPath>
</defs>
</svg>
