<svg width="20" height="20" viewBox="0 0 20 20" fill="none" xmlns="http://www.w3.org/2000/svg">
<g clip-path="url(#clip0)">
<path d="M0.0195656 5.88005C0.0664196 4.81738 0.238266 4.0868 0.484438 3.45374C0.738394 2.78176 1.1291 2.18014 1.64097 1.68002C2.1411 1.1721 2.74669 0.777435 3.41088 0.527447C4.0476 0.281274 4.77436 0.109427 5.83704 0.0625732C6.90765 0.0117516 7.24753 0 9.9629 0C12.6783 0 13.0182 0.0117516 14.0848 0.0586052C15.1475 0.105459 15.8781 0.277459 16.511 0.523479C17.1831 0.777435 17.7847 1.16814 18.2848 1.68002C18.7927 2.18014 19.1873 2.78573 19.4374 3.44992C19.6836 4.0868 19.8554 4.81341 19.9023 5.87609C19.9531 6.9467 19.9648 7.28658 19.9648 10.002C19.9648 12.7173 19.9531 13.0572 19.9062 14.1239C19.8594 15.1865 19.6874 15.9171 19.4412 16.5502C19.1873 17.2221 18.7927 17.8238 18.2848 18.3239C17.7847 18.8318 17.1791 19.2265 16.5149 19.4765C15.8781 19.7226 15.1514 19.8945 14.0886 19.9413C13.0221 19.9883 12.6821 19.9999 9.96672 19.9999C7.25135 19.9999 6.91147 19.9883 5.84482 19.9413C4.78215 19.8945 4.05157 19.7226 3.41866 19.4765C2.07456 18.9568 1.01188 17.8941 0.492222 16.5502C0.246202 15.9133 0.0742035 15.1865 0.0273495 14.1239C-0.0195045 13.0572 -0.0312557 12.7173 -0.0312557 10.002C-0.0312557 7.28658 -0.0272884 6.9467 0.0195656 5.88005ZM1.8206 14.0457C1.86364 15.0225 2.02771 15.5499 2.16445 15.9015C2.50051 16.7728 3.19203 17.4643 4.06332 17.8004C4.41495 17.9372 4.94621 18.1012 5.91915 18.1441C6.97404 18.1911 7.29042 18.2027 9.95893 18.2027C12.6275 18.2027 12.9478 18.1911 13.9989 18.1441C14.9756 18.1012 15.5031 17.9372 15.8547 17.8004C16.2883 17.6402 16.683 17.3862 17.0033 17.0541C17.3354 16.7298 17.5894 16.3391 17.7496 15.9055C17.8863 15.5539 18.0504 15.0225 18.0933 14.0497C18.1403 12.9948 18.1519 12.6783 18.1519 10.0097C18.1519 7.34122 18.1403 7.02087 18.0933 5.96995C18.0504 4.99319 17.8863 4.46575 17.7496 4.11412C17.5894 3.68038 17.3354 3.28586 16.9993 2.96536C16.6752 2.63327 16.2845 2.37931 15.8507 2.21921C15.4991 2.08247 14.9677 1.9184 13.9949 1.87537C12.94 1.82851 12.6235 1.81676 9.95512 1.81676C7.28263 1.81676 6.96626 1.82851 5.91518 1.87537C4.93843 1.9184 4.41098 2.08247 4.05935 2.21921C3.62576 2.37931 3.2311 2.63327 2.91075 2.96536C2.57866 3.28967 2.3247 3.68038 2.16445 4.11412C2.02771 4.46575 1.86364 4.99701 1.8206 5.96995C1.77375 7.02484 1.762 7.34122 1.762 10.0097C1.762 12.6783 1.77375 12.9908 1.8206 14.0457Z" fill="#FFFDFD"/>
<path d="M9.96286 4.86426C12.7993 4.86426 15.1006 7.16543 15.1006 10.002C15.1006 12.8385 12.7993 15.1397 9.96286 15.1397C7.12631 15.1397 4.82514 12.8385 4.82514 10.002C4.82514 7.16543 7.12631 4.86426 9.96286 4.86426ZM9.96286 13.3347C11.803 13.3347 13.2956 11.8422 13.2956 10.002C13.2956 8.16172 11.803 6.66927 9.96286 6.66927C8.1226 6.66927 6.63015 8.16172 6.63015 10.002C6.63015 11.8422 8.1226 13.3347 9.96286 13.3347Z" fill="#FFFDFD"/>
<path d="M3.42252 4.66134C3.42252 5.3237 3.95959 5.86077 4.6221 5.86077C5.28447 5.86077 5.82153 5.3237 5.82153 4.66134C5.82153 3.99882 5.28447 3.46191 4.6221 3.46191C3.95959 3.46191 3.42252 3.99882 3.42252 4.66134Z" fill="#FFFDFD"/>
</g>
<defs>
<clipPath id="clip0">
<rect width="20" height="20" fill="white" transform="matrix(-1 0 0 1 20 0)"/>
</clipPath>
</defs>
</svg>
