<svg width="31" height="29" viewBox="0 0 31 29" fill="none" xmlns="http://www.w3.org/2000/svg">
<g clip-path="url(#clip0)">
<path fill-rule="evenodd" clip-rule="evenodd" d="M13.5572 0.093399C6.21881 0.093399 0.0628052 5.35096 0.0628052 14.5417C0.0628052 23.5719 6.13732 28.8696 13.5572 28.8696C17.5524 28.8696 21.1809 27.3847 23.6269 24.5351L18.3678 21.6856C17.0632 22.8896 15.3917 23.7325 13.5572 23.7325C9.39876 23.7325 6.17806 20.1204 6.17806 14.5417C6.17806 8.96306 9.39876 5.23057 13.5572 5.23057C15.3917 5.23057 17.0632 6.19381 18.3678 7.39782L23.6269 4.50818C21.1809 1.65864 17.5524 0.093399 13.5572 0.093399Z" fill="#EC3D3D"/>
<path fill-rule="evenodd" clip-rule="evenodd" d="M31.0551 16.5589V13.0374H26.7317V8.78131H23.1547V13.0374H18.8313V16.5589H23.1547V20.815H26.7317V16.5589H31.0551Z" fill="#FF840C"/>
</g>
<defs>
<clipPath id="clip0">
<rect width="31" height="29" fill="white"/>
</clipPath>
</defs>
</svg>
