<svg width="8" height="8" viewBox="0 0 8 8" fill="none" xmlns="http://www.w3.org/2000/svg">
<path d="M7.77386 5.87119L6.65744 4.75477C6.25872 4.35605 5.58089 4.51555 5.4214 5.03387C5.30178 5.39274 4.90306 5.5921 4.54421 5.51234C3.74676 5.31298 2.67021 4.2763 2.47085 3.43898C2.35123 3.08012 2.59047 2.68139 2.94932 2.56179C3.46766 2.4023 3.62714 1.72448 3.22842 1.32575L2.112 0.209329C1.79302 -0.0697765 1.31455 -0.0697765 1.03545 0.209329L0.277873 0.966903C-0.479701 1.76435 0.357617 3.87758 2.23161 5.75158C4.10561 7.62557 6.21884 8.50278 7.01629 7.70532L7.77386 6.94774C8.05298 6.62877 8.05298 6.1503 7.77386 5.87119Z" fill="white"/>
</svg>
