<svg width="42" height="42" viewBox="0 0 42 42" fill="none" xmlns="http://www.w3.org/2000/svg">
<path d="M20.8307 6.2585C19.6848 6.2585 18.7557 7.18758 18.7557 8.3335C18.7557 9.47941 19.6848 10.4085 20.8307 10.4085C21.9766 10.4085 22.9057 9.47941 22.9057 8.3335C22.9057 7.18758 21.9766 6.2585 20.8307 6.2585ZM20.8307 8.92516C20.5039 8.92516 20.239 8.66024 20.239 8.3335C20.239 8.00675 20.5039 7.74183 20.8307 7.74183C21.1574 7.74183 21.4224 8.00675 21.4224 8.3335C21.4224 8.66024 21.1574 8.92516 20.8307 8.92516Z" fill="#EC3D3D" stroke="#EC3D3D" stroke-width="0.15"/>
<path d="M26.8307 14.2583H14.8307C14.4211 14.2583 14.0891 14.5903 14.0891 14.9999V20.3333C14.0891 20.7428 14.4211 21.0749 14.8307 21.0749H26.8307C27.2403 21.0749 27.5724 20.7428 27.5724 20.3333V14.9999C27.5724 14.5903 27.2403 14.2583 26.8307 14.2583ZM26.0891 19.5916H15.5724V15.7416H26.0891V19.5916Z" fill="#EC3D3D" stroke="#EC3D3D" stroke-width="0.15"/>
<path d="M16.8307 16.925H16.7557V17V18.3333V18.4083H16.8307H18.164H18.239V18.3333V17V16.925H18.164H16.8307Z" fill="#EC3D3D" stroke="#EC3D3D" stroke-width="0.15"/>
<path d="M19.4974 16.925H19.4224V17V18.3333V18.4083H19.4974H22.1641H22.2391V18.3333V17V16.925H22.1641H19.4974Z" fill="#EC3D3D" stroke="#EC3D3D" stroke-width="0.15"/>
<path d="M23.4974 16.925H23.4224V17V18.3333V18.4083H23.4974H24.8308H24.9058V18.3333V17V16.925H24.8308H23.4974Z" fill="#EC3D3D" stroke="#EC3D3D" stroke-width="0.15"/>
<path d="M12.7558 9.66683V9.74183H12.8308H14.1641H14.2391V9.66683V7.74183H15.4975H15.5725V7.66683V6.3335V6.2585H15.4975H13.4975C13.0879 6.2585 12.7558 6.59058 12.7558 7.00016V9.66683Z" fill="#EC3D3D" stroke="#EC3D3D" stroke-width="0.15"/>
<mask id="path-7-outside-1" maskUnits="userSpaceOnUse" x="6.49744" y="0" width="35" height="42" fill="black">
<rect fill="white" x="6.49744" width="35" height="42"/>
<path d="M40.1641 1H37.4974C37.1293 1 36.8308 1.2985 36.8308 1.66667V17.6667C36.8308 18.0348 36.5323 18.3333 36.1641 18.3333H31.4974V13.6667H33.4974C33.8656 13.6667 34.1641 13.3682 34.1641 13V9C34.1641 8.63184 33.8656 8.33333 33.4974 8.33333H31.4974V7C31.4952 5.15983 30.0039 3.66895 28.1641 3.66667H26.8308V2.33333H25.4974V3.66667H24.0173L23.4773 1.50521C23.4034 1.20833 23.1368 1 22.8308 1H18.8308C18.5248 1 18.2582 1.20833 18.184 1.50521L17.6439 3.66667H16.1641V2.33333H14.8308V3.66667H13.4974C11.6573 3.66895 10.1664 5.15983 10.1641 7V11.6667H8.1641C7.79594 11.6667 7.49744 11.9652 7.49744 12.3333V17.6667C7.49744 18.0348 7.79594 18.3333 8.1641 18.3333H10.1641V37H8.1641C7.79594 37 7.49744 37.2985 7.49744 37.6667V40.3333C7.49744 40.7015 7.79594 41 8.1641 41H16.1641C16.5323 41 16.8308 40.7015 16.8308 40.3333V37.6667C16.8308 37.2985 16.5323 37 16.1641 37H14.1641V33.5241C15.195 34.0553 16.3376 34.3327 17.4974 34.3333H18.1641V36.3333C18.1641 36.7015 18.4626 37 18.8308 37H22.8308C23.1989 37 23.4974 36.7015 23.4974 36.3333V34.3333H24.1641C25.3236 34.3327 26.4665 34.0553 27.4974 33.5241V37H25.4974C25.1293 37 24.8308 37.2985 24.8308 37.6667V40.3333C24.8308 40.7015 25.1293 41 25.4974 41H33.4974C33.8656 41 34.1641 40.7015 34.1641 40.3333V37.6667C34.1641 37.2985 33.8656 37 33.4974 37H31.4974V22.3333H36.1641C38.7399 22.3301 40.8275 20.2425 40.8308 17.6667V1.66667C40.8308 1.2985 40.5323 1 40.1641 1ZM32.8308 9.66667V12.3333H31.4974V9.66667H32.8308ZM19.3513 2.33333H22.3099L22.6433 3.66667H19.0179L19.3513 2.33333ZM11.4974 7C11.4974 5.89551 12.3929 5 13.4974 5H28.1641C29.2686 5 30.1641 5.89551 30.1641 7V11.6667H11.4974V7ZM8.83077 17V13H10.1641V17H8.83077ZM15.4974 39.6667H8.83077V38.3333H15.4974V39.6667ZM12.8308 37H11.4974V31.2035C11.8754 31.7438 12.3236 32.2311 12.8308 32.6527V37ZM22.1641 35.6667H19.4974V34.3333H22.1641V35.6667ZM32.8308 39.6667H26.1641V38.3333H32.8308V39.6667ZM30.1641 37H28.8308V32.6527C29.3376 32.2311 29.7862 31.7438 30.1641 31.2035V37ZM30.1641 27C30.1605 30.3122 27.4763 32.9964 24.1641 33H17.4974C14.1853 32.9964 11.501 30.3122 11.4974 27V13H30.1641V27ZM39.4974 17.6667C39.4952 19.5068 38.0039 20.9977 36.1641 21H31.4974V19.6667H36.1641C37.2686 19.6667 38.1641 18.7712 38.1641 17.6667V2.33333H39.4974V17.6667Z"/>
</mask>
<path d="M40.1641 1H37.4974C37.1293 1 36.8308 1.2985 36.8308 1.66667V17.6667C36.8308 18.0348 36.5323 18.3333 36.1641 18.3333H31.4974V13.6667H33.4974C33.8656 13.6667 34.1641 13.3682 34.1641 13V9C34.1641 8.63184 33.8656 8.33333 33.4974 8.33333H31.4974V7C31.4952 5.15983 30.0039 3.66895 28.1641 3.66667H26.8308V2.33333H25.4974V3.66667H24.0173L23.4773 1.50521C23.4034 1.20833 23.1368 1 22.8308 1H18.8308C18.5248 1 18.2582 1.20833 18.184 1.50521L17.6439 3.66667H16.1641V2.33333H14.8308V3.66667H13.4974C11.6573 3.66895 10.1664 5.15983 10.1641 7V11.6667H8.1641C7.79594 11.6667 7.49744 11.9652 7.49744 12.3333V17.6667C7.49744 18.0348 7.79594 18.3333 8.1641 18.3333H10.1641V37H8.1641C7.79594 37 7.49744 37.2985 7.49744 37.6667V40.3333C7.49744 40.7015 7.79594 41 8.1641 41H16.1641C16.5323 41 16.8308 40.7015 16.8308 40.3333V37.6667C16.8308 37.2985 16.5323 37 16.1641 37H14.1641V33.5241C15.195 34.0553 16.3376 34.3327 17.4974 34.3333H18.1641V36.3333C18.1641 36.7015 18.4626 37 18.8308 37H22.8308C23.1989 37 23.4974 36.7015 23.4974 36.3333V34.3333H24.1641C25.3236 34.3327 26.4665 34.0553 27.4974 33.5241V37H25.4974C25.1293 37 24.8308 37.2985 24.8308 37.6667V40.3333C24.8308 40.7015 25.1293 41 25.4974 41H33.4974C33.8656 41 34.1641 40.7015 34.1641 40.3333V37.6667C34.1641 37.2985 33.8656 37 33.4974 37H31.4974V22.3333H36.1641C38.7399 22.3301 40.8275 20.2425 40.8308 17.6667V1.66667C40.8308 1.2985 40.5323 1 40.1641 1ZM32.8308 9.66667V12.3333H31.4974V9.66667H32.8308ZM19.3513 2.33333H22.3099L22.6433 3.66667H19.0179L19.3513 2.33333ZM11.4974 7C11.4974 5.89551 12.3929 5 13.4974 5H28.1641C29.2686 5 30.1641 5.89551 30.1641 7V11.6667H11.4974V7ZM8.83077 17V13H10.1641V17H8.83077ZM15.4974 39.6667H8.83077V38.3333H15.4974V39.6667ZM12.8308 37H11.4974V31.2035C11.8754 31.7438 12.3236 32.2311 12.8308 32.6527V37ZM22.1641 35.6667H19.4974V34.3333H22.1641V35.6667ZM32.8308 39.6667H26.1641V38.3333H32.8308V39.6667ZM30.1641 37H28.8308V32.6527C29.3376 32.2311 29.7862 31.7438 30.1641 31.2035V37ZM30.1641 27C30.1605 30.3122 27.4763 32.9964 24.1641 33H17.4974C14.1853 32.9964 11.501 30.3122 11.4974 27V13H30.1641V27ZM39.4974 17.6667C39.4952 19.5068 38.0039 20.9977 36.1641 21H31.4974V19.6667H36.1641C37.2686 19.6667 38.1641 18.7712 38.1641 17.6667V2.33333H39.4974V17.6667Z" fill="#EC3D3D"/>
<path d="M40.1641 1H37.4974C37.1293 1 36.8308 1.2985 36.8308 1.66667V17.6667C36.8308 18.0348 36.5323 18.3333 36.1641 18.3333H31.4974V13.6667H33.4974C33.8656 13.6667 34.1641 13.3682 34.1641 13V9C34.1641 8.63184 33.8656 8.33333 33.4974 8.33333H31.4974V7C31.4952 5.15983 30.0039 3.66895 28.1641 3.66667H26.8308V2.33333H25.4974V3.66667H24.0173L23.4773 1.50521C23.4034 1.20833 23.1368 1 22.8308 1H18.8308C18.5248 1 18.2582 1.20833 18.184 1.50521L17.6439 3.66667H16.1641V2.33333H14.8308V3.66667H13.4974C11.6573 3.66895 10.1664 5.15983 10.1641 7V11.6667H8.1641C7.79594 11.6667 7.49744 11.9652 7.49744 12.3333V17.6667C7.49744 18.0348 7.79594 18.3333 8.1641 18.3333H10.1641V37H8.1641C7.79594 37 7.49744 37.2985 7.49744 37.6667V40.3333C7.49744 40.7015 7.79594 41 8.1641 41H16.1641C16.5323 41 16.8308 40.7015 16.8308 40.3333V37.6667C16.8308 37.2985 16.5323 37 16.1641 37H14.1641V33.5241C15.195 34.0553 16.3376 34.3327 17.4974 34.3333H18.1641V36.3333C18.1641 36.7015 18.4626 37 18.8308 37H22.8308C23.1989 37 23.4974 36.7015 23.4974 36.3333V34.3333H24.1641C25.3236 34.3327 26.4665 34.0553 27.4974 33.5241V37H25.4974C25.1293 37 24.8308 37.2985 24.8308 37.6667V40.3333C24.8308 40.7015 25.1293 41 25.4974 41H33.4974C33.8656 41 34.1641 40.7015 34.1641 40.3333V37.6667C34.1641 37.2985 33.8656 37 33.4974 37H31.4974V22.3333H36.1641C38.7399 22.3301 40.8275 20.2425 40.8308 17.6667V1.66667C40.8308 1.2985 40.5323 1 40.1641 1ZM32.8308 9.66667V12.3333H31.4974V9.66667H32.8308ZM19.3513 2.33333H22.3099L22.6433 3.66667H19.0179L19.3513 2.33333ZM11.4974 7C11.4974 5.89551 12.3929 5 13.4974 5H28.1641C29.2686 5 30.1641 5.89551 30.1641 7V11.6667H11.4974V7ZM8.83077 17V13H10.1641V17H8.83077ZM15.4974 39.6667H8.83077V38.3333H15.4974V39.6667ZM12.8308 37H11.4974V31.2035C11.8754 31.7438 12.3236 32.2311 12.8308 32.6527V37ZM22.1641 35.6667H19.4974V34.3333H22.1641V35.6667ZM32.8308 39.6667H26.1641V38.3333H32.8308V39.6667ZM30.1641 37H28.8308V32.6527C29.3376 32.2311 29.7862 31.7438 30.1641 31.2035V37ZM30.1641 27C30.1605 30.3122 27.4763 32.9964 24.1641 33H17.4974C14.1853 32.9964 11.501 30.3122 11.4974 27V13H30.1641V27ZM39.4974 17.6667C39.4952 19.5068 38.0039 20.9977 36.1641 21H31.4974V19.6667H36.1641C37.2686 19.6667 38.1641 18.7712 38.1641 17.6667V2.33333H39.4974V17.6667Z" stroke="#EC3D3D" stroke-width="0.3" mask="url(#path-7-outside-1)"/>
<path d="M6.83065 4.71536L8.30626 6.19097L8.35929 6.244L8.41233 6.19097L9.35503 5.24826L9.40807 5.19523L9.35503 5.1422L7.35503 3.1422L7.355 3.14216C7.0653 2.85283 6.59599 2.85283 6.30629 3.14216L6.30626 3.1422L5.44228 4.00618L2.62816 1.75419L2.56963 1.70735L2.52277 1.76585L1.68878 2.80687L1.64186 2.86544L1.70046 2.91232L5.03375 5.57896C5.32895 5.81548 5.75449 5.79152 6.0217 5.52431L6.83065 4.71536Z" fill="#EC3D3D" stroke="#EC3D3D" stroke-width="0.15"/>
<path d="M1.18035 8.25831L1.15255 8.32792L1.22215 8.35576L4.55548 9.68909L4.55559 9.68913C4.83115 9.79885 5.14546 9.73403 5.35512 9.52437L5.35512 9.52437L6.31001 8.56916L8.49893 9.66696L8.56608 9.70064L8.59965 9.63343L9.19568 8.44008L9.22917 8.37301L9.16212 8.33948L6.49545 7.00615L6.49539 7.00612C6.21002 6.86379 5.86531 6.91992 5.63971 7.14549C5.6397 7.1455 5.63969 7.14551 5.63967 7.14553L4.65196 8.12947L1.77265 6.97756L1.70297 6.94968L1.67514 7.01937L1.18035 8.25831Z" fill="#EC3D3D" stroke="#EC3D3D" stroke-width="0.15"/>
</svg>
