<svg width="40" height="40" viewBox="0 0 40 40" fill="none" xmlns="http://www.w3.org/2000/svg">
<path d="M3.84848 9.14921L3.84847 9.14909C3.84593 8.69584 4.21085 8.33698 4.66259 8.33371L3.84848 9.14921ZM3.84848 9.14921C3.85176 9.60071 4.2189 9.95469 4.6676 9.95469M3.84848 9.14921L4.6676 9.95469M4.6676 9.95469H4.67206M4.6676 9.95469H4.67206M4.67206 9.95469C5.12466 9.95469 5.49 9.5921 5.48672 9.13838M4.67206 9.95469L5.48672 9.13838M5.48672 9.13838C5.48343 8.68532 5.11379 8.33045 4.66259 8.33371L5.48672 9.13838Z" fill="#EC3D3D" stroke="#EC3D3D" stroke-width="0.15"/>
<path d="M13.6172 8.45191C13.165 8.43974 12.7891 8.7969 12.7768 9.24888L12.7768 9.24902L14.3393 9.29028L14.4143 9.29232C14.4143 9.29228 14.4143 9.29224 14.4143 9.2922C14.4265 8.84014 14.0694 8.46341 13.6172 8.45191ZM13.6172 8.45191C13.6173 8.45191 13.6173 8.45191 13.6173 8.45191L13.6153 8.52689L13.6172 8.45191C13.6172 8.45191 13.6172 8.45191 13.6172 8.45191Z" fill="#EC3D3D" stroke="#EC3D3D" stroke-width="0.15"/>
<path d="M8.36684 4.66203C8.36114 5.11425 8.72411 5.4853 9.17629 5.49022L9.17629 5.49022H9.1771H9.18603C9.63416 5.49022 9.9995 5.12976 10.0051 4.68097L10.0051 4.68084C10.0101 4.22875 9.64721 3.85775 9.1951 3.8528M8.36684 4.66203C8.37179 4.20914 8.7429 3.84711 9.1951 3.8528M8.36684 4.66203C8.36684 4.66201 8.36684 4.66199 8.36684 4.66196L8.44183 4.66291L8.36684 4.6621C8.36684 4.66208 8.36684 4.66206 8.36684 4.66203ZM9.1951 3.8528C9.19512 3.8528 9.19514 3.8528 9.19517 3.8528L9.19422 3.9278L9.19503 3.8528C9.19505 3.8528 9.19507 3.8528 9.1951 3.8528Z" fill="#EC3D3D" stroke="#EC3D3D" stroke-width="0.15"/>
<path d="M8.57313 8.76934C8.57367 8.76851 8.57421 8.76769 8.57476 8.76687L8.57524 8.76739C8.61812 8.72741 8.65504 8.68386 8.68696 8.63827C8.80566 8.5318 8.96153 8.46678 9.13258 8.46678C9.5015 8.46678 9.8017 8.76698 9.8017 9.13583C9.8017 9.50475 9.5015 9.80495 9.13258 9.80495C8.76365 9.80495 8.46345 9.50474 8.46345 9.1359C8.46345 9.00061 8.50385 8.87475 8.57313 8.76934ZM8.57313 8.76934C8.57058 8.77161 8.56847 8.77331 8.56752 8.77408C8.56653 8.77488 8.56623 8.77513 8.56626 8.77509C8.56631 8.77506 8.5667 8.77472 8.5671 8.77436L8.51665 8.71886M8.57313 8.76934C8.57413 8.76844 8.57519 8.76746 8.57628 8.76641L8.57556 8.76566C8.5766 8.7641 8.57765 8.76254 8.57871 8.76098L8.55627 8.74575L8.52409 8.71254M8.51665 8.71886L8.55299 8.74352L8.52409 8.71254M8.51665 8.71886C8.51775 8.71786 8.51888 8.71696 8.52 8.71605C8.52139 8.71493 8.52278 8.71381 8.52409 8.71254M8.51665 8.71886L8.63019 8.5885C8.59991 8.6327 8.56487 8.67452 8.52409 8.71254M5.37382 5.33762L5.37381 5.33762C5.04309 5.64631 5.02523 6.1646 5.33393 6.49526C5.33393 6.49526 5.33393 6.49527 5.33393 6.49527L6.993 8.27266C6.88489 8.53951 6.82514 8.83088 6.82514 9.1359C6.82514 10.4082 7.86021 11.4431 9.13258 11.4431C10.4049 11.4431 11.44 10.4081 11.44 9.1359C11.44 7.86359 10.4049 6.82868 9.13258 6.82868C8.76551 6.82868 8.41829 6.91523 8.1099 7.06843L8.07499 7.0311L7.8805 6.82343C7.71922 6.65141 7.5034 6.42167 7.28525 6.19078C7.06714 5.95994 6.84654 5.72779 6.67576 5.55103C6.59042 5.4627 6.51723 5.38791 6.46291 5.33394C6.43581 5.30701 6.41296 5.28483 6.39544 5.26859C6.38674 5.26052 6.37878 5.25339 6.37196 5.24769L6.3718 5.24756C6.3678 5.24422 6.35922 5.23706 6.34927 5.23151C6.04454 5.05135 5.64591 5.08369 5.37382 5.33762Z" fill="#EC3D3D" stroke="#EC3D3D" stroke-width="0.15"/>
<path d="M5.18795 12.3404L5.18795 12.3403C5.18541 11.8881 5.5492 11.5196 6.00207 11.5163L5.18795 12.3404ZM5.18795 12.3404C5.19123 12.7907 5.55724 13.1544 6.00707 13.1544H6.01154V13.1544M5.18795 12.3404L6.01154 13.1544M6.01154 13.1544L6.01208 13.1544M6.01154 13.1544L6.01208 13.1544M6.01208 13.1544C6.46489 13.1511 6.82947 12.7826 6.8262 12.3295M6.01208 13.1544L6.8262 12.3295M6.8262 12.3295C6.82292 11.8776 6.45433 11.5131 6.00207 11.5163L6.8262 12.3295Z" fill="#EC3D3D" stroke="#EC3D3D" stroke-width="0.15"/>
<path d="M12.188 13.1545V13.1545H12.1835C11.7337 13.1545 11.3676 12.7908 11.3643 12.3404L11.3643 12.3403C11.3618 11.8881 11.7256 11.5196 12.1785 11.5163L12.188 13.1545ZM12.188 13.1545L12.1885 13.1545M12.188 13.1545L12.1885 13.1545M12.1885 13.1545C12.6414 13.1512 13.0059 12.7827 13.0027 12.3296M12.1885 13.1545L13.0027 12.3296M13.0027 12.3296C12.9994 11.8776 12.6308 11.5131 12.1785 11.5163L13.0027 12.3296Z" fill="#EC3D3D" stroke="#EC3D3D" stroke-width="0.15"/>
<mask id="path-7-outside-1" maskUnits="userSpaceOnUse" x="-0.0476074" y="-0.0476074" width="40" height="40" fill="black">
<rect fill="white" x="-0.0476074" y="-0.0476074" width="40" height="40"/>
<path d="M38.8371 19.0275C38.6987 18.8891 38.5141 18.8087 38.3185 18.8087H37.1738C37.428 18.3623 37.5743 17.8633 37.5743 17.3213C37.5743 16.8337 37.4557 16.374 37.2469 15.9673L38.2898 12.3177C38.2909 12.3141 38.3187 12.0933 38.317 12.067L37.9885 6.81132C37.9396 6.02888 37.2871 5.41526 36.5031 5.41526H32.6775C31.8934 5.41526 31.2409 6.0297 31.1921 6.81214L30.8636 12.067C30.8619 12.0934 30.8897 12.3142 30.8907 12.3179L31.9261 15.9669C31.7173 16.3735 31.6098 16.8333 31.6098 17.3208C31.6098 17.8628 31.7672 18.3621 32.0214 18.8086H30.8767C30.6802 18.8086 30.4816 18.889 30.3423 19.0274C30.204 19.1658 30.1176 19.3586 30.1176 19.5543V23.6451H27.3642V19.5543C27.3642 19.3586 27.292 19.1659 27.1537 19.0275C27.0153 18.8891 26.8307 18.8087 26.6351 18.8087H25.7278L25.3557 17.3205H26.263C26.674 17.3205 26.9922 16.989 26.9922 16.578V6.16095C26.9922 5.75001 26.674 5.41534 26.263 5.41534H25.1318V3.18468C25.1318 2.77375 24.8136 2.43907 24.4025 2.43907H21.4259C21.0149 2.43907 20.6668 2.77375 20.6668 3.18468V5.41534H19.5656C19.1545 5.41534 18.8065 5.75001 18.8065 6.16095V16.5781C18.8065 16.989 19.1546 17.3206 19.5656 17.3206H20.4729L20.1008 18.8088H19.1935C18.997 18.8088 18.7983 18.8891 18.6591 19.0275C18.5207 19.1659 18.4343 19.3587 18.4343 19.5544V23.6452H13.5973V19.5543C13.5973 19.3586 13.5251 19.1659 13.3867 19.0275C13.2483 18.8891 13.0638 18.8087 12.8681 18.8087H11.3648V17.0127C14.788 16.0386 17.3255 12.8768 17.3255 9.13721C17.3257 4.62412 13.6574 0.952393 9.14376 0.952393C4.63015 0.952393 0.952393 4.62412 0.952393 9.13721C0.952393 12.8768 3.47695 16.0386 6.90001 17.0127V18.8087H5.42665C5.23089 18.8087 5.03148 18.8891 4.89302 19.0275C4.75462 19.1659 4.6675 19.3586 4.6675 19.5543V30.3435C4.6675 30.9402 4.90715 31.4997 5.3291 31.9208C5.75024 32.3427 6.31884 32.5741 6.91489 32.5741H15.2168C15.6276 32.5741 14.4727 31.8301 14.4727 31.8301C14.4727 31.8301 15.6275 31.086 15.2168 31.086H6.91497C6.50567 31.086 6.15589 30.7534 6.15589 30.3435V20.2969H12.1092V24.3909C12.1092 24.5865 12.1955 24.7778 12.3347 24.9162C12.4732 25.0546 12.6718 25.1334 12.8683 25.1334H19.1937C19.3894 25.1334 19.5739 25.0546 19.7123 24.9162C19.8507 24.7778 19.9229 24.5873 19.9229 24.3909V20.2969H25.8761V24.3909C25.8761 24.5865 25.9625 24.7778 26.1009 24.9162C26.24 25.0546 26.4388 25.1334 26.6353 25.1334H30.8769C31.0726 25.1334 31.2572 25.0546 31.3955 24.9162C31.5339 24.7778 31.6061 24.5865 31.6061 24.3909V20.2969H37.5594V30.3435C37.5594 30.7534 37.2394 31.086 36.8301 31.086H28.1234C27.5266 31.086 26.9588 31.3197 26.5368 31.7409C26.1156 32.162 25.8761 32.7238 25.8761 33.3198V37.5595H19.937L19.9377 33.3191C19.937 32.723 19.7048 32.1616 19.2836 31.7405C18.8617 31.3194 18.3013 31.086 17.7053 31.086H15.2168C14.8068 31.086 14.4727 31.4201 14.4727 31.8301C14.4727 32.2408 14.8068 32.5741 15.2168 32.5741H17.7053C18.1146 32.5741 18.4345 32.9105 18.4345 33.3197V38.3051C18.4345 38.5008 18.5209 38.692 18.6601 38.8304C18.7985 38.9688 18.9972 39.0476 19.1937 39.0476H26.6353C26.831 39.0476 27.0147 38.9688 27.1539 38.8304C27.2923 38.692 27.3644 38.5008 27.3644 38.3051V33.3197C27.3644 32.9105 27.7135 32.5741 28.1235 32.5741H36.8301C37.4269 32.5741 37.9798 32.3427 38.4011 31.9208C38.823 31.4997 39.0477 30.9402 39.0477 30.3435V19.5543C39.0476 19.3586 38.9755 19.1659 38.8371 19.0275ZM2.45001 9.13721C2.45001 5.44465 5.45448 2.44049 9.14741 2.44049C12.8403 2.44049 15.8448 5.44465 15.8448 9.13721C15.8448 12.8298 12.8403 15.8339 9.14741 15.8339C5.45448 15.8339 2.45001 12.8298 2.45001 9.13721ZM9.87665 18.8087H8.38833V17.2879C8.61154 17.3101 8.88163 17.322 9.13245 17.322C9.38327 17.322 9.65336 17.3101 9.87657 17.2879L9.87665 18.8087ZM22.1553 3.92717H23.6436V5.41534H22.1553V3.92717ZM20.2949 15.8324V6.90343H25.504V15.8324H20.2949ZM21.635 18.8087L22.0071 17.3205H23.8217L24.1938 18.8087H21.635ZM34.5976 18.8103C33.777 18.8103 33.1093 18.1426 33.1093 17.3221C33.1093 16.5016 33.777 15.8339 34.5976 15.8339C35.4182 15.8339 36.0859 16.5016 36.0859 17.3221C36.0859 18.1426 35.4182 18.8103 34.5976 18.8103ZM36.0534 14.7267C35.6227 14.4842 35.1263 14.3454 34.5976 14.3454C34.0691 14.3454 33.5726 14.4839 33.1418 14.7265L32.6075 12.8561H36.5877L36.0534 14.7267ZM32.4131 11.3679L32.6922 6.90351H36.5031L36.7822 11.3679H32.4131Z"/>
</mask>
<path d="M38.8371 19.0275C38.6987 18.8891 38.5141 18.8087 38.3185 18.8087H37.1738C37.428 18.3623 37.5743 17.8633 37.5743 17.3213C37.5743 16.8337 37.4557 16.374 37.2469 15.9673L38.2898 12.3177C38.2909 12.3141 38.3187 12.0933 38.317 12.067L37.9885 6.81132C37.9396 6.02888 37.2871 5.41526 36.5031 5.41526H32.6775C31.8934 5.41526 31.2409 6.0297 31.1921 6.81214L30.8636 12.067C30.8619 12.0934 30.8897 12.3142 30.8907 12.3179L31.9261 15.9669C31.7173 16.3735 31.6098 16.8333 31.6098 17.3208C31.6098 17.8628 31.7672 18.3621 32.0214 18.8086H30.8767C30.6802 18.8086 30.4816 18.889 30.3423 19.0274C30.204 19.1658 30.1176 19.3586 30.1176 19.5543V23.6451H27.3642V19.5543C27.3642 19.3586 27.292 19.1659 27.1537 19.0275C27.0153 18.8891 26.8307 18.8087 26.6351 18.8087H25.7278L25.3557 17.3205H26.263C26.674 17.3205 26.9922 16.989 26.9922 16.578V6.16095C26.9922 5.75001 26.674 5.41534 26.263 5.41534H25.1318V3.18468C25.1318 2.77375 24.8136 2.43907 24.4025 2.43907H21.4259C21.0149 2.43907 20.6668 2.77375 20.6668 3.18468V5.41534H19.5656C19.1545 5.41534 18.8065 5.75001 18.8065 6.16095V16.5781C18.8065 16.989 19.1546 17.3206 19.5656 17.3206H20.4729L20.1008 18.8088H19.1935C18.997 18.8088 18.7983 18.8891 18.6591 19.0275C18.5207 19.1659 18.4343 19.3587 18.4343 19.5544V23.6452H13.5973V19.5543C13.5973 19.3586 13.5251 19.1659 13.3867 19.0275C13.2483 18.8891 13.0638 18.8087 12.8681 18.8087H11.3648V17.0127C14.788 16.0386 17.3255 12.8768 17.3255 9.13721C17.3257 4.62412 13.6574 0.952393 9.14376 0.952393C4.63015 0.952393 0.952393 4.62412 0.952393 9.13721C0.952393 12.8768 3.47695 16.0386 6.90001 17.0127V18.8087H5.42665C5.23089 18.8087 5.03148 18.8891 4.89302 19.0275C4.75462 19.1659 4.6675 19.3586 4.6675 19.5543V30.3435C4.6675 30.9402 4.90715 31.4997 5.3291 31.9208C5.75024 32.3427 6.31884 32.5741 6.91489 32.5741H15.2168C15.6276 32.5741 14.4727 31.8301 14.4727 31.8301C14.4727 31.8301 15.6275 31.086 15.2168 31.086H6.91497C6.50567 31.086 6.15589 30.7534 6.15589 30.3435V20.2969H12.1092V24.3909C12.1092 24.5865 12.1955 24.7778 12.3347 24.9162C12.4732 25.0546 12.6718 25.1334 12.8683 25.1334H19.1937C19.3894 25.1334 19.5739 25.0546 19.7123 24.9162C19.8507 24.7778 19.9229 24.5873 19.9229 24.3909V20.2969H25.8761V24.3909C25.8761 24.5865 25.9625 24.7778 26.1009 24.9162C26.24 25.0546 26.4388 25.1334 26.6353 25.1334H30.8769C31.0726 25.1334 31.2572 25.0546 31.3955 24.9162C31.5339 24.7778 31.6061 24.5865 31.6061 24.3909V20.2969H37.5594V30.3435C37.5594 30.7534 37.2394 31.086 36.8301 31.086H28.1234C27.5266 31.086 26.9588 31.3197 26.5368 31.7409C26.1156 32.162 25.8761 32.7238 25.8761 33.3198V37.5595H19.937L19.9377 33.3191C19.937 32.723 19.7048 32.1616 19.2836 31.7405C18.8617 31.3194 18.3013 31.086 17.7053 31.086H15.2168C14.8068 31.086 14.4727 31.4201 14.4727 31.8301C14.4727 32.2408 14.8068 32.5741 15.2168 32.5741H17.7053C18.1146 32.5741 18.4345 32.9105 18.4345 33.3197V38.3051C18.4345 38.5008 18.5209 38.692 18.6601 38.8304C18.7985 38.9688 18.9972 39.0476 19.1937 39.0476H26.6353C26.831 39.0476 27.0147 38.9688 27.1539 38.8304C27.2923 38.692 27.3644 38.5008 27.3644 38.3051V33.3197C27.3644 32.9105 27.7135 32.5741 28.1235 32.5741H36.8301C37.4269 32.5741 37.9798 32.3427 38.4011 31.9208C38.823 31.4997 39.0477 30.9402 39.0477 30.3435V19.5543C39.0476 19.3586 38.9755 19.1659 38.8371 19.0275ZM2.45001 9.13721C2.45001 5.44465 5.45448 2.44049 9.14741 2.44049C12.8403 2.44049 15.8448 5.44465 15.8448 9.13721C15.8448 12.8298 12.8403 15.8339 9.14741 15.8339C5.45448 15.8339 2.45001 12.8298 2.45001 9.13721ZM9.87665 18.8087H8.38833V17.2879C8.61154 17.3101 8.88163 17.322 9.13245 17.322C9.38327 17.322 9.65336 17.3101 9.87657 17.2879L9.87665 18.8087ZM22.1553 3.92717H23.6436V5.41534H22.1553V3.92717ZM20.2949 15.8324V6.90343H25.504V15.8324H20.2949ZM21.635 18.8087L22.0071 17.3205H23.8217L24.1938 18.8087H21.635ZM34.5976 18.8103C33.777 18.8103 33.1093 18.1426 33.1093 17.3221C33.1093 16.5016 33.777 15.8339 34.5976 15.8339C35.4182 15.8339 36.0859 16.5016 36.0859 17.3221C36.0859 18.1426 35.4182 18.8103 34.5976 18.8103ZM36.0534 14.7267C35.6227 14.4842 35.1263 14.3454 34.5976 14.3454C34.0691 14.3454 33.5726 14.4839 33.1418 14.7265L32.6075 12.8561H36.5877L36.0534 14.7267ZM32.4131 11.3679L32.6922 6.90351H36.5031L36.7822 11.3679H32.4131Z" fill="#EC3D3D"/>
<path d="M37.1738 18.8087L37.0435 18.7345L36.9158 18.9587H37.1738V18.8087ZM37.2469 15.9673L37.1027 15.9261L37.0864 15.9831L37.1134 16.0359L37.2469 15.9673ZM38.2898 12.3177L38.434 12.3589L38.434 12.3589L38.2898 12.3177ZM38.317 12.067L38.1673 12.0763L38.1673 12.0767L38.317 12.067ZM37.9885 6.81132L37.8388 6.82067V6.82068L37.9885 6.81132ZM31.1921 6.81214L31.3418 6.8215V6.82149L31.1921 6.81214ZM30.8636 12.067L30.7138 12.0577L30.7138 12.0577L30.8636 12.067ZM30.8907 12.3179L31.035 12.2769L31.0349 12.2767L30.8907 12.3179ZM31.9261 15.9669L32.0596 16.0354L32.0866 15.9828L32.0704 15.926L31.9261 15.9669ZM32.0214 18.8086V18.9586H32.2794L32.1517 18.7344L32.0214 18.8086ZM30.3423 19.0274L30.2366 18.921L30.2363 18.9213L30.3423 19.0274ZM30.1176 23.6451V23.7951H30.2676V23.6451H30.1176ZM27.3642 23.6451H27.2142V23.7951H27.3642V23.6451ZM25.7278 18.8087L25.5822 18.8451L25.6107 18.9587H25.7278V18.8087ZM25.3557 17.3205V17.1705H25.1635L25.2101 17.3569L25.3557 17.3205ZM25.1318 5.41534H24.9818V5.56534H25.1318V5.41534ZM20.6668 5.41534V5.56534H20.8168V5.41534H20.6668ZM20.4729 17.3206L20.6184 17.357L20.665 17.1706H20.4729V17.3206ZM20.1008 18.8088V18.9588H20.2179L20.2463 18.8452L20.1008 18.8088ZM18.6591 19.0275L18.5533 18.9212L18.553 18.9215L18.6591 19.0275ZM18.4343 23.6452V23.7952H18.5843V23.6452H18.4343ZM13.5973 23.6452H13.4473V23.7952H13.5973V23.6452ZM11.3648 18.8087H11.2148V18.9587H11.3648V18.8087ZM11.3648 17.0127L11.3238 16.8684L11.2148 16.8994V17.0127H11.3648ZM17.3255 9.13721L17.1755 9.13721V9.13721H17.3255ZM6.90001 17.0127H7.05001V16.8994L6.94106 16.8684L6.90001 17.0127ZM6.90001 18.8087V18.9587H7.05001V18.8087H6.90001ZM4.89302 19.0275L4.78698 18.9214L4.78695 18.9214L4.89302 19.0275ZM5.3291 31.9208L5.43526 31.8149L5.43507 31.8147L5.3291 31.9208ZM6.15589 20.2969V20.1469H6.00589V20.2969H6.15589ZM12.1092 20.2969H12.2592V20.1469H12.1092V20.2969ZM12.3347 24.9162L12.4407 24.8101L12.4405 24.8098L12.3347 24.9162ZM19.9229 20.2969V20.1469H19.7729V20.2969H19.9229ZM25.8761 20.2969H26.0261V20.1469H25.8761V20.2969ZM26.1009 24.9162L25.9948 25.0222L25.9951 25.0225L26.1009 24.9162ZM31.6061 20.2969V20.1469H31.4561V20.2969H31.6061ZM37.5594 20.2969H37.7094V20.1469H37.5594V20.2969ZM26.5368 31.7409L26.4309 31.6347L26.4308 31.6348L26.5368 31.7409ZM25.8761 37.5595V37.7095H26.0261V37.5595H25.8761ZM19.937 37.5595L19.787 37.5595L19.787 37.7095H19.937V37.5595ZM19.9377 33.3191L20.0877 33.3191V33.3189L19.9377 33.3191ZM19.2836 31.7405L19.3897 31.6344L19.3896 31.6343L19.2836 31.7405ZM18.6601 38.8304L18.7661 38.7243L18.7658 38.724L18.6601 38.8304ZM27.1539 38.8304L27.2597 38.9367L27.2599 38.9364L27.1539 38.8304ZM38.4011 31.9208L38.2951 31.8147L38.2949 31.8149L38.4011 31.9208ZM39.0477 19.5543H39.1977V19.5543L39.0477 19.5543ZM9.87665 18.8087V18.9587H10.0267L10.0266 18.8087L9.87665 18.8087ZM8.38833 18.8087H8.23833V18.9587H8.38833V18.8087ZM8.38833 17.2879L8.40316 17.1386L8.23833 17.1222V17.2879H8.38833ZM9.87657 17.2879L10.0266 17.2879L10.0266 17.1222L9.86175 17.1386L9.87657 17.2879ZM22.1553 3.92717V3.77717H22.0053V3.92717H22.1553ZM23.6436 3.92717H23.7936V3.77717H23.6436V3.92717ZM23.6436 5.41534V5.56534H23.7936V5.41534H23.6436ZM22.1553 5.41534H22.0053V5.56534H22.1553V5.41534ZM20.2949 15.8324H20.1449V15.9824H20.2949V15.8324ZM20.2949 6.90343V6.75343H20.1449V6.90343H20.2949ZM25.504 6.90343H25.654V6.75343H25.504V6.90343ZM25.504 15.8324V15.9824H25.654V15.8324H25.504ZM21.635 18.8087L21.4895 18.7723L21.4429 18.9587H21.635V18.8087ZM22.0071 17.3205V17.1705H21.89L21.8616 17.2842L22.0071 17.3205ZM23.8217 17.3205L23.9672 17.2842L23.9388 17.1705H23.8217V17.3205ZM24.1938 18.8087V18.9587H24.3859L24.3393 18.7723L24.1938 18.8087ZM36.0534 14.7267L35.9798 14.8574L36.1455 14.9507L36.1977 14.7679L36.0534 14.7267ZM33.1418 14.7265L32.9976 14.7677L33.0498 14.9505L33.2154 14.8572L33.1418 14.7265ZM32.6075 12.8561V12.7061H32.4087L32.4633 12.8973L32.6075 12.8561ZM36.5877 12.8561L36.7319 12.8973L36.7865 12.7061H36.5877V12.8561ZM32.4131 11.3679L32.2634 11.3586L32.2534 11.5179H32.4131V11.3679ZM32.6922 6.90351V6.75351H32.5513L32.5425 6.89415L32.6922 6.90351ZM36.5031 6.90351L36.6528 6.89415L36.644 6.75351H36.5031V6.90351ZM36.7822 11.3679V11.5179H36.9418L36.9319 11.3586L36.7822 11.3679ZM38.9431 18.9214C38.7781 18.7563 38.556 18.6587 38.3185 18.6587V18.9587C38.4723 18.9587 38.6193 19.0218 38.731 19.1335L38.9431 18.9214ZM38.3185 18.6587H37.1738V18.9587H38.3185V18.6587ZM37.3042 18.8829C37.5702 18.4157 37.7243 17.8913 37.7243 17.3213H37.4243C37.4243 17.8352 37.2858 18.3089 37.0435 18.7345L37.3042 18.8829ZM37.7243 17.3213C37.7243 16.8091 37.5996 16.3259 37.3803 15.8988L37.1134 16.0359C37.3117 16.422 37.4243 16.8583 37.4243 17.3213H37.7243ZM37.3911 16.0086L38.434 12.3589L38.1456 12.2765L37.1027 15.9261L37.3911 16.0086ZM38.434 12.3589C38.4356 12.3535 38.4365 12.3492 38.4367 12.3481C38.4371 12.3463 38.4374 12.3449 38.4375 12.344C38.4378 12.3424 38.438 12.341 38.4381 12.3402C38.4384 12.3386 38.4386 12.337 38.4388 12.3358C38.4392 12.3333 38.4396 12.3302 38.44 12.3268C38.441 12.3199 38.4422 12.3105 38.4436 12.2995C38.4463 12.2774 38.4499 12.2482 38.4534 12.2182C38.4569 12.1884 38.4604 12.1571 38.4629 12.1313C38.4641 12.1185 38.4652 12.1062 38.466 12.0956C38.4665 12.0887 38.4676 12.0723 38.4667 12.0573L38.1673 12.0767C38.1667 12.0682 38.1674 12.0645 38.1667 12.0747C38.1662 12.0813 38.1654 12.0906 38.1643 12.1022C38.1621 12.1253 38.1588 12.1544 38.1554 12.1835C38.1521 12.2124 38.1486 12.2407 38.1459 12.2619C38.1446 12.2725 38.1435 12.2812 38.1427 12.2872C38.1423 12.2902 38.142 12.2922 38.1418 12.2934C38.1417 12.294 38.1417 12.2939 38.1418 12.2933C38.1419 12.2931 38.142 12.2921 38.1423 12.2907C38.1424 12.2901 38.1426 12.2888 38.143 12.2871C38.1432 12.2861 38.1441 12.2819 38.1456 12.2765L38.434 12.3589ZM38.4667 12.0576L38.1382 6.80196L37.8388 6.82068L38.1673 12.0763L38.4667 12.0576ZM38.1382 6.80197C38.0844 5.94055 37.3664 5.26526 36.5031 5.26526V5.56526C37.2078 5.56526 37.7948 6.11721 37.8388 6.82067L38.1382 6.80197ZM36.5031 5.26526H32.6775V5.56526H36.5031V5.26526ZM32.6775 5.26526C31.814 5.26526 31.0962 5.94148 31.0423 6.80279L31.3418 6.82149C31.3857 6.11792 31.9728 5.56526 32.6775 5.56526V5.26526ZM31.0423 6.80278L30.7138 12.0577L31.0133 12.0764L31.3418 6.8215L31.0423 6.80278ZM30.7138 12.0577C30.7125 12.0794 30.7159 12.113 30.7177 12.1314C30.7202 12.1572 30.7237 12.1885 30.7271 12.2183C30.7306 12.2483 30.7342 12.2775 30.737 12.2996C30.7384 12.3106 30.7396 12.32 30.7405 12.3269C30.7409 12.3303 30.7414 12.3334 30.7417 12.3359C30.7419 12.3371 30.7421 12.3387 30.7424 12.3403C30.7425 12.3411 30.7427 12.3425 30.743 12.3442C30.7432 12.345 30.7434 12.3464 30.7438 12.3482C30.744 12.3493 30.7449 12.3536 30.7465 12.3591L31.0349 12.2767C31.0365 12.282 31.0374 12.2863 31.0376 12.2873C31.0379 12.2889 31.0381 12.2903 31.0383 12.2909C31.0385 12.2923 31.0387 12.2933 31.0387 12.2935C31.0388 12.2941 31.0388 12.2942 31.0387 12.2936C31.0386 12.2924 31.0383 12.2904 31.0379 12.2874C31.0371 12.2814 31.036 12.2727 31.0346 12.2621C31.032 12.2409 31.0285 12.2126 31.0251 12.1836C31.0217 12.1545 31.0185 12.1254 31.0163 12.1023C31.0151 12.0906 31.0143 12.0813 31.0138 12.0747C31.0131 12.0645 31.0138 12.0681 31.0133 12.0764L30.7138 12.0577ZM30.7464 12.3588L31.7818 16.0078L32.0704 15.926L31.035 12.2769L30.7464 12.3588ZM31.7927 15.8984C31.5723 16.3276 31.4598 16.811 31.4598 17.3208H31.7598C31.7598 16.8555 31.8624 16.4195 32.0596 16.0354L31.7927 15.8984ZM31.4598 17.3208C31.4598 17.8928 31.6261 18.4175 31.891 18.8828L32.1517 18.7344C31.9083 18.3068 31.7598 17.8328 31.7598 17.3208H31.4598ZM32.0214 18.6586H30.8767V18.9586H32.0214V18.6586ZM30.8767 18.6586C30.6414 18.6586 30.4045 18.7541 30.2366 18.921L30.4481 19.1338C30.5586 19.0239 30.719 18.9586 30.8767 18.9586V18.6586ZM30.2363 18.9213C30.0722 19.0854 29.9676 19.3155 29.9676 19.5543H30.2676C30.2676 19.4016 30.3357 19.2461 30.4484 19.1335L30.2363 18.9213ZM29.9676 19.5543V23.6451H30.2676V19.5543H29.9676ZM30.1176 23.4951H27.3642V23.7951H30.1176V23.4951ZM27.5142 23.6451V19.5543H27.2142V23.6451H27.5142ZM27.5142 19.5543C27.5142 19.3229 27.429 19.0907 27.2597 18.9214L27.0476 19.1335C27.1551 19.2411 27.2142 19.3944 27.2142 19.5543H27.5142ZM27.2597 18.9214C27.0947 18.7563 26.8726 18.6587 26.6351 18.6587V18.9587C26.7889 18.9587 26.9359 19.0218 27.0476 19.1335L27.2597 18.9214ZM26.6351 18.6587H25.7278V18.9587H26.6351V18.6587ZM25.8733 18.7723L25.5012 17.2842L25.2101 17.3569L25.5822 18.8451L25.8733 18.7723ZM25.3557 17.4705H26.263V17.1705H25.3557V17.4705ZM26.263 17.4705C26.7603 17.4705 27.1422 17.0683 27.1422 16.578H26.8422C26.8422 16.9097 26.5876 17.1705 26.263 17.1705V17.4705ZM27.1422 16.578V6.16095H26.8422V16.578H27.1422ZM27.1422 6.16095C27.1422 5.67156 26.7611 5.26534 26.263 5.26534V5.56534C26.5868 5.56534 26.8422 5.82846 26.8422 6.16095H27.1422ZM26.263 5.26534H25.1318V5.56534H26.263V5.26534ZM25.2818 5.41534V3.18468H24.9818V5.41534H25.2818ZM25.2818 3.18468C25.2818 2.6953 24.9007 2.28907 24.4025 2.28907V2.58907C24.7264 2.58907 24.9818 2.85219 24.9818 3.18468H25.2818ZM24.4025 2.28907H21.4259V2.58907H24.4025V2.28907ZM21.4259 2.28907C20.9355 2.28907 20.5168 2.68745 20.5168 3.18468H20.8168C20.8168 2.86004 21.0942 2.58907 21.4259 2.58907V2.28907ZM20.5168 3.18468V5.41534H20.8168V3.18468H20.5168ZM20.6668 5.26534H19.5656V5.56534H20.6668V5.26534ZM19.5656 5.26534C19.0752 5.26534 18.6565 5.66372 18.6565 6.16095H18.9565C18.9565 5.83631 19.2339 5.56534 19.5656 5.56534V5.26534ZM18.6565 6.16095V16.5781H18.9565V6.16095H18.6565ZM18.6565 16.5781C18.6565 17.0761 19.0761 17.4706 19.5656 17.4706V17.1706C19.2332 17.1706 18.9565 16.9019 18.9565 16.5781H18.6565ZM19.5656 17.4706H20.4729V17.1706H19.5656V17.4706ZM20.3273 17.2842L19.9552 18.7724L20.2463 18.8452L20.6184 17.357L20.3273 17.2842ZM20.1008 18.6588H19.1935V18.9588H20.1008V18.6588ZM19.1935 18.6588C18.9582 18.6588 18.7212 18.7542 18.5533 18.9212L18.7648 19.1339C18.8754 19.024 19.0358 18.9588 19.1935 18.9588V18.6588ZM18.553 18.9215C18.3889 19.0856 18.2843 19.3157 18.2843 19.5544H18.5843C18.5843 19.4018 18.6525 19.2463 18.7652 19.1336L18.553 18.9215ZM18.2843 19.5544V23.6452H18.5843V19.5544H18.2843ZM18.4343 23.4952H13.5973V23.7952H18.4343V23.4952ZM13.7473 23.6452V19.5543H13.4473V23.6452H13.7473ZM13.7473 19.5543C13.7473 19.3229 13.662 19.0907 13.4928 18.9214L13.2806 19.1335C13.3881 19.2411 13.4473 19.3944 13.4473 19.5543H13.7473ZM13.4928 18.9214C13.3277 18.7563 13.1056 18.6587 12.8681 18.6587V18.9587C13.022 18.9587 13.1689 19.0218 13.2806 19.1335L13.4928 18.9214ZM12.8681 18.6587H11.3648V18.9587H12.8681V18.6587ZM11.5148 18.8087V17.0127H11.2148V18.8087H11.5148ZM11.4059 17.1569C14.8912 16.1652 17.4755 12.9462 17.4755 9.13721H17.1755C17.1755 12.8074 14.6847 15.9121 11.3238 16.8684L11.4059 17.1569ZM17.4755 9.13722C17.4757 4.54135 13.7403 0.802393 9.14376 0.802393V1.10239C13.5745 1.10239 17.1757 4.70689 17.1755 9.13721L17.4755 9.13722ZM9.14376 0.802393C4.54745 0.802393 0.802393 4.54113 0.802393 9.13721H1.10239C1.10239 4.70711 4.71284 1.10239 9.14376 1.10239V0.802393ZM0.802393 9.13721C0.802393 12.9458 3.37333 16.1651 6.85896 17.1569L6.94106 16.8684C3.58056 15.9122 1.10239 12.8078 1.10239 9.13721H0.802393ZM6.75001 17.0127V18.8087H7.05001V17.0127H6.75001ZM6.90001 18.6587H5.42665V18.9587H6.90001V18.6587ZM5.42665 18.6587C5.19224 18.6587 4.95436 18.7541 4.78698 18.9214L4.99905 19.1336C5.10861 19.0241 5.26954 18.9587 5.42665 18.9587V18.6587ZM4.78695 18.9214C4.62311 19.0852 4.5175 19.3152 4.5175 19.5543H4.8175C4.8175 19.4021 4.88614 19.2465 4.99908 19.1335L4.78695 18.9214ZM4.5175 19.5543V30.3435H4.8175V19.5543H4.5175ZM4.5175 30.3435C4.5175 30.9813 4.77392 31.5787 5.22314 32.027L5.43507 31.8147C5.04039 31.4208 4.8175 30.8991 4.8175 30.3435H4.5175ZM5.22294 32.0268C5.67275 32.4774 6.27977 32.7241 6.91489 32.7241V32.4241C6.3579 32.4241 5.82772 32.208 5.43526 31.8149L5.22294 32.0268ZM6.91489 32.7241H15.2168V32.4241H6.91489V32.7241ZM15.2168 32.7241C15.2513 32.7241 15.2917 32.7206 15.3302 32.7057C15.3715 32.6897 15.4198 32.6564 15.443 32.5954C15.4645 32.539 15.4534 32.487 15.442 32.4551C15.4303 32.4223 15.4123 32.3933 15.3954 32.3699C15.3309 32.2808 15.2088 32.1761 15.0913 32.084C14.969 31.9882 14.8346 31.8932 14.7315 31.8226C14.6798 31.7871 14.6356 31.7576 14.6042 31.7369C14.5886 31.7265 14.5761 31.7184 14.5675 31.7128C14.5632 31.71 14.5599 31.7078 14.5576 31.7063C14.5564 31.7056 14.5555 31.705 14.5549 31.7046C14.5546 31.7044 14.5544 31.7043 14.5542 31.7042C14.5541 31.7041 14.5541 31.7041 14.554 31.704C14.554 31.704 14.554 31.704 14.554 31.704C14.554 31.704 14.5539 31.704 14.4727 31.8301C14.3915 31.9562 14.3915 31.9562 14.3915 31.9562C14.3915 31.9562 14.3915 31.9562 14.3915 31.9562C14.3915 31.9562 14.3915 31.9562 14.3916 31.9563C14.3917 31.9563 14.3919 31.9564 14.3921 31.9566C14.3926 31.9569 14.3934 31.9574 14.3944 31.9581C14.3965 31.9594 14.3996 31.9614 14.4037 31.9641C14.4118 31.9694 14.4237 31.9772 14.4388 31.9872C14.469 32.0072 14.5118 32.0358 14.562 32.0701C14.6626 32.139 14.7912 32.23 14.9063 32.3202C15.0262 32.4141 15.1159 32.4954 15.1524 32.5458C15.1607 32.5573 15.161 32.5603 15.1594 32.5558C15.1581 32.5522 15.1489 32.5249 15.1626 32.4888C15.178 32.4482 15.209 32.4309 15.2221 32.4258C15.2324 32.4219 15.2337 32.4241 15.2168 32.4241V32.7241ZM14.4727 31.8301C14.5539 31.9562 14.554 31.9562 14.554 31.9561C14.554 31.9561 14.554 31.9561 14.554 31.9561C14.5541 31.9561 14.5542 31.956 14.5542 31.956C14.5544 31.9559 14.5546 31.9557 14.5549 31.9555C14.5556 31.9551 14.5564 31.9546 14.5576 31.9538C14.5599 31.9523 14.5632 31.9502 14.5675 31.9474C14.5761 31.9418 14.5886 31.9336 14.6042 31.9232C14.6356 31.9025 14.6798 31.873 14.7315 31.8376C14.8346 31.767 14.969 31.6719 15.0913 31.5761C15.2088 31.4841 15.3308 31.3793 15.3953 31.2903C15.4122 31.2669 15.4303 31.2379 15.442 31.205C15.4533 31.1732 15.4644 31.1211 15.443 31.0647C15.4198 31.0037 15.3715 30.9704 15.3302 30.9545C15.2917 30.9396 15.2513 30.936 15.2168 30.936V31.236C15.2336 31.236 15.2324 31.2383 15.2221 31.2343C15.209 31.2292 15.178 31.2119 15.1626 31.1713C15.1488 31.1352 15.1581 31.1079 15.1594 31.1044C15.161 31.0999 15.1607 31.1028 15.1523 31.1143C15.1158 31.1647 15.0262 31.246 14.9063 31.34C14.7912 31.4302 14.6626 31.5211 14.562 31.5901C14.5118 31.6244 14.469 31.653 14.4388 31.673C14.4237 31.683 14.4118 31.6908 14.4036 31.6961C14.3996 31.6987 14.3965 31.7007 14.3944 31.7021C14.3934 31.7027 14.3926 31.7032 14.3921 31.7035C14.3919 31.7037 14.3917 31.7038 14.3916 31.7039C14.3915 31.7039 14.3915 31.704 14.3915 31.704C14.3915 31.704 14.3915 31.704 14.3915 31.704C14.3915 31.704 14.3915 31.704 14.4727 31.8301ZM15.2168 30.936H6.91497V31.236H15.2168V30.936ZM6.91497 30.936C6.58411 30.936 6.30589 30.6663 6.30589 30.3435H6.00589C6.00589 30.8406 6.42722 31.236 6.91497 31.236V30.936ZM6.30589 30.3435V20.2969H6.00589V30.3435H6.30589ZM6.15589 20.4469H12.1092V20.1469H6.15589V20.4469ZM11.9592 20.2969V24.3909H12.2592V20.2969H11.9592ZM11.9592 24.3909C11.9592 24.63 12.064 24.8585 12.2289 25.0225L12.4405 24.8098C12.327 24.697 12.2592 24.5431 12.2592 24.3909H11.9592ZM12.2286 25.0223C12.3965 25.19 12.6339 25.2834 12.8683 25.2834V24.9834C12.7098 24.9834 12.5498 24.9191 12.4407 24.8101L12.2286 25.0223ZM12.8683 25.2834H19.1937V24.9834H12.8683V25.2834ZM19.1937 25.2834C19.4304 25.2834 19.6527 25.1878 19.8184 25.0222L19.6062 24.8101C19.495 24.9213 19.3483 24.9834 19.1937 24.9834V25.2834ZM19.8184 25.0222C19.9874 24.8532 20.0729 24.6234 20.0729 24.3909H19.7729C19.7729 24.5511 19.714 24.7023 19.6062 24.8101L19.8184 25.0222ZM20.0729 24.3909V20.2969H19.7729V24.3909H20.0729ZM19.9229 20.4469H25.8761V20.1469H19.9229V20.4469ZM25.7261 20.2969V24.3909H26.0261V20.2969H25.7261ZM25.7261 24.3909C25.7261 24.6299 25.831 24.8584 25.9948 25.0222L26.207 24.8101C26.0941 24.6972 26.0261 24.5432 26.0261 24.3909H25.7261ZM25.9951 25.0225C26.1635 25.19 26.4008 25.2834 26.6353 25.2834V24.9834C26.4768 24.9834 26.3166 24.9191 26.2067 24.8098L25.9951 25.0225ZM26.6353 25.2834H30.8769V24.9834H26.6353V25.2834ZM30.8769 25.2834C31.1137 25.2834 31.336 25.1878 31.5016 25.0222L31.2895 24.8101C31.1783 24.9213 31.0316 24.9834 30.8769 24.9834V25.2834ZM31.5016 25.0222C31.6707 24.8532 31.7561 24.6226 31.7561 24.3909H31.4561C31.4561 24.5505 31.3972 24.7024 31.2895 24.8101L31.5016 25.0222ZM31.7561 24.3909V20.2969H31.4561V24.3909H31.7561ZM31.6061 20.4469H37.5594V20.1469H31.6061V20.4469ZM37.4094 20.2969V30.3435H37.7094V20.2969H37.4094ZM37.4094 30.3435C37.4094 30.6741 37.1532 30.936 36.8301 30.936V31.236C37.3257 31.236 37.7094 30.8328 37.7094 30.3435H37.4094ZM36.8301 30.936H28.1234V31.236H36.8301V30.936ZM28.1234 30.936C27.4872 30.936 26.8811 31.1852 26.4309 31.6347L26.6428 31.847C27.0365 31.4541 27.5661 31.236 28.1234 31.236V30.936ZM26.4308 31.6348C25.9823 32.0832 25.7261 32.6829 25.7261 33.3198H26.0261C26.0261 32.7648 26.249 32.2408 26.6429 31.8469L26.4308 31.6348ZM25.7261 33.3198V37.5595H26.0261V33.3198H25.7261ZM25.8761 37.4095H19.937V37.7095H25.8761V37.4095ZM20.087 37.5596L20.0877 33.3191L19.7877 33.319L19.787 37.5595L20.087 37.5596ZM20.0877 33.3189C20.0869 32.6832 19.839 32.0837 19.3897 31.6344L19.1776 31.8466C19.5705 32.2395 19.787 32.7628 19.7877 33.3192L20.0877 33.3189ZM19.3896 31.6343C18.9397 31.1853 18.3414 30.936 17.7053 30.936V31.236C18.2613 31.236 18.7837 31.4534 19.1777 31.8467L19.3896 31.6343ZM17.7053 30.936H15.2168V31.236H17.7053V30.936ZM15.2168 30.936C14.7239 30.936 14.3227 31.3372 14.3227 31.8301H14.6227C14.6227 31.503 14.8896 31.236 15.2168 31.236V30.936ZM14.3227 31.8301C14.3227 32.3237 14.724 32.7241 15.2168 32.7241V32.4241C14.8895 32.4241 14.6227 32.1578 14.6227 31.8301H14.3227ZM15.2168 32.7241H17.7053V32.4241H15.2168V32.7241ZM17.7053 32.7241C18.0274 32.7241 18.2845 32.989 18.2845 33.3197H18.5845C18.5845 32.832 18.2018 32.4241 17.7053 32.4241V32.7241ZM18.2845 33.3197V38.3051H18.5845V33.3197H18.2845ZM18.2845 38.3051C18.2845 38.5442 18.3894 38.7727 18.5543 38.9367L18.7658 38.724C18.6524 38.6112 18.5845 38.4573 18.5845 38.3051H18.2845ZM18.554 38.9365C18.7219 39.1042 18.9592 39.1976 19.1937 39.1976V38.8976C19.0351 38.8976 18.8752 38.8333 18.7661 38.7243L18.554 38.9365ZM19.1937 39.1976H26.6353V38.8976H19.1937V39.1976ZM26.6353 39.1976C26.8722 39.1976 27.0936 39.1019 27.2597 38.9367L27.0481 38.724C26.9359 38.8356 26.7897 38.8976 26.6353 38.8976V39.1976ZM27.2599 38.9364C27.429 38.7674 27.5144 38.5368 27.5144 38.3051H27.2144C27.2144 38.4647 27.1556 38.6166 27.0478 38.7243L27.2599 38.9364ZM27.5144 38.3051V33.3197H27.2144V38.3051H27.5144ZM27.5144 33.3197C27.5144 32.9967 27.7929 32.7241 28.1235 32.7241V32.4241C27.634 32.4241 27.2144 32.8243 27.2144 33.3197H27.5144ZM28.1235 32.7241H36.8301V32.4241H28.1235V32.7241ZM36.8301 32.7241C37.4671 32.7241 38.0581 32.4766 38.5072 32.0268L38.2949 31.8149C37.9016 32.2088 37.3868 32.4241 36.8301 32.4241V32.7241ZM38.507 32.027C38.9581 31.5768 39.1977 30.9787 39.1977 30.3435H38.8977C38.8977 30.9017 38.6879 31.4226 38.2951 31.8147L38.507 32.027ZM39.1977 30.3435V19.5543H38.8977V30.3435H39.1977ZM39.1977 19.5543C39.1976 19.3229 39.1124 19.0907 38.9431 18.9214L38.731 19.1335C38.8385 19.241 38.8976 19.3944 38.8977 19.5544L39.1977 19.5543ZM2.60001 9.13721C2.60001 5.52751 5.5373 2.59049 9.14741 2.59049V2.29049C5.37165 2.29049 2.30001 5.3618 2.30001 9.13721H2.60001ZM9.14741 2.59049C12.7575 2.59049 15.6948 5.52751 15.6948 9.13721H15.9948C15.9948 5.3618 12.9232 2.29049 9.14741 2.29049V2.59049ZM15.6948 9.13721C15.6948 12.7469 12.7575 15.6839 9.14741 15.6839V15.9839C12.9232 15.9839 15.9948 12.9126 15.9948 9.13721H15.6948ZM9.14741 15.6839C5.5373 15.6839 2.60001 12.7469 2.60001 9.13721H2.30001C2.30001 12.9126 5.37165 15.9839 9.14741 15.9839V15.6839ZM9.87665 18.6587H8.38833V18.9587H9.87665V18.6587ZM8.53833 18.8087V17.2879H8.23833V18.8087H8.53833ZM8.3735 17.4371C8.60242 17.4599 8.87753 17.472 9.13245 17.472V17.172C8.88574 17.172 8.62067 17.1602 8.40316 17.1386L8.3735 17.4371ZM9.13245 17.472C9.38738 17.472 9.66249 17.4599 9.8914 17.4371L9.86175 17.1386C9.64423 17.1602 9.37916 17.172 9.13245 17.172V17.472ZM9.72657 17.2879L9.72665 18.8087L10.0266 18.8087L10.0266 17.2879L9.72657 17.2879ZM22.1553 4.07717H23.6436V3.77717H22.1553V4.07717ZM23.4936 3.92717V5.41534H23.7936V3.92717H23.4936ZM23.6436 5.26534H22.1553V5.56534H23.6436V5.26534ZM22.3053 5.41534V3.92717H22.0053V5.41534H22.3053ZM20.4449 15.8324V6.90343H20.1449V15.8324H20.4449ZM20.2949 7.05343H25.504V6.75343H20.2949V7.05343ZM25.354 6.90343V15.8324H25.654V6.90343H25.354ZM25.504 15.6824H20.2949V15.9824H25.504V15.6824ZM21.7805 18.8451L22.1526 17.3569L21.8616 17.2842L21.4895 18.7723L21.7805 18.8451ZM22.0071 17.4705H23.8217V17.1705H22.0071V17.4705ZM23.6761 17.3569L24.0482 18.8451L24.3393 18.7723L23.9672 17.2842L23.6761 17.3569ZM24.1938 18.6587H21.635V18.9587H24.1938V18.6587ZM34.5976 18.6603C33.8598 18.6603 33.2593 18.0598 33.2593 17.3221H32.9593C32.9593 18.2255 33.6942 18.9603 34.5976 18.9603V18.6603ZM33.2593 17.3221C33.2593 16.5844 33.8598 15.9839 34.5976 15.9839V15.6839C33.6942 15.6839 32.9593 16.4187 32.9593 17.3221H33.2593ZM34.5976 15.9839C35.3354 15.9839 35.936 16.5844 35.936 17.3221H36.236C36.236 16.4187 35.5011 15.6839 34.5976 15.6839V15.9839ZM35.936 17.3221C35.936 18.0598 35.3354 18.6603 34.5976 18.6603V18.9603C35.5011 18.9603 36.236 18.2255 36.236 17.3221H35.936ZM36.127 14.596C35.6746 14.3412 35.1529 14.1954 34.5976 14.1954V14.4954C35.0997 14.4954 35.5709 14.6271 35.9798 14.8574L36.127 14.596ZM34.5976 14.1954C34.0425 14.1954 33.5208 14.341 33.0682 14.5958L33.2154 14.8572C33.6244 14.6269 34.0956 14.4954 34.5976 14.4954V14.1954ZM33.2861 14.6853L32.7518 12.8149L32.4633 12.8973L32.9976 14.7677L33.2861 14.6853ZM32.6075 13.0061H36.5877V12.7061H32.6075V13.0061ZM36.4434 12.8149L35.9092 14.6855L36.1977 14.7679L36.7319 12.8973L36.4434 12.8149ZM32.5628 11.3773L32.8419 6.91287L32.5425 6.89415L32.2634 11.3586L32.5628 11.3773ZM32.6922 7.05351H36.5031V6.75351H32.6922V7.05351ZM36.3534 6.91287L36.6324 11.3773L36.9319 11.3586L36.6528 6.89415L36.3534 6.91287ZM36.7822 11.2179H32.4131V11.5179H36.7822V11.2179Z" fill="#EC3D3D" mask="url(#path-7-outside-1)"/>
<path d="M12.3506 6.86012C12.803 6.86012 13.1697 6.49339 13.1697 6.041C13.1697 5.58861 12.803 5.22187 12.3506 5.22187C11.8982 5.22187 11.5314 5.58861 11.5314 6.041C11.5314 6.49339 11.8982 6.86012 12.3506 6.86012Z" fill="#EC3D3D" stroke="#EC3D3D" stroke-width="0.15"/>
</svg>
