<svg width="40" height="36" viewBox="0 0 40 36" fill="none" xmlns="http://www.w3.org/2000/svg">
<path d="M39.0432 2.98087L26.4907 0.637125C26.303 0.602047 26.1096 0.613375 25.9273 0.670172L13.6886 4.47892L1.455 1.43314C1.105 1.34587 0.734375 1.42486 0.450234 1.64697C0.166016 1.86916 0 2.20962 0 2.57033V31.0859C0 31.6242 0.366563 32.0931 0.88875 32.2231L13.4406 35.3481C13.5337 35.3713 13.6287 35.3828 13.7238 35.3828C13.8413 35.3828 13.9587 35.3651 14.072 35.3299L26.3463 31.51L38.613 33.8004C38.9555 33.8644 39.3088 33.7727 39.5769 33.5499C39.8449 33.3273 40 32.9969 40 32.6484V4.13283C40 3.56853 39.5979 3.08447 39.0432 2.98087ZM37.6562 31.2375L26.4908 29.1527C26.303 29.1177 26.1097 29.1291 25.9274 29.1858L13.6886 32.9945L2.34375 30.1701V4.06978L13.4406 6.83251C13.6487 6.88439 13.8671 6.87806 14.072 6.81431L26.3463 2.99447L37.6562 5.10619V31.2375Z" fill="#EC3D3D"/>
<path d="M25.9288 7.03735L13.6587 10.8403L8.52618 9.37368C8.17274 9.27266 7.79211 9.34344 7.49852 9.56485C7.20493 9.78633 7.03235 10.1327 7.03235 10.5005V26.3985C7.03235 26.9201 7.37704 27.3788 7.8779 27.5241L9.05782 27.8662C9.67969 28.0466 10.3295 27.6886 10.5097 27.067C10.6899 26.4453 10.3321 25.7953 9.71047 25.6152L9.3761 25.5182V21.112L13.4045 22.2523C13.509 22.2819 13.6164 22.2966 13.7238 22.2966C13.8404 22.2966 13.9569 22.2792 14.0695 22.2445L17.6117 21.1508C18.1029 20.9991 18.4379 20.5451 18.4379 20.031V18.1954C18.4379 17.5482 17.9132 17.0235 17.266 17.0235C16.6188 17.0235 16.0941 17.5482 16.0941 18.1954V19.1663L13.7094 19.9027L9.3761 18.676V18.6488V12.0541L13.3503 13.1897C13.5692 13.2522 13.8016 13.2497 14.0192 13.1823L15.0127 12.8744C15.0127 12.8762 15.0128 12.8781 15.0129 12.8798L16.0942 12.5508V13.5079C16.0942 14.1551 16.6189 14.6798 17.2661 14.6798C17.9133 14.6798 18.438 14.1551 18.438 13.5079V11.8127L26.3717 9.35375L30.6259 9.95563V15.1941L29.5947 15.077C28.9515 15.0039 28.3712 15.4663 28.2982 16.1093C28.2252 16.7524 28.6873 17.3329 29.3305 17.4059L30.6259 17.5528V17.8393V23.4866L26.4398 22.8944C26.2693 22.8702 26.0954 22.884 25.9307 22.9348L23.8588 23.573V17.7652L24.9845 17.4223C25.6037 17.2337 25.9527 16.5789 25.7641 15.9598C25.5755 15.3407 24.9209 14.9916 24.3016 15.1802L22.3454 15.7759C21.8521 15.9262 21.515 16.3813 21.515 16.897V24.2948L13.2492 26.8409C12.6307 27.0315 12.2838 27.6873 12.4742 28.3059C12.6294 28.8095 13.093 29.1331 13.5938 29.1331C13.7081 29.1331 13.8243 29.1162 13.9391 29.0809L26.3706 25.2516L31.6336 25.9963C31.9695 26.0437 32.3098 25.9433 32.5661 25.7207C32.8224 25.4981 32.9696 25.1754 32.9696 24.8359V8.93797C32.9696 8.35415 32.5399 7.85946 31.9619 7.77766L26.4398 6.99641C26.2686 6.97219 26.094 6.98618 25.9288 7.03735Z" fill="#EC3D3D"/>
</svg>
