<svg width="40" height="40" viewBox="0 0 40 40" fill="none" xmlns="http://www.w3.org/2000/svg">
<path d="M33.1178 11.2724H17.0289L17.0389 8.4229C17.0389 7.68447 17.4408 6.8875 18.0902 6.8875H32.8321C33.4821 6.8875 34.009 6.36059 34.009 5.71065C34.009 2.58157 31.4634 0.0358887 28.3343 0.0358887H10.6878C6.58431 0.0358887 3.5318 3.60135 3.5318 7.67019C3.50168 13.7863 3.61724 9.00504 2.88501 32.0349C1.22071 32.5172 0 34.054 0 35.8716V38.7027C0 39.3526 0.526915 39.8795 1.17685 39.8795H19.9398C20.5898 39.8795 21.1167 39.3526 21.1167 38.7027V35.8717C21.1167 34.0513 19.8922 32.5124 18.2238 32.0328L17.8948 22.6307C17.8675 21.8555 18.487 21.2138 19.2638 21.2138H28.6504V24.534C28.6504 25.184 29.1773 25.7109 29.8272 25.7109H36.274C36.924 25.7109 37.4509 25.184 37.4509 24.534V21.2138H38.8231C39.473 21.2138 39.9999 20.6868 39.9999 20.0369V18.1547C40 14.3598 36.9127 11.2724 33.1178 11.2724ZM10.6878 2.38966H28.3344C29.7514 2.38966 30.964 3.28187 31.44 4.53388H18.0902C15.9588 4.53388 14.6852 6.5113 14.6852 8.41882L14.6752 11.2725H5.86777L5.8855 7.67607C5.8855 4.76109 8.03984 2.38966 10.6878 2.38966ZM18.763 35.8716V37.5258H2.3537V35.8717C2.3537 34.9669 3.08993 34.2306 3.99477 34.2306H17.1219C18.0268 34.2306 18.763 34.9668 18.763 35.8716ZM35.0972 23.3572H31.0042V21.2138H35.0972V23.3572ZM37.6463 18.8601H19.2639C17.1541 18.8601 15.468 20.6046 15.5426 22.7134L15.8632 31.8769H5.24482L5.82509 13.6261H33.1178C35.6148 13.6261 37.6463 15.6576 37.6463 18.1547V18.8601Z" fill="#EC3D3D"/>
<path d="M33.9906 29.2319C33.5198 28.6074 32.5812 28.6084 32.1111 29.2319C31.047 30.6446 28.8009 33.9074 28.8009 35.7142C28.8009 38.0577 30.7075 39.9642 33.0509 39.9642C35.3943 39.9642 37.3008 38.0577 37.3008 35.7142C37.3008 33.91 35.0428 30.6276 33.9906 29.2319ZM33.0509 37.6104C32.0053 37.6104 31.1546 36.7597 31.1546 35.7141C31.1546 35.1149 32.0252 33.5114 33.0511 31.9753C34.0769 33.5104 34.9471 35.1135 34.9471 35.7141C34.9471 36.7598 34.0965 37.6104 33.0509 37.6104Z" fill="#EC3D3D"/>
</svg>
