<svg width="40" height="40" viewBox="0 0 40 40" fill="none" xmlns="http://www.w3.org/2000/svg">
<path d="M36.7993 5.39062H6.61926C4.85443 5.39062 3.41858 6.82648 3.41858 8.59131V12.0682H2.37549V10.5637C2.37549 9.90784 1.84357 9.37592 1.18774 9.37592C0.531921 9.37592 0 9.90784 0 10.5637V15.9479C0 16.6037 0.531921 17.1356 1.18774 17.1356C1.84357 17.1356 2.37549 16.6037 2.37549 15.9479V14.4434H3.41858V31.4856C3.41858 33.2507 4.85443 34.6863 6.61926 34.6863H36.7993C38.5641 34.6863 40 33.2507 40 31.4856V8.59131C40 6.82648 38.5641 5.39062 36.7993 5.39062ZM37.6245 31.4856C37.6245 31.9409 37.2543 32.3111 36.7993 32.3111H6.61926C6.16425 32.3111 5.79376 31.9409 5.79376 31.4856V8.59131C5.79376 8.13629 6.16425 7.76611 6.61926 7.76611H36.7993C37.2543 7.76611 37.6245 8.13629 37.6245 8.59131V31.4856Z" fill="#EC3D3D"/>
<path d="M8.78137 8.95361C8.12555 8.95361 7.59363 9.48553 7.59363 10.1414V30.0947C7.59363 30.7505 8.12555 31.2824 8.78137 31.2824C9.4375 31.2824 9.96912 30.7505 9.96912 30.0947V10.1414C9.96912 9.48553 9.4375 8.95361 8.78137 8.95361Z" fill="#EC3D3D"/>
<path d="M13.0908 8.95361C12.4347 8.95361 11.9031 9.48553 11.9031 10.1414V30.0947C11.9031 30.7505 12.4347 31.2824 13.0908 31.2824C13.7466 31.2824 14.2786 30.7505 14.2786 30.0947V10.1414C14.2786 9.48553 13.7466 8.95361 13.0908 8.95361Z" fill="#EC3D3D"/>
<path d="M17.4 8.95361C16.7441 8.95361 16.2125 9.48553 16.2125 10.1414V30.0947C16.2125 30.7505 16.7441 31.2824 17.4 31.2824C18.0561 31.2824 18.5877 30.7505 18.5877 30.0947V10.1414C18.5877 9.48553 18.0561 8.95361 17.4 8.95361Z" fill="#EC3D3D"/>
<path d="M21.7094 8.95361C21.0532 8.95361 20.5216 9.48553 20.5216 10.1414V30.0947C20.5216 30.7505 21.0532 31.2824 21.7094 31.2824C22.3652 31.2824 22.8971 30.7505 22.8971 30.0947V10.1414C22.8971 9.48553 22.3652 8.95361 21.7094 8.95361Z" fill="#EC3D3D"/>
<path d="M26.0184 8.95361C25.3625 8.95361 24.8309 9.48553 24.8309 10.1414V30.0947C24.8309 30.7505 25.3625 31.2824 26.0184 31.2824C26.6745 31.2824 27.2061 30.7505 27.2061 30.0947V10.1414C27.2061 9.48553 26.6745 8.95361 26.0184 8.95361Z" fill="#EC3D3D"/>
<path d="M30.3278 8.95361C29.6719 8.95361 29.14 9.48553 29.14 10.1414V30.0947C29.14 30.7505 29.6719 31.2824 30.3278 31.2824C30.9836 31.2824 31.5155 30.7505 31.5155 30.0947V10.1414C31.5155 9.48553 30.9836 8.95361 30.3278 8.95361Z" fill="#EC3D3D"/>
<path d="M34.6372 8.95361C33.9811 8.95361 33.4495 9.48553 33.4495 10.1414V30.0947C33.4495 30.7505 33.9811 31.2824 34.6372 31.2824C35.293 31.2824 35.8246 30.7505 35.8246 30.0947V10.1414C35.8246 9.48553 35.293 8.95361 34.6372 8.95361Z" fill="#EC3D3D"/>
</svg>
