<svg width="105" height="115" viewBox="0 0 105 115" fill="none" xmlns="http://www.w3.org/2000/svg">
<path fill-rule="evenodd" clip-rule="evenodd" d="M24.122 1.1716C27.9401 12.2813 28.561 21.2356 27.143 29.6062C25.7153 38.0341 22.2028 45.9951 17.5417 55.1113C15.0273 60.0288 14.1533 66.2972 14.1746 72.77C14.196 79.2657 15.1203 86.1274 16.3281 92.3583C17.5374 98.5968 19.0403 104.25 20.2395 108.341C20.8396 110.388 21.3646 112.047 21.7405 113.197C21.9285 113.773 22.0792 114.22 22.1835 114.526C22.2356 114.679 22.2761 114.796 22.3039 114.876L22.3358 114.967L22.3443 114.991L22.3473 115C22.3475 115.001 22.3476 115.001 23.5802 114.4C24.8128 113.799 24.8129 113.799 24.8129 113.799L24.8041 113.774L24.7755 113.692C24.7499 113.619 24.7116 113.508 24.6618 113.362C24.562 113.07 24.416 112.636 24.233 112.076C23.8668 110.955 23.3525 109.33 22.7638 107.322C21.5856 103.303 20.1132 97.7617 18.9311 91.6635C17.7475 85.5578 16.8644 78.9408 16.8441 72.7579C16.8378 70.8423 16.9144 68.9835 17.0868 67.2049C23.0623 70.944 29.8123 76.3187 35.5501 81.1159C37.899 83.0797 40.0653 84.9355 41.9338 86.5363C42.5581 87.0711 43.1492 87.5775 43.7027 88.0499C44.804 88.9898 45.7611 89.7989 46.5291 90.4239C47.2714 91.0279 47.9109 91.5216 48.3438 91.7755C49.4568 92.4286 50.5154 92.9965 51.6102 93.2048V114.39H54.2797V92.9276C54.954 92.6562 55.6328 92.2365 56.3492 91.6822L56.4236 91.6246L56.4909 91.5559C66.849 80.973 73.269 75.3323 85.0473 67.4344C85.1657 69.2256 85.1847 71.0937 85.1183 73.0155C84.9051 79.1812 83.8178 85.7427 82.4468 91.7816C81.0776 97.813 79.4361 103.276 78.1356 107.235C77.4858 109.212 76.9222 110.811 76.522 111.913C76.3219 112.463 76.1628 112.89 76.0542 113.177C75.9999 113.321 75.9583 113.429 75.9305 113.502L75.8993 113.582L75.8902 113.606C75.8902 113.606 75.8899 113.606 77.1029 114.26C78.3158 114.914 78.316 114.913 78.3162 114.913L78.317 114.911L78.3287 114.881L78.3634 114.791L78.4202 114.642C78.4418 114.586 78.4666 114.521 78.4944 114.447C78.6079 114.147 78.7723 113.706 78.9777 113.141C79.3885 112.01 79.964 110.377 80.6263 108.362C81.9501 104.333 83.6255 98.7584 85.0264 92.588C86.4255 86.4251 87.5615 79.6207 87.7856 73.1425C88.0088 66.6872 87.3326 60.3969 84.9779 55.3835C80.6134 46.0908 77.3586 37.9999 76.1976 29.5331C75.0446 21.1241 75.9432 12.2203 80.0978 1.30402L77.6604 0.0266338C73.3257 11.4159 72.3149 20.9358 73.562 30.0308C74.745 38.6583 77.9474 46.7904 82.0498 55.6314C70.2689 59.4473 60.9238 61.2867 51.6132 61.2625C42.1268 61.2379 32.604 59.2786 20.5019 55.4023C24.8671 46.7581 28.3111 38.7773 29.7613 30.2169C31.2947 21.1649 30.581 11.5901 26.5978 0L24.122 1.1716ZM84.6904 64.0687C84.3892 62.06 83.9337 60.1823 83.3006 58.4751C71.1312 62.4535 61.3871 64.4204 51.6073 64.395C41.6211 64.3691 31.6727 62.266 19.1454 58.2139C18.4309 59.9466 17.9009 61.8701 17.5307 63.9397C23.8806 67.8022 31.1048 73.5531 37.0991 78.5647C39.4602 80.5387 41.6436 82.4091 43.5133 84.0109L43.515 84.0124L43.5172 84.0143C44.1388 84.5468 44.7256 85.0495 45.2728 85.5165C46.3734 86.4558 47.3092 87.2467 48.0503 87.8497C48.8171 88.4737 49.3031 88.8361 49.5376 88.9737C50.8829 89.7631 51.6695 90.115 52.3647 90.1537C52.9726 90.1877 53.6759 89.9842 54.807 89.1228C65.5195 78.1822 72.1453 72.4073 84.6904 64.0687Z" fill="#9E4F4A"/>
<path d="M52.0551 39.2104C53.2837 39.2104 54.2797 37.808 54.2797 36.0779C54.2797 34.3479 53.2837 32.9454 52.0551 32.9454C50.8265 32.9454 49.8305 34.3479 49.8305 36.0779C49.8305 37.808 50.8265 39.2104 52.0551 39.2104Z" fill="#9E4F4A"/>
<path d="M12.9156 14.5612L21.4099 24.5288C21.9312 25.1404 21.9312 26.1321 21.4099 26.7438L12.9156 36.7113C12.3944 37.323 11.5493 37.323 11.028 36.7113C10.5068 36.0997 10.5068 35.108 11.028 34.4963L17.2437 27.2025H0V24.07H17.2437L11.028 16.7762C10.5068 16.1646 10.5068 15.1729 11.028 14.5612C11.5493 13.9495 12.3944 13.9495 12.9156 14.5612Z" fill="#9E4F4A"/>
<path d="M83.5901 26.7438L92.0844 36.7113C92.6056 37.323 93.4507 37.323 93.972 36.7113C94.4932 36.0997 94.4932 35.108 93.972 34.4963L87.7563 27.2025H105V24.07H87.7563L93.972 16.7762C94.4932 16.1646 94.4932 15.1729 93.972 14.5612C93.4507 13.9495 92.6056 13.9495 92.0844 14.5612L83.5901 24.5288C83.0688 25.1404 83.0688 26.1321 83.5901 26.7438Z" fill="#9E4F4A"/>
</svg>
