<svg width="109" height="119" viewBox="0 0 109 119" fill="none" xmlns="http://www.w3.org/2000/svg">
<path d="M34.3354 12.3298C32.3825 14.8913 30.2264 15.9593 27.1577 16.8131L12.5253 20.8844C5.17751 22.9288 0.576944 30.3598 1.92453 38.0071L7.38407 68.9889L14.6638 105.008C16.1176 112.202 22.4638 117.263 29.6571 116.965L54.9163 115.981L79.464 116.989C86.7543 117.272 93.1447 112.057 94.4758 104.739L100.978 68.9889L106.457 37.9001C107.797 30.2976 103.257 22.9004 95.9683 20.8091C95.9683 20.8091 84.8077 17.6286 81.8676 16.8131C78.9275 15.9977 77.9474 15.4978 75.3947 13.6184M54.9163 27.4958V22.4966V15.9977M67.1669 6.49925L63.7367 11.4984M47.076 44.9929L44.6258 49.992M54.4263 9.49876V2.49992M54.4263 51.9917L54.4862 46.2482M36.6584 44.493L40.1385 41.6954L41.6857 40.4936M68.637 16.9975L74.0272 12.4983M30.8572 35.9944L36.6584 34.1921M72.0671 24.9962L78.9275 22.9965M29.9251 25.4961L37.6384 26.4022M72.0671 32.4949L77.9474 33.9947M33.8453 13.6184L40.2156 17.4974M68.637 38.9939L73.5372 42.9932M41.1957 6.99917L45.1159 11.9983M63.2467 44.493L65.6738 49.5922M20.6147 62.9899H89.2179M21.5948 72.9882H88.2379M23.5548 81.9867H86.2778M24.5349 90.9852H85.2978M79.4175 27.4958C79.4175 41.5767 68.2285 52.9915 54.4263 52.9915C40.6241 52.9915 29.4351 41.5767 29.4351 27.4958C29.4351 13.4148 40.6241 2 54.4263 2C68.2285 2 79.4175 13.4148 79.4175 27.4958ZM57.8565 29.9954C57.8565 31.6519 56.5401 32.9949 54.9163 32.9949C53.2925 32.9949 51.9762 31.6519 51.9762 29.9954C51.9762 28.3388 53.2925 26.9959 54.9163 26.9959C56.5401 26.9959 57.8565 28.3388 57.8565 29.9954Z" stroke="#9E4F4A" stroke-width="3"/>
</svg>
