<svg width="226" height="223" viewBox="0 0 226 223" fill="none" xmlns="http://www.w3.org/2000/svg">
<rect width="226" height="223" fill="#E5E5E5"/>
<g clip-path="url(#clip0)">
<rect width="1920" height="1080" transform="translate(-181 -71)" fill="white"/>
<path d="M85.3926 205.516L84.7132 205.277L86.1669 201.076L84.5532 200.51L83.0994 204.712L82.42 204.474C79.855 203.574 77.1455 204.666 76.2166 207.315C75.2877 209.965 76.694 212.537 79.259 213.437L79.9384 213.675L78.5629 217.599L80.1767 218.164L81.5522 214.24L82.2316 214.479C84.7966 215.378 87.518 214.253 88.4469 211.603C89.3758 208.953 87.9576 206.415 85.3926 205.516ZM80.0218 213.437L79.3593 213.205C77.7116 212.627 77.0179 210.362 77.8813 207.899C78.7447 205.436 80.6889 204.134 82.3366 204.711L83.0161 204.95L80.0218 213.437ZM82.315 214.241L81.6355 214.003L84.6298 205.515L85.2923 205.747C86.94 206.325 87.6456 208.556 86.7822 211.019C85.9188 213.482 83.9627 214.818 82.315 214.241Z" fill="#0C594B"/>
<path d="M59.9102 193.5C57.6088 191.923 55.7515 192.308 55.3567 192.343L55.3737 192.573C56.8938 192.393 58.3861 192.826 59.7373 193.752C61.2963 194.821 61.3075 196.683 60.2953 198.542L54.2371 194.391C52.5379 196.871 51.3892 199.248 54.5074 201.384C57.1801 203.216 59.7896 202.56 61.3464 200.288C62.9032 198.017 62.7166 195.423 59.9102 193.5ZM54.6702 201.147C51.9381 199.275 52.8201 197.064 54.3565 194.822L60.1473 198.79C59.0756 200.609 56.838 202.632 54.6702 201.147Z" fill="#0C594B"/>
<path d="M42.6505 178.97C40.7781 176.902 38.8821 176.846 38.4899 176.788L38.4531 177.016C39.9735 177.193 41.3244 177.962 42.4237 179.176C43.8491 180.75 43.1328 182.856 41.2512 184.559C39.0361 186.564 36.9379 186.473 35.7782 185.192C34.1474 183.39 34.2945 181.97 35.041 181.052L34.7823 180.873C33.9411 181.902 33.8977 183.544 35.5647 185.385C37.7392 187.787 40.4297 187.755 42.4713 185.907C44.513 184.059 44.9337 181.493 42.6505 178.97Z" fill="#0C594B"/>
<path d="M22.4836 167.14L30.061 162.841L29.2172 161.354L21.6398 165.652L19.8989 162.584L19.6484 162.726L23.9917 170.382L24.2422 170.24L22.4836 167.14Z" fill="#0C594B"/>
<path d="M22.2879 147.384C21.6824 145.348 21.3018 143.753 19.3721 142.505C18.1447 141.724 16.6729 141.448 14.852 141.577L20.097 140.017L19.6147 138.395L10.988 140.961L11.4704 142.582L12.5918 142.249C19.2973 140.612 21.0897 144.492 21.5071 145.832L13.1738 148.311L13.6613 149.95L22.2879 147.384Z" fill="#0C594B"/>
<path d="M7.65234 124.431L16.6422 124.005L16.4391 119.725C16.3359 117.55 16.2754 115.138 13.7583 115.257C11.9603 115.343 11.5346 116.246 11.4651 117.817C11.2015 116.82 10.592 116.129 9.20758 116.194C7.24778 116.287 7.1045 118.204 7.17363 119.661C7.27262 121.746 8.478 122.464 9.24339 122.644L7.57127 122.723L7.65234 124.431ZM11.6848 119.41C11.6115 117.864 12.0473 117.177 13.8633 117.091C16.0029 116.989 16.0704 118.031 16.1574 119.865L16.2735 122.31L11.8325 122.521L11.6848 119.41ZM7.42705 119.685C7.3767 118.624 7.72612 118.013 9.30833 117.937C11.1243 117.851 11.3742 118.56 11.4254 119.639L11.5628 122.534C10.8436 122.568 7.58919 123.101 7.42705 119.685Z" fill="#0C594B"/>
<path d="M17.6063 97.8576C18.1795 94.9434 15.9906 93.7608 13.7004 92.9067L18.1335 93.7786L18.46 92.1184L12.9142 91.0277C9.85878 90.4267 9.02759 92.1344 8.58642 94.3774C7.9785 97.4682 8.5964 98.617 9.64425 99.5386L10.8927 98.0414C11.0074 99.6966 12.0483 100.654 13.3906 100.918C16.6403 101.557 17.325 99.2882 17.6063 97.8576ZM11.28 96.6316L12.0651 92.6401C13.0403 92.9053 14.0406 93.3222 14.9599 93.7782C17.251 94.9076 17.6471 96.2513 17.338 97.8232C17.1295 98.8828 16.2213 99.6765 13.9076 99.2214C11.6999 98.7872 11.0716 97.6913 11.28 96.6316ZM10.8634 97.7238C9.46409 97.2834 8.43737 96.3477 8.81602 94.4226C9.25372 92.1972 9.98797 92.1949 11.7718 92.5457L10.9798 96.5726C10.8894 97.0318 10.8417 97.5544 10.8634 97.7238Z" fill="#0C594B"/>
<path d="M22.5341 78.0422L15.945 71.846L25.122 72.3773L25.8849 70.7074L16.2477 70.1439L15.4848 71.8139L22.3995 78.3369L22.5341 78.0422Z" fill="#0C594B"/>
<path d="M32.3132 59.0816L34.4199 56.3419C36.2742 53.9304 37.481 51.7703 34.9981 49.8611C32.8007 48.1714 30.6016 49.9091 29.2082 51.7213L27.8476 53.4907L26.2067 52.2289L25.1643 53.5845L32.3132 59.0816ZM33.1558 57.5724L28.0331 53.6334L29.3937 51.864C30.3702 50.594 31.889 49.741 33.9009 51.2881C35.9271 52.8461 35.7452 54.2048 34.2201 56.1883L33.1558 57.5724Z" fill="#0C594B"/>
<path d="M57.4203 22.68L61.6606 30.6185L65.5663 28.5323C66.4396 28.0658 67.5357 28.3987 68.0106 29.2878C68.477 30.161 68.1442 31.2571 67.2551 31.732C66.3818 32.1985 65.2857 31.8656 64.8193 30.9924L64.5494 31.1366C65.0922 32.1527 66.3831 32.5447 67.3992 32.0019C68.4312 31.4507 68.8232 30.1597 68.2805 29.1436C67.9073 28.445 67.2125 28.0611 66.4713 28.0489L69.4562 26.4545L65.2159 18.516L63.7075 19.3217L67.8122 27.0061L63.0332 29.5588L58.9286 21.8744L57.4203 22.68Z" fill="#0C594B"/>
<path d="M79.8884 12.2405L82.1698 20.9466L86.3138 19.8606C88.4207 19.3086 90.7676 18.7494 90.1288 16.3117C89.6726 14.5705 88.7007 14.3413 87.1494 14.599C88.0697 14.1345 88.6202 13.3948 88.2689 12.0541C87.7715 10.1562 85.8665 10.4135 84.4561 10.7831C82.4363 11.3123 81.9842 12.6403 81.9669 13.4264L81.5426 11.8071L79.8884 12.2405ZM85.6362 15.1444C87.1336 14.752 87.8965 15.0359 88.3574 16.7945C88.9003 18.8665 87.895 19.1486 86.1189 19.614L83.7509 20.2345L82.6239 15.9337L85.6362 15.1444ZM84.4852 11.036C85.5125 10.7668 86.1829 10.9818 86.5844 12.5141C87.0453 14.2727 86.4035 14.6642 85.3588 14.9379L82.5555 15.6725C82.373 14.9761 81.1769 11.9029 84.4852 11.036Z" fill="#0C594B"/>
<path d="M109.121 16.4851C111.911 16.4238 113.194 15.0273 113.495 14.7686L113.347 14.5919C112.217 15.6249 110.752 16.1432 109.114 16.1792C107.225 16.2207 106.13 14.7144 105.867 12.6137L113.21 12.4523C113.144 9.44707 112.69 6.8464 108.911 6.92942C105.672 7.00059 103.935 9.05525 103.995 11.8086C104.056 14.5619 105.72 16.5598 109.121 16.4851ZM108.918 7.21736C112.229 7.14461 112.802 9.45458 112.861 12.1719L105.843 12.3261C105.653 10.2238 106.29 7.27508 108.918 7.21736Z" fill="#0C594B"/>
<path d="M131.268 8.98669L129.557 17.529L131.233 17.8649L132.945 9.32256L136.404 10.0155L136.46 9.73312L127.83 8.00427L127.773 8.28666L131.268 8.98669Z" fill="#0C594B"/>
<path d="M149.708 13.4229L151.035 23.9004L149.821 23.3515C148.821 22.8991 147.605 23.3171 147.185 24.3324C146.721 25.4461 147.124 26.4776 148.19 26.9597C148.944 27.3009 149.786 27.1875 150.281 26.6607L158.975 17.6134L158.68 17.4799L152.665 23.7482L151.496 14.2314L149.708 13.4229ZM149.703 23.6139L151.851 24.5855L150.079 26.4511C149.661 26.8943 148.906 26.9479 148.283 26.6661C147.315 26.2285 147.175 25.0981 147.464 24.4585C147.85 23.6056 148.85 23.2283 149.703 23.6139Z" fill="#0C594B"/>
<path d="M167.883 32.7473L172.499 36.5434C173.086 37.1896 173.12 38.1965 172.548 38.8916C171.908 39.6701 170.768 39.7812 169.989 39.1409C169.225 38.512 169.114 37.3719 169.754 36.5934L169.518 36.399C168.775 37.3026 168.905 38.6454 169.795 39.3772C170.699 40.1204 172.042 39.9896 172.785 39.086C173.265 38.5021 173.371 37.7501 173.138 37.0694L176.683 39.9851L182.4 33.0341L181.079 31.9479L175.545 38.6764L173.127 36.6869L181.428 26.5941L180.107 25.5078L171.806 35.6007L169.387 33.6111L174.921 26.8826L173.6 25.7964L167.883 32.7473Z" fill="#0C594B"/>
<path d="M189.494 53.9606C191.217 56.3797 193.58 55.6024 195.775 54.5257L192.095 57.1467L193.076 58.5249L197.68 55.246C200.216 53.4394 199.547 51.662 198.221 49.8C196.393 47.2343 195.134 46.8936 193.745 47.0215L193.974 48.9573C192.693 47.9031 191.282 48.0016 190.168 48.7952C187.471 50.7167 188.648 52.773 189.494 53.9606ZM194.732 50.2075L197.092 53.521C196.229 54.0471 195.239 54.4873 194.276 54.8417C191.881 55.7299 190.633 55.0942 189.703 53.7893C189.077 52.9096 189.124 51.7044 191.045 50.3365C192.878 49.0312 194.105 49.3278 194.732 50.2075ZM194.225 49.1543C195.507 48.4404 196.892 48.3377 198.03 49.9358C199.346 51.7831 198.843 52.3181 197.362 53.3728L194.981 50.03C194.71 49.6488 194.363 49.255 194.225 49.1543Z" fill="#0C594B"/>
<path d="M205.017 73.1437L202.663 73.2631C201.941 73.2975 201.417 73.0017 201.229 72.4763C200.993 71.8338 201.266 71.2029 201.912 70.9276C202.213 70.8082 202.528 70.8193 202.818 70.9171L202.922 70.6434C202.562 70.5152 202.174 70.5139 201.806 70.6598C201.036 70.9648 200.652 71.8527 200.957 72.6225C201.203 73.2416 201.857 73.6215 202.669 73.5706L205.13 73.4282L206.323 76.4403C205.429 76.872 203.773 77.5284 203.187 77.7605L203.817 79.3502L212.167 76.0415L211.537 74.4517L208.676 75.5856C209.359 75.2569 211.546 73.7899 210.558 71.2965C209.749 69.255 208.477 67.8035 206.469 68.5992C204.528 69.3684 203.969 70.4997 205.017 73.1437ZM207.105 70.2057C208.929 69.4829 209.926 70.3853 210.317 71.3726C211.577 74.5521 207.455 75.8758 206.551 76.3308L205.351 73.3019C204.787 71.8795 205.148 70.9815 207.105 70.2057Z" fill="#0C594B"/>
<path d="M209.462 115.728C209.33 118.515 210.634 119.892 210.871 120.21L211.058 120.074C210.106 118.876 209.69 117.379 209.768 115.742C209.869 113.621 211.862 112.634 214.397 112.755C217.382 112.896 218.804 114.441 218.722 116.167C218.607 118.595 217.501 119.497 216.323 119.622L216.381 119.931C217.703 119.795 218.892 118.662 219.01 116.181C219.163 112.945 217.234 111.069 214.483 110.939C211.732 110.808 209.624 112.33 209.462 115.728Z" fill="#0C594B"/>
<path d="M206.539 136.931C205.692 139.778 207.759 141.163 209.959 142.23L205.628 140.942L205.146 142.564L210.563 144.175C213.548 145.063 214.537 143.441 215.189 141.25C216.087 138.231 215.58 137.029 214.625 136.012L213.24 137.384C213.283 135.726 212.337 134.674 211.026 134.284C207.851 133.34 206.955 135.534 206.539 136.931ZM212.721 138.751L211.561 142.65C210.616 142.294 209.659 141.784 208.787 141.243C206.613 139.902 206.346 138.527 206.803 136.991C207.111 135.956 208.09 135.252 210.35 135.924C212.507 136.565 213.029 137.716 212.721 138.751ZM213.239 137.703C214.59 138.274 215.524 139.303 214.965 141.183C214.318 143.357 213.587 143.29 211.844 142.772L213.014 138.838C213.148 138.39 213.245 137.874 213.239 137.703Z" fill="#0C594B"/>
<path d="M199.739 156.225L198.884 157.706L202.938 160.045L202.173 161.37C200.697 163.927 198.632 162.86 196.59 161.682L195.708 163.21C197.844 164.442 199.734 164.66 201.507 162.669L203.83 167.106L204.001 166.81L201.706 162.431C202.272 161.739 202.684 160.917 203.125 160.153L210.483 164.4L211.338 162.918L199.739 156.225Z" fill="#0C594B"/>
<path d="M195.024 180.123L184.688 177.952L185.604 176.984C186.358 176.186 186.361 174.9 185.539 174.172C184.638 173.369 183.531 173.413 182.727 174.263C182.158 174.864 181.99 175.696 182.326 176.336L188.035 187.51L188.257 187.275L184.299 179.541L193.676 181.548L195.024 180.123ZM185.395 176.786L183.774 178.499L182.59 176.214C182.308 175.675 182.504 174.944 182.974 174.447C183.704 173.675 184.818 173.912 185.328 174.394C186.008 175.037 186.038 176.106 185.395 176.786Z" fill="#0C594B"/>
<path d="M166.861 187.792C166.861 187.792 169.517 191.99 169.604 192.127C169.058 192.174 167.96 192.357 166.683 193.166C164.188 194.744 162.531 196.602 164.667 199.979C166.275 202.519 168.696 203.181 170.886 201.795C172.575 200.727 172.892 199.376 172.312 197.08C172.175 196.528 171.963 196.023 171.75 195.519L174.185 199.367L175.63 198.453L168.306 186.877L166.861 187.792ZM172.026 197.133C172.661 199.416 172.071 200.705 170.717 201.561C169.074 202.601 167.569 201.232 166.164 199.011C164.133 195.801 164.931 194.572 166.817 193.379C168.095 192.57 169.203 192.402 169.748 192.355C170.686 193.87 171.52 195.323 172.026 197.133Z" fill="#0C594B"/>
<path d="M146.377 203.534C143.553 204.454 143.588 206.942 143.96 209.358L142.559 205.063L140.95 205.587L142.703 210.961C143.668 213.921 145.564 213.814 147.737 213.106C150.732 212.129 151.434 211.029 151.727 209.665L149.812 209.305C151.201 208.398 151.529 207.023 151.104 205.722C150.078 202.573 147.763 203.082 146.377 203.534ZM148.392 209.655L144.524 210.916C144.28 209.935 144.156 208.859 144.106 207.834C143.975 205.283 144.955 204.282 146.478 203.785C147.505 203.45 148.641 203.856 149.372 206.098C150.069 208.237 149.419 209.32 148.392 209.655ZM149.549 209.486C149.846 210.922 149.53 212.275 147.665 212.883C145.509 213.586 145.149 212.946 144.585 211.218L148.487 209.946C148.932 209.801 149.411 209.587 149.549 209.486Z" fill="#0C594B"/>
<path d="M134.945 98.4653C134.945 108.668 143.217 116.939 153.42 116.939" stroke="#0C594B" stroke-width="2"/>
<path d="M153.542 117.061C143.339 117.061 135.068 125.332 135.068 135.535" stroke="#0C594B" stroke-width="2"/>
<line x1="153.545" y1="117.817" x2="68.1479" y2="118.062" stroke="#0C594B" stroke-width="2"/>
</g>
<defs>
<clipPath id="clip0">
<rect width="1920" height="1080" fill="white" transform="translate(-181 -71)"/>
</clipPath>
</defs>
</svg>
