<svg width="222" height="153" viewBox="0 0 222 153" fill="none" xmlns="http://www.w3.org/2000/svg">
<path d="M135.768 119.938C106.057 137.091 76.3595 147.75 52.37 151.122C40.3745 152.808 29.8193 152.671 21.4076 150.623C12.9967 148.575 6.75131 144.623 3.32897 138.695C-0.0933613 132.767 -0.393228 125.383 2.03853 117.074C4.47053 108.766 9.62926 99.5559 17.0873 90.0106C32.0026 70.9213 56.0817 50.532 85.7925 33.3784C115.503 16.2248 145.201 5.56644 169.19 2.19409C181.186 0.507808 191.741 0.645116 200.152 2.69337C208.563 4.74142 214.809 8.69348 218.231 14.6211C221.653 20.5488 221.953 27.9335 219.522 36.2416C217.09 44.5504 211.931 53.7602 204.473 63.3054C189.557 82.3947 165.478 102.784 135.768 119.938Z" stroke="#F4B9B8" stroke-width="0.5"/>
<path d="M135.768 119.938C106.057 137.091 76.3595 147.75 52.37 151.122C40.3745 152.808 29.8193 152.671 21.4076 150.623C12.9967 148.575 6.75131 144.623 3.32897 138.695C-0.0933613 132.767 -0.393228 125.383 2.03853 117.074C4.47053 108.766 9.62926 99.5559 17.0873 90.0106C32.0026 70.9213 56.0817 50.532 85.7925 33.3784C115.503 16.2248 145.201 5.56644 169.19 2.19409C181.186 0.507808 191.741 0.645116 200.152 2.69337C208.563 4.74142 214.809 8.69348 218.231 14.6211C221.653 20.5488 221.953 27.9335 219.522 36.2416C217.09 44.5504 211.931 53.7602 204.473 63.3054C189.557 82.3947 165.478 102.784 135.768 119.938Z" stroke="#A28A58" stroke-width="0.5"/>
</svg>
