<svg width="338" height="492" viewBox="0 0 338 492" fill="none" xmlns="http://www.w3.org/2000/svg">
<path d="M264.907 301.398C226.811 367.382 181.523 420.87 139.107 454.012C117.898 470.583 97.4177 482.059 78.9225 487.473C60.4282 492.886 43.9413 492.232 30.6868 484.58C17.4323 476.927 8.62237 462.976 4.06323 444.253C-0.496082 425.529 -0.797634 402.054 2.94913 375.401C10.4425 322.097 34.1208 256.132 72.2165 190.148C110.312 124.164 155.601 70.6757 198.017 37.534C219.226 20.9627 239.706 9.48665 258.201 4.07313C276.695 -1.34015 293.182 -0.685986 306.437 6.96651C319.691 14.619 328.501 28.57 333.06 47.2932C337.62 66.0172 337.921 89.4917 334.175 116.145C326.681 169.449 303.003 235.414 264.907 301.398Z" stroke="black" stroke-width="0.5"/>
</svg>
