<svg width="88" height="89" viewBox="0 0 88 89" fill="none" xmlns="http://www.w3.org/2000/svg">
<path d="M26.8618 88.0159C26.8828 88.0159 26.9038 88.0149 26.9238 88.0119C27.0768 87.9929 27.2128 87.9039 27.2918 87.7709C28.6408 85.5009 31.8378 83.2099 35.9388 83.2099C36.6888 83.2099 37.4568 83.2859 38.2228 83.4349C38.3878 83.4679 38.5548 83.4149 38.6718 83.2979L83.1598 38.8089C83.2778 38.6909 83.3288 38.5229 83.2968 38.3599C82.2968 33.2139 84.8428 29.0869 87.6328 27.4289C87.7658 27.3499 87.8548 27.2149 87.8738 27.0609C87.8928 26.9079 87.8408 26.7539 87.7308 26.6449L61.3698 0.284927C61.2608 0.175927 61.1038 0.123927 60.9538 0.141927C60.8008 0.160927 60.6648 0.249927 60.5858 0.382927C59.3358 2.48693 56.3198 4.94393 51.9388 4.94393C51.1888 4.94393 50.4208 4.86893 49.6548 4.71993C49.4918 4.68593 49.3238 4.73993 49.2058 4.85693L4.71784 49.3449C4.59984 49.4629 4.54884 49.6309 4.58084 49.7939C5.58084 54.9399 3.03484 59.0669 0.244845 60.7249C0.111845 60.8039 0.0228451 60.9389 0.0038451 61.0929C-0.0151549 61.2459 0.0368452 61.3999 0.146845 61.5089L26.5088 87.8709C26.6028 87.9639 26.7298 88.0159 26.8618 88.0159ZM5.61085 49.8669L49.7278 5.74993C50.4688 5.87893 51.2108 5.94393 51.9388 5.94393C56.3768 5.94393 59.5498 3.61993 61.0988 1.42793L86.5878 26.9179C83.7738 28.8989 81.3678 33.1159 82.2678 38.2889L38.1498 82.4059C37.4088 82.2769 36.6658 82.2119 35.9388 82.2119C31.5008 82.2119 28.3278 84.5359 26.7798 86.7279L1.28984 61.2369C4.10384 59.2559 6.50985 55.0389 5.61085 49.8669Z" fill="black"/>
<path d="M55.8278 14.0389C55.9258 14.1369 56.0538 14.1849 56.1818 14.1849C56.3098 14.1849 56.4378 14.1359 56.5358 14.0389C56.7308 13.8439 56.7308 13.5269 56.5358 13.3319L55.8288 12.6249C55.6338 12.4299 55.3168 12.4299 55.1218 12.6249C54.9268 12.8199 54.9268 13.1369 55.1218 13.3319L55.8278 14.0389Z" fill="black"/>
<path d="M70.4868 28.698C70.5848 28.796 70.7128 28.844 70.8408 28.844C70.9688 28.844 71.0968 28.795 71.1948 28.698C71.3898 28.503 71.3898 28.186 71.1948 27.991L69.7988 26.595C69.6038 26.4 69.2868 26.4 69.0918 26.595C68.8968 26.79 68.8968 27.107 69.0918 27.302L70.4868 28.698Z" fill="black"/>
<path d="M60.7139 18.9249C60.8119 19.0229 60.9399 19.0709 61.0679 19.0709C61.1959 19.0709 61.3239 19.0219 61.4219 18.9249C61.6169 18.7299 61.6169 18.4129 61.4219 18.2179L60.0249 16.8219C59.8299 16.6269 59.5129 16.6269 59.3179 16.8219C59.1229 17.0169 59.1229 17.3339 59.3179 17.5289L60.7139 18.9249Z" fill="black"/>
<path d="M65.6008 23.8109C65.6988 23.9089 65.8268 23.9569 65.9548 23.9569C66.0828 23.9569 66.2108 23.9079 66.3088 23.8109C66.5038 23.6159 66.5038 23.2989 66.3088 23.1039L64.9128 21.7079C64.7178 21.5129 64.4008 21.5129 64.2058 21.7079C64.0108 21.9029 64.0108 22.2199 64.2058 22.4149L65.6008 23.8109Z" fill="black"/>
<path d="M74.6849 32.895C74.7829 32.993 74.9109 33.041 75.0389 33.041C75.1669 33.041 75.2949 32.992 75.3929 32.895C75.5879 32.7 75.5879 32.383 75.3929 32.188L74.6859 31.481C74.4909 31.286 74.1739 31.286 73.9789 31.481C73.7839 31.676 73.7839 31.993 73.9789 32.188L74.6849 32.895Z" fill="black"/>
<path d="M13.3689 55.0839C13.1739 54.8889 12.8569 54.8889 12.6619 55.0839C12.4669 55.2789 12.4669 55.5959 12.6619 55.7909L13.3689 56.4979C13.4669 56.5959 13.5949 56.6439 13.7229 56.6439C13.8509 56.6439 13.9789 56.5949 14.0769 56.4979C14.2719 56.3029 14.2719 55.9859 14.0769 55.7909L13.3689 55.0839Z" fill="black"/>
<path d="M17.5659 59.282C17.3709 59.087 17.0539 59.087 16.8589 59.282C16.6639 59.477 16.6639 59.794 16.8589 59.989L18.2549 61.385C18.3529 61.483 18.4809 61.531 18.6089 61.531C18.7369 61.531 18.8649 61.482 18.9629 61.385C19.1579 61.19 19.1579 60.873 18.9629 60.678L17.5659 59.282Z" fill="black"/>
<path d="M22.4519 64.168C22.2569 63.973 21.9399 63.973 21.7449 64.168C21.5499 64.363 21.5499 64.68 21.7449 64.875L23.1409 66.271C23.2389 66.369 23.3669 66.417 23.4949 66.417C23.6229 66.417 23.7509 66.368 23.8489 66.271C24.0439 66.076 24.0439 65.759 23.8489 65.564L22.4519 64.168Z" fill="black"/>
<path d="M28.3809 71.304C28.5089 71.304 28.6369 71.255 28.7349 71.158C28.9299 70.963 28.9299 70.646 28.7349 70.451L27.3379 69.054C27.1429 68.859 26.8259 68.859 26.6309 69.054C26.4359 69.249 26.4359 69.566 26.6309 69.761L28.0269 71.157C28.1259 71.255 28.2539 71.304 28.3809 71.304Z" fill="black"/>
<path d="M32.2248 75.3549C32.3228 75.4529 32.4508 75.5009 32.5788 75.5009C32.7068 75.5009 32.8348 75.4519 32.9328 75.3549C33.1278 75.1599 33.1278 74.8429 32.9328 74.6479L32.2248 73.9409C32.0298 73.7459 31.7128 73.7459 31.5178 73.9409C31.3228 74.1359 31.3228 74.4529 31.5178 74.6479L32.2248 75.3549Z" fill="black"/>
<path d="M41.9869 35.0559L49.5099 42.5789C48.7459 42.3519 47.9459 42.2329 47.1259 42.2329C44.8999 42.2329 42.8069 43.0999 41.2329 44.6739C39.6589 46.2479 38.7919 48.3409 38.7919 50.5669C38.7919 52.7929 39.6589 54.8859 41.2329 56.4599C42.8069 58.0339 44.8999 58.9009 47.1259 58.9009C49.3519 58.9009 51.4449 58.0339 53.0189 56.4599C54.5929 54.8859 55.4599 52.7929 55.4599 50.5669C55.4599 48.3409 54.5929 46.2479 53.0189 44.6739L43.0469 34.7019L49.9319 27.8169C50.1269 27.6219 50.1269 27.3049 49.9319 27.1099L45.5249 22.7019C45.3299 22.5069 45.0129 22.5069 44.8179 22.7019L37.5789 29.9409C37.3839 30.1359 37.3839 30.4529 37.5789 30.6479L41.9869 35.0559ZM52.3119 55.7519C50.9269 57.1369 49.0849 57.8999 47.1259 57.8999C45.1669 57.8999 43.3259 57.1369 41.9399 55.7519C40.5549 54.3669 39.7919 52.5249 39.7919 50.5659C39.7919 48.6069 40.5549 46.7659 41.9399 45.3799C43.3249 43.9939 45.1669 43.2319 47.1259 43.2319C49.0849 43.2319 50.9259 43.9949 52.3119 45.3799C53.6979 46.7649 54.4599 48.6069 54.4599 50.5659C54.4599 52.5249 53.6969 54.3669 52.3119 55.7519ZM45.1709 23.7629L48.8719 27.4639L42.3399 33.9959L38.6389 30.2949L45.1709 23.7629Z" fill="black"/>
<path d="M45.1709 23.7629L48.8719 27.4639L42.3399 33.9959L38.6389 30.2949L45.1709 23.7629Z" fill="black"/>
<path d="M52.3119 55.7519C50.9269 57.1369 49.0849 57.8999 47.1259 57.8999C45.1669 57.8999 43.3259 57.1369 41.9399 55.7519C40.5549 54.3669 39.7919 52.5249 39.7919 50.5659C39.7919 48.6069 40.5549 46.7659 41.9399 45.3799C43.3249 43.9939 45.1669 43.2319 47.1259 43.2319C49.0849 43.2319 50.9259 43.9949 52.3119 45.3799C53.6979 46.7649 54.4599 48.6069 54.4599 50.5659C54.4599 52.5249 53.6969 54.3669 52.3119 55.7519Z" fill="black"/>
</svg>
