<svg width="123" height="124" viewBox="0 0 123 124" fill="none" xmlns="http://www.w3.org/2000/svg">
<path d="M38.7065 89.3991C38.7938 89.4429 38.8952 89.4544 38.9919 89.429L97.2449 74.1867C97.4314 74.1379 97.5582 73.9646 97.5481 73.772L95.1108 27.054C95.1052 26.9463 95.057 26.8452 94.9768 26.7731C94.8968 26.7008 94.7914 26.6634 94.6834 26.669L47.9655 29.1065C47.7729 29.1165 47.6137 29.2606 47.5847 29.4513L38.4872 88.974C38.4665 89.1093 38.5155 89.246 38.6171 89.3378C38.6442 89.3623 38.6743 89.3829 38.7065 89.3991ZM96.7184 73.4835L39.3848 88.4853L48.3387 29.9019L94.3194 27.5027L96.7184 73.4835Z" fill="black"/>
<path d="M92.1252 99.1939C92.2425 99.2527 92.386 99.2537 92.5087 99.1843C92.7041 99.0734 92.7727 98.8252 92.6618 98.6298C92.567 98.4588 90.3852 94.342 96.3673 88.8512C99.0598 86.3799 100.105 82.9474 99.3883 78.925C98.8537 75.9232 97.5477 73.6806 97.4924 73.5866C97.4714 73.551 97.4448 73.5186 97.4141 73.4906L48.2588 29.2102C48.2279 29.1824 48.1913 29.1593 48.1554 29.1424C48.0561 29.0971 45.6898 28.0314 42.6485 27.8122C38.5733 27.5183 35.2683 28.9147 33.0905 31.8498C28.2523 38.3708 23.9307 36.6294 23.749 36.5521C23.5429 36.4643 23.3041 36.5593 23.2152 36.765C23.1263 36.9705 23.2177 37.2071 23.4253 37.2985C23.6299 37.3878 28.4983 39.4051 33.7438 32.3347C38.4018 26.0567 46.9945 29.5309 47.7633 29.8591L96.8205 74.0511C97.227 74.7816 101.577 82.9662 95.8172 88.2519C89.3311 94.205 91.844 98.8368 91.9541 99.0311C91.9954 99.1039 92.0558 99.159 92.1252 99.1939Z" fill="black"/>
<path d="M25.344 47.2485C25.3506 47.2518 25.3572 47.2549 25.3641 47.2579C25.4658 47.3024 27.8863 48.3063 30.4309 44.8766C32.5913 41.9651 36.6796 43.7842 36.7205 43.803C36.9249 43.8962 37.1663 43.8062 37.2595 43.6018C37.3526 43.3972 37.2629 43.1535 37.0582 43.0629C37.0111 43.0412 32.3256 40.9579 29.7778 44.3918C27.6145 47.3076 25.7085 46.5205 25.6897 46.5122C25.4837 46.4224 25.244 46.5165 25.1542 46.7222C25.0673 46.9216 25.1524 47.1524 25.344 47.2485Z" fill="black"/>
<path d="M82.8143 99.0193C82.9316 99.0781 83.0751 99.0792 83.1979 99.0097C83.3932 98.8988 83.4618 98.6506 83.351 98.4552C83.3124 98.3838 82.3912 96.595 85.0347 94.1688C88.1849 91.2776 85.625 86.8342 85.5989 86.7897C85.4852 86.5958 85.2356 86.5313 85.0418 86.6455C84.8483 86.7593 84.7838 87.0085 84.8974 87.202C84.9906 87.361 87.1476 91.1252 84.4844 93.5697C81.3379 96.4576 82.5885 98.7601 82.6433 98.8567C82.6846 98.9291 82.7449 98.9844 82.8143 99.0193Z" fill="black"/>
<path d="M7.47033 86.7667C7.62557 86.8447 7.82 86.8164 7.94646 86.6841C11.2217 83.2637 16.9001 87.3907 22.3919 91.3828C25.9978 94.004 29.4037 96.4797 32.1427 96.8494C34.0566 97.1075 35.6382 96.6956 36.8438 95.6253C39.0902 93.6308 39.2813 90.0142 39.2953 89.1924L95.0069 27.3474C95.1571 27.1805 95.1438 26.9232 94.9768 26.7729C94.8094 26.6232 94.5526 26.636 94.4023 26.803L38.587 88.7632C38.5183 88.8393 38.481 88.9391 38.4824 89.0415C38.483 89.0815 38.513 93.0578 36.3016 95.0188C35.2813 95.9234 33.9187 96.2679 32.2516 96.0431C29.7169 95.7015 26.3914 93.2841 22.8703 90.7249C17.096 86.5275 11.1252 82.1877 7.35897 86.1216C7.20354 86.284 7.20925 86.5415 7.37147 86.6966C7.40135 86.7255 7.4347 86.7489 7.47033 86.7667Z" fill="black"/>
<path d="M54.8177 55.9114C57.023 57.0183 59.7174 56.1247 60.8243 53.9194C61.9311 51.7142 61.0375 49.0197 58.8323 47.9129C56.627 46.8061 53.9325 47.6997 52.8257 49.9049C51.7189 52.1101 52.6125 54.8046 54.8177 55.9114ZM58.4673 48.64C60.2715 49.5456 61.0027 51.7503 60.0971 53.5545C59.1916 55.3587 56.9869 56.0899 55.1827 55.1843C53.3785 54.2787 52.6473 52.0741 53.5529 50.2699C54.4584 48.4656 56.6631 47.7345 58.4673 48.64Z" fill="black"/>
<path d="M58.4673 48.64C60.2715 49.5456 61.0027 51.7503 60.0971 53.5545C59.1916 55.3587 56.9869 56.0899 55.1827 55.1843C53.3785 54.2787 52.6473 52.0741 53.5529 50.2699C54.4584 48.4656 56.6631 47.7345 58.4673 48.64Z" fill="black"/>
<path d="M72.0769 71.4016C74.2821 72.5084 76.9766 71.6148 78.0834 69.4096C79.1903 67.2043 78.2967 64.5098 76.0914 63.403C73.8862 62.2962 71.1917 63.1898 70.0849 65.395C68.9781 67.6002 69.8716 70.2947 72.0769 71.4016ZM75.7265 64.1301C77.5307 65.0357 78.2618 67.2404 77.3563 69.0446C76.4507 70.8488 74.2461 71.58 72.4418 70.6744C70.6376 69.7689 69.9064 67.5644 70.812 65.76C71.7177 63.9556 73.9221 63.2245 75.7265 64.1301Z" fill="black"/>
<path d="M75.7265 64.1301C77.5307 65.0357 78.2618 67.2404 77.3563 69.0446C76.4507 70.8488 74.2461 71.58 72.4418 70.6744C70.6376 69.7689 69.9064 67.5644 70.812 65.76C71.7177 63.9556 73.9221 63.2245 75.7265 64.1301Z" fill="black"/>
</svg>
