<svg width="168" height="166" viewBox="0 0 168 166" fill="none" xmlns="http://www.w3.org/2000/svg">
<path d="M63.4069 148.075L62.7274 147.836L64.1812 143.635L62.5675 143.069L61.1137 147.271L60.4343 147.033C57.8693 146.133 55.1598 147.225 54.2309 149.874C53.302 152.524 54.7083 155.096 57.2733 155.996L57.9527 156.234L56.5772 160.158L58.191 160.723L59.5665 156.799L60.2459 157.038C62.8109 157.937 65.5323 156.812 66.4612 154.162C67.3901 151.512 65.9719 148.974 63.4069 148.075ZM58.0361 155.996L57.3736 155.764C55.7259 155.186 55.0321 152.921 55.8956 150.458C56.759 147.995 58.7032 146.693 60.3509 147.27L61.0304 147.509L58.0361 155.996ZM60.3293 156.8L59.6498 156.562L62.6441 148.074L63.3066 148.306C64.9542 148.884 65.6599 151.115 64.7965 153.578C63.9331 156.041 61.977 157.377 60.3293 156.8Z" fill="#0C594B"/>
<path d="M45.6286 139.295C43.3271 137.718 41.4699 138.104 41.0751 138.139L41.0921 138.369C42.6122 138.188 44.1045 138.622 45.4557 139.548C47.0147 140.616 47.0259 142.479 46.0136 144.338L39.9555 140.187C38.2563 142.666 37.1076 145.043 40.2258 147.18C42.8985 149.011 45.508 148.356 47.0648 146.084C48.6215 143.812 48.435 141.218 45.6286 139.295ZM40.3886 146.942C37.6565 145.07 38.5384 142.86 40.0748 140.618L45.8657 144.586C44.794 146.404 42.5564 148.428 40.3886 146.942Z" fill="#0C594B"/>
<path d="M33.785 128.904C31.9126 126.836 30.0166 126.78 29.6244 126.722L29.5876 126.95C31.108 127.127 32.4589 127.895 33.5582 129.11C34.9837 130.684 34.2673 132.789 32.3858 134.493C30.1706 136.498 28.0725 136.407 26.9128 135.125C25.2819 133.324 25.429 131.904 26.1756 130.985L25.9168 130.807C25.0756 131.835 25.0322 133.477 26.6993 135.319C28.8737 137.721 31.5642 137.689 33.6059 135.841C35.6475 133.992 36.0682 131.426 33.785 128.904Z" fill="#0C594B"/>
<path d="M17.8654 122.298L25.4429 117.999L24.5991 116.511L17.0216 120.81L15.2807 117.742L15.0302 117.884L19.3736 125.539L19.6241 125.397L17.8654 122.298Z" fill="#0C594B"/>
<path d="M20.4285 107.968C19.8231 105.932 19.4424 104.336 17.5127 103.088C16.2853 102.308 14.8136 102.032 12.9926 102.16L18.2376 100.6L17.7553 98.9787L9.12867 101.544L9.61099 103.166L10.7324 102.832C17.4379 101.195 19.2303 105.075 19.6478 106.416L11.3145 108.894L11.8019 110.533L20.4285 107.968Z" fill="#0C594B"/>
<path d="M7.47094 92.0157L16.4608 91.589L16.2577 87.3099C16.1545 85.1343 16.0941 82.7225 13.5769 82.8419C11.7789 82.9273 11.3533 83.8305 11.2837 85.4015C11.0201 84.4049 10.4106 83.713 9.02618 83.7787C7.06639 83.8717 6.92311 85.7887 6.99223 87.2451C7.09122 89.3307 8.2966 90.0484 9.06199 90.2283L7.38987 90.3076L7.47094 92.0157ZM11.5034 86.9949C11.4301 85.4486 11.866 84.7612 13.6819 84.675C15.8215 84.5735 15.889 85.6154 15.976 87.4494L16.0921 89.8946L11.6511 90.1054L11.5034 86.9949ZM7.24565 87.2691C7.19531 86.2083 7.54472 85.597 9.12694 85.5219C10.9429 85.4357 11.1928 86.1447 11.244 87.2235L11.3814 90.1182C10.6622 90.1523 7.4078 90.6852 7.24565 87.2691Z" fill="#0C594B"/>
<path d="M17.4041 72.2999C17.9773 69.3857 15.7883 68.203 13.4981 67.349L17.9312 68.2209L18.2577 66.5607L12.712 65.4699C9.65651 64.869 8.82532 66.5767 8.38415 68.8197C7.77623 71.9105 8.39413 73.0593 9.44198 73.9809L10.6904 72.4836C10.8051 74.1389 11.846 75.0958 13.1883 75.3598C16.438 75.999 17.1227 73.7304 17.4041 72.2999ZM11.0777 71.0739L11.8628 67.0824C12.838 67.3475 13.8383 67.7644 14.7576 68.2204C17.0487 69.3498 17.4448 70.6935 17.1357 72.2654C16.9273 73.3251 16.019 74.1187 13.7053 73.6637C11.4976 73.2295 10.8693 72.1336 11.0777 71.0739ZM10.6611 72.166C9.26182 71.7257 8.2351 70.79 8.61375 68.8648C9.05145 66.6395 9.7857 66.6371 11.5695 66.988L10.7775 71.0148C10.6872 71.474 10.6394 71.9967 10.6611 72.166Z" fill="#0C594B"/>
<path d="M20.568 59.4226L13.9789 53.2264L23.1559 53.7577L23.9188 52.0877L14.2815 51.5243L13.5186 53.1942L20.4333 59.7173L20.568 59.4226Z" fill="#0C594B"/>
<path d="M27.3912 46.1737L29.4979 43.434C31.3522 41.0225 32.559 38.8625 30.0761 36.9533C27.8787 35.2636 25.6796 37.0013 24.2862 38.8135L22.9256 40.5829L21.2847 39.3211L20.2423 40.6767L27.3912 46.1737ZM28.2338 44.6645L23.1111 40.7255L24.4717 38.9561C25.4482 37.6862 26.967 36.8332 28.9789 38.3802C31.0052 39.9383 30.8232 41.297 29.2981 43.2804L28.2338 44.6645Z" fill="#0C594B"/>
<path d="M43.664 18.3126L47.9044 26.2511L51.8101 24.1648C52.6833 23.6984 53.7794 24.0312 54.2544 24.9203C54.7208 25.7936 54.388 26.8897 53.4988 27.3646C52.6256 27.831 51.5295 27.4982 51.0631 26.625L50.7932 26.7691C51.3359 27.7853 52.6269 28.1773 53.643 27.6345C54.675 27.0833 55.067 25.7923 54.5243 24.7762C54.1511 24.0776 53.4563 23.6937 52.7151 23.6814L55.7 22.0871L51.4596 14.1486L49.9513 14.9543L54.056 22.6387L49.277 25.1914L45.1723 17.5069L43.664 18.3126Z" fill="#0C594B"/>
<path d="M59.9634 10.7711L62.2447 19.4772L66.3888 18.3913C68.4957 17.8392 70.8426 17.28 70.2038 14.8423C69.7475 13.1011 68.7757 12.872 67.2243 13.1296C68.1447 12.6652 68.6951 11.9255 68.3438 10.5848C67.8465 8.68683 65.9415 8.94412 64.5311 9.3137C62.5113 9.84297 62.0591 11.171 62.0418 11.957L61.6175 10.3377L59.9634 10.7711ZM65.7112 13.675C67.2086 13.2826 67.9715 13.5665 68.4323 15.3251C68.9753 17.3972 67.9699 17.6792 66.1939 18.1446L63.8259 18.7652L62.6989 14.4644L65.7112 13.675ZM64.5601 9.56659C65.5875 9.29739 66.2579 9.51248 66.6594 11.0447C67.1202 12.8034 66.4785 13.1948 65.4338 13.4686L62.6304 14.2032C62.4479 13.5067 61.2518 10.4335 64.5601 9.56659Z" fill="#0C594B"/>
<path d="M82.5231 16.4015C85.3124 16.3402 86.596 14.9437 86.8964 14.685L86.7485 14.5082C85.6189 15.5413 84.1539 16.0596 82.5163 16.0956C80.6268 16.1371 79.5314 14.6308 79.2692 12.53L86.6115 12.3687C86.5454 9.36345 86.0922 6.76278 82.3131 6.84581C79.0739 6.91697 77.3366 8.97163 77.3971 11.725C77.4576 14.4783 79.1219 16.4762 82.5231 16.4015ZM82.3194 7.13374C85.6306 7.06099 86.2035 9.37096 86.2632 12.0883L79.2449 12.2425C79.0547 10.1402 79.6921 7.19146 82.3194 7.13374Z" fill="#0C594B"/>
<path d="M97.9392 8.69299L96.228 17.2353L97.9047 17.5712L99.6159 9.02886L103.075 9.72181L103.132 9.43942L94.5012 7.71057L94.4446 7.99296L97.9392 8.69299Z" fill="#0C594B"/>
<path d="M110.474 11.6632L111.8 22.1406L110.587 21.5917C109.586 21.1393 108.37 21.5573 107.95 22.5726C107.486 23.6863 107.889 24.7179 108.955 25.2C109.709 25.5411 110.551 25.4278 111.046 24.901L119.74 15.8536L119.445 15.7201L113.43 21.9885L112.261 12.4716L110.474 11.6632ZM110.468 21.8542L112.617 22.8258L110.844 24.6913C110.427 25.1346 109.671 25.1882 109.048 24.9063C108.081 24.4687 107.94 23.3383 108.229 22.6987C108.615 21.8458 109.615 21.4685 110.468 21.8542Z" fill="#0C594B"/>
<path d="M122.135 27.6355L126.75 31.4316C127.338 32.0778 127.372 33.0847 126.8 33.7798C126.16 34.5583 125.02 34.6694 124.241 34.0291C123.477 33.4002 123.366 32.2601 124.006 31.4816L123.769 31.2872C123.026 32.1908 123.157 33.5336 124.047 34.2654C124.95 35.0086 126.293 34.8778 127.036 33.9742C127.517 33.3903 127.622 32.6383 127.39 31.9576L130.935 34.8732L136.652 27.9223L135.331 26.836L129.797 33.5646L127.378 31.5751L135.679 21.4822L134.359 20.396L126.058 30.4888L123.639 28.4993L129.173 21.7708L127.852 20.6846L122.135 27.6355Z" fill="#0C594B"/>
<path d="M137.86 43.4097C139.583 45.8288 141.947 45.0515 144.141 43.9748L140.461 46.5958L141.443 47.974L146.046 44.6951C148.583 42.8885 147.913 41.1111 146.587 39.2491C144.76 36.6834 143.501 36.3427 142.111 36.4706L142.341 38.4064C141.059 37.3522 139.649 37.4507 138.535 38.2443C135.837 40.1658 137.014 42.2221 137.86 43.4097ZM143.099 39.6566L145.459 42.9701C144.596 43.4962 143.605 43.9364 142.642 44.2908C140.248 45.179 138.999 44.5433 138.07 43.2384C137.443 42.3587 137.491 41.1535 139.412 39.7856C141.244 38.4802 142.472 38.7769 143.099 39.6566ZM142.592 38.6034C143.873 37.8895 145.258 37.7868 146.397 39.3849C147.712 41.2322 147.21 41.7672 145.729 42.8219L143.348 39.4791C143.076 39.0979 142.73 38.7041 142.592 38.6034Z" fill="#0C594B"/>
<path d="M149.528 56.5116L147.174 56.631C146.452 56.6654 145.928 56.3696 145.739 55.8442C145.504 55.2017 145.777 54.5708 146.423 54.2955C146.724 54.1761 147.038 54.1872 147.329 54.2851L147.433 54.0113C147.073 53.8831 146.685 53.8819 146.317 54.0277C145.547 54.3328 145.163 55.2206 145.468 55.9904C145.714 56.6096 146.367 56.9894 147.18 56.9385L149.64 56.7961L150.834 59.8083C149.94 60.2399 148.283 60.8963 147.698 61.1284L148.328 62.7182L156.678 59.4094L156.048 57.8196L153.187 58.9535C153.869 58.6248 156.057 57.1578 155.069 54.6645C154.26 52.6229 152.988 51.1714 150.98 51.9671C149.039 52.7363 148.48 53.8676 149.528 56.5116ZM151.616 53.5736C153.44 52.8509 154.437 53.7532 154.828 54.7406C156.088 57.92 151.966 59.2437 151.062 59.6987L149.861 56.6698C149.298 55.2474 149.658 54.3494 151.616 53.5736Z" fill="#0C594B"/>
<path d="M151.165 87.1325C151.033 89.9193 152.337 91.2967 152.574 91.6143L152.761 91.479C151.809 90.2805 151.393 88.7831 151.471 87.147C151.571 85.0254 153.564 84.0387 156.1 84.1591C159.084 84.3007 160.507 85.8459 160.425 87.572C160.309 89.9992 159.203 90.9018 158.026 91.0261L158.084 91.3352C159.406 91.1997 160.595 90.0668 160.712 87.5856C160.866 84.3493 158.937 82.4737 156.186 82.3431C153.435 82.2125 151.326 83.7343 151.165 87.1325Z" fill="#0C594B"/>
<path d="M148.912 101.513C148.066 104.359 150.133 105.744 152.332 106.811L148.001 105.523L147.519 107.145L152.936 108.756C155.921 109.644 156.91 108.023 157.562 105.831C158.46 102.812 157.954 101.61 156.998 100.593L155.613 101.966C155.656 100.307 154.71 99.2557 153.399 98.8658C150.224 97.9217 149.328 100.115 148.912 101.513ZM155.094 103.332L153.934 107.231C152.989 106.875 152.032 106.365 151.16 105.824C148.987 104.483 148.719 103.108 149.176 101.572C149.484 100.537 150.463 99.8331 152.723 100.505C154.88 101.147 155.402 102.297 155.094 103.332ZM155.612 102.285C156.963 102.855 157.897 103.884 157.338 105.765C156.691 107.939 155.96 107.871 154.217 107.353L155.387 103.419C155.521 102.971 155.618 102.455 155.612 102.285Z" fill="#0C594B"/>
<path d="M144.525 114.064L143.67 115.545L147.724 117.884L146.959 119.209C145.484 121.766 143.418 120.699 141.376 119.52L140.494 121.048C142.63 122.281 144.52 122.498 146.293 120.508L148.616 124.945L148.787 124.649L146.492 120.27C147.058 119.578 147.47 118.756 147.911 117.992L155.27 122.238L156.124 120.757L144.525 114.064Z" fill="#0C594B"/>
<path d="M143.31 132.52L132.974 130.349L133.889 129.382C134.644 128.584 134.647 127.298 133.824 126.569C132.923 125.767 131.817 125.81 131.013 126.66C130.444 127.262 130.276 128.094 130.612 128.734L136.32 139.908L136.543 139.673L132.585 131.939L141.961 133.945L143.31 132.52ZM133.68 129.184L132.06 130.897L130.876 128.612C130.593 128.072 130.79 127.341 131.26 126.844C131.99 126.073 133.104 126.309 133.614 126.792C134.294 127.435 134.323 128.504 133.68 129.184Z" fill="#0C594B"/>
<path d="M120.395 135.199C120.395 135.199 123.051 139.397 123.138 139.534C122.593 139.581 121.495 139.765 120.217 140.573C117.722 142.152 116.065 144.01 118.202 147.387C119.809 149.927 122.23 150.589 124.42 149.203C126.109 148.135 126.426 146.784 125.846 144.488C125.71 143.935 125.497 143.431 125.284 142.926L127.719 146.775L129.164 145.86L121.84 134.285L120.395 135.199ZM125.56 144.541C126.195 146.823 125.605 148.113 124.251 148.969C122.608 150.009 121.103 148.639 119.698 146.419C117.667 143.209 118.465 141.98 120.352 140.786C121.629 139.978 122.737 139.809 123.282 139.763C124.22 141.278 125.054 142.731 125.56 144.541Z" fill="#0C594B"/>
<path d="M106.227 147.397C103.404 148.318 103.439 150.806 103.81 153.222L102.409 148.926L100.801 149.451L102.553 154.824C103.518 157.785 105.414 157.678 107.588 156.969C110.582 155.993 111.284 154.893 111.578 153.529L109.662 153.169C111.051 152.262 111.379 150.886 110.955 149.586C109.928 146.437 107.614 146.945 106.227 147.397ZM108.242 153.518L104.375 154.779C104.131 153.799 104.007 152.722 103.956 151.697C103.825 149.146 104.805 148.145 106.328 147.648C107.355 147.314 108.491 147.72 109.222 149.961C109.919 152.101 109.269 153.183 108.242 153.518ZM109.399 153.349C109.697 154.786 109.38 156.138 107.515 156.747C105.359 157.45 104.999 156.81 104.435 155.081L108.337 153.809C108.782 153.664 109.261 153.451 109.399 153.349Z" fill="#0C594B"/>
</svg>
