<svg width="80" height="64" viewBox="0 0 80 64" fill="none" xmlns="http://www.w3.org/2000/svg">
<path d="M76.3446 31.4607L68.3029 60.5146C68.0149 61.5566 67.4102 62.4274 66.606 63.036C65.7978 63.6486 64.7941 64 63.7121 64H16.289C15.2071 64 14.2027 63.6486 13.3947 63.036C12.5906 62.4274 11.9855 61.5566 11.6973 60.5146L3.65611 31.4607H0V21.2101H20.1629L31.649 1.41958C32.0428 0.741131 32.6778 0.284447 33.384 0.0971107C34.0032 -0.0679398 34.6799 -0.0264206 35.2983 0.25103H35.3225L39.5198 2.66206C39.6943 2.76231 39.8544 2.87774 39.9986 3.00634C40.1428 2.87774 40.3016 2.7623 40.4757 2.66306C41.745 1.93297 43.1986 0.998337 44.4802 0.365456C45.1561 -0.0132599 45.9226 -0.0881958 46.6169 0.0971107C47.3203 0.284447 47.9544 0.741131 48.3504 1.41958C49.2696 3.0033 56.2699 14.9866 59.8714 21.2101H80V31.4607H76.3446ZM32.0574 21.2101H47.9432L40.0002 7.52462L32.0574 21.2101Z" fill="#851D41"/>
<path d="M55.3551 29.5654H55.7643C55.8559 29.5452 55.9455 29.5118 56.031 29.4632L60.003 27.1797C60.23 27.0501 60.3827 26.8375 60.4458 26.6025C60.5048 26.3838 60.4885 26.1458 60.3837 25.9352L60.3542 25.8826L46.6935 2.34342C46.5642 2.13178 46.3565 1.988 46.1255 1.92724C45.8873 1.86344 45.6257 1.88876 45.4007 2.01635L41.4175 4.30687C41.1966 4.4375 41.048 4.64609 40.9859 4.87798C40.9218 5.11392 40.9472 5.37315 41.0775 5.59693L54.725 29.1118C54.8563 29.3376 55.069 29.4905 55.3062 29.5533L55.3551 29.5654Z" fill="#FFB99A"/>
<path d="M5.62549 31.4609L13.5291 60.0175C13.7021 60.6433 14.0658 61.1669 14.5488 61.5334C15.0278 61.8959 15.6314 62.1035 16.2891 62.1035H63.7122C64.3697 62.1035 64.9734 61.8959 65.4518 61.5334C65.9353 61.1669 66.2987 60.6433 66.4718 60.0175L74.375 31.4609C51.4583 31.4609 28.5425 31.4609 5.62549 31.4609Z" fill="#DB3056"/>
<path d="M11.8662 54.0087L13.5294 60.0175C13.7024 60.6433 14.0661 61.1669 14.5491 61.5334C15.0281 61.8959 15.6316 62.1035 16.2893 62.1035H63.7124C64.37 62.1035 64.9736 61.8959 65.4521 61.5334C65.9356 61.1669 66.299 60.6433 66.472 60.0175L74.3753 31.4609H63.2238C39.3716 39.4646 36.8667 56.2354 11.8662 54.0087Z" fill="#C2153B"/>
<path d="M24.2351 29.5654H24.6454L24.6943 29.5533C24.9309 29.4905 25.1438 29.3376 25.2749 29.1118L38.9227 5.59691C39.0066 5.45413 39.0469 5.29616 39.0485 5.13921V5.1301V5.12707V5.11592C39.0471 5.03491 39.0359 4.95492 39.015 4.87695C38.9512 4.64101 38.8 4.42836 38.5764 4.30077L34.5984 2.01835C34.3733 1.88873 34.1125 1.86342 33.8749 1.92721C33.6422 1.98898 33.4325 2.13682 33.3013 2.35555L33.2941 2.3677L19.6467 25.8826C19.5159 26.1063 19.4908 26.3656 19.5546 26.6025C19.6181 26.8375 19.7713 27.0501 19.9983 27.1797L24.0199 29.4905C24.0895 29.5249 24.1618 29.5492 24.2351 29.5654Z" fill="#FFB99A"/>
<path d="M19.0625 23.106H1.90625V29.5654H20.3496L19.0455 28.8171C18.3634 28.4252 17.9053 27.7934 17.716 27.0906C17.5275 26.3909 17.6079 25.6172 18.0016 24.9378V24.9337L19.0625 23.106ZM59.7026 29.5654H78.0947V23.106H60.9659C61.6082 24.2229 61.996 24.9084 61.9991 24.9388C62.393 25.6173 62.4735 26.3919 62.2851 27.0916C62.0999 27.7751 61.6611 28.3928 61.0076 28.7857C60.5954 29.0298 60.1546 29.2961 59.7026 29.5654ZM27.2083 29.5654H52.7929L49.0438 23.106H30.9571L27.2083 29.5654Z" fill="#FF6464"/>
<path d="M26.6393 39.7448C27.0869 41.4065 29.7838 50.5272 29.7838 51.4254C30.1011 52.7418 29.868 54.0754 29.2295 55.1761V55.1791C28.5697 56.3153 27.4759 57.2044 26.1071 57.5689L25.9743 57.6023C24.6511 57.9183 23.3103 57.6864 22.2044 57.0515H22.2005C21.0579 56.3943 20.1646 55.3057 19.7979 53.9448L16.6539 42.2713C16.288 40.9124 16.5148 39.5261 17.175 38.3889C17.836 37.2497 18.9302 36.3596 20.2971 35.9951L20.4299 35.9617C21.7552 35.6457 23.097 35.8776 24.2039 36.5136C25.346 37.1697 26.239 38.2583 26.6058 39.6193L26.6393 39.7448Z" fill="#851D41"/>
<path d="M45.153 40.7403V52.8248C45.153 54.2354 44.5728 55.5174 43.6403 56.4459L43.6383 56.4439C42.7028 57.3735 41.4152 57.9507 40.0001 57.9507C38.5825 57.9507 37.2938 57.3745 36.3606 56.4459V56.4419C35.4274 55.5133 34.8477 54.2324 34.8477 52.8248V40.7403C34.8477 39.3328 35.4274 38.0518 36.3606 37.1232V37.1192C37.2938 36.1906 38.5825 35.6134 40.0001 35.6134C41.4182 35.6134 42.7069 36.1906 43.6403 37.1192C44.5728 38.0467 45.153 39.3297 45.153 40.7403Z" fill="#851D41"/>
<path d="M63.3467 42.2712L60.2033 53.9446C59.8358 55.3066 58.9431 56.3952 57.801 57.0513C56.6935 57.6873 55.3518 57.9191 54.0265 57.6022L53.8941 57.5688C52.5271 57.2052 51.4328 56.3152 50.7711 55.175C50.1115 54.0378 49.8845 52.6515 50.2509 51.2936L53.3954 39.6202C53.7618 38.2593 54.6545 37.1697 55.7977 36.5135C56.9408 35.8563 58.3354 35.6305 59.7035 35.9951C61.0696 36.3596 62.1639 37.2487 62.8245 38.3859C63.4872 39.523 63.7142 40.9113 63.3467 42.2712Z" fill="#851D41"/>
<path d="M27.8777 51.6584L24.7619 40.0914C24.5281 39.2428 23.9672 38.5623 23.2506 38.1512C22.5305 37.7371 21.6513 37.5953 20.7888 37.8252L20.7717 37.8292C19.9163 38.0621 19.2326 38.6191 18.8203 39.3299C18.404 40.0468 18.2615 40.9227 18.4929 41.7824L21.637 53.4558C21.8679 54.3135 22.432 55 23.1538 55.4142C23.8727 55.8284 24.7522 55.9701 25.6154 55.7403L25.6331 55.7352C26.4866 55.5023 27.1703 54.9443 27.5841 54.2315C28.0006 53.5156 28.1424 52.6417 27.9112 51.783L27.8777 51.6584ZM43.2467 52.825V40.7405C43.2467 39.8534 42.8813 39.0454 42.2929 38.4601C41.7035 37.8738 40.8922 37.5103 40.0004 37.5103C39.1088 37.5103 38.2974 37.8738 37.7086 38.4601L37.7069 38.458C37.1191 39.0433 36.754 39.8514 36.754 40.7405V52.825C36.754 53.713 37.1191 54.5211 37.7069 55.1074L37.7086 55.1054C38.2974 55.6906 39.1088 56.0552 40.0004 56.0552C40.8943 56.0552 41.7066 55.6927 42.2929 55.1094V55.1054C42.8813 54.5201 43.2467 53.712 43.2467 52.825ZM58.364 53.4558L61.5084 41.7824C61.7395 40.9248 61.597 40.0509 61.1807 39.334V39.3299C60.7664 38.615 60.0762 38.055 59.213 37.8252C58.3498 37.5953 57.4713 37.7371 56.7506 38.1502C56.0289 38.5654 55.465 39.2519 55.2339 40.1096L52.0895 51.782C51.8584 52.6417 52.0009 53.5176 52.4173 54.2345C52.8306 54.9474 53.5177 55.5063 54.3768 55.7372L54.386 55.7403C55.2482 55.9701 56.1276 55.8284 56.8473 55.4142C57.567 55.0011 58.1289 54.3175 58.362 53.4639L58.364 53.4558Z" fill="#FF6464"/>
<path d="M59.7025 29.5654H78.0945V23.106H65.7185C64.7372 24.0791 63.5228 24.7089 62.1017 25.1312C62.4051 25.761 62.456 26.4567 62.285 27.0916C62.0997 27.7751 61.661 28.3928 61.0075 28.7857C60.5952 29.0298 60.1544 29.2961 59.7025 29.5654ZM37.4961 29.5654H52.7927L50.8698 26.2522C50.2947 26.2866 49.7084 26.3271 49.1129 26.3737C41.6789 26.962 37.4961 29.5654 37.4961 29.5654Z" fill="#FF3D3D"/>
<path d="M24.2351 29.5654H24.6454L24.6943 29.5533C24.9309 29.4905 25.1438 29.3376 25.2749 29.1118L38.9227 5.59692C39.0067 5.45414 39.047 5.29617 39.0485 5.13921V5.13011V5.12707V5.11592C39.0472 5.03492 39.0359 4.95492 39.015 4.87695C38.9677 4.70177 38.8725 4.54077 38.7356 4.41621H38.7353C34.7245 4.56811 33.8478 12.0786 29.8266 14.1535C25.8167 16.2212 21.6455 22.4437 21.6224 22.4782L19.6467 25.8826C19.5159 26.1063 19.4908 26.3656 19.5546 26.6025C19.6181 26.8375 19.7713 27.0501 19.9983 27.1797L24.0199 29.4905C24.0896 29.5249 24.1618 29.5492 24.2351 29.5654ZM55.8147 29.5381H55.4045L55.3556 29.527C55.1195 29.4632 54.9067 29.3113 54.7754 29.0855L41.1279 5.57059C41.0435 5.42781 41.0038 5.26985 41.0017 5.11188V5.10276V5.10074V5.08858C41.0027 5.00859 41.0139 4.92859 41.0353 4.85062C41.0821 4.67544 41.1778 4.51342 41.3152 4.38988C45.3259 4.54177 46.2023 12.0523 50.2232 14.1261C54.2338 16.1949 58.4043 22.4164 58.4277 22.4508L60.4036 25.8552C60.5349 26.079 60.5593 26.3382 60.4962 26.5752C60.4321 26.8111 60.2794 27.0228 60.0524 27.1534L56.0305 29.4632C55.9603 29.4976 55.888 29.5229 55.8147 29.5381ZM58.4288 22.4518L58.4277 22.4508L58.4288 22.4518ZM21.6219 22.4792L21.6224 22.4782L21.6219 22.4792Z" fill="#FC9D74"/>
<path fill-rule="evenodd" clip-rule="evenodd" d="M23.455 24.0818C22.5091 24.0818 21.7422 24.8443 21.7422 25.785C21.7422 26.7268 22.5091 27.4893 23.455 27.4893C24.4008 27.4893 25.1676 26.7268 25.1676 25.785C25.1676 24.8443 24.4008 24.0818 23.455 24.0818Z" fill="#851D41"/>
<path fill-rule="evenodd" clip-rule="evenodd" d="M56.5461 24.0818C57.4917 24.0818 58.2592 24.8443 58.2592 25.785C58.2592 26.7268 57.4917 27.4893 56.5461 27.4893C55.6005 27.4893 54.834 26.7268 54.834 25.785C54.834 24.8443 55.6005 24.0818 56.5461 24.0818Z" fill="#851D41"/>
</svg>
