<svg width="80" height="64" viewBox="0 0 80 64" fill="none" xmlns="http://www.w3.org/2000/svg">
<path fill-rule="evenodd" clip-rule="evenodd" d="M73.4528 53.8653C70.5837 59.806 64.7387 64 57.9227 64H22.0773C15.2611 64 9.41615 59.806 6.54717 53.8653C5.98686 52.7061 6.07032 51.3749 6.77064 50.291C7.4735 49.2028 8.65892 48.5635 9.97302 48.5635H70.0269C71.341 48.5635 72.5265 49.2028 73.2293 50.291C73.9296 51.3749 74.013 52.7061 73.4528 53.8653Z" fill="#730606"/>
<path fill-rule="evenodd" clip-rule="evenodd" d="M71.3574 52.8942C68.828 58.1312 63.7461 61.729 57.9227 61.729H22.0773C16.2535 61.729 11.1719 58.1312 8.64253 52.8942C8.42042 52.4342 8.4515 51.9359 8.72935 51.5061C9.0071 51.0759 9.45377 50.8353 9.97313 50.8353H70.0269C70.5466 50.8353 70.9929 51.0759 71.2706 51.5061C71.5485 51.9359 71.5797 52.4342 71.3574 52.8942Z" fill="#F7962D"/>
<path fill-rule="evenodd" clip-rule="evenodd" d="M11.7619 57.3193C10.5038 56.0506 9.44446 54.5552 8.64246 52.8941C8.42035 52.4341 8.45162 51.9358 8.72937 51.506C9.00722 51.0758 9.45362 50.8352 9.97306 50.8352H66.1546C63.4721 55.4504 58.7148 58.5361 53.3224 58.5361H17.477C15.4573 58.5361 13.5277 58.103 11.7619 57.3193Z" fill="#F9B33A"/>
<path fill-rule="evenodd" clip-rule="evenodd" d="M68.6271 42.1757C70.0278 42.1491 75.6086 40.2368 73.8026 42.3297C75.352 42.2687 75.1822 43.4402 76.1954 44.1661C78.0014 45.4605 76.7771 45.9847 78.4727 47.6054C80.7853 49.8158 77.3734 48.4977 76.566 49.0902C73.0689 51.6569 69.2436 46.5454 69.2925 48.8656C69.4087 54.3707 64.1528 48.9935 63.8238 49.1804C58.3911 52.2666 58.5511 48.0549 55.3421 49.6722C50.5579 52.0835 46.8738 47.2885 44.2975 51.4108C41.8388 55.3457 31.893 48.6609 31.141 48.8807C26.8301 50.1387 29.0337 50.0375 24.3809 50.0181C21.0553 50.0043 19.653 47.7054 17.5928 49.022C11.4221 52.9667 10.6307 47.106 9.06109 48.8677C7.23263 50.9194 0.955743 50.7269 0.745682 49.428C0.480162 47.7828 5.5217 45.0357 8.20744 42.9C16.4834 36.3194 65.675 42.2321 68.6271 42.1757Z" fill="#00FF00"/>
<path fill-rule="evenodd" clip-rule="evenodd" d="M64.5987 40.1202C65.8024 40.0977 70.5978 38.4779 69.046 40.2507C70.3774 40.199 70.2316 41.1913 71.102 41.8062C72.6542 42.9025 71.602 43.3465 73.0592 44.7194C75.0461 46.5917 72.1142 45.4752 71.4205 45.9771C68.4156 48.1513 65.1285 43.8215 65.1706 45.7868C65.2704 50.4498 60.7542 45.8953 60.4715 46.0535C55.8033 48.6677 55.9408 45.1002 53.1834 46.47C49.0724 48.5125 45.9068 44.4509 43.693 47.9427C41.5804 51.2758 33.0342 45.6135 32.3879 45.7996C28.6838 46.8651 30.5773 46.7796 26.5792 46.7631C23.7216 46.7514 22.5166 44.8042 20.7464 45.9193C15.4441 49.2607 14.7641 44.2965 13.4154 45.7886C11.8442 47.5264 6.45057 47.3634 6.27014 46.2631C6.04196 44.8697 10.374 42.5428 12.6818 40.7338C19.7931 35.1596 62.0622 40.168 64.5987 40.1202Z" fill="#0D910D"/>
<path d="M68.6123 41.4572C68.9379 41.4514 69.6604 41.2929 70.448 41.1208C72.0372 40.7724 73.8608 40.3733 74.5377 40.9342C74.8129 41.1621 74.9485 41.4377 74.9071 41.7706C75.454 41.9926 75.7288 42.416 76.0287 42.8794C76.1904 43.129 76.3658 43.3994 76.6258 43.586C77.7695 44.4049 77.9254 44.9886 78.0957 45.6367C78.1981 46.0244 78.3114 46.4494 78.9811 47.09C80.1148 48.1731 80.2036 48.8465 79.7287 49.3239C79.3336 49.7209 78.6893 49.6894 77.997 49.6557C77.5538 49.6344 77.0753 49.6114 77.0028 49.6647C74.6054 51.4236 72.2246 50.2093 70.6323 49.3971C70.4002 49.2788 70.1898 49.1719 70.0238 49.093C70.0116 51.295 69.1539 52.0477 67.9906 52.0706C66.8309 52.0945 65.4676 51.1822 64.504 50.4837C64.3814 50.4363 64.2727 50.3576 64.191 50.2545C64.177 50.2426 64.167 50.228 64.1605 50.2128C64.1167 50.1485 64.0822 50.0761 64.0615 49.9973C64.0567 49.9799 64.031 49.9516 63.9884 49.9146C60.6769 51.7368 59.2432 51.0318 57.9761 50.4087C57.3123 50.0821 56.7133 49.7881 55.6752 50.3112C53.2309 51.5434 51.1204 51.0919 49.2625 50.6945C47.5107 50.3198 46.0335 50.0046 44.9207 51.7853C42.7307 55.2901 36.3271 52.1123 32.8765 50.3998C32.247 50.0871 31.8176 49.8115 31.5745 49.6702L31.3937 49.5773C31.3733 49.5705 31.3576 49.5675 31.3476 49.5705C30.1027 49.9338 29.421 50.1765 28.9559 50.3427C28.4834 50.5109 28.2047 50.6105 27.8387 50.6719C27.3506 50.7541 26.7763 50.7502 25.3901 50.7413L24.3746 50.7358C22.7575 50.7294 21.5894 50.2464 20.5863 49.8312C20.245 49.6902 19.9281 49.5594 19.6256 49.4695C19.4595 49.4905 19.2873 49.4555 19.1412 49.3657C18.7487 49.3183 18.3731 49.3789 17.9889 49.6242C13.6362 52.4067 11.6344 50.78 10.3124 49.7055C10.0517 49.4934 9.84817 49.3286 9.71785 49.3076L9.60738 49.4005C9.56217 49.438 9.5135 49.4695 9.46266 49.4943C8.65197 50.2869 7.31693 50.7631 5.91937 50.9798C4.85874 51.1443 3.74681 51.1659 2.81169 51.0684C1.79284 50.962 0.930757 50.6983 0.47176 50.306C0.224001 50.0944 0.0657758 49.838 0.0179278 49.5406H0.0174753C-0.244239 47.9188 2.47966 46.0427 5.10215 44.2368C6.06282 43.5758 7.01009 42.9232 7.74086 42.3423C14.8181 36.7151 49.8697 39.8384 63.4633 41.0492C66.264 41.2988 68.142 41.4663 68.6092 41.4572H68.6123ZM44.2761 50.2085C44.6077 49.473 45.8767 48.8741 47.0455 48.3234L47.045 48.3222C47.8088 47.9619 48.5187 47.627 48.5704 47.5381L48.5835 47.5155L48.5848 47.5163C48.6743 47.36 48.7239 47.2753 48.8908 47.1244C49.189 46.8557 49.6541 46.8745 49.9284 47.1667C50.2028 47.4588 50.1836 47.9145 49.8854 48.1833C49.8793 48.1889 49.872 48.2011 49.8597 48.2225V48.225L49.8467 48.2477C49.672 48.5487 49.2511 48.8294 48.7208 49.1101C48.9991 49.1633 49.2834 49.2247 49.5729 49.2864C51.1922 49.6326 53.0313 50.0262 55.0022 49.0326C55.39 48.8371 55.7369 48.7102 56.0534 48.6356C56.2173 48.5112 56.3851 48.4014 56.5529 48.2923C56.9831 48.012 57.4223 47.7259 57.4223 47.2787C57.4223 46.8804 57.7518 46.5577 58.1582 46.5577C58.5647 46.5577 58.8941 46.8804 58.8941 47.2787C58.8941 48.0441 58.5877 48.5275 58.1717 48.9039C58.3247 48.973 58.4768 49.0479 58.6316 49.1241C59.4875 49.5445 60.4451 50.016 62.6056 48.9989L62.1765 48.734C61.8366 48.5244 61.5354 48.3388 61.3242 48.1901C60.9955 47.9584 60.9207 47.5095 61.1572 47.1875C61.3937 46.8655 61.8519 46.7922 62.1805 47.024C62.3436 47.1386 62.6326 47.317 62.9582 47.5176C63.7898 48.0308 64.8382 48.6765 65.2842 49.2617C66.0928 49.8507 67.2408 50.649 67.962 50.6344C68.3237 50.6272 68.5836 50.1898 68.5562 48.8792C68.5483 48.5023 68.6031 48.2153 68.7162 48.0048C68.7144 47.7169 68.7788 47.4166 68.9035 47.1445C69.0678 46.7863 69.3395 46.4621 69.7056 46.2574L69.7047 46.256C69.8877 46.1534 70.0968 46.0806 70.3264 46.0494C70.7276 45.9954 71.0988 46.2705 71.154 46.6637C71.2092 47.0568 70.9284 47.4204 70.5271 47.4746C70.4954 47.4788 70.4637 47.4903 70.4351 47.5066H70.432C70.3768 47.5372 70.3285 47.5865 70.2893 47.6467C70.5984 47.7548 70.9336 47.9261 71.3105 48.1186C72.5759 48.7643 74.4685 49.7293 76.1225 48.5155C76.6204 48.1497 77.3708 48.1858 78.0658 48.2194L78.1012 48.2221C78.0522 48.1969 78.0033 48.1641 77.958 48.1207C76.9947 47.1999 76.8279 46.5704 76.6766 45.9971V45.9946C76.576 45.6116 76.4836 45.2667 75.7574 44.7462C75.2711 44.3973 75.0194 44.0093 74.7872 43.6511C74.5706 43.3164 74.3817 43.0263 73.8278 43.0476L72.1616 43.1132L73.0741 42.0553C72.5159 42.14 71.5991 42.341 70.7645 42.5238C69.9065 42.7111 69.1205 42.8837 68.6379 42.8935C68.0854 42.9037 66.1771 42.7337 63.3312 42.4803C49.9037 41.2843 15.2803 38.1995 8.66674 43.4574C7.87507 44.0868 6.91793 44.7462 5.94728 45.414C3.76113 46.9196 1.49288 48.4815 1.46289 49.2443C1.7024 49.4265 2.257 49.5628 2.96738 49.6373C3.78678 49.7226 4.76005 49.7038 5.68901 49.5598C6.87316 49.3763 7.96642 48.9989 8.50543 48.3941C8.74277 48.1275 8.96271 47.9503 9.17186 47.8455C9.53226 47.5026 9.80648 47.1922 10.0443 46.9226C10.8715 45.9851 11.3615 45.4298 12.9668 45.4298C13.3732 45.4298 13.7027 45.7526 13.7027 46.1509C13.7027 46.549 13.3732 46.872 12.9668 46.872C12.0278 46.872 11.7026 47.2408 11.1537 47.863C11.0471 47.9835 10.9345 48.1114 10.8111 48.2463C10.9519 48.3532 11.0971 48.4716 11.2497 48.5956C12.1799 49.3515 13.5597 50.473 16.5739 48.7886C16.25 48.7621 15.9844 48.7502 15.8419 48.7502C15.4354 48.7502 15.1059 48.4273 15.1059 48.0292C15.1059 47.6309 15.4354 47.3081 15.8419 47.3081C16.2244 47.3081 17.4124 47.3881 18.4031 47.5832C18.8704 47.6756 19.309 47.8017 19.6442 47.9708C20.1311 48.084 20.6223 48.2872 21.1556 48.5075C22.0347 48.8712 23.0579 49.2945 24.3807 49.2996L25.3962 49.3052C26.6755 49.3137 27.2054 49.3167 27.5918 49.2519C27.8409 49.2102 28.0696 49.1285 28.456 48.9908C28.6799 48.9108 28.9507 48.8141 29.2962 48.6986C28.8203 48.5394 28.3382 48.4043 27.8505 48.2928C26.4011 47.9614 24.8997 47.837 23.3382 47.9022C22.9335 47.9176 22.5923 47.6087 22.5767 47.2122C22.5611 46.8157 22.8763 46.4814 23.2809 46.4659C24.9793 46.3953 26.6111 46.5299 28.1843 46.8898C29.7605 47.2505 31.2842 47.8392 32.7643 48.6743C32.8373 48.7157 32.9008 48.7672 32.953 48.8264L33.538 49.1152C36.5658 50.6183 42.1856 53.4067 43.667 51.0356C43.8661 50.7175 44.0688 50.4436 44.2761 50.2085ZM73.5891 42.0331C73.581 42.0263 73.567 42.0217 73.5479 42.0185C73.6235 42.068 73.664 42.0949 73.5891 42.0331Z" fill="#730606"/>
<path fill-rule="evenodd" clip-rule="evenodd" d="M39.9999 4.95911e-05C54.9806 4.95911e-05 67.8499 8.97753 74.5086 21.8951C75.2837 23.3986 75.2455 25.1555 74.3995 26.6223C73.5758 28.0513 72.1304 28.9487 70.4459 28.9487C50.1489 28.9487 29.8514 28.9487 9.55445 28.9487C7.86998 28.9487 6.42466 28.0513 5.60082 26.6223C4.75487 25.1555 4.71663 23.3986 5.4918 21.8951C12.1505 8.97788 25.0198 4.95911e-05 39.9999 4.95911e-05Z" fill="#730606"/>
<path fill-rule="evenodd" clip-rule="evenodd" d="M40.0002 2.26618C54.017 2.26618 66.2255 10.6198 72.5899 22.9673C73.0046 23.7717 72.9834 24.6725 72.532 25.4553C72.0803 26.2382 71.3249 26.6821 70.446 26.6821C50.149 26.6821 29.8515 26.6821 9.5545 26.6821C8.67566 26.6821 7.92024 26.2382 7.46849 25.4553C7.01711 24.6725 6.99572 23.7717 7.41058 22.9673C13.775 10.6198 25.9835 2.26618 40.0002 2.26618Z" fill="#F7962D"/>
<path fill-rule="evenodd" clip-rule="evenodd" d="M40.0002 2.26661C48.1139 2.26661 55.6211 5.06563 61.7401 9.81803C61.7436 9.89856 61.7476 9.97945 61.7476 10.0608C61.7476 17.6332 47.2181 23.7715 29.2957 23.7715C21.4757 23.7715 14.3019 22.6023 8.69861 20.6558C15.3397 9.5893 26.8772 2.26661 40.0002 2.26661Z" fill="#F9B33A"/>
<path fill-rule="evenodd" clip-rule="evenodd" d="M40 2.26599C41.378 2.26599 42.7386 2.34687 44.0778 2.50403C45.0378 4.12374 45.565 5.87894 45.565 7.71255C45.565 15.8551 35.2038 22.4561 22.4225 22.4561C17.5125 22.4561 12.9605 21.4811 9.21497 19.8196C15.9278 9.22198 27.2105 2.26599 40 2.26599Z" fill="#FFD66C"/>
<path fill-rule="evenodd" clip-rule="evenodd" d="M11.8215 31.2918H68.1785C71.9287 31.2918 74.9964 34.2975 74.9964 37.9717C74.9964 41.6461 71.9287 44.6519 68.1785 44.6519H11.8215C8.07129 44.6519 5.00366 41.6461 5.00366 37.9717C5.00366 34.2975 8.07129 31.2918 11.8215 31.2918Z" fill="#730606"/>
<path fill-rule="evenodd" clip-rule="evenodd" d="M11.8214 33.5578H68.1785C70.6563 33.5578 72.6833 35.5439 72.6833 37.9715C72.6833 40.3993 70.6563 42.3853 68.1785 42.3853H11.8214C9.34367 42.3853 7.31665 40.3993 7.31665 37.9715C7.31665 35.5439 9.34367 33.5578 11.8214 33.5578Z" fill="#AB350A"/>
<path fill-rule="evenodd" clip-rule="evenodd" d="M11.8214 33.5574H68.1784C70.2937 33.5574 72.079 35.0047 72.5572 36.9385C72.079 38.8721 70.2937 40.3193 68.1784 40.3193H11.8214C9.70608 40.3193 7.92075 38.8721 7.44263 36.9385C7.92075 35.0047 9.70608 33.5574 11.8214 33.5574Z" fill="#D14A19"/>
<path fill-rule="evenodd" clip-rule="evenodd" d="M61.8351 36.0065C60.1986 38.5641 57.7681 41.2488 54.3614 40.844C51.9141 40.5532 50.0282 38.752 48.3624 37.128C47.73 36.5107 45.9212 34.6431 45.0088 34.5597C44.645 34.5265 44.1976 34.9192 43.966 35.1402C42.285 36.7475 39.8959 38.6404 37.4046 37.5551C35.1963 36.593 34.6642 33.5324 33.1845 33.5324H8.30537C6.40613 33.5324 4.81165 32.0553 4.81165 30.1796V30.0888C4.81165 28.2131 6.40613 26.736 8.30537 26.736H71.6942C73.5933 26.736 75.1879 28.2131 75.1879 30.0888V30.1732C75.1879 31.1102 74.7984 31.9692 74.0981 32.6065C73.4287 33.2155 72.5709 33.5349 71.6576 33.526C69.4868 33.5043 65.6762 33.2564 63.7174 34.2295C62.9002 34.6355 62.3177 35.2518 61.8351 36.0065Z" fill="#730606"/>
<path fill-rule="evenodd" clip-rule="evenodd" d="M59.8708 34.7991C52.4969 46.3231 48.6747 27.4648 42.347 33.5136C36.3173 39.2784 38.0659 31.2601 33.1847 31.2601H8.3053C7.65799 31.2601 7.12976 30.7742 7.12976 30.1787V30.088C7.12976 29.4926 7.65799 29.0066 8.3053 29.0066H71.6943C72.3416 29.0066 72.8697 29.4926 72.8697 30.088V30.1723C72.8697 30.4722 72.7526 30.7303 72.5207 30.9412C72.2892 31.152 72.0072 31.2572 71.6813 31.2537C66.1339 31.1988 62.3639 30.9019 59.8708 34.7991Z" fill="#FFFF00"/>
<path fill-rule="evenodd" clip-rule="evenodd" d="M35.7708 15.9332C34.9818 15.6766 34.1298 16.0951 33.8678 16.8681C33.606 17.6411 34.033 18.4759 34.822 18.7326C35.6109 18.9892 36.4629 18.5707 36.7249 17.7977C36.9869 17.0247 36.5597 16.1899 35.7708 15.9332Z" fill="#F7962D"/>
<path fill-rule="evenodd" clip-rule="evenodd" d="M30.3801 19.0997C29.5912 18.843 28.7392 19.2616 28.4773 20.0346C28.2153 20.8076 28.6425 21.6424 29.4314 21.8991C30.2204 22.1557 31.0723 21.7372 31.3343 20.9642C31.5963 20.1911 31.1691 19.3564 30.3801 19.0997Z" fill="#F7962D"/>
<path fill-rule="evenodd" clip-rule="evenodd" d="M49.1773 14.8562C47.8185 14.4141 46.3514 15.135 45.9003 16.4662C45.4491 17.7975 46.1846 19.235 47.5433 19.677C48.9021 20.1191 50.3693 19.3982 50.8204 18.067C51.2716 16.7358 50.536 15.2983 49.1773 14.8562Z" fill="#F7962D"/>
<path fill-rule="evenodd" clip-rule="evenodd" d="M43.0347 8.0233C42.6403 7.895 42.2145 8.1042 42.0835 8.4907C41.9525 8.8772 42.166 9.29434 42.5604 9.42264C42.955 9.55103 43.3806 9.34184 43.5117 8.95534C43.6426 8.56884 43.4292 8.15169 43.0347 8.0233Z" fill="#F7962D"/>
<path fill-rule="evenodd" clip-rule="evenodd" d="M35.3104 5.33705C34.6532 5.12325 33.9431 5.4721 33.7248 6.11601C33.5066 6.76 33.8627 7.45567 34.5199 7.66947C35.177 7.88337 35.8871 7.53451 36.1054 6.89061C36.3236 6.24662 35.9676 5.55095 35.3104 5.33705Z" fill="#F7962D"/>
<path fill-rule="evenodd" clip-rule="evenodd" d="M22.8063 8.17591C22.2804 8.00481 21.7127 8.28371 21.5381 8.79888C21.3635 9.31414 21.6481 9.87032 22.174 10.0414C22.6998 10.2125 23.2674 9.93363 23.4421 9.41837C23.6167 8.9032 23.3321 8.34701 22.8063 8.17591Z" fill="#F7962D"/>
<path fill-rule="evenodd" clip-rule="evenodd" d="M20.7248 15.0954C20.155 14.91 19.54 15.2123 19.3507 15.7705C19.1615 16.3287 19.47 16.9315 20.0397 17.1168C20.6095 17.3022 21.2246 17 21.4138 16.4417C21.603 15.8834 21.2946 15.2807 20.7248 15.0954Z" fill="#F7962D"/>
<path fill-rule="evenodd" clip-rule="evenodd" d="M40.6737 24.348C40.2793 24.2197 39.8535 24.4289 39.7225 24.8154C39.5915 25.2019 39.805 25.619 40.1994 25.7473C40.594 25.8757 41.0198 25.6665 41.1507 25.28C41.2818 24.8935 41.0682 24.4764 40.6737 24.348Z" fill="#F7962D"/>
<path fill-rule="evenodd" clip-rule="evenodd" d="M30.2669 11.6387C29.6536 11.4392 28.991 11.7647 28.7873 12.3656C28.5837 12.9666 28.9159 13.6157 29.5292 13.8153C30.1426 14.0148 30.8051 13.6892 31.0088 13.0884C31.2124 12.4875 30.8802 11.8382 30.2669 11.6387Z" fill="#F7962D"/>
<path fill-rule="evenodd" clip-rule="evenodd" d="M56.1514 8.83782C55.7569 8.70943 55.3312 8.91862 55.2002 9.30512C55.0692 9.69162 55.2827 10.1088 55.6771 10.2371C56.0716 10.3654 56.4974 10.1562 56.6283 9.76975C56.7593 9.38325 56.5458 8.96612 56.1514 8.83782Z" fill="#F7962D"/>
<path fill-rule="evenodd" clip-rule="evenodd" d="M58.5116 14.612C57.6352 14.3269 56.6887 14.7919 56.3977 15.6506C56.1066 16.5093 56.5813 17.4366 57.4577 17.7217C58.3341 18.0069 59.2804 17.5419 59.5715 16.6832C59.8626 15.8245 59.3879 14.8972 58.5116 14.612Z" fill="#F7962D"/>
<path fill-rule="evenodd" clip-rule="evenodd" d="M35.9245 15.9074C35.1694 15.6617 34.3546 16.0623 34.1038 16.802C33.9752 17.1814 34.0194 17.5764 34.1957 17.9041C34.3459 18.0459 34.5301 18.1576 34.7414 18.2264C35.4964 18.4723 36.3113 18.072 36.5621 17.3318C36.6907 16.9524 36.6457 16.5575 36.4698 16.2297C36.3196 16.0879 36.1358 15.9763 35.9245 15.9074Z" fill="#F9B33A"/>
<path fill-rule="evenodd" clip-rule="evenodd" d="M30.7664 18.9375C30.0111 18.6917 29.1958 19.0924 28.9454 19.8321C28.8168 20.2111 28.8617 20.6061 29.0377 20.9342C29.1879 21.076 29.3717 21.1881 29.583 21.2569C30.3379 21.5023 31.1532 21.1017 31.4041 20.3623C31.5326 19.9825 31.4873 19.5872 31.3109 19.2591C31.1608 19.1177 30.9769 19.006 30.7664 18.9375Z" fill="#F9B33A"/>
<path fill-rule="evenodd" clip-rule="evenodd" d="M48.7524 14.8767C47.4526 14.4537 46.0488 15.1437 45.617 16.4176C45.3766 17.1268 45.4885 17.8678 45.8595 18.4583C46.137 18.7579 46.4943 18.9939 46.914 19.1304C48.2139 19.5535 49.6181 18.8635 50.0495 17.5894C50.2903 16.8802 50.178 16.1397 49.8074 15.5492C49.5299 15.2493 49.1727 15.0133 48.7524 14.8767Z" fill="#F9B33A"/>
<path fill-rule="evenodd" clip-rule="evenodd" d="M42.8754 8.33887C42.4973 8.21615 42.0901 8.41675 41.9648 8.7864C41.9141 8.93638 41.9173 9.09133 41.9648 9.23073C42.0193 9.26741 42.0796 9.29715 42.1458 9.31873C42.5235 9.4418 42.9307 9.2413 43.0559 8.87164C43.107 8.72122 43.1038 8.56636 43.0564 8.42687C43.0018 8.39028 42.9411 8.36045 42.8754 8.33887Z" fill="#F9B33A"/>
<path fill-rule="evenodd" clip-rule="evenodd" d="M35.4836 5.76863C34.8546 5.56371 34.1749 5.89747 33.9661 6.51412C33.8634 6.8169 33.8937 7.13157 34.0256 7.39812C34.1454 7.50405 34.2885 7.58805 34.4515 7.64106C35.0805 7.84554 35.7598 7.51142 35.969 6.89557C36.0718 6.59235 36.0406 6.27776 35.9087 6.01121C35.7893 5.90563 35.6462 5.82164 35.4836 5.76863Z" fill="#F9B33A"/>
<path fill-rule="evenodd" clip-rule="evenodd" d="M23.5191 8.48432C23.0153 8.32041 22.4725 8.58742 22.3053 9.08058C22.2284 9.30718 22.2446 9.5423 22.3336 9.74617C22.4214 9.81667 22.5237 9.87287 22.6381 9.9099C23.1414 10.0734 23.6847 9.80681 23.8519 9.31375C23.9288 9.08706 23.9126 8.85193 23.8239 8.64851C23.7358 8.578 23.6335 8.52135 23.5191 8.48432Z" fill="#F9B33A"/>
<path fill-rule="evenodd" clip-rule="evenodd" d="M21.5266 15.1055C20.9817 14.9282 20.3931 15.2175 20.2122 15.7514C20.1265 16.0041 20.1473 16.2658 20.2509 16.4908C20.3495 16.5726 20.4659 16.6379 20.5961 16.6803C21.1415 16.8576 21.73 16.5682 21.9109 16.0343C21.9966 15.7821 21.9763 15.5204 21.8731 15.2959C21.7742 15.2135 21.6576 15.1479 21.5266 15.1055Z" fill="#F9B33A"/>
<path fill-rule="evenodd" clip-rule="evenodd" d="M40.616 23.9607C40.2386 23.8376 39.831 24.0376 39.7054 24.4073C39.6546 24.5573 39.6575 24.7126 39.7049 24.8515C39.7598 24.8882 39.8206 24.9184 39.8867 24.94C40.264 25.0627 40.6716 24.8625 40.7973 24.4929C40.848 24.343 40.845 24.188 40.7977 24.0491C40.7427 24.012 40.682 23.9822 40.616 23.9607Z" fill="#F9B33A"/>
<path fill-rule="evenodd" clip-rule="evenodd" d="M30.6577 11.7988C30.0708 11.6077 29.4368 11.9195 29.2417 12.4942C29.1478 12.7717 29.1728 13.0598 29.2904 13.3056C29.3999 13.3997 29.5296 13.4743 29.6764 13.522C30.2634 13.7128 30.8973 13.4014 31.0924 12.8263C31.1864 12.5488 31.161 12.2602 31.0433 12.0149C30.9339 11.9207 30.8041 11.8466 30.6577 11.7988Z" fill="#F9B33A"/>
<path fill-rule="evenodd" clip-rule="evenodd" d="M55.426 9.11798C55.0488 8.99527 54.6412 9.1954 54.5159 9.56547C54.4652 9.71544 54.4689 9.87073 54.5159 10.0097C54.5704 10.0464 54.6311 10.0761 54.6973 10.0977C55.0746 10.2204 55.4817 10.0203 55.607 9.65063C55.6576 9.50066 55.6544 9.34537 55.607 9.20597C55.5524 9.1693 55.4921 9.13956 55.426 9.11798Z" fill="#F9B33A"/>
<path fill-rule="evenodd" clip-rule="evenodd" d="M57.6843 14.6436C56.8457 14.3709 55.9406 14.8159 55.6618 15.6376C55.5159 16.0676 55.5707 16.5159 55.7767 16.8843C55.9468 17.0501 56.1577 17.181 56.401 17.2601C57.2396 17.5327 58.1448 17.0881 58.4235 16.2656C58.5695 15.8357 58.5146 15.3874 58.3087 15.0193C58.1385 14.8535 57.9276 14.7227 57.6843 14.6436Z" fill="#F9B33A"/>
</svg>
