<svg width="56" height="56" viewBox="0 0 56 56" fill="none" xmlns="http://www.w3.org/2000/svg">
<g clip-path="url(#clip0)">
<path d="M49.5671 34.106H6.23353C4.74501 34.106 3.53803 35.3149 3.53803 36.8067V39.1723C3.53803 39.7592 4.01313 40.2352 4.59931 40.2352H51.2017C51.7875 40.2352 52.2626 39.7592 52.2626 39.1723V36.8067C52.2626 35.3149 51.056 34.106 49.5671 34.106Z" fill="#912C2C"/>
<path d="M49.5671 34.106H45.9363V40.2357H51.2017C51.7879 40.2357 52.2626 39.7596 52.2626 39.1723V36.8067C52.2626 35.3149 51.056 34.106 49.5671 34.106Z" fill="#7C1E1E"/>
<path d="M51.3799 30.8799C52.7834 30.8799 53.9664 32.0477 53.9677 33.5139C53.969 35.6076 51.5866 36.7155 48.8194 36.3097C46.2345 35.9308 46.2021 34.7391 43.5843 34.7391C40.967 34.7391 40.967 36.3097 38.3493 36.3097C35.7319 36.3097 35.7319 34.7391 33.1146 34.7391C30.4973 34.7391 30.4973 36.3097 27.88 36.3097C25.2623 36.3097 25.2627 34.7391 22.6449 34.7391C20.0276 34.7391 20.0276 36.3097 17.4103 36.3097C14.793 36.3097 14.793 34.7391 12.1753 34.7391C9.55794 34.7391 9.52504 35.9304 6.94062 36.3097C4.17292 36.7155 1.79102 35.6076 1.7923 33.5139C1.79315 32.0477 2.9762 30.8799 4.37971 30.8799H51.3799Z" fill="#A0E557"/>
<path d="M53.9677 33.5139C53.9664 32.0477 52.7834 30.8799 51.3799 30.8799H47.4522V35.9711C47.8235 36.1085 48.2618 36.2279 48.8194 36.3097C51.5867 36.7155 53.969 35.6076 53.9677 33.5139Z" fill="#93CC4A"/>
<path d="M52.8624 39.6914H2.91895C1.70001 39.6914 0.712219 40.6816 0.712219 41.9025C0.712219 48.2509 5.84858 53.3973 12.1847 53.3973H43.5967C49.9328 53.3973 55.0691 48.2509 55.0691 41.9025C55.0691 40.6816 54.0809 39.6914 52.8624 39.6914Z" fill="#EFA335"/>
<path d="M52.8624 39.6914H48.754V44.1139C48.754 49.2411 44.6054 53.3977 39.4883 53.3977H43.5967C49.9328 53.3977 55.0691 48.2509 55.0691 41.9025C55.0691 40.6816 54.0809 39.6914 52.8624 39.6914Z" fill="#FD8F31"/>
<path d="M49.5572 28.0653H6.22413C4.73518 28.0653 3.52863 26.8564 3.52863 25.3645V22.9989C3.52863 22.4116 4.00373 21.9355 4.58949 21.9355H51.1919C51.7776 21.9355 52.2527 22.4116 52.2527 22.9989V25.3645C52.2527 26.8564 51.0462 28.0653 49.5572 28.0653Z" fill="#FC4E51"/>
<path d="M51.1919 21.9355H45.9457V26.4278C45.9457 27.3319 45.2143 28.0653 44.3115 28.0653H49.5577C51.0462 28.0653 52.2532 26.8564 52.2532 25.3645V22.9989C52.2527 22.4116 51.7776 21.9355 51.1919 21.9355Z" fill="#EA3942"/>
<path d="M51.8336 27.5518H3.99859C2.91381 27.5518 1.99266 28.4413 2.01274 29.5278C2.0324 30.5817 2.89116 31.4298 3.94774 31.4298H34.3404C34.8343 31.4298 35.3115 31.6065 35.6866 31.9285L40.0001 35.6318C41.2601 36.7136 43.1408 36.6322 44.3038 35.4464L47.6342 32.05C48.023 31.6532 48.5549 31.4298 49.1099 31.4298H51.7832C52.8675 31.4298 53.7891 30.5406 53.7686 29.4537C53.7489 28.3998 52.8902 27.5518 51.8336 27.5518Z" fill="#FCCF3F"/>
<path d="M27.8907 2.63135C2.5857 2.64077 0.712219 19.3664 0.712219 21.7349C0.712219 22.9563 1.70044 23.946 2.91895 23.946H52.8624C54.0809 23.946 55.0691 22.9563 55.0691 21.7349C55.0691 19.3664 53.1957 2.64077 27.8907 2.63135Z" fill="#EFA335"/>
<path d="M55.0687 21.672C55.0687 21.6652 55.0683 21.6579 55.0683 21.6506C55.0683 21.6348 55.0679 21.6185 55.0674 21.6018C55.067 21.5941 55.067 21.586 55.0666 21.5778C55.0661 21.5607 55.0657 21.5427 55.0649 21.5248C55.0649 21.5162 55.0644 21.5081 55.064 21.4995C55.0632 21.4798 55.0623 21.4597 55.0614 21.4391C55.061 21.4314 55.0606 21.4242 55.0602 21.4169C55.0593 21.3925 55.0576 21.3676 55.0563 21.342C55.0559 21.3373 55.0559 21.333 55.0555 21.3287C55.0461 21.1686 55.0307 20.9824 55.008 20.7739C55.008 20.7735 55.008 20.773 55.008 20.773C54.5441 16.4995 50.9253 2.63991 27.8907 2.63135C26.7944 2.63178 25.7429 2.66431 24.7329 2.72467C40.0629 3.64505 45.6676 11.2097 47.6735 16.5864C48.5173 18.8488 46.8288 21.2572 44.4187 21.2572H2.91895C2.0102 21.2572 1.23004 20.7063 0.891663 19.9199C0.751099 20.7589 0.712219 21.395 0.712219 21.7349C0.712219 22.9563 1.70044 23.946 2.91895 23.946H52.8624C54.0809 23.946 55.0691 22.9563 55.0691 21.7349C55.0691 21.7153 55.0691 21.6938 55.0687 21.672Z" fill="#FD8F31"/>
<path d="M51.8336 27.5518H47.4522V32.2354L47.6342 32.05C48.023 31.6532 48.5549 31.4298 49.1099 31.4298H51.7832C52.8676 31.4298 53.7891 30.5402 53.7686 29.4537C53.749 28.3998 52.8902 27.5518 51.8336 27.5518Z" fill="#EFC03C"/>
<path d="M53.0842 38.877V36.8068C53.0842 36.6827 53.0752 36.559 53.0624 36.4365C53.2662 36.3141 53.4554 36.1788 53.6272 36.0299C54.3881 35.3706 54.7897 34.5003 54.7889 33.5132C54.7884 32.6686 54.4783 31.8633 53.9421 31.2413C54.3629 30.7405 54.6022 30.1026 54.5898 29.4382C54.568 28.258 53.7917 27.252 52.7312 26.8813C52.9513 26.4215 53.0743 25.907 53.0743 25.3642V24.761C54.6457 24.6514 55.8907 23.3364 55.8907 21.7349C55.8907 21.5033 55.842 16.0025 51.6067 10.7794C49.4543 8.12489 46.6049 6.02257 43.137 4.53071C38.9423 2.72634 33.8128 1.81025 27.8903 1.80811C20.4309 1.81067 14.2713 3.25588 9.58229 6.10263C9.19393 6.3385 9.07003 6.84449 9.30501 7.23319C9.54042 7.62189 10.0454 7.74646 10.4334 7.51059C14.8626 4.8218 20.736 3.45708 27.8903 3.45451C33.5884 3.45665 38.4996 4.32737 42.4889 6.04355C45.7099 7.42925 48.3485 9.37189 50.3314 11.8175C54.2031 16.5919 54.2475 21.5273 54.2475 21.7349C54.2475 22.5003 53.6263 23.1227 52.8624 23.1227H2.91895C2.15503 23.1227 1.53382 22.5003 1.53382 21.7349C1.53382 21.5281 1.56073 19.639 2.50025 17.0427C3.52778 14.2019 5.1996 11.7315 7.46828 9.70023C7.80666 9.39715 7.83614 8.8766 7.53365 8.53799C7.23115 8.19894 6.71205 8.16983 6.37367 8.47249C-0.0354613 14.2114 -0.109375 21.4305 -0.109375 21.7349C-0.109375 23.3364 1.13562 24.6514 2.70661 24.761V25.3642C2.70661 25.9117 2.83222 26.4305 3.05567 26.8933C2.65363 27.0371 2.28321 27.2709 1.97986 27.5804C1.45777 28.1133 1.17792 28.8107 1.19159 29.5431C1.20313 30.178 1.43 30.7717 1.81708 31.2426C1.28131 31.8646 0.97156 32.6698 0.971133 33.5132C0.970278 34.5003 1.37189 35.3706 2.13282 36.0299C2.31525 36.1878 2.51777 36.3304 2.73566 36.4584C2.72413 36.5739 2.71644 36.69 2.71644 36.8068V38.8753C1.14075 38.9806 -0.109375 40.2974 -0.109375 41.9023C-0.109375 48.6947 5.40596 54.2203 12.1847 54.2203H43.5967C50.3754 54.2203 55.8907 48.6947 55.8907 41.9023C55.8907 40.3043 54.6509 38.9913 53.0842 38.877ZM52.5527 34.7846C51.7973 35.4391 50.4126 35.7114 48.9381 35.4952C47.8944 35.3419 47.3449 35.0508 46.7635 34.7422C46.6297 34.6715 46.4947 34.5996 46.3537 34.5299L48.2199 32.6266C48.4528 32.389 48.7771 32.2529 49.1099 32.2529H51.7828C52.0382 32.2529 52.2895 32.2182 52.5339 32.1493C52.9175 32.4909 53.1457 32.9883 53.1461 33.5144C53.1461 34.0157 52.9466 34.4434 52.5527 34.7846ZM4.3498 24.7696H51.4316V25.3642C51.4316 26.0033 51.1107 26.5684 50.6224 26.9074C50.6087 26.9173 50.5946 26.9263 50.5805 26.9352C50.5454 26.9584 50.5096 26.9802 50.4732 27.0007C50.4604 27.008 50.448 27.0153 50.4356 27.0221C50.3891 27.047 50.3417 27.0701 50.2929 27.0911C50.29 27.0924 50.2874 27.0936 50.2848 27.0949C50.2306 27.1176 50.175 27.1382 50.1182 27.1557C50.1118 27.1578 50.1054 27.1596 50.099 27.1613C50.0516 27.1758 50.0033 27.1882 49.9541 27.1985C49.9388 27.2019 49.9238 27.2049 49.9084 27.2079C49.8661 27.2156 49.8234 27.2225 49.7803 27.2276C49.764 27.2293 49.7482 27.2315 49.732 27.2332C49.6743 27.2388 49.6162 27.2422 49.5572 27.2422H6.22371C5.19062 27.2422 4.3498 26.3997 4.3498 25.3646V24.7696ZM3.15266 28.7336C3.37611 28.5059 3.68415 28.3749 3.9986 28.3749H4.39765C4.93043 28.7002 5.55549 28.8882 6.22413 28.8882H49.5572C49.6303 28.8882 49.7025 28.8852 49.7743 28.8809C49.7973 28.8796 49.82 28.8775 49.8426 28.8757C49.893 28.8715 49.9435 28.8663 49.9934 28.8599C50.0178 28.8569 50.0426 28.8543 50.0669 28.8509C50.131 28.8415 50.1947 28.8308 50.2575 28.818C50.284 28.8124 50.31 28.806 50.3365 28.8C50.3797 28.7901 50.4228 28.7799 50.4656 28.7683C50.498 28.7597 50.5305 28.7503 50.5625 28.7409C50.5971 28.7306 50.6313 28.7191 50.6655 28.7079C50.6984 28.6972 50.7309 28.6865 50.7633 28.675C50.8193 28.654 50.8749 28.6322 50.9295 28.609C50.9624 28.5949 50.9949 28.5795 51.0274 28.5645C51.0581 28.5504 51.0885 28.5358 51.1184 28.5209C51.1504 28.5046 51.1825 28.4888 51.2141 28.4716C51.25 28.4524 51.2854 28.4318 51.3209 28.4113C51.3423 28.3989 51.3641 28.3877 51.3854 28.3749H51.8336C52.4364 28.3749 52.9359 28.8659 52.947 29.4691C52.9551 29.8894 52.6988 30.2888 52.2946 30.4858C52.2946 30.4858 52.2946 30.4858 52.2942 30.4858C52.1297 30.5658 51.9575 30.6069 51.7828 30.6069H49.1095C48.3391 30.6069 47.5876 30.9224 47.0476 31.4733L43.7172 34.8697C42.9234 35.6797 41.6647 35.7893 40.7457 35.1664C40.7256 35.1527 40.706 35.139 40.6863 35.1249C40.635 35.0881 40.5842 35.0495 40.5351 35.0076C40.5351 35.0072 40.5346 35.0067 40.5342 35.0067L36.2207 31.3034C35.6973 30.8543 35.0295 30.6069 34.3404 30.6069H3.94776C3.77857 30.6069 3.61451 30.568 3.45942 30.4918H3.45899C3.08131 30.306 2.84205 29.9305 2.83436 29.5123C2.8288 29.2255 2.94202 28.9489 3.15266 28.7336ZM2.61432 33.514C2.61432 32.9913 2.84034 32.4965 3.22059 32.1549C3.45643 32.2199 3.69953 32.2529 3.94776 32.2529H34.3404C34.6382 32.2529 34.9262 32.3599 35.1522 32.5534L38.5633 35.4823C38.4949 35.4849 38.4236 35.4862 38.3497 35.4862C37.2683 35.4862 36.7766 35.1912 36.1545 34.818C35.4495 34.395 34.6506 33.9156 33.1146 33.9156C31.5791 33.9156 30.7802 34.395 30.0752 34.818C29.4531 35.1912 28.9618 35.4862 27.88 35.4862C26.7982 35.4862 26.3069 35.1912 25.6848 34.818C24.9798 34.395 24.1809 33.9156 22.6454 33.9156C21.1094 33.9156 20.3105 34.395 19.6055 34.818C18.9834 35.1912 18.4921 35.4862 17.4103 35.4862C16.3285 35.4862 15.8372 35.1912 15.2151 34.818C14.5102 34.395 13.7112 33.9156 12.1753 33.9156C10.5526 33.9156 9.76088 34.3359 8.99526 34.7422C8.4142 35.0504 7.86519 35.3419 6.82142 35.4947C5.347 35.7109 3.96229 35.4387 3.20734 34.7846C2.81342 34.4434 2.6139 34.0157 2.61432 33.514ZM43.5967 52.5744H12.1847C6.31172 52.5744 1.53382 47.7867 1.53382 41.9023C1.53382 41.1369 2.15503 40.5144 2.91895 40.5144H39.7489C40.2027 40.5144 40.5705 40.1459 40.5705 39.6912C40.5705 39.2366 40.2027 38.868 39.7489 38.868H4.35963V37.0654C4.82661 37.163 5.32392 37.2144 5.84047 37.2144C6.23781 37.2144 6.64625 37.1844 7.05983 37.124C8.38387 36.9297 9.11745 36.5406 9.76473 36.1972C10.4334 35.8424 10.9614 35.562 12.1757 35.562C13.257 35.562 13.7488 35.8569 14.3709 36.2302C15.0758 36.6531 15.8748 37.1326 17.4107 37.1326C18.9463 37.1326 19.7452 36.6531 20.4502 36.2302C21.0722 35.8569 21.5636 35.562 22.6454 35.562C23.7272 35.562 24.2185 35.8569 24.8406 36.2302C25.5455 36.6531 26.3445 37.1326 27.8804 37.1326C29.416 37.1326 30.2149 36.6531 30.9199 36.2302C31.5419 35.8569 32.0333 35.562 33.1151 35.562C34.1968 35.562 34.6882 35.8569 35.3102 36.2302C36.0152 36.6531 36.8142 37.1326 38.3497 37.1326C39.0811 37.1326 39.6947 37.0264 40.2843 36.7978C40.8401 37.0735 41.4455 37.2114 42.0509 37.2114C43.0853 37.2114 44.1171 36.8115 44.89 36.0234L45.1198 35.7893C45.4287 35.8984 45.6983 36.0401 45.9957 36.1977C46.643 36.541 47.3766 36.9297 48.7006 37.124C49.1142 37.1848 49.5226 37.2144 49.92 37.2144C50.4515 37.2144 50.9624 37.16 51.4414 37.0568V38.868H43.5719C43.1182 38.868 42.7503 39.2366 42.7503 39.6912C42.7503 40.1459 43.1182 40.5144 43.5719 40.5144H52.8624C53.6263 40.5144 54.248 41.1369 54.248 41.9023C54.2475 47.7867 49.4696 52.5744 43.5967 52.5744Z" fill="black"/>
</g>
<defs>
<clipPath id="clip0">
<rect width="56" height="56" fill="white"/>
</clipPath>
</defs>
</svg>
