<svg width="25" height="23" viewBox="0 0 25 23" fill="none" xmlns="http://www.w3.org/2000/svg">
<path d="M24.1781 9.11766H19.3373L15.8135 0.627498C15.6395 0.208285 15.1584 0.00961021 14.7393 0.183465C14.3201 0.357484 14.1213 0.838392 14.2953 1.2576L17.5576 9.11766H7.44243L10.7047 1.2576C10.8788 0.838392 10.6799 0.357429 10.2607 0.183465C9.84166 0.00950063 9.36053 0.208285 9.18657 0.627498L5.66274 9.11766H0.821878C0.367982 9.11766 0 9.48565 0 9.93954C0 10.3934 0.367982 10.7614 0.821878 10.7614H1.3161L2.92742 19.5738C3.2777 21.4893 4.9453 22.8796 6.89254 22.8796H18.1076C20.0549 22.8796 21.7224 21.4893 22.0726 19.5738L23.684 10.7614H24.1782C24.6321 10.7614 25.0001 10.3934 25.0001 9.93954C25.0001 9.48565 24.632 9.11766 24.1781 9.11766ZM20.4556 19.2781C20.2482 20.4125 19.2607 21.2358 18.1075 21.2358H6.89249C5.73934 21.2358 4.75177 20.4125 4.54433 19.2781L2.99416 10.8003H22.0058L20.4556 19.2781Z" fill="black"/>
</svg>
