<svg width="37" height="27" viewBox="0 0 37 27" fill="none" xmlns="http://www.w3.org/2000/svg">
<path d="M31.4675 3.4006C28.3631 0.901482 23.4514 0.477942 23.2408 0.463122C23.0808 0.449949 22.9207 0.48687 22.7826 0.568767C22.6445 0.650664 22.5354 0.773482 22.4702 0.920202C22.3765 1.13097 22.297 1.34778 22.2323 1.56916C24.286 1.91626 26.8086 2.61436 29.0908 4.03084C29.1779 4.08487 29.2535 4.15553 29.3132 4.23877C29.373 4.322 29.4158 4.4162 29.4391 4.51597C29.4625 4.61574 29.466 4.71914 29.4494 4.82025C29.4328 4.92137 29.3964 5.01823 29.3424 5.10529C29.2884 5.19236 29.2177 5.26793 29.1345 5.32769C29.0512 5.38745 28.957 5.43023 28.8573 5.45359C28.7575 5.47695 28.6541 5.48043 28.553 5.46383C28.4519 5.44723 28.355 5.41087 28.2679 5.35684C24.3445 2.9209 19.4446 2.8 18.5 2.8C17.5562 2.8 12.6531 2.92168 8.73206 5.35606C8.64499 5.41009 8.54813 5.44645 8.44702 5.46305C8.3459 5.47965 8.24251 5.47617 8.14273 5.45281C7.94124 5.40564 7.76673 5.28035 7.65761 5.10451C7.54848 4.92867 7.51368 4.71669 7.56086 4.51519C7.60803 4.31369 7.73332 4.13918 7.90916 4.03006C10.1914 2.61748 12.714 1.91626 14.7677 1.57228C14.6491 1.1854 14.5415 0.941262 14.5337 0.920202C14.4688 0.772446 14.3591 0.648823 14.2201 0.566803C14.0811 0.484783 13.9199 0.448514 13.7592 0.463122C13.5486 0.478722 8.6369 0.901482 5.4896 3.43414C3.8477 4.95358 0.559998 13.8386 0.559998 21.52C0.559998 21.6573 0.596657 21.7883 0.663737 21.9069C2.93042 25.8927 9.11894 26.934 10.5292 26.98H10.5534C10.6764 26.9803 10.7978 26.9515 10.9076 26.8959C11.0174 26.8403 11.1125 26.7596 11.1852 26.6602L12.6102 24.6977C8.76248 23.7048 6.79688 22.0169 6.68456 21.9162C6.52941 21.7793 6.43501 21.5863 6.42214 21.3798C6.40927 21.1732 6.47897 20.97 6.61592 20.8149C6.75286 20.6597 6.94584 20.5653 7.15238 20.5525C7.35893 20.5396 7.56212 20.6093 7.71728 20.7462C7.76252 20.7891 11.3825 23.86 18.5 23.86C25.6292 23.86 29.2492 20.7767 29.2858 20.7462C29.4415 20.6103 29.6447 20.5416 29.8509 20.5554C30.0571 20.5691 30.2494 20.6641 30.3856 20.8196C30.4531 20.8962 30.5047 20.9853 30.5377 21.0819C30.5706 21.1785 30.5843 21.2806 30.5777 21.3824C30.5712 21.4843 30.5447 21.5838 30.4997 21.6754C30.4547 21.767 30.3921 21.8489 30.3154 21.9162C30.2031 22.0169 28.2375 23.7048 24.3898 24.6977L25.8156 26.6602C25.8882 26.7595 25.9831 26.8402 26.0928 26.8958C26.2024 26.9513 26.3237 26.9802 26.4466 26.98H26.47C27.8818 26.934 34.0696 25.8919 36.337 21.9069C36.4033 21.7883 36.44 21.6573 36.44 21.52C36.44 13.8386 33.1523 4.95436 31.4675 3.4006ZM13.43 18.4C11.9215 18.4 10.7 17.0038 10.7 15.28C10.7 13.5562 11.9215 12.16 13.43 12.16C14.9385 12.16 16.16 13.5562 16.16 15.28C16.16 17.0038 14.9385 18.4 13.43 18.4ZM23.57 18.4C22.0615 18.4 20.84 17.0038 20.84 15.28C20.84 13.5562 22.0615 12.16 23.57 12.16C25.0785 12.16 26.3 13.5562 26.3 15.28C26.3 17.0038 25.0785 18.4 23.57 18.4Z" fill="#ACACAC"/>
</svg>
