<svg width="60" height="51" viewBox="0 0 60 51" fill="none" xmlns="http://www.w3.org/2000/svg">
<path fill-rule="evenodd" clip-rule="evenodd" d="M30.0004 0.0665016C26.8899 -0.190407 23.7174 0.297398 20.4826 1.53022C19.1794 1.80722 18.2413 2.19809 17.6682 2.70291C12.8827 -0.286816 9.42328 -0.736309 7.29005 1.35435C6.37786 2.45897 4.87299 3.04528 2.77528 3.11328C2.13117 3.46367 1.85755 4.41641 1.9544 5.97173C1.85193 7.60839 1.38773 8.75171 0.561908 9.40174C-0.769986 10.7224 0.265867 10.8202 3.66948 9.69493C4.63085 9.06859 5.33935 8.34052 5.79492 7.51079C6.01802 7.8674 6.07177 8.43909 5.95617 9.22586C5.50772 10.7719 6.61198 11.8811 9.26893 12.5533C9.61565 14.4443 8.96576 16.0274 7.31936 17.3026C7.25998 17.3685 7.20128 17.4347 7.14341 17.5009L7.14334 17.501C7.08546 17.5674 7.02826 17.6338 6.97189 17.7006L6.97181 17.7007C6.96507 17.7087 6.95854 17.7168 6.95172 17.7249C6.90225 17.7836 6.85314 17.8426 6.80471 17.9017C6.74976 17.9689 6.69564 18.0363 6.64219 18.1039C6.60628 18.1493 6.5712 18.195 6.53596 18.2405C6.51872 18.263 6.50103 18.2852 6.48386 18.3076C6.46219 18.336 6.4412 18.3646 6.41976 18.393C6.38985 18.4328 6.35956 18.4726 6.3301 18.5126C6.29517 18.5601 6.26098 18.6077 6.22673 18.6553C6.21151 18.6765 6.19591 18.6975 6.18085 18.7188C6.13639 18.7812 6.09284 18.844 6.04958 18.9068C6.04508 18.9133 6.04043 18.9198 6.03594 18.9263C6.0022 18.9756 5.96929 19.0251 5.93631 19.0745C5.92281 19.0948 5.90887 19.115 5.89537 19.1353C5.85827 19.1916 5.82191 19.2482 5.78577 19.3048C5.77708 19.3184 5.76808 19.3319 5.75946 19.3455C5.73097 19.3903 5.70339 19.4354 5.6755 19.4804C5.65968 19.5061 5.64341 19.5315 5.62775 19.5572C5.59678 19.6079 5.56672 19.6589 5.53651 19.7099C5.52467 19.73 5.51237 19.7499 5.50068 19.7699C5.46904 19.824 5.43831 19.8783 5.4075 19.9325C5.39775 19.9498 5.38763 19.9669 5.37796 19.9842C5.34805 20.0375 5.31896 20.0909 5.28995 20.1445C5.2799 20.1629 5.26956 20.1813 5.25959 20.1997C5.2299 20.255 5.20096 20.3107 5.17218 20.3663C5.16341 20.3831 5.15441 20.3997 5.14579 20.4165C5.1116 20.4832 5.07817 20.55 5.04526 20.617C5.04233 20.6229 5.03926 20.6287 5.03641 20.6346C5.00425 20.7002 4.97299 20.7659 4.94203 20.8318C4.93858 20.8393 4.93491 20.8467 4.93139 20.8541C4.90365 20.9136 4.87666 20.9734 4.84982 21.0332C4.8436 21.0471 4.837 21.061 4.83078 21.075C4.80132 21.1414 4.77261 21.2081 4.74427 21.2749C4.7412 21.2823 4.73782 21.2896 4.73475 21.2971C4.70761 21.3614 4.6813 21.4261 4.65521 21.4908C4.65124 21.5008 4.64696 21.5106 4.64307 21.5205C4.616 21.5882 4.58984 21.6561 4.56405 21.7241C4.56135 21.7312 4.5585 21.7382 4.5558 21.7452C4.52777 21.8196 4.50048 21.8942 4.47387 21.969C4.47357 21.9697 4.47327 21.9705 4.47304 21.9712C4.42334 22.111 4.37649 22.2516 4.33188 22.3928C4.32821 22.4045 4.32431 22.4159 4.32064 22.4276C4.30002 22.4936 4.28015 22.5599 4.26066 22.6263C4.25751 22.6367 4.25422 22.6471 4.25114 22.6576C4.2318 22.7239 4.21328 22.7905 4.19499 22.8572C4.19214 22.8678 4.18899 22.8783 4.18607 22.8889C4.12355 23.1199 4.06762 23.3527 4.0183 23.5875C4.018 23.5886 4.01777 23.5898 4.01755 23.5909C4.00135 23.668 3.98591 23.7455 3.97107 23.8231C3.97084 23.8246 3.97047 23.8261 3.97017 23.8275C3.89505 24.2228 3.83838 24.6237 3.80015 25.0301L3.80007 25.0305C3.58619 27.3049 3.95083 29.7517 4.89383 32.3707C4.89473 32.3732 4.89555 32.3757 4.89645 32.3782C4.93056 32.4728 4.96542 32.5676 5.00103 32.6628L5.00463 32.6622C4.02257 34.1993 3.39165 35.8372 3.21616 37.5491C2.48142 43.8638 3.91559 47.2617 7.51892 47.7427C12.9875 48.4731 16.5049 48.0292 18.071 46.4108C27.6024 52.3586 32.8869 51.744 41.8388 46.1034C45.504 52.858 63.9391 49.8963 57.3596 31.8632C56.9788 30.796 56.517 29.921 55.9743 29.2382C56.8363 24.6774 55.7388 20.7002 52.6806 17.3071C51.0342 16.0319 50.3843 14.4488 50.7311 12.5578C53.3879 11.8856 54.4923 10.7764 54.0438 9.23037C53.9282 8.4436 53.982 7.8719 54.2051 7.51529C54.6606 8.34502 55.3691 9.07309 56.3305 9.69935C59.7341 10.8246 60.77 10.7269 59.4381 9.40623C58.6122 8.7562 58.1481 7.6129 58.0456 5.97616C58.1424 4.42091 57.8688 3.46809 57.2247 3.11777C55.127 3.04978 53.6221 2.46347 52.7099 1.35877C50.5767 -0.731815 47.1173 -0.282314 42.3318 2.70734C41.7587 2.20259 40.8206 1.81164 39.5174 1.53471C36.2829 0.301971 33.1106 -0.185837 30.0004 0.0709229V0.0665016ZM6.95172 17.7249C6.90225 17.7836 6.85314 17.8426 6.80471 17.9017L6.95172 17.7249Z" fill="#00020C"/>
<path fill-rule="evenodd" clip-rule="evenodd" d="M26.5485 30.0192C22.179 28.6995 19.319 26.9408 17.9686 24.7432C10.3929 27.9807 6.07303 32.2834 5.00897 37.6515C3.97548 42.2087 4.98288 45.1797 8.03115 46.5645C13.5136 47.7847 17.2956 46.5553 19.3772 42.8764C15.9494 44.2944 13.1492 44.32 10.9765 42.9532C15.7123 44.0396 21.9617 41.4784 29.7244 35.2696C39.4783 28.3961 45.7275 25.6983 48.4722 27.1763C50.4864 28.6774 51.8353 31.2556 52.5189 34.9111C51.6686 32.7014 50.9514 31.2672 50.3675 30.6083C51.8061 35.528 51.1914 40.1381 48.5234 44.4387C49.5857 44.4287 50.2857 44.1043 50.6236 43.4655C50.0863 46.6943 46.9617 46.5747 41.2497 43.1069C42.787 47.8046 46.0226 49.1534 50.9566 47.1536C56.6331 44.4276 58.3662 40.3212 56.1558 34.8342C54.6686 29.9349 53.4393 28.0055 52.4677 29.046C50.4981 23.3247 47.6125 21.9928 43.8109 25.0506C41.318 26.1774 40.0715 26.7409 40.0715 26.7409C41.5058 25.3066 42.223 24.5895 42.223 24.5895C41.33 23.5583 40.075 23.8742 38.458 25.5372C34.376 28.7129 31.4135 30.4203 29.5707 30.6595C29.6757 32.3972 29.5732 33.7119 29.2634 34.6037C29.0029 31.814 28.0979 30.2858 26.5485 30.0192Z" fill="#0092DE"/>
<path fill-rule="evenodd" clip-rule="evenodd" d="M52.5189 34.9111C51.6686 32.7014 50.9514 31.2672 50.3675 30.6083C51.8061 35.528 51.1914 40.1381 48.5234 44.4387C49.5857 44.4287 50.2857 44.1043 50.6236 43.4655C50.0863 46.6943 46.9617 46.5747 41.2497 43.1069C42.787 47.8046 46.0226 49.1534 50.9566 47.1536C56.1474 44.6608 58.04 41.0135 56.6358 36.212C57.441 41.7724 53.2426 47.0359 47.7304 47.3199C44.9811 47.2321 43.4273 46.3698 43.0691 44.7331C43.8866 45.2023 44.8171 45.6207 45.8608 45.9881C49.3814 47.2581 51.1742 46.0885 51.2393 42.4793C50.5522 43.3757 49.9802 43.7343 49.5233 43.555C51.3058 40.9237 51.9461 37.5258 51.4442 33.3615C51.4442 33.3615 51.8025 33.878 52.5189 34.9111Z" fill="#0A5D88"/>
<path fill-rule="evenodd" clip-rule="evenodd" d="M40.1329 26.6796L42.223 24.5896C41.33 23.5583 40.075 23.8742 38.458 25.5372C34.376 28.7129 31.4135 30.4204 29.5707 30.6596C29.6757 32.3972 29.5732 33.712 29.2634 34.6038C29.8771 33.5346 30.1485 32.365 30.0776 31.0949C33.0264 30.143 36.0743 28.2904 39.221 25.5371C40.0973 24.7459 40.8742 24.4385 41.5517 24.6151C40.6058 25.9914 40.1329 26.6796 40.1329 26.6796Z" fill="#0A5D88"/>
<path fill-rule="evenodd" clip-rule="evenodd" d="M10.9765 42.9533C15.7123 44.0396 21.9617 41.4785 29.7244 35.2697C39.4783 28.3962 45.7275 25.6984 48.4723 27.1763C50.4864 28.6775 51.8353 31.2557 52.5189 34.9111C52.371 15.6273 33.2818 31.6326 27.0042 36.563C21.0651 40.9439 15.5604 42.9203 10.9765 42.9533Z" fill="#0A5D88"/>
<path fill-rule="evenodd" clip-rule="evenodd" d="M26.5485 30.0193C22.179 28.6996 19.319 26.9408 17.9686 24.7432C10.3929 27.9807 6.07304 32.2835 5.00897 37.6516C3.97548 42.2088 4.98288 45.1797 8.03115 46.5645C13.5136 47.7847 17.2956 46.5554 19.3772 42.8764C15.9494 44.2944 13.1492 44.32 10.9765 42.9532C12.3364 44.252 14.4476 44.6916 17.3101 44.2722C4.89914 51.0857 2.62782 35.2149 13.622 28.7258C14.9565 27.5386 16.3225 27.1032 17.7199 27.4196C20.3521 29.0531 23.1268 30.163 26.0437 30.7491C27.5502 31.0842 28.6235 32.3691 29.2634 34.6037C29.0029 31.814 28.0979 30.2858 26.5485 30.0193Z" fill="#0A5D88"/>
<path fill-rule="evenodd" clip-rule="evenodd" d="M28.2645 49.305C23.5777 48.1247 20.2823 47.0405 18.3784 46.0523C19.7196 44.3833 20.4196 43.2051 20.4785 42.5178C24.5218 40.5073 27.0146 38.9535 27.9572 37.8565C34.2377 38.6153 38.3868 40.2118 40.4045 42.6459C40.9257 43.9982 41.3441 44.9117 41.6595 45.3864C35.1817 48.5266 30.7167 49.8329 28.2645 49.305Z" fill="#0A5D88"/>
<path fill-rule="evenodd" clip-rule="evenodd" d="M42.8889 30.3522C42.0567 29.7535 41.0237 29.617 39.7898 29.9424C39.7898 29.9424 36.0676 32.4523 28.6231 37.4723C33.962 37.7914 37.7697 38.9525 40.0459 40.9554C41.1671 40.5727 41.0049 38.4811 39.5593 34.6806C39.339 36.2084 39.0487 37.0195 38.6885 37.1137C36.6537 35.9466 34.4597 35.7417 32.1063 36.499C34.1956 35.432 36.3385 35.3039 38.5348 36.1148C39.296 33.6762 39.4326 32.1394 38.9447 31.5047C39.8988 31.727 40.7098 33.7247 41.3778 37.4979C42.8431 34.6474 43.3468 32.2655 42.8889 30.3522Z" fill="white"/>
<path fill-rule="evenodd" clip-rule="evenodd" d="M42.8889 30.3522C42.0567 29.7535 41.0237 29.617 39.7898 29.9424C39.7898 29.9424 36.0676 32.4523 28.6231 37.4723C33.962 37.7914 37.7697 38.9525 40.0459 40.9554C41.1671 40.5727 41.0049 38.4811 39.5593 34.6806C39.339 36.2084 39.0487 37.0195 38.6885 37.1137C39.0469 37.23 39.3954 36.9226 39.7338 36.1916C40.3725 37.8546 40.4151 39.1864 39.8618 40.187C38.0401 38.3857 34.9752 37.2246 30.6671 36.7038C34.4029 34.1811 37.162 32.4482 38.9447 31.5048V31.5047V31.5048C39.7469 31.0801 40.3515 30.8154 40.7583 30.7106C41.3789 30.6031 41.9168 30.6372 42.3718 30.8131C42.6362 32.3489 42.3715 34.0563 41.5778 35.9354C41.0196 35.0385 40.7404 34.5901 40.7404 34.5901V34.5902C40.9656 35.4008 41.1781 36.3699 41.3778 37.4979C42.8431 34.6474 43.3468 32.2655 42.8889 30.3522Z" fill="#B3B3B3"/>
<path fill-rule="evenodd" clip-rule="evenodd" d="M48.0112 31.351C46.5226 29.2045 44.9432 28.974 43.2731 30.6594C44.1428 32.466 45.0563 35.0273 46.0135 38.343C47.4245 35.9228 48.0904 33.5922 48.0112 31.351Z" fill="white"/>
<path fill-rule="evenodd" clip-rule="evenodd" d="M48.0112 31.351C46.5226 29.2045 44.9432 28.974 43.2731 30.6594C43.4791 31.0874 43.6876 31.5578 43.8985 32.0704L43.8986 32.0705C43.9991 31.1894 44.0493 30.7489 44.0493 30.7489C45.6041 29.9961 46.7481 30.2778 47.4814 31.5942C47.627 33.2142 47.1916 35.1351 46.1752 37.3568C45.7807 37.0486 45.5835 36.8944 45.5835 36.8944V36.8946C45.7258 37.3603 45.8692 37.843 46.0135 38.343C47.4245 35.9228 48.0904 33.5922 48.0112 31.351Z" fill="#B3B3B3"/>
<path fill-rule="evenodd" clip-rule="evenodd" d="M41.096 40.3407C42.1056 41.7555 43.4459 42.2507 45.117 41.8262C45.4906 40.0596 44.9613 37.5753 43.5291 34.3731C43.1532 36.564 42.3422 38.5532 41.096 40.3407Z" fill="white"/>
<path fill-rule="evenodd" clip-rule="evenodd" d="M42.6264 41.6767C43.3534 42.0134 44.1836 42.0633 45.117 41.8262C45.4906 40.0596 44.9613 37.5753 43.5291 34.3732C43.1532 36.564 42.3422 38.5533 41.096 40.3408C42.7241 38.2722 43.5463 36.6203 43.5627 35.3848C44.3786 37.2021 44.7628 39.1315 44.7152 41.173C44.1464 41.6159 43.4501 41.7838 42.6264 41.6767Z" fill="#B3B3B3"/>
<path fill-rule="evenodd" clip-rule="evenodd" d="M48.2161 41.2373C47.0391 41.8556 46.3134 41.7617 46.0391 40.9555C47.6337 38.5776 48.5045 36.1444 48.6515 33.6561C50.0228 37.0651 49.8777 39.5922 48.2161 41.2373Z" fill="white"/>
<path fill-rule="evenodd" clip-rule="evenodd" d="M48.2161 41.2373C47.0391 41.8556 46.3134 41.7617 46.0391 40.9555C46.4184 41.363 47.0911 41.2861 48.0575 40.7249C48.9995 39.0655 49.2472 37.3495 48.8003 35.5769C48.8003 35.5769 48.5357 36.0522 48.0065 37.0028C48.37 35.8986 48.585 34.783 48.6515 33.6561C50.0228 37.0651 49.8777 39.5922 48.2161 41.2373Z" fill="#B3B3B3"/>
<path fill-rule="evenodd" clip-rule="evenodd" d="M28.7511 46.6668C26.6176 47.9258 23.7405 47.4989 20.1199 45.3863C21.2181 44.231 21.8072 43.437 21.8871 43.0044C25.1889 41.1877 27.3147 39.7875 28.2644 38.804C33.5459 39.4645 37.3962 40.9585 39.8154 43.2861C40.1169 44.0101 40.3987 44.5137 40.6606 44.7972C37.7155 46.5998 35.4958 46.9412 34.0015 45.8217C35.495 45.4951 36.5109 44.6413 37.0493 43.2605C32.4674 44.9031 27.9512 45.0995 23.5006 43.8495C25.1974 45.6885 26.9476 46.6276 28.7511 46.6668Z" fill="#0092DE"/>
<path fill-rule="evenodd" clip-rule="evenodd" d="M53.4996 37.1136C54.5496 39.4779 54.1398 41.3732 52.2703 42.7994C53.3896 40.8332 53.7994 38.9379 53.4996 37.1136Z" fill="#0A5D88"/>
<path fill-rule="evenodd" clip-rule="evenodd" d="M55.0108 35.9612C55.9806 37.1789 56.1343 38.4594 55.4718 39.803C55.704 38.7101 55.5503 37.4295 55.0108 35.9612Z" fill="#0A5D88"/>
<path fill-rule="evenodd" clip-rule="evenodd" d="M26.2999 42.1975C27.9531 42.9733 30.7106 42.9306 34.5725 42.0695C31.1222 41.0123 28.3647 41.055 26.2999 42.1975Z" fill="#0A5D88"/>
<path fill-rule="evenodd" clip-rule="evenodd" d="M21.9843 23.8851C26.3166 23.0373 31.3622 22.5166 37.1208 22.3228C31.4157 21.4071 26.3701 21.9278 21.9843 23.8851Z" fill="white"/>
<path fill-rule="evenodd" clip-rule="evenodd" d="M13.6155 32.0937C12.1297 32.9806 12.2492 33.3904 13.974 33.3231C13.2487 33.0156 13.1292 32.6058 13.6155 32.0937Z" fill="#0A5D88"/>
<path fill-rule="evenodd" clip-rule="evenodd" d="M11.0864 34.5925C9.60056 35.4794 9.72013 35.8892 11.4449 35.8219C10.7195 35.5143 10.6 35.1046 11.0864 34.5925Z" fill="#0A5D88"/>
<path fill-rule="evenodd" clip-rule="evenodd" d="M15.9782 34.5925C14.4924 35.4794 14.612 35.8892 16.3368 35.8219C15.6114 35.5143 15.4918 35.1046 15.9782 34.5925Z" fill="#0A5D88"/>
<path fill-rule="evenodd" clip-rule="evenodd" d="M11.7779 37.666C10.2921 38.5529 10.4116 38.9627 12.1364 38.8953C11.4111 38.5878 11.2915 38.178 11.7779 37.666Z" fill="#0A5D88"/>
<path fill-rule="evenodd" clip-rule="evenodd" d="M13.5707 34.5412C12.085 35.4281 12.2045 35.8379 13.9293 35.7706C13.2039 35.4631 13.0844 35.0533 13.5707 34.5412Z" fill="#0A5D88"/>
<path fill-rule="evenodd" clip-rule="evenodd" d="M16.4392 29.419C14.9534 30.3059 15.0729 30.7157 16.7978 30.6483C16.0724 30.3408 15.9529 29.9311 16.4392 29.419Z" fill="#0A5D88"/>
<path fill-rule="evenodd" clip-rule="evenodd" d="M16.1032 32.4487C14.6175 33.3356 14.737 33.7454 16.4618 33.6781C15.7364 33.3705 15.6169 32.9608 16.1032 32.4487Z" fill="#0A5D88"/>
<path fill-rule="evenodd" clip-rule="evenodd" d="M9.64906 36.905C8.16323 37.792 8.2828 38.2018 10.0076 38.1345C9.28225 37.827 9.16268 37.4171 9.64906 36.905Z" fill="#0A5D88"/>
<path fill-rule="evenodd" clip-rule="evenodd" d="M8.98314 39.6712C7.49738 40.5581 7.61688 40.968 9.3417 40.9006C8.61633 40.5931 8.49683 40.1833 8.98314 39.6712Z" fill="#0A5D88"/>
<path fill-rule="evenodd" clip-rule="evenodd" d="M14.8226 36.8027C13.3369 37.6896 13.4564 38.0994 15.1812 38.032C14.4558 37.7245 14.3363 37.3148 14.8226 36.8027Z" fill="#0A5D88"/>
<path fill-rule="evenodd" clip-rule="evenodd" d="M18.5619 33.6781C17.0762 34.565 17.1957 34.9747 18.9205 34.9074C18.1951 34.5999 18.0756 34.1901 18.5619 33.6781Z" fill="#0A5D88"/>
<path fill-rule="evenodd" clip-rule="evenodd" d="M23.7355 32.1413C22.2497 33.0282 22.3693 33.438 24.0941 33.3707C23.3687 33.0632 23.2492 32.6533 23.7355 32.1413Z" fill="#0A5D88"/>
<path fill-rule="evenodd" clip-rule="evenodd" d="M21.5329 33.1658C20.0472 34.0528 20.1667 34.4626 21.8915 34.3952C21.1661 34.0878 21.0466 33.6779 21.5329 33.1658Z" fill="#0A5D88"/>
<path fill-rule="evenodd" clip-rule="evenodd" d="M19.945 30.9632C18.4592 31.8501 18.5788 32.2599 20.3036 32.1926C19.5782 31.8851 19.4586 31.4753 19.945 30.9632Z" fill="#0A5D88"/>
<path fill-rule="evenodd" clip-rule="evenodd" d="M18.8693 29.2216C17.3834 30.1086 17.503 30.5183 19.2278 30.451C18.5025 30.1435 18.3829 29.7337 18.8693 29.2216Z" fill="#0A5D88"/>
<path fill-rule="evenodd" clip-rule="evenodd" d="M18.0497 31.3217C16.564 32.2087 16.6835 32.6184 18.4083 32.5511C17.6829 32.2436 17.5634 31.8338 18.0497 31.3217Z" fill="#0A5D88"/>
<path fill-rule="evenodd" clip-rule="evenodd" d="M18.5917 12.2162C19.7034 13.2769 20.208 14.2662 21.11 15.3821C23.3182 18.114 25.2683 18.9078 26.9603 17.7633C31.6726 14.5756 26.0214 9.42337 22.4615 7.92135C24.0235 9.51295 24.9225 11.0179 25.1587 12.4361C20.9599 6.80285 16.8164 5.27842 12.7284 7.86265C10.4619 9.64002 9.9341 12.3176 11.1453 15.8954C11.9615 14.6595 13.3785 13.9755 15.3962 13.8433C14.6169 13.3823 13.7471 13.1722 12.787 13.213C14.4251 12.7016 16.619 13.1267 19.3687 14.4882C19.3244 13.6916 19.0654 12.9343 18.5917 12.2162Z" fill="#0092DE"/>
<path fill-rule="evenodd" clip-rule="evenodd" d="M18.5917 12.2162C19.7034 13.2769 20.208 14.2662 21.11 15.3821C23.3182 18.114 25.2683 18.9078 26.9603 17.7633C31.6726 14.5756 26.0214 9.42337 22.4615 7.92134C24.0235 9.51295 24.9225 11.0179 25.1587 12.4361C25.2459 11.5744 25.241 10.9295 25.1438 10.5012C27.5323 12.3438 27.9866 14.1273 26.5071 15.8515C24.5434 16.5064 22.4814 15.3533 20.3213 12.3921C18.1318 10.2769 16.3435 9.77848 14.9563 10.8969C16.4915 10.8551 17.3222 11.4219 17.4482 12.5973C14.6105 11.5024 12.6951 11.7859 11.7021 13.4475C10.7631 12.1851 10.8487 10.5601 11.9592 8.57228C10.357 10.3243 10.0857 12.7654 11.1453 15.8954C11.9615 14.6595 13.3785 13.9755 15.3962 13.8433C14.6169 13.3823 13.7471 13.1722 12.787 13.213C14.4251 12.7016 16.619 13.1267 19.3687 14.4882C19.3244 13.6916 19.0654 12.9343 18.5917 12.2162Z" fill="#0A5D88"/>
<path fill-rule="evenodd" clip-rule="evenodd" d="M35.1263 20.6154C31.5858 18.2095 27.9408 18.3952 24.1912 21.1725C28.1961 19.3802 31.8411 19.1946 35.1263 20.6154Z" fill="#0A5D88"/>
<path fill-rule="evenodd" clip-rule="evenodd" d="M10.6614 17.9036C10.2144 16.7522 10.019 15.4477 10.0751 13.9898C10.4507 15.6682 10.9442 16.5477 11.5555 16.6283C12.3011 15.4412 13.4542 14.9721 15.015 15.2211C13.4321 16.1415 12.7432 17.2409 12.9481 18.5193C13.3808 17.2169 14.5975 16.4692 16.5981 16.2765C16.119 17.7487 16.1385 18.936 16.6567 19.8385C16.084 19.3641 15.6345 18.6653 15.3081 17.7423C13.6901 19.3294 12.7911 21.3375 12.611 23.767C11.269 25.4867 10.7022 26.7961 10.9106 27.6954C8.84942 29.4321 7.46667 31.0005 6.76229 32.4008C1.93604 22.3427 8.79425 21.8301 10.6614 17.9036Z" fill="#0092DE"/>
<path fill-rule="evenodd" clip-rule="evenodd" d="M10.6614 17.9036C10.2144 16.7522 10.019 15.4477 10.0751 13.9898C10.4507 15.6682 10.9442 16.5477 11.5556 16.6283C12.3011 15.4412 13.4542 14.9721 15.015 15.2211C13.4321 16.1415 12.7432 17.2409 12.9481 18.5193C13.3808 17.2169 14.5975 16.4692 16.5981 16.2765C16.119 17.7487 16.1385 18.936 16.6567 19.8385C16.084 19.3641 15.6345 18.6653 15.3081 17.7423C13.6901 19.3294 12.7911 21.3375 12.611 23.767C11.269 25.4867 10.7022 26.7961 10.9106 27.6954C8.84943 29.4321 7.46668 31.0005 6.7623 32.4008C5.40796 29.5784 4.97398 27.5077 5.0913 25.9022C5.22392 27.6951 5.90791 29.2969 7.14335 30.7076C7.70619 29.2472 8.54177 28.138 9.64992 27.3802C9.49354 26.562 10.0115 25.3503 11.2037 23.7449C11.3877 21.9604 12.5261 19.9229 14.6191 17.6324C14.2411 17.5665 13.6206 18.1968 12.7575 19.5234C12.1267 18.1922 12.327 17.0049 13.3585 15.9613C12.7649 15.9502 12.1981 16.4291 11.6581 17.3978C11.3068 17.2624 10.9746 17.0181 10.6614 16.6649C10.6614 16.8506 10.6614 17.2635 10.6614 17.9036Z" fill="#0A5D88"/>
<path fill-rule="evenodd" clip-rule="evenodd" d="M2.18878 9.15258C3.06176 7.33907 3.43307 5.81464 3.30285 4.57919C3.77034 3.68785 4.65959 3.34585 5.97067 3.55306C5.32679 4.36756 4.94566 5.12982 4.82736 5.83975C6.66134 2.3458 8.79172 0.713862 11.2184 0.943933C11.3335 1.43961 10.8741 1.85005 9.8405 2.17518C8.08472 2.60533 6.57985 4.22753 5.32574 7.04176C4.10402 8.60203 3.05839 9.30566 2.18878 9.15258Z" fill="#0092DE"/>
<path fill-rule="evenodd" clip-rule="evenodd" d="M41.409 12.2162C40.2973 13.2769 39.7927 14.2662 38.8908 15.3821C36.6825 18.114 34.7324 18.9078 33.0404 17.7633C28.3281 14.5756 33.9793 9.42337 37.5392 7.92135C35.9772 9.51295 35.0782 11.0179 34.842 12.4361C39.0408 6.80285 43.1843 5.27842 47.2723 7.86265C49.5389 9.64002 50.0666 12.3176 48.8554 15.8954C48.0392 14.6595 46.6222 13.9755 44.6045 13.8433C45.3838 13.3823 46.2536 13.1722 47.2137 13.213C45.5756 12.7016 43.3817 13.1267 40.6321 14.4882C40.6763 13.6916 40.9353 12.9343 41.409 12.2162Z" fill="#0092DE"/>
<path fill-rule="evenodd" clip-rule="evenodd" d="M41.409 12.2162C40.2973 13.2769 39.7927 14.2662 38.8908 15.3821C36.6825 18.114 34.7324 18.9078 33.0404 17.7633C28.3281 14.5756 33.9793 9.42337 37.5392 7.92134C35.9772 9.51295 35.0782 11.0179 34.842 12.4361C34.7548 11.5744 34.7597 10.9295 34.8569 10.5012C32.4685 12.3438 32.0141 14.1273 33.4936 15.8515C35.4573 16.5064 37.5193 15.3533 39.6794 12.3921C41.8689 10.2769 43.6572 9.77848 45.0445 10.8969C43.5092 10.8551 42.6785 11.4219 42.5525 12.5973C45.3903 11.5024 47.3056 11.7859 48.2986 13.4475C49.2376 12.1851 49.152 10.5601 48.0415 8.57228C49.6437 10.3243 49.915 12.7654 48.8554 15.8954C48.0392 14.6595 46.6222 13.9755 44.6045 13.8433C45.3838 13.3823 46.2536 13.1722 47.2137 13.213C45.5756 12.7016 43.3817 13.1267 40.6321 14.4882C40.6763 13.6916 40.9353 12.9343 41.409 12.2162Z" fill="#0A5D88"/>
<path fill-rule="evenodd" clip-rule="evenodd" d="M57.8118 9.15258C56.939 7.33907 56.5676 5.81464 56.6978 4.57919C56.2303 3.68785 55.3411 3.34585 54.03 3.55306C54.6739 4.36756 55.055 5.12982 55.1734 5.83975C53.3393 2.3458 51.209 0.713862 48.7823 0.943933C48.6672 1.43961 49.1266 1.85005 50.1602 2.17518C51.916 2.60533 53.4209 4.22753 54.675 7.04176C55.8967 8.60203 56.9423 9.30566 57.8118 9.15258Z" fill="#0092DE"/>
<path fill-rule="evenodd" clip-rule="evenodd" d="M47.679 16.5403C51.8265 19.3806 53.7614 22.9377 53.4837 27.2115C52.0169 24.6638 50.3061 22.9467 48.3515 22.0595C47.3169 21.6007 46.1937 21.3635 44.9819 21.3482C44.9045 21.3612 44.8267 21.3729 44.7488 21.3835L44.7482 21.3838C39.6092 23.2612 35.0215 21.2047 36.4188 20.2596C37.3097 19.6571 37.9442 19.8574 38.6166 20.0149C40.4315 20.4396 41.918 20.4638 43.0763 20.0876C41.5419 20.218 39.9881 19.8662 38.4149 19.0322C43.361 20.3133 46.449 19.4826 47.679 16.5403Z" fill="#0A5D88"/>
<path fill-rule="evenodd" clip-rule="evenodd" d="M39.8368 19.5013C41.1207 19.896 42.7038 20.0817 44.5861 20.0583C42.595 20.5861 40.9728 20.7474 39.7195 20.542C39.7055 21.3625 40.8538 21.6068 43.1643 21.275C45.3966 20.4455 47.9715 21.0367 50.8891 23.0487C51.6384 23.6878 52.3175 24.5086 52.9267 25.5112C52.917 23.1006 51.2606 20.3497 47.9575 17.2586C45.603 20.1484 43.1777 20.0805 39.8368 19.5013Z" fill="#0092DE"/>
<path fill-rule="evenodd" clip-rule="evenodd" d="M14.5217 23.5177C16.9971 22.4476 19.7431 21.6267 22.7598 21.0551C18.6526 21.4766 16.1313 20.8023 15.1961 19.0322C13.8538 20.7726 13.629 22.2678 14.5217 23.5177Z" fill="#0A5D88"/>
</svg>
