<svg width="56" height="56" viewBox="0 0 56 56" fill="none" xmlns="http://www.w3.org/2000/svg">
<g clip-path="url(#clip0)">
<path d="M13.0338 15.7783L14.9045 31.6799L16.7753 33.5507L18.6461 55.0647H37.354L39.2247 33.5507L41.0955 31.6799L42.9662 15.7783H13.0338Z" fill="#E73835"/>
<path d="M45.7724 11.1011H10.2275V15.7781H45.7724V11.1011Z" fill="#7A0E1E"/>
<path d="M28.9353 11.1012H27.0646V4.5535C27.0636 4.21859 27.2423 3.90906 27.5323 3.74161L34.08 0L35.0154 1.62389L28.9353 5.09611V11.1012Z" fill="#4F5052"/>
<path d="M28.9354 55.0648L31.9913 50.4814C34.6946 46.4264 34.82 41.1771 32.3121 36.9977C29.6996 32.6425 29.954 27.1462 32.9566 23.051L38.2892 15.7783H28.9354L25.7915 22.5131C23.6635 27.074 23.9395 32.3936 26.5286 36.7095C29.1935 41.1488 29.4049 46.6424 27.0898 51.2736L25.1938 55.0647L28.9354 55.0648Z" fill="#F5F5F7"/>
<path d="M45.7724 10.1659H28.9353V5.096L35.0154 1.62378L34.08 0L27.5323 3.74161C27.2423 3.90906 27.0636 4.2187 27.0646 4.5535V10.1659H10.2275C9.71116 10.1659 9.29214 10.5849 9.29214 11.1012V15.7782C9.29214 16.2946 9.71116 16.7136 10.2275 16.7136H12.2022L13.9794 31.7893C14.0037 31.9979 14.0982 32.1925 14.2469 32.3412L15.8764 33.9707L17.7107 55.1461C17.7528 55.6306 18.1597 56.002 18.6461 56.0001H37.3539C37.8403 56.002 38.2472 55.6306 38.2893 55.1461L40.1311 33.9707L41.7606 32.3412C41.9093 32.1925 42.0038 31.9979 42.0281 31.7893L43.7979 16.7136H45.7725C46.2889 16.7136 46.7079 16.2946 46.7079 15.7782V11.1012C46.7078 10.5849 46.2888 10.1659 45.7724 10.1659ZM24.6157 54.1292H19.5038L17.7107 33.4693C17.692 33.2504 17.5967 33.0446 17.4404 32.8894L15.7997 31.2478L14.0861 16.7136H27.4668L24.9412 22.1192C22.6776 26.9608 22.9704 32.6115 25.7241 37.1931C28.2357 41.3537 28.4348 46.5134 26.2516 50.8554L24.6157 54.1292ZM26.7073 54.1292L27.9233 51.6972C30.3955 46.7826 30.1719 40.943 27.3293 36.2333C24.8963 32.1859 24.6372 27.1927 26.6371 22.9143L29.5312 16.7136H36.4428L32.2018 22.4971C28.9682 26.8935 28.6951 32.8033 31.5106 37.4793C33.8192 41.3518 33.7041 46.2056 31.2131 49.964L28.435 54.1294H26.7073V54.1292ZM40.204 31.2477L38.5634 32.8893C38.4072 33.0446 38.3117 33.2503 38.293 33.4692L36.4961 54.1291H30.6836L32.7695 50.9994C35.659 46.6386 35.7936 41.0075 33.1147 36.5148C30.6902 32.4861 30.9249 27.3948 33.7106 23.6064L38.7636 16.7135H41.914L40.204 31.2477ZM44.8371 14.8427H11.1629V12.0366H44.8369V14.8427H44.8371Z" fill="black"/>
</g>
<defs>
<clipPath id="clip0">
<rect width="56" height="56" fill="white"/>
</clipPath>
</defs>
</svg>
