<svg width="181" height="181" viewBox="0 0 181 181" fill="none" xmlns="http://www.w3.org/2000/svg">
<path d="M17.7744 108.962L30.4806 51.2954H71.3142L68.8888 62.1192H40.4356L37.7568 74.3186H65.5946L63.1692 85.1424H35.3314L32.4716 98.2106H60.9248L58.5718 109.034H17.7744V108.962Z" fill="#3F5EA8"/>
<path opacity="0.9" d="M166.846 109.034H150.157L127.46 51.3679L144.184 51.2593L166.846 109.034Z" fill="#3F5EA8"/>
<path d="M166.846 77.0699V62.0107L105.197 109.035L121.849 108.962L166.846 77.0699Z" fill="#EBB832"/>
<path d="M144.185 51.1504L127.46 51.2228L105.197 109.034L121.849 108.962L144.185 51.1504Z" fill="#3F5EA8"/>
<path d="M61.6846 108.962L74.3908 51.2954H102.446C112.473 51.2954 118.084 57.7752 118.084 65.1238C118.084 72.9068 111.93 79.4952 104.944 80.183C110.301 81.5586 113.233 86.7714 113.233 91.8394C113.233 99.8758 107.622 108.962 93.1786 108.962H61.6846ZM100.962 90.7896C100.962 87.3144 98.5362 84.9252 94.6628 84.9252H79.2778L76.3456 98.3192H92.2736C97.776 98.3192 100.962 94.844 100.962 90.7896ZM104.944 67.1872C104.944 64.1464 102.446 61.8296 99.0792 61.8296H84.4544L81.7032 74.3548H97.1968C103.025 74.3548 104.944 70.5538 104.944 67.1872Z" fill="#3F5EA8"/>
<path d="M167.534 113.523H17.7744V126.736H167.534V113.523Z" fill="#EBB832"/>
<path d="M26.8608 120.618L28.164 121.379C27.5848 122.32 26.535 122.899 25.3404 122.899C23.3494 122.899 21.9014 121.415 21.9014 119.46C21.9014 117.505 23.3494 116.021 25.3404 116.021C26.535 116.021 27.5848 116.6 28.164 117.541L26.8608 118.302C26.5712 117.795 25.992 117.505 25.3404 117.505C24.4354 117.505 23.7838 117.976 23.5304 118.772H26.2092V120.184H23.5304C23.7838 120.944 24.4354 121.451 25.3404 121.451C25.992 121.415 26.5712 121.125 26.8608 120.618Z" fill="white"/>
<path d="M33.3045 121.415C33.3045 122.211 32.7615 122.754 31.7117 122.754H29.1777V118.048H31.4945C32.5443 118.048 33.0873 118.628 33.0873 119.388C33.0873 119.786 32.9425 120.112 32.6529 120.329C33.0511 120.582 33.3045 120.944 33.3045 121.415ZM30.4447 119.171V119.822H31.3497C31.6031 119.822 31.7479 119.714 31.7479 119.496C31.7479 119.279 31.6031 119.171 31.3497 119.171H30.4447ZM31.9289 121.234C31.9289 121.017 31.7479 120.908 31.5307 120.908H30.4809V121.596H31.4945C31.7479 121.596 31.9289 121.487 31.9289 121.234Z" fill="white"/>
<path d="M39.3131 120.402C39.3131 121.813 38.2995 122.899 37.0687 122.899C36.4533 122.899 35.9827 122.682 35.6569 122.32V124.637H34.2451V118.049H35.6569V118.483C35.9827 118.121 36.4171 117.904 37.0687 117.904C38.2995 117.94 39.3131 119.026 39.3131 120.402ZM37.9013 120.402C37.9013 119.678 37.4307 119.243 36.7791 119.243C36.1275 119.243 35.6569 119.678 35.6569 120.402C35.6569 121.126 36.1275 121.56 36.7791 121.56C37.4307 121.56 37.9013 121.126 37.9013 120.402Z" fill="white"/>
<path d="M40.1104 120.402C40.1104 118.99 41.2325 117.904 42.6081 117.904C43.9837 117.904 45.1059 118.99 45.1059 120.402C45.1059 121.813 43.9837 122.899 42.6081 122.899C41.1963 122.899 40.1104 121.813 40.1104 120.402ZM43.6941 120.402C43.6941 119.714 43.2235 119.279 42.6081 119.279C41.9927 119.279 41.5221 119.714 41.5221 120.402C41.5221 121.089 41.9927 121.524 42.6081 121.524C43.2235 121.524 43.6941 121.089 43.6941 120.402Z" fill="white"/>
<path d="M50.5717 122.754H49.1599V119.388H47.5309V122.754H46.1191V118.048H50.5717V122.754Z" fill="white"/>
<path d="M54.2276 121.632C54.6258 121.632 54.9516 121.488 55.1326 121.27L56.2548 121.922C55.7842 122.574 55.0964 122.899 54.1914 122.899C52.5624 122.899 51.585 121.813 51.585 120.402C51.585 118.99 52.5986 117.904 54.0828 117.904C55.4584 117.904 56.472 118.954 56.472 120.402C56.472 120.583 56.472 120.8 56.3996 120.981H53.0692C53.2502 121.451 53.6846 121.632 54.2276 121.632ZM55.0964 119.931C54.9516 119.388 54.5172 119.171 54.0828 119.171C53.5398 119.171 53.1778 119.424 53.0692 119.931H55.0964Z" fill="white"/>
<path d="M61.9389 118.048V122.754H60.5633V120.401L58.5361 122.754H57.4863V118.048H58.8619V120.401L60.8891 118.048H61.9389ZM58.3189 116.274H61.1425V117.505H58.3189V116.274Z" fill="white"/>
<path d="M62.9883 120.402C62.9883 118.99 64.0381 117.904 65.4861 117.904C66.3911 117.904 67.2237 118.374 67.6219 119.098L66.3911 119.822C66.2463 119.497 65.8843 119.279 65.4861 119.279C64.8707 119.279 64.4363 119.714 64.4363 120.365C64.4363 121.017 64.9069 121.451 65.4861 121.451C65.8843 121.451 66.2463 121.27 66.3911 120.908L67.6219 121.632C67.2237 122.356 66.4273 122.863 65.4861 122.863C64.0381 122.899 62.9883 121.813 62.9883 120.402Z" fill="white"/>
<path d="M72.5085 121.125C72.5085 122.103 71.8207 122.79 70.6623 122.79H68.4541V118.084H69.8659V119.496H70.6623C71.8207 119.46 72.5085 120.112 72.5085 121.125ZM71.1329 121.125C71.1329 120.872 70.9519 120.691 70.6623 120.691H69.8659V121.523H70.6623C70.9519 121.56 71.1329 121.379 71.1329 121.125Z" fill="white"/>
<path d="M76.3824 122.754L74.862 120.691V122.754H73.4502V118.048H74.862V120.112L76.2738 118.048H77.939L76.2014 120.401L77.9752 122.754H76.3824Z" fill="white"/>
<path d="M83.2965 118.049V122.755H81.8847V122.32C81.5589 122.682 81.1245 122.899 80.4729 122.899C79.2421 122.899 78.2285 121.813 78.2285 120.402C78.2285 118.99 79.2421 117.904 80.4729 117.904C81.0883 117.904 81.5589 118.121 81.8847 118.483V118.049H83.2965ZM81.8847 120.402C81.8847 119.678 81.4141 119.243 80.7625 119.243C80.1109 119.243 79.6403 119.678 79.6403 120.402C79.6403 121.126 80.1109 121.56 80.7625 121.56C81.4141 121.56 81.8847 121.126 81.8847 120.402Z" fill="white"/>
<path d="M91.9845 120.691C91.9845 121.958 91.0795 122.754 89.7401 122.754H87.2061V116.166H91.4415V117.614H88.6903V118.628H89.7401C91.0795 118.628 91.9845 119.424 91.9845 120.691ZM90.5003 120.691C90.5003 120.22 90.1745 120.039 89.7401 120.039H88.6903V121.343H89.7401C90.1383 121.343 90.5003 121.162 90.5003 120.691Z" fill="white"/>
<path d="M92.7451 116.781C92.7451 116.311 93.1433 115.949 93.5777 115.949C94.0483 115.949 94.4103 116.347 94.4103 116.781C94.4103 117.252 94.0121 117.614 93.5777 117.614C93.1433 117.65 92.7451 117.252 92.7451 116.781ZM92.8899 118.048H94.3017V122.754H92.8899V118.048Z" fill="white"/>
<path d="M99.1157 121.488C99.1157 122.284 98.4279 122.899 97.1609 122.899C96.2197 122.899 95.5681 122.537 95.1699 121.777L96.3283 121.089C96.4731 121.451 96.7627 121.669 97.1971 121.669C97.5591 121.669 97.7401 121.524 97.7401 121.307C97.7401 121.089 97.5953 120.981 97.3057 120.981H96.6541V119.786H97.1609C97.4505 119.786 97.5953 119.678 97.5953 119.46C97.5953 119.243 97.4143 119.135 97.1609 119.135C96.7989 119.135 96.5455 119.316 96.4007 119.678L95.2423 119.026C95.6405 118.266 96.3283 117.94 97.1247 117.94C98.2831 117.94 98.9347 118.592 98.9347 119.352C98.9347 119.786 98.7537 120.148 98.4279 120.402C98.8985 120.619 99.1157 121.017 99.1157 121.488Z" fill="white"/>
<path d="M104.51 118.048V122.754H103.098V121.089H101.469V122.754H100.058V118.048H101.469V119.75H103.098V118.048H104.51Z" fill="white"/>
<path d="M108.166 121.632C108.564 121.632 108.89 121.488 109.071 121.27L110.193 121.922C109.723 122.574 109.035 122.899 108.13 122.899C106.501 122.899 105.523 121.813 105.523 120.402C105.523 118.99 106.537 117.904 108.021 117.904C109.397 117.904 110.41 118.954 110.41 120.402C110.41 120.583 110.41 120.8 110.374 120.981H107.044C107.225 121.451 107.659 121.632 108.166 121.632ZM109.035 119.931C108.89 119.388 108.456 119.171 108.021 119.171C107.478 119.171 107.116 119.424 107.008 119.931H109.035Z" fill="white"/>
<path d="M111.171 120.402C111.171 118.99 112.221 117.904 113.669 117.904C114.574 117.904 115.406 118.374 115.804 119.098L114.574 119.822C114.429 119.497 114.067 119.279 113.669 119.279C113.053 119.279 112.619 119.714 112.619 120.365C112.619 121.017 113.089 121.451 113.669 121.451C114.067 121.451 114.429 121.27 114.574 120.908L115.804 121.632C115.406 122.356 114.61 122.863 113.669 122.863C112.257 122.899 111.171 121.813 111.171 120.402Z" fill="white"/>
<path d="M123.153 121.741H120.691L120.365 122.791H118.736L120.981 116.202H122.899L125.144 122.791H123.479L123.153 121.741ZM122.718 120.329L121.958 117.904L121.198 120.329H122.718Z" fill="white"/>
<path d="M125.506 120.402C125.506 118.99 126.556 117.904 128.004 117.904C128.909 117.904 129.741 118.374 130.139 119.098L128.909 119.822C128.764 119.497 128.402 119.279 128.004 119.279C127.388 119.279 126.954 119.714 126.954 120.365C126.954 121.017 127.424 121.451 128.004 121.451C128.402 121.451 128.764 121.27 128.909 120.908L130.139 121.632C129.741 122.356 128.945 122.863 128.004 122.863C126.592 122.899 125.506 121.813 125.506 120.402Z" fill="white"/>
<path d="M130.61 120.402C130.61 118.99 131.733 117.904 133.108 117.904C134.484 117.904 135.606 118.99 135.606 120.402C135.606 121.813 134.484 122.899 133.108 122.899C131.733 122.899 130.61 121.813 130.61 120.402ZM134.194 120.402C134.194 119.714 133.724 119.279 133.108 119.279C132.493 119.279 132.022 119.714 132.022 120.402C132.022 121.089 132.493 121.524 133.108 121.524C133.724 121.524 134.194 121.089 134.194 120.402Z" fill="white"/>
<path d="M141.687 121.451V124.021H140.312V122.754H136.619V118.048H138.067V121.451H139.479V118.048H140.891V121.451H141.687Z" fill="white"/>
<path d="M142.483 116.781C142.483 116.311 142.882 115.949 143.316 115.949C143.787 115.949 144.149 116.347 144.149 116.781C144.149 117.252 143.75 117.614 143.316 117.614C142.845 117.65 142.483 117.252 142.483 116.781ZM142.628 118.048H144.04V122.754H142.628V118.048Z" fill="white"/>
<path d="M150.122 118.049V122.755H148.71V122.32C148.384 122.682 147.95 122.899 147.298 122.899C146.067 122.899 145.054 121.813 145.054 120.402C145.054 118.99 146.067 117.904 147.298 117.904C147.914 117.904 148.384 118.121 148.71 118.483V118.049H150.122ZM148.71 120.402C148.71 119.678 148.239 119.243 147.588 119.243C146.936 119.243 146.466 119.678 146.466 120.402C146.466 121.126 146.936 121.56 147.588 121.56C148.239 121.56 148.71 121.126 148.71 120.402Z" fill="white"/>
<path d="M156.457 121.451V124.021H155.081V122.754H151.425V118.048H152.837V121.451H154.248V118.048H155.66V121.451H156.457Z" fill="white"/>
<path d="M157.253 116.781C157.253 116.311 157.651 115.949 158.086 115.949C158.556 115.949 158.918 116.347 158.918 116.781C158.918 117.252 158.52 117.614 158.086 117.614C157.651 117.65 157.253 117.252 157.253 116.781ZM157.398 118.048H158.81V122.754H157.398V118.048Z" fill="white"/>
<path d="M163.986 122.754H162.611V121.379H162.321L161.344 122.754H159.751L160.873 121.198C160.294 120.908 159.968 120.293 159.968 119.714C159.968 118.881 160.584 118.048 161.706 118.048H163.986V122.754ZM161.308 119.786C161.308 120.076 161.489 120.257 161.814 120.257H162.611V119.315H161.814C161.525 119.315 161.308 119.496 161.308 119.786Z" fill="white"/>
</svg>
