<svg width="23" height="23" viewBox="0 0 23 23" fill="none" xmlns="http://www.w3.org/2000/svg">
<path d="M21.16 21.36H21.36V21.16V1.84V1.64H21.16H1.84H1.64V1.84V21.16V21.36H1.84H12.282H12.482V21.16V14.0904V13.8904H12.282H9.48337V10.8202H12.2791H12.4791V10.6202V8.0615C12.4791 6.61792 12.9191 5.52638 13.6581 4.79578C14.3978 4.06458 15.4592 3.673 16.744 3.673C17.8307 3.673 18.7821 3.74289 19.2235 3.789V6.516H17.5864C16.8396 6.516 16.3382 6.69314 16.0336 7.05514C15.7355 7.40938 15.6671 7.89488 15.6671 8.4065V10.6231V10.8231H15.8671H19.0781L18.6813 13.8933H15.8671H15.6671V14.0933V21.16V21.36H15.8671H21.16ZM0.92 0.2H22.08C22.4784 0.2 22.8 0.521582 22.8 0.92V22.08C22.8 22.4784 22.4784 22.8 22.08 22.8H0.92C0.521582 22.8 0.2 22.4784 0.2 22.08V0.92C0.2 0.521582 0.521582 0.2 0.92 0.2Z" fill="#DDDDDD" stroke="#021422" stroke-width="0.4"/>
</svg>
