<svg width="28" height="14" viewBox="0 0 28 14" fill="none" xmlns="http://www.w3.org/2000/svg">
<path d="M27.5484 9.75577H27.5151C27.3438 6.79241 25.4414 6.34351 22.8544 5.73311C22.5449 5.66007 22.2249 5.58456 21.8915 5.5014C18.4322 4.6381 14.7531 2.62457 12.7364 0.490908C12.5655 0.310022 12.2805 0.301531 12.0991 0.47194C12.0871 0.48314 10.8805 1.6035 8.91321 2.35306C6.36913 3.3224 3.8145 3.23635 1.31588 2.09823V1.42177C1.31588 1.1723 1.11368 0.970159 0.864267 0.970159C0.614856 0.970159 0.412654 1.1723 0.412654 1.42177V9.7577C0.181488 9.77751 0 9.9711 0 10.2074V13.1989C0 13.4483 0.202202 13.6505 0.451613 13.6505H7.57343C7.69615 13.6505 7.81357 13.6006 7.89871 13.5121C7.98385 13.4237 8.02932 13.3045 8.02468 13.1819L7.99764 12.4655H9.55324V13.1989C9.55324 13.4484 9.75544 13.6505 10.0049 13.6505H27.5484C27.7978 13.6505 28 13.4484 28 13.1989V10.2074C28 9.95792 27.7978 9.75577 27.5484 9.75577ZM22.1178 6.48646C22.2979 6.52975 22.4744 6.57148 22.6471 6.61219C25.1371 7.19965 26.461 7.5121 26.6103 9.75572H10.5527C11.112 8.52372 14.024 8.28984 16.6245 8.08125C18.004 7.97064 19.307 7.86617 20.3039 7.62091C20.6997 7.52366 21.765 7.26089 22.1178 6.48646ZM1.31588 3.08286C4.55039 4.42193 7.38279 3.90275 9.23482 3.19715C10.7618 2.61535 11.86 1.83298 12.3803 1.41702C14.455 3.45144 17.8897 5.33491 21.1952 6.25114C20.6296 6.85395 18.3959 7.03315 16.5523 7.18104C14.9453 7.3099 13.2836 7.44322 11.9892 7.81185C10.5974 8.20825 9.79699 8.86116 9.60129 9.75577H7.85584C7.70169 9.35318 7.36394 8.66076 6.68815 7.97377C5.8125 7.08367 4.1788 6.03178 1.31588 5.93068V3.08286ZM1.31588 6.83414C3.32291 6.91122 4.93854 7.50716 6.00711 8.5699C6.43723 8.99767 6.70687 9.42947 6.86939 9.75577H1.31588V6.83414ZM27.0968 12.7472H10.4565V12.0138C10.4565 11.7643 10.2543 11.5622 10.0049 11.5622H7.52869C7.40597 11.5622 7.28849 11.6121 7.20341 11.7005C7.11826 11.7889 7.0728 11.9082 7.07744 12.0308L7.10447 12.7471H0.903226V10.6589H7.52694C7.52742 10.6589 7.52784 10.659 7.52833 10.659C7.52899 10.659 7.52971 10.6589 7.53043 10.6589H27.0762H27.0968V12.7472Z" fill="#F2F2F2"/>
<path d="M13.6723 4.68751C13.9378 4.68751 14.1538 4.47152 14.1538 4.20609C14.1538 3.94066 13.9378 3.72473 13.6723 3.72473C13.4069 3.72473 13.1909 3.94066 13.1909 4.20609C13.1909 4.47152 13.4069 4.68751 13.6723 4.68751Z" fill="#F2F2F2"/>
<path d="M12.2635 3.62623C12.5289 3.62623 12.7449 3.4103 12.7449 3.14487C12.7449 2.87944 12.529 2.66345 12.2635 2.66345C11.998 2.66345 11.782 2.87944 11.782 3.14487C11.782 3.4103 11.998 3.62623 12.2635 3.62623Z" fill="#F2F2F2"/>
</svg>
