<svg width="21" height="28" viewBox="0 0 21 28" fill="none" xmlns="http://www.w3.org/2000/svg">
<path d="M4.75002 12.25C4.42802 12.25 4.16669 11.9887 4.16669 11.6667V5.83333C4.16669 5.1905 3.64286 4.66667 3.00002 4.66667C2.35719 4.66667 1.83335 5.1905 1.83335 5.83333V11.6667C1.83335 11.9887 1.57202 12.25 1.25002 12.25C0.928021 12.25 0.666687 11.9887 0.666687 11.6667V5.83333C0.666687 4.5465 1.71319 3.5 3.00002 3.5C4.28686 3.5 5.33336 4.5465 5.33336 5.83333V11.6667C5.33336 11.9887 5.07202 12.25 4.75002 12.25Z" fill="#F2F2F2"/>
<path d="M8.25002 12.8333C7.92802 12.8333 7.66669 12.572 7.66669 12.25V3.49996C7.66669 2.85713 7.14286 2.33329 6.50002 2.33329C5.85719 2.33329 5.33335 2.85713 5.33335 3.49996V12.25C5.33335 12.572 5.07202 12.8333 4.75002 12.8333C4.42802 12.8333 4.16669 12.572 4.16669 12.25V3.49996C4.16669 2.21313 5.21319 1.16663 6.50002 1.16663C7.78686 1.16663 8.83336 2.21313 8.83336 3.49996V12.25C8.83336 12.572 8.57202 12.8333 8.25002 12.8333Z" fill="#F2F2F2"/>
<path d="M11.75 12.8333C11.428 12.8333 11.1667 12.572 11.1667 12.25V2.33333C11.1667 1.6905 10.6429 1.16667 10 1.16667C9.35719 1.16667 8.83335 1.6905 8.83335 2.33333V12.25C8.83335 12.572 8.57202 12.8333 8.25002 12.8333C7.92802 12.8333 7.66669 12.572 7.66669 12.25V2.33333C7.66669 1.0465 8.71319 0 10 0C11.2869 0 12.3334 1.0465 12.3334 2.33333V12.25C12.3334 12.572 12.072 12.8333 11.75 12.8333Z" fill="#F2F2F2"/>
<path d="M15.25 13.0316C14.928 13.0316 14.6667 12.7703 14.6667 12.4483V3.49996C14.6667 2.85713 14.1429 2.33329 13.5 2.33329C12.8572 2.33329 12.3334 2.85713 12.3334 3.49996V12.25C12.3334 12.572 12.072 12.8333 11.75 12.8333C11.428 12.8333 11.1667 12.572 11.1667 12.25V3.49996C11.1667 2.21313 12.2132 1.16663 13.5 1.16663C14.7869 1.16663 15.8333 2.21313 15.8333 3.49996V12.4483C15.8333 12.7703 15.572 13.0316 15.25 13.0316Z" fill="#F2F2F2"/>
<path d="M8.25002 25.6667C6.21536 25.6667 4.31136 24.8757 2.88919 23.4407C1.45769 22.022 0.666687 20.118 0.666687 18.0833V11.34C0.666687 11.018 0.92802 10.7567 1.25002 10.7567C1.57202 10.7567 1.83335 11.018 1.83335 11.34V18.0833C1.83335 19.8042 2.50069 21.4142 3.71402 22.6158C4.91919 23.8327 6.52919 24.5 8.25002 24.5C10.5052 24.5 12.6204 23.2913 13.7707 21.3465C15.3865 18.6165 17.0362 16.4208 18.8154 14.6382C18.9507 14.5028 19.0429 14.3803 19.0977 14.2648C19.261 13.9813 19.3334 13.7013 19.3334 13.405C19.3334 12.936 19.1514 12.4997 18.8212 12.1777C18.4957 11.844 18.0804 11.6667 17.6417 11.6667C17.1365 11.6422 16.6967 11.8172 16.356 12.1672L15.663 12.8602C15.4355 13.0877 15.0657 13.0877 14.8382 12.8602C14.6107 12.6327 14.6107 12.2628 14.8382 12.0353L15.5265 11.347C16.0935 10.766 16.888 10.458 17.6744 10.5H17.6779C18.4012 10.5 19.1117 10.8022 19.6472 11.3517C20.1932 11.886 20.5 12.6187 20.5 13.405C20.5 13.9078 20.3717 14.3932 20.129 14.8085C20.0404 15.001 19.8735 15.2297 19.6425 15.4618C17.9334 17.1757 16.3409 19.2955 14.7764 21.9403C13.4149 24.2387 10.9147 25.6667 8.25002 25.6667Z" fill="#F2F2F2"/>
<path d="M11.75 28H4.75C3.78517 28 3 27.2149 3 26.25V23.2867C3 22.9647 3.26133 22.7034 3.58333 22.7034C3.90533 22.7034 4.16667 22.9647 4.16667 23.2867V26.25C4.16667 26.572 4.428 26.8334 4.75 26.8334H11.75C12.072 26.8334 12.3333 26.572 12.3333 26.25V23.2867C12.3333 22.9647 12.5947 22.7034 12.9167 22.7034C13.2387 22.7034 13.5 22.9647 13.5 23.2867V26.25C13.5 27.2149 12.7148 28 11.75 28Z" fill="#F2F2F2"/>
</svg>
