<svg width="28" height="12" viewBox="0 0 28 12" fill="none" xmlns="http://www.w3.org/2000/svg">
<path d="M27.4871 3.3103H26.5017C26.3282 2.91893 26.111 2.56784 25.8481 2.26031C24.9459 1.20492 23.541 0.6698 21.6724 0.6698H6.32799C4.45929 0.6698 3.05431 1.20492 2.15203 2.26031C1.88915 2.56777 1.67189 2.91893 1.4984 3.3103H0.512892C0.22957 3.3103 0 3.53987 0 3.8232C0 4.10652 0.22957 4.33609 0.512892 4.33609H1.1657C1.05403 4.84214 0.997609 5.39723 0.997609 5.99977C0.997609 8.93899 3.38885 11.3302 6.32799 11.3302C8.1887 11.3302 9.98826 10.4815 11.3954 8.94028C12.6265 7.59172 13.3913 5.84296 13.3913 4.37644C13.3913 4.24958 13.3912 4.12655 13.3907 4.00633C13.5884 3.95928 13.7921 3.93542 13.9999 3.93542C14.2079 3.93542 14.4119 3.95942 14.6094 4.0064C14.6089 4.12655 14.6088 4.24965 14.6088 4.37644C14.6088 5.84303 15.3736 7.59186 16.6047 8.94028C18.0117 10.4815 19.8115 11.3302 21.6724 11.3302C24.6114 11.3302 27.0025 8.93899 27.0025 5.99977C27.0025 5.39716 26.946 4.84214 26.8344 4.33609H27.487C27.7704 4.33609 27.9999 4.10652 27.9999 3.8232C28 3.53987 27.7704 3.3103 27.4871 3.3103ZM10.6378 8.2487C9.4275 9.57442 7.89696 10.3045 6.32806 10.3045C3.95447 10.3045 2.02346 8.37344 2.02346 5.99984C2.02346 3.10357 3.43152 1.69572 6.32806 1.69572C9.41957 1.69572 11.1224 1.69572 11.8349 2.04305C12.3166 2.27795 12.3656 2.6949 12.3656 4.3765C12.3655 5.5976 11.7035 7.08136 10.6378 8.2487ZM14 2.90956C13.7813 2.90956 13.5655 2.92905 13.3539 2.96687C13.3078 2.45542 13.2046 2.03184 12.9736 1.69558H15.0266C14.7955 2.0319 14.6923 2.45542 14.6463 2.96687C14.4346 2.92912 14.2188 2.90956 14 2.90956ZM21.6724 10.3044C20.1034 10.3044 18.5727 9.57436 17.3624 8.24863C16.2967 7.08136 15.6347 5.59753 15.6347 4.37637C15.6347 2.69477 15.6836 2.27775 16.1654 2.04291C16.8778 1.69558 18.5808 1.69558 21.6724 1.69558C24.5688 1.69558 25.9767 3.10351 25.9767 5.9997C25.9767 8.37337 24.0459 10.3044 21.6724 10.3044Z" fill="#F2F2F2"/>
<path d="M7.97445 3.18447C7.77415 2.9841 7.44945 2.9841 7.24908 3.18434L3.96979 6.4624C3.76949 6.6627 3.76942 6.98747 3.96965 7.18777C4.06984 7.28795 4.20114 7.33801 4.33244 7.33801C4.46367 7.33801 4.5949 7.28802 4.69509 7.1879L7.97438 3.90977C8.17461 3.70961 8.17468 3.38484 7.97445 3.18447Z" fill="#F2F2F2"/>
<path d="M8.87853 4.81731L6.41863 7.27638C6.21833 7.47662 6.21826 7.80138 6.41856 8.00168C6.51868 8.10187 6.64998 8.15193 6.78128 8.15193C6.91251 8.15193 7.04374 8.10187 7.14393 8.00175L9.60383 5.54267C9.80413 5.34244 9.8042 5.01768 9.6039 4.81737C9.40366 4.61707 9.0789 4.617 8.87853 4.81731Z" fill="#F2F2F2"/>
<path d="M22.4015 3.18456C22.2012 2.98405 21.8764 2.98412 21.6761 3.18435L18.3965 6.46249C18.1962 6.66279 18.1961 6.98748 18.3963 7.18785C18.4965 7.28811 18.6278 7.33816 18.7591 7.33816C18.8904 7.33816 19.0216 7.28817 19.1217 7.18806L22.4013 3.90993C22.6016 3.70962 22.6017 3.38486 22.4015 3.18456Z" fill="#F2F2F2"/>
<path d="M23.3055 4.81731L20.8457 7.27638C20.6454 7.47662 20.6453 7.80138 20.8456 8.00168C20.9457 8.10187 21.077 8.15193 21.2083 8.15193C21.3396 8.15193 21.4708 8.10187 21.571 8.00175L24.0308 5.54267C24.2311 5.34244 24.2311 5.01768 24.0308 4.81737C23.8307 4.61707 23.5059 4.617 23.3055 4.81731Z" fill="#F2F2F2"/>
</svg>
