<svg width="28" height="28" viewBox="0 0 28 28" fill="none" xmlns="http://www.w3.org/2000/svg">
<g clip-path="url(#clip0)">
<path d="M22.7537 13.8809V9.22128C22.7531 8.57794 22.3894 7.98004 21.8058 7.66143L14.8653 3.85371C14.2954 3.53307 13.5854 3.52837 13.0106 3.84217L6.1752 7.59209C5.52174 7.88735 5.10109 8.52413 5.10109 9.22183V13.9292C1.85653 15.026 0 16.6883 0 18.508C0 20.1726 1.52201 21.6929 4.28559 22.7889C6.88915 23.8214 10.3392 24.3901 14 24.3901C17.6608 24.3901 21.1108 23.8214 23.7144 22.7889C26.478 21.6929 28 20.1726 28 18.508C28 16.6577 26.0906 14.9777 22.7537 13.8809ZM6.63616 8.58417C6.65148 8.5775 6.66652 8.57017 6.68117 8.56214L13.5358 4.80166C13.6568 4.73554 13.7921 4.70251 13.9274 4.70251C14.0669 4.70251 14.2064 4.73762 14.3304 4.80767C14.3324 4.80882 14.3345 4.80997 14.3364 4.81106L21.2808 8.62087C21.5144 8.74846 21.6598 8.97891 21.6601 9.22189V13.602C21.6599 13.6052 21.6594 13.6083 21.6592 13.6115C21.609 14.9041 19.3604 16.151 16.3126 16.5764C16.0135 16.6181 15.8049 16.8944 15.8466 17.1936C15.8848 17.4671 16.119 17.6649 16.3875 17.6649C16.4127 17.6649 16.4382 17.6632 16.4638 17.6596C18.7638 17.3386 20.5819 16.6217 21.6601 15.674V15.9688C21.6601 16.7224 20.8939 17.4986 19.558 18.0984C18.0631 18.7696 16.0635 19.1392 13.9275 19.1392C11.7915 19.1392 9.79191 18.7696 8.29702 18.0984C6.96112 17.4986 6.19495 16.7224 6.19495 15.9688V15.674C7.27311 16.6216 9.09103 17.3384 11.3908 17.6595C11.4165 17.6631 11.4419 17.6649 11.4671 17.6649C11.7356 17.6649 11.9699 17.467 12.0081 17.1935C12.0498 16.8944 11.8412 16.618 11.5421 16.5763C8.49444 16.1507 6.24608 14.9039 6.19582 13.6115C6.19571 13.6083 6.19516 13.6051 6.19495 13.602V9.22183C6.19484 8.95102 6.36803 8.70071 6.63616 8.58417ZM23.3111 21.7722C20.8328 22.7551 17.5261 23.2964 14 23.2964C10.4739 23.2964 7.16712 22.7551 4.6888 21.7722C2.40406 20.8661 1.09375 19.6764 1.09375 18.508C1.09375 17.2622 2.58032 16.0024 5.10109 15.0874V15.9689C5.10109 17.1901 6.07698 18.3007 7.84897 19.0963C9.48166 19.8293 11.6403 20.2331 13.9274 20.2331C16.2145 20.2331 18.3731 19.8293 20.0058 19.0963C21.7778 18.3007 22.7537 17.1901 22.7537 15.9689V15.0353C25.3653 15.9545 26.9062 17.2342 26.9062 18.508C26.9062 19.6764 25.5959 20.8661 23.3111 21.7722Z" fill="#F2F2F2"/>
<path d="M8.7345 11.2059C10.7849 11.2059 12.5899 9.88392 13.1236 7.99102C13.2055 7.70036 13.0363 7.39821 12.7456 7.31629C12.4552 7.23442 12.1528 7.40346 12.0709 7.69423C11.6694 9.11791 10.2975 10.1122 8.7345 10.1122C8.43246 10.1122 8.18762 10.357 8.18762 10.6591C8.18762 10.9611 8.43246 11.2059 8.7345 11.2059Z" fill="#F2F2F2"/>
<path d="M19.1204 11.2059C19.4225 11.2059 19.6673 10.9611 19.6673 10.6591C19.6673 10.357 19.4225 10.1122 19.1204 10.1122C17.5575 10.1122 16.1855 9.11785 15.784 7.69417C15.7021 7.40351 15.4001 7.23442 15.1093 7.31628C14.8186 7.39826 14.6494 7.70035 14.7314 7.99107C15.2651 9.88392 17.07 11.2059 19.1204 11.2059Z" fill="#F2F2F2"/>
<path d="M13.9274 17.832C14.2295 17.832 14.4743 17.5872 14.4743 17.2852C14.4743 16.9831 14.2295 16.7383 13.9274 16.7383H13.927C13.625 16.7383 13.3804 16.9831 13.3804 17.2852C13.3804 17.5872 13.6254 17.832 13.9274 17.832Z" fill="#F2F2F2"/>
</g>
<defs>
<clipPath id="clip0">
<rect width="28" height="28" fill="white"/>
</clipPath>
</defs>
</svg>
