<svg width="10" height="21" viewBox="0 0 10 21" fill="none" xmlns="http://www.w3.org/2000/svg">
<path fill-rule="evenodd" clip-rule="evenodd" d="M2.78025 10.5754V19.7596C2.78025 19.89 2.87623 20 2.99806 20H6.08805C6.20987 20 6.30586 19.8941 6.30586 19.7596V10.4246H8.54674C8.66119 10.4246 8.75348 10.3268 8.76086 10.2046L8.97868 7.3931C8.98975 7.25456 8.89008 7.13232 8.76086 7.13232H6.30586V5.13982C6.30586 4.67124 6.64919 4.2923 7.07374 4.2923H8.80147C8.91961 4.2923 9.01929 4.18636 9.01929 4.0519V1.2404C9.01929 1.10594 8.9233 1 8.80147 1H5.88131C4.16834 1 2.78394 2.53206 2.78394 4.42269V7.13232H1.23341C1.11158 7.13232 1.01929 7.23826 1.01929 7.37272V10.1842C1.01929 10.3146 1.11527 10.4246 1.23341 10.4246H2.78025V10.5754Z" stroke="white" stroke-miterlimit="10"/>
</svg>
