<svg width="33" height="33" viewBox="0 0 33 33" fill="none" xmlns="http://www.w3.org/2000/svg">
<path fill-rule="evenodd" clip-rule="evenodd" d="M26.7739 11.7741C26.4939 11.5324 25.4204 11.5324 24.3468 11.5324C23.2733 11.5324 22.1998 11.5324 21.9664 11.6774C21.733 11.7741 21.2196 13.0797 20.5662 14.3852C19.8194 15.8842 18.8859 17.3348 18.2791 17.2864C17.4856 17.2864 17.6723 14.8204 17.7657 12.983C17.7657 11.7741 17.579 11.3873 17.4389 11.2906C17.0189 11.0005 15.8987 10.7104 15.8987 10.7104C15.8987 10.7104 12.5381 10.4686 12.0713 11.9676C12.7248 12.0643 13.7983 11.8708 13.3782 16.4644C13.3316 16.7062 12.8648 18.5919 11.3245 16.0292C10.9511 15.4006 9.45753 11.5324 8.89744 11.484C7.17046 11.4357 5.49016 11.3873 4.88339 11.7258C4.32329 12.0643 5.63018 14.7237 7.8239 18.2535C9.59755 21.1547 11.5112 23.4273 14.7785 24.0075C15.3853 24.0558 17.0189 24.1525 17.5323 23.9108C17.859 23.7174 17.4389 21.203 18.6058 20.9612C19.1192 20.8645 21.1263 23.5723 21.8731 23.9108C22.3398 24.1042 23.32 24.2009 24.3468 24.1525C25.467 24.1042 26.7273 24.2493 26.8673 23.4756C27.1473 21.7349 23.5067 19.4623 23.3667 18.3985C23.2733 17.6249 24.7202 16.2226 25.4204 15.1105C26.3539 13.9017 27.334 12.306 26.7739 11.7741Z" stroke="white" stroke-miterlimit="10"/>
<circle cx="16.44" cy="16.44" r="15.94" stroke="white"/>
</svg>
