<svg width="120" height="120" viewBox="0 0 120 120" fill="none" xmlns="http://www.w3.org/2000/svg">
<circle cx="60" cy="60" r="60" fill="#F7F6F7"/>
<path d="M61.4167 54.3327C61.4167 49.6577 57.5917 45.8327 52.9167 45.8327C48.2417 45.8327 44.4167 49.6577 44.4167 54.3327C44.4167 59.0077 48.2417 62.8327 52.9167 62.8327C57.5917 62.8327 61.4167 59.0077 61.4167 54.3327ZM52.9167 57.166C51.3583 57.166 50.0833 55.891 50.0833 54.3327C50.0833 52.7743 51.3583 51.4993 52.9167 51.4993C54.475 51.4993 55.75 52.7743 55.75 54.3327C55.75 55.891 54.475 57.166 52.9167 57.166ZM71.3333 62.8327C74.4783 62.8327 77 60.311 77 57.166C77 54.021 74.4783 51.4993 71.3333 51.4993C68.1883 51.4993 65.6383 54.021 65.6667 57.166C65.6667 60.311 68.1883 62.8327 71.3333 62.8327ZM59.9717 31.6943C44.3317 31.6943 31.6383 44.3877 31.6383 60.0277C31.6383 75.6677 44.3317 88.361 59.9717 88.361C75.6117 88.361 88.305 75.6677 88.305 60.0277C88.305 44.3877 75.6117 31.6943 59.9717 31.6943ZM42.5467 74.506C44.4733 72.976 48.9783 71.361 52.9167 71.361C53.115 71.361 53.3417 71.3893 53.5683 71.3893C54.2483 69.576 55.4667 67.7343 57.2517 66.1193C55.8221 65.8455 54.3719 65.6938 52.9167 65.666C49.2333 65.666 43.3117 66.941 39.515 69.7177C38.0983 66.771 37.305 63.4843 37.305 59.9993C37.305 47.5043 47.4767 37.3327 59.9717 37.3327C72.4667 37.3327 82.6383 47.5043 82.6383 59.9993C82.6383 63.3993 81.8733 66.6293 80.5133 69.5477C77.68 67.876 73.8267 67.0827 71.3333 67.0827C67.0267 67.0827 58.5833 69.3777 58.5833 74.7327V82.6093C55.4968 82.4338 52.4796 81.6236 49.7203 80.2293C46.961 78.8351 44.5189 76.8867 42.5467 74.506Z" fill="#0485CE"/>
</svg>
