<svg width="120" height="120" viewBox="0 0 120 120" fill="none" xmlns="http://www.w3.org/2000/svg">
<circle cx="60" cy="60" r="60" fill="#F7F6F7"/>
<path d="M74.1667 57.1667C75.13 57.1667 76.065 57.28 77 57.4217V43.765L55.75 34.5L34.5 43.765V57.6767C34.5 70.54 43.5667 82.5817 55.75 85.5C57.3083 85.1317 58.81 84.5933 60.2833 83.9417C58.3283 81.165 57.1667 77.7933 57.1667 74.1667C57.1667 64.7883 64.7883 57.1667 74.1667 57.1667Z" fill="#0485CE"/>
<path d="M74.1667 62.8335C67.905 62.8335 62.8333 67.9052 62.8333 74.1668C62.8333 80.4285 67.905 85.5002 74.1667 85.5002C80.4283 85.5002 85.5 80.4285 85.5 74.1668C85.5 67.9052 80.4283 62.8335 74.1667 62.8335ZM74.1667 66.7435C75.9233 66.7435 77.34 68.1885 77.34 69.9168C77.34 71.6452 75.895 73.0902 74.1667 73.0902C72.4383 73.0902 70.9933 71.6452 70.9933 69.9168C70.9933 68.1885 72.41 66.7435 74.1667 66.7435ZM74.1667 81.9585C71.5317 81.9585 69.2367 80.6552 67.82 78.6435C67.9617 76.6035 72.0983 75.5835 74.1667 75.5835C76.235 75.5835 80.3717 76.6035 80.5133 78.6435C79.0967 80.6552 76.8017 81.9585 74.1667 81.9585Z" fill="#0485CE"/>
</svg>
