<svg width="120" height="120" viewBox="0 0 120 120" fill="none" xmlns="http://www.w3.org/2000/svg">
<circle cx="60" cy="60" r="60" fill="#F7F6F7"/>
<path d="M84.0833 34.5L83.63 34.585L68.5 40.45L51.5 34.5L35.52 39.8833C34.925 40.0817 34.5 40.5917 34.5 41.2433V84.0833C34.5 84.8767 35.1233 85.5 35.9167 85.5L36.37 85.415L51.5 79.55L68.5 85.5L84.48 80.1167C85.075 79.9183 85.5 79.4083 85.5 78.7567V35.9167C85.5 35.1233 84.8767 34.5 84.0833 34.5ZM54.3333 41.4983L65.6667 45.465V78.5017L54.3333 74.535V41.4983ZM40.1667 44.3033L48.6667 41.4417V74.5917L40.1667 77.8783V44.3033ZM79.8333 75.6967L71.3333 78.5583V45.4367L79.8333 42.15V75.6967Z" fill="#0485CE"/>
</svg>
