<svg width="68" height="68" viewBox="0 0 68 68" fill="none" xmlns="http://www.w3.org/2000/svg">
<path d="M25.5 34C25.5 38.7033 29.2967 42.5 34 42.5C38.7033 42.5 42.5 38.7033 42.5 34C42.5 29.2967 38.7033 25.5 34 25.5C29.2967 25.5 25.5 29.2967 25.5 34Z" fill="#0485CE"/>
<path d="M22.6667 28.3334V22.6667H14.4217C18.3317 15.8951 25.6417 11.3334 34 11.3334C44.54 11.3334 53.4083 18.5868 55.93 28.3334H61.7667C59.1317 15.4134 47.7133 5.66675 34 5.66675C24.735 5.66675 16.49 10.1434 11.3333 17.0284V11.3334H5.66666V28.3334H22.6667ZM45.3333 39.6668V45.3334H53.5783C49.6683 52.1051 42.3583 56.6668 34 56.6668C23.46 56.6668 14.5917 49.4134 12.07 39.6668H6.23333C8.86833 52.5868 20.2867 62.3334 34 62.3334C43.265 62.3334 51.51 57.8568 56.6667 50.9718V56.6668H62.3333V39.6668H45.3333Z" fill="#0485CE"/>
</svg>
