<svg width="68" height="68" viewBox="0 0 68 68" fill="none" xmlns="http://www.w3.org/2000/svg">
<path d="M34 5.66675C18.4167 5.66675 5.66669 18.4167 5.66669 34.0001C5.66669 49.5834 18.4167 62.3334 34 62.3334C49.5834 62.3334 62.3334 49.5834 62.3334 34.0001C62.3334 18.4167 49.5834 5.66675 34 5.66675ZM11.3334 34.0001C11.3334 21.5334 21.5334 11.3334 34 11.3334C39.1 11.3334 43.9167 13.0334 47.8834 16.1501L16.15 47.8834C13.0334 43.9167 11.3334 39.1001 11.3334 34.0001ZM34 56.6668C28.9 56.6668 24.0834 54.9667 20.1167 51.8501L51.85 20.1167C54.9667 24.0834 56.6667 28.9001 56.6667 34.0001C56.6667 46.4668 46.4667 56.6668 34 56.6668Z" fill="#0485CE"/>
</svg>
