<svg width="28" height="28" viewBox="0 0 28 28" fill="none" xmlns="http://www.w3.org/2000/svg">
<path d="M11.6013 6.34447C11.6496 6.55616 11.725 6.75752 11.8241 6.94466C8.81194 7.87555 6.61724 10.6862 6.61724 14C6.61724 15.1423 6.8823 16.2682 7.38658 17.2838C6.89455 18.2722 6.61724 19.3855 6.61724 20.5625C6.61724 24.6635 9.92915 27.9999 14 27.9999C18.0709 27.9999 21.3828 24.6635 21.3828 20.5625C21.3828 19.4202 21.1177 18.2943 20.6134 17.2787C21.1055 16.2903 21.3828 15.177 21.3828 14C21.3828 10.6862 19.1881 7.87549 16.176 6.94466C16.275 6.75752 16.3505 6.55611 16.3988 6.34447C19.2795 5.67237 21.7543 3.79402 23.2368 1.23122C23.4636 0.839057 23.3296 0.337248 22.9375 0.110405C22.5453 -0.116437 22.0435 0.0176012 21.8167 0.409708C20.5824 2.54349 18.5193 4.10962 16.2037 4.70353C15.8004 3.89388 14.9643 3.33607 14 3.33607C13.0356 3.33607 12.1996 3.89388 11.7962 4.70353C9.48071 4.10962 7.41764 2.54349 6.18329 0.409708C5.95645 0.0175465 5.4547 -0.116492 5.06248 0.110405C4.67032 0.337248 4.53628 0.839057 4.76318 1.23122C6.24438 3.79173 8.71799 5.67182 11.6013 6.34447ZM19.7422 20.5625C19.7422 23.7589 17.1663 26.3594 14.0001 26.3594C10.8338 26.3594 8.25791 23.7589 8.25791 20.5625C8.25791 17.3963 10.8338 14.8204 14.0001 14.8204C14.7319 14.8204 15.4568 14.9605 16.1307 15.2291C15.7048 15.9647 14.9095 16.461 14.0001 16.461C11.7235 16.461 9.89852 18.3198 9.89852 20.5625C9.89852 22.8274 11.7349 24.7188 14.0001 24.7188C16.2648 24.7188 18.1016 22.8277 18.1016 20.5625C18.1016 20.4243 18.0943 20.2865 18.0805 20.1495C18.6053 19.8001 19.083 19.3855 19.5019 18.9172C19.6602 19.4482 19.7422 20.0027 19.7422 20.5625ZM11.574 13.5897C11.77 12.4275 12.7829 11.5391 14 11.5391C15.2171 11.5391 16.2301 12.4275 16.4261 13.5898C15.6496 13.3203 14.8282 13.1797 14 13.1797C13.1505 13.1798 12.3342 13.3245 11.574 13.5897ZM16.426 20.9729C16.2278 22.1494 15.1977 23.0781 14.0001 23.0781C12.8025 23.0781 11.7723 22.1494 11.5741 20.9729C12.3506 21.2423 13.172 21.3828 14.0001 21.3828C14.8496 21.3828 15.6658 21.2381 16.426 20.9729ZM19.7422 14.0001C19.7422 17.1663 17.1663 19.7422 14.0001 19.7422C13.2682 19.7422 12.5434 19.6021 11.8694 19.3335C12.2954 18.5979 13.0906 18.1016 14.0001 18.1016C16.2766 18.1016 18.1016 16.2428 18.1016 14.0001C18.1016 11.7385 16.2616 9.89854 14.0001 9.89854C11.7385 9.89854 9.89852 11.7385 9.89852 14.0001C9.89852 14.1383 9.90579 14.2761 9.91958 14.4131C9.3948 14.7625 8.91716 15.1771 8.4982 15.6454C8.33988 15.1144 8.25796 14.5599 8.25796 14.0001C8.25796 10.8338 10.8339 8.25792 14.0001 8.25792C17.1663 8.25792 19.7422 10.8338 19.7422 14.0001ZM14.0001 4.97669C14.4524 4.97669 14.8204 5.34468 14.8204 5.797C14.8204 6.24931 14.4524 6.6173 14.0001 6.6173C13.5477 6.6173 13.1798 6.24931 13.1798 5.797C13.1798 5.34468 13.5477 4.97669 14.0001 4.97669Z" fill="#F2F2F2"/>
</svg>
