<svg width="36" height="36" viewBox="0 0 36 36" fill="none" xmlns="http://www.w3.org/2000/svg">
<g clip-path="url(#clip0)">
<path d="M14.25 13.5002C13.836 13.5002 13.5 13.1642 13.5 12.7502V8.25024C13.5 7.83624 13.836 7.50024 14.25 7.50024C14.664 7.50024 15 7.83624 15 8.25024V12.7502C15 13.1642 14.664 13.5002 14.25 13.5002Z" fill="#00A8FF"/>
<path d="M21.75 13.5002C21.336 13.5002 21 13.1642 21 12.7502V8.25024C21 7.83624 21.336 7.50024 21.75 7.50024C22.164 7.50024 22.5 7.83624 22.5 8.25024V12.7502C22.5 13.1642 22.164 13.5002 21.75 13.5002Z" fill="#00A8FF"/>
<path d="M31.3755 9.00024H4.41147C2.79597 9.00024 1.36647 7.96974 0.854974 6.43674L0.037474 3.98724C-0.037526 3.75924 -2.60286e-05 3.50724 0.140974 3.31224C0.281974 3.11574 0.508474 3.00024 0.749974 3.00024H35.25C35.5005 3.00024 35.7345 3.12624 35.874 3.33474C36.0135 3.54324 36.039 3.80724 35.9415 4.03974L34.836 6.69474C34.2525 8.09424 32.8935 9.00024 31.3755 9.00024ZM1.78947 4.50024L2.27697 5.96274C2.58447 6.88224 3.44247 7.50024 4.41147 7.50024H31.374C32.2845 7.50024 33.1005 6.95724 33.4515 6.11574L34.125 4.50024H1.78947Z" fill="#00A8FF"/>
<path d="M29.25 33.0002H6.75C5.5095 33.0002 4.5 31.9907 4.5 30.7502C4.5 30.6527 4.506 30.5567 4.518 30.4652L6.4245 15.2837C6.6615 13.4102 8.2605 12.0002 10.146 12.0002H25.854C27.7395 12.0002 29.3385 13.4102 29.574 15.2822L31.482 30.4667C31.494 30.5567 31.5 30.6527 31.5 30.7502C31.5 31.9907 30.4905 33.0002 29.25 33.0002ZM10.146 13.5002C9.015 13.5002 8.055 14.3462 7.914 15.4697L6.006 30.6557C6 31.1627 6.336 31.5002 6.75 31.5002H29.25C29.664 31.5002 30 31.1627 30 30.7502L28.086 15.4697C27.945 14.3462 26.985 13.5002 25.854 13.5002H10.146Z" fill="#00A8FF"/>
<path d="M24 25.5C23.586 25.5 23.25 25.164 23.25 24.75C23.25 21.855 20.895 19.5 18 19.5C15.105 19.5 12.75 21.855 12.75 24.75C12.75 25.164 12.414 25.5 12 25.5C11.586 25.5 11.25 25.164 11.25 24.75C11.25 21.0285 14.2785 18 18 18C21.7215 18 24.75 21.0285 24.75 24.75C24.75 25.164 24.414 25.5 24 25.5Z" fill="#00A8FF"/>
<path d="M18 27.0001C17.8875 27.0001 17.7735 26.9746 17.6655 26.9206C17.295 26.7346 17.145 26.2846 17.3295 25.9141L18.8295 22.9141C19.0155 22.5451 19.464 22.3921 19.836 22.5781C20.2065 22.7641 20.3565 23.2141 20.172 23.5846L18.672 26.5846C18.5385 26.8471 18.2745 27.0001 18 27.0001Z" fill="#00A8FF"/>
</g>
<defs>
<clipPath id="clip0">
<rect width="36" height="36" fill="white"/>
</clipPath>
</defs>
</svg>
