<svg width="85" height="28" viewBox="0 0 85 28" fill="none" xmlns="http://www.w3.org/2000/svg">
<path d="M58.9166 20.3272V22.539H58.5146V20.7637H57.5275V22.539H57.1255V20.3272H58.9166Z" fill="white"/>
<path d="M60.944 22.5333L60.7667 22.0791H59.8387L59.6614 22.5333H59.2239L60.0988 20.3215H60.4948L61.3696 22.5333H60.944ZM60.5953 21.6545L60.2997 20.9113L60.0042 21.6545H60.5953Z" fill="white"/>
<path d="M62.3213 20.3274C62.4218 20.3274 62.5164 20.3451 62.605 20.3746C62.6937 20.41 62.7705 20.4572 62.8356 20.5162C62.9006 20.5751 62.9538 20.6459 62.9892 20.7344C63.0247 20.817 63.0424 20.9113 63.0424 21.0175C63.0424 21.1178 63.0247 21.2121 62.9892 21.2947C62.9538 21.3773 62.9065 21.4481 62.8415 21.5129C62.7765 21.5719 62.6996 21.6191 62.6109 21.6545C62.5223 21.6899 62.4277 21.7017 62.3213 21.7017H62.0849V22.5333H61.6829V20.3215L62.3213 20.3274ZM62.0908 21.2711H62.3863C62.4573 21.2711 62.5164 21.2475 62.5696 21.2003C62.6169 21.1532 62.6464 21.0942 62.6464 21.0175C62.6464 20.9467 62.6228 20.8877 62.5755 20.8347C62.5282 20.7875 62.4691 20.758 62.3922 20.758H62.0967V21.2711H62.0908Z" fill="white"/>
<path d="M63.8109 20.3275V21.1709L64.5616 20.3275H65.0817L64.1478 21.3773L65.2059 22.5392H64.6502L63.8168 21.625V22.5392H63.4149V20.3275H63.8109Z" fill="white"/>
<path d="M66.66 20.929C66.66 21.047 66.6896 21.1296 66.7427 21.1768C66.7959 21.2239 66.8846 21.2475 66.9969 21.2475C67.056 21.2475 67.1033 21.2416 67.1447 21.2357C67.1861 21.2298 67.2274 21.2181 67.2629 21.2122V20.3275H67.6649V22.5392H67.2629V21.6545C67.2156 21.6663 67.1683 21.6722 67.1151 21.6781C67.0619 21.684 67.0028 21.6899 66.9319 21.6899C66.8373 21.6899 66.7546 21.6781 66.6718 21.6545C66.5891 21.6309 66.5181 21.5955 66.4531 21.5424C66.394 21.4953 66.3408 21.4304 66.3053 21.3478C66.2699 21.2652 66.2521 21.1709 66.2521 21.0588V20.3275H66.6541L66.66 20.929Z" fill="white"/>
<path d="M68.4569 20.3275L68.9002 21.3242L69.2963 20.3275H69.7396L68.8529 22.5392H68.4096L68.6933 21.8255L68.0195 20.3275H68.4569Z" fill="white"/>
<path d="M71.8557 22.0968V23.011H71.4715V22.5392H70.0588V23.011H69.6746V22.0968H69.8578C69.9878 21.8668 70.0942 21.625 70.1652 21.3655C70.2361 21.106 70.2716 20.8229 70.2716 20.5044V20.3215H71.5602V22.0968H71.8557ZM71.1641 20.758H70.6617C70.644 20.9998 70.6085 21.2357 70.5553 21.4599C70.5021 21.684 70.4193 21.8963 70.3129 22.0968H71.1641V20.758Z" fill="white"/>
<path d="M73.5049 20.3274V20.7639H72.6892V21.1826H73.4162V21.6191H72.6892V22.0968H73.5049V22.5333H72.2813V20.3215H73.5049V20.3274Z" fill="white"/>
<path d="M75.7747 22.1912C75.7392 22.2443 75.6979 22.2974 75.6447 22.3505C75.5915 22.3976 75.5324 22.4448 75.4614 22.4802C75.3905 22.5156 75.3077 22.5451 75.225 22.5628C75.1363 22.5805 75.0477 22.5923 74.9413 22.5923C74.7935 22.5923 74.6516 22.5628 74.5157 22.5097C74.3797 22.4566 74.2615 22.3799 74.1551 22.2738C74.0487 22.1735 73.9659 22.0497 73.9068 21.9081C73.8477 21.7666 73.8123 21.6073 73.8123 21.4422C73.8123 21.2711 73.8418 21.1178 73.9068 20.9762C73.9659 20.8347 74.0546 20.7167 74.1551 20.6105C74.2615 20.5103 74.3797 20.4336 74.5157 20.3746C74.6516 20.3156 74.7935 20.2921 74.9413 20.2921C75.0417 20.2921 75.1304 20.3038 75.2191 20.3215C75.3077 20.3451 75.3846 20.3687 75.4555 20.41C75.5264 20.4454 75.5856 20.4867 75.6388 20.5339C75.692 20.5811 75.7333 20.6282 75.7629 20.6813L75.6388 21.0411C75.6092 20.9998 75.5737 20.9585 75.5264 20.9231C75.4851 20.8878 75.4319 20.8524 75.3728 20.8229C75.3136 20.7934 75.2545 20.7698 75.1836 20.7521C75.1186 20.7344 75.0417 20.7226 74.9649 20.7226C74.8585 20.7226 74.758 20.7403 74.6634 20.7698C74.5689 20.8052 74.492 20.8524 74.427 20.9113C74.362 20.9703 74.3088 21.047 74.2733 21.1355C74.2378 21.2239 74.2201 21.3242 74.2201 21.4304C74.2201 21.5365 74.2378 21.6368 74.2733 21.7253C74.3088 21.8137 74.362 21.8904 74.427 21.9494C74.492 22.0084 74.5748 22.0556 74.6634 22.0909C74.758 22.1263 74.8585 22.1381 74.9649 22.1381C75.0477 22.1381 75.1186 22.1263 75.1895 22.1086C75.2605 22.0909 75.3255 22.0673 75.3846 22.032C75.4437 22.0025 75.4969 21.9671 75.5383 21.9258C75.5796 21.8845 75.621 21.8432 75.6506 21.8019L75.7747 22.1676V22.1912Z" fill="white"/>
<path d="M58.5737 26.5734V25.0812L57.5275 26.5734H57.1196V24.3617H57.5216V25.8598L58.5678 24.3617H58.9698V26.5734H58.5737Z" fill="white"/>
<path d="M62.1913 24.3617V26.5734H61.7893V24.7981H60.8022V26.5734H60.4002V24.3617H62.1913Z" fill="white"/>
<path d="M63.3853 24.3676C63.4858 24.3676 63.5803 24.3853 63.669 24.4148C63.7577 24.4502 63.8345 24.4973 63.8995 24.5563C63.9645 24.6153 64.0177 24.6861 64.0532 24.7746C64.0887 24.8571 64.1064 24.9515 64.1064 25.0577C64.1064 25.1579 64.0887 25.2523 64.0532 25.3349C64.0177 25.4174 63.9705 25.4882 63.9054 25.5531C63.8404 25.6121 63.7636 25.6593 63.6749 25.6946C63.5862 25.73 63.4917 25.7418 63.3853 25.7418H63.1488V26.5734H62.7469V24.3617L63.3853 24.3676ZM63.1547 25.3113H63.4503C63.5212 25.3113 63.5803 25.2877 63.6335 25.2405C63.6808 25.1933 63.7104 25.1343 63.7104 25.0577C63.7104 24.9869 63.6867 24.9279 63.6394 24.8748C63.5922 24.8276 63.533 24.7981 63.4562 24.7981H63.1607V25.3113H63.1547Z" fill="white"/>
<path d="M65.9269 26.5734V25.0812L64.8807 26.5734H64.4728V24.3617H64.8748V25.8598L65.921 24.3617H66.323V26.5734H65.9269Z" fill="white"/>
<path d="M67.2865 24.3617V25.2051L68.0372 24.3617H68.5574L67.6235 25.4115L68.6815 26.5734H68.1259L67.2924 25.6593V26.5734H66.8905V24.3617H67.2865Z" fill="white"/>
<path d="M70.7031 26.5793H70.3011V24.804H69.7041L69.6982 24.981C69.6864 25.2405 69.6687 25.4646 69.6391 25.6651C69.6096 25.8657 69.5623 26.0308 69.5091 26.1665C69.4559 26.3021 69.3849 26.4024 69.2963 26.4732C69.2135 26.5439 69.113 26.5793 69.0007 26.5793C68.9653 26.5793 68.9357 26.5734 68.9061 26.5675C68.8766 26.5616 68.8589 26.5498 68.8411 26.5439L68.7643 26.1842C68.8234 26.1783 68.8825 26.1665 68.9357 26.1488C68.9889 26.1311 69.0362 26.0957 69.0776 26.0485C69.1189 26.0013 69.1544 25.9423 69.1781 25.8657C69.2076 25.789 69.2313 25.6887 69.2549 25.5708C69.2785 25.4528 69.2904 25.3054 69.3022 25.1343C69.314 24.9633 69.3199 24.7627 69.3199 24.5327L69.3258 24.3499H70.7149L70.7031 26.5793Z" fill="white"/>
<path d="M73.1148 24.3263C73.2685 24.3263 73.4162 24.3558 73.5522 24.4148C73.6941 24.4737 73.8123 24.5504 73.9187 24.6566C74.0251 24.7569 74.1078 24.8807 74.1669 25.0223C74.226 25.1638 74.2615 25.3172 74.2615 25.4823C74.2615 25.6474 74.232 25.7949 74.1669 25.9365C74.1078 26.078 74.0192 26.196 73.9187 26.2962C73.8123 26.3965 73.6941 26.4791 73.5522 26.5381C73.4103 26.597 73.2685 26.6265 73.1148 26.6265C72.9729 26.6265 72.8429 26.6029 72.7187 26.5557C72.5946 26.5086 72.4764 26.4437 72.3759 26.3552C72.2754 26.2667 72.1927 26.1665 72.1217 26.0485C72.0567 25.9306 72.0094 25.8008 71.9858 25.6651H71.6607V26.5852H71.2587V24.3735H71.6607V25.2287H71.9917C72.0212 25.0989 72.0685 24.9751 72.1395 24.863C72.2104 24.751 72.2932 24.6566 72.3936 24.574C72.4941 24.4914 72.6064 24.4325 72.7247 24.3912C72.8488 24.3499 72.9788 24.3263 73.1089 24.3263H73.1148ZM73.1148 24.7745C73.0143 24.7745 72.9197 24.7922 72.8251 24.8217C72.7365 24.8571 72.6596 24.9043 72.5946 24.9692C72.5296 25.0282 72.4764 25.1048 72.4409 25.1933C72.4055 25.2818 72.3877 25.3761 72.3877 25.4823C72.3877 25.5885 72.4055 25.6828 72.4409 25.7713C72.4764 25.8598 72.5296 25.9306 72.5946 25.9954C72.6596 26.0544 72.7365 26.1075 72.8251 26.1429C72.9138 26.1783 73.0084 26.1901 73.1148 26.1901C73.2212 26.1901 73.3098 26.1724 73.4044 26.137C73.4931 26.1016 73.5699 26.0544 73.6349 25.9895C73.7 25.9306 73.7532 25.8539 73.7886 25.7654C73.8241 25.6769 73.8418 25.5826 73.8418 25.4705C73.8418 25.3643 73.8241 25.2641 73.7886 25.1756C73.7532 25.0871 73.7 25.0164 73.6349 24.9515C73.5699 24.8925 73.4931 24.8394 73.4044 24.804C73.3157 24.7686 73.2212 24.751 73.1148 24.751V24.7745Z" fill="white"/>
<path d="M74.9649 24.9692C74.9649 25.0871 74.9944 25.1697 75.0476 25.2169C75.1008 25.2641 75.1895 25.2877 75.3018 25.2877C75.3609 25.2877 75.4082 25.2818 75.4496 25.2759C75.4909 25.27 75.5323 25.2582 75.5678 25.2523V24.3676H75.9697V26.5793H75.5678V25.6946C75.5205 25.7064 75.4732 25.7123 75.42 25.7182C75.3668 25.7241 75.3077 25.73 75.2368 25.73C75.1422 25.73 75.0594 25.7182 74.9767 25.6946C74.8939 25.671 74.823 25.6357 74.758 25.5826C74.6989 25.5354 74.6457 25.4705 74.6102 25.3879C74.5747 25.3054 74.557 25.211 74.557 25.0989V24.3676H74.959L74.9649 24.9692Z" fill="white"/>
<path d="M77.7431 24.3617V24.7981H76.9274V25.2169H77.6544V25.6533H76.9274V26.1311H77.7431V26.5675H76.5195V24.3558H77.7431V24.3617Z" fill="white"/>
<path d="M78.6238 24.3617V25.2169H79.6523V24.3617H80.0543V26.5734H79.6523V25.6534H78.6238V26.5734H78.2219V24.3617H78.6238Z" fill="white"/>
<path d="M82.064 26.5734V25.0812L81.0178 26.5734H80.6099V24.3617H81.0119V25.8598L82.0581 24.3617H82.4601V26.5734H82.064Z" fill="white"/>
<path d="M84.4756 26.5734V25.0812L83.4294 26.5734H83.0215V24.3617H83.4235V25.8598L84.4697 24.3617H84.8717V26.5734H84.4756ZM84.4697 23.7896C84.4697 23.8544 84.4579 23.9193 84.4284 23.9783C84.3988 24.0373 84.3633 24.0845 84.3161 24.1258C84.2688 24.167 84.2097 24.1965 84.1446 24.2201C84.0796 24.2437 84.0146 24.2555 83.9437 24.2555C83.8727 24.2555 83.8018 24.2437 83.7427 24.2201C83.6777 24.1965 83.6245 24.1611 83.5772 24.1199C83.5299 24.0786 83.4944 24.0314 83.4649 23.9724C83.4353 23.9134 83.4235 23.8485 83.4235 23.7837L83.719 23.7365C83.7249 23.7955 83.7427 23.8426 83.7841 23.8839C83.8254 23.9252 83.8786 23.9429 83.9496 23.9429C84.0205 23.9429 84.0737 23.9193 84.1151 23.8839C84.1565 23.8426 84.1742 23.7955 84.1801 23.7365L84.4756 23.7837V23.7896H84.4697Z" fill="white"/>
<path d="M19.9691 13.3571L19.4371 0.764801H12.7104L9.71352 13.3571H8.27124V18.2288H10.9135V16.1409H18.6155V18.2288H21.2577V13.3571H19.9691ZM12.3262 13.3571L14.732 3.79049H17.0431L17.2796 13.3571H12.3262Z" fill="white"/>
<path d="M25.224 0.769599L22.7059 0.763702V16.1398H25.224V11.5512C28.2386 11.5512 30.3783 9.32173 30.3783 6.16039C30.3783 2.99905 28.2386 0.769599 25.224 0.769599ZM25.224 8.46652V3.78939C26.6426 3.78939 27.742 4.50305 27.742 6.1309C27.742 7.75875 26.6426 8.46652 25.224 8.46652Z" fill="white"/>
<path d="M34.4037 10.519V0.763702H31.9152V16.1398H34.5515L38.033 7.05099L37.6961 16.1398H40.2378L40.5807 0.787293H37.9148L34.4037 10.519Z" fill="white"/>
<path d="M63.8759 7.63489C64.4611 6.98021 64.8099 6.1191 64.8099 5.09285C64.8099 2.73954 63.0543 0.763702 60.2466 0.763702H57.8231V16.1398H60.217C63.2966 16.1398 65.7438 14.7184 65.7438 11.1147C65.7438 9.49277 64.9872 8.32496 63.8759 7.63489ZM60.3411 3.60065C61.7834 3.60065 62.2977 4.35559 62.2977 5.15773C62.2977 5.95986 61.7539 6.74429 60.3411 6.74429C60.3411 6.74429 60.3411 6.74429 60.3352 6.74429V3.60065H60.3411ZM60.3411 13.3029V9.05632C62.0494 9.05632 63.1666 9.68151 63.1666 11.1796C63.1666 12.6718 62.008 13.3029 60.3411 13.3029Z" fill="white"/>
<path d="M72.2695 0.775513L70.2361 6.49659L67.9841 0.775513H65.0286L68.9535 10.1062L66.8019 16.1635H69.645L75.1245 0.775513H72.2695Z" fill="white"/>
<path d="M83.4353 13.356L82.2531 0.763702H76.5077C76.5077 0.763702 75.1836 10.3303 73.9246 13.356H72.3936V18.2454H75.0358V16.1398H82.2709V18.2454H84.9131V13.356H83.4353ZM76.7855 13.356C77.6899 10.5013 78.3342 6.85636 78.6533 3.78938H79.9774L80.7399 13.356H76.7855Z" fill="white"/>
<path d="M48.7024 10.466L45.7173 0.763712H43.2111L42.6732 16.134H45.138L45.3449 7.62901L47.2955 13.5447H49.8314L52.9169 6.79739V16.134H55.3995V0.757812L52.8992 0.763712L48.7024 10.466Z" fill="white"/>
<path d="M7.68012 2.18514L7.62692 2.23822L7.68012 2.18514ZM2.23018 2.18514L2.28338 2.23822L2.23018 2.18514ZM7.62692 2.23822C6.14917 3.71272 6.14917 6.09552 7.62692 7.57003L7.68012 7.62311L7.62692 7.57003C6.88804 6.83277 5.92455 6.4671 4.95515 6.4671C3.98575 6.4671 3.02226 6.83277 2.28338 7.57003C3.76113 6.09552 3.76113 3.71272 2.28338 2.23822C3.02226 2.97547 3.98575 3.34115 4.95515 3.34115C5.92455 3.34115 6.88804 2.97547 7.62692 2.23822ZM2.28338 7.57003L2.23018 7.62311L2.28338 7.57003ZM6.32059 0.822693L6.26739 0.875775L7.63283 2.23822L6.26739 0.875775C5.91864 1.22376 5.45167 1.41839 4.96106 1.41839C4.46454 1.41839 4.00348 1.22376 3.65473 0.875775L3.58971 0.822693L0.864746 3.54168L0.917945 3.59476C1.63909 4.31432 1.63909 5.48803 0.917945 6.20759L0.864746 6.26067L3.58971 8.97966L3.64291 8.92657C3.99166 8.57859 4.45863 8.38395 4.94924 8.38395C5.44576 8.38395 5.90682 8.57859 6.25557 8.92657L6.30877 8.97966L9.03373 6.26067L8.98053 6.20759C8.25939 5.48803 8.25939 4.31432 8.98053 3.59476L9.03373 3.54168L6.32059 0.822693Z" fill="white"/>
<path d="M53.0612 18.918L50.1689 21.804L51.5314 23.1636L54.4238 20.2776L53.0612 18.918Z" fill="white"/>
<path d="M46.7136 18.9168L45.3511 20.2764L48.2434 23.1624L49.606 21.8028L46.7136 18.9168Z" fill="white"/>
<path d="M48.2423 23.7242L45.3499 26.6102L46.7125 27.9697L49.6048 25.0838L48.2423 23.7242Z" fill="white"/>
<path d="M51.5303 23.7253L50.1677 25.0849L53.0601 27.9709L54.4226 26.6113L51.5303 23.7253Z" fill="white"/>
</svg>
