<svg width="260" height="137" viewBox="0 0 260 137" fill="none" xmlns="http://www.w3.org/2000/svg">
<path d="M179.301 113.315V120.128H178.06V114.659H175.011V120.128H173.77V113.315H179.301Z" fill="white"/>
<path d="M185.562 120.111L185.015 118.712H182.149L181.601 120.111H180.25L182.952 113.297H184.175L186.877 120.111H185.562ZM184.485 117.403L183.573 115.114L182.66 117.403H184.485Z" fill="white"/>
<path d="M189.816 113.315C190.126 113.315 190.418 113.37 190.692 113.461C190.966 113.57 191.203 113.715 191.404 113.897C191.605 114.078 191.769 114.296 191.878 114.569C191.988 114.823 192.043 115.114 192.043 115.441C192.043 115.75 191.988 116.041 191.878 116.295C191.769 116.549 191.623 116.767 191.422 116.967C191.221 117.149 190.984 117.294 190.71 117.403C190.436 117.512 190.144 117.549 189.816 117.549H189.085V120.111H187.844V113.297L189.816 113.315ZM189.104 116.222H190.016C190.235 116.222 190.418 116.15 190.582 116.004C190.728 115.859 190.82 115.677 190.82 115.441C190.82 115.223 190.747 115.041 190.601 114.878C190.454 114.732 190.272 114.642 190.035 114.642H189.122V116.222H189.104Z" fill="white"/>
<path d="M194.416 113.315V115.913L196.734 113.315H198.341L195.456 116.549L198.724 120.129H197.008L194.434 117.312V120.129H193.193V113.315H194.416Z" fill="white"/>
<path d="M203.214 115.168C203.214 115.532 203.306 115.786 203.47 115.932C203.634 116.077 203.908 116.15 204.255 116.15C204.437 116.15 204.583 116.131 204.711 116.113C204.839 116.095 204.967 116.059 205.076 116.041V113.315H206.318V120.129H205.076V117.403C204.93 117.44 204.784 117.458 204.62 117.476C204.456 117.494 204.273 117.512 204.054 117.512C203.762 117.512 203.506 117.476 203.251 117.403C202.995 117.331 202.776 117.222 202.575 117.058C202.393 116.913 202.229 116.713 202.119 116.459C202.01 116.204 201.955 115.913 201.955 115.568V113.315H203.196L203.214 115.168Z" fill="white"/>
<path d="M208.764 113.315L210.133 116.386L211.356 113.315H212.725L209.987 120.129H208.618L209.494 117.93L207.413 113.315H208.764Z" fill="white"/>
<path d="M219.26 118.766V121.582H218.074V120.129H213.711V121.582H212.524V118.766H213.09C213.492 118.057 213.82 117.312 214.039 116.513C214.258 115.714 214.368 114.841 214.368 113.86V113.297H218.347V118.766H219.26ZM217.124 114.642H215.573C215.518 115.386 215.408 116.113 215.244 116.804C215.08 117.494 214.824 118.148 214.496 118.766H217.124V114.642Z" fill="white"/>
<path d="M224.353 113.315V114.66H221.834V115.95H224.079V117.294H221.834V118.766H224.353V120.111H220.575V113.297H224.353V113.315Z" fill="white"/>
<path d="M231.363 119.057C231.253 119.22 231.126 119.384 230.961 119.547C230.797 119.693 230.615 119.838 230.395 119.947C230.176 120.056 229.921 120.147 229.665 120.201C229.392 120.256 229.118 120.292 228.789 120.292C228.333 120.292 227.895 120.201 227.475 120.038C227.055 119.874 226.69 119.638 226.361 119.311C226.033 119.002 225.777 118.621 225.595 118.185C225.412 117.749 225.302 117.258 225.302 116.749C225.302 116.222 225.394 115.75 225.595 115.314C225.777 114.878 226.051 114.514 226.361 114.187C226.69 113.878 227.055 113.642 227.475 113.461C227.895 113.279 228.333 113.206 228.789 113.206C229.099 113.206 229.373 113.242 229.647 113.297C229.921 113.37 230.158 113.442 230.377 113.57C230.596 113.679 230.779 113.806 230.943 113.951C231.107 114.096 231.235 114.242 231.326 114.405L230.943 115.514C230.852 115.387 230.742 115.259 230.596 115.15C230.469 115.041 230.304 114.932 230.122 114.841C229.939 114.751 229.757 114.678 229.538 114.623C229.337 114.569 229.099 114.533 228.862 114.533C228.534 114.533 228.223 114.587 227.931 114.678C227.639 114.787 227.402 114.932 227.201 115.114C227 115.296 226.836 115.532 226.726 115.804C226.617 116.077 226.562 116.386 226.562 116.713C226.562 117.04 226.617 117.349 226.726 117.621C226.836 117.894 227 118.13 227.201 118.312C227.402 118.494 227.657 118.639 227.931 118.748C228.223 118.857 228.534 118.893 228.862 118.893C229.118 118.893 229.337 118.857 229.556 118.802C229.775 118.748 229.976 118.675 230.158 118.566C230.341 118.475 230.505 118.366 230.633 118.239C230.761 118.112 230.888 117.985 230.98 117.858L231.363 118.984V119.057Z" fill="white"/>
<path d="M178.242 132.557V127.96L175.011 132.557H173.752V125.743H174.993V130.358L178.224 125.743H179.465V132.557H178.242Z" fill="white"/>
<path d="M189.414 125.743V132.557H188.173V127.088H185.124V132.557H183.883V125.743H189.414Z" fill="white"/>
<path d="M193.101 125.761C193.412 125.761 193.704 125.816 193.978 125.907C194.252 126.016 194.489 126.161 194.69 126.343C194.89 126.525 195.055 126.743 195.164 127.015C195.274 127.27 195.329 127.56 195.329 127.887C195.329 128.196 195.274 128.487 195.164 128.741C195.055 128.996 194.909 129.214 194.708 129.414C194.507 129.595 194.27 129.741 193.996 129.85C193.722 129.959 193.43 129.995 193.101 129.995H192.371V132.557H191.13V125.743L193.101 125.761ZM192.39 128.669H193.302C193.521 128.669 193.704 128.596 193.868 128.451C194.014 128.305 194.105 128.123 194.105 127.887C194.105 127.669 194.032 127.488 193.886 127.324C193.74 127.179 193.558 127.088 193.321 127.088H192.408V128.669H192.39Z" fill="white"/>
<path d="M200.951 132.557V127.96L197.72 132.557H196.46V125.743H197.702V130.358L200.933 125.743H202.174V132.557H200.951Z" fill="white"/>
<path d="M205.149 125.743V128.342L207.468 125.743H209.074L206.19 128.977L209.458 132.557H207.742L205.168 129.741V132.557H203.926V125.743H205.149Z" fill="white"/>
<path d="M215.701 132.575H214.459V127.106H212.615L212.597 127.651C212.561 128.451 212.506 129.141 212.415 129.759C212.323 130.377 212.177 130.885 212.013 131.303C211.849 131.721 211.63 132.03 211.356 132.248C211.1 132.466 210.79 132.575 210.443 132.575C210.334 132.575 210.242 132.557 210.151 132.539C210.06 132.521 210.005 132.484 209.95 132.466L209.713 131.358C209.896 131.34 210.078 131.303 210.242 131.249C210.407 131.194 210.553 131.085 210.681 130.94C210.808 130.794 210.918 130.613 210.991 130.377C211.082 130.14 211.155 129.831 211.228 129.468C211.301 129.105 211.338 128.65 211.374 128.123C211.411 127.597 211.429 126.979 211.429 126.27L211.447 125.707H215.737L215.701 132.575Z" fill="white"/>
<path d="M223.148 125.634C223.623 125.634 224.079 125.725 224.499 125.907C224.937 126.088 225.302 126.325 225.631 126.652C225.96 126.961 226.215 127.342 226.398 127.778C226.58 128.214 226.69 128.687 226.69 129.195C226.69 129.704 226.599 130.158 226.398 130.595C226.215 131.031 225.941 131.394 225.631 131.703C225.302 132.012 224.937 132.266 224.499 132.448C224.061 132.63 223.623 132.72 223.148 132.72C222.71 132.72 222.309 132.648 221.925 132.502C221.542 132.357 221.177 132.157 220.867 131.885C220.556 131.612 220.301 131.303 220.082 130.94C219.881 130.576 219.735 130.177 219.662 129.759H218.658V132.593H217.417V125.78H218.658V128.414H219.68C219.771 128.014 219.917 127.633 220.136 127.288C220.355 126.942 220.611 126.652 220.921 126.397C221.232 126.143 221.579 125.961 221.944 125.834C222.327 125.707 222.729 125.634 223.13 125.634H223.148ZM223.148 127.015C222.838 127.015 222.546 127.07 222.254 127.16C221.98 127.269 221.743 127.415 221.542 127.615C221.341 127.796 221.177 128.033 221.067 128.305C220.958 128.578 220.903 128.868 220.903 129.195C220.903 129.523 220.958 129.813 221.067 130.086C221.177 130.358 221.341 130.576 221.542 130.776C221.743 130.958 221.98 131.121 222.254 131.23C222.528 131.34 222.82 131.376 223.148 131.376C223.477 131.376 223.751 131.321 224.043 131.212C224.317 131.103 224.554 130.958 224.755 130.758C224.956 130.576 225.12 130.34 225.229 130.068C225.339 129.795 225.394 129.504 225.394 129.159C225.394 128.832 225.339 128.523 225.229 128.251C225.12 127.978 224.956 127.76 224.755 127.56C224.554 127.379 224.317 127.215 224.043 127.106C223.769 126.997 223.477 126.942 223.148 126.942V127.015Z" fill="white"/>
<path d="M228.862 127.615C228.862 127.978 228.953 128.232 229.118 128.378C229.282 128.523 229.556 128.596 229.903 128.596C230.085 128.596 230.231 128.578 230.359 128.56C230.487 128.541 230.615 128.505 230.724 128.487V125.761H231.965V132.575H230.724V129.85C230.578 129.886 230.432 129.904 230.268 129.922C230.103 129.94 229.921 129.959 229.702 129.959C229.41 129.959 229.154 129.922 228.899 129.85C228.643 129.777 228.424 129.668 228.223 129.504C228.041 129.359 227.876 129.159 227.767 128.905C227.657 128.65 227.603 128.36 227.603 128.014V125.761H228.844L228.862 127.615Z" fill="white"/>
<path d="M237.442 125.743V127.088H234.923V128.378H237.168V129.722H234.923V131.194H237.442V132.539H233.663V125.725H237.442V125.743Z" fill="white"/>
<path d="M240.162 125.743V128.378H243.338V125.743H244.579V132.557H243.338V129.722H240.162V132.557H238.92V125.743H240.162Z" fill="white"/>
<path d="M250.786 132.557V127.96L247.555 132.557H246.295V125.743H247.536V130.358L250.768 125.743H252.009V132.557H250.786Z" fill="white"/>
<path d="M258.234 132.557V127.96L255.002 132.557H253.743V125.743H254.984V130.358L258.215 125.743H259.457V132.557H258.234ZM258.215 123.981C258.215 124.181 258.179 124.381 258.088 124.562C257.996 124.744 257.887 124.889 257.741 125.016C257.595 125.144 257.412 125.234 257.211 125.307C257.01 125.38 256.81 125.416 256.591 125.416C256.372 125.416 256.153 125.38 255.97 125.307C255.769 125.234 255.605 125.125 255.459 124.998C255.313 124.871 255.203 124.726 255.112 124.544C255.021 124.362 254.984 124.162 254.984 123.963L255.897 123.817C255.915 123.999 255.97 124.144 256.098 124.271C256.226 124.399 256.39 124.453 256.609 124.453C256.828 124.453 256.992 124.381 257.12 124.271C257.248 124.144 257.303 123.999 257.321 123.817L258.234 123.963V123.981H258.215Z" fill="white"/>
<path d="M59.0221 91.8382L57.3792 53.0459H36.6055L27.3505 91.8382H22.8964V106.846H31.0561V100.414H54.8418V106.846H63.0015V91.8382H59.0221ZM35.419 91.8382L42.8486 62.3669H49.9861L50.7162 91.8382H35.419Z" fill="white"/>
<path d="M75.2503 53.0644L67.4739 53.0462V100.415H75.2503V86.2786C84.5601 86.2786 91.1682 79.4105 91.1682 69.6715C91.1682 59.9325 84.5601 53.0644 75.2503 53.0644ZM75.2503 76.7759V62.3673C79.6314 62.3673 83.0267 64.5658 83.0267 69.5806C83.0267 74.5955 79.6314 76.7759 75.2503 76.7759Z" fill="white"/>
<path d="M103.6 83.0989V53.0462H95.9144V100.415H104.056L114.808 72.4151L113.767 100.415H121.617L122.676 53.1189H114.443L103.6 83.0989Z" fill="white"/>
<path d="M194.617 74.2139C196.424 72.1971 197.501 69.5443 197.501 66.3828C197.501 59.1331 192.079 53.0462 183.408 53.0462H175.924V100.415H183.317C192.828 100.415 200.385 96.0357 200.385 84.9341C200.385 79.9374 198.048 76.3398 194.617 74.2139ZM183.7 61.7858C188.154 61.7858 189.743 64.1116 189.743 66.5826C189.743 69.0537 188.063 71.4703 183.7 71.4703C183.7 71.4703 183.7 71.4703 183.682 71.4703V61.7858H183.7ZM183.7 91.675V78.5928C188.976 78.5928 192.426 80.5188 192.426 85.1339C192.426 89.7309 188.848 91.675 183.7 91.675Z" fill="white"/>
<path d="M220.538 53.0826L214.258 70.7072L207.304 53.0826H198.176L210.297 81.827L203.653 100.487H212.433L229.355 53.0826H220.538Z" fill="white"/>
<path d="M255.021 91.8385L251.37 53.0462H233.627C233.627 53.0462 229.538 82.5175 225.649 91.8385H220.921V106.901H229.081V100.415H251.425V106.901H259.584V91.8385H255.021ZM234.484 91.8385C237.277 83.0444 239.267 71.8155 240.253 62.3673H244.342L246.697 91.8385H234.484Z" fill="white"/>
<path d="M147.757 82.9354L138.539 53.0462H130.799L129.138 100.396H136.75L137.389 74.1958L143.413 92.42H151.244L160.773 71.6338V100.396H168.44V53.028L160.718 53.0462L147.757 82.9354Z" fill="white"/>
<path d="M21.0709 57.4251L20.9066 57.5887L21.0709 57.4251ZM4.24023 57.4251L4.40452 57.5887L4.24023 57.4251ZM20.9066 57.5887C16.343 62.1311 16.343 69.4717 20.9066 74.0141L21.0709 74.1776L20.9066 74.0141C18.6248 71.7429 15.6493 70.6164 12.6556 70.6164C9.66182 70.6164 6.68634 71.7429 4.40452 74.0141C8.96815 69.4717 8.96815 62.1311 4.40452 57.5887C6.68634 59.8599 9.66182 60.9864 12.6556 60.9864C15.6493 60.9864 18.6248 59.8599 20.9066 57.5887ZM4.40452 74.0141L4.24023 74.1776L4.40452 74.0141ZM16.8724 53.2279L16.7081 53.3915L20.9249 57.5887L16.7081 53.3915C15.6311 54.4635 14.1889 55.0631 12.6738 55.0631C11.1404 55.0631 9.71659 54.4635 8.63957 53.3915L8.43877 53.2279L0.0234375 61.6042L0.187728 61.7677C2.41478 63.9844 2.41478 67.6002 0.187728 69.8169L0.0234375 69.9804L8.43877 78.3567L8.60306 78.1931C9.68008 77.1211 11.1222 76.5215 12.6373 76.5215C14.1707 76.5215 15.5945 77.1211 16.6716 78.1931L16.8359 78.3567L25.2512 69.9804L25.0869 69.8169C22.8598 67.6002 22.8598 63.9844 25.0869 61.7677L25.2512 61.6042L16.8724 53.2279Z" fill="white"/>
<path d="M248.303 46.7777L247.883 46.3598C237.661 36.2029 221.049 36.2029 210.845 46.3598L210.425 46.7777L206.208 42.5805L206.628 42.1626C216.832 32.0057 216.832 15.4531 206.628 5.29623L206.208 4.87833L210.425 0.681122L210.845 1.09903C215.792 6.02302 222.364 8.7303 229.373 8.7303C236.365 8.7303 242.955 6.02302 247.902 1.09903L248.321 0.681122L252.538 4.87833L252.118 5.29623C241.914 15.4531 241.914 32.0057 252.118 42.1626L252.538 42.5805L248.303 46.7777ZM218.274 12.7095C220.885 19.7957 220.885 27.645 218.274 34.7312C221.779 33.4593 225.503 32.787 229.337 32.787C233.17 32.787 236.894 33.4411 240.381 34.713C239.103 31.2426 238.446 27.536 238.446 23.7203C238.446 19.9047 239.121 16.1799 240.399 12.7095C233.28 15.2896 225.412 15.2896 218.274 12.7095Z" fill="white"/>
<path d="M161.218 108.973L152.286 117.864L156.494 122.052L165.426 113.161L161.218 108.973Z" fill="white"/>
<path d="M141.616 108.97L137.408 113.158L146.34 122.049L150.548 117.86L141.616 108.97Z" fill="white"/>
<path d="M146.336 123.779L137.404 132.67L141.612 136.858L150.544 127.968L146.336 123.779Z" fill="white"/>
<path d="M156.491 123.783L152.283 127.971L161.215 136.862L165.423 132.673L156.491 123.783Z" fill="white"/>
</svg>
