<svg width="100" height="100" viewBox="0 0 100 100" fill="none" xmlns="http://www.w3.org/2000/svg">
<path d="M98.0445 88.0054L72.5589 62.52C71.6895 61.6466 70.5896 61.0966 69.4246 60.8286C73.8326 54.6031 76.4484 47.0234 76.4484 38.8285C76.4484 17.7509 59.3038 0.604248 38.2242 0.604248C17.1466 0.604006 0 17.7489 0 38.8282C0 59.9039 17.1466 77.0505 38.2242 77.0505C46.9731 77.0505 55.016 74.0542 61.4624 69.0842C61.7622 70.1329 62.2962 71.1284 63.1203 71.9544L88.6096 97.4418C89.8711 98.7034 91.5448 99.3953 93.329 99.3953C95.1132 99.3953 96.7868 98.7014 98.0465 97.4418C99.3081 96.1802 100.002 94.5044 100 92.7185C99.998 90.9367 99.3042 89.2631 98.0445 88.0054ZM3.9407 38.8263C3.9407 19.9231 19.3191 4.5447 38.2223 4.5447C57.1235 4.5447 72.5019 19.9231 72.5019 38.8263C72.5019 47.8924 68.9357 56.1247 63.1695 62.2636C63.1419 62.2874 63.1142 62.2971 63.0846 62.3189C63.0451 62.3604 63.0354 62.4135 62.9959 62.4511C56.7508 68.9979 47.9645 73.1023 38.2259 73.1023C19.321 73.1059 3.9407 57.7256 3.9407 38.8263ZM95.257 94.6526C94.2261 95.6855 92.4283 95.6835 91.3971 94.6526L65.9078 69.1672C64.8453 68.1028 64.8453 66.3699 65.9078 65.3053C66.4244 64.7887 67.1102 64.505 67.8397 64.505C68.5692 64.505 69.2531 64.7909 69.7697 65.3053L95.259 90.7968C95.7736 91.3114 96.0554 91.9933 96.0554 92.7228C96.0573 93.4502 95.7736 94.1382 95.257 94.6526Z" fill="white"/>
<g clip-path="url(#clip0)">
<path d="M46.9999 38H39.0001V29.9999C39.0001 29.4481 38.552 29 37.9999 29C37.4481 29 37 29.4481 37 29.9999V38H28.9999C28.4481 38 28 38.4481 28 38.9999C28 39.552 28.4481 40.0001 28.9999 40.0001H37V47.9999C37 48.552 37.4481 49.0001 37.9999 49.0001C38.552 49.0001 39.0001 48.552 39.0001 47.9999V40.0001H46.9999C47.552 40.0001 48.0001 39.552 48.0001 38.9999C48.0001 38.4481 47.552 38 46.9999 38Z" fill="white"/>
</g>
<defs>
<clipPath id="clip0">
<rect width="20" height="20" fill="white" transform="translate(28 29)"/>
</clipPath>
</defs>
</svg>
