<svg width="36" height="36" viewBox="0 0 36 36" fill="none" xmlns="http://www.w3.org/2000/svg">
<path d="M23.7601 17.2969C24.1484 17.2969 24.4632 16.9821 24.4632 16.5938C24.4632 16.2054 24.1484 15.8906 23.7601 15.8906C23.3717 15.8906 23.0569 16.2054 23.0569 16.5938C23.0569 16.9821 23.3717 17.2969 23.7601 17.2969Z" fill="#00A8FF"/>
<path d="M23.8807 19.6063C23.4969 19.5493 23.1391 19.8147 23.0822 20.1989C22.89 21.4965 21.7931 22.5727 20.1481 23.0778C18.3898 23.6177 15.9492 23.4368 14.4603 21.8154C14.1976 21.5294 13.7528 21.5105 13.4669 21.7731C13.1808 22.0358 13.1619 22.4806 13.4245 22.7665C14.2864 23.7051 15.4571 24.3449 16.8099 24.6165C17.2876 24.7124 17.7831 24.76 18.2819 24.76C19.0524 24.76 19.8305 24.6464 20.5609 24.4221C22.7371 23.7539 24.1996 22.2522 24.4732 20.4049C24.5301 20.0208 24.2648 19.6632 23.8807 19.6063Z" fill="#00A8FF"/>
<path d="M33.6534 13.3883C32.3754 11.9067 30.6115 10.9461 28.4884 10.5603C30.5211 9.18851 32.2744 7.82332 33.5246 6.63209C35.4307 4.81584 36.0698 3.53953 35.5362 2.6157C34.9423 1.58674 33.228 1.59384 30.1409 2.63827C27.5325 3.52069 24.2831 5.05329 20.9913 6.95384C20.4227 7.28205 19.8594 7.61815 19.3083 7.95684C18.8996 6.80252 19.1692 5.48395 20.071 4.3406C20.7465 3.4842 20.8973 2.39646 20.4647 1.50173C20.0112 0.563977 19.0158 0.00253125 17.8005 0H17.7674C13.4779 0 9.28233 1.69249 5.95352 4.76571C2.62057 7.84273 0.580101 11.9161 0.208007 16.2353C-0.239672 21.437 1.42308 26.3824 4.88983 30.1603C8.29535 33.8716 13.1234 36 18.1359 36C20.8345 36 23.3678 35.5063 25.6654 34.5324C27.7664 33.6419 29.632 32.3703 31.2107 30.7529C32.6744 29.2532 33.8284 27.5269 34.6407 25.6216C35.4138 23.8087 35.8361 21.8874 35.8622 20.0657C35.9002 17.4165 35.1364 15.1075 33.6534 13.3883ZM19.3905 9.56166C20.1347 9.09232 20.9098 8.62467 21.6944 8.17172C24.7379 6.41447 27.7687 4.96709 30.2284 4.09613C32.9362 3.13741 34.0448 3.19999 34.3032 3.32374C34.2809 3.48736 34.0777 4.2153 32.3008 5.85162C30.8171 7.218 28.6504 8.82485 26.1999 10.3762C25.4253 10.8667 24.6191 11.3543 23.8038 11.8251C22.6799 12.4738 21.5568 13.0804 20.4545 13.6358C20.2346 12.9939 19.9527 12.371 19.6096 11.7767C19.2771 11.2008 18.8914 10.6601 18.4604 10.1598C18.7654 9.95984 19.0759 9.75987 19.3905 9.56166ZM19.1806 14.2595C17.1952 15.2011 15.3734 15.9189 13.9185 16.3353C13.8428 15.9716 13.7096 15.62 13.5207 15.2925C13.3416 14.982 13.117 14.7045 12.8573 14.4652C13.9464 13.4141 15.4794 12.1963 17.2845 10.9504C17.7035 11.4187 18.075 11.931 18.3918 12.4797C18.7194 13.0471 18.9831 13.6439 19.1806 14.2595ZM34.4561 20.0455C34.3558 27.0422 28.0877 34.5938 18.1359 34.5938C13.5162 34.5938 9.0659 32.6313 5.92603 29.2096C2.72871 25.7254 1.19569 21.1605 1.60912 16.356C2.31921 8.11266 9.5678 1.40625 17.7674 1.40625H17.799C18.4717 1.40766 18.9819 1.66556 19.1986 2.11395C19.398 2.52612 19.3113 3.03293 18.9668 3.46971C17.6996 5.07635 17.3818 7.05234 18.0978 8.7184C17.7208 8.96126 17.3503 9.20517 16.9924 9.44712C16.9907 9.44824 16.989 9.44937 16.9874 9.45049C14.7515 10.9592 12.8635 12.4599 11.6073 13.7227C10.6545 13.3971 9.60773 13.4921 8.718 14.0056C7.25719 14.8494 5.33906 18.7817 4.96943 19.5614C4.87043 19.77 4.88034 20.0141 4.9958 20.2141C5.11132 20.4142 5.31769 20.5448 5.54789 20.5635C5.93651 20.595 7.04006 20.6745 8.26835 20.6745C9.75883 20.6745 11.4328 20.5573 12.2337 20.0947C13.1012 19.5939 13.7025 18.7572 13.9108 17.7953C15.6351 17.3427 17.8879 16.4573 20.3279 15.2685C21.695 14.6031 23.101 13.8544 24.5069 13.043C25.2201 12.6311 25.9252 12.2065 26.6105 11.7782C26.6146 11.7784 26.6186 11.779 26.6228 11.7792C32.4833 11.9472 34.5119 16.1595 34.4561 20.0455ZM12.5819 17.1823C12.5369 17.8894 12.144 18.5228 11.5306 18.8769C10.8656 19.261 8.58131 19.3127 6.70573 19.227C7.56881 17.5603 8.75562 15.608 9.42126 15.2235C10.0497 14.8607 10.8095 14.8448 11.4541 15.1811C11.8084 15.3656 12.1018 15.6471 12.3026 15.9952C12.5115 16.3573 12.608 16.7678 12.5819 17.1823Z" fill="#00A8FF"/>
<path d="M12.5101 4.34814C10.9593 4.34814 9.69763 5.60983 9.69763 7.16064C9.69763 8.71146 10.9593 9.97314 12.5101 9.97314C14.0609 9.97314 15.3226 8.71146 15.3226 7.16064C15.3226 5.60983 14.0609 4.34814 12.5101 4.34814ZM12.5101 8.56689C11.7347 8.56689 11.1039 7.93605 11.1039 7.16064C11.1039 6.38524 11.7347 5.75439 12.5101 5.75439C13.2855 5.75439 13.9164 6.38524 13.9164 7.16064C13.9164 7.93605 13.2855 8.56689 12.5101 8.56689Z" fill="#00A8FF"/>
<path d="M8.99451 23.2422C7.44369 23.2422 6.18201 24.5039 6.18201 26.0547C6.18201 27.6055 7.44369 28.8672 8.99451 28.8672C10.5453 28.8672 11.807 27.6055 11.807 26.0547C11.807 24.5039 10.5453 23.2422 8.99451 23.2422ZM8.99451 27.4609C8.2191 27.4609 7.58826 26.8301 7.58826 26.0547C7.58826 25.2793 8.2191 24.6484 8.99451 24.6484C9.76991 24.6484 10.4008 25.2793 10.4008 26.0547C10.4008 26.8301 9.76991 27.4609 8.99451 27.4609Z" fill="#00A8FF"/>
<path d="M16.0258 27.4609C14.4749 27.4609 13.2133 28.7226 13.2133 30.2734C13.2133 31.8243 14.4749 33.0859 16.0258 33.0859C17.5766 33.0859 18.8383 31.8243 18.8383 30.2734C18.8383 28.7226 17.5766 27.4609 16.0258 27.4609ZM16.0258 31.6797C15.2504 31.6797 14.6195 31.0488 14.6195 30.2734C14.6195 29.498 15.2504 28.8672 16.0258 28.8672C16.8012 28.8672 17.432 29.498 17.432 30.2734C17.432 31.0488 16.8012 31.6797 16.0258 31.6797Z" fill="#00A8FF"/>
<path d="M24.4633 26.0547C22.9124 26.0547 21.6508 27.3164 21.6508 28.8672C21.6508 30.418 22.9124 31.6797 24.4633 31.6797C26.0141 31.6797 27.2758 30.418 27.2758 28.8672C27.2758 27.3164 26.0141 26.0547 24.4633 26.0547ZM24.4633 30.2734C23.6879 30.2734 23.057 29.6426 23.057 28.8672C23.057 28.0918 23.6879 27.4609 24.4633 27.4609C25.2387 27.4609 25.8695 28.0918 25.8695 28.8672C25.8695 29.6426 25.2387 30.2734 24.4633 30.2734Z" fill="#00A8FF"/>
<path d="M30.0883 19.0234C28.5374 19.0234 27.2758 20.2851 27.2758 21.8359C27.2758 23.3868 28.5374 24.6484 30.0883 24.6484C31.6391 24.6484 32.9008 23.3868 32.9008 21.8359C32.9008 20.2851 31.6391 19.0234 30.0883 19.0234ZM30.0883 23.2422C29.3128 23.2422 28.682 22.6113 28.682 21.8359C28.682 21.0605 29.3128 20.4297 30.0883 20.4297C30.8637 20.4297 31.4945 21.0605 31.4945 21.8359C31.4945 22.6113 30.8637 23.2422 30.0883 23.2422Z" fill="#00A8FF"/>
</svg>
