<svg width="30" height="36" viewBox="0 0 30 36" fill="none" xmlns="http://www.w3.org/2000/svg">
<path d="M29.2417 27.6845C28.7451 27.0643 28.0072 26.6275 27.0926 26.3856C28.4409 22.808 27.6477 17.1285 24.8019 10.3965C23.8146 8.46984 19.7082 7.83317 17.9852 7.6489C17.744 7.62341 17.4968 7.60248 17.2496 7.58226V5.99191H22.4497C22.7337 5.99205 22.9933 5.83166 23.1202 5.57765C24.0625 3.69299 23.1688 1.02025 21.285 0.0786539C21.1809 0.026827 21.0663 -0.000139907 20.9501 5.45839e-07H8.96489C8.84922 0.000140998 8.7351 0.0270376 8.63152 0.0786539C6.77383 1.00676 6.15204 3.66974 6.7588 5.47954C6.86063 5.78531 7.14666 5.9917 7.46893 5.99191H12.7514V7.58071C9.61279 7.83465 6.70262 8.65637 5.38419 10.2624C5.33882 10.3183 5.30174 10.3803 5.27408 10.4467C2.28089 17.5352 1.52428 22.844 3.01349 26.2402C1.68839 26.4702 0.977494 27.2417 0.637389 27.7691C-0.268249 29.1722 -0.168597 31.1992 0.890555 32.9333C2.2172 35.1056 4.69738 36.2367 7.469 35.9536H22.4027C22.6632 35.9845 22.9254 36.0001 23.1877 36C26.7084 36 29.5946 33.2112 29.9444 30.4179C30.0755 29.3677 29.8305 28.4216 29.2417 27.6845ZM8.05855 4.49371C7.90875 3.39558 8.28854 2.04422 9.15892 1.49736H20.7569C21.6701 2.05917 22.1854 3.43448 21.9277 4.49371H8.05855ZM15.7493 5.99191V7.5043C15.2527 7.49082 14.7523 7.4878 14.2512 7.50058V5.99191H15.7493ZM17.8243 9.13805C20.9322 9.47141 22.7592 10.2287 23.3098 10.8557L16.9374 17.2281H13.0631L6.7956 10.9591C8.6488 9.20694 13.7478 8.69984 17.8243 9.13805ZM21.121 28.047C19.0341 27.5759 17.0408 27.3294 15.0534 27.3294C13.0309 27.3294 10.9979 27.587 8.8698 28.0785L13.2302 18.7262H16.7711L21.121 28.047ZM6.76034 34.4966C3.95502 34.5446 2.62318 32.9011 2.16621 32.1535C1.41711 30.9265 1.307 29.492 1.89353 28.5834C2.28377 27.9781 2.96995 27.689 3.86885 27.6935C4.60222 28.6208 5.58125 29.3107 6.76027 29.7377V34.4966H6.76034ZM7.12819 28.259C5.92219 27.7856 5.01501 26.9856 4.46219 25.832C3.14454 23.0941 3.71386 18.4603 6.1019 12.3823L11.8526 18.136L7.12819 28.259ZM21.7404 34.4577H8.25701V29.7677C12.9455 28.5482 17.0587 28.5407 21.7404 29.743V34.4577ZM22.9465 28.4163L18.1449 18.136L23.9645 12.3164C26.4986 18.8169 26.9451 24.232 25.1345 26.9609H25.1353C24.5645 27.8216 23.8117 28.3167 22.9465 28.4163ZM28.459 30.2336C28.2215 32.128 26.1586 34.4913 23.2417 34.5033V29.8905C24.4934 29.71 25.5938 28.9819 26.3878 27.7894C26.3923 27.7818 26.396 27.7736 26.4013 27.7661C27.1586 27.9069 27.7286 28.1878 28.0763 28.6208C28.492 29.1444 28.513 29.7872 28.4575 30.2329L28.459 30.2336Z" fill="#00A8FF"/>
</svg>
