<svg width="65" height="64" viewBox="0 0 65 64" fill="none" xmlns="http://www.w3.org/2000/svg">
<path d="M64.1026 27.8081V36.2915C64.1026 38.8534 62.2266 41.0247 59.9575 41.0247H41.0239V59.8592C41.0239 62.1291 38.9544 64 36.2913 64H27.8114C25.1482 64 23.075 62.1291 23.075 59.8592V41.0247H4.1419C1.87607 41.0247 0 38.8534 0 36.2915V27.8081C0 25.1482 1.87607 22.9772 4.1419 22.9772H23.075V4.1419C23.075 1.87284 25.1482 0 27.8114 0H36.2913C38.9544 0 41.0239 1.87284 41.0239 4.1419V22.9772H59.9575C62.2266 22.9772 64.1026 25.1482 64.1026 27.8081Z" fill="#ED1281"/>
</svg>
