<svg width="97" height="97" viewBox="0 0 97 97" fill="none" xmlns="http://www.w3.org/2000/svg">
<path d="M48.4999 87.3C69.9286 87.3 87.2999 69.9287 87.2999 48.5C87.2999 27.0714 69.9286 9.70001 48.4999 9.70001C27.0713 9.70001 9.69995 27.0714 9.69995 48.5C9.69995 69.9287 27.0713 87.3 48.4999 87.3Z" fill="#579733"/>
<path d="M48.5001 96.3533C74.9287 96.3533 96.3534 74.9287 96.3534 48.5C96.3534 22.0713 74.9287 0.646667 48.5001 0.646667C22.0714 0.646667 0.646729 22.0713 0.646729 48.5C0.646729 74.9287 22.0714 96.3533 48.5001 96.3533Z" stroke="#579733" stroke-miterlimit="10"/>
<path d="M51.7979 45.2925C53.1171 46.6117 54.0871 48.1767 54.4105 49.47C54.5786 50.1425 55.1864 50.6081 55.859 50.6081C55.9754 50.6081 56.0918 50.5952 56.2211 50.5693C57.023 50.3753 57.5015 49.5735 57.3075 48.7716C56.8549 46.9351 55.6133 44.9045 53.9061 43.1973C52.1989 41.4901 50.1683 40.2485 48.3318 39.7959C47.5299 39.6019 46.728 40.0933 46.534 40.8823C46.34 41.6841 46.8315 42.486 47.6205 42.68C48.9267 43.0033 50.4787 43.9863 51.7979 45.2925Z" fill="white"/>
<path d="M64.4211 32.6825C60.7997 29.0612 56.3377 26.4616 51.8757 25.3623C51.0739 25.1683 50.272 25.6597 50.078 26.4487C49.884 27.2505 50.3755 28.0524 51.1644 28.2464C55.1091 29.2164 59.0667 31.5315 62.3129 34.7777C65.5592 38.024 67.8872 41.9816 68.8443 45.9263C69.0124 46.5988 69.6202 47.0644 70.2928 47.0644C70.4092 47.0644 70.5256 47.0515 70.6549 47.0256C71.4568 46.8316 71.9353 46.0297 71.7413 45.2279C70.642 40.7659 68.0424 36.3039 64.4211 32.6825Z" fill="white"/>
<path d="M59.1571 37.9335C56.4799 35.2563 53.2595 33.3551 50.1038 32.5791C49.3019 32.3851 48.5 32.8765 48.306 33.6655C48.112 34.4673 48.6035 35.2692 49.3924 35.4632C52.0308 36.1099 54.7598 37.7395 57.049 40.0416C59.3511 42.3437 60.9807 45.0597 61.6274 47.7111C61.7955 48.3836 62.4034 48.8492 63.0759 48.8492C63.1923 48.8492 63.3087 48.8363 63.438 48.8104C64.2399 48.6164 64.7184 47.8145 64.5244 47.0127C63.7355 43.8311 61.8343 40.6236 59.1571 37.9335Z" fill="white"/>
<path d="M40.947 40.6753C42.1369 38.5155 41.7489 35.7736 40.0029 34.0276L35.8772 29.9019C34.8166 28.8413 33.4198 28.2593 31.9196 28.2593C30.4193 28.2593 29.0225 28.8413 27.962 29.9019L27.186 30.6779C26.7333 31.1305 26.3712 31.6349 26.1254 32.1652C21.7669 41.3608 25.0132 54.0743 34.0277 63.0759C40.3521 69.4132 48.513 72.8923 56.0014 72.8923C59.1701 72.8923 62.2094 72.2715 64.9384 70.9781C65.4686 70.7195 65.973 70.3703 66.4257 69.9047L67.2017 69.1287C69.3874 66.9429 69.3874 63.3992 67.2017 61.2135L63.076 57.0877C61.33 55.3417 58.601 54.9537 56.4282 56.1436L50.2202 59.5451C49.4313 59.9719 48.4742 59.9848 47.7241 59.558C45.6289 58.394 43.6889 56.9067 41.9429 55.1607C40.1969 53.4147 38.7225 51.4747 37.5456 49.3795C37.1188 48.6164 37.1317 47.6593 37.5585 46.8833L40.947 40.6753ZM34.933 50.828C36.2393 53.1689 37.8818 55.3288 39.8218 57.2688C41.7618 59.2088 43.9217 60.8513 46.2626 62.1576C47.931 63.0888 49.9486 63.0888 51.6429 62.1576L57.8509 58.7561C58.8597 58.2 60.153 58.3811 60.9678 59.1959L65.0936 63.3216C66.1153 64.3433 66.1153 66.0117 65.0936 67.0335L64.3176 67.8095C64.1106 68.0164 63.8778 68.1845 63.658 68.288C55.5746 72.1163 44.258 69.1157 36.1229 60.9807C27.9878 52.8456 24.9744 41.516 28.8156 33.4456C28.919 33.2128 29.0872 32.9929 29.2941 32.786L30.0701 32.01C30.5616 31.5185 31.2212 31.2469 31.9196 31.2469C32.618 31.2469 33.2776 31.5185 33.769 32.01L37.8948 36.1357C38.7096 36.9505 38.8906 38.2309 38.3345 39.2527L34.933 45.4607C34.0018 47.1549 34.0018 49.1596 34.933 50.828Z" fill="white"/>
</svg>
