<svg width="30" height="30" viewBox="0 0 30 30" fill="none" xmlns="http://www.w3.org/2000/svg">
<path d="M17.5299 17.1561C15.691 19.0216 13.4659 20.4618 11.0111 21.3757L7.68998 18.733C7.59152 18.6651 7.47478 18.6288 7.35523 18.6288C7.23568 18.6288 7.11894 18.6651 7.02048 18.733L0.854029 22.7059C0.619926 22.8467 0.421757 23.0399 0.275171 23.2704C0.128588 23.5009 0.0376053 23.7623 0.00940895 24.034C-0.0187855 24.3057 0.0165825 24.5802 0.112715 24.8359C0.208847 25.0916 0.363113 25.3214 0.563328 25.5072L3.45275 28.3614C3.86654 28.7703 4.37512 29.0703 4.9331 29.2348C5.49108 29.3993 6.08109 29.4231 6.65049 29.304C12.3305 28.1309 17.5659 25.3835 21.7583 21.3757C25.8577 17.3281 28.6944 12.1779 29.9244 6.54982C30.0459 5.98923 30.0206 5.40677 29.8508 4.85886C29.681 4.31096 29.3726 3.81621 28.9554 3.42254L25.9603 0.533123C25.7749 0.342657 25.5489 0.196589 25.2991 0.105857C25.0493 0.0151247 24.7822 -0.017921 24.5179 0.00919454C24.2535 0.0363101 23.9987 0.122884 23.7725 0.262434C23.5463 0.401984 23.3546 0.590894 23.2118 0.815018L19.1067 6.90218C19.0359 6.99777 18.9977 7.11357 18.9977 7.23253C18.9977 7.35148 19.0359 7.46729 19.1067 7.56287L21.8111 10.8135C20.8725 13.2192 19.41 15.3858 17.5299 17.1561Z" fill="#FF7B00"/>
</svg>
