<svg width="24" height="22" viewBox="0 0 24 22" fill="none" xmlns="http://www.w3.org/2000/svg">
<path d="M22.2232 0.00220727C21.9268 0.0237714 21.6359 0.0933067 21.3618 0.208101H21.3581C21.095 0.312432 19.8439 0.838707 17.9419 1.63643L11.1262 4.50693C6.23555 6.56587 1.42799 8.59341 1.42799 8.59341L1.48523 8.57125C1.48523 8.57125 1.15377 8.6802 0.807537 8.91749C0.593636 9.0536 0.409575 9.23169 0.266489 9.44099C0.0966041 9.69028 -0.0400426 10.0716 0.0107383 10.4658C0.0938343 11.1325 0.525933 11.5322 0.836159 11.7529C1.15008 11.9763 1.44922 12.0807 1.44922 12.0807H1.45661L5.96503 13.5995C6.16723 14.2486 7.33888 18.1005 7.62049 18.9878C7.78668 19.5178 7.94825 19.8492 8.15045 20.1022C8.24832 20.2315 8.36281 20.3395 8.50038 20.4263C8.5719 20.4679 8.64816 20.5007 8.72751 20.5242L8.68135 20.5131C8.6952 20.5168 8.70627 20.5278 8.71643 20.5315C8.75336 20.5417 8.77829 20.5454 8.82538 20.5528C9.53908 20.7688 10.1124 20.3256 10.1124 20.3256L10.1448 20.2998L12.8066 17.8762L17.2679 21.2988L17.3695 21.3422C18.2992 21.7503 19.241 21.5232 19.7387 21.1224C20.24 20.719 20.4348 20.2029 20.4348 20.2029L20.4671 20.1198L23.9147 2.45816C24.0126 2.02236 24.0375 1.61427 23.9295 1.21818C23.818 0.81731 23.5609 0.472537 23.2084 0.251495C22.9124 0.07156 22.5692 -0.0152904 22.2232 0.00220727ZM22.13 1.89495C22.1263 1.95312 22.1374 1.94665 22.1115 2.05837V2.06853L18.6963 19.5464C18.6815 19.5713 18.6566 19.6258 18.5882 19.6803C18.5162 19.7375 18.459 19.7735 18.1589 19.6544L12.7023 15.471L9.40613 18.4754L10.0986 14.0528L19.0139 5.74322C19.3813 5.4016 19.2585 5.32959 19.2585 5.32959C19.2844 4.91041 18.7036 5.20679 18.7036 5.20679L7.46168 12.1712L7.45799 12.1527L2.06967 10.3384V10.3347L2.05582 10.332C2.06527 10.3288 2.07452 10.3251 2.08352 10.3209L2.11307 10.3061L2.14169 10.296C2.14169 10.296 6.95295 8.26841 11.8436 6.20948C14.2922 5.17817 16.7592 4.13947 18.6566 3.33805C20.5539 2.54125 21.9564 1.95681 22.0358 1.92542C22.1115 1.89587 22.0755 1.89495 22.13 1.89495Z" fill="#55A4D0"/>
</svg>
