<svg width="40" height="40" viewBox="0 0 40 40" fill="none" xmlns="http://www.w3.org/2000/svg">
<path d="M20 40C31.0457 40 40 31.0457 40 20C40 8.9543 31.0457 0 20 0C8.9543 0 0 8.9543 0 20C0 31.0457 8.9543 40 20 40Z" fill="#7AA5DA"/>
<path d="M39.9941 19.5373L31.1159 10.6738L16.6543 28.3012L27.0671 38.714C34.6248 35.8584 40 28.5574 40 20C40 19.8452 39.9976 19.691 39.9941 19.5373Z" fill="#5786B5"/>
<path d="M29.9777 10.4312C30.7751 10.1201 31.5993 10.8178 31.4242 11.6555L27.8484 28.7477C27.6814 29.5491 26.74 29.91 26.0801 29.4251L20.6821 25.4629L17.9306 28.2723C17.4471 28.7653 16.6134 28.5646 16.406 27.9073L14.4209 21.6056L9.0996 20.0339C8.40062 19.8278 8.36022 18.8555 9.03765 18.5901L29.9777 10.4312ZM27.3528 14.2238C27.5858 14.0177 27.3151 13.6541 27.0511 13.8184L15.5655 20.9416C15.3635 21.0669 15.2706 21.3134 15.3419 21.5409L16.9083 28.4191C16.9393 28.5241 17.0901 28.5093 17.1036 28.4002L17.4537 23.1585C17.4672 23.0292 17.5291 22.9107 17.6262 22.8245L27.3528 14.2238Z" fill="white"/>
<path d="M27.0513 13.8184C27.3153 13.6541 27.586 14.0177 27.353 14.2238L17.6264 22.8245C17.5295 22.9107 17.4675 23.0292 17.454 23.1585L17.1039 28.4002C17.0904 28.5093 16.9396 28.5241 16.9086 28.4191L15.3422 21.5409C15.2708 21.3134 15.3638 21.0669 15.5658 20.9416L27.0513 13.8184Z" fill="#9EC2E5"/>
<path d="M16.9649 28.4905C16.7117 28.4003 16.4976 28.1982 16.406 27.9073L14.4208 21.6056L9.0996 20.0338C8.40062 19.8278 8.36022 18.8554 9.03765 18.5901L29.9776 10.4313C30.4921 10.2306 31.0187 10.4501 31.2787 10.8569C31.2301 10.7828 31.1723 10.7142 31.1076 10.6535L16.9016 22.2508V22.7585L16.8234 22.702L16.9016 25.8993V28.4636C16.9218 28.4731 16.9433 28.4811 16.9648 28.4878V28.4905H16.9649Z" fill="white"/>
<path d="M31.4468 11.3686C31.4509 11.4601 31.4442 11.5571 31.4239 11.6555L27.8482 28.7477C27.6811 29.5491 26.7397 29.91 26.0798 29.4251L20.6818 25.4629L16.9014 22.7585V22.2508L31.1074 10.6534C31.1721 10.7141 31.23 10.7827 31.2785 10.8568C31.2879 10.873 31.2973 10.8877 31.3067 10.9026C31.3148 10.9187 31.3242 10.9349 31.3324 10.9497C31.3404 10.9658 31.3485 10.982 31.3553 10.9982C31.3633 11.0157 31.3701 11.0319 31.3768 11.0494C31.3822 11.0642 31.3889 11.0803 31.3943 11.0979C31.4118 11.1504 31.4253 11.2043 31.4347 11.2608C31.4401 11.2958 31.4442 11.3309 31.4468 11.3686Z" fill="#D1D1D1"/>
<path d="M20.6818 25.4629L17.9303 28.2723C17.9074 28.2952 17.8832 28.3181 17.8589 28.3384C17.8346 28.3586 17.8104 28.3761 17.7848 28.3936C17.7835 28.3949 17.7835 28.3949 17.7835 28.3949C17.7323 28.4286 17.6798 28.4569 17.6246 28.4798C17.5963 28.4905 17.5693 28.5013 17.5411 28.508C17.4239 28.543 17.304 28.5525 17.1855 28.5404C17.1546 28.5377 17.1236 28.5323 17.0939 28.5269C17.0899 28.5269 17.0859 28.5256 17.0818 28.5243C17.0522 28.5162 17.0225 28.5081 16.9929 28.4987C16.9835 28.496 16.9741 28.4933 16.9646 28.4879L16.9014 25.8994V22.7586L20.6818 25.4629Z" fill="#D1D1D1"/>
<path d="M17.8602 28.3383C17.836 28.3585 17.8117 28.3774 17.7861 28.3949V28.3935C17.8118 28.376 17.836 28.3585 17.8602 28.3383Z" fill="#DADDE0"/>
<path d="M17.7858 28.3935V28.3952C17.7858 28.3952 17.7858 28.3935 17.7842 28.3952C17.7842 28.3952 17.7842 28.3952 17.7858 28.3935Z" fill="#DADDE0"/>
<path d="M17.626 28.4798C17.6812 28.4569 17.7337 28.4286 17.7849 28.3949C17.7337 28.4285 17.6798 28.4568 17.626 28.4798Z" fill="#DADDE0"/>
<path d="M17.1865 28.5403C17.305 28.5524 17.4249 28.543 17.5421 28.508C17.4572 28.5349 17.3696 28.5471 17.2821 28.5471C17.2552 28.5471 17.2282 28.5457 17.2027 28.543C17.1973 28.5431 17.1919 28.5431 17.1865 28.5403Z" fill="#DADDE0"/>
<path d="M17.2816 28.547C17.2546 28.547 17.2277 28.5457 17.2021 28.5429C17.2277 28.5457 17.2546 28.547 17.2816 28.547Z" fill="white"/>
<path d="M17.1857 28.5403C17.1911 28.5429 17.1965 28.5429 17.2019 28.5429C17.1736 28.5416 17.148 28.5376 17.1211 28.5322C17.1426 28.5363 17.1641 28.539 17.1857 28.5403Z" fill="white"/>
<path d="M17.1853 28.5403C17.1637 28.539 17.1422 28.5363 17.1207 28.5323C17.1113 28.531 17.1019 28.5296 17.0938 28.5269C17.1234 28.5323 17.1543 28.5377 17.1853 28.5403Z" fill="#DADDE0"/>
<path d="M16.9932 28.4986C17.0228 28.5081 17.0525 28.5161 17.0821 28.5242C17.07 28.5216 17.0579 28.5188 17.0457 28.5162C17.0404 28.5149 17.035 28.5135 17.0309 28.5108C17.0187 28.5081 17.0053 28.504 16.9932 28.4986Z" fill="#DADDE0"/>
<path d="M17.0459 28.5161C17.058 28.5187 17.0701 28.5215 17.0822 28.5241C17.0701 28.5228 17.058 28.5201 17.0459 28.5161Z" fill="white"/>
<path d="M16.9936 28.4986C17.0057 28.504 17.0192 28.508 17.0313 28.5107C17.0111 28.5066 16.9909 28.4999 16.9707 28.4919C16.9787 28.4945 16.9855 28.4972 16.9936 28.4986Z" fill="white"/>
<path d="M16.9931 28.4986C16.9851 28.4972 16.9783 28.4945 16.9702 28.4918C16.9689 28.4932 16.9662 28.4918 16.9648 28.4905V28.4879C16.9742 28.4932 16.9837 28.4958 16.9931 28.4986Z" fill="#DADDE0"/>
<path d="M16.9014 25.8993L16.9646 28.4878C16.9431 28.4811 16.9215 28.473 16.9014 28.4636V25.8993Z" fill="#D1D1D1"/>
<path d="M16.9014 22.7585V25.8993L16.8232 22.702L16.9014 22.7585Z" fill="#DADDE0"/>
<path d="M27.353 14.2238L17.6264 22.8245C17.5295 22.9107 17.4675 23.0292 17.454 23.1585L17.1045 28.4007C17.0911 28.5098 16.9402 28.5246 16.9078 28.4196L15.3422 21.541C15.2708 21.3135 15.3638 21.067 15.5658 20.9417L27.0514 13.8185C27.3153 13.6542 27.5861 14.0178 27.353 14.2238Z" fill="#ADBCC9"/>
</svg>
