<svg width="40" height="40" viewBox="0 0 40 40" fill="none" xmlns="http://www.w3.org/2000/svg">
<path d="M20 40C31.0457 40 40 31.0457 40 20C40 8.9543 31.0457 0 20 0C8.9543 0 0 8.9543 0 20C0 31.0457 8.9543 40 20 40Z" fill="#6F3FAA"/>
<path d="M28.6765 10.9721C23.8083 9.79632 18.9315 8.42101 13.9392 10.1684C10.7068 11.3805 10.7068 14.8822 10.8415 17.8452C10.8415 18.6532 9.8988 19.7307 10.3028 20.6734C11.1108 23.367 11.7843 26.0606 14.6126 27.4074C15.0166 27.6768 14.6126 28.2155 14.8819 28.6195C14.7472 28.6195 14.4779 28.7542 14.4779 28.8889C14.4779 29.5345 14.7676 30.5219 14.5751 31.1584L23.1693 39.7491C32.0045 38.342 38.9098 31.15 39.8814 22.1771L28.6765 10.9721Z" fill="#512D84"/>
<path d="M30.5805 14.0566L30.5739 14.0302C30.0396 11.8698 27.6304 9.55164 25.4179 9.06937L25.3929 9.06422C21.8143 8.38156 18.1858 8.38156 14.608 9.06422L14.5823 9.06937C12.3706 9.55164 9.96129 11.8699 9.42621 14.0302L9.42027 14.0566C8.75965 17.0735 8.75965 20.1332 9.42027 23.1502L9.42621 23.1766C9.93856 25.2447 12.1683 27.4564 14.2982 28.0646V30.4762C14.2982 31.3491 15.3619 31.7777 15.9668 31.1478L18.4101 28.608C18.9401 28.6377 19.4704 28.6542 20.0004 28.6542C21.8018 28.6542 23.6039 28.4838 25.3929 28.1426L25.4178 28.1374C27.6303 27.6551 30.0395 25.3369 30.5739 23.1766L30.5804 23.1502C31.2411 20.1332 31.2411 17.0737 30.5805 14.0566ZM28.6468 22.7127C28.29 24.1222 26.4608 25.8744 25.0074 26.1981C23.1046 26.56 21.1868 26.7146 19.2708 26.6616C19.2327 26.6605 19.1961 26.6753 19.1696 26.7027C18.8976 26.9817 17.3856 28.5341 17.3856 28.5341L15.4881 30.4816C15.3493 30.6262 15.1056 30.5277 15.1056 30.3281V26.3331C15.1056 26.2671 15.0585 26.2111 14.9936 26.1983C14.9932 26.1981 14.9929 26.1981 14.9925 26.198C13.5391 25.8743 11.7105 24.1221 11.3531 22.7127C10.7585 19.9856 10.7585 17.2211 11.3531 14.4941C11.7105 13.0846 13.5391 11.3324 14.9925 11.0087C18.3157 10.3766 21.685 10.3766 25.0075 11.0087C26.4616 11.3324 28.2901 13.0846 28.6469 14.4941C29.2421 17.2212 29.2421 19.9857 28.6468 22.7127Z" fill="white"/>
<path d="M23.1615 24.5568C22.9381 24.4889 22.7252 24.4433 22.5273 24.3614C20.478 23.5111 18.5921 22.4143 17.0982 20.7329C16.2487 19.7768 15.5838 18.6974 15.0218 17.555C14.7552 17.0133 14.5306 16.4504 14.3016 15.8911C14.0929 15.3811 14.4003 14.8542 14.7241 14.4698C15.0279 14.1091 15.4189 13.8332 15.8424 13.6297C16.1729 13.4709 16.4988 13.5625 16.7402 13.8425C17.2619 14.4482 17.7413 15.0847 18.1293 15.7868C18.3679 16.2186 18.3025 16.7464 17.8699 17.0402C17.7647 17.1116 17.6689 17.1955 17.5711 17.2761C17.4851 17.3468 17.4043 17.4182 17.3454 17.514C17.2379 17.689 17.2327 17.8957 17.3019 18.0861C17.8353 19.5518 18.7343 20.6916 20.2096 21.3056C20.4457 21.4038 20.6828 21.5181 20.9548 21.4865C21.4103 21.4332 21.5578 20.9336 21.877 20.6725C22.1889 20.4175 22.5877 20.4141 22.9237 20.6268C23.2599 20.8396 23.5857 21.0679 23.9096 21.2987C24.2275 21.5253 24.544 21.7468 24.8372 22.0051C25.1193 22.2535 25.2164 22.5793 25.0575 22.9162C24.7669 23.5335 24.3439 24.0468 23.7338 24.3747C23.5615 24.467 23.3557 24.4969 23.1615 24.5568C22.9381 24.4889 23.3557 24.4969 23.1615 24.5568Z" fill="white"/>
<path d="M20.0055 12.9239C22.6859 12.9991 24.8876 14.7779 25.3594 17.4279C25.4397 17.8795 25.4683 18.341 25.5041 18.7994C25.5192 18.9921 25.41 19.1752 25.202 19.1778C24.9872 19.1804 24.8905 19.0006 24.8765 18.808C24.8489 18.4266 24.8297 18.0434 24.7772 17.6652C24.4997 15.6684 22.9076 14.0165 20.92 13.662C20.6209 13.6087 20.315 13.5947 20.0119 13.5629C19.8204 13.5428 19.5697 13.5313 19.5272 13.2931C19.4917 13.0935 19.6601 12.9346 19.8502 12.9244C19.9017 12.9213 19.9536 12.9238 20.0055 12.9239C22.6861 12.9991 19.9536 12.9238 20.0055 12.9239Z" fill="white"/>
<path d="M24.079 18.2046C24.0746 18.2381 24.0723 18.3168 24.0526 18.3909C23.9815 18.6599 23.5734 18.6936 23.4796 18.4221C23.4517 18.3416 23.4475 18.2498 23.4474 18.1631C23.4465 17.5955 23.3231 17.0283 23.0368 16.5343C22.7425 16.0266 22.2928 15.5999 21.7655 15.3416C21.4466 15.1855 21.1018 15.0884 20.7523 15.0306C20.5996 15.0053 20.4452 14.9901 20.2917 14.9687C20.1057 14.9428 20.0063 14.8243 20.0152 14.641C20.0234 14.4693 20.1489 14.3456 20.3361 14.3563C20.9512 14.3912 21.5454 14.5243 22.0924 14.8138C23.2044 15.4028 23.8397 16.3323 24.0252 17.5737C24.0336 17.63 24.047 17.6856 24.0513 17.742C24.0618 17.8812 24.0684 18.0207 24.079 18.2046C24.0746 18.238 24.0684 18.0207 24.079 18.2046Z" fill="white"/>
<path d="M22.4118 18.1397C22.1876 18.1437 22.0676 18.0195 22.0444 17.8141C22.0284 17.6708 22.0156 17.5255 21.9814 17.3859C21.914 17.1112 21.768 16.8566 21.5369 16.6883C21.4279 16.6088 21.3042 16.5509 21.1747 16.5134C21.0103 16.4659 20.8393 16.479 20.6753 16.4388C20.4971 16.3952 20.3986 16.2508 20.4266 16.0837C20.4521 15.9315 20.6 15.8127 20.7664 15.8248C21.8056 15.8998 22.5483 16.4371 22.6543 17.6605C22.6619 17.7469 22.6707 17.838 22.6515 17.9208C22.6186 18.0619 22.5139 18.1328 22.4118 18.1397C22.1875 18.1437 22.5139 18.1328 22.4118 18.1397Z" fill="white"/>
<path d="M30.5806 14.0566L30.5741 14.0302C30.2745 12.8192 29.3856 11.5587 28.2727 10.5996L26.768 11.9331C27.6627 12.646 28.4293 13.6335 28.6471 14.494C29.2424 17.2211 29.2424 19.9856 28.6471 22.7127C28.2903 24.1222 26.461 25.8744 25.0077 26.1981C23.1049 26.56 21.187 26.7146 19.2711 26.6616C19.233 26.6605 19.1963 26.6753 19.1698 26.7027C18.8979 26.9817 17.3859 28.5341 17.3859 28.5341L15.4884 30.4816C15.3496 30.6263 15.1059 30.5279 15.1059 30.3281V26.3331C15.1059 26.2671 15.0588 26.2111 14.9939 26.1983C14.9935 26.1983 14.9932 26.1981 14.9928 26.1981C14.1668 26.0142 13.22 25.3686 12.4906 24.5871L11.0039 25.9045C11.9324 26.9146 13.13 27.7312 14.2983 28.0648V30.4763C14.2983 31.3492 15.362 31.7779 15.9668 31.148L18.4102 28.6082C18.9402 28.6378 19.4702 28.6544 20.0005 28.6544C21.8018 28.6544 23.604 28.484 25.3929 28.1427L25.4178 28.1377C27.6303 27.6554 30.0395 25.3373 30.5739 23.1769L30.5805 23.1505C31.2412 20.1332 31.2412 17.0737 30.5806 14.0566Z" fill="#D1D1D1"/>
<path d="M23.1615 24.5568C23.3557 24.497 22.938 24.4889 23.1615 24.5568V24.5568Z" fill="white"/>
<path d="M24.8372 22.005C24.544 21.7468 24.2274 21.5252 23.9095 21.2986C23.5856 21.0677 23.2599 20.8395 22.9237 20.6266C22.5877 20.414 22.189 20.4173 21.877 20.6724C21.5577 20.9334 21.4103 21.4331 20.9548 21.4863C20.6828 21.518 20.4457 21.4036 20.2096 21.3055C19.3019 20.9278 18.6131 20.3503 18.0926 19.6212L16.9863 20.6016C17.0239 20.6452 17.0598 20.6898 17.098 20.7328C18.5919 22.4141 20.4779 23.511 22.527 24.3612C22.7248 24.4433 22.9378 24.4889 23.1613 24.5566C22.9378 24.4887 23.3556 24.4969 23.1613 24.5566C23.3556 24.4969 23.5613 24.4668 23.7337 24.3745C24.3439 24.0466 24.7668 23.5332 25.0574 22.916C25.2163 22.5791 25.1192 22.2534 24.8372 22.005Z" fill="#D1D1D1"/>
<path d="M20.0123 12.9243C20.0101 12.9243 20.0079 12.924 20.0056 12.924C20.0034 12.9239 20.0062 12.924 20.0123 12.9243Z" fill="white"/>
<path d="M20.0059 12.9239C20.0081 12.9239 20.0103 12.9241 20.0126 12.9241C20.1613 12.9294 22.5807 12.9961 20.0059 12.9239Z" fill="white"/>
<path d="M23.8496 14.5185L23.3779 14.9365C24.1191 15.6576 24.6302 16.6133 24.7763 17.6651C24.8288 18.0433 24.8481 18.4264 24.8757 18.8078C24.8897 19.0005 24.9862 19.1803 25.2012 19.1778C25.4093 19.1752 25.5184 18.9922 25.5033 18.7994C25.4675 18.3411 25.439 17.8794 25.3586 17.4279C25.1521 16.2679 24.614 15.2748 23.8496 14.5185Z" fill="#D1D1D1"/>
<path d="M24.0248 17.5733C23.8897 16.6688 23.5145 15.9307 22.8912 15.3683L22.4209 15.7851C22.6641 16.001 22.8745 16.2545 23.0365 16.5341C23.3229 17.0281 23.4462 17.5953 23.4472 18.1629C23.4473 18.2497 23.4514 18.3414 23.4793 18.4221C23.5733 18.6937 23.9813 18.6601 24.0524 18.3908C24.0721 18.3166 24.0743 18.2379 24.0788 18.2046C24.0743 18.2381 24.068 18.0208 24.0788 18.2046C24.068 18.0208 24.0614 17.8812 24.0509 17.7418C24.0468 17.6852 24.0332 17.6296 24.0248 17.5733Z" fill="#D1D1D1"/>
<path d="M24.0791 18.2046C24.0685 18.0207 24.0747 18.238 24.0791 18.2046V18.2046Z" fill="white"/>
<path d="M22.4115 18.1397C22.415 18.1395 22.4184 18.1377 22.4217 18.1373C22.4123 18.1373 22.3977 18.1375 22.3828 18.1381C22.3925 18.1383 22.4013 18.1398 22.4115 18.1397Z" fill="white"/>
<path d="M22.4116 18.1397C22.4015 18.1399 22.3926 18.1384 22.3829 18.1381C22.3344 18.1394 22.2843 18.142 22.4116 18.1397Z" fill="white"/>
<path d="M22.4214 18.1373C22.4178 18.1377 22.4145 18.1395 22.4111 18.1397C22.4374 18.1379 22.4351 18.1373 22.4214 18.1373Z" fill="white"/>
<path d="M21.9387 16.2129L21.46 16.6372C21.4864 16.6533 21.5122 16.67 21.5373 16.6882C21.7684 16.8565 21.9144 17.1111 21.9818 17.3858C22.016 17.5254 22.0286 17.6705 22.0448 17.814C22.0669 18.0103 22.1784 18.131 22.3836 18.138C22.3985 18.1376 22.4132 18.1373 22.4225 18.1372C22.5212 18.1263 22.6202 18.0571 22.6518 17.9205C22.671 17.8379 22.6622 17.7466 22.6547 17.6603C22.5951 16.9763 22.3365 16.507 21.9387 16.2129Z" fill="#D1D1D1"/>
</svg>
