<svg width="40" height="40" viewBox="0 0 40 40" fill="none" xmlns="http://www.w3.org/2000/svg">
<path d="M20 40C31.0457 40 40 31.0457 40 20C40 8.9543 31.0457 0 20 0C8.9543 0 0 8.9543 0 20C0 31.0457 8.9543 40 20 40Z" fill="#75B73B"/>
<path d="M28.1442 11.8614C26.9846 11.5714 25.2793 10.5698 24.1755 10.1683C19.8657 8.82155 14.0745 9.89898 12.4583 14.8822C12.3236 15.0169 12.0542 15.0169 11.9195 15.0169C8.68719 18.7879 10.8421 23.367 10.5727 27.5421C10.4808 29.0139 9.70687 30.3153 8.71094 31.4162L17.0923 39.7888C18.0419 39.9271 19.0125 40 20.0004 40C29.8782 40 38.0826 32.8387 39.7072 23.4249L28.1442 11.8614Z" fill="#52891D"/>
<path d="M19.44 8.47241C13.344 8.76241 8.53345 13.8393 8.55181 19.942C8.55744 21.8008 9.00618 23.5552 9.7979 25.1057L8.58251 31.0052C8.51681 31.3244 8.80462 31.6039 9.12165 31.5287L14.9025 30.1592C16.3877 30.8991 18.0559 31.3263 19.8214 31.3533C26.0521 31.4485 31.2473 26.5013 31.4417 20.2729C31.6497 13.5965 26.1395 8.15327 19.44 8.47241ZM26.3379 26.245C24.645 27.9379 22.3939 28.8703 19.9996 28.8703C18.5977 28.8703 17.2554 28.5557 16.0101 27.9355L15.2052 27.5344L11.6607 28.374L12.4067 24.7524L12.0102 23.9756C11.3637 22.7095 11.0359 21.3406 11.0359 19.9066C11.0359 17.5122 11.9683 15.2613 13.6612 13.5683C15.339 11.8903 17.6267 10.943 19.9998 10.943C22.3938 10.943 24.6449 11.8754 26.3378 13.5683C28.0307 15.2612 28.9631 17.5123 28.9631 19.9063C28.9633 22.2794 28.0158 24.5671 26.3379 26.245Z" fill="white"/>
<path d="M25.5551 22.3892L23.3376 21.7526C23.0462 21.669 22.7322 21.7518 22.5197 21.9682L21.9774 22.5205C21.7488 22.7537 21.4019 22.8284 21.0993 22.706C20.0503 22.2815 17.8436 20.3194 17.2804 19.3383C17.1176 19.0552 17.1446 18.7015 17.3443 18.4429L17.8176 17.8305C18.003 17.5906 18.0421 17.2682 17.9195 16.9908L16.9866 14.8808C16.7632 14.3755 16.1174 14.2283 15.6954 14.5852C15.0766 15.1087 14.3423 15.904 14.2532 16.7852C14.0958 18.3389 14.7622 20.2973 17.2815 22.6489C20.1922 25.3659 22.5232 25.7246 24.0411 25.357C24.9019 25.1487 25.5899 24.3129 26.0238 23.6284C26.32 23.1615 26.0859 22.5418 25.5551 22.3892Z" fill="white"/>
<path d="M27.8126 11.5397L26.0764 13.3192C26.1648 13.4008 26.2527 13.483 26.3382 13.5685C28.0312 15.2614 28.9635 17.5125 28.9635 19.9065C28.9635 22.2796 28.016 24.5672 26.3382 26.2451C24.6453 27.938 22.3942 28.8705 19.9999 28.8705C18.598 28.8705 17.2558 28.5558 16.0104 27.9356L15.2055 27.5345L11.661 28.3741L11.7343 28.0184L8.5957 31.235C8.66492 31.443 8.88516 31.5846 9.1218 31.5286L14.9027 30.159C16.3879 30.899 18.0561 31.3262 19.8216 31.3531C26.0523 31.4483 31.2476 26.5012 31.4419 20.2727C31.5493 16.8248 30.1315 13.7058 27.8126 11.5397Z" fill="#D1D1D1"/>
<path d="M25.5557 22.3892L23.3382 21.7525C23.0469 21.669 22.7328 21.7518 22.5204 21.9682L21.9781 22.5205C21.7495 22.7536 21.4026 22.8284 21.1 22.706C20.494 22.4607 19.5022 21.7025 18.6636 20.9166L17.1221 22.4967C17.175 22.5473 17.2277 22.5979 17.2822 22.6489C20.1929 25.3659 22.5239 25.7246 24.0418 25.357C24.9027 25.1486 25.5907 24.3129 26.0246 23.6284C26.3207 23.1615 26.0866 22.5418 25.5557 22.3892Z" fill="#D1D1D1"/>
</svg>
