<svg width="40" height="40" viewBox="0 0 40 40" fill="none" xmlns="http://www.w3.org/2000/svg">
<g clip-path="url(#clip0)">
<path d="M20.0009 39.9998C31.0466 39.9998 40.0008 31.0456 40.0008 19.9999C40.0008 8.95427 31.0466 0 20.0009 0C8.95525 0 0.000976562 8.95427 0.000976562 19.9999C0.000976562 31.0456 8.95525 39.9998 20.0009 39.9998Z" fill="#4E598F"/>
<path d="M39.9682 18.8827L30.5482 9.45972C30.3921 9.50699 30.0027 9.32581 29.8316 9.36019C25.7912 10.0336 21.8855 9.36019 17.9797 10.4376C16.0942 10.9764 15.9595 13.2659 15.2861 14.7474C14.3434 17.4409 14.4781 20.4039 13.2659 22.9628C12.4579 24.7136 10.5723 25.7911 9.8989 27.8113C9.6743 28.6539 9.68758 29.7159 9.43359 30.5214L18.8851 39.9684C19.2543 39.9887 19.6257 39.9999 19.9999 39.9999C31.0455 39.9999 39.9998 31.0456 39.9998 20C39.9999 19.625 39.9887 19.2526 39.9682 18.8827Z" fill="#364270"/>
<path d="M28.3622 8.55199H11.6369C9.93308 8.55199 8.55176 9.93324 8.55176 11.6371V28.3625C8.55176 30.0664 9.933 31.4476 11.6369 31.4476H19.8856L19.8999 23.2662H17.7741C17.4979 23.2662 17.2737 23.0428 17.2727 22.7665L17.2623 20.1291C17.2613 19.8516 17.4863 19.6257 17.7639 19.6257H19.8859V17.0774C19.8859 14.1203 21.692 12.51 24.33 12.51H26.4948C26.7716 12.51 26.9964 12.7346 26.9964 13.0116V15.2352C26.9964 15.5123 26.7718 15.7368 26.4951 15.7368L25.1665 15.7376C23.7319 15.7376 23.454 16.4192 23.454 17.4198V19.626H26.6064C26.907 19.626 27.14 19.8884 27.1044 20.1864L26.7918 22.8238C26.7621 23.0763 26.5479 23.2664 26.2938 23.2664H23.4682L23.4539 31.4481H28.3621C30.066 31.4481 31.4473 30.0667 31.4473 28.3629V11.6371C31.4474 9.93332 30.066 8.55199 28.3622 8.55199Z" fill="white"/>
<path d="M19.8859 31.4476L19.9002 23.2662H19.8652V31.4476H19.8859Z" fill="white"/>
<path d="M28.3625 8.55199H19.8652V19.6255H19.8863V17.0773C19.8863 14.1201 21.6923 12.5099 24.3303 12.5099H26.4951C26.7719 12.5099 26.9967 12.7344 26.9967 13.0114V15.2351C26.9967 15.5121 26.7722 15.7367 26.4954 15.7367L25.1668 15.7374C23.7322 15.7374 23.4543 16.4191 23.4543 17.4197V19.6258H26.6067C26.9073 19.6258 27.1403 19.8881 27.1047 20.1862L26.7922 22.8236C26.7624 23.0761 26.5482 23.2662 26.2941 23.2662H23.4685L23.4542 31.4478H28.3625C30.0663 31.4478 31.4476 30.0664 31.4476 28.3626V11.6371C31.4477 9.93332 30.0664 8.55199 28.3625 8.55199Z" fill="#D1D1D1"/>
</g>
<defs>
<clipPath id="clip0">
<rect width="40" height="40" fill="white"/>
</clipPath>
</defs>
</svg>
