<svg width="25" height="26" viewBox="0 0 25 26" fill="none" xmlns="http://www.w3.org/2000/svg">
<path d="M16.0319 13.8672C16.173 13.8672 16.7019 14.1059 17.6188 14.5833C18.5357 15.0608 19.0213 15.3483 19.0755 15.446C19.0972 15.5002 19.1081 15.5816 19.1081 15.6901C19.1081 16.0482 19.0158 16.4605 18.8314 16.9271C18.6578 17.3503 18.2726 17.7056 17.6758 17.9932C17.079 18.2807 16.5256 18.4245 16.0156 18.4245C15.3971 18.4245 14.3663 18.0881 12.9232 17.4154C11.8598 16.9271 10.9375 16.2869 10.1562 15.4948C9.375 14.7027 8.57205 13.699 7.7474 12.4837C6.96615 11.3227 6.58095 10.2702 6.5918 9.32617V9.19596C6.62435 8.20855 7.02583 7.35135 7.79622 6.62435C8.05664 6.38563 8.33876 6.26628 8.64258 6.26628C8.70768 6.26628 8.80534 6.27441 8.93555 6.29069C9.06575 6.30697 9.16884 6.3151 9.24479 6.3151C9.45096 6.3151 9.59473 6.35037 9.67611 6.4209C9.75749 6.49143 9.84158 6.64062 9.92839 6.86849C10.0152 7.0855 10.1942 7.56293 10.4655 8.30078C10.7368 9.03863 10.8724 9.44553 10.8724 9.52148C10.8724 9.74935 10.6852 10.0613 10.3109 10.4574C9.93652 10.8534 9.74935 11.1057 9.74935 11.2142C9.74935 11.2901 9.77648 11.3715 9.83073 11.4583C10.1997 12.2504 10.753 12.9937 11.4909 13.6882C12.0985 14.2632 12.9178 14.8112 13.9486 15.332C14.0788 15.408 14.1981 15.446 14.3066 15.446C14.4694 15.446 14.7624 15.1828 15.1855 14.6566C15.6087 14.1303 15.8908 13.8672 16.0319 13.8672ZM12.7279 22.4935C14.1059 22.4935 15.427 22.2222 16.6911 21.6797C17.9552 21.1372 19.043 20.4102 19.9544 19.4987C20.8659 18.5872 21.5929 17.4995 22.1354 16.2354C22.678 14.9712 22.9492 13.6502 22.9492 12.2721C22.9492 10.8941 22.678 9.57303 22.1354 8.30892C21.5929 7.04481 20.8659 5.95703 19.9544 5.04557C19.043 4.13411 17.9552 3.40712 16.6911 2.86458C15.427 2.32205 14.1059 2.05078 12.7279 2.05078C11.3498 2.05078 10.0288 2.32205 8.76465 2.86458C7.50054 3.40712 6.41276 4.13411 5.5013 5.04557C4.58984 5.95703 3.86285 7.04481 3.32031 8.30892C2.77778 9.57303 2.50651 10.8941 2.50651 12.2721C2.50651 14.4748 3.15755 16.4714 4.45964 18.2617L3.17383 22.054L7.11263 20.8008C8.82704 21.9293 10.6988 22.4935 12.7279 22.4935ZM12.7279 0C14.388 0 15.9749 0.325521 17.4886 0.976562C19.0023 1.6276 20.3071 2.50109 21.403 3.59701C22.4989 4.69293 23.3724 5.99772 24.0234 7.51139C24.6745 9.02507 25 10.612 25 12.2721C25 13.9323 24.6745 15.5192 24.0234 17.0329C23.3724 18.5466 22.4989 19.8513 21.403 20.9473C20.3071 22.0432 19.0023 22.9167 17.4886 23.5677C15.9749 24.2188 14.388 24.5443 12.7279 24.5443C10.612 24.5443 8.63173 24.0343 6.78711 23.0143L0 25.1953L2.21354 18.6035C1.04167 16.6721 0.455729 14.5616 0.455729 12.2721C0.455729 10.612 0.78125 9.02507 1.43229 7.51139C2.08333 5.99772 2.95681 4.69293 4.05273 3.59701C5.14865 2.50109 6.45345 1.6276 7.96712 0.976562C9.48079 0.325521 11.0677 0 12.7279 0Z" fill="#4ABB40"/>
</svg>
