<svg width="25" height="27" viewBox="0 0 25 27" fill="none" xmlns="http://www.w3.org/2000/svg">
<path d="M22.1807 2.56721C21.5269 1.96483 18.8805 0.044396 12.9802 0.0186529C12.9802 0.0186529 6.0244 -0.398384 2.63662 2.71137C0.752231 4.59576 0.0880608 7.36056 0.0159804 10.7844C-0.0561001 14.2082 -0.143627 20.6234 6.03985 22.3636H6.045L6.03985 25.0203C6.03985 25.0203 5.99866 26.0963 6.70917 26.3126C7.56384 26.5803 8.0684 25.7617 8.88703 24.8813C9.33496 24.3973 9.95279 23.6868 10.4213 23.1462C14.6535 23.5014 17.9022 22.688 18.2729 22.5695C19.1276 22.2915 23.9621 21.6737 24.7447 15.2585C25.5582 8.63742 24.3534 4.45675 22.1807 2.56721ZM22.8964 14.7746C22.2322 20.1291 18.3141 20.4689 17.5933 20.7006C17.2844 20.7984 14.4269 21.5089 10.8384 21.2772C10.8384 21.2772 7.84442 24.286 7.01035 25.1252C8.78147 23.9636 6.78125 20.6388 6.78125 20.6388C6.7761 20.6388 6.7761 20.6388 6.78125 20.6388C1.53997 19.1869 1.84888 13.7242 1.90552 10.8668C1.96215 8.00929 2.50276 5.66667 4.09882 4.0912C6.9666 1.49115 12.8721 1.8773 12.8721 1.8773C17.861 1.89789 20.25 3.40129 20.8061 3.90585C22.6441 5.48132 23.5812 9.2501 22.8964 14.7746ZM15.7398 10.6145C15.7604 11.0573 15.0962 11.0882 15.0757 10.6454C15.019 9.51268 14.4887 8.96178 13.3972 8.9C12.9544 8.87425 12.9956 8.21008 13.4332 8.23583C14.8697 8.31306 15.6677 9.13683 15.7398 10.6145ZM16.785 11.1963C16.8365 9.01327 15.4721 7.30393 12.8823 7.11343C12.4447 7.08254 12.4911 6.41837 12.9287 6.44926C15.9149 6.6655 17.5058 8.7198 17.4492 11.2117C17.444 11.6545 16.7747 11.6339 16.785 11.1963ZM19.2048 11.8862C19.21 12.329 18.5407 12.3341 18.5407 11.8913C18.5098 7.69522 15.7141 5.40924 12.3211 5.3835C11.8835 5.37835 11.8835 4.71933 12.3211 4.71933C16.1157 4.74507 19.1688 7.36571 19.2048 11.8862ZM18.623 16.937V16.9473C18.067 17.9255 17.027 19.0067 15.9561 18.6618L15.9458 18.6463C14.8594 18.3425 12.3006 17.0245 10.6839 15.7373C9.84982 15.0783 9.08782 14.3009 8.50088 13.5543C7.97058 12.8902 7.43512 12.1024 6.91511 11.1551C5.81846 9.17287 5.57647 8.28731 5.57647 8.28731C5.23152 7.2164 6.30758 6.17638 7.29096 5.62034H7.30126C7.77493 5.3732 8.22801 5.45558 8.53177 5.82113C8.53177 5.82113 9.1702 6.58313 9.44308 6.95897C9.70051 7.30908 10.0455 7.87028 10.2257 8.18434C10.5397 8.74554 10.3441 9.31704 10.0352 9.55387L9.41734 10.0481C9.10327 10.3004 9.14446 10.7689 9.14446 10.7689C9.14446 10.7689 10.0609 14.234 13.4847 15.1092C13.4847 15.1092 13.9533 15.1504 14.2055 14.8363L14.6998 14.2185C14.9366 13.9096 15.5081 13.7139 16.0693 14.028C16.8262 14.4553 17.789 15.1195 18.4274 15.7219C18.7878 16.0154 18.8702 16.4633 18.623 16.937Z" fill="#8C41D8"/>
</svg>
