<svg width="30" height="36" viewBox="0 0 30 36" fill="none" xmlns="http://www.w3.org/2000/svg">
<path d="M28.5557 21.6357C28.5487 21.6356 28.5418 21.6355 28.5348 21.6355H26.2882V18.8705C26.9151 17.8278 27.2383 16.6307 27.2214 15.4142V6.83561C27.2214 6.07202 26.6025 5.45308 25.8389 5.45308H19.8388C19.8454 5.37489 19.8454 5.29625 19.8388 5.21806V2.59818C19.9603 1.29048 18.9988 0.131931 17.6911 0.0103556C17.5363 -0.00407452 17.3805 -0.00321044 17.2258 0.0128614H12.7741C11.4678 -0.122539 10.299 0.826562 10.1636 2.13287C10.1475 2.28754 10.1468 2.44333 10.1611 2.59818V5.21806C10.1544 5.29625 10.1544 5.37489 10.1611 5.45308H4.15405C3.39046 5.45308 2.77152 6.07202 2.77152 6.83561V15.4349C2.73722 16.6536 3.06177 17.8554 3.70473 18.8912V21.6562H1.46504C0.701457 21.6562 0.0825195 22.2752 0.0825195 23.0388V29.9514C0.0825195 30.715 0.701457 31.3339 1.46504 31.3339H3.71164V31.4791C3.71164 33.8224 4.87296 34.9354 5.85455 35.44C6.59143 35.8128 7.4066 36.0048 8.23248 35.9999H21.7674C25.0992 35.9999 26.2882 33.6634 26.2882 31.4791V31.3339H28.5348C29.2984 31.3339 29.9173 30.715 29.9173 29.9514V23.0388C29.9288 22.2753 29.3191 21.6471 28.5557 21.6357ZM3.69781 29.9375H1.45122V23.0249H3.69781V29.9375ZM11.5436 2.59818C11.5436 1.58202 12.0413 1.39538 12.7741 1.39538H17.2189C17.9585 1.39538 18.4562 1.58202 18.4562 2.59818V5.21806L18.4078 5.26644L11.5436 5.21806V2.59818ZM12.9261 26.2808V6.83561H17.0737V20.6608V26.2808H12.9261ZM15.9539 27.6633V30.7947H14.0529V27.6633H15.9539ZM4.16096 15.4349L4.14713 6.83561H11.5436V19.9696H8.69563C7.63109 19.9696 4.16096 19.6447 4.16096 15.4349ZM24.9126 31.4583L24.8988 31.4652C24.8988 32.4123 24.5946 34.6036 21.7605 34.6036H8.23248C7.63048 34.6094 7.03583 34.472 6.49742 34.2026C5.55039 33.7049 5.1149 32.8201 5.1149 31.4376V20.3152C6.18678 21.0085 7.43987 21.3693 8.71637 21.3521H11.5436V26.972C11.5436 27.3538 11.8531 27.6633 12.2349 27.6633H12.6704V31.486C12.6704 31.8677 12.9799 32.1772 13.3616 32.1772H16.6451C17.0269 32.1772 17.3364 31.8677 17.3364 31.486V27.6633H17.765C18.1467 27.6633 18.4562 27.3538 18.4562 26.972V21.3521H21.3111C22.589 21.3958 23.8485 21.038 24.9126 20.329V31.4583ZM25.8389 15.4142C25.8389 16.4787 25.514 19.9488 21.3042 19.9488H18.4562V6.81487H25.8458L25.8389 15.4142ZM28.5279 29.9375H26.2882V23.0249H28.5348L28.5279 29.9375Z" fill="#00A8FF"/>
</svg>
