<svg width="37" height="37" viewBox="0 0 37 37" fill="none" xmlns="http://www.w3.org/2000/svg">
<path d="M27.9824 7.83789C26.8059 7.83789 25.9431 8.77914 25.9431 9.87727C25.9431 11.0538 26.8843 11.9166 27.9824 11.9166C29.159 11.9166 30.0218 10.9754 30.0218 9.87727C30.0218 8.77914 29.0806 7.83789 27.9824 7.83789Z" stroke="white" stroke-miterlimit="10"/>
<path d="M18.7269 10.582C14.4129 10.582 10.8832 14.1117 10.8832 18.4258C10.8832 22.7398 14.4129 26.2695 18.7269 26.2695C23.041 26.2695 26.5707 22.7398 26.5707 18.4258C26.5707 14.0333 23.041 10.582 18.7269 10.582Z" stroke="white" stroke-miterlimit="10"/>
<path d="M25.7078 35.9961H11.5891C5.70625 35.9961 1 31.2114 1 25.407V11.2883C1 5.4839 5.78469 0.699219 11.5891 0.699219H25.7078C31.5122 0.699219 36.2969 5.4839 36.2969 11.2883V25.407C36.2969 31.2898 31.5906 35.9961 25.7078 35.9961Z" stroke="white" stroke-miterlimit="10"/>
</svg>
