<svg width="42" height="41" viewBox="0 0 42 41" fill="none" xmlns="http://www.w3.org/2000/svg">
<path fill-rule="evenodd" clip-rule="evenodd" d="M33.7852 14.7852C33.4389 14.4863 32.1116 14.4863 30.7843 14.4863C29.4569 14.4863 28.1296 14.4863 27.8411 14.6656C27.5525 14.7852 26.9177 16.3994 26.1098 18.0136C25.1864 19.867 24.0322 21.6605 23.282 21.6007C22.3009 21.6007 22.5317 18.5517 22.6471 16.2798C22.6471 14.7852 22.4163 14.3069 22.2432 14.1873C21.7238 13.8286 20.3387 13.4699 20.3387 13.4699C20.3387 13.4699 16.1836 13.171 15.6065 15.0243C16.4144 15.1439 17.7418 14.9048 17.2224 20.5844C17.1647 20.8833 16.5876 23.2149 14.6831 20.0463C14.2214 19.2691 12.3747 14.4863 11.6822 14.4265C9.54693 14.3667 7.46936 14.3069 6.71913 14.7254C6.02661 15.1439 7.64249 18.4321 10.3549 22.7964C12.5479 26.3835 14.914 29.1934 18.9537 29.9109C19.7039 29.9706 21.7238 30.0902 22.3586 29.7913C22.7626 29.5521 22.2432 26.4433 23.6859 26.1444C24.3207 26.0248 26.8023 29.3728 27.7256 29.7913C28.3027 30.0304 29.5147 30.15 30.7843 30.0902C32.1693 30.0304 33.7275 30.2098 33.9006 29.2532C34.2469 27.101 29.7455 24.291 29.5724 22.9758C29.4569 22.0192 31.246 20.2854 32.1116 18.9104C33.2658 17.4158 34.4777 15.4428 33.7852 14.7852Z" stroke="white" stroke-miterlimit="10"/>
<circle cx="21.008" cy="20.5534" r="19.8268" stroke="white"/>
</svg>
