<svg width="28" height="28" viewBox="0 0 28 28" fill="none" xmlns="http://www.w3.org/2000/svg">
<path d="M27.8177 6.86353L22.1749 2.5227C21.8483 2.2713 21.477 2.08416 21.0807 1.97128L18.4443 1.21796L17.5967 0.370304C17.4396 0.212584 17.1928 0.188139 17.0078 0.311952C16.0987 0.8585 15.0607 1.15354 14 1.16688C12.9398 1.15037 11.9026 0.855547 10.9922 0.311952C10.8072 0.188358 10.5606 0.212803 10.4034 0.370304L9.55573 1.21796L6.91935 1.97128C6.52297 2.08416 6.1517 2.2713 5.82516 2.5227L0.182281 6.86353C-0.0123523 7.01321 -0.0577977 7.28812 0.0783743 7.49243L3.81173 13.0924C3.88419 13.2014 3.99914 13.2748 4.12848 13.2948C4.25771 13.3144 4.38928 13.2794 4.49171 13.1982L6.06672 11.9381V27.3003C6.06666 27.4241 6.11577 27.5428 6.20333 27.6303C6.29088 27.7178 6.40961 27.767 6.53336 27.7669H21.4667C21.5905 27.767 21.7093 27.7179 21.7968 27.6303C21.8843 27.5428 21.9334 27.424 21.9334 27.3003V11.9381L23.5084 13.1982C23.6106 13.2799 23.7423 13.3149 23.8716 13.2948C24.0009 13.2747 24.1157 13.2013 24.1884 13.0925L27.9217 7.49249C28.0578 7.28812 28.0123 7.01321 27.8177 6.86353ZM21 26.8336H14H7.00001V25.9003H21V26.8336ZM23.6943 12.1514L22.8023 11.4377L25.1217 7.95914C25.2631 7.74476 25.2047 7.45634 24.991 7.31382C24.7773 7.17136 24.4886 7.22835 24.3451 7.44141L22.0709 10.8524L21.7584 10.6024C21.6183 10.4903 21.4263 10.4684 21.2645 10.5462C21.1028 10.624 21 10.7875 21 10.967V24.967H7.00001V10.967C7.00001 10.7875 6.8972 10.624 6.73549 10.5462C6.57378 10.4685 6.38183 10.4903 6.24166 10.6024L5.92918 10.8524L3.65494 7.44147C3.51089 7.22988 3.22329 7.17382 3.01034 7.31579C2.79738 7.45776 2.73849 7.74482 2.87843 7.95914L5.19778 11.4377L4.30578 12.1514L1.09698 7.3375L6.39397 3.26284C6.62721 3.08325 6.89244 2.94964 7.17556 2.86909L9.92815 2.08252C10.0044 2.0607 10.0739 2.01974 10.13 1.96357L10.8095 1.28408C11.7924 1.80738 12.8866 2.08728 14.0001 2.10029C15.1136 2.08728 16.2077 1.80738 17.1907 1.28408L17.8701 1.96357C17.9263 2.01974 17.9957 2.0607 18.0721 2.08252L20.8246 2.86914C21.1078 2.9497 21.373 3.0833 21.6062 3.2629L26.9032 7.33756L23.6943 12.1514Z" fill="#F2F2F2"/>
</svg>
