<svg width="28" height="28" viewBox="0 0 28 28" fill="none" xmlns="http://www.w3.org/2000/svg">
<path d="M27.6102 23.3214L25.5388 4.0862V1.59502C25.5388 1.23091 25.2437 0.935791 24.8796 0.935791H3.16322C2.79911 0.935791 2.50399 1.23091 2.50399 1.59502V4.08612L0.434582 23.3032C0.18107 23.3951 0 23.638 0 23.9231V26.4048C0 26.769 0.295117 27.0641 0.659234 27.0641H10.5661C10.9302 27.0641 11.2253 26.769 11.2253 26.4048V23.9231C11.2253 23.861 11.2167 23.8009 11.2007 23.744L13.8263 15.0939H14.2167L16.8219 23.6775C16.7914 23.7534 16.7746 23.8363 16.7746 23.9231V26.4048C16.7746 26.769 17.0697 27.0641 17.4338 27.0641H27.3407C27.7048 27.0641 27.9999 26.769 27.9999 26.4048V23.9231C28 23.655 27.84 23.4244 27.6102 23.3214ZM24.5447 7.16863H20.9379C20.2964 7.16863 19.7745 6.64673 19.7745 6.0053V4.78081H24.2875L24.5447 7.16863ZM3.82246 2.25426H24.2204V3.46227H3.82246V2.25426ZM3.75529 4.78081H8.26826V6.00537C8.26826 6.64681 7.74644 7.1687 7.105 7.1687H3.49811L3.75529 4.78081ZM9.90682 25.7456H1.31847V24.5824H9.90682V25.7456ZM15.5945 15.0939H17.0334C17.3975 15.0939 17.6926 14.7987 17.6926 14.4346C17.6926 14.0705 17.3975 13.7754 17.0334 13.7754H11.0099C10.6457 13.7754 10.3506 14.0705 10.3506 14.4346C10.3506 14.7987 10.6457 15.0939 11.0099 15.0939H12.4485L9.96857 23.2639H1.76492L3.35616 8.48709H7.10507C8.4735 8.48709 9.5868 7.3738 9.5868 6.0053V4.78081H13.3624V9.96539C13.3624 10.1402 13.4318 10.3079 13.5555 10.4315C13.6791 10.5552 13.8468 10.6246 14.0216 10.6246L15.8631 10.6245C16.2272 10.6245 16.5223 10.3294 16.5223 9.96532C16.5223 9.6012 16.2271 9.30608 15.8631 9.30608L14.6808 9.30616V4.78081H18.4561V6.00537C18.4561 7.37387 19.5695 8.48717 20.938 8.48717H24.6868L26.2781 23.264H18.0743L15.5945 15.0939ZM26.6815 25.7456H18.0931V24.5824H26.6815V25.7456Z" fill="#F2F2F2"/>
</svg>
