<svg width="36" height="36" viewBox="0 0 36 36" fill="none" xmlns="http://www.w3.org/2000/svg">
<path d="M36 20.5054C36 15.5879 34.0172 11.1254 30.8099 7.8735C30.7848 7.84022 30.7582 7.80764 30.7278 7.77731C30.6975 7.74697 30.665 7.7203 30.6318 7.69539C27.3798 4.48809 22.9174 2.50537 18 2.50537C13.0826 2.50537 8.62017 4.4882 5.36813 7.69539C5.33485 7.72041 5.30239 7.74709 5.27205 7.77731C5.24172 7.80764 5.21504 7.8401 5.19002 7.8735C1.98283 11.1254 0 15.5879 0 20.5054C0 25.3127 1.87188 29.8321 5.27075 33.2318C5.27123 33.2323 5.2717 33.2328 5.27217 33.2333C5.27252 33.2335 5.27276 33.2339 5.27311 33.2341C5.27359 33.2346 5.27406 33.2351 5.27453 33.2356C5.44733 33.4084 5.67384 33.4946 5.90034 33.4946C6.12696 33.4946 6.35359 33.4082 6.52639 33.2353C6.54114 33.2206 6.55448 33.2049 6.56793 33.1893L9.29591 30.4612C9.64163 30.1154 9.64163 29.5549 9.29591 29.2092C8.95019 28.8636 8.38965 28.8636 8.04405 29.2092L5.91521 31.3381C3.43287 28.5757 1.99275 25.0992 1.79469 21.3906H4.80535C5.29424 21.3906 5.6906 20.9944 5.6906 20.5054C5.6906 20.0164 5.29424 19.6201 4.80535 19.6201H1.79492C2.00077 15.811 3.52623 12.3472 5.921 9.67834L8.04405 11.8014C8.21685 11.9742 8.44348 12.0606 8.66998 12.0606C8.89649 12.0606 9.12311 11.9742 9.29591 11.8014C9.64163 11.4556 9.64163 10.8951 9.29591 10.5494L7.17297 8.42625C9.84193 6.03148 13.3056 4.50603 17.1148 4.3003V7.31084C17.1148 7.79985 17.5111 8.19609 18 8.19609C18.4889 8.19609 18.8852 7.79985 18.8852 7.31084V4.3003C22.6944 4.50603 26.1581 6.0316 28.827 8.42637L26.704 10.5494C26.3583 10.8953 26.3583 11.4557 26.704 11.8014C26.8768 11.9742 27.1034 12.0606 27.3299 12.0606C27.5564 12.0606 27.783 11.9742 27.9558 11.8014L30.0789 9.67834C32.4737 12.3473 33.9992 15.811 34.205 19.6201H31.1944C30.7055 19.6201 30.3092 20.0164 30.3092 20.5054C30.3092 20.9944 30.7055 21.3906 31.1944 21.3906H34.2051C34.007 25.0992 32.567 28.5759 30.0847 31.3382L27.9558 29.2092C27.6102 28.8636 27.0497 28.8636 26.704 29.2092C26.3583 29.5551 26.3583 30.1155 26.704 30.4612L29.476 33.2332C29.6488 33.406 29.8754 33.4924 30.1019 33.4924C30.2151 33.4924 30.3284 33.4708 30.435 33.4276C30.5416 33.3844 30.6414 33.3196 30.7279 33.2332C34.1276 29.8334 36 25.3132 36 20.5054Z" fill="#00A8FF"/>
<path d="M22.0669 10.3536C21.6129 10.1717 21.0978 10.3922 20.916 10.8461L18.3579 17.2317C18.2387 17.2189 18.1194 17.2102 18.0001 17.2102C16.7542 17.2102 15.6287 17.9003 15.0628 19.0113C14.4712 20.1726 14.6227 21.5602 15.4678 22.7228C15.5542 22.8417 15.6628 22.9504 15.7825 23.0374C16.4691 23.5365 17.236 23.8003 18.0001 23.8003C19.2461 23.8003 20.3716 23.1102 20.9375 21.9993C21.5291 20.8379 21.3775 19.4505 20.533 18.2887C20.4466 18.1695 20.3378 18.0604 20.2177 17.9731C20.1532 17.9261 20.0872 17.8832 20.0212 17.8405L22.5595 11.5044C22.7413 11.0507 22.5208 10.5353 22.0669 10.3536ZM19.3597 21.1956C19.0976 21.7101 18.5766 22.0297 18 22.0297C17.6218 22.0297 17.2412 21.8976 16.8682 21.637C16.4433 21.0269 16.3598 20.3655 16.6404 19.8148C16.9024 19.3003 17.4234 18.9807 18.0001 18.9807C18.184 18.9807 18.3684 19.0126 18.5523 19.0745C18.5583 19.077 18.5638 19.0802 18.57 19.0827C18.5893 19.0904 18.6088 19.0966 18.6283 19.1029C18.7971 19.1677 18.9652 19.2569 19.1318 19.3733C19.5566 19.9834 19.6402 20.645 19.3597 21.1956Z" fill="#00A8FF"/>
</svg>
