<svg width="53" height="49" viewBox="0 0 53 49" fill="none" xmlns="http://www.w3.org/2000/svg">
<path d="M23.7187 48.7388V48.2593C23.7187 36.6527 13.3956 27.2076 0.710097 27.2076H0.186061L0.177734 22.4203H0.701796C6.84907 22.4203 12.6303 20.2283 16.9725 16.2554C21.323 12.2749 23.7104 6.99289 23.7104 1.36841V0.888916H28.9427V1.36841C28.9427 12.9827 39.2658 22.4203 51.9513 22.4203H52.4753V27.2076H51.9513C45.804 27.2076 40.0227 29.3995 35.6805 33.3724C31.3384 37.3453 28.9427 42.6349 28.9427 48.2593V48.7388H23.7187ZM31.9872 29.9931C34.3662 27.8164 37.0947 26.0811 40.056 24.8177C37.0947 23.5543 34.3662 21.819 31.9872 19.6423C29.6081 17.4655 27.7116 14.9692 26.3307 12.2597C24.9499 14.9692 23.0532 17.4655 20.6742 19.6423C18.2868 21.819 15.5584 23.5619 12.5887 24.8253C18.6196 27.3978 23.5108 31.8655 26.3224 37.391C27.7032 34.6739 29.6081 32.1698 31.9872 29.9931Z" fill="white"/>
</svg>
