<svg width="41" height="38" viewBox="0 0 41 38" fill="none" xmlns="http://www.w3.org/2000/svg">
<path d="M0.0083138 34.3001L0.374324 33.9653C9.34984 25.7531 9.34984 12.3959 0.374324 4.19135L0 3.85643L3.69336 0.469604L4.06768 0.812059C8.41819 4.79257 14.1911 6.97688 20.3384 6.97688C26.4857 6.97688 32.2669 4.78496 36.6091 0.812059L36.9752 0.477223L40.6768 3.86404L40.3108 4.19897C31.3353 12.4112 31.3353 25.7683 40.3108 33.9729L40.6768 34.3077L36.9752 37.6945L36.6091 37.3597C32.2669 33.3868 26.4857 31.1949 20.3384 31.1949C14.1911 31.1949 8.41819 33.3868 4.06768 37.3673L3.70167 37.7021L0.0083138 34.3001ZM20.3467 26.3923C23.7074 26.3923 26.9848 26.9251 30.0459 27.9526C28.9313 25.1442 28.3407 22.1531 28.3407 19.0706C28.3407 15.9958 28.923 12.9971 30.0459 10.1963C26.9765 11.2161 23.7073 11.7566 20.3384 11.7566C16.9695 11.7566 13.692 11.2238 10.6142 10.1888C12.8935 15.9122 12.8935 22.2368 10.6142 27.9602C13.692 26.9328 16.9695 26.3923 20.3467 26.3923Z" fill="white"/>
</svg>
