<svg width="28" height="28" viewBox="0 0 28 28" fill="none" xmlns="http://www.w3.org/2000/svg">
<g clip-path="url(#clip0)">
<path d="M18.6416 0.0251458C18.6414 0.0251458 18.6411 0.0249584 18.6408 0.0249584C18.6397 0.0245836 18.6387 0.0242089 18.6375 0.0238341C18.6322 0.0221477 18.6269 0.0211171 18.6216 0.0196181C18.6212 0.0196181 18.6209 0.0194307 18.6205 0.0194307C18.6132 0.0173695 18.6059 0.0150273 18.5984 0.0133409C18.5956 0.0125913 18.5928 0.0120292 18.5901 0.0113734C18.5834 0.00987434 18.5765 0.00903113 18.5698 0.00790686C18.5625 0.0065952 18.5554 0.00518986 18.5482 0.00425296C18.5457 0.0038782 18.5431 0.00369082 18.5406 0.00331607C18.5331 0.00237917 18.5256 0.00200441 18.5183 0.00153596C18.5115 0.0011612 18.5049 0.000411687 18.4983 0.000224308C18.4958 3.69283e-05 18.493 3.69283e-05 18.4904 3.69283e-05C18.4824 3.69283e-05 18.4746 0.000224308 18.4667 0.000599066C18.4608 0.000786446 18.4547 0.000599066 18.4487 0.000973825C18.4458 0.0011612 18.4428 0.00153596 18.4399 0.00172334C18.4319 0.00247286 18.424 0.00359714 18.4161 0.00462772C18.4106 0.00537724 18.4049 0.005752 18.3993 0.00668889C18.3962 0.00725103 18.3931 0.00781317 18.3899 0.008469C18.382 0.00978065 18.3745 0.0117481 18.3669 0.0134345C18.3612 0.0147462 18.3557 0.0157768 18.3502 0.0172758C18.3471 0.0182127 18.344 0.0188685 18.3408 0.0198054C18.3335 0.0219603 18.3264 0.0245836 18.3191 0.0269259C18.3134 0.028987 18.3074 0.0305798 18.3017 0.0328283C18.2987 0.0339526 18.296 0.0348895 18.293 0.0361074C18.2864 0.0386371 18.2798 0.0418225 18.2733 0.0447269C18.2669 0.0476313 18.2604 0.050442 18.2542 0.0535337C18.2523 0.0544706 18.25 0.0552201 18.2481 0.0562507C18.2475 0.0564381 18.2471 0.0568129 18.2467 0.0570002C18.2408 0.060092 18.2352 0.0635585 18.2294 0.0669313C18.223 0.0705852 18.2163 0.0742391 18.2099 0.0782678C18.2088 0.0788299 18.2076 0.0795794 18.2065 0.0802353C18.205 0.0811722 18.2036 0.0819217 18.2021 0.0827649C18.1971 0.0858566 18.1927 0.0895105 18.1879 0.0927897C18.1816 0.0971931 18.1752 0.101597 18.1692 0.106375C18.1665 0.108342 18.1636 0.110216 18.1611 0.112277C18.1565 0.115744 18.1525 0.119772 18.1482 0.123426C18.1425 0.128392 18.1366 0.133264 18.131 0.138604C18.1285 0.140759 18.1257 0.143007 18.1232 0.145537C18.1191 0.149378 18.1155 0.153782 18.1115 0.15781C18.1063 0.163338 18.1011 0.168585 18.0961 0.1743C18.0938 0.177017 18.0911 0.17964 18.0888 0.182357C18.0851 0.186573 18.082 0.191164 18.0786 0.195567C18.0739 0.20147 18.0692 0.207466 18.0648 0.213649C18.0626 0.216554 18.0603 0.219552 18.0582 0.222644C18.0551 0.227047 18.0524 0.232013 18.0493 0.23651C18.0452 0.242881 18.0411 0.249532 18.0371 0.256278C18.0352 0.25937 18.0332 0.262368 18.0315 0.26546C18.0286 0.270613 18.0264 0.275859 18.0238 0.2812C18.0202 0.287945 18.0167 0.294878 18.0135 0.302092C18.0121 0.304809 18.0107 0.307433 18.0095 0.31015C18.0079 0.313991 18.0067 0.317832 18.0052 0.321674C18.0042 0.324016 18.0033 0.326639 18.0025 0.328981C18.0005 0.333947 17.9983 0.338538 17.9965 0.34341L15.9879 6.02166L15.5632 3.08749C15.6592 3.05947 15.7465 3.00457 15.8125 2.92662C15.9105 2.8112 15.9526 2.65857 15.9278 2.50923L15.5842 0.431197C15.5431 0.182357 15.328 -5.67613e-05 15.0759 -5.67613e-05H12.9247C12.6726 -5.67613e-05 12.4574 0.182357 12.4162 0.431197L12.0725 2.50923C12.0478 2.65857 12.0901 2.8112 12.1879 2.92662C12.254 3.00457 12.3413 3.05947 12.4373 3.08749L12.0042 6.08368L10.0549 0.349406C10.0529 0.343878 10.0505 0.339006 10.0485 0.333666C10.0479 0.331605 10.0472 0.329825 10.0466 0.328044C10.0442 0.322329 10.0424 0.316521 10.04 0.310805C10.0393 0.308932 10.0381 0.307152 10.0374 0.30509C10.0342 0.29797 10.0305 0.291224 10.0271 0.284198C10.0269 0.283823 10.0267 0.283261 10.0265 0.282886C10.0226 0.275016 10.0188 0.267334 10.0144 0.259838C10.0106 0.252905 10.0063 0.246441 10.0021 0.239695C10.0019 0.239508 10.0017 0.239133 10.0015 0.238946C9.99812 0.233605 9.99522 0.227984 9.99166 0.222831C9.99025 0.220863 9.98866 0.21899 9.98716 0.216928C9.98257 0.21037 9.97742 0.204093 9.97254 0.197722C9.9687 0.192757 9.96505 0.18751 9.96093 0.182544C9.95933 0.180858 9.95774 0.179265 9.95624 0.177391C9.9509 0.171489 9.94547 0.165868 9.93994 0.159965C9.93394 0.153782 9.92804 0.147317 9.92167 0.141321C9.91577 0.135793 9.90958 0.130547 9.90359 0.125206C9.89703 0.119491 9.89038 0.11387 9.88354 0.10853C9.87679 0.103189 9.86977 0.0985048 9.86274 0.0935392C9.86265 0.0935392 9.86255 0.0935392 9.86255 0.0935392C9.85777 0.0902601 9.85337 0.0866062 9.8485 0.083327C9.84653 0.0820154 9.84447 0.0809848 9.8425 0.0796731C9.83538 0.0752697 9.82817 0.0712411 9.82095 0.0672124C9.81524 0.0639333 9.8099 0.0606541 9.80409 0.0574687C9.80315 0.0570939 9.80222 0.0565318 9.80137 0.0559696C9.80025 0.0554075 9.79922 0.0550328 9.79819 0.0544706C9.79135 0.0510041 9.78423 0.0480997 9.77701 0.0449143C9.77064 0.0420099 9.76437 0.0388244 9.75781 0.0362948C9.75556 0.0353579 9.7534 0.0345147 9.75106 0.0335778C9.74469 0.0310482 9.73785 0.0291744 9.73129 0.0270195C9.72427 0.0246773 9.71743 0.022054 9.71021 0.0200865C9.70768 0.019337 9.70525 0.0184001 9.70272 0.0177443C9.697 0.0162452 9.69138 0.015402 9.68567 0.013903C9.68492 0.013903 9.68426 0.0137156 9.6837 0.0135282C9.6762 0.0116544 9.66871 0.00987434 9.66121 0.00837531C9.65222 0.00668889 9.64351 0.00565831 9.6347 0.00453403C9.62683 0.00340976 9.61896 0.00237917 9.61109 0.00162965C9.61034 0.00162965 9.60978 0.00144227 9.60912 0.00144227C9.60125 0.000880135 9.59338 0.000692756 9.58551 0.000505377C9.58532 0.000505377 9.58514 0.000317997 9.58495 0.000317997C9.57689 0.000130618 9.56884 -0.000244141 9.56078 -0.000244141C9.56059 -0.000244141 9.5605 -0.000244141 9.5604 -0.000244141C9.55197 -5.67613e-05 9.54373 0.000505377 9.53548 0.00106751C9.53492 0.00125489 9.53445 0.00125489 9.53398 0.00125489C9.52593 0.00181703 9.51806 0.00219179 9.51 0.003035C9.50812 0.00322238 9.50634 0.00322238 9.50447 0.00340976C9.49735 0.00434665 9.49004 0.00593938 9.48292 0.00706365C9.47543 0.00837531 9.46774 0.00940589 9.46025 0.0110923C9.45828 0.0114671 9.45641 0.0118418 9.45435 0.0122166C9.44741 0.0137156 9.44067 0.0160579 9.43383 0.017838C9.4327 0.0180253 9.43186 0.0184001 9.43092 0.0185875C9.42502 0.0202739 9.4194 0.0211171 9.4135 0.0229909C9.41181 0.023553 9.41003 0.0241152 9.40835 0.0246773C9.40816 0.0248647 9.40816 0.0248647 9.40797 0.0248647C7.18415 0.720042 5.28459 1.89678 3.91466 3.42805C2.48815 5.02265 1.73413 6.89728 1.73413 8.84959V23.0591C1.73413 23.3438 1.96479 23.5744 2.24942 23.5744H5.38522L4.98198 27.4305C4.9668 27.5758 5.01392 27.7206 5.11164 27.8291C5.20936 27.9375 5.3484 27.9994 5.49446 27.9994H12.1668C12.1678 27.9994 12.1687 27.9996 12.1697 27.9996C12.186 27.9996 12.2021 27.9984 12.2182 27.997C12.222 27.9967 12.2257 27.9961 12.2295 27.9957C12.2414 27.9942 12.2531 27.9924 12.2647 27.9902C12.2693 27.9894 12.274 27.9885 12.2785 27.9877C12.2926 27.9846 12.3065 27.9811 12.32 27.9771C12.3252 27.9754 12.3301 27.9736 12.3351 27.9717C12.3444 27.9686 12.3535 27.9654 12.3627 27.9617C12.3687 27.9594 12.3747 27.9566 12.3807 27.9538C12.3888 27.9504 12.3967 27.9465 12.4045 27.9425C12.4099 27.9398 12.4153 27.937 12.4205 27.9341C12.4331 27.9271 12.4456 27.9196 12.4576 27.9116C12.4583 27.911 12.4591 27.9105 12.4599 27.91C12.4718 27.9018 12.4831 27.8931 12.4943 27.8842C12.497 27.882 12.4998 27.8796 12.5025 27.8773C12.5119 27.8692 12.521 27.861 12.5298 27.8524C12.5321 27.8502 12.5346 27.8478 12.5367 27.8456C12.5469 27.8354 12.5567 27.8246 12.5659 27.8136C12.5664 27.8128 12.5672 27.8123 12.5677 27.8115C12.5778 27.7993 12.5871 27.7866 12.596 27.7737C12.5977 27.7713 12.5991 27.7687 12.6007 27.7662C12.6073 27.7563 12.6134 27.7462 12.6192 27.736C12.6221 27.7307 12.6249 27.7254 12.6276 27.7201C12.6316 27.7122 12.6355 27.7043 12.6391 27.6963C12.6419 27.6899 12.6449 27.6835 12.6476 27.6769C12.6483 27.6749 12.6493 27.6731 12.65 27.671L14.0256 24.1355L15.4041 27.6714C15.4049 27.6732 15.4058 27.675 15.4065 27.6769C15.4092 27.6835 15.4122 27.6899 15.4151 27.6965C15.4187 27.7043 15.4224 27.7124 15.4264 27.7203C15.4291 27.7256 15.432 27.7309 15.4348 27.736C15.4407 27.7464 15.4469 27.7565 15.4533 27.7664C15.455 27.7687 15.4564 27.7713 15.458 27.7737C15.4669 27.7869 15.4763 27.7994 15.4865 27.8117C15.4868 27.8121 15.487 27.8125 15.4874 27.8128C15.497 27.8242 15.507 27.8351 15.5174 27.8458C15.5194 27.848 15.5216 27.85 15.5238 27.8522C15.5327 27.861 15.5422 27.8694 15.5518 27.8777C15.5543 27.8798 15.5569 27.8821 15.5594 27.884C15.5708 27.8934 15.5826 27.9021 15.5948 27.9106C15.5953 27.9109 15.5959 27.9113 15.5965 27.9117C15.6085 27.9197 15.6211 27.9272 15.6337 27.9344C15.6389 27.9371 15.6439 27.9397 15.6489 27.9422C15.6572 27.9464 15.6653 27.9505 15.6737 27.9541C15.6796 27.9568 15.6854 27.9595 15.6913 27.9618C15.7005 27.9655 15.7099 27.9689 15.7194 27.972C15.7242 27.9736 15.7287 27.9755 15.7334 27.977C15.7471 27.9812 15.7613 27.9847 15.7755 27.9878C15.7801 27.9887 15.7847 27.9896 15.7892 27.9903C15.8009 27.9924 15.8127 27.9943 15.8247 27.9958C15.8283 27.9962 15.832 27.9968 15.8358 27.9971C15.8519 27.9986 15.8681 27.9997 15.8844 27.9997C15.8853 27.9997 15.8862 27.9995 15.8873 27.9995H22.6043C22.7504 27.9995 22.8895 27.9376 22.9873 27.8291C23.085 27.7207 23.1321 27.5759 23.1169 27.4306L22.7138 23.5745H25.7508C26.0354 23.5745 26.2661 23.3439 26.2661 23.0592V8.84996C26.2661 6.90356 25.5181 5.03192 24.1028 3.4377C22.7412 1.90409 20.853 0.724258 18.6416 0.0251458ZM17.8731 4.99791C17.8681 5.00288 17.8638 5.00831 17.8592 5.01346C17.852 5.02115 17.8445 5.02883 17.8377 5.03707C17.8358 5.03923 17.8344 5.04185 17.8325 5.04401C17.6947 5.21892 17.686 5.46252 17.8072 5.64587C17.8108 5.65158 17.8152 5.65664 17.8192 5.66217C17.8252 5.67079 17.8311 5.67941 17.8378 5.68756C17.843 5.69374 17.8488 5.69983 17.8546 5.70602C17.8607 5.71276 17.8666 5.71988 17.8732 5.72654L19.3705 7.22388L14.0249 15.0489L13.9345 14.9166L16.2601 8.34207C16.2605 8.34095 16.2609 8.33991 16.2614 8.33879L18.5683 1.81734L19.4078 3.46271L17.8731 4.99791ZM10.1766 5.72672C10.1766 5.72672 10.1766 5.72672 10.1768 5.72672C10.2068 5.69674 10.2319 5.66376 10.253 5.629C10.2936 5.56183 10.3179 5.48772 10.3252 5.41221C10.3252 5.41202 10.3253 5.41183 10.3254 5.41164C10.3271 5.39319 10.3278 5.37464 10.3276 5.35618C10.3261 5.22623 10.2758 5.09703 10.1769 4.99791L8.64168 3.46262L9.47168 1.83589L13.3907 13.3637L13.2143 13.8624L8.67897 7.22388L10.1766 5.72672ZM13.3617 1.03053H14.6389L14.8121 2.07798H13.1885L13.3617 1.03053ZM13.4757 3.10857H14.5249L15.2491 8.11075L13.9458 11.7946L12.7349 8.23273L13.4757 3.10857ZM6.46958 23.1129C6.46958 23.1125 6.46958 23.112 6.46958 23.1116L7.03743 17.6824C7.04128 17.6445 7.04109 17.6064 7.03669 17.5687L6.0061 8.78991C5.97293 8.50715 5.7166 8.30497 5.43422 8.33813C5.15156 8.37139 4.94928 8.62745 4.98245 8.91002L6.00647 17.6321L5.49277 22.5443H2.76453V8.84996C2.76453 5.74555 4.9817 2.93927 8.51202 1.44923L7.55713 3.32096L7.55498 3.32518L7.55348 3.32789C7.55217 3.33061 7.55123 3.33342 7.54982 3.33595C7.54383 3.34841 7.53811 3.36087 7.53315 3.37343C7.53099 3.37914 7.52912 3.38476 7.52715 3.39067C7.52368 3.4006 7.52012 3.41043 7.51731 3.42046C7.51497 3.4287 7.5131 3.43714 7.51113 3.44538C7.50944 3.45306 7.50748 3.46075 7.50598 3.46843C7.5042 3.47817 7.50307 3.48801 7.50176 3.49785C7.50101 3.50422 7.49989 3.51087 7.49942 3.51724C7.49848 3.52726 7.49829 3.53757 7.49792 3.54778C7.49773 3.55415 7.49745 3.56062 7.49754 3.56699C7.49754 3.57673 7.49829 3.5862 7.49886 3.59575C7.49942 3.60287 7.49979 3.61018 7.50054 3.6173C7.50148 3.62573 7.50288 3.63416 7.5042 3.64241C7.50551 3.65084 7.50673 3.65909 7.50841 3.66733C7.50991 3.67445 7.51188 3.68157 7.51366 3.6886C7.51591 3.69797 7.51834 3.70706 7.52115 3.71624C7.52312 3.72242 7.52546 3.72851 7.52762 3.73451C7.5309 3.74425 7.53436 3.75371 7.5383 3.76308C7.54074 3.76908 7.54373 3.77498 7.54664 3.78079C7.55085 3.78978 7.55498 3.79868 7.55966 3.80749C7.5635 3.81442 7.56753 3.82108 7.57165 3.82763C7.57615 3.83513 7.58037 3.84244 7.58524 3.84956C7.59095 3.85818 7.59742 3.86642 7.6036 3.87457C7.60744 3.87954 7.61091 3.88469 7.61494 3.88938C7.62337 3.89977 7.63255 3.90971 7.64201 3.91936C7.64417 3.9217 7.64604 3.92413 7.6482 3.92629L7.65054 3.92863L7.65363 3.93172L9.08371 5.36199L7.6481 6.79741C7.64735 6.79816 7.6467 6.7991 7.64604 6.79975C7.63733 6.80856 7.62937 6.81765 7.62131 6.82701C7.61803 6.83086 7.61456 6.83451 7.61147 6.83835C7.60416 6.84734 7.59779 6.85662 7.59114 6.8658C7.58786 6.87077 7.58411 6.87536 7.58093 6.88023C7.57578 6.8881 7.57137 6.89616 7.56669 6.90421C7.56285 6.91096 7.55863 6.91761 7.55516 6.92455C7.55188 6.93073 7.54926 6.93719 7.54636 6.94338C7.54214 6.95237 7.53774 6.96127 7.53408 6.97045C7.53212 6.97523 7.5308 6.98001 7.52893 6.98488C7.52509 6.99566 7.52106 7.00643 7.51778 7.01749C7.51647 7.02226 7.51563 7.02704 7.51432 7.03173C7.51141 7.04288 7.50841 7.05402 7.50635 7.06536C7.50495 7.07211 7.50438 7.07895 7.50335 7.08588C7.50204 7.09525 7.50045 7.10434 7.49951 7.1137C7.49857 7.12392 7.49839 7.13422 7.49801 7.14425C7.49783 7.15043 7.49726 7.15652 7.49726 7.1627C7.49726 7.17498 7.49811 7.18706 7.49895 7.19934C7.49932 7.20355 7.49932 7.20777 7.4997 7.2118C7.50082 7.22388 7.50279 7.23578 7.50485 7.24768C7.5056 7.25208 7.50607 7.25667 7.50682 7.26108C7.50879 7.27129 7.51169 7.28141 7.51432 7.29143C7.516 7.29762 7.51713 7.30389 7.51909 7.31008C7.52134 7.31795 7.52443 7.32563 7.52715 7.33331C7.53006 7.34175 7.53287 7.35018 7.53633 7.35842C7.53867 7.36432 7.54167 7.36995 7.5442 7.37566C7.54879 7.3855 7.5532 7.39562 7.55844 7.40527C7.56097 7.41005 7.56416 7.41464 7.56678 7.41932C7.57268 7.42953 7.57859 7.43965 7.58533 7.44968C7.58589 7.45061 7.58646 7.45155 7.58702 7.45239L13.5098 16.1216V22.6192L11.8174 26.9692H6.06625L6.46958 23.1129ZM25.2355 22.5442H22.6059L22.0923 17.6321L23.1162 8.90992C23.1493 8.62735 22.9471 8.37139 22.6645 8.33804C22.382 8.30488 22.1259 8.50715 22.0926 8.78981L21.0621 17.5686C21.0577 17.6063 21.0573 17.6444 21.0614 17.6823L21.629 23.1111C21.629 23.1119 21.6292 23.1124 21.6292 23.1131L22.0325 26.969H16.2363L14.5403 22.6188V16.1214L20.4625 7.45221C20.4633 7.45127 20.4636 7.45033 20.4642 7.44968C20.4711 7.43928 20.4774 7.4286 20.4834 7.4182C20.4859 7.41379 20.4887 7.40958 20.4911 7.40517C20.4966 7.39496 20.5013 7.38447 20.5061 7.37407C20.5084 7.36873 20.5111 7.36367 20.5133 7.35833C20.5169 7.34952 20.5198 7.34062 20.5229 7.33163C20.5255 7.32451 20.5285 7.31739 20.5306 7.31008C20.5326 7.30333 20.5341 7.2964 20.5358 7.28937C20.5382 7.28 20.5409 7.27073 20.5427 7.26117C20.5438 7.25583 20.5443 7.25059 20.545 7.24524C20.5469 7.2341 20.5489 7.22295 20.55 7.2118C20.5504 7.20664 20.5504 7.20159 20.5508 7.19643C20.5515 7.18528 20.5525 7.17395 20.5525 7.1628C20.5525 7.15549 20.5517 7.14818 20.5515 7.14087C20.5511 7.13188 20.551 7.12298 20.5502 7.11399C20.5491 7.1034 20.5475 7.09291 20.5458 7.08232C20.5449 7.0766 20.5443 7.07098 20.5433 7.06545C20.541 7.05299 20.5377 7.04091 20.5347 7.02863C20.5335 7.02498 20.5329 7.02114 20.5319 7.01749C20.5285 7.00559 20.5243 6.99406 20.5198 6.98254C20.5183 6.97851 20.5173 6.97448 20.5156 6.97045C20.5118 6.96062 20.507 6.95106 20.5026 6.9415C20.4999 6.93579 20.4975 6.92998 20.4946 6.92445C20.4909 6.91714 20.4864 6.91002 20.4823 6.9029C20.4778 6.89541 20.4737 6.88754 20.4687 6.88023C20.4654 6.87489 20.4614 6.87002 20.4579 6.86505C20.4515 6.85587 20.4453 6.84697 20.4382 6.83835C20.4349 6.83413 20.4312 6.83029 20.4277 6.82626C20.42 6.81727 20.4122 6.80818 20.4036 6.79956C20.4028 6.79881 20.4022 6.79788 20.4014 6.79722L18.9663 5.36208L20.3963 3.93182L20.3992 3.9291L20.4017 3.92657C20.404 3.92423 20.4061 3.9216 20.4083 3.91908C20.4176 3.90952 20.4265 3.89987 20.435 3.88956C20.439 3.88478 20.4426 3.87954 20.4463 3.87457C20.4527 3.86633 20.4589 3.85827 20.4646 3.84965C20.4694 3.84253 20.4738 3.83504 20.4782 3.82754C20.4823 3.82098 20.4863 3.81433 20.49 3.80758C20.4947 3.79878 20.499 3.78988 20.5032 3.78088C20.5059 3.77498 20.5089 3.76898 20.5114 3.76318C20.5154 3.75381 20.5188 3.74416 20.5222 3.7346C20.5243 3.7286 20.5268 3.72233 20.5286 3.71633C20.5315 3.70715 20.5337 3.69787 20.5361 3.68869C20.5379 3.68157 20.5397 3.67464 20.5413 3.66742C20.5431 3.65918 20.5442 3.65094 20.5456 3.64269C20.5469 3.63426 20.5483 3.62583 20.5493 3.61739C20.55 3.61027 20.5504 3.60315 20.5508 3.59594C20.5515 3.5862 20.5521 3.57673 20.5523 3.56699C20.5523 3.56062 20.5519 3.55415 20.5517 3.54778C20.5515 3.53757 20.5511 3.52726 20.5502 3.51724C20.5496 3.51068 20.5487 3.50422 20.548 3.49785C20.5467 3.48801 20.5455 3.47808 20.5436 3.46824C20.5422 3.46075 20.5404 3.45306 20.5385 3.44557C20.5367 3.43714 20.5348 3.4287 20.5325 3.42027C20.5296 3.41043 20.5261 3.4005 20.5227 3.39067C20.5207 3.38504 20.5188 3.37914 20.5167 3.37333C20.5117 3.36087 20.5061 3.3486 20.5 3.33633C20.4986 3.33342 20.4976 3.33061 20.4961 3.32789L20.4946 3.32499L20.4927 3.32096L19.541 1.45597C23.0392 2.95173 25.2355 5.75455 25.2355 8.84996V22.5442Z" fill="#F2F2F2"/>
</g>
<defs>
<clipPath id="clip0">
<rect width="28" height="28" fill="white"/>
</clipPath>
</defs>
</svg>
