<svg width="23" height="23" viewBox="0 0 23 23" fill="none" xmlns="http://www.w3.org/2000/svg">
<path d="M22.476 16.0775L22.476 16.0775L22.4769 16.0803C22.569 16.3392 22.6384 16.6056 22.6843 16.8766C22.7284 17.1521 22.7503 17.4307 22.75 17.7097V17.71C22.75 18.3719 22.6196 19.0272 22.3663 19.6387C22.1131 20.2502 21.7418 20.8058 21.2738 21.2738C20.8058 21.7418 20.2502 22.1131 19.6387 22.3664C19.0273 22.6196 18.3721 22.75 17.7103 22.75C13.0814 22.744 8.64378 20.9025 5.37064 17.6294C2.09753 14.3563 0.256043 9.9187 0.25 5.28984C0.250043 3.95321 0.781037 2.67133 1.72618 1.72618C2.67047 0.781898 3.95087 0.251011 5.28618 0.250001C5.56668 0.258795 5.84564 0.295148 6.11903 0.358539L6.12889 0.360825L6.1389 0.362307C6.40483 0.401658 6.66625 0.467014 6.91941 0.557434L6.9194 0.557453L6.92247 0.558504C7.06695 0.608006 7.19646 0.693461 7.2988 0.806824C7.40112 0.920161 7.47292 1.05767 7.50744 1.2064C7.50745 1.20644 7.50746 1.20647 7.50747 1.2065L9.08269 8.02478C9.08272 8.02494 9.08276 8.0251 9.08279 8.02526C9.11591 8.17169 9.11188 8.32408 9.07104 8.46855L9.31162 8.53654L9.07104 8.46856C9.03017 8.61319 8.95373 8.74528 8.84869 8.85278L8.84347 8.85812L8.83858 8.86377C8.80239 8.90552 8.78634 8.92276 8.76076 8.94313C8.732 8.96601 8.68507 8.99732 8.58683 9.05197C8.41049 9.15008 8.10553 9.30369 7.52363 9.5968C7.45129 9.63324 7.37468 9.67183 7.29349 9.71274L7.0788 9.82094L7.17852 10.0397C8.33611 12.5792 10.3671 14.6186 12.9019 15.7866L13.1176 15.886L13.2279 15.6756C13.6032 14.9597 13.7896 14.6068 13.9024 14.4132C13.9583 14.3173 13.9911 14.2693 14.0154 14.2389C14.0379 14.2107 14.0563 14.1931 14.0966 14.1557L14.0967 14.1558L14.1012 14.1513C14.2087 14.0463 14.3408 13.9698 14.4854 13.929C14.63 13.8881 14.7824 13.8841 14.9289 13.9172C14.929 13.9173 14.9291 13.9173 14.9292 13.9173L21.828 15.4925C21.8281 15.4926 21.8283 15.4926 21.8284 15.4926C21.977 15.5272 22.1144 15.599 22.2277 15.7012C22.341 15.8035 22.4265 15.933 22.476 16.0775ZM17.7098 20.95L17.711 20.95C18.569 20.9467 19.3909 20.6044 19.9977 19.9977C20.6044 19.3909 20.9467 18.569 20.95 17.711V17.71V17.3305V17.1313L20.7558 17.0868L15.4313 15.8678L15.244 15.8249L15.1544 15.9949L14.8208 16.6274L14.8199 16.6291C14.5534 17.1444 14.3499 17.5281 14.1096 17.7486C13.9974 17.8517 13.8866 17.909 13.7656 17.9283C13.6425 17.9479 13.4845 17.932 13.2728 17.8463L13.2729 17.8461L13.2632 17.8426C11.3925 17.173 9.69444 16.0951 8.29239 14.6872C6.89033 13.2793 5.81951 11.5767 5.15773 9.70323L5.15386 9.69228L5.14899 9.68173C5.06132 9.49179 5.04685 9.34984 5.06649 9.23861C5.0862 9.12693 5.14532 9.01776 5.25528 8.90249C5.48773 8.65879 5.88647 8.44555 6.39451 8.17972C6.39464 8.17965 6.39477 8.17958 6.3949 8.17951L7.01508 7.85794L7.18716 7.76871L7.14361 7.57982L5.91311 2.24382L5.86841 2.05H5.6695L5.29 2.05L5.28904 2.05C4.43101 2.05328 3.60905 2.39559 3.00232 3.00232C2.39559 3.60905 2.05328 4.43101 2.05 5.28904L2.05 5.29019C2.05309 9.44248 3.70396 13.4238 6.64007 16.3599C9.57618 19.296 13.5575 20.9469 17.7098 20.95ZM15.2663 7.7337C14.5724 7.03982 13.6313 6.65 12.65 6.65C12.4113 6.65 12.1824 6.55518 12.0136 6.3864C11.8448 6.21761 11.75 5.98869 11.75 5.75C11.75 5.51131 11.8448 5.28239 12.0136 5.1136C12.1824 4.94482 12.4113 4.85 12.65 4.85C14.1087 4.85 15.5076 5.42946 16.5391 6.46091C17.5705 7.49236 18.15 8.89131 18.15 10.35C18.15 10.5887 18.0552 10.8176 17.8864 10.9864C17.7176 11.1552 17.4887 11.25 17.25 11.25C17.0113 11.25 16.7824 11.1552 16.6136 10.9864C16.4448 10.8176 16.35 10.5887 16.35 10.35C16.35 9.3687 15.9602 8.42759 15.2663 7.7337ZM18.519 4.48101C16.9624 2.92446 14.8513 2.05 12.65 2.05C12.4113 2.05 12.1824 1.95518 12.0136 1.7864C11.8448 1.61761 11.75 1.38869 11.75 1.15C11.75 0.911305 11.8448 0.682387 12.0136 0.513604C12.1824 0.344821 12.4113 0.25 12.65 0.25C15.3287 0.25 17.8977 1.3141 19.7918 3.20822C21.6859 5.10234 22.75 7.67131 22.75 10.35C22.75 10.5887 22.6552 10.8176 22.4864 10.9864C22.3176 11.1552 22.0887 11.25 21.85 11.25C21.6113 11.25 21.3824 11.1552 21.2136 10.9864C21.0448 10.8176 20.95 10.5887 20.95 10.35C20.95 8.1487 20.0755 6.03757 18.519 4.48101Z" fill="#DDDDDD" stroke="black" stroke-width="0.5"/>
</svg>
