<svg width="26" height="24" viewBox="0 0 26 24" fill="none" xmlns="http://www.w3.org/2000/svg">
<path d="M23.1765 0.425442C22.8953 0.538756 21.9706 0.926734 20.573 1.51317C20.2455 1.65058 19.892 1.79889 19.5147 1.95712L23.1765 0.425442ZM23.1765 0.425442H23.1821L23.2192 0.409918C23.4955 0.294207 23.7887 0.224003 24.0874 0.202027C24.421 0.185593 24.7518 0.269389 25.0373 0.442631C25.3762 0.655532 25.6235 0.987189 25.7307 1.37275C25.836 1.759 25.8144 2.16538 25.7124 2.61918L25.7124 2.61916L25.7113 2.62469L21.9799 21.7406L21.9513 21.8139L21.9508 21.8153L21.9507 21.8155L21.9507 21.8156L21.9507 21.8157L21.9506 21.8157L21.9506 21.8158L21.9495 21.8186L21.9434 21.8334C21.9377 21.8469 21.9285 21.8677 21.9158 21.8945C21.8902 21.948 21.8503 22.025 21.7944 22.1152C21.6821 22.2961 21.5076 22.5261 21.2582 22.7268L21.2581 22.7269C20.7766 23.1146 19.8357 23.3494 18.8973 22.9376L18.8955 22.9368L18.8087 22.8997L13.9956 19.2072L13.8628 19.1054L13.7392 19.218L10.8602 21.8393L10.8325 21.8615L10.8301 21.8633C10.8269 21.8656 10.8214 21.8695 10.8139 21.8746C10.7988 21.885 10.7754 21.9003 10.7446 21.9184C10.6828 21.9548 10.5922 22.0017 10.4801 22.0421C10.2556 22.123 9.95259 22.1751 9.61877 22.0741L9.60551 22.0701L9.59182 22.0679L9.59048 22.0677C9.55464 22.0621 9.53604 22.0592 9.51896 22.0554C9.51604 22.0537 9.51283 22.052 9.50939 22.0502L9.51139 22.0427C9.44193 22.0222 9.37513 21.9936 9.31239 21.9574C9.18654 21.8775 9.08096 21.778 8.98911 21.6567L8.98917 21.6566L8.98589 21.6525C8.78874 21.4059 8.62288 21.0732 8.44636 20.5103L8.44616 20.5096C8.25582 19.9099 7.69141 18.0641 7.23998 16.5877C6.96743 15.6964 6.73606 14.9397 6.65306 14.6733L6.6227 14.5758L6.52597 14.5432L1.64184 12.8979L1.61078 12.8874H1.60629C1.60107 12.8854 1.59522 12.883 1.58877 12.8804C1.5563 12.8674 1.50883 12.8472 1.45106 12.8199C1.3351 12.765 1.17987 12.6819 1.02181 12.5694L1.02176 12.5693C0.704276 12.3435 0.289934 11.9537 0.210099 11.3133L0.209994 11.3124C0.162538 10.944 0.291162 10.5794 0.453802 10.3406C0.593543 10.1362 0.773302 9.96228 0.982203 9.82935L0.982265 9.82945L0.987894 9.82559C1.16318 9.70546 1.33574 9.6172 1.46481 9.55899C1.52911 9.52998 1.58204 9.50869 1.61833 9.49484C1.61844 9.4948 1.61854 9.49477 1.61865 9.49473L1.61918 9.49605L1.68119 9.47204L1.68056 9.47026L1.68448 9.4686L1.85883 9.39508L2.52125 9.11576L4.89104 8.11676C6.85535 7.28883 9.48193 6.18209 12.131 5.06684L12.131 5.06683L19.5145 1.95723L23.1765 0.425442ZM12.753 6.54261C10.1038 7.65787 7.47623 8.76463 5.51089 9.59258L3.1397 10.5916L2.47681 10.8709L2.30233 10.9444L2.25761 10.9633L2.24784 10.9674L2.22227 10.9765L2.2107 10.9806L2.19971 10.9861L2.17047 11.0007C2.16839 11.0016 2.16626 11.0024 2.1641 11.0032L1.4478 11.2411L2.16116 11.3837L2.17833 11.3895L7.90605 13.3181L7.94387 13.5072L8.18881 13.3554L20.3592 5.81594L20.3729 5.80946C20.3872 5.80285 20.4082 5.79363 20.4333 5.78376C20.4854 5.7633 20.5475 5.74318 20.6036 5.73462C20.6331 5.73011 20.6524 5.73009 20.664 5.73095C20.6645 5.73812 20.6646 5.74804 20.6638 5.76141L20.6576 5.86162C20.6543 5.86652 20.6506 5.87179 20.6464 5.87744C20.6126 5.92357 20.5557 5.9884 20.4622 6.07534L20.462 6.07552L10.8038 15.0776L10.7532 15.1247L10.7426 15.193L9.99238 19.9841L9.90441 20.5459L10.3247 20.1628L13.7719 17.0208L19.5505 21.451L19.5725 21.4679L19.5984 21.4782C19.7641 21.544 19.8928 21.5802 20.0015 21.5779C20.1344 21.5751 20.2126 21.5159 20.2617 21.4769L20.2619 21.4767C20.3595 21.3989 20.4061 21.314 20.4221 21.2849C20.4239 21.2816 20.4253 21.279 20.4263 21.2772L20.4439 21.2475L20.4506 21.2136L24.1504 2.27926L24.1541 2.26026V2.25221C24.1655 2.20045 24.1713 2.16359 24.1729 2.12903C24.1737 2.11324 24.1734 2.09865 24.1733 2.09072L24.1732 2.08761C24.1732 2.08037 24.1732 2.07444 24.1737 2.06553L24.1872 1.85286H23.9741L23.9716 1.85286C23.9605 1.85285 23.9417 1.85283 23.9249 1.85452C23.913 1.85571 23.8972 1.85809 23.8792 1.86356C23.8607 1.8692 23.8464 1.87619 23.8368 1.88136L23.8272 1.88678L23.8248 1.88819L23.8235 1.88897L23.8218 1.88993C23.8207 1.89051 23.8146 1.89365 23.7994 1.89955L23.7986 1.89988C23.71 1.9349 22.1876 2.56933 20.1338 3.43182L20.1335 3.43198C18.3433 4.18811 16.085 5.13924 13.7794 6.11029C13.4378 6.25415 13.0953 6.39844 12.753 6.54261ZM12.753 6.54261L12.8306 6.72694M12.753 6.54261L12.8306 6.72694M12.8306 6.72694C13.1727 6.58285 13.5151 6.43863 13.8565 6.29484C16.1623 5.32372 18.4209 4.37245 20.2113 3.61622L2.26566 11.0004L2.26636 10.9968L2.28136 10.9998L2.44215 11.032V11.0563L2.50319 11.0768C3.46996 10.6694 8.11622 8.71165 12.8306 6.72694ZM2.36761 11.3493L2.34659 11.3598L2.34242 11.3619L2.3424 11.3619C2.32543 11.3699 2.30799 11.3769 2.29018 11.3828L2.23688 11.2223L2.36761 11.3493ZM2.36761 11.3493L2.38705 11.3424L2.38716 11.3428L2.39783 11.3383L2.35566 11.2382M2.36761 11.3493L2.35566 11.2382M2.35566 11.2382L2.3557 11.2382L2.39789 11.3382L2.39807 11.3382L2.39878 11.3379L2.40163 11.3367L2.41294 11.3319L2.45766 11.313L2.51111 11.2905L8.06888 13.1618L8.07202 13.1669L2.35566 11.2382ZM9.5382 22.0673L9.53749 22.0669C9.53864 22.0676 9.53916 22.068 9.5382 22.0673ZM2.22714 11.193L2.22814 11.196L2.23743 11.1415L2.22714 11.193ZM2.24886 11.0844L2.23777 11.1398L2.26239 11.0167L2.25308 11.0633L2.24886 11.0844ZM8.08349 13.1854L8.2796 13.1462L8.2756 13.1262L8.26497 13.073L20.2623 5.64069L8.08349 13.1854ZM20.661 5.71479C20.6611 5.71467 20.6616 5.71557 20.6622 5.71787C20.6612 5.71607 20.6609 5.71491 20.661 5.71479Z" fill="#DDDDDD" stroke="#021422" stroke-width="0.4"/>
</svg>
