<svg width="25" height="27" viewBox="0 0 25 27" fill="none" xmlns="http://www.w3.org/2000/svg">
<path d="M8.88703 24.8813L8.74056 24.7451C8.60321 24.8928 8.47275 25.0409 8.35022 25.18C8.28897 25.2495 8.22971 25.3167 8.17255 25.3806C7.99765 25.576 7.83909 25.7434 7.68309 25.8742C7.52748 26.0048 7.38299 26.0915 7.23864 26.1338C7.09799 26.175 6.94662 26.1774 6.76896 26.1217L6.7674 26.1212C6.51306 26.0438 6.37403 25.808 6.30138 25.5341C6.26631 25.4018 6.25069 25.2738 6.24403 25.1779C6.24073 25.1304 6.23969 25.0916 6.23946 25.0652C6.23934 25.052 6.23943 25.042 6.23953 25.0357L6.23968 25.0289L6.23971 25.0279L6.23983 25.0279L6.23985 25.0207L6.245 22.364L6.24539 22.1636H6.06759C3.07007 21.3109 1.59548 19.3357 0.872013 17.1427C0.142203 14.9305 0.179826 12.5038 0.215936 10.7886C0.287638 7.38275 0.948497 4.68459 2.77501 2.85582C4.42175 1.34635 6.95346 0.680163 9.1049 0.397146C10.1765 0.256181 11.1437 0.211479 11.8431 0.202063C12.1926 0.197357 12.4748 0.201469 12.6693 0.206734C12.7665 0.209366 12.8417 0.212285 12.8924 0.214532L12.9497 0.217278L12.9639 0.218048L12.9673 0.218242L12.9681 0.218287L12.9682 0.218295L12.9682 0.218603L12.9793 0.218651C18.8337 0.244194 21.4309 2.14834 22.0452 2.71431L22.0452 2.71437L22.0495 2.71813C24.1433 4.53909 25.3577 8.62917 24.5462 15.2341L24.5462 15.2343C24.1617 18.386 22.7876 20.0934 21.421 21.0517C20.2968 21.8401 19.1803 22.1256 18.5559 22.2852C18.4134 22.3217 18.2965 22.3515 18.2111 22.3794L18.2729 22.5695M8.88703 24.8813L8.74025 24.7454C9.18554 24.2643 9.80114 23.5564 10.2702 23.0152L10.3367 22.9384L10.438 22.9469C14.6409 23.2997 17.8633 22.4905 18.2121 22.379L18.2729 22.5695M8.88703 24.8813C9.33496 24.3973 9.95279 23.6868 10.4213 23.1462C14.6535 23.5014 17.9022 22.688 18.2729 22.5695M8.88703 24.8813C8.75137 25.0272 8.62434 25.1714 8.50291 25.3092C7.89156 26.0032 7.42221 26.5359 6.70917 26.3126C5.99866 26.0963 6.03985 25.0203 6.03985 25.0203L6.04461 22.5636H6.045V22.3636H6.03985C6.03984 22.3636 6.03983 22.3636 6.03981 22.3636L24.7447 15.2585C24.0324 21.0979 19.9628 22.1339 18.5935 22.4825C18.4584 22.5169 18.3497 22.5446 18.2729 22.5695M9.14446 10.7689C8.95111 10.8201 8.95113 10.8202 8.95116 10.8203L8.95124 10.8206L8.95145 10.8214L8.95214 10.8239L8.95456 10.8327L8.96376 10.8646C8.97186 10.8921 8.984 10.9318 9.00055 10.9821C9.03365 11.0826 9.08448 11.226 9.15622 11.4002C9.29958 11.7483 9.52713 12.2212 9.86478 12.7226C10.54 13.7252 11.6619 14.8497 13.4352 15.303L13.451 15.307L13.4672 15.3084L13.4847 15.1092C13.4672 15.3084 13.4673 15.3085 13.4674 15.3085L13.4675 15.3085L13.4679 15.3085L13.4687 15.3086L13.4708 15.3087L13.4772 15.3092C13.4823 15.3095 13.4892 15.3099 13.4977 15.3102C13.5145 15.3109 13.5379 15.3113 13.5663 15.3107C13.6227 15.3095 13.7008 15.304 13.7888 15.2869C13.9613 15.2533 14.194 15.1701 14.3615 14.9616L14.3617 14.9613L14.856 14.3434L14.856 14.3435L14.8585 14.3402C15.0334 14.1121 15.4947 13.9359 15.9712 14.2023C16.7183 14.6241 17.6667 15.2792 18.2901 15.8674L18.2955 15.8724L18.3011 15.877C18.447 15.9958 18.5297 16.1391 18.5558 16.2948C18.5821 16.4521 18.5531 16.6386 18.4457 16.8445L18.423 16.8879V16.8938C18.1556 17.3531 17.7836 17.8233 17.3622 18.141C16.9476 18.4537 16.5109 18.6017 16.0821 18.4902L16.071 18.4737L15.9996 18.4537C15.4785 18.308 14.583 17.9112 13.6088 17.3847C12.6376 16.8597 11.6046 16.2147 10.8085 15.5809L10.8079 15.5804C9.98645 14.9314 9.23556 14.1652 8.65811 13.4307L8.65718 13.4295C8.13413 12.7745 7.60501 11.9963 7.09044 11.0588L7.09011 11.0583C6.54486 10.0727 6.2134 9.36217 6.01887 8.90025C5.92161 8.6693 5.85861 8.50055 5.82023 8.3907C5.80104 8.33577 5.78802 8.29558 5.77995 8.26969C5.77591 8.25675 5.77311 8.24739 5.77141 8.24156L5.76964 8.23545L5.7694 8.23459L5.7696 8.23454L5.76684 8.22599C5.62195 7.77617 5.7678 7.3162 6.09538 6.88104C6.41253 6.45972 6.88271 6.08773 7.34415 5.82034H7.3503L7.39377 5.79765C7.59927 5.69043 7.787 5.66129 7.94706 5.68821C8.10587 5.71492 8.25369 5.79942 8.37795 5.94896L8.37847 5.94958L8.53177 5.82113L8.37847 5.94958L8.37849 5.9496L8.37857 5.94969L8.3789 5.95009L8.38024 5.95169L8.38557 5.95806L8.40615 5.98271L8.48185 6.07374C8.54572 6.15075 8.63369 6.25731 8.73012 6.37553C8.92408 6.61331 9.14854 6.89371 9.28123 7.07648L9.28195 7.07745C9.53267 7.41843 9.87291 7.97149 10.0517 8.28296C10.3176 8.75922 10.1415 9.22037 9.91348 9.39515L9.91346 9.39512L9.91023 9.3977L9.2924 9.89196L9.29208 9.89221C9.08358 10.0597 9.00042 10.2924 8.96681 10.4649C8.94968 10.5529 8.94421 10.631 8.94298 10.6874C8.94236 10.7158 8.9428 10.7391 8.94345 10.756C8.94378 10.7645 8.94416 10.7714 8.94449 10.7765L8.94493 10.7828L8.9451 10.785L8.94517 10.7858L8.9452 10.7862L8.94521 10.7863C8.94522 10.7864 8.94523 10.7865 9.14446 10.7689ZM9.14446 10.7689L8.95111 10.8201L8.94673 10.8035L8.94523 10.7865L9.14446 10.7689ZM17.6537 20.8913L17.6545 20.891C17.7144 20.8718 17.8064 20.8505 17.9241 20.8232C18.4314 20.7057 19.4172 20.4773 20.3785 19.8241C21.581 19.007 22.756 17.5309 23.0949 14.7992C23.4391 12.0218 23.3771 9.67554 22.9931 7.81883C22.61 5.96622 21.9022 4.58311 20.9383 3.75581C20.3341 3.20921 17.895 1.69919 12.8787 1.67733L12.8666 1.6766L12.815 1.67385C12.77 1.6716 12.704 1.66867 12.6193 1.66589C12.4498 1.66033 12.2052 1.65536 11.903 1.6576C11.299 1.66206 10.4631 1.69534 9.53614 1.81077C7.69205 2.04039 5.44609 2.59975 3.96449 3.94303L3.96437 3.9429L3.95832 3.94886C2.30505 5.5808 1.76248 7.99075 1.70556 10.8628C1.70359 10.9619 1.70131 11.0643 1.69896 11.1698C1.66759 12.5764 1.62398 14.5322 2.16509 16.3373C2.74564 18.274 4.00276 20.0485 6.64884 20.8093C6.66 20.829 6.67332 20.8527 6.68848 20.8803C6.73832 20.9709 6.80792 21.1023 6.88613 21.2637C7.04294 21.5873 7.23254 22.0279 7.36765 22.5013C7.50342 22.977 7.57999 23.4716 7.5234 23.9084C7.49361 24.1384 7.42744 24.3505 7.31366 24.5365C7.13417 24.717 6.98151 24.8705 6.86849 24.9842L7.12004 25.2924C7.33737 25.1499 7.50392 24.9783 7.62838 24.7873C8.10894 24.3041 8.77045 23.6391 9.37891 23.0276L10.4993 21.9015L10.8498 21.5492L10.9163 21.4825C14.4901 21.6984 17.3271 20.9947 17.6537 20.8913ZM17.5933 20.7006C17.2844 20.7984 14.4269 21.5089 10.8384 21.2772C10.8384 21.2772 9.05461 23.0698 7.8572 24.2736L17.5933 20.7006ZM15.2754 10.6361L15.2754 10.6354C15.2457 10.0422 15.0905 9.56708 14.7686 9.23245C14.4457 8.89671 13.9845 8.73297 13.4088 8.70033C13.3524 8.69705 13.326 8.67629 13.3116 8.65801C13.2941 8.63578 13.2824 8.60099 13.2847 8.56021C13.2871 8.5194 13.3029 8.48601 13.3228 8.46587C13.3392 8.44932 13.3671 8.43228 13.4215 8.43548L13.4225 8.43554C14.1046 8.47221 14.6104 8.68414 14.9546 9.03921C15.2994 9.39494 15.5056 9.91846 15.54 10.6238C15.5427 10.6803 15.5248 10.7088 15.508 10.7252C15.4876 10.7451 15.4543 10.7603 15.4139 10.7622C15.3734 10.7641 15.3389 10.752 15.3168 10.7341C15.2985 10.7194 15.2781 10.6926 15.2754 10.6361ZM12.897 6.91397L12.8964 6.91393C12.842 6.91008 12.8166 6.8896 12.8025 6.8711C12.7853 6.84853 12.7739 6.81323 12.7768 6.7721C12.7797 6.73096 12.7959 6.69769 12.8159 6.67786C12.8323 6.66164 12.8601 6.64492 12.9146 6.64876L12.9287 6.44926L12.9142 6.64874C14.3628 6.75363 15.4562 7.30211 16.1811 8.11062C16.9068 8.9201 17.2765 10.0053 17.2492 11.2072L17.2492 11.2094C17.2485 11.2652 17.2293 11.2908 17.2127 11.3049C17.192 11.3224 17.158 11.3353 17.1167 11.3342C17.0754 11.3331 17.0407 11.3182 17.0192 11.2985C17.0016 11.2822 16.9837 11.2548 16.9849 11.201C17.0117 10.0661 16.6701 9.0407 15.9721 8.27311C15.2736 7.50501 14.234 7.01232 12.897 6.91397ZM19.0048 11.8878L19.0048 11.8885C19.0055 11.9444 18.9868 11.9718 18.9694 11.9874C18.9483 12.0064 18.9141 12.0205 18.8731 12.0209C18.8321 12.0212 18.798 12.0076 18.7769 11.9891C18.7597 11.9741 18.7407 11.9472 18.7407 11.8913L18.7407 11.8899C18.7249 9.74577 18.0014 8.07171 16.8313 6.93036C15.6627 5.79043 14.0638 5.19681 12.3231 5.18351C12.2685 5.18277 12.2412 5.16379 12.2255 5.14584C12.2065 5.12419 12.1929 5.08992 12.1929 5.04948C12.1929 5.00902 12.2065 4.97553 12.2248 4.95487C12.2397 4.93802 12.2661 4.91947 12.3205 4.91933C14.1715 4.93206 15.8313 5.577 17.0321 6.75972C18.232 7.94161 18.9872 9.67403 19.0048 11.8878Z" fill="#DDDDDD" stroke="#021422" stroke-width="0.4"/>
</svg>
