<svg width="28" height="28" viewBox="0 0 28 28" fill="none" xmlns="http://www.w3.org/2000/svg">
<g clip-path="url(#clip0)">
<path d="M27.2769 5.71729L22.2827 0.723067C21.4298 -0.129894 20.0988 -0.241128 19.1163 0.458215L14.9163 3.39942C11.7572 3.12631 8.69227 4.22908 6.44018 6.48122C4.18837 8.73304 3.08483 11.7987 3.35843 14.9583L0.458902 19.1167C-0.240004 20.0992 -0.12877 21.4299 0.724082 22.2827L5.71836 27.277C6.57209 28.1307 7.90297 28.2403 8.88433 27.5422L13.0418 24.6416C15.8766 24.8872 18.6982 24.0248 20.9168 22.1179L21.5188 22.7198C21.839 23.0401 22.3584 23.0402 22.6787 22.7198C22.999 22.3995 22.999 21.8802 22.6787 21.5599L22.0767 20.958C23.9801 18.7435 24.8464 15.9241 24.6006 13.0838L27.5417 8.88397C28.241 7.90151 28.13 6.57036 27.2769 5.71729ZM7.9424 26.1993C7.93993 26.201 7.93747 26.2027 7.93501 26.2045C7.60733 26.4385 7.16288 26.4017 6.87823 26.1171L1.88395 21.1228C1.5993 20.8382 1.56255 20.3937 1.79656 20.0661C1.79836 20.0636 1.80017 20.0611 1.80192 20.0585L3.79681 17.1976C4.30289 18.8266 5.1996 20.3193 6.44018 21.5599C7.68093 22.8007 9.17385 23.6974 10.8032 24.2035L7.9424 26.1993ZM20.359 20.4C16.8261 23.9329 11.1184 23.9183 7.60005 20.4C4.0855 16.8854 4.06379 11.1773 7.60005 7.64109C11.1258 4.11539 16.8334 4.1155 20.359 7.64109C23.8738 11.156 23.8951 16.8639 20.359 20.4ZM26.2046 7.93389C26.2032 7.93597 26.2017 7.93804 26.2002 7.94012L24.1637 10.8481C23.6578 9.21729 22.7606 7.72301 21.5188 6.48122C20.2771 5.23943 18.7827 4.34229 17.1518 3.83637L20.0599 1.79986C20.062 1.79844 20.064 1.79697 20.0661 1.79543C20.3938 1.56154 20.838 1.59823 21.1227 1.88293L26.117 6.87722C26.4018 7.16192 26.4386 7.60631 26.2046 7.93389Z" fill="#F2F2F2"/>
<path d="M16.2989 11.7008C15.9786 11.3805 15.4593 11.3805 15.139 11.7008L13.3991 13.4407C13.2453 13.5945 13.1589 13.8031 13.1589 14.0206C13.1589 14.2381 13.2453 14.4467 13.3991 14.6005L14.559 15.7604C14.8793 16.0806 15.3986 16.0807 15.7189 15.7604C16.0392 15.4401 16.0392 14.9208 15.7189 14.6005L15.139 14.0206L16.2989 12.8607C16.6192 12.5404 16.6192 12.0211 16.2989 11.7008Z" fill="#F2F2F2"/>
<path d="M19.1989 8.80138C19.1988 8.80128 19.1987 8.80111 19.1986 8.801C19.1985 8.80089 19.1983 8.80078 19.1982 8.80067C16.3177 5.92039 11.6407 5.92017 8.7599 8.80067C8.75979 8.80078 8.75963 8.80089 8.75952 8.801C8.75941 8.80111 8.7593 8.80122 8.75919 8.80138C5.87885 11.682 5.87858 16.3592 8.75952 19.2401C10.1517 20.6323 12.0054 21.399 13.9791 21.399C15.9526 21.399 17.8061 20.6324 19.1983 19.2405C19.1984 19.2404 19.1985 19.2402 19.1986 19.2401C19.1987 19.24 19.1988 19.2399 19.1989 19.2398C22.0792 16.359 22.0794 11.6822 19.1989 8.80138ZM18.5774 17.4591L18.0387 16.9204C17.7184 16.6001 17.1991 16.6001 16.8788 16.9204C16.5585 17.2407 16.5585 17.76 16.8788 18.0803L17.4171 18.6186C15.3868 20.1388 12.5712 20.1388 10.5409 18.6186L11.0793 18.0802C11.3996 17.7599 11.3996 17.2406 11.0793 16.9203C10.759 16.6 10.2397 16.6 9.91938 16.9203L9.38071 17.459C7.8691 15.4437 7.85143 12.6209 9.38071 10.5821L9.91938 11.1207C10.2397 11.441 10.7589 11.4411 11.0793 11.1207C11.3996 10.8004 11.3996 10.2812 11.0793 9.96087L10.5409 9.42253C12.5685 7.9044 15.3827 7.89931 17.4171 9.42253L16.8788 9.96087C16.5585 10.2812 16.5585 10.8004 16.8788 11.1207C17.1991 11.441 17.7184 11.441 18.0387 11.1207L18.5773 10.582C20.0889 12.5972 20.1069 15.42 18.5774 17.4591Z" fill="#F2F2F2"/>
</g>
<defs>
<clipPath id="clip0">
<rect width="28" height="28" fill="white"/>
</clipPath>
</defs>
</svg>
