<svg width="25" height="26" viewBox="0 0 25 26" fill="none" xmlns="http://www.w3.org/2000/svg">
<path d="M13.0077 17.2341L13.0066 17.2336C11.9641 16.7549 11.062 16.1283 10.2986 15.3543C9.52822 14.5732 8.7329 13.5798 7.91313 12.3718C7.14433 11.2292 6.78158 10.2166 6.79178 9.32847L6.7918 9.32847V9.32617V9.19931C6.82323 8.27052 7.19889 7.46346 7.93242 6.77082C8.16202 6.56072 8.39723 6.46628 8.64258 6.46628C8.69473 6.46628 8.78227 6.47309 8.91074 6.48915C9.04419 6.50583 9.1567 6.5151 9.24479 6.5151C9.4411 6.5151 9.5212 6.5513 9.54512 6.57204C9.5853 6.60686 9.65511 6.71296 9.74149 6.93969L9.74146 6.9397L9.74269 6.94277C9.82825 7.15666 10.0063 7.63128 10.2778 8.36979C10.4132 8.7381 10.5141 9.02204 10.5809 9.22259C10.6144 9.32308 10.6387 9.40067 10.6544 9.45655C10.6623 9.4846 10.6674 9.50515 10.6705 9.51928C10.6713 9.52341 10.6719 9.52645 10.6723 9.52851C10.6703 9.59091 10.6424 9.68699 10.5605 9.82345C10.4771 9.96253 10.3472 10.1278 10.1655 10.32C9.97623 10.5202 9.82963 10.689 9.72911 10.8244C9.679 10.892 9.6371 10.9556 9.60691 11.0138C9.57952 11.0666 9.54935 11.1378 9.54935 11.2142C9.54935 11.3343 9.59076 11.4485 9.65437 11.5534C10.0355 12.3678 10.6035 13.1276 11.3536 13.8336C11.9784 14.4249 12.8136 14.9822 13.8532 15.5079C14.0009 15.5933 14.1534 15.646 14.3066 15.646C14.3978 15.646 14.4826 15.6106 14.5531 15.5698C14.6265 15.5275 14.7031 15.4684 14.7821 15.3974C14.9403 15.2553 15.1271 15.0484 15.3414 14.7819C15.5507 14.5216 15.7201 14.3328 15.8509 14.2108C15.9165 14.1496 15.9676 14.1098 16.0053 14.0864C16.0215 14.0763 16.0322 14.0711 16.0382 14.0686C16.051 14.0713 16.0834 14.079 16.1433 14.1003C16.2198 14.1276 16.3222 14.1699 16.4522 14.2285C16.7116 14.3456 17.0692 14.5226 17.5264 14.7607C17.9838 14.9989 18.3307 15.1882 18.5687 15.3292C18.6881 15.3998 18.777 15.4566 18.8378 15.4999C18.8648 15.5192 18.884 15.5342 18.8969 15.5453C18.9026 15.5728 18.9081 15.6189 18.9081 15.6901C18.9081 16.0148 18.8242 16.401 18.6459 16.8523C18.4977 17.2125 18.1603 17.5377 17.589 17.813C17.0115 18.0912 16.488 18.2245 16.0156 18.2245C15.7376 18.2245 15.3487 18.1479 14.8407 17.9821C14.3356 17.8172 13.725 17.5685 13.0077 17.2341ZM2.98442 21.9898L2.85734 22.3646L3.23447 22.2446L7.08285 21.0201C8.80773 22.135 10.6908 22.6935 12.7279 22.6935C14.133 22.6935 15.4809 22.4167 16.77 21.8635C18.0558 21.3116 19.1652 20.5707 20.0958 19.6401C21.0265 18.7095 21.7673 17.6001 22.3192 16.3142C22.8725 15.0252 23.1492 13.6772 23.1492 12.2721C23.1492 10.867 22.8725 9.51911 22.3192 8.23004C21.7673 6.94417 21.0265 5.83476 20.0958 4.90415C19.1652 3.97355 18.0558 3.23267 16.77 2.6808C15.4809 2.12754 14.133 1.85078 12.7279 1.85078C11.3228 1.85078 9.97484 2.12754 8.68577 2.6808C7.3999 3.23267 6.29049 3.97355 5.35988 4.90415C4.42927 5.83476 3.6884 6.94417 3.13652 8.23004C2.58327 9.51911 2.30651 10.867 2.30651 12.2721C2.30651 14.4828 2.9508 16.4923 4.23715 18.295L2.98442 21.9898ZM6.88389 22.8393L6.80823 22.7975L6.72592 22.8239L0.315571 24.8838L2.40314 18.6672L2.4327 18.5792L2.38453 18.4998C1.2319 16.6001 0.655729 14.5256 0.655729 12.2721C0.655729 10.6389 0.975796 9.07893 1.61602 7.59042C2.25768 6.09855 3.11728 4.81531 4.19416 3.73843C5.27104 2.66155 6.55428 1.80195 8.04614 1.16029C9.53466 0.520067 11.0947 0.2 12.7279 0.2C14.3611 0.2 15.9211 0.520067 17.4096 1.16029C18.9015 1.80195 20.1847 2.66155 21.2616 3.73843C22.3385 4.81531 23.198 6.09855 23.8397 7.59042C24.4799 9.07893 24.8 10.6389 24.8 12.2721C24.8 13.9053 24.4799 15.4653 23.8397 16.9539C23.198 18.4457 22.3385 19.729 21.2616 20.8058C20.1847 21.8827 18.9015 22.7423 17.4096 23.384C15.9211 24.0242 14.3611 24.3443 12.7279 24.3443C10.6457 24.3443 8.69876 23.8428 6.88389 22.8393Z" fill="#DDDDDD" stroke="#021422" stroke-width="0.4"/>
</svg>
